<?xml version="1.0" encoding="UTF-8" standalone="no"?>
<!-- Created with Inkscape (http://www.inkscape.org/) -->

<svg
   version="1.1"
   id="svg1"
   width="373.44"
   height="174.71999"
   viewBox="0 0 373.44 174.71999"
   sodipodi:docname="nest-7.pdf"
   xmlns:inkscape="http://www.inkscape.org/namespaces/inkscape"
   xmlns:sodipodi="http://sodipodi.sourceforge.net/DTD/sodipodi-0.dtd"
   xmlns="http://www.w3.org/2000/svg"
   xmlns:svg="http://www.w3.org/2000/svg">
  <defs
     id="defs1">
    <clipPath
       clipPathUnits="userSpaceOnUse"
       id="clipPath2">
      <path
         d="M 0,0 H 1166.6666 V 543.052 H 0 Z"
         transform="scale(0.33514287)"
         clip-rule="evenodd"
         id="path2" />
    </clipPath>
    <clipPath
       clipPathUnits="userSpaceOnUse"
       id="clipPath4">
      <path
         d="M 0,0 H 1166.6666 V 537.08435 H 0 Z"
         transform="matrix(0.33514287,0,0,0.33514287,-0.49999999,-0.49999999)"
         clip-rule="evenodd"
         id="path4" />
    </clipPath>
    <clipPath
       clipPathUnits="userSpaceOnUse"
       id="clipPath5">
      <path
         d="M 0,0 H 1166.6666 V 537.08435 H 0 Z"
         transform="matrix(0.33513952,0,0,0.33513952,-33.90625,-47)"
         clip-rule="evenodd"
         id="path5" />
    </clipPath>
    <clipPath
       clipPathUnits="userSpaceOnUse"
       id="clipPath6">
      <path
         d="M 0,0 H 1166.6666 V 537.08435 H 0 Z"
         transform="matrix(0.33513952,0,0,0.33513952,-102.92188,-63)"
         clip-rule="evenodd"
         id="path6" />
    </clipPath>
    <clipPath
       clipPathUnits="userSpaceOnUse"
       id="clipPath8">
      <path
         d="M 0,0 H 1166.6666 V 537.08435 H 0 Z"
         transform="matrix(0.33514287,0,0,0.33514287,-0.49999999,-0.49999999)"
         clip-rule="evenodd"
         id="path8" />
    </clipPath>
    <clipPath
       clipPathUnits="userSpaceOnUse"
       id="clipPath10">
      <path
         d="M 0,0 H 1166.6666 V 537.08435 H 0 Z"
         transform="matrix(0.33514287,0,0,0.33514287,-0.49999999,-0.49999999)"
         clip-rule="evenodd"
         id="path10" />
    </clipPath>
    <clipPath
       clipPathUnits="userSpaceOnUse"
       id="clipPath12">
      <path
         d="M 0,0 H 1166.6666 V 537.08435 H 0 Z"
         transform="matrix(0.33514287,0,0,0.33514287,-0.49999999,-0.49999999)"
         clip-rule="evenodd"
         id="path12" />
    </clipPath>
    <clipPath
       clipPathUnits="userSpaceOnUse"
       id="clipPath13">
      <path
         d="M 0,0 H 1166.6666 V 537.08435 H 0 Z"
         transform="matrix(0.33513952,0,0,0.33513952,-45.578124,-96.999999)"
         clip-rule="evenodd"
         id="path13" />
    </clipPath>
    <clipPath
       clipPathUnits="userSpaceOnUse"
       id="clipPath14">
      <path
         d="M 0,0 H 1166.6666 V 537.08435 H 0 Z"
         transform="matrix(0.33513952,0,0,0.33513952,-174.45313,-113)"
         clip-rule="evenodd"
         id="path14" />
    </clipPath>
    <clipPath
       clipPathUnits="userSpaceOnUse"
       id="clipPath16">
      <path
         d="M 0,0 H 1166.6666 V 537.08435 H 0 Z"
         transform="matrix(0.33514287,0,0,0.33514287,-0.49999999,-0.49999999)"
         clip-rule="evenodd"
         id="path16" />
    </clipPath>
    <clipPath
       clipPathUnits="userSpaceOnUse"
       id="clipPath17">
      <path
         d="M 0,0 H 1166.6666 V 537.08435 H 0 Z"
         transform="matrix(0.33513952,0,0,0.33513952,-39.3125,-155)"
         clip-rule="evenodd"
         id="path17" />
    </clipPath>
    <clipPath
       clipPathUnits="userSpaceOnUse"
       id="clipPath18">
      <path
         d="M 0,0 H 1166.6666 V 537.08435 H 0 Z"
         transform="matrix(0.33513952,0,0,0.33513952,-130.26563,-16)"
         clip-rule="evenodd"
         id="path18" />
    </clipPath>
  </defs>
  <sodipodi:namedview
     id="namedview1"
     pagecolor="#ffffff"
     bordercolor="#000000"
     borderopacity="0.25"
     inkscape:showpageshadow="2"
     inkscape:pageopacity="0.0"
     inkscape:pagecheckerboard="0"
     inkscape:deskcolor="#d1d1d1">
    <inkscape:page
       x="0"
       y="0"
       inkscape:label="1"
       id="page1"
       width="373.44"
       height="174.71999"
       margin="0"
       bleed="0" />
  </sodipodi:namedview>
  <g
     id="g1"
     inkscape:groupmode="layer"
     inkscape:label="1">
    <path
       id="path1"
       d="M 0,0 H 391 V 182 H 0 Z"
       style="fill:#ffffff;fill-opacity:1;fill-rule:nonzero;stroke:none"
       transform="scale(0.95481663)"
       clip-path="url(#clipPath2)" />
    <path
       id="path3"
       d="M 18,30 H 388 V 70 H 18 Z"
       style="fill:#ffffff;fill-opacity:1;fill-rule:nonzero;stroke:#000000;stroke-width:1;stroke-linecap:butt;stroke-linejoin:miter;stroke-miterlimit:10;stroke-dasharray:none;stroke-opacity:1"
       transform="matrix(0.95481663,0,0,0.95481663,0.47740831,0.47740831)"
       clip-path="url(#clipPath4)" />
    <g
       id="g4" />
    <text
       id="text4"
       xml:space="preserve"
       transform="matrix(0.95482617,0,0,0.95482617,32.374575,44.87683)"
       clip-path="url(#clipPath5)"><tspan
         style="font-variant:normal;font-weight:normal;font-size:13px;font-family:Helvetica;writing-mode:lr-tb;fill:#000000;fill-opacity:1;fill-rule:nonzero;stroke:none"
         x="0 9.3881836 13.717285 20.947266 28.177246 31.789062 39.019043 42.630859 49.86084 57.09082 60.702637 67.932617 75.162598 78.774414 81.662598 85.274414 91.774414 95.38623 101.88623 104.77441 112.00439 115.61621 119.22803 126.45801 133.68799 140.91797 144.52979 151.02979 155.35889 162.58887 169.81885 173.43066 180.66064 184.27246 191.50244 195.11426 201.61426 204.50244 211.73242 218.23242 224.73242 228.34424 231.23242 238.4624 242.07422 244.9624 248.57422 252.18604 255.79785 263.02783 270.25781 273.86963 277.48145 280.36963 283.25781 289.75781 293.36963 299.86963 303.48145 310.71143 313.59961 316.48779 320.09961 323.71143 330.94141"
         y="0"
         sodipodi:role="line"
         id="tspan4">Create an entity ﬁle, and create a class in it that lists all the</tspan></text>
    <text
       id="text5"
       xml:space="preserve"
       transform="matrix(0.95482617,0,0,0.95482617,98.2725,60.154049)"
       clip-path="url(#clipPath6)"><tspan
         style="font-variant:normal;font-weight:normal;font-size:13px;font-family:Helvetica;writing-mode:lr-tb;fill:#000000;fill-opacity:1;fill-rule:nonzero;stroke:none"
         x="0 7.2299805 11.559082 18.789062 26.019043 33.249023 37.578125 41.189941 44.078125 51.308105 57.808105 61.419922 65.031738 72.261719 79.491699 83.103516 86.715332 93.215332 100.44531 107.67529 112.00439 115.61621 122.84619 130.07617 133.68799 136.57617 140.18799 146.68799 150.2998 159.68799 162.57617 165.46436 168.35254 171.96436 179.19434 186.42432 192.92432"
         y="0"
         sodipodi:role="line"
         id="tspan5">properties that your entity will have</tspan></text>
    <path
       id="path7"
       d="M 8,30 V 163.63"
       style="fill:none;stroke:#000000;stroke-width:1;stroke-linecap:butt;stroke-linejoin:miter;stroke-miterlimit:10;stroke-dasharray:none;stroke-opacity:1"
       transform="matrix(0.95481663,0,0,0.95481663,0.47740831,0.47740831)"
       clip-path="url(#clipPath8)" />
    <path
       id="path9"
       d="m 8,168.88 -3.5,-7 3.5,1.75 3.5,-1.75 z"
       style="fill:#000000;fill-opacity:1;fill-rule:nonzero;stroke:#000000;stroke-width:1;stroke-linecap:butt;stroke-linejoin:miter;stroke-miterlimit:10;stroke-dasharray:none;stroke-opacity:1"
       transform="matrix(0.95481663,0,0,0.95481663,0.47740831,0.47740831)"
       clip-path="url(#clipPath10)" />
    <path
       id="path11"
       d="m 18,80 h 370 v 40 H 18 Z"
       style="fill:#ffffff;fill-opacity:1;fill-rule:nonzero;stroke:#000000;stroke-width:1;stroke-linecap:butt;stroke-linejoin:miter;stroke-miterlimit:10;stroke-dasharray:none;stroke-opacity:1"
       transform="matrix(0.95481663,0,0,0.95481663,0.47740831,0.47740831)"
       clip-path="url(#clipPath12)" />
    <text
       id="text12"
       xml:space="preserve"
       transform="matrix(0.95482617,0,0,0.95482617,43.519186,92.618138)"
       clip-path="url(#clipPath13)"><tspan
         style="font-variant:normal;font-weight:normal;font-size:13px;font-family:Helvetica;writing-mode:lr-tb;fill:#000000;fill-opacity:1;fill-rule:nonzero;stroke:none"
         x="0 9.3881836 16.618164 23.848145 31.078125 38.308105 44.808105 48.419922 52.031738 55.643555 62.873535 70.103516 73.715332 80.945312 88.175293 91.787109 94.675293 98.287109 104.78711 108.39893 112.01074 119.24072 122.85254 125.74072 129.35254 135.85254 139.46436 146.69434 153.92432 158.25342 165.4834 172.71338 176.3252 179.93701 190.76611 197.99609 205.22607 212.45605 215.34424 222.57422 226.18604 229.79785 233.18115 241.12207 248.35205 251.24023 257.74023 261.35205 267.85205 272.18115 279.41113 286.64111 290.25293 297.48291 303.98291 307.59473"
         y="0"
         sodipodi:role="line"
         id="tspan12">Connect the entity to its parent module.  This creates a</tspan></text>
    <text
       id="text13"
       xml:space="preserve"
       transform="matrix(0.95482617,0,0,0.95482617,166.57241,107.89536)"
       clip-path="url(#clipPath14)"><tspan
         style="font-variant:normal;font-weight:normal;font-size:13px;font-family:Helvetica;writing-mode:lr-tb;fill:#000000;fill-opacity:1;fill-rule:nonzero;stroke:none"
         x="0 4.3291016 11.559082 18.789062 26.019043 32.519043 35.407227 39.019043 46.249023 50.578125"
         y="0"
         sodipodi:role="line"
         id="tspan13">repository</tspan></text>
    <path
       id="path15"
       d="m 18,130 h 370 v 40 H 18 Z"
       style="fill:#ffffff;fill-opacity:1;fill-rule:nonzero;stroke:#000000;stroke-width:1;stroke-linecap:butt;stroke-linejoin:miter;stroke-miterlimit:10;stroke-dasharray:none;stroke-opacity:1"
       transform="matrix(0.95481663,0,0,0.95481663,0.47740831,0.47740831)"
       clip-path="url(#clipPath16)" />
    <text
       id="text16"
       xml:space="preserve"
       transform="matrix(0.95482617,0,0,0.95482617,37.536604,147.99806)"
       clip-path="url(#clipPath17)"><tspan
         style="font-variant:normal;font-weight:normal;font-size:13px;font-family:Helvetica;writing-mode:lr-tb;fill:#000000;fill-opacity:1;fill-rule:nonzero;stroke:none"
         x="0 9.3881836 16.618164 23.848145 31.078125 38.308105 44.808105 48.419922 52.031738 55.643555 62.873535 70.103516 73.715332 80.945312 88.175293 91.787109 94.675293 98.287109 104.78711 108.39893 112.01074 119.24072 122.85254 126.46436 133.69434 140.92432 144.53613 148.86523 156.09521 163.3252 166.93701 170.54883 177.04883 184.27881 191.50879 198.73877 205.96875 212.46875 216.08057 218.96875 226.19873 233.42871 237.04053 241.36963 244.25781 251.48779 255.09961 262.32959 269.55957 276.78955 280.40137 291.23047 298.46045 305.69043 312.92041 315.80859 323.03857"
         y="0"
         sodipodi:role="line"
         id="tspan16">Connect the entity to the root connection (in app module)</tspan></text>
    <text
       id="text17"
       xml:space="preserve"
       transform="matrix(0.95482617,0,0,0.95482617,124.38103,15.277219)"
       clip-path="url(#clipPath18)"><tspan
         style="font-variant:normal;font-weight:700;font-size:17px;font-family:Helvetica;writing-mode:lr-tb;fill:#000000;fill-opacity:1;fill-rule:nonzero;stroke:none"
         x="0 12.276855 18.892578 28.347168 37.801758 43.462891 48.186035 58.570312 68.95459 73.677734 83.132324 93.516602 98.239746 109.57861 119.96289 125.62402 130.34717 136.0083"
         y="0"
         sodipodi:role="line"
         id="tspan17">Creating an Entity</tspan></text>
  </g>
</svg>
