<?xml version="1.0" encoding="UTF-8" standalone="no"?>
<!-- Created with Inkscape (http://www.inkscape.org/) -->

<svg
   version="1.1"
   id="svg1"
   width="348.16"
   height="110.72"
   viewBox="0 0 348.16 110.72"
   sodipodi:docname="nest-12.pdf"
   xmlns:inkscape="http://www.inkscape.org/namespaces/inkscape"
   xmlns:sodipodi="http://sodipodi.sourceforge.net/DTD/sodipodi-0.dtd"
   xmlns="http://www.w3.org/2000/svg"
   xmlns:svg="http://www.w3.org/2000/svg">
  <defs
     id="defs1">
    <clipPath
       clipPathUnits="userSpaceOnUse"
       id="clipPath2">
      <path
         d="M 0,0 H 1087.5 V 343.57828 H 0 Z"
         transform="scale(0.33471265)"
         clip-rule="evenodd"
         id="path2" />
    </clipPath>
    <clipPath
       clipPathUnits="userSpaceOnUse"
       id="clipPath4">
      <path
         d="M 0,0 H 1087.5 V 340.59064 H 0 Z"
         transform="matrix(0.33471265,0,0,0.33471265,-0.49999999,-0.49999999)"
         clip-rule="evenodd"
         id="path4" />
    </clipPath>
    <clipPath
       clipPathUnits="userSpaceOnUse"
       id="clipPath6">
      <path
         d="M 0,0 H 1087.5 V 340.59064 H 0 Z"
         transform="matrix(0.33471265,0,0,0.33471265,-0.49999999,-0.49999999)"
         clip-rule="evenodd"
         id="path6" />
    </clipPath>
    <clipPath
       clipPathUnits="userSpaceOnUse"
       id="clipPath8">
      <path
         d="M 0,0 H 1087.5 V 340.59064 H 0 Z"
         transform="matrix(0.33471265,0,0,0.33471265,-0.49999999,-0.49999999)"
         clip-rule="evenodd"
         id="path8" />
    </clipPath>
    <clipPath
       clipPathUnits="userSpaceOnUse"
       id="clipPath9">
      <path
         d="M 0,0 H 1087.5 V 340.59064 H 0 Z"
         transform="matrix(0.33470931,0,0,0.33470931,-12.125,-18)"
         clip-rule="evenodd"
         id="path9" />
    </clipPath>
    <clipPath
       clipPathUnits="userSpaceOnUse"
       id="clipPath10">
      <path
         d="M 0,0 H 1087.5 V 340.59064 H 0 Z"
         transform="matrix(0.33470931,0,0,0.33470931,-131.1875,-35)"
         clip-rule="evenodd"
         id="path10" />
    </clipPath>
    <clipPath
       clipPathUnits="userSpaceOnUse"
       id="clipPath12">
      <path
         d="M 0,0 H 1087.5 V 340.59064 H 0 Z"
         transform="matrix(0.33471265,0,0,0.33471265,-0.49999999,-0.49999999)"
         clip-rule="evenodd"
         id="path12" />
    </clipPath>
    <clipPath
       clipPathUnits="userSpaceOnUse"
       id="clipPath13">
      <path
         d="M 0,0 H 1087.5 V 340.59064 H 0 Z"
         transform="matrix(0.33470931,0,0,0.33470931,-41.453125,-96)"
         clip-rule="evenodd"
         id="path13" />
    </clipPath>
  </defs>
  <sodipodi:namedview
     id="namedview1"
     pagecolor="#ffffff"
     bordercolor="#000000"
     borderopacity="0.25"
     inkscape:showpageshadow="2"
     inkscape:pageopacity="0.0"
     inkscape:pagecheckerboard="0"
     inkscape:deskcolor="#d1d1d1">
    <inkscape:page
       x="0"
       y="0"
       inkscape:label="1"
       id="page1"
       width="348.16"
       height="110.72"
       margin="0"
       bleed="0" />
  </sodipodi:namedview>
  <g
     id="g1"
     inkscape:groupmode="layer"
     inkscape:label="1">
    <path
       id="path1"
       d="M 0,0 H 364 V 115 H 0 Z"
       style="fill:#ffffff;fill-opacity:1;fill-rule:nonzero;stroke:none"
       transform="scale(0.9560439)"
       clip-path="url(#clipPath2)" />
    <path
       id="path3"
       d="M 181,41 V 61 51 64.629997"
       style="fill:none;stroke:#000000;stroke-width:1;stroke-linecap:butt;stroke-linejoin:miter;stroke-miterlimit:10;stroke-dasharray:none;stroke-opacity:1"
       transform="matrix(0.9560439,0,0,0.9560439,0.47802194,0.47802194)"
       clip-path="url(#clipPath4)" />
    <path
       id="path5"
       d="m 181,69.879997 -3.5,-6.999996 3.5,1.749996 3.5,-1.749996 z"
       style="fill:#000000;fill-opacity:1;fill-rule:nonzero;stroke:#000000;stroke-width:1;stroke-linecap:butt;stroke-linejoin:miter;stroke-miterlimit:10;stroke-dasharray:none;stroke-opacity:1"
       transform="matrix(0.9560439,0,0,0.9560439,0.47802194,0.47802194)"
       clip-path="url(#clipPath6)" />
    <path
       id="path7"
       d="M 1,1 H 361 V 41 H 1 Z"
       style="fill:#ffffff;fill-opacity:1;fill-rule:nonzero;stroke:#000000;stroke-width:1;stroke-linecap:butt;stroke-linejoin:miter;stroke-miterlimit:10;stroke-dasharray:none;stroke-opacity:1"
       transform="matrix(0.9560439,0,0,0.9560439,0.47802194,0.47802194)"
       clip-path="url(#clipPath8)" />
    <text
       id="text8"
       xml:space="preserve"
       transform="matrix(0.95605343,0,0,0.95605343,11.592148,17.208962)"
       clip-path="url(#clipPath9)"><tspan
         style="font-variant:normal;font-weight:normal;font-size:14px;font-family:Helvetica;writing-mode:lr-tb;fill:#000000;fill-opacity:1;fill-rule:nonzero;stroke:none"
         x="0 9.3378906 17.124023 21.013672 24.90332 32.689453 40.475586 44.365234 51.365234 59.151367 70.813477 78.599609 82.489258 86.378906 94.165039 101.16504 105.05469 112.05469 115.94434 123.73047 128.39258 136.17871 143.96484 151.75098 159.53711 163.42676 167.31641 175.10254 182.88867 186.77832 196.88867 203.88867 211.6748 216.33691 220.22656 228.0127 235.79883 243.58496 247.47461 257.58496 265.37109 273.15723 280.94336 285.60547 289.49512 293.38477 301.1709 308.95703 312.84668 315.95703 319.84668 322.95703 330.74316"
         y="0"
         sodipodi:role="line"
         id="tspan8">Set up some tests around the User and Report entities</tspan></text>
    <text
       id="text9"
       xml:space="preserve"
       transform="matrix(0.95605343,0,0,0.95605343,125.42226,33.46187)"
       clip-path="url(#clipPath10)"><tspan
         style="font-variant:normal;font-weight:normal;font-size:14px;font-family:Helvetica;writing-mode:lr-tb;fill:#000000;fill-opacity:1;fill-rule:nonzero;stroke:none"
         x="0 7.7861328 15.572266 23.358398 27.248047 31.910156 39.696289 47.482422 55.268555 62.268555 65.378906 69.268555 77.054688 81.716797 84.827148 92.613281"
         y="0"
         sodipodi:role="line"
         id="tspan9">and repositories</tspan></text>
    <path
       id="path11"
       d="m 1,71 h 360 v 40 H 1 Z"
       style="fill:#ffffff;fill-opacity:1;fill-rule:nonzero;stroke:#000000;stroke-width:1;stroke-linecap:butt;stroke-linejoin:miter;stroke-miterlimit:10;stroke-dasharray:none;stroke-opacity:1"
       transform="matrix(0.9560439,0,0,0.9560439,0.47802194,0.47802194)"
       clip-path="url(#clipPath12)" />
    <text
       id="text12"
       xml:space="preserve"
       transform="matrix(0.95605343,0,0,0.95605343,39.631402,91.781129)"
       clip-path="url(#clipPath13)"><tspan
         style="font-variant:normal;font-weight:normal;font-size:14px;font-family:Helvetica;writing-mode:lr-tb;fill:#000000;fill-opacity:1;fill-rule:nonzero;stroke:none"
         x="0 9.3378906 17.124023 24.910156 28.799805 35.799805 43.585938 55.248047 63.03418 66.923828 74.709961 81.709961 89.496094 101.1582 108.94434 112.05469 119.84082 126.84082 130.73047 138.5166 142.40625 146.2959 154.08203 161.86816 171.97852 175.62207 183.4082 190.4082 198.19434 205.98047 216.87012 226.98047 238.64258 242.53223 252.64258 260.42871 265.09082 272.09082"
         y="0"
         sodipodi:role="line"
         id="tspan12">See some examples of how TypeORM works</tspan></text>
  </g>
</svg>
