<?xml version="1.0" encoding="UTF-8" standalone="no"?>
<!-- Created with Inkscape (http://www.inkscape.org/) -->

<svg
   version="1.1"
   id="svg1"
   width="510.71997"
   height="220.15999"
   viewBox="0 0 510.71997 220.15999"
   sodipodi:docname="nest-18.pdf"
   xmlns:inkscape="http://www.inkscape.org/namespaces/inkscape"
   xmlns:sodipodi="http://sodipodi.sourceforge.net/DTD/sodipodi-0.dtd"
   xmlns="http://www.w3.org/2000/svg"
   xmlns:svg="http://www.w3.org/2000/svg">
  <defs
     id="defs1">
    <clipPath
       clipPathUnits="userSpaceOnUse"
       id="clipPath2">
      <path
         d="M 0,0 H 1595.8334 V 687.34393 H 0 Z"
         transform="scale(0.3346214)"
         clip-rule="evenodd"
         id="path2" />
    </clipPath>
    <clipPath
       clipPathUnits="userSpaceOnUse"
       id="clipPath4">
      <path
         d="M 0,0 H 1595.8334 V 684.35547 H 0 Z"
         transform="matrix(0.3346214,0,0,0.3346214,-0.49999999,-0.49999999)"
         clip-rule="evenodd"
         id="path4" />
    </clipPath>
    <clipPath
       clipPathUnits="userSpaceOnUse"
       id="clipPath5">
      <path
         d="M 0,0 H 1595.8334 V 684.35547 H 0 Z"
         transform="matrix(0.33461804,0,0,0.33461804,-44.296875,-160)"
         clip-rule="evenodd"
         id="path5" />
    </clipPath>
    <clipPath
       clipPathUnits="userSpaceOnUse"
       id="clipPath7">
      <path
         d="M 0,0 H 1595.8334 V 684.35547 H 0 Z"
         transform="matrix(0.3346214,0,0,0.3346214,-0.49999999,-0.49999999)"
         clip-rule="evenodd"
         id="path7" />
    </clipPath>
    <clipPath
       clipPathUnits="userSpaceOnUse"
       id="clipPath9">
      <path
         d="M 0,0 H 1595.8334 V 684.35547 H 0 Z"
         transform="matrix(0.3346214,0,0,0.3346214,-0.49999999,-0.49999999)"
         clip-rule="evenodd"
         id="path9" />
    </clipPath>
    <clipPath
       clipPathUnits="userSpaceOnUse"
       id="clipPath11">
      <path
         d="M 0,0 H 1595.8334 V 684.35547 H 0 Z"
         transform="matrix(0.3346214,0,0,0.3346214,-0.49999999,-0.49999999)"
         clip-rule="evenodd"
         id="path11" />
    </clipPath>
    <clipPath
       clipPathUnits="userSpaceOnUse"
       id="clipPath12">
      <path
         d="M 0,0 H 1595.8334 V 684.35547 H 0 Z"
         transform="matrix(0.33461804,0,0,0.33461804,-19.1875,-193)"
         clip-rule="evenodd"
         id="path12" />
    </clipPath>
    <clipPath
       clipPathUnits="userSpaceOnUse"
       id="clipPath13">
      <path
         d="M 0,0 H 1595.8334 V 684.35547 H 0 Z"
         transform="matrix(0.33461804,0,0,0.33461804,-30.875,-207)"
         clip-rule="evenodd"
         id="path13" />
    </clipPath>
    <clipPath
       clipPathUnits="userSpaceOnUse"
       id="clipPath15">
      <path
         d="M 0,0 H 1595.8334 V 684.35547 H 0 Z"
         transform="matrix(0.3346214,0,0,0.3346214,-0.49999999,-0.49999999)"
         clip-rule="evenodd"
         id="path15" />
    </clipPath>
    <clipPath
       clipPathUnits="userSpaceOnUse"
       id="clipPath17">
      <path
         d="M 0,0 H 1595.8334 V 684.35547 H 0 Z"
         transform="matrix(0.3346214,0,0,0.3346214,-0.49999999,-0.49999999)"
         clip-rule="evenodd"
         id="path17" />
    </clipPath>
    <clipPath
       clipPathUnits="userSpaceOnUse"
       id="clipPath19">
      <path
         d="M 0,0 H 1595.8334 V 684.35547 H 0 Z"
         transform="matrix(0.3346214,0,0,0.3346214,-0.49999999,-0.49999999)"
         clip-rule="evenodd"
         id="path19" />
    </clipPath>
    <clipPath
       clipPathUnits="userSpaceOnUse"
       id="clipPath20">
      <path
         d="M 0,0 H 1595.8334 V 684.35547 H 0 Z"
         transform="matrix(0.33461804,0,0,0.33461804,-195.01563,-193)"
         clip-rule="evenodd"
         id="path20" />
    </clipPath>
    <clipPath
       clipPathUnits="userSpaceOnUse"
       id="clipPath21">
      <path
         d="M 0,0 H 1595.8334 V 684.35547 H 0 Z"
         transform="matrix(0.33461804,0,0,0.33461804,-209.375,-207)"
         clip-rule="evenodd"
         id="path21" />
    </clipPath>
    <clipPath
       clipPathUnits="userSpaceOnUse"
       id="clipPath23">
      <path
         d="M 0,0 H 1595.8334 V 684.35547 H 0 Z"
         transform="matrix(0.3346214,0,0,0.3346214,-0.49999999,-0.49999999)"
         clip-rule="evenodd"
         id="path23" />
    </clipPath>
    <clipPath
       clipPathUnits="userSpaceOnUse"
       id="clipPath24">
      <path
         d="M 0,0 H 1595.8334 V 684.35547 H 0 Z"
         transform="matrix(0.33461804,0,0,0.33461804,-182.48438,-50)"
         clip-rule="evenodd"
         id="path24" />
    </clipPath>
    <clipPath
       clipPathUnits="userSpaceOnUse"
       id="clipPath26">
      <path
         d="M 0,0 H 1595.8334 V 684.35547 H 0 Z"
         transform="matrix(0.3346214,0,0,0.3346214,-0.49999999,-0.49999999)"
         clip-rule="evenodd"
         id="path26" />
    </clipPath>
    <clipPath
       clipPathUnits="userSpaceOnUse"
       id="clipPath28">
      <path
         d="M 0,0 H 1595.8334 V 684.35547 H 0 Z"
         transform="matrix(0.3346214,0,0,0.3346214,-0.49999999,-0.49999999)"
         clip-rule="evenodd"
         id="path28" />
    </clipPath>
    <clipPath
       clipPathUnits="userSpaceOnUse"
       id="clipPath30">
      <path
         d="M 0,0 H 1595.8334 V 684.35547 H 0 Z"
         transform="matrix(0.3346214,0,0,0.3346214,-0.49999999,-0.49999999)"
         clip-rule="evenodd"
         id="path30" />
    </clipPath>
    <clipPath
       clipPathUnits="userSpaceOnUse"
       id="clipPath31">
      <path
         d="M 0,0 H 1595.8334 V 684.35547 H 0 Z"
         transform="matrix(0.33461804,0,0,0.33461804,-290.40625,-187)"
         clip-rule="evenodd"
         id="path31" />
    </clipPath>
    <clipPath
       clipPathUnits="userSpaceOnUse"
       id="clipPath32">
      <path
         d="M 0,0 H 1595.8334 V 684.35547 H 0 Z"
         transform="matrix(0.33461804,0,0,0.33461804,-279.09375,-200)"
         clip-rule="evenodd"
         id="path32" />
    </clipPath>
    <clipPath
       clipPathUnits="userSpaceOnUse"
       id="clipPath33">
      <path
         d="M 0,0 H 1595.8334 V 684.35547 H 0 Z"
         transform="matrix(0.33461804,0,0,0.33461804,-279.71875,-213)"
         clip-rule="evenodd"
         id="path33" />
    </clipPath>
    <clipPath
       clipPathUnits="userSpaceOnUse"
       id="clipPath35">
      <path
         d="M 0,0 H 1595.8334 V 684.35547 H 0 Z"
         transform="matrix(0.3346214,0,0,0.3346214,-0.49999999,-0.49999999)"
         clip-rule="evenodd"
         id="path35" />
    </clipPath>
    <clipPath
       clipPathUnits="userSpaceOnUse"
       id="clipPath37">
      <path
         d="M 0,0 H 1595.8334 V 684.35547 H 0 Z"
         transform="matrix(0.3346214,0,0,0.3346214,-0.49999999,-0.49999999)"
         clip-rule="evenodd"
         id="path37" />
    </clipPath>
    <clipPath
       clipPathUnits="userSpaceOnUse"
       id="clipPath39">
      <path
         d="M 0,0 H 1595.8334 V 684.35547 H 0 Z"
         transform="matrix(0.3346214,0,0,0.3346214,-0.49999999,-0.49999999)"
         clip-rule="evenodd"
         id="path39" />
    </clipPath>
    <clipPath
       clipPathUnits="userSpaceOnUse"
       id="clipPath40">
      <path
         d="M 0,0 H 1595.8334 V 684.35547 H 0 Z"
         transform="matrix(0.33461804,0,0,0.33461804,-163,-79)"
         clip-rule="evenodd"
         id="path40" />
    </clipPath>
    <clipPath
       clipPathUnits="userSpaceOnUse"
       id="clipPath41">
      <path
         d="M 0,0 H 1595.8334 V 684.35547 H 0 Z"
         transform="matrix(0.33461804,0,0,0.33461804,-163,-92)"
         clip-rule="evenodd"
         id="path41" />
    </clipPath>
    <clipPath
       clipPathUnits="userSpaceOnUse"
       id="clipPath42">
      <path
         d="M 0,0 H 1595.8334 V 684.35547 H 0 Z"
         transform="matrix(0.33461804,0,0,0.33461804,-163,-118)"
         clip-rule="evenodd"
         id="path42" />
    </clipPath>
    <clipPath
       clipPathUnits="userSpaceOnUse"
       id="clipPath43">
      <path
         d="M 0,0 H 1595.8334 V 684.35547 H 0 Z"
         transform="matrix(0.33461804,0,0,0.33461804,-163,-131)"
         clip-rule="evenodd"
         id="path43" />
    </clipPath>
    <clipPath
       clipPathUnits="userSpaceOnUse"
       id="clipPath45">
      <path
         d="M 0,0 H 1595.8334 V 684.35547 H 0 Z"
         transform="matrix(0.3346214,0,0,0.3346214,-0.49999999,-0.49999999)"
         clip-rule="evenodd"
         id="path45" />
    </clipPath>
    <clipPath
       clipPathUnits="userSpaceOnUse"
       id="clipPath47">
      <path
         d="M 0,0 H 1595.8334 V 684.35547 H 0 Z"
         transform="matrix(0.3346214,0,0,0.3346214,-0.49999999,-0.49999999)"
         clip-rule="evenodd"
         id="path47" />
    </clipPath>
    <clipPath
       clipPathUnits="userSpaceOnUse"
       id="clipPath49">
      <path
         d="M 0,0 H 1595.8334 V 684.35547 H 0 Z"
         transform="matrix(0.3346214,0,0,0.3346214,-0.49999999,-0.49999999)"
         clip-rule="evenodd"
         id="path49" />
    </clipPath>
    <clipPath
       clipPathUnits="userSpaceOnUse"
       id="clipPath50">
      <path
         d="M 0,0 H 1595.8334 V 684.35547 H 0 Z"
         transform="matrix(0.33461804,0,0,0.33461804,-366.42188,-200)"
         clip-rule="evenodd"
         id="path50" />
    </clipPath>
    <clipPath
       clipPathUnits="userSpaceOnUse"
       id="clipPath52">
      <path
         d="M 0,0 H 1595.8334 V 684.35547 H 0 Z"
         transform="matrix(0.3346214,0,0,0.3346214,-0.49999999,-0.49999999)"
         clip-rule="evenodd"
         id="path52" />
    </clipPath>
    <clipPath
       clipPathUnits="userSpaceOnUse"
       id="clipPath53">
      <path
         d="M 0,0 H 1595.8334 V 684.35547 H 0 Z"
         transform="matrix(0.33461804,0,0,0.33461804,-437.26563,-200)"
         clip-rule="evenodd"
         id="path53" />
    </clipPath>
    <clipPath
       clipPathUnits="userSpaceOnUse"
       id="clipPath55">
      <path
         d="M 0,0 H 1595.8334 V 684.35547 H 0 Z"
         transform="matrix(0.3346214,0,0,0.3346214,-0.49999999,-0.49999999)"
         clip-rule="evenodd"
         id="path55" />
    </clipPath>
    <clipPath
       clipPathUnits="userSpaceOnUse"
       id="clipPath56">
      <path
         d="M 0,0 H 1595.8334 V 684.35547 H 0 Z"
         transform="matrix(0.33461804,0,0,0.33461804,-436.95313,-20)"
         clip-rule="evenodd"
         id="path56" />
    </clipPath>
    <clipPath
       clipPathUnits="userSpaceOnUse"
       id="clipPath58">
      <path
         d="M 0,0 H 1595.8334 V 684.35547 H 0 Z"
         transform="matrix(0.3346214,0,0,0.3346214,-0.49999999,-0.49999999)"
         clip-rule="evenodd"
         id="path58" />
    </clipPath>
    <clipPath
       clipPathUnits="userSpaceOnUse"
       id="clipPath60">
      <path
         d="M 0,0 H 1595.8334 V 684.35547 H 0 Z"
         transform="matrix(0.3346214,0,0,0.3346214,-0.49999999,-0.49999999)"
         clip-rule="evenodd"
         id="path60" />
    </clipPath>
    <clipPath
       clipPathUnits="userSpaceOnUse"
       id="clipPath62">
      <path
         d="M 0,0 H 1595.8334 V 684.35547 H 0 Z"
         transform="matrix(0.3346214,0,0,0.3346214,-0.49999999,-0.49999999)"
         clip-rule="evenodd"
         id="path62" />
    </clipPath>
    <clipPath
       clipPathUnits="userSpaceOnUse"
       id="clipPath63">
      <path
         d="M 0,0 H 1595.8334 V 684.35547 H 0 Z"
         transform="matrix(0.33461804,0,0,0.33461804,-408,-44)"
         clip-rule="evenodd"
         id="path63" />
    </clipPath>
    <clipPath
       clipPathUnits="userSpaceOnUse"
       id="clipPath64">
      <path
         d="M 0,0 H 1595.8334 V 684.35547 H 0 Z"
         transform="matrix(0.33461804,0,0,0.33461804,-408,-57)"
         clip-rule="evenodd"
         id="path64" />
    </clipPath>
    <clipPath
       clipPathUnits="userSpaceOnUse"
       id="clipPath65">
      <path
         d="M 0,0 H 1595.8334 V 684.35547 H 0 Z"
         transform="matrix(0.33461804,0,0,0.33461804,-408,-83)"
         clip-rule="evenodd"
         id="path65" />
    </clipPath>
    <clipPath
       clipPathUnits="userSpaceOnUse"
       id="clipPath66">
      <path
         d="M 0,0 H 1595.8334 V 684.35547 H 0 Z"
         transform="matrix(0.33461804,0,0,0.33461804,-408,-97)"
         clip-rule="evenodd"
         id="path66" />
    </clipPath>
    <clipPath
       clipPathUnits="userSpaceOnUse"
       id="clipPath67">
      <path
         d="M 0,0 H 1595.8334 V 684.35547 H 0 Z"
         transform="matrix(0.33461804,0,0,0.33461804,-408,-123)"
         clip-rule="evenodd"
         id="path67" />
    </clipPath>
    <clipPath
       clipPathUnits="userSpaceOnUse"
       id="clipPath68">
      <path
         d="M 0,0 H 1595.8334 V 684.35547 H 0 Z"
         transform="matrix(0.33461804,0,0,0.33461804,-408,-136)"
         clip-rule="evenodd"
         id="path68" />
    </clipPath>
  </defs>
  <sodipodi:namedview
     id="namedview1"
     pagecolor="#ffffff"
     bordercolor="#000000"
     borderopacity="0.25"
     inkscape:showpageshadow="2"
     inkscape:pageopacity="0.0"
     inkscape:pagecheckerboard="0"
     inkscape:deskcolor="#d1d1d1">
    <inkscape:page
       x="0"
       y="0"
       inkscape:label="1"
       id="page1"
       width="510.71997"
       height="220.15999"
       margin="0"
       bleed="0" />
  </sodipodi:namedview>
  <g
     id="g1"
     inkscape:groupmode="layer"
     inkscape:label="1">
    <path
       id="path1"
       d="M 0,0 H 534 V 230 H 0 Z"
       style="fill:#ffffff;fill-opacity:1;fill-rule:nonzero;stroke:none"
       transform="scale(0.9563046)"
       clip-path="url(#clipPath2)" />
    <path
       id="path3"
       d="m 1,141 h 130 v 30 H 1 Z"
       style="fill:#f5f5f5;fill-opacity:1;fill-rule:nonzero;stroke:#666666;stroke-width:1;stroke-linecap:butt;stroke-linejoin:miter;stroke-miterlimit:10;stroke-dasharray:none;stroke-opacity:1"
       transform="matrix(0.9563046,0,0,0.9563046,0.47815229,0.47815229)"
       clip-path="url(#clipPath4)" />
    <text
       id="text4"
       xml:space="preserve"
       transform="matrix(0.9563142,0,0,0.9563142,42.361731,153.01027)"
       clip-path="url(#clipPath5)"><tspan
         style="font-variant:normal;font-weight:700;font-size:11px;font-family:Helvetica;writing-mode:lr-tb;fill:#333333;fill-opacity:1;fill-rule:nonzero;stroke:none"
         x="0 7.9438477 14.061523 20.780762 27.5 33.617676 39.735352"
         y="0"
         sodipodi:role="line"
         id="tspan4">Request</tspan></text>
    <path
       id="path6"
       d="m 131,196 h 43.63"
       style="fill:none;stroke:#000000;stroke-width:1;stroke-linecap:butt;stroke-linejoin:miter;stroke-miterlimit:10;stroke-dasharray:none;stroke-opacity:1"
       transform="matrix(0.9563046,0,0,0.9563046,0.47815229,0.47815229)"
       clip-path="url(#clipPath7)" />
    <path
       id="path8"
       d="m 179.88,196 -7,3.5 1.75,-3.5 -1.75,-3.5 z"
       style="fill:#000000;fill-opacity:1;fill-rule:nonzero;stroke:#000000;stroke-width:1;stroke-linecap:butt;stroke-linejoin:miter;stroke-miterlimit:10;stroke-dasharray:none;stroke-opacity:1"
       transform="matrix(0.9563046,0,0,0.9563046,0.47815229,0.47815229)"
       clip-path="url(#clipPath9)" />
    <path
       id="path10"
       d="m 1,171 h 130 v 50 H 1 Z"
       style="fill:#f5f5f5;fill-opacity:1;fill-rule:nonzero;stroke:#666666;stroke-width:1;stroke-linecap:butt;stroke-linejoin:miter;stroke-miterlimit:10;stroke-dasharray:none;stroke-opacity:1"
       transform="matrix(0.9563046,0,0,0.9563046,0.47815229,0.47815229)"
       clip-path="url(#clipPath11)" />
    <text
       id="text11"
       xml:space="preserve"
       transform="matrix(0.9563142,0,0,0.9563142,18.349279,184.56864)"
       clip-path="url(#clipPath12)"><tspan
         style="font-variant:normal;font-weight:normal;font-size:11px;font-family:Helvetica;writing-mode:lr-tb;fill:#333333;fill-opacity:1;fill-rule:nonzero;stroke:none"
         x="0 3.6738281 6.7299805 12.847656 22.010742 28.128418 30.572266 33.016113 36.072266 39.128418 41.228516 47.346191 58.512695 64.630371 67.686523 73.186523 79.304199 88.467285 90.567383"
         y="0"
         sodipodi:role="line"
         id="tspan11">{ email: 'a@a.com',</tspan></text>
    <text
       id="text12"
       xml:space="preserve"
       transform="matrix(0.9563142,0,0,0.9563142,29.526201,197.95704)"
       clip-path="url(#clipPath13)"><tspan
         style="font-variant:normal;font-weight:normal;font-size:11px;font-family:Helvetica;writing-mode:lr-tb;fill:#333333;fill-opacity:1;fill-rule:nonzero;stroke:none"
         x="0 6.1176758 12.235352 17.735352 23.235352 31.179199 37.296875 40.959961 47.077637 50.133789 53.189941 55.290039 61.407715 63.507812 66.563965"
         y="0"
         sodipodi:role="line"
         id="tspan12">password: 'a' }</tspan></text>
    <path
       id="path14"
       d="m 261,196 h 20 -30 13.63"
       style="fill:none;stroke:#000000;stroke-width:1;stroke-linecap:butt;stroke-linejoin:miter;stroke-miterlimit:10;stroke-dasharray:none;stroke-opacity:1"
       transform="matrix(0.9563046,0,0,0.9563046,0.47815229,0.47815229)"
       clip-path="url(#clipPath15)" />
    <path
       id="path16"
       d="m 269.88,196 -7,3.5 1.75,-3.5 -1.75,-3.5 z"
       style="fill:#000000;fill-opacity:1;fill-rule:nonzero;stroke:#000000;stroke-width:1;stroke-linecap:butt;stroke-linejoin:miter;stroke-miterlimit:10;stroke-dasharray:none;stroke-opacity:1"
       transform="matrix(0.9563046,0,0,0.9563046,0.47815229,0.47815229)"
       clip-path="url(#clipPath17)" />
    <path
       id="path18"
       d="m 181,166 h 80 v 60 h -80 z"
       style="fill:#dae8fc;fill-opacity:1;fill-rule:nonzero;stroke:#6c8ebf;stroke-width:1;stroke-linecap:butt;stroke-linejoin:miter;stroke-miterlimit:10;stroke-dasharray:none;stroke-opacity:1"
       transform="matrix(0.9563046,0,0,0.9563046,0.47815229,0.47815229)"
       clip-path="url(#clipPath19)" />
    <text
       id="text19"
       xml:space="preserve"
       transform="matrix(0.9563142,0,0,0.9563142,186.49622,184.56864)"
       clip-path="url(#clipPath20)"><tspan
         style="font-variant:normal;font-weight:700;font-size:11px;font-family:Helvetica;writing-mode:lr-tb;fill:#000000;fill-opacity:1;fill-rule:nonzero;stroke:none"
         x="0 6.7353516 12.853027 15.90918 18.965332 25.68457 31.802246 35.465332 38.521484 45.240723"
         y="0"
         sodipodi:role="line"
         id="tspan19">Validation</tspan></text>
    <text
       id="text20"
       xml:space="preserve"
       transform="matrix(0.9563142,0,0,0.9563142,200.22829,197.95704)"
       clip-path="url(#clipPath21)"><tspan
         style="font-variant:normal;font-weight:700;font-size:11px;font-family:Helvetica;writing-mode:lr-tb;fill:#000000;fill-opacity:1;fill-rule:nonzero;stroke:none"
         x="0 7.3369141 10.393066 17.112305"
         y="0"
         sodipodi:role="line"
         id="tspan20">Pipe</tspan></text>
    <path
       id="path22"
       d="M 156,31 H 286 V 61 H 156 Z"
       style="fill:#f5f5f5;fill-opacity:1;fill-rule:nonzero;stroke:#666666;stroke-width:1;stroke-linecap:butt;stroke-linejoin:miter;stroke-miterlimit:10;stroke-dasharray:none;stroke-opacity:1"
       transform="matrix(0.9563046,0,0,0.9563046,0.47815229,0.47815229)"
       clip-path="url(#clipPath23)" />
    <text
       id="text23"
       xml:space="preserve"
       transform="matrix(0.9563142,0,0,0.9563142,174.5124,47.81571)"
       clip-path="url(#clipPath24)"><tspan
         style="font-variant:normal;font-weight:700;font-size:11px;font-family:Helvetica;writing-mode:lr-tb;fill:#333333;fill-opacity:1;fill-rule:nonzero;stroke:none"
         x="0 7.9438477 12.224609 18.342285 24.459961 28.123047 34.240723 42.18457 48.302246 54.419922 58.700684 66.644531 70.307617"
         y="0"
         sodipodi:role="line"
         id="tspan23">CreateUserDto</tspan></text>
    <path
       id="path25"
       d="m 341,196 h 20 -30 13.64001"
       style="fill:none;stroke:#000000;stroke-width:1;stroke-linecap:butt;stroke-linejoin:miter;stroke-miterlimit:10;stroke-dasharray:none;stroke-opacity:1"
       transform="matrix(0.9563046,0,0,0.9563046,0.47815229,0.47815229)"
       clip-path="url(#clipPath26)" />
    <path
       id="path27"
       d="m 349.89001,196 -7,3.5 1.75,-3.5 -1.75,-3.5 z"
       style="fill:#000000;fill-opacity:1;fill-rule:nonzero;stroke:#000000;stroke-width:1;stroke-linecap:butt;stroke-linejoin:miter;stroke-miterlimit:10;stroke-dasharray:none;stroke-opacity:1"
       transform="matrix(0.9563046,0,0,0.9563046,0.47815229,0.47815229)"
       clip-path="url(#clipPath28)" />
    <path
       id="path29"
       d="m 271,166 h 70 v 60 h -70 z"
       style="fill:#dae8fc;fill-opacity:1;fill-rule:nonzero;stroke:#6c8ebf;stroke-width:1;stroke-linecap:butt;stroke-linejoin:miter;stroke-miterlimit:10;stroke-dasharray:none;stroke-opacity:1"
       transform="matrix(0.9563046,0,0,0.9563046,0.47815229,0.47815229)"
       clip-path="url(#clipPath30)" />
    <text
       id="text30"
       xml:space="preserve"
       transform="matrix(0.9563142,0,0,0.9563142,277.71962,178.83076)"
       clip-path="url(#clipPath31)"><tspan
         style="font-variant:normal;font-weight:700;font-size:11px;font-family:Helvetica;writing-mode:lr-tb;fill:#000000;fill-opacity:1;fill-rule:nonzero;stroke:none"
         x="0 7.9438477 14.663086 21.382324 25.04541"
         y="0"
         sodipodi:role="line"
         id="tspan30">Route</tspan></text>
    <text
       id="text31"
       xml:space="preserve"
       transform="matrix(0.9563142,0,0,0.9563142,266.90132,191.26284)"
       clip-path="url(#clipPath32)"><tspan
         style="font-variant:normal;font-weight:700;font-size:11px;font-family:Helvetica;writing-mode:lr-tb;fill:#000000;fill-opacity:1;fill-rule:nonzero;stroke:none"
         x="0 7.9438477 14.061523 20.780762 27.5 30.556152 36.673828 40.95459 44.010742 47.066895"
         y="0"
         sodipodi:role="line"
         id="tspan31">Handler in</tspan></text>
    <text
       id="text32"
       xml:space="preserve"
       transform="matrix(0.9563142,0,0,0.9563142,267.49901,203.69492)"
       clip-path="url(#clipPath33)"><tspan
         style="font-variant:normal;font-weight:700;font-size:11px;font-family:Helvetica;writing-mode:lr-tb;fill:#000000;fill-opacity:1;fill-rule:nonzero;stroke:none"
         x="0 7.9438477 14.663086 21.382324 25.04541 29.326172 36.04541 39.101562 42.157715 48.275391"
         y="0"
         sodipodi:role="line"
         id="tspan32">Controller</tspan></text>
    <path
       id="path34"
       d="m 221,141 v 20 -15 13.63"
       style="fill:none;stroke:#000000;stroke-width:1;stroke-linecap:butt;stroke-linejoin:miter;stroke-miterlimit:10;stroke-dasharray:none;stroke-opacity:1"
       transform="matrix(0.9563046,0,0,0.9563046,0.47815229,0.47815229)"
       clip-path="url(#clipPath35)" />
    <path
       id="path36"
       d="m 221,164.88 -3.5,-7 3.5,1.75 3.5,-1.75 z"
       style="fill:#000000;fill-opacity:1;fill-rule:nonzero;stroke:#000000;stroke-width:1;stroke-linecap:butt;stroke-linejoin:miter;stroke-miterlimit:10;stroke-dasharray:none;stroke-opacity:1"
       transform="matrix(0.9563046,0,0,0.9563046,0.47815229,0.47815229)"
       clip-path="url(#clipPath37)" />
    <path
       id="path38"
       d="m 156,61 h 130 v 80 H 156 Z"
       style="fill:#f5f5f5;fill-opacity:1;fill-rule:nonzero;stroke:#666666;stroke-width:1;stroke-linecap:butt;stroke-linejoin:miter;stroke-miterlimit:10;stroke-dasharray:none;stroke-opacity:1"
       transform="matrix(0.9563046,0,0,0.9563046,0.47815229,0.47815229)"
       clip-path="url(#clipPath39)" />
    <text
       id="text39"
       xml:space="preserve"
       transform="matrix(0.9563142,0,0,0.9563142,155.87921,75.548822)"
       clip-path="url(#clipPath40)"><tspan
         style="font-variant:normal;font-weight:normal;font-size:11px;font-family:Helvetica;writing-mode:lr-tb;fill:#333333;fill-opacity:1;fill-rule:nonzero;stroke:none"
         x="0 11.166504 14.222656 19.722656 27.05957 36.222656 42.340332 44.78418 47.228027 50.891113"
         y="0"
         sodipodi:role="line"
         id="tspan39">@IsEmail()</tspan></text>
    <text
       id="text40"
       xml:space="preserve"
       transform="matrix(0.9563142,0,0,0.9563142,155.87921,87.980906)"
       clip-path="url(#clipPath41)"><tspan
         style="font-variant:normal;font-weight:normal;font-size:11px;font-family:Helvetica;writing-mode:lr-tb;fill:#333333;fill-opacity:1;fill-rule:nonzero;stroke:none"
         x="0 6.1176758 15.280762 21.398438 23.842285 26.286133 29.342285 32.398438 37.898438 40.95459 44.617676 47.061523 53.179199"
         y="0"
         sodipodi:role="line"
         id="tspan40">email: string</tspan></text>
    <text
       id="text41"
       xml:space="preserve"
       transform="matrix(0.9563142,0,0,0.9563142,155.87921,112.84508)"
       clip-path="url(#clipPath42)"><tspan
         style="font-variant:normal;font-weight:normal;font-size:11px;font-family:Helvetica;writing-mode:lr-tb;fill:#333333;fill-opacity:1;fill-rule:nonzero;stroke:none"
         x="0 11.166504 14.222656 19.722656 27.05957 30.115723 33.778809 36.222656 42.340332 48.458008 52.121094"
         y="0"
         sodipodi:role="line"
         id="tspan41">@IsString()</tspan></text>
    <text
       id="text42"
       xml:space="preserve"
       transform="matrix(0.9563142,0,0,0.9563142,155.87921,125.27716)"
       clip-path="url(#clipPath43)"><tspan
         style="font-variant:normal;font-weight:normal;font-size:11px;font-family:Helvetica;writing-mode:lr-tb;fill:#333333;fill-opacity:1;fill-rule:nonzero;stroke:none"
         x="0 6.1176758 12.235352 17.735352 23.235352 31.179199 37.296875 40.959961 47.077637 50.133789 53.189941 58.689941 61.746094 65.40918 67.853027 73.970703"
         y="0"
         sodipodi:role="line"
         id="tspan42">password: string</tspan></text>
    <path
       id="path44"
       d="m 421,196 h 20 -30 13.64001"
       style="fill:none;stroke:#000000;stroke-width:1;stroke-linecap:butt;stroke-linejoin:miter;stroke-miterlimit:10;stroke-dasharray:none;stroke-opacity:1"
       transform="matrix(0.9563046,0,0,0.9563046,0.47815229,0.47815229)"
       clip-path="url(#clipPath45)" />
    <path
       id="path46"
       d="m 429.89001,196 -7,3.5 1.75,-3.5 -1.75,-3.5 z"
       style="fill:#000000;fill-opacity:1;fill-rule:nonzero;stroke:#000000;stroke-width:1;stroke-linecap:butt;stroke-linejoin:miter;stroke-miterlimit:10;stroke-dasharray:none;stroke-opacity:1"
       transform="matrix(0.9563046,0,0,0.9563046,0.47815229,0.47815229)"
       clip-path="url(#clipPath47)" />
    <path
       id="path48"
       d="m 351,166 h 70 v 60 h -70 z"
       style="fill:#dae8fc;fill-opacity:1;fill-rule:nonzero;stroke:#6c8ebf;stroke-width:1;stroke-linecap:butt;stroke-linejoin:miter;stroke-miterlimit:10;stroke-dasharray:none;stroke-opacity:1"
       transform="matrix(0.9563046,0,0,0.9563046,0.47815229,0.47815229)"
       clip-path="url(#clipPath49)" />
    <text
       id="text49"
       xml:space="preserve"
       transform="matrix(0.9563142,0,0,0.9563142,350.41445,191.26284)"
       clip-path="url(#clipPath50)"><tspan
         style="font-variant:normal;font-weight:700;font-size:11px;font-family:Helvetica;writing-mode:lr-tb;fill:#000000;fill-opacity:1;fill-rule:nonzero;stroke:none"
         x="0 7.3369141 13.45459 17.735352 23.853027 26.90918 33.026855"
         y="0"
         sodipodi:role="line"
         id="tspan49">Service</tspan></text>
    <path
       id="path51"
       d="m 431,166 h 70 v 60 h -70 z"
       style="fill:#dae8fc;fill-opacity:1;fill-rule:nonzero;stroke:#6c8ebf;stroke-width:1;stroke-linecap:butt;stroke-linejoin:miter;stroke-miterlimit:10;stroke-dasharray:none;stroke-opacity:1"
       transform="matrix(0.9563046,0,0,0.9563046,0.47815229,0.47815229)"
       clip-path="url(#clipPath52)" />
    <text
       id="text52"
       xml:space="preserve"
       transform="matrix(0.9563142,0,0,0.9563142,418.16333,191.26284)"
       clip-path="url(#clipPath53)"><tspan
         style="font-variant:normal;font-weight:700;font-size:11px;font-family:Helvetica;writing-mode:lr-tb;fill:#000000;fill-opacity:1;fill-rule:nonzero;stroke:none"
         x="0 7.9438477 14.061523 20.780762 27.5 33.617676 36.673828 40.336914 47.056152 51.336914"
         y="0"
         sodipodi:role="line"
         id="tspan52">Repository</tspan></text>
    <path
       id="path54"
       d="M 401,1 H 531 V 31 H 401 Z"
       style="fill:#f5f5f5;fill-opacity:1;fill-rule:nonzero;stroke:#666666;stroke-width:1;stroke-linecap:butt;stroke-linejoin:miter;stroke-miterlimit:10;stroke-dasharray:none;stroke-opacity:1"
       transform="matrix(0.9563046,0,0,0.9563046,0.47815229,0.47815229)"
       clip-path="url(#clipPath55)" />
    <text
       id="text55"
       xml:space="preserve"
       transform="matrix(0.9563142,0,0,0.9563142,417.86448,19.126284)"
       clip-path="url(#clipPath56)"><tspan
         style="font-variant:normal;font-weight:700;font-size:11px;font-family:Helvetica;writing-mode:lr-tb;fill:#333333;fill-opacity:1;fill-rule:nonzero;stroke:none"
         x="0 7.9438477 14.061523 20.179199 24.459961 27.516113 34.853027 41.572266 45.235352 48.291504 51.95459"
         y="0"
         sodipodi:role="line"
         id="tspan55">User Entity</tspan></text>
    <path
       id="path57"
       d="m 466,141 v 20 -15 13.63"
       style="fill:none;stroke:#000000;stroke-width:1;stroke-linecap:butt;stroke-linejoin:miter;stroke-miterlimit:10;stroke-dasharray:none;stroke-opacity:1"
       transform="matrix(0.9563046,0,0,0.9563046,0.47815229,0.47815229)"
       clip-path="url(#clipPath58)" />
    <path
       id="path59"
       d="m 466,164.88 -3.5,-7 3.5,1.75 3.5,-1.75 z"
       style="fill:#000000;fill-opacity:1;fill-rule:nonzero;stroke:#000000;stroke-width:1;stroke-linecap:butt;stroke-linejoin:miter;stroke-miterlimit:10;stroke-dasharray:none;stroke-opacity:1"
       transform="matrix(0.9563046,0,0,0.9563046,0.47815229,0.47815229)"
       clip-path="url(#clipPath60)" />
    <path
       id="path61"
       d="M 401,31 H 531 V 141 H 401 Z"
       style="fill:#f5f5f5;fill-opacity:1;fill-rule:nonzero;stroke:#666666;stroke-width:1;stroke-linecap:butt;stroke-linejoin:miter;stroke-miterlimit:10;stroke-dasharray:none;stroke-opacity:1"
       transform="matrix(0.9563046,0,0,0.9563046,0.47815229,0.47815229)"
       clip-path="url(#clipPath62)" />
    <text
       id="text62"
       xml:space="preserve"
       transform="matrix(0.9563142,0,0,0.9563142,390.17619,42.077825)"
       clip-path="url(#clipPath63)"><tspan
         style="font-variant:normal;font-weight:normal;font-size:11px;font-family:Helvetica;writing-mode:lr-tb;fill:#333333;fill-opacity:1;fill-rule:nonzero;stroke:none"
         x="0 11.166504 14.222656 19.722656 27.05957 36.222656 42.340332 44.78418 47.228027 50.891113"
         y="0"
         sodipodi:role="line"
         id="tspan62">@IsEmail()</tspan></text>
    <text
       id="text63"
       xml:space="preserve"
       transform="matrix(0.9563142,0,0,0.9563142,390.17619,54.509909)"
       clip-path="url(#clipPath64)"><tspan
         style="font-variant:normal;font-weight:normal;font-size:11px;font-family:Helvetica;writing-mode:lr-tb;fill:#333333;fill-opacity:1;fill-rule:nonzero;stroke:none"
         x="0 6.1176758 15.280762 21.398438 23.842285 26.286133 29.342285 32.398438 37.898438 40.95459 44.617676 47.061523 53.179199"
         y="0"
         sodipodi:role="line"
         id="tspan63">email: string</tspan></text>
    <text
       id="text64"
       xml:space="preserve"
       transform="matrix(0.9563142,0,0,0.9563142,390.17619,79.374079)"
       clip-path="url(#clipPath65)"><tspan
         style="font-variant:normal;font-weight:normal;font-size:11px;font-family:Helvetica;writing-mode:lr-tb;fill:#333333;fill-opacity:1;fill-rule:nonzero;stroke:none"
         x="0 11.166504 14.222656 19.722656 27.05957 30.115723 33.778809 36.222656 42.340332 48.458008 52.121094"
         y="0"
         sodipodi:role="line"
         id="tspan64">@IsString()</tspan></text>
    <text
       id="text65"
       xml:space="preserve"
       transform="matrix(0.9563142,0,0,0.9563142,390.17619,92.762477)"
       clip-path="url(#clipPath66)"><tspan
         style="font-variant:normal;font-weight:normal;font-size:11px;font-family:Helvetica;writing-mode:lr-tb;fill:#333333;fill-opacity:1;fill-rule:nonzero;stroke:none"
         x="0 6.1176758 12.235352 17.735352 23.235352 31.179199 37.296875 40.959961 47.077637 50.133789 53.189941 58.689941 61.746094 65.40918 67.853027 73.970703"
         y="0"
         sodipodi:role="line"
         id="tspan65">password: string</tspan></text>
    <text
       id="text66"
       xml:space="preserve"
       transform="matrix(0.9563142,0,0,0.9563142,390.17619,117.62665)"
       clip-path="url(#clipPath67)"><tspan
         style="font-variant:normal;font-weight:normal;font-size:11px;font-family:Helvetica;writing-mode:lr-tb;fill:#333333;fill-opacity:1;fill-rule:nonzero;stroke:none"
         x="0 11.166504 14.222656 19.722656 27.05957 33.177246 39.294922 41.73877 47.856445 53.974121 60.091797 63.754883"
         y="0"
         sodipodi:role="line"
         id="tspan66">@IsBoolean()</tspan></text>
    <text
       id="text67"
       xml:space="preserve"
       transform="matrix(0.9563142,0,0,0.9563142,390.17619,130.05873)"
       clip-path="url(#clipPath68)"><tspan
         style="font-variant:normal;font-weight:normal;font-size:11px;font-family:Helvetica;writing-mode:lr-tb;fill:#333333;fill-opacity:1;fill-rule:nonzero;stroke:none"
         x="0 6.1176758 12.235352 21.398438 23.842285 29.959961 33.016113 36.072266 42.189941 48.307617 54.425293 56.869141 62.986816 69.104492"
         y="0"
         sodipodi:role="line"
         id="tspan67">admin: boolean</tspan></text>
  </g>
</svg>
