<?xml version="1.0" encoding="UTF-8" standalone="no"?>
<!-- Created with Inkscape (http://www.inkscape.org/) -->

<svg
   version="1.1"
   id="svg1"
   width="381.44"
   height="168"
   viewBox="0 0 381.44 168"
   sodipodi:docname="nest-9.pdf"
   xmlns:inkscape="http://www.inkscape.org/namespaces/inkscape"
   xmlns:sodipodi="http://sodipodi.sourceforge.net/DTD/sodipodi-0.dtd"
   xmlns="http://www.w3.org/2000/svg"
   xmlns:svg="http://www.w3.org/2000/svg">
  <defs
     id="defs1">
    <clipPath
       clipPathUnits="userSpaceOnUse"
       id="clipPath2">
      <path
         d="M 0,0 H 1191.6666 V 522.66077 H 0 Z"
         transform="scale(0.33482519)"
         clip-rule="evenodd"
         id="path2" />
    </clipPath>
    <clipPath
       clipPathUnits="userSpaceOnUse"
       id="clipPath4">
      <path
         d="M 0,0 H 1191.6666 V 519.67413 H 0 Z"
         transform="matrix(0.33482519,0,0,0.33482519,-0.49999999,-0.49999999)"
         clip-rule="evenodd"
         id="path4" />
    </clipPath>
    <clipPath
       clipPathUnits="userSpaceOnUse"
       id="clipPath5">
      <path
         d="M 0,0 H 1191.6666 V 519.67413 H 0 Z"
         transform="matrix(0.33482185,0,0,0.33482185,-147.76563,-16.999999)"
         clip-rule="evenodd"
         id="path5" />
    </clipPath>
    <clipPath
       clipPathUnits="userSpaceOnUse"
       id="clipPath7">
      <path
         d="M 0,0 H 1191.6666 V 519.67413 H 0 Z"
         transform="matrix(0.33482519,0,0,0.33482519,-0.49999999,-0.49999999)"
         clip-rule="evenodd"
         id="path7" />
    </clipPath>
    <clipPath
       clipPathUnits="userSpaceOnUse"
       id="clipPath9">
      <path
         d="M 0,0 H 1191.6666 V 519.67413 H 0 Z"
         transform="matrix(0.33482519,0,0,0.33482519,-0.49999999,-0.49999999)"
         clip-rule="evenodd"
         id="path9" />
    </clipPath>
    <clipPath
       clipPathUnits="userSpaceOnUse"
       id="clipPath10">
      <path
         d="M 0,0 H 1191.6666 V 519.67413 H 0 Z"
         transform="matrix(0.33482185,0,0,0.33482185,-39.71875,-47)"
         clip-rule="evenodd"
         id="path10" />
    </clipPath>
    <clipPath
       clipPathUnits="userSpaceOnUse"
       id="clipPath12">
      <path
         d="M 0,0 H 1191.6666 V 519.67413 H 0 Z"
         transform="matrix(0.33482519,0,0,0.33482519,-0.49999999,-0.49999999)"
         clip-rule="evenodd"
         id="path12" />
    </clipPath>
    <clipPath
       clipPathUnits="userSpaceOnUse"
       id="clipPath13">
      <path
         d="M 0,0 H 1191.6666 V 519.67413 H 0 Z"
         transform="matrix(0.33482185,0,0,0.33482185,-46.703125,-63)"
         clip-rule="evenodd"
         id="path13" />
    </clipPath>
    <clipPath
       clipPathUnits="userSpaceOnUse"
       id="clipPath14">
      <path
         d="M 0,0 H 1191.6666 V 519.67413 H 0 Z"
         transform="matrix(0.33482185,0,0,0.33482185,-32.34375,-77)"
         clip-rule="evenodd"
         id="path14" />
    </clipPath>
    <clipPath
       clipPathUnits="userSpaceOnUse"
       id="clipPath16">
      <path
         d="M 0,0 H 1191.6666 V 519.67413 H 0 Z"
         transform="matrix(0.33482519,0,0,0.33482519,-0.49999999,-0.49999999)"
         clip-rule="evenodd"
         id="path16" />
    </clipPath>
    <clipPath
       clipPathUnits="userSpaceOnUse"
       id="clipPath17">
      <path
         d="M 0,0 H 1191.6666 V 519.67413 H 0 Z"
         transform="matrix(0.33482185,0,0,0.33482185,-112.4375,-63)"
         clip-rule="evenodd"
         id="path17" />
    </clipPath>
    <clipPath
       clipPathUnits="userSpaceOnUse"
       id="clipPath18">
      <path
         d="M 0,0 H 1191.6666 V 519.67413 H 0 Z"
         transform="matrix(0.33482185,0,0,0.33482185,-107.54688,-77)"
         clip-rule="evenodd"
         id="path18" />
    </clipPath>
    <clipPath
       clipPathUnits="userSpaceOnUse"
       id="clipPath20">
      <path
         d="M 0,0 H 1191.6666 V 519.67413 H 0 Z"
         transform="matrix(0.33482519,0,0,0.33482519,-0.49999999,-0.49999999)"
         clip-rule="evenodd"
         id="path20" />
    </clipPath>
    <clipPath
       clipPathUnits="userSpaceOnUse"
       id="clipPath21">
      <path
         d="M 0,0 H 1191.6666 V 519.67413 H 0 Z"
         transform="matrix(0.33482185,0,0,0.33482185,-47.9375,-94.999999)"
         clip-rule="evenodd"
         id="path21" />
    </clipPath>
    <clipPath
       clipPathUnits="userSpaceOnUse"
       id="clipPath23">
      <path
         d="M 0,0 H 1191.6666 V 519.67413 H 0 Z"
         transform="matrix(0.33482519,0,0,0.33482519,-0.49999999,-0.49999999)"
         clip-rule="evenodd"
         id="path23" />
    </clipPath>
    <clipPath
       clipPathUnits="userSpaceOnUse"
       id="clipPath24">
      <path
         d="M 0,0 H 1191.6666 V 519.67413 H 0 Z"
         transform="matrix(0.33482185,0,0,0.33482185,-88.09375,-94)"
         clip-rule="evenodd"
         id="path24" />
    </clipPath>
    <clipPath
       clipPathUnits="userSpaceOnUse"
       id="clipPath26">
      <path
         d="M 0,0 H 1191.6666 V 519.67413 H 0 Z"
         transform="matrix(0.33482519,0,0,0.33482519,-0.49999999,-0.49999999)"
         clip-rule="evenodd"
         id="path26" />
    </clipPath>
    <clipPath
       clipPathUnits="userSpaceOnUse"
       id="clipPath27">
      <path
         d="M 0,0 H 1191.6666 V 519.67413 H 0 Z"
         transform="matrix(0.33482185,0,0,0.33482185,-47.9375,-115)"
         clip-rule="evenodd"
         id="path27" />
    </clipPath>
    <clipPath
       clipPathUnits="userSpaceOnUse"
       id="clipPath29">
      <path
         d="M 0,0 H 1191.6666 V 519.67413 H 0 Z"
         transform="matrix(0.33482519,0,0,0.33482519,-0.49999999,-0.49999999)"
         clip-rule="evenodd"
         id="path29" />
    </clipPath>
    <clipPath
       clipPathUnits="userSpaceOnUse"
       id="clipPath30">
      <path
         d="M 0,0 H 1191.6666 V 519.67413 H 0 Z"
         transform="matrix(0.33482185,0,0,0.33482185,-98.3125,-109)"
         clip-rule="evenodd"
         id="path30" />
    </clipPath>
    <clipPath
       clipPathUnits="userSpaceOnUse"
       id="clipPath31">
      <path
         d="M 0,0 H 1191.6666 V 519.67413 H 0 Z"
         transform="matrix(0.33482185,0,0,0.33482185,-110.76562,-119)"
         clip-rule="evenodd"
         id="path31" />
    </clipPath>
    <clipPath
       clipPathUnits="userSpaceOnUse"
       id="clipPath33">
      <path
         d="M 0,0 H 1191.6666 V 519.67413 H 0 Z"
         transform="matrix(0.33482519,0,0,0.33482519,-0.49999999,-0.49999999)"
         clip-rule="evenodd"
         id="path33" />
    </clipPath>
    <clipPath
       clipPathUnits="userSpaceOnUse"
       id="clipPath34">
      <path
         d="M 0,0 H 1191.6666 V 519.67413 H 0 Z"
         transform="matrix(0.33482185,0,0,0.33482185,-47.9375,-135)"
         clip-rule="evenodd"
         id="path34" />
    </clipPath>
    <clipPath
       clipPathUnits="userSpaceOnUse"
       id="clipPath36">
      <path
         d="M 0,0 H 1191.6666 V 519.67413 H 0 Z"
         transform="matrix(0.33482519,0,0,0.33482519,-0.49999999,-0.49999999)"
         clip-rule="evenodd"
         id="path36" />
    </clipPath>
    <clipPath
       clipPathUnits="userSpaceOnUse"
       id="clipPath37">
      <path
         d="M 0,0 H 1191.6666 V 519.67413 H 0 Z"
         transform="matrix(0.33482185,0,0,0.33482185,-97.203125,-129)"
         clip-rule="evenodd"
         id="path37" />
    </clipPath>
    <clipPath
       clipPathUnits="userSpaceOnUse"
       id="clipPath38">
      <path
         d="M 0,0 H 1191.6666 V 519.67413 H 0 Z"
         transform="matrix(0.33482185,0,0,0.33482185,-105.65625,-139)"
         clip-rule="evenodd"
         id="path38" />
    </clipPath>
    <clipPath
       clipPathUnits="userSpaceOnUse"
       id="clipPath40">
      <path
         d="M 0,0 H 1191.6666 V 519.67413 H 0 Z"
         transform="matrix(0.33482519,0,0,0.33482519,-0.49999999,-0.49999999)"
         clip-rule="evenodd"
         id="path40" />
    </clipPath>
    <clipPath
       clipPathUnits="userSpaceOnUse"
       id="clipPath41">
      <path
         d="M 0,0 H 1191.6666 V 519.67413 H 0 Z"
         transform="matrix(0.33482185,0,0,0.33482185,-47.9375,-155)"
         clip-rule="evenodd"
         id="path41" />
    </clipPath>
    <clipPath
       clipPathUnits="userSpaceOnUse"
       id="clipPath43">
      <path
         d="M 0,0 H 1191.6666 V 519.67413 H 0 Z"
         transform="matrix(0.33482519,0,0,0.33482519,-0.49999999,-0.49999999)"
         clip-rule="evenodd"
         id="path43" />
    </clipPath>
    <clipPath
       clipPathUnits="userSpaceOnUse"
       id="clipPath44">
      <path
         d="M 0,0 H 1191.6666 V 519.67413 H 0 Z"
         transform="matrix(0.33482185,0,0,0.33482185,-94.984375,-149)"
         clip-rule="evenodd"
         id="path44" />
    </clipPath>
    <clipPath
       clipPathUnits="userSpaceOnUse"
       id="clipPath45">
      <path
         d="M 0,0 H 1191.6666 V 519.67413 H 0 Z"
         transform="matrix(0.33482185,0,0,0.33482185,-112.3125,-159)"
         clip-rule="evenodd"
         id="path45" />
    </clipPath>
    <clipPath
       clipPathUnits="userSpaceOnUse"
       id="clipPath47">
      <path
         d="M 0,0 H 1191.6666 V 519.67413 H 0 Z"
         transform="matrix(0.33482519,0,0,0.33482519,-0.49999999,-0.49999999)"
         clip-rule="evenodd"
         id="path47" />
    </clipPath>
    <clipPath
       clipPathUnits="userSpaceOnUse"
       id="clipPath48">
      <path
         d="M 0,0 H 1191.6666 V 519.67413 H 0 Z"
         transform="matrix(0.33482185,0,0,0.33482185,-218.04688,-47)"
         clip-rule="evenodd"
         id="path48" />
    </clipPath>
    <clipPath
       clipPathUnits="userSpaceOnUse"
       id="clipPath50">
      <path
         d="M 0,0 H 1191.6666 V 519.67413 H 0 Z"
         transform="matrix(0.33482519,0,0,0.33482519,-0.49999999,-0.49999999)"
         clip-rule="evenodd"
         id="path50" />
    </clipPath>
    <clipPath
       clipPathUnits="userSpaceOnUse"
       id="clipPath51">
      <path
         d="M 0,0 H 1191.6666 V 519.67413 H 0 Z"
         transform="matrix(0.33482185,0,0,0.33482185,-206.70313,-63)"
         clip-rule="evenodd"
         id="path51" />
    </clipPath>
    <clipPath
       clipPathUnits="userSpaceOnUse"
       id="clipPath52">
      <path
         d="M 0,0 H 1191.6666 V 519.67413 H 0 Z"
         transform="matrix(0.33482185,0,0,0.33482185,-192.34375,-77)"
         clip-rule="evenodd"
         id="path52" />
    </clipPath>
    <clipPath
       clipPathUnits="userSpaceOnUse"
       id="clipPath54">
      <path
         d="M 0,0 H 1191.6666 V 519.67413 H 0 Z"
         transform="matrix(0.33482519,0,0,0.33482519,-0.49999999,-0.49999999)"
         clip-rule="evenodd"
         id="path54" />
    </clipPath>
    <clipPath
       clipPathUnits="userSpaceOnUse"
       id="clipPath55">
      <path
         d="M 0,0 H 1191.6666 V 519.67413 H 0 Z"
         transform="matrix(0.33482185,0,0,0.33482185,-262.95313,-63)"
         clip-rule="evenodd"
         id="path55" />
    </clipPath>
    <clipPath
       clipPathUnits="userSpaceOnUse"
       id="clipPath56">
      <path
         d="M 0,0 H 1191.6666 V 519.67413 H 0 Z"
         transform="matrix(0.33482185,0,0,0.33482185,-267.54688,-77)"
         clip-rule="evenodd"
         id="path56" />
    </clipPath>
    <clipPath
       clipPathUnits="userSpaceOnUse"
       id="clipPath58">
      <path
         d="M 0,0 H 1191.6666 V 519.67413 H 0 Z"
         transform="matrix(0.33482519,0,0,0.33482519,-0.49999999,-0.49999999)"
         clip-rule="evenodd"
         id="path58" />
    </clipPath>
    <clipPath
       clipPathUnits="userSpaceOnUse"
       id="clipPath59">
      <path
         d="M 0,0 H 1191.6666 V 519.67413 H 0 Z"
         transform="matrix(0.33482185,0,0,0.33482185,-207.9375,-94.999999)"
         clip-rule="evenodd"
         id="path59" />
    </clipPath>
    <clipPath
       clipPathUnits="userSpaceOnUse"
       id="clipPath61">
      <path
         d="M 0,0 H 1191.6666 V 519.67413 H 0 Z"
         transform="matrix(0.33482519,0,0,0.33482519,-0.49999999,-0.49999999)"
         clip-rule="evenodd"
         id="path61" />
    </clipPath>
    <clipPath
       clipPathUnits="userSpaceOnUse"
       id="clipPath62">
      <path
         d="M 0,0 H 1191.6666 V 519.67413 H 0 Z"
         transform="matrix(0.33482185,0,0,0.33482185,-262.09375,-94)"
         clip-rule="evenodd"
         id="path62" />
    </clipPath>
    <clipPath
       clipPathUnits="userSpaceOnUse"
       id="clipPath64">
      <path
         d="M 0,0 H 1191.6666 V 519.67413 H 0 Z"
         transform="matrix(0.33482519,0,0,0.33482519,-0.49999999,-0.49999999)"
         clip-rule="evenodd"
         id="path64" />
    </clipPath>
    <clipPath
       clipPathUnits="userSpaceOnUse"
       id="clipPath65">
      <path
         d="M 0,0 H 1191.6666 V 519.67413 H 0 Z"
         transform="matrix(0.33482185,0,0,0.33482185,-207.9375,-115)"
         clip-rule="evenodd"
         id="path65" />
    </clipPath>
    <clipPath
       clipPathUnits="userSpaceOnUse"
       id="clipPath67">
      <path
         d="M 0,0 H 1191.6666 V 519.67413 H 0 Z"
         transform="matrix(0.33482519,0,0,0.33482519,-0.49999999,-0.49999999)"
         clip-rule="evenodd"
         id="path67" />
    </clipPath>
    <clipPath
       clipPathUnits="userSpaceOnUse"
       id="clipPath68">
      <path
         d="M 0,0 H 1191.6666 V 519.67413 H 0 Z"
         transform="matrix(0.33482185,0,0,0.33482185,-269.43749,-114)"
         clip-rule="evenodd"
         id="path68" />
    </clipPath>
    <clipPath
       clipPathUnits="userSpaceOnUse"
       id="clipPath70">
      <path
         d="M 0,0 H 1191.6666 V 519.67413 H 0 Z"
         transform="matrix(0.33482519,0,0,0.33482519,-0.49999999,-0.49999999)"
         clip-rule="evenodd"
         id="path70" />
    </clipPath>
    <clipPath
       clipPathUnits="userSpaceOnUse"
       id="clipPath71">
      <path
         d="M 0,0 H 1191.6666 V 519.67413 H 0 Z"
         transform="matrix(0.33482185,0,0,0.33482185,-207.9375,-135)"
         clip-rule="evenodd"
         id="path71" />
    </clipPath>
    <clipPath
       clipPathUnits="userSpaceOnUse"
       id="clipPath73">
      <path
         d="M 0,0 H 1191.6666 V 519.67413 H 0 Z"
         transform="matrix(0.33482519,0,0,0.33482519,-0.49999999,-0.49999999)"
         clip-rule="evenodd"
         id="path73" />
    </clipPath>
    <clipPath
       clipPathUnits="userSpaceOnUse"
       id="clipPath74">
      <path
         d="M 0,0 H 1191.6666 V 519.67413 H 0 Z"
         transform="matrix(0.33482185,0,0,0.33482185,-260.98438,-134)"
         clip-rule="evenodd"
         id="path74" />
    </clipPath>
    <clipPath
       clipPathUnits="userSpaceOnUse"
       id="clipPath76">
      <path
         d="M 0,0 H 1191.6666 V 519.67413 H 0 Z"
         transform="matrix(0.33482519,0,0,0.33482519,-0.49999999,-0.49999999)"
         clip-rule="evenodd"
         id="path76" />
    </clipPath>
    <clipPath
       clipPathUnits="userSpaceOnUse"
       id="clipPath77">
      <path
         d="M 0,0 H 1191.6666 V 519.67413 H 0 Z"
         transform="matrix(0.33482185,0,0,0.33482185,-333.25,-63)"
         clip-rule="evenodd"
         id="path77" />
    </clipPath>
    <clipPath
       clipPathUnits="userSpaceOnUse"
       id="clipPath78">
      <path
         d="M 0,0 H 1191.6666 V 519.67413 H 0 Z"
         transform="matrix(0.33482185,0,0,0.33482185,-332.34375,-77)"
         clip-rule="evenodd"
         id="path78" />
    </clipPath>
    <clipPath
       clipPathUnits="userSpaceOnUse"
       id="clipPath80">
      <path
         d="M 0,0 H 1191.6666 V 519.67413 H 0 Z"
         transform="matrix(0.33482519,0,0,0.33482519,-0.49999999,-0.49999999)"
         clip-rule="evenodd"
         id="path80" />
    </clipPath>
    <clipPath
       clipPathUnits="userSpaceOnUse"
       id="clipPath81">
      <path
         d="M 0,0 H 1191.6666 V 519.67413 H 0 Z"
         transform="matrix(0.33482185,0,0,0.33482185,-348.76563,-94)"
         clip-rule="evenodd"
         id="path81" />
    </clipPath>
    <clipPath
       clipPathUnits="userSpaceOnUse"
       id="clipPath83">
      <path
         d="M 0,0 H 1191.6666 V 519.67413 H 0 Z"
         transform="matrix(0.33482519,0,0,0.33482519,-0.49999999,-0.49999999)"
         clip-rule="evenodd"
         id="path83" />
    </clipPath>
    <clipPath
       clipPathUnits="userSpaceOnUse"
       id="clipPath84">
      <path
         d="M 0,0 H 1191.6666 V 519.67413 H 0 Z"
         transform="matrix(0.33482185,0,0,0.33482185,-348.76563,-114)"
         clip-rule="evenodd"
         id="path84" />
    </clipPath>
    <clipPath
       clipPathUnits="userSpaceOnUse"
       id="clipPath86">
      <path
         d="M 0,0 H 1191.6666 V 519.67413 H 0 Z"
         transform="matrix(0.33482519,0,0,0.33482519,-0.49999999,-0.49999999)"
         clip-rule="evenodd"
         id="path86" />
    </clipPath>
    <clipPath
       clipPathUnits="userSpaceOnUse"
       id="clipPath87">
      <path
         d="M 0,0 H 1191.6666 V 519.67413 H 0 Z"
         transform="matrix(0.33482185,0,0,0.33482185,-348.76563,-134)"
         clip-rule="evenodd"
         id="path87" />
    </clipPath>
  </defs>
  <sodipodi:namedview
     id="namedview1"
     pagecolor="#ffffff"
     bordercolor="#000000"
     borderopacity="0.25"
     inkscape:showpageshadow="2"
     inkscape:pageopacity="0.0"
     inkscape:pagecheckerboard="0"
     inkscape:deskcolor="#d1d1d1">
    <inkscape:page
       x="0"
       y="0"
       inkscape:label="1"
       id="page1"
       width="381.44"
       height="168"
       margin="0"
       bleed="0" />
  </sodipodi:namedview>
  <g
     id="g1"
     inkscape:groupmode="layer"
     inkscape:label="1">
    <path
       id="path1"
       d="M 0,0 H 399 V 175 H 0 Z"
       style="fill:#ffffff;fill-opacity:1;fill-rule:nonzero;stroke:none"
       transform="scale(0.95572255)"
       clip-path="url(#clipPath2)" />
    <path
       id="path3"
       d="M 1,1 H 396 V 21 H 1 Z"
       style="fill:#e1d5e7;fill-opacity:1;fill-rule:nonzero;stroke:#9673a6;stroke-width:1;stroke-linecap:butt;stroke-linejoin:miter;stroke-miterlimit:10;stroke-dasharray:none;stroke-opacity:1"
       transform="matrix(0.95572255,0,0,0.95572255,0.47786127,0.47786127)"
       clip-path="url(#clipPath4)" />
    <text
       id="text4"
       xml:space="preserve"
       transform="matrix(0.95573209,0,0,0.95573209,141.22435,16.247445)"
       clip-path="url(#clipPath5)"><tspan
         style="font-variant:normal;font-weight:700;font-size:15px;font-family:Helvetica;writing-mode:lr-tb;fill:#000000;fill-opacity:1;fill-rule:nonzero;stroke:none"
         x="0 10.004883 21.672363 30.571289 34.73877 45.571289 53.913574 58.908691 67.250977 76.413574 84.755859 93.098145"
         y="0"
         sodipodi:role="line"
         id="tspan4">SQL Database</tspan></text>
    <path
       id="path6"
       d="M 1,21 H 396 V 171 H 1 Z"
       style="fill:#e1d5e7;fill-opacity:1;fill-rule:nonzero;stroke:#9673a6;stroke-width:1;stroke-linecap:butt;stroke-linejoin:miter;stroke-miterlimit:10;stroke-dasharray:none;stroke-opacity:1"
       transform="matrix(0.95572255,0,0,0.95572255,0.47786127,0.47786127)"
       clip-path="url(#clipPath7)" />
    <path
       id="path8"
       d="M 16,31 H 156 V 51 H 16 Z"
       style="fill:#d5e8d4;fill-opacity:1;fill-rule:nonzero;stroke:#82b366;stroke-width:1;stroke-linecap:butt;stroke-linejoin:miter;stroke-miterlimit:10;stroke-dasharray:none;stroke-opacity:1"
       transform="matrix(0.95572255,0,0,0.95572255,0.47786127,0.47786127)"
       clip-path="url(#clipPath9)" />
    <text
       id="text9"
       xml:space="preserve"
       transform="matrix(0.95573209,0,0,0.95573209,37.960484,44.919408)"
       clip-path="url(#clipPath10)"><tspan
         style="font-variant:normal;font-weight:normal;font-size:15px;font-family:Helvetica;writing-mode:lr-tb;fill:#000000;fill-opacity:1;fill-rule:nonzero;stroke:none"
         x="0 7.5 15.842285 24.18457 27.51709 35.859375 40.026855 48.369141 52.536621 56.704102 65.046387 73.388672 80.888672 85.056152"
         y="0"
         sodipodi:role="line"
         id="tspan9">Table of posts</tspan></text>
    <path
       id="path11"
       d="M 16,51 H 86 V 81 H 16 Z"
       style="fill:#dae8fc;fill-opacity:1;fill-rule:nonzero;stroke:#6c8ebf;stroke-width:1;stroke-linecap:butt;stroke-linejoin:miter;stroke-miterlimit:10;stroke-dasharray:none;stroke-opacity:1"
       transform="matrix(0.95572255,0,0,0.95572255,0.47786127,0.47786127)"
       clip-path="url(#clipPath12)" />
    <text
       id="text12"
       xml:space="preserve"
       transform="matrix(0.95573209,0,0,0.95573209,44.635675,60.211122)"
       clip-path="url(#clipPath13)"><tspan
         style="font-style:oblique;font-variant:normal;font-weight:normal;font-size:11px;font-family:Helvetica;writing-mode:lr-tb;fill:#000000;fill-opacity:1;fill-rule:nonzero;stroke:none"
         x="0 2.4438477"
         y="0"
         sodipodi:role="line"
         id="tspan12">id</tspan></text>
    <text
       id="text13"
       xml:space="preserve"
       transform="matrix(0.95573209,0,0,0.95573209,30.91196,73.591371)"
       clip-path="url(#clipPath14)"><tspan
         style="font-style:oblique;font-variant:normal;font-weight:normal;font-size:11px;font-family:Helvetica;writing-mode:lr-tb;fill:#000000;fill-opacity:1;fill-rule:nonzero;stroke:none"
         x="0 6.1176758 12.235352 21.398438 27.516113 33.633789"
         y="0"
         sodipodi:role="line"
         id="tspan13">number</tspan></text>
    <path
       id="path15"
       d="m 86,51 h 70 V 81 H 86 Z"
       style="fill:#dae8fc;fill-opacity:1;fill-rule:nonzero;stroke:#6c8ebf;stroke-width:1;stroke-linecap:butt;stroke-linejoin:miter;stroke-miterlimit:10;stroke-dasharray:none;stroke-opacity:1"
       transform="matrix(0.95572255,0,0,0.95572255,0.47786127,0.47786127)"
       clip-path="url(#clipPath16)" />
    <text
       id="text16"
       xml:space="preserve"
       transform="matrix(0.95573209,0,0,0.95573209,107.46013,60.211122)"
       clip-path="url(#clipPath17)"><tspan
         style="font-style:oblique;font-variant:normal;font-weight:normal;font-size:11px;font-family:Helvetica;writing-mode:lr-tb;fill:#000000;fill-opacity:1;fill-rule:nonzero;stroke:none"
         x="0 3.0561523 5.5 8.5561523 11"
         y="0"
         sodipodi:role="line"
         id="tspan16">title</tspan></text>
    <text
       id="text17"
       xml:space="preserve"
       transform="matrix(0.95573209,0,0,0.95573209,102.786,73.591371)"
       clip-path="url(#clipPath18)"><tspan
         style="font-style:oblique;font-variant:normal;font-weight:normal;font-size:11px;font-family:Helvetica;writing-mode:lr-tb;fill:#000000;fill-opacity:1;fill-rule:nonzero;stroke:none"
         x="0 5.5 8.5561523 12.219238 14.663086 20.780762"
         y="0"
         sodipodi:role="line"
         id="tspan17">string</tspan></text>
    <path
       id="path19"
       d="m 16,81 h 70 v 20 H 16 Z"
       style="fill:#ffffff;fill-opacity:1;fill-rule:nonzero;stroke:#000000;stroke-width:1;stroke-linecap:butt;stroke-linejoin:miter;stroke-miterlimit:10;stroke-dasharray:none;stroke-opacity:1"
       transform="matrix(0.95572255,0,0,0.95572255,0.47786127,0.47786127)"
       clip-path="url(#clipPath20)" />
    <text
       id="text20"
       xml:space="preserve"
       transform="matrix(0.95573209,0,0,0.95573209,45.815407,90.794548)"
       clip-path="url(#clipPath21)"><tspan
         style="font-variant:normal;font-weight:normal;font-size:11px;font-family:Helvetica;writing-mode:lr-tb;fill:#000000;fill-opacity:1;fill-rule:nonzero;stroke:none"
         x="0"
         y="0"
         id="tspan20">1</tspan></text>
    <path
       id="path22"
       d="m 86,81 h 70 v 20 H 86 Z"
       style="fill:#ffffff;fill-opacity:1;fill-rule:nonzero;stroke:#000000;stroke-width:1;stroke-linecap:butt;stroke-linejoin:miter;stroke-miterlimit:10;stroke-dasharray:none;stroke-opacity:1"
       transform="matrix(0.95572255,0,0,0.95572255,0.47786127,0.47786127)"
       clip-path="url(#clipPath23)" />
    <text
       id="text23"
       xml:space="preserve"
       transform="matrix(0.95573209,0,0,0.95573209,84.194024,89.838816)"
       clip-path="url(#clipPath24)"><tspan
         style="font-variant:normal;font-weight:normal;font-size:8px;font-family:Helvetica;writing-mode:lr-tb;fill:#000000;fill-opacity:1;fill-rule:nonzero;stroke:none"
         x="0 6.6640625 10.664062 12.886719 17.335938 21.785156 25.785156 28.007812 32.457031 34.679688 36.902344 39.125 43.574219 48.023438 50.246094 54.695312 59.144531 61.808594"
         y="0"
         sodipodi:role="line"
         id="tspan23">my day at the park</tspan></text>
    <path
       id="path25"
       d="m 16,101 h 70 v 20 H 16 Z"
       style="fill:#ffffff;fill-opacity:1;fill-rule:nonzero;stroke:#000000;stroke-width:1;stroke-linecap:butt;stroke-linejoin:miter;stroke-miterlimit:10;stroke-dasharray:none;stroke-opacity:1"
       transform="matrix(0.95572255,0,0,0.95572255,0.47786127,0.47786127)"
       clip-path="url(#clipPath26)" />
    <text
       id="text26"
       xml:space="preserve"
       transform="matrix(0.95573209,0,0,0.95573209,45.815407,109.90919)"
       clip-path="url(#clipPath27)"><tspan
         style="font-variant:normal;font-weight:normal;font-size:11px;font-family:Helvetica;writing-mode:lr-tb;fill:#000000;fill-opacity:1;fill-rule:nonzero;stroke:none"
         x="0"
         y="0"
         id="tspan26">2</tspan></text>
    <path
       id="path28"
       d="m 86,101 h 70 v 20 H 86 Z"
       style="fill:#ffffff;fill-opacity:1;fill-rule:nonzero;stroke:#000000;stroke-width:1;stroke-linecap:butt;stroke-linejoin:miter;stroke-miterlimit:10;stroke-dasharray:none;stroke-opacity:1"
       transform="matrix(0.95572255,0,0,0.95572255,0.47786127,0.47786127)"
       clip-path="url(#clipPath29)" />
    <text
       id="text29"
       xml:space="preserve"
       transform="matrix(0.95573209,0,0,0.95573209,93.960411,104.1748)"
       clip-path="url(#clipPath30)"><tspan
         style="font-variant:normal;font-weight:normal;font-size:8px;font-family:Helvetica;writing-mode:lr-tb;fill:#000000;fill-opacity:1;fill-rule:nonzero;stroke:none"
         x="0 4.4492188 8.8984375 14.675781 16.898438 19.121094 23.570312 25.792969 32.457031 36.90625 40.90625"
         y="0"
         sodipodi:role="line"
         id="tspan29">how to make</tspan></text>
    <text
       id="text30"
       xml:space="preserve"
       transform="matrix(0.95573209,0,0,0.95573209,105.86226,113.73212)"
       clip-path="url(#clipPath31)"><tspan
         style="font-variant:normal;font-weight:normal;font-size:8px;font-family:Helvetica;writing-mode:lr-tb;fill:#000000;fill-opacity:1;fill-rule:nonzero;stroke:none"
         x="0 4.4492188 7.1132812 11.5625 16.011719"
         y="0"
         sodipodi:role="line"
         id="tspan30">bread</tspan></text>
    <path
       id="path32"
       d="m 16,121 h 70 v 20 H 16 Z"
       style="fill:#ffffff;fill-opacity:1;fill-rule:nonzero;stroke:#000000;stroke-width:1;stroke-linecap:butt;stroke-linejoin:miter;stroke-miterlimit:10;stroke-dasharray:none;stroke-opacity:1"
       transform="matrix(0.95572255,0,0,0.95572255,0.47786127,0.47786127)"
       clip-path="url(#clipPath33)" />
    <text
       id="text33"
       xml:space="preserve"
       transform="matrix(0.95573209,0,0,0.95573209,45.815407,129.02383)"
       clip-path="url(#clipPath34)"><tspan
         style="font-variant:normal;font-weight:normal;font-size:11px;font-family:Helvetica;writing-mode:lr-tb;fill:#000000;fill-opacity:1;fill-rule:nonzero;stroke:none"
         x="0"
         y="0"
         id="tspan33">3</tspan></text>
    <path
       id="path35"
       d="m 86,121 h 70 v 20 H 86 Z"
       style="fill:#ffffff;fill-opacity:1;fill-rule:nonzero;stroke:#000000;stroke-width:1;stroke-linecap:butt;stroke-linejoin:miter;stroke-miterlimit:10;stroke-dasharray:none;stroke-opacity:1"
       transform="matrix(0.95572255,0,0,0.95572255,0.47786127,0.47786127)"
       clip-path="url(#clipPath36)" />
    <text
       id="text36"
       xml:space="preserve"
       transform="matrix(0.95573209,0,0,0.95573209,92.900146,123.28944)"
       clip-path="url(#clipPath37)"><tspan
         style="font-variant:normal;font-weight:normal;font-size:8px;font-family:Helvetica;writing-mode:lr-tb;fill:#000000;fill-opacity:1;fill-rule:nonzero;stroke:none"
         x="0 2.2226562 6.671875 11.121094 13.34375 17.792969 20.457031 22.679688 24.902344 29.351562 31.574219 33.796875 36.019531 38.683594 43.132812"
         y="0"
         sodipodi:role="line"
         id="tspan36">the art of tree</tspan></text>
    <text
       id="text37"
       xml:space="preserve"
       transform="matrix(0.95573209,0,0,0.95573209,100.97907,132.84676)"
       clip-path="url(#clipPath38)"><tspan
         style="font-variant:normal;font-weight:normal;font-size:8px;font-family:Helvetica;writing-mode:lr-tb;fill:#000000;fill-opacity:1;fill-rule:nonzero;stroke:none"
         x="0 2.2226562 4.8867188 6.6640625 13.328125 19.992188 21.769531 26.21875"
         y="0"
         sodipodi:role="line"
         id="tspan37">trimming</tspan></text>
    <path
       id="path39"
       d="m 16,141 h 70 v 20 H 16 Z"
       style="fill:#ffffff;fill-opacity:1;fill-rule:nonzero;stroke:#000000;stroke-width:1;stroke-linecap:butt;stroke-linejoin:miter;stroke-miterlimit:10;stroke-dasharray:none;stroke-opacity:1"
       transform="matrix(0.95572255,0,0,0.95572255,0.47786127,0.47786127)"
       clip-path="url(#clipPath40)" />
    <text
       id="text40"
       xml:space="preserve"
       transform="matrix(0.95573209,0,0,0.95573209,45.815407,148.13847)"
       clip-path="url(#clipPath41)"><tspan
         style="font-variant:normal;font-weight:normal;font-size:11px;font-family:Helvetica;writing-mode:lr-tb;fill:#000000;fill-opacity:1;fill-rule:nonzero;stroke:none"
         x="0"
         y="0"
         id="tspan40">4</tspan></text>
    <path
       id="path42"
       d="m 86,141 h 70 v 20 H 86 Z"
       style="fill:#ffffff;fill-opacity:1;fill-rule:nonzero;stroke:#000000;stroke-width:1;stroke-linecap:butt;stroke-linejoin:miter;stroke-miterlimit:10;stroke-dasharray:none;stroke-opacity:1"
       transform="matrix(0.95572255,0,0,0.95572255,0.47786127,0.47786127)"
       clip-path="url(#clipPath43)" />
    <text
       id="text43"
       xml:space="preserve"
       transform="matrix(0.95573209,0,0,0.95573209,90.779615,142.40408)"
       clip-path="url(#clipPath44)"><tspan
         style="font-variant:normal;font-weight:normal;font-size:8px;font-family:Helvetica;writing-mode:lr-tb;fill:#000000;fill-opacity:1;fill-rule:nonzero;stroke:none"
         x="0 4.4492188 8.8984375 14.675781 16.898438 19.121094 23.570312 25.792969 31.570312 36.019531 38.242188 42.691406 45.355469 47.578125"
         y="0"
         sodipodi:role="line"
         id="tspan43">how to water a</tspan></text>
    <text
       id="text44"
       xml:space="preserve"
       transform="matrix(0.95573209,0,0,0.95573209,107.34066,151.9614)"
       clip-path="url(#clipPath45)"><tspan
         style="font-variant:normal;font-weight:normal;font-size:8px;font-family:Helvetica;writing-mode:lr-tb;fill:#000000;fill-opacity:1;fill-rule:nonzero;stroke:none"
         x="0 4.4492188 6.2265625 10.675781 15.125"
         y="0"
         sodipodi:role="line"
         id="tspan44">plant</tspan></text>
    <path
       id="path46"
       d="M 176,31 H 386 V 51 H 176 Z"
       style="fill:#d5e8d4;fill-opacity:1;fill-rule:nonzero;stroke:#82b366;stroke-width:1;stroke-linecap:butt;stroke-linejoin:miter;stroke-miterlimit:10;stroke-dasharray:none;stroke-opacity:1"
       transform="matrix(0.95572255,0,0,0.95572255,0.47786127,0.47786127)"
       clip-path="url(#clipPath47)" />
    <text
       id="text47"
       xml:space="preserve"
       transform="matrix(0.95573209,0,0,0.95573209,208.3944,44.919408)"
       clip-path="url(#clipPath48)"><tspan
         style="font-variant:normal;font-weight:normal;font-size:15px;font-family:Helvetica;writing-mode:lr-tb;fill:#000000;fill-opacity:1;fill-rule:nonzero;stroke:none"
         x="0 7.5 15.842285 24.18457 27.51709 35.859375 40.026855 48.369141 52.536621 56.704102 64.204102 72.546387 85.041504 97.536621 105.87891 114.22119 118.38867"
         y="0"
         sodipodi:role="line"
         id="tspan47">Table of comments</tspan></text>
    <path
       id="path49"
       d="m 176,51 h 70 v 30 h -70 z"
       style="fill:#dae8fc;fill-opacity:1;fill-rule:nonzero;stroke:#6c8ebf;stroke-width:1;stroke-linecap:butt;stroke-linejoin:miter;stroke-miterlimit:10;stroke-dasharray:none;stroke-opacity:1"
       transform="matrix(0.95572255,0,0,0.95572255,0.47786127,0.47786127)"
       clip-path="url(#clipPath50)" />
    <text
       id="text50"
       xml:space="preserve"
       transform="matrix(0.95573209,0,0,0.95573209,197.55281,60.211122)"
       clip-path="url(#clipPath51)"><tspan
         style="font-style:oblique;font-variant:normal;font-weight:normal;font-size:11px;font-family:Helvetica;writing-mode:lr-tb;fill:#000000;fill-opacity:1;fill-rule:nonzero;stroke:none"
         x="0 2.4438477"
         y="0"
         sodipodi:role="line"
         id="tspan50">id</tspan></text>
    <text
       id="text51"
       xml:space="preserve"
       transform="matrix(0.95573209,0,0,0.95573209,183.82909,73.591371)"
       clip-path="url(#clipPath52)"><tspan
         style="font-style:oblique;font-variant:normal;font-weight:normal;font-size:11px;font-family:Helvetica;writing-mode:lr-tb;fill:#000000;fill-opacity:1;fill-rule:nonzero;stroke:none"
         x="0 6.1176758 12.235352 21.398438 27.516113 33.633789"
         y="0"
         sodipodi:role="line"
         id="tspan51">number</tspan></text>
    <path
       id="path53"
       d="m 246,51 h 70 v 30 h -70 z"
       style="fill:#dae8fc;fill-opacity:1;fill-rule:nonzero;stroke:#6c8ebf;stroke-width:1;stroke-linecap:butt;stroke-linejoin:miter;stroke-miterlimit:10;stroke-dasharray:none;stroke-opacity:1"
       transform="matrix(0.95572255,0,0,0.95572255,0.47786127,0.47786127)"
       clip-path="url(#clipPath54)" />
    <text
       id="text54"
       xml:space="preserve"
       transform="matrix(0.95573209,0,0,0.95573209,251.31274,60.211122)"
       clip-path="url(#clipPath55)"><tspan
         style="font-style:oblique;font-variant:normal;font-weight:normal;font-size:11px;font-family:Helvetica;writing-mode:lr-tb;fill:#000000;fill-opacity:1;fill-rule:nonzero;stroke:none"
         x="0 5.5 11.617676 17.735352 20.791504 26.90918 33.026855"
         y="0"
         sodipodi:role="line"
         id="tspan54">content</tspan></text>
    <text
       id="text55"
       xml:space="preserve"
       transform="matrix(0.95573209,0,0,0.95573209,255.70314,73.591371)"
       clip-path="url(#clipPath56)"><tspan
         style="font-style:oblique;font-variant:normal;font-weight:normal;font-size:11px;font-family:Helvetica;writing-mode:lr-tb;fill:#000000;fill-opacity:1;fill-rule:nonzero;stroke:none"
         x="0 5.5 8.5561523 12.219238 14.663086 20.780762"
         y="0"
         sodipodi:role="line"
         id="tspan55">string</tspan></text>
    <path
       id="path57"
       d="m 176,81 h 70 v 20 h -70 z"
       style="fill:#ffffff;fill-opacity:1;fill-rule:nonzero;stroke:#000000;stroke-width:1;stroke-linecap:butt;stroke-linejoin:miter;stroke-miterlimit:10;stroke-dasharray:none;stroke-opacity:1"
       transform="matrix(0.95572255,0,0,0.95572255,0.47786127,0.47786127)"
       clip-path="url(#clipPath58)" />
    <text
       id="text58"
       xml:space="preserve"
       transform="matrix(0.95573209,0,0,0.95573209,198.73254,90.794548)"
       clip-path="url(#clipPath59)"><tspan
         style="font-variant:normal;font-weight:normal;font-size:11px;font-family:Helvetica;writing-mode:lr-tb;fill:#000000;fill-opacity:1;fill-rule:nonzero;stroke:none"
         x="0"
         y="0"
         id="tspan58">1</tspan></text>
    <path
       id="path60"
       d="m 246,81 h 70 v 20 h -70 z"
       style="fill:#ffffff;fill-opacity:1;fill-rule:nonzero;stroke:#000000;stroke-width:1;stroke-linecap:butt;stroke-linejoin:miter;stroke-miterlimit:10;stroke-dasharray:none;stroke-opacity:1"
       transform="matrix(0.95572255,0,0,0.95572255,0.47786127,0.47786127)"
       clip-path="url(#clipPath61)" />
    <text
       id="text61"
       xml:space="preserve"
       transform="matrix(0.95573209,0,0,0.95573209,250.49141,89.838816)"
       clip-path="url(#clipPath62)"><tspan
         style="font-variant:normal;font-weight:normal;font-size:8px;font-family:Helvetica;writing-mode:lr-tb;fill:#000000;fill-opacity:1;fill-rule:nonzero;stroke:none"
         x="0 4.4492188 7.1132812 11.5625 16.011719 18.234375 20.457031 24.90625 29.355469 33.355469 35.578125"
         y="0"
         sodipodi:role="line"
         id="tspan61">great post!</tspan></text>
    <path
       id="path63"
       d="m 176,101 h 70 v 20 h -70 z"
       style="fill:#ffffff;fill-opacity:1;fill-rule:nonzero;stroke:#000000;stroke-width:1;stroke-linecap:butt;stroke-linejoin:miter;stroke-miterlimit:10;stroke-dasharray:none;stroke-opacity:1"
       transform="matrix(0.95572255,0,0,0.95572255,0.47786127,0.47786127)"
       clip-path="url(#clipPath64)" />
    <text
       id="text64"
       xml:space="preserve"
       transform="matrix(0.95573209,0,0,0.95573209,198.73254,109.90919)"
       clip-path="url(#clipPath65)"><tspan
         style="font-variant:normal;font-weight:normal;font-size:11px;font-family:Helvetica;writing-mode:lr-tb;fill:#000000;fill-opacity:1;fill-rule:nonzero;stroke:none"
         x="0"
         y="0"
         id="tspan64">2</tspan></text>
    <path
       id="path66"
       d="m 246,101 h 70 v 20 h -70 z"
       style="fill:#ffffff;fill-opacity:1;fill-rule:nonzero;stroke:#000000;stroke-width:1;stroke-linecap:butt;stroke-linejoin:miter;stroke-miterlimit:10;stroke-dasharray:none;stroke-opacity:1"
       transform="matrix(0.95572255,0,0,0.95572255,0.47786127,0.47786127)"
       clip-path="url(#clipPath67)" />
    <text
       id="text67"
       xml:space="preserve"
       transform="matrix(0.95573209,0,0,0.95573209,257.51006,108.95346)"
       clip-path="url(#clipPath68)"><tspan
         style="font-variant:normal;font-weight:normal;font-size:8px;font-family:Helvetica;writing-mode:lr-tb;fill:#000000;fill-opacity:1;fill-rule:nonzero;stroke:none"
         x="0 1.7773438 6.2265625 10.226562 14.675781 16.898438 18.675781 20.898438"
         y="0"
         sodipodi:role="line"
         id="tspan67">love it!</tspan></text>
    <path
       id="path69"
       d="m 176,121 h 70 v 20 h -70 z"
       style="fill:#ffffff;fill-opacity:1;fill-rule:nonzero;stroke:#000000;stroke-width:1;stroke-linecap:butt;stroke-linejoin:miter;stroke-miterlimit:10;stroke-dasharray:none;stroke-opacity:1"
       transform="matrix(0.95572255,0,0,0.95572255,0.47786127,0.47786127)"
       clip-path="url(#clipPath70)" />
    <text
       id="text70"
       xml:space="preserve"
       transform="matrix(0.95573209,0,0,0.95573209,198.73254,129.02383)"
       clip-path="url(#clipPath71)"><tspan
         style="font-variant:normal;font-weight:normal;font-size:11px;font-family:Helvetica;writing-mode:lr-tb;fill:#000000;fill-opacity:1;fill-rule:nonzero;stroke:none"
         x="0"
         y="0"
         id="tspan70">3</tspan></text>
    <path
       id="path72"
       d="m 246,121 h 70 v 20 h -70 z"
       style="fill:#ffffff;fill-opacity:1;fill-rule:nonzero;stroke:#000000;stroke-width:1;stroke-linecap:butt;stroke-linejoin:miter;stroke-miterlimit:10;stroke-dasharray:none;stroke-opacity:1"
       transform="matrix(0.95572255,0,0,0.95572255,0.47786127,0.47786127)"
       clip-path="url(#clipPath73)" />
    <text
       id="text73"
       xml:space="preserve"
       transform="matrix(0.95573209,0,0,0.95573209,249.43115,128.0681)"
       clip-path="url(#clipPath74)"><tspan
         style="font-variant:normal;font-weight:normal;font-size:8px;font-family:Helvetica;writing-mode:lr-tb;fill:#000000;fill-opacity:1;fill-rule:nonzero;stroke:none"
         x="0 4.4492188 6.2265625 10.226562 14.675781 16.898438 22.675781 25.339844 27.117188 29.339844 31.117188 35.566406"
         y="0"
         sodipodi:role="line"
         id="tspan73">nice writing</tspan></text>
    <path
       id="path75"
       d="m 316,51 h 70 v 30 h -70 z"
       style="fill:#dae8fc;fill-opacity:1;fill-rule:nonzero;stroke:#6c8ebf;stroke-width:1;stroke-linecap:butt;stroke-linejoin:miter;stroke-miterlimit:10;stroke-dasharray:none;stroke-opacity:1"
       transform="matrix(0.95572255,0,0,0.95572255,0.47786127,0.47786127)"
       clip-path="url(#clipPath76)" />
    <text
       id="text76"
       xml:space="preserve"
       transform="matrix(0.95573209,0,0,0.95573209,318.49772,60.211122)"
       clip-path="url(#clipPath77)"><tspan
         style="font-style:oblique;font-variant:normal;font-weight:normal;font-size:11px;font-family:Helvetica;writing-mode:lr-tb;fill:#000000;fill-opacity:1;fill-rule:nonzero;stroke:none"
         x="0 6.1176758 12.235352 17.735352 20.791504 26.90918 29.353027"
         y="0"
         sodipodi:role="line"
         id="tspan76">post_id</tspan></text>
    <text
       id="text77"
       xml:space="preserve"
       transform="matrix(0.95573209,0,0,0.95573209,317.63159,73.591371)"
       clip-path="url(#clipPath78)"><tspan
         style="font-style:oblique;font-variant:normal;font-weight:normal;font-size:11px;font-family:Helvetica;writing-mode:lr-tb;fill:#000000;fill-opacity:1;fill-rule:nonzero;stroke:none"
         x="0 6.1176758 12.235352 21.398438 27.516113 33.633789"
         y="0"
         sodipodi:role="line"
         id="tspan77">number</tspan></text>
    <path
       id="path79"
       d="m 316,81 h 70 v 20 h -70 z"
       style="fill:#ffffff;fill-opacity:1;fill-rule:nonzero;stroke:#000000;stroke-width:1;stroke-linecap:butt;stroke-linejoin:miter;stroke-miterlimit:10;stroke-dasharray:none;stroke-opacity:1"
       transform="matrix(0.95572255,0,0,0.95572255,0.47786127,0.47786127)"
       clip-path="url(#clipPath80)" />
    <text
       id="text80"
       xml:space="preserve"
       transform="matrix(0.95573209,0,0,0.95573209,333.3265,89.838816)"
       clip-path="url(#clipPath81)"><tspan
         style="font-variant:normal;font-weight:normal;font-size:8px;font-family:Helvetica;writing-mode:lr-tb;fill:#000000;fill-opacity:1;fill-rule:nonzero;stroke:none"
         x="0"
         y="0"
         id="tspan80">1</tspan></text>
    <path
       id="path82"
       d="m 316,101 h 70 v 20 h -70 z"
       style="fill:#ffffff;fill-opacity:1;fill-rule:nonzero;stroke:#000000;stroke-width:1;stroke-linecap:butt;stroke-linejoin:miter;stroke-miterlimit:10;stroke-dasharray:none;stroke-opacity:1"
       transform="matrix(0.95572255,0,0,0.95572255,0.47786127,0.47786127)"
       clip-path="url(#clipPath83)" />
    <text
       id="text83"
       xml:space="preserve"
       transform="matrix(0.95573209,0,0,0.95573209,333.3265,108.95346)"
       clip-path="url(#clipPath84)"><tspan
         style="font-variant:normal;font-weight:normal;font-size:8px;font-family:Helvetica;writing-mode:lr-tb;fill:#000000;fill-opacity:1;fill-rule:nonzero;stroke:none"
         x="0"
         y="0"
         id="tspan83">1</tspan></text>
    <path
       id="path85"
       d="m 316,121 h 70 v 20 h -70 z"
       style="fill:#ffffff;fill-opacity:1;fill-rule:nonzero;stroke:#000000;stroke-width:1;stroke-linecap:butt;stroke-linejoin:miter;stroke-miterlimit:10;stroke-dasharray:none;stroke-opacity:1"
       transform="matrix(0.95572255,0,0,0.95572255,0.47786127,0.47786127)"
       clip-path="url(#clipPath86)" />
    <text
       id="text86"
       xml:space="preserve"
       transform="matrix(0.95573209,0,0,0.95573209,333.3265,128.0681)"
       clip-path="url(#clipPath87)"><tspan
         style="font-variant:normal;font-weight:normal;font-size:8px;font-family:Helvetica;writing-mode:lr-tb;fill:#000000;fill-opacity:1;fill-rule:nonzero;stroke:none"
         x="0"
         y="0"
         id="tspan86">2</tspan></text>
  </g>
</svg>
