<?xml version="1.0" encoding="UTF-8" standalone="no"?>
<!-- Created with Inkscape (http://www.inkscape.org/) -->

<svg
   version="1.1"
   id="svg1"
   width="299.84"
   height="244.16"
   viewBox="0 0 299.84 244.16"
   sodipodi:docname="nest-8.pdf"
   xmlns:inkscape="http://www.inkscape.org/namespaces/inkscape"
   xmlns:sodipodi="http://sodipodi.sourceforge.net/DTD/sodipodi-0.dtd"
   xmlns="http://www.w3.org/2000/svg"
   xmlns:svg="http://www.w3.org/2000/svg">
  <defs
     id="defs1">
    <clipPath
       clipPathUnits="userSpaceOnUse"
       id="clipPath2">
      <path
         d="M 0,0 H 937.49994 V 761.34552 H 0 Z"
         transform="scale(0.33493334)"
         clip-rule="evenodd"
         id="path2" />
    </clipPath>
    <clipPath
       clipPathUnits="userSpaceOnUse"
       id="clipPath4">
      <path
         d="M 0,0 H 937.49994 V 758.35986 H 0 Z"
         transform="matrix(0.33493334,0,0,0.33493334,-0.5,-0.5)"
         clip-rule="evenodd"
         id="path4" />
    </clipPath>
    <clipPath
       clipPathUnits="userSpaceOnUse"
       id="clipPath6">
      <path
         d="M 0,0 H 937.49994 V 758.35986 H 0 Z"
         transform="matrix(0.33493334,0,0,0.33493334,-0.5,-0.5)"
         clip-rule="evenodd"
         id="path6" />
    </clipPath>
    <clipPath
       clipPathUnits="userSpaceOnUse"
       id="clipPath8">
      <path
         d="M 0,0 H 937.49994 V 758.35986 H 0 Z"
         transform="matrix(0.33493334,0,0,0.33493334,-0.5,-0.5)"
         clip-rule="evenodd"
         id="path8" />
    </clipPath>
    <clipPath
       clipPathUnits="userSpaceOnUse"
       id="clipPath9">
      <path
         d="M 0,0 H 937.49994 V 758.35986 H 0 Z"
         transform="matrix(0.33493,0,0,0.33493,-12.84375,-32)"
         clip-rule="evenodd"
         id="path9" />
    </clipPath>
    <clipPath
       clipPathUnits="userSpaceOnUse"
       id="clipPath10">
      <path
         d="M 0,0 H 937.49994 V 758.35986 H 0 Z"
         transform="matrix(0.33493,0,0,0.33493,-97.703125,-53)"
         clip-rule="evenodd"
         id="path10" />
    </clipPath>
    <clipPath
       clipPathUnits="userSpaceOnUse"
       id="clipPath12">
      <path
         d="M 0,0 H 937.49994 V 758.35986 H 0 Z"
         transform="matrix(0.33493334,0,0,0.33493334,-0.5,-0.5)"
         clip-rule="evenodd"
         id="path12" />
    </clipPath>
    <clipPath
       clipPathUnits="userSpaceOnUse"
       id="clipPath14">
      <path
         d="M 0,0 H 937.49994 V 758.35986 H 0 Z"
         transform="matrix(0.33493334,0,0,0.33493334,-0.5,-0.5)"
         clip-rule="evenodd"
         id="path14" />
    </clipPath>
    <clipPath
       clipPathUnits="userSpaceOnUse"
       id="clipPath16">
      <path
         d="M 0,0 H 937.49994 V 758.35986 H 0 Z"
         transform="matrix(0.33493334,0,0,0.33493334,-0.5,-0.5)"
         clip-rule="evenodd"
         id="path16" />
    </clipPath>
    <clipPath
       clipPathUnits="userSpaceOnUse"
       id="clipPath17">
      <path
         d="M 0,0 H 937.49994 V 758.35986 H 0 Z"
         transform="matrix(0.33493,0,0,0.33493,-10.75,-122)"
         clip-rule="evenodd"
         id="path17" />
    </clipPath>
    <clipPath
       clipPathUnits="userSpaceOnUse"
       id="clipPath18">
      <path
         d="M 0,0 H 937.49994 V 758.35986 H 0 Z"
         transform="matrix(0.33493,0,0,0.33493,-74.265625,-143)"
         clip-rule="evenodd"
         id="path18" />
    </clipPath>
    <clipPath
       clipPathUnits="userSpaceOnUse"
       id="clipPath20">
      <path
         d="M 0,0 H 937.49994 V 758.35986 H 0 Z"
         transform="matrix(0.33493334,0,0,0.33493334,-0.5,-0.5)"
         clip-rule="evenodd"
         id="path20" />
    </clipPath>
    <clipPath
       clipPathUnits="userSpaceOnUse"
       id="clipPath21">
      <path
         d="M 0,0 H 937.49994 V 758.35986 H 0 Z"
         transform="matrix(0.33493,0,0,0.33493,-6.390625,-212)"
         clip-rule="evenodd"
         id="path21" />
    </clipPath>
    <clipPath
       clipPathUnits="userSpaceOnUse"
       id="clipPath22">
      <path
         d="M 0,0 H 937.49994 V 758.35986 H 0 Z"
         transform="matrix(0.33493,0,0,0.33493,-118.1875,-233)"
         clip-rule="evenodd"
         id="path22" />
    </clipPath>
  </defs>
  <sodipodi:namedview
     id="namedview1"
     pagecolor="#ffffff"
     bordercolor="#000000"
     borderopacity="0.25"
     inkscape:showpageshadow="2"
     inkscape:pageopacity="0.0"
     inkscape:pagecheckerboard="0"
     inkscape:deskcolor="#d1d1d1">
    <inkscape:page
       x="0"
       y="0"
       inkscape:label="1"
       id="page1"
       width="299.84"
       height="244.16"
       margin="0"
       bleed="0" />
  </sodipodi:namedview>
  <g
     id="g1"
     inkscape:groupmode="layer"
     inkscape:label="1">
    <path
       id="path1"
       d="M 0,0 H 314 V 255 H 0 Z"
       style="fill:#ffffff;fill-opacity:1;fill-rule:nonzero;stroke:none"
       transform="scale(0.95541394)"
       clip-path="url(#clipPath2)" />
    <path
       id="path3"
       d="M 156,71 V 91 71 84.629997"
       style="fill:none;stroke:#000000;stroke-width:1;stroke-linecap:butt;stroke-linejoin:miter;stroke-miterlimit:10;stroke-dasharray:none;stroke-opacity:1"
       transform="matrix(0.95541394,0,0,0.95541394,0.47770697,0.47770697)"
       clip-path="url(#clipPath4)" />
    <path
       id="path5"
       d="m 156,89.879997 -3.5,-7 3.5,1.75 3.5,-1.75 z"
       style="fill:#000000;fill-opacity:1;fill-rule:nonzero;stroke:#000000;stroke-width:1;stroke-linecap:butt;stroke-linejoin:miter;stroke-miterlimit:10;stroke-dasharray:none;stroke-opacity:1"
       transform="matrix(0.95541394,0,0,0.95541394,0.47770697,0.47770697)"
       clip-path="url(#clipPath6)" />
    <path
       id="path7"
       d="M 1,1 H 311 V 71 H 1 Z"
       style="fill:#f8cecc;fill-opacity:1;fill-rule:nonzero;stroke:#b85450;stroke-width:1;stroke-linecap:butt;stroke-linejoin:miter;stroke-miterlimit:10;stroke-dasharray:none;stroke-opacity:1"
       transform="matrix(0.95541394,0,0,0.95541394,0.47770697,0.47770697)"
       clip-path="url(#clipPath8)" />
    <text
       id="text8"
       xml:space="preserve"
       transform="matrix(0.95542348,0,0,0.95542348,12.27122,30.573551)"
       clip-path="url(#clipPath9)"><tspan
         style="font-variant:normal;font-weight:normal;font-size:17px;font-family:Helvetica;writing-mode:lr-tb;fill:#000000;fill-opacity:1;fill-rule:nonzero;stroke:none"
         x="0 12.276855 21.731445 30.231445 34.95459 39.677734 44.400879 53.855469 66.132324 70.855469 79.355469 83.132324 92.586914 102.0415 111.49609 119.99609 124.71924 136.99609 140.77295 144.5498 148.32666 153.0498 162.50439 171.95898 176.68213 186.13672 195.59131 200.31445 209.76904 218.26904 227.72363 233.38477 241.88477 245.66162 255.11621 267.39307 272.11621 281.5708"
         y="0"
         sodipodi:role="line"
         id="tspan8">Next few videos will be an overview of</tspan></text>
    <text
       id="text9"
       xml:space="preserve"
       transform="matrix(0.95542348,0,0,0.95542348,93.34786,50.637444)"
       clip-path="url(#clipPath10)"><tspan
         style="font-variant:normal;font-weight:normal;font-size:17px;font-family:Helvetica;writing-mode:lr-tb;fill:#000000;fill-opacity:1;fill-rule:nonzero;stroke:none"
         x="0 11.338867 24.562012 33.394043 38.117188 47.571777 57.026367 61.749512 71.204102 80.658691 90.113281 98.613281 108.06787"
         y="0"
         sodipodi:role="line"
         id="tspan9">SQL databases</tspan></text>
    <path
       id="path11"
       d="m 156,161 v 20 -20 13.63"
       style="fill:none;stroke:#000000;stroke-width:1;stroke-linecap:butt;stroke-linejoin:miter;stroke-miterlimit:10;stroke-dasharray:none;stroke-opacity:1"
       transform="matrix(0.95541394,0,0,0.95541394,0.47770697,0.47770697)"
       clip-path="url(#clipPath12)" />
    <path
       id="path13"
       d="m 156,179.88 -3.5,-7 3.5,1.75 3.5,-1.75 z"
       style="fill:#000000;fill-opacity:1;fill-rule:nonzero;stroke:#000000;stroke-width:1;stroke-linecap:butt;stroke-linejoin:miter;stroke-miterlimit:10;stroke-dasharray:none;stroke-opacity:1"
       transform="matrix(0.95541394,0,0,0.95541394,0.47770697,0.47770697)"
       clip-path="url(#clipPath14)" />
    <path
       id="path15"
       d="m 1,91 h 310 v 70 H 1 Z"
       style="fill:#f5f5f5;fill-opacity:1;fill-rule:nonzero;stroke:#666666;stroke-width:1;stroke-linecap:butt;stroke-linejoin:miter;stroke-miterlimit:10;stroke-dasharray:none;stroke-opacity:1"
       transform="matrix(0.95541394,0,0,0.95541394,0.47770697,0.47770697)"
       clip-path="url(#clipPath16)" />
    <text
       id="text16"
       xml:space="preserve"
       transform="matrix(0.95542348,0,0,0.95542348,10.270802,116.56166)"
       clip-path="url(#clipPath17)"><tspan
         style="font-variant:normal;font-weight:normal;font-size:17px;font-family:Helvetica;writing-mode:lr-tb;fill:#333333;fill-opacity:1;fill-rule:nonzero;stroke:none"
         x="0 4.7231445 9.4462891 14.169434 22.669434 32.124023 41.578613 44.824219 50.485352 59.939941 64.663086 74.117676 77.894531 83.555664 93.010254 102.46484 111.91943 120.41943 125.14258 129.86572 139.32031 153.48145 157.2583 161.03516 164.81201 174.2666 179.92773 184.65088 196.92773 200.70459 205.42773 214.88232 219.60547 230.94434 244.16748 253.62207 258.34521 263.06836 267.7915 277.24609 286.70068"
         y="0"
         sodipodi:role="line"
         id="tspan16">If you're already familiar with SQL, feel</tspan></text>
    <text
       id="text17"
       xml:space="preserve"
       transform="matrix(0.95542348,0,0,0.95542348,70.955122,136.62556)"
       clip-path="url(#clipPath18)"><tspan
         style="font-variant:normal;font-weight:normal;font-size:17px;font-family:Helvetica;writing-mode:lr-tb;fill:#333333;fill-opacity:1;fill-rule:nonzero;stroke:none"
         x="0 4.7231445 10.384277 19.838867 29.293457 34.016602 38.739746 48.194336 52.91748 61.41748 69.91748 73.694336 83.148926 87.87207 97.32666 105.82666 115.28125 120.94238 125.66553 130.38867 139.84326 149.29785"
         y="0"
         sodipodi:role="line"
         id="tspan17">free to skip over them</tspan></text>
    <path
       id="path19"
       d="m 1,181 h 310 v 70 H 1 Z"
       style="fill:#f5f5f5;fill-opacity:1;fill-rule:nonzero;stroke:#666666;stroke-width:1;stroke-linecap:butt;stroke-linejoin:miter;stroke-miterlimit:10;stroke-dasharray:none;stroke-opacity:1"
       transform="matrix(0.95541394,0,0,0.95541394,0.47770697,0.47770697)"
       clip-path="url(#clipPath20)" />
    <text
       id="text20"
       xml:space="preserve"
       transform="matrix(0.95542348,0,0,0.95542348,6.1057532,202.54978)"
       clip-path="url(#clipPath21)"><tspan
         style="font-variant:normal;font-weight:normal;font-size:17px;font-family:Helvetica;writing-mode:lr-tb;fill:#333333;fill-opacity:1;fill-rule:nonzero;stroke:none"
         x="0 15.746582 25.201172 29.924316 42.201172 45.978027 49.754883 53.531738 58.254883 70.531738 76.192871 79.969727 84.692871 94.147461 98.870605 107.37061 116.8252 126.27979 135.73438 140.45752 145.18066 154.63525 164.08984 168.81299 173.53613 177.31299 182.03613 186.75928 190.53613 199.03613 203.75928 213.21387 222.66846 227.3916 232.11475 241.56934 250.06934 258.56934 268.02393 277.47852 282.20166 285.97852 295.43311"
         y="0"
         sodipodi:role="line"
         id="tspan20">We will write code, but it is not essential</tspan></text>
    <text
       id="text21"
       xml:space="preserve"
       transform="matrix(0.95542348,0,0,0.95542348,112.91911,222.61367)"
       clip-path="url(#clipPath22)"><tspan
         style="font-variant:normal;font-weight:normal;font-size:17px;font-family:Helvetica;writing-mode:lr-tb;fill:#333333;fill-opacity:1;fill-rule:nonzero;stroke:none"
         x="0 4.7231445 14.177734 18.900879 23.624023 33.078613 42.533203 47.256348 56.710938 66.165527"
         y="0"
         sodipodi:role="line"
         id="tspan21">to the app</tspan></text>
  </g>
</svg>
