<?xml version="1.0" encoding="UTF-8" standalone="no"?>
<!-- Created with Inkscape (http://www.inkscape.org/) -->

<svg
   version="1.1"
   id="svg1"
   width="434.55997"
   height="177.27998"
   viewBox="0 0 434.55997 177.27998"
   sodipodi:docname="nest-6.pdf"
   xmlns:inkscape="http://www.inkscape.org/namespaces/inkscape"
   xmlns:sodipodi="http://sodipodi.sourceforge.net/DTD/sodipodi-0.dtd"
   xmlns="http://www.w3.org/2000/svg"
   xmlns:svg="http://www.w3.org/2000/svg">
  <defs
     id="defs1">
    <clipPath
       clipPathUnits="userSpaceOnUse"
       id="clipPath2">
      <path
         d="M 0,0 H 1358.3333 V 551.72919 H 0 Z"
         transform="scale(0.33349695)"
         clip-rule="evenodd"
         id="path2" />
    </clipPath>
    <clipPath
       clipPathUnits="userSpaceOnUse"
       id="clipPath4">
      <path
         d="M 0,0 H 1358.3333 V 551.72919 H 0 Z"
         transform="matrix(0.33349695,0,0,0.33349695,-0.50000001,-0.50000001)"
         clip-rule="evenodd"
         id="path4" />
    </clipPath>
    <clipPath
       clipPathUnits="userSpaceOnUse"
       id="clipPath6">
      <path
         d="M 0,0 H 1358.3333 V 551.72919 H 0 Z"
         transform="matrix(0.33349695,0,0,0.33349695,-0.50000001,-0.50000001)"
         clip-rule="evenodd"
         id="path6" />
    </clipPath>
    <clipPath
       clipPathUnits="userSpaceOnUse"
       id="clipPath8">
      <path
         d="M 0,0 H 1358.3333 V 551.72919 H 0 Z"
         transform="matrix(0.33349695,0,0,0.33349695,-0.50000001,-0.50000001)"
         clip-rule="evenodd"
         id="path8" />
    </clipPath>
    <clipPath
       clipPathUnits="userSpaceOnUse"
       id="clipPath9">
      <path
         d="M 0,0 H 1358.3333 V 551.72919 H 0 Z"
         transform="matrix(0.3334936,0,0,0.3334936,-163.98437,-36)"
         clip-rule="evenodd"
         id="path9" />
    </clipPath>
    <clipPath
       clipPathUnits="userSpaceOnUse"
       id="clipPath11">
      <path
         d="M 0,0 H 1358.3333 V 551.72919 H 0 Z"
         transform="matrix(0.33349695,0,0,0.33349695,-0.50000001,-0.50000001)"
         clip-rule="evenodd"
         id="path11" />
    </clipPath>
    <clipPath
       clipPathUnits="userSpaceOnUse"
       id="clipPath12">
      <path
         d="M 0,0 H 1358.3333 V 551.72919 H 0 Z"
         transform="matrix(0.3334936,0,0,0.3334936,-345.53125,-36)"
         clip-rule="evenodd"
         id="path12" />
    </clipPath>
    <clipPath
       clipPathUnits="userSpaceOnUse"
       id="clipPath13">
      <path
         d="M 0,0 H 1358.3333 V 551.72919 H 0 Z"
         transform="matrix(0.3334936,0,0,0.3334936,-21.0625,-16.999999)"
         clip-rule="evenodd"
         id="path13" />
    </clipPath>
    <clipPath
       clipPathUnits="userSpaceOnUse"
       id="clipPath14">
      <path
         d="M 0,0 H 1358.3333 V 551.72919 H 0 Z"
         transform="matrix(0.3334936,0,0,0.3334936,-42.390625,-36)"
         clip-rule="evenodd"
         id="path14" />
    </clipPath>
    <clipPath
       clipPathUnits="userSpaceOnUse"
       id="clipPath15">
      <path
         d="M 0,0 H 1358.3333 V 551.72919 H 0 Z"
         transform="matrix(0.3334936,0,0,0.3334936,-78.859375,-55)"
         clip-rule="evenodd"
         id="path15" />
    </clipPath>
    <clipPath
       clipPathUnits="userSpaceOnUse"
       id="clipPath17">
      <path
         d="M 0,0 H 1358.3333 V 551.72919 H 0 Z"
         transform="matrix(0.33349695,0,0,0.33349695,-0.50000001,-0.50000001)"
         clip-rule="evenodd"
         id="path17" />
    </clipPath>
    <clipPath
       clipPathUnits="userSpaceOnUse"
       id="clipPath19">
      <path
         d="M 0,0 H 1358.3333 V 551.72919 H 0 Z"
         transform="matrix(0.33349695,0,0,0.33349695,-0.50000001,-0.50000001)"
         clip-rule="evenodd"
         id="path19" />
    </clipPath>
    <clipPath
       clipPathUnits="userSpaceOnUse"
       id="clipPath21">
      <path
         d="M 0,0 H 1358.3333 V 551.72919 H 0 Z"
         transform="matrix(0.33349695,0,0,0.33349695,-0.50000001,-0.50000001)"
         clip-rule="evenodd"
         id="path21" />
    </clipPath>
    <clipPath
       clipPathUnits="userSpaceOnUse"
       id="clipPath22">
      <path
         d="M 0,0 H 1358.3333 V 551.72919 H 0 Z"
         transform="matrix(0.3334936,0,0,0.3334936,-163.98437,-156)"
         clip-rule="evenodd"
         id="path22" />
    </clipPath>
    <clipPath
       clipPathUnits="userSpaceOnUse"
       id="clipPath24">
      <path
         d="M 0,0 H 1358.3333 V 551.72919 H 0 Z"
         transform="matrix(0.33349695,0,0,0.33349695,-0.50000001,-0.50000001)"
         clip-rule="evenodd"
         id="path24" />
    </clipPath>
    <clipPath
       clipPathUnits="userSpaceOnUse"
       id="clipPath25">
      <path
         d="M 0,0 H 1358.3333 V 551.72919 H 0 Z"
         transform="matrix(0.3334936,0,0,0.3334936,-338.42188,-156)"
         clip-rule="evenodd"
         id="path25" />
    </clipPath>
    <clipPath
       clipPathUnits="userSpaceOnUse"
       id="clipPath26">
      <path
         d="M 0,0 H 1358.3333 V 551.72919 H 0 Z"
         transform="matrix(0.3334936,0,0,0.3334936,-32.015625,-156)"
         clip-rule="evenodd"
         id="path26" />
    </clipPath>
    <clipPath
       clipPathUnits="userSpaceOnUse"
       id="clipPath28">
      <path
         d="M 0,0 H 1358.3333 V 551.72919 H 0 Z"
         transform="matrix(0.33349695,0,0,0.33349695,-0.50000001,-0.50000001)"
         clip-rule="evenodd"
         id="path28" />
    </clipPath>
  </defs>
  <sodipodi:namedview
     id="namedview1"
     pagecolor="#ffffff"
     bordercolor="#000000"
     borderopacity="0.25"
     inkscape:showpageshadow="2"
     inkscape:pageopacity="0.0"
     inkscape:pagecheckerboard="0"
     inkscape:deskcolor="#d1d1d1">
    <inkscape:page
       x="0"
       y="0"
       inkscape:label="1"
       id="page1"
       width="434.55997"
       height="177.27998"
       margin="0"
       bleed="0" />
  </sodipodi:namedview>
  <g
     id="g1"
     inkscape:groupmode="layer"
     inkscape:label="1">
    <path
       id="path1"
       d="M 0,0 H 453 V 184 H 0 Z"
       style="fill:#ffffff;fill-opacity:1;fill-rule:nonzero;stroke:none"
       transform="scale(0.95952898)"
       clip-path="url(#clipPath2)" />
    <path
       id="path3"
       d="m 260,31 h 43.64001"
       style="fill:none;stroke:#000000;stroke-width:1;stroke-linecap:butt;stroke-linejoin:miter;stroke-miterlimit:10;stroke-dasharray:none;stroke-opacity:1"
       transform="matrix(0.95952898,0,0,0.95952898,0.4797645,0.4797645)"
       clip-path="url(#clipPath4)" />
    <path
       id="path5"
       d="m 308.89001,31 -7,3.5 1.75,-3.5 -1.75,-3.5 z"
       style="fill:#000000;fill-opacity:1;fill-rule:nonzero;stroke:#000000;stroke-width:1;stroke-linecap:butt;stroke-linejoin:miter;stroke-miterlimit:10;stroke-dasharray:none;stroke-opacity:1"
       transform="matrix(0.95952898,0,0,0.95952898,0.4797645,0.4797645)"
       clip-path="url(#clipPath6)" />
    <path
       id="path7"
       d="M 140,1 H 260 V 61 H 140 Z"
       style="fill:#dae8fc;fill-opacity:1;fill-rule:nonzero;stroke:#6c8ebf;stroke-width:1;stroke-linecap:butt;stroke-linejoin:miter;stroke-miterlimit:10;stroke-dasharray:none;stroke-opacity:1"
       transform="matrix(0.95952898,0,0,0.95952898,0.4797645,0.4797645)"
       clip-path="url(#clipPath8)" />
    <text
       id="text8"
       xml:space="preserve"
       transform="matrix(0.95953862,0,0,0.95953862,157.34934,34.54339)"
       clip-path="url(#clipPath9)"><tspan
         style="font-variant:normal;font-weight:normal;font-size:16px;font-family:Helvetica;writing-mode:lr-tb;fill:#000000;fill-opacity:1;fill-rule:nonzero;stroke:none"
         x="0 8.8984375 16.898438 25.796875 34.695312 47.140625 58.695312"
         y="0"
         sodipodi:role="line"
         id="tspan8">TypeORM</tspan></text>
    <path
       id="path10"
       d="M 310,1 H 430 V 61 H 310 Z"
       style="fill:#ffffff;fill-opacity:1;fill-rule:nonzero;stroke:#000000;stroke-width:1;stroke-linecap:butt;stroke-linejoin:miter;stroke-miterlimit:10;stroke-dasharray:none;stroke-opacity:1"
       transform="matrix(0.95952898,0,0,0.95952898,0.4797645,0.4797645)"
       clip-path="url(#clipPath11)" />
    <text
       id="text11"
       xml:space="preserve"
       transform="matrix(0.95953862,0,0,0.95953862,331.55058,34.54339)"
       clip-path="url(#clipPath12)"><tspan
         style="font-variant:normal;font-weight:normal;font-size:16px;font-family:Helvetica;writing-mode:lr-tb;fill:#000000;fill-opacity:1;fill-rule:nonzero;stroke:none"
         x="0 10.671875 23.117188 32.015625 35.570312 40.015625"
         y="0"
         sodipodi:role="line"
         id="tspan11">SQLite</tspan></text>
    <text
       id="text12"
       xml:space="preserve"
       transform="matrix(0.95953862,0,0,0.95953862,20.210282,16.312156)"
       clip-path="url(#clipPath13)"><tspan
         style="font-variant:normal;font-weight:normal;font-size:16px;font-family:Helvetica;writing-mode:lr-tb;fill:#000000;fill-opacity:1;fill-rule:nonzero;stroke:none"
         x="0 9.7734375 18.671875 24 28.445312 33.773438 37.328125 46.226562 55.125 59.570312 64.015625 72.914062 81.8125 92.492188"
         y="0"
         sodipodi:role="line"
         id="tspan12">For right now,</tspan></text>
    <text
       id="text13"
       xml:space="preserve"
       transform="matrix(0.95953862,0,0,0.95953862,40.675442,34.54339)"
       clip-path="url(#clipPath14)"><tspan
         style="font-variant:normal;font-weight:normal;font-size:16px;font-family:Helvetica;writing-mode:lr-tb;fill:#000000;fill-opacity:1;fill-rule:nonzero;stroke:none"
         x="0 4.4453125 13.34375 18.671875 23.117188 32.015625 40.914062 48.914062 57.8125 62.257812 71.15625"
         y="0"
         sodipodi:role="line"
         id="tspan13">for ease of</tspan></text>
    <text
       id="text14"
       xml:space="preserve"
       transform="matrix(0.95953862,0,0,0.95953862,75.668616,52.774624)"
       clip-path="url(#clipPath15)"><tspan
         style="font-variant:normal;font-weight:normal;font-size:16px;font-family:Helvetica;writing-mode:lr-tb;fill:#000000;fill-opacity:1;fill-rule:nonzero;stroke:none"
         x="0 8 16.898438 21.34375 30.242188"
         y="0"
         sodipodi:role="line"
         id="tspan14">setup</tspan></text>
    <path
       id="path16"
       d="m 260,151 h 43.64001"
       style="fill:none;stroke:#000000;stroke-width:1;stroke-linecap:butt;stroke-linejoin:miter;stroke-miterlimit:10;stroke-dasharray:none;stroke-opacity:1"
       transform="matrix(0.95952898,0,0,0.95952898,0.4797645,0.4797645)"
       clip-path="url(#clipPath17)" />
    <path
       id="path18"
       d="m 308.89001,151 -7,3.5 1.75,-3.5 -1.75,-3.5 z"
       style="fill:#000000;fill-opacity:1;fill-rule:nonzero;stroke:#000000;stroke-width:1;stroke-linecap:butt;stroke-linejoin:miter;stroke-miterlimit:10;stroke-dasharray:none;stroke-opacity:1"
       transform="matrix(0.95952898,0,0,0.95952898,0.4797645,0.4797645)"
       clip-path="url(#clipPath19)" />
    <path
       id="path20"
       d="m 140,121 h 120 v 60 H 140 Z"
       style="fill:#dae8fc;fill-opacity:1;fill-rule:nonzero;stroke:#6c8ebf;stroke-width:1;stroke-linecap:butt;stroke-linejoin:miter;stroke-miterlimit:10;stroke-dasharray:none;stroke-opacity:1"
       transform="matrix(0.95952898,0,0,0.95952898,0.4797645,0.4797645)"
       clip-path="url(#clipPath21)" />
    <text
       id="text21"
       xml:space="preserve"
       transform="matrix(0.95953862,0,0,0.95953862,157.34934,149.68802)"
       clip-path="url(#clipPath22)"><tspan
         style="font-variant:normal;font-weight:normal;font-size:16px;font-family:Helvetica;writing-mode:lr-tb;fill:#000000;fill-opacity:1;fill-rule:nonzero;stroke:none"
         x="0 8.8984375 16.898438 25.796875 34.695312 47.140625 58.695312"
         y="0"
         sodipodi:role="line"
         id="tspan21">TypeORM</tspan></text>
    <path
       id="path23"
       d="m 310,121 h 120 v 60 H 310 Z"
       style="fill:#ffffff;fill-opacity:1;fill-rule:nonzero;stroke:#000000;stroke-width:1;stroke-linecap:butt;stroke-linejoin:miter;stroke-miterlimit:10;stroke-dasharray:none;stroke-opacity:1"
       transform="matrix(0.95952898,0,0,0.95952898,0.4797645,0.4797645)"
       clip-path="url(#clipPath24)" />
    <text
       id="text24"
       xml:space="preserve"
       transform="matrix(0.95953862,0,0,0.95953862,324.72886,149.68802)"
       clip-path="url(#clipPath25)"><tspan
         style="font-variant:normal;font-weight:normal;font-size:16px;font-family:Helvetica;writing-mode:lr-tb;fill:#000000;fill-opacity:1;fill-rule:nonzero;stroke:none"
         x="0 10.671875 19.570312 27.570312 32.015625 40.914062 46.242188 55.140625"
         y="0"
         sodipodi:role="line"
         id="tspan24">Postgres</tspan></text>
    <text
       id="text25"
       xml:space="preserve"
       transform="matrix(0.95953862,0,0,0.95953862,30.720229,149.68802)"
       clip-path="url(#clipPath26)"><tspan
         style="font-variant:normal;font-weight:normal;font-size:16px;font-family:Helvetica;writing-mode:lr-tb;fill:#000000;fill-opacity:1;fill-rule:nonzero;stroke:none"
         x="0 10.671875 18.671875 27.570312 36.46875 40.914062 49.8125 58.710938 62.265625 65.820312 72.640625 77.085938 81.53125"
         y="0"
         sodipodi:role="line"
         id="tspan25">Eventually...</tspan></text>
    <path
       id="path27"
       d="M 30,91 H 450"
       style="fill:none;stroke:#000000;stroke-width:1;stroke-linecap:butt;stroke-linejoin:miter;stroke-miterlimit:10;stroke-dasharray:none;stroke-opacity:1"
       transform="matrix(0.95952898,0,0,0.95952898,0.4797645,0.4797645)"
       clip-path="url(#clipPath28)" />
  </g>
</svg>
