<?xml version="1.0" encoding="UTF-8" standalone="no"?>
<!-- Created with Inkscape (http://www.inkscape.org/) -->

<svg
   version="1.1"
   id="svg1"
   width="492.16"
   height="128"
   viewBox="0 0 492.16 128"
   sodipodi:docname="nest-10.pdf"
   xmlns:inkscape="http://www.inkscape.org/namespaces/inkscape"
   xmlns:sodipodi="http://sodipodi.sourceforge.net/DTD/sodipodi-0.dtd"
   xmlns="http://www.w3.org/2000/svg"
   xmlns:svg="http://www.w3.org/2000/svg">
  <defs
     id="defs1">
    <clipPath
       clipPathUnits="userSpaceOnUse"
       id="clipPath2">
      <path
         d="M 0,0 H 1537.5 V 397.8356 H 0 Z"
         transform="scale(0.33430896)"
         clip-rule="evenodd"
         id="path2" />
    </clipPath>
    <clipPath
       clipPathUnits="userSpaceOnUse"
       id="clipPath4">
      <path
         d="M 0,0 H 1537.5 V 397.8356 H 0 Z"
         transform="matrix(0.33430896,0,0,0.33430896,-0.50000001,-0.50000001)"
         clip-rule="evenodd"
         id="path4" />
    </clipPath>
    <clipPath
       clipPathUnits="userSpaceOnUse"
       id="clipPath5">
      <path
         d="M 0,0 H 1537.5 V 397.8356 H 0 Z"
         transform="matrix(0.3343056,0,0,0.3343056,-55.984375,-37)"
         clip-rule="evenodd"
         id="path5" />
    </clipPath>
    <clipPath
       clipPathUnits="userSpaceOnUse"
       id="clipPath7">
      <path
         d="M 0,0 H 1537.5 V 397.8356 H 0 Z"
         transform="matrix(0.33430896,0,0,0.33430896,-0.50000001,-0.50000001)"
         clip-rule="evenodd"
         id="path7" />
    </clipPath>
    <clipPath
       clipPathUnits="userSpaceOnUse"
       id="clipPath8">
      <path
         d="M 0,0 H 1537.5 V 397.8356 H 0 Z"
         transform="matrix(0.3343056,0,0,0.3343056,-41.71875,-55.000001)"
         clip-rule="evenodd"
         id="path8" />
    </clipPath>
    <clipPath
       clipPathUnits="userSpaceOnUse"
       id="clipPath10">
      <path
         d="M 0,0 H 1537.5 V 397.8356 H 0 Z"
         transform="matrix(0.33430896,0,0,0.33430896,-0.50000001,-0.50000001)"
         clip-rule="evenodd"
         id="path10" />
    </clipPath>
    <clipPath
       clipPathUnits="userSpaceOnUse"
       id="clipPath11">
      <path
         d="M 0,0 H 1537.5 V 397.8356 H 0 Z"
         transform="matrix(0.3343056,0,0,0.3343056,-117.34376,-55.000001)"
         clip-rule="evenodd"
         id="path11" />
    </clipPath>
    <clipPath
       clipPathUnits="userSpaceOnUse"
       id="clipPath13">
      <path
         d="M 0,0 H 1537.5 V 397.8356 H 0 Z"
         transform="matrix(0.33430896,0,0,0.33430896,-0.50000001,-0.50000001)"
         clip-rule="evenodd"
         id="path13" />
    </clipPath>
    <clipPath
       clipPathUnits="userSpaceOnUse"
       id="clipPath14">
      <path
         d="M 0,0 H 1537.5 V 397.8356 H 0 Z"
         transform="matrix(0.3343056,0,0,0.3343056,-32.84375,-75)"
         clip-rule="evenodd"
         id="path14" />
    </clipPath>
    <clipPath
       clipPathUnits="userSpaceOnUse"
       id="clipPath16">
      <path
         d="M 0,0 H 1537.5 V 397.8356 H 0 Z"
         transform="matrix(0.33430896,0,0,0.33430896,-0.50000001,-0.50000001)"
         clip-rule="evenodd"
         id="path16" />
    </clipPath>
    <clipPath
       clipPathUnits="userSpaceOnUse"
       id="clipPath18">
      <path
         d="M 0,0 H 1537.5 V 397.8356 H 0 Z"
         transform="matrix(0.33430896,0,0,0.33430896,-0.50000001,-0.50000001)"
         clip-rule="evenodd"
         id="path18" />
    </clipPath>
    <clipPath
       clipPathUnits="userSpaceOnUse"
       id="clipPath20">
      <path
         d="M 0,0 H 1537.5 V 397.8356 H 0 Z"
         transform="matrix(0.33430896,0,0,0.33430896,-0.50000001,-0.50000001)"
         clip-rule="evenodd"
         id="path20" />
    </clipPath>
    <clipPath
       clipPathUnits="userSpaceOnUse"
       id="clipPath21">
      <path
         d="M 0,0 H 1537.5 V 397.8356 H 0 Z"
         transform="matrix(0.3343056,0,0,0.3343056,-122.54688,-75)"
         clip-rule="evenodd"
         id="path21" />
    </clipPath>
    <clipPath
       clipPathUnits="userSpaceOnUse"
       id="clipPath23">
      <path
         d="M 0,0 H 1537.5 V 397.8356 H 0 Z"
         transform="matrix(0.33430896,0,0,0.33430896,-0.50000001,-0.50000001)"
         clip-rule="evenodd"
         id="path23" />
    </clipPath>
    <clipPath
       clipPathUnits="userSpaceOnUse"
       id="clipPath24">
      <path
         d="M 0,0 H 1537.5 V 397.8356 H 0 Z"
         transform="matrix(0.3343056,0,0,0.3343056,-22.453125,-95)"
         clip-rule="evenodd"
         id="path24" />
    </clipPath>
    <clipPath
       clipPathUnits="userSpaceOnUse"
       id="clipPath26">
      <path
         d="M 0,0 H 1537.5 V 397.8356 H 0 Z"
         transform="matrix(0.33430896,0,0,0.33430896,-0.50000001,-0.50000001)"
         clip-rule="evenodd"
         id="path26" />
    </clipPath>
    <clipPath
       clipPathUnits="userSpaceOnUse"
       id="clipPath27">
      <path
         d="M 0,0 H 1537.5 V 397.8356 H 0 Z"
         transform="matrix(0.3343056,0,0,0.3343056,-122.54688,-95)"
         clip-rule="evenodd"
         id="path27" />
    </clipPath>
    <clipPath
       clipPathUnits="userSpaceOnUse"
       id="clipPath29">
      <path
         d="M 0,0 H 1537.5 V 397.8356 H 0 Z"
         transform="matrix(0.33430896,0,0,0.33430896,-0.50000001,-0.50000001)"
         clip-rule="evenodd"
         id="path29" />
    </clipPath>
    <clipPath
       clipPathUnits="userSpaceOnUse"
       id="clipPath31">
      <path
         d="M 0,0 H 1537.5 V 397.8356 H 0 Z"
         transform="matrix(0.33430896,0,0,0.33430896,-0.50000001,-0.50000001)"
         clip-rule="evenodd"
         id="path31" />
    </clipPath>
    <clipPath
       clipPathUnits="userSpaceOnUse"
       id="clipPath33">
      <path
         d="M 0,0 H 1537.5 V 397.8356 H 0 Z"
         transform="matrix(0.33430896,0,0,0.33430896,-0.50000001,-0.50000001)"
         clip-rule="evenodd"
         id="path33" />
    </clipPath>
    <clipPath
       clipPathUnits="userSpaceOnUse"
       id="clipPath34">
      <path
         d="M 0,0 H 1537.5 V 397.8356 H 0 Z"
         transform="matrix(0.3343056,0,0,0.3343056,-218.09375,-76)"
         clip-rule="evenodd"
         id="path34" />
    </clipPath>
    <clipPath
       clipPathUnits="userSpaceOnUse"
       id="clipPath36">
      <path
         d="M 0,0 H 1537.5 V 397.8356 H 0 Z"
         transform="matrix(0.33430896,0,0,0.33430896,-0.50000001,-0.50000001)"
         clip-rule="evenodd"
         id="path36" />
    </clipPath>
    <clipPath
       clipPathUnits="userSpaceOnUse"
       id="clipPath37">
      <path
         d="M 0,0 H 1537.5 V 397.8356 H 0 Z"
         transform="matrix(0.3343056,0,0,0.3343056,-388.89063,-17)"
         clip-rule="evenodd"
         id="path37" />
    </clipPath>
    <clipPath
       clipPathUnits="userSpaceOnUse"
       id="clipPath39">
      <path
         d="M 0,0 H 1537.5 V 397.8356 H 0 Z"
         transform="matrix(0.33430896,0,0,0.33430896,-0.50000001,-0.50000001)"
         clip-rule="evenodd"
         id="path39" />
    </clipPath>
    <clipPath
       clipPathUnits="userSpaceOnUse"
       id="clipPath41">
      <path
         d="M 0,0 H 1537.5 V 397.8356 H 0 Z"
         transform="matrix(0.33430896,0,0,0.33430896,-0.50000001,-0.50000001)"
         clip-rule="evenodd"
         id="path41" />
    </clipPath>
    <clipPath
       clipPathUnits="userSpaceOnUse"
       id="clipPath42">
      <path
         d="M 0,0 H 1537.5 V 397.8356 H 0 Z"
         transform="matrix(0.3343056,0,0,0.3343056,-380.5625,-57.000001)"
         clip-rule="evenodd"
         id="path42" />
    </clipPath>
    <clipPath
       clipPathUnits="userSpaceOnUse"
       id="clipPath43">
      <path
         d="M 0,0 H 1537.5 V 397.8356 H 0 Z"
         transform="matrix(0.3343056,0,0,0.3343056,-203,-108)"
         clip-rule="evenodd"
         id="path43" />
    </clipPath>
    <clipPath
       clipPathUnits="userSpaceOnUse"
       id="clipPath44">
      <path
         d="M 0,0 H 1537.5 V 397.8356 H 0 Z"
         transform="matrix(0.3343056,0,0,0.3343056,-223.17188,-122.00001)"
         clip-rule="evenodd"
         id="path44" />
    </clipPath>
  </defs>
  <sodipodi:namedview
     id="namedview1"
     pagecolor="#ffffff"
     bordercolor="#000000"
     borderopacity="0.25"
     inkscape:showpageshadow="2"
     inkscape:pageopacity="0.0"
     inkscape:pagecheckerboard="0"
     inkscape:deskcolor="#d1d1d1">
    <inkscape:page
       x="0"
       y="0"
       inkscape:label="1"
       id="page1"
       width="492.16"
       height="128"
       margin="0"
       bleed="0" />
  </sodipodi:namedview>
  <g
     id="g1"
     inkscape:groupmode="layer"
     inkscape:label="1">
    <path
       id="path1"
       d="M 0,0 H 514 V 133 H 0 Z"
       style="fill:#ffffff;fill-opacity:1;fill-rule:nonzero;stroke:none"
       transform="scale(0.95719836)"
       clip-path="url(#clipPath2)" />
    <path
       id="path3"
       d="M 1,21 H 181 V 41 H 1 Z"
       style="fill:#d5e8d4;fill-opacity:1;fill-rule:nonzero;stroke:#82b366;stroke-width:1;stroke-linecap:butt;stroke-linejoin:miter;stroke-miterlimit:10;stroke-dasharray:none;stroke-opacity:1"
       transform="matrix(0.95719836,0,0,0.95719836,0.47859919,0.47859919)"
       clip-path="url(#clipPath4)" />
    <text
       id="text4"
       xml:space="preserve"
       transform="matrix(0.95720799,0,0,0.95720799,53.588691,35.416696)"
       clip-path="url(#clipPath5)"><tspan
         style="font-variant:normal;font-weight:normal;font-size:15px;font-family:Helvetica;writing-mode:lr-tb;fill:#000000;fill-opacity:1;fill-rule:nonzero;stroke:none"
         x="0 7.5 10.83252 19.174805 26.674805 34.174805 38.342285 49.174805 56.674805 65.01709"
         y="0"
         sodipodi:role="line"
         id="tspan4">class User</tspan></text>
    <path
       id="path6"
       d="M 1,41 H 91 V 61 H 1 Z"
       style="fill:#f5f5f5;fill-opacity:1;fill-rule:nonzero;stroke:#666666;stroke-width:1;stroke-linecap:butt;stroke-linejoin:miter;stroke-miterlimit:10;stroke-dasharray:none;stroke-opacity:1"
       transform="matrix(0.95719836,0,0,0.95719836,0.47859919,0.47859919)"
       clip-path="url(#clipPath7)" />
    <text
       id="text7"
       xml:space="preserve"
       transform="matrix(0.95720799,0,0,0.95720799,39.933521,52.64644)"
       clip-path="url(#clipPath8)"><tspan
         style="font-variant:normal;font-weight:normal;font-size:11px;font-family:Helvetica;writing-mode:lr-tb;fill:#333333;fill-opacity:1;fill-rule:nonzero;stroke:none"
         x="0 2.4438477"
         y="0"
         sodipodi:role="line"
         id="tspan7">id</tspan></text>
    <path
       id="path9"
       d="m 91,41 h 90 V 61 H 91 Z"
       style="fill:#f5f5f5;fill-opacity:1;fill-rule:nonzero;stroke:#666666;stroke-width:1;stroke-linecap:butt;stroke-linejoin:miter;stroke-miterlimit:10;stroke-dasharray:none;stroke-opacity:1"
       transform="matrix(0.95719836,0,0,0.95719836,0.47859919,0.47859919)"
       clip-path="url(#clipPath10)" />
    <text
       id="text10"
       xml:space="preserve"
       transform="matrix(0.95720799,0,0,0.95720799,112.32238,52.64644)"
       clip-path="url(#clipPath11)"><tspan
         style="font-variant:normal;font-weight:normal;font-size:11px;font-family:Helvetica;writing-mode:lr-tb;fill:#333333;fill-opacity:1;fill-rule:nonzero;stroke:none"
         x="0 6.1176758 12.235352 21.398438 27.516113 33.633789"
         y="0"
         sodipodi:role="line"
         id="tspan10">number</tspan></text>
    <path
       id="path12"
       d="M 1,61 H 91 V 81 H 1 Z"
       style="fill:#f5f5f5;fill-opacity:1;fill-rule:nonzero;stroke:#666666;stroke-width:1;stroke-linecap:butt;stroke-linejoin:miter;stroke-miterlimit:10;stroke-dasharray:none;stroke-opacity:1"
       transform="matrix(0.95719836,0,0,0.95719836,0.47859919,0.47859919)"
       clip-path="url(#clipPath13)" />
    <text
       id="text13"
       xml:space="preserve"
       transform="matrix(0.95720799,0,0,0.95720799,31.4383,71.790599)"
       clip-path="url(#clipPath14)"><tspan
         style="font-variant:normal;font-weight:normal;font-size:11px;font-family:Helvetica;writing-mode:lr-tb;fill:#333333;fill-opacity:1;fill-rule:nonzero;stroke:none"
         x="0 6.1176758 15.280762 21.398438 23.842285"
         y="0"
         sodipodi:role="line"
         id="tspan13">email</tspan></text>
    <path
       id="path15"
       d="m 181,71 h 20 -10 13.63"
       style="fill:none;stroke:#000000;stroke-width:1;stroke-linecap:butt;stroke-linejoin:miter;stroke-miterlimit:10;stroke-dasharray:none;stroke-opacity:1"
       transform="matrix(0.95719836,0,0,0.95719836,0.47859919,0.47859919)"
       clip-path="url(#clipPath16)" />
    <path
       id="path17"
       d="m 209.88,71 -7,3.5 1.75,-3.5 -1.75,-3.5 z"
       style="fill:#000000;fill-opacity:1;fill-rule:nonzero;stroke:#000000;stroke-width:1;stroke-linecap:butt;stroke-linejoin:miter;stroke-miterlimit:10;stroke-dasharray:none;stroke-opacity:1"
       transform="matrix(0.95719836,0,0,0.95719836,0.47859919,0.47859919)"
       clip-path="url(#clipPath18)" />
    <path
       id="path19"
       d="m 91,61 h 90 V 81 H 91 Z"
       style="fill:#f5f5f5;fill-opacity:1;fill-rule:nonzero;stroke:#666666;stroke-width:1;stroke-linecap:butt;stroke-linejoin:miter;stroke-miterlimit:10;stroke-dasharray:none;stroke-opacity:1"
       transform="matrix(0.95719836,0,0,0.95719836,0.47859919,0.47859919)"
       clip-path="url(#clipPath20)" />
    <text
       id="text20"
       xml:space="preserve"
       transform="matrix(0.95720799,0,0,0.95720799,117.30285,71.790599)"
       clip-path="url(#clipPath21)"><tspan
         style="font-variant:normal;font-weight:normal;font-size:11px;font-family:Helvetica;writing-mode:lr-tb;fill:#333333;fill-opacity:1;fill-rule:nonzero;stroke:none"
         x="0 5.5 8.5561523 12.219238 14.663086 20.780762"
         y="0"
         sodipodi:role="line"
         id="tspan20">string</tspan></text>
    <path
       id="path22"
       d="m 1,81 h 90 v 20 H 1 Z"
       style="fill:#f5f5f5;fill-opacity:1;fill-rule:nonzero;stroke:#666666;stroke-width:1;stroke-linecap:butt;stroke-linejoin:miter;stroke-miterlimit:10;stroke-dasharray:none;stroke-opacity:1"
       transform="matrix(0.95719836,0,0,0.95719836,0.47859919,0.47859919)"
       clip-path="url(#clipPath23)" />
    <text
       id="text23"
       xml:space="preserve"
       transform="matrix(0.95720799,0,0,0.95720799,21.492311,90.934759)"
       clip-path="url(#clipPath24)"><tspan
         style="font-variant:normal;font-weight:normal;font-size:11px;font-family:Helvetica;writing-mode:lr-tb;fill:#333333;fill-opacity:1;fill-rule:nonzero;stroke:none"
         x="0 6.1176758 12.235352 17.735352 23.235352 31.179199 37.296875 40.959961"
         y="0"
         sodipodi:role="line"
         id="tspan23">password</tspan></text>
    <path
       id="path25"
       d="m 91,81 h 90 v 20 H 91 Z"
       style="fill:#f5f5f5;fill-opacity:1;fill-rule:nonzero;stroke:#666666;stroke-width:1;stroke-linecap:butt;stroke-linejoin:miter;stroke-miterlimit:10;stroke-dasharray:none;stroke-opacity:1"
       transform="matrix(0.95719836,0,0,0.95719836,0.47859919,0.47859919)"
       clip-path="url(#clipPath26)" />
    <text
       id="text26"
       xml:space="preserve"
       transform="matrix(0.95720799,0,0,0.95720799,117.30285,90.934759)"
       clip-path="url(#clipPath27)"><tspan
         style="font-variant:normal;font-weight:normal;font-size:11px;font-family:Helvetica;writing-mode:lr-tb;fill:#333333;fill-opacity:1;fill-rule:nonzero;stroke:none"
         x="0 5.5 8.5561523 12.219238 14.663086 20.780762"
         y="0"
         sodipodi:role="line"
         id="tspan26">string</tspan></text>
    <path
       id="path28"
       d="m 291,71 h 33.64001"
       style="fill:none;stroke:#000000;stroke-width:1;stroke-linecap:butt;stroke-linejoin:miter;stroke-miterlimit:10;stroke-dasharray:none;stroke-opacity:1"
       transform="matrix(0.95719836,0,0,0.95719836,0.47859919,0.47859919)"
       clip-path="url(#clipPath29)" />
    <path
       id="path30"
       d="m 329.89001,71 -7,3.5 1.75,-3.5 -1.75,-3.5 z"
       style="fill:#000000;fill-opacity:1;fill-rule:nonzero;stroke:#000000;stroke-width:1;stroke-linecap:butt;stroke-linejoin:miter;stroke-miterlimit:10;stroke-dasharray:none;stroke-opacity:1"
       transform="matrix(0.95719836,0,0,0.95719836,0.47859919,0.47859919)"
       clip-path="url(#clipPath31)" />
    <path
       id="path32"
       d="m 211,51 h 80 v 40 h -80 z"
       style="fill:#dae8fc;fill-opacity:1;fill-rule:nonzero;stroke:#6c8ebf;stroke-width:1;stroke-linecap:butt;stroke-linejoin:miter;stroke-miterlimit:10;stroke-dasharray:none;stroke-opacity:1"
       transform="matrix(0.95719836,0,0,0.95719836,0.47859919,0.47859919)"
       clip-path="url(#clipPath33)" />
    <text
       id="text33"
       xml:space="preserve"
       transform="matrix(0.95720799,0,0,0.95720799,208.76108,72.747807)"
       clip-path="url(#clipPath34)"><tspan
         style="font-variant:normal;font-weight:normal;font-size:16px;font-family:Helvetica;writing-mode:lr-tb;fill:#000000;fill-opacity:1;fill-rule:nonzero;stroke:none"
         x="0 8.8984375 16.898438 25.796875 34.695312 47.140625 52.46875"
         y="0"
         sodipodi:role="line"
         id="tspan33">TypeOrm</tspan></text>
    <path
       id="path35"
       d="M 331,1 H 511 V 21 H 331 Z"
       style="fill:#e1d5e7;fill-opacity:1;fill-rule:nonzero;stroke:#9673a6;stroke-width:1;stroke-linecap:butt;stroke-linejoin:miter;stroke-miterlimit:10;stroke-dasharray:none;stroke-opacity:1"
       transform="matrix(0.95719836,0,0,0.95719836,0.47859919,0.47859919)"
       clip-path="url(#clipPath36)" />
    <text
       id="text36"
       xml:space="preserve"
       transform="matrix(0.95720799,0,0,0.95720799,372.24922,16.272536)"
       clip-path="url(#clipPath37)"><tspan
         style="font-variant:normal;font-weight:normal;font-size:15px;font-family:Helvetica;writing-mode:lr-tb;fill:#000000;fill-opacity:1;fill-rule:nonzero;stroke:none"
         x="0 10.83252 19.174805 23.342285 31.68457 40.026855 48.369141 55.869141"
         y="0"
         sodipodi:role="line"
         id="tspan36">Database</tspan></text>
    <path
       id="path38"
       d="M 331,21 H 511 V 121 H 331 Z"
       style="fill:#e1d5e7;fill-opacity:1;fill-rule:nonzero;stroke:#9673a6;stroke-width:1;stroke-linecap:butt;stroke-linejoin:miter;stroke-miterlimit:10;stroke-dasharray:none;stroke-opacity:1"
       transform="matrix(0.95719836,0,0,0.95719836,0.47859919,0.47859919)"
       clip-path="url(#clipPath39)" />
    <path
       id="path40"
       d="M 346,41 H 496 V 61 H 346 Z"
       style="fill:#d5e8d4;fill-opacity:1;fill-rule:nonzero;stroke:#82b366;stroke-width:1;stroke-linecap:butt;stroke-linejoin:miter;stroke-miterlimit:10;stroke-dasharray:none;stroke-opacity:1"
       transform="matrix(0.95719836,0,0,0.95719836,0.47859919,0.47859919)"
       clip-path="url(#clipPath41)" />
    <text
       id="text41"
       xml:space="preserve"
       transform="matrix(0.95720799,0,0,0.95720799,364.27747,54.560856)"
       clip-path="url(#clipPath42)"><tspan
         style="font-style:oblique;font-variant:normal;font-weight:normal;font-size:15px;font-family:Helvetica;writing-mode:lr-tb;fill:#000000;fill-opacity:1;fill-rule:nonzero;stroke:none"
         x="0 8.3422852 11.674805 19.174805 23.342285 27.509766 35.852051 40.019531 44.187012 52.529297 60.029297 68.371582 73.366699"
         y="0"
         sodipodi:role="line"
         id="tspan41">List of users</tspan></text>
    <text
       id="text42"
       xml:space="preserve"
       transform="matrix(0.95720799,0,0,0.95720799,194.31322,103.37846)"
       clip-path="url(#clipPath43)"><tspan
         style="font-style:oblique;font-variant:normal;font-weight:normal;font-size:11px;font-family:Helvetica;writing-mode:lr-tb;fill:#000000;fill-opacity:1;fill-rule:nonzero;stroke:none"
         x="0 7.9438477 14.061523 20.179199 26.296875 31.796875 34.853027 37.296875 43.414551 46.470703 52.588379 55.644531 58.700684 62.36377 68.481445 77.644531 80.700684 83.756836 89.874512"
         y="0"
         sodipodi:role="line"
         id="tspan42">Reads info from the</tspan></text>
    <text
       id="text43"
       xml:space="preserve"
       transform="matrix(0.95720799,0,0,0.95720799,213.62191,116.77938)"
       clip-path="url(#clipPath44)"><tspan
         style="font-style:oblique;font-variant:normal;font-weight:normal;font-size:11px;font-family:Helvetica;writing-mode:lr-tb;fill:#000000;fill-opacity:1;fill-rule:nonzero;stroke:none"
         x="0 7.3369141 13.45459 16.510742 18.95459 22.010742 27.510742 30.566895 36.066895 38.510742 44.628418 50.128418"
         y="0"
         sodipodi:role="line"
         id="tspan43">Entity class</tspan></text>
  </g>
</svg>
