<?xml version="1.0" encoding="UTF-8" standalone="no"?>
<!-- Created with Inkscape (http://www.inkscape.org/) -->

<svg
   version="1.1"
   id="svg1"
   width="366.72"
   height="234.56"
   viewBox="0 0 366.72 234.56"
   sodipodi:docname="nest-1.pdf"
   xmlns:inkscape="http://www.inkscape.org/namespaces/inkscape"
   xmlns:sodipodi="http://sodipodi.sourceforge.net/DTD/sodipodi-0.dtd"
   xmlns="http://www.w3.org/2000/svg"
   xmlns:svg="http://www.w3.org/2000/svg">
  <defs
     id="defs1">
    <clipPath
       clipPathUnits="userSpaceOnUse"
       id="clipPath2">
      <path
         d="M 0,0 H 1145.8333 V 731.06549 H 0 Z"
         transform="scale(0.33512729)"
         clip-rule="evenodd"
         id="path2" />
    </clipPath>
    <clipPath
       clipPathUnits="userSpaceOnUse"
       id="clipPath4">
      <path
         d="M 0,0 H 1145.8333 V 728.08154 H 0 Z"
         transform="matrix(0.33512729,0,0,0.33512729,-0.5,-0.5)"
         clip-rule="evenodd"
         id="path4" />
    </clipPath>
    <clipPath
       clipPathUnits="userSpaceOnUse"
       id="clipPath5">
      <path
         d="M 0,0 H 1145.8333 V 728.08154 H 0 Z"
         transform="matrix(0.33512395,0,0,0.33512395,-86.34375,-28)"
         clip-rule="evenodd"
         id="path5" />
    </clipPath>
    <clipPath
       clipPathUnits="userSpaceOnUse"
       id="clipPath7">
      <path
         d="M 0,0 H 1145.8333 V 728.08154 H 0 Z"
         transform="matrix(0.33512729,0,0,0.33512729,-0.5,-0.5)"
         clip-rule="evenodd"
         id="path7" />
    </clipPath>
    <clipPath
       clipPathUnits="userSpaceOnUse"
       id="clipPath8">
      <path
         d="M 0,0 H 1145.8333 V 728.08154 H 0 Z"
         transform="matrix(0.33512395,0,0,0.33512395,-60.140625,-77.000001)"
         clip-rule="evenodd"
         id="path8" />
    </clipPath>
    <clipPath
       clipPathUnits="userSpaceOnUse"
       id="clipPath10">
      <path
         d="M 0,0 H 1145.8333 V 728.08154 H 0 Z"
         transform="matrix(0.33512729,0,0,0.33512729,-0.5,-0.5)"
         clip-rule="evenodd"
         id="path10" />
    </clipPath>
    <clipPath
       clipPathUnits="userSpaceOnUse"
       id="clipPath11">
      <path
         d="M 0,0 H 1145.8333 V 728.08154 H 0 Z"
         transform="matrix(0.33512395,0,0,0.33512395,-13.375,-117)"
         clip-rule="evenodd"
         id="path11" />
    </clipPath>
    <clipPath
       clipPathUnits="userSpaceOnUse"
       id="clipPath12">
      <path
         d="M 0,0 H 1145.8333 V 728.08154 H 0 Z"
         transform="matrix(0.33512395,0,0,0.33512395,-19.015625,-138)"
         clip-rule="evenodd"
         id="path12" />
    </clipPath>
    <clipPath
       clipPathUnits="userSpaceOnUse"
       id="clipPath14">
      <path
         d="M 0,0 H 1145.8333 V 728.08154 H 0 Z"
         transform="matrix(0.33512729,0,0,0.33512729,-0.5,-0.5)"
         clip-rule="evenodd"
         id="path14" />
    </clipPath>
    <clipPath
       clipPathUnits="userSpaceOnUse"
       id="clipPath15">
      <path
         d="M 0,0 H 1145.8333 V 728.08154 H 0 Z"
         transform="matrix(0.33512395,0,0,0.33512395,-7.21875,-177)"
         clip-rule="evenodd"
         id="path15" />
    </clipPath>
    <clipPath
       clipPathUnits="userSpaceOnUse"
       id="clipPath17">
      <path
         d="M 0,0 H 1145.8333 V 728.08154 H 0 Z"
         transform="matrix(0.33512729,0,0,0.33512729,-0.5,-0.5)"
         clip-rule="evenodd"
         id="path17" />
    </clipPath>
    <clipPath
       clipPathUnits="userSpaceOnUse"
       id="clipPath18">
      <path
         d="M 0,0 H 1145.8333 V 728.08154 H 0 Z"
         transform="matrix(0.33512395,0,0,0.33512395,-43.09375,-227.00001)"
         clip-rule="evenodd"
         id="path18" />
    </clipPath>
  </defs>
  <sodipodi:namedview
     id="namedview1"
     pagecolor="#ffffff"
     bordercolor="#000000"
     borderopacity="0.25"
     inkscape:showpageshadow="2"
     inkscape:pageopacity="0.0"
     inkscape:pagecheckerboard="0"
     inkscape:deskcolor="#d1d1d1">
    <inkscape:page
       x="0"
       y="0"
       inkscape:label="1"
       id="page1"
       width="366.72"
       height="234.56"
       margin="0"
       bleed="0" />
  </sodipodi:namedview>
  <g
     id="g1"
     inkscape:groupmode="layer"
     inkscape:label="1">
    <path
       id="path1"
       d="M 0,0 H 384 V 245 H 0 Z"
       style="fill:#ffffff;fill-opacity:1;fill-rule:nonzero;stroke:none"
       transform="scale(0.95486102)"
       clip-path="url(#clipPath2)" />
    <path
       id="path3"
       d="M 1,1 H 381 V 41 H 1 Z"
       style="fill:#dae8fc;fill-opacity:1;fill-rule:nonzero;stroke:#6c8ebf;stroke-width:1;stroke-linecap:butt;stroke-linejoin:miter;stroke-miterlimit:10;stroke-dasharray:none;stroke-opacity:1"
       transform="matrix(0.95486102,0,0,0.95486102,0.47743051,0.47743051)"
       clip-path="url(#clipPath4)" />
    <text
       id="text4"
       xml:space="preserve"
       transform="matrix(0.95487055,0,0,0.95487055,82.447104,26.736375)"
       clip-path="url(#clipPath5)"><tspan
         style="font-variant:normal;font-weight:700;font-size:21px;font-family:Helvetica;writing-mode:lr-tb;fill:#000000;fill-opacity:1;fill-rule:nonzero;stroke:none"
         x="0 15.165527 26.844727 38.523926 51.351562 57.186035 72.351562 84.030762 92.203125 98.037598 112.04443 120.2168 126.05127 137.73047 143.56494 156.39258 169.22021 174.28564 189.45117 203.45801"
         y="0"
         sodipodi:role="line"
         id="tspan4">Used Car Pricing API</tspan></text>
    <path
       id="path6"
       d="M 1,51 H 381 V 91 H 1 Z"
       style="fill:#ffffff;fill-opacity:1;fill-rule:nonzero;stroke:#000000;stroke-width:1;stroke-linecap:butt;stroke-linejoin:miter;stroke-miterlimit:10;stroke-dasharray:none;stroke-opacity:1"
       transform="matrix(0.95486102,0,0,0.95486102,0.47743051,0.47743051)"
       clip-path="url(#clipPath7)" />
    <text
       id="text7"
       xml:space="preserve"
       transform="matrix(0.95487055,0,0,0.95487055,57.426512,73.525033)"
       clip-path="url(#clipPath8)"><tspan
         style="font-variant:normal;font-weight:normal;font-size:17px;font-family:Helvetica;writing-mode:lr-tb;fill:#000000;fill-opacity:1;fill-rule:nonzero;stroke:none"
         x="0 12.276855 20.776855 30.231445 35.892578 44.392578 49.115723 57.615723 61.392578 70.847168 80.301758 85.024902 94.479492 103.93408 108.65723 120.93408 124.71094 129.43408 138.88867 143.61182 153.06641 167.22754 176.68213 180.45898 184.23584 188.95898 198.41357 207.86816 216.36816 224.86816 237.14502 246.59961 252.26074"
         y="0"
         sodipodi:role="line"
         id="tspan7">Users sign up with email/password</tspan></text>
    <path
       id="path9"
       d="m 1,101 h 380 v 40 H 1 Z"
       style="fill:#ffffff;fill-opacity:1;fill-rule:nonzero;stroke:#000000;stroke-width:1;stroke-linecap:butt;stroke-linejoin:miter;stroke-miterlimit:10;stroke-dasharray:none;stroke-opacity:1"
       transform="matrix(0.95486102,0,0,0.95486102,0.47743051,0.47743051)"
       clip-path="url(#clipPath10)" />
    <text
       id="text10"
       xml:space="preserve"
       transform="matrix(0.95487055,0,0,0.95487055,12.771394,111.71985)"
       clip-path="url(#clipPath11)"><tspan
         style="font-variant:normal;font-weight:normal;font-size:17px;font-family:Helvetica;writing-mode:lr-tb;fill:#000000;fill-opacity:1;fill-rule:nonzero;stroke:none"
         x="0 12.276855 20.776855 30.231445 35.892578 44.392578 49.115723 58.570312 68.024902 72.748047 77.471191 86.925781 96.380371 101.10352 110.55811 119.05811 123.78125 127.55811 141.71924 151.17383 155.89697 165.35156 170.07471 174.79785 184.25244 189.91357 194.63672 204.09131 213.5459 225.82275 230.5459 244.70703 254.16162 262.66162 272.11621 276.83936 281.5625 291.01709 300.47168 304.24854 309.90967 314.63281 323.13281 332.5874 338.24854 342.97168 346.74854"
         y="0"
         sodipodi:role="line"
         id="tspan10">Users get an estimate for how much their car is</tspan></text>
    <text
       id="text11"
       xml:space="preserve"
       transform="matrix(0.95487055,0,0,0.95487055,18.15746,131.77214)"
       clip-path="url(#clipPath12)"><tspan
         style="font-variant:normal;font-weight:normal;font-size:17px;font-family:Helvetica;writing-mode:lr-tb;fill:#000000;fill-opacity:1;fill-rule:nonzero;stroke:none"
         x="0 12.276855 21.731445 27.392578 32.115723 41.570312 46.293457 55.748047 65.202637 73.702637 83.157227 92.611816 97.334961 106.78955 116.24414 120.96729 125.69043 135.14502 144.59961 149.32275 163.48389 172.93848 181.43848 190.89307 195.61621 209.77734 219.23193 228.68652 238.14111 241.91797 246.64111 255.14111 264.5957 274.05029 279.71143 284.43457 298.5957 302.37256 306.14941 315.604 325.05859 334.51318"
         y="0"
         sodipodi:role="line"
         id="tspan11">worth based on the make/model/year/mileage</tspan></text>
    <path
       id="path13"
       d="m 1,151 h 380 v 40 H 1 Z"
       style="fill:#ffffff;fill-opacity:1;fill-rule:nonzero;stroke:#000000;stroke-width:1;stroke-linecap:butt;stroke-linejoin:miter;stroke-miterlimit:10;stroke-dasharray:none;stroke-opacity:1"
       transform="matrix(0.95486102,0,0,0.95486102,0.47743051,0.47743051)"
       clip-path="url(#clipPath14)" />
    <text
       id="text14"
       xml:space="preserve"
       transform="matrix(0.95487055,0,0,0.95487055,6.8929718,169.01209)"
       clip-path="url(#clipPath15)"><tspan
         style="font-variant:normal;font-weight:normal;font-size:17px;font-family:Helvetica;writing-mode:lr-tb;fill:#000000;fill-opacity:1;fill-rule:nonzero;stroke:none"
         x="0 12.276855 20.776855 30.231445 35.892578 44.392578 49.115723 57.615723 67.070312 76.524902 81.248047 86.90918 96.36377 105.81836 115.27295 120.93408 125.65723 130.38037 142.65723 152.11182 161.56641 166.28955 171.0127 175.73584 185.19043 194.64502 203.14502 207.86816 216.36816 225.82275 229.59961 239.0542 243.77734 248.50049 257.95508 267.40967 271.18652 276.84766 281.5708 290.0708 299.52539 308.97998 312.75684 321.25684 325.03369 334.48828 342.98828 347.71143 352.43457 361.88916"
         y="0"
         sodipodi:role="line"
         id="tspan14">Users can report what they sold their vehicles for</tspan></text>
    <path
       id="path16"
       d="m 1,201 h 380 v 40 H 1 Z"
       style="fill:#ffffff;fill-opacity:1;fill-rule:nonzero;stroke:#000000;stroke-width:1;stroke-linecap:butt;stroke-linejoin:miter;stroke-miterlimit:10;stroke-dasharray:none;stroke-opacity:1"
       transform="matrix(0.95486102,0,0,0.95486102,0.47743051,0.47743051)"
       clip-path="url(#clipPath17)" />
    <text
       id="text17"
       xml:space="preserve"
       transform="matrix(0.95487055,0,0,0.95487055,41.148953,216.75562)"
       clip-path="url(#clipPath18)"><tspan
         style="font-variant:normal;font-weight:normal;font-size:17px;font-family:Helvetica;writing-mode:lr-tb;fill:#000000;fill-opacity:1;fill-rule:nonzero;stroke:none"
         x="0 11.338867 20.793457 34.95459 38.731445 48.186035 56.686035 61.40918 70.86377 80.318359 88.818359 98.272949 102.99609 107.71924 117.17383 121.89697 131.35156 140.80615 150.26074 155.92188 165.37646 173.87646 183.33105 188.0542 193.71533 203.16992 212.62451 222.0791 227.74023 232.46338 241.91797 251.37256 256.0957 264.5957 274.05029 277.82715 287.28174"
         y="0"
         sodipodi:role="line"
         id="tspan17">Admins have to approve reported sales</tspan></text>
  </g>
</svg>
