<?xml version="1.0" encoding="UTF-8" standalone="no"?>
<!-- Created with Inkscape (http://www.inkscape.org/) -->

<svg
   version="1.1"
   id="svg1"
   width="453.44"
   height="62.719997"
   viewBox="0 0 453.44 62.719997"
   sodipodi:docname="nest-21.pdf"
   xmlns:inkscape="http://www.inkscape.org/namespaces/inkscape"
   xmlns:sodipodi="http://sodipodi.sourceforge.net/DTD/sodipodi-0.dtd"
   xmlns="http://www.w3.org/2000/svg"
   xmlns:svg="http://www.w3.org/2000/svg">
  <defs
     id="defs1">
    <clipPath
       clipPathUnits="userSpaceOnUse"
       id="clipPath2">
      <path
         d="M 0,0 H 1416.6666 V 194.26863 H 0 Z"
         transform="scale(0.33458825)"
         clip-rule="evenodd"
         id="path2" />
    </clipPath>
    <clipPath
       clipPathUnits="userSpaceOnUse"
       id="clipPath4">
      <path
         d="M 0,0 H 1416.6666 V 191.27988 H 0 Z"
         transform="matrix(0.33458825,0,0,0.33458825,-0.49999999,-0.49999999)"
         clip-rule="evenodd"
         id="path4" />
    </clipPath>
    <clipPath
       clipPathUnits="userSpaceOnUse"
       id="clipPath5">
      <path
         d="M 0,0 H 1416.6666 V 191.27988 H 0 Z"
         transform="matrix(0.33458489,0,0,0.33458489,-21.125,-27)"
         clip-rule="evenodd"
         id="path5" />
    </clipPath>
    <clipPath
       clipPathUnits="userSpaceOnUse"
       id="clipPath6">
      <path
         d="M 0,0 H 1416.6666 V 191.27988 H 0 Z"
         transform="matrix(0.33458489,0,0,0.33458489,-13.46875,-49)"
         clip-rule="evenodd"
         id="path6" />
    </clipPath>
    <clipPath
       clipPathUnits="userSpaceOnUse"
       id="clipPath8">
      <path
         d="M 0,0 H 1416.6666 V 191.27988 H 0 Z"
         transform="matrix(0.33458825,0,0,0.33458825,-0.49999999,-0.49999999)"
         clip-rule="evenodd"
         id="path8" />
    </clipPath>
    <clipPath
       clipPathUnits="userSpaceOnUse"
       id="clipPath9">
      <path
         d="M 0,0 H 1416.6666 V 191.27988 H 0 Z"
         transform="matrix(0.33458489,0,0,0.33458489,-157.60938,-27)"
         clip-rule="evenodd"
         id="path9" />
    </clipPath>
    <clipPath
       clipPathUnits="userSpaceOnUse"
       id="clipPath10">
      <path
         d="M 0,0 H 1416.6666 V 191.27988 H 0 Z"
         transform="matrix(0.33458489,0,0,0.33458489,-180.48438,-49)"
         clip-rule="evenodd"
         id="path10" />
    </clipPath>
    <clipPath
       clipPathUnits="userSpaceOnUse"
       id="clipPath11">
      <path
         d="M 0,0 H 1416.6666 V 191.27988 H 0 Z"
         transform="matrix(0.33458489,0,0,0.33458489,-130.98438,-38)"
         clip-rule="evenodd"
         id="path11" />
    </clipPath>
    <clipPath
       clipPathUnits="userSpaceOnUse"
       id="clipPath12">
      <path
         d="M 0,0 H 1416.6666 V 191.27988 H 0 Z"
         transform="matrix(0.33458489,0,0,0.33458489,-325.73438,-38)"
         clip-rule="evenodd"
         id="path12" />
    </clipPath>
    <clipPath
       clipPathUnits="userSpaceOnUse"
       id="clipPath14">
      <path
         d="M 0,0 H 1416.6666 V 191.27988 H 0 Z"
         transform="matrix(0.33458825,0,0,0.33458825,-0.49999999,-0.49999999)"
         clip-rule="evenodd"
         id="path14" />
    </clipPath>
    <clipPath
       clipPathUnits="userSpaceOnUse"
       id="clipPath15">
      <path
         d="M 0,0 H 1416.6666 V 191.27988 H 0 Z"
         transform="matrix(0.33458489,0,0,0.33458489,-373.46876,-38)"
         clip-rule="evenodd"
         id="path15" />
    </clipPath>
  </defs>
  <sodipodi:namedview
     id="namedview1"
     pagecolor="#ffffff"
     bordercolor="#000000"
     borderopacity="0.25"
     inkscape:showpageshadow="2"
     inkscape:pageopacity="0.0"
     inkscape:pagecheckerboard="0"
     inkscape:deskcolor="#d1d1d1">
    <inkscape:page
       x="0"
       y="0"
       inkscape:label="1"
       id="page1"
       width="453.44"
       height="62.719997"
       margin="0"
       bleed="0" />
  </sodipodi:namedview>
  <g
     id="g1"
     inkscape:groupmode="layer"
     inkscape:label="1">
    <path
       id="path1"
       d="M 0,0 H 474 V 65 H 0 Z"
       style="fill:#ffffff;fill-opacity:1;fill-rule:nonzero;stroke:none"
       transform="scale(0.95639935)"
       clip-path="url(#clipPath2)" />
    <path
       id="path3"
       d="M 1,1 H 121 V 61 H 1 Z"
       style="fill:#ffffff;fill-opacity:1;fill-rule:nonzero;stroke:#000000;stroke-width:1;stroke-linecap:butt;stroke-linejoin:miter;stroke-miterlimit:10;stroke-dasharray:none;stroke-opacity:1"
       transform="matrix(0.95639935,0,0,0.95639935,0.47819967,0.47819967)"
       clip-path="url(#clipPath4)" />
    <text
       id="text4"
       xml:space="preserve"
       transform="matrix(0.95640895,0,0,0.95640895,20.204139,25.823042)"
       clip-path="url(#clipPath5)"><tspan
         style="font-variant:normal;font-weight:normal;font-size:18px;font-family:Helvetica;writing-mode:lr-tb;fill:#000000;fill-opacity:1;fill-rule:nonzero;stroke:none"
         x="0 10.010742 15.011719 25.022461 29.021484 33.706055 38.707031 48.717773 54.711914 64.722656 74.733398"
         y="0"
         sodipodi:role="line"
         id="tspan4"># different</tspan></text>
    <g
       id="g5" />
    <text
       id="text5"
       xml:space="preserve"
       transform="matrix(0.95640895,0,0,0.95640895,12.881633,46.864039)"
       clip-path="url(#clipPath6)"><tspan
         style="font-variant:normal;font-weight:normal;font-size:18px;font-family:Helvetica;writing-mode:lr-tb;fill:#000000;fill-opacity:1;fill-rule:nonzero;stroke:none"
         x="0 10.010742 20.021484 25.022461 29.021484 38.021484 47.021484 57.032227 62.033203 66.032227 76.042969 86.053711"
         y="0"
         sodipodi:role="line"
         id="tspan5">notiﬁcations</tspan></text>
    <path
       id="path7"
       d="M 151,1 H 311 V 61 H 151 Z"
       style="fill:#ffffff;fill-opacity:1;fill-rule:nonzero;stroke:#000000;stroke-width:1;stroke-linecap:butt;stroke-linejoin:miter;stroke-miterlimit:10;stroke-dasharray:none;stroke-opacity:1"
       transform="matrix(0.95639935,0,0,0.95639935,0.47819967,0.47819967)"
       clip-path="url(#clipPath8)" />
    <text
       id="text8"
       xml:space="preserve"
       transform="matrix(0.95640895,0,0,0.95640895,150.73902,25.823042)"
       clip-path="url(#clipPath9)"><tspan
         style="font-variant:normal;font-weight:normal;font-size:18px;font-family:Helvetica;writing-mode:lr-tb;fill:#000000;fill-opacity:1;fill-rule:nonzero;stroke:none"
         x="0 10.010742 15.011719 25.022461 29.021484 33.706055 38.707031 48.717773 54.711914 64.722656 74.733398 79.734375 84.735352 94.746094 104.75684 108.75586 112.75488 121.75488 131.76562 137.75977"
         y="0"
         sodipodi:role="line"
         id="tspan8"># different delivery</tspan></text>
    <text
       id="text9"
       xml:space="preserve"
       transform="matrix(0.95640895,0,0,0.95640895,172.61688,46.864039)"
       clip-path="url(#clipPath10)"><tspan
         style="font-variant:normal;font-weight:normal;font-size:18px;font-family:Helvetica;writing-mode:lr-tb;fill:#000000;fill-opacity:1;fill-rule:nonzero;stroke:none"
         x="0 14.994141 25.004883 34.004883 44.015625 54.026367 64.037109 68.036133 77.036133 92.030273"
         y="0"
         sodipodi:role="line"
         id="tspan9">mechanisms</tspan></text>
    <text
       id="text10"
       xml:space="preserve"
       transform="matrix(0.95640895,0,0,0.95640895,125.27463,36.34354)"
       clip-path="url(#clipPath11)"><tspan
         style="font-variant:normal;font-weight:normal;font-size:18px;font-family:Helvetica;writing-mode:lr-tb;fill:#000000;fill-opacity:1;fill-rule:nonzero;stroke:none"
         x="0"
         y="0"
         id="tspan10">X</tspan></text>
    <text
       id="text11"
       xml:space="preserve"
       transform="matrix(0.95640895,0,0,0.95640895,311.53528,36.34354)"
       clip-path="url(#clipPath12)"><tspan
         style="font-variant:normal;font-weight:normal;font-size:18px;font-family:Helvetica;writing-mode:lr-tb;fill:#000000;fill-opacity:1;fill-rule:nonzero;stroke:none"
         x="0"
         y="0"
         id="tspan11">=</tspan></text>
    <path
       id="path13"
       d="M 351,1 H 471 V 61 H 351 Z"
       style="fill:#ffffff;fill-opacity:1;fill-rule:nonzero;stroke:#000000;stroke-width:1;stroke-linecap:butt;stroke-linejoin:miter;stroke-miterlimit:10;stroke-dasharray:none;stroke-opacity:1"
       transform="matrix(0.95639935,0,0,0.95639935,0.47819967,0.47819967)"
       clip-path="url(#clipPath14)" />
    <text
       id="text14"
       xml:space="preserve"
       transform="matrix(0.95640895,0,0,0.95640895,357.18886,36.34354)"
       clip-path="url(#clipPath15)"><tspan
         style="font-variant:normal;font-weight:normal;font-size:18px;font-family:Helvetica;writing-mode:lr-tb;fill:#000000;fill-opacity:1;fill-rule:nonzero;stroke:none"
         x="0 10.010742 15.011719 24.011719 28.010742 38.021484 47.021484 56.021484 66.032227"
         y="0"
         sodipodi:role="line"
         id="tspan14"># classes</tspan></text>
  </g>
</svg>
