<?xml version="1.0" encoding="UTF-8" standalone="no"?>
<!-- Created with Inkscape (http://www.inkscape.org/) -->

<svg
   version="1.1"
   id="svg1"
   width="578.56"
   height="206.71999"
   viewBox="0 0 578.56 206.71999"
   sodipodi:docname="nest-16.pdf"
   xmlns:inkscape="http://www.inkscape.org/namespaces/inkscape"
   xmlns:sodipodi="http://sodipodi.sourceforge.net/DTD/sodipodi-0.dtd"
   xmlns="http://www.w3.org/2000/svg"
   xmlns:svg="http://www.w3.org/2000/svg">
  <defs
     id="defs1">
    <clipPath
       clipPathUnits="userSpaceOnUse"
       id="clipPath2">
      <path
         d="M 0,0 H 1808.3334 V 643.69482 H 0 Z"
         transform="scale(0.33400921)"
         clip-rule="evenodd"
         id="path2" />
    </clipPath>
    <clipPath
       clipPathUnits="userSpaceOnUse"
       id="clipPath4">
      <path
         d="M 0,0 H 1808.3334 V 640.70087 H 0 Z"
         transform="matrix(0.33400921,0,0,0.33400921,-0.49999999,-0.49999999)"
         clip-rule="evenodd"
         id="path4" />
    </clipPath>
    <clipPath
       clipPathUnits="userSpaceOnUse"
       id="clipPath5">
      <path
         d="M 0,0 H 1808.3334 V 640.70087 H 0 Z"
         transform="matrix(0.33400586,0,0,0.33400586,-17.9375,-28)"
         clip-rule="evenodd"
         id="path5" />
    </clipPath>
    <clipPath
       clipPathUnits="userSpaceOnUse"
       id="clipPath7">
      <path
         d="M 0,0 H 1808.3334 V 640.70087 H 0 Z"
         transform="matrix(0.33400921,0,0,0.33400921,-0.49999999,-0.49999999)"
         clip-rule="evenodd"
         id="path7" />
    </clipPath>
    <clipPath
       clipPathUnits="userSpaceOnUse"
       id="clipPath8">
      <path
         d="M 0,0 H 1808.3334 V 640.70087 H 0 Z"
         transform="matrix(0.33400586,0,0,0.33400586,-334.09375,-28)"
         clip-rule="evenodd"
         id="path8" />
    </clipPath>
    <clipPath
       clipPathUnits="userSpaceOnUse"
       id="clipPath10">
      <path
         d="M 0,0 H 1808.3334 V 640.70087 H 0 Z"
         transform="matrix(0.33400921,0,0,0.33400921,-0.49999999,-0.49999999)"
         clip-rule="evenodd"
         id="path10" />
    </clipPath>
    <clipPath
       clipPathUnits="userSpaceOnUse"
       id="clipPath12">
      <path
         d="M 0,0 H 1808.3334 V 640.70087 H 0 Z"
         transform="matrix(0.33400921,0,0,0.33400921,-0.49999999,-0.49999999)"
         clip-rule="evenodd"
         id="path12" />
    </clipPath>
    <clipPath
       clipPathUnits="userSpaceOnUse"
       id="clipPath14">
      <path
         d="M 0,0 H 1808.3334 V 640.70087 H 0 Z"
         transform="scale(0.33400921)"
         clip-rule="evenodd"
         id="path14" />
    </clipPath>
    <clipPath
       clipPathUnits="userSpaceOnUse"
       id="clipPath16">
      <path
         d="M 0,0 H 1808.3334 V 640.70087 H 0 Z"
         transform="scale(0.33400921)"
         clip-rule="evenodd"
         id="path16" />
    </clipPath>
    <clipPath
       clipPathUnits="userSpaceOnUse"
       id="clipPath18">
      <path
         d="M 0,0 H 1808.3334 V 640.70087 H 0 Z"
         transform="matrix(0.33400921,0,0,0.33400921,-0.49999999,-0.49999999)"
         clip-rule="evenodd"
         id="path18" />
    </clipPath>
    <clipPath
       clipPathUnits="userSpaceOnUse"
       id="clipPath19">
      <path
         d="M 0,0 H 1808.3334 V 640.70087 H 0 Z"
         transform="matrix(0.33400586,0,0,0.33400586,-75.109375,-123)"
         clip-rule="evenodd"
         id="path19" />
    </clipPath>
    <clipPath
       clipPathUnits="userSpaceOnUse"
       id="clipPath21">
      <path
         d="M 0,0 H 1808.3334 V 640.70087 H 0 Z"
         transform="matrix(0.33400921,0,0,0.33400921,-0.49999999,-0.49999999)"
         clip-rule="evenodd"
         id="path21" />
    </clipPath>
    <clipPath
       clipPathUnits="userSpaceOnUse"
       id="clipPath22">
      <path
         d="M 0,0 H 1808.3334 V 640.70087 H 0 Z"
         transform="matrix(0.33400586,0,0,0.33400586,-85.953125,-173)"
         clip-rule="evenodd"
         id="path22" />
    </clipPath>
    <clipPath
       clipPathUnits="userSpaceOnUse"
       id="clipPath24">
      <path
         d="M 0,0 H 1808.3334 V 640.70087 H 0 Z"
         transform="scale(0.33400921)"
         clip-rule="evenodd"
         id="path24" />
    </clipPath>
    <clipPath
       clipPathUnits="userSpaceOnUse"
       id="clipPath26">
      <path
         d="M 0,0 H 1808.3334 V 640.70087 H 0 Z"
         transform="scale(0.33400921)"
         clip-rule="evenodd"
         id="path26" />
    </clipPath>
    <clipPath
       clipPathUnits="userSpaceOnUse"
       id="clipPath28">
      <path
         d="M 0,0 H 1808.3334 V 640.70087 H 0 Z"
         transform="matrix(0.33400921,0,0,0.33400921,-0.49999999,-0.49999999)"
         clip-rule="evenodd"
         id="path28" />
    </clipPath>
    <clipPath
       clipPathUnits="userSpaceOnUse"
       id="clipPath29">
      <path
         d="M 0,0 H 1808.3334 V 640.70087 H 0 Z"
         transform="matrix(0.33400586,0,0,0.33400586,-343.57813,-123)"
         clip-rule="evenodd"
         id="path29" />
    </clipPath>
    <clipPath
       clipPathUnits="userSpaceOnUse"
       id="clipPath31">
      <path
         d="M 0,0 H 1808.3334 V 640.70087 H 0 Z"
         transform="matrix(0.33400921,0,0,0.33400921,-0.49999999,-0.49999999)"
         clip-rule="evenodd"
         id="path31" />
    </clipPath>
    <clipPath
       clipPathUnits="userSpaceOnUse"
       id="clipPath32">
      <path
         d="M 0,0 H 1808.3334 V 640.70087 H 0 Z"
         transform="matrix(0.33400586,0,0,0.33400586,-378.45313,-173)"
         clip-rule="evenodd"
         id="path32" />
    </clipPath>
    <clipPath
       clipPathUnits="userSpaceOnUse"
       id="clipPath34">
      <path
         d="M 0,0 H 1808.3334 V 640.70087 H 0 Z"
         transform="scale(0.33400921)"
         clip-rule="evenodd"
         id="path34" />
    </clipPath>
    <clipPath
       clipPathUnits="userSpaceOnUse"
       id="clipPath36">
      <path
         d="M 0,0 H 1808.3334 V 640.70087 H 0 Z"
         transform="scale(0.33400921)"
         clip-rule="evenodd"
         id="path36" />
    </clipPath>
    <clipPath
       clipPathUnits="userSpaceOnUse"
       id="clipPath38">
      <path
         d="M 0,0 H 1808.3334 V 640.70087 H 0 Z"
         transform="matrix(0.33400921,0,0,0.33400921,-0.49999999,-0.49999999)"
         clip-rule="evenodd"
         id="path38" />
    </clipPath>
    <clipPath
       clipPathUnits="userSpaceOnUse"
       id="clipPath39">
      <path
         d="M 0,0 H 1808.3334 V 640.70087 H 0 Z"
         transform="matrix(0.33400586,0,0,0.33400586,-34.4375,-73)"
         clip-rule="evenodd"
         id="path39" />
    </clipPath>
    <clipPath
       clipPathUnits="userSpaceOnUse"
       id="clipPath41">
      <path
         d="M 0,0 H 1808.3334 V 640.70087 H 0 Z"
         transform="scale(0.33400921)"
         clip-rule="evenodd"
         id="path41" />
    </clipPath>
    <clipPath
       clipPathUnits="userSpaceOnUse"
       id="clipPath43">
      <path
         d="M 0,0 H 1808.3334 V 640.70087 H 0 Z"
         transform="scale(0.33400921)"
         clip-rule="evenodd"
         id="path43" />
    </clipPath>
    <clipPath
       clipPathUnits="userSpaceOnUse"
       id="clipPath45">
      <path
         d="M 0,0 H 1808.3334 V 640.70087 H 0 Z"
         transform="matrix(0.33400921,0,0,0.33400921,-0.49999999,-0.49999999)"
         clip-rule="evenodd"
         id="path45" />
    </clipPath>
    <clipPath
       clipPathUnits="userSpaceOnUse"
       id="clipPath46">
      <path
         d="M 0,0 H 1808.3334 V 640.70087 H 0 Z"
         transform="matrix(0.33400586,0,0,0.33400586,-339.4375,-73)"
         clip-rule="evenodd"
         id="path46" />
    </clipPath>
  </defs>
  <sodipodi:namedview
     id="namedview1"
     pagecolor="#ffffff"
     bordercolor="#000000"
     borderopacity="0.25"
     inkscape:showpageshadow="2"
     inkscape:pageopacity="0.0"
     inkscape:pagecheckerboard="0"
     inkscape:deskcolor="#d1d1d1">
    <inkscape:page
       x="0"
       y="0"
       inkscape:label="1"
       id="page1"
       width="578.56"
       height="206.71999"
       margin="0"
       bleed="0" />
  </sodipodi:namedview>
  <g
     id="g1"
     inkscape:groupmode="layer"
     inkscape:label="1">
    <path
       id="path1"
       d="M 0,0 H 604 V 215 H 0 Z"
       style="fill:#ffffff;fill-opacity:1;fill-rule:nonzero;stroke:none"
       transform="scale(0.95805737)"
       clip-path="url(#clipPath2)" />
    <path
       id="path3"
       d="M 1,1 H 291 V 41 H 1 Z"
       style="fill:#f5f5f5;fill-opacity:1;fill-rule:nonzero;stroke:#666666;stroke-width:1;stroke-linecap:butt;stroke-linejoin:miter;stroke-miterlimit:10;stroke-dasharray:none;stroke-opacity:1"
       transform="matrix(0.95805737,0,0,0.95805737,0.47902868,0.47902868)"
       clip-path="url(#clipPath4)" />
    <g
       id="g4" />
    <text
       id="text4"
       xml:space="preserve"
       transform="matrix(0.95806697,0,0,0.95806697,17.185326,26.825875)"
       clip-path="url(#clipPath5)"><tspan
         style="font-variant:normal;font-weight:normal;font-size:18px;font-family:Helvetica;writing-mode:lr-tb;fill:#333333;fill-opacity:1;fill-rule:nonzero;stroke:none"
         x="0 9 12.999023 23.009766 32.009766 41.009766 46.010742 58.016602 73.010742 83.021484 87.020508 91.019531 103.02539 113.03613 119.03027 128.03027 138.04102 148.05176 157.05176 167.0625 180.06152 190.07227 195.07324 199.07227 208.07227 217.07227 227.08301 232.08398 236.08301 246.09375"
         y="0"
         sodipodi:role="line"
         id="tspan4">class EmailPurchaseNotiﬁcation</tspan></text>
    <path
       id="path6"
       d="M 311,1 H 601 V 41 H 311 Z"
       style="fill:#f5f5f5;fill-opacity:1;fill-rule:nonzero;stroke:#666666;stroke-width:1;stroke-linecap:butt;stroke-linejoin:miter;stroke-miterlimit:10;stroke-dasharray:none;stroke-opacity:1"
       transform="matrix(0.95805737,0,0,0.95805737,0.47902868,0.47902868)"
       clip-path="url(#clipPath7)" />
    <g
       id="g7" />
    <text
       id="text7"
       xml:space="preserve"
       transform="matrix(0.95806697,0,0,0.95806697,320.08419,26.825875)"
       clip-path="url(#clipPath8)"><tspan
         style="font-variant:normal;font-weight:normal;font-size:18px;font-family:Helvetica;writing-mode:lr-tb;fill:#333333;fill-opacity:1;fill-rule:nonzero;stroke:none"
         x="0 9 12.999023 23.009766 32.009766 41.009766 45.694336 54.694336 64.705078 73.705078 78.706055 90.711914 100.72266 106.7168 115.7168 125.72754 135.73828 144.73828 154.74902 167.74805 177.75879 182.75977 186.75879 195.75879 204.75879 214.76953 219.77051 223.76953 233.78027"
         y="0"
         sodipodi:role="line"
         id="tspan7">class TextPurchaseNotiﬁcation</tspan></text>
    <path
       id="path9"
       d="M 1,41 H 291 V 211 H 1 Z"
       style="fill:#f5f5f5;fill-opacity:1;fill-rule:nonzero;stroke:#666666;stroke-width:1;stroke-linecap:butt;stroke-linejoin:miter;stroke-miterlimit:10;stroke-dasharray:none;stroke-opacity:1"
       transform="matrix(0.95805737,0,0,0.95805737,0.47902868,0.47902868)"
       clip-path="url(#clipPath10)" />
    <path
       id="path11"
       d="M 311,41 H 601 V 211 H 311 Z"
       style="fill:#f5f5f5;fill-opacity:1;fill-rule:nonzero;stroke:#666666;stroke-width:1;stroke-linecap:butt;stroke-linejoin:miter;stroke-miterlimit:10;stroke-dasharray:none;stroke-opacity:1"
       transform="matrix(0.95805737,0,0,0.95805737,0.47902868,0.47902868)"
       clip-path="url(#clipPath12)" />
    <path
       id="path13"
       d="m 146,131 v 11.77"
       style="fill:none;stroke:#000000;stroke-width:1;stroke-linecap:butt;stroke-linejoin:miter;stroke-miterlimit:10;stroke-dasharray:none;stroke-opacity:1"
       transform="scale(0.95805737)"
       clip-path="url(#clipPath14)" />
    <path
       id="path15"
       d="m 146,148.77 -4,-8 4,2 4,-2 z"
       style="fill:#000000;fill-opacity:1;fill-rule:nonzero;stroke:#000000;stroke-width:1;stroke-linecap:butt;stroke-linejoin:miter;stroke-miterlimit:10;stroke-dasharray:none;stroke-opacity:1"
       transform="scale(0.95805737)"
       clip-path="url(#clipPath16)" />
    <path
       id="path17"
       d="m 26,101 h 240 v 30 H 26 Z"
       style="fill:#ffffff;fill-opacity:1;fill-rule:nonzero;stroke:#000000;stroke-width:1;stroke-linecap:butt;stroke-linejoin:miter;stroke-miterlimit:10;stroke-dasharray:none;stroke-opacity:1"
       transform="matrix(0.95805737,0,0,0.95805737,0.47902868,0.47902868)"
       clip-path="url(#clipPath18)" />
    <text
       id="text18"
       xml:space="preserve"
       transform="matrix(0.95806697,0,0,0.95806697,71.959811,117.84224)"
       clip-path="url(#clipPath19)"><tspan
         style="font-style:oblique;font-variant:normal;font-weight:normal;font-size:18px;font-family:Helvetica;writing-mode:lr-tb;fill:#000000;fill-opacity:1;fill-rule:nonzero;stroke:none"
         x="0 10.678711 20.689453 24.688477 28.6875 38.698242 48.708984 53.709961 63.720703 68.72168 73.722656 83.733398 93.744141 98.745117 108.75586 123.75 133.76074 137.75977"
         y="0"
         sodipodi:role="line"
         id="tspan18">Validate the email</tspan></text>
    <path
       id="path20"
       d="m 26,151 h 240 v 30 H 26 Z"
       style="fill:#ffffff;fill-opacity:1;fill-rule:nonzero;stroke:#000000;stroke-width:1;stroke-linecap:butt;stroke-linejoin:miter;stroke-miterlimit:10;stroke-dasharray:none;stroke-opacity:1"
       transform="matrix(0.95805737,0,0,0.95805737,0.47902868,0.47902868)"
       clip-path="url(#clipPath21)" />
    <text
       id="text21"
       xml:space="preserve"
       transform="matrix(0.95806697,0,0,0.95806697,82.34885,165.74559)"
       clip-path="url(#clipPath22)"><tspan
         style="font-style:oblique;font-variant:normal;font-weight:normal;font-size:18px;font-family:Helvetica;writing-mode:lr-tb;fill:#000000;fill-opacity:1;fill-rule:nonzero;stroke:none"
         x="0 12.005859 22.016602 32.027344 42.038086 47.039062 52.040039 62.050781 72.061523 77.0625 87.073242 102.06738 112.07812 116.07715"
         y="0"
         sodipodi:role="line"
         id="tspan21">Send the email</tspan></text>
    <path
       id="path23"
       d="m 451,131 v 20 -20 11.77"
       style="fill:none;stroke:#000000;stroke-width:1;stroke-linecap:butt;stroke-linejoin:miter;stroke-miterlimit:10;stroke-dasharray:none;stroke-opacity:1"
       transform="scale(0.95805737)"
       clip-path="url(#clipPath24)" />
    <path
       id="path25"
       d="m 451,148.77 -4,-8 4,2 4,-2 z"
       style="fill:#000000;fill-opacity:1;fill-rule:nonzero;stroke:#000000;stroke-width:1;stroke-linecap:butt;stroke-linejoin:miter;stroke-miterlimit:10;stroke-dasharray:none;stroke-opacity:1"
       transform="scale(0.95805737)"
       clip-path="url(#clipPath26)" />
    <path
       id="path27"
       d="m 331,101 h 240 v 30 H 331 Z"
       style="fill:#ffffff;fill-opacity:1;fill-rule:nonzero;stroke:#000000;stroke-width:1;stroke-linecap:butt;stroke-linejoin:miter;stroke-miterlimit:10;stroke-dasharray:none;stroke-opacity:1"
       transform="matrix(0.95805737,0,0,0.95805737,0.47902868,0.47902868)"
       clip-path="url(#clipPath28)" />
    <text
       id="text28"
       xml:space="preserve"
       transform="matrix(0.95806697,0,0,0.95806697,329.17086,117.84224)"
       clip-path="url(#clipPath29)"><tspan
         style="font-style:oblique;font-variant:normal;font-weight:normal;font-size:18px;font-family:Helvetica;writing-mode:lr-tb;fill:#000000;fill-opacity:1;fill-rule:nonzero;stroke:none"
         x="0 10.678711 20.689453 24.688477 28.6875 38.698242 48.708984 53.709961 63.720703 68.72168 73.722656 83.733398 93.744141 98.745117 108.75586 118.7666 128.77734 138.78809 148.79883 153.7998 163.81055 173.82129 188.81543 198.82617 208.83691"
         y="0"
         sodipodi:role="line"
         id="tspan28">Validate the phone number</tspan></text>
    <path
       id="path30"
       d="m 331,151 h 240 v 30 H 331 Z"
       style="fill:#ffffff;fill-opacity:1;fill-rule:nonzero;stroke:#000000;stroke-width:1;stroke-linecap:butt;stroke-linejoin:miter;stroke-miterlimit:10;stroke-dasharray:none;stroke-opacity:1"
       transform="matrix(0.95805737,0,0,0.95805737,0.47902868,0.47902868)"
       clip-path="url(#clipPath31)" />
    <text
       id="text31"
       xml:space="preserve"
       transform="matrix(0.95806697,0,0,0.95806697,362.58344,165.74559)"
       clip-path="url(#clipPath32)"><tspan
         style="font-style:oblique;font-variant:normal;font-weight:normal;font-size:18px;font-family:Helvetica;writing-mode:lr-tb;fill:#000000;fill-opacity:1;fill-rule:nonzero;stroke:none"
         x="0 12.005859 22.016602 32.027344 42.038086 47.039062 52.040039 62.050781 72.061523 77.0625 82.063477 92.074219 101.07422 106.0752 111.07617 126.07031 135.07031"
         y="0"
         sodipodi:role="line"
         id="tspan31">Send the text msg</tspan></text>
    <path
       id="path33"
       d="M 146,81 V 92.760002"
       style="fill:none;stroke:#000000;stroke-width:1;stroke-linecap:butt;stroke-linejoin:miter;stroke-miterlimit:10;stroke-dasharray:none;stroke-opacity:1"
       transform="scale(0.95805737)"
       clip-path="url(#clipPath34)" />
    <path
       id="path35"
       d="m 146,98.760002 -4,-8 4,2 4,-2 z"
       style="fill:#000000;fill-opacity:1;fill-rule:nonzero;stroke:#000000;stroke-width:1;stroke-linecap:butt;stroke-linejoin:miter;stroke-miterlimit:10;stroke-dasharray:none;stroke-opacity:1"
       transform="scale(0.95805737)"
       clip-path="url(#clipPath36)" />
    <path
       id="path37"
       d="M 26,51 H 266 V 81 H 26 Z"
       style="fill:#ffffff;fill-opacity:1;fill-rule:nonzero;stroke:#000000;stroke-width:1;stroke-linecap:butt;stroke-linejoin:miter;stroke-miterlimit:10;stroke-dasharray:none;stroke-opacity:1"
       transform="matrix(0.95805737,0,0,0.95805737,0.47902868,0.47902868)"
       clip-path="url(#clipPath38)" />
    <text
       id="text38"
       xml:space="preserve"
       transform="matrix(0.95806697,0,0,0.95806697,32.993431,69.938889)"
       clip-path="url(#clipPath39)"><tspan
         style="font-style:oblique;font-variant:normal;font-weight:normal;font-size:18px;font-family:Helvetica;writing-mode:lr-tb;fill:#000000;fill-opacity:1;fill-rule:nonzero;stroke:none"
         x="0 14.994141 25.004883 34.004883 44.015625 49.016602 58.016602 68.027344 74.021484 84.032227 89.033203 99.043945 109.05469 115.04883 124.04883 134.05957 144.07031 153.07031 163.08105 168.08203 172.08105 181.08105 186.08203 195.08203 205.09277 209.0918 213.09082"
         y="0"
         sodipodi:role="line"
         id="tspan38">Make sure purchase is valid</tspan></text>
    <path
       id="path40"
       d="M 451,81 V 92.760002"
       style="fill:none;stroke:#000000;stroke-width:1;stroke-linecap:butt;stroke-linejoin:miter;stroke-miterlimit:10;stroke-dasharray:none;stroke-opacity:1"
       transform="scale(0.95805737)"
       clip-path="url(#clipPath41)" />
    <path
       id="path42"
       d="m 451,98.760002 -4,-8 4,2 4,-2 z"
       style="fill:#000000;fill-opacity:1;fill-rule:nonzero;stroke:#000000;stroke-width:1;stroke-linecap:butt;stroke-linejoin:miter;stroke-miterlimit:10;stroke-dasharray:none;stroke-opacity:1"
       transform="scale(0.95805737)"
       clip-path="url(#clipPath43)" />
    <path
       id="path44"
       d="M 331,51 H 571 V 81 H 331 Z"
       style="fill:#ffffff;fill-opacity:1;fill-rule:nonzero;stroke:#000000;stroke-width:1;stroke-linecap:butt;stroke-linejoin:miter;stroke-miterlimit:10;stroke-dasharray:none;stroke-opacity:1"
       transform="matrix(0.95805737,0,0,0.95805737,0.47902868,0.47902868)"
       clip-path="url(#clipPath45)" />
    <text
       id="text45"
       xml:space="preserve"
       transform="matrix(0.95806697,0,0,0.95806697,325.20386,69.938889)"
       clip-path="url(#clipPath46)"><tspan
         style="font-style:oblique;font-variant:normal;font-weight:normal;font-size:18px;font-family:Helvetica;writing-mode:lr-tb;fill:#000000;fill-opacity:1;fill-rule:nonzero;stroke:none"
         x="0 14.994141 25.004883 34.004883 44.015625 49.016602 58.016602 68.027344 74.021484 84.032227 89.033203 99.043945 109.05469 115.04883 124.04883 134.05957 144.07031 153.07031 163.08105 168.08203 172.08105 181.08105 186.08203 195.08203 205.09277 209.0918 213.09082"
         y="0"
         sodipodi:role="line"
         id="tspan45">Make sure purchase is valid</tspan></text>
  </g>
</svg>
