<?xml version="1.0" encoding="UTF-8" standalone="no"?>
<!-- Created with Inkscape (http://www.inkscape.org/) -->

<svg
   version="1.1"
   id="svg1"
   width="377.28"
   height="129.28"
   viewBox="0 0 377.28 129.28"
   sodipodi:docname="nest-15.pdf"
   xmlns:inkscape="http://www.inkscape.org/namespaces/inkscape"
   xmlns:sodipodi="http://sodipodi.sourceforge.net/DTD/sodipodi-0.dtd"
   xmlns="http://www.w3.org/2000/svg"
   xmlns:svg="http://www.w3.org/2000/svg">
  <defs
     id="defs1">
    <clipPath
       clipPathUnits="userSpaceOnUse"
       id="clipPath2">
      <path
         d="M 0,0 H 1179.1666 V 404.02921 H 0 Z"
         transform="scale(0.33413427)"
         clip-rule="evenodd"
         id="path2" />
    </clipPath>
    <clipPath
       clipPathUnits="userSpaceOnUse"
       id="clipPath4">
      <path
         d="M 0,0 H 1179.1666 V 401.03638 H 0 Z"
         transform="matrix(0.33413427,0,0,0.33413427,-0.5,-0.5)"
         clip-rule="evenodd"
         id="path4" />
    </clipPath>
    <clipPath
       clipPathUnits="userSpaceOnUse"
       id="clipPath5">
      <path
         d="M 0,0 H 1179.1666 V 401.03638 H 0 Z"
         transform="matrix(0.33413091,0,0,0.33413091,-37.9375,-23)"
         clip-rule="evenodd"
         id="path5" />
    </clipPath>
    <clipPath
       clipPathUnits="userSpaceOnUse"
       id="clipPath7">
      <path
         d="M 0,0 H 1179.1666 V 401.03638 H 0 Z"
         transform="matrix(0.33413427,0,0,0.33413427,-0.5,-0.5)"
         clip-rule="evenodd"
         id="path7" />
    </clipPath>
    <clipPath
       clipPathUnits="userSpaceOnUse"
       id="clipPath8">
      <path
         d="M 0,0 H 1179.1666 V 401.03638 H 0 Z"
         transform="matrix(0.33413091,0,0,0.33413091,-63.421875,-92)"
         clip-rule="evenodd"
         id="path8" />
    </clipPath>
    <clipPath
       clipPathUnits="userSpaceOnUse"
       id="clipPath9">
      <path
         d="M 0,0 H 1179.1666 V 401.03638 H 0 Z"
         transform="matrix(0.33413091,0,0,0.33413091,-62.921875,-114)"
         clip-rule="evenodd"
         id="path9" />
    </clipPath>
  </defs>
  <sodipodi:namedview
     id="namedview1"
     pagecolor="#ffffff"
     bordercolor="#000000"
     borderopacity="0.25"
     inkscape:showpageshadow="2"
     inkscape:pageopacity="0.0"
     inkscape:pagecheckerboard="0"
     inkscape:deskcolor="#d1d1d1">
    <inkscape:page
       x="0"
       y="0"
       inkscape:label="1"
       id="page1"
       width="377.28"
       height="129.28"
       margin="0"
       bleed="0" />
  </sodipodi:namedview>
  <g
     id="g1"
     inkscape:groupmode="layer"
     inkscape:label="1">
    <path
       id="path1"
       d="M 0,0 H 394 V 135 H 0 Z"
       style="fill:#ffffff;fill-opacity:1;fill-rule:nonzero;stroke:none"
       transform="scale(0.95769878)"
       clip-path="url(#clipPath2)" />
    <path
       id="path3"
       d="M 1,1 H 391 V 31 H 1 Z"
       style="fill:#dae8fc;fill-opacity:1;fill-rule:nonzero;stroke:#6c8ebf;stroke-width:1;stroke-linecap:butt;stroke-linejoin:miter;stroke-miterlimit:10;stroke-dasharray:none;stroke-opacity:1"
       transform="matrix(0.95769878,0,0,0.95769878,0.47884939,0.47884939)"
       clip-path="url(#clipPath4)" />
    <text
       id="text4"
       xml:space="preserve"
       transform="matrix(0.95770841,0,0,0.95770841,36.333063,22.027293)"
       clip-path="url(#clipPath5)"><tspan
         style="font-variant:normal;font-weight:normal;font-size:18px;font-family:Helvetica;writing-mode:lr-tb;fill:#000000;fill-opacity:1;fill-rule:nonzero;stroke:none"
         x="0 12.005859 21.005859 31.016602 46.010742 56.021484 60.020508 70.03125 75.032227 86.027344 96.038086 106.04883 111.0498 121.06055 127.05469 137.06543 142.06641 153.06152 163.07227 169.06641 174.06738 186.07324 192.06738 205.06641 215.07715 230.07129 245.06543 255.07617 261.07031 270.07031 280.08105 284.09766 296.10352 306.11426"
         y="0"
         sodipodi:role="line"
         id="tspan4">Example Feature For E-Commerce App</tspan></text>
    <path
       id="path6"
       d="m 41,61 h 310 v 70 H 41 Z"
       style="fill:#ffffff;fill-opacity:1;fill-rule:nonzero;stroke:#000000;stroke-width:1;stroke-linecap:butt;stroke-linejoin:miter;stroke-miterlimit:10;stroke-dasharray:none;stroke-opacity:1"
       transform="matrix(0.95769878,0,0,0.95769878,0.47884939,0.47884939)"
       clip-path="url(#clipPath7)" />
    <text
       id="text7"
       xml:space="preserve"
       transform="matrix(0.95770841,0,0,0.95770841,60.739663,88.109174)"
       clip-path="url(#clipPath8)"><tspan
         style="font-variant:normal;font-weight:normal;font-size:18px;font-family:Helvetica;writing-mode:lr-tb;fill:#000000;fill-opacity:1;fill-rule:nonzero;stroke:none"
         x="0 16.989258 27 37.010742 47.021484 57.032227 66.032227 76.042969 82.037109 87.038086 97.048828 102.0498 112.06055 121.06055 131.07129 137.06543 142.06641 152.07715 162.08789 171.08789 180.08789 185.08887 195.09961 200.10059 210.11133 216.10547 226.11621 236.12695 246.1377 255.1377 260.13867"
         y="0"
         sodipodi:role="line"
         id="tspan7">Whenever a user buys a product,</tspan></text>
    <g
       id="g8" />
    <text
       id="text8"
       xml:space="preserve"
       transform="matrix(0.95770841,0,0,0.95770841,60.260809,109.17876)"
       clip-path="url(#clipPath9)"><tspan
         style="font-variant:normal;font-weight:normal;font-size:18px;font-family:Helvetica;writing-mode:lr-tb;fill:#000000;fill-opacity:1;fill-rule:nonzero;stroke:none"
         x="0 9 19.010742 29.021484 39.032227 44.033203 49.03418 59.044922 69.055664 84.049805 89.050781 99.061523 109.07227 115.06641 124.06641 134.07715 144.08789 153.08789 163.09863 168.09961 177.09961 187.11035 197.12109 206.12109 212.11523 227.10938 237.12012 242.12109 246.12012 256.13086"
         y="0"
         sodipodi:role="line"
         id="tspan8">send them purchase conﬁrmation</tspan></text>
  </g>
</svg>
