<?xml version="1.0" encoding="UTF-8" standalone="no"?>
<!-- Created with Inkscape (http://www.inkscape.org/) -->

<svg
   version="1.1"
   id="svg1"
   width="521.27997"
   height="147.84"
   viewBox="0 0 521.27997 147.84"
   sodipodi:docname="nest-7.pdf"
   xmlns:inkscape="http://www.inkscape.org/namespaces/inkscape"
   xmlns:sodipodi="http://sodipodi.sourceforge.net/DTD/sodipodi-0.dtd"
   xmlns="http://www.w3.org/2000/svg"
   xmlns:svg="http://www.w3.org/2000/svg">
  <defs
     id="defs1">
    <clipPath
       clipPathUnits="userSpaceOnUse"
       id="clipPath2">
      <path
         d="M 0,0 H 1629.1666 V 461.19791 H 0 Z"
         transform="scale(0.33391306)"
         clip-rule="evenodd"
         id="path2" />
    </clipPath>
    <clipPath
       clipPathUnits="userSpaceOnUse"
       id="clipPath4">
      <path
         d="M 0,0 H 1629.1666 V 461.19791 H 0 Z"
         transform="matrix(0.33391306,0,0,0.33391306,-0.5,-0.5)"
         clip-rule="evenodd"
         id="path4" />
    </clipPath>
    <clipPath
       clipPathUnits="userSpaceOnUse"
       id="clipPath5">
      <path
         d="M 0,0 H 1629.1666 V 461.19791 H 0 Z"
         transform="matrix(0.33390972,0,0,0.33390972,-10.40625,-27)"
         clip-rule="evenodd"
         id="path5" />
    </clipPath>
    <clipPath
       clipPathUnits="userSpaceOnUse"
       id="clipPath7">
      <path
         d="M 0,0 H 1629.1666 V 461.19791 H 0 Z"
         transform="matrix(0.33391306,0,0,0.33391306,-0.5,-0.5)"
         clip-rule="evenodd"
         id="path7" />
    </clipPath>
    <clipPath
       clipPathUnits="userSpaceOnUse"
       id="clipPath9">
      <path
         d="M 0,0 H 1629.1666 V 461.19791 H 0 Z"
         transform="matrix(0.33391306,0,0,0.33391306,-0.5,-0.5)"
         clip-rule="evenodd"
         id="path9" />
    </clipPath>
    <clipPath
       clipPathUnits="userSpaceOnUse"
       id="clipPath10">
      <path
         d="M 0,0 H 1629.1666 V 461.19791 H 0 Z"
         transform="matrix(0.33390972,0,0,0.33390972,-353.90625,-27)"
         clip-rule="evenodd"
         id="path10" />
    </clipPath>
    <clipPath
       clipPathUnits="userSpaceOnUse"
       id="clipPath12">
      <path
         d="M 0,0 H 1629.1666 V 461.19791 H 0 Z"
         transform="matrix(0.33391306,0,0,0.33391306,-0.5,-0.5)"
         clip-rule="evenodd"
         id="path12" />
    </clipPath>
    <clipPath
       clipPathUnits="userSpaceOnUse"
       id="clipPath14">
      <path
         d="M 0,0 H 1629.1666 V 461.19791 H 0 Z"
         transform="matrix(0.33391306,0,0,0.33391306,-0.5,-0.5)"
         clip-rule="evenodd"
         id="path14" />
    </clipPath>
    <clipPath
       clipPathUnits="userSpaceOnUse"
       id="clipPath16">
      <path
         d="M 0,0 H 1629.1666 V 461.19791 H 0 Z"
         transform="matrix(0.33391306,0,0,0.33391306,-0.5,-0.5)"
         clip-rule="evenodd"
         id="path16" />
    </clipPath>
    <clipPath
       clipPathUnits="userSpaceOnUse"
       id="clipPath18">
      <path
         d="M 0,0 H 1629.1666 V 461.19791 H 0 Z"
         transform="matrix(0.33391306,0,0,0.33391306,-0.5,-0.5)"
         clip-rule="evenodd"
         id="path18" />
    </clipPath>
    <clipPath
       clipPathUnits="userSpaceOnUse"
       id="clipPath19">
      <path
         d="M 0,0 H 1629.1666 V 461.19791 H 0 Z"
         transform="matrix(0.33390972,0,0,0.33390972,-366.65625,-71.999999)"
         clip-rule="evenodd"
         id="path19" />
    </clipPath>
    <clipPath
       clipPathUnits="userSpaceOnUse"
       id="clipPath21">
      <path
         d="M 0,0 H 1629.1666 V 461.19791 H 0 Z"
         transform="matrix(0.33391306,0,0,0.33391306,-0.5,-0.5)"
         clip-rule="evenodd"
         id="path21" />
    </clipPath>
    <clipPath
       clipPathUnits="userSpaceOnUse"
       id="clipPath22">
      <path
         d="M 0,0 H 1629.1666 V 461.19791 H 0 Z"
         transform="matrix(0.33390972,0,0,0.33390972,-345.40625,-102)"
         clip-rule="evenodd"
         id="path22" />
    </clipPath>
    <clipPath
       clipPathUnits="userSpaceOnUse"
       id="clipPath24">
      <path
         d="M 0,0 H 1629.1666 V 461.19791 H 0 Z"
         transform="matrix(0.33391306,0,0,0.33391306,-0.5,-0.5)"
         clip-rule="evenodd"
         id="path24" />
    </clipPath>
    <clipPath
       clipPathUnits="userSpaceOnUse"
       id="clipPath25">
      <path
         d="M 0,0 H 1629.1666 V 461.19791 H 0 Z"
         transform="matrix(0.33390972,0,0,0.33390972,-369.01563,-131.99999)"
         clip-rule="evenodd"
         id="path25" />
    </clipPath>
    <clipPath
       clipPathUnits="userSpaceOnUse"
       id="clipPath27">
      <path
         d="M 0,0 H 1629.1666 V 461.19791 H 0 Z"
         transform="matrix(0.33391306,0,0,0.33391306,-0.5,-0.5)"
         clip-rule="evenodd"
         id="path27" />
    </clipPath>
    <clipPath
       clipPathUnits="userSpaceOnUse"
       id="clipPath28">
      <path
         d="M 0,0 H 1629.1666 V 461.19791 H 0 Z"
         transform="matrix(0.33390972,0,0,0.33390972,-204.84375,-93)"
         clip-rule="evenodd"
         id="path28" />
    </clipPath>
    <clipPath
       clipPathUnits="userSpaceOnUse"
       id="clipPath29">
      <path
         d="M 0,0 H 1629.1666 V 461.19791 H 0 Z"
         transform="matrix(0.33390972,0,0,0.33390972,-216.76563,-109)"
         clip-rule="evenodd"
         id="path29" />
    </clipPath>
  </defs>
  <sodipodi:namedview
     id="namedview1"
     pagecolor="#ffffff"
     bordercolor="#000000"
     borderopacity="0.25"
     inkscape:showpageshadow="2"
     inkscape:pageopacity="0.0"
     inkscape:pagecheckerboard="0"
     inkscape:deskcolor="#d1d1d1">
    <inkscape:page
       x="0"
       y="0"
       inkscape:label="1"
       id="page1"
       width="521.27997"
       height="147.84"
       margin="0"
       bleed="0" />
  </sodipodi:namedview>
  <g
     id="g1"
     inkscape:groupmode="layer"
     inkscape:label="1">
    <path
       id="path1"
       d="M 0,0 H 544 V 154 H 0 Z"
       style="fill:#ffffff;fill-opacity:1;fill-rule:nonzero;stroke:none"
       transform="scale(0.95833324)"
       clip-path="url(#clipPath2)" />
    <path
       id="path3"
       d="M 1,1 H 171 V 41 H 1 Z"
       style="fill:#dae8fc;fill-opacity:1;fill-rule:nonzero;stroke:#6c8ebf;stroke-width:1;stroke-linecap:butt;stroke-linejoin:miter;stroke-miterlimit:10;stroke-dasharray:none;stroke-opacity:1"
       transform="matrix(0.95833324,0,0,0.95833324,0.47916662,0.47916662)"
       clip-path="url(#clipPath4)" />
    <text
       id="text4"
       xml:space="preserve"
       transform="matrix(0.95834284,0,0,0.95834284,9.9727552,25.875257)"
       clip-path="url(#clipPath5)"><tspan
         style="font-variant:normal;font-weight:normal;font-size:17px;font-family:Helvetica;writing-mode:lr-tb;fill:#000000;fill-opacity:1;fill-rule:nonzero;stroke:none"
         x="0 14.161133 23.615723 32.115723 40.615723 50.070312 59.524902 68.979492 77.479492 89.756348 99.210938 108.66553 113.38867 119.0498 128.50439 132.28125 136.05811 145.5127"
         y="0"
         sodipodi:role="line"
         id="tspan4">MessagesController</tspan></text>
    <path
       id="path6"
       d="M 1,41 H 171 V 151 H 1 Z"
       style="fill:#dae8fc;fill-opacity:1;fill-rule:nonzero;stroke:#6c8ebf;stroke-width:1;stroke-linecap:butt;stroke-linejoin:miter;stroke-miterlimit:10;stroke-dasharray:none;stroke-opacity:1"
       transform="matrix(0.95833324,0,0,0.95833324,0.47916662,0.47916662)"
       clip-path="url(#clipPath7)" />
    <path
       id="path8"
       d="M 301,1 H 541 V 41 H 301 Z"
       style="fill:#d5e8d4;fill-opacity:1;fill-rule:nonzero;stroke:#82b366;stroke-width:1;stroke-linecap:butt;stroke-linejoin:miter;stroke-miterlimit:10;stroke-dasharray:none;stroke-opacity:1"
       transform="matrix(0.95833324,0,0,0.95833324,0.47916662,0.47916662)"
       clip-path="url(#clipPath9)" />
    <text
       id="text9"
       xml:space="preserve"
       transform="matrix(0.95834284,0,0,0.95834284,339.16352,25.875257)"
       clip-path="url(#clipPath10)"><tspan
         style="font-variant:normal;font-weight:normal;font-size:17px;font-family:Helvetica;writing-mode:lr-tb;fill:#000000;fill-opacity:1;fill-rule:nonzero;stroke:none"
         x="0 14.161133 23.615723 32.115723 40.615723 50.070312 59.524902 68.979492 77.479492 88.818359 98.272949 103.93408 112.43408 116.21094 124.71094"
         y="0"
         sodipodi:role="line"
         id="tspan9">MessagesService</tspan></text>
    <path
       id="path11"
       d="M 301,96 H 177.37"
       style="fill:none;stroke:#000000;stroke-width:1;stroke-linecap:butt;stroke-linejoin:miter;stroke-miterlimit:10;stroke-dasharray:none;stroke-opacity:1"
       transform="matrix(0.95833324,0,0,0.95833324,0.47916662,0.47916662)"
       clip-path="url(#clipPath12)" />
    <path
       id="path13"
       d="m 172.12,96 7,-3.5 -1.75,3.5 1.75,3.5 z"
       style="fill:#000000;fill-opacity:1;fill-rule:nonzero;stroke:#000000;stroke-width:1;stroke-linecap:butt;stroke-linejoin:miter;stroke-miterlimit:10;stroke-dasharray:none;stroke-opacity:1"
       transform="matrix(0.95833324,0,0,0.95833324,0.47916662,0.47916662)"
       clip-path="url(#clipPath14)" />
    <path
       id="path15"
       d="M 301,41 H 541 V 151 H 301 Z"
       style="fill:#d5e8d4;fill-opacity:1;fill-rule:nonzero;stroke:#82b366;stroke-width:1;stroke-linecap:butt;stroke-linejoin:miter;stroke-miterlimit:10;stroke-dasharray:none;stroke-opacity:1"
       transform="matrix(0.95833324,0,0,0.95833324,0.47916662,0.47916662)"
       clip-path="url(#clipPath16)" />
    <path
       id="path17"
       d="m 330.5,51 h 181 c 0.59668,0 1.17065,0.114182 1.72198,0.342541 0.55134,0.228359 1.03797,0.553516 1.45997,0.975475 0.42193,0.421955 0.74707,0.908588 0.9754,1.459904 0.22839,0.551311 0.34259,1.125339 0.34265,1.72208 v 21 c -6e-5,0.596733 -0.11426,1.170761 -0.34265,1.722069 -0.22833,0.551315 -0.55347,1.037948 -0.9754,1.459907 -0.422,0.421952 -0.90863,0.747109 -1.45997,0.975472 C 512.67065,80.885803 512.09668,80.999992 511.5,81 h -181 c -0.59677,-8e-6 -1.17081,-0.114197 -1.72214,-0.342552 -0.5513,-0.228363 -1.0379,-0.55352 -1.45987,-0.975472 -0.42196,-0.421959 -0.74713,-0.908592 -0.97546,-1.459907 C 326.11414,77.670761 325.99997,77.096733 326,76.5 v -21 c -3e-5,-0.596741 0.11414,-1.170769 0.34253,-1.72208 0.22833,-0.551316 0.5535,-1.037949 0.97546,-1.459904 0.42197,-0.421959 0.90857,-0.747116 1.45987,-0.975475 C 329.32919,51.114182 329.90323,51 330.5,51 Z"
       style="fill:#f5f5f5;fill-opacity:1;fill-rule:nonzero;stroke:#666666;stroke-width:1;stroke-linecap:butt;stroke-linejoin:miter;stroke-miterlimit:10;stroke-dasharray:none;stroke-opacity:1"
       transform="matrix(0.95833324,0,0,0.95833324,0.47916662,0.47916662)"
       clip-path="url(#clipPath18)" />
    <text
       id="text18"
       xml:space="preserve"
       transform="matrix(0.95834284,0,0,0.95834284,351.38239,69.000684)"
       clip-path="url(#clipPath19)"><tspan
         style="font-variant:normal;font-weight:normal;font-size:17px;font-family:Helvetica;writing-mode:lr-tb;fill:#333333;fill-opacity:1;fill-rule:nonzero;stroke:none"
         x="0 9.4545898 13.231445 21.731445 26.45459 31.177734 45.338867 54.793457 63.293457 71.793457 81.248047 90.702637 100.15723"
         y="0"
         sodipodi:role="line"
         id="tspan18">List messages</tspan></text>
    <path
       id="path20"
       d="m 330.5,81 h 181 c 0.59668,0 1.17065,0.114182 1.72198,0.342537 0.55134,0.228355 1.03797,0.55352 1.45997,0.975479 0.42193,0.421959 0.74707,0.908592 0.9754,1.4599 0.22839,0.551315 0.34259,1.125343 0.34265,1.722084 v 21 c -6e-5,0.59673 -0.11426,1.17075 -0.34265,1.72207 -0.22833,0.55131 -0.55347,1.03795 -0.9754,1.45991 -0.422,0.42195 -0.90863,0.74711 -1.45997,0.97547 -0.55133,0.22836 -1.1253,0.34254 -1.72198,0.34255 h -181 c -0.59677,-1e-5 -1.17081,-0.11419 -1.72214,-0.34255 -0.5513,-0.22836 -1.0379,-0.55352 -1.45987,-0.97547 -0.42196,-0.42196 -0.74713,-0.9086 -0.97546,-1.45991 C 326.11414,107.67075 325.99997,107.09673 326,106.5 v -21 c -3e-5,-0.596741 0.11414,-1.170769 0.34253,-1.722084 0.22833,-0.551308 0.5535,-1.037941 0.97546,-1.4599 0.42197,-0.421959 0.90857,-0.747124 1.45987,-0.975479 C 329.32919,81.114182 329.90323,81 330.5,81 Z"
       style="fill:#f5f5f5;fill-opacity:1;fill-rule:nonzero;stroke:#666666;stroke-width:1;stroke-linecap:butt;stroke-linejoin:miter;stroke-miterlimit:10;stroke-dasharray:none;stroke-opacity:1"
       transform="matrix(0.95833324,0,0,0.95833324,0.47916662,0.47916662)"
       clip-path="url(#clipPath21)" />
    <text
       id="text21"
       xml:space="preserve"
       transform="matrix(0.95834284,0,0,0.95834284,331.01761,97.75097)"
       clip-path="url(#clipPath22)"><tspan
         style="font-variant:normal;font-weight:normal;font-size:17px;font-family:Helvetica;writing-mode:lr-tb;fill:#333333;fill-opacity:1;fill-rule:nonzero;stroke:none"
         x="0 10.384277 14.161133 23.615723 33.070312 37.793457 51.95459 61.40918 69.90918 78.40918 87.86377 97.318359 106.77295 111.49609 120.95068 129.45068 134.17383 138.89697"
         y="0"
         sodipodi:role="line"
         id="tspan21">Find message by ID</tspan></text>
    <path
       id="path23"
       d="m 330.5,111 h 181 c 0.59668,0 1.17065,0.11418 1.72198,0.34254 0.55134,0.22835 1.03797,0.55352 1.45997,0.97548 0.42193,0.42195 0.74707,0.90858 0.9754,1.4599 0.22839,0.55131 0.34259,1.12534 0.34265,1.72208 v 21 c -6e-5,0.59672 -0.11426,1.17075 -0.34265,1.72206 -0.22833,0.55132 -0.55347,1.03795 -0.9754,1.45992 -0.422,0.42195 -0.90863,0.7471 -1.45997,0.97545 -0.55133,0.22837 -1.1253,0.34255 -1.72198,0.34257 h -181 c -0.59677,-2e-5 -1.17081,-0.1142 -1.72214,-0.34257 -0.5513,-0.22835 -1.0379,-0.5535 -1.45987,-0.97545 -0.42196,-0.42197 -0.74713,-0.9086 -0.97546,-1.45992 C 326.11414,137.67075 325.99997,137.09672 326,136.5 v -21 c -3e-5,-0.59674 0.11414,-1.17077 0.34253,-1.72208 0.22833,-0.55132 0.5535,-1.03795 0.97546,-1.4599 0.42197,-0.42196 0.90857,-0.74713 1.45987,-0.97548 C 329.32919,111.11418 329.90323,111 330.5,111 Z"
       style="fill:#f5f5f5;fill-opacity:1;fill-rule:nonzero;stroke:#666666;stroke-width:1;stroke-linecap:butt;stroke-linejoin:miter;stroke-miterlimit:10;stroke-dasharray:none;stroke-opacity:1"
       transform="matrix(0.95833324,0,0,0.95833324,0.47916662,0.47916662)"
       clip-path="url(#clipPath24)" />
    <text
       id="text24"
       xml:space="preserve"
       transform="matrix(0.95834284,0,0,0.95834284,353.64349,126.50125)"
       clip-path="url(#clipPath25)"><tspan
         style="font-variant:normal;font-weight:normal;font-size:17px;font-family:Helvetica;writing-mode:lr-tb;fill:#333333;fill-opacity:1;fill-rule:nonzero;stroke:none"
         x="0 11.338867 20.793457 30.248047 34.971191 49.132324 58.586914 67.086914 75.586914 85.041504 94.496094"
         y="0"
         sodipodi:role="line"
         id="tspan24">Add message</tspan></text>
    <path
       id="path26"
       d="m 201,61 h 85 v 70 h -85 z"
       style="fill:#f8cecc;fill-opacity:1;fill-rule:nonzero;stroke:#b85450;stroke-width:1;stroke-linecap:butt;stroke-linejoin:miter;stroke-miterlimit:10;stroke-dasharray:none;stroke-opacity:1"
       transform="matrix(0.95833324,0,0,0.95833324,0.47916662,0.47916662)"
       clip-path="url(#clipPath27)" />
    <text
       id="text27"
       xml:space="preserve"
       transform="matrix(0.95834284,0,0,0.95834284,196.31054,89.125884)"
       clip-path="url(#clipPath28)"><tspan
         style="font-variant:normal;font-weight:700;font-size:13px;font-family:Helvetica;writing-mode:lr-tb;fill:#000000;fill-opacity:1;fill-rule:nonzero;stroke:none"
         x="0 9.3881836 16.618164 24.559082 31.789062 39.72998 47.670898 54.900879 62.841797 70.071777"
         y="0"
         sodipodi:role="line"
         id="tspan27">Dependency</tspan></text>
    <text
       id="text28"
       xml:space="preserve"
       transform="matrix(0.95834284,0,0,0.95834284,207.73579,104.45937)"
       clip-path="url(#clipPath29)"><tspan
         style="font-variant:normal;font-weight:700;font-size:13px;font-family:Helvetica;writing-mode:lr-tb;fill:#000000;fill-opacity:1;fill-rule:nonzero;stroke:none"
         x="0 3.6118164 11.552734 15.164551 22.394531 29.624512 33.953613 37.56543 45.506348"
         y="0"
         sodipodi:role="line"
         id="tspan28">Injection</tspan></text>
  </g>
</svg>
