<?xml version="1.0" encoding="UTF-8" standalone="no"?>
<!-- Created with Inkscape (http://www.inkscape.org/) -->

<svg
   version="1.1"
   id="svg1"
   width="404.16"
   height="188.15999"
   viewBox="0 0 404.16 188.15999"
   sodipodi:docname="nest-1.pdf"
   xmlns:inkscape="http://www.inkscape.org/namespaces/inkscape"
   xmlns:sodipodi="http://sodipodi.sourceforge.net/DTD/sodipodi-0.dtd"
   xmlns="http://www.w3.org/2000/svg"
   xmlns:svg="http://www.w3.org/2000/svg">
  <defs
     id="defs1">
    <clipPath
       clipPathUnits="userSpaceOnUse"
       id="clipPath2">
      <path
         d="M 0,0 H 1262.5 V 586.37439 H 0 Z"
         transform="scale(0.33425743)"
         clip-rule="evenodd"
         id="path2" />
    </clipPath>
    <clipPath
       clipPathUnits="userSpaceOnUse"
       id="clipPath4">
      <path
         d="M 0,0 H 1262.5 V 580.39099 H 0 Z"
         transform="matrix(0.33425743,0,0,0.33425743,-0.50000001,-0.50000001)"
         clip-rule="evenodd"
         id="path4" />
    </clipPath>
    <clipPath
       clipPathUnits="userSpaceOnUse"
       id="clipPath6">
      <path
         d="M 0,0 H 1262.5 V 580.39099 H 0 Z"
         transform="matrix(0.33425743,0,0,0.33425743,-0.50000001,-0.50000001)"
         clip-rule="evenodd"
         id="path6" />
    </clipPath>
    <clipPath
       clipPathUnits="userSpaceOnUse"
       id="clipPath8">
      <path
         d="M 0,0 H 1262.5 V 580.39099 H 0 Z"
         transform="matrix(0.33425743,0,0,0.33425743,-0.50000001,-0.50000001)"
         clip-rule="evenodd"
         id="path8" />
    </clipPath>
    <clipPath
       clipPathUnits="userSpaceOnUse"
       id="clipPath9">
      <path
         d="M 0,0 H 1262.5 V 580.39099 H 0 Z"
         transform="matrix(0.33425407,0,0,0.33425407,-42.96875,-123)"
         clip-rule="evenodd"
         id="path9" />
    </clipPath>
    <clipPath
       clipPathUnits="userSpaceOnUse"
       id="clipPath10">
      <path
         d="M 0,0 H 1262.5 V 580.39099 H 0 Z"
         transform="matrix(0.33425407,0,0,0.33425407,-10.9375,-160)"
         clip-rule="evenodd"
         id="path10" />
    </clipPath>
    <clipPath
       clipPathUnits="userSpaceOnUse"
       id="clipPath11">
      <path
         d="M 0,0 H 1262.5 V 580.39099 H 0 Z"
         transform="matrix(0.33425407,0,0,0.33425407,-58.65625,-177)"
         clip-rule="evenodd"
         id="path11" />
    </clipPath>
    <clipPath
       clipPathUnits="userSpaceOnUse"
       id="clipPath13">
      <path
         d="M 0,0 H 1262.5 V 580.39099 H 0 Z"
         transform="matrix(0.33425743,0,0,0.33425743,-0.50000001,-0.50000001)"
         clip-rule="evenodd"
         id="path13" />
    </clipPath>
    <clipPath
       clipPathUnits="userSpaceOnUse"
       id="clipPath15">
      <path
         d="M 0,0 H 1262.5 V 580.39099 H 0 Z"
         transform="matrix(0.33425743,0,0,0.33425743,-0.50000001,-0.50000001)"
         clip-rule="evenodd"
         id="path15" />
    </clipPath>
    <clipPath
       clipPathUnits="userSpaceOnUse"
       id="clipPath16">
      <path
         d="M 0,0 H 1262.5 V 580.39099 H 0 Z"
         transform="matrix(0.33425407,0,0,0.33425407,-296.53126,-61)"
         clip-rule="evenodd"
         id="path16" />
    </clipPath>
    <clipPath
       clipPathUnits="userSpaceOnUse"
       id="clipPath18">
      <path
         d="M 0,0 H 1262.5 V 580.39099 H 0 Z"
         transform="matrix(0.33425743,0,0,0.33425743,-0.50000001,-0.50000001)"
         clip-rule="evenodd"
         id="path18" />
    </clipPath>
    <clipPath
       clipPathUnits="userSpaceOnUse"
       id="clipPath19">
      <path
         d="M 0,0 H 1262.5 V 580.39099 H 0 Z"
         transform="matrix(0.33425407,0,0,0.33425407,-312.48438,-100)"
         clip-rule="evenodd"
         id="path19" />
    </clipPath>
    <clipPath
       clipPathUnits="userSpaceOnUse"
       id="clipPath21">
      <path
         d="M 0,0 H 1262.5 V 580.39099 H 0 Z"
         transform="matrix(0.33425743,0,0,0.33425743,-0.50000001,-0.50000001)"
         clip-rule="evenodd"
         id="path21" />
    </clipPath>
    <clipPath
       clipPathUnits="userSpaceOnUse"
       id="clipPath22">
      <path
         d="M 0,0 H 1262.5 V 580.39099 H 0 Z"
         transform="matrix(0.33425407,0,0,0.33425407,-310.92189,-143)"
         clip-rule="evenodd"
         id="path22" />
    </clipPath>
    <clipPath
       clipPathUnits="userSpaceOnUse"
       id="clipPath24">
      <path
         d="M 0,0 H 1262.5 V 580.39099 H 0 Z"
         transform="matrix(0.33425743,0,0,0.33425743,-0.50000001,-0.50000001)"
         clip-rule="evenodd"
         id="path24" />
    </clipPath>
    <clipPath
       clipPathUnits="userSpaceOnUse"
       id="clipPath25">
      <path
         d="M 0,0 H 1262.5 V 580.39099 H 0 Z"
         transform="matrix(0.33425407,0,0,0.33425407,-299.25,-182)"
         clip-rule="evenodd"
         id="path25" />
    </clipPath>
    <clipPath
       clipPathUnits="userSpaceOnUse"
       id="clipPath26">
      <path
         d="M 0,0 H 1262.5 V 580.39099 H 0 Z"
         transform="matrix(0.33425407,0,0,0.33425407,-268.15625,-14)"
         clip-rule="evenodd"
         id="path26" />
    </clipPath>
    <clipPath
       clipPathUnits="userSpaceOnUse"
       id="clipPath27">
      <path
         d="M 0,0 H 1262.5 V 580.39099 H 0 Z"
         transform="matrix(0.33425407,0,0,0.33425407,-292.64063,-31)"
         clip-rule="evenodd"
         id="path27" />
    </clipPath>
  </defs>
  <sodipodi:namedview
     id="namedview1"
     pagecolor="#ffffff"
     bordercolor="#000000"
     borderopacity="0.25"
     inkscape:showpageshadow="2"
     inkscape:pageopacity="0.0"
     inkscape:pagecheckerboard="0"
     inkscape:deskcolor="#d1d1d1">
    <inkscape:page
       x="0"
       y="0"
       inkscape:label="1"
       id="page1"
       width="404.16"
       height="188.15999"
       margin="0"
       bleed="0" />
  </sodipodi:namedview>
  <g
     id="g1"
     inkscape:groupmode="layer"
     inkscape:label="1">
    <path
       id="path1"
       d="M 0,0 H 422 V 196 H 0 Z"
       style="fill:#ffffff;fill-opacity:1;fill-rule:nonzero;stroke:none"
       transform="scale(0.95734591)"
       clip-path="url(#clipPath2)" />
    <path
       id="path3"
       d="m 135,116 h 37.5 31.13"
       style="fill:none;stroke:#000000;stroke-width:1;stroke-linecap:butt;stroke-linejoin:miter;stroke-miterlimit:10;stroke-dasharray:none;stroke-opacity:1"
       transform="matrix(0.95734591,0,0,0.95734591,0.47867296,0.47867296)"
       clip-path="url(#clipPath4)" />
    <path
       id="path5"
       d="m 208.88,116 -7,3.5 1.75,-3.5 -1.75,-3.5 z"
       style="fill:#000000;fill-opacity:1;fill-rule:nonzero;stroke:#000000;stroke-width:1;stroke-linecap:butt;stroke-linejoin:miter;stroke-miterlimit:10;stroke-dasharray:none;stroke-opacity:1"
       transform="matrix(0.95734591,0,0,0.95734591,0.47867296,0.47867296)"
       clip-path="url(#clipPath6)" />
    <path
       id="path7"
       d="m 15,86 h 120 v 60 H 15 Z"
       style="fill:#dae8fc;fill-opacity:1;fill-rule:nonzero;stroke:#6c8ebf;stroke-width:1;stroke-linecap:butt;stroke-linejoin:miter;stroke-miterlimit:10;stroke-dasharray:none;stroke-opacity:1"
       transform="matrix(0.95734591,0,0,0.95734591,0.47867296,0.47867296)"
       clip-path="url(#clipPath8)" />
    <text
       id="text8"
       xml:space="preserve"
       transform="matrix(0.95735554,0,0,0.95735554,41.136371,117.75473)"
       clip-path="url(#clipPath9)"><tspan
         style="font-variant:normal;font-weight:700;font-size:18px;font-family:Helvetica;writing-mode:lr-tb;fill:#000000;fill-opacity:1;fill-rule:nonzero;stroke:none"
         x="0 12.005859 22.016602 29.021484 34.022461 44.033203 54.043945"
         y="0"
         sodipodi:role="line"
         id="tspan8">Serivce</tspan></text>
    <text
       id="text9"
       xml:space="preserve"
       transform="matrix(0.95735554,0,0,0.95735554,10.471076,153.17689)"
       clip-path="url(#clipPath10)"><tspan
         style="font-style:oblique;font-variant:normal;font-weight:700;font-size:14px;font-family:Helvetica;writing-mode:lr-tb;fill:#000000;fill-opacity:1;fill-rule:nonzero;stroke:none"
         x="0 12.967773 18.416016 26.202148 34.753906 42.540039 46.429688 54.981445 63.533203 67.422852 75.974609 84.526367 92.3125 96.202148 104.75391 112.54004 120.32617"
         y="0"
         sodipodi:role="line"
         id="tspan9">Wraps up business</tspan></text>
    <text
       id="text10"
       xml:space="preserve"
       transform="matrix(0.95735554,0,0,0.95735554,56.154886,169.45193)"
       clip-path="url(#clipPath11)"><tspan
         style="font-style:oblique;font-variant:normal;font-weight:700;font-size:14px;font-family:Helvetica;writing-mode:lr-tb;fill:#000000;fill-opacity:1;fill-rule:nonzero;stroke:none"
         x="0 3.8896484 12.441406 20.993164 24.882812"
         y="0"
         sodipodi:role="line"
         id="tspan10">logic</tspan></text>
    <path
       id="path12"
       d="m 230,41 h -5 c -3.33333,0 -5,3.333332 -5,10 v 54.5 c 0,6.66666 -1.66667,10 -5,10 h -2.5 c -1.66667,0 -0.83333,0 2.5,0 h 2.5 c 1.66667,0 2.5,3.33334 2.5,10 V 180 c 0,6.66667 1.66667,10 5,10 h 5"
       style="fill:none;stroke:#000000;stroke-width:1;stroke-linecap:butt;stroke-linejoin:miter;stroke-miterlimit:10;stroke-dasharray:none;stroke-opacity:1"
       transform="matrix(0.95734591,0,0,0.95734591,0.47867296,0.47867296)"
       clip-path="url(#clipPath13)" />
    <path
       id="path14"
       d="M 240,41 H 420 V 70 H 240 Z"
       style="fill:#f5f5f5;fill-opacity:1;fill-rule:nonzero;stroke:#666666;stroke-width:1;stroke-linecap:butt;stroke-linejoin:miter;stroke-miterlimit:10;stroke-dasharray:none;stroke-opacity:1"
       transform="matrix(0.95734591,0,0,0.95734591,0.47867296,0.47867296)"
       clip-path="url(#clipPath15)" />
    <text
       id="text15"
       xml:space="preserve"
       transform="matrix(0.95735554,0,0,0.95735554,283.88584,58.398688)"
       clip-path="url(#clipPath16)"><tspan
         style="font-variant:normal;font-weight:normal;font-size:14px;font-family:Helvetica;writing-mode:lr-tb;fill:#333333;fill-opacity:1;fill-rule:nonzero;stroke:none"
         x="0 10.110352 17.896484 25.682617 33.46875 40.46875 43.579102 47.46875 55.254883 59.916992"
         y="0"
         sodipodi:role="line"
         id="tspan15">Repository</tspan></text>
    <path
       id="path17"
       d="m 240,80 h 180 v 29 H 240 Z"
       style="fill:#f5f5f5;fill-opacity:1;fill-rule:nonzero;stroke:#666666;stroke-width:1;stroke-linecap:butt;stroke-linejoin:miter;stroke-miterlimit:10;stroke-dasharray:none;stroke-opacity:1"
       transform="matrix(0.95734591,0,0,0.95734591,0.47867296,0.47867296)"
       clip-path="url(#clipPath18)" />
    <text
       id="text18"
       xml:space="preserve"
       transform="matrix(0.95735554,0,0,0.95735554,299.15865,95.735554)"
       clip-path="url(#clipPath19)"><tspan
         style="font-variant:normal;font-weight:normal;font-size:14px;font-family:Helvetica;writing-mode:lr-tb;fill:#333333;fill-opacity:1;fill-rule:nonzero;stroke:none"
         x="0 9.3378906 17.124023 21.013672 24.124023 28.013672"
         y="0"
         sodipodi:role="line"
         id="tspan18">Entity</tspan></text>
    <path
       id="path20"
       d="m 240,123 h 180 v 29 H 240 Z"
       style="fill:#f5f5f5;fill-opacity:1;fill-rule:nonzero;stroke:#666666;stroke-width:1;stroke-linecap:butt;stroke-linejoin:miter;stroke-miterlimit:10;stroke-dasharray:none;stroke-opacity:1"
       transform="matrix(0.95734591,0,0,0.95734591,0.47867296,0.47867296)"
       clip-path="url(#clipPath21)" />
    <text
       id="text21"
       xml:space="preserve"
       transform="matrix(0.95735554,0,0,0.95735554,297.66279,136.90184)"
       clip-path="url(#clipPath22)"><tspan
         style="font-variant:normal;font-weight:normal;font-size:14px;font-family:Helvetica;writing-mode:lr-tb;fill:#333333;fill-opacity:1;fill-rule:nonzero;stroke:none"
         x="0 11.662109 19.448242 27.234375 35.020508"
         y="0"
         sodipodi:role="line"
         id="tspan21">Model</tspan></text>
    <path
       id="path23"
       d="m 240,162.5 h 180 v 29 H 240 Z"
       style="fill:#f5f5f5;fill-opacity:1;fill-rule:nonzero;stroke:#666666;stroke-width:1;stroke-linecap:butt;stroke-linejoin:miter;stroke-miterlimit:10;stroke-dasharray:none;stroke-opacity:1"
       transform="matrix(0.95734591,0,0,0.95734591,0.47867296,0.47867296)"
       clip-path="url(#clipPath24)" />
    <text
       id="text24"
       xml:space="preserve"
       transform="matrix(0.95735554,0,0,0.95735554,286.48865,174.23871)"
       clip-path="url(#clipPath25)"><tspan
         style="font-variant:normal;font-weight:normal;font-size:14px;font-family:Helvetica;writing-mode:lr-tb;fill:#333333;fill-opacity:1;fill-rule:nonzero;stroke:none"
         x="0 10.110352 17.896484 21.006836 24.117188 31.90332 38.90332 42.792969 45.90332 53.689453"
         y="0"
         sodipodi:role="line"
         id="tspan24">Collection</tspan></text>
    <text
       id="text25"
       xml:space="preserve"
       transform="matrix(0.95735554,0,0,0.95735554,256.72087,13.402978)"
       clip-path="url(#clipPath26)"><tspan
         style="font-style:oblique;font-variant:normal;font-weight:700;font-size:14px;font-family:Helvetica;writing-mode:lr-tb;fill:#000000;fill-opacity:1;fill-rule:nonzero;stroke:none"
         x="0 8.5517578 17.103516 20.993164 29.544922 38.09668 41.986328 46.648438 55.200195 62.986328 67.648438 71.538086 79.324219 87.110352 91.772461 100.32422 108.11035 112 115.88965"
         y="0"
         sodipodi:role="line"
         id="tspan25">Thing that actually</tspan></text>
    <text
       id="text26"
       xml:space="preserve"
       transform="matrix(0.95735554,0,0,0.95735554,280.16113,29.678022)"
       clip-path="url(#clipPath27)"><tspan
         style="font-style:oblique;font-variant:normal;font-weight:700;font-size:14px;font-family:Helvetica;writing-mode:lr-tb;fill:#000000;fill-opacity:1;fill-rule:nonzero;stroke:none"
         x="0 7.7861328 12.448242 21 26.448242 34.234375 42.020508 45.910156 54.461914 62.248047 66.910156"
         y="0"
         sodipodi:role="line"
         id="tspan26">stores data</tspan></text>
  </g>
</svg>
