<?xml version="1.0" encoding="UTF-8" standalone="no"?>
<!-- Created with Inkscape (http://www.inkscape.org/) -->

<svg
   version="1.1"
   id="svg1"
   width="338.56"
   height="262.72"
   viewBox="0 0 338.56 262.72"
   sodipodi:docname="nest-8.pdf"
   xmlns:inkscape="http://www.inkscape.org/namespaces/inkscape"
   xmlns:sodipodi="http://sodipodi.sourceforge.net/DTD/sodipodi-0.dtd"
   xmlns="http://www.w3.org/2000/svg"
   xmlns:svg="http://www.w3.org/2000/svg">
  <defs
     id="defs1">
    <clipPath
       clipPathUnits="userSpaceOnUse"
       id="clipPath2">
      <path
         d="M 0,0 H 1058.3333 V 819.16187 H 0 Z"
         transform="scale(0.33448822)"
         clip-rule="evenodd"
         id="path2" />
    </clipPath>
    <clipPath
       clipPathUnits="userSpaceOnUse"
       id="clipPath3">
      <path
         d="M 0,0 H 1058.3333 V 813.18262 H 0 Z"
         transform="matrix(0.33448486,0,0,0.33448486,-40.484375,-27)"
         clip-rule="evenodd"
         id="path3" />
    </clipPath>
    <clipPath
       clipPathUnits="userSpaceOnUse"
       id="clipPath5">
      <path
         d="M 0,0 H 1058.3333 V 813.18262 H 0 Z"
         transform="matrix(0.33448822,0,0,0.33448822,-0.49999999,-0.49999999)"
         clip-rule="evenodd"
         id="path5" />
    </clipPath>
    <clipPath
       clipPathUnits="userSpaceOnUse"
       id="clipPath6">
      <path
         d="M 0,0 H 1058.3333 V 813.18262 H 0 Z"
         transform="matrix(0.33448486,0,0,0.33448486,-11.828125,-131)"
         clip-rule="evenodd"
         id="path6" />
    </clipPath>
    <clipPath
       clipPathUnits="userSpaceOnUse"
       id="clipPath8">
      <path
         d="M 0,0 H 1058.3333 V 813.18262 H 0 Z"
         transform="matrix(0.33448822,0,0,0.33448822,-0.49999999,-0.49999999)"
         clip-rule="evenodd"
         id="path8" />
    </clipPath>
    <clipPath
       clipPathUnits="userSpaceOnUse"
       id="clipPath9">
      <path
         d="M 0,0 H 1058.3333 V 813.18262 H 0 Z"
         transform="matrix(0.33448486,0,0,0.33448486,-48.484375,-122)"
         clip-rule="evenodd"
         id="path9" />
    </clipPath>
    <clipPath
       clipPathUnits="userSpaceOnUse"
       id="clipPath10">
      <path
         d="M 0,0 H 1058.3333 V 813.18262 H 0 Z"
         transform="matrix(0.33448486,0,0,0.33448486,-159.3125,-140)"
         clip-rule="evenodd"
         id="path10" />
    </clipPath>
    <clipPath
       clipPathUnits="userSpaceOnUse"
       id="clipPath12">
      <path
         d="M 0,0 H 1058.3333 V 813.18262 H 0 Z"
         transform="matrix(0.33448822,0,0,0.33448822,-0.49999999,-0.49999999)"
         clip-rule="evenodd"
         id="path12" />
    </clipPath>
    <clipPath
       clipPathUnits="userSpaceOnUse"
       id="clipPath13">
      <path
         d="M 0,0 H 1058.3333 V 813.18262 H 0 Z"
         transform="matrix(0.33448486,0,0,0.33448486,-11.828125,-71)"
         clip-rule="evenodd"
         id="path13" />
    </clipPath>
    <clipPath
       clipPathUnits="userSpaceOnUse"
       id="clipPath15">
      <path
         d="M 0,0 H 1058.3333 V 813.18262 H 0 Z"
         transform="matrix(0.33448822,0,0,0.33448822,-0.49999999,-0.49999999)"
         clip-rule="evenodd"
         id="path15" />
    </clipPath>
    <clipPath
       clipPathUnits="userSpaceOnUse"
       id="clipPath16">
      <path
         d="M 0,0 H 1058.3333 V 813.18262 H 0 Z"
         transform="matrix(0.33448486,0,0,0.33448486,-60.078125,-62)"
         clip-rule="evenodd"
         id="path16" />
    </clipPath>
    <clipPath
       clipPathUnits="userSpaceOnUse"
       id="clipPath17">
      <path
         d="M 0,0 H 1058.3333 V 813.18262 H 0 Z"
         transform="matrix(0.33448486,0,0,0.33448486,-144.71875,-79.999999)"
         clip-rule="evenodd"
         id="path17" />
    </clipPath>
    <clipPath
       clipPathUnits="userSpaceOnUse"
       id="clipPath19">
      <path
         d="M 0,0 H 1058.3333 V 813.18262 H 0 Z"
         transform="matrix(0.33448822,0,0,0.33448822,-0.49999999,-0.49999999)"
         clip-rule="evenodd"
         id="path19" />
    </clipPath>
    <clipPath
       clipPathUnits="userSpaceOnUse"
       id="clipPath20">
      <path
         d="M 0,0 H 1058.3333 V 813.18262 H 0 Z"
         transform="matrix(0.33448486,0,0,0.33448486,-11.828125,-191)"
         clip-rule="evenodd"
         id="path20" />
    </clipPath>
    <clipPath
       clipPathUnits="userSpaceOnUse"
       id="clipPath22">
      <path
         d="M 0,0 H 1058.3333 V 813.18262 H 0 Z"
         transform="matrix(0.33448822,0,0,0.33448822,-0.49999999,-0.49999999)"
         clip-rule="evenodd"
         id="path22" />
    </clipPath>
    <clipPath
       clipPathUnits="userSpaceOnUse"
       id="clipPath23">
      <path
         d="M 0,0 H 1058.3333 V 813.18262 H 0 Z"
         transform="matrix(0.33448486,0,0,0.33448486,-44.484375,-182)"
         clip-rule="evenodd"
         id="path23" />
    </clipPath>
    <clipPath
       clipPathUnits="userSpaceOnUse"
       id="clipPath24">
      <path
         d="M 0,0 H 1058.3333 V 813.18262 H 0 Z"
         transform="matrix(0.33448486,0,0,0.33448486,-160.14062,-200)"
         clip-rule="evenodd"
         id="path24" />
    </clipPath>
    <clipPath
       clipPathUnits="userSpaceOnUse"
       id="clipPath26">
      <path
         d="M 0,0 H 1058.3333 V 813.18262 H 0 Z"
         transform="matrix(0.33448822,0,0,0.33448822,-0.49999999,-0.49999999)"
         clip-rule="evenodd"
         id="path26" />
    </clipPath>
    <clipPath
       clipPathUnits="userSpaceOnUse"
       id="clipPath27">
      <path
         d="M 0,0 H 1058.3333 V 813.18262 H 0 Z"
         transform="matrix(0.33448486,0,0,0.33448486,-11.828125,-251)"
         clip-rule="evenodd"
         id="path27" />
    </clipPath>
    <clipPath
       clipPathUnits="userSpaceOnUse"
       id="clipPath29">
      <path
         d="M 0,0 H 1058.3333 V 813.18262 H 0 Z"
         transform="matrix(0.33448822,0,0,0.33448822,-0.49999999,-0.49999999)"
         clip-rule="evenodd"
         id="path29" />
    </clipPath>
    <clipPath
       clipPathUnits="userSpaceOnUse"
       id="clipPath30">
      <path
         d="M 0,0 H 1058.3333 V 813.18262 H 0 Z"
         transform="matrix(0.33448486,0,0,0.33448486,-40.0625,-242)"
         clip-rule="evenodd"
         id="path30" />
    </clipPath>
    <clipPath
       clipPathUnits="userSpaceOnUse"
       id="clipPath31">
      <path
         d="M 0,0 H 1058.3333 V 813.18262 H 0 Z"
         transform="matrix(0.33448486,0,0,0.33448486,-120.53125,-260)"
         clip-rule="evenodd"
         id="path31" />
    </clipPath>
  </defs>
  <sodipodi:namedview
     id="namedview1"
     pagecolor="#ffffff"
     bordercolor="#000000"
     borderopacity="0.25"
     inkscape:showpageshadow="2"
     inkscape:pageopacity="0.0"
     inkscape:pagecheckerboard="0"
     inkscape:deskcolor="#d1d1d1">
    <inkscape:page
       x="0"
       y="0"
       inkscape:label="1"
       id="page1"
       width="338.56"
       height="262.72"
       margin="0"
       bleed="0" />
  </sodipodi:namedview>
  <g
     id="g1"
     inkscape:groupmode="layer"
     inkscape:label="1">
    <path
       id="path1"
       d="M 0,0 H 354 V 274 H 0 Z"
       style="fill:#ffffff;fill-opacity:1;fill-rule:nonzero;stroke:none"
       transform="scale(0.95668537)"
       clip-path="url(#clipPath2)" />
    <text
       id="text2"
       xml:space="preserve"
       transform="matrix(0.95669497,0,0,0.95669497,38.731198,25.830764)"
       clip-path="url(#clipPath3)"><tspan
         style="font-variant:normal;font-weight:700;font-size:18px;font-family:Helvetica;writing-mode:lr-tb;fill:#000000;fill-opacity:1;fill-rule:nonzero;stroke:none"
         x="0 12.005859 22.016602 28.010742 34.004883 39.005859 50.000977 60.996094 65.99707 78.996094 89.991211 94.992188 107.99121 118.00195 128.99707 139.00781 150.00293 160.99805 171.00879 182.00391 192.01465 202.02539 207.02637 212.02734 223.02246 228.02344 238.03418 248.04492 254.03906 259.04004 270.03516"
         y="0"
         sodipodi:role="line"
         id="tspan2">Setting Up Dependency Injection</tspan></text>
    <path
       id="path4"
       d="m 1,100 h 30 v 50 H 1 Z"
       style="fill:#dae8fc;fill-opacity:1;fill-rule:nonzero;stroke:#6c8ebf;stroke-width:1;stroke-linecap:butt;stroke-linejoin:miter;stroke-miterlimit:10;stroke-dasharray:none;stroke-opacity:1"
       transform="matrix(0.95668537,0,0,0.95668537,0.47834268,0.47834268)"
       clip-path="url(#clipPath5)" />
    <text
       id="text5"
       xml:space="preserve"
       transform="matrix(0.95669497,0,0,0.95669497,11.315908,125.32704)"
       clip-path="url(#clipPath6)"><tspan
         style="font-variant:normal;font-weight:normal;font-size:15px;font-family:Helvetica;writing-mode:lr-tb;fill:#000000;fill-opacity:1;fill-rule:nonzero;stroke:none"
         x="0"
         y="0"
         id="tspan5">2</tspan></text>
    <path
       id="path7"
       d="m 31,100 h 320 v 50 H 31 Z"
       style="fill:#ffffff;fill-opacity:1;fill-rule:nonzero;stroke:#000000;stroke-width:1;stroke-linecap:butt;stroke-linejoin:miter;stroke-miterlimit:10;stroke-dasharray:none;stroke-opacity:1"
       transform="matrix(0.95668537,0,0,0.95668537,0.47834268,0.47834268)"
       clip-path="url(#clipPath8)" />
    <text
       id="text8"
       xml:space="preserve"
       transform="matrix(0.95669497,0,0,0.95669497,46.384758,116.71679)"
       clip-path="url(#clipPath9)"><tspan
         style="font-variant:normal;font-weight:normal;font-size:15px;font-family:Helvetica;writing-mode:lr-tb;fill:#000000;fill-opacity:1;fill-rule:nonzero;stroke:none"
         x="0 12.495117 20.837402 25.83252 33.33252 37.5 41.66748 50.009766 58.352051 62.519531 70.861816 75.856934 84.199219 91.699219 95.031738 103.37402 111.71631 116.71143 120.87891 128.37891 131.71143 140.05371 147.55371 155.05371 159.22119 170.05371 173.38623 177.55371 185.896 190.06348 194.23096 202.57324 210.91553 215.08301 217.94678 222.11426 230.45654 233.78906 242.13135 249.63135 253.79883 262.14111 270.4834 273.81592 282.1582"
         y="0"
         sodipodi:role="line"
         id="tspan8">Mark the provider class with the 'Injectable'</tspan></text>
    <text
       id="text9"
       xml:space="preserve"
       transform="matrix(0.95669497,0,0,0.95669497,152.41347,133.9373)"
       clip-path="url(#clipPath10)"><tspan
         style="font-variant:normal;font-weight:normal;font-size:15px;font-family:Helvetica;writing-mode:lr-tb;fill:#000000;fill-opacity:1;fill-rule:nonzero;stroke:none"
         x="0 8.3422852 16.68457 24.18457 32.526855 37.521973 45.864258 50.031738 58.374023"
         y="0"
         sodipodi:role="line"
         id="tspan9">decorator</tspan></text>
    <path
       id="path11"
       d="M 1,40 H 31 V 90 H 1 Z"
       style="fill:#dae8fc;fill-opacity:1;fill-rule:nonzero;stroke:#6c8ebf;stroke-width:1;stroke-linecap:butt;stroke-linejoin:miter;stroke-miterlimit:10;stroke-dasharray:none;stroke-opacity:1"
       transform="matrix(0.95668537,0,0,0.95668537,0.47834268,0.47834268)"
       clip-path="url(#clipPath12)" />
    <text
       id="text12"
       xml:space="preserve"
       transform="matrix(0.95669497,0,0,0.95669497,11.315908,67.925343)"
       clip-path="url(#clipPath13)"><tspan
         style="font-variant:normal;font-weight:normal;font-size:15px;font-family:Helvetica;writing-mode:lr-tb;fill:#000000;fill-opacity:1;fill-rule:nonzero;stroke:none"
         x="0"
         y="0"
         id="tspan12">1</tspan></text>
    <path
       id="path14"
       d="M 31,40 H 351 V 90 H 31 Z"
       style="fill:#ffffff;fill-opacity:1;fill-rule:nonzero;stroke:#000000;stroke-width:1;stroke-linecap:butt;stroke-linejoin:miter;stroke-miterlimit:10;stroke-dasharray:none;stroke-opacity:1"
       transform="matrix(0.95668537,0,0,0.95668537,0.47834268,0.47834268)"
       clip-path="url(#clipPath15)" />
    <text
       id="text15"
       xml:space="preserve"
       transform="matrix(0.95669497,0,0,0.95669497,57.47644,59.315088)"
       clip-path="url(#clipPath16)"><tspan
         style="font-variant:normal;font-weight:normal;font-size:15px;font-family:Helvetica;writing-mode:lr-tb;fill:#000000;fill-opacity:1;fill-rule:nonzero;stroke:none"
         x="0 10.83252 19.174805 23.342285 31.68457 36.679688 49.174805 52.507324 60.849609 69.191895 73.359375 77.526855 85.869141 94.211426 98.378906 106.72119 115.06348 123.40576 131.74805 140.09033 148.43262 156.7749 165.11719 169.28467 173.45215 180.95215 184.28467 192.62695 200.12695 207.62695 211.79443 220.13672 228.479 236.82129 240.98877 245.15625 253.49854"
         y="0"
         sodipodi:role="line"
         id="tspan15">Determine the dependent class and the</tspan></text>
    <text
       id="text16"
       xml:space="preserve"
       transform="matrix(0.95669497,0,0,0.95669497,138.4517,76.535597)"
       clip-path="url(#clipPath17)"><tspan
         style="font-variant:normal;font-weight:normal;font-size:15px;font-family:Helvetica;writing-mode:lr-tb;fill:#000000;fill-opacity:1;fill-rule:nonzero;stroke:none"
         x="0 8.3422852 13.337402 21.679688 29.179688 32.512207 40.854492 49.196777 54.191895 58.359375 65.859375 69.191895 77.53418 85.03418"
         y="0"
         sodipodi:role="line"
         id="tspan16">provider class</tspan></text>
    <path
       id="path18"
       d="m 1,160 h 30 v 50 H 1 Z"
       style="fill:#dae8fc;fill-opacity:1;fill-rule:nonzero;stroke:#6c8ebf;stroke-width:1;stroke-linecap:butt;stroke-linejoin:miter;stroke-miterlimit:10;stroke-dasharray:none;stroke-opacity:1"
       transform="matrix(0.95668537,0,0,0.95668537,0.47834268,0.47834268)"
       clip-path="url(#clipPath19)" />
    <text
       id="text19"
       xml:space="preserve"
       transform="matrix(0.95669497,0,0,0.95669497,11.315908,182.72874)"
       clip-path="url(#clipPath20)"><tspan
         style="font-variant:normal;font-weight:normal;font-size:15px;font-family:Helvetica;writing-mode:lr-tb;fill:#000000;fill-opacity:1;fill-rule:nonzero;stroke:none"
         x="0"
         y="0"
         id="tspan19">3</tspan></text>
    <path
       id="path21"
       d="m 31,160 h 320 v 50 H 31 Z"
       style="fill:#ffffff;fill-opacity:1;fill-rule:nonzero;stroke:#000000;stroke-width:1;stroke-linecap:butt;stroke-linejoin:miter;stroke-miterlimit:10;stroke-dasharray:none;stroke-opacity:1"
       transform="matrix(0.95668537,0,0,0.95668537,0.47834268,0.47834268)"
       clip-path="url(#clipPath22)" />
    <text
       id="text22"
       xml:space="preserve"
       transform="matrix(0.95669497,0,0,0.95669497,42.557978,174.11848)"
       clip-path="url(#clipPath23)"><tspan
         style="font-variant:normal;font-weight:normal;font-size:15px;font-family:Helvetica;writing-mode:lr-tb;fill:#000000;fill-opacity:1;fill-rule:nonzero;stroke:none"
         x="0 10.004883 18.347168 26.689453 30.856934 35.024414 43.366699 51.708984 55.876465 64.21875 69.213867 77.556152 85.056152 88.388672 96.730957 105.07324 110.06836 114.23584 121.73584 125.06836 133.41064 140.91064 148.41064 152.57812 156.74561 165.08789 169.25537 173.42285 181.76514 190.10742 194.2749 206.77002 215.1123 223.45459 231.79688 235.12939 243.47168 246.33545 253.83545 258.00293 261.33545 264.66797 272.16797 276.33545 280.50293 288.84521"
         y="0"
         sodipodi:role="line"
         id="tspan22">Add the provider class to the module's list of</tspan></text>
    <text
       id="text23"
       xml:space="preserve"
       transform="matrix(0.95669497,0,0,0.95669497,153.20573,191.33899)"
       clip-path="url(#clipPath24)"><tspan
         style="font-variant:normal;font-weight:normal;font-size:15px;font-family:Helvetica;writing-mode:lr-tb;fill:#000000;fill-opacity:1;fill-rule:nonzero;stroke:none"
         x="0 8.3422852 13.337402 21.679688 29.179688 32.512207 40.854492 49.196777 54.191895"
         y="0"
         sodipodi:role="line"
         id="tspan23">providers</tspan></text>
    <path
       id="path25"
       d="m 1,220 h 30 v 50 H 1 Z"
       style="fill:#dae8fc;fill-opacity:1;fill-rule:nonzero;stroke:#6c8ebf;stroke-width:1;stroke-linecap:butt;stroke-linejoin:miter;stroke-miterlimit:10;stroke-dasharray:none;stroke-opacity:1"
       transform="matrix(0.95668537,0,0,0.95668537,0.47834268,0.47834268)"
       clip-path="url(#clipPath26)" />
    <text
       id="text26"
       xml:space="preserve"
       transform="matrix(0.95669497,0,0,0.95669497,11.315908,240.13044)"
       clip-path="url(#clipPath27)"><tspan
         style="font-variant:normal;font-weight:normal;font-size:15px;font-family:Helvetica;writing-mode:lr-tb;fill:#000000;fill-opacity:1;fill-rule:nonzero;stroke:none"
         x="0"
         y="0"
         id="tspan26">4</tspan></text>
    <path
       id="path28"
       d="m 31,220 h 320 v 50 H 31 Z"
       style="fill:#ffffff;fill-opacity:1;fill-rule:nonzero;stroke:#000000;stroke-width:1;stroke-linecap:butt;stroke-linejoin:miter;stroke-miterlimit:10;stroke-dasharray:none;stroke-opacity:1"
       transform="matrix(0.95668537,0,0,0.95668537,0.47834268,0.47834268)"
       clip-path="url(#clipPath29)" />
    <text
       id="text29"
       xml:space="preserve"
       transform="matrix(0.95669497,0,0,0.95669497,38.327592,231.52018)"
       clip-path="url(#clipPath30)"><tspan
         style="font-variant:normal;font-weight:normal;font-size:15px;font-family:Helvetica;writing-mode:lr-tb;fill:#000000;fill-opacity:1;fill-rule:nonzero;stroke:none"
         x="0 10.004883 18.347168 26.689453 30.856934 39.199219 43.366699 50.866699 59.208984 67.55127 75.05127 79.21875 84.213867 92.556152 100.05615 104.22363 112.56592 117.56104 121.72852 125.896 134.23828 138.40576 142.57324 150.91553 159.25781 163.42529 171.76758 180.10986 188.45215 196.79443 205.13672 213.479 221.82129 230.16357 234.33105 238.49854 245.99854 249.33105 257.67334 265.17334 272.67334 276.84082 281.0083 289.35059 297.69287"
         y="0"
         sodipodi:role="line"
         id="tspan29">Add a constructor to the dependent class that</tspan></text>
    <text
       id="text30"
       xml:space="preserve"
       transform="matrix(0.95669497,0,0,0.95669497,115.31164,248.74069)"
       clip-path="url(#clipPath31)"><tspan
         style="font-variant:normal;font-weight:normal;font-size:15px;font-family:Helvetica;writing-mode:lr-tb;fill:#000000;fill-opacity:1;fill-rule:nonzero;stroke:none"
         x="0 4.9951172 13.337402 21.679688 30.021973 38.364258 45.864258 50.031738 57.531738 61.699219 65.866699 74.208984 82.55127 86.71875 95.061035 100.05615 108.39844 115.89844 119.23096 127.57324 135.91553"
         y="0"
         sodipodi:role="line"
         id="tspan30">requests the provider</tspan></text>
  </g>
</svg>
