<?xml version="1.0" encoding="UTF-8" standalone="no"?>
<!-- Created with Inkscape (http://www.inkscape.org/) -->

<svg
   version="1.1"
   id="svg1"
   width="309.44"
   height="165.43999"
   viewBox="0 0 309.44 165.43999"
   sodipodi:docname="nest-2.pdf"
   xmlns:inkscape="http://www.inkscape.org/namespaces/inkscape"
   xmlns:sodipodi="http://sodipodi.sourceforge.net/DTD/sodipodi-0.dtd"
   xmlns="http://www.w3.org/2000/svg"
   xmlns:svg="http://www.w3.org/2000/svg">
  <defs
     id="defs1">
    <clipPath
       clipPathUnits="userSpaceOnUse"
       id="clipPath2">
      <path
         d="M 0,0 H 966.66656 V 516.15222 H 0 Z"
         transform="scale(0.33517244)"
         clip-rule="evenodd"
         id="path2" />
    </clipPath>
    <clipPath
       clipPathUnits="userSpaceOnUse"
       id="clipPath4">
      <path
         d="M 0,0 H 966.66656 V 513.1687 H 0 Z"
         transform="matrix(0.33517244,0,0,0.33517244,-0.49999999,-0.49999999)"
         clip-rule="evenodd"
         id="path4" />
    </clipPath>
    <clipPath
       clipPathUnits="userSpaceOnUse"
       id="clipPath5">
      <path
         d="M 0,0 H 966.66656 V 513.1687 H 0 Z"
         transform="matrix(0.33516909,0,0,0.33516909,-30.484375,-71)"
         clip-rule="evenodd"
         id="path5" />
    </clipPath>
    <clipPath
       clipPathUnits="userSpaceOnUse"
       id="clipPath6">
      <path
         d="M 0,0 H 966.66656 V 513.1687 H 0 Z"
         transform="matrix(0.33516909,0,0,0.33516909,-28.96875,-93.000001)"
         clip-rule="evenodd"
         id="path6" />
    </clipPath>
    <clipPath
       clipPathUnits="userSpaceOnUse"
       id="clipPath8">
      <path
         d="M 0,0 H 966.66656 V 513.1687 H 0 Z"
         transform="matrix(0.33517244,0,0,0.33517244,-0.49999999,-0.49999999)"
         clip-rule="evenodd"
         id="path8" />
    </clipPath>
    <clipPath
       clipPathUnits="userSpaceOnUse"
       id="clipPath10">
      <path
         d="M 0,0 H 966.66656 V 513.1687 H 0 Z"
         transform="matrix(0.33517244,0,0,0.33517244,-0.49999999,-0.49999999)"
         clip-rule="evenodd"
         id="path10" />
    </clipPath>
    <clipPath
       clipPathUnits="userSpaceOnUse"
       id="clipPath12">
      <path
         d="M 0,0 H 966.66656 V 513.1687 H 0 Z"
         transform="matrix(0.33517244,0,0,0.33517244,-0.49999999,-0.49999999)"
         clip-rule="evenodd"
         id="path12" />
    </clipPath>
    <clipPath
       clipPathUnits="userSpaceOnUse"
       id="clipPath13">
      <path
         d="M 0,0 H 966.66656 V 513.1687 H 0 Z"
         transform="matrix(0.33516909,0,0,0.33516909,-221.98438,-27)"
         clip-rule="evenodd"
         id="path13" />
    </clipPath>
    <clipPath
       clipPathUnits="userSpaceOnUse"
       id="clipPath14">
      <path
         d="M 0,0 H 966.66656 V 513.1687 H 0 Z"
         transform="matrix(0.33516909,0,0,0.33516909,-213.98438,-49)"
         clip-rule="evenodd"
         id="path14" />
    </clipPath>
    <clipPath
       clipPathUnits="userSpaceOnUse"
       id="clipPath16">
      <path
         d="M 0,0 H 966.66656 V 513.1687 H 0 Z"
         transform="matrix(0.33517244,0,0,0.33517244,-0.49999999,-0.49999999)"
         clip-rule="evenodd"
         id="path16" />
    </clipPath>
    <clipPath
       clipPathUnits="userSpaceOnUse"
       id="clipPath18">
      <path
         d="M 0,0 H 966.66656 V 513.1687 H 0 Z"
         transform="matrix(0.33517244,0,0,0.33517244,-0.49999999,-0.49999999)"
         clip-rule="evenodd"
         id="path18" />
    </clipPath>
    <clipPath
       clipPathUnits="userSpaceOnUse"
       id="clipPath20">
      <path
         d="M 0,0 H 966.66656 V 513.1687 H 0 Z"
         transform="matrix(0.33517244,0,0,0.33517244,-0.49999999,-0.49999999)"
         clip-rule="evenodd"
         id="path20" />
    </clipPath>
    <clipPath
       clipPathUnits="userSpaceOnUse"
       id="clipPath21">
      <path
         d="M 0,0 H 966.66656 V 513.1687 H 0 Z"
         transform="matrix(0.33516909,0,0,0.33516909,-222,-111)"
         clip-rule="evenodd"
         id="path21" />
    </clipPath>
    <clipPath
       clipPathUnits="userSpaceOnUse"
       id="clipPath22">
      <path
         d="M 0,0 H 966.66656 V 513.1687 H 0 Z"
         transform="matrix(0.33516909,0,0,0.33516909,-213.98438,-133)"
         clip-rule="evenodd"
         id="path22" />
    </clipPath>
    <clipPath
       clipPathUnits="userSpaceOnUse"
       id="clipPath23">
      <path
         d="M 0,0 H 966.66656 V 513.1687 H 0 Z"
         transform="matrix(0.33516909,0,0,0.33516909,-29.484376,-116.00001)"
         clip-rule="evenodd"
         id="path23" />
    </clipPath>
    <clipPath
       clipPathUnits="userSpaceOnUse"
       id="clipPath24">
      <path
         d="M 0,0 H 966.66656 V 513.1687 H 0 Z"
         transform="matrix(0.33516909,0,0,0.33516909,-3.796875,-133)"
         clip-rule="evenodd"
         id="path24" />
    </clipPath>
    <clipPath
       clipPathUnits="userSpaceOnUse"
       id="clipPath25">
      <path
         d="M 0,0 H 966.66656 V 513.1687 H 0 Z"
         transform="matrix(0.33516909,0,0,0.33516909,-19.75,-150)"
         clip-rule="evenodd"
         id="path25" />
    </clipPath>
    <clipPath
       clipPathUnits="userSpaceOnUse"
       id="clipPath26">
      <path
         d="M 0,0 H 966.66656 V 513.1687 H 0 Z"
         transform="matrix(0.33516909,0,0,0.33516909,-32.96875,-166)"
         clip-rule="evenodd"
         id="path26" />
    </clipPath>
  </defs>
  <sodipodi:namedview
     id="namedview1"
     pagecolor="#ffffff"
     bordercolor="#000000"
     borderopacity="0.25"
     inkscape:showpageshadow="2"
     inkscape:pageopacity="0.0"
     inkscape:pagecheckerboard="0"
     inkscape:deskcolor="#d1d1d1">
    <inkscape:page
       x="0"
       y="0"
       inkscape:label="1"
       id="page1"
       width="309.44"
       height="165.43999"
       margin="0"
       bleed="0" />
  </sodipodi:namedview>
  <g
     id="g1"
     inkscape:groupmode="layer"
     inkscape:label="1">
    <path
       id="path1"
       d="M 0,0 H 324 V 173 H 0 Z"
       style="fill:#ffffff;fill-opacity:1;fill-rule:nonzero;stroke:none"
       transform="scale(0.95473241)"
       clip-path="url(#clipPath2)" />
    <path
       id="path3"
       d="m 1,45 h 120 v 60 H 1 Z"
       style="fill:#dae8fc;fill-opacity:1;fill-rule:nonzero;stroke:#6c8ebf;stroke-width:1;stroke-linecap:butt;stroke-linejoin:miter;stroke-miterlimit:10;stroke-dasharray:none;stroke-opacity:1"
       transform="matrix(0.95473241,0,0,0.95473241,0.4773662,0.4773662)"
       clip-path="url(#clipPath4)" />
    <text
       id="text4"
       xml:space="preserve"
       transform="matrix(0.95474194,0,0,0.95474194,29.104711,67.786678)"
       clip-path="url(#clipPath5)"><tspan
         style="font-variant:normal;font-weight:700;font-size:18px;font-family:Helvetica;writing-mode:lr-tb;fill:#000000;fill-opacity:1;fill-rule:nonzero;stroke:none"
         x="0 12.005859 19.010742 24.011719 34.022461 39.023438 50.018555"
         y="0"
         sodipodi:role="line"
         id="tspan4">Pricing</tspan></text>
    <text
       id="text5"
       xml:space="preserve"
       transform="matrix(0.95474194,0,0,0.95474194,27.657681,88.791001)"
       clip-path="url(#clipPath6)"><tspan
         style="font-variant:normal;font-weight:700;font-size:18px;font-family:Helvetica;writing-mode:lr-tb;fill:#000000;fill-opacity:1;fill-rule:nonzero;stroke:none"
         x="0 12.005859 22.016602 29.021484 39.032227 44.033203 54.043945"
         y="0"
         sodipodi:role="line"
         id="tspan5">Service</tspan></text>
    <path
       id="path7"
       d="M 201,31 H 161 V 75 H 127.37"
       style="fill:none;stroke:#000000;stroke-width:1;stroke-linecap:butt;stroke-linejoin:miter;stroke-miterlimit:10;stroke-dasharray:none;stroke-opacity:1"
       transform="matrix(0.95473241,0,0,0.95473241,0.4773662,0.4773662)"
       clip-path="url(#clipPath8)" />
    <path
       id="path9"
       d="m 122.12,75 6.99999,-3.5 -1.74999,3.5 1.74999,3.5 z"
       style="fill:#000000;fill-opacity:1;fill-rule:nonzero;stroke:#000000;stroke-width:1;stroke-linecap:butt;stroke-linejoin:miter;stroke-miterlimit:10;stroke-dasharray:none;stroke-opacity:1"
       transform="matrix(0.95473241,0,0,0.95473241,0.4773662,0.4773662)"
       clip-path="url(#clipPath10)" />
    <path
       id="path11"
       d="M 201,1 H 321 V 61 H 201 Z"
       style="fill:#d5e8d4;fill-opacity:1;fill-rule:nonzero;stroke:#82b366;stroke-width:1;stroke-linecap:butt;stroke-linejoin:miter;stroke-miterlimit:10;stroke-dasharray:none;stroke-opacity:1"
       transform="matrix(0.95473241,0,0,0.95473241,0.4773662,0.4773662)"
       clip-path="url(#clipPath12)" />
    <text
       id="text12"
       xml:space="preserve"
       transform="matrix(0.95474194,0,0,0.95474194,211.9378,25.778032)"
       clip-path="url(#clipPath13)"><tspan
         style="font-variant:normal;font-weight:700;font-size:18px;font-family:Helvetica;writing-mode:lr-tb;fill:#000000;fill-opacity:1;fill-rule:nonzero;stroke:none"
         x="0 12.005859 19.010742 30.005859 41.000977 51.996094 62.006836 68.000977"
         y="0"
         sodipodi:role="line"
         id="tspan12">Products</tspan></text>
    <text
       id="text13"
       xml:space="preserve"
       transform="matrix(0.95474194,0,0,0.95474194,204.29986,46.782355)"
       clip-path="url(#clipPath14)"><tspan
         style="font-variant:normal;font-weight:700;font-size:18px;font-family:Helvetica;writing-mode:lr-tb;fill:#000000;fill-opacity:1;fill-rule:nonzero;stroke:none"
         x="0 12.999023 23.009766 34.004883 45 55.010742 60.011719 66.005859 77.000977 84.005859"
         y="0"
         sodipodi:role="line"
         id="tspan13">Repository</tspan></text>
    <path
       id="path15"
       d="M 201,115 H 161 V 75 h -33.63"
       style="fill:none;stroke:#000000;stroke-width:1;stroke-linecap:butt;stroke-linejoin:miter;stroke-miterlimit:10;stroke-dasharray:none;stroke-opacity:1"
       transform="matrix(0.95473241,0,0,0.95473241,0.4773662,0.4773662)"
       clip-path="url(#clipPath16)" />
    <path
       id="path17"
       d="m 122.12,75 6.99999,-3.5 -1.74999,3.5 1.74999,3.5 z"
       style="fill:#000000;fill-opacity:1;fill-rule:nonzero;stroke:#000000;stroke-width:1;stroke-linecap:butt;stroke-linejoin:miter;stroke-miterlimit:10;stroke-dasharray:none;stroke-opacity:1"
       transform="matrix(0.95473241,0,0,0.95473241,0.4773662,0.4773662)"
       clip-path="url(#clipPath18)" />
    <path
       id="path19"
       d="m 201,85 h 120 v 60 H 201 Z"
       style="fill:#d5e8d4;fill-opacity:1;fill-rule:nonzero;stroke:#82b366;stroke-width:1;stroke-linecap:butt;stroke-linejoin:miter;stroke-miterlimit:10;stroke-dasharray:none;stroke-opacity:1"
       transform="matrix(0.95473241,0,0,0.95473241,0.4773662,0.4773662)"
       clip-path="url(#clipPath20)" />
    <text
       id="text20"
       xml:space="preserve"
       transform="matrix(0.95474194,0,0,0.95474194,211.95271,105.97636)"
       clip-path="url(#clipPath21)"><tspan
         style="font-variant:normal;font-weight:700;font-size:18px;font-family:Helvetica;writing-mode:lr-tb;fill:#000000;fill-opacity:1;fill-rule:nonzero;stroke:none"
         x="0 12.999023 23.994141 34.989258 45.984375 56.979492 67.974609"
         y="0"
         sodipodi:role="line"
         id="tspan20">Coupons</tspan></text>
    <text
       id="text21"
       xml:space="preserve"
       transform="matrix(0.95474194,0,0,0.95474194,204.29986,126.98068)"
       clip-path="url(#clipPath22)"><tspan
         style="font-variant:normal;font-weight:700;font-size:18px;font-family:Helvetica;writing-mode:lr-tb;fill:#000000;fill-opacity:1;fill-rule:nonzero;stroke:none"
         x="0 12.999023 23.009766 34.004883 45 55.010742 60.011719 66.005859 77.000977 84.005859"
         y="0"
         sodipodi:role="line"
         id="tspan21">Repository</tspan></text>
    <text
       id="text22"
       xml:space="preserve"
       transform="matrix(0.95474194,0,0,0.95474194,28.14997,110.75007)"
       clip-path="url(#clipPath23)"><tspan
         style="font-style:oblique;font-variant:normal;font-weight:normal;font-size:14px;font-family:Helvetica;writing-mode:lr-tb;fill:#000000;fill-opacity:1;fill-rule:nonzero;stroke:none"
         x="0 10.110352 17.896484 29.558594 37.344727 40.455078 48.241211 56.027344"
         y="0"
         sodipodi:role="line"
         id="tspan22">Combines</tspan></text>
    <text
       id="text23"
       xml:space="preserve"
       transform="matrix(0.95474194,0,0,0.95474194,3.6250358,126.98068)"
       clip-path="url(#clipPath24)"><tspan
         style="font-style:oblique;font-variant:normal;font-weight:normal;font-size:14px;font-family:Helvetica;writing-mode:lr-tb;fill:#000000;fill-opacity:1;fill-rule:nonzero;stroke:none"
         x="0 3.8896484 11.675781 19.461914 27.248047 31.137695 38.923828 46.709961 51.37207 55.261719 63.047852 70.833984 74.723633 82.509766 86.399414 90.289062 94.951172 102.7373"
         y="0"
         sodipodi:role="line"
         id="tspan23">together data from</tspan></text>
    <text
       id="text24"
       xml:space="preserve"
       transform="matrix(0.95474194,0,0,0.95474194,18.856153,143.21129)"
       clip-path="url(#clipPath25)"><tspan
         style="font-style:oblique;font-variant:normal;font-weight:normal;font-size:14px;font-family:Helvetica;writing-mode:lr-tb;fill:#000000;fill-opacity:1;fill-rule:nonzero;stroke:none"
         x="0 9.3378906 14 21.786133 29.572266 37.358398 44.358398 48.248047 55.248047 59.137695 66.923828 74.709961"
         y="0"
         sodipodi:role="line"
         id="tspan24">Products and</tspan></text>
    <text
       id="text25"
       xml:space="preserve"
       transform="matrix(0.95474194,0,0,0.95474194,31.476648,158.48716)"
       clip-path="url(#clipPath26)"><tspan
         style="font-style:oblique;font-variant:normal;font-weight:normal;font-size:14px;font-family:Helvetica;writing-mode:lr-tb;fill:#000000;fill-opacity:1;fill-rule:nonzero;stroke:none"
         x="0 10.110352 17.896484 25.682617 33.46875 41.254883 49.041016"
         y="0"
         sodipodi:role="line"
         id="tspan25">Coupons</tspan></text>
  </g>
</svg>
