<?xml version="1.0" encoding="UTF-8" standalone="no"?>
<!-- Created with Inkscape (http://www.inkscape.org/) -->

<svg
   version="1.1"
   id="svg1"
   width="348.16"
   height="234.56"
   viewBox="0 0 348.16 234.56"
   sodipodi:docname="nest-2.pdf"
   xmlns:inkscape="http://www.inkscape.org/namespaces/inkscape"
   xmlns:sodipodi="http://sodipodi.sourceforge.net/DTD/sodipodi-0.dtd"
   xmlns="http://www.w3.org/2000/svg"
   xmlns:svg="http://www.w3.org/2000/svg">
  <defs
     id="defs1">
    <clipPath
       clipPathUnits="userSpaceOnUse"
       id="clipPath2">
      <path
         d="M 0,0 H 1087.5 V 731.97113 H 0 Z"
         transform="scale(0.33471265)"
         clip-rule="evenodd"
         id="path2" />
    </clipPath>
    <clipPath
       clipPathUnits="userSpaceOnUse"
       id="clipPath4">
      <path
         d="M 0,0 H 1087.5 V 728.98352 H 0 Z"
         transform="matrix(0.33471265,0,0,0.33471265,-0.49999999,-0.49999999)"
         clip-rule="evenodd"
         id="path4" />
    </clipPath>
    <clipPath
       clipPathUnits="userSpaceOnUse"
       id="clipPath5">
      <path
         d="M 0,0 H 1087.5 V 728.98352 H 0 Z"
         transform="matrix(0.33470931,0,0,0.33470931,-90.203125,-20)"
         clip-rule="evenodd"
         id="path5" />
    </clipPath>
    <clipPath
       clipPathUnits="userSpaceOnUse"
       id="clipPath7">
      <path
         d="M 0,0 H 1087.5 V 728.98352 H 0 Z"
         transform="matrix(0.33471265,0,0,0.33471265,-0.49999999,-0.49999999)"
         clip-rule="evenodd"
         id="path7" />
    </clipPath>
    <clipPath
       clipPathUnits="userSpaceOnUse"
       id="clipPath9">
      <path
         d="M 0,0 H 1087.5 V 728.98352 H 0 Z"
         transform="matrix(0.33471265,0,0,0.33471265,-0.49999999,-0.49999999)"
         clip-rule="evenodd"
         id="path9" />
    </clipPath>
    <clipPath
       clipPathUnits="userSpaceOnUse"
       id="clipPath10">
      <path
         d="M 0,0 H 1087.5 V 728.98352 H 0 Z"
         transform="matrix(0.33470931,0,0,0.33470931,-38.3125,-68)"
         clip-rule="evenodd"
         id="path10" />
    </clipPath>
    <clipPath
       clipPathUnits="userSpaceOnUse"
       id="clipPath11">
      <path
         d="M 0,0 H 1087.5 V 728.98352 H 0 Z"
         transform="matrix(0.33470931,0,0,0.33470931,-44.640625,-83)"
         clip-rule="evenodd"
         id="path11" />
    </clipPath>
    <clipPath
       clipPathUnits="userSpaceOnUse"
       id="clipPath13">
      <path
         d="M 0,0 H 1087.5 V 728.98352 H 0 Z"
         transform="matrix(0.33471265,0,0,0.33471265,-0.49999999,-0.49999999)"
         clip-rule="evenodd"
         id="path13" />
    </clipPath>
    <clipPath
       clipPathUnits="userSpaceOnUse"
       id="clipPath14">
      <path
         d="M 0,0 H 1087.5 V 728.98352 H 0 Z"
         transform="matrix(0.33470931,0,0,0.33470931,-153.3125,-68)"
         clip-rule="evenodd"
         id="path14" />
    </clipPath>
    <clipPath
       clipPathUnits="userSpaceOnUse"
       id="clipPath15">
      <path
         d="M 0,0 H 1087.5 V 728.98352 H 0 Z"
         transform="matrix(0.33470931,0,0,0.33470931,-162.3125,-83)"
         clip-rule="evenodd"
         id="path15" />
    </clipPath>
    <clipPath
       clipPathUnits="userSpaceOnUse"
       id="clipPath17">
      <path
         d="M 0,0 H 1087.5 V 728.98352 H 0 Z"
         transform="matrix(0.33471265,0,0,0.33471265,-0.49999999,-0.49999999)"
         clip-rule="evenodd"
         id="path17" />
    </clipPath>
    <clipPath
       clipPathUnits="userSpaceOnUse"
       id="clipPath18">
      <path
         d="M 0,0 H 1087.5 V 728.98352 H 0 Z"
         transform="matrix(0.33470931,0,0,0.33470931,-268.3125,-68)"
         clip-rule="evenodd"
         id="path18" />
    </clipPath>
    <clipPath
       clipPathUnits="userSpaceOnUse"
       id="clipPath19">
      <path
         d="M 0,0 H 1087.5 V 728.98352 H 0 Z"
         transform="matrix(0.33470931,0,0,0.33470931,-272.64063,-83)"
         clip-rule="evenodd"
         id="path19" />
    </clipPath>
    <clipPath
       clipPathUnits="userSpaceOnUse"
       id="clipPath21">
      <path
         d="M 0,0 H 1087.5 V 728.98352 H 0 Z"
         transform="matrix(0.33471265,0,0,0.33471265,-0.49999999,-0.49999999)"
         clip-rule="evenodd"
         id="path21" />
    </clipPath>
    <clipPath
       clipPathUnits="userSpaceOnUse"
       id="clipPath22">
      <path
         d="M 0,0 H 1087.5 V 728.98352 H 0 Z"
         transform="matrix(0.33470931,0,0,0.33470931,-38.3125,-131)"
         clip-rule="evenodd"
         id="path22" />
    </clipPath>
    <clipPath
       clipPathUnits="userSpaceOnUse"
       id="clipPath23">
      <path
         d="M 0,0 H 1087.5 V 728.98352 H 0 Z"
         transform="matrix(0.33470931,0,0,0.33470931,-23.3125,-145)"
         clip-rule="evenodd"
         id="path23" />
    </clipPath>
    <clipPath
       clipPathUnits="userSpaceOnUse"
       id="clipPath24">
      <path
         d="M 0,0 H 1087.5 V 728.98352 H 0 Z"
         transform="matrix(0.33470931,0,0,0.33470931,-28.640625,-160)"
         clip-rule="evenodd"
         id="path24" />
    </clipPath>
    <clipPath
       clipPathUnits="userSpaceOnUse"
       id="clipPath26">
      <path
         d="M 0,0 H 1087.5 V 728.98352 H 0 Z"
         transform="matrix(0.33471265,0,0,0.33471265,-0.49999999,-0.49999999)"
         clip-rule="evenodd"
         id="path26" />
    </clipPath>
    <clipPath
       clipPathUnits="userSpaceOnUse"
       id="clipPath27">
      <path
         d="M 0,0 H 1087.5 V 728.98352 H 0 Z"
         transform="matrix(0.33470931,0,0,0.33470931,-132.64062,-124)"
         clip-rule="evenodd"
         id="path27" />
    </clipPath>
    <clipPath
       clipPathUnits="userSpaceOnUse"
       id="clipPath28">
      <path
         d="M 0,0 H 1087.5 V 728.98352 H 0 Z"
         transform="matrix(0.33470931,0,0,0.33470931,-133.64063,-138)"
         clip-rule="evenodd"
         id="path28" />
    </clipPath>
    <clipPath
       clipPathUnits="userSpaceOnUse"
       id="clipPath29">
      <path
         d="M 0,0 H 1087.5 V 728.98352 H 0 Z"
         transform="matrix(0.33470931,0,0,0.33470931,-143.3125,-153.00001)"
         clip-rule="evenodd"
         id="path29" />
    </clipPath>
    <clipPath
       clipPathUnits="userSpaceOnUse"
       id="clipPath30">
      <path
         d="M 0,0 H 1087.5 V 728.98352 H 0 Z"
         transform="matrix(0.33470931,0,0,0.33470931,-156.96875,-167)"
         clip-rule="evenodd"
         id="path30" />
    </clipPath>
    <clipPath
       clipPathUnits="userSpaceOnUse"
       id="clipPath32">
      <path
         d="M 0,0 H 1087.5 V 728.98352 H 0 Z"
         transform="matrix(0.33471265,0,0,0.33471265,-0.49999999,-0.49999999)"
         clip-rule="evenodd"
         id="path32" />
    </clipPath>
    <clipPath
       clipPathUnits="userSpaceOnUse"
       id="clipPath33">
      <path
         d="M 0,0 H 1087.5 V 728.98352 H 0 Z"
         transform="matrix(0.33470931,0,0,0.33470931,-245.96875,-124)"
         clip-rule="evenodd"
         id="path33" />
    </clipPath>
    <clipPath
       clipPathUnits="userSpaceOnUse"
       id="clipPath34">
      <path
         d="M 0,0 H 1087.5 V 728.98352 H 0 Z"
         transform="matrix(0.33470931,0,0,0.33470931,-253.29688,-138)"
         clip-rule="evenodd"
         id="path34" />
    </clipPath>
    <clipPath
       clipPathUnits="userSpaceOnUse"
       id="clipPath35">
      <path
         d="M 0,0 H 1087.5 V 728.98352 H 0 Z"
         transform="matrix(0.33470931,0,0,0.33470931,-247.29688,-153.00001)"
         clip-rule="evenodd"
         id="path35" />
    </clipPath>
    <clipPath
       clipPathUnits="userSpaceOnUse"
       id="clipPath36">
      <path
         d="M 0,0 H 1087.5 V 728.98352 H 0 Z"
         transform="matrix(0.33470931,0,0,0.33470931,-278.32813,-167)"
         clip-rule="evenodd"
         id="path36" />
    </clipPath>
    <clipPath
       clipPathUnits="userSpaceOnUse"
       id="clipPath38">
      <path
         d="M 0,0 H 1087.5 V 728.98352 H 0 Z"
         transform="matrix(0.33471265,0,0,0.33471265,-0.49999999,-0.49999999)"
         clip-rule="evenodd"
         id="path38" />
    </clipPath>
    <clipPath
       clipPathUnits="userSpaceOnUse"
       id="clipPath40">
      <path
         d="M 0,0 H 1087.5 V 728.98352 H 0 Z"
         transform="matrix(0.33471265,0,0,0.33471265,-0.49999999,-0.49999999)"
         clip-rule="evenodd"
         id="path40" />
    </clipPath>
    <clipPath
       clipPathUnits="userSpaceOnUse"
       id="clipPath42">
      <path
         d="M 0,0 H 1087.5 V 728.98352 H 0 Z"
         transform="matrix(0.33471265,0,0,0.33471265,-0.49999999,-0.49999999)"
         clip-rule="evenodd"
         id="path42" />
    </clipPath>
    <clipPath
       clipPathUnits="userSpaceOnUse"
       id="clipPath43">
      <path
         d="M 0,0 H 1087.5 V 728.98352 H 0 Z"
         transform="matrix(0.33470931,0,0,0.33470931,-163.82812,-225)"
         clip-rule="evenodd"
         id="path43" />
    </clipPath>
    <clipPath
       clipPathUnits="userSpaceOnUse"
       id="clipPath45">
      <path
         d="M 0,0 H 1087.5 V 728.98352 H 0 Z"
         transform="matrix(0.33471265,0,0,0.33471265,-0.49999999,-0.49999999)"
         clip-rule="evenodd"
         id="path45" />
    </clipPath>
    <clipPath
       clipPathUnits="userSpaceOnUse"
       id="clipPath47">
      <path
         d="M 0,0 H 1087.5 V 728.98352 H 0 Z"
         transform="matrix(0.33471265,0,0,0.33471265,-0.49999999,-0.49999999)"
         clip-rule="evenodd"
         id="path47" />
    </clipPath>
    <clipPath
       clipPathUnits="userSpaceOnUse"
       id="clipPath49">
      <path
         d="M 0,0 H 1087.5 V 728.98352 H 0 Z"
         transform="matrix(0.33471265,0,0,0.33471265,-0.49999999,-0.49999999)"
         clip-rule="evenodd"
         id="path49" />
    </clipPath>
    <clipPath
       clipPathUnits="userSpaceOnUse"
       id="clipPath50">
      <path
         d="M 0,0 H 1087.5 V 728.98352 H 0 Z"
         transform="matrix(0.33470931,0,0,0.33470931,-259.98438,-218)"
         clip-rule="evenodd"
         id="path50" />
    </clipPath>
    <clipPath
       clipPathUnits="userSpaceOnUse"
       id="clipPath51">
      <path
         d="M 0,0 H 1087.5 V 728.98352 H 0 Z"
         transform="matrix(0.33470931,0,0,0.33470931,-268.15625,-233)"
         clip-rule="evenodd"
         id="path51" />
    </clipPath>
  </defs>
  <sodipodi:namedview
     id="namedview1"
     pagecolor="#ffffff"
     bordercolor="#000000"
     borderopacity="0.25"
     inkscape:showpageshadow="2"
     inkscape:pageopacity="0.0"
     inkscape:pagecheckerboard="0"
     inkscape:deskcolor="#d1d1d1">
    <inkscape:page
       x="0"
       y="0"
       inkscape:label="1"
       id="page1"
       width="348.16"
       height="234.56"
       margin="0"
       bleed="0" />
  </sodipodi:namedview>
  <g
     id="g1"
     inkscape:groupmode="layer"
     inkscape:label="1">
    <path
       id="path1"
       d="M 0,0 H 364 V 245 H 0 Z"
       style="fill:#ffffff;fill-opacity:1;fill-rule:nonzero;stroke:none"
       transform="scale(0.9560439)"
       clip-path="url(#clipPath2)" />
    <path
       id="path3"
       d="M 1,1 H 361 V 31 H 1 Z"
       style="fill:#f5f5f5;fill-opacity:1;fill-rule:nonzero;stroke:#666666;stroke-width:1;stroke-linecap:butt;stroke-linejoin:miter;stroke-miterlimit:10;stroke-dasharray:none;stroke-opacity:1"
       transform="matrix(0.9560439,0,0,0.9560439,0.47802194,0.47802194)"
       clip-path="url(#clipPath4)" />
    <text
       id="text4"
       xml:space="preserve"
       transform="matrix(0.95605343,0,0,0.95605343,86.239007,19.121069)"
       clip-path="url(#clipPath5)"><tspan
         style="font-variant:normal;font-weight:700;font-size:12px;font-family:Helvetica;writing-mode:lr-tb;fill:#333333;fill-opacity:1;fill-rule:nonzero;stroke:none"
         x="0 8.6660156 15.996094 26.666016 37.335938 44.666016 51.996094 54.890625 63.556641 70.886719 74.882812 82.212891 85.546875 93.550781 100.22461 106.89844 110.89453 117.56836 128.23828 131.57227 138.90234 145.57617 152.25 156.24609 163.57617 168.24609 174.91992"
         y="0"
         sodipodi:role="line"
         id="tspan4">Common Auth System Features</tspan></text>
    <path
       id="path6"
       d="M 1,31 H 361 V 181 H 1 Z"
       style="fill:#f5f5f5;fill-opacity:1;fill-rule:nonzero;stroke:#666666;stroke-width:1;stroke-linecap:butt;stroke-linejoin:miter;stroke-miterlimit:10;stroke-dasharray:none;stroke-opacity:1"
       transform="matrix(0.9560439,0,0,0.9560439,0.47802194,0.47802194)"
       clip-path="url(#clipPath7)" />
    <path
       id="path8"
       d="m 11,41 h 110 v 60 H 11 Z"
       style="fill:#d5e8d4;fill-opacity:1;fill-rule:nonzero;stroke:#82b366;stroke-width:1;stroke-linecap:butt;stroke-linejoin:miter;stroke-miterlimit:10;stroke-dasharray:none;stroke-opacity:1"
       transform="matrix(0.9560439,0,0,0.9560439,0.47802194,0.47802194)"
       clip-path="url(#clipPath9)" />
    <text
       id="text9"
       xml:space="preserve"
       transform="matrix(0.95605343,0,0,0.95605343,36.628797,65.011633)"
       clip-path="url(#clipPath10)"><tspan
         style="font-variant:normal;font-weight:normal;font-size:12px;font-family:Helvetica;writing-mode:lr-tb;fill:#000000;fill-opacity:1;fill-rule:nonzero;stroke:none"
         x="0 8.6660156 15.339844 22.013672 28.6875 31.353516 38.027344 42.023438 45.357422 48.691406"
         y="0"
         sodipodi:role="line"
         id="tspan9">Handler to</tspan></text>
    <text
       id="text10"
       xml:space="preserve"
       transform="matrix(0.95605343,0,0,0.95605343,42.678823,79.352435)"
       clip-path="url(#clipPath11)"><tspan
         style="font-variant:normal;font-weight:normal;font-size:12px;font-family:Helvetica;writing-mode:lr-tb;fill:#000000;fill-opacity:1;fill-rule:nonzero;stroke:none"
         x="0 8.0039062 10.669922 17.34375 24.017578 27.351562 36.017578"
         y="0"
         sodipodi:role="line"
         id="tspan10">Sign Up</tspan></text>
    <path
       id="path12"
       d="m 126,41 h 110 v 60 H 126 Z"
       style="fill:#d5e8d4;fill-opacity:1;fill-rule:nonzero;stroke:#82b366;stroke-width:1;stroke-linecap:butt;stroke-linejoin:miter;stroke-miterlimit:10;stroke-dasharray:none;stroke-opacity:1"
       transform="matrix(0.9560439,0,0,0.9560439,0.47802194,0.47802194)"
       clip-path="url(#clipPath13)" />
    <text
       id="text13"
       xml:space="preserve"
       transform="matrix(0.95605343,0,0,0.95605343,146.57494,65.011633)"
       clip-path="url(#clipPath14)"><tspan
         style="font-variant:normal;font-weight:normal;font-size:12px;font-family:Helvetica;writing-mode:lr-tb;fill:#000000;fill-opacity:1;fill-rule:nonzero;stroke:none"
         x="0 8.6660156 15.339844 22.013672 28.6875 31.353516 38.027344 42.023438 45.357422 48.691406"
         y="0"
         sodipodi:role="line"
         id="tspan13">Handler to</tspan></text>
    <text
       id="text14"
       xml:space="preserve"
       transform="matrix(0.95605343,0,0,0.95605343,155.17942,79.352435)"
       clip-path="url(#clipPath15)"><tspan
         style="font-variant:normal;font-weight:normal;font-size:12px;font-family:Helvetica;writing-mode:lr-tb;fill:#000000;fill-opacity:1;fill-rule:nonzero;stroke:none"
         x="0 8.0039062 10.669922 17.34375 24.017578 27.351562 30.685547"
         y="0"
         sodipodi:role="line"
         id="tspan14">Sign In</tspan></text>
    <path
       id="path16"
       d="m 241,41 h 110 v 60 H 241 Z"
       style="fill:#d5e8d4;fill-opacity:1;fill-rule:nonzero;stroke:#82b366;stroke-width:1;stroke-linecap:butt;stroke-linejoin:miter;stroke-miterlimit:10;stroke-dasharray:none;stroke-opacity:1"
       transform="matrix(0.9560439,0,0,0.9560439,0.47802194,0.47802194)"
       clip-path="url(#clipPath17)" />
    <text
       id="text17"
       xml:space="preserve"
       transform="matrix(0.95605343,0,0,0.95605343,256.52109,65.011633)"
       clip-path="url(#clipPath18)"><tspan
         style="font-variant:normal;font-weight:normal;font-size:12px;font-family:Helvetica;writing-mode:lr-tb;fill:#000000;fill-opacity:1;fill-rule:nonzero;stroke:none"
         x="0 8.6660156 15.339844 22.013672 28.6875 31.353516 38.027344 42.023438 45.357422 48.691406"
         y="0"
         sodipodi:role="line"
         id="tspan17">Handler to</tspan></text>
    <text
       id="text18"
       xml:space="preserve"
       transform="matrix(0.95605343,0,0,0.95605343,260.65901,79.352435)"
       clip-path="url(#clipPath19)"><tspan
         style="font-variant:normal;font-weight:normal;font-size:12px;font-family:Helvetica;writing-mode:lr-tb;fill:#000000;fill-opacity:1;fill-rule:nonzero;stroke:none"
         x="0 8.0039062 10.669922 17.34375 24.017578 27.351562 36.685547 43.359375"
         y="0"
         sodipodi:role="line"
         id="tspan18">Sign Out</tspan></text>
    <path
       id="path20"
       d="m 11,111 h 110 v 60 H 11 Z"
       style="fill:#d5e8d4;fill-opacity:1;fill-rule:nonzero;stroke:#82b366;stroke-width:1;stroke-linecap:butt;stroke-linejoin:miter;stroke-miterlimit:10;stroke-dasharray:none;stroke-opacity:1"
       transform="matrix(0.9560439,0,0,0.9560439,0.47802194,0.47802194)"
       clip-path="url(#clipPath21)" />
    <text
       id="text21"
       xml:space="preserve"
       transform="matrix(0.95605343,0,0,0.95605343,36.628797,125.243)"
       clip-path="url(#clipPath22)"><tspan
         style="font-variant:normal;font-weight:normal;font-size:12px;font-family:Helvetica;writing-mode:lr-tb;fill:#000000;fill-opacity:1;fill-rule:nonzero;stroke:none"
         x="0 8.6660156 15.339844 22.013672 28.6875 31.353516 38.027344 42.023438 45.357422 48.691406"
         y="0"
         sodipodi:role="line"
         id="tspan21">Handler to</tspan></text>
    <text
       id="text22"
       xml:space="preserve"
       transform="matrix(0.95605343,0,0,0.95605343,22.287996,138.62775)"
       clip-path="url(#clipPath23)"><tspan
         style="font-variant:normal;font-weight:normal;font-size:12px;font-family:Helvetica;writing-mode:lr-tb;fill:#000000;fill-opacity:1;fill-rule:nonzero;stroke:none"
         x="0 8.6660156 15.339844 18.673828 25.347656 29.34375 36.017578 39.351562 45.351562 52.025391 56.021484 60.017578 66.691406 73.365234 76.699219 79.365234"
         y="0"
         sodipodi:role="line"
         id="tspan22">Return currently</tspan></text>
    <text
       id="text23"
       xml:space="preserve"
       transform="matrix(0.95605343,0,0,0.95605343,27.381968,152.96855)"
       clip-path="url(#clipPath24)"><tspan
         style="font-variant:normal;font-weight:normal;font-size:12px;font-family:Helvetica;writing-mode:lr-tb;fill:#000000;fill-opacity:1;fill-rule:nonzero;stroke:none"
         x="0 6 8.6660156 15.339844 22.013672 28.6875 35.361328 38.695312 41.361328 48.035156 51.369141 58.042969 64.042969 70.716797"
         y="0"
         sodipodi:role="line"
         id="tspan23">signed in user</tspan></text>
    <path
       id="path25"
       d="m 126,111 h 110 v 60 H 126 Z"
       style="fill:#fff2cc;fill-opacity:1;fill-rule:nonzero;stroke:#d6b656;stroke-width:1;stroke-linecap:butt;stroke-linejoin:miter;stroke-miterlimit:10;stroke-dasharray:none;stroke-opacity:1"
       transform="matrix(0.9560439,0,0,0.9560439,0.47802194,0.47802194)"
       clip-path="url(#clipPath26)" />
    <text
       id="text26"
       xml:space="preserve"
       transform="matrix(0.95605343,0,0,0.95605343,126.81152,118.55063)"
       clip-path="url(#clipPath27)"><tspan
         style="font-variant:normal;font-weight:normal;font-size:12px;font-family:Helvetica;writing-mode:lr-tb;fill:#000000;fill-opacity:1;fill-rule:nonzero;stroke:none"
         x="0 8.6660156 15.339844 18.005859 24.679688 30.679688 34.013672 37.347656 41.34375 48.017578 54.691406 61.365234 68.039062 74.039062 77.373047 83.373047 86.707031 90.041016"
         y="0"
         sodipodi:role="line"
         id="tspan26">Reject requests to</tspan></text>
    <text
       id="text27"
       xml:space="preserve"
       transform="matrix(0.95605343,0,0,0.95605343,127.76758,131.93537)"
       clip-path="url(#clipPath28)"><tspan
         style="font-variant:normal;font-weight:normal;font-size:12px;font-family:Helvetica;writing-mode:lr-tb;fill:#000000;fill-opacity:1;fill-rule:nonzero;stroke:none"
         x="0 6 12.673828 16.669922 20.003906 26.677734 29.34375 36.017578 39.351562 46.025391 52.699219 59.373047 66.046875 68.712891 75.386719 79.382812 85.382812 88.716797 91.382812"
         y="0"
         sodipodi:role="line"
         id="tspan27">certain handlers if</tspan></text>
    <text
       id="text28"
       xml:space="preserve"
       transform="matrix(0.95605343,0,0,0.95605343,137.01441,146.27618)"
       clip-path="url(#clipPath29)"><tspan
         style="font-variant:normal;font-weight:normal;font-size:12px;font-family:Helvetica;writing-mode:lr-tb;fill:#000000;fill-opacity:1;fill-rule:nonzero;stroke:none"
         x="0 3.3339844 10.007812 16.681641 20.015625 26.689453 32.689453 39.363281 43.359375 46.693359 49.359375 55.359375 58.693359 65.367188 72.041016"
         y="0"
         sodipodi:role="line"
         id="tspan28">the user is not</tspan></text>
    <text
       id="text29"
       xml:space="preserve"
       transform="matrix(0.95605343,0,0,0.95605343,150.07051,159.66092)"
       clip-path="url(#clipPath30)"><tspan
         style="font-variant:normal;font-weight:normal;font-size:12px;font-family:Helvetica;writing-mode:lr-tb;fill:#000000;fill-opacity:1;fill-rule:nonzero;stroke:none"
         x="0 6 8.6660156 15.339844 22.013672 28.6875 35.361328 38.695312 41.361328"
         y="0"
         sodipodi:role="line"
         id="tspan29">signed in</tspan></text>
    <path
       id="path31"
       d="m 241,111 h 110 v 60 H 241 Z"
       style="fill:#fff2cc;fill-opacity:1;fill-rule:nonzero;stroke:#d6b656;stroke-width:1;stroke-linecap:butt;stroke-linejoin:miter;stroke-miterlimit:10;stroke-dasharray:none;stroke-opacity:1"
       transform="matrix(0.9560439,0,0,0.9560439,0.47802194,0.47802194)"
       clip-path="url(#clipPath32)" />
    <text
       id="text32"
       xml:space="preserve"
       transform="matrix(0.95605343,0,0,0.95605343,235.15927,118.55063)"
       clip-path="url(#clipPath33)"><tspan
         style="font-variant:normal;font-weight:normal;font-size:12px;font-family:Helvetica;writing-mode:lr-tb;fill:#000000;fill-opacity:1;fill-rule:nonzero;stroke:none"
         x="0 8.0039062 14.677734 18.011719 24.685547 34.681641 41.355469 44.689453 47.355469 53.355469 60.029297 62.695312 65.361328 71.361328 74.695312 78.029297 84.703125 87.369141 90.035156 93.369141"
         y="0"
         sodipodi:role="line"
         id="tspan32">Automatically tell a</tspan></text>
    <text
       id="text33"
       xml:space="preserve"
       transform="matrix(0.95605343,0,0,0.95605343,242.16535,131.93537)"
       clip-path="url(#clipPath34)"><tspan
         style="font-variant:normal;font-weight:normal;font-size:12px;font-family:Helvetica;writing-mode:lr-tb;fill:#000000;fill-opacity:1;fill-rule:nonzero;stroke:none"
         x="0 6.6738281 13.347656 20.021484 26.695312 29.361328 36.035156 40.03125 43.365234 52.03125 58.705078 65.378906 68.712891 72.046875 78.720703"
         y="0"
         sodipodi:role="line"
         id="tspan33">handler who the</tspan></text>
    <text
       id="text34"
       xml:space="preserve"
       transform="matrix(0.95605343,0,0,0.95605343,236.42903,146.27618)"
       clip-path="url(#clipPath35)"><tspan
         style="font-variant:normal;font-weight:normal;font-size:12px;font-family:Helvetica;writing-mode:lr-tb;fill:#000000;fill-opacity:1;fill-rule:nonzero;stroke:none"
         x="0 6 12.673828 16.669922 20.666016 27.339844 34.013672 37.347656 40.013672 46.013672 49.347656 55.347656 58.013672 64.6875 71.361328 78.035156 84.708984 88.042969 90.708984"
         y="0"
         sodipodi:role="line"
         id="tspan34">currently signed in</tspan></text>
    <text
       id="text35"
       xml:space="preserve"
       transform="matrix(0.95605343,0,0,0.95605343,266.09656,159.66092)"
       clip-path="url(#clipPath36)"><tspan
         style="font-variant:normal;font-weight:normal;font-size:12px;font-family:Helvetica;writing-mode:lr-tb;fill:#000000;fill-opacity:1;fill-rule:nonzero;stroke:none"
         x="0 6.6738281 12.673828 19.347656 23.34375 26.677734 29.34375"
         y="0"
         sodipodi:role="line"
         id="tspan35">user is</tspan></text>
    <path
       id="path37"
       d="M 181,201 V 177.37"
       style="fill:none;stroke:#000000;stroke-width:1;stroke-linecap:butt;stroke-linejoin:miter;stroke-miterlimit:10;stroke-dasharray:none;stroke-opacity:1"
       transform="matrix(0.9560439,0,0,0.9560439,0.47802194,0.47802194)"
       clip-path="url(#clipPath38)" />
    <path
       id="path39"
       d="m 181,172.12 3.5,7 -3.5,-1.75 -3.5,1.75 z"
       style="fill:#000000;fill-opacity:1;fill-rule:nonzero;stroke:#000000;stroke-width:1;stroke-linecap:butt;stroke-linejoin:miter;stroke-miterlimit:10;stroke-dasharray:none;stroke-opacity:1"
       transform="matrix(0.9560439,0,0,0.9560439,0.47802194,0.47802194)"
       clip-path="url(#clipPath40)" />
    <path
       id="path41"
       d="m 133.5,201 h 95 v 40 h -95 z"
       style="fill:#dae8fc;fill-opacity:1;fill-rule:nonzero;stroke:#6c8ebf;stroke-width:1;stroke-linecap:butt;stroke-linejoin:miter;stroke-miterlimit:10;stroke-dasharray:none;stroke-opacity:1"
       transform="matrix(0.9560439,0,0,0.9560439,0.47802194,0.47802194)"
       clip-path="url(#clipPath42)" />
    <text
       id="text42"
       xml:space="preserve"
       transform="matrix(0.95605343,0,0,0.95605343,156.62844,215.11202)"
       clip-path="url(#clipPath43)"><tspan
         style="font-variant:normal;font-weight:700;font-size:12px;font-family:Helvetica;writing-mode:lr-tb;fill:#000000;fill-opacity:1;fill-rule:nonzero;stroke:none"
         x="0 9.3339844 16.664062 23.337891 28.007812"
         y="0"
         sodipodi:role="line"
         id="tspan42">Guard</tspan></text>
    <path
       id="path44"
       d="m 296,201 v -20 10 -13.63"
       style="fill:none;stroke:#000000;stroke-width:1;stroke-linecap:butt;stroke-linejoin:miter;stroke-miterlimit:10;stroke-dasharray:none;stroke-opacity:1"
       transform="matrix(0.9560439,0,0,0.9560439,0.47802194,0.47802194)"
       clip-path="url(#clipPath45)" />
    <path
       id="path46"
       d="m 296,172.12 3.5,7 -3.5,-1.75 -3.5,1.75 z"
       style="fill:#000000;fill-opacity:1;fill-rule:nonzero;stroke:#000000;stroke-width:1;stroke-linecap:butt;stroke-linejoin:miter;stroke-miterlimit:10;stroke-dasharray:none;stroke-opacity:1"
       transform="matrix(0.9560439,0,0,0.9560439,0.47802194,0.47802194)"
       clip-path="url(#clipPath47)" />
    <path
       id="path48"
       d="m 248.5,201 h 95 v 40 h -95 z"
       style="fill:#dae8fc;fill-opacity:1;fill-rule:nonzero;stroke:#6c8ebf;stroke-width:1;stroke-linecap:butt;stroke-linejoin:miter;stroke-miterlimit:10;stroke-dasharray:none;stroke-opacity:1"
       transform="matrix(0.9560439,0,0,0.9560439,0.47802194,0.47802194)"
       clip-path="url(#clipPath49)" />
    <text
       id="text49"
       xml:space="preserve"
       transform="matrix(0.95605343,0,0,0.95605343,248.55896,208.41965)"
       clip-path="url(#clipPath50)"><tspan
         style="font-variant:normal;font-weight:700;font-size:12px;font-family:Helvetica;writing-mode:lr-tb;fill:#000000;fill-opacity:1;fill-rule:nonzero;stroke:none"
         x="0 3.3339844 10.664062 14.660156 21.333984 26.003906 32.677734 39.351562 46.681641 50.677734 58.007812 62.677734 66.011719"
         y="0"
         sodipodi:role="line"
         id="tspan49">Interceptor +</tspan></text>
    <text
       id="text50"
       xml:space="preserve"
       transform="matrix(0.95605343,0,0,0.95605343,256.3717,222.76045)"
       clip-path="url(#clipPath51)"><tspan
         style="font-variant:normal;font-weight:700;font-size:12px;font-family:Helvetica;writing-mode:lr-tb;fill:#000000;fill-opacity:1;fill-rule:nonzero;stroke:none"
         x="0 8.6660156 15.339844 22.013672 29.34375 34.013672 40.6875 44.683594 52.013672"
         y="0"
         sodipodi:role="line"
         id="tspan50">Decorator</tspan></text>
  </g>
</svg>
