<?xml version="1.0" encoding="UTF-8" standalone="no"?>
<!-- Created with Inkscape (http://www.inkscape.org/) -->

<svg
   version="1.1"
   id="svg1"
   width="261.44"
   height="101.44"
   viewBox="0 0 261.44 101.44"
   sodipodi:docname="nest-8.pdf"
   xmlns:inkscape="http://www.inkscape.org/namespaces/inkscape"
   xmlns:sodipodi="http://sodipodi.sourceforge.net/DTD/sodipodi-0.dtd"
   xmlns="http://www.w3.org/2000/svg"
   xmlns:svg="http://www.w3.org/2000/svg">
  <defs
     id="defs1">
    <clipPath
       clipPathUnits="userSpaceOnUse"
       id="clipPath2">
      <path
         d="M 0,0 H 816.66663 V 315.93671 H 0 Z"
         transform="scale(0.33551024)"
         clip-rule="evenodd"
         id="path2" />
    </clipPath>
    <clipPath
       clipPathUnits="userSpaceOnUse"
       id="clipPath4">
      <path
         d="M 0,0 H 816.66663 V 309.97565 H 0 Z"
         transform="matrix(0.33551024,0,0,0.33551024,-0.50000001,-0.50000001)"
         clip-rule="evenodd"
         id="path4" />
    </clipPath>
    <clipPath
       clipPathUnits="userSpaceOnUse"
       id="clipPath5">
      <path
         d="M 0,0 H 816.66663 V 309.97565 H 0 Z"
         transform="matrix(0.33550688,0,0,0.33550688,-72.265625,-21)"
         clip-rule="evenodd"
         id="path5" />
    </clipPath>
    <clipPath
       clipPathUnits="userSpaceOnUse"
       id="clipPath7">
      <path
         d="M 0,0 H 816.66663 V 309.97565 H 0 Z"
         transform="matrix(0.33551024,0,0,0.33551024,-0.50000001,-0.50000001)"
         clip-rule="evenodd"
         id="path7" />
    </clipPath>
    <clipPath
       clipPathUnits="userSpaceOnUse"
       id="clipPath9">
      <path
         d="M 0,0 H 816.66663 V 309.97565 H 0 Z"
         transform="matrix(0.33551024,0,0,0.33551024,-0.50000001,-0.50000001)"
         clip-rule="evenodd"
         id="path9" />
    </clipPath>
    <clipPath
       clipPathUnits="userSpaceOnUse"
       id="clipPath11">
      <path
         d="M 0,0 H 816.66663 V 309.97565 H 0 Z"
         transform="matrix(0.33551024,0,0,0.33551024,-0.50000001,-0.50000001)"
         clip-rule="evenodd"
         id="path11" />
    </clipPath>
    <clipPath
       clipPathUnits="userSpaceOnUse"
       id="clipPath12">
      <path
         d="M 0,0 H 816.66663 V 309.97565 H 0 Z"
         transform="matrix(0.33550688,0,0,0.33550688,-9.3124999,-76)"
         clip-rule="evenodd"
         id="path12" />
    </clipPath>
    <clipPath
       clipPathUnits="userSpaceOnUse"
       id="clipPath14">
      <path
         d="M 0,0 H 816.66663 V 309.97565 H 0 Z"
         transform="matrix(0.33551024,0,0,0.33551024,-0.50000001,-0.50000001)"
         clip-rule="evenodd"
         id="path14" />
    </clipPath>
    <clipPath
       clipPathUnits="userSpaceOnUse"
       id="clipPath15">
      <path
         d="M 0,0 H 816.66663 V 309.97565 H 0 Z"
         transform="matrix(0.33550688,0,0,0.33550688,-132.29688,-60.999999)"
         clip-rule="evenodd"
         id="path15" />
    </clipPath>
    <clipPath
       clipPathUnits="userSpaceOnUse"
       id="clipPath16">
      <path
         d="M 0,0 H 816.66663 V 309.97565 H 0 Z"
         transform="matrix(0.33550688,0,0,0.33550688,-142.96875,-74.999999)"
         clip-rule="evenodd"
         id="path16" />
    </clipPath>
    <clipPath
       clipPathUnits="userSpaceOnUse"
       id="clipPath17">
      <path
         d="M 0,0 H 816.66663 V 309.97565 H 0 Z"
         transform="matrix(0.33550688,0,0,0.33550688,-173.64063,-90)"
         clip-rule="evenodd"
         id="path17" />
    </clipPath>
  </defs>
  <sodipodi:namedview
     id="namedview1"
     pagecolor="#ffffff"
     bordercolor="#000000"
     borderopacity="0.25"
     inkscape:showpageshadow="2"
     inkscape:pageopacity="0.0"
     inkscape:pagecheckerboard="0"
     inkscape:deskcolor="#d1d1d1">
    <inkscape:page
       x="0"
       y="0"
       inkscape:label="1"
       id="page1"
       width="261.44"
       height="101.44"
       margin="0"
       bleed="0" />
  </sodipodi:namedview>
  <g
     id="g1"
     inkscape:groupmode="layer"
     inkscape:label="1">
    <path
       id="path1"
       d="M 0,0 H 274 V 106 H 0 Z"
       style="fill:#ffffff;fill-opacity:1;fill-rule:nonzero;stroke:none"
       transform="scale(0.95377116)"
       clip-path="url(#clipPath2)" />
    <path
       id="path3"
       d="M 1,1 H 271 V 31 H 1 Z"
       style="fill:#dae8fc;fill-opacity:1;fill-rule:nonzero;stroke:#6c8ebf;stroke-width:1;stroke-linecap:butt;stroke-linejoin:miter;stroke-miterlimit:10;stroke-dasharray:none;stroke-opacity:1"
       transform="matrix(0.95377116,0,0,0.95377116,0.47688559,0.47688559)"
       clip-path="url(#clipPath4)" />
    <text
       id="text4"
       xml:space="preserve"
       transform="matrix(0.9537807,0,0,0.9537807,68.925558,20.029395)"
       clip-path="url(#clipPath5)"><tspan
         style="font-variant:normal;font-weight:700;font-size:16px;font-family:Helvetica;writing-mode:lr-tb;fill:#000000;fill-opacity:1;fill-rule:nonzero;stroke:none"
         x="0 8.8984375 13.34375 22.242188 31.140625 40.039062 43.898438 55.453125 65.226562 70.554688 80.328125 92.773438 102.54688 111.44531 117.67188"
         y="0"
         sodipodi:role="line"
         id="tspan4">class AuthGuard</tspan></text>
    <path
       id="path6"
       d="m 111,71 h 20 -20 13.63"
       style="fill:none;stroke:#000000;stroke-width:1;stroke-linecap:butt;stroke-linejoin:miter;stroke-miterlimit:10;stroke-dasharray:none;stroke-opacity:1"
       transform="matrix(0.95377116,0,0,0.95377116,0.47688559,0.47688559)"
       clip-path="url(#clipPath7)" />
    <path
       id="path8"
       d="m 129.88,71 -7,3.5 1.75,-3.5 -1.75,-3.5 z"
       style="fill:#000000;fill-opacity:1;fill-rule:nonzero;stroke:#000000;stroke-width:1;stroke-linecap:butt;stroke-linejoin:miter;stroke-miterlimit:10;stroke-dasharray:none;stroke-opacity:1"
       transform="matrix(0.95377116,0,0,0.95377116,0.47688559,0.47688559)"
       clip-path="url(#clipPath9)" />
    <path
       id="path10"
       d="M 1,51 H 111 V 91 H 1 Z"
       style="fill:#f5f5f5;fill-opacity:1;fill-rule:nonzero;stroke:#666666;stroke-width:1;stroke-linecap:butt;stroke-linejoin:miter;stroke-miterlimit:10;stroke-dasharray:none;stroke-opacity:1"
       transform="matrix(0.95377116,0,0,0.95377116,0.47688559,0.47688559)"
       clip-path="url(#clipPath11)" />
    <text
       id="text11"
       xml:space="preserve"
       transform="matrix(0.9537807,0,0,0.9537807,8.8820827,72.487333)"
       clip-path="url(#clipPath12)"><tspan
         style="font-style:oblique;font-variant:normal;font-weight:normal;font-size:16px;font-family:Helvetica;writing-mode:lr-tb;fill:#333333;fill-opacity:1;fill-rule:nonzero;stroke:none"
         x="0 8 16.898438 25.796875 36.46875 44.46875 48.914062 52.46875 60.46875 69.367188 73.8125 82.710938 88.039062"
         y="0"
         sodipodi:role="line"
         id="tspan11">canActivate()</tspan></text>
    <path
       id="path13"
       d="m 131,41 h 140 v 60 H 131 Z"
       style="fill:#f5f5f5;fill-opacity:1;fill-rule:nonzero;stroke:#666666;stroke-width:1;stroke-linecap:butt;stroke-linejoin:miter;stroke-miterlimit:10;stroke-dasharray:none;stroke-opacity:1"
       transform="matrix(0.95377116,0,0,0.95377116,0.47688559,0.47688559)"
       clip-path="url(#clipPath14)" />
    <text
       id="text14"
       xml:space="preserve"
       transform="matrix(0.9537807,0,0,0.9537807,126.18221,58.180622)"
       clip-path="url(#clipPath15)"><tspan
         style="font-style:oblique;font-variant:normal;font-weight:normal;font-size:12px;font-family:Helvetica;writing-mode:lr-tb;fill:#333333;fill-opacity:1;fill-rule:nonzero;stroke:none"
         x="0 8.6660156 15.339844 18.673828 25.347656 29.34375 36.017578 39.351562 42.685547 46.681641 53.355469 56.689453 63.363281 69.363281 72.697266 78.697266 85.371094 88.037109 94.710938 101.38477 104.71875 107.38477 110.71875 114.05273 120.72656 126.72656 133.40039"
         y="0"
         sodipodi:role="line"
         id="tspan14">Return truthy value if user</tspan></text>
    <text
       id="text15"
       xml:space="preserve"
       transform="matrix(0.9537807,0,0,0.9537807,136.36083,71.533552)"
       clip-path="url(#clipPath16)"><tspan
         style="font-style:oblique;font-variant:normal;font-weight:normal;font-size:12px;font-family:Helvetica;writing-mode:lr-tb;fill:#333333;fill-opacity:1;fill-rule:nonzero;stroke:none"
         x="0 6 12.673828 19.347656 22.681641 29.355469 35.355469 41.355469 48.029297 54.029297 60.029297 63.363281 66.697266 73.371094 76.037109 82.037109 85.371094 89.367188 96.041016 102.71484 106.04883 112.72266"
         y="0"
         sodipodi:role="line"
         id="tspan15">can access this route,</tspan></text>
    <text
       id="text16"
       xml:space="preserve"
       transform="matrix(0.9537807,0,0,0.9537807,165.61508,85.840263)"
       clip-path="url(#clipPath17)"><tspan
         style="font-style:oblique;font-variant:normal;font-weight:normal;font-size:12px;font-family:Helvetica;writing-mode:lr-tb;fill:#333333;fill-opacity:1;fill-rule:nonzero;stroke:none"
         x="0 3.3339844 10.007812 12.673828 18.673828 25.347656 28.681641 31.347656 34.681641 38.015625 44.689453 51.363281"
         y="0"
         sodipodi:role="line"
         id="tspan16">false if not</tspan></text>
  </g>
</svg>
