<?xml version="1.0" encoding="UTF-8" standalone="no"?>
<!-- Created with Inkscape (http://www.inkscape.org/) -->

<svg
   version="1.1"
   id="svg1"
   width="309.44"
   height="330.56"
   viewBox="0 0 309.44 330.56"
   sodipodi:docname="nest-6.pdf"
   xmlns:inkscape="http://www.inkscape.org/namespaces/inkscape"
   xmlns:sodipodi="http://sodipodi.sourceforge.net/DTD/sodipodi-0.dtd"
   xmlns="http://www.w3.org/2000/svg"
   xmlns:svg="http://www.w3.org/2000/svg">
  <defs
     id="defs1">
    <clipPath
       clipPathUnits="userSpaceOnUse"
       id="clipPath2">
      <path
         d="M 0,0 H 966.66656 V 1032.3044 H 0 Z"
         transform="scale(0.33517244)"
         clip-rule="evenodd"
         id="path2" />
    </clipPath>
    <clipPath
       clipPathUnits="userSpaceOnUse"
       id="clipPath4">
      <path
         d="M 0,0 H 966.66656 V 1026.3374 H 0 Z"
         transform="matrix(0.33517244,0,0,0.33517244,-0.49999999,-0.49999999)"
         clip-rule="evenodd"
         id="path4" />
    </clipPath>
    <clipPath
       clipPathUnits="userSpaceOnUse"
       id="clipPath5">
      <path
         d="M 0,0 H 966.66656 V 1026.3374 H 0 Z"
         transform="matrix(0.33516909,0,0,0.33516909,-39.859375,-97.000001)"
         clip-rule="evenodd"
         id="path5" />
    </clipPath>
    <clipPath
       clipPathUnits="userSpaceOnUse"
       id="clipPath6">
      <path
         d="M 0,0 H 966.66656 V 1026.3374 H 0 Z"
         transform="matrix(0.33516909,0,0,0.33516909,-36.437501,-120)"
         clip-rule="evenodd"
         id="path6" />
    </clipPath>
    <clipPath
       clipPathUnits="userSpaceOnUse"
       id="clipPath8">
      <path
         d="M 0,0 H 966.66656 V 1026.3374 H 0 Z"
         transform="matrix(0.33517244,0,0,0.33517244,-0.49999999,-0.49999999)"
         clip-rule="evenodd"
         id="path8" />
    </clipPath>
    <clipPath
       clipPathUnits="userSpaceOnUse"
       id="clipPath9">
      <path
         d="M 0,0 H 966.66656 V 1026.3374 H 0 Z"
         transform="matrix(0.33516909,0,0,0.33516909,-230.37501,-27)"
         clip-rule="evenodd"
         id="path9" />
    </clipPath>
    <clipPath
       clipPathUnits="userSpaceOnUse"
       id="clipPath10">
      <path
         d="M 0,0 H 966.66656 V 1026.3374 H 0 Z"
         transform="matrix(0.33516909,0,0,0.33516909,-236.4375,-50)"
         clip-rule="evenodd"
         id="path10" />
    </clipPath>
    <clipPath
       clipPathUnits="userSpaceOnUse"
       id="clipPath12">
      <path
         d="M 0,0 H 966.66656 V 1026.3374 H 0 Z"
         transform="matrix(0.33517244,0,0,0.33517244,-0.49999999,-0.49999999)"
         clip-rule="evenodd"
         id="path12" />
    </clipPath>
    <clipPath
       clipPathUnits="userSpaceOnUse"
       id="clipPath13">
      <path
         d="M 0,0 H 966.66656 V 1026.3374 H 0 Z"
         transform="matrix(0.33516909,0,0,0.33516909,-230.37501,-97.000001)"
         clip-rule="evenodd"
         id="path13" />
    </clipPath>
    <clipPath
       clipPathUnits="userSpaceOnUse"
       id="clipPath14">
      <path
         d="M 0,0 H 966.66656 V 1026.3374 H 0 Z"
         transform="matrix(0.33516909,0,0,0.33516909,-236.4375,-120)"
         clip-rule="evenodd"
         id="path14" />
    </clipPath>
    <clipPath
       clipPathUnits="userSpaceOnUse"
       id="clipPath16">
      <path
         d="M 0,0 H 966.66656 V 1026.3374 H 0 Z"
         transform="matrix(0.33517244,0,0,0.33517244,-0.49999999,-0.49999999)"
         clip-rule="evenodd"
         id="path16" />
    </clipPath>
    <clipPath
       clipPathUnits="userSpaceOnUse"
       id="clipPath17">
      <path
         d="M 0,0 H 966.66656 V 1026.3374 H 0 Z"
         transform="matrix(0.33516909,0,0,0.33516909,-230.37501,-167)"
         clip-rule="evenodd"
         id="path17" />
    </clipPath>
    <clipPath
       clipPathUnits="userSpaceOnUse"
       id="clipPath18">
      <path
         d="M 0,0 H 966.66656 V 1026.3374 H 0 Z"
         transform="matrix(0.33516909,0,0,0.33516909,-236.4375,-190)"
         clip-rule="evenodd"
         id="path18" />
    </clipPath>
    <clipPath
       clipPathUnits="userSpaceOnUse"
       id="clipPath20">
      <path
         d="M 0,0 H 966.66656 V 1026.3374 H 0 Z"
         transform="matrix(0.33517244,0,0,0.33517244,-0.49999999,-0.49999999)"
         clip-rule="evenodd"
         id="path20" />
    </clipPath>
    <clipPath
       clipPathUnits="userSpaceOnUse"
       id="clipPath22">
      <path
         d="M 0,0 H 966.66656 V 1026.3374 H 0 Z"
         transform="matrix(0.33517244,0,0,0.33517244,-0.49999999,-0.49999999)"
         clip-rule="evenodd"
         id="path22" />
    </clipPath>
    <clipPath
       clipPathUnits="userSpaceOnUse"
       id="clipPath23">
      <path
         d="M 0,0 H 966.66656 V 1026.3374 H 0 Z"
         transform="matrix(0.33516909,0,0,0.33516909,-39.859375,-272)"
         clip-rule="evenodd"
         id="path23" />
    </clipPath>
    <clipPath
       clipPathUnits="userSpaceOnUse"
       id="clipPath24">
      <path
         d="M 0,0 H 966.66656 V 1026.3374 H 0 Z"
         transform="matrix(0.33516909,0,0,0.33516909,-36.437501,-295)"
         clip-rule="evenodd"
         id="path24" />
    </clipPath>
    <clipPath
       clipPathUnits="userSpaceOnUse"
       id="clipPath26">
      <path
         d="M 0,0 H 966.66656 V 1026.3374 H 0 Z"
         transform="matrix(0.33517244,0,0,0.33517244,-0.49999999,-0.49999999)"
         clip-rule="evenodd"
         id="path26" />
    </clipPath>
    <clipPath
       clipPathUnits="userSpaceOnUse"
       id="clipPath27">
      <path
         d="M 0,0 H 966.66656 V 1026.3374 H 0 Z"
         transform="matrix(0.33516909,0,0,0.33516909,-230.37501,-237)"
         clip-rule="evenodd"
         id="path27" />
    </clipPath>
    <clipPath
       clipPathUnits="userSpaceOnUse"
       id="clipPath28">
      <path
         d="M 0,0 H 966.66656 V 1026.3374 H 0 Z"
         transform="matrix(0.33516909,0,0,0.33516909,-236.4375,-260.00001)"
         clip-rule="evenodd"
         id="path28" />
    </clipPath>
    <clipPath
       clipPathUnits="userSpaceOnUse"
       id="clipPath30">
      <path
         d="M 0,0 H 966.66656 V 1026.3374 H 0 Z"
         transform="matrix(0.33517244,0,0,0.33517244,-0.49999999,-0.49999999)"
         clip-rule="evenodd"
         id="path30" />
    </clipPath>
    <clipPath
       clipPathUnits="userSpaceOnUse"
       id="clipPath31">
      <path
         d="M 0,0 H 966.66656 V 1026.3374 H 0 Z"
         transform="matrix(0.33516909,0,0,0.33516909,-230.37501,-307)"
         clip-rule="evenodd"
         id="path31" />
    </clipPath>
    <clipPath
       clipPathUnits="userSpaceOnUse"
       id="clipPath32">
      <path
         d="M 0,0 H 966.66656 V 1026.3374 H 0 Z"
         transform="matrix(0.33516909,0,0,0.33516909,-236.4375,-330)"
         clip-rule="evenodd"
         id="path32" />
    </clipPath>
    <clipPath
       clipPathUnits="userSpaceOnUse"
       id="clipPath34">
      <path
         d="M 0,0 H 966.66656 V 1026.3374 H 0 Z"
         transform="matrix(0.33517244,0,0,0.33517244,-0.49999999,-0.49999999)"
         clip-rule="evenodd"
         id="path34" />
    </clipPath>
  </defs>
  <sodipodi:namedview
     id="namedview1"
     pagecolor="#ffffff"
     bordercolor="#000000"
     borderopacity="0.25"
     inkscape:showpageshadow="2"
     inkscape:pageopacity="0.0"
     inkscape:pagecheckerboard="0"
     inkscape:deskcolor="#d1d1d1">
    <inkscape:page
       x="0"
       y="0"
       inkscape:label="1"
       id="page1"
       width="309.44"
       height="330.56"
       margin="0"
       bleed="0" />
  </sodipodi:namedview>
  <g
     id="g1"
     inkscape:groupmode="layer"
     inkscape:label="1">
    <path
       id="path1"
       d="M 0,0 H 324 V 346 H 0 Z"
       style="fill:#ffffff;fill-opacity:1;fill-rule:nonzero;stroke:none"
       transform="scale(0.95473241)"
       clip-path="url(#clipPath2)" />
    <path
       id="path3"
       d="m 1,71 h 120 v 60 H 1 Z"
       style="fill:#dae8fc;fill-opacity:1;fill-rule:nonzero;stroke:#6c8ebf;stroke-width:1;stroke-linecap:butt;stroke-linejoin:miter;stroke-miterlimit:10;stroke-dasharray:none;stroke-opacity:1"
       transform="matrix(0.95473241,0,0,0.95473241,0.4773662,0.4773662)"
       clip-path="url(#clipPath4)" />
    <text
       id="text4"
       xml:space="preserve"
       transform="matrix(0.95474194,0,0,0.95474194,38.055417,92.609969)"
       clip-path="url(#clipPath5)"><tspan
         style="font-variant:normal;font-weight:700;font-size:19px;font-family:Helvetica;writing-mode:lr-tb;fill:#000000;fill-opacity:1;fill-rule:nonzero;stroke:none"
         x="0 13.721191 24.288086 34.85498"
         y="0"
         sodipodi:role="line"
         id="tspan4">User</tspan></text>
    <text
       id="text5"
       xml:space="preserve"
       transform="matrix(0.95474194,0,0,0.95474194,34.78841,114.56903)"
       clip-path="url(#clipPath6)"><tspan
         style="font-variant:normal;font-weight:700;font-size:19px;font-family:Helvetica;writing-mode:lr-tb;fill:#000000;fill-opacity:1;fill-rule:nonzero;stroke:none"
         x="0 5.2788086 16.884766 22.163574 33.259277 38.538086"
         y="0"
         sodipodi:role="line"
         id="tspan5">id = 1</tspan></text>
    <path
       id="path7"
       d="M 201,1 H 321 V 61 H 201 Z"
       style="fill:#d5e8d4;fill-opacity:1;fill-rule:nonzero;stroke:#82b366;stroke-width:1;stroke-linecap:butt;stroke-linejoin:miter;stroke-miterlimit:10;stroke-dasharray:none;stroke-opacity:1"
       transform="matrix(0.95473241,0,0,0.95473241,0.4773662,0.4773662)"
       clip-path="url(#clipPath8)" />
    <text
       id="text8"
       xml:space="preserve"
       transform="matrix(0.95474194,0,0,0.95474194,219.94868,25.778032)"
       clip-path="url(#clipPath9)"><tspan
         style="font-variant:normal;font-weight:700;font-size:19px;font-family:Helvetica;writing-mode:lr-tb;fill:#000000;fill-opacity:1;fill-rule:nonzero;stroke:none"
         x="0 13.721191 24.288086 35.894043 47.5 54.894043"
         y="0"
         sodipodi:role="line"
         id="tspan8">Report</tspan></text>
    <text
       id="text9"
       xml:space="preserve"
       transform="matrix(0.95474194,0,0,0.95474194,225.7368,47.737097)"
       clip-path="url(#clipPath10)"><tspan
         style="font-variant:normal;font-weight:700;font-size:19px;font-family:Helvetica;writing-mode:lr-tb;fill:#000000;fill-opacity:1;fill-rule:nonzero;stroke:none"
         x="0 5.2788086 16.884766 22.163574 33.259277 38.538086"
         y="0"
         sodipodi:role="line"
         id="tspan9">id = 1</tspan></text>
    <path
       id="path11"
       d="m 201,71 h 120 v 60 H 201 Z"
       style="fill:#d5e8d4;fill-opacity:1;fill-rule:nonzero;stroke:#82b366;stroke-width:1;stroke-linecap:butt;stroke-linejoin:miter;stroke-miterlimit:10;stroke-dasharray:none;stroke-opacity:1"
       transform="matrix(0.95473241,0,0,0.95473241,0.4773662,0.4773662)"
       clip-path="url(#clipPath12)" />
    <text
       id="text12"
       xml:space="preserve"
       transform="matrix(0.95474194,0,0,0.95474194,219.94868,92.609969)"
       clip-path="url(#clipPath13)"><tspan
         style="font-variant:normal;font-weight:700;font-size:19px;font-family:Helvetica;writing-mode:lr-tb;fill:#000000;fill-opacity:1;fill-rule:nonzero;stroke:none"
         x="0 13.721191 24.288086 35.894043 47.5 54.894043"
         y="0"
         sodipodi:role="line"
         id="tspan12">Report</tspan></text>
    <text
       id="text13"
       xml:space="preserve"
       transform="matrix(0.95474194,0,0,0.95474194,225.7368,114.56903)"
       clip-path="url(#clipPath14)"><tspan
         style="font-variant:normal;font-weight:700;font-size:19px;font-family:Helvetica;writing-mode:lr-tb;fill:#000000;fill-opacity:1;fill-rule:nonzero;stroke:none"
         x="0 5.2788086 16.884766 22.163574 33.259277 38.538086"
         y="0"
         sodipodi:role="line"
         id="tspan13">id = 2</tspan></text>
    <path
       id="path15"
       d="m 201,141 h 120 v 60 H 201 Z"
       style="fill:#d5e8d4;fill-opacity:1;fill-rule:nonzero;stroke:#82b366;stroke-width:1;stroke-linecap:butt;stroke-linejoin:miter;stroke-miterlimit:10;stroke-dasharray:none;stroke-opacity:1"
       transform="matrix(0.95473241,0,0,0.95473241,0.4773662,0.4773662)"
       clip-path="url(#clipPath16)" />
    <text
       id="text16"
       xml:space="preserve"
       transform="matrix(0.95474194,0,0,0.95474194,219.94868,159.4419)"
       clip-path="url(#clipPath17)"><tspan
         style="font-variant:normal;font-weight:700;font-size:19px;font-family:Helvetica;writing-mode:lr-tb;fill:#000000;fill-opacity:1;fill-rule:nonzero;stroke:none"
         x="0 13.721191 24.288086 35.894043 47.5 54.894043"
         y="0"
         sodipodi:role="line"
         id="tspan16">Report</tspan></text>
    <text
       id="text17"
       xml:space="preserve"
       transform="matrix(0.95474194,0,0,0.95474194,225.7368,181.40097)"
       clip-path="url(#clipPath18)"><tspan
         style="font-variant:normal;font-weight:700;font-size:19px;font-family:Helvetica;writing-mode:lr-tb;fill:#000000;fill-opacity:1;fill-rule:nonzero;stroke:none"
         x="0 5.2788086 16.884766 22.163574 33.259277 38.538086"
         y="0"
         sodipodi:role="line"
         id="tspan17">id = 3</tspan></text>
    <path
       id="path19"
       d="m 191,1 h -25 c -6.66667,0 -10,3.333333 -10,10 v 80 c 0,6.666664 -3.33333,10 -10,10 h -15 c -6.66666,0 -6.66666,0 0,0 h 15 c 6.66667,0 10,3.33334 10,10 v 80 c 0,6.66667 3.33333,10 10,10 h 25"
       style="fill:none;stroke:#000000;stroke-width:1;stroke-linecap:butt;stroke-linejoin:miter;stroke-miterlimit:10;stroke-dasharray:none;stroke-opacity:1"
       transform="matrix(0.95473241,0,0,0.95473241,0.4773662,0.4773662)"
       clip-path="url(#clipPath20)" />
    <path
       id="path21"
       d="m 1,246 h 120 v 60 H 1 Z"
       style="fill:#dae8fc;fill-opacity:1;fill-rule:nonzero;stroke:#6c8ebf;stroke-width:1;stroke-linecap:butt;stroke-linejoin:miter;stroke-miterlimit:10;stroke-dasharray:none;stroke-opacity:1"
       transform="matrix(0.95473241,0,0,0.95473241,0.4773662,0.4773662)"
       clip-path="url(#clipPath22)" />
    <text
       id="text22"
       xml:space="preserve"
       transform="matrix(0.95474194,0,0,0.95474194,38.055417,259.68981)"
       clip-path="url(#clipPath23)"><tspan
         style="font-variant:normal;font-weight:700;font-size:19px;font-family:Helvetica;writing-mode:lr-tb;fill:#000000;fill-opacity:1;fill-rule:nonzero;stroke:none"
         x="0 13.721191 24.288086 34.85498"
         y="0"
         sodipodi:role="line"
         id="tspan22">User</tspan></text>
    <text
       id="text23"
       xml:space="preserve"
       transform="matrix(0.95474194,0,0,0.95474194,34.78841,281.64887)"
       clip-path="url(#clipPath24)"><tspan
         style="font-variant:normal;font-weight:700;font-size:19px;font-family:Helvetica;writing-mode:lr-tb;fill:#000000;fill-opacity:1;fill-rule:nonzero;stroke:none"
         x="0 5.2788086 16.884766 22.163574 33.259277 38.538086"
         y="0"
         sodipodi:role="line"
         id="tspan23">id = 2</tspan></text>
    <path
       id="path25"
       d="m 201,211 h 120 v 60 H 201 Z"
       style="fill:#fff2cc;fill-opacity:1;fill-rule:nonzero;stroke:#d6b656;stroke-width:1;stroke-linecap:butt;stroke-linejoin:miter;stroke-miterlimit:10;stroke-dasharray:none;stroke-opacity:1"
       transform="matrix(0.95473241,0,0,0.95473241,0.4773662,0.4773662)"
       clip-path="url(#clipPath26)" />
    <text
       id="text26"
       xml:space="preserve"
       transform="matrix(0.95474194,0,0,0.95474194,219.94868,226.27384)"
       clip-path="url(#clipPath27)"><tspan
         style="font-variant:normal;font-weight:700;font-size:19px;font-family:Helvetica;writing-mode:lr-tb;fill:#000000;fill-opacity:1;fill-rule:nonzero;stroke:none"
         x="0 13.721191 24.288086 35.894043 47.5 54.894043"
         y="0"
         sodipodi:role="line"
         id="tspan26">Report</tspan></text>
    <text
       id="text27"
       xml:space="preserve"
       transform="matrix(0.95474194,0,0,0.95474194,225.7368,248.23291)"
       clip-path="url(#clipPath28)"><tspan
         style="font-variant:normal;font-weight:700;font-size:19px;font-family:Helvetica;writing-mode:lr-tb;fill:#000000;fill-opacity:1;fill-rule:nonzero;stroke:none"
         x="0 5.2788086 16.884766 22.163574 33.259277 38.538086"
         y="0"
         sodipodi:role="line"
         id="tspan27">id = 4</tspan></text>
    <path
       id="path29"
       d="m 201,281 h 120 v 60 H 201 Z"
       style="fill:#fff2cc;fill-opacity:1;fill-rule:nonzero;stroke:#d6b656;stroke-width:1;stroke-linecap:butt;stroke-linejoin:miter;stroke-miterlimit:10;stroke-dasharray:none;stroke-opacity:1"
       transform="matrix(0.95473241,0,0,0.95473241,0.4773662,0.4773662)"
       clip-path="url(#clipPath30)" />
    <text
       id="text30"
       xml:space="preserve"
       transform="matrix(0.95474194,0,0,0.95474194,219.94868,293.10578)"
       clip-path="url(#clipPath31)"><tspan
         style="font-variant:normal;font-weight:700;font-size:19px;font-family:Helvetica;writing-mode:lr-tb;fill:#000000;fill-opacity:1;fill-rule:nonzero;stroke:none"
         x="0 13.721191 24.288086 35.894043 47.5 54.894043"
         y="0"
         sodipodi:role="line"
         id="tspan30">Report</tspan></text>
    <text
       id="text31"
       xml:space="preserve"
       transform="matrix(0.95474194,0,0,0.95474194,225.7368,315.06484)"
       clip-path="url(#clipPath32)"><tspan
         style="font-variant:normal;font-weight:700;font-size:19px;font-family:Helvetica;writing-mode:lr-tb;fill:#000000;fill-opacity:1;fill-rule:nonzero;stroke:none"
         x="0 5.2788086 16.884766 22.163574 33.259277 38.538086"
         y="0"
         sodipodi:role="line"
         id="tspan31">id = 5</tspan></text>
    <path
       id="path33"
       d="m 191,211 h -25 c -6.66667,0 -10,3.33333 -10,10 v 45 c 0,6.66666 -3.33333,10 -10,10 h -15 c -6.66666,0 -6.66666,0 0,0 h 15 c 6.66667,0 10,3.33334 10,10 v 45 c 0,6.66666 3.33333,10 10,10 h 25"
       style="fill:none;stroke:#000000;stroke-width:1;stroke-linecap:butt;stroke-linejoin:miter;stroke-miterlimit:10;stroke-dasharray:none;stroke-opacity:1"
       transform="matrix(0.95473241,0,0,0.95473241,0.4773662,0.4773662)"
       clip-path="url(#clipPath34)" />
  </g>
</svg>
