<?xml version="1.0" encoding="UTF-8" standalone="no"?>
<!-- Created with Inkscape (http://www.inkscape.org/) -->

<svg
   version="1.1"
   id="svg1"
   width="357.44"
   height="267.84"
   viewBox="0 0 357.44 267.84"
   sodipodi:docname="nest-14.pdf"
   xmlns:inkscape="http://www.inkscape.org/namespaces/inkscape"
   xmlns:sodipodi="http://sodipodi.sourceforge.net/DTD/sodipodi-0.dtd"
   xmlns="http://www.w3.org/2000/svg"
   xmlns:svg="http://www.w3.org/2000/svg">
  <defs
     id="defs1">
    <clipPath
       clipPathUnits="userSpaceOnUse"
       id="clipPath2">
      <path
         d="M 0,0 H 1116.6666 V 836.00714 H 0 Z"
         transform="scale(0.33492538)"
         clip-rule="evenodd"
         id="path2" />
    </clipPath>
    <clipPath
       clipPathUnits="userSpaceOnUse"
       id="clipPath4">
      <path
         d="M 0,0 H 1116.6666 V 830.03564 H 0 Z"
         transform="matrix(0.33492538,0,0,0.33492538,-0.5,-0.5)"
         clip-rule="evenodd"
         id="path4" />
    </clipPath>
    <clipPath
       clipPathUnits="userSpaceOnUse"
       id="clipPath5">
      <path
         d="M 0,0 H 1116.6666 V 830.03564 H 0 Z"
         transform="matrix(0.33492204,0,0,0.33492204,-30.968751,-21)"
         clip-rule="evenodd"
         id="path5" />
    </clipPath>
    <clipPath
       clipPathUnits="userSpaceOnUse"
       id="clipPath7">
      <path
         d="M 0,0 H 1116.6666 V 830.03564 H 0 Z"
         transform="matrix(0.33492538,0,0,0.33492538,-0.5,-0.5)"
         clip-rule="evenodd"
         id="path7" />
    </clipPath>
    <clipPath
       clipPathUnits="userSpaceOnUse"
       id="clipPath8">
      <path
         d="M 0,0 H 1116.6666 V 830.03564 H 0 Z"
         transform="matrix(0.33492204,0,0,0.33492204,-3,-51)"
         clip-rule="evenodd"
         id="path8" />
    </clipPath>
    <clipPath
       clipPathUnits="userSpaceOnUse"
       id="clipPath10">
      <path
         d="M 0,0 H 1116.6666 V 830.03564 H 0 Z"
         transform="matrix(0.33492538,0,0,0.33492538,-0.5,-0.5)"
         clip-rule="evenodd"
         id="path10" />
    </clipPath>
    <clipPath
       clipPathUnits="userSpaceOnUse"
       id="clipPath11">
      <path
         d="M 0,0 H 1116.6666 V 830.03564 H 0 Z"
         transform="matrix(0.33492204,0,0,0.33492204,-3,-81)"
         clip-rule="evenodd"
         id="path11" />
    </clipPath>
    <clipPath
       clipPathUnits="userSpaceOnUse"
       id="clipPath13">
      <path
         d="M 0,0 H 1116.6666 V 830.03564 H 0 Z"
         transform="matrix(0.33492538,0,0,0.33492538,-0.5,-0.5)"
         clip-rule="evenodd"
         id="path13" />
    </clipPath>
    <clipPath
       clipPathUnits="userSpaceOnUse"
       id="clipPath14">
      <path
         d="M 0,0 H 1116.6666 V 830.03564 H 0 Z"
         transform="matrix(0.33492204,0,0,0.33492204,-23.96875,-151)"
         clip-rule="evenodd"
         id="path14" />
    </clipPath>
    <clipPath
       clipPathUnits="userSpaceOnUse"
       id="clipPath16">
      <path
         d="M 0,0 H 1116.6666 V 830.03564 H 0 Z"
         transform="matrix(0.33492538,0,0,0.33492538,-0.5,-0.5)"
         clip-rule="evenodd"
         id="path16" />
    </clipPath>
    <clipPath
       clipPathUnits="userSpaceOnUse"
       id="clipPath17">
      <path
         d="M 0,0 H 1116.6666 V 830.03564 H 0 Z"
         transform="matrix(0.33492204,0,0,0.33492204,-3,-181)"
         clip-rule="evenodd"
         id="path17" />
    </clipPath>
    <clipPath
       clipPathUnits="userSpaceOnUse"
       id="clipPath19">
      <path
         d="M 0,0 H 1116.6666 V 830.03564 H 0 Z"
         transform="matrix(0.33492538,0,0,0.33492538,-0.5,-0.5)"
         clip-rule="evenodd"
         id="path19" />
    </clipPath>
    <clipPath
       clipPathUnits="userSpaceOnUse"
       id="clipPath20">
      <path
         d="M 0,0 H 1116.6666 V 830.03564 H 0 Z"
         transform="matrix(0.33492204,0,0,0.33492204,-3,-211)"
         clip-rule="evenodd"
         id="path20" />
    </clipPath>
    <clipPath
       clipPathUnits="userSpaceOnUse"
       id="clipPath22">
      <path
         d="M 0,0 H 1116.6666 V 830.03564 H 0 Z"
         transform="matrix(0.33492538,0,0,0.33492538,-0.5,-0.5)"
         clip-rule="evenodd"
         id="path22" />
    </clipPath>
    <clipPath
       clipPathUnits="userSpaceOnUse"
       id="clipPath24">
      <path
         d="M 0,0 H 1116.6666 V 830.03564 H 0 Z"
         transform="matrix(0.33492538,0,0,0.33492538,-0.5,-0.5)"
         clip-rule="evenodd"
         id="path24" />
    </clipPath>
    <clipPath
       clipPathUnits="userSpaceOnUse"
       id="clipPath26">
      <path
         d="M 0,0 H 1116.6666 V 830.03564 H 0 Z"
         transform="matrix(0.33492538,0,0,0.33492538,-0.5,-0.5)"
         clip-rule="evenodd"
         id="path26" />
    </clipPath>
    <clipPath
       clipPathUnits="userSpaceOnUse"
       id="clipPath27">
      <path
         d="M 0,0 H 1116.6666 V 830.03564 H 0 Z"
         transform="matrix(0.33492204,0,0,0.33492204,-202.34375,-26)"
         clip-rule="evenodd"
         id="path27" />
    </clipPath>
    <clipPath
       clipPathUnits="userSpaceOnUse"
       id="clipPath28">
      <path
         d="M 0,0 H 1116.6666 V 830.03564 H 0 Z"
         transform="matrix(0.33492204,0,0,0.33492204,-228.46875,-26)"
         clip-rule="evenodd"
         id="path28" />
    </clipPath>
    <clipPath
       clipPathUnits="userSpaceOnUse"
       id="clipPath29">
      <path
         d="M 0,0 H 1116.6666 V 830.03564 H 0 Z"
         transform="matrix(0.33492204,0,0,0.33492204,-244.01563,-26)"
         clip-rule="evenodd"
         id="path29" />
    </clipPath>
    <clipPath
       clipPathUnits="userSpaceOnUse"
       id="clipPath31">
      <path
         d="M 0,0 H 1116.6666 V 830.03564 H 0 Z"
         transform="matrix(0.33492538,0,0,0.33492538,-0.5,-0.5)"
         clip-rule="evenodd"
         id="path31" />
    </clipPath>
    <clipPath
       clipPathUnits="userSpaceOnUse"
       id="clipPath33">
      <path
         d="M 0,0 H 1116.6666 V 830.03564 H 0 Z"
         transform="matrix(0.33492538,0,0,0.33492538,-0.5,-0.5)"
         clip-rule="evenodd"
         id="path33" />
    </clipPath>
    <clipPath
       clipPathUnits="userSpaceOnUse"
       id="clipPath35">
      <path
         d="M 0,0 H 1116.6666 V 830.03564 H 0 Z"
         transform="matrix(0.33492538,0,0,0.33492538,-0.5,-0.5)"
         clip-rule="evenodd"
         id="path35" />
    </clipPath>
    <clipPath
       clipPathUnits="userSpaceOnUse"
       id="clipPath36">
      <path
         d="M 0,0 H 1116.6666 V 830.03564 H 0 Z"
         transform="matrix(0.33492204,0,0,0.33492204,-216.51563,-176)"
         clip-rule="evenodd"
         id="path36" />
    </clipPath>
    <clipPath
       clipPathUnits="userSpaceOnUse"
       id="clipPath38">
      <path
         d="M 0,0 H 1116.6666 V 830.03564 H 0 Z"
         transform="matrix(0.33492538,0,0,0.33492538,-0.5,-0.5)"
         clip-rule="evenodd"
         id="path38" />
    </clipPath>
    <clipPath
       clipPathUnits="userSpaceOnUse"
       id="clipPath40">
      <path
         d="M 0,0 H 1116.6666 V 830.03564 H 0 Z"
         transform="matrix(0.33492538,0,0,0.33492538,-0.5,-0.5)"
         clip-rule="evenodd"
         id="path40" />
    </clipPath>
    <clipPath
       clipPathUnits="userSpaceOnUse"
       id="clipPath42">
      <path
         d="M 0,0 H 1116.6666 V 830.03564 H 0 Z"
         transform="matrix(0.33492538,0,0,0.33492538,-0.5,-0.5)"
         clip-rule="evenodd"
         id="path42" />
    </clipPath>
    <clipPath
       clipPathUnits="userSpaceOnUse"
       id="clipPath43">
      <path
         d="M 0,0 H 1116.6666 V 830.03564 H 0 Z"
         transform="matrix(0.33492204,0,0,0.33492204,-197.90625,-199)"
         clip-rule="evenodd"
         id="path43" />
    </clipPath>
    <clipPath
       clipPathUnits="userSpaceOnUse"
       id="clipPath44">
      <path
         d="M 0,0 H 1116.6666 V 830.03564 H 0 Z"
         transform="matrix(0.33492204,0,0,0.33492204,-243.20313,-211)"
         clip-rule="evenodd"
         id="path44" />
    </clipPath>
    <clipPath
       clipPathUnits="userSpaceOnUse"
       id="clipPath45">
      <path
         d="M 0,0 H 1116.6666 V 830.03564 H 0 Z"
         transform="matrix(0.33492204,0,0,0.33492204,-251.8125,-223)"
         clip-rule="evenodd"
         id="path45" />
    </clipPath>
    <clipPath
       clipPathUnits="userSpaceOnUse"
       id="clipPath47">
      <path
         d="M 0,0 H 1116.6666 V 830.03564 H 0 Z"
         transform="matrix(0.33492538,0,0,0.33492538,-0.5,-0.5)"
         clip-rule="evenodd"
         id="path47" />
    </clipPath>
    <clipPath
       clipPathUnits="userSpaceOnUse"
       id="clipPath49">
      <path
         d="M 0,0 H 1116.6666 V 830.03564 H 0 Z"
         transform="matrix(0.33492538,0,0,0.33492538,-0.5,-0.5)"
         clip-rule="evenodd"
         id="path49" />
    </clipPath>
    <clipPath
       clipPathUnits="userSpaceOnUse"
       id="clipPath51">
      <path
         d="M 0,0 H 1116.6666 V 830.03564 H 0 Z"
         transform="matrix(0.33492538,0,0,0.33492538,-0.5,-0.5)"
         clip-rule="evenodd"
         id="path51" />
    </clipPath>
    <clipPath
       clipPathUnits="userSpaceOnUse"
       id="clipPath52">
      <path
         d="M 0,0 H 1116.6666 V 830.03564 H 0 Z"
         transform="matrix(0.33492204,0,0,0.33492204,-202.35938,-252)"
         clip-rule="evenodd"
         id="path52" />
    </clipPath>
    <clipPath
       clipPathUnits="userSpaceOnUse"
       id="clipPath53">
      <path
         d="M 0,0 H 1116.6666 V 830.03564 H 0 Z"
         transform="matrix(0.33492204,0,0,0.33492204,-256.28125,-252)"
         clip-rule="evenodd"
         id="path53" />
    </clipPath>
    <clipPath
       clipPathUnits="userSpaceOnUse"
       id="clipPath54">
      <path
         d="M 0,0 H 1116.6666 V 830.03564 H 0 Z"
         transform="matrix(0.33492204,0,0,0.33492204,-204.29688,-264)"
         clip-rule="evenodd"
         id="path54" />
    </clipPath>
    <clipPath
       clipPathUnits="userSpaceOnUse"
       id="clipPath55">
      <path
         d="M 0,0 H 1116.6666 V 830.03564 H 0 Z"
         transform="matrix(0.33492204,0,0,0.33492204,-239.85938,-264)"
         clip-rule="evenodd"
         id="path55" />
    </clipPath>
    <clipPath
       clipPathUnits="userSpaceOnUse"
       id="clipPath57">
      <path
         d="M 0,0 H 1116.6666 V 830.03564 H 0 Z"
         transform="matrix(0.33492538,0,0,0.33492538,-0.5,-0.5)"
         clip-rule="evenodd"
         id="path57" />
    </clipPath>
    <clipPath
       clipPathUnits="userSpaceOnUse"
       id="clipPath59">
      <path
         d="M 0,0 H 1116.6666 V 830.03564 H 0 Z"
         transform="matrix(0.33492538,0,0,0.33492538,-0.5,-0.5)"
         clip-rule="evenodd"
         id="path59" />
    </clipPath>
    <clipPath
       clipPathUnits="userSpaceOnUse"
       id="clipPath61">
      <path
         d="M 0,0 H 1116.6666 V 830.03564 H 0 Z"
         transform="matrix(0.33492538,0,0,0.33492538,-0.5,-0.5)"
         clip-rule="evenodd"
         id="path61" />
    </clipPath>
    <clipPath
       clipPathUnits="userSpaceOnUse"
       id="clipPath62">
      <path
         d="M 0,0 H 1116.6666 V 830.03564 H 0 Z"
         transform="matrix(0.33492204,0,0,0.33492204,-185.39063,-51)"
         clip-rule="evenodd"
         id="path62" />
    </clipPath>
    <clipPath
       clipPathUnits="userSpaceOnUse"
       id="clipPath63">
      <path
         d="M 0,0 H 1116.6666 V 830.03564 H 0 Z"
         transform="matrix(0.33492204,0,0,0.33492204,-265.71875,-63)"
         clip-rule="evenodd"
         id="path63" />
    </clipPath>
    <clipPath
       clipPathUnits="userSpaceOnUse"
       id="clipPath64">
      <path
         d="M 0,0 H 1116.6666 V 830.03564 H 0 Z"
         transform="matrix(0.33492204,0,0,0.33492204,-249.59375,-75)"
         clip-rule="evenodd"
         id="path64" />
    </clipPath>
    <clipPath
       clipPathUnits="userSpaceOnUse"
       id="clipPath66">
      <path
         d="M 0,0 H 1116.6666 V 830.03564 H 0 Z"
         transform="matrix(0.33492538,0,0,0.33492538,-0.5,-0.5)"
         clip-rule="evenodd"
         id="path66" />
    </clipPath>
    <clipPath
       clipPathUnits="userSpaceOnUse"
       id="clipPath68">
      <path
         d="M 0,0 H 1116.6666 V 830.03564 H 0 Z"
         transform="matrix(0.33492538,0,0,0.33492538,-0.5,-0.5)"
         clip-rule="evenodd"
         id="path68" />
    </clipPath>
    <clipPath
       clipPathUnits="userSpaceOnUse"
       id="clipPath70">
      <path
         d="M 0,0 H 1116.6666 V 830.03564 H 0 Z"
         transform="matrix(0.33492538,0,0,0.33492538,-0.5,-0.5)"
         clip-rule="evenodd"
         id="path70" />
    </clipPath>
    <clipPath
       clipPathUnits="userSpaceOnUse"
       id="clipPath71">
      <path
         d="M 0,0 H 1116.6666 V 830.03564 H 0 Z"
         transform="matrix(0.33492204,0,0,0.33492204,-202.35938,-108)"
         clip-rule="evenodd"
         id="path71" />
    </clipPath>
    <clipPath
       clipPathUnits="userSpaceOnUse"
       id="clipPath72">
      <path
         d="M 0,0 H 1116.6666 V 830.03564 H 0 Z"
         transform="matrix(0.33492204,0,0,0.33492204,-256.28125,-108)"
         clip-rule="evenodd"
         id="path72" />
    </clipPath>
    <clipPath
       clipPathUnits="userSpaceOnUse"
       id="clipPath73">
      <path
         d="M 0,0 H 1116.6666 V 830.03564 H 0 Z"
         transform="matrix(0.33492204,0,0,0.33492204,-208.75,-120)"
         clip-rule="evenodd"
         id="path73" />
    </clipPath>
    <clipPath
       clipPathUnits="userSpaceOnUse"
       id="clipPath74">
      <path
         d="M 0,0 H 1116.6666 V 830.03564 H 0 Z"
         transform="matrix(0.33492204,0,0,0.33492204,-244.3125,-120)"
         clip-rule="evenodd"
         id="path74" />
    </clipPath>
  </defs>
  <sodipodi:namedview
     id="namedview1"
     pagecolor="#ffffff"
     bordercolor="#000000"
     borderopacity="0.25"
     inkscape:showpageshadow="2"
     inkscape:pageopacity="0.0"
     inkscape:pagecheckerboard="0"
     inkscape:deskcolor="#d1d1d1">
    <inkscape:page
       x="0"
       y="0"
       inkscape:label="1"
       id="page1"
       width="357.44"
       height="267.84"
       margin="0"
       bleed="0" />
  </sodipodi:namedview>
  <g
     id="g1"
     inkscape:groupmode="layer"
     inkscape:label="1">
    <path
       id="path1"
       d="M 0,0 H 374 V 280 H 0 Z"
       style="fill:#ffffff;fill-opacity:1;fill-rule:nonzero;stroke:none"
       transform="scale(0.95543666)"
       clip-path="url(#clipPath2)" />
    <path
       id="path3"
       d="M 1,1 H 131 V 31 H 1 Z"
       style="fill:#dae8fc;fill-opacity:1;fill-rule:nonzero;stroke:#6c8ebf;stroke-width:1;stroke-linecap:butt;stroke-linejoin:miter;stroke-miterlimit:10;stroke-dasharray:none;stroke-opacity:1"
       transform="matrix(0.95543666,0,0,0.95543666,0.47771833,0.47771833)"
       clip-path="url(#clipPath4)" />
    <text
       id="text4"
       xml:space="preserve"
       transform="matrix(0.9554462,0,0,0.9554462,29.588975,20.06437)"
       clip-path="url(#clipPath5)"><tspan
         style="font-variant:normal;font-weight:700;font-size:14px;font-family:Helvetica;writing-mode:lr-tb;fill:#000000;fill-opacity:1;fill-rule:nonzero;stroke:none"
         x="0 7.7861328 11.675781 19.461914 27.248047 35.03418 38.923828 49.03418 56.820312 64.606445"
         y="0"
         sodipodi:role="line"
         id="tspan4">class User</tspan></text>
    <path
       id="path6"
       d="M 1,31 H 131 V 61 H 1 Z"
       style="fill:#f5f5f5;fill-opacity:1;fill-rule:nonzero;stroke:#666666;stroke-width:1;stroke-linecap:butt;stroke-linejoin:miter;stroke-miterlimit:10;stroke-dasharray:none;stroke-opacity:1"
       transform="matrix(0.95543666,0,0,0.95543666,0.47771833,0.47771833)"
       clip-path="url(#clipPath7)" />
    <text
       id="text7"
       xml:space="preserve"
       transform="matrix(0.9554462,0,0,0.9554462,2.8663386,48.727756)"
       clip-path="url(#clipPath8)"><tspan
         style="font-variant:normal;font-weight:normal;font-size:14px;font-family:Helvetica;writing-mode:lr-tb;fill:#333333;fill-opacity:1;fill-rule:nonzero;stroke:none"
         x="0 3.8896484 7.7792969 21.991211 32.880859 40.666992 48.453125 55.453125 63.239258 74.901367 82.6875 90.473633 97.473633 102.13574"
         y="0"
         sodipodi:role="line"
         id="tspan7">  @OneToMany()</tspan></text>
    <path
       id="path9"
       d="M 1,61 H 131 V 91 H 1 Z"
       style="fill:#f5f5f5;fill-opacity:1;fill-rule:nonzero;stroke:#666666;stroke-width:1;stroke-linecap:butt;stroke-linejoin:miter;stroke-miterlimit:10;stroke-dasharray:none;stroke-opacity:1"
       transform="matrix(0.95543666,0,0,0.95543666,0.47771833,0.47771833)"
       clip-path="url(#clipPath10)" />
    <text
       id="text10"
       xml:space="preserve"
       transform="matrix(0.9554462,0,0,0.9554462,2.8663386,77.391142)"
       clip-path="url(#clipPath11)"><tspan
         style="font-variant:normal;font-weight:normal;font-size:14px;font-family:Helvetica;writing-mode:lr-tb;fill:#333333;fill-opacity:1;fill-rule:nonzero;stroke:none"
         x="0 3.8896484 7.7792969 12.441406 20.227539 28.013672 35.799805 40.461914 44.351562 51.351562 55.241211 59.130859 69.241211 77.027344 84.813477 92.599609 97.261719 101.15137 105.04102"
         y="0"
         sodipodi:role="line"
         id="tspan10">  reports: Report[]</tspan></text>
    <path
       id="path12"
       d="m 1,131 h 130 v 30 H 1 Z"
       style="fill:#d5e8d4;fill-opacity:1;fill-rule:nonzero;stroke:#82b366;stroke-width:1;stroke-linecap:butt;stroke-linejoin:miter;stroke-miterlimit:10;stroke-dasharray:none;stroke-opacity:1"
       transform="matrix(0.95543666,0,0,0.95543666,0.47771833,0.47771833)"
       clip-path="url(#clipPath13)" />
    <text
       id="text13"
       xml:space="preserve"
       transform="matrix(0.9554462,0,0,0.9554462,22.900851,144.27238)"
       clip-path="url(#clipPath14)"><tspan
         style="font-variant:normal;font-weight:700;font-size:14px;font-family:Helvetica;writing-mode:lr-tb;fill:#000000;fill-opacity:1;fill-rule:nonzero;stroke:none"
         x="0 7.7861328 11.675781 19.461914 27.248047 35.03418 38.923828 49.03418 56.820312 65.37207 73.923828 79.37207"
         y="0"
         sodipodi:role="line"
         id="tspan13">class Report</tspan></text>
    <path
       id="path15"
       d="m 1,161 h 130 v 30 H 1 Z"
       style="fill:#f5f5f5;fill-opacity:1;fill-rule:nonzero;stroke:#666666;stroke-width:1;stroke-linecap:butt;stroke-linejoin:miter;stroke-miterlimit:10;stroke-dasharray:none;stroke-opacity:1"
       transform="matrix(0.95543666,0,0,0.95543666,0.47771833,0.47771833)"
       clip-path="url(#clipPath16)" />
    <text
       id="text16"
       xml:space="preserve"
       transform="matrix(0.9554462,0,0,0.9554462,2.8663386,172.93576)"
       clip-path="url(#clipPath17)"><tspan
         style="font-variant:normal;font-weight:normal;font-size:14px;font-family:Helvetica;writing-mode:lr-tb;fill:#333333;fill-opacity:1;fill-rule:nonzero;stroke:none"
         x="0 3.8896484 7.7792969 21.991211 33.65332 41.439453 49.225586 56.225586 63.225586 71.011719 81.901367 89.6875 97.473633 102.13574"
         y="0"
         sodipodi:role="line"
         id="tspan16">  @ManyToOne()</tspan></text>
    <path
       id="path18"
       d="m 1,191 h 130 v 30 H 1 Z"
       style="fill:#f5f5f5;fill-opacity:1;fill-rule:nonzero;stroke:#666666;stroke-width:1;stroke-linecap:butt;stroke-linejoin:miter;stroke-miterlimit:10;stroke-dasharray:none;stroke-opacity:1"
       transform="matrix(0.95543666,0,0,0.95543666,0.47771833,0.47771833)"
       clip-path="url(#clipPath19)" />
    <text
       id="text19"
       xml:space="preserve"
       transform="matrix(0.9554462,0,0,0.9554462,2.8663386,201.59915)"
       clip-path="url(#clipPath20)"><tspan
         style="font-variant:normal;font-weight:normal;font-size:14px;font-family:Helvetica;writing-mode:lr-tb;fill:#333333;fill-opacity:1;fill-rule:nonzero;stroke:none"
         x="0 3.8896484 7.7792969 15.56543 22.56543 30.351562 35.013672 38.90332 42.792969 52.90332 59.90332 67.689453"
         y="0"
         sodipodi:role="line"
         id="tspan19">  user: User</tspan></text>
    <path
       id="path21"
       d="M 181,21 H 156 V 46 H 137.36999"
       style="fill:none;stroke:#000000;stroke-width:1;stroke-linecap:butt;stroke-linejoin:miter;stroke-miterlimit:10;stroke-dasharray:none;stroke-opacity:1"
       transform="matrix(0.95543666,0,0,0.95543666,0.47771833,0.47771833)"
       clip-path="url(#clipPath22)" />
    <path
       id="path23"
       d="m 132.11999,46 7,-3.5 -1.75,3.5 1.75,3.5 z"
       style="fill:#000000;fill-opacity:1;fill-rule:nonzero;stroke:#000000;stroke-width:1;stroke-linecap:butt;stroke-linejoin:miter;stroke-miterlimit:10;stroke-dasharray:none;stroke-opacity:1"
       transform="matrix(0.95543666,0,0,0.95543666,0.47771833,0.47771833)"
       clip-path="url(#clipPath24)" />
    <path
       id="path25"
       d="M 181,11 H 371 V 31 H 181 Z"
       style="fill:#ffffff;fill-opacity:1;fill-rule:nonzero;stroke:#000000;stroke-width:1;stroke-linecap:butt;stroke-linejoin:miter;stroke-miterlimit:10;stroke-dasharray:none;stroke-opacity:1"
       transform="matrix(0.95543666,0,0,0.95543666,0.47771833,0.47771833)"
       clip-path="url(#clipPath26)" />
    <text
       id="text26"
       xml:space="preserve"
       transform="matrix(0.9554462,0,0,0.9554462,193.32857,24.841601)"
       clip-path="url(#clipPath27)"><tspan
         style="font-variant:normal;font-weight:normal;font-size:10px;font-family:Helvetica;writing-mode:lr-tb;fill:#000000;fill-opacity:1;fill-rule:nonzero;stroke:none"
         x="0 7.2216797 12.783203 18.344727 23.344727"
         y="0"
         sodipodi:role="line"
         id="tspan26">Does </tspan></text>
    <text
       id="text27"
       xml:space="preserve"
       transform="matrix(0.9554462,0,0,0.9554462,218.2896,24.841601)"
       clip-path="url(#clipPath28)"><tspan
         style="font-variant:normal;font-weight:700;font-size:10px;font-family:Helvetica;writing-mode:lr-tb;fill:#000000;fill-opacity:1;fill-rule:nonzero;stroke:none"
         x="0 6.1083984 12.216797"
         y="0"
         sodipodi:role="line"
         id="tspan27">not</tspan></text>
    <text
       id="text28"
       xml:space="preserve"
       transform="matrix(0.9554462,0,0,0.9554462,233.14381,24.841601)"
       clip-path="url(#clipPath29)"><tspan
         style="font-variant:normal;font-weight:normal;font-size:10px;font-family:Helvetica;writing-mode:lr-tb;fill:#000000;fill-opacity:1;fill-rule:nonzero;stroke:none"
         x="0 2.7783203 7.7783203 13.339844 18.901367 24.462891 30.024414 35.585938 38.364258 41.142578 46.704102 52.265625 55.043945 62.265625 67.265625 72.827148 76.157227 81.157227 83.935547 86.713867 92.275391 97.836914 100.05859"
         y="0"
         sodipodi:role="line"
         id="tspan28"> change the Users table</tspan></text>
    <path
       id="path30"
       d="m 181,171 h -25 v 5 h -18.63001"
       style="fill:none;stroke:#000000;stroke-width:1;stroke-linecap:butt;stroke-linejoin:miter;stroke-miterlimit:10;stroke-dasharray:none;stroke-opacity:1"
       transform="matrix(0.95543666,0,0,0.95543666,0.47771833,0.47771833)"
       clip-path="url(#clipPath31)" />
    <path
       id="path32"
       d="m 132.11999,176 7,-3.5 -1.75,3.5 1.75,3.5 z"
       style="fill:#000000;fill-opacity:1;fill-rule:nonzero;stroke:#000000;stroke-width:1;stroke-linecap:butt;stroke-linejoin:miter;stroke-miterlimit:10;stroke-dasharray:none;stroke-opacity:1"
       transform="matrix(0.95543666,0,0,0.95543666,0.47771833,0.47771833)"
       clip-path="url(#clipPath33)" />
    <path
       id="path34"
       d="m 181,161 h 190 v 20 H 181 Z"
       style="fill:#ffffff;fill-opacity:1;fill-rule:nonzero;stroke:#000000;stroke-width:1;stroke-linecap:butt;stroke-linejoin:miter;stroke-miterlimit:10;stroke-dasharray:none;stroke-opacity:1"
       transform="matrix(0.95543666,0,0,0.95543666,0.47771833,0.47771833)"
       clip-path="url(#clipPath35)" />
    <text
       id="text35"
       xml:space="preserve"
       transform="matrix(0.9554462,0,0,0.9554462,206.86904,168.15853)"
       clip-path="url(#clipPath36)"><tspan
         style="font-variant:normal;font-weight:normal;font-size:10px;font-family:Helvetica;writing-mode:lr-tb;fill:#000000;fill-opacity:1;fill-rule:nonzero;stroke:none"
         x="0 7.2216797 12.783203 18.344727 23.90625 29.467773 35.029297 40.029297 42.807617 45.585938 51.147461 56.708984 59.487305 66.708984 72.270508 77.832031 83.393555 86.723633 89.501953 94.501953 97.280273 100.05859 105.62012 111.18164 113.40332"
         y="0"
         sodipodi:role="line"
         id="tspan35">Changes the Reports table</tspan></text>
    <path
       id="path37"
       d="M 181,206 H 137.36999"
       style="fill:none;stroke:#000000;stroke-width:1;stroke-linecap:butt;stroke-linejoin:miter;stroke-miterlimit:10;stroke-dasharray:none;stroke-opacity:1"
       transform="matrix(0.95543666,0,0,0.95543666,0.47771833,0.47771833)"
       clip-path="url(#clipPath38)" />
    <path
       id="path39"
       d="m 132.11999,206 7,-3.5 -1.75,3.5 1.75,3.5 z"
       style="fill:#000000;fill-opacity:1;fill-rule:nonzero;stroke:#000000;stroke-width:1;stroke-linecap:butt;stroke-linejoin:miter;stroke-miterlimit:10;stroke-dasharray:none;stroke-opacity:1"
       transform="matrix(0.95543666,0,0,0.95543666,0.47771833,0.47771833)"
       clip-path="url(#clipPath40)" />
    <path
       id="path41"
       d="m 181,183.5 h 190 v 45 H 181 Z"
       style="fill:#ffffff;fill-opacity:1;fill-rule:nonzero;stroke:#000000;stroke-width:1;stroke-linecap:butt;stroke-linejoin:miter;stroke-miterlimit:10;stroke-dasharray:none;stroke-opacity:1"
       transform="matrix(0.95543666,0,0,0.95543666,0.47771833,0.47771833)"
       clip-path="url(#clipPath42)" />
    <text
       id="text42"
       xml:space="preserve"
       transform="matrix(0.9554462,0,0,0.9554462,189.08877,190.13379)"
       clip-path="url(#clipPath43)"><tspan
         style="font-variant:normal;font-weight:normal;font-size:10px;font-family:Helvetica;writing-mode:lr-tb;fill:#000000;fill-opacity:1;fill-rule:nonzero;stroke:none"
         x="0 7.2216797 12.22168 17.783203 21.113281 23.891602 31.113281 36.674805 42.236328 45.014648 50.014648 53.344727 58.90625 64.467773 67.246094 72.807617 78.369141 81.147461 83.925781 89.487305 91.708984 96.708984 99.487305 102.81738 108.37891 113.94043 119.50195 122.83203 125.61035 128.38867 135.61035 137.83203 140.05371 142.27539 145.05371 150.61523"
         y="0"
         sodipodi:role="line"
         id="tspan42">User who created this report will be</tspan></text>
    <text
       id="text43"
       xml:space="preserve"
       transform="matrix(0.9554462,0,0,0.9554462,232.36751,201.59915)"
       clip-path="url(#clipPath44)"><tspan
         style="font-variant:normal;font-weight:normal;font-size:10px;font-family:Helvetica;writing-mode:lr-tb;fill:#000000;fill-opacity:1;fill-rule:nonzero;stroke:none"
         x="0 5.5615234 10.561523 15.561523 21.123047 26.123047 31.123047 36.68457 42.246094 45.024414 52.246094 54.467773 57.246094 62.807617"
         y="0"
         sodipodi:role="line"
         id="tspan43">accessed with:</tspan></text>
    <text
       id="text44"
       xml:space="preserve"
       transform="matrix(0.9554462,0,0,0.9554462,240.5933,213.0645)"
       clip-path="url(#clipPath45)"><tspan
         style="font-style:oblique;font-variant:normal;font-weight:normal;font-size:10px;font-family:Helvetica;writing-mode:lr-tb;fill:#000000;fill-opacity:1;fill-rule:nonzero;stroke:none"
         x="0 3.3300781 8.8916016 14.453125 20.014648 23.344727 26.123047 28.901367 34.462891 39.462891 45.024414"
         y="0"
         sodipodi:role="line"
         id="tspan44">report.user</tspan></text>
    <path
       id="path46"
       d="M 181,253 H 156 V 206 H 137.36999"
       style="fill:none;stroke:#000000;stroke-width:1;stroke-linecap:butt;stroke-linejoin:miter;stroke-miterlimit:10;stroke-dasharray:none;stroke-opacity:1"
       transform="matrix(0.95543666,0,0,0.95543666,0.47771833,0.47771833)"
       clip-path="url(#clipPath47)" />
    <path
       id="path48"
       d="m 132.11999,206 7,-3.5 -1.75,3.5 1.75,3.5 z"
       style="fill:#000000;fill-opacity:1;fill-rule:nonzero;stroke:#000000;stroke-width:1;stroke-linecap:butt;stroke-linejoin:miter;stroke-miterlimit:10;stroke-dasharray:none;stroke-opacity:1"
       transform="matrix(0.95543666,0,0,0.95543666,0.47771833,0.47771833)"
       clip-path="url(#clipPath49)" />
    <path
       id="path50"
       d="m 181,230.5 h 190 v 45 H 181 Z"
       style="fill:#ffffff;fill-opacity:1;fill-rule:nonzero;stroke:#000000;stroke-width:1;stroke-linecap:butt;stroke-linejoin:miter;stroke-miterlimit:10;stroke-dasharray:none;stroke-opacity:1"
       transform="matrix(0.95543666,0,0,0.95543666,0.47771833,0.47771833)"
       clip-path="url(#clipPath51)" />
    <text
       id="text51"
       xml:space="preserve"
       transform="matrix(0.9554462,0,0,0.9554462,193.3435,240.77244)"
       clip-path="url(#clipPath52)"><tspan
         style="font-variant:normal;font-weight:normal;font-size:10px;font-family:Helvetica;writing-mode:lr-tb;fill:#000000;fill-opacity:1;fill-rule:nonzero;stroke:none"
         x="0 6.6699219 11.669922 16.669922 22.231445 27.231445 29.453125 35.014648 37.792969 40.014648 45.576172 51.137695"
         y="0"
         sodipodi:role="line"
         id="tspan51">Association </tspan></text>
    <text
       id="text52"
       xml:space="preserve"
       transform="matrix(0.9554462,0,0,0.9554462,244.86295,240.77244)"
       clip-path="url(#clipPath53)"><tspan
         style="font-variant:normal;font-weight:700;font-size:10px;font-family:Helvetica;writing-mode:lr-tb;fill:#000000;fill-opacity:1;fill-rule:nonzero;stroke:none"
         x="0 2.7783203 8.3398438 11.118164 17.226562 23.334961 26.665039 29.443359 35.004883 41.113281 44.443359 50.551758 59.443359 65.004883 68.334961 71.113281 76.674805 82.236328 85.014648 87.792969"
         y="0"
         sodipodi:role="line"
         id="tspan52">is not automatically</tspan></text>
    <text
       id="text53"
       xml:space="preserve"
       transform="matrix(0.9554462,0,0,0.9554462,195.19468,252.2378)"
       clip-path="url(#clipPath54)"><tspan
         style="font-variant:normal;font-weight:700;font-size:10px;font-family:Helvetica;writing-mode:lr-tb;fill:#000000;fill-opacity:1;fill-rule:nonzero;stroke:none"
         x="0 3.3300781 8.8916016 12.22168 17.783203 23.891602 29.453125"
         y="0"
         sodipodi:role="line"
         id="tspan53">fetched</tspan></text>
    <text
       id="text54"
       xml:space="preserve"
       transform="matrix(0.9554462,0,0,0.9554462,229.17273,252.2378)"
       clip-path="url(#clipPath55)"><tspan
         style="font-variant:normal;font-weight:normal;font-size:10px;font-family:Helvetica;writing-mode:lr-tb;fill:#000000;fill-opacity:1;fill-rule:nonzero;stroke:none"
         x="0 2.7783203 10 15.561523 21.123047 26.68457 29.462891 36.68457 42.246094 45.024414 47.802734 53.364258 56.142578 61.142578 66.704102 69.482422 75.043945 77.822266 85.043945 90.605469 96.166992 101.72852 105.05859"
         y="0"
         sodipodi:role="line"
         id="tspan54"> when we fetch a Report</tspan></text>
    <path
       id="path56"
       d="M 181,57.5 H 156 V 76 h -18.63001"
       style="fill:none;stroke:#000000;stroke-width:1;stroke-linecap:butt;stroke-linejoin:miter;stroke-miterlimit:10;stroke-dasharray:none;stroke-opacity:1"
       transform="matrix(0.95543666,0,0,0.95543666,0.47771833,0.47771833)"
       clip-path="url(#clipPath57)" />
    <path
       id="path58"
       d="m 132.11999,76 7,-3.5 -1.75,3.5 1.75,3.5 z"
       style="fill:#000000;fill-opacity:1;fill-rule:nonzero;stroke:#000000;stroke-width:1;stroke-linecap:butt;stroke-linejoin:miter;stroke-miterlimit:10;stroke-dasharray:none;stroke-opacity:1"
       transform="matrix(0.95543666,0,0,0.95543666,0.47771833,0.47771833)"
       clip-path="url(#clipPath59)" />
    <path
       id="path60"
       d="M 181,35 H 371 V 80 H 181 Z"
       style="fill:#ffffff;fill-opacity:1;fill-rule:nonzero;stroke:#000000;stroke-width:1;stroke-linecap:butt;stroke-linejoin:miter;stroke-miterlimit:10;stroke-dasharray:none;stroke-opacity:1"
       transform="matrix(0.95543666,0,0,0.95543666,0.47771833,0.47771833)"
       clip-path="url(#clipPath61)" />
    <text
       id="text61"
       xml:space="preserve"
       transform="matrix(0.9554462,0,0,0.9554462,177.13077,48.727756)"
       clip-path="url(#clipPath62)"><tspan
         style="font-variant:normal;font-weight:normal;font-size:10px;font-family:Helvetica;writing-mode:lr-tb;fill:#000000;fill-opacity:1;fill-rule:nonzero;stroke:none"
         x="0 7.2216797 12.783203 18.344727 23.90625 27.236328 30.014648 35.014648 37.792969 40.571289 42.792969 48.354492 53.916016 56.694336 59.472656 65.03418 67.8125 70.59082 76.152344 78.374023 83.374023 86.152344 91.713867 96.713867 102.27539 105.60547 108.38379 115.60547 117.82715 120.04883 122.27051 125.04883 130.61035 136.17188 138.9502 144.51172 149.51172 154.51172 160.07324 165.07324 170.07324 175.63477"
         y="0"
         sodipodi:role="line"
         id="tspan61">Reports tied to this user will be accessed</tspan></text>
    <text
       id="text62"
       xml:space="preserve"
       transform="matrix(0.9554462,0,0,0.9554462,253.87997,60.193111)"
       clip-path="url(#clipPath63)"><tspan
         style="font-variant:normal;font-weight:normal;font-size:10px;font-family:Helvetica;writing-mode:lr-tb;fill:#000000;fill-opacity:1;fill-rule:nonzero;stroke:none"
         x="0 7.2216797 9.4433594 12.22168 17.783203"
         y="0"
         sodipodi:role="line"
         id="tspan62">with:</tspan></text>
    <text
       id="text63"
       xml:space="preserve"
       transform="matrix(0.9554462,0,0,0.9554462,238.4734,71.658465)"
       clip-path="url(#clipPath64)"><tspan
         style="font-style:oblique;font-variant:normal;font-weight:normal;font-size:10px;font-family:Helvetica;writing-mode:lr-tb;fill:#000000;fill-opacity:1;fill-rule:nonzero;stroke:none"
         x="0 5.5615234 10.561523 16.123047 18.90625 21.68457 25.014648 30.576172 36.137695 41.699219 45.029297 47.807617"
         y="0"
         sodipodi:role="line"
         id="tspan63">user.reports</tspan></text>
    <path
       id="path65"
       d="M 181,108.5 H 156 V 76 h -18.63001"
       style="fill:none;stroke:#000000;stroke-width:1;stroke-linecap:butt;stroke-linejoin:miter;stroke-miterlimit:10;stroke-dasharray:none;stroke-opacity:1"
       transform="matrix(0.95543666,0,0,0.95543666,0.47771833,0.47771833)"
       clip-path="url(#clipPath66)" />
    <path
       id="path67"
       d="m 132.11999,76 7,-3.5 -1.75,3.5 1.75,3.5 z"
       style="fill:#000000;fill-opacity:1;fill-rule:nonzero;stroke:#000000;stroke-width:1;stroke-linecap:butt;stroke-linejoin:miter;stroke-miterlimit:10;stroke-dasharray:none;stroke-opacity:1"
       transform="matrix(0.95543666,0,0,0.95543666,0.47771833,0.47771833)"
       clip-path="url(#clipPath68)" />
    <path
       id="path69"
       d="m 181,86 h 190 v 45 H 181 Z"
       style="fill:#ffffff;fill-opacity:1;fill-rule:nonzero;stroke:#000000;stroke-width:1;stroke-linecap:butt;stroke-linejoin:miter;stroke-miterlimit:10;stroke-dasharray:none;stroke-opacity:1"
       transform="matrix(0.95543666,0,0,0.95543666,0.47771833,0.47771833)"
       clip-path="url(#clipPath70)" />
    <text
       id="text70"
       xml:space="preserve"
       transform="matrix(0.9554462,0,0,0.9554462,193.3435,103.18819)"
       clip-path="url(#clipPath71)"><tspan
         style="font-variant:normal;font-weight:normal;font-size:10px;font-family:Helvetica;writing-mode:lr-tb;fill:#000000;fill-opacity:1;fill-rule:nonzero;stroke:none"
         x="0 6.6699219 11.669922 16.669922 22.231445 27.231445 29.453125 35.014648 37.792969 40.014648 45.576172 51.137695"
         y="0"
         sodipodi:role="line"
         id="tspan70">Association </tspan></text>
    <text
       id="text71"
       xml:space="preserve"
       transform="matrix(0.9554462,0,0,0.9554462,244.86295,103.18819)"
       clip-path="url(#clipPath72)"><tspan
         style="font-variant:normal;font-weight:700;font-size:10px;font-family:Helvetica;writing-mode:lr-tb;fill:#000000;fill-opacity:1;fill-rule:nonzero;stroke:none"
         x="0 2.7783203 8.3398438 11.118164 17.226562 23.334961 26.665039 29.443359 35.004883 41.113281 44.443359 50.551758 59.443359 65.004883 68.334961 71.113281 76.674805 82.236328 85.014648 87.792969"
         y="0"
         sodipodi:role="line"
         id="tspan71">is not automatically</tspan></text>
    <text
       id="text72"
       xml:space="preserve"
       transform="matrix(0.9554462,0,0,0.9554462,199.44939,114.65354)"
       clip-path="url(#clipPath73)"><tspan
         style="font-variant:normal;font-weight:700;font-size:10px;font-family:Helvetica;writing-mode:lr-tb;fill:#000000;fill-opacity:1;fill-rule:nonzero;stroke:none"
         x="0 3.3300781 8.8916016 12.22168 17.783203 23.891602 29.453125"
         y="0"
         sodipodi:role="line"
         id="tspan72">fetched</tspan></text>
    <text
       id="text73"
       xml:space="preserve"
       transform="matrix(0.9554462,0,0,0.9554462,233.42745,114.65354)"
       clip-path="url(#clipPath74)"><tspan
         style="font-variant:normal;font-weight:normal;font-size:10px;font-family:Helvetica;writing-mode:lr-tb;fill:#000000;fill-opacity:1;fill-rule:nonzero;stroke:none"
         x="0 2.7783203 10 15.561523 21.123047 26.68457 29.462891 36.68457 42.246094 45.024414 47.802734 53.364258 56.142578 61.142578 66.704102 69.482422 75.043945 77.822266 85.043945 90.043945 95.605469"
         y="0"
         sodipodi:role="line"
         id="tspan73"> when we fetch a User</tspan></text>
  </g>
</svg>
