<?xml version="1.0" encoding="UTF-8" standalone="no"?>
<!-- Created with Inkscape (http://www.inkscape.org/) -->

<svg
   version="1.1"
   id="svg1"
   width="290.56"
   height="168"
   viewBox="0 0 290.56 168"
   sodipodi:docname="nest-3.pdf"
   xmlns:inkscape="http://www.inkscape.org/namespaces/inkscape"
   xmlns:sodipodi="http://sodipodi.sourceforge.net/DTD/sodipodi-0.dtd"
   xmlns="http://www.w3.org/2000/svg"
   xmlns:svg="http://www.w3.org/2000/svg">
  <defs
     id="defs1">
    <clipPath
       clipPathUnits="userSpaceOnUse"
       id="clipPath2">
      <path
         d="M 0,0 H 908.33325 V 522.88922 H 0 Z"
         transform="scale(0.33467892)"
         clip-rule="evenodd"
         id="path2" />
    </clipPath>
    <clipPath
       clipPathUnits="userSpaceOnUse"
       id="clipPath4">
      <path
         d="M 0,0 H 908.33325 V 519.90131 H 0 Z"
         transform="matrix(0.33467892,0,0,0.33467892,-0.49999999,-0.49999999)"
         clip-rule="evenodd"
         id="path4" />
    </clipPath>
    <clipPath
       clipPathUnits="userSpaceOnUse"
       id="clipPath5">
      <path
         d="M 0,0 H 908.33325 V 519.90131 H 0 Z"
         transform="matrix(0.33467558,0,0,0.33467558,-62.265625,-33)"
         clip-rule="evenodd"
         id="path5" />
    </clipPath>
    <clipPath
       clipPathUnits="userSpaceOnUse"
       id="clipPath7">
      <path
         d="M 0,0 H 908.33325 V 519.90131 H 0 Z"
         transform="matrix(0.33467892,0,0,0.33467892,-0.49999999,-0.49999999)"
         clip-rule="evenodd"
         id="path7" />
    </clipPath>
    <clipPath
       clipPathUnits="userSpaceOnUse"
       id="clipPath8">
      <path
         d="M 0,0 H 908.33325 V 519.90131 H 0 Z"
         transform="matrix(0.33467558,0,0,0.33467558,-116.67188,-81.000001)"
         clip-rule="evenodd"
         id="path8" />
    </clipPath>
    <clipPath
       clipPathUnits="userSpaceOnUse"
       id="clipPath10">
      <path
         d="M 0,0 H 908.33325 V 519.90131 H 0 Z"
         transform="matrix(0.33467892,0,0,0.33467892,-0.49999999,-0.49999999)"
         clip-rule="evenodd"
         id="path10" />
    </clipPath>
    <clipPath
       clipPathUnits="userSpaceOnUse"
       id="clipPath11">
      <path
         d="M 0,0 H 908.33325 V 519.90131 H 0 Z"
         transform="matrix(0.33467558,0,0,0.33467558,-64.296875,-121)"
         clip-rule="evenodd"
         id="path11" />
    </clipPath>
    <clipPath
       clipPathUnits="userSpaceOnUse"
       id="clipPath13">
      <path
         d="M 0,0 H 908.33325 V 519.90131 H 0 Z"
         transform="matrix(0.33467892,0,0,0.33467892,-0.49999999,-0.49999999)"
         clip-rule="evenodd"
         id="path13" />
    </clipPath>
    <clipPath
       clipPathUnits="userSpaceOnUse"
       id="clipPath14">
      <path
         d="M 0,0 H 908.33325 V 519.90131 H 0 Z"
         transform="matrix(0.33467558,0,0,0.33467558,-109.45312,-161.00001)"
         clip-rule="evenodd"
         id="path14" />
    </clipPath>
  </defs>
  <sodipodi:namedview
     id="namedview1"
     pagecolor="#ffffff"
     bordercolor="#000000"
     borderopacity="0.25"
     inkscape:showpageshadow="2"
     inkscape:pageopacity="0.0"
     inkscape:pagecheckerboard="0"
     inkscape:deskcolor="#d1d1d1">
    <inkscape:page
       x="0"
       y="0"
       inkscape:label="1"
       id="page1"
       width="290.56"
       height="168"
       margin="0"
       bleed="0" />
  </sodipodi:namedview>
  <g
     id="g1"
     inkscape:groupmode="layer"
     inkscape:label="1">
    <path
       id="path1"
       d="M 0,0 H 304 V 175 H 0 Z"
       style="fill:#ffffff;fill-opacity:1;fill-rule:nonzero;stroke:none"
       transform="scale(0.95614025)"
       clip-path="url(#clipPath2)" />
    <path
       id="path3"
       d="M 1,1 H 301 V 51 H 1 Z"
       style="fill:#dae8fc;fill-opacity:1;fill-rule:nonzero;stroke:#6c8ebf;stroke-width:1;stroke-linecap:butt;stroke-linejoin:miter;stroke-miterlimit:10;stroke-dasharray:none;stroke-opacity:1"
       transform="matrix(0.95614025,0,0,0.95614025,0.47807012,0.47807012)"
       clip-path="url(#clipPath4)" />
    <text
       id="text4"
       xml:space="preserve"
       transform="matrix(0.95614978,0,0,0.95614978,59.535264,31.552943)"
       clip-path="url(#clipPath5)"><tspan
         style="font-variant:normal;font-weight:700;font-size:20px;font-family:Helvetica;writing-mode:lr-tb;fill:#000000;fill-opacity:1;fill-rule:nonzero;stroke:none"
         x="0 13.339844 28.896484 40.761719 46.318359 60.761719 71.884766 77.441406 88.564453 95.224609 100.78125 112.99805 125.21484 136.33789 148.55469 154.11133 166.32812"
         y="0"
         sodipodi:role="line"
         id="tspan4">SQL Relationships</tspan></text>
    <path
       id="path6"
       d="M 1,61 H 301 V 91 H 1 Z"
       style="fill:#ffffff;fill-opacity:1;fill-rule:nonzero;stroke:#000000;stroke-width:1;stroke-linecap:butt;stroke-linejoin:miter;stroke-miterlimit:10;stroke-dasharray:none;stroke-opacity:1"
       transform="matrix(0.95614025,0,0,0.95614025,0.47807012,0.47807012)"
       clip-path="url(#clipPath7)" />
    <text
       id="text7"
       xml:space="preserve"
       transform="matrix(0.95614978,0,0,0.95614978,111.55579,77.448133)"
       clip-path="url(#clipPath8)"><tspan
         style="font-variant:normal;font-weight:normal;font-size:13px;font-family:Helvetica;writing-mode:lr-tb;fill:#000000;fill-opacity:1;fill-rule:nonzero;stroke:none"
         x="0 10.111816 17.341797 24.571777 28.900879 32.512695 39.742676 44.071777 54.183594 61.413574"
         y="0"
         sodipodi:role="line"
         id="tspan7">One-to-One</tspan></text>
    <path
       id="path9"
       d="m 1,101 h 300 v 30 H 1 Z"
       style="fill:#ffffff;fill-opacity:1;fill-rule:nonzero;stroke:#000000;stroke-width:1;stroke-linecap:butt;stroke-linejoin:miter;stroke-miterlimit:10;stroke-dasharray:none;stroke-opacity:1"
       transform="matrix(0.95614025,0,0,0.95614025,0.47807012,0.47807012)"
       clip-path="url(#clipPath10)" />
    <text
       id="text10"
       xml:space="preserve"
       transform="matrix(0.95614978,0,0,0.95614978,61.477443,115.69412)"
       clip-path="url(#clipPath11)"><tspan
         style="font-variant:normal;font-weight:normal;font-size:13px;font-family:Helvetica;writing-mode:lr-tb;fill:#000000;fill-opacity:1;fill-rule:nonzero;stroke:none"
         x="0 10.111816 17.341797 24.571777 28.900879 32.512695 39.742676 44.071777 54.900879 62.130859 69.36084 75.86084 79.472656 83.084473 86.696289 90.308105 93.919922 97.531738 108.36084 115.59082 122.8208 129.3208 133.6499 137.26172 144.4917 148.8208 158.93262 166.1626"
         y="0"
         sodipodi:role="line"
         id="tspan10">One-to-Many ///  Many-to-One</tspan></text>
    <path
       id="path12"
       d="m 1,141 h 300 v 30 H 1 Z"
       style="fill:#ffffff;fill-opacity:1;fill-rule:nonzero;stroke:#000000;stroke-width:1;stroke-linecap:butt;stroke-linejoin:miter;stroke-miterlimit:10;stroke-dasharray:none;stroke-opacity:1"
       transform="matrix(0.95614025,0,0,0.95614025,0.47807012,0.47807012)"
       clip-path="url(#clipPath13)" />
    <text
       id="text13"
       xml:space="preserve"
       transform="matrix(0.95614978,0,0,0.95614978,104.65358,153.94012)"
       clip-path="url(#clipPath14)"><tspan
         style="font-variant:normal;font-weight:normal;font-size:13px;font-family:Helvetica;writing-mode:lr-tb;fill:#000000;fill-opacity:1;fill-rule:nonzero;stroke:none"
         x="0 10.829102 18.059082 25.289062 31.789062 36.118164 39.72998 46.959961 51.289062 62.118164 69.348145 76.578125"
         y="0"
         sodipodi:role="line"
         id="tspan13">Many-to-Many</tspan></text>
  </g>
</svg>
