<?xml version="1.0" encoding="UTF-8" standalone="no"?>
<!-- Created with Inkscape (http://www.inkscape.org/) -->

<svg
   version="1.1"
   id="svg1"
   width="261.44"
   height="225.27998"
   viewBox="0 0 261.44 225.27998"
   sodipodi:docname="nest-20.pdf"
   xmlns:inkscape="http://www.inkscape.org/namespaces/inkscape"
   xmlns:sodipodi="http://sodipodi.sourceforge.net/DTD/sodipodi-0.dtd"
   xmlns="http://www.w3.org/2000/svg"
   xmlns:svg="http://www.w3.org/2000/svg">
  <defs
     id="defs1">
    <clipPath
       clipPathUnits="userSpaceOnUse"
       id="clipPath2">
      <path
         d="M 0,0 H 816.66663 V 703.40625 H 0 Z"
         transform="scale(0.33551024)"
         clip-rule="evenodd"
         id="path2" />
    </clipPath>
    <clipPath
       clipPathUnits="userSpaceOnUse"
       id="clipPath4">
      <path
         d="M 0,0 H 816.66663 V 697.44519 H 0 Z"
         transform="matrix(0.33551024,0,0,0.33551024,-0.50000001,-0.50000001)"
         clip-rule="evenodd"
         id="path4" />
    </clipPath>
    <clipPath
       clipPathUnits="userSpaceOnUse"
       id="clipPath5">
      <path
         d="M 0,0 H 816.66663 V 697.44519 H 0 Z"
         transform="matrix(0.33550688,0,0,0.33550688,-70.374999,-21)"
         clip-rule="evenodd"
         id="path5" />
    </clipPath>
    <clipPath
       clipPathUnits="userSpaceOnUse"
       id="clipPath7">
      <path
         d="M 0,0 H 816.66663 V 697.44519 H 0 Z"
         transform="matrix(0.33551024,0,0,0.33551024,-0.50000001,-0.50000001)"
         clip-rule="evenodd"
         id="path7" />
    </clipPath>
    <clipPath
       clipPathUnits="userSpaceOnUse"
       id="clipPath9">
      <path
         d="M 0,0 H 816.66663 V 697.44519 H 0 Z"
         transform="matrix(0.33551024,0,0,0.33551024,-0.50000001,-0.50000001)"
         clip-rule="evenodd"
         id="path9" />
    </clipPath>
    <clipPath
       clipPathUnits="userSpaceOnUse"
       id="clipPath11">
      <path
         d="M 0,0 H 816.66663 V 697.44519 H 0 Z"
         transform="matrix(0.33551024,0,0,0.33551024,-0.50000001,-0.50000001)"
         clip-rule="evenodd"
         id="path11" />
    </clipPath>
    <clipPath
       clipPathUnits="userSpaceOnUse"
       id="clipPath12">
      <path
         d="M 0,0 H 816.66663 V 697.44519 H 0 Z"
         transform="matrix(0.33550688,0,0,0.33550688,-32.921875,-60.999999)"
         clip-rule="evenodd"
         id="path12" />
    </clipPath>
    <clipPath
       clipPathUnits="userSpaceOnUse"
       id="clipPath14">
      <path
         d="M 0,0 H 816.66663 V 697.44519 H 0 Z"
         transform="matrix(0.33551024,0,0,0.33551024,-0.50000001,-0.50000001)"
         clip-rule="evenodd"
         id="path14" />
    </clipPath>
    <clipPath
       clipPathUnits="userSpaceOnUse"
       id="clipPath16">
      <path
         d="M 0,0 H 816.66663 V 697.44519 H 0 Z"
         transform="matrix(0.33551024,0,0,0.33551024,-0.50000001,-0.50000001)"
         clip-rule="evenodd"
         id="path16" />
    </clipPath>
    <clipPath
       clipPathUnits="userSpaceOnUse"
       id="clipPath18">
      <path
         d="M 0,0 H 816.66663 V 697.44519 H 0 Z"
         transform="matrix(0.33551024,0,0,0.33551024,-0.50000001,-0.50000001)"
         clip-rule="evenodd"
         id="path18" />
    </clipPath>
    <clipPath
       clipPathUnits="userSpaceOnUse"
       id="clipPath19">
      <path
         d="M 0,0 H 816.66663 V 697.44519 H 0 Z"
         transform="matrix(0.33550688,0,0,0.33550688,-37.265625,-101)"
         clip-rule="evenodd"
         id="path19" />
    </clipPath>
    <clipPath
       clipPathUnits="userSpaceOnUse"
       id="clipPath21">
      <path
         d="M 0,0 H 816.66663 V 697.44519 H 0 Z"
         transform="matrix(0.33551024,0,0,0.33551024,-0.50000001,-0.50000001)"
         clip-rule="evenodd"
         id="path21" />
    </clipPath>
    <clipPath
       clipPathUnits="userSpaceOnUse"
       id="clipPath23">
      <path
         d="M 0,0 H 816.66663 V 697.44519 H 0 Z"
         transform="matrix(0.33551024,0,0,0.33551024,-0.50000001,-0.50000001)"
         clip-rule="evenodd"
         id="path23" />
    </clipPath>
    <clipPath
       clipPathUnits="userSpaceOnUse"
       id="clipPath25">
      <path
         d="M 0,0 H 816.66663 V 697.44519 H 0 Z"
         transform="matrix(0.33551024,0,0,0.33551024,-0.50000001,-0.50000001)"
         clip-rule="evenodd"
         id="path25" />
    </clipPath>
    <clipPath
       clipPathUnits="userSpaceOnUse"
       id="clipPath26">
      <path
         d="M 0,0 H 816.66663 V 697.44519 H 0 Z"
         transform="matrix(0.33550688,0,0,0.33550688,-40.515625,-141)"
         clip-rule="evenodd"
         id="path26" />
    </clipPath>
    <clipPath
       clipPathUnits="userSpaceOnUse"
       id="clipPath28">
      <path
         d="M 0,0 H 816.66663 V 697.44519 H 0 Z"
         transform="matrix(0.33551024,0,0,0.33551024,-0.50000001,-0.50000001)"
         clip-rule="evenodd"
         id="path28" />
    </clipPath>
    <clipPath
       clipPathUnits="userSpaceOnUse"
       id="clipPath30">
      <path
         d="M 0,0 H 816.66663 V 697.44519 H 0 Z"
         transform="matrix(0.33551024,0,0,0.33551024,-0.50000001,-0.50000001)"
         clip-rule="evenodd"
         id="path30" />
    </clipPath>
    <clipPath
       clipPathUnits="userSpaceOnUse"
       id="clipPath32">
      <path
         d="M 0,0 H 816.66663 V 697.44519 H 0 Z"
         transform="matrix(0.33551024,0,0,0.33551024,-0.50000001,-0.50000001)"
         clip-rule="evenodd"
         id="path32" />
    </clipPath>
    <clipPath
       clipPathUnits="userSpaceOnUse"
       id="clipPath33">
      <path
         d="M 0,0 H 816.66663 V 697.44519 H 0 Z"
         transform="matrix(0.33550688,0,0,0.33550688,-28.21875,-181)"
         clip-rule="evenodd"
         id="path33" />
    </clipPath>
    <clipPath
       clipPathUnits="userSpaceOnUse"
       id="clipPath35">
      <path
         d="M 0,0 H 816.66663 V 697.44519 H 0 Z"
         transform="matrix(0.33551024,0,0,0.33551024,-0.50000001,-0.50000001)"
         clip-rule="evenodd"
         id="path35" />
    </clipPath>
    <clipPath
       clipPathUnits="userSpaceOnUse"
       id="clipPath36">
      <path
         d="M 0,0 H 816.66663 V 697.44519 H 0 Z"
         transform="matrix(0.33550688,0,0,0.33550688,-134.53125,-54)"
         clip-rule="evenodd"
         id="path36" />
    </clipPath>
    <clipPath
       clipPathUnits="userSpaceOnUse"
       id="clipPath37">
      <path
         d="M 0,0 H 816.66663 V 697.44519 H 0 Z"
         transform="matrix(0.33550688,0,0,0.33550688,-169.60938,-64.999999)"
         clip-rule="evenodd"
         id="path37" />
    </clipPath>
    <clipPath
       clipPathUnits="userSpaceOnUse"
       id="clipPath39">
      <path
         d="M 0,0 H 816.66663 V 697.44519 H 0 Z"
         transform="matrix(0.33551024,0,0,0.33551024,-0.50000001,-0.50000001)"
         clip-rule="evenodd"
         id="path39" />
    </clipPath>
    <clipPath
       clipPathUnits="userSpaceOnUse"
       id="clipPath40">
      <path
         d="M 0,0 H 816.66663 V 697.44519 H 0 Z"
         transform="matrix(0.33550688,0,0,0.33550688,-137.29688,-93.999999)"
         clip-rule="evenodd"
         id="path40" />
    </clipPath>
    <clipPath
       clipPathUnits="userSpaceOnUse"
       id="clipPath41">
      <path
         d="M 0,0 H 816.66663 V 697.44519 H 0 Z"
         transform="matrix(0.33550688,0,0,0.33550688,-151.46875,-105)"
         clip-rule="evenodd"
         id="path41" />
    </clipPath>
    <clipPath
       clipPathUnits="userSpaceOnUse"
       id="clipPath43">
      <path
         d="M 0,0 H 816.66663 V 697.44519 H 0 Z"
         transform="matrix(0.33551024,0,0,0.33551024,-0.50000001,-0.50000001)"
         clip-rule="evenodd"
         id="path43" />
    </clipPath>
    <clipPath
       clipPathUnits="userSpaceOnUse"
       id="clipPath44">
      <path
         d="M 0,0 H 816.66663 V 697.44519 H 0 Z"
         transform="matrix(0.33550688,0,0,0.33550688,-145.96875,-134)"
         clip-rule="evenodd"
         id="path44" />
    </clipPath>
    <clipPath
       clipPathUnits="userSpaceOnUse"
       id="clipPath45">
      <path
         d="M 0,0 H 816.66663 V 697.44519 H 0 Z"
         transform="matrix(0.33550688,0,0,0.33550688,-172.73438,-145)"
         clip-rule="evenodd"
         id="path45" />
    </clipPath>
    <clipPath
       clipPathUnits="userSpaceOnUse"
       id="clipPath47">
      <path
         d="M 0,0 H 816.66663 V 697.44519 H 0 Z"
         transform="matrix(0.33551024,0,0,0.33551024,-0.50000001,-0.50000001)"
         clip-rule="evenodd"
         id="path47" />
    </clipPath>
    <clipPath
       clipPathUnits="userSpaceOnUse"
       id="clipPath48">
      <path
         d="M 0,0 H 816.66663 V 697.44519 H 0 Z"
         transform="matrix(0.33550688,0,0,0.33550688,-135.45313,-174)"
         clip-rule="evenodd"
         id="path48" />
    </clipPath>
    <clipPath
       clipPathUnits="userSpaceOnUse"
       id="clipPath49">
      <path
         d="M 0,0 H 816.66663 V 697.44519 H 0 Z"
         transform="matrix(0.33550688,0,0,0.33550688,-187.48438,-185)"
         clip-rule="evenodd"
         id="path49" />
    </clipPath>
    <clipPath
       clipPathUnits="userSpaceOnUse"
       id="clipPath51">
      <path
         d="M 0,0 H 816.66663 V 697.44519 H 0 Z"
         transform="matrix(0.33551024,0,0,0.33551024,-0.50000001,-0.50000001)"
         clip-rule="evenodd"
         id="path51" />
    </clipPath>
    <clipPath
       clipPathUnits="userSpaceOnUse"
       id="clipPath53">
      <path
         d="M 0,0 H 816.66663 V 697.44519 H 0 Z"
         transform="matrix(0.33551024,0,0,0.33551024,-0.50000001,-0.50000001)"
         clip-rule="evenodd"
         id="path53" />
    </clipPath>
    <clipPath
       clipPathUnits="userSpaceOnUse"
       id="clipPath55">
      <path
         d="M 0,0 H 816.66663 V 697.44519 H 0 Z"
         transform="matrix(0.33551024,0,0,0.33551024,-0.50000001,-0.50000001)"
         clip-rule="evenodd"
         id="path55" />
    </clipPath>
    <clipPath
       clipPathUnits="userSpaceOnUse"
       id="clipPath56">
      <path
         d="M 0,0 H 816.66663 V 697.44519 H 0 Z"
         transform="matrix(0.33550688,0,0,0.33550688,-7.921875,-221)"
         clip-rule="evenodd"
         id="path56" />
    </clipPath>
    <clipPath
       clipPathUnits="userSpaceOnUse"
       id="clipPath58">
      <path
         d="M 0,0 H 816.66663 V 697.44519 H 0 Z"
         transform="matrix(0.33551024,0,0,0.33551024,-0.50000001,-0.50000001)"
         clip-rule="evenodd"
         id="path58" />
    </clipPath>
    <clipPath
       clipPathUnits="userSpaceOnUse"
       id="clipPath59">
      <path
         d="M 0,0 H 816.66663 V 697.44519 H 0 Z"
         transform="matrix(0.33550688,0,0,0.33550688,-136.95313,-214)"
         clip-rule="evenodd"
         id="path59" />
    </clipPath>
    <clipPath
       clipPathUnits="userSpaceOnUse"
       id="clipPath60">
      <path
         d="M 0,0 H 816.66663 V 697.44519 H 0 Z"
         transform="matrix(0.33550688,0,0,0.33550688,-144.46874,-225)"
         clip-rule="evenodd"
         id="path60" />
    </clipPath>
  </defs>
  <sodipodi:namedview
     id="namedview1"
     pagecolor="#ffffff"
     bordercolor="#000000"
     borderopacity="0.25"
     inkscape:showpageshadow="2"
     inkscape:pageopacity="0.0"
     inkscape:pagecheckerboard="0"
     inkscape:deskcolor="#d1d1d1">
    <inkscape:page
       x="0"
       y="0"
       inkscape:label="1"
       id="page1"
       width="261.44"
       height="225.27998"
       margin="0"
       bleed="0" />
  </sodipodi:namedview>
  <g
     id="g1"
     inkscape:groupmode="layer"
     inkscape:label="1">
    <path
       id="path1"
       d="M 0,0 H 274 V 236 H 0 Z"
       style="fill:#ffffff;fill-opacity:1;fill-rule:nonzero;stroke:none"
       transform="scale(0.95377116)"
       clip-path="url(#clipPath2)" />
    <path
       id="path3"
       d="M 1,1 H 271 V 31 H 1 Z"
       style="fill:#dae8fc;fill-opacity:1;fill-rule:nonzero;stroke:#6c8ebf;stroke-width:1;stroke-linecap:butt;stroke-linejoin:miter;stroke-miterlimit:10;stroke-dasharray:none;stroke-opacity:1"
       transform="matrix(0.95377116,0,0,0.95377116,0.47688559,0.47688559)"
       clip-path="url(#clipPath4)" />
    <text
       id="text4"
       xml:space="preserve"
       transform="matrix(0.9537807,0,0,0.9537807,67.122316,20.029395)"
       clip-path="url(#clipPath5)"><tspan
         style="font-variant:normal;font-weight:700;font-size:13px;font-family:Helvetica;writing-mode:lr-tb;fill:#000000;fill-opacity:1;fill-rule:nonzero;stroke:none"
         x="0 6.9824219 14.212402 22.15332 29.383301 39.495117 48.883301 59.712402 63.324219 72.712402 79.942383 87.883301 95.824219 103.0542 106.66602 110.99512 118.93604 123.99512"
         y="0"
         sodipodi:role="line"
         id="tspan4">TypeORM Repository</tspan></text>
    <path
       id="path6"
       d="m 101,56 h 20 -10 13.63"
       style="fill:none;stroke:#000000;stroke-width:1;stroke-linecap:butt;stroke-linejoin:miter;stroke-miterlimit:10;stroke-dasharray:none;stroke-opacity:1"
       transform="matrix(0.95377116,0,0,0.95377116,0.47688559,0.47688559)"
       clip-path="url(#clipPath7)" />
    <path
       id="path8"
       d="m 129.88,56 -7,3.5 1.75,-3.5 -1.75,-3.5 z"
       style="fill:#000000;fill-opacity:1;fill-rule:nonzero;stroke:#000000;stroke-width:1;stroke-linecap:butt;stroke-linejoin:miter;stroke-miterlimit:10;stroke-dasharray:none;stroke-opacity:1"
       transform="matrix(0.95377116,0,0,0.95377116,0.47688559,0.47688559)"
       clip-path="url(#clipPath9)" />
    <path
       id="path10"
       d="M 1,41 H 101 V 71 H 1 Z"
       style="fill:#ffffff;fill-opacity:1;fill-rule:nonzero;stroke:#000000;stroke-width:1;stroke-linecap:butt;stroke-linejoin:miter;stroke-miterlimit:10;stroke-dasharray:none;stroke-opacity:1"
       transform="matrix(0.95377116,0,0,0.95377116,0.47688559,0.47688559)"
       clip-path="url(#clipPath11)" />
    <text
       id="text11"
       xml:space="preserve"
       transform="matrix(0.9537807,0,0,0.9537807,31.400249,58.180622)"
       clip-path="url(#clipPath12)"><tspan
         style="font-variant:normal;font-weight:normal;font-size:13px;font-family:Helvetica;writing-mode:lr-tb;fill:#000000;fill-opacity:1;fill-rule:nonzero;stroke:none"
         x="0 6.5 10.829102 18.059082 25.289062 28.900879"
         y="0"
         sodipodi:role="line"
         id="tspan11">create</tspan></text>
    <path
       id="path13"
       d="m 101,96 h 20 -10 13.63"
       style="fill:none;stroke:#000000;stroke-width:1;stroke-linecap:butt;stroke-linejoin:miter;stroke-miterlimit:10;stroke-dasharray:none;stroke-opacity:1"
       transform="matrix(0.95377116,0,0,0.95377116,0.47688559,0.47688559)"
       clip-path="url(#clipPath14)" />
    <path
       id="path15"
       d="m 129.88,96 -7,3.5 1.75,-3.5 -1.75,-3.5 z"
       style="fill:#000000;fill-opacity:1;fill-rule:nonzero;stroke:#000000;stroke-width:1;stroke-linecap:butt;stroke-linejoin:miter;stroke-miterlimit:10;stroke-dasharray:none;stroke-opacity:1"
       transform="matrix(0.95377116,0,0,0.95377116,0.47688559,0.47688559)"
       clip-path="url(#clipPath16)" />
    <path
       id="path17"
       d="m 1,81 h 100 v 30 H 1 Z"
       style="fill:#ffffff;fill-opacity:1;fill-rule:nonzero;stroke:#000000;stroke-width:1;stroke-linecap:butt;stroke-linejoin:miter;stroke-miterlimit:10;stroke-dasharray:none;stroke-opacity:1"
       transform="matrix(0.95377116,0,0,0.95377116,0.47688559,0.47688559)"
       clip-path="url(#clipPath18)" />
    <text
       id="text18"
       xml:space="preserve"
       transform="matrix(0.9537807,0,0,0.9537807,35.543234,96.33185)"
       clip-path="url(#clipPath19)"><tspan
         style="font-variant:normal;font-weight:normal;font-size:13px;font-family:Helvetica;writing-mode:lr-tb;fill:#000000;fill-opacity:1;fill-rule:nonzero;stroke:none"
         x="0 6.5 13.72998 20.22998"
         y="0"
         sodipodi:role="line"
         id="tspan18">save</tspan></text>
    <path
       id="path20"
       d="m 101,136 h 20 -10 13.63"
       style="fill:none;stroke:#000000;stroke-width:1;stroke-linecap:butt;stroke-linejoin:miter;stroke-miterlimit:10;stroke-dasharray:none;stroke-opacity:1"
       transform="matrix(0.95377116,0,0,0.95377116,0.47688559,0.47688559)"
       clip-path="url(#clipPath21)" />
    <path
       id="path22"
       d="m 129.88,136 -7,3.5 1.75,-3.5 -1.75,-3.5 z"
       style="fill:#000000;fill-opacity:1;fill-rule:nonzero;stroke:#000000;stroke-width:1;stroke-linecap:butt;stroke-linejoin:miter;stroke-miterlimit:10;stroke-dasharray:none;stroke-opacity:1"
       transform="matrix(0.95377116,0,0,0.95377116,0.47688559,0.47688559)"
       clip-path="url(#clipPath23)" />
    <path
       id="path24"
       d="m 1,121 h 100 v 30 H 1 Z"
       style="fill:#ffffff;fill-opacity:1;fill-rule:nonzero;stroke:#000000;stroke-width:1;stroke-linecap:butt;stroke-linejoin:miter;stroke-miterlimit:10;stroke-dasharray:none;stroke-opacity:1"
       transform="matrix(0.95377116,0,0,0.95377116,0.47688559,0.47688559)"
       clip-path="url(#clipPath25)" />
    <g
       id="g25" />
    <text
       id="text25"
       xml:space="preserve"
       transform="matrix(0.9537807,0,0,0.9537807,38.643021,134.48308)"
       clip-path="url(#clipPath26)"><tspan
         style="font-variant:normal;font-weight:normal;font-size:13px;font-family:Helvetica;writing-mode:lr-tb;fill:#000000;fill-opacity:1;fill-rule:nonzero;stroke:none"
         x="0 6.5 13.72998"
         y="0"
         sodipodi:role="line"
         id="tspan25">ﬁnd</tspan></text>
    <path
       id="path27"
       d="m 101,176 h 20 -10 13.63"
       style="fill:none;stroke:#000000;stroke-width:1;stroke-linecap:butt;stroke-linejoin:miter;stroke-miterlimit:10;stroke-dasharray:none;stroke-opacity:1"
       transform="matrix(0.95377116,0,0,0.95377116,0.47688559,0.47688559)"
       clip-path="url(#clipPath28)" />
    <path
       id="path29"
       d="m 129.88,176 -7,3.5 1.75,-3.5 -1.75,-3.5 z"
       style="fill:#000000;fill-opacity:1;fill-rule:nonzero;stroke:#000000;stroke-width:1;stroke-linecap:butt;stroke-linejoin:miter;stroke-miterlimit:10;stroke-dasharray:none;stroke-opacity:1"
       transform="matrix(0.95377116,0,0,0.95377116,0.47688559,0.47688559)"
       clip-path="url(#clipPath30)" />
    <path
       id="path31"
       d="m 1,161 h 100 v 30 H 1 Z"
       style="fill:#ffffff;fill-opacity:1;fill-rule:nonzero;stroke:#000000;stroke-width:1;stroke-linecap:butt;stroke-linejoin:miter;stroke-miterlimit:10;stroke-dasharray:none;stroke-opacity:1"
       transform="matrix(0.95377116,0,0,0.95377116,0.47688559,0.47688559)"
       clip-path="url(#clipPath32)" />
    <g
       id="g32" />
    <text
       id="text32"
       xml:space="preserve"
       transform="matrix(0.9537807,0,0,0.9537807,26.914499,172.63431)"
       clip-path="url(#clipPath33)"><tspan
         style="font-variant:normal;font-weight:normal;font-size:13px;font-family:Helvetica;writing-mode:lr-tb;fill:#000000;fill-opacity:1;fill-rule:nonzero;stroke:none"
         x="0 6.5 13.72998 20.959961 31.071777 38.301758"
         y="0"
         sodipodi:role="line"
         id="tspan32">ﬁndOne</tspan></text>
    <path
       id="path34"
       d="M 131,41 H 271 V 71 H 131 Z"
       style="fill:#ffffff;fill-opacity:1;fill-rule:nonzero;stroke:#000000;stroke-width:1;stroke-linecap:butt;stroke-linejoin:miter;stroke-miterlimit:10;stroke-dasharray:none;stroke-opacity:1"
       transform="matrix(0.95377116,0,0,0.95377116,0.47688559,0.47688559)"
       clip-path="url(#clipPath35)" />
    <text
       id="text35"
       xml:space="preserve"
       transform="matrix(0.9537807,0,0,0.9537807,128.31331,51.504158)"
       clip-path="url(#clipPath36)"><tspan
         style="font-variant:normal;font-weight:normal;font-size:9px;font-family:Helvetica;writing-mode:lr-tb;fill:#000000;fill-opacity:1;fill-rule:nonzero;stroke:none"
         x="0 7.4970703 12.502441 17.002441 22.007812 24.508301 29.513672 32.01416 37.019531 42.024902 48.524414 51.024902 53.024414 58.029785 62.529785 65.030273 70.035645 75.041016 79.541016 84.546387 87.046875 92.052246 94.552734 97.053223 102.05859 107.06396 109.56445 114.56982 119.5752 122.07568 124.0752 126.57568 130.41211"
         y="0"
         sodipodi:role="line"
         id="tspan35">Make a new instance of an entity,</tspan></text>
    <text
       id="text36"
       xml:space="preserve"
       transform="matrix(0.9537807,0,0,0.9537807,161.77015,61.995745)"
       clip-path="url(#clipPath37)"><tspan
         style="font-variant:normal;font-weight:normal;font-size:9px;font-family:Helvetica;writing-mode:lr-tb;fill:#000000;fill-opacity:1;fill-rule:nonzero;stroke:none"
         x="0 5.0053711 10.010742 12.51123 15.011719 20.01709 25.022461 30.027832 31.746094 34.246582 36.74707 41.24707 46.252441 50.752441 55.757812 58.258301 60.257812"
         y="0"
         sodipodi:role="line"
         id="tspan36">but don't save it</tspan></text>
    <path
       id="path38"
       d="m 131,81 h 140 v 30 H 131 Z"
       style="fill:#ffffff;fill-opacity:1;fill-rule:nonzero;stroke:#000000;stroke-width:1;stroke-linecap:butt;stroke-linejoin:miter;stroke-miterlimit:10;stroke-dasharray:none;stroke-opacity:1"
       transform="matrix(0.95377116,0,0,0.95377116,0.47688559,0.47688559)"
       clip-path="url(#clipPath39)" />
    <text
       id="text39"
       xml:space="preserve"
       transform="matrix(0.9537807,0,0,0.9537807,130.95111,89.655385)"
       clip-path="url(#clipPath40)"><tspan
         style="font-variant:normal;font-weight:normal;font-size:9px;font-family:Helvetica;writing-mode:lr-tb;fill:#000000;fill-opacity:1;fill-rule:nonzero;stroke:none"
         x="0 6.0029297 11.008301 15.508301 20.513672 23.01416 28.019531 33.024902 35.525391 40.530762 45.536133 48.036621 50.036133 52.536621 56.373047 58.873535 61.374023 66.379395 68.378906 70.879395 75.884766 80.890137 83.887207 86.387695 88.387207 93.392578 97.892578 102.89795 105.89502 108.39551 110.39502 115.40039 120.40576 122.90625 124.90576"
         y="0"
         sodipodi:role="line"
         id="tspan39">Save an entity, either inserting it</tspan></text>
    <text
       id="text40"
       xml:space="preserve"
       transform="matrix(0.9537807,0,0,0.9537807,144.46797,100.14697)"
       clip-path="url(#clipPath41)"><tspan
         style="font-variant:normal;font-weight:normal;font-size:9px;font-family:Helvetica;writing-mode:lr-tb;fill:#000000;fill-opacity:1;fill-rule:nonzero;stroke:none"
         x="0 1.9995117 7.0048828 9.5053711 14.510742 17.01123 19.511719 24.51709 29.522461 32.022949 38.522461 44.525391 47.025879 52.03125 55.02832 57.528809 62.53418 67.539551 72.544922 77.550293 80.050781 82.050293 87.055664 92.061035 94.561523 96.561035"
         y="0"
         sodipodi:role="line"
         id="tspan40">into the DB or updating it</tspan></text>
    <path
       id="path42"
       d="m 131,121 h 140 v 30 H 131 Z"
       style="fill:#ffffff;fill-opacity:1;fill-rule:nonzero;stroke:#000000;stroke-width:1;stroke-linecap:butt;stroke-linejoin:miter;stroke-miterlimit:10;stroke-dasharray:none;stroke-opacity:1"
       transform="matrix(0.95377116,0,0,0.95377116,0.47688559,0.47688559)"
       clip-path="url(#clipPath43)" />
    <text
       id="text43"
       xml:space="preserve"
       transform="matrix(0.9537807,0,0,0.9537807,139.22218,127.80661)"
       clip-path="url(#clipPath44)"><tspan
         style="font-variant:normal;font-weight:normal;font-size:9px;font-family:Helvetica;writing-mode:lr-tb;fill:#000000;fill-opacity:1;fill-rule:nonzero;stroke:none"
         x="0 5.4975586 7.4970703 12.502441 17.507812 20.008301 25.013672 27.013184 29.012695 31.513184 36.518555 41.523926 44.024414 46.023926 48.524414 50.523926 55.529297 60.029297 62.529785 69.029297 71.028809 73.529297 78.534668 81.035156 86.040527 88.541016 93.546387 95.545898 100.0459 105.05127"
         y="0"
         sodipodi:role="line"
         id="tspan43">Find all entities with a given</tspan></text>
    <text
       id="text44"
       xml:space="preserve"
       transform="matrix(0.9537807,0,0,0.9537807,164.75072,138.2982)"
       clip-path="url(#clipPath45)"><tspan
         style="font-variant:normal;font-weight:normal;font-size:9px;font-family:Helvetica;writing-mode:lr-tb;fill:#000000;fill-opacity:1;fill-rule:nonzero;stroke:none"
         x="0 4.5 9.5053711 14.510742 17.507812 22.007812 27.013184 29.513672 34.013672 37.010742 39.010254 41.510742 46.516113 49.513184 51.512695"
         y="0"
         sodipodi:role="line"
         id="tspan44">search criteria</tspan></text>
    <path
       id="path46"
       d="m 131,161 h 140 v 30 H 131 Z"
       style="fill:#ffffff;fill-opacity:1;fill-rule:nonzero;stroke:#000000;stroke-width:1;stroke-linecap:butt;stroke-linejoin:miter;stroke-miterlimit:10;stroke-dasharray:none;stroke-opacity:1"
       transform="matrix(0.95377116,0,0,0.95377116,0.47688559,0.47688559)"
       clip-path="url(#clipPath47)" />
    <text
       id="text47"
       xml:space="preserve"
       transform="matrix(0.9537807,0,0,0.9537807,129.19258,165.95784)"
       clip-path="url(#clipPath48)"><tspan
         style="font-variant:normal;font-weight:normal;font-size:9px;font-family:Helvetica;writing-mode:lr-tb;fill:#000000;fill-opacity:1;fill-rule:nonzero;stroke:none"
         x="0 5.4975586 7.4970703 12.502441 17.507812 20.008301 25.013672 30.019043 35.024414 37.524902 42.530273 47.535645 50.036133 52.035645 54.536133 59.036133 61.536621 68.036133 70.035645 72.536133 77.541504 80.041992 85.047363 87.547852 92.553223 94.552734 99.052734 104.05811 109.06348 111.56396 114.06445 120.56396 123.06445 128.06982"
         y="0"
         sodipodi:role="line"
         id="tspan47">Find one entity with a given ID or</tspan></text>
    <text
       id="text48"
       xml:space="preserve"
       transform="matrix(0.9537807,0,0,0.9537807,178.81898,176.44943)"
       clip-path="url(#clipPath49)"><tspan
         style="font-variant:normal;font-weight:normal;font-size:9px;font-family:Helvetica;writing-mode:lr-tb;fill:#000000;fill-opacity:1;fill-rule:nonzero;stroke:none"
         x="0 4.5 7.4970703 9.496582 11.99707 17.002441 19.999512 21.999023"
         y="0"
         sodipodi:role="line"
         id="tspan48">criteria</tspan></text>
    <path
       id="path50"
       d="m 101,216 h 20 -10 13.63"
       style="fill:none;stroke:#000000;stroke-width:1;stroke-linecap:butt;stroke-linejoin:miter;stroke-miterlimit:10;stroke-dasharray:none;stroke-opacity:1"
       transform="matrix(0.95377116,0,0,0.95377116,0.47688559,0.47688559)"
       clip-path="url(#clipPath51)" />
    <path
       id="path52"
       d="m 129.88,216 -7,3.5 1.75,-3.5 -1.75,-3.5 z"
       style="fill:#000000;fill-opacity:1;fill-rule:nonzero;stroke:#000000;stroke-width:1;stroke-linecap:butt;stroke-linejoin:miter;stroke-miterlimit:10;stroke-dasharray:none;stroke-opacity:1"
       transform="matrix(0.95377116,0,0,0.95377116,0.47688559,0.47688559)"
       clip-path="url(#clipPath53)" />
    <path
       id="path54"
       d="m 1,201 h 100 v 30 H 1 Z"
       style="fill:#ffffff;fill-opacity:1;fill-rule:nonzero;stroke:#000000;stroke-width:1;stroke-linecap:butt;stroke-linejoin:miter;stroke-miterlimit:10;stroke-dasharray:none;stroke-opacity:1"
       transform="matrix(0.95377116,0,0,0.95377116,0.47688559,0.47688559)"
       clip-path="url(#clipPath55)" />
    <text
       id="text55"
       xml:space="preserve"
       transform="matrix(0.9537807,0,0,0.9537807,7.5557315,210.78553)"
       clip-path="url(#clipPath56)"><tspan
         style="font-variant:normal;font-weight:normal;font-size:10px;font-family:Helvetica;writing-mode:lr-tb;fill:#000000;fill-opacity:1;fill-rule:nonzero;stroke:none"
         x="0 5 8.3300781 13.891602 19.453125 22.231445 27.792969 35.571289 41.132812 46.694336 50.024414 55.024414 61.694336 67.255859 69.477539 71.699219 77.260742 82.822266"
         y="0"
         sodipodi:role="line"
         id="tspan55">createQueryBuilder</tspan></text>
    <path
       id="path57"
       d="m 131,201 h 140 v 30 H 131 Z"
       style="fill:#ffffff;fill-opacity:1;fill-rule:nonzero;stroke:#000000;stroke-width:1;stroke-linecap:butt;stroke-linejoin:miter;stroke-miterlimit:10;stroke-dasharray:none;stroke-opacity:1"
       transform="matrix(0.95377116,0,0,0.95377116,0.47688559,0.47688559)"
       clip-path="url(#clipPath58)" />
    <text
       id="text58"
       xml:space="preserve"
       transform="matrix(0.9537807,0,0,0.9537807,130.62325,204.10907)"
       clip-path="url(#clipPath59)"><tspan
         style="font-variant:normal;font-weight:normal;font-size:9px;font-family:Helvetica;writing-mode:lr-tb;fill:#000000;fill-opacity:1;fill-rule:nonzero;stroke:none"
         x="0 6.4995117 11.504883 14.005371 19.010742 22.007812 27.013184 31.513184 34.013672 39.019043 41.519531 46.524902 51.530273 56.535645 59.532715 64.032715 66.533203 71.538574 76.543945 78.543457 80.542969 85.54834 90.553711 93.550781 96.05127 98.551758 103.55713 108.5625 111.06299 113.56348 118.06348 123.06885"
         y="0"
         sodipodi:role="line"
         id="tspan58">Returns a query builder that can</tspan></text>
    <text
       id="text59"
       xml:space="preserve"
       transform="matrix(0.9537807,0,0,0.9537807,137.7915,214.60066)"
       clip-path="url(#clipPath60)"><tspan
         style="font-variant:normal;font-weight:normal;font-size:9px;font-family:Helvetica;writing-mode:lr-tb;fill:#000000;fill-opacity:1;fill-rule:nonzero;stroke:none"
         x="0 5.0053711 10.010742 12.51123 17.516602 22.016602 27.021973 32.027344 34.527832 37.02832 42.033691 45.030762 47.53125 52.03125 57.036621 64.533691 69.539062 71.538574 76.543945 81.043945 83.544434 88.549805 93.555176 98.560547 101.55762 103.55713 108.5625"
         y="0"
         sodipodi:role="line"
         id="tspan59">be used for complex queries</tspan></text>
  </g>
</svg>
