<?xml version="1.0" encoding="UTF-8" standalone="no"?>
<!-- Created with Inkscape (http://www.inkscape.org/) -->

<svg
   version="1.1"
   id="svg1"
   width="635.83997"
   height="196.15999"
   viewBox="0 0 635.83997 196.15999"
   sodipodi:docname="nest-4.pdf"
   xmlns:inkscape="http://www.inkscape.org/namespaces/inkscape"
   xmlns:sodipodi="http://sodipodi.sourceforge.net/DTD/sodipodi-0.dtd"
   xmlns="http://www.w3.org/2000/svg"
   xmlns:svg="http://www.w3.org/2000/svg">
  <defs
     id="defs1">
    <clipPath
       clipPathUnits="userSpaceOnUse"
       id="clipPath2">
      <path
         d="M 0,0 H 1987.4999 V 610.61743 H 0 Z"
         transform="scale(0.33408807)"
         clip-rule="evenodd"
         id="path2" />
    </clipPath>
    <clipPath
       clipPathUnits="userSpaceOnUse"
       id="clipPath4">
      <path
         d="M 0,0 H 1987.4999 V 610.61743 H 0 Z"
         transform="matrix(0.33408807,0,0,0.33408807,-0.50000001,-0.50000001)"
         clip-rule="evenodd"
         id="path4" />
    </clipPath>
    <clipPath
       clipPathUnits="userSpaceOnUse"
       id="clipPath6">
      <path
         d="M 0,0 H 1987.4999 V 610.61743 H 0 Z"
         transform="matrix(0.33408807,0,0,0.33408807,-0.50000001,-0.50000001)"
         clip-rule="evenodd"
         id="path6" />
    </clipPath>
    <clipPath
       clipPathUnits="userSpaceOnUse"
       id="clipPath8">
      <path
         d="M 0,0 H 1987.4999 V 610.61743 H 0 Z"
         transform="matrix(0.33408807,0,0,0.33408807,-0.50000001,-0.50000001)"
         clip-rule="evenodd"
         id="path8" />
    </clipPath>
    <clipPath
       clipPathUnits="userSpaceOnUse"
       id="clipPath10">
      <path
         d="M 0,0 H 1987.4999 V 610.61743 H 0 Z"
         transform="matrix(0.33408807,0,0,0.33408807,-0.50000001,-0.50000001)"
         clip-rule="evenodd"
         id="path10" />
    </clipPath>
    <clipPath
       clipPathUnits="userSpaceOnUse"
       id="clipPath11">
      <path
         d="M 0,0 H 1987.4999 V 610.61743 H 0 Z"
         transform="matrix(0.33408471,0,0,0.33408471,-75.781249,-37)"
         clip-rule="evenodd"
         id="path11" />
    </clipPath>
    <clipPath
       clipPathUnits="userSpaceOnUse"
       id="clipPath13">
      <path
         d="M 0,0 H 1987.4999 V 610.61743 H 0 Z"
         transform="matrix(0.33408807,0,0,0.33408807,-0.50000001,-0.50000001)"
         clip-rule="evenodd"
         id="path13" />
    </clipPath>
    <clipPath
       clipPathUnits="userSpaceOnUse"
       id="clipPath15">
      <path
         d="M 0,0 H 1987.4999 V 610.61743 H 0 Z"
         transform="matrix(0.33408807,0,0,0.33408807,-0.50000001,-0.50000001)"
         clip-rule="evenodd"
         id="path15" />
    </clipPath>
    <clipPath
       clipPathUnits="userSpaceOnUse"
       id="clipPath17">
      <path
         d="M 0,0 H 1987.4999 V 610.61743 H 0 Z"
         transform="matrix(0.33408807,0,0,0.33408807,-0.50000001,-0.50000001)"
         clip-rule="evenodd"
         id="path17" />
    </clipPath>
    <clipPath
       clipPathUnits="userSpaceOnUse"
       id="clipPath18">
      <path
         d="M 0,0 H 1987.4999 V 610.61743 H 0 Z"
         transform="matrix(0.33408471,0,0,0.33408471,-52.5625,-81.999999)"
         clip-rule="evenodd"
         id="path18" />
    </clipPath>
    <clipPath
       clipPathUnits="userSpaceOnUse"
       id="clipPath20">
      <path
         d="M 0,0 H 1987.4999 V 610.61743 H 0 Z"
         transform="matrix(0.33408807,0,0,0.33408807,-0.50000001,-0.50000001)"
         clip-rule="evenodd"
         id="path20" />
    </clipPath>
    <clipPath
       clipPathUnits="userSpaceOnUse"
       id="clipPath21">
      <path
         d="M 0,0 H 1987.4999 V 610.61743 H 0 Z"
         transform="matrix(0.33408471,0,0,0.33408471,-212.35938,-81.999999)"
         clip-rule="evenodd"
         id="path21" />
    </clipPath>
    <clipPath
       clipPathUnits="userSpaceOnUse"
       id="clipPath23">
      <path
         d="M 0,0 H 1987.4999 V 610.61743 H 0 Z"
         transform="matrix(0.33408807,0,0,0.33408807,-0.50000001,-0.50000001)"
         clip-rule="evenodd"
         id="path23" />
    </clipPath>
    <clipPath
       clipPathUnits="userSpaceOnUse"
       id="clipPath25">
      <path
         d="M 0,0 H 1987.4999 V 610.61743 H 0 Z"
         transform="matrix(0.33408807,0,0,0.33408807,-0.50000001,-0.50000001)"
         clip-rule="evenodd"
         id="path25" />
    </clipPath>
    <clipPath
       clipPathUnits="userSpaceOnUse"
       id="clipPath27">
      <path
         d="M 0,0 H 1987.4999 V 610.61743 H 0 Z"
         transform="matrix(0.33408807,0,0,0.33408807,-0.50000001,-0.50000001)"
         clip-rule="evenodd"
         id="path27" />
    </clipPath>
    <clipPath
       clipPathUnits="userSpaceOnUse"
       id="clipPath28">
      <path
         d="M 0,0 H 1987.4999 V 610.61743 H 0 Z"
         transform="matrix(0.33408471,0,0,0.33408471,-61.546874,-121.99999)"
         clip-rule="evenodd"
         id="path28" />
    </clipPath>
    <clipPath
       clipPathUnits="userSpaceOnUse"
       id="clipPath30">
      <path
         d="M 0,0 H 1987.4999 V 610.61743 H 0 Z"
         transform="matrix(0.33408807,0,0,0.33408807,-0.50000001,-0.50000001)"
         clip-rule="evenodd"
         id="path30" />
    </clipPath>
    <clipPath
       clipPathUnits="userSpaceOnUse"
       id="clipPath31">
      <path
         d="M 0,0 H 1987.4999 V 610.61743 H 0 Z"
         transform="matrix(0.33408471,0,0,0.33408471,-226.54688,-121.99999)"
         clip-rule="evenodd"
         id="path31" />
    </clipPath>
    <clipPath
       clipPathUnits="userSpaceOnUse"
       id="clipPath33">
      <path
         d="M 0,0 H 1987.4999 V 610.61743 H 0 Z"
         transform="matrix(0.33408807,0,0,0.33408807,-0.50000001,-0.50000001)"
         clip-rule="evenodd"
         id="path33" />
    </clipPath>
    <clipPath
       clipPathUnits="userSpaceOnUse"
       id="clipPath35">
      <path
         d="M 0,0 H 1987.4999 V 610.61743 H 0 Z"
         transform="matrix(0.33408807,0,0,0.33408807,-0.50000001,-0.50000001)"
         clip-rule="evenodd"
         id="path35" />
    </clipPath>
    <clipPath
       clipPathUnits="userSpaceOnUse"
       id="clipPath37">
      <path
         d="M 0,0 H 1987.4999 V 610.61743 H 0 Z"
         transform="matrix(0.33408807,0,0,0.33408807,-0.50000001,-0.50000001)"
         clip-rule="evenodd"
         id="path37" />
    </clipPath>
    <clipPath
       clipPathUnits="userSpaceOnUse"
       id="clipPath38">
      <path
         d="M 0,0 H 1987.4999 V 610.61743 H 0 Z"
         transform="matrix(0.33408471,0,0,0.33408471,-54.453125,-162)"
         clip-rule="evenodd"
         id="path38" />
    </clipPath>
    <clipPath
       clipPathUnits="userSpaceOnUse"
       id="clipPath40">
      <path
         d="M 0,0 H 1987.4999 V 610.61743 H 0 Z"
         transform="matrix(0.33408807,0,0,0.33408807,-0.50000001,-0.50000001)"
         clip-rule="evenodd"
         id="path40" />
    </clipPath>
    <clipPath
       clipPathUnits="userSpaceOnUse"
       id="clipPath41">
      <path
         d="M 0,0 H 1987.4999 V 610.61743 H 0 Z"
         transform="matrix(0.33408471,0,0,0.33408471,-159.9375,-162)"
         clip-rule="evenodd"
         id="path41" />
    </clipPath>
    <clipPath
       clipPathUnits="userSpaceOnUse"
       id="clipPath43">
      <path
         d="M 0,0 H 1987.4999 V 610.61743 H 0 Z"
         transform="matrix(0.33408807,0,0,0.33408807,-0.50000001,-0.50000001)"
         clip-rule="evenodd"
         id="path43" />
    </clipPath>
    <clipPath
       clipPathUnits="userSpaceOnUse"
       id="clipPath44">
      <path
         d="M 0,0 H 1987.4999 V 610.61743 H 0 Z"
         transform="matrix(0.33408471,0,0,0.33408471,-168.25,-185)"
         clip-rule="evenodd"
         id="path44" />
    </clipPath>
    <clipPath
       clipPathUnits="userSpaceOnUse"
       id="clipPath46">
      <path
         d="M 0,0 H 1987.4999 V 610.61743 H 0 Z"
         transform="matrix(0.33408807,0,0,0.33408807,-0.50000001,-0.50000001)"
         clip-rule="evenodd"
         id="path46" />
    </clipPath>
    <clipPath
       clipPathUnits="userSpaceOnUse"
       id="clipPath47">
      <path
         d="M 0,0 H 1987.4999 V 610.61743 H 0 Z"
         transform="matrix(0.33408471,0,0,0.33408471,-434.4375,-108)"
         clip-rule="evenodd"
         id="path47" />
    </clipPath>
    <clipPath
       clipPathUnits="userSpaceOnUse"
       id="clipPath49">
      <path
         d="M 0,0 H 1987.4999 V 610.61743 H 0 Z"
         transform="matrix(0.33408807,0,0,0.33408807,-0.50000001,-0.50000001)"
         clip-rule="evenodd"
         id="path49" />
    </clipPath>
    <clipPath
       clipPathUnits="userSpaceOnUse"
       id="clipPath50">
      <path
         d="M 0,0 H 1987.4999 V 610.61743 H 0 Z"
         transform="matrix(0.33408471,0,0,0.33408471,-347.64063,-93)"
         clip-rule="evenodd"
         id="path50" />
    </clipPath>
  </defs>
  <sodipodi:namedview
     id="namedview1"
     pagecolor="#ffffff"
     bordercolor="#000000"
     borderopacity="0.25"
     inkscape:showpageshadow="2"
     inkscape:pageopacity="0.0"
     inkscape:pagecheckerboard="0"
     inkscape:deskcolor="#d1d1d1">
    <inkscape:page
       x="0"
       y="0"
       inkscape:label="1"
       id="page1"
       width="635.83997"
       height="196.15999"
       margin="0"
       bleed="0" />
  </sodipodi:namedview>
  <g
     id="g1"
     inkscape:groupmode="layer"
     inkscape:label="1">
    <path
       id="path1"
       d="M 0,0 H 664 V 204 H 0 Z"
       style="fill:#ffffff;fill-opacity:1;fill-rule:nonzero;stroke:none"
       transform="scale(0.95783122)"
       clip-path="url(#clipPath2)" />
    <path
       id="path3"
       d="m 331,101 h 45 38.64001"
       style="fill:none;stroke:#000000;stroke-width:1;stroke-linecap:butt;stroke-linejoin:miter;stroke-miterlimit:10;stroke-dasharray:none;stroke-opacity:1"
       transform="matrix(0.95783122,0,0,0.95783122,0.47891562,0.47891562)"
       clip-path="url(#clipPath4)" />
    <path
       id="path5"
       d="m 419.89001,101 -7,3.5 1.75,-3.5 -1.75,-3.5 z"
       style="fill:#000000;fill-opacity:1;fill-rule:nonzero;stroke:#000000;stroke-width:1;stroke-linecap:butt;stroke-linejoin:miter;stroke-miterlimit:10;stroke-dasharray:none;stroke-opacity:1"
       transform="matrix(0.95783122,0,0,0.95783122,0.47891562,0.47891562)"
       clip-path="url(#clipPath6)" />
    <path
       id="path7"
       d="M 1,1 H 331 V 201 H 1 Z"
       style="fill:#f5f5f5;fill-opacity:1;fill-rule:nonzero;stroke:#666666;stroke-width:1;stroke-linecap:butt;stroke-linejoin:miter;stroke-miterlimit:10;stroke-dasharray:none;stroke-opacity:1"
       transform="matrix(0.95783122,0,0,0.95783122,0.47891562,0.47891562)"
       clip-path="url(#clipPath8)" />
    <path
       id="path9"
       d="M 11,11 H 321 V 51 H 11 Z"
       style="fill:#dae8fc;fill-opacity:1;fill-rule:nonzero;stroke:#6c8ebf;stroke-width:1;stroke-linecap:butt;stroke-linejoin:miter;stroke-miterlimit:10;stroke-dasharray:none;stroke-opacity:1"
       transform="matrix(0.95783122,0,0,0.95783122,0.47891562,0.47891562)"
       clip-path="url(#clipPath10)" />
    <text
       id="text10"
       xml:space="preserve"
       transform="matrix(0.95784086,0,0,0.95784086,72.586377,35.440112)"
       clip-path="url(#clipPath11)"><tspan
         style="font-variant:normal;font-weight:700;font-size:17px;font-family:Helvetica;writing-mode:lr-tb;fill:#000000;fill-opacity:1;fill-rule:nonzero;stroke:none"
         x="0 12.276855 21.731445 32.115723 42.5 49.115723 54.776855 59.5 70.838867 81.223145 86.884277 91.607422 97.268555 106.72314 111.44629 116.16943 126.55371 136.0083 141.66943 151.12402 161.5083 170.96289"
         y="0"
         sodipodi:role="line"
         id="tspan10">Report Entity Instance</tspan></text>
    <path
       id="path12"
       d="m 131,76 h 13.63"
       style="fill:none;stroke:#000000;stroke-width:1;stroke-linecap:butt;stroke-linejoin:miter;stroke-miterlimit:10;stroke-dasharray:none;stroke-opacity:1"
       transform="matrix(0.95783122,0,0,0.95783122,0.47891562,0.47891562)"
       clip-path="url(#clipPath13)" />
    <path
       id="path14"
       d="m 149.88,76 -7,3.5 1.75,-3.5 -1.75,-3.5 z"
       style="fill:#000000;fill-opacity:1;fill-rule:nonzero;stroke:#000000;stroke-width:1;stroke-linecap:butt;stroke-linejoin:miter;stroke-miterlimit:10;stroke-dasharray:none;stroke-opacity:1"
       transform="matrix(0.95783122,0,0,0.95783122,0.47891562,0.47891562)"
       clip-path="url(#clipPath15)" />
    <path
       id="path16"
       d="M 11,61 H 131 V 91 H 11 Z"
       style="fill:#ffffff;fill-opacity:1;fill-rule:nonzero;stroke:#000000;stroke-width:1;stroke-linecap:butt;stroke-linejoin:miter;stroke-miterlimit:10;stroke-dasharray:none;stroke-opacity:1"
       transform="matrix(0.95783122,0,0,0.95783122,0.47891562,0.47891562)"
       clip-path="url(#clipPath17)" />
    <text
       id="text17"
       xml:space="preserve"
       transform="matrix(0.95784086,0,0,0.95784086,50.34651,78.54295)"
       clip-path="url(#clipPath18)"><tspan
         style="font-variant:normal;font-weight:normal;font-size:17px;font-family:Helvetica;writing-mode:lr-tb;fill:#000000;fill-opacity:1;fill-rule:nonzero;stroke:none"
         x="0 9.4545898 15.115723 18.892578 27.392578"
         y="0"
         sodipodi:role="line"
         id="tspan17">price</tspan></text>
    <path
       id="path19"
       d="M 151,61 H 321 V 91 H 151 Z"
       style="fill:#ffffff;fill-opacity:1;fill-rule:nonzero;stroke:#000000;stroke-width:1;stroke-linecap:butt;stroke-linejoin:miter;stroke-miterlimit:10;stroke-dasharray:none;stroke-opacity:1"
       transform="matrix(0.95783122,0,0,0.95783122,0.47891562,0.47891562)"
       clip-path="url(#clipPath20)" />
    <text
       id="text20"
       xml:space="preserve"
       transform="matrix(0.95784086,0,0,0.95784086,203.40649,78.54295)"
       clip-path="url(#clipPath21)"><tspan
         style="font-variant:normal;font-weight:normal;font-size:17px;font-family:Helvetica;writing-mode:lr-tb;fill:#000000;fill-opacity:1;fill-rule:nonzero;stroke:none"
         x="0 9.4545898 18.90918 28.36377 37.818359"
         y="0"
         sodipodi:role="line"
         id="tspan20">40000</tspan></text>
    <path
       id="path22"
       d="m 131,116 h 13.63"
       style="fill:none;stroke:#000000;stroke-width:1;stroke-linecap:butt;stroke-linejoin:miter;stroke-miterlimit:10;stroke-dasharray:none;stroke-opacity:1"
       transform="matrix(0.95783122,0,0,0.95783122,0.47891562,0.47891562)"
       clip-path="url(#clipPath23)" />
    <path
       id="path24"
       d="m 149.88,116 -7,3.5 1.75,-3.5 -1.75,-3.5 z"
       style="fill:#000000;fill-opacity:1;fill-rule:nonzero;stroke:#000000;stroke-width:1;stroke-linecap:butt;stroke-linejoin:miter;stroke-miterlimit:10;stroke-dasharray:none;stroke-opacity:1"
       transform="matrix(0.95783122,0,0,0.95783122,0.47891562,0.47891562)"
       clip-path="url(#clipPath25)" />
    <path
       id="path26"
       d="m 11,101 h 120 v 30 H 11 Z"
       style="fill:#ffffff;fill-opacity:1;fill-rule:nonzero;stroke:#000000;stroke-width:1;stroke-linecap:butt;stroke-linejoin:miter;stroke-miterlimit:10;stroke-dasharray:none;stroke-opacity:1"
       transform="matrix(0.95783122,0,0,0.95783122,0.47891562,0.47891562)"
       clip-path="url(#clipPath27)" />
    <text
       id="text27"
       xml:space="preserve"
       transform="matrix(0.95784086,0,0,0.95784086,58.952111,116.85658)"
       clip-path="url(#clipPath28)"><tspan
         style="font-variant:normal;font-weight:normal;font-size:17px;font-family:Helvetica;writing-mode:lr-tb;fill:#000000;fill-opacity:1;fill-rule:nonzero;stroke:none"
         x="0 4.7231445 9.4462891 14.169434"
         y="0"
         sodipodi:role="line"
         id="tspan27">....</tspan></text>
    <path
       id="path29"
       d="m 151,101 h 170 v 30 H 151 Z"
       style="fill:#ffffff;fill-opacity:1;fill-rule:nonzero;stroke:#000000;stroke-width:1;stroke-linecap:butt;stroke-linejoin:miter;stroke-miterlimit:10;stroke-dasharray:none;stroke-opacity:1"
       transform="matrix(0.95783122,0,0,0.95783122,0.47891562,0.47891562)"
       clip-path="url(#clipPath30)" />
    <text
       id="text30"
       xml:space="preserve"
       transform="matrix(0.95784086,0,0,0.95784086,216.99586,116.85658)"
       clip-path="url(#clipPath31)"><tspan
         style="font-variant:normal;font-weight:normal;font-size:17px;font-family:Helvetica;writing-mode:lr-tb;fill:#000000;fill-opacity:1;fill-rule:nonzero;stroke:none"
         x="0 4.7231445 9.4462891 14.169434"
         y="0"
         sodipodi:role="line"
         id="tspan30">....</tspan></text>
    <path
       id="path32"
       d="m 131,156 h 13.63"
       style="fill:none;stroke:#000000;stroke-width:1;stroke-linecap:butt;stroke-linejoin:miter;stroke-miterlimit:10;stroke-dasharray:none;stroke-opacity:1"
       transform="matrix(0.95783122,0,0,0.95783122,0.47891562,0.47891562)"
       clip-path="url(#clipPath33)" />
    <path
       id="path34"
       d="m 149.88,156 -7,3.5 1.75,-3.5 -1.75,-3.5 z"
       style="fill:#000000;fill-opacity:1;fill-rule:nonzero;stroke:#000000;stroke-width:1;stroke-linecap:butt;stroke-linejoin:miter;stroke-miterlimit:10;stroke-dasharray:none;stroke-opacity:1"
       transform="matrix(0.95783122,0,0,0.95783122,0.47891562,0.47891562)"
       clip-path="url(#clipPath35)" />
    <path
       id="path36"
       d="m 11,141 h 120 v 30 H 11 Z"
       style="fill:#ffffff;fill-opacity:1;fill-rule:nonzero;stroke:#000000;stroke-width:1;stroke-linecap:butt;stroke-linejoin:miter;stroke-miterlimit:10;stroke-dasharray:none;stroke-opacity:1"
       transform="matrix(0.95783122,0,0,0.95783122,0.47891562,0.47891562)"
       clip-path="url(#clipPath37)" />
    <text
       id="text37"
       xml:space="preserve"
       transform="matrix(0.95784086,0,0,0.95784086,52.157428,155.17022)"
       clip-path="url(#clipPath38)"><tspan
         style="font-variant:normal;font-weight:normal;font-size:17px;font-family:Helvetica;writing-mode:lr-tb;fill:#000000;fill-opacity:1;fill-rule:nonzero;stroke:none"
         x="0 9.4545898 17.95459 27.40918"
         y="0"
         sodipodi:role="line"
         id="tspan37">user</tspan></text>
    <path
       id="path39"
       d="m 151,141 h 170 v 30 H 151 Z"
       style="fill:#ffffff;fill-opacity:1;fill-rule:nonzero;stroke:#000000;stroke-width:1;stroke-linecap:butt;stroke-linejoin:miter;stroke-miterlimit:10;stroke-dasharray:none;stroke-opacity:1"
       transform="matrix(0.95783122,0,0,0.95783122,0.47891562,0.47891562)"
       clip-path="url(#clipPath40)" />
    <text
       id="text40"
       xml:space="preserve"
       transform="matrix(0.95784086,0,0,0.95784086,153.19467,155.17022)"
       clip-path="url(#clipPath41)"><tspan
         style="font-variant:normal;font-weight:normal;font-size:17px;font-family:Helvetica;writing-mode:lr-tb;fill:#000000;fill-opacity:1;fill-rule:nonzero;stroke:none"
         x="0 12.276855 20.776855 30.231445 35.892578 40.615723 51.95459 61.40918 66.132324 69.90918 74.632324 83.132324 87.855469 92.578613 102.0332 110.5332 115.25635 124.71094 134.16553 142.66553"
         y="0"
         sodipodi:role="line"
         id="tspan40">User Entity Instance</tspan></text>
    <path
       id="path42"
       d="m 151,171 h 170 v 20 H 151 Z"
       style="fill:#ffffff;fill-opacity:1;fill-rule:nonzero;stroke:#000000;stroke-width:1;stroke-linecap:butt;stroke-linejoin:miter;stroke-miterlimit:10;stroke-dasharray:none;stroke-opacity:1"
       transform="matrix(0.95783122,0,0,0.95783122,0.47891562,0.47891562)"
       clip-path="url(#clipPath43)" />
    <text
       id="text43"
       xml:space="preserve"
       transform="matrix(0.95784086,0,0,0.95784086,161.15672,177.20056)"
       clip-path="url(#clipPath44)"><tspan
         style="font-style:oblique;font-variant:normal;font-weight:normal;font-size:12px;font-family:Helvetica;writing-mode:lr-tb;fill:#000000;fill-opacity:1;fill-rule:nonzero;stroke:none"
         x="0 4.0078125 7.3417969 10.007812 16.681641 20.015625 23.349609 30.023438 33.357422 36.691406 43.365234 53.361328 60.035156 62.701172 65.367188 68.701172 72.035156 74.326172 81 93.181641 99.855469 103.18945 109.18945 115.86328 125.85938 128.15039 131.48438"
         y="0"
         sodipodi:role="line"
         id="tspan43">{ id: 1, email: 'a@a.com' }</tspan></text>
    <path
       id="path45"
       d="m 421,53.5 h 240 v 95 H 421 Z"
       style="fill:#f5f5f5;fill-opacity:1;fill-rule:nonzero;stroke:#666666;stroke-width:1;stroke-linecap:butt;stroke-linejoin:miter;stroke-miterlimit:10;stroke-dasharray:none;stroke-opacity:1"
       transform="matrix(0.95783122,0,0,0.95783122,0.47891562,0.47891562)"
       clip-path="url(#clipPath46)" />
    <text
       id="text46"
       xml:space="preserve"
       transform="matrix(0.95784086,0,0,0.95784086,416.12199,103.44681)"
       clip-path="url(#clipPath47)"><tspan
         style="font-style:oblique;font-variant:normal;font-weight:700;font-size:18px;font-family:Helvetica;writing-mode:lr-tb;fill:#333333;fill-opacity:1;fill-rule:nonzero;stroke:none"
         x="0 7.0048828 12.005859 23.000977 30.005859 35.006836 45.017578 55.02832 61.022461 66.023438 76.03418 86.044922 96.055664 106.06641 116.07715 121.07812 126.0791 137.07422 147.08496 157.0957 164.10059 169.10156 180.09668 186.09082 191.0918 201.10254 206.10352"
         y="0"
         sodipodi:role="line"
         id="tspan46">{ price: 40000, userId: 1 }</tspan></text>
    <path
       id="path48"
       d="m 341,71 h 60 v 30 h -60 z"
       style="fill:#f8cecc;fill-opacity:1;fill-rule:nonzero;stroke:#b85450;stroke-width:1;stroke-linecap:butt;stroke-linejoin:miter;stroke-miterlimit:10;stroke-dasharray:none;stroke-opacity:1"
       transform="matrix(0.95783122,0,0,0.95783122,0.47891562,0.47891562)"
       clip-path="url(#clipPath49)" />
    <text
       id="text49"
       xml:space="preserve"
       transform="matrix(0.95784086,0,0,0.95784086,332.9844,89.0792)"
       clip-path="url(#clipPath50)"><tspan
         style="font-variant:normal;font-weight:normal;font-size:18px;font-family:Helvetica;writing-mode:lr-tb;fill:#000000;fill-opacity:1;fill-rule:nonzero;stroke:none"
         x="0 12.005859 22.68457 34.69043"
         y="0"
         sodipodi:role="line"
         id="tspan49">SAVE</tspan></text>
  </g>
</svg>
