<?xml version="1.0" encoding="UTF-8" standalone="no"?>
<!-- Created with Inkscape (http://www.inkscape.org/) -->

<svg
   version="1.1"
   id="svg1"
   width="309.44"
   height="110.72"
   viewBox="0 0 309.44 110.72"
   sodipodi:docname="nest-5.pdf"
   xmlns:inkscape="http://www.inkscape.org/namespaces/inkscape"
   xmlns:sodipodi="http://sodipodi.sourceforge.net/DTD/sodipodi-0.dtd"
   xmlns="http://www.w3.org/2000/svg"
   xmlns:svg="http://www.w3.org/2000/svg">
  <defs
     id="defs1">
    <clipPath
       clipPathUnits="userSpaceOnUse"
       id="clipPath2">
      <path
         d="M 0,0 H 966.66656 V 343.10696 H 0 Z"
         transform="scale(0.33517244)"
         clip-rule="evenodd"
         id="path2" />
    </clipPath>
    <clipPath
       clipPathUnits="userSpaceOnUse"
       id="clipPath4">
      <path
         d="M 0,0 H 966.66656 V 340.12344 H 0 Z"
         transform="matrix(0.33517244,0,0,0.33517244,-0.49999999,-0.49999999)"
         clip-rule="evenodd"
         id="path4" />
    </clipPath>
    <clipPath
       clipPathUnits="userSpaceOnUse"
       id="clipPath5">
      <path
         d="M 0,0 H 966.66656 V 340.12344 H 0 Z"
         transform="matrix(0.33516909,0,0,0.33516909,-19.453125,-37)"
         clip-rule="evenodd"
         id="path5" />
    </clipPath>
    <clipPath
       clipPathUnits="userSpaceOnUse"
       id="clipPath6">
      <path
         d="M 0,0 H 966.66656 V 340.12344 H 0 Z"
         transform="matrix(0.33516909,0,0,0.33516909,-113.46875,-59.000001)"
         clip-rule="evenodd"
         id="path6" />
    </clipPath>
    <clipPath
       clipPathUnits="userSpaceOnUse"
       id="clipPath7">
      <path
         d="M 0,0 H 966.66656 V 340.12344 H 0 Z"
         transform="matrix(0.33516909,0,0,0.33516909,-87.953126,-108)"
         clip-rule="evenodd"
         id="path7" />
    </clipPath>
  </defs>
  <sodipodi:namedview
     id="namedview1"
     pagecolor="#ffffff"
     bordercolor="#000000"
     borderopacity="0.25"
     inkscape:showpageshadow="2"
     inkscape:pageopacity="0.0"
     inkscape:pagecheckerboard="0"
     inkscape:deskcolor="#d1d1d1">
    <inkscape:page
       x="0"
       y="0"
       inkscape:label="1"
       id="page1"
       width="309.44"
       height="110.72"
       margin="0"
       bleed="0" />
  </sodipodi:namedview>
  <g
     id="g1"
     inkscape:groupmode="layer"
     inkscape:label="1">
    <path
       id="path1"
       d="M 0,0 H 324 V 115 H 0 Z"
       style="fill:#ffffff;fill-opacity:1;fill-rule:nonzero;stroke:none"
       transform="scale(0.95473241)"
       clip-path="url(#clipPath2)" />
    <path
       id="path3"
       d="M 1,1 H 321 V 81 H 1 Z"
       style="fill:#dae8fc;fill-opacity:1;fill-rule:nonzero;stroke:#6c8ebf;stroke-width:1;stroke-linecap:butt;stroke-linejoin:miter;stroke-miterlimit:10;stroke-dasharray:none;stroke-opacity:1"
       transform="matrix(0.95473241,0,0,0.95473241,0.4773662,0.4773662)"
       clip-path="url(#clipPath4)" />
    <text
       id="text4"
       xml:space="preserve"
       transform="matrix(0.95474194,0,0,0.95474194,18.572714,35.325452)"
       clip-path="url(#clipPath5)"><tspan
         style="font-variant:normal;font-weight:700;font-size:18px;font-family:Helvetica;writing-mode:lr-tb;fill:#000000;fill-opacity:1;fill-rule:nonzero;stroke:none"
         x="0 12.999023 23.009766 33.020508 44.015625 54.026367 59.027344 69.038086 75.032227 85.042969 90.043945 100.05469 105.05566 116.05078 126.06152 136.07227 143.07715 148.07812 162.0791 167.08008 173.07422 184.06934 189.07031 195.06445 206.05957 216.07031 221.07129 228.07617 238.08691 249.08203 260.07715 267.08203 273.07617"
         y="0"
         sodipodi:role="line"
         id="tspan4">Associate a user with the reports</tspan></text>
    <text
       id="text5"
       xml:space="preserve"
       transform="matrix(0.95474194,0,0,0.95474194,108.33337,56.329775)"
       clip-path="url(#clipPath6)"><tspan
         style="font-variant:normal;font-weight:700;font-size:18px;font-family:Helvetica;writing-mode:lr-tb;fill:#000000;fill-opacity:1;fill-rule:nonzero;stroke:none"
         x="0 5.9941406 16.989258 27 37.010742 42.011719 52.022461 59.027344 69.038086 79.048828 85.042969"
         y="0"
         sodipodi:role="line"
         id="tspan5">they create</tspan></text>
    <text
       id="text6"
       xml:space="preserve"
       transform="matrix(0.95474194,0,0,0.95474194,83.972538,103.11213)"
       clip-path="url(#clipPath7)"><tspan
         style="font-style:oblique;font-variant:normal;font-weight:normal;font-size:18px;font-family:Helvetica;writing-mode:lr-tb;fill:#000000;fill-opacity:1;fill-rule:nonzero;stroke:none"
         x="0 12.005859 22.016602 32.027344 36.026367 41.027344 45.026367 55.037109 65.047852 75.058594 79.057617 84.058594 95.053711 105.06445 115.0752 120.07617 130.08691 136.08105"
         y="0"
         sodipodi:role="line"
         id="tspan6">Additional Feature</tspan></text>
  </g>
</svg>
