<?xml version="1.0" encoding="UTF-8" standalone="no"?>
<!-- Created with Inkscape (http://www.inkscape.org/) -->

<svg
   version="1.1"
   id="svg1"
   width="385.28"
   height="224"
   viewBox="0 0 385.28 224"
   sodipodi:docname="nest-16.pdf"
   xmlns:inkscape="http://www.inkscape.org/namespaces/inkscape"
   xmlns:sodipodi="http://sodipodi.sourceforge.net/DTD/sodipodi-0.dtd"
   xmlns="http://www.w3.org/2000/svg"
   xmlns:svg="http://www.w3.org/2000/svg">
  <defs
     id="defs1">
    <clipPath
       clipPathUnits="userSpaceOnUse"
       id="clipPath2">
      <path
         d="M 0,0 H 1204.1666 V 697.93738 H 0 Z"
         transform="scale(0.33384085)"
         clip-rule="evenodd"
         id="path2" />
    </clipPath>
    <clipPath
       clipPathUnits="userSpaceOnUse"
       id="clipPath4">
      <path
         d="M 0,0 H 1204.1666 V 694.94189 H 0 Z"
         transform="matrix(0.33384085,0,0,0.33384085,-0.5,-0.5)"
         clip-rule="evenodd"
         id="path4" />
    </clipPath>
    <clipPath
       clipPathUnits="userSpaceOnUse"
       id="clipPath5">
      <path
         d="M 0,0 H 1204.1666 V 694.94189 H 0 Z"
         transform="matrix(0.3338375,0,0,0.3338375,-38.90625,-57)"
         clip-rule="evenodd"
         id="path5" />
    </clipPath>
    <clipPath
       clipPathUnits="userSpaceOnUse"
       id="clipPath7">
      <path
         d="M 0,0 H 1204.1666 V 694.94189 H 0 Z"
         transform="matrix(0.33384085,0,0,0.33384085,-0.5,-0.5)"
         clip-rule="evenodd"
         id="path7" />
    </clipPath>
    <clipPath
       clipPathUnits="userSpaceOnUse"
       id="clipPath9">
      <path
         d="M 0,0 H 1204.1666 V 694.94189 H 0 Z"
         transform="matrix(0.33384085,0,0,0.33384085,-0.5,-0.5)"
         clip-rule="evenodd"
         id="path9" />
    </clipPath>
    <clipPath
       clipPathUnits="userSpaceOnUse"
       id="clipPath10">
      <path
         d="M 0,0 H 1204.1666 V 694.94189 H 0 Z"
         transform="matrix(0.3338375,0,0,0.3338375,-21.25,-19)"
         clip-rule="evenodd"
         id="path10" />
    </clipPath>
    <clipPath
       clipPathUnits="userSpaceOnUse"
       id="clipPath12">
      <path
         d="M 0,0 H 1204.1666 V 694.94189 H 0 Z"
         transform="matrix(0.33384085,0,0,0.33384085,-0.5,-0.5)"
         clip-rule="evenodd"
         id="path12" />
    </clipPath>
    <clipPath
       clipPathUnits="userSpaceOnUse"
       id="clipPath13">
      <path
         d="M 0,0 H 1204.1666 V 694.94189 H 0 Z"
         transform="matrix(0.3338375,0,0,0.3338375,-36.171875,-106.99999)"
         clip-rule="evenodd"
         id="path13" />
    </clipPath>
    <clipPath
       clipPathUnits="userSpaceOnUse"
       id="clipPath15">
      <path
         d="M 0,0 H 1204.1666 V 694.94189 H 0 Z"
         transform="matrix(0.33384085,0,0,0.33384085,-0.5,-0.5)"
         clip-rule="evenodd"
         id="path15" />
    </clipPath>
    <clipPath
       clipPathUnits="userSpaceOnUse"
       id="clipPath16">
      <path
         d="M 0,0 H 1204.1666 V 694.94189 H 0 Z"
         transform="matrix(0.3338375,0,0,0.3338375,-68.093749,-157)"
         clip-rule="evenodd"
         id="path16" />
    </clipPath>
    <clipPath
       clipPathUnits="userSpaceOnUse"
       id="clipPath18">
      <path
         d="M 0,0 H 1204.1666 V 694.94189 H 0 Z"
         transform="matrix(0.33384085,0,0,0.33384085,-0.5,-0.5)"
         clip-rule="evenodd"
         id="path18" />
    </clipPath>
    <clipPath
       clipPathUnits="userSpaceOnUse"
       id="clipPath19">
      <path
         d="M 0,0 H 1204.1666 V 694.94189 H 0 Z"
         transform="matrix(0.3338375,0,0,0.3338375,-87.9375,-207)"
         clip-rule="evenodd"
         id="path19" />
    </clipPath>
  </defs>
  <sodipodi:namedview
     id="namedview1"
     pagecolor="#ffffff"
     bordercolor="#000000"
     borderopacity="0.25"
     inkscape:showpageshadow="2"
     inkscape:pageopacity="0.0"
     inkscape:pagecheckerboard="0"
     inkscape:deskcolor="#d1d1d1">
    <inkscape:page
       x="0"
       y="0"
       inkscape:label="1"
       id="page1"
       width="385.28"
       height="224"
       margin="0"
       bleed="0" />
  </sodipodi:namedview>
  <g
     id="g1"
     inkscape:groupmode="layer"
     inkscape:label="1">
    <path
       id="path1"
       d="M 0,0 H 402 V 233 H 0 Z"
       style="fill:#ffffff;fill-opacity:1;fill-rule:nonzero;stroke:none"
       transform="scale(0.95854054)"
       clip-path="url(#clipPath2)" />
    <path
       id="path3"
       d="M 30,32 H 370 V 72 H 30 Z"
       style="fill:#ffffff;fill-opacity:1;fill-rule:nonzero;stroke:#000000;stroke-width:1;stroke-linecap:butt;stroke-linejoin:miter;stroke-miterlimit:10;stroke-dasharray:none;stroke-opacity:1"
       transform="matrix(0.95854054,0,0,0.95854054,0.47927027,0.47927027)"
       clip-path="url(#clipPath4)" />
    <text
       id="text4"
       xml:space="preserve"
       transform="matrix(0.95855014,0,0,0.95855014,37.293591,54.637358)"
       clip-path="url(#clipPath5)"><tspan
         style="font-variant:normal;font-weight:normal;font-size:14px;font-family:Helvetica;writing-mode:lr-tb;fill:#000000;fill-opacity:1;fill-rule:nonzero;stroke:none"
         x="0 8.5517578 11.662109 19.448242 27.234375 31.896484 39.682617 43.572266 51.358398 59.144531 63.03418 66.923828 77.03418 84.820312 92.606445 96.496094 100.38574 107.38574 110.49609 118.28223 126.06836 129.95801 137.74414 141.63379 145.52344 153.30957 160.30957 167.30957 175.0957 182.0957 185.20605 192.99219 196.88184 199.99219 207.77832 215.56445 219.4541 229.56445 237.35059 241.24023 249.02637 253.68848 261.47461 265.36426 277.02637 284.8125 292.59863 300.38477 303.49512 306.60547 314.3916"
         y="0"
         sodipodi:role="line"
         id="tspan4">Figure out what kind of association we are modeling</tspan></text>
    <path
       id="path6"
       d="M 20,32 V 215.63"
       style="fill:none;stroke:#000000;stroke-width:1;stroke-linecap:butt;stroke-linejoin:miter;stroke-miterlimit:10;stroke-dasharray:none;stroke-opacity:1"
       transform="matrix(0.95854054,0,0,0.95854054,0.47927027,0.47927027)"
       clip-path="url(#clipPath7)" />
    <path
       id="path8"
       d="m 20,220.88 -3.5,-7 3.5,1.75 3.5,-1.75 z"
       style="fill:#000000;fill-opacity:1;fill-rule:nonzero;stroke:#000000;stroke-width:1;stroke-linecap:butt;stroke-linejoin:miter;stroke-miterlimit:10;stroke-dasharray:none;stroke-opacity:1"
       transform="matrix(0.95854054,0,0,0.95854054,0.47927027,0.47927027)"
       clip-path="url(#clipPath9)" />
    <text
       id="text9"
       xml:space="preserve"
       transform="matrix(0.95855014,0,0,0.95855014,20.36919,18.212453)"
       clip-path="url(#clipPath10)"><tspan
         style="font-variant:normal;font-weight:700;font-size:20px;font-family:Helvetica;writing-mode:lr-tb;fill:#000000;fill-opacity:1;fill-rule:nonzero;stroke:none"
         x="0 14.443359 25.566406 36.689453 48.90625 60.029297 65.585938 76.708984 83.369141 88.925781 101.14258 113.35938 124.48242 130.03906 145.5957 151.15234 157.8125 170.0293 175.58594 190.0293 201.15234 212.27539 218.93555 224.49219 235.61523 247.83203 260.04883 265.60547 276.34766 287.4707 299.6875 310.81055 326.36719 340.81055"
         y="0"
         sodipodi:role="line"
         id="tspan9">Associations with Nest and TypeORM</tspan></text>
    <path
       id="path11"
       d="m 30,82 h 340 v 40 H 30 Z"
       style="fill:#ffffff;fill-opacity:1;fill-rule:nonzero;stroke:#000000;stroke-width:1;stroke-linecap:butt;stroke-linejoin:miter;stroke-miterlimit:10;stroke-dasharray:none;stroke-opacity:1"
       transform="matrix(0.95854054,0,0,0.95854054,0.47927027,0.47927027)"
       clip-path="url(#clipPath12)" />
    <text
       id="text12"
       xml:space="preserve"
       transform="matrix(0.95855014,0,0,0.95855014,34.672556,102.56486)"
       clip-path="url(#clipPath13)"><tspan
         style="font-variant:normal;font-weight:normal;font-size:14px;font-family:Helvetica;writing-mode:lr-tb;fill:#000000;fill-opacity:1;fill-rule:nonzero;stroke:none"
         x="0 9.3378906 17.124023 24.910156 28.799805 32.689453 40.475586 48.261719 52.151367 59.9375 67.723633 75.509766 80.171875 87.958008 95.744141 100.40625 103.5166 111.30273 115.19238 122.97852 126.86816 134.6543 142.44043 149.44043 157.22656 161.88867 169.6748 173.56445 181.35059 186.0127 193.0127 196.90234 200.79199 208.57812 212.46777 220.25391 228.04004 232.70215 236.5918 241.25391 249.04004 252.15039 259.93652 263.82617 271.6123 279.39844 283.28809 291.07422 298.86035 302.75 305.86035 309.75 312.86035 320.64648"
         y="0"
         sodipodi:role="line"
         id="tspan12">Add the appropriate decorators to our related entities</tspan></text>
    <path
       id="path14"
       d="m 30,132 h 340 v 40 H 30 Z"
       style="fill:#ffffff;fill-opacity:1;fill-rule:nonzero;stroke:#000000;stroke-width:1;stroke-linecap:butt;stroke-linejoin:miter;stroke-miterlimit:10;stroke-dasharray:none;stroke-opacity:1"
       transform="matrix(0.95854054,0,0,0.95854054,0.47927027,0.47927027)"
       clip-path="url(#clipPath15)" />
    <text
       id="text15"
       xml:space="preserve"
       transform="matrix(0.95855014,0,0,0.95855014,65.271273,150.49237)"
       clip-path="url(#clipPath16)"><tspan
         style="font-variant:normal;font-weight:normal;font-size:14px;font-family:Helvetica;writing-mode:lr-tb;fill:#000000;fill-opacity:1;fill-rule:nonzero;stroke:none"
         x="0 9.3378906 16.337891 23.337891 31.124023 38.124023 41.234375 49.020508 52.910156 60.696289 64.585938 68.475586 76.261719 84.047852 87.9375 92.599609 100.38574 107.38574 115.17188 119.83398 127.62012 134.62012 138.50977 148.62012 156.40625 164.19238 171.97852 175.86816 183.6543 191.44043 199.22656 203.11621 206.22656 213.22656 217.11621 224.11621 228.77832 236.56445 244.35059 248.24023 256.02637"
         y="0"
         sodipodi:role="line"
         id="tspan15">Associate the records when one is created</tspan></text>
    <path
       id="path17"
       d="m 30,182 h 340 v 40 H 30 Z"
       style="fill:#ffffff;fill-opacity:1;fill-rule:nonzero;stroke:#000000;stroke-width:1;stroke-linecap:butt;stroke-linejoin:miter;stroke-miterlimit:10;stroke-dasharray:none;stroke-opacity:1"
       transform="matrix(0.95854054,0,0,0.95854054,0.47927027,0.47927027)"
       clip-path="url(#clipPath18)" />
    <text
       id="text18"
       xml:space="preserve"
       transform="matrix(0.95855014,0,0,0.95855014,84.292503,198.41988)"
       clip-path="url(#clipPath19)"><tspan
         style="font-variant:normal;font-weight:normal;font-size:14px;font-family:Helvetica;writing-mode:lr-tb;fill:#000000;fill-opacity:1;fill-rule:nonzero;stroke:none"
         x="0 9.3378906 17.124023 24.910156 28.020508 35.020508 38.910156 46.696289 50.585938 57.585938 65.37207 70.03418 73.144531 80.930664 84.041016 87.151367 94.151367 101.9375 106.59961 110.48926 114.37891 122.16504 126.05469 129.16504 132.27539 143.9375 147.04785 150.9375 154.82715 157.9375 165.72363 169.61328 177.39941 181.28906 188.28906 196.0752 203.86133 208.52344 216.30957"
         y="0"
         sodipodi:role="line"
         id="tspan18">Apply a serializer to limit info shared</tspan></text>
  </g>
</svg>
