<?xml version="1.0" encoding="UTF-8" standalone="no"?>
<!-- Created with Inkscape (http://www.inkscape.org/) -->

<svg
   version="1.1"
   id="svg1"
   width="329.28"
   height="178.56"
   viewBox="0 0 329.28 178.56"
   sodipodi:docname="nest-18.pdf"
   xmlns:inkscape="http://www.inkscape.org/namespaces/inkscape"
   xmlns:sodipodi="http://sodipodi.sourceforge.net/DTD/sodipodi-0.dtd"
   xmlns="http://www.w3.org/2000/svg"
   xmlns:svg="http://www.w3.org/2000/svg">
  <defs
     id="defs1">
    <clipPath
       clipPathUnits="userSpaceOnUse"
       id="clipPath2">
      <path
         d="M 0,0 H 1029.1666 V 556.46796 H 0 Z"
         transform="scale(0.33425103)"
         clip-rule="evenodd"
         id="path2" />
    </clipPath>
    <clipPath
       clipPathUnits="userSpaceOnUse"
       id="clipPath4">
      <path
         d="M 0,0 H 1029.1666 V 556.46796 H 0 Z"
         transform="matrix(0.33425103,0,0,0.33425103,-0.49999999,-0.49999999)"
         clip-rule="evenodd"
         id="path4" />
    </clipPath>
    <clipPath
       clipPathUnits="userSpaceOnUse"
       id="clipPath6">
      <path
         d="M 0,0 H 1029.1666 V 556.46796 H 0 Z"
         transform="matrix(0.33425103,0,0,0.33425103,-0.49999999,-0.49999999)"
         clip-rule="evenodd"
         id="path6" />
    </clipPath>
    <clipPath
       clipPathUnits="userSpaceOnUse"
       id="clipPath8">
      <path
         d="M 0,0 H 1029.1666 V 556.46796 H 0 Z"
         transform="matrix(0.33425103,0,0,0.33425103,-0.49999999,-0.49999999)"
         clip-rule="evenodd"
         id="path8" />
    </clipPath>
    <clipPath
       clipPathUnits="userSpaceOnUse"
       id="clipPath9">
      <path
         d="M 0,0 H 1029.1666 V 556.46796 H 0 Z"
         transform="matrix(0.33424768,0,0,0.33424768,-11.203125,-21)"
         clip-rule="evenodd"
         id="path9" />
    </clipPath>
    <clipPath
       clipPathUnits="userSpaceOnUse"
       id="clipPath11">
      <path
         d="M 0,0 H 1029.1666 V 556.46796 H 0 Z"
         transform="matrix(0.33425103,0,0,0.33425103,-0.49999999,-0.49999999)"
         clip-rule="evenodd"
         id="path11" />
    </clipPath>
    <clipPath
       clipPathUnits="userSpaceOnUse"
       id="clipPath12">
      <path
         d="M 0,0 H 1029.1666 V 556.46796 H 0 Z"
         transform="matrix(0.33424768,0,0,0.33424768,-167.01562,-21)"
         clip-rule="evenodd"
         id="path12" />
    </clipPath>
    <clipPath
       clipPathUnits="userSpaceOnUse"
       id="clipPath14">
      <path
         d="M 0,0 H 1029.1666 V 556.46796 H 0 Z"
         transform="matrix(0.33425103,0,0,0.33425103,-0.49999999,-0.49999999)"
         clip-rule="evenodd"
         id="path14" />
    </clipPath>
    <clipPath
       clipPathUnits="userSpaceOnUse"
       id="clipPath16">
      <path
         d="M 0,0 H 1029.1666 V 556.46796 H 0 Z"
         transform="matrix(0.33425103,0,0,0.33425103,-0.49999999,-0.49999999)"
         clip-rule="evenodd"
         id="path16" />
    </clipPath>
    <clipPath
       clipPathUnits="userSpaceOnUse"
       id="clipPath18">
      <path
         d="M 0,0 H 1029.1666 V 556.46796 H 0 Z"
         transform="matrix(0.33425103,0,0,0.33425103,-0.49999999,-0.49999999)"
         clip-rule="evenodd"
         id="path18" />
    </clipPath>
    <clipPath
       clipPathUnits="userSpaceOnUse"
       id="clipPath19">
      <path
         d="M 0,0 H 1029.1666 V 556.46796 H 0 Z"
         transform="matrix(0.33424768,0,0,0.33424768,-177.3125,-55)"
         clip-rule="evenodd"
         id="path19" />
    </clipPath>
    <clipPath
       clipPathUnits="userSpaceOnUse"
       id="clipPath21">
      <path
         d="M 0,0 H 1029.1666 V 556.46796 H 0 Z"
         transform="matrix(0.33425103,0,0,0.33425103,-0.49999999,-0.49999999)"
         clip-rule="evenodd"
         id="path21" />
    </clipPath>
    <clipPath
       clipPathUnits="userSpaceOnUse"
       id="clipPath22">
      <path
         d="M 0,0 H 1029.1666 V 556.46796 H 0 Z"
         transform="matrix(0.33424768,0,0,0.33424768,-179.125,-85)"
         clip-rule="evenodd"
         id="path22" />
    </clipPath>
    <clipPath
       clipPathUnits="userSpaceOnUse"
       id="clipPath24">
      <path
         d="M 0,0 H 1029.1666 V 556.46796 H 0 Z"
         transform="matrix(0.33425103,0,0,0.33425103,-0.49999999,-0.49999999)"
         clip-rule="evenodd"
         id="path24" />
    </clipPath>
    <clipPath
       clipPathUnits="userSpaceOnUse"
       id="clipPath25">
      <path
         d="M 0,0 H 1029.1666 V 556.46796 H 0 Z"
         transform="matrix(0.33424768,0,0,0.33424768,-171.90625,-147)"
         clip-rule="evenodd"
         id="path25" />
    </clipPath>
    <clipPath
       clipPathUnits="userSpaceOnUse"
       id="clipPath27">
      <path
         d="M 0,0 H 1029.1666 V 556.46796 H 0 Z"
         transform="matrix(0.33425103,0,0,0.33425103,-0.49999999,-0.49999999)"
         clip-rule="evenodd"
         id="path27" />
    </clipPath>
    <clipPath
       clipPathUnits="userSpaceOnUse"
       id="clipPath28">
      <path
         d="M 0,0 H 1029.1666 V 556.46796 H 0 Z"
         transform="matrix(0.33424768,0,0,0.33424768,-180.57813,-116)"
         clip-rule="evenodd"
         id="path28" />
    </clipPath>
    <clipPath
       clipPathUnits="userSpaceOnUse"
       id="clipPath30">
      <path
         d="M 0,0 H 1029.1666 V 556.46796 H 0 Z"
         transform="matrix(0.33425103,0,0,0.33425103,-0.49999999,-0.49999999)"
         clip-rule="evenodd"
         id="path30" />
    </clipPath>
    <clipPath
       clipPathUnits="userSpaceOnUse"
       id="clipPath31">
      <path
         d="M 0,0 H 1029.1666 V 556.46796 H 0 Z"
         transform="matrix(0.33424768,0,0,0.33424768,-283.76563,-55)"
         clip-rule="evenodd"
         id="path31" />
    </clipPath>
    <clipPath
       clipPathUnits="userSpaceOnUse"
       id="clipPath33">
      <path
         d="M 0,0 H 1029.1666 V 556.46796 H 0 Z"
         transform="matrix(0.33425103,0,0,0.33425103,-0.49999999,-0.49999999)"
         clip-rule="evenodd"
         id="path33" />
    </clipPath>
    <clipPath
       clipPathUnits="userSpaceOnUse"
       id="clipPath35">
      <path
         d="M 0,0 H 1029.1666 V 556.46796 H 0 Z"
         transform="matrix(0.33425103,0,0,0.33425103,-0.49999999,-0.49999999)"
         clip-rule="evenodd"
         id="path35" />
    </clipPath>
    <clipPath
       clipPathUnits="userSpaceOnUse"
       id="clipPath37">
      <path
         d="M 0,0 H 1029.1666 V 556.46796 H 0 Z"
         transform="matrix(0.33425103,0,0,0.33425103,-0.49999999,-0.49999999)"
         clip-rule="evenodd"
         id="path37" />
    </clipPath>
    <clipPath
       clipPathUnits="userSpaceOnUse"
       id="clipPath38">
      <path
         d="M 0,0 H 1029.1666 V 556.46796 H 0 Z"
         transform="matrix(0.33424768,0,0,0.33424768,-283.76563,-85)"
         clip-rule="evenodd"
         id="path38" />
    </clipPath>
    <clipPath
       clipPathUnits="userSpaceOnUse"
       id="clipPath40">
      <path
         d="M 0,0 H 1029.1666 V 556.46796 H 0 Z"
         transform="matrix(0.33425103,0,0,0.33425103,-0.49999999,-0.49999999)"
         clip-rule="evenodd"
         id="path40" />
    </clipPath>
    <clipPath
       clipPathUnits="userSpaceOnUse"
       id="clipPath42">
      <path
         d="M 0,0 H 1029.1666 V 556.46796 H 0 Z"
         transform="matrix(0.33425103,0,0,0.33425103,-0.49999999,-0.49999999)"
         clip-rule="evenodd"
         id="path42" />
    </clipPath>
    <clipPath
       clipPathUnits="userSpaceOnUse"
       id="clipPath44">
      <path
         d="M 0,0 H 1029.1666 V 556.46796 H 0 Z"
         transform="matrix(0.33425103,0,0,0.33425103,-0.49999999,-0.49999999)"
         clip-rule="evenodd"
         id="path44" />
    </clipPath>
    <clipPath
       clipPathUnits="userSpaceOnUse"
       id="clipPath45">
      <path
         d="M 0,0 H 1029.1666 V 556.46796 H 0 Z"
         transform="matrix(0.33424768,0,0,0.33424768,-283.76563,-116)"
         clip-rule="evenodd"
         id="path45" />
    </clipPath>
    <clipPath
       clipPathUnits="userSpaceOnUse"
       id="clipPath47">
      <path
         d="M 0,0 H 1029.1666 V 556.46796 H 0 Z"
         transform="matrix(0.33425103,0,0,0.33425103,-0.49999999,-0.49999999)"
         clip-rule="evenodd"
         id="path47" />
    </clipPath>
    <clipPath
       clipPathUnits="userSpaceOnUse"
       id="clipPath49">
      <path
         d="M 0,0 H 1029.1666 V 556.46796 H 0 Z"
         transform="matrix(0.33425103,0,0,0.33425103,-0.49999999,-0.49999999)"
         clip-rule="evenodd"
         id="path49" />
    </clipPath>
    <clipPath
       clipPathUnits="userSpaceOnUse"
       id="clipPath51">
      <path
         d="M 0,0 H 1029.1666 V 556.46796 H 0 Z"
         transform="matrix(0.33425103,0,0,0.33425103,-0.49999999,-0.49999999)"
         clip-rule="evenodd"
         id="path51" />
    </clipPath>
    <clipPath
       clipPathUnits="userSpaceOnUse"
       id="clipPath52">
      <path
         d="M 0,0 H 1029.1666 V 556.46796 H 0 Z"
         transform="matrix(0.33424768,0,0,0.33424768,-272.92188,-147)"
         clip-rule="evenodd"
         id="path52" />
    </clipPath>
    <clipPath
       clipPathUnits="userSpaceOnUse"
       id="clipPath54">
      <path
         d="M 0,0 H 1029.1666 V 556.46796 H 0 Z"
         transform="matrix(0.33425103,0,0,0.33425103,-0.49999999,-0.49999999)"
         clip-rule="evenodd"
         id="path54" />
    </clipPath>
    <clipPath
       clipPathUnits="userSpaceOnUse"
       id="clipPath55">
      <path
         d="M 0,0 H 1029.1666 V 556.46796 H 0 Z"
         transform="matrix(0.33424768,0,0,0.33424768,-173.34375,-177)"
         clip-rule="evenodd"
         id="path55" />
    </clipPath>
    <clipPath
       clipPathUnits="userSpaceOnUse"
       id="clipPath57">
      <path
         d="M 0,0 H 1029.1666 V 556.46796 H 0 Z"
         transform="matrix(0.33425103,0,0,0.33425103,-0.49999999,-0.49999999)"
         clip-rule="evenodd"
         id="path57" />
    </clipPath>
    <clipPath
       clipPathUnits="userSpaceOnUse"
       id="clipPath59">
      <path
         d="M 0,0 H 1029.1666 V 556.46796 H 0 Z"
         transform="matrix(0.33425103,0,0,0.33425103,-0.49999999,-0.49999999)"
         clip-rule="evenodd"
         id="path59" />
    </clipPath>
    <clipPath
       clipPathUnits="userSpaceOnUse"
       id="clipPath61">
      <path
         d="M 0,0 H 1029.1666 V 556.46796 H 0 Z"
         transform="matrix(0.33425103,0,0,0.33425103,-0.49999999,-0.49999999)"
         clip-rule="evenodd"
         id="path61" />
    </clipPath>
    <clipPath
       clipPathUnits="userSpaceOnUse"
       id="clipPath62">
      <path
         d="M 0,0 H 1029.1666 V 556.46796 H 0 Z"
         transform="matrix(0.33424768,0,0,0.33424768,-279.73438,-177)"
         clip-rule="evenodd"
         id="path62" />
    </clipPath>
  </defs>
  <sodipodi:namedview
     id="namedview1"
     pagecolor="#ffffff"
     bordercolor="#000000"
     borderopacity="0.25"
     inkscape:showpageshadow="2"
     inkscape:pageopacity="0.0"
     inkscape:pagecheckerboard="0"
     inkscape:deskcolor="#d1d1d1">
    <inkscape:page
       x="0"
       y="0"
       inkscape:label="1"
       id="page1"
       width="329.28"
       height="178.56"
       margin="0"
       bleed="0" />
  </sodipodi:namedview>
  <g
     id="g1"
     inkscape:groupmode="layer"
     inkscape:label="1">
    <path
       id="path1"
       d="M 0,0 H 344 V 186 H 0 Z"
       style="fill:#ffffff;fill-opacity:1;fill-rule:nonzero;stroke:none"
       transform="scale(0.95736425)"
       clip-path="url(#clipPath2)" />
    <path
       id="path3"
       d="m 111,16 h 23.63"
       style="fill:none;stroke:#000000;stroke-width:1;stroke-linecap:butt;stroke-linejoin:miter;stroke-miterlimit:10;stroke-dasharray:none;stroke-opacity:1"
       transform="matrix(0.95736425,0,0,0.95736425,0.47868212,0.47868212)"
       clip-path="url(#clipPath4)" />
    <path
       id="path5"
       d="m 139.88,16 -7,3.5 1.75,-3.5 -1.75,-3.5 z"
       style="fill:#000000;fill-opacity:1;fill-rule:nonzero;stroke:#000000;stroke-width:1;stroke-linecap:butt;stroke-linejoin:miter;stroke-miterlimit:10;stroke-dasharray:none;stroke-opacity:1"
       transform="matrix(0.95736425,0,0,0.95736425,0.47868212,0.47868212)"
       clip-path="url(#clipPath6)" />
    <path
       id="path7"
       d="M 1,1 H 111 V 31 H 1 Z"
       style="fill:#f5f5f5;fill-opacity:1;fill-rule:nonzero;stroke:#666666;stroke-width:1;stroke-linecap:butt;stroke-linejoin:miter;stroke-miterlimit:10;stroke-dasharray:none;stroke-opacity:1"
       transform="matrix(0.95736425,0,0,0.95736425,0.47868212,0.47868212)"
       clip-path="url(#clipPath8)" />
    <text
       id="text8"
       xml:space="preserve"
       transform="matrix(0.95737385,0,0,0.95737385,10.725579,20.104851)"
       clip-path="url(#clipPath9)"><tspan
         style="font-variant:normal;font-weight:700;font-size:13px;font-family:Helvetica;writing-mode:lr-tb;fill:#333333;fill-opacity:1;fill-rule:nonzero;stroke:none"
         x="0 10.111816 18.782715 26.723633 30.335449 33.947266 39.006348 46.236328 54.177246 62.118164 67.177246 71.506348 78.736328 82.348145"
         y="0"
         sodipodi:role="line"
         id="tspan8">GET /reports/3</tspan></text>
    <path
       id="path10"
       d="M 141,1 H 331 V 31 H 141 Z"
       style="fill:#f5f5f5;fill-opacity:1;fill-rule:nonzero;stroke:#666666;stroke-width:1;stroke-linecap:butt;stroke-linejoin:miter;stroke-miterlimit:10;stroke-dasharray:none;stroke-opacity:1"
       transform="matrix(0.95736425,0,0,0.95736425,0.47868212,0.47868212)"
       clip-path="url(#clipPath11)" />
    <text
       id="text11"
       xml:space="preserve"
       transform="matrix(0.95737385,0,0,0.95737385,159.89639,20.104851)"
       clip-path="url(#clipPath12)"><tspan
         style="font-variant:normal;font-weight:700;font-size:13px;font-family:Helvetica;writing-mode:lr-tb;fill:#333333;fill-opacity:1;fill-rule:nonzero;stroke:none"
         x="0 9.3881836 16.618164 24.559082 32.5 37.559082 41.888184 45.5 54.170898 62.111816 66.440918 70.052734 74.381836 81.611816 85.223633 88.835449 96.776367 104.00635 108.33545 115.56543 123.50635 130.73633"
         y="0"
         sodipodi:role="line"
         id="tspan11">Report Entity Instance</tspan></text>
    <path
       id="path13"
       d="m 231,49.75 13.63,0.03"
       style="fill:none;stroke:#000000;stroke-width:1;stroke-linecap:butt;stroke-linejoin:miter;stroke-miterlimit:10;stroke-dasharray:none;stroke-opacity:1"
       transform="matrix(0.95736425,0,0,0.95736425,0.47868212,0.47868212)"
       clip-path="url(#clipPath14)" />
    <path
       id="path15"
       d="m 249.88,49.799999 -7.01,3.48 1.76,-3.5 -1.74,-3.5 z"
       style="fill:#000000;fill-opacity:1;fill-rule:nonzero;stroke:#000000;stroke-width:1;stroke-linecap:butt;stroke-linejoin:miter;stroke-miterlimit:10;stroke-dasharray:none;stroke-opacity:1"
       transform="matrix(0.95736425,0,0,0.95736425,0.47868212,0.47868212)"
       clip-path="url(#clipPath16)" />
    <path
       id="path17"
       d="m 141,38.5 h 90 V 61 h -90 z"
       style="fill:#ffffff;fill-opacity:1;fill-rule:nonzero;stroke:#000000;stroke-width:1;stroke-linecap:butt;stroke-linejoin:miter;stroke-miterlimit:10;stroke-dasharray:none;stroke-opacity:1"
       transform="matrix(0.95736425,0,0,0.95736425,0.47868212,0.47868212)"
       clip-path="url(#clipPath18)" />
    <text
       id="text18"
       xml:space="preserve"
       transform="matrix(0.95737385,0,0,0.95737385,169.75435,52.655562)"
       clip-path="url(#clipPath19)"><tspan
         style="font-variant:normal;font-weight:normal;font-size:13px;font-family:Helvetica;writing-mode:lr-tb;fill:#000000;fill-opacity:1;fill-rule:nonzero;stroke:none"
         x="0 2.8881836 10.118164"
         y="0"
         sodipodi:role="line"
         id="tspan18">lng</tspan></text>
    <path
       id="path20"
       d="m 141,69 h 90 v 22.5 h -90 z"
       style="fill:#ffffff;fill-opacity:1;fill-rule:nonzero;stroke:#000000;stroke-width:1;stroke-linecap:butt;stroke-linejoin:miter;stroke-miterlimit:10;stroke-dasharray:none;stroke-opacity:1"
       transform="matrix(0.95736425,0,0,0.95736425,0.47868212,0.47868212)"
       clip-path="url(#clipPath21)" />
    <text
       id="text21"
       xml:space="preserve"
       transform="matrix(0.95737385,0,0,0.95737385,171.48959,81.376777)"
       clip-path="url(#clipPath22)"><tspan
         style="font-variant:normal;font-weight:normal;font-size:13px;font-family:Helvetica;writing-mode:lr-tb;fill:#000000;fill-opacity:1;fill-rule:nonzero;stroke:none"
         x="0 2.8881836 10.118164"
         y="0"
         sodipodi:role="line"
         id="tspan21">lat</tspan></text>
    <path
       id="path23"
       d="m 141,131 h 90 v 22.5 h -90 z"
       style="fill:#ffffff;fill-opacity:1;fill-rule:nonzero;stroke:#000000;stroke-width:1;stroke-linecap:butt;stroke-linejoin:miter;stroke-miterlimit:10;stroke-dasharray:none;stroke-opacity:1"
       transform="matrix(0.95736425,0,0,0.95736425,0.47868212,0.47868212)"
       clip-path="url(#clipPath24)" />
    <text
       id="text24"
       xml:space="preserve"
       transform="matrix(0.95737385,0,0,0.95737385,164.57855,140.73396)"
       clip-path="url(#clipPath25)"><tspan
         style="font-variant:normal;font-weight:normal;font-size:13px;font-family:Helvetica;writing-mode:lr-tb;fill:#000000;fill-opacity:1;fill-rule:nonzero;stroke:none"
         x="0 7.2299805 11.559082 14.447266 20.947266"
         y="0"
         sodipodi:role="line"
         id="tspan24">price</tspan></text>
    <path
       id="path26"
       d="m 141,100 h 90 v 22.5 h -90 z"
       style="fill:#ffffff;fill-opacity:1;fill-rule:nonzero;stroke:#000000;stroke-width:1;stroke-linecap:butt;stroke-linejoin:miter;stroke-miterlimit:10;stroke-dasharray:none;stroke-opacity:1"
       transform="matrix(0.95736425,0,0,0.95736425,0.47868212,0.47868212)"
       clip-path="url(#clipPath27)" />
    <text
       id="text27"
       xml:space="preserve"
       transform="matrix(0.95737385,0,0,0.95737385,172.88078,111.05537)"
       clip-path="url(#clipPath28)"><tspan
         style="font-variant:normal;font-weight:normal;font-size:13px;font-family:Helvetica;writing-mode:lr-tb;fill:#000000;fill-opacity:1;fill-rule:nonzero;stroke:none"
         x="0 3.6118164 7.2236328"
         y="0"
         sodipodi:role="line"
         id="tspan27">...</tspan></text>
    <path
       id="path29"
       d="m 251,38.5 h 80 V 61 h -80 z"
       style="fill:#ffffff;fill-opacity:1;fill-rule:nonzero;stroke:#000000;stroke-width:1;stroke-linecap:butt;stroke-linejoin:miter;stroke-miterlimit:10;stroke-dasharray:none;stroke-opacity:1"
       transform="matrix(0.95736425,0,0,0.95736425,0.47868212,0.47868212)"
       clip-path="url(#clipPath30)" />
    <text
       id="text30"
       xml:space="preserve"
       transform="matrix(0.95737385,0,0,0.95737385,271.66979,52.655562)"
       clip-path="url(#clipPath31)"><tspan
         style="font-variant:normal;font-weight:normal;font-size:13px;font-family:Helvetica;writing-mode:lr-tb;fill:#000000;fill-opacity:1;fill-rule:nonzero;stroke:none"
         x="0 7.2299805"
         y="0"
         sodipodi:role="line"
         id="tspan30">45</tspan></text>
    <path
       id="path32"
       d="m 231,80.25 14.63,0.379997"
       style="fill:none;stroke:#000000;stroke-width:1;stroke-linecap:butt;stroke-linejoin:miter;stroke-miterlimit:10;stroke-dasharray:none;stroke-opacity:1"
       transform="matrix(0.95736425,0,0,0.95736425,0.47868212,0.47868212)"
       clip-path="url(#clipPath33)" />
    <path
       id="path34"
       d="m 250.88,80.769997 -7.09001,3.319999 1.84001,-3.459999 -1.65,-3.540001 z"
       style="fill:#000000;fill-opacity:1;fill-rule:nonzero;stroke:#000000;stroke-width:1;stroke-linecap:butt;stroke-linejoin:miter;stroke-miterlimit:10;stroke-dasharray:none;stroke-opacity:1"
       transform="matrix(0.95736425,0,0,0.95736425,0.47868212,0.47868212)"
       clip-path="url(#clipPath35)" />
    <path
       id="path36"
       d="m 251,69 h 80 v 22.5 h -80 z"
       style="fill:#ffffff;fill-opacity:1;fill-rule:nonzero;stroke:#000000;stroke-width:1;stroke-linecap:butt;stroke-linejoin:miter;stroke-miterlimit:10;stroke-dasharray:none;stroke-opacity:1"
       transform="matrix(0.95736425,0,0,0.95736425,0.47868212,0.47868212)"
       clip-path="url(#clipPath37)" />
    <text
       id="text37"
       xml:space="preserve"
       transform="matrix(0.95737385,0,0,0.95737385,271.66979,81.376777)"
       clip-path="url(#clipPath38)"><tspan
         style="font-variant:normal;font-weight:normal;font-size:13px;font-family:Helvetica;writing-mode:lr-tb;fill:#000000;fill-opacity:1;fill-rule:nonzero;stroke:none"
         x="0 7.2299805"
         y="0"
         sodipodi:role="line"
         id="tspan37">45</tspan></text>
    <path
       id="path39"
       d="m 231,111.25 14.63,0.38"
       style="fill:none;stroke:#000000;stroke-width:1;stroke-linecap:butt;stroke-linejoin:miter;stroke-miterlimit:10;stroke-dasharray:none;stroke-opacity:1"
       transform="matrix(0.95736425,0,0,0.95736425,0.47868212,0.47868212)"
       clip-path="url(#clipPath40)" />
    <path
       id="path41"
       d="m 250.88,111.77 -7.09001,3.32 1.84001,-3.46 -1.65,-3.54 z"
       style="fill:#000000;fill-opacity:1;fill-rule:nonzero;stroke:#000000;stroke-width:1;stroke-linecap:butt;stroke-linejoin:miter;stroke-miterlimit:10;stroke-dasharray:none;stroke-opacity:1"
       transform="matrix(0.95736425,0,0,0.95736425,0.47868212,0.47868212)"
       clip-path="url(#clipPath42)" />
    <path
       id="path43"
       d="m 251,100 h 80 v 22.5 h -80 z"
       style="fill:#ffffff;fill-opacity:1;fill-rule:nonzero;stroke:#000000;stroke-width:1;stroke-linecap:butt;stroke-linejoin:miter;stroke-miterlimit:10;stroke-dasharray:none;stroke-opacity:1"
       transform="matrix(0.95736425,0,0,0.95736425,0.47868212,0.47868212)"
       clip-path="url(#clipPath44)" />
    <text
       id="text44"
       xml:space="preserve"
       transform="matrix(0.95737385,0,0,0.95737385,271.66979,111.05537)"
       clip-path="url(#clipPath45)"><tspan
         style="font-variant:normal;font-weight:normal;font-size:13px;font-family:Helvetica;writing-mode:lr-tb;fill:#000000;fill-opacity:1;fill-rule:nonzero;stroke:none"
         x="0 3.6118164 7.2236328 10.835449"
         y="0"
         sodipodi:role="line"
         id="tspan44">....</tspan></text>
    <path
       id="path46"
       d="m 231,142.25 14.63,0.38"
       style="fill:none;stroke:#000000;stroke-width:1;stroke-linecap:butt;stroke-linejoin:miter;stroke-miterlimit:10;stroke-dasharray:none;stroke-opacity:1"
       transform="matrix(0.95736425,0,0,0.95736425,0.47868212,0.47868212)"
       clip-path="url(#clipPath47)" />
    <path
       id="path48"
       d="m 250.88,142.77 -7.09001,3.32 1.84001,-3.46 -1.65,-3.54 z"
       style="fill:#000000;fill-opacity:1;fill-rule:nonzero;stroke:#000000;stroke-width:1;stroke-linecap:butt;stroke-linejoin:miter;stroke-miterlimit:10;stroke-dasharray:none;stroke-opacity:1"
       transform="matrix(0.95736425,0,0,0.95736425,0.47868212,0.47868212)"
       clip-path="url(#clipPath49)" />
    <path
       id="path50"
       d="m 251,131 h 80 v 22.5 h -80 z"
       style="fill:#ffffff;fill-opacity:1;fill-rule:nonzero;stroke:#000000;stroke-width:1;stroke-linecap:butt;stroke-linejoin:miter;stroke-miterlimit:10;stroke-dasharray:none;stroke-opacity:1"
       transform="matrix(0.95736425,0,0,0.95736425,0.47868212,0.47868212)"
       clip-path="url(#clipPath51)" />
    <text
       id="text51"
       xml:space="preserve"
       transform="matrix(0.95737385,0,0,0.95737385,261.28827,140.73396)"
       clip-path="url(#clipPath52)"><tspan
         style="font-variant:normal;font-weight:normal;font-size:13px;font-family:Helvetica;writing-mode:lr-tb;fill:#000000;fill-opacity:1;fill-rule:nonzero;stroke:none"
         x="0 7.2299805 14.459961 21.689941 28.919922"
         y="0"
         sodipodi:role="line"
         id="tspan51">50000</tspan></text>
    <path
       id="path53"
       d="m 141,161 h 90 v 22.5 h -90 z"
       style="fill:#ffffff;fill-opacity:1;fill-rule:nonzero;stroke:#000000;stroke-width:1;stroke-linecap:butt;stroke-linejoin:miter;stroke-miterlimit:10;stroke-dasharray:none;stroke-opacity:1"
       transform="matrix(0.95736425,0,0,0.95736425,0.47868212,0.47868212)"
       clip-path="url(#clipPath54)" />
    <text
       id="text54"
       xml:space="preserve"
       transform="matrix(0.95737385,0,0,0.95737385,165.95477,169.45517)"
       clip-path="url(#clipPath55)"><tspan
         style="font-variant:normal;font-weight:normal;font-size:13px;font-family:Helvetica;writing-mode:lr-tb;fill:#000000;fill-opacity:1;fill-rule:nonzero;stroke:none"
         x="0 7.2299805 13.72998 20.959961"
         y="0"
         sodipodi:role="line"
         id="tspan54">user</tspan></text>
    <path
       id="path56"
       d="m 231,172.25 13.63,0.01"
       style="fill:none;stroke:#000000;stroke-width:1;stroke-linecap:butt;stroke-linejoin:miter;stroke-miterlimit:10;stroke-dasharray:none;stroke-opacity:1"
       transform="matrix(0.95736425,0,0,0.95736425,0.47868212,0.47868212)"
       clip-path="url(#clipPath57)" />
    <path
       id="path58"
       d="m 249.88,172.27 -7,3.48999 1.75,-3.5 -1.74,-3.5 z"
       style="fill:#000000;fill-opacity:1;fill-rule:nonzero;stroke:#000000;stroke-width:1;stroke-linecap:butt;stroke-linejoin:miter;stroke-miterlimit:10;stroke-dasharray:none;stroke-opacity:1"
       transform="matrix(0.95736425,0,0,0.95736425,0.47868212,0.47868212)"
       clip-path="url(#clipPath59)" />
    <path
       id="path60"
       d="m 251,161 h 90 v 22.5 h -90 z"
       style="fill:#ffffff;fill-opacity:1;fill-rule:nonzero;stroke:#000000;stroke-width:1;stroke-linecap:butt;stroke-linejoin:miter;stroke-miterlimit:10;stroke-dasharray:none;stroke-opacity:1"
       transform="matrix(0.95736425,0,0,0.95736425,0.47868212,0.47868212)"
       clip-path="url(#clipPath61)" />
    <text
       id="text61"
       xml:space="preserve"
       transform="matrix(0.95737385,0,0,0.95737385,267.81038,169.45517)"
       clip-path="url(#clipPath62)"><tspan
         style="font-variant:normal;font-weight:normal;font-size:13px;font-family:Helvetica;writing-mode:lr-tb;fill:#000000;fill-opacity:1;fill-rule:nonzero;stroke:none"
         x="0 4.3417969 7.9536133 10.841797 18.071777 21.683594 25.29541"
         y="0"
         sodipodi:role="line"
         id="tspan61">{ id: 1</tspan></text>
  </g>
</svg>
