<?xml version="1.0" encoding="UTF-8" standalone="no"?>
<!-- Created with Inkscape (http://www.inkscape.org/) -->

<svg
   version="1.1"
   id="svg1"
   width="366.72"
   height="172.15999"
   viewBox="0 0 366.72 172.15999"
   sodipodi:docname="nest-15.pdf"
   xmlns:inkscape="http://www.inkscape.org/namespaces/inkscape"
   xmlns:sodipodi="http://sodipodi.sourceforge.net/DTD/sodipodi-0.dtd"
   xmlns="http://www.w3.org/2000/svg"
   xmlns:svg="http://www.w3.org/2000/svg">
  <defs
     id="defs1">
    <clipPath
       clipPathUnits="userSpaceOnUse"
       id="clipPath2">
      <path
         d="M 0,0 H 1145.8333 V 537.10938 H 0 Z"
         transform="scale(0.33512729)"
         clip-rule="evenodd"
         id="path2" />
    </clipPath>
    <clipPath
       clipPathUnits="userSpaceOnUse"
       id="clipPath4">
      <path
         d="M 0,0 H 1145.8333 V 534.12543 H 0 Z"
         transform="matrix(0.33512729,0,0,0.33512729,-0.5,-0.5)"
         clip-rule="evenodd"
         id="path4" />
    </clipPath>
    <clipPath
       clipPathUnits="userSpaceOnUse"
       id="clipPath5">
      <path
         d="M 0,0 H 1145.8333 V 534.12543 H 0 Z"
         transform="matrix(0.33512395,0,0,0.33512395,-49.3125,-29)"
         clip-rule="evenodd"
         id="path5" />
    </clipPath>
    <clipPath
       clipPathUnits="userSpaceOnUse"
       id="clipPath7">
      <path
         d="M 0,0 H 1145.8333 V 534.12543 H 0 Z"
         transform="matrix(0.33512729,0,0,0.33512729,-0.5,-0.5)"
         clip-rule="evenodd"
         id="path7" />
    </clipPath>
    <clipPath
       clipPathUnits="userSpaceOnUse"
       id="clipPath8">
      <path
         d="M 0,0 H 1145.8333 V 534.12543 H 0 Z"
         transform="matrix(0.33512395,0,0,0.33512395,-267.32813,-54)"
         clip-rule="evenodd"
         id="path8" />
    </clipPath>
    <clipPath
       clipPathUnits="userSpaceOnUse"
       id="clipPath10">
      <path
         d="M 0,0 H 1145.8333 V 534.12543 H 0 Z"
         transform="matrix(0.33512729,0,0,0.33512729,-0.5,-0.5)"
         clip-rule="evenodd"
         id="path10" />
    </clipPath>
    <clipPath
       clipPathUnits="userSpaceOnUse"
       id="clipPath12">
      <path
         d="M 0,0 H 1145.8333 V 534.12543 H 0 Z"
         transform="matrix(0.33512729,0,0,0.33512729,-0.5,-0.5)"
         clip-rule="evenodd"
         id="path12" />
    </clipPath>
    <clipPath
       clipPathUnits="userSpaceOnUse"
       id="clipPath14">
      <path
         d="M 0,0 H 1145.8333 V 534.12543 H 0 Z"
         transform="matrix(0.33512729,0,0,0.33512729,-0.5,-0.5)"
         clip-rule="evenodd"
         id="path14" />
    </clipPath>
    <clipPath
       clipPathUnits="userSpaceOnUse"
       id="clipPath15">
      <path
         d="M 0,0 H 1145.8333 V 534.12543 H 0 Z"
         transform="matrix(0.33512395,0,0,0.33512395,-282.84375,-87)"
         clip-rule="evenodd"
         id="path15" />
    </clipPath>
    <clipPath
       clipPathUnits="userSpaceOnUse"
       id="clipPath17">
      <path
         d="M 0,0 H 1145.8333 V 534.12543 H 0 Z"
         transform="matrix(0.33512729,0,0,0.33512729,-0.5,-0.5)"
         clip-rule="evenodd"
         id="path17" />
    </clipPath>
    <clipPath
       clipPathUnits="userSpaceOnUse"
       id="clipPath19">
      <path
         d="M 0,0 H 1145.8333 V 534.12543 H 0 Z"
         transform="matrix(0.33512729,0,0,0.33512729,-0.5,-0.5)"
         clip-rule="evenodd"
         id="path19" />
    </clipPath>
    <clipPath
       clipPathUnits="userSpaceOnUse"
       id="clipPath21">
      <path
         d="M 0,0 H 1145.8333 V 534.12543 H 0 Z"
         transform="matrix(0.33512729,0,0,0.33512729,-0.5,-0.5)"
         clip-rule="evenodd"
         id="path21" />
    </clipPath>
    <clipPath
       clipPathUnits="userSpaceOnUse"
       id="clipPath22">
      <path
         d="M 0,0 H 1145.8333 V 534.12543 H 0 Z"
         transform="matrix(0.33512395,0,0,0.33512395,-272.4375,-117)"
         clip-rule="evenodd"
         id="path22" />
    </clipPath>
    <clipPath
       clipPathUnits="userSpaceOnUse"
       id="clipPath24">
      <path
         d="M 0,0 H 1145.8333 V 534.12543 H 0 Z"
         transform="matrix(0.33512729,0,0,0.33512729,-0.5,-0.5)"
         clip-rule="evenodd"
         id="path24" />
    </clipPath>
    <clipPath
       clipPathUnits="userSpaceOnUse"
       id="clipPath25">
      <path
         d="M 0,0 H 1145.8333 V 534.12543 H 0 Z"
         transform="matrix(0.33512395,0,0,0.33512395,-49.3125,-134)"
         clip-rule="evenodd"
         id="path25" />
    </clipPath>
    <clipPath
       clipPathUnits="userSpaceOnUse"
       id="clipPath27">
      <path
         d="M 0,0 H 1145.8333 V 534.12543 H 0 Z"
         transform="matrix(0.33512729,0,0,0.33512729,-0.5,-0.5)"
         clip-rule="evenodd"
         id="path27" />
    </clipPath>
    <clipPath
       clipPathUnits="userSpaceOnUse"
       id="clipPath28">
      <path
         d="M 0,0 H 1145.8333 V 534.12543 H 0 Z"
         transform="matrix(0.33512395,0,0,0.33512395,-17.875,-62)"
         clip-rule="evenodd"
         id="path28" />
    </clipPath>
    <clipPath
       clipPathUnits="userSpaceOnUse"
       id="clipPath30">
      <path
         d="M 0,0 H 1145.8333 V 534.12543 H 0 Z"
         transform="matrix(0.33512729,0,0,0.33512729,-0.5,-0.5)"
         clip-rule="evenodd"
         id="path30" />
    </clipPath>
    <clipPath
       clipPathUnits="userSpaceOnUse"
       id="clipPath31">
      <path
         d="M 0,0 H 1145.8333 V 534.12543 H 0 Z"
         transform="matrix(0.33512395,0,0,0.33512395,-10.78125,-167)"
         clip-rule="evenodd"
         id="path31" />
    </clipPath>
  </defs>
  <sodipodi:namedview
     id="namedview1"
     pagecolor="#ffffff"
     bordercolor="#000000"
     borderopacity="0.25"
     inkscape:showpageshadow="2"
     inkscape:pageopacity="0.0"
     inkscape:pagecheckerboard="0"
     inkscape:deskcolor="#d1d1d1">
    <inkscape:page
       x="0"
       y="0"
       inkscape:label="1"
       id="page1"
       width="366.72"
       height="172.15999"
       margin="0"
       bleed="0" />
  </sodipodi:namedview>
  <g
     id="g1"
     inkscape:groupmode="layer"
     inkscape:label="1">
    <path
       id="path1"
       d="M 0,0 H 384 V 180 H 0 Z"
       style="fill:#ffffff;fill-opacity:1;fill-rule:nonzero;stroke:none"
       transform="scale(0.95486102)"
       clip-path="url(#clipPath2)" />
    <path
       id="path3"
       d="M 1,1 H 151 V 41 H 1 Z"
       style="fill:#dae8fc;fill-opacity:1;fill-rule:nonzero;stroke:#6c8ebf;stroke-width:1;stroke-linecap:butt;stroke-linejoin:miter;stroke-miterlimit:10;stroke-dasharray:none;stroke-opacity:1"
       transform="matrix(0.95486102,0,0,0.95486102,0.47743051,0.47743051)"
       clip-path="url(#clipPath4)" />
    <text
       id="text4"
       xml:space="preserve"
       transform="matrix(0.95487055,0,0,0.95487055,47.087054,27.691246)"
       clip-path="url(#clipPath5)"><tspan
         style="font-variant:normal;font-weight:700;font-size:24px;font-family:Helvetica;writing-mode:lr-tb;fill:#000000;fill-opacity:1;fill-rule:nonzero;stroke:none"
         x="0 17.332031 30.679688 44.027344"
         y="0"
         sodipodi:role="line"
         id="tspan4">User</tspan></text>
    <path
       id="path6"
       d="M 231,26 H 381 V 66 H 231 Z"
       style="fill:#dae8fc;fill-opacity:1;fill-rule:nonzero;stroke:#6c8ebf;stroke-width:1;stroke-linecap:butt;stroke-linejoin:miter;stroke-miterlimit:10;stroke-dasharray:none;stroke-opacity:1"
       transform="matrix(0.95486102,0,0,0.95486102,0.47743051,0.47743051)"
       clip-path="url(#clipPath7)" />
    <text
       id="text7"
       xml:space="preserve"
       transform="matrix(0.95487055,0,0,0.95487055,255.26376,51.56301)"
       clip-path="url(#clipPath8)"><tspan
         style="font-variant:normal;font-weight:700;font-size:24px;font-family:Helvetica;writing-mode:lr-tb;fill:#000000;fill-opacity:1;fill-rule:nonzero;stroke:none"
         x="0 17.332031 30.679688 45.339844 60 69.339844"
         y="0"
         sodipodi:role="line"
         id="tspan7">Report</tspan></text>
    <path
       id="path9"
       d="M 231,81 H 191 V 21 h -33.63001"
       style="fill:none;stroke:#000000;stroke-width:1;stroke-linecap:butt;stroke-linejoin:miter;stroke-miterlimit:10;stroke-dasharray:none;stroke-opacity:1"
       transform="matrix(0.95486102,0,0,0.95486102,0.47743051,0.47743051)"
       clip-path="url(#clipPath10)" />
    <path
       id="path11"
       d="m 152.11999,21 7,-3.5 -1.75,3.5 1.75,3.5 z"
       style="fill:#000000;fill-opacity:1;fill-rule:nonzero;stroke:#000000;stroke-width:1;stroke-linecap:butt;stroke-linejoin:miter;stroke-miterlimit:10;stroke-dasharray:none;stroke-opacity:1"
       transform="matrix(0.95486102,0,0,0.95486102,0.47743051,0.47743051)"
       clip-path="url(#clipPath12)" />
    <path
       id="path13"
       d="M 231,66 H 381 V 96 H 231 Z"
       style="fill:#dae8fc;fill-opacity:1;fill-rule:nonzero;stroke:#6c8ebf;stroke-width:1;stroke-linecap:butt;stroke-linejoin:miter;stroke-miterlimit:10;stroke-dasharray:none;stroke-opacity:1"
       transform="matrix(0.95486102,0,0,0.95486102,0.47743051,0.47743051)"
       clip-path="url(#clipPath14)" />
    <text
       id="text14"
       xml:space="preserve"
       transform="matrix(0.95487055,0,0,0.95487055,270.07917,83.073738)"
       clip-path="url(#clipPath15)"><tspan
         style="font-style:oblique;font-variant:normal;font-weight:normal;font-size:17px;font-family:Helvetica;writing-mode:lr-tb;fill:#000000;fill-opacity:1;fill-rule:nonzero;stroke:none"
         x="0 9.4545898 21.731445 31.186035 40.640625"
         y="0"
         sodipodi:role="line"
         id="tspan14">owner</tspan></text>
    <path
       id="path16"
       d="m 231,111 h -40 v 15 h -33.63001"
       style="fill:none;stroke:#000000;stroke-width:1;stroke-linecap:butt;stroke-linejoin:miter;stroke-miterlimit:10;stroke-dasharray:none;stroke-opacity:1"
       transform="matrix(0.95486102,0,0,0.95486102,0.47743051,0.47743051)"
       clip-path="url(#clipPath17)" />
    <path
       id="path18"
       d="m 152.11999,126 7,-3.5 -1.75,3.5 1.75,3.5 z"
       style="fill:#000000;fill-opacity:1;fill-rule:nonzero;stroke:#000000;stroke-width:1;stroke-linecap:butt;stroke-linejoin:miter;stroke-miterlimit:10;stroke-dasharray:none;stroke-opacity:1"
       transform="matrix(0.95486102,0,0,0.95486102,0.47743051,0.47743051)"
       clip-path="url(#clipPath19)" />
    <path
       id="path20"
       d="m 231,96 h 150 v 30 H 231 Z"
       style="fill:#dae8fc;fill-opacity:1;fill-rule:nonzero;stroke:#6c8ebf;stroke-width:1;stroke-linecap:butt;stroke-linejoin:miter;stroke-miterlimit:10;stroke-dasharray:none;stroke-opacity:1"
       transform="matrix(0.95486102,0,0,0.95486102,0.47743051,0.47743051)"
       clip-path="url(#clipPath21)" />
    <text
       id="text21"
       xml:space="preserve"
       transform="matrix(0.95487055,0,0,0.95487055,260.14255,111.71985)"
       clip-path="url(#clipPath22)"><tspan
         style="font-style:oblique;font-variant:normal;font-weight:normal;font-size:17px;font-family:Helvetica;writing-mode:lr-tb;fill:#000000;fill-opacity:1;fill-rule:nonzero;stroke:none"
         x="0 9.4545898 18.90918 28.36377 34.024902 43.479492 51.979492 61.434082"
         y="0"
         sodipodi:role="line"
         id="tspan21">approver</tspan></text>
    <path
       id="path23"
       d="m 1,106 h 150 v 40 H 1 Z"
       style="fill:#dae8fc;fill-opacity:1;fill-rule:nonzero;stroke:#6c8ebf;stroke-width:1;stroke-linecap:butt;stroke-linejoin:miter;stroke-miterlimit:10;stroke-dasharray:none;stroke-opacity:1"
       transform="matrix(0.95486102,0,0,0.95486102,0.47743051,0.47743051)"
       clip-path="url(#clipPath24)" />
    <text
       id="text24"
       xml:space="preserve"
       transform="matrix(0.95487055,0,0,0.95487055,47.087054,127.95265)"
       clip-path="url(#clipPath25)"><tspan
         style="font-variant:normal;font-weight:700;font-size:24px;font-family:Helvetica;writing-mode:lr-tb;fill:#000000;fill-opacity:1;fill-rule:nonzero;stroke:none"
         x="0 17.332031 30.679688 44.027344"
         y="0"
         sodipodi:role="line"
         id="tspan24">User</tspan></text>
    <path
       id="path26"
       d="M 1,41 H 151 V 71 H 1 Z"
       style="fill:#dae8fc;fill-opacity:1;fill-rule:nonzero;stroke:#6c8ebf;stroke-width:1;stroke-linecap:butt;stroke-linejoin:miter;stroke-miterlimit:10;stroke-dasharray:none;stroke-opacity:1"
       transform="matrix(0.95486102,0,0,0.95486102,0.47743051,0.47743051)"
       clip-path="url(#clipPath27)" />
    <text
       id="text27"
       xml:space="preserve"
       transform="matrix(0.95487055,0,0,0.95487055,17.068311,59.201974)"
       clip-path="url(#clipPath28)"><tspan
         style="font-style:oblique;font-variant:normal;font-weight:normal;font-size:17px;font-family:Helvetica;writing-mode:lr-tb;fill:#000000;fill-opacity:1;fill-rule:nonzero;stroke:none"
         x="0 8.5 14.161133 23.615723 33.070312 37.793457 47.248047 56.702637 68.979492 78.434082 87.888672 97.343262 103.00439 107.72754"
         y="0"
         sodipodi:role="line"
         id="tspan27">createdReports</tspan></text>
    <path
       id="path29"
       d="m 1,146 h 150 v 30 H 1 Z"
       style="fill:#dae8fc;fill-opacity:1;fill-rule:nonzero;stroke:#6c8ebf;stroke-width:1;stroke-linecap:butt;stroke-linejoin:miter;stroke-miterlimit:10;stroke-dasharray:none;stroke-opacity:1"
       transform="matrix(0.95486102,0,0,0.95486102,0.47743051,0.47743051)"
       clip-path="url(#clipPath30)" />
    <text
       id="text30"
       xml:space="preserve"
       transform="matrix(0.95487055,0,0,0.95487055,10.294698,159.46338)"
       clip-path="url(#clipPath31)"><tspan
         style="font-style:oblique;font-variant:normal;font-weight:normal;font-size:17px;font-family:Helvetica;writing-mode:lr-tb;fill:#000000;fill-opacity:1;fill-rule:nonzero;stroke:none"
         x="0 9.4545898 18.90918 28.36377 34.024902 43.479492 51.979492 61.434082 70.888672 83.165527 92.620117 102.07471 111.5293 117.19043 121.91357"
         y="0"
         sodipodi:role="line"
         id="tspan30">approvedReports</tspan></text>
  </g>
</svg>
