<?xml version="1.0" encoding="UTF-8" standalone="no"?>
<!-- Created with Inkscape (http://www.inkscape.org/) -->

<svg
   version="1.1"
   id="svg1"
   width="456"
   height="274.56"
   viewBox="0 0 456 274.56"
   sodipodi:docname="nest-13.pdf"
   xmlns:inkscape="http://www.inkscape.org/namespaces/inkscape"
   xmlns:sodipodi="http://sodipodi.sourceforge.net/DTD/sodipodi-0.dtd"
   xmlns="http://www.w3.org/2000/svg"
   xmlns:svg="http://www.w3.org/2000/svg">
  <defs
     id="defs1">
    <clipPath
       clipPathUnits="userSpaceOnUse"
       id="clipPath2">
      <path
         d="M 0,0 H 1425 V 856.19745 H 0 Z"
         transform="scale(0.3340351)"
         clip-rule="evenodd"
         id="path2" />
    </clipPath>
    <clipPath
       clipPathUnits="userSpaceOnUse"
       id="clipPath4">
      <path
         d="M 0,0 H 1425 V 856.19745 H 0 Z"
         transform="matrix(0.3340351,0,0,0.3340351,-0.49999999,-0.49999999)"
         clip-rule="evenodd"
         id="path4" />
    </clipPath>
    <clipPath
       clipPathUnits="userSpaceOnUse"
       id="clipPath5">
      <path
         d="M 0,0 H 1425 V 856.19745 H 0 Z"
         transform="matrix(0.33403175,0,0,0.33403175,-39.875,-149)"
         clip-rule="evenodd"
         id="path5" />
    </clipPath>
    <clipPath
       clipPathUnits="userSpaceOnUse"
       id="clipPath7">
      <path
         d="M 0,0 H 1425 V 856.19745 H 0 Z"
         transform="matrix(0.3340351,0,0,0.3340351,-0.49999999,-0.49999999)"
         clip-rule="evenodd"
         id="path7" />
    </clipPath>
    <clipPath
       clipPathUnits="userSpaceOnUse"
       id="clipPath8">
      <path
         d="M 0,0 H 1425 V 856.19745 H 0 Z"
         transform="matrix(0.33403175,0,0,0.33403175,-383.375,-79)"
         clip-rule="evenodd"
         id="path8" />
    </clipPath>
    <clipPath
       clipPathUnits="userSpaceOnUse"
       id="clipPath10">
      <path
         d="M 0,0 H 1425 V 856.19745 H 0 Z"
         transform="matrix(0.3340351,0,0,0.3340351,-0.49999999,-0.49999999)"
         clip-rule="evenodd"
         id="path10" />
    </clipPath>
    <clipPath
       clipPathUnits="userSpaceOnUse"
       id="clipPath11">
      <path
         d="M 0,0 H 1425 V 856.19745 H 0 Z"
         transform="matrix(0.33403175,0,0,0.33403175,-383.375,-149)"
         clip-rule="evenodd"
         id="path11" />
    </clipPath>
    <clipPath
       clipPathUnits="userSpaceOnUse"
       id="clipPath13">
      <path
         d="M 0,0 H 1425 V 856.19745 H 0 Z"
         transform="matrix(0.3340351,0,0,0.3340351,-0.49999999,-0.49999999)"
         clip-rule="evenodd"
         id="path13" />
    </clipPath>
    <clipPath
       clipPathUnits="userSpaceOnUse"
       id="clipPath14">
      <path
         d="M 0,0 H 1425 V 856.19745 H 0 Z"
         transform="matrix(0.33403175,0,0,0.33403175,-383.375,-219)"
         clip-rule="evenodd"
         id="path14" />
    </clipPath>
    <clipPath
       clipPathUnits="userSpaceOnUse"
       id="clipPath16">
      <path
         d="M 0,0 H 1425 V 856.19745 H 0 Z"
         transform="matrix(0.3340351,0,0,0.3340351,-0.49999999,-0.49999999)"
         clip-rule="evenodd"
         id="path16" />
    </clipPath>
    <clipPath
       clipPathUnits="userSpaceOnUse"
       id="clipPath18">
      <path
         d="M 0,0 H 1425 V 856.19745 H 0 Z"
         transform="matrix(0.3340351,0,0,0.3340351,-0.49999999,-0.49999999)"
         clip-rule="evenodd"
         id="path18" />
    </clipPath>
    <clipPath
       clipPathUnits="userSpaceOnUse"
       id="clipPath20">
      <path
         d="M 0,0 H 1425 V 856.19745 H 0 Z"
         transform="matrix(0.3340351,0,0,0.3340351,-0.49999999,-0.49999999)"
         clip-rule="evenodd"
         id="path20" />
    </clipPath>
    <clipPath
       clipPathUnits="userSpaceOnUse"
       id="clipPath21">
      <path
         d="M 0,0 H 1425 V 856.19745 H 0 Z"
         transform="matrix(0.33403175,0,0,0.33403175,-130.25,-19)"
         clip-rule="evenodd"
         id="path21" />
    </clipPath>
    <clipPath
       clipPathUnits="userSpaceOnUse"
       id="clipPath23">
      <path
         d="M 0,0 H 1425 V 856.19745 H 0 Z"
         transform="matrix(0.3340351,0,0,0.3340351,-0.49999999,-0.49999999)"
         clip-rule="evenodd"
         id="path23" />
    </clipPath>
    <clipPath
       clipPathUnits="userSpaceOnUse"
       id="clipPath25">
      <path
         d="M 0,0 H 1425 V 856.19745 H 0 Z"
         transform="matrix(0.3340351,0,0,0.3340351,-0.49999999,-0.49999999)"
         clip-rule="evenodd"
         id="path25" />
    </clipPath>
    <clipPath
       clipPathUnits="userSpaceOnUse"
       id="clipPath26">
      <path
         d="M 0,0 H 1425 V 856.19745 H 0 Z"
         transform="matrix(0.33403175,0,0,0.33403175,-130.375,-279)"
         clip-rule="evenodd"
         id="path26" />
    </clipPath>
    <clipPath
       clipPathUnits="userSpaceOnUse"
       id="clipPath28">
      <path
         d="M 0,0 H 1425 V 856.19745 H 0 Z"
         transform="matrix(0.3340351,0,0,0.3340351,-0.49999999,-0.49999999)"
         clip-rule="evenodd"
         id="path28" />
    </clipPath>
    <clipPath
       clipPathUnits="userSpaceOnUse"
       id="clipPath29">
      <path
         d="M 0,0 H 1425 V 856.19745 H 0 Z"
         transform="matrix(0.33403175,0,0,0.33403175,-133.25,-147)"
         clip-rule="evenodd"
         id="path29" />
    </clipPath>
    <clipPath
       clipPathUnits="userSpaceOnUse"
       id="clipPath31">
      <path
         d="M 0,0 H 1425 V 856.19745 H 0 Z"
         transform="matrix(0.3340351,0,0,0.3340351,-0.49999999,-0.49999999)"
         clip-rule="evenodd"
         id="path31" />
    </clipPath>
    <clipPath
       clipPathUnits="userSpaceOnUse"
       id="clipPath32">
      <path
         d="M 0,0 H 1425 V 856.19745 H 0 Z"
         transform="matrix(0.33403175,0,0,0.33403175,-276.25,-77)"
         clip-rule="evenodd"
         id="path32" />
    </clipPath>
    <clipPath
       clipPathUnits="userSpaceOnUse"
       id="clipPath34">
      <path
         d="M 0,0 H 1425 V 856.19745 H 0 Z"
         transform="matrix(0.3340351,0,0,0.3340351,-0.49999999,-0.49999999)"
         clip-rule="evenodd"
         id="path34" />
    </clipPath>
    <clipPath
       clipPathUnits="userSpaceOnUse"
       id="clipPath35">
      <path
         d="M 0,0 H 1425 V 856.19745 H 0 Z"
         transform="matrix(0.33403175,0,0,0.33403175,-276.25,-147)"
         clip-rule="evenodd"
         id="path35" />
    </clipPath>
    <clipPath
       clipPathUnits="userSpaceOnUse"
       id="clipPath37">
      <path
         d="M 0,0 H 1425 V 856.19745 H 0 Z"
         transform="matrix(0.3340351,0,0,0.3340351,-0.49999999,-0.49999999)"
         clip-rule="evenodd"
         id="path37" />
    </clipPath>
    <clipPath
       clipPathUnits="userSpaceOnUse"
       id="clipPath38">
      <path
         d="M 0,0 H 1425 V 856.19745 H 0 Z"
         transform="matrix(0.33403175,0,0,0.33403175,-276.25,-217)"
         clip-rule="evenodd"
         id="path38" />
    </clipPath>
  </defs>
  <sodipodi:namedview
     id="namedview1"
     pagecolor="#ffffff"
     bordercolor="#000000"
     borderopacity="0.25"
     inkscape:showpageshadow="2"
     inkscape:pageopacity="0.0"
     inkscape:pagecheckerboard="0"
     inkscape:deskcolor="#d1d1d1">
    <inkscape:page
       x="0"
       y="0"
       inkscape:label="1"
       id="page1"
       width="456"
       height="274.56"
       margin="0"
       bleed="0" />
  </sodipodi:namedview>
  <g
     id="g1"
     inkscape:groupmode="layer"
     inkscape:label="1">
    <path
       id="path1"
       d="M 0,0 H 476 V 286 H 0 Z"
       style="fill:#ffffff;fill-opacity:1;fill-rule:nonzero;stroke:none"
       transform="scale(0.95798313)"
       clip-path="url(#clipPath2)" />
    <path
       id="path3"
       d="m 1,112 h 120 v 60 H 1 Z"
       style="fill:#dae8fc;fill-opacity:1;fill-rule:nonzero;stroke:#6c8ebf;stroke-width:1;stroke-linecap:butt;stroke-linejoin:miter;stroke-miterlimit:10;stroke-dasharray:none;stroke-opacity:1"
       transform="matrix(0.95798313,0,0,0.95798313,0.47899156,0.47899156)"
       clip-path="url(#clipPath4)" />
    <text
       id="text4"
       xml:space="preserve"
       transform="matrix(0.95799273,0,0,0.95799273,38.19996,142.74092)"
       clip-path="url(#clipPath5)"><tspan
         style="font-variant:normal;font-weight:700;font-size:19px;font-family:Helvetica;writing-mode:lr-tb;fill:#000000;fill-opacity:1;fill-rule:nonzero;stroke:none"
         x="0 13.721191 24.288086 34.85498"
         y="0"
         sodipodi:role="line"
         id="tspan4">User</tspan></text>
    <path
       id="path6"
       d="m 353.5,42 h 120 v 60 h -120 z"
       style="fill:#dae8fc;fill-opacity:1;fill-rule:nonzero;stroke:#6c8ebf;stroke-width:1;stroke-linecap:butt;stroke-linejoin:miter;stroke-miterlimit:10;stroke-dasharray:none;stroke-opacity:1"
       transform="matrix(0.95798313,0,0,0.95798313,0.47899156,0.47899156)"
       clip-path="url(#clipPath7)" />
    <text
       id="text7"
       xml:space="preserve"
       transform="matrix(0.95799273,0,0,0.95799273,367.27046,75.681426)"
       clip-path="url(#clipPath8)"><tspan
         style="font-variant:normal;font-weight:700;font-size:19px;font-family:Helvetica;writing-mode:lr-tb;fill:#000000;fill-opacity:1;fill-rule:nonzero;stroke:none"
         x="0 13.721191 24.288086 35.894043 47.5 54.894043"
         y="0"
         sodipodi:role="line"
         id="tspan7">Report</tspan></text>
    <path
       id="path9"
       d="m 353.5,112 h 120 v 60 h -120 z"
       style="fill:#dae8fc;fill-opacity:1;fill-rule:nonzero;stroke:#6c8ebf;stroke-width:1;stroke-linecap:butt;stroke-linejoin:miter;stroke-miterlimit:10;stroke-dasharray:none;stroke-opacity:1"
       transform="matrix(0.95798313,0,0,0.95798313,0.47899156,0.47899156)"
       clip-path="url(#clipPath10)" />
    <text
       id="text10"
       xml:space="preserve"
       transform="matrix(0.95799273,0,0,0.95799273,367.27046,142.74092)"
       clip-path="url(#clipPath11)"><tspan
         style="font-variant:normal;font-weight:700;font-size:19px;font-family:Helvetica;writing-mode:lr-tb;fill:#000000;fill-opacity:1;fill-rule:nonzero;stroke:none"
         x="0 13.721191 24.288086 35.894043 47.5 54.894043"
         y="0"
         sodipodi:role="line"
         id="tspan10">Report</tspan></text>
    <path
       id="path12"
       d="m 353.5,182 h 120 v 60 h -120 z"
       style="fill:#dae8fc;fill-opacity:1;fill-rule:nonzero;stroke:#6c8ebf;stroke-width:1;stroke-linecap:butt;stroke-linejoin:miter;stroke-miterlimit:10;stroke-dasharray:none;stroke-opacity:1"
       transform="matrix(0.95798313,0,0,0.95798313,0.47899156,0.47899156)"
       clip-path="url(#clipPath13)" />
    <text
       id="text13"
       xml:space="preserve"
       transform="matrix(0.95799273,0,0,0.95799273,367.27046,209.80041)"
       clip-path="url(#clipPath14)"><tspan
         style="font-variant:normal;font-weight:700;font-size:19px;font-family:Helvetica;writing-mode:lr-tb;fill:#000000;fill-opacity:1;fill-rule:nonzero;stroke:none"
         x="0 13.721191 24.288086 35.894043 47.5 54.894043"
         y="0"
         sodipodi:role="line"
         id="tspan13">Report</tspan></text>
    <path
       id="path15"
       d="m 261,42 h -25 c -6.66667,0 -10,3.333332 -10,10 v 80 c 0,6.66667 -3.33333,10 -10,10 h -15 c -6.66667,0 -6.66667,0 0,0 h 15 c 6.66667,0 10,3.33333 10,10 v 80 c 0,6.66667 3.33333,10 10,10 h 25"
       style="fill:none;stroke:#000000;stroke-width:1;stroke-linecap:butt;stroke-linejoin:miter;stroke-miterlimit:10;stroke-dasharray:none;stroke-opacity:1"
       transform="matrix(0.95798313,0,0,0.95798313,0.47899156,0.47899156)"
       clip-path="url(#clipPath16)" />
    <path
       id="path17"
       d="M 71,32 H 380.89999"
       style="fill:none;stroke:#000000;stroke-width:1;stroke-linecap:butt;stroke-linejoin:miter;stroke-miterlimit:10;stroke-dasharray:none;stroke-opacity:1"
       transform="matrix(0.95798313,0,0,0.95798313,0.47899156,0.47899156)"
       clip-path="url(#clipPath18)" />
    <path
       id="path19"
       d="m 387.64999,32 -9,4.5 2.25,-4.5 -2.25,-4.5 z"
       style="fill:#000000;fill-opacity:1;fill-rule:nonzero;stroke:#000000;stroke-width:1;stroke-linecap:butt;stroke-linejoin:miter;stroke-miterlimit:10;stroke-dasharray:none;stroke-opacity:1"
       transform="matrix(0.95798313,0,0,0.95798313,0.47899156,0.47899156)"
       clip-path="url(#clipPath20)" />
    <text
       id="text20"
       xml:space="preserve"
       transform="matrix(0.95799273,0,0,0.95799273,124.77855,18.201862)"
       clip-path="url(#clipPath21)"><tspan
         style="font-variant:normal;font-weight:normal;font-size:19px;font-family:Helvetica;writing-mode:lr-tb;fill:#000000;fill-opacity:1;fill-rule:nonzero;stroke:none"
         x="0 11.633789 16.912598 30.633789 40.133789 50.700684 57.027832 62.306641 72.873535 83.44043 92.94043 98.219238 114.04639 124.61328 135.18018 144.68018 149.95898 163.68018 174.24707 184.81396 195.38086 201.70801 206.98682"
         y="0"
         sodipodi:role="line"
         id="tspan20">A User has many Reports</tspan></text>
    <path
       id="path22"
       d="M 391,252 H 81.099998"
       style="fill:none;stroke:#000000;stroke-width:1;stroke-linecap:butt;stroke-linejoin:miter;stroke-miterlimit:10;stroke-dasharray:none;stroke-opacity:1"
       transform="matrix(0.95798313,0,0,0.95798313,0.47899156,0.47899156)"
       clip-path="url(#clipPath23)" />
    <path
       id="path24"
       d="m 74.349998,252 9,-4.5 -2.25,4.5 2.25,4.5 z"
       style="fill:#000000;fill-opacity:1;fill-rule:nonzero;stroke:#000000;stroke-width:1;stroke-linecap:butt;stroke-linejoin:miter;stroke-miterlimit:10;stroke-dasharray:none;stroke-opacity:1"
       transform="matrix(0.95798313,0,0,0.95798313,0.47899156,0.47899156)"
       clip-path="url(#clipPath25)" />
    <text
       id="text25"
       xml:space="preserve"
       transform="matrix(0.95799273,0,0,0.95799273,124.8983,267.27997)"
       clip-path="url(#clipPath26)"><tspan
         style="font-variant:normal;font-weight:normal;font-size:19px;font-family:Helvetica;writing-mode:lr-tb;fill:#000000;fill-opacity:1;fill-rule:nonzero;stroke:none"
         x="0 11.633789 16.912598 30.633789 41.200684 51.767578 62.334473 68.661621 73.94043 79.219238 89.786133 100.35303 109.85303 115.13184 125.69873 136.26562 146.83252 152.11133 165.83252 175.33252 185.89941"
         y="0"
         sodipodi:role="line"
         id="tspan25">A Report has one User</tspan></text>
    <path
       id="path27"
       d="m 131,127 h 80 v 30 h -80 z"
       style="fill:#f8cecc;fill-opacity:1;fill-rule:nonzero;stroke:#b85450;stroke-width:1;stroke-linecap:butt;stroke-linejoin:miter;stroke-miterlimit:10;stroke-dasharray:none;stroke-opacity:1"
       transform="matrix(0.95798313,0,0,0.95798313,0.47899156,0.47899156)"
       clip-path="url(#clipPath28)" />
    <text
       id="text28"
       xml:space="preserve"
       transform="matrix(0.95799273,0,0,0.95799273,127.65253,140.82493)"
       clip-path="url(#clipPath29)"><tspan
         style="font-variant:normal;font-weight:normal;font-size:14px;font-family:Helvetica;writing-mode:lr-tb;fill:#000000;fill-opacity:1;fill-rule:nonzero;stroke:none"
         x="0 10.889648 18.675781 26.461914 33.461914 41.248047 52.910156 60.696289 68.482422"
         y="0"
         sodipodi:role="line"
         id="tspan28">OneToMany</tspan></text>
    <path
       id="path30"
       d="m 273.5,57 h 80 v 30 h -80 z"
       style="fill:#fff2cc;fill-opacity:1;fill-rule:nonzero;stroke:#d6b656;stroke-width:1;stroke-linecap:butt;stroke-linejoin:miter;stroke-miterlimit:10;stroke-dasharray:none;stroke-opacity:1"
       transform="matrix(0.95798313,0,0,0.95798313,0.47899156,0.47899156)"
       clip-path="url(#clipPath31)" />
    <text
       id="text31"
       xml:space="preserve"
       transform="matrix(0.95799273,0,0,0.95799273,264.64549,73.76544)"
       clip-path="url(#clipPath32)"><tspan
         style="font-variant:normal;font-weight:normal;font-size:14px;font-family:Helvetica;writing-mode:lr-tb;fill:#000000;fill-opacity:1;fill-rule:nonzero;stroke:none"
         x="0 11.662109 19.448242 27.234375 34.234375 41.234375 49.020508 59.910156 67.696289"
         y="0"
         sodipodi:role="line"
         id="tspan31">ManyToOne</tspan></text>
    <path
       id="path33"
       d="m 273.5,127 h 80 v 30 h -80 z"
       style="fill:#fff2cc;fill-opacity:1;fill-rule:nonzero;stroke:#d6b656;stroke-width:1;stroke-linecap:butt;stroke-linejoin:miter;stroke-miterlimit:10;stroke-dasharray:none;stroke-opacity:1"
       transform="matrix(0.95798313,0,0,0.95798313,0.47899156,0.47899156)"
       clip-path="url(#clipPath34)" />
    <text
       id="text34"
       xml:space="preserve"
       transform="matrix(0.95799273,0,0,0.95799273,264.64549,140.82493)"
       clip-path="url(#clipPath35)"><tspan
         style="font-variant:normal;font-weight:normal;font-size:14px;font-family:Helvetica;writing-mode:lr-tb;fill:#000000;fill-opacity:1;fill-rule:nonzero;stroke:none"
         x="0 11.662109 19.448242 27.234375 34.234375 41.234375 49.020508 59.910156 67.696289"
         y="0"
         sodipodi:role="line"
         id="tspan34">ManyToOne</tspan></text>
    <path
       id="path36"
       d="m 273.5,197 h 80 v 30 h -80 z"
       style="fill:#fff2cc;fill-opacity:1;fill-rule:nonzero;stroke:#d6b656;stroke-width:1;stroke-linecap:butt;stroke-linejoin:miter;stroke-miterlimit:10;stroke-dasharray:none;stroke-opacity:1"
       transform="matrix(0.95798313,0,0,0.95798313,0.47899156,0.47899156)"
       clip-path="url(#clipPath37)" />
    <text
       id="text37"
       xml:space="preserve"
       transform="matrix(0.95799273,0,0,0.95799273,264.64549,207.88442)"
       clip-path="url(#clipPath38)"><tspan
         style="font-variant:normal;font-weight:normal;font-size:14px;font-family:Helvetica;writing-mode:lr-tb;fill:#000000;fill-opacity:1;fill-rule:nonzero;stroke:none"
         x="0 11.662109 19.448242 27.234375 34.234375 41.234375 49.020508 59.910156 67.696289"
         y="0"
         sodipodi:role="line"
         id="tspan37">ManyToOne</tspan></text>
  </g>
</svg>
