<?xml version="1.0" encoding="UTF-8" standalone="no"?>
<!-- Created with Inkscape (http://www.inkscape.org/) -->

<svg
   version="1.1"
   id="svg1"
   width="386.55997"
   height="234.56"
   viewBox="0 0 386.55997 234.56"
   sodipodi:docname="nest-9.pdf"
   xmlns:inkscape="http://www.inkscape.org/namespaces/inkscape"
   xmlns:sodipodi="http://sodipodi.sourceforge.net/DTD/sodipodi-0.dtd"
   xmlns="http://www.w3.org/2000/svg"
   xmlns:svg="http://www.w3.org/2000/svg">
  <defs
     id="defs1">
    <clipPath
       clipPathUnits="userSpaceOnUse"
       id="clipPath2">
      <path
         d="M 0,0 H 1208.3333 V 732.77637 H 0 Z"
         transform="scale(0.33434485)"
         clip-rule="evenodd"
         id="path2" />
    </clipPath>
    <clipPath
       clipPathUnits="userSpaceOnUse"
       id="clipPath4">
      <path
         d="M 0,0 H 1208.3333 V 729.7854 H 0 Z"
         transform="matrix(0.33434485,0,0,0.33434485,-0.49999999,-0.49999999)"
         clip-rule="evenodd"
         id="path4" />
    </clipPath>
    <clipPath
       clipPathUnits="userSpaceOnUse"
       id="clipPath5">
      <path
         d="M 0,0 H 1208.3333 V 729.7854 H 0 Z"
         transform="matrix(0.33434149,0,0,0.33434149,-75.609375,-28)"
         clip-rule="evenodd"
         id="path5" />
    </clipPath>
    <clipPath
       clipPathUnits="userSpaceOnUse"
       id="clipPath7">
      <path
         d="M 0,0 H 1208.3333 V 729.7854 H 0 Z"
         transform="matrix(0.33434485,0,0,0.33434485,-0.49999999,-0.49999999)"
         clip-rule="evenodd"
         id="path7" />
    </clipPath>
    <clipPath
       clipPathUnits="userSpaceOnUse"
       id="clipPath9">
      <path
         d="M 0,0 H 1208.3333 V 729.7854 H 0 Z"
         transform="matrix(0.33434485,0,0,0.33434485,-0.49999999,-0.49999999)"
         clip-rule="evenodd"
         id="path9" />
    </clipPath>
    <clipPath
       clipPathUnits="userSpaceOnUse"
       id="clipPath11">
      <path
         d="M 0,0 H 1208.3333 V 729.7854 H 0 Z"
         transform="matrix(0.33434485,0,0,0.33434485,-0.49999999,-0.49999999)"
         clip-rule="evenodd"
         id="path11" />
    </clipPath>
    <clipPath
       clipPathUnits="userSpaceOnUse"
       id="clipPath13">
      <path
         d="M 0,0 H 1208.3333 V 729.7854 H 0 Z"
         transform="matrix(0.33434485,0,0,0.33434485,-0.49999999,-0.49999999)"
         clip-rule="evenodd"
         id="path13" />
    </clipPath>
    <clipPath
       clipPathUnits="userSpaceOnUse"
       id="clipPath14">
      <path
         d="M 0,0 H 1208.3333 V 729.7854 H 0 Z"
         transform="matrix(0.33434149,0,0,0.33434149,-90.984375,-78)"
         clip-rule="evenodd"
         id="path14" />
    </clipPath>
    <clipPath
       clipPathUnits="userSpaceOnUse"
       id="clipPath16">
      <path
         d="M 0,0 H 1208.3333 V 729.7854 H 0 Z"
         transform="matrix(0.33434485,0,0,0.33434485,-0.49999999,-0.49999999)"
         clip-rule="evenodd"
         id="path16" />
    </clipPath>
    <clipPath
       clipPathUnits="userSpaceOnUse"
       id="clipPath17">
      <path
         d="M 0,0 H 1208.3333 V 729.7854 H 0 Z"
         transform="matrix(0.33434149,0,0,0.33434149,-234.85938,-78)"
         clip-rule="evenodd"
         id="path17" />
    </clipPath>
    <clipPath
       clipPathUnits="userSpaceOnUse"
       id="clipPath19">
      <path
         d="M 0,0 H 1208.3333 V 729.7854 H 0 Z"
         transform="matrix(0.33434485,0,0,0.33434485,-0.49999999,-0.49999999)"
         clip-rule="evenodd"
         id="path19" />
    </clipPath>
    <clipPath
       clipPathUnits="userSpaceOnUse"
       id="clipPath21">
      <path
         d="M 0,0 H 1208.3333 V 729.7854 H 0 Z"
         transform="matrix(0.33434485,0,0,0.33434485,-0.49999999,-0.49999999)"
         clip-rule="evenodd"
         id="path21" />
    </clipPath>
    <clipPath
       clipPathUnits="userSpaceOnUse"
       id="clipPath23">
      <path
         d="M 0,0 H 1208.3333 V 729.7854 H 0 Z"
         transform="matrix(0.33434485,0,0,0.33434485,-0.49999999,-0.49999999)"
         clip-rule="evenodd"
         id="path23" />
    </clipPath>
    <clipPath
       clipPathUnits="userSpaceOnUse"
       id="clipPath25">
      <path
         d="M 0,0 H 1208.3333 V 729.7854 H 0 Z"
         transform="matrix(0.33434485,0,0,0.33434485,-0.49999999,-0.49999999)"
         clip-rule="evenodd"
         id="path25" />
    </clipPath>
    <clipPath
       clipPathUnits="userSpaceOnUse"
       id="clipPath26">
      <path
         d="M 0,0 H 1208.3333 V 729.7854 H 0 Z"
         transform="matrix(0.33434149,0,0,0.33434149,-109.87499,-128)"
         clip-rule="evenodd"
         id="path26" />
    </clipPath>
    <clipPath
       clipPathUnits="userSpaceOnUse"
       id="clipPath28">
      <path
         d="M 0,0 H 1208.3333 V 729.7854 H 0 Z"
         transform="matrix(0.33434485,0,0,0.33434485,-0.49999999,-0.49999999)"
         clip-rule="evenodd"
         id="path28" />
    </clipPath>
    <clipPath
       clipPathUnits="userSpaceOnUse"
       id="clipPath29">
      <path
         d="M 0,0 H 1208.3333 V 729.7854 H 0 Z"
         transform="matrix(0.33434149,0,0,0.33434149,-234.85938,-128)"
         clip-rule="evenodd"
         id="path29" />
    </clipPath>
    <clipPath
       clipPathUnits="userSpaceOnUse"
       id="clipPath31">
      <path
         d="M 0,0 H 1208.3333 V 729.7854 H 0 Z"
         transform="matrix(0.33434485,0,0,0.33434485,-0.49999999,-0.49999999)"
         clip-rule="evenodd"
         id="path31" />
    </clipPath>
    <clipPath
       clipPathUnits="userSpaceOnUse"
       id="clipPath33">
      <path
         d="M 0,0 H 1208.3333 V 729.7854 H 0 Z"
         transform="matrix(0.33434485,0,0,0.33434485,-0.49999999,-0.49999999)"
         clip-rule="evenodd"
         id="path33" />
    </clipPath>
    <clipPath
       clipPathUnits="userSpaceOnUse"
       id="clipPath35">
      <path
         d="M 0,0 H 1208.3333 V 729.7854 H 0 Z"
         transform="matrix(0.33434485,0,0,0.33434485,-0.49999999,-0.49999999)"
         clip-rule="evenodd"
         id="path35" />
    </clipPath>
    <clipPath
       clipPathUnits="userSpaceOnUse"
       id="clipPath37">
      <path
         d="M 0,0 H 1208.3333 V 729.7854 H 0 Z"
         transform="matrix(0.33434485,0,0,0.33434485,-0.49999999,-0.49999999)"
         clip-rule="evenodd"
         id="path37" />
    </clipPath>
    <clipPath
       clipPathUnits="userSpaceOnUse"
       id="clipPath38">
      <path
         d="M 0,0 H 1208.3333 V 729.7854 H 0 Z"
         transform="matrix(0.33434149,0,0,0.33434149,-86.53125,-178)"
         clip-rule="evenodd"
         id="path38" />
    </clipPath>
    <clipPath
       clipPathUnits="userSpaceOnUse"
       id="clipPath40">
      <path
         d="M 0,0 H 1208.3333 V 729.7854 H 0 Z"
         transform="matrix(0.33434485,0,0,0.33434485,-0.49999999,-0.49999999)"
         clip-rule="evenodd"
         id="path40" />
    </clipPath>
    <clipPath
       clipPathUnits="userSpaceOnUse"
       id="clipPath41">
      <path
         d="M 0,0 H 1208.3333 V 729.7854 H 0 Z"
         transform="matrix(0.33434149,0,0,0.33434149,-234.3125,-178)"
         clip-rule="evenodd"
         id="path41" />
    </clipPath>
    <clipPath
       clipPathUnits="userSpaceOnUse"
       id="clipPath43">
      <path
         d="M 0,0 H 1208.3333 V 729.7854 H 0 Z"
         transform="matrix(0.33434485,0,0,0.33434485,-0.49999999,-0.49999999)"
         clip-rule="evenodd"
         id="path43" />
    </clipPath>
    <clipPath
       clipPathUnits="userSpaceOnUse"
       id="clipPath45">
      <path
         d="M 0,0 H 1208.3333 V 729.7854 H 0 Z"
         transform="matrix(0.33434485,0,0,0.33434485,-0.49999999,-0.49999999)"
         clip-rule="evenodd"
         id="path45" />
    </clipPath>
    <clipPath
       clipPathUnits="userSpaceOnUse"
       id="clipPath47">
      <path
         d="M 0,0 H 1208.3333 V 729.7854 H 0 Z"
         transform="matrix(0.33434485,0,0,0.33434485,-0.49999999,-0.49999999)"
         clip-rule="evenodd"
         id="path47" />
    </clipPath>
    <clipPath
       clipPathUnits="userSpaceOnUse"
       id="clipPath49">
      <path
         d="M 0,0 H 1208.3333 V 729.7854 H 0 Z"
         transform="matrix(0.33434485,0,0,0.33434485,-0.49999999,-0.49999999)"
         clip-rule="evenodd"
         id="path49" />
    </clipPath>
    <clipPath
       clipPathUnits="userSpaceOnUse"
       id="clipPath50">
      <path
         d="M 0,0 H 1208.3333 V 729.7854 H 0 Z"
         transform="matrix(0.33434149,0,0,0.33434149,-94.3125,-228)"
         clip-rule="evenodd"
         id="path50" />
    </clipPath>
    <clipPath
       clipPathUnits="userSpaceOnUse"
       id="clipPath52">
      <path
         d="M 0,0 H 1208.3333 V 729.7854 H 0 Z"
         transform="matrix(0.33434485,0,0,0.33434485,-0.49999999,-0.49999999)"
         clip-rule="evenodd"
         id="path52" />
    </clipPath>
    <clipPath
       clipPathUnits="userSpaceOnUse"
       id="clipPath53">
      <path
         d="M 0,0 H 1208.3333 V 729.7854 H 0 Z"
         transform="matrix(0.33434149,0,0,0.33434149,-217.07813,-228)"
         clip-rule="evenodd"
         id="path53" />
    </clipPath>
  </defs>
  <sodipodi:namedview
     id="namedview1"
     pagecolor="#ffffff"
     bordercolor="#000000"
     borderopacity="0.25"
     inkscape:showpageshadow="2"
     inkscape:pageopacity="0.0"
     inkscape:pagecheckerboard="0"
     inkscape:deskcolor="#d1d1d1">
    <inkscape:page
       x="0"
       y="0"
       inkscape:label="1"
       id="page1"
       width="386.55997"
       height="234.56"
       margin="0"
       bleed="0" />
  </sodipodi:namedview>
  <g
     id="g1"
     inkscape:groupmode="layer"
     inkscape:label="1">
    <path
       id="path1"
       d="M 0,0 H 404 V 245 H 0 Z"
       style="fill:#ffffff;fill-opacity:1;fill-rule:nonzero;stroke:none"
       transform="scale(0.95709561)"
       clip-path="url(#clipPath2)" />
    <path
       id="path3"
       d="M 1,1 H 401 V 41 H 1 Z"
       style="fill:#dae8fc;fill-opacity:1;fill-rule:nonzero;stroke:#6c8ebf;stroke-width:1;stroke-linecap:butt;stroke-linejoin:miter;stroke-miterlimit:10;stroke-dasharray:none;stroke-opacity:1"
       transform="matrix(0.95709561,0,0,0.95709561,0.4785478,0.4785478)"
       clip-path="url(#clipPath4)" />
    <text
       id="text4"
       xml:space="preserve"
       transform="matrix(0.95710521,0,0,0.95710521,72.366127,26.798946)"
       clip-path="url(#clipPath5)"><tspan
         style="font-variant:normal;font-weight:700;font-size:20px;font-family:Helvetica;writing-mode:lr-tb;fill:#000000;fill-opacity:1;fill-rule:nonzero;stroke:none"
         x="0 15.556641 27.773438 38.896484 45.556641 56.298828 68.515625 75.175781 90.732422 102.94922 114.07227 119.62891 134.07227 145.19531 150.75195 161.875 168.53516 174.0918 186.30859 198.52539 209.64844 221.86523 227.42188 239.63867"
         y="0"
         sodipodi:role="line"
         id="tspan4">One-To-One Relationships</tspan></text>
    <path
       id="path6"
       d="M 187.37,71 H 201 191 204.63"
       style="fill:none;stroke:#000000;stroke-width:1;stroke-linecap:butt;stroke-linejoin:miter;stroke-miterlimit:10;stroke-dasharray:none;stroke-opacity:1"
       transform="matrix(0.95709561,0,0,0.95709561,0.4785478,0.4785478)"
       clip-path="url(#clipPath7)" />
    <path
       id="path8"
       d="m 182.12,71 7,-3.5 -1.75,3.5 1.75,3.5 z"
       style="fill:#000000;fill-opacity:1;fill-rule:nonzero;stroke:#000000;stroke-width:1;stroke-linecap:butt;stroke-linejoin:miter;stroke-miterlimit:10;stroke-dasharray:none;stroke-opacity:1"
       transform="matrix(0.95709561,0,0,0.95709561,0.4785478,0.4785478)"
       clip-path="url(#clipPath9)" />
    <path
       id="path10"
       d="m 209.88,71 -7,3.5 1.75,-3.5 -1.75,-3.5 z"
       style="fill:#000000;fill-opacity:1;fill-rule:nonzero;stroke:#000000;stroke-width:1;stroke-linecap:butt;stroke-linejoin:miter;stroke-miterlimit:10;stroke-dasharray:none;stroke-opacity:1"
       transform="matrix(0.95709561,0,0,0.95709561,0.4785478,0.4785478)"
       clip-path="url(#clipPath11)" />
    <path
       id="path12"
       d="M 71,51 H 181 V 91 H 71 Z"
       style="fill:#ffffff;fill-opacity:1;fill-rule:nonzero;stroke:#000000;stroke-width:1;stroke-linecap:butt;stroke-linejoin:miter;stroke-miterlimit:10;stroke-dasharray:none;stroke-opacity:1"
       transform="matrix(0.95709561,0,0,0.95709561,0.4785478,0.4785478)"
       clip-path="url(#clipPath13)" />
    <text
       id="text13"
       xml:space="preserve"
       transform="matrix(0.95710521,0,0,0.95710521,87.081619,74.654206)"
       clip-path="url(#clipPath14)"><tspan
         style="font-variant:normal;font-weight:normal;font-size:20px;font-family:Helvetica;writing-mode:lr-tb;fill:#000000;fill-opacity:1;fill-rule:nonzero;stroke:none"
         x="0 14.443359 25.566406 36.689453 47.8125 53.369141 60.029297"
         y="0"
         sodipodi:role="line"
         id="tspan13">Country</tspan></text>
    <path
       id="path15"
       d="M 211,51 H 321 V 91 H 211 Z"
       style="fill:#ffffff;fill-opacity:1;fill-rule:nonzero;stroke:#000000;stroke-width:1;stroke-linecap:butt;stroke-linejoin:miter;stroke-miterlimit:10;stroke-dasharray:none;stroke-opacity:1"
       transform="matrix(0.95709561,0,0,0.95709561,0.4785478,0.4785478)"
       clip-path="url(#clipPath16)" />
    <text
       id="text16"
       xml:space="preserve"
       transform="matrix(0.95710521,0,0,0.95710521,224.78514,74.654206)"
       clip-path="url(#clipPath17)"><tspan
         style="font-variant:normal;font-weight:normal;font-size:20px;font-family:Helvetica;writing-mode:lr-tb;fill:#000000;fill-opacity:1;fill-rule:nonzero;stroke:none"
         x="0 14.443359 25.566406 36.689453 41.132812 46.689453 57.8125"
         y="0"
         sodipodi:role="line"
         id="tspan16">Capital</tspan></text>
    <path
       id="path18"
       d="M 187.37,121 H 201 191 204.63"
       style="fill:none;stroke:#000000;stroke-width:1;stroke-linecap:butt;stroke-linejoin:miter;stroke-miterlimit:10;stroke-dasharray:none;stroke-opacity:1"
       transform="matrix(0.95709561,0,0,0.95709561,0.4785478,0.4785478)"
       clip-path="url(#clipPath19)" />
    <path
       id="path20"
       d="m 182.12,121 7,-3.5 -1.75,3.5 1.75,3.5 z"
       style="fill:#000000;fill-opacity:1;fill-rule:nonzero;stroke:#000000;stroke-width:1;stroke-linecap:butt;stroke-linejoin:miter;stroke-miterlimit:10;stroke-dasharray:none;stroke-opacity:1"
       transform="matrix(0.95709561,0,0,0.95709561,0.4785478,0.4785478)"
       clip-path="url(#clipPath21)" />
    <path
       id="path22"
       d="m 209.88,121 -7,3.5 1.75,-3.5 -1.75,-3.5 z"
       style="fill:#000000;fill-opacity:1;fill-rule:nonzero;stroke:#000000;stroke-width:1;stroke-linecap:butt;stroke-linejoin:miter;stroke-miterlimit:10;stroke-dasharray:none;stroke-opacity:1"
       transform="matrix(0.95709561,0,0,0.95709561,0.4785478,0.4785478)"
       clip-path="url(#clipPath23)" />
    <path
       id="path24"
       d="m 71,101 h 110 v 40 H 71 Z"
       style="fill:#ffffff;fill-opacity:1;fill-rule:nonzero;stroke:#000000;stroke-width:1;stroke-linecap:butt;stroke-linejoin:miter;stroke-miterlimit:10;stroke-dasharray:none;stroke-opacity:1"
       transform="matrix(0.95709561,0,0,0.95709561,0.4785478,0.4785478)"
       clip-path="url(#clipPath25)" />
    <text
       id="text25"
       xml:space="preserve"
       transform="matrix(0.95710521,0,0,0.95710521,105.16193,122.50947)"
       clip-path="url(#clipPath26)"><tspan
         style="font-variant:normal;font-weight:normal;font-size:20px;font-family:Helvetica;writing-mode:lr-tb;fill:#000000;fill-opacity:1;fill-rule:nonzero;stroke:none"
         x="0 14.443359 25.566406"
         y="0"
         sodipodi:role="line"
         id="tspan25">Car</tspan></text>
    <path
       id="path27"
       d="m 211,101 h 110 v 40 H 211 Z"
       style="fill:#ffffff;fill-opacity:1;fill-rule:nonzero;stroke:#000000;stroke-width:1;stroke-linecap:butt;stroke-linejoin:miter;stroke-miterlimit:10;stroke-dasharray:none;stroke-opacity:1"
       transform="matrix(0.95709561,0,0,0.95709561,0.4785478,0.4785478)"
       clip-path="url(#clipPath28)" />
    <text
       id="text28"
       xml:space="preserve"
       transform="matrix(0.95710521,0,0,0.95710521,224.78514,122.50947)"
       clip-path="url(#clipPath29)"><tspan
         style="font-variant:normal;font-weight:normal;font-size:20px;font-family:Helvetica;writing-mode:lr-tb;fill:#000000;fill-opacity:1;fill-rule:nonzero;stroke:none"
         x="0 13.339844 24.462891 35.585938 40.029297 51.152344"
         y="0"
         sodipodi:role="line"
         id="tspan28">Engine</tspan></text>
    <path
       id="path30"
       d="M 187.37,171 H 201 191 204.63"
       style="fill:none;stroke:#000000;stroke-width:1;stroke-linecap:butt;stroke-linejoin:miter;stroke-miterlimit:10;stroke-dasharray:none;stroke-opacity:1"
       transform="matrix(0.95709561,0,0,0.95709561,0.4785478,0.4785478)"
       clip-path="url(#clipPath31)" />
    <path
       id="path32"
       d="m 182.12,171 7,-3.5 -1.75,3.5 1.75,3.5 z"
       style="fill:#000000;fill-opacity:1;fill-rule:nonzero;stroke:#000000;stroke-width:1;stroke-linecap:butt;stroke-linejoin:miter;stroke-miterlimit:10;stroke-dasharray:none;stroke-opacity:1"
       transform="matrix(0.95709561,0,0,0.95709561,0.4785478,0.4785478)"
       clip-path="url(#clipPath33)" />
    <path
       id="path34"
       d="m 209.88,171 -7,3.5 1.75,-3.5 -1.75,-3.5 z"
       style="fill:#000000;fill-opacity:1;fill-rule:nonzero;stroke:#000000;stroke-width:1;stroke-linecap:butt;stroke-linejoin:miter;stroke-miterlimit:10;stroke-dasharray:none;stroke-opacity:1"
       transform="matrix(0.95709561,0,0,0.95709561,0.4785478,0.4785478)"
       clip-path="url(#clipPath35)" />
    <path
       id="path36"
       d="m 71,151 h 110 v 40 H 71 Z"
       style="fill:#ffffff;fill-opacity:1;fill-rule:nonzero;stroke:#000000;stroke-width:1;stroke-linecap:butt;stroke-linejoin:miter;stroke-miterlimit:10;stroke-dasharray:none;stroke-opacity:1"
       transform="matrix(0.95709561,0,0,0.95709561,0.4785478,0.4785478)"
       clip-path="url(#clipPath37)" />
    <text
       id="text37"
       xml:space="preserve"
       transform="matrix(0.95710521,0,0,0.95710521,82.81951,170.36473)"
       clip-path="url(#clipPath38)"><tspan
         style="font-variant:normal;font-weight:normal;font-size:20px;font-family:Helvetica;writing-mode:lr-tb;fill:#000000;fill-opacity:1;fill-rule:nonzero;stroke:none"
         x="0 13.339844 24.462891 34.462891 44.462891 55.585938 66.708984 73.369141"
         y="0"
         sodipodi:role="line"
         id="tspan37">Passport</tspan></text>
    <path
       id="path39"
       d="m 211,151 h 110 v 40 H 211 Z"
       style="fill:#ffffff;fill-opacity:1;fill-rule:nonzero;stroke:#000000;stroke-width:1;stroke-linecap:butt;stroke-linejoin:miter;stroke-miterlimit:10;stroke-dasharray:none;stroke-opacity:1"
       transform="matrix(0.95709561,0,0,0.95709561,0.4785478,0.4785478)"
       clip-path="url(#clipPath40)" />
    <text
       id="text40"
       xml:space="preserve"
       transform="matrix(0.95710521,0,0,0.95710521,224.26171,170.36473)"
       clip-path="url(#clipPath41)"><tspan
         style="font-variant:normal;font-weight:normal;font-size:20px;font-family:Helvetica;writing-mode:lr-tb;fill:#000000;fill-opacity:1;fill-rule:nonzero;stroke:none"
         x="0 13.339844 24.462891 31.123047 41.123047 52.246094"
         y="0"
         sodipodi:role="line"
         id="tspan40">Person</tspan></text>
    <path
       id="path42"
       d="M 187.37,221 H 201 191 204.63"
       style="fill:none;stroke:#000000;stroke-width:1;stroke-linecap:butt;stroke-linejoin:miter;stroke-miterlimit:10;stroke-dasharray:none;stroke-opacity:1"
       transform="matrix(0.95709561,0,0,0.95709561,0.4785478,0.4785478)"
       clip-path="url(#clipPath43)" />
    <path
       id="path44"
       d="m 182.12,221 7,-3.5 -1.75,3.5 1.75,3.5 z"
       style="fill:#000000;fill-opacity:1;fill-rule:nonzero;stroke:#000000;stroke-width:1;stroke-linecap:butt;stroke-linejoin:miter;stroke-miterlimit:10;stroke-dasharray:none;stroke-opacity:1"
       transform="matrix(0.95709561,0,0,0.95709561,0.4785478,0.4785478)"
       clip-path="url(#clipPath45)" />
    <path
       id="path46"
       d="m 209.88,221 -7,3.5 1.75,-3.5 -1.75,-3.5 z"
       style="fill:#000000;fill-opacity:1;fill-rule:nonzero;stroke:#000000;stroke-width:1;stroke-linecap:butt;stroke-linejoin:miter;stroke-miterlimit:10;stroke-dasharray:none;stroke-opacity:1"
       transform="matrix(0.95709561,0,0,0.95709561,0.4785478,0.4785478)"
       clip-path="url(#clipPath47)" />
    <path
       id="path48"
       d="m 71,201 h 110 v 40 H 71 Z"
       style="fill:#ffffff;fill-opacity:1;fill-rule:nonzero;stroke:#000000;stroke-width:1;stroke-linecap:butt;stroke-linejoin:miter;stroke-miterlimit:10;stroke-dasharray:none;stroke-opacity:1"
       transform="matrix(0.95709561,0,0,0.95709561,0.4785478,0.4785478)"
       clip-path="url(#clipPath49)" />
    <text
       id="text49"
       xml:space="preserve"
       transform="matrix(0.95710521,0,0,0.95710521,90.266985,218.21999)"
       clip-path="url(#clipPath50)"><tspan
         style="font-variant:normal;font-weight:normal;font-size:20px;font-family:Helvetica;writing-mode:lr-tb;fill:#000000;fill-opacity:1;fill-rule:nonzero;stroke:none"
         x="0 13.339844 24.462891 31.123047 41.123047 52.246094"
         y="0"
         sodipodi:role="line"
         id="tspan49">Person</tspan></text>
    <path
       id="path51"
       d="m 211,201 h 110 v 40 H 211 Z"
       style="fill:#ffffff;fill-opacity:1;fill-rule:nonzero;stroke:#000000;stroke-width:1;stroke-linecap:butt;stroke-linejoin:miter;stroke-miterlimit:10;stroke-dasharray:none;stroke-opacity:1"
       transform="matrix(0.95709561,0,0,0.95709561,0.4785478,0.4785478)"
       clip-path="url(#clipPath52)" />
    <text
       id="text52"
       xml:space="preserve"
       transform="matrix(0.95710521,0,0,0.95710521,207.76661,218.21999)"
       clip-path="url(#clipPath53)"><tspan
         style="font-variant:normal;font-weight:normal;font-size:20px;font-family:Helvetica;writing-mode:lr-tb;fill:#000000;fill-opacity:1;fill-rule:nonzero;stroke:none"
         x="0 14.443359 25.566406 30.009766 34.453125 40.009766 53.349609 64.472656 75.595703 86.71875"
         y="0"
         sodipodi:role="line"
         id="tspan52">Cell Phone</tspan></text>
  </g>
</svg>
