<?xml version="1.0" encoding="UTF-8" standalone="no"?>
<!-- Created with Inkscape (http://www.inkscape.org/) -->

<svg
   version="1.1"
   id="svg1"
   width="462.71997"
   height="254.71999"
   viewBox="0 0 462.71997 254.71999"
   sodipodi:docname="nest-8.pdf"
   xmlns:inkscape="http://www.inkscape.org/namespaces/inkscape"
   xmlns:sodipodi="http://sodipodi.sourceforge.net/DTD/sodipodi-0.dtd"
   xmlns="http://www.w3.org/2000/svg"
   xmlns:svg="http://www.w3.org/2000/svg">
  <defs
     id="defs1">
    <clipPath
       clipPathUnits="userSpaceOnUse"
       id="clipPath2">
      <path
         d="M 0,0 H 1445.8333 V 794.61078 H 0 Z"
         transform="scale(0.33475507)"
         clip-rule="evenodd"
         id="path2" />
    </clipPath>
    <clipPath
       clipPathUnits="userSpaceOnUse"
       id="clipPath4">
      <path
         d="M 0,0 H 1445.8333 V 788.63629 H 0 Z"
         transform="matrix(0.33475507,0,0,0.33475507,-0.5,-0.5)"
         clip-rule="evenodd"
         id="path4" />
    </clipPath>
    <clipPath
       clipPathUnits="userSpaceOnUse"
       id="clipPath5">
      <path
         d="M 0,0 H 1445.8333 V 788.63629 H 0 Z"
         transform="matrix(0.33475173,0,0,0.33475173,-181.39063,-22)"
         clip-rule="evenodd"
         id="path5" />
    </clipPath>
    <clipPath
       clipPathUnits="userSpaceOnUse"
       id="clipPath7">
      <path
         d="M 0,0 H 1445.8333 V 788.63629 H 0 Z"
         transform="matrix(0.33475507,0,0,0.33475507,-0.5,-0.5)"
         clip-rule="evenodd"
         id="path7" />
    </clipPath>
    <clipPath
       clipPathUnits="userSpaceOnUse"
       id="clipPath9">
      <path
         d="M 0,0 H 1445.8333 V 788.63629 H 0 Z"
         transform="matrix(0.33475507,0,0,0.33475507,-0.5,-0.5)"
         clip-rule="evenodd"
         id="path9" />
    </clipPath>
    <clipPath
       clipPathUnits="userSpaceOnUse"
       id="clipPath10">
      <path
         d="M 0,0 H 1445.8333 V 788.63629 H 0 Z"
         transform="matrix(0.33475173,0,0,0.33475173,-321.26563,-67)"
         clip-rule="evenodd"
         id="path10" />
    </clipPath>
    <clipPath
       clipPathUnits="userSpaceOnUse"
       id="clipPath12">
      <path
         d="M 0,0 H 1445.8333 V 788.63629 H 0 Z"
         transform="matrix(0.33475507,0,0,0.33475507,-0.5,-0.5)"
         clip-rule="evenodd"
         id="path12" />
    </clipPath>
    <clipPath
       clipPathUnits="userSpaceOnUse"
       id="clipPath13">
      <path
         d="M 0,0 H 1445.8333 V 788.63629 H 0 Z"
         transform="matrix(0.33475173,0,0,0.33475173,-276.32813,-90)"
         clip-rule="evenodd"
         id="path13" />
    </clipPath>
    <clipPath
       clipPathUnits="userSpaceOnUse"
       id="clipPath15">
      <path
         d="M 0,0 H 1445.8333 V 788.63629 H 0 Z"
         transform="matrix(0.33475507,0,0,0.33475507,-0.5,-0.5)"
         clip-rule="evenodd"
         id="path15" />
    </clipPath>
    <clipPath
       clipPathUnits="userSpaceOnUse"
       id="clipPath16">
      <path
         d="M 0,0 H 1445.8333 V 788.63629 H 0 Z"
         transform="matrix(0.33475173,0,0,0.33475173,-331.65625,-90)"
         clip-rule="evenodd"
         id="path16" />
    </clipPath>
    <clipPath
       clipPathUnits="userSpaceOnUse"
       id="clipPath18">
      <path
         d="M 0,0 H 1445.8333 V 788.63629 H 0 Z"
         transform="matrix(0.33475507,0,0,0.33475507,-0.5,-0.5)"
         clip-rule="evenodd"
         id="path18" />
    </clipPath>
    <clipPath
       clipPathUnits="userSpaceOnUse"
       id="clipPath19">
      <path
         d="M 0,0 H 1445.8333 V 788.63629 H 0 Z"
         transform="matrix(0.33475173,0,0,0.33475173,-405.3125,-90)"
         clip-rule="evenodd"
         id="path19" />
    </clipPath>
    <clipPath
       clipPathUnits="userSpaceOnUse"
       id="clipPath21">
      <path
         d="M 0,0 H 1445.8333 V 788.63629 H 0 Z"
         transform="matrix(0.33475507,0,0,0.33475507,-0.5,-0.5)"
         clip-rule="evenodd"
         id="path21" />
    </clipPath>
    <clipPath
       clipPathUnits="userSpaceOnUse"
       id="clipPath22">
      <path
         d="M 0,0 H 1445.8333 V 788.63629 H 0 Z"
         transform="matrix(0.33475173,0,0,0.33475173,-277.65625,-110)"
         clip-rule="evenodd"
         id="path22" />
    </clipPath>
    <clipPath
       clipPathUnits="userSpaceOnUse"
       id="clipPath24">
      <path
         d="M 0,0 H 1445.8333 V 788.63629 H 0 Z"
         transform="matrix(0.33475507,0,0,0.33475507,-0.5,-0.5)"
         clip-rule="evenodd"
         id="path24" />
    </clipPath>
    <clipPath
       clipPathUnits="userSpaceOnUse"
       id="clipPath25">
      <path
         d="M 0,0 H 1445.8333 V 788.63629 H 0 Z"
         transform="matrix(0.33475173,0,0,0.33475173,-307.70313,-110)"
         clip-rule="evenodd"
         id="path25" />
    </clipPath>
    <clipPath
       clipPathUnits="userSpaceOnUse"
       id="clipPath27">
      <path
         d="M 0,0 H 1445.8333 V 788.63629 H 0 Z"
         transform="matrix(0.33475507,0,0,0.33475507,-0.5,-0.5)"
         clip-rule="evenodd"
         id="path27" />
    </clipPath>
    <clipPath
       clipPathUnits="userSpaceOnUse"
       id="clipPath28">
      <path
         d="M 0,0 H 1445.8333 V 788.63629 H 0 Z"
         transform="matrix(0.33475173,0,0,0.33475173,-411.42188,-110)"
         clip-rule="evenodd"
         id="path28" />
    </clipPath>
    <clipPath
       clipPathUnits="userSpaceOnUse"
       id="clipPath30">
      <path
         d="M 0,0 H 1445.8333 V 788.63629 H 0 Z"
         transform="matrix(0.33475507,0,0,0.33475507,-0.5,-0.5)"
         clip-rule="evenodd"
         id="path30" />
    </clipPath>
    <clipPath
       clipPathUnits="userSpaceOnUse"
       id="clipPath31">
      <path
         d="M 0,0 H 1445.8333 V 788.63629 H 0 Z"
         transform="matrix(0.33475173,0,0,0.33475173,-63.703125,-67)"
         clip-rule="evenodd"
         id="path31" />
    </clipPath>
    <clipPath
       clipPathUnits="userSpaceOnUse"
       id="clipPath33">
      <path
         d="M 0,0 H 1445.8333 V 788.63629 H 0 Z"
         transform="matrix(0.33475507,0,0,0.33475507,-0.5,-0.5)"
         clip-rule="evenodd"
         id="path33" />
    </clipPath>
    <clipPath
       clipPathUnits="userSpaceOnUse"
       id="clipPath34">
      <path
         d="M 0,0 H 1445.8333 V 788.63629 H 0 Z"
         transform="matrix(0.33475173,0,0,0.33475173,-26.328125,-90)"
         clip-rule="evenodd"
         id="path34" />
    </clipPath>
    <clipPath
       clipPathUnits="userSpaceOnUse"
       id="clipPath36">
      <path
         d="M 0,0 H 1445.8333 V 788.63629 H 0 Z"
         transform="matrix(0.33475507,0,0,0.33475507,-0.5,-0.5)"
         clip-rule="evenodd"
         id="path36" />
    </clipPath>
    <clipPath
       clipPathUnits="userSpaceOnUse"
       id="clipPath37">
      <path
         d="M 0,0 H 1445.8333 V 788.63629 H 0 Z"
         transform="matrix(0.33475173,0,0,0.33475173,-59.828125,-90)"
         clip-rule="evenodd"
         id="path37" />
    </clipPath>
    <clipPath
       clipPathUnits="userSpaceOnUse"
       id="clipPath39">
      <path
         d="M 0,0 H 1445.8333 V 788.63629 H 0 Z"
         transform="matrix(0.33475507,0,0,0.33475507,-0.5,-0.5)"
         clip-rule="evenodd"
         id="path39" />
    </clipPath>
    <clipPath
       clipPathUnits="userSpaceOnUse"
       id="clipPath40">
      <path
         d="M 0,0 H 1445.8333 V 788.63629 H 0 Z"
         transform="matrix(0.33475173,0,0,0.33475173,-161.3125,-90)"
         clip-rule="evenodd"
         id="path40" />
    </clipPath>
    <clipPath
       clipPathUnits="userSpaceOnUse"
       id="clipPath42">
      <path
         d="M 0,0 H 1445.8333 V 788.63629 H 0 Z"
         transform="matrix(0.33475507,0,0,0.33475507,-0.5,-0.5)"
         clip-rule="evenodd"
         id="path42" />
    </clipPath>
    <clipPath
       clipPathUnits="userSpaceOnUse"
       id="clipPath43">
      <path
         d="M 0,0 H 1445.8333 V 788.63629 H 0 Z"
         transform="matrix(0.33475173,0,0,0.33475173,-27.65625,-110)"
         clip-rule="evenodd"
         id="path43" />
    </clipPath>
    <clipPath
       clipPathUnits="userSpaceOnUse"
       id="clipPath45">
      <path
         d="M 0,0 H 1445.8333 V 788.63629 H 0 Z"
         transform="matrix(0.33475507,0,0,0.33475507,-0.5,-0.5)"
         clip-rule="evenodd"
         id="path45" />
    </clipPath>
    <clipPath
       clipPathUnits="userSpaceOnUse"
       id="clipPath46">
      <path
         d="M 0,0 H 1445.8333 V 788.63629 H 0 Z"
         transform="matrix(0.33475173,0,0,0.33475173,-62.234375,-109)"
         clip-rule="evenodd"
         id="path46" />
    </clipPath>
    <clipPath
       clipPathUnits="userSpaceOnUse"
       id="clipPath48">
      <path
         d="M 0,0 H 1445.8333 V 788.63629 H 0 Z"
         transform="matrix(0.33475507,0,0,0.33475507,-0.5,-0.5)"
         clip-rule="evenodd"
         id="path48" />
    </clipPath>
    <clipPath
       clipPathUnits="userSpaceOnUse"
       id="clipPath50">
      <path
         d="M 0,0 H 1445.8333 V 788.63629 H 0 Z"
         transform="matrix(0.33475507,0,0,0.33475507,-0.5,-0.5)"
         clip-rule="evenodd"
         id="path50" />
    </clipPath>
    <clipPath
       clipPathUnits="userSpaceOnUse"
       id="clipPath52">
      <path
         d="M 0,0 H 1445.8333 V 788.63629 H 0 Z"
         transform="matrix(0.33475507,0,0,0.33475507,-0.5,-0.5)"
         clip-rule="evenodd"
         id="path52" />
    </clipPath>
    <clipPath
       clipPathUnits="userSpaceOnUse"
       id="clipPath53">
      <path
         d="M 0,0 H 1445.8333 V 788.63629 H 0 Z"
         transform="matrix(0.33475173,0,0,0.33475173,-177.9375,-110)"
         clip-rule="evenodd"
         id="path53" />
    </clipPath>
    <clipPath
       clipPathUnits="userSpaceOnUse"
       id="clipPath55">
      <path
         d="M 0,0 H 1445.8333 V 788.63629 H 0 Z"
         transform="matrix(0.33475507,0,0,0.33475507,-0.5,-0.5)"
         clip-rule="evenodd"
         id="path55" />
    </clipPath>
    <clipPath
       clipPathUnits="userSpaceOnUse"
       id="clipPath56">
      <path
         d="M 0,0 H 1445.8333 V 788.63629 H 0 Z"
         transform="matrix(0.33475173,0,0,0.33475173,-27.65625,-130)"
         clip-rule="evenodd"
         id="path56" />
    </clipPath>
    <clipPath
       clipPathUnits="userSpaceOnUse"
       id="clipPath58">
      <path
         d="M 0,0 H 1445.8333 V 788.63629 H 0 Z"
         transform="matrix(0.33475507,0,0,0.33475507,-0.5,-0.5)"
         clip-rule="evenodd"
         id="path58" />
    </clipPath>
    <clipPath
       clipPathUnits="userSpaceOnUse"
       id="clipPath59">
      <path
         d="M 0,0 H 1445.8333 V 788.63629 H 0 Z"
         transform="matrix(0.33475173,0,0,0.33475173,-66.734375,-129)"
         clip-rule="evenodd"
         id="path59" />
    </clipPath>
    <clipPath
       clipPathUnits="userSpaceOnUse"
       id="clipPath61">
      <path
         d="M 0,0 H 1445.8333 V 788.63629 H 0 Z"
         transform="matrix(0.33475507,0,0,0.33475507,-0.5,-0.5)"
         clip-rule="evenodd"
         id="path61" />
    </clipPath>
    <clipPath
       clipPathUnits="userSpaceOnUse"
       id="clipPath63">
      <path
         d="M 0,0 H 1445.8333 V 788.63629 H 0 Z"
         transform="matrix(0.33475507,0,0,0.33475507,-0.5,-0.5)"
         clip-rule="evenodd"
         id="path63" />
    </clipPath>
    <clipPath
       clipPathUnits="userSpaceOnUse"
       id="clipPath65">
      <path
         d="M 0,0 H 1445.8333 V 788.63629 H 0 Z"
         transform="matrix(0.33475507,0,0,0.33475507,-0.5,-0.5)"
         clip-rule="evenodd"
         id="path65" />
    </clipPath>
    <clipPath
       clipPathUnits="userSpaceOnUse"
       id="clipPath66">
      <path
         d="M 0,0 H 1445.8333 V 788.63629 H 0 Z"
         transform="matrix(0.33475173,0,0,0.33475173,-177.9375,-130)"
         clip-rule="evenodd"
         id="path66" />
    </clipPath>
    <clipPath
       clipPathUnits="userSpaceOnUse"
       id="clipPath68">
      <path
         d="M 0,0 H 1445.8333 V 788.63629 H 0 Z"
         transform="matrix(0.33475507,0,0,0.33475507,-0.5,-0.5)"
         clip-rule="evenodd"
         id="path68" />
    </clipPath>
    <clipPath
       clipPathUnits="userSpaceOnUse"
       id="clipPath70">
      <path
         d="M 0,0 H 1445.8333 V 788.63629 H 0 Z"
         transform="matrix(0.33475507,0,0,0.33475507,-0.5,-0.5)"
         clip-rule="evenodd"
         id="path70" />
    </clipPath>
    <clipPath
       clipPathUnits="userSpaceOnUse"
       id="clipPath72">
      <path
         d="M 0,0 H 1445.8333 V 788.63629 H 0 Z"
         transform="matrix(0.33475507,0,0,0.33475507,-0.5,-0.5)"
         clip-rule="evenodd"
         id="path72" />
    </clipPath>
    <clipPath
       clipPathUnits="userSpaceOnUse"
       id="clipPath74">
      <path
         d="M 0,0 H 1445.8333 V 788.63629 H 0 Z"
         transform="matrix(0.33475507,0,0,0.33475507,-0.5,-0.5)"
         clip-rule="evenodd"
         id="path74" />
    </clipPath>
    <clipPath
       clipPathUnits="userSpaceOnUse"
       id="clipPath75">
      <path
         d="M 0,0 H 1445.8333 V 788.63629 H 0 Z"
         transform="matrix(0.33475173,0,0,0.33475173,-27.65625,-150)"
         clip-rule="evenodd"
         id="path75" />
    </clipPath>
    <clipPath
       clipPathUnits="userSpaceOnUse"
       id="clipPath77">
      <path
         d="M 0,0 H 1445.8333 V 788.63629 H 0 Z"
         transform="matrix(0.33475507,0,0,0.33475507,-0.5,-0.5)"
         clip-rule="evenodd"
         id="path77" />
    </clipPath>
    <clipPath
       clipPathUnits="userSpaceOnUse"
       id="clipPath78">
      <path
         d="M 0,0 H 1445.8333 V 788.63629 H 0 Z"
         transform="matrix(0.33475173,0,0,0.33475173,-65.984375,-149)"
         clip-rule="evenodd"
         id="path78" />
    </clipPath>
    <clipPath
       clipPathUnits="userSpaceOnUse"
       id="clipPath80">
      <path
         d="M 0,0 H 1445.8333 V 788.63629 H 0 Z"
         transform="matrix(0.33475507,0,0,0.33475507,-0.5,-0.5)"
         clip-rule="evenodd"
         id="path80" />
    </clipPath>
    <clipPath
       clipPathUnits="userSpaceOnUse"
       id="clipPath81">
      <path
         d="M 0,0 H 1445.8333 V 788.63629 H 0 Z"
         transform="matrix(0.33475173,0,0,0.33475173,-165.70313,-150)"
         clip-rule="evenodd"
         id="path81" />
    </clipPath>
    <clipPath
       clipPathUnits="userSpaceOnUse"
       id="clipPath83">
      <path
         d="M 0,0 H 1445.8333 V 788.63629 H 0 Z"
         transform="matrix(0.33475507,0,0,0.33475507,-0.5,-0.5)"
         clip-rule="evenodd"
         id="path83" />
    </clipPath>
    <clipPath
       clipPathUnits="userSpaceOnUse"
       id="clipPath84">
      <path
         d="M 0,0 H 1445.8333 V 788.63629 H 0 Z"
         transform="matrix(0.33475173,0,0,0.33475173,-114.48438,-90)"
         clip-rule="evenodd"
         id="path84" />
    </clipPath>
    <clipPath
       clipPathUnits="userSpaceOnUse"
       id="clipPath86">
      <path
         d="M 0,0 H 1445.8333 V 788.63629 H 0 Z"
         transform="matrix(0.33475507,0,0,0.33475507,-0.5,-0.5)"
         clip-rule="evenodd"
         id="path86" />
    </clipPath>
    <clipPath
       clipPathUnits="userSpaceOnUse"
       id="clipPath87">
      <path
         d="M 0,0 H 1445.8333 V 788.63629 H 0 Z"
         transform="matrix(0.33475173,0,0,0.33475173,-98.703125,-110)"
         clip-rule="evenodd"
         id="path87" />
    </clipPath>
    <clipPath
       clipPathUnits="userSpaceOnUse"
       id="clipPath89">
      <path
         d="M 0,0 H 1445.8333 V 788.63629 H 0 Z"
         transform="matrix(0.33475507,0,0,0.33475507,-0.5,-0.5)"
         clip-rule="evenodd"
         id="path89" />
    </clipPath>
    <clipPath
       clipPathUnits="userSpaceOnUse"
       id="clipPath90">
      <path
         d="M 0,0 H 1445.8333 V 788.63629 H 0 Z"
         transform="matrix(0.33475173,0,0,0.33475173,-106.96875,-130)"
         clip-rule="evenodd"
         id="path90" />
    </clipPath>
    <clipPath
       clipPathUnits="userSpaceOnUse"
       id="clipPath92">
      <path
         d="M 0,0 H 1445.8333 V 788.63629 H 0 Z"
         transform="matrix(0.33475507,0,0,0.33475507,-0.5,-0.5)"
         clip-rule="evenodd"
         id="path92" />
    </clipPath>
    <clipPath
       clipPathUnits="userSpaceOnUse"
       id="clipPath94">
      <path
         d="M 0,0 H 1445.8333 V 788.63629 H 0 Z"
         transform="matrix(0.33475507,0,0,0.33475507,-0.5,-0.5)"
         clip-rule="evenodd"
         id="path94" />
    </clipPath>
    <clipPath
       clipPathUnits="userSpaceOnUse"
       id="clipPath95">
      <path
         d="M 0,0 H 1445.8333 V 788.63629 H 0 Z"
         transform="matrix(0.33475173,0,0,0.33475173,-109.09375,-150)"
         clip-rule="evenodd"
         id="path95" />
    </clipPath>
    <clipPath
       clipPathUnits="userSpaceOnUse"
       id="clipPath97">
      <path
         d="M 0,0 H 1445.8333 V 788.63629 H 0 Z"
         transform="matrix(0.33475507,0,0,0.33475507,-0.5,-0.5)"
         clip-rule="evenodd"
         id="path97" />
    </clipPath>
    <clipPath
       clipPathUnits="userSpaceOnUse"
       id="clipPath98">
      <path
         d="M 0,0 H 1445.8333 V 788.63629 H 0 Z"
         transform="matrix(0.33475173,0,0,0.33475173,-91.703125,-242)"
         clip-rule="evenodd"
         id="path98" />
    </clipPath>
  </defs>
  <sodipodi:namedview
     id="namedview1"
     pagecolor="#ffffff"
     bordercolor="#000000"
     borderopacity="0.25"
     inkscape:showpageshadow="2"
     inkscape:pageopacity="0.0"
     inkscape:pagecheckerboard="0"
     inkscape:deskcolor="#d1d1d1">
    <inkscape:page
       x="0"
       y="0"
       inkscape:label="1"
       id="page1"
       width="462.71997"
       height="254.71999"
       margin="0"
       bleed="0" />
  </sodipodi:namedview>
  <g
     id="g1"
     inkscape:groupmode="layer"
     inkscape:label="1">
    <path
       id="path1"
       d="M 0,0 H 484 V 266 H 0 Z"
       style="fill:#ffffff;fill-opacity:1;fill-rule:nonzero;stroke:none"
       transform="scale(0.95592274)"
       clip-path="url(#clipPath2)" />
    <path
       id="path3"
       d="M 1,1 H 481 V 31 H 1 Z"
       style="fill:#dae8fc;fill-opacity:1;fill-rule:nonzero;stroke:#6c8ebf;stroke-width:1;stroke-linecap:butt;stroke-linejoin:miter;stroke-miterlimit:10;stroke-dasharray:none;stroke-opacity:1"
       transform="matrix(0.95592274,0,0,0.95592274,0.47796137,0.47796137)"
       clip-path="url(#clipPath4)" />
    <text
       id="text4"
       xml:space="preserve"
       transform="matrix(0.95593228,0,0,0.95593228,173.39716,21.03051)"
       clip-path="url(#clipPath5)"><tspan
         style="font-variant:normal;font-weight:700;font-size:15px;font-family:Helvetica;writing-mode:lr-tb;fill:#000000;fill-opacity:1;fill-rule:nonzero;stroke:none"
         x="0 10.004883 21.672363 30.834961 35.002441 39.997559 48.339844 52.507324 63.339844 71.682129 76.677246 85.019531 94.182129 102.52441 110.8667"
         y="0"
         sodipodi:role="line"
         id="tspan4">SQLite Database</tspan></text>
    <path
       id="path6"
       d="M 1,31 H 481 V 191 H 1 Z"
       style="fill:#dae8fc;fill-opacity:1;fill-rule:nonzero;stroke:#6c8ebf;stroke-width:1;stroke-linecap:butt;stroke-linejoin:miter;stroke-miterlimit:10;stroke-dasharray:none;stroke-opacity:1"
       transform="matrix(0.95592274,0,0,0.95592274,0.47796137,0.47796137)"
       clip-path="url(#clipPath7)" />
    <path
       id="path8"
       d="M 261,46 H 471 V 76 H 261 Z"
       style="fill:#d5e8d4;fill-opacity:1;fill-rule:nonzero;stroke:#82b366;stroke-width:1;stroke-linecap:butt;stroke-linejoin:miter;stroke-miterlimit:10;stroke-dasharray:none;stroke-opacity:1"
       transform="matrix(0.95592274,0,0,0.95592274,0.47796137,0.47796137)"
       clip-path="url(#clipPath9)" />
    <text
       id="text9"
       xml:space="preserve"
       transform="matrix(0.95593228,0,0,0.95593228,307.10819,64.047463)"
       clip-path="url(#clipPath10)"><tspan
         style="font-variant:normal;font-weight:normal;font-size:17px;font-family:Helvetica;writing-mode:lr-tb;fill:#000000;fill-opacity:1;fill-rule:nonzero;stroke:none"
         x="0 12.276855 20.776855 30.231445 35.892578 44.392578 48.816895 57.316895 66.771484 76.226074 80.00293"
         y="0"
         sodipodi:role="line"
         id="tspan9">Users Table</tspan></text>
    <path
       id="path11"
       d="m 261,76 h 40 v 20 h -40 z"
       style="fill:#f5f5f5;fill-opacity:1;fill-rule:nonzero;stroke:#666666;stroke-width:1;stroke-linecap:butt;stroke-linejoin:miter;stroke-miterlimit:10;stroke-dasharray:none;stroke-opacity:1"
       transform="matrix(0.95592274,0,0,0.95592274,0.47796137,0.47796137)"
       clip-path="url(#clipPath12)" />
    <text
       id="text12"
       xml:space="preserve"
       transform="matrix(0.95593228,0,0,0.95593228,264.15098,86.033905)"
       clip-path="url(#clipPath13)"><tspan
         style="font-style:oblique;font-variant:normal;font-weight:normal;font-size:12px;font-family:Helvetica;writing-mode:lr-tb;fill:#333333;fill-opacity:1;fill-rule:nonzero;stroke:none"
         x="0 2.6660156"
         y="0"
         sodipodi:role="line"
         id="tspan12">id</tspan></text>
    <path
       id="path14"
       d="m 301,76 h 90 v 20 h -90 z"
       style="fill:#f5f5f5;fill-opacity:1;fill-rule:nonzero;stroke:#666666;stroke-width:1;stroke-linecap:butt;stroke-linejoin:miter;stroke-miterlimit:10;stroke-dasharray:none;stroke-opacity:1"
       transform="matrix(0.95592274,0,0,0.95592274,0.47796137,0.47796137)"
       clip-path="url(#clipPath15)" />
    <text
       id="text15"
       xml:space="preserve"
       transform="matrix(0.95593228,0,0,0.95593228,317.04092,86.033905)"
       clip-path="url(#clipPath16)"><tspan
         style="font-style:oblique;font-variant:normal;font-weight:normal;font-size:12px;font-family:Helvetica;writing-mode:lr-tb;fill:#333333;fill-opacity:1;fill-rule:nonzero;stroke:none"
         x="0 6.6738281 16.669922 23.34375 26.009766"
         y="0"
         sodipodi:role="line"
         id="tspan15">email</tspan></text>
    <path
       id="path17"
       d="m 391,76 h 80 v 20 h -80 z"
       style="fill:#f5f5f5;fill-opacity:1;fill-rule:nonzero;stroke:#666666;stroke-width:1;stroke-linecap:butt;stroke-linejoin:miter;stroke-miterlimit:10;stroke-dasharray:none;stroke-opacity:1"
       transform="matrix(0.95592274,0,0,0.95592274,0.47796137,0.47796137)"
       clip-path="url(#clipPath18)" />
    <text
       id="text18"
       xml:space="preserve"
       transform="matrix(0.95593228,0,0,0.95593228,387.4513,86.033905)"
       clip-path="url(#clipPath19)"><tspan
         style="font-style:oblique;font-variant:normal;font-weight:normal;font-size:12px;font-family:Helvetica;writing-mode:lr-tb;fill:#333333;fill-opacity:1;fill-rule:nonzero;stroke:none"
         x="0 6.6738281 13.347656 19.347656 25.347656 34.013672 40.6875 44.683594"
         y="0"
         sodipodi:role="line"
         id="tspan18">password</tspan></text>
    <path
       id="path20"
       d="m 261,96 h 40 v 20 h -40 z"
       style="fill:#ffffff;fill-opacity:1;fill-rule:nonzero;stroke:#000000;stroke-width:1;stroke-linecap:butt;stroke-linejoin:miter;stroke-miterlimit:10;stroke-dasharray:none;stroke-opacity:1"
       transform="matrix(0.95592274,0,0,0.95592274,0.47796137,0.47796137)"
       clip-path="url(#clipPath21)" />
    <text
       id="text21"
       xml:space="preserve"
       transform="matrix(0.95593228,0,0,0.95593228,265.42057,105.15255)"
       clip-path="url(#clipPath22)"><tspan
         style="font-variant:normal;font-weight:normal;font-size:12px;font-family:Helvetica;writing-mode:lr-tb;fill:#000000;fill-opacity:1;fill-rule:nonzero;stroke:none"
         x="0"
         y="0"
         id="tspan21">1</tspan></text>
    <path
       id="path23"
       d="m 301,96 h 90 v 20 h -90 z"
       style="fill:#ffffff;fill-opacity:1;fill-rule:nonzero;stroke:#000000;stroke-width:1;stroke-linecap:butt;stroke-linejoin:miter;stroke-miterlimit:10;stroke-dasharray:none;stroke-opacity:1"
       transform="matrix(0.95592274,0,0,0.95592274,0.47796137,0.47796137)"
       clip-path="url(#clipPath24)" />
    <text
       id="text24"
       xml:space="preserve"
       transform="matrix(0.95593228,0,0,0.95593228,294.14335,105.15255)"
       clip-path="url(#clipPath25)"><tspan
         style="font-variant:normal;font-weight:normal;font-size:11px;font-family:Helvetica;writing-mode:lr-tb;fill:#000000;fill-opacity:1;fill-rule:nonzero;stroke:none"
         x="0 6.1176758 11.617676 17.735352 20.791504 31.958008 38.075684 43.575684 49.693359 52.749512 55.805664 61.305664 67.42334"
         y="0"
         sodipodi:role="line"
         id="tspan24">asdf@asdf.com</tspan></text>
    <path
       id="path26"
       d="m 391,96 h 80 v 20 h -80 z"
       style="fill:#ffffff;fill-opacity:1;fill-rule:nonzero;stroke:#000000;stroke-width:1;stroke-linecap:butt;stroke-linejoin:miter;stroke-miterlimit:10;stroke-dasharray:none;stroke-opacity:1"
       transform="matrix(0.95592274,0,0,0.95592274,0.47796137,0.47796137)"
       clip-path="url(#clipPath27)" />
    <text
       id="text27"
       xml:space="preserve"
       transform="matrix(0.95593228,0,0,0.95593228,393.29146,105.15255)"
       clip-path="url(#clipPath28)"><tspan
         style="font-variant:normal;font-weight:normal;font-size:11px;font-family:Helvetica;writing-mode:lr-tb;fill:#000000;fill-opacity:1;fill-rule:nonzero;stroke:none"
         x="0 6.1176758 11.617676 17.735352 20.791504 26.90918 33.026855"
         y="0"
         sodipodi:role="line"
         id="tspan27">asdfgaa</tspan></text>
    <path
       id="path29"
       d="M 11,46 H 221 V 76 H 11 Z"
       style="fill:#d5e8d4;fill-opacity:1;fill-rule:nonzero;stroke:#82b366;stroke-width:1;stroke-linecap:butt;stroke-linejoin:miter;stroke-miterlimit:10;stroke-dasharray:none;stroke-opacity:1"
       transform="matrix(0.95592274,0,0,0.95592274,0.47796137,0.47796137)"
       clip-path="url(#clipPath30)" />
    <text
       id="text30"
       xml:space="preserve"
       transform="matrix(0.95593228,0,0,0.95593228,60.895874,64.047463)"
       clip-path="url(#clipPath31)"><tspan
         style="font-variant:normal;font-weight:normal;font-size:17px;font-family:Helvetica;writing-mode:lr-tb;fill:#000000;fill-opacity:1;fill-rule:nonzero;stroke:none"
         x="0 12.276855 21.731445 31.186035 40.640625 46.301758 51.024902 59.524902 63.949219 72.449219 81.903809 91.358398 95.135254"
         y="0"
         sodipodi:role="line"
         id="tspan30">Reports Table</tspan></text>
    <path
       id="path32"
       d="M 11,76 H 51 V 96 H 11 Z"
       style="fill:#f5f5f5;fill-opacity:1;fill-rule:nonzero;stroke:#666666;stroke-width:1;stroke-linecap:butt;stroke-linejoin:miter;stroke-miterlimit:10;stroke-dasharray:none;stroke-opacity:1"
       transform="matrix(0.95592274,0,0,0.95592274,0.47796137,0.47796137)"
       clip-path="url(#clipPath33)" />
    <text
       id="text33"
       xml:space="preserve"
       transform="matrix(0.95593228,0,0,0.95593228,25.167905,86.033905)"
       clip-path="url(#clipPath34)"><tspan
         style="font-style:oblique;font-variant:normal;font-weight:normal;font-size:12px;font-family:Helvetica;writing-mode:lr-tb;fill:#333333;fill-opacity:1;fill-rule:nonzero;stroke:none"
         x="0 2.6660156"
         y="0"
         sodipodi:role="line"
         id="tspan33">id</tspan></text>
    <path
       id="path35"
       d="M 51,76 H 98 V 96 H 51 Z"
       style="fill:#f5f5f5;fill-opacity:1;fill-rule:nonzero;stroke:#666666;stroke-width:1;stroke-linecap:butt;stroke-linejoin:miter;stroke-miterlimit:10;stroke-dasharray:none;stroke-opacity:1"
       transform="matrix(0.95592274,0,0,0.95592274,0.47796137,0.47796137)"
       clip-path="url(#clipPath36)" />
    <text
       id="text36"
       xml:space="preserve"
       transform="matrix(0.95593228,0,0,0.95593228,57.191636,86.033905)"
       clip-path="url(#clipPath37)"><tspan
         style="font-style:oblique;font-variant:normal;font-weight:normal;font-size:12px;font-family:Helvetica;writing-mode:lr-tb;fill:#333333;fill-opacity:1;fill-rule:nonzero;stroke:none"
         x="0 9.9960938 16.669922 22.669922"
         y="0"
         sodipodi:role="line"
         id="tspan36">make</tspan></text>
    <path
       id="path38"
       d="m 141,76 h 80 v 20 h -80 z"
       style="fill:#f5f5f5;fill-opacity:1;fill-rule:nonzero;stroke:#666666;stroke-width:1;stroke-linecap:butt;stroke-linejoin:miter;stroke-miterlimit:10;stroke-dasharray:none;stroke-opacity:1"
       transform="matrix(0.95592274,0,0,0.95592274,0.47796137,0.47796137)"
       clip-path="url(#clipPath39)" />
    <text
       id="text39"
       xml:space="preserve"
       transform="matrix(0.95593228,0,0,0.95593228,154.20383,86.033905)"
       clip-path="url(#clipPath40)"><tspan
         style="font-style:oblique;font-variant:normal;font-weight:normal;font-size:12px;font-family:Helvetica;writing-mode:lr-tb;fill:#333333;fill-opacity:1;fill-rule:nonzero;stroke:none"
         x="0 6.6738281 12.673828 19.347656 23.34375 30.017578 32.683594"
         y="0"
         sodipodi:role="line"
         id="tspan39">user_id</tspan></text>
    <path
       id="path41"
       d="m 11,96 h 40 v 20 H 11 Z"
       style="fill:#ffffff;fill-opacity:1;fill-rule:nonzero;stroke:#000000;stroke-width:1;stroke-linecap:butt;stroke-linejoin:miter;stroke-miterlimit:10;stroke-dasharray:none;stroke-opacity:1"
       transform="matrix(0.95592274,0,0,0.95592274,0.47796137,0.47796137)"
       clip-path="url(#clipPath42)" />
    <text
       id="text42"
       xml:space="preserve"
       transform="matrix(0.95593228,0,0,0.95593228,26.437502,105.15255)"
       clip-path="url(#clipPath43)"><tspan
         style="font-variant:normal;font-weight:normal;font-size:12px;font-family:Helvetica;writing-mode:lr-tb;fill:#000000;fill-opacity:1;fill-rule:nonzero;stroke:none"
         x="0"
         y="0"
         id="tspan42">1</tspan></text>
    <path
       id="path44"
       d="m 51,96 h 47 v 20 H 51 Z"
       style="fill:#ffffff;fill-opacity:1;fill-rule:nonzero;stroke:#000000;stroke-width:1;stroke-linecap:butt;stroke-linejoin:miter;stroke-miterlimit:10;stroke-dasharray:none;stroke-opacity:1"
       transform="matrix(0.95592274,0,0,0.95592274,0.47796137,0.47796137)"
       clip-path="url(#clipPath45)" />
    <text
       id="text45"
       xml:space="preserve"
       transform="matrix(0.95593228,0,0,0.95593228,59.491848,104.19662)"
       clip-path="url(#clipPath46)"><tspan
         style="font-variant:normal;font-weight:normal;font-size:9px;font-family:Helvetica;writing-mode:lr-tb;fill:#000000;fill-opacity:1;fill-rule:nonzero;stroke:none"
         x="0 2.5004883 7.5058594 12.005859 17.01123 19.511719"
         y="0"
         sodipodi:role="line"
         id="tspan45">toyota</tspan></text>
    <path
       id="path47"
       d="m 221,106 h 33.63"
       style="fill:none;stroke:#000000;stroke-width:1;stroke-linecap:butt;stroke-linejoin:miter;stroke-miterlimit:10;stroke-dasharray:none;stroke-opacity:1"
       transform="matrix(0.95592274,0,0,0.95592274,0.47796137,0.47796137)"
       clip-path="url(#clipPath48)" />
    <path
       id="path49"
       d="m 259.88,106 -7,3.5 1.75,-3.5 -1.75,-3.5 z"
       style="fill:#000000;fill-opacity:1;fill-rule:nonzero;stroke:#000000;stroke-width:1;stroke-linecap:butt;stroke-linejoin:miter;stroke-miterlimit:10;stroke-dasharray:none;stroke-opacity:1"
       transform="matrix(0.95592274,0,0,0.95592274,0.47796137,0.47796137)"
       clip-path="url(#clipPath50)" />
    <path
       id="path51"
       d="m 141,96 h 80 v 20 h -80 z"
       style="fill:#ffffff;fill-opacity:1;fill-rule:nonzero;stroke:#000000;stroke-width:1;stroke-linecap:butt;stroke-linejoin:miter;stroke-miterlimit:10;stroke-dasharray:none;stroke-opacity:1"
       transform="matrix(0.95592274,0,0,0.95592274,0.47796137,0.47796137)"
       clip-path="url(#clipPath52)" />
    <text
       id="text52"
       xml:space="preserve"
       transform="matrix(0.95593228,0,0,0.95593228,170.0962,105.15255)"
       clip-path="url(#clipPath53)"><tspan
         style="font-variant:normal;font-weight:normal;font-size:11px;font-family:Helvetica;writing-mode:lr-tb;fill:#000000;fill-opacity:1;fill-rule:nonzero;stroke:none"
         x="0"
         y="0"
         id="tspan52">1</tspan></text>
    <path
       id="path54"
       d="m 11,116 h 40 v 20 H 11 Z"
       style="fill:#ffffff;fill-opacity:1;fill-rule:nonzero;stroke:#000000;stroke-width:1;stroke-linecap:butt;stroke-linejoin:miter;stroke-miterlimit:10;stroke-dasharray:none;stroke-opacity:1"
       transform="matrix(0.95592274,0,0,0.95592274,0.47796137,0.47796137)"
       clip-path="url(#clipPath55)" />
    <text
       id="text55"
       xml:space="preserve"
       transform="matrix(0.95593228,0,0,0.95593228,26.437502,124.2712)"
       clip-path="url(#clipPath56)"><tspan
         style="font-variant:normal;font-weight:normal;font-size:12px;font-family:Helvetica;writing-mode:lr-tb;fill:#000000;fill-opacity:1;fill-rule:nonzero;stroke:none"
         x="0"
         y="0"
         id="tspan55">2</tspan></text>
    <path
       id="path57"
       d="m 51,116 h 47 v 20 H 51 Z"
       style="fill:#ffffff;fill-opacity:1;fill-rule:nonzero;stroke:#000000;stroke-width:1;stroke-linecap:butt;stroke-linejoin:miter;stroke-miterlimit:10;stroke-dasharray:none;stroke-opacity:1"
       transform="matrix(0.95592274,0,0,0.95592274,0.47796137,0.47796137)"
       clip-path="url(#clipPath58)" />
    <text
       id="text58"
       xml:space="preserve"
       transform="matrix(0.95593228,0,0,0.95593228,63.793543,123.31526)"
       clip-path="url(#clipPath59)"><tspan
         style="font-variant:normal;font-weight:normal;font-size:9px;font-family:Helvetica;writing-mode:lr-tb;fill:#000000;fill-opacity:1;fill-rule:nonzero;stroke:none"
         x="0 2.5004883 7.5058594 10.50293"
         y="0"
         sodipodi:role="line"
         id="tspan58">ford</tspan></text>
    <path
       id="path60"
       d="m 221,126 h 20 v -20 h 13.63"
       style="fill:none;stroke:#000000;stroke-width:1;stroke-linecap:butt;stroke-linejoin:miter;stroke-miterlimit:10;stroke-dasharray:none;stroke-opacity:1"
       transform="matrix(0.95592274,0,0,0.95592274,0.47796137,0.47796137)"
       clip-path="url(#clipPath61)" />
    <path
       id="path62"
       d="m 259.88,106 -7,3.5 1.75,-3.5 -1.75,-3.5 z"
       style="fill:#000000;fill-opacity:1;fill-rule:nonzero;stroke:#000000;stroke-width:1;stroke-linecap:butt;stroke-linejoin:miter;stroke-miterlimit:10;stroke-dasharray:none;stroke-opacity:1"
       transform="matrix(0.95592274,0,0,0.95592274,0.47796137,0.47796137)"
       clip-path="url(#clipPath63)" />
    <path
       id="path64"
       d="m 141,116 h 80 v 20 h -80 z"
       style="fill:#ffffff;fill-opacity:1;fill-rule:nonzero;stroke:#000000;stroke-width:1;stroke-linecap:butt;stroke-linejoin:miter;stroke-miterlimit:10;stroke-dasharray:none;stroke-opacity:1"
       transform="matrix(0.95592274,0,0,0.95592274,0.47796137,0.47796137)"
       clip-path="url(#clipPath65)" />
    <text
       id="text65"
       xml:space="preserve"
       transform="matrix(0.95593228,0,0,0.95593228,170.0962,124.2712)"
       clip-path="url(#clipPath66)"><tspan
         style="font-variant:normal;font-weight:normal;font-size:11px;font-family:Helvetica;writing-mode:lr-tb;fill:#000000;fill-opacity:1;fill-rule:nonzero;stroke:none"
         x="0"
         y="0"
         id="tspan65">1</tspan></text>
    <path
       id="path67"
       d="m 11,156 h 40 v 20 H 11 Z"
       style="fill:#ffffff;fill-opacity:1;fill-rule:nonzero;stroke:#000000;stroke-width:1;stroke-linecap:butt;stroke-linejoin:miter;stroke-miterlimit:10;stroke-dasharray:none;stroke-opacity:1"
       transform="matrix(0.95592274,0,0,0.95592274,0.47796137,0.47796137)"
       clip-path="url(#clipPath68)" />
    <path
       id="path69"
       d="m 51,156 h 47 v 20 H 51 Z"
       style="fill:#ffffff;fill-opacity:1;fill-rule:nonzero;stroke:#000000;stroke-width:1;stroke-linecap:butt;stroke-linejoin:miter;stroke-miterlimit:10;stroke-dasharray:none;stroke-opacity:1"
       transform="matrix(0.95592274,0,0,0.95592274,0.47796137,0.47796137)"
       clip-path="url(#clipPath70)" />
    <path
       id="path71"
       d="m 141,156 h 80 v 20 h -80 z"
       style="fill:#ffffff;fill-opacity:1;fill-rule:nonzero;stroke:#000000;stroke-width:1;stroke-linecap:butt;stroke-linejoin:miter;stroke-miterlimit:10;stroke-dasharray:none;stroke-opacity:1"
       transform="matrix(0.95592274,0,0,0.95592274,0.47796137,0.47796137)"
       clip-path="url(#clipPath72)" />
    <path
       id="path73"
       d="m 11,136 h 40 v 20 H 11 Z"
       style="fill:#ffffff;fill-opacity:1;fill-rule:nonzero;stroke:#000000;stroke-width:1;stroke-linecap:butt;stroke-linejoin:miter;stroke-miterlimit:10;stroke-dasharray:none;stroke-opacity:1"
       transform="matrix(0.95592274,0,0,0.95592274,0.47796137,0.47796137)"
       clip-path="url(#clipPath74)" />
    <text
       id="text74"
       xml:space="preserve"
       transform="matrix(0.95593228,0,0,0.95593228,26.437502,143.38984)"
       clip-path="url(#clipPath75)"><tspan
         style="font-variant:normal;font-weight:normal;font-size:12px;font-family:Helvetica;writing-mode:lr-tb;fill:#000000;fill-opacity:1;fill-rule:nonzero;stroke:none"
         x="0"
         y="0"
         id="tspan74">3</tspan></text>
    <path
       id="path76"
       d="m 51,136 h 47 v 20 H 51 Z"
       style="fill:#ffffff;fill-opacity:1;fill-rule:nonzero;stroke:#000000;stroke-width:1;stroke-linecap:butt;stroke-linejoin:miter;stroke-miterlimit:10;stroke-dasharray:none;stroke-opacity:1"
       transform="matrix(0.95592274,0,0,0.95592274,0.47796137,0.47796137)"
       clip-path="url(#clipPath77)" />
    <text
       id="text77"
       xml:space="preserve"
       transform="matrix(0.95593228,0,0,0.95593228,63.076594,142.43391)"
       clip-path="url(#clipPath78)"><tspan
         style="font-variant:normal;font-weight:normal;font-size:9px;font-family:Helvetica;writing-mode:lr-tb;fill:#000000;fill-opacity:1;fill-rule:nonzero;stroke:none"
         x="0 5.0053711 9.5053711 14.510742"
         y="0"
         sodipodi:role="line"
         id="tspan77">asdf</tspan></text>
    <path
       id="path79"
       d="m 141,136 h 80 v 20 h -80 z"
       style="fill:#ffffff;fill-opacity:1;fill-rule:nonzero;stroke:#000000;stroke-width:1;stroke-linecap:butt;stroke-linejoin:miter;stroke-miterlimit:10;stroke-dasharray:none;stroke-opacity:1"
       transform="matrix(0.95592274,0,0,0.95592274,0.47796137,0.47796137)"
       clip-path="url(#clipPath80)" />
    <text
       id="text80"
       xml:space="preserve"
       transform="matrix(0.95593228,0,0,0.95593228,158.40097,143.38984)"
       clip-path="url(#clipPath81)"><tspan
         style="font-variant:normal;font-weight:normal;font-size:11px;font-family:Helvetica;writing-mode:lr-tb;fill:#000000;fill-opacity:1;fill-rule:nonzero;stroke:none"
         x="0 6.1176758 12.235352 18.353027 24.470703"
         y="0"
         sodipodi:role="line"
         id="tspan80">23455</tspan></text>
    <path
       id="path82"
       d="m 98,76 h 43 V 96 H 98 Z"
       style="fill:#f5f5f5;fill-opacity:1;fill-rule:nonzero;stroke:#666666;stroke-width:1;stroke-linecap:butt;stroke-linejoin:miter;stroke-miterlimit:10;stroke-dasharray:none;stroke-opacity:1"
       transform="matrix(0.95592274,0,0,0.95592274,0.47796137,0.47796137)"
       clip-path="url(#clipPath83)" />
    <text
       id="text83"
       xml:space="preserve"
       transform="matrix(0.95593228,0,0,0.95593228,109.43931,86.033905)"
       clip-path="url(#clipPath84)"><tspan
         style="font-style:oblique;font-variant:normal;font-weight:normal;font-size:12px;font-family:Helvetica;writing-mode:lr-tb;fill:#333333;fill-opacity:1;fill-rule:nonzero;stroke:none"
         x="0 3.3339844 6.6679688"
         y="0"
         sodipodi:role="line"
         id="tspan83">...</tspan></text>
    <path
       id="path85"
       d="m 98,96 h 43 v 20 H 98 Z"
       style="fill:#ffffff;fill-opacity:1;fill-rule:nonzero;stroke:#000000;stroke-width:1;stroke-linecap:butt;stroke-linejoin:miter;stroke-miterlimit:10;stroke-dasharray:none;stroke-opacity:1"
       transform="matrix(0.95592274,0,0,0.95592274,0.47796137,0.47796137)"
       clip-path="url(#clipPath86)" />
    <text
       id="text86"
       xml:space="preserve"
       transform="matrix(0.95593228,0,0,0.95593228,94.353503,105.15255)"
       clip-path="url(#clipPath87)"><tspan
         style="font-variant:normal;font-weight:normal;font-size:11px;font-family:Helvetica;writing-mode:lr-tb;fill:#000000;fill-opacity:1;fill-rule:nonzero;stroke:none"
         x="0 6.1176758 11.617676 17.735352 20.791504 26.90918 32.40918 38.526855"
         y="0"
         sodipodi:role="line"
         id="tspan86">asdfasdf</tspan></text>
    <path
       id="path88"
       d="m 98,116 h 43 v 20 H 98 Z"
       style="fill:#ffffff;fill-opacity:1;fill-rule:nonzero;stroke:#000000;stroke-width:1;stroke-linecap:butt;stroke-linejoin:miter;stroke-miterlimit:10;stroke-dasharray:none;stroke-opacity:1"
       transform="matrix(0.95592274,0,0,0.95592274,0.47796137,0.47796137)"
       clip-path="url(#clipPath89)" />
    <text
       id="text89"
       xml:space="preserve"
       transform="matrix(0.95593228,0,0,0.95593228,102.25488,124.2712)"
       clip-path="url(#clipPath90)"><tspan
         style="font-variant:normal;font-weight:normal;font-size:11px;font-family:Helvetica;writing-mode:lr-tb;fill:#000000;fill-opacity:1;fill-rule:nonzero;stroke:none"
         x="0 5.5 7.9438477 14.061523 19.561523 22.005371"
         y="0"
         sodipodi:role="line"
         id="tspan89">sldkjf</tspan></text>
    <path
       id="path91"
       d="m 98,156 h 43 v 20 H 98 Z"
       style="fill:#ffffff;fill-opacity:1;fill-rule:nonzero;stroke:#000000;stroke-width:1;stroke-linecap:butt;stroke-linejoin:miter;stroke-miterlimit:10;stroke-dasharray:none;stroke-opacity:1"
       transform="matrix(0.95592274,0,0,0.95592274,0.47796137,0.47796137)"
       clip-path="url(#clipPath92)" />
    <path
       id="path93"
       d="m 98,136 h 43 v 20 H 98 Z"
       style="fill:#ffffff;fill-opacity:1;fill-rule:nonzero;stroke:#000000;stroke-width:1;stroke-linecap:butt;stroke-linejoin:miter;stroke-miterlimit:10;stroke-dasharray:none;stroke-opacity:1"
       transform="matrix(0.95592274,0,0,0.95592274,0.47796137,0.47796137)"
       clip-path="url(#clipPath94)" />
    <text
       id="text94"
       xml:space="preserve"
       transform="matrix(0.95593228,0,0,0.95593228,104.28624,143.38984)"
       clip-path="url(#clipPath95)"><tspan
         style="font-variant:normal;font-weight:normal;font-size:11px;font-family:Helvetica;writing-mode:lr-tb;fill:#000000;fill-opacity:1;fill-rule:nonzero;stroke:none"
         x="0 6.1176758 11.617676 17.735352"
         y="0"
         sodipodi:role="line"
         id="tspan94">asdf</tspan></text>
    <path
       id="path96"
       d="m 73.5,211 h 335 v 50 h -335 z"
       style="fill:#f8cecc;fill-opacity:1;fill-rule:nonzero;stroke:#b85450;stroke-width:1;stroke-linecap:butt;stroke-linejoin:miter;stroke-miterlimit:10;stroke-dasharray:none;stroke-opacity:1"
       transform="matrix(0.95592274,0,0,0.95592274,0.47796137,0.47796137)"
       clip-path="url(#clipPath97)" />
    <text
       id="text97"
       xml:space="preserve"
       transform="matrix(0.95593228,0,0,0.95593228,87.661977,231.33561)"
       clip-path="url(#clipPath98)"><tspan
         style="font-variant:normal;font-weight:700;font-size:17px;font-family:Helvetica;writing-mode:lr-tb;fill:#000000;fill-opacity:1;fill-rule:nonzero;stroke:none"
         x="0 10.384277 20.768555 25.491699 34.946289 39.669434 44.392578 53.847168 58.570312 71.793457 82.177734 91.632324 97.293457 102.0166 115.23975 124.69434 129.41748 139.80176 149.25635 158.71094 169.09521 173.81836 178.5415 188.92578 193.64893 199.31006 209.69434 219.14893 223.87207 234.25635 243.71094 249.37207 258.82666 269.21094 278.66553 288.12012"
         y="0"
         sodipodi:role="line"
         id="tspan97">This is what we need in the database</tspan></text>
  </g>
</svg>
