<?xml version="1.0" encoding="UTF-8" standalone="no"?>
<!-- Created with Inkscape (http://www.inkscape.org/) -->

<svg
   version="1.1"
   id="svg1"
   width="326.72"
   height="274.56"
   viewBox="0 0 326.72 274.56"
   sodipodi:docname="nest-12.pdf"
   xmlns:inkscape="http://www.inkscape.org/namespaces/inkscape"
   xmlns:sodipodi="http://sodipodi.sourceforge.net/DTD/sodipodi-0.dtd"
   xmlns="http://www.w3.org/2000/svg"
   xmlns:svg="http://www.w3.org/2000/svg">
  <defs
     id="defs1">
    <clipPath
       clipPathUnits="userSpaceOnUse"
       id="clipPath2">
      <path
         d="M 0,0 H 1020.8332 V 856.18274 H 0 Z"
         transform="scale(0.33404084)"
         clip-rule="evenodd"
         id="path2" />
    </clipPath>
    <clipPath
       clipPathUnits="userSpaceOnUse"
       id="clipPath4">
      <path
         d="M 0,0 H 1020.8332 V 856.18274 H 0 Z"
         transform="matrix(0.33404084,0,0,0.33404084,-0.49999999,-0.49999999)"
         clip-rule="evenodd"
         id="path4" />
    </clipPath>
    <clipPath
       clipPathUnits="userSpaceOnUse"
       id="clipPath5">
      <path
         d="M 0,0 H 1020.8332 V 856.18274 H 0 Z"
         transform="matrix(0.33403749,0,0,0.33403749,-47.875,-149)"
         clip-rule="evenodd"
         id="path5" />
    </clipPath>
    <clipPath
       clipPathUnits="userSpaceOnUse"
       id="clipPath7">
      <path
         d="M 0,0 H 1020.8332 V 856.18274 H 0 Z"
         transform="matrix(0.33404084,0,0,0.33404084,-0.49999999,-0.49999999)"
         clip-rule="evenodd"
         id="path7" />
    </clipPath>
    <clipPath
       clipPathUnits="userSpaceOnUse"
       id="clipPath8">
      <path
         d="M 0,0 H 1020.8332 V 856.18274 H 0 Z"
         transform="matrix(0.33403749,0,0,0.33403749,-238.375,-79)"
         clip-rule="evenodd"
         id="path8" />
    </clipPath>
    <clipPath
       clipPathUnits="userSpaceOnUse"
       id="clipPath10">
      <path
         d="M 0,0 H 1020.8332 V 856.18274 H 0 Z"
         transform="matrix(0.33404084,0,0,0.33404084,-0.49999999,-0.49999999)"
         clip-rule="evenodd"
         id="path10" />
    </clipPath>
    <clipPath
       clipPathUnits="userSpaceOnUse"
       id="clipPath11">
      <path
         d="M 0,0 H 1020.8332 V 856.18274 H 0 Z"
         transform="matrix(0.33403749,0,0,0.33403749,-238.375,-149)"
         clip-rule="evenodd"
         id="path11" />
    </clipPath>
    <clipPath
       clipPathUnits="userSpaceOnUse"
       id="clipPath13">
      <path
         d="M 0,0 H 1020.8332 V 856.18274 H 0 Z"
         transform="matrix(0.33404084,0,0,0.33404084,-0.49999999,-0.49999999)"
         clip-rule="evenodd"
         id="path13" />
    </clipPath>
    <clipPath
       clipPathUnits="userSpaceOnUse"
       id="clipPath14">
      <path
         d="M 0,0 H 1020.8332 V 856.18274 H 0 Z"
         transform="matrix(0.33403749,0,0,0.33403749,-238.375,-219)"
         clip-rule="evenodd"
         id="path14" />
    </clipPath>
    <clipPath
       clipPathUnits="userSpaceOnUse"
       id="clipPath16">
      <path
         d="M 0,0 H 1020.8332 V 856.18274 H 0 Z"
         transform="matrix(0.33404084,0,0,0.33404084,-0.49999999,-0.49999999)"
         clip-rule="evenodd"
         id="path16" />
    </clipPath>
    <clipPath
       clipPathUnits="userSpaceOnUse"
       id="clipPath18">
      <path
         d="M 0,0 H 1020.8332 V 856.18274 H 0 Z"
         transform="matrix(0.33404084,0,0,0.33404084,-0.49999999,-0.49999999)"
         clip-rule="evenodd"
         id="path18" />
    </clipPath>
    <clipPath
       clipPathUnits="userSpaceOnUse"
       id="clipPath20">
      <path
         d="M 0,0 H 1020.8332 V 856.18274 H 0 Z"
         transform="matrix(0.33404084,0,0,0.33404084,-0.49999999,-0.49999999)"
         clip-rule="evenodd"
         id="path20" />
    </clipPath>
    <clipPath
       clipPathUnits="userSpaceOnUse"
       id="clipPath21">
      <path
         d="M 0,0 H 1020.8332 V 856.18274 H 0 Z"
         transform="matrix(0.33403749,0,0,0.33403749,-68.25,-19)"
         clip-rule="evenodd"
         id="path21" />
    </clipPath>
    <clipPath
       clipPathUnits="userSpaceOnUse"
       id="clipPath23">
      <path
         d="M 0,0 H 1020.8332 V 856.18274 H 0 Z"
         transform="matrix(0.33404084,0,0,0.33404084,-0.49999999,-0.49999999)"
         clip-rule="evenodd"
         id="path23" />
    </clipPath>
    <clipPath
       clipPathUnits="userSpaceOnUse"
       id="clipPath25">
      <path
         d="M 0,0 H 1020.8332 V 856.18274 H 0 Z"
         transform="matrix(0.33404084,0,0,0.33404084,-0.49999999,-0.49999999)"
         clip-rule="evenodd"
         id="path25" />
    </clipPath>
    <clipPath
       clipPathUnits="userSpaceOnUse"
       id="clipPath26">
      <path
         d="M 0,0 H 1020.8332 V 856.18274 H 0 Z"
         transform="matrix(0.33403749,0,0,0.33403749,-68.375,-279)"
         clip-rule="evenodd"
         id="path26" />
    </clipPath>
  </defs>
  <sodipodi:namedview
     id="namedview1"
     pagecolor="#ffffff"
     bordercolor="#000000"
     borderopacity="0.25"
     inkscape:showpageshadow="2"
     inkscape:pageopacity="0.0"
     inkscape:pagecheckerboard="0"
     inkscape:deskcolor="#d1d1d1">
    <inkscape:page
       x="0"
       y="0"
       inkscape:label="1"
       id="page1"
       width="326.72"
       height="274.56"
       margin="0"
       bleed="0" />
  </sodipodi:namedview>
  <g
     id="g1"
     inkscape:groupmode="layer"
     inkscape:label="1">
    <path
       id="path1"
       d="M 0,0 H 341 V 286 H 0 Z"
       style="fill:#ffffff;fill-opacity:1;fill-rule:nonzero;stroke:none"
       transform="scale(0.95796665)"
       clip-path="url(#clipPath2)" />
    <path
       id="path3"
       d="m 9,112 h 120 v 60 H 9 Z"
       style="fill:#dae8fc;fill-opacity:1;fill-rule:nonzero;stroke:#6c8ebf;stroke-width:1;stroke-linecap:butt;stroke-linejoin:miter;stroke-miterlimit:10;stroke-dasharray:none;stroke-opacity:1"
       transform="matrix(0.95796665,0,0,0.95796665,0.47898332,0.47898332)"
       clip-path="url(#clipPath4)" />
    <text
       id="text4"
       xml:space="preserve"
       transform="matrix(0.95797625,0,0,0.95797625,45.863113,142.73846)"
       clip-path="url(#clipPath5)"><tspan
         style="font-variant:normal;font-weight:700;font-size:19px;font-family:Helvetica;writing-mode:lr-tb;fill:#000000;fill-opacity:1;fill-rule:nonzero;stroke:none"
         x="0 13.721191 24.288086 34.85498"
         y="0"
         sodipodi:role="line"
         id="tspan4">User</tspan></text>
    <path
       id="path6"
       d="m 209,42 h 120 v 60 H 209 Z"
       style="fill:#dae8fc;fill-opacity:1;fill-rule:nonzero;stroke:#6c8ebf;stroke-width:1;stroke-linecap:butt;stroke-linejoin:miter;stroke-miterlimit:10;stroke-dasharray:none;stroke-opacity:1"
       transform="matrix(0.95796665,0,0,0.95796665,0.47898332,0.47898332)"
       clip-path="url(#clipPath7)" />
    <text
       id="text7"
       xml:space="preserve"
       transform="matrix(0.95797625,0,0,0.95797625,228.35759,75.680124)"
       clip-path="url(#clipPath8)"><tspan
         style="font-variant:normal;font-weight:700;font-size:19px;font-family:Helvetica;writing-mode:lr-tb;fill:#000000;fill-opacity:1;fill-rule:nonzero;stroke:none"
         x="0 13.721191 24.288086 35.894043 47.5 54.894043"
         y="0"
         sodipodi:role="line"
         id="tspan7">Report</tspan></text>
    <path
       id="path9"
       d="m 209,112 h 120 v 60 H 209 Z"
       style="fill:#dae8fc;fill-opacity:1;fill-rule:nonzero;stroke:#6c8ebf;stroke-width:1;stroke-linecap:butt;stroke-linejoin:miter;stroke-miterlimit:10;stroke-dasharray:none;stroke-opacity:1"
       transform="matrix(0.95796665,0,0,0.95796665,0.47898332,0.47898332)"
       clip-path="url(#clipPath10)" />
    <text
       id="text10"
       xml:space="preserve"
       transform="matrix(0.95797625,0,0,0.95797625,228.35759,142.73846)"
       clip-path="url(#clipPath11)"><tspan
         style="font-variant:normal;font-weight:700;font-size:19px;font-family:Helvetica;writing-mode:lr-tb;fill:#000000;fill-opacity:1;fill-rule:nonzero;stroke:none"
         x="0 13.721191 24.288086 35.894043 47.5 54.894043"
         y="0"
         sodipodi:role="line"
         id="tspan10">Report</tspan></text>
    <path
       id="path12"
       d="m 209,182 h 120 v 60 H 209 Z"
       style="fill:#dae8fc;fill-opacity:1;fill-rule:nonzero;stroke:#6c8ebf;stroke-width:1;stroke-linecap:butt;stroke-linejoin:miter;stroke-miterlimit:10;stroke-dasharray:none;stroke-opacity:1"
       transform="matrix(0.95796665,0,0,0.95796665,0.47898332,0.47898332)"
       clip-path="url(#clipPath13)" />
    <text
       id="text13"
       xml:space="preserve"
       transform="matrix(0.95797625,0,0,0.95797625,228.35759,209.7968)"
       clip-path="url(#clipPath14)"><tspan
         style="font-variant:normal;font-weight:700;font-size:19px;font-family:Helvetica;writing-mode:lr-tb;fill:#000000;fill-opacity:1;fill-rule:nonzero;stroke:none"
         x="0 13.721191 24.288086 35.894043 47.5 54.894043"
         y="0"
         sodipodi:role="line"
         id="tspan13">Report</tspan></text>
    <path
       id="path15"
       d="m 199,42 h -25 c -6.66667,0 -10,3.333332 -10,10 v 80 c 0,6.66667 -3.33333,10 -10,10 h -15 c -6.66667,0 -6.66667,0 0,0 h 15 c 6.66667,0 10,3.33333 10,10 v 80 c 0,6.66667 3.33333,10 10,10 h 25"
       style="fill:none;stroke:#000000;stroke-width:1;stroke-linecap:butt;stroke-linejoin:miter;stroke-miterlimit:10;stroke-dasharray:none;stroke-opacity:1"
       transform="matrix(0.95796665,0,0,0.95796665,0.47898332,0.47898332)"
       clip-path="url(#clipPath16)" />
    <path
       id="path17"
       d="M 9,32 H 318.89999"
       style="fill:none;stroke:#000000;stroke-width:1;stroke-linecap:butt;stroke-linejoin:miter;stroke-miterlimit:10;stroke-dasharray:none;stroke-opacity:1"
       transform="matrix(0.95796665,0,0,0.95796665,0.47898332,0.47898332)"
       clip-path="url(#clipPath18)" />
    <path
       id="path19"
       d="m 325.64999,32 -9,4.5 2.25,-4.5 -2.25,-4.5 z"
       style="fill:#000000;fill-opacity:1;fill-rule:nonzero;stroke:#000000;stroke-width:1;stroke-linecap:butt;stroke-linejoin:miter;stroke-miterlimit:10;stroke-dasharray:none;stroke-opacity:1"
       transform="matrix(0.95796665,0,0,0.95796665,0.47898332,0.47898332)"
       clip-path="url(#clipPath20)" />
    <text
       id="text20"
       xml:space="preserve"
       transform="matrix(0.95797625,0,0,0.95797625,65.381879,18.201549)"
       clip-path="url(#clipPath21)"><tspan
         style="font-variant:normal;font-weight:normal;font-size:19px;font-family:Helvetica;writing-mode:lr-tb;fill:#000000;fill-opacity:1;fill-rule:nonzero;stroke:none"
         x="0 11.633789 16.912598 30.633789 40.133789 50.700684 57.027832 62.306641 72.873535 83.44043 92.94043 98.219238 114.04639 124.61328 135.18018 144.68018 149.95898 163.68018 174.24707 184.81396 195.38086 201.70801 206.98682"
         y="0"
         sodipodi:role="line"
         id="tspan20">A User has many Reports</tspan></text>
    <path
       id="path22"
       d="M 329,252 H 19.1"
       style="fill:none;stroke:#000000;stroke-width:1;stroke-linecap:butt;stroke-linejoin:miter;stroke-miterlimit:10;stroke-dasharray:none;stroke-opacity:1"
       transform="matrix(0.95796665,0,0,0.95796665,0.47898332,0.47898332)"
       clip-path="url(#clipPath23)" />
    <path
       id="path24"
       d="m 12.35,252 9,-4.5 -2.25,4.5 2.25,4.5 z"
       style="fill:#000000;fill-opacity:1;fill-rule:nonzero;stroke:#000000;stroke-width:1;stroke-linecap:butt;stroke-linejoin:miter;stroke-miterlimit:10;stroke-dasharray:none;stroke-opacity:1"
       transform="matrix(0.95796665,0,0,0.95796665,0.47898332,0.47898332)"
       clip-path="url(#clipPath25)" />
    <text
       id="text25"
       xml:space="preserve"
       transform="matrix(0.95797625,0,0,0.95797625,65.501626,267.27537)"
       clip-path="url(#clipPath26)"><tspan
         style="font-variant:normal;font-weight:normal;font-size:19px;font-family:Helvetica;writing-mode:lr-tb;fill:#000000;fill-opacity:1;fill-rule:nonzero;stroke:none"
         x="0 11.633789 16.912598 30.633789 41.200684 51.767578 62.334473 68.661621 73.94043 79.219238 89.786133 100.35303 109.85303 115.13184 125.69873 136.26562 146.83252 152.11133 165.83252 175.33252 185.89941"
         y="0"
         sodipodi:role="line"
         id="tspan25">A Report has one User</tspan></text>
  </g>
</svg>
