<?xml version="1.0" encoding="UTF-8" standalone="no"?>
<!-- Created with Inkscape (http://www.inkscape.org/) -->

<svg
   version="1.1"
   id="svg1"
   width="521.27997"
   height="330.56"
   viewBox="0 0 521.27997 330.56"
   sodipodi:docname="nest-13.pdf"
   xmlns:inkscape="http://www.inkscape.org/namespaces/inkscape"
   xmlns:sodipodi="http://sodipodi.sourceforge.net/DTD/sodipodi-0.dtd"
   xmlns="http://www.w3.org/2000/svg"
   xmlns:svg="http://www.w3.org/2000/svg">
  <defs
     id="defs1">
    <clipPath
       clipPathUnits="userSpaceOnUse"
       id="clipPath2">
      <path
         d="M 0,0 H 1629.1666 V 1033.2031 H 0 Z"
         transform="scale(0.33391306)"
         clip-rule="evenodd"
         id="path2" />
    </clipPath>
    <clipPath
       clipPathUnits="userSpaceOnUse"
       id="clipPath4">
      <path
         d="M 0,0 H 1629.1666 V 1030.2083 H 0 Z"
         transform="matrix(0.33391306,0,0,0.33391306,-0.5,-0.5)"
         clip-rule="evenodd"
         id="path4" />
    </clipPath>
    <clipPath
       clipPathUnits="userSpaceOnUse"
       id="clipPath5">
      <path
         d="M 0,0 H 1629.1666 V 1030.2083 H 0 Z"
         transform="matrix(0.33390972,0,0,0.33390972,-39.109376,-23)"
         clip-rule="evenodd"
         id="path5" />
    </clipPath>
    <clipPath
       clipPathUnits="userSpaceOnUse"
       id="clipPath7">
      <path
         d="M 0,0 H 1629.1666 V 1030.2083 H 0 Z"
         transform="matrix(0.33391306,0,0,0.33391306,-0.5,-0.5)"
         clip-rule="evenodd"
         id="path7" />
    </clipPath>
    <clipPath
       clipPathUnits="userSpaceOnUse"
       id="clipPath9">
      <path
         d="M 0,0 H 1629.1666 V 1030.2083 H 0 Z"
         transform="matrix(0.33391306,0,0,0.33391306,-0.5,-0.5)"
         clip-rule="evenodd"
         id="path9" />
    </clipPath>
    <clipPath
       clipPathUnits="userSpaceOnUse"
       id="clipPath11">
      <path
         d="M 0,0 H 1629.1666 V 1030.2083 H 0 Z"
         transform="matrix(0.33391306,0,0,0.33391306,-0.5,-0.5)"
         clip-rule="evenodd"
         id="path11" />
    </clipPath>
    <clipPath
       clipPathUnits="userSpaceOnUse"
       id="clipPath13">
      <path
         d="M 0,0 H 1629.1666 V 1030.2083 H 0 Z"
         transform="matrix(0.33391306,0,0,0.33391306,-0.5,-0.5)"
         clip-rule="evenodd"
         id="path13" />
    </clipPath>
    <clipPath
       clipPathUnits="userSpaceOnUse"
       id="clipPath14">
      <path
         d="M 0,0 H 1629.1666 V 1030.2083 H 0 Z"
         transform="matrix(0.33390972,0,0,0.33390972,-66.53125,-63)"
         clip-rule="evenodd"
         id="path14" />
    </clipPath>
    <clipPath
       clipPathUnits="userSpaceOnUse"
       id="clipPath16">
      <path
         d="M 0,0 H 1629.1666 V 1030.2083 H 0 Z"
         transform="matrix(0.33391306,0,0,0.33391306,-0.5,-0.5)"
         clip-rule="evenodd"
         id="path16" />
    </clipPath>
    <clipPath
       clipPathUnits="userSpaceOnUse"
       id="clipPath18">
      <path
         d="M 0,0 H 1629.1666 V 1030.2083 H 0 Z"
         transform="matrix(0.33391306,0,0,0.33391306,-0.5,-0.5)"
         clip-rule="evenodd"
         id="path18" />
    </clipPath>
    <clipPath
       clipPathUnits="userSpaceOnUse"
       id="clipPath19">
      <path
         d="M 0,0 H 1629.1666 V 1030.2083 H 0 Z"
         transform="matrix(0.33390972,0,0,0.33390972,-65.40625,-108)"
         clip-rule="evenodd"
         id="path19" />
    </clipPath>
    <clipPath
       clipPathUnits="userSpaceOnUse"
       id="clipPath21">
      <path
         d="M 0,0 H 1629.1666 V 1030.2083 H 0 Z"
         transform="matrix(0.33391306,0,0,0.33391306,-0.5,-0.5)"
         clip-rule="evenodd"
         id="path21" />
    </clipPath>
    <clipPath
       clipPathUnits="userSpaceOnUse"
       id="clipPath22">
      <path
         d="M 0,0 H 1629.1666 V 1030.2083 H 0 Z"
         transform="matrix(0.33390972,0,0,0.33390972,-71.546875,-333)"
         clip-rule="evenodd"
         id="path22" />
    </clipPath>
    <clipPath
       clipPathUnits="userSpaceOnUse"
       id="clipPath24">
      <path
         d="M 0,0 H 1629.1666 V 1030.2083 H 0 Z"
         transform="matrix(0.33391306,0,0,0.33391306,-0.5,-0.5)"
         clip-rule="evenodd"
         id="path24" />
    </clipPath>
    <clipPath
       clipPathUnits="userSpaceOnUse"
       id="clipPath26">
      <path
         d="M 0,0 H 1629.1666 V 1030.2083 H 0 Z"
         transform="matrix(0.33391306,0,0,0.33391306,-0.5,-0.5)"
         clip-rule="evenodd"
         id="path26" />
    </clipPath>
    <clipPath
       clipPathUnits="userSpaceOnUse"
       id="clipPath28">
      <path
         d="M 0,0 H 1629.1666 V 1030.2083 H 0 Z"
         transform="matrix(0.33391306,0,0,0.33391306,-0.5,-0.5)"
         clip-rule="evenodd"
         id="path28" />
    </clipPath>
    <clipPath
       clipPathUnits="userSpaceOnUse"
       id="clipPath30">
      <path
         d="M 0,0 H 1629.1666 V 1030.2083 H 0 Z"
         transform="matrix(0.33391306,0,0,0.33391306,-0.5,-0.5)"
         clip-rule="evenodd"
         id="path30" />
    </clipPath>
    <clipPath
       clipPathUnits="userSpaceOnUse"
       id="clipPath31">
      <path
         d="M 0,0 H 1629.1666 V 1030.2083 H 0 Z"
         transform="matrix(0.33390972,0,0,0.33390972,-409.85938,-263)"
         clip-rule="evenodd"
         id="path31" />
    </clipPath>
    <clipPath
       clipPathUnits="userSpaceOnUse"
       id="clipPath33">
      <path
         d="M 0,0 H 1629.1666 V 1030.2083 H 0 Z"
         transform="matrix(0.33391306,0,0,0.33391306,-0.5,-0.5)"
         clip-rule="evenodd"
         id="path33" />
    </clipPath>
    <clipPath
       clipPathUnits="userSpaceOnUse"
       id="clipPath34">
      <path
         d="M 0,0 H 1629.1666 V 1030.2083 H 0 Z"
         transform="matrix(0.33390972,0,0,0.33390972,-252.29688,-230)"
         clip-rule="evenodd"
         id="path34" />
    </clipPath>
    <clipPath
       clipPathUnits="userSpaceOnUse"
       id="clipPath36">
      <path
         d="M 0,0 H 1629.1666 V 1030.2083 H 0 Z"
         transform="matrix(0.33391306,0,0,0.33391306,-0.5,-0.5)"
         clip-rule="evenodd"
         id="path36" />
    </clipPath>
    <clipPath
       clipPathUnits="userSpaceOnUse"
       id="clipPath37">
      <path
         d="M 0,0 H 1629.1666 V 1030.2083 H 0 Z"
         transform="matrix(0.33390972,0,0,0.33390972,-236.29688,-250)"
         clip-rule="evenodd"
         id="path37" />
    </clipPath>
    <clipPath
       clipPathUnits="userSpaceOnUse"
       id="clipPath39">
      <path
         d="M 0,0 H 1629.1666 V 1030.2083 H 0 Z"
         transform="matrix(0.33391306,0,0,0.33391306,-0.5,-0.5)"
         clip-rule="evenodd"
         id="path39" />
    </clipPath>
    <clipPath
       clipPathUnits="userSpaceOnUse"
       id="clipPath40">
      <path
         d="M 0,0 H 1629.1666 V 1030.2083 H 0 Z"
         transform="matrix(0.33390972,0,0,0.33390972,-66.53125,-233)"
         clip-rule="evenodd"
         id="path40" />
    </clipPath>
    <clipPath
       clipPathUnits="userSpaceOnUse"
       id="clipPath42">
      <path
         d="M 0,0 H 1629.1666 V 1030.2083 H 0 Z"
         transform="matrix(0.33391306,0,0,0.33391306,-0.5,-0.5)"
         clip-rule="evenodd"
         id="path42" />
    </clipPath>
    <clipPath
       clipPathUnits="userSpaceOnUse"
       id="clipPath44">
      <path
         d="M 0,0 H 1629.1666 V 1030.2083 H 0 Z"
         transform="matrix(0.33391306,0,0,0.33391306,-0.5,-0.5)"
         clip-rule="evenodd"
         id="path44" />
    </clipPath>
    <clipPath
       clipPathUnits="userSpaceOnUse"
       id="clipPath45">
      <path
         d="M 0,0 H 1629.1666 V 1030.2083 H 0 Z"
         transform="matrix(0.33390972,0,0,0.33390972,-65.40625,-278)"
         clip-rule="evenodd"
         id="path45" />
    </clipPath>
  </defs>
  <sodipodi:namedview
     id="namedview1"
     pagecolor="#ffffff"
     bordercolor="#000000"
     borderopacity="0.25"
     inkscape:showpageshadow="2"
     inkscape:pageopacity="0.0"
     inkscape:pagecheckerboard="0"
     inkscape:deskcolor="#d1d1d1">
    <inkscape:page
       x="0"
       y="0"
       inkscape:label="1"
       id="page1"
       width="521.27997"
       height="330.56"
       margin="0"
       bleed="0" />
  </sodipodi:namedview>
  <g
     id="g1"
     inkscape:groupmode="layer"
     inkscape:label="1">
    <path
       id="path1"
       d="M 0,0 H 544 V 345 H 0 Z"
       style="fill:#ffffff;fill-opacity:1;fill-rule:nonzero;stroke:none"
       transform="scale(0.95833324)"
       clip-path="url(#clipPath2)" />
    <path
       id="path3"
       d="M 1,1 H 211 V 31 H 1 Z"
       style="fill:#dae8fc;fill-opacity:1;fill-rule:nonzero;stroke:#6c8ebf;stroke-width:1;stroke-linecap:butt;stroke-linejoin:miter;stroke-miterlimit:10;stroke-dasharray:none;stroke-opacity:1"
       transform="matrix(0.95833324,0,0,0.95833324,0.47916662,0.47916662)"
       clip-path="url(#clipPath4)" />
    <text
       id="text4"
       xml:space="preserve"
       transform="matrix(0.95834284,0,0,0.95834284,37.48019,22.041885)"
       clip-path="url(#clipPath5)"><tspan
         style="font-variant:normal;font-weight:normal;font-size:20px;font-family:Helvetica;writing-mode:lr-tb;fill:#000000;fill-opacity:1;fill-rule:nonzero;stroke:none"
         x="0 11.503906 22.626953 33.75 40.410156 45.966797 60.410156 71.533203 88.193359 99.316406 110.43945 115.99609 127.11914"
         y="0"
         sodipodi:role="line"
         id="tspan4">Your Computer</tspan></text>
    <path
       id="path6"
       d="m 106,141 v 53.63"
       style="fill:none;stroke:#000000;stroke-width:1;stroke-linecap:butt;stroke-linejoin:miter;stroke-miterlimit:10;stroke-dasharray:none;stroke-opacity:1"
       transform="matrix(0.95833324,0,0,0.95833324,0.47916662,0.47916662)"
       clip-path="url(#clipPath7)" />
    <path
       id="path8"
       d="m 106,199.88 -3.5,-7 3.5,1.75 3.5,-1.75 z"
       style="fill:#000000;fill-opacity:1;fill-rule:nonzero;stroke:#000000;stroke-width:1;stroke-linecap:butt;stroke-linejoin:miter;stroke-miterlimit:10;stroke-dasharray:none;stroke-opacity:1"
       transform="matrix(0.95833324,0,0,0.95833324,0.47916662,0.47916662)"
       clip-path="url(#clipPath9)" />
    <path
       id="path10"
       d="M 1,31 H 211 V 141 H 1 Z"
       style="fill:#dae8fc;fill-opacity:1;fill-rule:nonzero;stroke:#6c8ebf;stroke-width:1;stroke-linecap:butt;stroke-linejoin:miter;stroke-miterlimit:10;stroke-dasharray:none;stroke-opacity:1"
       transform="matrix(0.95833324,0,0,0.95833324,0.47916662,0.47916662)"
       clip-path="url(#clipPath11)" />
    <path
       id="path12"
       d="M 31,41 H 181 V 71 H 31 Z"
       style="fill:#f5f5f5;fill-opacity:1;fill-rule:nonzero;stroke:#666666;stroke-width:1;stroke-linecap:butt;stroke-linejoin:miter;stroke-miterlimit:10;stroke-dasharray:none;stroke-opacity:1"
       transform="matrix(0.95833324,0,0,0.95833324,0.47916662,0.47916662)"
       clip-path="url(#clipPath13)" />
    <text
       id="text13"
       xml:space="preserve"
       transform="matrix(0.95834284,0,0,0.95834284,63.759747,60.375599)"
       clip-path="url(#clipPath14)"><tspan
         style="font-variant:normal;font-weight:normal;font-size:20px;font-family:Helvetica;writing-mode:lr-tb;fill:#333333;fill-opacity:1;fill-rule:nonzero;stroke:none"
         x="0 15.556641 20 25.556641 31.113281 45.556641 56.679688 67.802734"
         y="0"
         sodipodi:role="line"
         id="tspan13">Git Repo</tspan></text>
    <path
       id="path15"
       d="m 31,71 h 150 v 60 H 31 Z"
       style="fill:#f5f5f5;fill-opacity:1;fill-rule:nonzero;stroke:#666666;stroke-width:1;stroke-linecap:butt;stroke-linejoin:miter;stroke-miterlimit:10;stroke-dasharray:none;stroke-opacity:1"
       transform="matrix(0.95833324,0,0,0.95833324,0.47916662,0.47916662)"
       clip-path="url(#clipPath16)" />
    <path
       id="path17"
       d="m 56,81 h 100 v 40 H 56 Z"
       style="fill:#ffffff;fill-opacity:1;fill-rule:nonzero;stroke:#000000;stroke-width:1;stroke-linecap:butt;stroke-linejoin:miter;stroke-miterlimit:10;stroke-dasharray:none;stroke-opacity:1"
       transform="matrix(0.95833324,0,0,0.95833324,0.47916662,0.47916662)"
       clip-path="url(#clipPath18)" />
    <text
       id="text18"
       xml:space="preserve"
       transform="matrix(0.95834284,0,0,0.95834284,62.681611,103.50103)"
       clip-path="url(#clipPath19)"><tspan
         style="font-variant:normal;font-weight:normal;font-size:20px;font-family:Helvetica;writing-mode:lr-tb;fill:#000000;fill-opacity:1;fill-rule:nonzero;stroke:none"
         x="0 14.443359 25.566406 35.566406 41.123047 45.585938 58.925781 70.048828"
         y="0"
         sodipodi:role="line"
         id="tspan18">Nest App</tspan></text>
    <path
       id="path20"
       d="m 1,311 h 210 v 30 H 1 Z"
       style="fill:#d5e8d4;fill-opacity:1;fill-rule:nonzero;stroke:#82b366;stroke-width:1;stroke-linecap:butt;stroke-linejoin:miter;stroke-miterlimit:10;stroke-dasharray:none;stroke-opacity:1"
       transform="matrix(0.95833324,0,0,0.95833324,0.47916662,0.47916662)"
       clip-path="url(#clipPath21)" />
    <text
       id="text21"
       xml:space="preserve"
       transform="matrix(0.95834284,0,0,0.95834284,68.566435,319.12817)"
       clip-path="url(#clipPath22)"><tspan
         style="font-variant:normal;font-weight:700;font-size:20px;font-family:Helvetica;writing-mode:lr-tb;fill:#000000;fill-opacity:1;fill-rule:nonzero;stroke:none"
         x="0 14.443359 25.566406 33.349609 45.566406 56.689453"
         y="0"
         sodipodi:role="line"
         id="tspan21">Heroku</tspan></text>
    <path
       id="path23"
       d="M 1,201 H 211 V 311 H 1 Z"
       style="fill:#d5e8d4;fill-opacity:1;fill-rule:nonzero;stroke:#82b366;stroke-width:1;stroke-linecap:butt;stroke-linejoin:miter;stroke-miterlimit:10;stroke-dasharray:none;stroke-opacity:1"
       transform="matrix(0.95833324,0,0,0.95833324,0.47916662,0.47916662)"
       clip-path="url(#clipPath24)" />
    <path
       id="path25"
       d="M 391,256 H 217.37"
       style="fill:none;stroke:#000000;stroke-width:1;stroke-linecap:butt;stroke-linejoin:miter;stroke-miterlimit:10;stroke-dasharray:none;stroke-opacity:1"
       transform="matrix(0.95833324,0,0,0.95833324,0.47916662,0.47916662)"
       clip-path="url(#clipPath26)" />
    <path
       id="path27"
       d="m 212.12,256 7,-3.5 -1.75,3.5 1.75,3.5 z"
       style="fill:#000000;fill-opacity:1;fill-rule:nonzero;stroke:#000000;stroke-width:1;stroke-linecap:butt;stroke-linejoin:miter;stroke-miterlimit:10;stroke-dasharray:none;stroke-opacity:1"
       transform="matrix(0.95833324,0,0,0.95833324,0.47916662,0.47916662)"
       clip-path="url(#clipPath28)" />
    <path
       id="path29"
       d="m 391,226 h 150 v 60 H 391 Z"
       style="fill:#ffffff;fill-opacity:1;fill-rule:nonzero;stroke:#000000;stroke-width:1;stroke-linecap:butt;stroke-linejoin:miter;stroke-miterlimit:10;stroke-dasharray:none;stroke-opacity:1"
       transform="matrix(0.95833324,0,0,0.95833324,0.47916662,0.47916662)"
       clip-path="url(#clipPath30)" />
    <text
       id="text30"
       xml:space="preserve"
       transform="matrix(0.95834284,0,0,0.95834284,392.7858,252.04417)"
       clip-path="url(#clipPath31)"><tspan
         style="font-variant:normal;font-weight:normal;font-size:20px;font-family:Helvetica;writing-mode:lr-tb;fill:#000000;fill-opacity:1;fill-rule:nonzero;stroke:none"
         x="0 13.339844 24.462891 34.462891 40.019531 51.142578 57.802734 68.925781 78.925781 84.482422 98.925781"
         y="0"
         sodipodi:role="line"
         id="tspan30">Postgres DB</tspan></text>
    <path
       id="path32"
       d="m 233,215 h 140 v 20 H 233 Z"
       style="fill:#f5f5f5;fill-opacity:1;fill-rule:nonzero;stroke:#666666;stroke-width:1;stroke-linecap:butt;stroke-linejoin:miter;stroke-miterlimit:10;stroke-dasharray:none;stroke-opacity:1"
       transform="matrix(0.95833324,0,0,0.95833324,0.47916662,0.47916662)"
       clip-path="url(#clipPath33)" />
    <text
       id="text33"
       xml:space="preserve"
       transform="matrix(0.95834284,0,0,0.95834284,241.78691,220.41885)"
       clip-path="url(#clipPath34)"><tspan
         style="font-style:oblique;font-variant:normal;font-weight:normal;font-size:10px;font-family:Helvetica;writing-mode:lr-tb;fill:#333333;fill-opacity:1;fill-rule:nonzero;stroke:none"
         x="0 7.2216797 12.783203 16.113281 21.674805 23.583984 28.583984 31.362305 36.923828 42.485352 49.707031 52.485352 55.263672 60.825195 63.603516 68.603516 74.165039 79.726562 85.288086 90.849609 95.849609 98.62793"
         y="0"
         sodipodi:role="line"
         id="tspan33">Here's how to connect:</tspan></text>
    <path
       id="path35"
       d="m 233,235 h 140 v 20 H 233 Z"
       style="fill:#f8cecc;fill-opacity:1;fill-rule:nonzero;stroke:#b85450;stroke-width:1;stroke-linecap:butt;stroke-linejoin:miter;stroke-miterlimit:10;stroke-dasharray:none;stroke-opacity:1"
       transform="matrix(0.95833324,0,0,0.95833324,0.47916662,0.47916662)"
       clip-path="url(#clipPath36)" />
    <text
       id="text36"
       xml:space="preserve"
       transform="matrix(0.95834284,0,0,0.95834284,226.45342,239.58571)"
       clip-path="url(#clipPath37)"><tspan
         style="font-style:oblique;font-variant:normal;font-weight:normal;font-size:10px;font-family:Helvetica;writing-mode:lr-tb;fill:#000000;fill-opacity:1;fill-rule:nonzero;stroke:none"
         x="0 5.5615234 8.8916016 14.453125 19.453125 25.014648 30.014648 35.014648 37.792969 43.354492 48.916016 53.178711 55.957031 63.178711 69.111328 74.482422 81.152344 87.822266 94.492188 101.16211 107.83203 113.39355 120.61523 127.83691"
         y="0"
         sodipodi:role="line"
         id="tspan36">process.env.DATABASE_URL</tspan></text>
    <path
       id="path38"
       d="m 31,211 h 150 v 30 H 31 Z"
       style="fill:#f5f5f5;fill-opacity:1;fill-rule:nonzero;stroke:#666666;stroke-width:1;stroke-linecap:butt;stroke-linejoin:miter;stroke-miterlimit:10;stroke-dasharray:none;stroke-opacity:1"
       transform="matrix(0.95833324,0,0,0.95833324,0.47916662,0.47916662)"
       clip-path="url(#clipPath39)" />
    <text
       id="text39"
       xml:space="preserve"
       transform="matrix(0.95834284,0,0,0.95834284,63.759747,223.29388)"
       clip-path="url(#clipPath40)"><tspan
         style="font-variant:normal;font-weight:normal;font-size:20px;font-family:Helvetica;writing-mode:lr-tb;fill:#333333;fill-opacity:1;fill-rule:nonzero;stroke:none"
         x="0 15.556641 20 25.556641 31.113281 45.556641 56.679688 67.802734"
         y="0"
         sodipodi:role="line"
         id="tspan39">Git Repo</tspan></text>
    <path
       id="path41"
       d="m 31,241 h 150 v 60 H 31 Z"
       style="fill:#f5f5f5;fill-opacity:1;fill-rule:nonzero;stroke:#666666;stroke-width:1;stroke-linecap:butt;stroke-linejoin:miter;stroke-miterlimit:10;stroke-dasharray:none;stroke-opacity:1"
       transform="matrix(0.95833324,0,0,0.95833324,0.47916662,0.47916662)"
       clip-path="url(#clipPath42)" />
    <path
       id="path43"
       d="m 56,251 h 100 v 40 H 56 Z"
       style="fill:#ffffff;fill-opacity:1;fill-rule:nonzero;stroke:#000000;stroke-width:1;stroke-linecap:butt;stroke-linejoin:miter;stroke-miterlimit:10;stroke-dasharray:none;stroke-opacity:1"
       transform="matrix(0.95833324,0,0,0.95833324,0.47916662,0.47916662)"
       clip-path="url(#clipPath44)" />
    <text
       id="text44"
       xml:space="preserve"
       transform="matrix(0.95834284,0,0,0.95834284,62.681611,266.41931)"
       clip-path="url(#clipPath45)"><tspan
         style="font-variant:normal;font-weight:normal;font-size:20px;font-family:Helvetica;writing-mode:lr-tb;fill:#000000;fill-opacity:1;fill-rule:nonzero;stroke:none"
         x="0 14.443359 25.566406 35.566406 41.123047 45.585938 58.925781 70.048828"
         y="0"
         sodipodi:role="line"
         id="tspan44">Nest App</tspan></text>
  </g>
</svg>
