<?xml version="1.0" encoding="UTF-8" standalone="no"?>
<!-- Created with Inkscape (http://www.inkscape.org/) -->

<svg
   version="1.1"
   id="svg1"
   width="410.55997"
   height="220.15999"
   viewBox="0 0 410.55997 220.15999"
   sodipodi:docname="nest-6.pdf"
   xmlns:inkscape="http://www.inkscape.org/namespaces/inkscape"
   xmlns:sodipodi="http://sodipodi.sourceforge.net/DTD/sodipodi-0.dtd"
   xmlns="http://www.w3.org/2000/svg"
   xmlns:svg="http://www.w3.org/2000/svg">
  <defs
     id="defs1">
    <clipPath
       clipPathUnits="userSpaceOnUse"
       id="clipPath2">
      <path
         d="M 0,0 H 1283.3333 V 685.04272 H 0 Z"
         transform="scale(0.33428572)"
         clip-rule="evenodd"
         id="path2" />
    </clipPath>
    <clipPath
       clipPathUnits="userSpaceOnUse"
       id="clipPath4">
      <path
         d="M 0,0 H 1283.3333 V 682.05127 H 0 Z"
         transform="matrix(0.33428572,0,0,0.33428572,-0.50000001,-0.50000001)"
         clip-rule="evenodd"
         id="path4" />
    </clipPath>
    <clipPath
       clipPathUnits="userSpaceOnUse"
       id="clipPath6">
      <path
         d="M 0,0 H 1283.3333 V 682.05127 H 0 Z"
         transform="matrix(0.33428572,0,0,0.33428572,-0.50000001,-0.50000001)"
         clip-rule="evenodd"
         id="path6" />
    </clipPath>
    <clipPath
       clipPathUnits="userSpaceOnUse"
       id="clipPath8">
      <path
         d="M 0,0 H 1283.3333 V 682.05127 H 0 Z"
         transform="matrix(0.33428572,0,0,0.33428572,-0.50000001,-0.50000001)"
         clip-rule="evenodd"
         id="path8" />
    </clipPath>
    <clipPath
       clipPathUnits="userSpaceOnUse"
       id="clipPath10">
      <path
         d="M 0,0 H 1283.3333 V 682.05127 H 0 Z"
         transform="matrix(0.33428572,0,0,0.33428572,-0.50000001,-0.50000001)"
         clip-rule="evenodd"
         id="path10" />
    </clipPath>
    <clipPath
       clipPathUnits="userSpaceOnUse"
       id="clipPath12">
      <path
         d="M 0,0 H 1283.3333 V 682.05127 H 0 Z"
         transform="matrix(0.33428572,0,0,0.33428572,-0.50000001,-0.50000001)"
         clip-rule="evenodd"
         id="path12" />
    </clipPath>
    <clipPath
       clipPathUnits="userSpaceOnUse"
       id="clipPath13">
      <path
         d="M 0,0 H 1283.3333 V 682.05127 H 0 Z"
         transform="matrix(0.33428236,0,0,0.33428236,-26.96875,-18)"
         clip-rule="evenodd"
         id="path13" />
    </clipPath>
    <clipPath
       clipPathUnits="userSpaceOnUse"
       id="clipPath15">
      <path
         d="M 0,0 H 1283.3333 V 682.05127 H 0 Z"
         transform="matrix(0.33428572,0,0,0.33428572,-0.50000001,-0.50000001)"
         clip-rule="evenodd"
         id="path15" />
    </clipPath>
    <clipPath
       clipPathUnits="userSpaceOnUse"
       id="clipPath16">
      <path
         d="M 0,0 H 1283.3333 V 682.05127 H 0 Z"
         transform="matrix(0.33428236,0,0,0.33428236,-79,-78)"
         clip-rule="evenodd"
         id="path16" />
    </clipPath>
    <clipPath
       clipPathUnits="userSpaceOnUse"
       id="clipPath18">
      <path
         d="M 0,0 H 1283.3333 V 682.05127 H 0 Z"
         transform="matrix(0.33428572,0,0,0.33428572,-0.50000001,-0.50000001)"
         clip-rule="evenodd"
         id="path18" />
    </clipPath>
    <clipPath
       clipPathUnits="userSpaceOnUse"
       id="clipPath19">
      <path
         d="M 0,0 H 1283.3333 V 682.05127 H 0 Z"
         transform="matrix(0.33428236,0,0,0.33428236,-20,-98)"
         clip-rule="evenodd"
         id="path19" />
    </clipPath>
    <clipPath
       clipPathUnits="userSpaceOnUse"
       id="clipPath20">
      <path
         d="M 0,0 H 1283.3333 V 682.05127 H 0 Z"
         transform="matrix(0.33428236,0,0,0.33428236,-20,-109)"
         clip-rule="evenodd"
         id="path20" />
    </clipPath>
    <clipPath
       clipPathUnits="userSpaceOnUse"
       id="clipPath21">
      <path
         d="M 0,0 H 1283.3333 V 682.05127 H 0 Z"
         transform="matrix(0.33428236,0,0,0.33428236,-20,-120)"
         clip-rule="evenodd"
         id="path21" />
    </clipPath>
    <clipPath
       clipPathUnits="userSpaceOnUse"
       id="clipPath23">
      <path
         d="M 0,0 H 1283.3333 V 682.05127 H 0 Z"
         transform="matrix(0.33428572,0,0,0.33428572,-0.50000001,-0.50000001)"
         clip-rule="evenodd"
         id="path23" />
    </clipPath>
    <clipPath
       clipPathUnits="userSpaceOnUse"
       id="clipPath24">
      <path
         d="M 0,0 H 1283.3333 V 682.05127 H 0 Z"
         transform="matrix(0.33428236,0,0,0.33428236,-66.5,-168)"
         clip-rule="evenodd"
         id="path24" />
    </clipPath>
    <clipPath
       clipPathUnits="userSpaceOnUse"
       id="clipPath26">
      <path
         d="M 0,0 H 1283.3333 V 682.05127 H 0 Z"
         transform="matrix(0.33428572,0,0,0.33428572,-0.50000001,-0.50000001)"
         clip-rule="evenodd"
         id="path26" />
    </clipPath>
    <clipPath
       clipPathUnits="userSpaceOnUse"
       id="clipPath27">
      <path
         d="M 0,0 H 1283.3333 V 682.05127 H 0 Z"
         transform="matrix(0.33428236,0,0,0.33428236,-20,-199)"
         clip-rule="evenodd"
         id="path27" />
    </clipPath>
    <clipPath
       clipPathUnits="userSpaceOnUse"
       id="clipPath29">
      <path
         d="M 0,0 H 1283.3333 V 682.05127 H 0 Z"
         transform="matrix(0.33428572,0,0,0.33428572,-0.50000001,-0.50000001)"
         clip-rule="evenodd"
         id="path29" />
    </clipPath>
    <clipPath
       clipPathUnits="userSpaceOnUse"
       id="clipPath31">
      <path
         d="M 0,0 H 1283.3333 V 682.05127 H 0 Z"
         transform="matrix(0.33428572,0,0,0.33428572,-0.50000001,-0.50000001)"
         clip-rule="evenodd"
         id="path31" />
    </clipPath>
    <clipPath
       clipPathUnits="userSpaceOnUse"
       id="clipPath33">
      <path
         d="M 0,0 H 1283.3333 V 682.05127 H 0 Z"
         transform="matrix(0.33428572,0,0,0.33428572,-0.50000001,-0.50000001)"
         clip-rule="evenodd"
         id="path33" />
    </clipPath>
    <clipPath
       clipPathUnits="userSpaceOnUse"
       id="clipPath34">
      <path
         d="M 0,0 H 1283.3333 V 682.05127 H 0 Z"
         transform="matrix(0.33428236,0,0,0.33428236,-261.96875,-18)"
         clip-rule="evenodd"
         id="path34" />
    </clipPath>
    <clipPath
       clipPathUnits="userSpaceOnUse"
       id="clipPath36">
      <path
         d="M 0,0 H 1283.3333 V 682.05127 H 0 Z"
         transform="matrix(0.33428572,0,0,0.33428572,-0.50000001,-0.50000001)"
         clip-rule="evenodd"
         id="path36" />
    </clipPath>
    <clipPath
       clipPathUnits="userSpaceOnUse"
       id="clipPath37">
      <path
         d="M 0,0 H 1283.3333 V 682.05127 H 0 Z"
         transform="matrix(0.33428236,0,0,0.33428236,-314,-78)"
         clip-rule="evenodd"
         id="path37" />
    </clipPath>
    <clipPath
       clipPathUnits="userSpaceOnUse"
       id="clipPath39">
      <path
         d="M 0,0 H 1283.3333 V 682.05127 H 0 Z"
         transform="matrix(0.33428572,0,0,0.33428572,-0.50000001,-0.50000001)"
         clip-rule="evenodd"
         id="path39" />
    </clipPath>
    <clipPath
       clipPathUnits="userSpaceOnUse"
       id="clipPath40">
      <path
         d="M 0,0 H 1283.3333 V 682.05127 H 0 Z"
         transform="matrix(0.33428236,0,0,0.33428236,-255,-104)"
         clip-rule="evenodd"
         id="path40" />
    </clipPath>
    <clipPath
       clipPathUnits="userSpaceOnUse"
       id="clipPath41">
      <path
         d="M 0,0 H 1283.3333 V 682.05127 H 0 Z"
         transform="matrix(0.33428236,0,0,0.33428236,-255,-115)"
         clip-rule="evenodd"
         id="path41" />
    </clipPath>
    <clipPath
       clipPathUnits="userSpaceOnUse"
       id="clipPath43">
      <path
         d="M 0,0 H 1283.3333 V 682.05127 H 0 Z"
         transform="matrix(0.33428572,0,0,0.33428572,-0.50000001,-0.50000001)"
         clip-rule="evenodd"
         id="path43" />
    </clipPath>
    <clipPath
       clipPathUnits="userSpaceOnUse"
       id="clipPath44">
      <path
         d="M 0,0 H 1283.3333 V 682.05127 H 0 Z"
         transform="matrix(0.33428236,0,0,0.33428236,-301.5,-168)"
         clip-rule="evenodd"
         id="path44" />
    </clipPath>
    <clipPath
       clipPathUnits="userSpaceOnUse"
       id="clipPath46">
      <path
         d="M 0,0 H 1283.3333 V 682.05127 H 0 Z"
         transform="matrix(0.33428572,0,0,0.33428572,-0.50000001,-0.50000001)"
         clip-rule="evenodd"
         id="path46" />
    </clipPath>
    <clipPath
       clipPathUnits="userSpaceOnUse"
       id="clipPath47">
      <path
         d="M 0,0 H 1283.3333 V 682.05127 H 0 Z"
         transform="matrix(0.33428236,0,0,0.33428236,-255,-199)"
         clip-rule="evenodd"
         id="path47" />
    </clipPath>
  </defs>
  <sodipodi:namedview
     id="namedview1"
     pagecolor="#ffffff"
     bordercolor="#000000"
     borderopacity="0.25"
     inkscape:showpageshadow="2"
     inkscape:pageopacity="0.0"
     inkscape:pagecheckerboard="0"
     inkscape:deskcolor="#d1d1d1">
    <inkscape:page
       x="0"
       y="0"
       inkscape:label="1"
       id="page1"
       width="410.55997"
       height="220.15999"
       margin="0"
       bleed="0" />
  </sodipodi:namedview>
  <g
     id="g1"
     inkscape:groupmode="layer"
     inkscape:label="1">
    <path
       id="path1"
       d="M 0,0 H 429 V 229 H 0 Z"
       style="fill:#ffffff;fill-opacity:1;fill-rule:nonzero;stroke:none"
       transform="scale(0.95726489)"
       clip-path="url(#clipPath2)" />
    <path
       id="path3"
       d="m 191,136.5 h 22.5 l 16.7,0.07"
       style="fill:none;stroke:#000000;stroke-width:1;stroke-linecap:butt;stroke-linejoin:miter;stroke-miterlimit:10;stroke-dasharray:none;stroke-opacity:1"
       transform="matrix(0.95726489,0,0,0.95726489,0.47863245,0.47863245)"
       clip-path="url(#clipPath4)" />
    <path
       id="path5"
       d="m 235.45,136.60001 -7.01,3.47 1.76,-3.5 -1.73,-3.5 z"
       style="fill:#000000;fill-opacity:1;fill-rule:nonzero;stroke:#000000;stroke-width:1;stroke-linecap:butt;stroke-linejoin:miter;stroke-miterlimit:10;stroke-dasharray:none;stroke-opacity:1"
       transform="matrix(0.95726489,0,0,0.95726489,0.47863245,0.47863245)"
       clip-path="url(#clipPath6)" />
    <path
       id="path7"
       d="m 1,26 h 169 l 21,21 V 226 H 1 Z"
       style="fill:#ffffff;fill-opacity:1;fill-rule:nonzero;stroke:#000000;stroke-width:1;stroke-linecap:butt;stroke-linejoin:miter;stroke-miterlimit:10;stroke-dasharray:none;stroke-opacity:1"
       transform="matrix(0.95726489,0,0,0.95726489,0.47863245,0.47863245)"
       clip-path="url(#clipPath8)" />
    <path
       id="path9"
       d="m 170,26 v 21 h 21 z"
       style="fill:#000000;fill-opacity:0.05;fill-rule:nonzero;stroke:none"
       transform="matrix(0.95726489,0,0,0.95726489,0.47863245,0.47863245)"
       clip-path="url(#clipPath10)" />
    <path
       id="path11"
       d="m 170,26 v 21 h 21"
       style="fill:none;stroke:#000000;stroke-width:1;stroke-linecap:butt;stroke-linejoin:miter;stroke-miterlimit:10;stroke-dasharray:none;stroke-opacity:1"
       transform="matrix(0.95726489,0,0,0.95726489,0.47863245,0.47863245)"
       clip-path="url(#clipPath12)" />
    <text
       id="text12"
       xml:space="preserve"
       transform="matrix(0.95727452,0,0,0.95727452,25.816497,17.230941)"
       clip-path="url(#clipPath13)"><tspan
         style="font-style:oblique;font-variant:normal;font-weight:normal;font-size:18px;font-family:Helvetica;writing-mode:lr-tb;fill:#000000;fill-opacity:1;fill-rule:nonzero;stroke:none"
         x="0 14.994141 18.993164 29.003906 34.998047 45.008789 50.009766 54.008789 64.019531 74.030273 79.03125 90.026367 94.025391 98.024414 108.03516 113.03613 123.04688"
         y="0"
         sodipodi:role="line"
         id="tspan12">Migration File #1</tspan></text>
    <path
       id="path14"
       d="M 16,56 H 176 V 86 H 16 Z"
       style="fill:#dae8fc;fill-opacity:1;fill-rule:nonzero;stroke:#6c8ebf;stroke-width:1;stroke-linecap:butt;stroke-linejoin:miter;stroke-miterlimit:10;stroke-dasharray:none;stroke-opacity:1"
       transform="matrix(0.95726489,0,0,0.95726489,0.47863245,0.47863245)"
       clip-path="url(#clipPath15)" />
    <text
       id="text15"
       xml:space="preserve"
       transform="matrix(0.95727452,0,0,0.95727452,75.624687,74.667413)"
       clip-path="url(#clipPath16)"><tspan
         style="font-variant:normal;font-weight:700;font-size:18px;font-family:Helvetica;writing-mode:lr-tb;fill:#000000;fill-opacity:1;fill-rule:nonzero;stroke:none"
         x="0 10.995117 21.990234 27.984375"
         y="0"
         sodipodi:role="line"
         id="tspan15">up()</tspan></text>
    <path
       id="path17"
       d="m 16,86 h 160 v 40 H 16 Z"
       style="fill:#dae8fc;fill-opacity:1;fill-rule:nonzero;stroke:#6c8ebf;stroke-width:1;stroke-linecap:butt;stroke-linejoin:miter;stroke-miterlimit:10;stroke-dasharray:none;stroke-opacity:1"
       transform="matrix(0.95726489,0,0,0.95726489,0.47863245,0.47863245)"
       clip-path="url(#clipPath18)" />
    <text
       id="text18"
       xml:space="preserve"
       transform="matrix(0.95727452,0,0,0.95727452,19.14549,93.812903)"
       clip-path="url(#clipPath19)"><tspan
         style="font-style:oblique;font-variant:normal;font-weight:normal;font-size:9px;font-family:Helvetica;writing-mode:lr-tb;fill:#000000;fill-opacity:1;fill-rule:nonzero;stroke:none"
         x="0 2.9970703 5.0053711 11.008301 16.013672 21.019043 23.519531 28.524902 31.025391 33.525879 38.53125 43.536621 45.536133 50.541504 53.041992 57.541992 62.547363 64.546875 66.546387 71.551758 76.557129 79.057617 80.775879 85.78125 90.28125 95.286621 98.283691 102.78369"
         y="0"
         sodipodi:role="line"
         id="tspan18">- Add a table called 'users'</tspan></text>
    <text
       id="text19"
       xml:space="preserve"
       transform="matrix(0.95727452,0,0,0.95727452,19.14549,104.34292)"
       clip-path="url(#clipPath20)"><tspan
         style="font-style:oblique;font-variant:normal;font-weight:normal;font-size:9px;font-family:Helvetica;writing-mode:lr-tb;fill:#000000;fill-opacity:1;fill-rule:nonzero;stroke:none"
         x="0 2.9970703 5.4975586 12.498047 14.497559 18.997559 24.00293 26.503418 29.003906 34.009277 39.014648 41.515137 44.015625 49.020996 54.026367 56.025879 61.03125 63.531738 68.537109 71.037598 75.537598 80.542969 82.54248 87.547852 95.044922 100.05029 102.55078 104.26904 109.27441 116.77148 121.77686 123.77637 125.77588"
         y="0"
         sodipodi:role="line"
         id="tspan19">- Give the table a column 'email'</tspan></text>
    <text
       id="text20"
       xml:space="preserve"
       transform="matrix(0.95727452,0,0,0.95727452,19.14549,114.87294)"
       clip-path="url(#clipPath21)"><tspan
         style="font-style:oblique;font-variant:normal;font-weight:normal;font-size:9px;font-family:Helvetica;writing-mode:lr-tb;fill:#000000;fill-opacity:1;fill-rule:nonzero;stroke:none"
         x="0 2.9970703 5.4975586 12.498047 14.497559 18.997559 24.00293 26.503418 29.003906 34.009277 39.014648 41.515137 44.015625 49.020996 54.026367 56.025879 61.03125 63.531738 68.537109 71.037598 75.537598 80.542969 82.54248 87.547852 95.044922 100.05029 102.55078 104.26904 109.27441 114.27979 118.77979 123.27979 129.7793 134.78467 137.78174 142.78711"
         y="0"
         sodipodi:role="line"
         id="tspan20">- Give the table a column 'password'</tspan></text>
    <path
       id="path22"
       d="m 16,146 h 160 v 30 H 16 Z"
       style="fill:#fff2cc;fill-opacity:1;fill-rule:nonzero;stroke:#d6b656;stroke-width:1;stroke-linecap:butt;stroke-linejoin:miter;stroke-miterlimit:10;stroke-dasharray:none;stroke-opacity:1"
       transform="matrix(0.95726489,0,0,0.95726489,0.47863245,0.47863245)"
       clip-path="url(#clipPath23)" />
    <text
       id="text23"
       xml:space="preserve"
       transform="matrix(0.95727452,0,0,0.95727452,63.658756,160.82212)"
       clip-path="url(#clipPath24)"><tspan
         style="font-variant:normal;font-weight:700;font-size:18px;font-family:Helvetica;writing-mode:lr-tb;fill:#000000;fill-opacity:1;fill-rule:nonzero;stroke:none"
         x="0 10.995117 21.990234 35.991211 46.986328 52.980469"
         y="0"
         sodipodi:role="line"
         id="tspan23">down()</tspan></text>
    <path
       id="path25"
       d="m 16,176 h 160 v 40 H 16 Z"
       style="fill:#fff2cc;fill-opacity:1;fill-rule:nonzero;stroke:#d6b656;stroke-width:1;stroke-linecap:butt;stroke-linejoin:miter;stroke-miterlimit:10;stroke-dasharray:none;stroke-opacity:1"
       transform="matrix(0.95726489,0,0,0.95726489,0.47863245,0.47863245)"
       clip-path="url(#clipPath26)" />
    <text
       id="text26"
       xml:space="preserve"
       transform="matrix(0.95727452,0,0,0.95727452,19.14549,190.49763)"
       clip-path="url(#clipPath27)"><tspan
         style="font-style:oblique;font-variant:normal;font-weight:normal;font-size:9px;font-family:Helvetica;writing-mode:lr-tb;fill:#000000;fill-opacity:1;fill-rule:nonzero;stroke:none"
         x="0 2.9970703 5.4975586 11.99707 17.002441 19.001953 24.007324 26.507812 31.513184 34.013672 36.51416 41.519531 46.524902 49.025391 51.525879 56.53125 61.536621 63.536133 68.541504 71.041992 75.541992 80.547363 82.546875 84.546387 89.551758 94.557129 97.057617 98.775879 103.78125 108.28125 113.28662 116.28369 120.78369"
         y="0"
         sodipodi:role="line"
         id="tspan26">- Delete the table called 'users'</tspan></text>
    <path
       id="path28"
       d="m 236,26 h 169 l 21,21 V 226 H 236 Z"
       style="fill:#ffffff;fill-opacity:1;fill-rule:nonzero;stroke:#000000;stroke-width:1;stroke-linecap:butt;stroke-linejoin:miter;stroke-miterlimit:10;stroke-dasharray:none;stroke-opacity:1"
       transform="matrix(0.95726489,0,0,0.95726489,0.47863245,0.47863245)"
       clip-path="url(#clipPath29)" />
    <path
       id="path30"
       d="m 405,26 v 21 h 21 z"
       style="fill:#000000;fill-opacity:0.05;fill-rule:nonzero;stroke:none"
       transform="matrix(0.95726489,0,0,0.95726489,0.47863245,0.47863245)"
       clip-path="url(#clipPath31)" />
    <path
       id="path32"
       d="m 405,26 v 21 h 21"
       style="fill:none;stroke:#000000;stroke-width:1;stroke-linecap:butt;stroke-linejoin:miter;stroke-miterlimit:10;stroke-dasharray:none;stroke-opacity:1"
       transform="matrix(0.95726489,0,0,0.95726489,0.47863245,0.47863245)"
       clip-path="url(#clipPath33)" />
    <text
       id="text33"
       xml:space="preserve"
       transform="matrix(0.95727452,0,0,0.95727452,250.77601,17.230941)"
       clip-path="url(#clipPath34)"><tspan
         style="font-style:oblique;font-variant:normal;font-weight:normal;font-size:18px;font-family:Helvetica;writing-mode:lr-tb;fill:#000000;fill-opacity:1;fill-rule:nonzero;stroke:none"
         x="0 14.994141 18.993164 29.003906 34.998047 45.008789 50.009766 54.008789 64.019531 74.030273 79.03125 90.026367 94.025391 98.024414 108.03516 113.03613 123.04688"
         y="0"
         sodipodi:role="line"
         id="tspan33">Migration File #2</tspan></text>
    <path
       id="path35"
       d="M 251,56 H 411 V 86 H 251 Z"
       style="fill:#dae8fc;fill-opacity:1;fill-rule:nonzero;stroke:#6c8ebf;stroke-width:1;stroke-linecap:butt;stroke-linejoin:miter;stroke-miterlimit:10;stroke-dasharray:none;stroke-opacity:1"
       transform="matrix(0.95726489,0,0,0.95726489,0.47863245,0.47863245)"
       clip-path="url(#clipPath36)" />
    <text
       id="text36"
       xml:space="preserve"
       transform="matrix(0.95727452,0,0,0.95727452,300.5842,74.667413)"
       clip-path="url(#clipPath37)"><tspan
         style="font-variant:normal;font-weight:700;font-size:18px;font-family:Helvetica;writing-mode:lr-tb;fill:#000000;fill-opacity:1;fill-rule:nonzero;stroke:none"
         x="0 10.995117 21.990234 27.984375"
         y="0"
         sodipodi:role="line"
         id="tspan36">up()</tspan></text>
    <path
       id="path38"
       d="m 251,86 h 160 v 40 H 251 Z"
       style="fill:#dae8fc;fill-opacity:1;fill-rule:nonzero;stroke:#6c8ebf;stroke-width:1;stroke-linecap:butt;stroke-linejoin:miter;stroke-miterlimit:10;stroke-dasharray:none;stroke-opacity:1"
       transform="matrix(0.95726489,0,0,0.95726489,0.47863245,0.47863245)"
       clip-path="url(#clipPath39)" />
    <text
       id="text39"
       xml:space="preserve"
       transform="matrix(0.95727452,0,0,0.95727452,244.105,99.55655)"
       clip-path="url(#clipPath40)"><tspan
         style="font-style:oblique;font-variant:normal;font-weight:normal;font-size:9px;font-family:Helvetica;writing-mode:lr-tb;fill:#000000;fill-opacity:1;fill-rule:nonzero;stroke:none"
         x="0 2.9970703 5.0053711 11.008301 16.013672 21.019043 23.519531 28.524902 31.025391 33.525879 38.53125 43.536621 45.536133 50.541504 53.041992 57.541992 62.547363 64.546875 66.546387 71.551758 76.557129 79.057617 80.775879 83.772949 88.77832 93.783691 98.789062 101.78613 104.28662 108.78662"
         y="0"
         sodipodi:role="line"
         id="tspan39">- Add a table called 'reports'</tspan></text>
    <text
       id="text40"
       xml:space="preserve"
       transform="matrix(0.95727452,0,0,0.95727452,244.105,110.08657)"
       clip-path="url(#clipPath41)"><tspan
         style="font-style:oblique;font-variant:normal;font-weight:normal;font-size:9px;font-family:Helvetica;writing-mode:lr-tb;fill:#000000;fill-opacity:1;fill-rule:nonzero;stroke:none"
         x="0 2.9970703 5.4975586 12.498047 14.497559 18.997559 24.00293 26.503418 28.50293 31.003418 33.503906 38.003906 43.009277 45.008789 50.01416 57.51123 62.516602 67.016602 69.51709 74.522461 77.022949 79.523438 81.241699 86.24707 89.244141 91.243652 95.743652 100.74902 102.46729 104.96777 107.46826 109.18652 111.18604 116.19141 118.69189 120.41016 122.91064 125.41113 127.12939 129.12891 134.13428 139.13965 140.85791 143.3584 145.85889 148.35938"
         y="0"
         sodipodi:role="line"
         id="tspan40">- Give it columns of 'price', 'lat', 'lng'....</tspan></text>
    <path
       id="path42"
       d="m 251,146 h 160 v 30 H 251 Z"
       style="fill:#fff2cc;fill-opacity:1;fill-rule:nonzero;stroke:#d6b656;stroke-width:1;stroke-linecap:butt;stroke-linejoin:miter;stroke-miterlimit:10;stroke-dasharray:none;stroke-opacity:1"
       transform="matrix(0.95726489,0,0,0.95726489,0.47863245,0.47863245)"
       clip-path="url(#clipPath43)" />
    <text
       id="text43"
       xml:space="preserve"
       transform="matrix(0.95727452,0,0,0.95727452,288.61827,160.82212)"
       clip-path="url(#clipPath44)"><tspan
         style="font-variant:normal;font-weight:700;font-size:18px;font-family:Helvetica;writing-mode:lr-tb;fill:#000000;fill-opacity:1;fill-rule:nonzero;stroke:none"
         x="0 10.995117 21.990234 35.991211 46.986328 52.980469"
         y="0"
         sodipodi:role="line"
         id="tspan43">down()</tspan></text>
    <path
       id="path45"
       d="m 251,176 h 160 v 40 H 251 Z"
       style="fill:#fff2cc;fill-opacity:1;fill-rule:nonzero;stroke:#d6b656;stroke-width:1;stroke-linecap:butt;stroke-linejoin:miter;stroke-miterlimit:10;stroke-dasharray:none;stroke-opacity:1"
       transform="matrix(0.95726489,0,0,0.95726489,0.47863245,0.47863245)"
       clip-path="url(#clipPath46)" />
    <text
       id="text46"
       xml:space="preserve"
       transform="matrix(0.95727452,0,0,0.95727452,244.105,190.49763)"
       clip-path="url(#clipPath47)"><tspan
         style="font-style:oblique;font-variant:normal;font-weight:normal;font-size:9px;font-family:Helvetica;writing-mode:lr-tb;fill:#000000;fill-opacity:1;fill-rule:nonzero;stroke:none"
         x="0 2.9970703 5.4975586 11.99707 17.002441 19.001953 24.007324 26.507812 31.513184 34.013672 36.51416 41.519531 46.524902 49.025391 51.525879 56.53125 61.536621 63.536133 68.541504 71.041992 75.541992 80.547363 82.546875 84.546387 89.551758 94.557129 97.057617 98.775879 101.77295 106.77832 111.78369 116.78906 119.78613 122.28662 126.78662"
         y="0"
         sodipodi:role="line"
         id="tspan46">- Delete the table called 'reports'</tspan></text>
  </g>
</svg>
