<?xml version="1.0" encoding="UTF-8" standalone="no"?>
<!-- Created with Inkscape (http://www.inkscape.org/) -->

<svg
   version="1.1"
   id="svg1"
   width="337.28"
   height="147.84"
   viewBox="0 0 337.28 147.84"
   sodipodi:docname="nest-9.pdf"
   xmlns:inkscape="http://www.inkscape.org/namespaces/inkscape"
   xmlns:sodipodi="http://sodipodi.sourceforge.net/DTD/sodipodi-0.dtd"
   xmlns="http://www.w3.org/2000/svg"
   xmlns:svg="http://www.w3.org/2000/svg">
  <defs
     id="defs1">
    <clipPath
       clipPathUnits="userSpaceOnUse"
       id="clipPath2">
      <path
         d="M 0,0 H 1054.1666 V 459.89142 H 0 Z"
         transform="scale(0.33486165)"
         clip-rule="evenodd"
         id="path2" />
    </clipPath>
    <clipPath
       clipPathUnits="userSpaceOnUse"
       id="clipPath4">
      <path
         d="M 0,0 H 1054.1666 V 459.89142 H 0 Z"
         transform="matrix(0.33486165,0,0,0.33486165,-0.49999999,-0.49999999)"
         clip-rule="evenodd"
         id="path4" />
    </clipPath>
    <clipPath
       clipPathUnits="userSpaceOnUse"
       id="clipPath5">
      <path
         d="M 0,0 H 1054.1666 V 459.89142 H 0 Z"
         transform="matrix(0.33485831,0,0,0.33485831,-78.328125,-20)"
         clip-rule="evenodd"
         id="path5" />
    </clipPath>
    <clipPath
       clipPathUnits="userSpaceOnUse"
       id="clipPath7">
      <path
         d="M 0,0 H 1054.1666 V 459.89142 H 0 Z"
         transform="matrix(0.33486165,0,0,0.33486165,-0.49999999,-0.49999999)"
         clip-rule="evenodd"
         id="path7" />
    </clipPath>
    <clipPath
       clipPathUnits="userSpaceOnUse"
       id="clipPath9">
      <path
         d="M 0,0 H 1054.1666 V 459.89142 H 0 Z"
         transform="matrix(0.33486165,0,0,0.33486165,-0.49999999,-0.49999999)"
         clip-rule="evenodd"
         id="path9" />
    </clipPath>
    <clipPath
       clipPathUnits="userSpaceOnUse"
       id="clipPath11">
      <path
         d="M 0,0 H 1054.1666 V 459.89142 H 0 Z"
         transform="matrix(0.33486165,0,0,0.33486165,-0.49999999,-0.49999999)"
         clip-rule="evenodd"
         id="path11" />
    </clipPath>
    <clipPath
       clipPathUnits="userSpaceOnUse"
       id="clipPath13">
      <path
         d="M 0,0 H 1054.1666 V 459.89142 H 0 Z"
         transform="matrix(0.33486165,0,0,0.33486165,-0.49999999,-0.49999999)"
         clip-rule="evenodd"
         id="path13" />
    </clipPath>
    <clipPath
       clipPathUnits="userSpaceOnUse"
       id="clipPath14">
      <path
         d="M 0,0 H 1054.1666 V 459.89142 H 0 Z"
         transform="matrix(0.33485831,0,0,0.33485831,-73.640625,-60)"
         clip-rule="evenodd"
         id="path14" />
    </clipPath>
    <clipPath
       clipPathUnits="userSpaceOnUse"
       id="clipPath16">
      <path
         d="M 0,0 H 1054.1666 V 459.89142 H 0 Z"
         transform="matrix(0.33486165,0,0,0.33486165,-0.49999999,-0.49999999)"
         clip-rule="evenodd"
         id="path16" />
    </clipPath>
    <clipPath
       clipPathUnits="userSpaceOnUse"
       id="clipPath17">
      <path
         d="M 0,0 H 1054.1666 V 459.89142 H 0 Z"
         transform="matrix(0.33485831,0,0,0.33485831,-18.6875,-113)"
         clip-rule="evenodd"
         id="path17" />
    </clipPath>
    <clipPath
       clipPathUnits="userSpaceOnUse"
       id="clipPath18">
      <path
         d="M 0,0 H 1054.1666 V 459.89142 H 0 Z"
         transform="matrix(0.33485831,0,0,0.33485831,-47.953125,-128)"
         clip-rule="evenodd"
         id="path18" />
    </clipPath>
    <clipPath
       clipPathUnits="userSpaceOnUse"
       id="clipPath20">
      <path
         d="M 0,0 H 1054.1666 V 459.89142 H 0 Z"
         transform="matrix(-0.33486165,0,0,-0.33486165,466.50002,232.5)"
         clip-rule="evenodd"
         id="path20" />
    </clipPath>
    <clipPath
       clipPathUnits="userSpaceOnUse"
       id="clipPath21">
      <path
         d="M 0,0 H 1054.1666 V 459.89142 H 0 Z"
         transform="matrix(0.33485831,0,0,0.33485831,-250.00001,-106)"
         clip-rule="evenodd"
         id="path21" />
    </clipPath>
    <clipPath
       clipPathUnits="userSpaceOnUse"
       id="clipPath22">
      <path
         d="M 0,0 H 1054.1666 V 459.89142 H 0 Z"
         transform="matrix(0.33485831,0,0,0.33485831,-250.00001,-120)"
         clip-rule="evenodd"
         id="path22" />
    </clipPath>
    <clipPath
       clipPathUnits="userSpaceOnUse"
       id="clipPath23">
      <path
         d="M 0,0 H 1054.1666 V 459.89142 H 0 Z"
         transform="matrix(0.33485831,0,0,0.33485831,-250.00001,-135)"
         clip-rule="evenodd"
         id="path23" />
    </clipPath>
  </defs>
  <sodipodi:namedview
     id="namedview1"
     pagecolor="#ffffff"
     bordercolor="#000000"
     borderopacity="0.25"
     inkscape:showpageshadow="2"
     inkscape:pageopacity="0.0"
     inkscape:pagecheckerboard="0"
     inkscape:deskcolor="#d1d1d1">
    <inkscape:page
       x="0"
       y="0"
       inkscape:label="1"
       id="page1"
       width="337.28"
       height="147.84"
       margin="0"
       bleed="0" />
  </sodipodi:namedview>
  <g
     id="g1"
     inkscape:groupmode="layer"
     inkscape:label="1">
    <path
       id="path1"
       d="M 0,0 H 353 V 154 H 0 Z"
       style="fill:#ffffff;fill-opacity:1;fill-rule:nonzero;stroke:none"
       transform="scale(0.95561849)"
       clip-path="url(#clipPath2)" />
    <path
       id="path3"
       d="M 1,1 H 221 V 31 H 1 Z"
       style="fill:#dae8fc;fill-opacity:1;fill-rule:nonzero;stroke:#6c8ebf;stroke-width:1;stroke-linecap:butt;stroke-linejoin:miter;stroke-miterlimit:10;stroke-dasharray:none;stroke-opacity:1"
       transform="matrix(0.95561849,0,0,0.95561849,0.47780924,0.47780924)"
       clip-path="url(#clipPath4)" />
    <text
       id="text4"
       xml:space="preserve"
       transform="matrix(0.95562802,0,0,0.95562802,74.852551,19.11256)"
       clip-path="url(#clipPath5)"><tspan
         style="font-variant:normal;font-weight:700;font-size:12px;font-family:Helvetica;writing-mode:lr-tb;fill:#000000;fill-opacity:1;fill-rule:nonzero;stroke:none"
         x="0 8.6660156 15.996094 23.326172 33.322266 40.652344 47.982422 55.3125 58.646484"
         y="0"
         sodipodi:role="line"
         id="tspan4">AppModule</tspan></text>
    <path
       id="path6"
       d="M 1,31 H 221 V 151 H 1 Z"
       style="fill:#dae8fc;fill-opacity:1;fill-rule:nonzero;stroke:#6c8ebf;stroke-width:1;stroke-linecap:butt;stroke-linejoin:miter;stroke-miterlimit:10;stroke-dasharray:none;stroke-opacity:1"
       transform="matrix(0.95561849,0,0,0.95561849,0.47780924,0.47780924)"
       clip-path="url(#clipPath7)" />
    <path
       id="path8"
       d="M 111,71 V 91 76 89.629997"
       style="fill:none;stroke:#000000;stroke-width:1;stroke-linecap:butt;stroke-linejoin:miter;stroke-miterlimit:10;stroke-dasharray:none;stroke-opacity:1"
       transform="matrix(0.95561849,0,0,0.95561849,0.47780924,0.47780924)"
       clip-path="url(#clipPath9)" />
    <path
       id="path10"
       d="m 111,94.879997 -3.5,-7 3.5,1.75 3.5,-1.75 z"
       style="fill:#000000;fill-opacity:1;fill-rule:nonzero;stroke:#000000;stroke-width:1;stroke-linecap:butt;stroke-linejoin:miter;stroke-miterlimit:10;stroke-dasharray:none;stroke-opacity:1"
       transform="matrix(0.95561849,0,0,0.95561849,0.47780924,0.47780924)"
       clip-path="url(#clipPath11)" />
    <path
       id="path12"
       d="M 11,41 H 211 V 71 H 11 Z"
       style="fill:#ffffff;fill-opacity:1;fill-rule:nonzero;stroke:#000000;stroke-width:1;stroke-linecap:butt;stroke-linejoin:miter;stroke-miterlimit:10;stroke-dasharray:none;stroke-opacity:1"
       transform="matrix(0.95561849,0,0,0.95561849,0.47780924,0.47780924)"
       clip-path="url(#clipPath13)" />
    <g
       id="g13" />
    <text
       id="text13"
       xml:space="preserve"
       transform="matrix(0.95562802,0,0,0.95562802,70.373045,57.337681)"
       clip-path="url(#clipPath14)"><tspan
         style="font-variant:normal;font-weight:normal;font-size:12px;font-family:Helvetica;writing-mode:lr-tb;fill:#000000;fill-opacity:1;fill-rule:nonzero;stroke:none"
         x="0 8.6660156 15.339844 22.013672 28.013672 34.6875 42.691406 49.365234 53.361328 59.361328 62.027344 68.027344"
         y="0"
         sodipodi:role="line"
         id="tspan13">ConﬁgService</tspan></text>
    <path
       id="path15"
       d="m 11,96 h 200 v 40 H 11 Z"
       style="fill:#ffffff;fill-opacity:1;fill-rule:nonzero;stroke:#000000;stroke-width:1;stroke-linecap:butt;stroke-linejoin:miter;stroke-miterlimit:10;stroke-dasharray:none;stroke-opacity:1"
       transform="matrix(0.95561849,0,0,0.95561849,0.47780924,0.47780924)"
       clip-path="url(#clipPath16)" />
    <text
       id="text16"
       xml:space="preserve"
       transform="matrix(0.95562802,0,0,0.95562802,17.858299,107.98597)"
       clip-path="url(#clipPath17)"><tspan
         style="font-variant:normal;font-weight:normal;font-size:12px;font-family:Helvetica;writing-mode:lr-tb;fill:#000000;fill-opacity:1;fill-rule:nonzero;stroke:none"
         x="0 4.0078125 7.3417969 10.675781 16.675781 23.349609 30.023438 33.357422 36.691406 38.982422 44.982422 51.65625 54.322266 56.988281 60.322266 66.996094 69.287109 72.621094 75.955078 82.628906 89.302734 92.636719 99.310547 105.98438 112.6582 118.6582 125.33203 128.66602 132 134.29102 140.96484 147.63867 150.97266 156.97266 163.64648 166.3125 168.97852 172.3125 178.98633 181.27734"
         y="0"
         sodipodi:role="line"
         id="tspan16">{ type: 'sqlite', database: 'db.sqlite',</tspan></text>
    <text
       id="text17"
       xml:space="preserve"
       transform="matrix(0.95562802,0,0,0.95562802,45.82535,122.32039)"
       clip-path="url(#clipPath18)"><tspan
         style="font-variant:normal;font-weight:normal;font-size:12px;font-family:Helvetica;writing-mode:lr-tb;fill:#000000;fill-opacity:1;fill-rule:nonzero;stroke:none"
         x="0 6.6738281 13.347656 16.681641 19.347656 22.681641 25.347656 32.021484 38.021484 41.355469 44.689453 48.023438 56.689453 62.689453 69.363281 72.703125 76.037109 79.371094 88.037109 94.710938 101.38477 108.05859 112.05469 115.38867 118.72266 122.05664"
         y="0"
         sodipodi:role="line"
         id="tspan17">entities: [User, Report] }</tspan></text>
    <path
       id="path19"
       d="m 248,96 h -7.5 c -5,0 -7.5,3.333336 -7.5,10 v 5 c 0,3.33334 -2.5,5 -7.5,5 h -3.75 c -2.5,0 -1.25,0 3.75,0 h 3.75 c 2.5,0 3.75,3.33334 3.75,10 v 5 c 0,3.33333 2.5,5 7.5,5 h 7.5"
       style="fill:none;stroke:#000000;stroke-width:1;stroke-linecap:butt;stroke-linejoin:miter;stroke-miterlimit:10;stroke-dasharray:none;stroke-opacity:1"
       transform="matrix(-0.95561849,0,0,-0.95561849,445.79604,222.1813)"
       clip-path="url(#clipPath20)" />
    <text
       id="text20"
       xml:space="preserve"
       transform="matrix(0.95562802,0,0,0.95562802,238.90701,101.29657)"
       clip-path="url(#clipPath21)"><tspan
         style="font-style:oblique;font-variant:normal;font-weight:normal;font-size:12px;font-family:Helvetica;writing-mode:lr-tb;fill:#000000;fill-opacity:1;fill-rule:nonzero;stroke:none"
         x="0 6.6738281 12.673828 19.347656 26.021484 35.355469 44.021484 54.017578 57.351562 64.025391 70.699219 77.373047 84.046875"
         y="0"
         sodipodi:role="line"
         id="tspan20">TypeORM needs</tspan></text>
    <text
       id="text21"
       xml:space="preserve"
       transform="matrix(0.95562802,0,0,0.95562802,238.90701,114.67536)"
       clip-path="url(#clipPath22)"><tspan
         style="font-style:oblique;font-variant:normal;font-weight:normal;font-size:12px;font-family:Helvetica;writing-mode:lr-tb;fill:#000000;fill-opacity:1;fill-rule:nonzero;stroke:none"
         x="0 3.3339844 10.007812 16.681641 22.681641 29.355469 32.689453 39.363281 46.037109 49.371094 52.037109 58.710938 65.384766 71.384766 74.71875 78.052734"
         y="0"
         sodipodi:role="line"
         id="tspan21">these options to</tspan></text>
    <text
       id="text22"
       xml:space="preserve"
       transform="matrix(0.95562802,0,0,0.95562802,238.90701,129.00978)"
       clip-path="url(#clipPath23)"><tspan
         style="font-style:oblique;font-variant:normal;font-weight:normal;font-size:12px;font-family:Helvetica;writing-mode:lr-tb;fill:#000000;fill-opacity:1;fill-rule:nonzero;stroke:none"
         x="0 6 12.673828 19.347656 26.021484 32.695312 38.695312 42.029297 45.363281 48.697266 55.371094 58.705078 62.039062 68.712891 75.386719 78.720703 87.386719"
         y="0"
         sodipodi:role="line"
         id="tspan22">connect to the DB</tspan></text>
  </g>
</svg>
