<?xml version="1.0" encoding="UTF-8" standalone="no"?>
<!-- Created with Inkscape (http://www.inkscape.org/) -->

<svg
   version="1.1"
   id="svg1"
   width="338.56"
   height="177.27998"
   viewBox="0 0 338.56 177.27998"
   sodipodi:docname="nest-3.pdf"
   xmlns:inkscape="http://www.inkscape.org/namespaces/inkscape"
   xmlns:sodipodi="http://sodipodi.sourceforge.net/DTD/sodipodi-0.dtd"
   xmlns="http://www.w3.org/2000/svg"
   xmlns:svg="http://www.w3.org/2000/svg">
  <defs
     id="defs1">
    <clipPath
       clipPathUnits="userSpaceOnUse"
       id="clipPath2">
      <path
         d="M 0,0 H 1058.3333 V 553.08374 H 0 Z"
         transform="scale(0.33448822)"
         clip-rule="evenodd"
         id="path2" />
    </clipPath>
    <clipPath
       clipPathUnits="userSpaceOnUse"
       id="clipPath4">
      <path
         d="M 0,0 H 1058.3333 V 550.09412 H 0 Z"
         transform="matrix(0.33448822,0,0,0.33448822,-0.49999999,-0.49999999)"
         clip-rule="evenodd"
         id="path4" />
    </clipPath>
    <clipPath
       clipPathUnits="userSpaceOnUse"
       id="clipPath6">
      <path
         d="M 0,0 H 1058.3333 V 550.09412 H 0 Z"
         transform="matrix(0.33448822,0,0,0.33448822,-0.49999999,-0.49999999)"
         clip-rule="evenodd"
         id="path6" />
    </clipPath>
    <clipPath
       clipPathUnits="userSpaceOnUse"
       id="clipPath8">
      <path
         d="M 0,0 H 1058.3333 V 550.09412 H 0 Z"
         transform="matrix(0.33448822,0,0,0.33448822,-0.49999999,-0.49999999)"
         clip-rule="evenodd"
         id="path8" />
    </clipPath>
    <clipPath
       clipPathUnits="userSpaceOnUse"
       id="clipPath9">
      <path
         d="M 0,0 H 1058.3333 V 550.09412 H 0 Z"
         transform="matrix(0.33448486,0,0,0.33448486,-12.90625,-22)"
         clip-rule="evenodd"
         id="path9" />
    </clipPath>
    <clipPath
       clipPathUnits="userSpaceOnUse"
       id="clipPath10">
      <path
         d="M 0,0 H 1058.3333 V 550.09412 H 0 Z"
         transform="matrix(0.33448486,0,0,0.33448486,-129.96875,-44)"
         clip-rule="evenodd"
         id="path10" />
    </clipPath>
    <clipPath
       clipPathUnits="userSpaceOnUse"
       id="clipPath12">
      <path
         d="M 0,0 H 1058.3333 V 550.09412 H 0 Z"
         transform="matrix(0.33448822,0,0,0.33448822,-0.49999999,-0.49999999)"
         clip-rule="evenodd"
         id="path12" />
    </clipPath>
    <clipPath
       clipPathUnits="userSpaceOnUse"
       id="clipPath13">
      <path
         d="M 0,0 H 1058.3333 V 550.09412 H 0 Z"
         transform="matrix(0.33448486,0,0,0.33448486,-3.890625,-116)"
         clip-rule="evenodd"
         id="path13" />
    </clipPath>
    <clipPath
       clipPathUnits="userSpaceOnUse"
       id="clipPath14">
      <path
         d="M 0,0 H 1058.3333 V 550.09412 H 0 Z"
         transform="matrix(0.33448486,0,0,0.33448486,-56.9375,-116)"
         clip-rule="evenodd"
         id="path14" />
    </clipPath>
    <clipPath
       clipPathUnits="userSpaceOnUse"
       id="clipPath15">
      <path
         d="M 0,0 H 1058.3333 V 550.09412 H 0 Z"
         transform="matrix(0.33448486,0,0,0.33448486,-20.421875,-138)"
         clip-rule="evenodd"
         id="path15" />
    </clipPath>
    <clipPath
       clipPathUnits="userSpaceOnUse"
       id="clipPath16">
      <path
         d="M 0,0 H 1058.3333 V 550.09412 H 0 Z"
         transform="matrix(0.33448486,0,0,0.33448486,-58.90625,-159)"
         clip-rule="evenodd"
         id="path16" />
    </clipPath>
    <clipPath
       clipPathUnits="userSpaceOnUse"
       id="clipPath17">
      <path
         d="M 0,0 H 1058.3333 V 550.09412 H 0 Z"
         transform="matrix(0.33448486,0,0,0.33448486,-136.96875,-159)"
         clip-rule="evenodd"
         id="path17" />
    </clipPath>
  </defs>
  <sodipodi:namedview
     id="namedview1"
     pagecolor="#ffffff"
     bordercolor="#000000"
     borderopacity="0.25"
     inkscape:showpageshadow="2"
     inkscape:pageopacity="0.0"
     inkscape:pagecheckerboard="0"
     inkscape:deskcolor="#d1d1d1">
    <inkscape:page
       x="0"
       y="0"
       inkscape:label="1"
       id="page1"
       width="338.56"
       height="177.27998"
       margin="0"
       bleed="0" />
  </sodipodi:namedview>
  <g
     id="g1"
     inkscape:groupmode="layer"
     inkscape:label="1">
    <path
       id="path1"
       d="M 0,0 H 354 V 185 H 0 Z"
       style="fill:#ffffff;fill-opacity:1;fill-rule:nonzero;stroke:none"
       transform="scale(0.95668537)"
       clip-path="url(#clipPath2)" />
    <path
       id="path3"
       d="M 176,51 V 71 61 74.629997"
       style="fill:none;stroke:#000000;stroke-width:1;stroke-linecap:butt;stroke-linejoin:miter;stroke-miterlimit:10;stroke-dasharray:none;stroke-opacity:1"
       transform="matrix(0.95668537,0,0,0.95668537,0.47834268,0.47834268)"
       clip-path="url(#clipPath4)" />
    <path
       id="path5"
       d="m 176,79.879997 -3.5,-7 3.5,1.75 3.5,-1.75 z"
       style="fill:#000000;fill-opacity:1;fill-rule:nonzero;stroke:#000000;stroke-width:1;stroke-linecap:butt;stroke-linejoin:miter;stroke-miterlimit:10;stroke-dasharray:none;stroke-opacity:1"
       transform="matrix(0.95668537,0,0,0.95668537,0.47834268,0.47834268)"
       clip-path="url(#clipPath6)" />
    <path
       id="path7"
       d="M 1,1 H 351 V 51 H 1 Z"
       style="fill:#ffffff;fill-opacity:1;fill-rule:nonzero;stroke:#000000;stroke-width:1;stroke-linecap:butt;stroke-linejoin:miter;stroke-miterlimit:10;stroke-dasharray:none;stroke-opacity:1"
       transform="matrix(0.95668537,0,0,0.95668537,0.47834268,0.47834268)"
       clip-path="url(#clipPath8)" />
    <text
       id="text8"
       xml:space="preserve"
       transform="matrix(0.95669497,0,0,0.95669497,12.347344,21.047289)"
       clip-path="url(#clipPath9)"><tspan
         style="font-variant:normal;font-weight:normal;font-size:18px;font-family:Helvetica;writing-mode:lr-tb;fill:#000000;fill-opacity:1;fill-rule:nonzero;stroke:none"
         x="0 12.999023 23.009766 29.003906 33.00293 43.013672 53.024414 58.025391 68.036133 78.046875 87.046875 97.057617 101.05664 111.06738 121.07812 136.07227 146.08301 156.09375 161.09473 166.0957 171.09668 180.09668 189.09668 199.10742 208.10742 218.11816 224.1123 234.12305 244.13379 248.13281 257.13281 267.14355 272.14453 277.14551 282.14648 288.14062 298.15137 308.16211 313.16309 317.16211"
         y="0"
         sodipodi:role="line"
         id="tspan8">During development, synchronize: true is</tspan></text>
    <text
       id="text9"
       xml:space="preserve"
       transform="matrix(0.95669497,0,0,0.95669497,124.34045,42.094579)"
       clip-path="url(#clipPath10)"><tspan
         style="font-variant:normal;font-weight:normal;font-size:18px;font-family:Helvetica;writing-mode:lr-tb;fill:#000000;fill-opacity:1;fill-rule:nonzero;stroke:none"
         x="0 9 19.010742 25.004883 34.004883 39.005859 49.016602 58.016602 68.027344 73.02832 83.039062 87.038086"
         y="0"
         sodipodi:role="line"
         id="tspan9">very useful!</tspan></text>
    <path
       id="path11"
       d="M 1,81 H 351 V 181 H 1 Z"
       style="fill:#f8cecc;fill-opacity:1;fill-rule:nonzero;stroke:#b85450;stroke-width:1;stroke-linecap:butt;stroke-linejoin:miter;stroke-miterlimit:10;stroke-dasharray:none;stroke-opacity:1"
       transform="matrix(0.95668537,0,0,0.95668537,0.47834268,0.47834268)"
       clip-path="url(#clipPath12)" />
    <text
       id="text12"
       xml:space="preserve"
       transform="matrix(0.95669497,0,0,0.95669497,3.7221414,110.97662)"
       clip-path="url(#clipPath13)"><tspan
         style="font-style:oblique;font-variant:normal;font-weight:normal;font-size:18px;font-family:Helvetica;writing-mode:lr-tb;fill:#000000;fill-opacity:1;fill-rule:nonzero;stroke:none"
         x="0 12.005859 22.016602 27.017578 37.02832 43.022461"
         y="0"
         sodipodi:role="line"
         id="tspan12">Before</tspan></text>
    <g
       id="g13" />
    <text
       id="text13"
       xml:space="preserve"
       transform="matrix(0.95669497,0,0,0.95669497,54.47182,110.97662)"
       clip-path="url(#clipPath14)"><tspan
         style="font-variant:normal;font-weight:normal;font-size:18px;font-family:Helvetica;writing-mode:lr-tb;fill:#000000;fill-opacity:1;fill-rule:nonzero;stroke:none"
         x="0 5.0009766 15.011719 25.022461 35.033203 39.032227 49.042969 58.042969 62.041992 72.052734 82.063477 87.064453 96.064453 106.0752 116.08594 122.08008 127.08105 137.0918 147.10254 157.11328 162.11426 167.11523 177.12598 183.12012 188.12109 193.12207 203.13281 213.14355 218.14453 227.14453 233.13867 242.13867 247.13965 252.14062 257.1416 261.14062 276.13477 286.14551"
         y="0"
         sodipodi:role="line"
         id="tspan13"> deploying your app for the ﬁrst time,</tspan></text>
    <text
       id="text14"
       xml:space="preserve"
       transform="matrix(0.95669497,0,0,0.95669497,19.537505,132.02391)"
       clip-path="url(#clipPath15)"><tspan
         style="font-variant:normal;font-weight:normal;font-size:18px;font-family:Helvetica;writing-mode:lr-tb;fill:#000000;fill-opacity:1;fill-rule:nonzero;stroke:none"
         x="0 5.0009766 10.001953 20.012695 24.011719 34.022461 44.033203 48.032227 57.032227 62.033203 68.027344 78.038086 87.038086 97.048828 112.04297 127.03711 137.04785 147.05859 157.06934 162.07031 172.08105 181.08105 185.08008 195.09082 205.10156 210.10254 219.10254 228.10254 238.11328 247.11328 257.12402 263.11816 273.12891 283.13965 287.13867 296.13867 306.14941"
         y="0"
         sodipodi:role="line"
         id="tspan14">I highly recommend using synchronize:</tspan></text>
    <text
       id="text15"
       xml:space="preserve"
       transform="matrix(0.95669497,0,0,0.95669497,56.355313,152.1145)"
       clip-path="url(#clipPath16)"><tspan
         style="font-variant:normal;font-weight:normal;font-size:18px;font-family:Helvetica;writing-mode:lr-tb;fill:#000000;fill-opacity:1;fill-rule:nonzero;stroke:none"
         x="0 5.0009766 15.011719 19.010742 28.010742 38.021484 43.022461 53.033203 63.043945 73.054688"
         y="0"
         sodipodi:role="line"
         id="tspan15">false and </tspan></text>
    <text
       id="text16"
       xml:space="preserve"
       transform="matrix(0.95669497,0,0,0.95669497,131.03731,152.1145)"
       clip-path="url(#clipPath17)"><tspan
         style="font-style:oblique;font-variant:normal;font-weight:normal;font-size:18px;font-family:Helvetica;writing-mode:lr-tb;fill:#000000;fill-opacity:1;fill-rule:nonzero;stroke:none"
         x="0 10.010742 20.021484 29.021484 39.032227 45.026367 50.027344 60.038086 69.038086 73.037109 83.047852 93.058594 98.05957 102.05859 107.05957 112.06055 122.07129 132.08203 142.09277 146.0918"
         y="0"
         sodipodi:role="line"
         id="tspan16">never using it again</tspan></text>
  </g>
</svg>
