<?xml version="1.0" encoding="UTF-8" standalone="no"?>
<!-- Created with Inkscape (http://www.inkscape.org/) -->

<svg
   version="1.1"
   id="svg1"
   width="460.16"
   height="230.71999"
   viewBox="0 0 460.16 230.71999"
   sodipodi:docname="nest-8.pdf"
   xmlns:inkscape="http://www.inkscape.org/namespaces/inkscape"
   xmlns:sodipodi="http://sodipodi.sourceforge.net/DTD/sodipodi-0.dtd"
   xmlns="http://www.w3.org/2000/svg"
   xmlns:svg="http://www.w3.org/2000/svg">
  <defs
     id="defs1">
    <clipPath
       clipPathUnits="userSpaceOnUse"
       id="clipPath2">
      <path
         d="M 0,0 H 1437.5 V 720.24426 H 0 Z"
         transform="scale(0.3346087)"
         clip-rule="evenodd"
         id="path2" />
    </clipPath>
    <clipPath
       clipPathUnits="userSpaceOnUse"
       id="clipPath4">
      <path
         d="M 0,0 H 1437.5 V 714.26715 H 0 Z"
         transform="matrix(0.3346087,0,0,0.3346087,-0.50000001,-0.50000001)"
         clip-rule="evenodd"
         id="path4" />
    </clipPath>
    <clipPath
       clipPathUnits="userSpaceOnUse"
       id="clipPath5">
      <path
         d="M 0,0 H 1437.5 V 714.26715 H 0 Z"
         transform="matrix(0.33460534,0,0,0.33460534,-69.28125,-54)"
         clip-rule="evenodd"
         id="path5" />
    </clipPath>
    <clipPath
       clipPathUnits="userSpaceOnUse"
       id="clipPath6">
      <path
         d="M 0,0 H 1437.5 V 714.26715 H 0 Z"
         transform="matrix(0.33460534,0,0,0.33460534,-50.328126,-12)"
         clip-rule="evenodd"
         id="path6" />
    </clipPath>
    <clipPath
       clipPathUnits="userSpaceOnUse"
       id="clipPath7">
      <path
         d="M 0,0 H 1437.5 V 714.26715 H 0 Z"
         transform="matrix(0.33460534,0,0,0.33460534,-86.3125,-27)"
         clip-rule="evenodd"
         id="path7" />
    </clipPath>
    <clipPath
       clipPathUnits="userSpaceOnUse"
       id="clipPath9">
      <path
         d="M 0,0 H 1437.5 V 714.26715 H 0 Z"
         transform="matrix(0.3346087,0,0,0.3346087,-0.50000001,-0.50000001)"
         clip-rule="evenodd"
         id="path9" />
    </clipPath>
    <clipPath
       clipPathUnits="userSpaceOnUse"
       id="clipPath10">
      <path
         d="M 0,0 H 1437.5 V 714.26715 H 0 Z"
         transform="matrix(0.33460534,0,0,0.33460534,-27.374999,-87)"
         clip-rule="evenodd"
         id="path10" />
    </clipPath>
    <clipPath
       clipPathUnits="userSpaceOnUse"
       id="clipPath11">
      <path
         d="M 0,0 H 1437.5 V 714.26715 H 0 Z"
         transform="matrix(0.33460534,0,0,0.33460534,-111.98438,-102)"
         clip-rule="evenodd"
         id="path11" />
    </clipPath>
    <clipPath
       clipPathUnits="userSpaceOnUse"
       id="clipPath13">
      <path
         d="M 0,0 H 1437.5 V 714.26715 H 0 Z"
         transform="matrix(0.3346087,0,0,0.3346087,-0.50000001,-0.50000001)"
         clip-rule="evenodd"
         id="path13" />
    </clipPath>
    <clipPath
       clipPathUnits="userSpaceOnUse"
       id="clipPath14">
      <path
         d="M 0,0 H 1437.5 V 714.26715 H 0 Z"
         transform="matrix(0.33460534,0,0,0.33460534,-39.59375,-127)"
         clip-rule="evenodd"
         id="path14" />
    </clipPath>
    <clipPath
       clipPathUnits="userSpaceOnUse"
       id="clipPath15">
      <path
         d="M 0,0 H 1437.5 V 714.26715 H 0 Z"
         transform="matrix(0.33460534,0,0,0.33460534,-111.98438,-142)"
         clip-rule="evenodd"
         id="path15" />
    </clipPath>
    <clipPath
       clipPathUnits="userSpaceOnUse"
       id="clipPath17">
      <path
         d="M 0,0 H 1437.5 V 714.26715 H 0 Z"
         transform="matrix(0.3346087,0,0,0.3346087,-0.50000001,-0.50000001)"
         clip-rule="evenodd"
         id="path17" />
    </clipPath>
    <clipPath
       clipPathUnits="userSpaceOnUse"
       id="clipPath18">
      <path
         d="M 0,0 H 1437.5 V 714.26715 H 0 Z"
         transform="matrix(0.33460534,0,0,0.33460534,-26.703124,-167)"
         clip-rule="evenodd"
         id="path18" />
    </clipPath>
    <clipPath
       clipPathUnits="userSpaceOnUse"
       id="clipPath19">
      <path
         d="M 0,0 H 1437.5 V 714.26715 H 0 Z"
         transform="matrix(0.33460534,0,0,0.33460534,-120.98438,-182)"
         clip-rule="evenodd"
         id="path19" />
    </clipPath>
    <clipPath
       clipPathUnits="userSpaceOnUse"
       id="clipPath21">
      <path
         d="M 0,0 H 1437.5 V 714.26715 H 0 Z"
         transform="matrix(0.3346087,0,0,0.3346087,-0.50000001,-0.50000001)"
         clip-rule="evenodd"
         id="path21" />
    </clipPath>
    <clipPath
       clipPathUnits="userSpaceOnUse"
       id="clipPath22">
      <path
         d="M 0,0 H 1437.5 V 714.26715 H 0 Z"
         transform="matrix(0.33460534,0,0,0.33460534,-39.59375,-207)"
         clip-rule="evenodd"
         id="path22" />
    </clipPath>
    <clipPath
       clipPathUnits="userSpaceOnUse"
       id="clipPath23">
      <path
         d="M 0,0 H 1437.5 V 714.26715 H 0 Z"
         transform="matrix(0.33460534,0,0,0.33460534,-129.32813,-222)"
         clip-rule="evenodd"
         id="path23" />
    </clipPath>
    <clipPath
       clipPathUnits="userSpaceOnUse"
       id="clipPath25">
      <path
         d="M 0,0 H 1437.5 V 714.26715 H 0 Z"
         transform="matrix(0.3346087,0,0,0.3346087,-0.50000001,-0.50000001)"
         clip-rule="evenodd"
         id="path25" />
    </clipPath>
    <clipPath
       clipPathUnits="userSpaceOnUse"
       id="clipPath27">
      <path
         d="M 0,0 H 1437.5 V 714.26715 H 0 Z"
         transform="matrix(0.3346087,0,0,0.3346087,-0.50000001,-0.50000001)"
         clip-rule="evenodd"
         id="path27" />
    </clipPath>
    <clipPath
       clipPathUnits="userSpaceOnUse"
       id="clipPath29">
      <path
         d="M 0,0 H 1437.5 V 714.26715 H 0 Z"
         transform="matrix(0.3346087,0,0,0.3346087,-0.50000001,-0.50000001)"
         clip-rule="evenodd"
         id="path29" />
    </clipPath>
    <clipPath
       clipPathUnits="userSpaceOnUse"
       id="clipPath31">
      <path
         d="M 0,0 H 1437.5 V 714.26715 H 0 Z"
         transform="matrix(0.3346087,0,0,0.3346087,-0.50000001,-0.50000001)"
         clip-rule="evenodd"
         id="path31" />
    </clipPath>
    <clipPath
       clipPathUnits="userSpaceOnUse"
       id="clipPath33">
      <path
         d="M 0,0 H 1437.5 V 714.26715 H 0 Z"
         transform="matrix(0.3346087,0,0,0.3346087,-0.50000001,-0.50000001)"
         clip-rule="evenodd"
         id="path33" />
    </clipPath>
    <clipPath
       clipPathUnits="userSpaceOnUse"
       id="clipPath34">
      <path
         d="M 0,0 H 1437.5 V 714.26715 H 0 Z"
         transform="matrix(0.33460534,0,0,0.33460534,-313.75,-155)"
         clip-rule="evenodd"
         id="path34" />
    </clipPath>
    <clipPath
       clipPathUnits="userSpaceOnUse"
       id="clipPath35">
      <path
         d="M 0,0 H 1437.5 V 714.26715 H 0 Z"
         transform="matrix(0.33460534,0,0,0.33460534,-317.14063,-169)"
         clip-rule="evenodd"
         id="path35" />
    </clipPath>
    <clipPath
       clipPathUnits="userSpaceOnUse"
       id="clipPath36">
      <path
         d="M 0,0 H 1437.5 V 714.26715 H 0 Z"
         transform="matrix(0.33460534,0,0,0.33460534,-341.8125,-169)"
         clip-rule="evenodd"
         id="path36" />
    </clipPath>
    <clipPath
       clipPathUnits="userSpaceOnUse"
       id="clipPath37">
      <path
         d="M 0,0 H 1437.5 V 714.26715 H 0 Z"
         transform="matrix(0.33460534,0,0,0.33460534,-302.32813,-184)"
         clip-rule="evenodd"
         id="path37" />
    </clipPath>
    <clipPath
       clipPathUnits="userSpaceOnUse"
       id="clipPath38">
      <path
         d="M 0,0 H 1437.5 V 714.26715 H 0 Z"
         transform="matrix(0.33460534,0,0,0.33460534,-302.64063,-198)"
         clip-rule="evenodd"
         id="path38" />
    </clipPath>
    <clipPath
       clipPathUnits="userSpaceOnUse"
       id="clipPath39">
      <path
         d="M 0,0 H 1437.5 V 714.26715 H 0 Z"
         transform="matrix(0.33460534,0,0,0.33460534,-327.125,-217)"
         clip-rule="evenodd"
         id="path39" />
    </clipPath>
    <clipPath
       clipPathUnits="userSpaceOnUse"
       id="clipPath40">
      <path
         d="M 0,0 H 1437.5 V 714.26715 H 0 Z"
         transform="matrix(0.33460534,0,0,0.33460534,-342.46875,-232)"
         clip-rule="evenodd"
         id="path40" />
    </clipPath>
  </defs>
  <sodipodi:namedview
     id="namedview1"
     pagecolor="#ffffff"
     bordercolor="#000000"
     borderopacity="0.25"
     inkscape:showpageshadow="2"
     inkscape:pageopacity="0.0"
     inkscape:pagecheckerboard="0"
     inkscape:deskcolor="#d1d1d1">
    <inkscape:page
       x="0"
       y="0"
       inkscape:label="1"
       id="page1"
       width="460.16"
       height="230.71999"
       margin="0"
       bleed="0" />
  </sodipodi:namedview>
  <g
     id="g1"
     inkscape:groupmode="layer"
     inkscape:label="1">
    <path
       id="path1"
       d="M 0,0 H 481 V 241 H 0 Z"
       style="fill:#ffffff;fill-opacity:1;fill-rule:nonzero;stroke:none"
       transform="scale(0.95634089)"
       clip-path="url(#clipPath2)" />
    <path
       id="path3"
       d="m 20.5,35 h 250 v 30 h -250 z"
       style="fill:#ffffff;fill-opacity:1;fill-rule:nonzero;stroke:#000000;stroke-width:1;stroke-linecap:butt;stroke-linejoin:miter;stroke-miterlimit:10;stroke-dasharray:none;stroke-opacity:1"
       transform="matrix(0.95634089,0,0,0.95634089,0.47817045,0.47817045)"
       clip-path="url(#clipPath4)" />
    <text
       id="text4"
       xml:space="preserve"
       transform="matrix(0.95635052,0,0,0.95635052,66.257159,51.642928)"
       clip-path="url(#clipPath5)"><tspan
         style="font-variant:normal;font-weight:normal;font-size:12px;font-family:Helvetica;writing-mode:lr-tb;fill:#000000;fill-opacity:1;fill-rule:nonzero;stroke:none"
         x="0 8.0039062 11.337891 18.011719 24.685547 28.019531 31.353516 38.027344 44.701172 48.035156 54.708984 61.382812 67.382812 74.056641 76.722656 83.396484 90.070312 100.06641 106.74023 113.41406 116.74805 120.08203 126.08203 132.75586 136.75195 142.75195 149.42578"
         y="0"
         sodipodi:role="line"
         id="tspan4">Stop the development server</tspan></text>
    <text
       id="text5"
       xml:space="preserve"
       transform="matrix(0.95635052,0,0,0.95635052,48.131329,11.476206)"
       clip-path="url(#clipPath6)"><tspan
         style="font-variant:normal;font-weight:700;font-size:12px;font-family:Helvetica;writing-mode:lr-tb;fill:#000000;fill-opacity:1;fill-rule:nonzero;stroke:none"
         x="0 8.6660156 13.335938 20.009766 26.683594 30.679688 34.013672 41.34375 48.673828 52.007812 58.681641 66.011719 73.341797 76.675781 85.341797 92.671875 100.00195 107.33203 110.66602 117.99609 125.32617 128.66016 138.65625 141.99023 149.32031 153.99023 160.66406 164.66016 167.99414 175.32422 182.6543"
         y="0"
         sodipodi:role="line"
         id="tspan5">Creating and Running Migrations</tspan></text>
    <text
       id="text6"
       xml:space="preserve"
       transform="matrix(0.95635052,0,0,0.95635052,82.545004,25.821464)"
       clip-path="url(#clipPath7)"><tspan
         style="font-variant:normal;font-weight:700;font-size:12px;font-family:Helvetica;writing-mode:lr-tb;fill:#000000;fill-opacity:1;fill-rule:nonzero;stroke:none"
         x="0 8.6660156 15.996094 20.666016 24 31.330078 38.660156 41.994141 50.660156 57.333984 64.007812 70.681641 74.015625 81.345703 88.675781 99.345703 106.01953 113.34961"
         y="0"
         sodipodi:role="line"
         id="tspan6">During Development</tspan></text>
    <path
       id="path8"
       d="m 20.5,75 h 250 v 30 h -250 z"
       style="fill:#ffffff;fill-opacity:1;fill-rule:nonzero;stroke:#000000;stroke-width:1;stroke-linecap:butt;stroke-linejoin:miter;stroke-miterlimit:10;stroke-dasharray:none;stroke-opacity:1"
       transform="matrix(0.95634089,0,0,0.95634089,0.47817045,0.47817045)"
       clip-path="url(#clipPath9)" />
    <text
       id="text9"
       xml:space="preserve"
       transform="matrix(0.95635052,0,0,0.95635052,26.180095,83.202495)"
       clip-path="url(#clipPath10)"><tspan
         style="font-variant:normal;font-weight:normal;font-size:12px;font-family:Helvetica;writing-mode:lr-tb;fill:#000000;fill-opacity:1;fill-rule:nonzero;stroke:none"
         x="0 8.6660156 14.666016 21.339844 24.673828 28.007812 34.681641 41.355469 44.478516 51.152344 57.152344 63.826172 70.5 79.833984 88.5 98.496094 101.83008 110.49609 117.16992 120.50391 123.83789 127.17188 133.8457 137.17969 143.85352 150.52734 157.20117 163.875 167.87109 174.54492 177.87891 184.55273 187.88672 194.56055 201.23438 204.56836 211.24219 221.23828 227.91211 231.24609"
         y="0"
         sodipodi:role="line"
         id="tspan9">Use the TypeORM CLI to generate an empty</tspan></text>
    <g
       id="g10" />
    <text
       id="text10"
       xml:space="preserve"
       transform="matrix(0.95635052,0,0,0.95635052,107.09632,97.547753)"
       clip-path="url(#clipPath11)"><tspan
         style="font-variant:normal;font-weight:normal;font-size:12px;font-family:Helvetica;writing-mode:lr-tb;fill:#000000;fill-opacity:1;fill-rule:nonzero;stroke:none"
         x="0 9.9960938 12.662109 19.335938 23.332031 30.005859 33.339844 36.005859 42.679688 49.353516 52.6875 58.6875 61.353516"
         y="0"
         sodipodi:role="line"
         id="tspan10">migration ﬁle</tspan></text>
    <path
       id="path12"
       d="m 20.5,115 h 250 v 30 h -250 z"
       style="fill:#ffffff;fill-opacity:1;fill-rule:nonzero;stroke:#000000;stroke-width:1;stroke-linecap:butt;stroke-linejoin:miter;stroke-miterlimit:10;stroke-dasharray:none;stroke-opacity:1"
       transform="matrix(0.95634089,0,0,0.95634089,0.47817045,0.47817045)"
       clip-path="url(#clipPath13)" />
    <text
       id="text13"
       xml:space="preserve"
       transform="matrix(0.95635052,0,0,0.95635052,37.865503,121.45652)"
       clip-path="url(#clipPath14)"><tspan
         style="font-variant:normal;font-weight:normal;font-size:12px;font-family:Helvetica;writing-mode:lr-tb;fill:#000000;fill-opacity:1;fill-rule:nonzero;stroke:none"
         x="0 8.0039062 14.677734 21.351562 24.685547 30.685547 37.359375 47.355469 54.029297 57.363281 63.363281 70.037109 76.710938 83.384766 86.71875 90.052734 96.726562 100.06055 106.06055 112.73438 119.4082 126.08203 132.75586 139.42969 142.76367 149.4375 156.11133 160.10742 163.44141 172.10742 180.11133 183.44531 186.11133 192.78516 196.11914 199.45312 206.12695"
         y="0"
         sodipodi:role="line"
         id="tspan13">Add some code to change our DB in the</tspan></text>
    <g
       id="g14" />
    <text
       id="text14"
       xml:space="preserve"
       transform="matrix(0.95635052,0,0,0.95635052,107.09632,135.80177)"
       clip-path="url(#clipPath15)"><tspan
         style="font-variant:normal;font-weight:normal;font-size:12px;font-family:Helvetica;writing-mode:lr-tb;fill:#000000;fill-opacity:1;fill-rule:nonzero;stroke:none"
         x="0 9.9960938 12.662109 19.335938 23.332031 30.005859 33.339844 36.005859 42.679688 49.353516 52.6875 58.6875 61.353516"
         y="0"
         sodipodi:role="line"
         id="tspan14">migration ﬁle</tspan></text>
    <path
       id="path16"
       d="m 20.5,155 h 250 v 30 h -250 z"
       style="fill:#ffffff;fill-opacity:1;fill-rule:nonzero;stroke:#000000;stroke-width:1;stroke-linecap:butt;stroke-linejoin:miter;stroke-miterlimit:10;stroke-dasharray:none;stroke-opacity:1"
       transform="matrix(0.95634089,0,0,0.95634089,0.47817045,0.47817045)"
       clip-path="url(#clipPath17)" />
    <text
       id="text17"
       xml:space="preserve"
       transform="matrix(0.95635052,0,0,0.95635052,25.537547,159.71054)"
       clip-path="url(#clipPath18)"><tspan
         style="font-variant:normal;font-weight:normal;font-size:12px;font-family:Helvetica;writing-mode:lr-tb;fill:#000000;fill-opacity:1;fill-rule:nonzero;stroke:none"
         x="0 8.6660156 14.666016 21.339844 24.673828 28.007812 34.681641 41.355469 44.478516 51.152344 57.152344 63.826172 70.5 79.833984 88.5 98.496094 101.83008 110.49609 117.16992 120.50391 123.83789 127.17188 133.8457 137.17969 143.85352 150.52734 157.20117 159.86719 165.86719 169.20117 172.53516 179.20898 185.88281 189.2168 199.21289 201.87891 208.55273 212.54883 219.22266 222.55664 225.22266 231.89648"
         y="0"
         sodipodi:role="line"
         id="tspan17">Use the TypeORM CLI to apply the migration</tspan></text>
    <text
       id="text18"
       xml:space="preserve"
       transform="matrix(0.95635052,0,0,0.95635052,115.70347,174.05579)"
       clip-path="url(#clipPath19)"><tspan
         style="font-variant:normal;font-weight:normal;font-size:12px;font-family:Helvetica;writing-mode:lr-tb;fill:#000000;fill-opacity:1;fill-rule:nonzero;stroke:none"
         x="0 3.3339844 10.007812 13.341797 16.675781 23.349609 30.023438 33.357422 42.023438"
         y="0"
         sodipodi:role="line"
         id="tspan18">to the DB</tspan></text>
    <path
       id="path20"
       d="m 20.5,195 h 250 v 30 h -250 z"
       style="fill:#ffffff;fill-opacity:1;fill-rule:nonzero;stroke:#000000;stroke-width:1;stroke-linecap:butt;stroke-linejoin:miter;stroke-miterlimit:10;stroke-dasharray:none;stroke-opacity:1"
       transform="matrix(0.95634089,0,0,0.95634089,0.47817045,0.47817045)"
       clip-path="url(#clipPath21)" />
    <text
       id="text21"
       xml:space="preserve"
       transform="matrix(0.95635052,0,0,0.95635052,37.865503,197.96456)"
       clip-path="url(#clipPath22)"><tspan
         style="font-variant:normal;font-weight:normal;font-size:12px;font-family:Helvetica;writing-mode:lr-tb;fill:#000000;fill-opacity:1;fill-rule:nonzero;stroke:none"
         x="0 8.6660156 16.669922 20.003906 22.669922 28.669922 32.003906 38.677734 45.351562 52.025391 58.699219 62.033203 68.707031 75.380859 78.714844 82.048828 90.714844 97.388672 103.38867 106.72266 113.39648 117.39258 120.72656 124.06055 127.39453 134.06836 140.74219 144.07617 150.75 157.42383 163.42383 170.09766 172.76367 179.4375 186.11133 196.10742 202.78125 209.45508"
         y="0"
         sodipodi:role="line"
         id="tspan21">DB is updated! Restart the development</tspan></text>
    <text
       id="text22"
       xml:space="preserve"
       transform="matrix(0.95635052,0,0,0.95635052,123.68302,212.30982)"
       clip-path="url(#clipPath23)"><tspan
         style="font-variant:normal;font-weight:normal;font-size:12px;font-family:Helvetica;writing-mode:lr-tb;fill:#000000;fill-opacity:1;fill-rule:nonzero;stroke:none"
         x="0 6 12.673828 16.669922 22.669922 29.34375"
         y="0"
         sodipodi:role="line"
         id="tspan22">server</tspan></text>
    <path
       id="path24"
       d="M 8,35 V 218.63"
       style="fill:none;stroke:#000000;stroke-width:1;stroke-linecap:butt;stroke-linejoin:miter;stroke-miterlimit:10;stroke-dasharray:none;stroke-opacity:1"
       transform="matrix(0.95634089,0,0,0.95634089,0.47817045,0.47817045)"
       clip-path="url(#clipPath25)" />
    <path
       id="path26"
       d="m 8,223.88 -3.5,-7 3.5,1.75 3.5,-1.75 z"
       style="fill:#000000;fill-opacity:1;fill-rule:nonzero;stroke:#000000;stroke-width:1;stroke-linecap:butt;stroke-linejoin:miter;stroke-miterlimit:10;stroke-dasharray:none;stroke-opacity:1"
       transform="matrix(0.95634089,0,0,0.95634089,0.47817045,0.47817045)"
       clip-path="url(#clipPath27)" />
    <path
       id="path28"
       d="M 298,172 H 276.87"
       style="fill:none;stroke:#000000;stroke-width:1;stroke-linecap:butt;stroke-linejoin:miter;stroke-miterlimit:10;stroke-dasharray:none;stroke-opacity:1"
       transform="matrix(0.95634089,0,0,0.95634089,0.47817045,0.47817045)"
       clip-path="url(#clipPath29)" />
    <path
       id="path30"
       d="m 271.62,172 7,-3.5 -1.75,3.5 1.75,3.5 z"
       style="fill:#000000;fill-opacity:1;fill-rule:nonzero;stroke:#000000;stroke-width:1;stroke-linecap:butt;stroke-linejoin:miter;stroke-miterlimit:10;stroke-dasharray:none;stroke-opacity:1"
       transform="matrix(0.95634089,0,0,0.95634089,0.47817045,0.47817045)"
       clip-path="url(#clipPath31)" />
    <path
       id="path32"
       d="m 298,142 h 180 v 60 H 298 Z"
       style="fill:#dae8fc;fill-opacity:1;fill-rule:nonzero;stroke:#6c8ebf;stroke-width:1;stroke-linecap:butt;stroke-linejoin:miter;stroke-miterlimit:10;stroke-dasharray:none;stroke-opacity:1"
       transform="matrix(0.95634089,0,0,0.95634089,0.47817045,0.47817045)"
       clip-path="url(#clipPath33)" />
    <text
       id="text33"
       xml:space="preserve"
       transform="matrix(0.95635052,0,0,0.95635052,300.05498,148.23433)"
       clip-path="url(#clipPath34)"><tspan
         style="font-variant:normal;font-weight:700;font-size:12px;font-family:Helvetica;writing-mode:lr-tb;fill:#000000;fill-opacity:1;fill-rule:nonzero;stroke:none"
         x="0 6.4453125 13.119141 20.449219 27.123047 36.457031 45.123047 55.119141 58.453125 67.119141 74.449219 77.783203 81.117188 90.451172 93.785156 97.119141 100.45312 103.78711 110.46094 117.13477 123.80859 130.48242 137.8125 141.80859"
         y="0"
         sodipodi:role="line"
         id="tspan33">TypeORM CLI will execute</tspan></text>
    <text
       id="text34"
       xml:space="preserve"
       transform="matrix(0.95635052,0,0,0.95635052,303.29761,161.62324)"
       clip-path="url(#clipPath35)"><tspan
         style="font-style:oblique;font-variant:normal;font-weight:700;font-size:12px;font-family:Helvetica;writing-mode:lr-tb;fill:#000000;fill-opacity:1;fill-rule:nonzero;stroke:none"
         x="0 7.3300781 14.660156 17.994141"
         y="0"
         sodipodi:role="line"
         id="tspan34">only</tspan></text>
    <g
       id="g35" />
    <text
       id="text35"
       xml:space="preserve"
       transform="matrix(0.95635052,0,0,0.95635052,326.89256,161.62324)"
       clip-path="url(#clipPath36)"><tspan
         style="font-variant:normal;font-weight:700;font-size:12px;font-family:Helvetica;writing-mode:lr-tb;fill:#000000;fill-opacity:1;fill-rule:nonzero;stroke:none"
         x="0 3.3339844 10.664062 17.994141 22.664062 25.998047 32.671875 40.001953 43.998047 47.332031 51.328125 58.001953 61.335938 68.666016 72 78.673828 85.347656 88.681641 95.689453 99.023438 103.01953 110.34961"
         y="0"
         sodipodi:role="line"
         id="tspan35"> our entity ﬁles + the</tspan></text>
    <g
       id="g36" />
    <text
       id="text36"
       xml:space="preserve"
       transform="matrix(0.95635052,0,0,0.95635052,289.13166,175.9685)"
       clip-path="url(#clipPath37)"><tspan
         style="font-variant:normal;font-weight:700;font-size:12px;font-family:Helvetica;writing-mode:lr-tb;fill:#000000;fill-opacity:1;fill-rule:nonzero;stroke:none"
         x="0 10.669922 14.003906 21.333984 26.003906 32.677734 36.673828 40.007812 47.337891 54.667969 58.001953 65.332031 68.666016 75.339844 78.673828 82.007812 86.003906 93.333984 100.00781 107.33789 110.67188 117.3457 124.67578 132.00586 139.33594 146.00977 152.68359 156.67969 160.01367 164.00977"
         y="0"
         sodipodi:role="line"
         id="tspan36">migration ﬁle, then connect to</tspan></text>
    <text
       id="text37"
       xml:space="preserve"
       transform="matrix(0.95635052,0,0,0.95635052,289.43052,189.3574)"
       clip-path="url(#clipPath38)"><tspan
         style="font-variant:normal;font-weight:700;font-size:12px;font-family:Helvetica;writing-mode:lr-tb;fill:#000000;fill-opacity:1;fill-rule:nonzero;stroke:none"
         x="0 3.9960938 11.326172 18 21.333984 30 38.666016 42 48.673828 56.003906 63.333984 66.667969 77.337891 84.011719 90.685547 97.359375 100.69336 104.68945 112.01953 118.69336 122.02734 128.70117 136.03125 142.70508 150.03516 157.36523 164.03906"
         y="0"
         sodipodi:role="line"
         id="tspan37">the DB and make the changes</tspan></text>
    <text
       id="text38"
       xml:space="preserve"
       transform="matrix(0.95635052,0,0,0.95635052,312.84616,207.52806)"
       clip-path="url(#clipPath39)"><tspan
         style="font-style:oblique;font-variant:normal;font-weight:normal;font-size:12px;font-family:Helvetica;writing-mode:lr-tb;fill:#000000;fill-opacity:1;fill-rule:nonzero;stroke:none"
         x="0 8.6660156 15.339844 18.673828 25.347656 28.013672 34.6875 41.361328 44.695312 48.691406 55.365234 58.03125 64.705078 68.039062 74.712891 81.386719 84.720703 88.054688 94.728516 98.0625 106.72852 113.40234 119.40234"
         y="0"
         sodipodi:role="line"
         id="tspan38">Nothing related to Nest</tspan></text>
    <text
       id="text39"
       xml:space="preserve"
       transform="matrix(0.95635052,0,0,0.95635052,327.52017,221.87332)"
       clip-path="url(#clipPath40)"><tspan
         style="font-style:oblique;font-variant:normal;font-weight:normal;font-size:12px;font-family:Helvetica;writing-mode:lr-tb;fill:#000000;fill-opacity:1;fill-rule:nonzero;stroke:none"
         x="0 8.6660156 11.332031 13.998047 16.664062 19.998047 26.671875 33.345703 36.679688 40.013672 46.6875 52.6875 59.361328 65.361328 72.035156 75.369141 82.042969 88.716797"
         y="0"
         sodipodi:role="line"
         id="tspan39">will get executed!</tspan></text>
  </g>
</svg>
