<?xml version="1.0" encoding="UTF-8" standalone="no"?>
<!-- Created with Inkscape (http://www.inkscape.org/) -->

<svg
   version="1.1"
   id="svg1"
   width="458.55997"
   height="244.16"
   viewBox="0 0 458.55997 244.16"
   sodipodi:docname="nest-11.pdf"
   xmlns:inkscape="http://www.inkscape.org/namespaces/inkscape"
   xmlns:sodipodi="http://sodipodi.sourceforge.net/DTD/sodipodi-0.dtd"
   xmlns="http://www.w3.org/2000/svg"
   xmlns:svg="http://www.w3.org/2000/svg">
  <defs
     id="defs1">
    <clipPath
       clipPathUnits="userSpaceOnUse"
       id="clipPath2">
      <path
         d="M 0,0 H 1433.3333 V 760.05566 H 0 Z"
         transform="scale(0.33418605)"
         clip-rule="evenodd"
         id="path2" />
    </clipPath>
    <clipPath
       clipPathUnits="userSpaceOnUse"
       id="clipPath4">
      <path
         d="M 0,0 H 1433.3333 V 760.05566 H 0 Z"
         transform="matrix(0.33418605,0,0,0.33418605,-0.50000001,-0.50000001)"
         clip-rule="evenodd"
         id="path4" />
    </clipPath>
    <clipPath
       clipPathUnits="userSpaceOnUse"
       id="clipPath5">
      <path
         d="M 0,0 H 1433.3333 V 760.05566 H 0 Z"
         transform="matrix(0.3341827,0,0,0.3341827,-11.453125,-22)"
         clip-rule="evenodd"
         id="path5" />
    </clipPath>
    <clipPath
       clipPathUnits="userSpaceOnUse"
       id="clipPath6">
      <path
         d="M 0,0 H 1433.3333 V 760.05566 H 0 Z"
         transform="matrix(0.3341827,0,0,0.3341827,-104.34375,-22)"
         clip-rule="evenodd"
         id="path6" />
    </clipPath>
    <clipPath
       clipPathUnits="userSpaceOnUse"
       id="clipPath8">
      <path
         d="M 0,0 H 1433.3333 V 760.05566 H 0 Z"
         transform="matrix(0.33418605,0,0,0.33418605,-0.50000001,-0.50000001)"
         clip-rule="evenodd"
         id="path8" />
    </clipPath>
    <clipPath
       clipPathUnits="userSpaceOnUse"
       id="clipPath10">
      <path
         d="M 0,0 H 1433.3333 V 760.05566 H 0 Z"
         transform="matrix(0.33418605,0,0,0.33418605,-0.50000001,-0.50000001)"
         clip-rule="evenodd"
         id="path10" />
    </clipPath>
    <clipPath
       clipPathUnits="userSpaceOnUse"
       id="clipPath11">
      <path
         d="M 0,0 H 1433.3333 V 760.05566 H 0 Z"
         transform="matrix(0.3341827,0,0,0.3341827,-46.4375,-75)"
         clip-rule="evenodd"
         id="path11" />
    </clipPath>
    <clipPath
       clipPathUnits="userSpaceOnUse"
       id="clipPath13">
      <path
         d="M 0,0 H 1433.3333 V 760.05566 H 0 Z"
         transform="matrix(0.33418605,0,0,0.33418605,-0.50000001,-0.50000001)"
         clip-rule="evenodd"
         id="path13" />
    </clipPath>
    <clipPath
       clipPathUnits="userSpaceOnUse"
       id="clipPath14">
      <path
         d="M 0,0 H 1433.3333 V 760.05566 H 0 Z"
         transform="matrix(0.3341827,0,0,0.3341827,-377.09375,-85)"
         clip-rule="evenodd"
         id="path14" />
    </clipPath>
    <clipPath
       clipPathUnits="userSpaceOnUse"
       id="clipPath16">
      <path
         d="M 0,0 H 1433.3333 V 760.05566 H 0 Z"
         transform="matrix(0.33418605,0,0,0.33418605,-0.50000001,-0.50000001)"
         clip-rule="evenodd"
         id="path16" />
    </clipPath>
    <clipPath
       clipPathUnits="userSpaceOnUse"
       id="clipPath18">
      <path
         d="M 0,0 H 1433.3333 V 760.05566 H 0 Z"
         transform="matrix(0.33418605,0,0,0.33418605,-0.50000001,-0.50000001)"
         clip-rule="evenodd"
         id="path18" />
    </clipPath>
    <clipPath
       clipPathUnits="userSpaceOnUse"
       id="clipPath20">
      <path
         d="M 0,0 H 1433.3333 V 760.05566 H 0 Z"
         transform="matrix(0.33418605,0,0,0.33418605,-0.50000001,-0.50000001)"
         clip-rule="evenodd"
         id="path20" />
    </clipPath>
    <clipPath
       clipPathUnits="userSpaceOnUse"
       id="clipPath22">
      <path
         d="M 0,0 H 1433.3333 V 760.05566 H 0 Z"
         transform="matrix(0.33418605,0,0,0.33418605,-0.50000001,-0.50000001)"
         clip-rule="evenodd"
         id="path22" />
    </clipPath>
    <clipPath
       clipPathUnits="userSpaceOnUse"
       id="clipPath24">
      <path
         d="M 0,0 H 1433.3333 V 760.05566 H 0 Z"
         transform="matrix(0.33418605,0,0,0.33418605,-0.50000001,-0.50000001)"
         clip-rule="evenodd"
         id="path24" />
    </clipPath>
    <clipPath
       clipPathUnits="userSpaceOnUse"
       id="clipPath26">
      <path
         d="M 0,0 H 1433.3333 V 760.05566 H 0 Z"
         transform="matrix(0.33418605,0,0,0.33418605,-0.50000001,-0.50000001)"
         clip-rule="evenodd"
         id="path26" />
    </clipPath>
    <clipPath
       clipPathUnits="userSpaceOnUse"
       id="clipPath28">
      <path
         d="M 0,0 H 1433.3333 V 760.05566 H 0 Z"
         transform="matrix(0.33418605,0,0,0.33418605,-0.50000001,-0.50000001)"
         clip-rule="evenodd"
         id="path28" />
    </clipPath>
    <clipPath
       clipPathUnits="userSpaceOnUse"
       id="clipPath29">
      <path
         d="M 0,0 H 1433.3333 V 760.05566 H 0 Z"
         transform="matrix(0.3341827,0,0,0.3341827,-185.98438,-211)"
         clip-rule="evenodd"
         id="path29" />
    </clipPath>
    <clipPath
       clipPathUnits="userSpaceOnUse"
       id="clipPath30">
      <path
         d="M 0,0 H 1433.3333 V 760.05566 H 0 Z"
         transform="matrix(0.3341827,0,0,0.3341827,-231.54688,-235)"
         clip-rule="evenodd"
         id="path30" />
    </clipPath>
    <clipPath
       clipPathUnits="userSpaceOnUse"
       id="clipPath32">
      <path
         d="M 0,0 H 1433.3333 V 760.05566 H 0 Z"
         transform="matrix(0.33418605,0,0,0.33418605,-0.50000001,-0.50000001)"
         clip-rule="evenodd"
         id="path32" />
    </clipPath>
    <clipPath
       clipPathUnits="userSpaceOnUse"
       id="clipPath33">
      <path
         d="M 0,0 H 1433.3333 V 760.05566 H 0 Z"
         transform="matrix(0.3341827,0,0,0.3341827,-171.6875,-21)"
         clip-rule="evenodd"
         id="path33" />
    </clipPath>
    <clipPath
       clipPathUnits="userSpaceOnUse"
       id="clipPath34">
      <path
         d="M 0,0 H 1433.3333 V 760.05566 H 0 Z"
         transform="matrix(0.3341827,0,0,0.3341827,-264.57813,-21)"
         clip-rule="evenodd"
         id="path34" />
    </clipPath>
    <clipPath
       clipPathUnits="userSpaceOnUse"
       id="clipPath36">
      <path
         d="M 0,0 H 1433.3333 V 760.05566 H 0 Z"
         transform="matrix(0.33418605,0,0,0.33418605,-0.50000001,-0.50000001)"
         clip-rule="evenodd"
         id="path36" />
    </clipPath>
    <clipPath
       clipPathUnits="userSpaceOnUse"
       id="clipPath38">
      <path
         d="M 0,0 H 1433.3333 V 760.05566 H 0 Z"
         transform="matrix(0.33418605,0,0,0.33418605,-0.50000001,-0.50000001)"
         clip-rule="evenodd"
         id="path38" />
    </clipPath>
    <clipPath
       clipPathUnits="userSpaceOnUse"
       id="clipPath39">
      <path
         d="M 0,0 H 1433.3333 V 760.05566 H 0 Z"
         transform="matrix(0.3341827,0,0,0.3341827,-218.4375,-75)"
         clip-rule="evenodd"
         id="path39" />
    </clipPath>
  </defs>
  <sodipodi:namedview
     id="namedview1"
     pagecolor="#ffffff"
     bordercolor="#000000"
     borderopacity="0.25"
     inkscape:showpageshadow="2"
     inkscape:pageopacity="0.0"
     inkscape:pagecheckerboard="0"
     inkscape:deskcolor="#d1d1d1">
    <inkscape:page
       x="0"
       y="0"
       inkscape:label="1"
       id="page1"
       width="458.55997"
       height="244.16"
       margin="0"
       bleed="0" />
  </sodipodi:namedview>
  <g
     id="g1"
     inkscape:groupmode="layer"
     inkscape:label="1">
    <path
       id="path1"
       d="M 0,0 H 479 V 254 H 0 Z"
       style="fill:#ffffff;fill-opacity:1;fill-rule:nonzero;stroke:none"
       transform="scale(0.95755039)"
       clip-path="url(#clipPath2)" />
    <path
       id="path3"
       d="M 1,1 H 146 V 31 H 1 Z"
       style="fill:#dae8fc;fill-opacity:1;fill-rule:nonzero;stroke:#6c8ebf;stroke-width:1;stroke-linecap:butt;stroke-linejoin:miter;stroke-miterlimit:10;stroke-dasharray:none;stroke-opacity:1"
       transform="matrix(0.95755039,0,0,0.95755039,0.4787752,0.4787752)"
       clip-path="url(#clipPath4)" />
    <text
       id="text4"
       xml:space="preserve"
       transform="matrix(0.95755999,0,0,0.95755999,10.967054,21.06632)"
       clip-path="url(#clipPath5)"><tspan
         style="font-variant:normal;font-weight:700;font-size:12px;font-family:Helvetica;writing-mode:lr-tb;fill:#000000;fill-opacity:1;fill-rule:nonzero;stroke:none"
         x="0 9.3339844 16.664062 21.333984 24.228516 32.894531 40.224609 47.554688 50.888672 59.554688 66.884766 71.554688 74.888672 82.21875 89.548828"
         y="0"
         sodipodi:role="line"
         id="tspan4">Our App During </tspan></text>
    <text
       id="text5"
       xml:space="preserve"
       transform="matrix(0.95755999,0,0,0.95755999,99.9154,21.06632)"
       clip-path="url(#clipPath6)"><tspan
         style="font-variant:normal;font-weight:700;font-size:17px;font-family:Helvetica;writing-mode:lr-tb;fill:#000000;fill-opacity:1;fill-rule:nonzero;stroke:none"
         x="0 12.276855 21.731445"
         y="0"
         sodipodi:role="line"
         id="tspan5">Dev</tspan></text>
    <path
       id="path7"
       d="m 1,31 h 145 v 80 H 1 Z"
       style="fill:#dae8fc;fill-opacity:1;fill-rule:nonzero;stroke:#6c8ebf;stroke-width:1;stroke-linecap:butt;stroke-linejoin:miter;stroke-miterlimit:10;stroke-dasharray:none;stroke-opacity:1"
       transform="matrix(0.95755039,0,0,0.95755039,0.4787752,0.4787752)"
       clip-path="url(#clipPath8)" />
    <path
       id="path9"
       d="m 38.5,41 h 70 v 60 h -70 z"
       style="fill:#ffe6cc;fill-opacity:1;fill-rule:nonzero;stroke:#d79b00;stroke-width:1;stroke-linecap:butt;stroke-linejoin:miter;stroke-miterlimit:10;stroke-dasharray:none;stroke-opacity:1"
       transform="matrix(0.95755039,0,0,0.95755039,0.4787752,0.4787752)"
       clip-path="url(#clipPath10)" />
    <text
       id="text10"
       xml:space="preserve"
       transform="matrix(0.95755999,0,0,0.95755999,44.466692,71.816999)"
       clip-path="url(#clipPath11)"><tspan
         style="font-variant:normal;font-weight:700;font-size:12px;font-family:Helvetica;writing-mode:lr-tb;fill:#000000;fill-opacity:1;fill-rule:nonzero;stroke:none"
         x="0 6.4453125 13.119141 20.449219 27.123047 36.457031 45.123047"
         y="0"
         sodipodi:role="line"
         id="tspan10">TypeORM</tspan></text>
    <path
       id="path12"
       d="m 356,51 h 120 v 60 H 356 Z"
       style="fill:#ffe6cc;fill-opacity:1;fill-rule:nonzero;stroke:#d79b00;stroke-width:1;stroke-linecap:butt;stroke-linejoin:miter;stroke-miterlimit:10;stroke-dasharray:none;stroke-opacity:1"
       transform="matrix(0.95755039,0,0,0.95755039,0.4787752,0.4787752)"
       clip-path="url(#clipPath13)" />
    <text
       id="text13"
       xml:space="preserve"
       transform="matrix(0.95755999,0,0,0.95755999,361.08989,81.392599)"
       clip-path="url(#clipPath14)"><tspan
         style="font-variant:normal;font-weight:700;font-size:12px;font-family:Helvetica;writing-mode:lr-tb;fill:#000000;fill-opacity:1;fill-rule:nonzero;stroke:none"
         x="0 6.4453125 13.119141 20.449219 27.123047 36.457031 45.123047 55.119141 58.453125 67.119141 74.449219"
         y="0"
         sodipodi:role="line"
         id="tspan13">TypeORM CLI</tspan></text>
    <path
       id="path15"
       d="M 246,181 V 117.37"
       style="fill:none;stroke:#000000;stroke-width:1;stroke-linecap:butt;stroke-linejoin:miter;stroke-miterlimit:10;stroke-dasharray:none;stroke-opacity:1"
       transform="matrix(0.95755039,0,0,0.95755039,0.4787752,0.4787752)"
       clip-path="url(#clipPath16)" />
    <path
       id="path17"
       d="m 246,112.12 3.5,7 -3.5,-1.75 -3.5,1.75 z"
       style="fill:#000000;fill-opacity:1;fill-rule:nonzero;stroke:#000000;stroke-width:1;stroke-linecap:butt;stroke-linejoin:miter;stroke-miterlimit:10;stroke-dasharray:none;stroke-opacity:1"
       transform="matrix(0.95755039,0,0,0.95755039,0.4787752,0.4787752)"
       clip-path="url(#clipPath18)" />
    <path
       id="path19"
       d="M 246,181 V 146 H 73.5 v -28.63"
       style="fill:none;stroke:#000000;stroke-width:1;stroke-linecap:butt;stroke-linejoin:miter;stroke-miterlimit:10;stroke-dasharray:none;stroke-opacity:1"
       transform="matrix(0.95755039,0,0,0.95755039,0.4787752,0.4787752)"
       clip-path="url(#clipPath20)" />
    <path
       id="path21"
       d="m 73.5,112.12 3.5,7 -3.5,-1.75 -3.5,1.75 z"
       style="fill:#000000;fill-opacity:1;fill-rule:nonzero;stroke:#000000;stroke-width:1;stroke-linecap:butt;stroke-linejoin:miter;stroke-miterlimit:10;stroke-dasharray:none;stroke-opacity:1"
       transform="matrix(0.95755039,0,0,0.95755039,0.4787752,0.4787752)"
       clip-path="url(#clipPath22)" />
    <path
       id="path23"
       d="M 246,186 V 146 H 416 V 117.37"
       style="fill:none;stroke:#000000;stroke-width:1;stroke-linecap:butt;stroke-linejoin:miter;stroke-miterlimit:10;stroke-dasharray:none;stroke-opacity:1"
       transform="matrix(0.95755039,0,0,0.95755039,0.4787752,0.4787752)"
       clip-path="url(#clipPath24)" />
    <path
       id="path25"
       d="m 416,112.12 3.5,7 -3.5,-1.75 -3.5,1.75 z"
       style="fill:#000000;fill-opacity:1;fill-rule:nonzero;stroke:#000000;stroke-width:1;stroke-linecap:butt;stroke-linejoin:miter;stroke-miterlimit:10;stroke-dasharray:none;stroke-opacity:1"
       transform="matrix(0.95755039,0,0,0.95755039,0.4787752,0.4787752)"
       clip-path="url(#clipPath26)" />
    <path
       id="path27"
       d="m 171,181 h 150 v 70 H 171 Z"
       style="fill:#f8cecc;fill-opacity:1;fill-rule:nonzero;stroke:#b85450;stroke-width:1;stroke-linecap:butt;stroke-linejoin:miter;stroke-miterlimit:10;stroke-dasharray:none;stroke-opacity:1"
       transform="matrix(0.95755039,0,0,0.95755039,0.4787752,0.4787752)"
       clip-path="url(#clipPath28)" />
    <g
       id="g28" />
    <text
       id="text28"
       xml:space="preserve"
       transform="matrix(0.95755999,0,0,0.95755999,178.0912,202.04516)"
       clip-path="url(#clipPath29)"><tspan
         style="font-variant:normal;font-weight:700;font-size:20px;font-family:Helvetica;writing-mode:lr-tb;fill:#000000;fill-opacity:1;fill-rule:nonzero;stroke:none"
         x="0 12.216797 20 37.783203 48.90625 61.123047 73.339844 85.556641 97.773438 103.33008 108.88672"
         y="0"
         sodipodi:role="line"
         id="tspan28">ormconﬁg.js</tspan></text>
    <g
       id="g29" />
    <text
       id="text29"
       xml:space="preserve"
       transform="matrix(0.95755999,0,0,0.95755999,221.72003,225.0266)"
       clip-path="url(#clipPath30)"><tspan
         style="font-variant:normal;font-weight:700;font-size:20px;font-family:Helvetica;writing-mode:lr-tb;fill:#000000;fill-opacity:1;fill-rule:nonzero;stroke:none"
         x="0 12.216797 17.773438"
         y="0"
         sodipodi:role="line"
         id="tspan29">ﬁle</tspan></text>
    <path
       id="path31"
       d="M 166,1 H 326 V 31 H 166 Z"
       style="fill:#dae8fc;fill-opacity:1;fill-rule:nonzero;stroke:#6c8ebf;stroke-width:1;stroke-linecap:butt;stroke-linejoin:miter;stroke-miterlimit:10;stroke-dasharray:none;stroke-opacity:1"
       transform="matrix(0.95755039,0,0,0.95755039,0.4787752,0.4787752)"
       clip-path="url(#clipPath32)" />
    <text
       id="text32"
       xml:space="preserve"
       transform="matrix(0.95755999,0,0,0.95755999,164.40108,20.10876)"
       clip-path="url(#clipPath33)"><tspan
         style="font-variant:normal;font-weight:700;font-size:12px;font-family:Helvetica;writing-mode:lr-tb;fill:#000000;fill-opacity:1;fill-rule:nonzero;stroke:none"
         x="0 9.3339844 16.664062 21.333984 24.228516 32.894531 40.224609 47.554688 50.888672 59.554688 66.884766 71.554688 74.888672 82.21875 89.548828"
         y="0"
         sodipodi:role="line"
         id="tspan32">Our App During </tspan></text>
    <text
       id="text33"
       xml:space="preserve"
       transform="matrix(0.95755999,0,0,0.95755999,253.34943,20.10876)"
       clip-path="url(#clipPath34)"><tspan
         style="font-variant:normal;font-weight:700;font-size:16px;font-family:Helvetica;writing-mode:lr-tb;fill:#000000;fill-opacity:1;fill-rule:nonzero;stroke:none"
         x="0 8.59375 17.492188 26.390625 31.71875 36.164062 45.9375"
         y="0"
         sodipodi:role="line"
         id="tspan33">Testing</tspan></text>
    <path
       id="path35"
       d="m 166,31 h 160 v 80 H 166 Z"
       style="fill:#dae8fc;fill-opacity:1;fill-rule:nonzero;stroke:#6c8ebf;stroke-width:1;stroke-linecap:butt;stroke-linejoin:miter;stroke-miterlimit:10;stroke-dasharray:none;stroke-opacity:1"
       transform="matrix(0.95755039,0,0,0.95755039,0.4787752,0.4787752)"
       clip-path="url(#clipPath36)" />
    <path
       id="path37"
       d="m 211,41 h 70 v 60 h -70 z"
       style="fill:#ffe6cc;fill-opacity:1;fill-rule:nonzero;stroke:#d79b00;stroke-width:1;stroke-linecap:butt;stroke-linejoin:miter;stroke-miterlimit:10;stroke-dasharray:none;stroke-opacity:1"
       transform="matrix(0.95755039,0,0,0.95755039,0.4787752,0.4787752)"
       clip-path="url(#clipPath38)" />
    <text
       id="text38"
       xml:space="preserve"
       transform="matrix(0.95755999,0,0,0.95755999,209.16701,71.816999)"
       clip-path="url(#clipPath39)"><tspan
         style="font-variant:normal;font-weight:700;font-size:12px;font-family:Helvetica;writing-mode:lr-tb;fill:#000000;fill-opacity:1;fill-rule:nonzero;stroke:none"
         x="0 6.4453125 13.119141 20.449219 27.123047 36.457031 45.123047"
         y="0"
         sodipodi:role="line"
         id="tspan38">TypeORM</tspan></text>
  </g>
</svg>
