<?xml version="1.0" encoding="UTF-8" standalone="no"?>
<!-- Created with Inkscape (http://www.inkscape.org/) -->

<svg
   version="1.1"
   id="svg1"
   width="185.27998"
   height="220.15999"
   viewBox="0 0 185.27998 220.15999"
   sodipodi:docname="nest-5.pdf"
   xmlns:inkscape="http://www.inkscape.org/namespaces/inkscape"
   xmlns:sodipodi="http://sodipodi.sourceforge.net/DTD/sodipodi-0.dtd"
   xmlns="http://www.w3.org/2000/svg"
   xmlns:svg="http://www.w3.org/2000/svg">
  <defs
     id="defs1">
    <clipPath
       clipPathUnits="userSpaceOnUse"
       id="clipPath2">
      <path
         d="M 0,0 H 579.16669 V 686.64087 H 0 Z"
         transform="scale(0.33496403)"
         clip-rule="evenodd"
         id="path2" />
    </clipPath>
    <clipPath
       clipPathUnits="userSpaceOnUse"
       id="clipPath4">
      <path
         d="M 0,0 H 579.16669 V 680.6701 H 0 Z"
         transform="matrix(0.33496403,0,0,0.33496403,-0.5,-0.5)"
         clip-rule="evenodd"
         id="path4" />
    </clipPath>
    <clipPath
       clipPathUnits="userSpaceOnUse"
       id="clipPath6">
      <path
         d="M 0,0 H 579.16669 V 680.6701 H 0 Z"
         transform="matrix(0.33496403,0,0,0.33496403,-0.5,-0.5)"
         clip-rule="evenodd"
         id="path6" />
    </clipPath>
    <clipPath
       clipPathUnits="userSpaceOnUse"
       id="clipPath8">
      <path
         d="M 0,0 H 579.16669 V 680.6701 H 0 Z"
         transform="matrix(0.33496403,0,0,0.33496403,-0.5,-0.5)"
         clip-rule="evenodd"
         id="path8" />
    </clipPath>
    <clipPath
       clipPathUnits="userSpaceOnUse"
       id="clipPath9">
      <path
         d="M 0,0 H 579.16669 V 680.6701 H 0 Z"
         transform="matrix(0.33496068,0,0,0.33496068,-39.46875,-18)"
         clip-rule="evenodd"
         id="path9" />
    </clipPath>
    <clipPath
       clipPathUnits="userSpaceOnUse"
       id="clipPath11">
      <path
         d="M 0,0 H 579.16669 V 680.6701 H 0 Z"
         transform="matrix(0.33496403,0,0,0.33496403,-0.5,-0.5)"
         clip-rule="evenodd"
         id="path11" />
    </clipPath>
    <clipPath
       clipPathUnits="userSpaceOnUse"
       id="clipPath12">
      <path
         d="M 0,0 H 579.16669 V 680.6701 H 0 Z"
         transform="matrix(0.33496068,0,0,0.33496068,-79,-78)"
         clip-rule="evenodd"
         id="path12" />
    </clipPath>
    <clipPath
       clipPathUnits="userSpaceOnUse"
       id="clipPath14">
      <path
         d="M 0,0 H 579.16669 V 680.6701 H 0 Z"
         transform="matrix(0.33496403,0,0,0.33496403,-0.5,-0.5)"
         clip-rule="evenodd"
         id="path14" />
    </clipPath>
    <clipPath
       clipPathUnits="userSpaceOnUse"
       id="clipPath15">
      <path
         d="M 0,0 H 579.16669 V 680.6701 H 0 Z"
         transform="matrix(0.33496068,0,0,0.33496068,-20,-98)"
         clip-rule="evenodd"
         id="path15" />
    </clipPath>
    <clipPath
       clipPathUnits="userSpaceOnUse"
       id="clipPath16">
      <path
         d="M 0,0 H 579.16669 V 680.6701 H 0 Z"
         transform="matrix(0.33496068,0,0,0.33496068,-20,-109)"
         clip-rule="evenodd"
         id="path16" />
    </clipPath>
    <clipPath
       clipPathUnits="userSpaceOnUse"
       id="clipPath17">
      <path
         d="M 0,0 H 579.16669 V 680.6701 H 0 Z"
         transform="matrix(0.33496068,0,0,0.33496068,-20,-120.00001)"
         clip-rule="evenodd"
         id="path17" />
    </clipPath>
    <clipPath
       clipPathUnits="userSpaceOnUse"
       id="clipPath19">
      <path
         d="M 0,0 H 579.16669 V 680.6701 H 0 Z"
         transform="matrix(0.33496403,0,0,0.33496403,-0.5,-0.5)"
         clip-rule="evenodd"
         id="path19" />
    </clipPath>
    <clipPath
       clipPathUnits="userSpaceOnUse"
       id="clipPath20">
      <path
         d="M 0,0 H 579.16669 V 680.6701 H 0 Z"
         transform="matrix(0.33496068,0,0,0.33496068,-66.5,-168)"
         clip-rule="evenodd"
         id="path20" />
    </clipPath>
    <clipPath
       clipPathUnits="userSpaceOnUse"
       id="clipPath22">
      <path
         d="M 0,0 H 579.16669 V 680.6701 H 0 Z"
         transform="matrix(0.33496403,0,0,0.33496403,-0.5,-0.5)"
         clip-rule="evenodd"
         id="path22" />
    </clipPath>
    <clipPath
       clipPathUnits="userSpaceOnUse"
       id="clipPath23">
      <path
         d="M 0,0 H 579.16669 V 680.6701 H 0 Z"
         transform="matrix(0.33496068,0,0,0.33496068,-20,-199)"
         clip-rule="evenodd"
         id="path23" />
    </clipPath>
  </defs>
  <sodipodi:namedview
     id="namedview1"
     pagecolor="#ffffff"
     bordercolor="#000000"
     borderopacity="0.25"
     inkscape:showpageshadow="2"
     inkscape:pageopacity="0.0"
     inkscape:pagecheckerboard="0"
     inkscape:deskcolor="#d1d1d1">
    <inkscape:page
       x="0"
       y="0"
       inkscape:label="1"
       id="page1"
       width="185.27998"
       height="220.15999"
       margin="0"
       bleed="0" />
  </sodipodi:namedview>
  <g
     id="g1"
     inkscape:groupmode="layer"
     inkscape:label="1">
    <path
       id="path1"
       d="M 0,0 H 194 V 230 H 0 Z"
       style="fill:#ffffff;fill-opacity:1;fill-rule:nonzero;stroke:none"
       transform="scale(0.95532642)"
       clip-path="url(#clipPath2)" />
    <path
       id="path3"
       d="m 1,26 h 169 l 21,21 V 226 H 1 Z"
       style="fill:#ffffff;fill-opacity:1;fill-rule:nonzero;stroke:#000000;stroke-width:1;stroke-linecap:butt;stroke-linejoin:miter;stroke-miterlimit:10;stroke-dasharray:none;stroke-opacity:1"
       transform="matrix(0.95532642,0,0,0.95532642,0.47766321,0.47766321)"
       clip-path="url(#clipPath4)" />
    <path
       id="path5"
       d="m 170,26 v 21 h 21 z"
       style="fill:#000000;fill-opacity:0.05;fill-rule:nonzero;stroke:none"
       transform="matrix(0.95532642,0,0,0.95532642,0.47766321,0.47766321)"
       clip-path="url(#clipPath6)" />
    <path
       id="path7"
       d="m 170,26 v 21 h 21"
       style="fill:none;stroke:#000000;stroke-width:1;stroke-linecap:butt;stroke-linejoin:miter;stroke-miterlimit:10;stroke-dasharray:none;stroke-opacity:1"
       transform="matrix(0.95532642,0,0,0.95532642,0.47766321,0.47766321)"
       clip-path="url(#clipPath8)" />
    <text
       id="text8"
       xml:space="preserve"
       transform="matrix(0.95533596,0,0,0.95533596,37.705916,17.196047)"
       clip-path="url(#clipPath9)"><tspan
         style="font-style:oblique;font-variant:normal;font-weight:normal;font-size:18px;font-family:Helvetica;writing-mode:lr-tb;fill:#000000;fill-opacity:1;fill-rule:nonzero;stroke:none"
         x="0 14.994141 18.993164 29.003906 34.998047 45.008789 50.009766 54.008789 64.019531 74.030273 79.03125 90.026367 94.025391 98.024414"
         y="0"
         sodipodi:role="line"
         id="tspan8">Migration File</tspan></text>
    <path
       id="path10"
       d="M 16,56 H 176 V 86 H 16 Z"
       style="fill:#dae8fc;fill-opacity:1;fill-rule:nonzero;stroke:#6c8ebf;stroke-width:1;stroke-linecap:butt;stroke-linejoin:miter;stroke-miterlimit:10;stroke-dasharray:none;stroke-opacity:1"
       transform="matrix(0.95532642,0,0,0.95532642,0.47766321,0.47766321)"
       clip-path="url(#clipPath11)" />
    <text
       id="text11"
       xml:space="preserve"
       transform="matrix(0.95533596,0,0,0.95533596,75.471541,74.516205)"
       clip-path="url(#clipPath12)"><tspan
         style="font-variant:normal;font-weight:700;font-size:18px;font-family:Helvetica;writing-mode:lr-tb;fill:#000000;fill-opacity:1;fill-rule:nonzero;stroke:none"
         x="0 10.995117 21.990234 27.984375"
         y="0"
         sodipodi:role="line"
         id="tspan11">up()</tspan></text>
    <path
       id="path13"
       d="m 16,86 h 160 v 40 H 16 Z"
       style="fill:#dae8fc;fill-opacity:1;fill-rule:nonzero;stroke:#6c8ebf;stroke-width:1;stroke-linecap:butt;stroke-linejoin:miter;stroke-miterlimit:10;stroke-dasharray:none;stroke-opacity:1"
       transform="matrix(0.95532642,0,0,0.95532642,0.47766321,0.47766321)"
       clip-path="url(#clipPath14)" />
    <text
       id="text14"
       xml:space="preserve"
       transform="matrix(0.95533596,0,0,0.95533596,19.106719,93.622924)"
       clip-path="url(#clipPath15)"><tspan
         style="font-style:oblique;font-variant:normal;font-weight:normal;font-size:9px;font-family:Helvetica;writing-mode:lr-tb;fill:#000000;fill-opacity:1;fill-rule:nonzero;stroke:none"
         x="0 2.9970703 5.0053711 11.008301 16.013672 21.019043 23.519531 28.524902 31.025391 33.525879 38.53125 43.536621 45.536133 50.541504 53.041992 57.541992 62.547363 64.546875 66.546387 71.551758 76.557129 79.057617 80.775879 85.78125 90.28125 95.286621 98.283691 102.78369"
         y="0"
         sodipodi:role="line"
         id="tspan14">- Add a table called 'users'</tspan></text>
    <text
       id="text15"
       xml:space="preserve"
       transform="matrix(0.95533596,0,0,0.95533596,19.106719,104.13162)"
       clip-path="url(#clipPath16)"><tspan
         style="font-style:oblique;font-variant:normal;font-weight:normal;font-size:9px;font-family:Helvetica;writing-mode:lr-tb;fill:#000000;fill-opacity:1;fill-rule:nonzero;stroke:none"
         x="0 2.9970703 5.4975586 12.498047 14.497559 18.997559 24.00293 26.503418 29.003906 34.009277 39.014648 41.515137 44.015625 49.020996 54.026367 56.025879 61.03125 63.531738 68.537109 71.037598 75.537598 80.542969 82.54248 87.547852 95.044922 100.05029 102.55078 104.26904 109.27441 116.77148 121.77686 123.77637 125.77588"
         y="0"
         sodipodi:role="line"
         id="tspan15">- Give the table a column 'email'</tspan></text>
    <text
       id="text16"
       xml:space="preserve"
       transform="matrix(0.95533596,0,0,0.95533596,19.106719,114.64032)"
       clip-path="url(#clipPath17)"><tspan
         style="font-style:oblique;font-variant:normal;font-weight:normal;font-size:9px;font-family:Helvetica;writing-mode:lr-tb;fill:#000000;fill-opacity:1;fill-rule:nonzero;stroke:none"
         x="0 2.9970703 5.4975586 12.498047 14.497559 18.997559 24.00293 26.503418 29.003906 34.009277 39.014648 41.515137 44.015625 49.020996 54.026367 56.025879 61.03125 63.531738 68.537109 71.037598 75.537598 80.542969 82.54248 87.547852 95.044922 100.05029 102.55078 104.26904 109.27441 114.27979 118.77979 123.27979 129.7793 134.78467 137.78174 142.78711"
         y="0"
         sodipodi:role="line"
         id="tspan16">- Give the table a column 'password'</tspan></text>
    <path
       id="path18"
       d="m 16,146 h 160 v 30 H 16 Z"
       style="fill:#fff2cc;fill-opacity:1;fill-rule:nonzero;stroke:#d6b656;stroke-width:1;stroke-linecap:butt;stroke-linejoin:miter;stroke-miterlimit:10;stroke-dasharray:none;stroke-opacity:1"
       transform="matrix(0.95532642,0,0,0.95532642,0.47766321,0.47766321)"
       clip-path="url(#clipPath19)" />
    <text
       id="text19"
       xml:space="preserve"
       transform="matrix(0.95533596,0,0,0.95533596,63.529841,160.49644)"
       clip-path="url(#clipPath20)"><tspan
         style="font-variant:normal;font-weight:700;font-size:18px;font-family:Helvetica;writing-mode:lr-tb;fill:#000000;fill-opacity:1;fill-rule:nonzero;stroke:none"
         x="0 10.995117 21.990234 35.991211 46.986328 52.980469"
         y="0"
         sodipodi:role="line"
         id="tspan19">down()</tspan></text>
    <path
       id="path21"
       d="m 16,176 h 160 v 40 H 16 Z"
       style="fill:#fff2cc;fill-opacity:1;fill-rule:nonzero;stroke:#d6b656;stroke-width:1;stroke-linecap:butt;stroke-linejoin:miter;stroke-miterlimit:10;stroke-dasharray:none;stroke-opacity:1"
       transform="matrix(0.95532642,0,0,0.95532642,0.47766321,0.47766321)"
       clip-path="url(#clipPath22)" />
    <text
       id="text22"
       xml:space="preserve"
       transform="matrix(0.95533596,0,0,0.95533596,19.106719,190.11186)"
       clip-path="url(#clipPath23)"><tspan
         style="font-style:oblique;font-variant:normal;font-weight:normal;font-size:9px;font-family:Helvetica;writing-mode:lr-tb;fill:#000000;fill-opacity:1;fill-rule:nonzero;stroke:none"
         x="0 2.9970703 5.4975586 11.99707 17.002441 19.001953 24.007324 26.507812 31.513184 34.013672 36.51416 41.519531 46.524902 49.025391 51.525879 56.53125 61.536621 63.536133 68.541504 71.041992 75.541992 80.547363 82.546875 84.546387 89.551758 94.557129 97.057617 98.775879 103.78125 108.28125 113.28662 116.28369 120.78369"
         y="0"
         sodipodi:role="line"
         id="tspan22">- Delete the table called 'users'</tspan></text>
  </g>
</svg>
