<?xml version="1.0" encoding="UTF-8" standalone="no"?>
<!-- Created with Inkscape (http://www.inkscape.org/) -->

<svg
   version="1.1"
   id="svg1"
   width="313.28"
   height="226.56"
   viewBox="0 0 313.28 226.56"
   sodipodi:docname="nest-7.pdf"
   xmlns:inkscape="http://www.inkscape.org/namespaces/inkscape"
   xmlns:sodipodi="http://sodipodi.sourceforge.net/DTD/sodipodi-0.dtd"
   xmlns="http://www.w3.org/2000/svg"
   xmlns:svg="http://www.w3.org/2000/svg">
  <defs
     id="defs1">
    <clipPath
       clipPathUnits="userSpaceOnUse"
       id="clipPath2">
      <path
         d="M 0,0 H 979.16663 V 707.50757 H 0 Z"
         transform="scale(0.33497874)"
         clip-rule="evenodd"
         id="path2" />
    </clipPath>
    <clipPath
       clipPathUnits="userSpaceOnUse"
       id="clipPath4">
      <path
         d="M 0,0 H 979.16663 V 704.52234 H 0 Z"
         transform="matrix(0.33497874,0,0,0.33497874,-0.49999999,-0.49999999)"
         clip-rule="evenodd"
         id="path4" />
    </clipPath>
    <clipPath
       clipPathUnits="userSpaceOnUse"
       id="clipPath5">
      <path
         d="M 0,0 H 979.16663 V 704.52234 H 0 Z"
         transform="matrix(0.33497539,0,0,0.33497539,-96.78125,-53.999999)"
         clip-rule="evenodd"
         id="path5" />
    </clipPath>
    <clipPath
       clipPathUnits="userSpaceOnUse"
       id="clipPath6">
      <path
         d="M 0,0 H 979.16663 V 704.52234 H 0 Z"
         transform="matrix(0.33497539,0,0,0.33497539,-78.328124,-12)"
         clip-rule="evenodd"
         id="path6" />
    </clipPath>
    <clipPath
       clipPathUnits="userSpaceOnUse"
       id="clipPath7">
      <path
         d="M 0,0 H 979.16663 V 704.52234 H 0 Z"
         transform="matrix(0.33497539,0,0,0.33497539,-64.09375,-27)"
         clip-rule="evenodd"
         id="path7" />
    </clipPath>
    <clipPath
       clipPathUnits="userSpaceOnUse"
       id="clipPath9">
      <path
         d="M 0,0 H 979.16663 V 704.52234 H 0 Z"
         transform="matrix(0.33497874,0,0,0.33497874,-0.49999999,-0.49999999)"
         clip-rule="evenodd"
         id="path9" />
    </clipPath>
    <clipPath
       clipPathUnits="userSpaceOnUse"
       id="clipPath10">
      <path
         d="M 0,0 H 979.16663 V 704.52234 H 0 Z"
         transform="matrix(0.33497539,0,0,0.33497539,-28.53125,-87)"
         clip-rule="evenodd"
         id="path10" />
    </clipPath>
    <clipPath
       clipPathUnits="userSpaceOnUse"
       id="clipPath11">
      <path
         d="M 0,0 H 979.16663 V 704.52234 H 0 Z"
         transform="matrix(0.33497539,0,0,0.33497539,-165.82812,-102)"
         clip-rule="evenodd"
         id="path11" />
    </clipPath>
    <clipPath
       clipPathUnits="userSpaceOnUse"
       id="clipPath13">
      <path
         d="M 0,0 H 979.16663 V 704.52234 H 0 Z"
         transform="matrix(0.33497874,0,0,0.33497874,-0.49999999,-0.49999999)"
         clip-rule="evenodd"
         id="path13" />
    </clipPath>
    <clipPath
       clipPathUnits="userSpaceOnUse"
       id="clipPath14">
      <path
         d="M 0,0 H 979.16663 V 704.52234 H 0 Z"
         transform="matrix(0.33497539,0,0,0.33497539,-31.406249,-134)"
         clip-rule="evenodd"
         id="path14" />
    </clipPath>
    <clipPath
       clipPathUnits="userSpaceOnUse"
       id="clipPath16">
      <path
         d="M 0,0 H 979.16663 V 704.52234 H 0 Z"
         transform="matrix(0.33497874,0,0,0.33497874,-0.49999999,-0.49999999)"
         clip-rule="evenodd"
         id="path16" />
    </clipPath>
    <clipPath
       clipPathUnits="userSpaceOnUse"
       id="clipPath17">
      <path
         d="M 0,0 H 979.16663 V 704.52234 H 0 Z"
         transform="matrix(0.33497539,0,0,0.33497539,-27.53125,-174)"
         clip-rule="evenodd"
         id="path17" />
    </clipPath>
    <clipPath
       clipPathUnits="userSpaceOnUse"
       id="clipPath19">
      <path
         d="M 0,0 H 979.16663 V 704.52234 H 0 Z"
         transform="matrix(0.33497874,0,0,0.33497874,-0.49999999,-0.49999999)"
         clip-rule="evenodd"
         id="path19" />
    </clipPath>
    <clipPath
       clipPathUnits="userSpaceOnUse"
       id="clipPath20">
      <path
         d="M 0,0 H 979.16663 V 704.52234 H 0 Z"
         transform="matrix(0.33497539,0,0,0.33497539,-48.765625,-214)"
         clip-rule="evenodd"
         id="path20" />
    </clipPath>
    <clipPath
       clipPathUnits="userSpaceOnUse"
       id="clipPath22">
      <path
         d="M 0,0 H 979.16663 V 704.52234 H 0 Z"
         transform="matrix(0.33497874,0,0,0.33497874,-0.49999999,-0.49999999)"
         clip-rule="evenodd"
         id="path22" />
    </clipPath>
    <clipPath
       clipPathUnits="userSpaceOnUse"
       id="clipPath24">
      <path
         d="M 0,0 H 979.16663 V 704.52234 H 0 Z"
         transform="matrix(0.33497874,0,0,0.33497874,-0.49999999,-0.49999999)"
         clip-rule="evenodd"
         id="path24" />
    </clipPath>
  </defs>
  <sodipodi:namedview
     id="namedview1"
     pagecolor="#ffffff"
     bordercolor="#000000"
     borderopacity="0.25"
     inkscape:showpageshadow="2"
     inkscape:pageopacity="0.0"
     inkscape:pagecheckerboard="0"
     inkscape:deskcolor="#d1d1d1">
    <inkscape:page
       x="0"
       y="0"
       inkscape:label="1"
       id="page1"
       width="313.28"
       height="226.56"
       margin="0"
       bleed="0" />
  </sodipodi:namedview>
  <g
     id="g1"
     inkscape:groupmode="layer"
     inkscape:label="1">
    <path
       id="path1"
       d="M 0,0 H 328 V 237 H 0 Z"
       style="fill:#ffffff;fill-opacity:1;fill-rule:nonzero;stroke:none"
       transform="scale(0.95528447)"
       clip-path="url(#clipPath2)" />
    <path
       id="path3"
       d="m 20.5,35 h 305 v 30 h -305 z"
       style="fill:#ffffff;fill-opacity:1;fill-rule:nonzero;stroke:#000000;stroke-width:1;stroke-linecap:butt;stroke-linejoin:miter;stroke-miterlimit:10;stroke-dasharray:none;stroke-opacity:1"
       transform="matrix(0.95528447,0,0,0.95528447,0.47764223,0.47764223)"
       clip-path="url(#clipPath4)" />
    <text
       id="text4"
       xml:space="preserve"
       transform="matrix(0.95529401,0,0,0.95529401,92.454548,51.585876)"
       clip-path="url(#clipPath5)"><tspan
         style="font-variant:normal;font-weight:normal;font-size:12px;font-family:Helvetica;writing-mode:lr-tb;fill:#000000;fill-opacity:1;fill-rule:nonzero;stroke:none"
         x="0 8.0039062 11.337891 18.011719 24.685547 28.019531 31.353516 38.027344 44.701172 48.035156 54.708984 61.382812 67.382812 74.056641 76.722656 83.396484 90.070312 100.06641 106.74023 113.41406 116.74805 120.08203 126.08203 132.75586 136.75195 142.75195 149.42578"
         y="0"
         sodipodi:role="line"
         id="tspan4">Stop the development server</tspan></text>
    <text
       id="text5"
       xml:space="preserve"
       transform="matrix(0.95529401,0,0,0.95529401,74.826388,11.463528)"
       clip-path="url(#clipPath6)"><tspan
         style="font-variant:normal;font-weight:700;font-size:12px;font-family:Helvetica;writing-mode:lr-tb;fill:#000000;fill-opacity:1;fill-rule:nonzero;stroke:none"
         x="0 8.6660156 13.335938 20.009766 26.683594 30.679688 34.013672 41.34375 48.673828 52.007812 58.681641 66.011719 73.341797 76.675781 85.341797 92.671875 100.00195 107.33203 110.66602 117.99609 125.32617 128.66016 138.65625 141.99023 149.32031 153.99023 160.66406 164.66016 167.99414 175.32422 182.6543"
         y="0"
         sodipodi:role="line"
         id="tspan5">Creating and Running Migrations</tspan></text>
    <text
       id="text6"
       xml:space="preserve"
       transform="matrix(0.95529401,0,0,0.95529401,61.228375,25.792938)"
       clip-path="url(#clipPath7)"><tspan
         style="font-variant:normal;font-weight:700;font-size:12px;font-family:Helvetica;writing-mode:lr-tb;fill:#000000;fill-opacity:1;fill-rule:nonzero;stroke:none"
         x="0 8.6660156 15.996094 20.666016 24 31.330078 38.660156 41.994141 50.660156 57.333984 64.007812 70.681641 74.015625 81.345703 88.675781 99.345703 106.01953 113.34961 117.3457 120.67969 124.01367 130.45898 137.13281 143.80664 147.80273 151.13672 154.4707 162.47461 167.14453 174.47461 181.80469 189.13477 195.80859 199.80469 203.13867 210.46875"
         y="0"
         sodipodi:role="line"
         id="tspan6">During Development, Test, Production</tspan></text>
    <path
       id="path8"
       d="m 20.5,75 h 305 v 30 h -305 z"
       style="fill:#ffffff;fill-opacity:1;fill-rule:nonzero;stroke:#000000;stroke-width:1;stroke-linecap:butt;stroke-linejoin:miter;stroke-miterlimit:10;stroke-dasharray:none;stroke-opacity:1"
       transform="matrix(0.95528447,0,0,0.95528447,0.47764223,0.47764223)"
       clip-path="url(#clipPath9)" />
    <text
       id="text9"
       xml:space="preserve"
       transform="matrix(0.95529401,0,0,0.95529401,27.255732,83.110579)"
       clip-path="url(#clipPath10)"><tspan
         style="font-variant:normal;font-weight:normal;font-size:12px;font-family:Helvetica;writing-mode:lr-tb;fill:#000000;fill-opacity:1;fill-rule:nonzero;stroke:none"
         x="0 8.6660156 14.666016 21.339844 24.673828 28.007812 34.681641 41.355469 44.478516 51.152344 57.152344 63.826172 70.5 79.833984 88.5 98.496094 101.83008 110.49609 117.16992 120.50391 123.83789 127.17188 133.8457 137.17969 143.85352 150.52734 157.20117 163.875 167.87109 174.54492 177.87891 184.55273 187.88672 194.56055 201.23438 204.56836 211.24219 221.23828 227.91211 231.24609 237.24609 240.58008 250.57617 253.24219 259.91602 263.91211 270.58594 273.91992 276.58594 283.25977"
         y="0"
         sodipodi:role="line"
         id="tspan9">Use the TypeORM CLI to generate an empty migration</tspan></text>
    <g
       id="g10" />
    <text
       id="text10"
       xml:space="preserve"
       transform="matrix(0.95529401,0,0,0.95529401,158.41461,97.439989)"
       clip-path="url(#clipPath11)"><tspan
         style="font-variant:normal;font-weight:normal;font-size:12px;font-family:Helvetica;writing-mode:lr-tb;fill:#000000;fill-opacity:1;fill-rule:nonzero;stroke:none"
         x="0 6 8.6660156"
         y="0"
         sodipodi:role="line"
         id="tspan10">ﬁle</tspan></text>
    <path
       id="path12"
       d="m 20.5,115 h 305 v 30 h -305 z"
       style="fill:#ffffff;fill-opacity:1;fill-rule:nonzero;stroke:#000000;stroke-width:1;stroke-linecap:butt;stroke-linejoin:miter;stroke-miterlimit:10;stroke-dasharray:none;stroke-opacity:1"
       transform="matrix(0.95528447,0,0,0.95528447,0.47764223,0.47764223)"
       clip-path="url(#clipPath13)" />
    <g
       id="g13" />
    <text
       id="text13"
       xml:space="preserve"
       transform="matrix(0.95529401,0,0,0.95529401,30.002202,128.0094)"
       clip-path="url(#clipPath14)"><tspan
         style="font-variant:normal;font-weight:normal;font-size:12px;font-family:Helvetica;writing-mode:lr-tb;fill:#000000;fill-opacity:1;fill-rule:nonzero;stroke:none"
         x="0 8.0039062 14.677734 21.351562 24.685547 30.685547 37.359375 47.355469 54.029297 57.363281 63.363281 70.037109 76.710938 83.384766 86.71875 90.052734 96.726562 100.06055 106.06055 112.73438 119.4082 126.08203 132.75586 139.42969 142.76367 149.4375 156.11133 160.10742 163.44141 172.10742 180.11133 183.44531 186.11133 192.78516 196.11914 199.45312 206.12695 212.80078 216.13477 226.13086 228.79688 235.4707 239.4668 246.14062 249.47461 252.14062 258.81445 265.48828 268.82227 274.82227 277.48828"
         y="0"
         sodipodi:role="line"
         id="tspan13">Add some code to change our DB in the migration ﬁle</tspan></text>
    <path
       id="path15"
       d="m 20.5,155 h 305 v 30 h -305 z"
       style="fill:#ffffff;fill-opacity:1;fill-rule:nonzero;stroke:#000000;stroke-width:1;stroke-linecap:butt;stroke-linejoin:miter;stroke-miterlimit:10;stroke-dasharray:none;stroke-opacity:1"
       transform="matrix(0.95528447,0,0,0.95528447,0.47764223,0.47764223)"
       clip-path="url(#clipPath16)" />
    <text
       id="text16"
       xml:space="preserve"
       transform="matrix(0.95529401,0,0,0.95529401,26.300438,166.22116)"
       clip-path="url(#clipPath17)"><tspan
         style="font-variant:normal;font-weight:normal;font-size:12px;font-family:Helvetica;writing-mode:lr-tb;fill:#000000;fill-opacity:1;fill-rule:nonzero;stroke:none"
         x="0 8.6660156 14.666016 21.339844 24.673828 28.007812 34.681641 41.355469 44.478516 51.152344 57.152344 63.826172 70.5 79.833984 88.5 98.496094 101.83008 110.49609 117.16992 120.50391 123.83789 127.17188 133.8457 137.17969 143.85352 150.52734 157.20117 159.86719 165.86719 169.20117 172.53516 179.20898 185.88281 189.2168 199.21289 201.87891 208.55273 212.54883 219.22266 222.55664 225.22266 231.89648 238.57031 241.9043 245.23828 251.91211 255.24609 258.58008 265.25391 271.92773 275.26172 283.92773"
         y="0"
         sodipodi:role="line"
         id="tspan16">Use the TypeORM CLI to apply the migration to the DB</tspan></text>
    <path
       id="path18"
       d="m 20.5,195 h 305 v 30 h -305 z"
       style="fill:#ffffff;fill-opacity:1;fill-rule:nonzero;stroke:#000000;stroke-width:1;stroke-linecap:butt;stroke-linejoin:miter;stroke-miterlimit:10;stroke-dasharray:none;stroke-opacity:1"
       transform="matrix(0.95528447,0,0,0.95528447,0.47764223,0.47764223)"
       clip-path="url(#clipPath19)" />
    <text
       id="text19"
       xml:space="preserve"
       transform="matrix(0.95529401,0,0,0.95529401,46.585509,204.43292)"
       clip-path="url(#clipPath20)"><tspan
         style="font-variant:normal;font-weight:normal;font-size:12px;font-family:Helvetica;writing-mode:lr-tb;fill:#000000;fill-opacity:1;fill-rule:nonzero;stroke:none"
         x="0 8.6660156 16.669922 20.003906 22.669922 28.669922 32.003906 38.677734 45.351562 52.025391 58.699219 62.033203 68.707031 75.380859 78.714844 82.048828 90.714844 97.388672 103.38867 106.72266 113.39648 117.39258 120.72656 124.06055 127.39453 134.06836 140.74219 144.07617 150.75 157.42383 163.42383 170.09766 172.76367 179.4375 186.11133 196.10742 202.78125 209.45508 212.78906 216.12305 222.12305 228.79688 232.79297 238.79297 245.4668"
         y="0"
         sodipodi:role="line"
         id="tspan19">DB is updated! Restart the development server</tspan></text>
    <path
       id="path21"
       d="M 8,35 V 218.63"
       style="fill:none;stroke:#000000;stroke-width:1;stroke-linecap:butt;stroke-linejoin:miter;stroke-miterlimit:10;stroke-dasharray:none;stroke-opacity:1"
       transform="matrix(0.95528447,0,0,0.95528447,0.47764223,0.47764223)"
       clip-path="url(#clipPath22)" />
    <path
       id="path23"
       d="m 8,223.88 -3.5,-7 3.5,1.75 3.5,-1.75 z"
       style="fill:#000000;fill-opacity:1;fill-rule:nonzero;stroke:#000000;stroke-width:1;stroke-linecap:butt;stroke-linejoin:miter;stroke-miterlimit:10;stroke-dasharray:none;stroke-opacity:1"
       transform="matrix(0.95528447,0,0,0.95528447,0.47764223,0.47764223)"
       clip-path="url(#clipPath24)" />
  </g>
</svg>
