<?xml version="1.0" encoding="UTF-8" standalone="no"?>
<!-- Created with Inkscape (http://www.inkscape.org/) -->

<svg
   version="1.1"
   id="svg1"
   width="261.44"
   height="315.84"
   viewBox="0 0 261.44 315.84"
   sodipodi:docname="nest-1.pdf"
   xmlns:inkscape="http://www.inkscape.org/namespaces/inkscape"
   xmlns:sodipodi="http://sodipodi.sourceforge.net/DTD/sodipodi-0.dtd"
   xmlns="http://www.w3.org/2000/svg"
   xmlns:svg="http://www.w3.org/2000/svg">
  <defs
     id="defs1">
    <clipPath
       clipPathUnits="userSpaceOnUse"
       id="clipPath2">
      <path
         d="M 0,0 H 816.66663 V 986.55707 H 0 Z"
         transform="scale(0.33551024)"
         clip-rule="evenodd"
         id="path2" />
    </clipPath>
    <clipPath
       clipPathUnits="userSpaceOnUse"
       id="clipPath4">
      <path
         d="M 0,0 H 816.66663 V 980.59601 H 0 Z"
         transform="matrix(0.33551024,0,0,0.33551024,-0.50000001,-0.50000001)"
         clip-rule="evenodd"
         id="path4" />
    </clipPath>
    <clipPath
       clipPathUnits="userSpaceOnUse"
       id="clipPath5">
      <path
         d="M 0,0 H 816.66663 V 980.59601 H 0 Z"
         transform="matrix(0.33550688,0,0,0.33550688,-57.359375,-22)"
         clip-rule="evenodd"
         id="path5" />
    </clipPath>
    <clipPath
       clipPathUnits="userSpaceOnUse"
       id="clipPath7">
      <path
         d="M 0,0 H 816.66663 V 980.59601 H 0 Z"
         transform="matrix(0.33551024,0,0,0.33551024,-0.50000001,-0.50000001)"
         clip-rule="evenodd"
         id="path7" />
    </clipPath>
    <clipPath
       clipPathUnits="userSpaceOnUse"
       id="clipPath9">
      <path
         d="M 0,0 H 816.66663 V 980.59601 H 0 Z"
         transform="matrix(0.33551024,0,0,0.33551024,-0.50000001,-0.50000001)"
         clip-rule="evenodd"
         id="path9" />
    </clipPath>
    <clipPath
       clipPathUnits="userSpaceOnUse"
       id="clipPath10">
      <path
         d="M 0,0 H 816.66663 V 980.59601 H 0 Z"
         transform="matrix(0.33550688,0,0,0.33550688,-109.46875,-62)"
         clip-rule="evenodd"
         id="path10" />
    </clipPath>
    <clipPath
       clipPathUnits="userSpaceOnUse"
       id="clipPath12">
      <path
         d="M 0,0 H 816.66663 V 980.59601 H 0 Z"
         transform="matrix(0.33551024,0,0,0.33551024,-0.50000001,-0.50000001)"
         clip-rule="evenodd"
         id="path12" />
    </clipPath>
    <clipPath
       clipPathUnits="userSpaceOnUse"
       id="clipPath14">
      <path
         d="M 0,0 H 816.66663 V 980.59601 H 0 Z"
         transform="matrix(0.33551024,0,0,0.33551024,-0.50000001,-0.50000001)"
         clip-rule="evenodd"
         id="path14" />
    </clipPath>
    <clipPath
       clipPathUnits="userSpaceOnUse"
       id="clipPath16">
      <path
         d="M 0,0 H 816.66663 V 980.59601 H 0 Z"
         transform="matrix(0.33551024,0,0,0.33551024,-0.50000001,-0.50000001)"
         clip-rule="evenodd"
         id="path16" />
    </clipPath>
    <clipPath
       clipPathUnits="userSpaceOnUse"
       id="clipPath17">
      <path
         d="M 0,0 H 816.66663 V 980.59601 H 0 Z"
         transform="matrix(0.33550688,0,0,0.33550688,-31.015624,-125)"
         clip-rule="evenodd"
         id="path17" />
    </clipPath>
    <clipPath
       clipPathUnits="userSpaceOnUse"
       id="clipPath19">
      <path
         d="M 0,0 H 816.66663 V 980.59601 H 0 Z"
         transform="matrix(0.33551024,0,0,0.33551024,-0.50000001,-0.50000001)"
         clip-rule="evenodd"
         id="path19" />
    </clipPath>
    <clipPath
       clipPathUnits="userSpaceOnUse"
       id="clipPath21">
      <path
         d="M 0,0 H 816.66663 V 980.59601 H 0 Z"
         transform="matrix(0.33551024,0,0,0.33551024,-0.50000001,-0.50000001)"
         clip-rule="evenodd"
         id="path21" />
    </clipPath>
    <clipPath
       clipPathUnits="userSpaceOnUse"
       id="clipPath23">
      <path
         d="M 0,0 H 816.66663 V 980.59601 H 0 Z"
         transform="matrix(0.33551024,0,0,0.33551024,-0.50000001,-0.50000001)"
         clip-rule="evenodd"
         id="path23" />
    </clipPath>
    <clipPath
       clipPathUnits="userSpaceOnUse"
       id="clipPath24">
      <path
         d="M 0,0 H 816.66663 V 980.59601 H 0 Z"
         transform="matrix(0.33550688,0,0,0.33550688,-113.14062,-112)"
         clip-rule="evenodd"
         id="path24" />
    </clipPath>
    <clipPath
       clipPathUnits="userSpaceOnUse"
       id="clipPath25">
      <path
         d="M 0,0 H 816.66663 V 980.59601 H 0 Z"
         transform="matrix(0.33550688,0,0,0.33550688,-109.17188,-125)"
         clip-rule="evenodd"
         id="path25" />
    </clipPath>
    <clipPath
       clipPathUnits="userSpaceOnUse"
       id="clipPath26">
      <path
         d="M 0,0 H 816.66663 V 980.59601 H 0 Z"
         transform="matrix(0.33550688,0,0,0.33550688,-114.0625,-138)"
         clip-rule="evenodd"
         id="path26" />
    </clipPath>
    <clipPath
       clipPathUnits="userSpaceOnUse"
       id="clipPath28">
      <path
         d="M 0,0 H 816.66663 V 980.59601 H 0 Z"
         transform="matrix(0.33551024,0,0,0.33551024,-0.50000001,-0.50000001)"
         clip-rule="evenodd"
         id="path28" />
    </clipPath>
    <clipPath
       clipPathUnits="userSpaceOnUse"
       id="clipPath30">
      <path
         d="M 0,0 H 816.66663 V 980.59601 H 0 Z"
         transform="matrix(0.33551024,0,0,0.33551024,-0.50000001,-0.50000001)"
         clip-rule="evenodd"
         id="path30" />
    </clipPath>
    <clipPath
       clipPathUnits="userSpaceOnUse"
       id="clipPath32">
      <path
         d="M 0,0 H 816.66663 V 980.59601 H 0 Z"
         transform="matrix(0.33551024,0,0,0.33551024,-0.50000001,-0.50000001)"
         clip-rule="evenodd"
         id="path32" />
    </clipPath>
    <clipPath
       clipPathUnits="userSpaceOnUse"
       id="clipPath33">
      <path
         d="M 0,0 H 816.66663 V 980.59601 H 0 Z"
         transform="matrix(0.33550688,0,0,0.33550688,-185.85938,-112)"
         clip-rule="evenodd"
         id="path33" />
    </clipPath>
    <clipPath
       clipPathUnits="userSpaceOnUse"
       id="clipPath34">
      <path
         d="M 0,0 H 816.66663 V 980.59601 H 0 Z"
         transform="matrix(0.33550688,0,0,0.33550688,-187.09375,-125)"
         clip-rule="evenodd"
         id="path34" />
    </clipPath>
    <clipPath
       clipPathUnits="userSpaceOnUse"
       id="clipPath35">
      <path
         d="M 0,0 H 816.66663 V 980.59601 H 0 Z"
         transform="matrix(0.33550688,0,0,0.33550688,-194.42188,-138)"
         clip-rule="evenodd"
         id="path35" />
    </clipPath>
    <clipPath
       clipPathUnits="userSpaceOnUse"
       id="clipPath37">
      <path
         d="M 0,0 H 816.66663 V 980.59601 H 0 Z"
         transform="matrix(0.33551024,0,0,0.33551024,-0.50000001,-0.50000001)"
         clip-rule="evenodd"
         id="path37" />
    </clipPath>
    <clipPath
       clipPathUnits="userSpaceOnUse"
       id="clipPath38">
      <path
         d="M 0,0 H 816.66663 V 980.59601 H 0 Z"
         transform="matrix(0.33550688,0,0,0.33550688,-48.484375,-197)"
         clip-rule="evenodd"
         id="path38" />
    </clipPath>
    <clipPath
       clipPathUnits="userSpaceOnUse"
       id="clipPath40">
      <path
         d="M 0,0 H 816.66663 V 980.59601 H 0 Z"
         transform="matrix(0.33551024,0,0,0.33551024,-0.50000001,-0.50000001)"
         clip-rule="evenodd"
         id="path40" />
    </clipPath>
    <clipPath
       clipPathUnits="userSpaceOnUse"
       id="clipPath42">
      <path
         d="M 0,0 H 816.66663 V 980.59601 H 0 Z"
         transform="matrix(0.33551024,0,0,0.33551024,-0.50000001,-0.50000001)"
         clip-rule="evenodd"
         id="path42" />
    </clipPath>
    <clipPath
       clipPathUnits="userSpaceOnUse"
       id="clipPath43">
      <path
         d="M 0,0 H 816.66663 V 980.59601 H 0 Z"
         transform="matrix(0.33550688,0,0,0.33550688,-109.46875,-237)"
         clip-rule="evenodd"
         id="path43" />
    </clipPath>
    <clipPath
       clipPathUnits="userSpaceOnUse"
       id="clipPath45">
      <path
         d="M 0,0 H 816.66663 V 980.59601 H 0 Z"
         transform="matrix(0.33551024,0,0,0.33551024,-0.50000001,-0.50000001)"
         clip-rule="evenodd"
         id="path45" />
    </clipPath>
    <clipPath
       clipPathUnits="userSpaceOnUse"
       id="clipPath47">
      <path
         d="M 0,0 H 816.66663 V 980.59601 H 0 Z"
         transform="matrix(0.33551024,0,0,0.33551024,-0.50000001,-0.50000001)"
         clip-rule="evenodd"
         id="path47" />
    </clipPath>
    <clipPath
       clipPathUnits="userSpaceOnUse"
       id="clipPath49">
      <path
         d="M 0,0 H 816.66663 V 980.59601 H 0 Z"
         transform="matrix(0.33551024,0,0,0.33551024,-0.50000001,-0.50000001)"
         clip-rule="evenodd"
         id="path49" />
    </clipPath>
    <clipPath
       clipPathUnits="userSpaceOnUse"
       id="clipPath50">
      <path
         d="M 0,0 H 816.66663 V 980.59601 H 0 Z"
         transform="matrix(0.33550688,0,0,0.33550688,-26.125,-300)"
         clip-rule="evenodd"
         id="path50" />
    </clipPath>
    <clipPath
       clipPathUnits="userSpaceOnUse"
       id="clipPath52">
      <path
         d="M 0,0 H 816.66663 V 980.59601 H 0 Z"
         transform="matrix(0.33551024,0,0,0.33551024,-0.50000001,-0.50000001)"
         clip-rule="evenodd"
         id="path52" />
    </clipPath>
    <clipPath
       clipPathUnits="userSpaceOnUse"
       id="clipPath54">
      <path
         d="M 0,0 H 816.66663 V 980.59601 H 0 Z"
         transform="matrix(0.33551024,0,0,0.33551024,-0.50000001,-0.50000001)"
         clip-rule="evenodd"
         id="path54" />
    </clipPath>
    <clipPath
       clipPathUnits="userSpaceOnUse"
       id="clipPath56">
      <path
         d="M 0,0 H 816.66663 V 980.59601 H 0 Z"
         transform="matrix(0.33551024,0,0,0.33551024,-0.50000001,-0.50000001)"
         clip-rule="evenodd"
         id="path56" />
    </clipPath>
    <clipPath
       clipPathUnits="userSpaceOnUse"
       id="clipPath57">
      <path
         d="M 0,0 H 816.66663 V 980.59601 H 0 Z"
         transform="matrix(0.33550688,0,0,0.33550688,-113.14062,-287)"
         clip-rule="evenodd"
         id="path57" />
    </clipPath>
    <clipPath
       clipPathUnits="userSpaceOnUse"
       id="clipPath58">
      <path
         d="M 0,0 H 816.66663 V 980.59601 H 0 Z"
         transform="matrix(0.33550688,0,0,0.33550688,-109.17188,-300)"
         clip-rule="evenodd"
         id="path58" />
    </clipPath>
    <clipPath
       clipPathUnits="userSpaceOnUse"
       id="clipPath59">
      <path
         d="M 0,0 H 816.66663 V 980.59601 H 0 Z"
         transform="matrix(0.33550688,0,0,0.33550688,-109.17188,-313)"
         clip-rule="evenodd"
         id="path59" />
    </clipPath>
    <clipPath
       clipPathUnits="userSpaceOnUse"
       id="clipPath61">
      <path
         d="M 0,0 H 816.66663 V 980.59601 H 0 Z"
         transform="matrix(0.33551024,0,0,0.33551024,-0.50000001,-0.50000001)"
         clip-rule="evenodd"
         id="path61" />
    </clipPath>
    <clipPath
       clipPathUnits="userSpaceOnUse"
       id="clipPath63">
      <path
         d="M 0,0 H 816.66663 V 980.59601 H 0 Z"
         transform="matrix(0.33551024,0,0,0.33551024,-0.50000001,-0.50000001)"
         clip-rule="evenodd"
         id="path63" />
    </clipPath>
    <clipPath
       clipPathUnits="userSpaceOnUse"
       id="clipPath65">
      <path
         d="M 0,0 H 816.66663 V 980.59601 H 0 Z"
         transform="matrix(0.33551024,0,0,0.33551024,-0.50000001,-0.50000001)"
         clip-rule="evenodd"
         id="path65" />
    </clipPath>
    <clipPath
       clipPathUnits="userSpaceOnUse"
       id="clipPath66">
      <path
         d="M 0,0 H 816.66663 V 980.59601 H 0 Z"
         transform="matrix(0.33550688,0,0,0.33550688,-185.85938,-287)"
         clip-rule="evenodd"
         id="path66" />
    </clipPath>
    <clipPath
       clipPathUnits="userSpaceOnUse"
       id="clipPath67">
      <path
         d="M 0,0 H 816.66663 V 980.59601 H 0 Z"
         transform="matrix(0.33550688,0,0,0.33550688,-187.09375,-300)"
         clip-rule="evenodd"
         id="path67" />
    </clipPath>
    <clipPath
       clipPathUnits="userSpaceOnUse"
       id="clipPath68">
      <path
         d="M 0,0 H 816.66663 V 980.59601 H 0 Z"
         transform="matrix(0.33550688,0,0,0.33550688,-194.42188,-313)"
         clip-rule="evenodd"
         id="path68" />
    </clipPath>
  </defs>
  <sodipodi:namedview
     id="namedview1"
     pagecolor="#ffffff"
     bordercolor="#000000"
     borderopacity="0.25"
     inkscape:showpageshadow="2"
     inkscape:pageopacity="0.0"
     inkscape:pagecheckerboard="0"
     inkscape:deskcolor="#d1d1d1">
    <inkscape:page
       x="0"
       y="0"
       inkscape:label="1"
       id="page1"
       width="261.44"
       height="315.84"
       margin="0"
       bleed="0" />
  </sodipodi:namedview>
  <g
     id="g1"
     inkscape:groupmode="layer"
     inkscape:label="1">
    <path
       id="path1"
       d="M 0,0 H 274 V 331 H 0 Z"
       style="fill:#ffffff;fill-opacity:1;fill-rule:nonzero;stroke:none"
       transform="scale(0.95377116)"
       clip-path="url(#clipPath2)" />
    <path
       id="path3"
       d="m 1.25,1 h 270 v 30 h -270 z"
       style="fill:#dae8fc;fill-opacity:1;fill-rule:nonzero;stroke:#6c8ebf;stroke-width:1;stroke-linecap:butt;stroke-linejoin:miter;stroke-miterlimit:10;stroke-dasharray:none;stroke-opacity:1"
       transform="matrix(0.95377116,0,0,0.95377116,0.47688559,0.47688559)"
       clip-path="url(#clipPath4)" />
    <text
       id="text4"
       xml:space="preserve"
       transform="matrix(0.9537807,0,0,0.9537807,54.708265,20.983175)"
       clip-path="url(#clipPath5)"><tspan
         style="font-variant:normal;font-weight:700;font-size:15px;font-family:Helvetica;writing-mode:lr-tb;fill:#000000;fill-opacity:1;fill-rule:nonzero;stroke:none"
         x="0 10.83252 19.174805 27.51709 31.68457 39.741211 48.083496 56.425781 61.420898 65.588379 75.593262 84.755859 93.098145 97.265625 103.10303 112.26562 121.42822 134.76562 143.10791 152.27051"
         y="0"
         sodipodi:role="line"
         id="tspan4">Dev/Test Environment</tspan></text>
    <path
       id="path6"
       d="m 1.25,31 h 270 v 120 h -270 z"
       style="fill:#dae8fc;fill-opacity:1;fill-rule:nonzero;stroke:#6c8ebf;stroke-width:1;stroke-linecap:butt;stroke-linejoin:miter;stroke-miterlimit:10;stroke-dasharray:none;stroke-opacity:1"
       transform="matrix(0.95377116,0,0,0.95377116,0.47688559,0.47688559)"
       clip-path="url(#clipPath7)" />
    <path
       id="path8"
       d="M 22.5,41 H 250 V 71 H 22.5 Z"
       style="fill:#f5f5f5;fill-opacity:1;fill-rule:nonzero;stroke:#666666;stroke-width:1;stroke-linecap:butt;stroke-linejoin:miter;stroke-miterlimit:10;stroke-dasharray:none;stroke-opacity:1"
       transform="matrix(0.95377116,0,0,0.95377116,0.47688559,0.47688559)"
       clip-path="url(#clipPath9)" />
    <text
       id="text9"
       xml:space="preserve"
       transform="matrix(0.9537807,0,0,0.9537807,104.40918,59.134403)"
       clip-path="url(#clipPath10)"><tspan
         style="font-variant:normal;font-weight:normal;font-size:15px;font-family:Helvetica;writing-mode:lr-tb;fill:#333333;fill-opacity:1;fill-rule:nonzero;stroke:none"
         x="0 11.66748 20.009766 25.004883 28.352051 38.356934 46.699219"
         y="0"
         sodipodi:role="line"
         id="tspan9">Our App</tspan></text>
    <path
       id="path11"
       d="M 56.25,101 56.009998,77.669998"
       style="fill:none;stroke:#000000;stroke-width:1;stroke-linecap:butt;stroke-linejoin:miter;stroke-miterlimit:10;stroke-dasharray:none;stroke-opacity:1"
       transform="matrix(0.95377116,0,0,0.95377116,0.47688559,0.47688559)"
       clip-path="url(#clipPath12)" />
    <path
       id="path13"
       d="m 55.950001,72.419998 3.579998,6.959999 -3.520001,-1.709999 -3.479999,1.779999 z"
       style="fill:#000000;fill-opacity:1;fill-rule:nonzero;stroke:#000000;stroke-width:1;stroke-linecap:butt;stroke-linejoin:miter;stroke-miterlimit:10;stroke-dasharray:none;stroke-opacity:1"
       transform="matrix(0.95377116,0,0,0.95377116,0.47688559,0.47688559)"
       clip-path="url(#clipPath14)" />
    <path
       id="path15"
       d="M 22.5,101 H 90 v 40 H 22.5 Z"
       style="fill:#fff2cc;fill-opacity:1;fill-rule:nonzero;stroke:#d6b656;stroke-width:1;stroke-linecap:butt;stroke-linejoin:miter;stroke-miterlimit:10;stroke-dasharray:none;stroke-opacity:1"
       transform="matrix(0.95377116,0,0,0.95377116,0.47688559,0.47688559)"
       clip-path="url(#clipPath16)" />
    <text
       id="text16"
       xml:space="preserve"
       transform="matrix(0.9537807,0,0,0.9537807,29.582104,119.22259)"
       clip-path="url(#clipPath17)"><tspan
         style="font-variant:normal;font-weight:normal;font-size:11px;font-family:Helvetica;writing-mode:lr-tb;fill:#000000;fill-opacity:1;fill-rule:nonzero;stroke:none"
         x="0 7.3369141 15.893066 22.010742 24.45459 27.510742 33.628418 36.68457 44.628418"
         y="0"
         sodipodi:role="line"
         id="tspan16">SQLite DB</tspan></text>
    <path
       id="path18"
       d="M 136.25,101 V 77.370003"
       style="fill:none;stroke:#000000;stroke-width:1;stroke-linecap:butt;stroke-linejoin:miter;stroke-miterlimit:10;stroke-dasharray:none;stroke-opacity:1"
       transform="matrix(0.95377116,0,0,0.95377116,0.47688559,0.47688559)"
       clip-path="url(#clipPath19)" />
    <path
       id="path20"
       d="m 136.25,72.120003 3.5,7 -3.5,-1.75 -3.5,1.75 z"
       style="fill:#000000;fill-opacity:1;fill-rule:nonzero;stroke:#000000;stroke-width:1;stroke-linecap:butt;stroke-linejoin:miter;stroke-miterlimit:10;stroke-dasharray:none;stroke-opacity:1"
       transform="matrix(0.95377116,0,0,0.95377116,0.47688559,0.47688559)"
       clip-path="url(#clipPath21)" />
    <path
       id="path22"
       d="M 102.5,101 H 170 v 40 h -67.5 z"
       style="fill:#fff2cc;fill-opacity:1;fill-rule:nonzero;stroke:#d6b656;stroke-width:1;stroke-linecap:butt;stroke-linejoin:miter;stroke-miterlimit:10;stroke-dasharray:none;stroke-opacity:1"
       transform="matrix(0.95377116,0,0,0.95377116,0.47688559,0.47688559)"
       clip-path="url(#clipPath23)" />
    <g
       id="g23" />
    <text
       id="text23"
       xml:space="preserve"
       transform="matrix(0.9537807,0,0,0.9537807,107.91134,106.82344)"
       clip-path="url(#clipPath24)"><tspan
         style="font-variant:normal;font-weight:normal;font-size:11px;font-family:Helvetica;writing-mode:lr-tb;fill:#000000;fill-opacity:1;fill-rule:nonzero;stroke:none"
         x="0 7.9438477 14.061523 20.179199 25.679199 31.796875 34.853027 37.90918 44.026855"
         y="0"
         sodipodi:role="line"
         id="tspan23">Conﬁg for</tspan></text>
    <text
       id="text24"
       xml:space="preserve"
       transform="matrix(0.9537807,0,0,0.9537807,104.12603,119.22259)"
       clip-path="url(#clipPath25)"><tspan
         style="font-variant:normal;font-weight:normal;font-size:11px;font-family:Helvetica;writing-mode:lr-tb;fill:#000000;fill-opacity:1;fill-rule:nonzero;stroke:none"
         x="0 7.9438477 14.061523 20.179199 26.296875 32.414551 37.914551 40.970703 43.414551 49.532227"
         y="0"
         sodipodi:role="line"
         id="tspan24">Connecting</tspan></text>
    <text
       id="text25"
       xml:space="preserve"
       transform="matrix(0.9537807,0,0,0.9537807,108.79061,131.62174)"
       clip-path="url(#clipPath26)"><tspan
         style="font-variant:normal;font-weight:normal;font-size:11px;font-family:Helvetica;writing-mode:lr-tb;fill:#000000;fill-opacity:1;fill-rule:nonzero;stroke:none"
         x="0 3.0561523 9.1738281 12.22998 19.566895 28.123047 34.240723 36.68457 39.740723"
         y="0"
         sodipodi:role="line"
         id="tspan25">to SQLite</tspan></text>
    <path
       id="path27"
       d="m 213.75,101 0.24001,-23.330002"
       style="fill:none;stroke:#000000;stroke-width:1;stroke-linecap:butt;stroke-linejoin:miter;stroke-miterlimit:10;stroke-dasharray:none;stroke-opacity:1"
       transform="matrix(0.95377116,0,0,0.95377116,0.47688559,0.47688559)"
       clip-path="url(#clipPath28)" />
    <path
       id="path29"
       d="m 214.05,72.419998 3.42,7.029999 -3.47999,-1.779999 -3.52001,1.709999 z"
       style="fill:#000000;fill-opacity:1;fill-rule:nonzero;stroke:#000000;stroke-width:1;stroke-linecap:butt;stroke-linejoin:miter;stroke-miterlimit:10;stroke-dasharray:none;stroke-opacity:1"
       transform="matrix(0.95377116,0,0,0.95377116,0.47688559,0.47688559)"
       clip-path="url(#clipPath30)" />
    <path
       id="path31"
       d="m 180,101 h 67.5 v 40 H 180 Z"
       style="fill:#fff2cc;fill-opacity:1;fill-rule:nonzero;stroke:#d6b656;stroke-width:1;stroke-linecap:butt;stroke-linejoin:miter;stroke-miterlimit:10;stroke-dasharray:none;stroke-opacity:1"
       transform="matrix(0.95377116,0,0,0.95377116,0.47688559,0.47688559)"
       clip-path="url(#clipPath32)" />
    <text
       id="text32"
       xml:space="preserve"
       transform="matrix(0.9537807,0,0,0.9537807,177.26909,106.82344)"
       clip-path="url(#clipPath33)"><tspan
         style="font-variant:normal;font-weight:normal;font-size:11px;font-family:Helvetica;writing-mode:lr-tb;fill:#000000;fill-opacity:1;fill-rule:nonzero;stroke:none"
         x="0 7.9438477 14.061523 20.179199 25.679199 28.123047 34.240723 37.296875 44.633789 50.751465"
         y="0"
         sodipodi:role="line"
         id="tspan32">Cookie Key</tspan></text>
    <text
       id="text33"
       xml:space="preserve"
       transform="matrix(0.9537807,0,0,0.9537807,178.44641,119.22259)"
       clip-path="url(#clipPath34)"><tspan
         style="font-variant:normal;font-weight:normal;font-size:11px;font-family:Helvetica;writing-mode:lr-tb;fill:#000000;fill-opacity:1;fill-rule:nonzero;stroke:none"
         x="0 3.0561523 9.1738281 12.836914 15.893066 23.836914 29.95459 36.072266 41.572266 44.016113 50.133789"
         y="0"
         sodipodi:role="line"
         id="tspan33">for Cookie-</tspan></text>
    <text
       id="text34"
       xml:space="preserve"
       transform="matrix(0.9537807,0,0,0.9537807,185.43584,131.62174)"
       clip-path="url(#clipPath35)"><tspan
         style="font-variant:normal;font-weight:normal;font-size:11px;font-family:Helvetica;writing-mode:lr-tb;fill:#000000;fill-opacity:1;fill-rule:nonzero;stroke:none"
         x="0 7.3369141 13.45459 18.95459 24.45459 26.898438 33.016113"
         y="0"
         sodipodi:role="line"
         id="tspan34">Session</tspan></text>
    <path
       id="path36"
       d="m 1.25,176 h 270 v 30 h -270 z"
       style="fill:#d5e8d4;fill-opacity:1;fill-rule:nonzero;stroke:#82b366;stroke-width:1;stroke-linecap:butt;stroke-linejoin:miter;stroke-miterlimit:10;stroke-dasharray:none;stroke-opacity:1"
       transform="matrix(0.95377116,0,0,0.95377116,0.47688559,0.47688559)"
       clip-path="url(#clipPath37)" />
    <text
       id="text37"
       xml:space="preserve"
       transform="matrix(0.9537807,0,0,0.9537807,46.243461,187.8948)"
       clip-path="url(#clipPath38)"><tspan
         style="font-variant:normal;font-weight:700;font-size:15px;font-family:Helvetica;writing-mode:lr-tb;fill:#000000;fill-opacity:1;fill-rule:nonzero;stroke:none"
         x="0 10.004883 15.842285 25.004883 34.16748 43.330078 51.672363 56.66748 60.834961 69.997559 79.160156 83.327637 93.33252 102.49512 110.8374 115.00488 120.84229 130.00488 139.16748 152.50488 160.84717 170.00977"
         y="0"
         sodipodi:role="line"
         id="tspan37">Production Environment</tspan></text>
    <path
       id="path39"
       d="m 1.25,206 h 270 v 120 h -270 z"
       style="fill:#d5e8d4;fill-opacity:1;fill-rule:nonzero;stroke:#82b366;stroke-width:1;stroke-linecap:butt;stroke-linejoin:miter;stroke-miterlimit:10;stroke-dasharray:none;stroke-opacity:1"
       transform="matrix(0.95377116,0,0,0.95377116,0.47688559,0.47688559)"
       clip-path="url(#clipPath40)" />
    <path
       id="path41"
       d="M 22.5,216 H 250 v 30 H 22.5 Z"
       style="fill:#f5f5f5;fill-opacity:1;fill-rule:nonzero;stroke:#666666;stroke-width:1;stroke-linecap:butt;stroke-linejoin:miter;stroke-miterlimit:10;stroke-dasharray:none;stroke-opacity:1"
       transform="matrix(0.95377116,0,0,0.95377116,0.47688559,0.47688559)"
       clip-path="url(#clipPath42)" />
    <text
       id="text42"
       xml:space="preserve"
       transform="matrix(0.9537807,0,0,0.9537807,104.40918,226.04603)"
       clip-path="url(#clipPath43)"><tspan
         style="font-variant:normal;font-weight:normal;font-size:15px;font-family:Helvetica;writing-mode:lr-tb;fill:#333333;fill-opacity:1;fill-rule:nonzero;stroke:none"
         x="0 11.66748 20.009766 25.004883 28.352051 38.356934 46.699219"
         y="0"
         sodipodi:role="line"
         id="tspan42">Our App</tspan></text>
    <path
       id="path44"
       d="M 56.25,276 56.009998,252.67"
       style="fill:none;stroke:#000000;stroke-width:1;stroke-linecap:butt;stroke-linejoin:miter;stroke-miterlimit:10;stroke-dasharray:none;stroke-opacity:1"
       transform="matrix(0.95377116,0,0,0.95377116,0.47688559,0.47688559)"
       clip-path="url(#clipPath45)" />
    <path
       id="path46"
       d="m 55.950001,247.42 3.579998,6.96 -3.520001,-1.71 -3.479999,1.79001 z"
       style="fill:#000000;fill-opacity:1;fill-rule:nonzero;stroke:#000000;stroke-width:1;stroke-linecap:butt;stroke-linejoin:miter;stroke-miterlimit:10;stroke-dasharray:none;stroke-opacity:1"
       transform="matrix(0.95377116,0,0,0.95377116,0.47688559,0.47688559)"
       clip-path="url(#clipPath47)" />
    <path
       id="path48"
       d="M 22.5,276 H 90 v 40 H 22.5 Z"
       style="fill:#fff2cc;fill-opacity:1;fill-rule:nonzero;stroke:#d6b656;stroke-width:1;stroke-linecap:butt;stroke-linejoin:miter;stroke-miterlimit:10;stroke-dasharray:none;stroke-opacity:1"
       transform="matrix(0.95377116,0,0,0.95377116,0.47688559,0.47688559)"
       clip-path="url(#clipPath49)" />
    <text
       id="text49"
       xml:space="preserve"
       transform="matrix(0.9537807,0,0,0.9537807,24.917521,286.13421)"
       clip-path="url(#clipPath50)"><tspan
         style="font-variant:normal;font-weight:normal;font-size:11px;font-family:Helvetica;writing-mode:lr-tb;fill:#000000;fill-opacity:1;fill-rule:nonzero;stroke:none"
         x="0 7.3369141 13.45459 18.95459 22.010742 28.128418 31.791504 37.90918 43.40918 46.465332 54.40918"
         y="0"
         sodipodi:role="line"
         id="tspan49">Postgres DB</tspan></text>
    <path
       id="path51"
       d="M 136.25,276 V 252.37"
       style="fill:none;stroke:#000000;stroke-width:1;stroke-linecap:butt;stroke-linejoin:miter;stroke-miterlimit:10;stroke-dasharray:none;stroke-opacity:1"
       transform="matrix(0.95377116,0,0,0.95377116,0.47688559,0.47688559)"
       clip-path="url(#clipPath52)" />
    <path
       id="path53"
       d="m 136.25,247.12 3.5,7 -3.5,-1.75 -3.5,1.75 z"
       style="fill:#000000;fill-opacity:1;fill-rule:nonzero;stroke:#000000;stroke-width:1;stroke-linecap:butt;stroke-linejoin:miter;stroke-miterlimit:10;stroke-dasharray:none;stroke-opacity:1"
       transform="matrix(0.95377116,0,0,0.95377116,0.47688559,0.47688559)"
       clip-path="url(#clipPath54)" />
    <path
       id="path55"
       d="M 102.5,276 H 170 v 40 h -67.5 z"
       style="fill:#fff2cc;fill-opacity:1;fill-rule:nonzero;stroke:#d6b656;stroke-width:1;stroke-linecap:butt;stroke-linejoin:miter;stroke-miterlimit:10;stroke-dasharray:none;stroke-opacity:1"
       transform="matrix(0.95377116,0,0,0.95377116,0.47688559,0.47688559)"
       clip-path="url(#clipPath56)" />
    <g
       id="g56" />
    <text
       id="text56"
       xml:space="preserve"
       transform="matrix(0.9537807,0,0,0.9537807,107.91134,273.73506)"
       clip-path="url(#clipPath57)"><tspan
         style="font-variant:normal;font-weight:normal;font-size:11px;font-family:Helvetica;writing-mode:lr-tb;fill:#000000;fill-opacity:1;fill-rule:nonzero;stroke:none"
         x="0 7.9438477 14.061523 20.179199 25.679199 31.796875 34.853027 37.90918 44.026855"
         y="0"
         sodipodi:role="line"
         id="tspan56">Conﬁg for</tspan></text>
    <text
       id="text57"
       xml:space="preserve"
       transform="matrix(0.9537807,0,0,0.9537807,104.12603,286.13421)"
       clip-path="url(#clipPath58)"><tspan
         style="font-variant:normal;font-weight:normal;font-size:11px;font-family:Helvetica;writing-mode:lr-tb;fill:#000000;fill-opacity:1;fill-rule:nonzero;stroke:none"
         x="0 7.9438477 14.061523 20.179199 26.296875 32.414551 37.914551 40.970703 43.414551 49.532227"
         y="0"
         sodipodi:role="line"
         id="tspan57">Connecting</tspan></text>
    <text
       id="text58"
       xml:space="preserve"
       transform="matrix(0.9537807,0,0,0.9537807,104.12603,298.53336)"
       clip-path="url(#clipPath59)"><tspan
         style="font-variant:normal;font-weight:normal;font-size:11px;font-family:Helvetica;writing-mode:lr-tb;fill:#000000;fill-opacity:1;fill-rule:nonzero;stroke:none"
         x="0 3.0561523 9.1738281 12.22998 19.566895 25.68457 31.18457 34.240723 40.358398 44.021484 50.13916"
         y="0"
         sodipodi:role="line"
         id="tspan58">to Postgres</tspan></text>
    <path
       id="path60"
       d="m 213.75,276 0.24001,-23.33"
       style="fill:none;stroke:#000000;stroke-width:1;stroke-linecap:butt;stroke-linejoin:miter;stroke-miterlimit:10;stroke-dasharray:none;stroke-opacity:1"
       transform="matrix(0.95377116,0,0,0.95377116,0.47688559,0.47688559)"
       clip-path="url(#clipPath61)" />
    <path
       id="path62"
       d="m 214.05,247.42 3.42,7.04001 -3.47999,-1.79001 -3.52001,1.71 z"
       style="fill:#000000;fill-opacity:1;fill-rule:nonzero;stroke:#000000;stroke-width:1;stroke-linecap:butt;stroke-linejoin:miter;stroke-miterlimit:10;stroke-dasharray:none;stroke-opacity:1"
       transform="matrix(0.95377116,0,0,0.95377116,0.47688559,0.47688559)"
       clip-path="url(#clipPath63)" />
    <path
       id="path64"
       d="m 180,276 h 67.5 v 40 H 180 Z"
       style="fill:#fff2cc;fill-opacity:1;fill-rule:nonzero;stroke:#d6b656;stroke-width:1;stroke-linecap:butt;stroke-linejoin:miter;stroke-miterlimit:10;stroke-dasharray:none;stroke-opacity:1"
       transform="matrix(0.95377116,0,0,0.95377116,0.47688559,0.47688559)"
       clip-path="url(#clipPath65)" />
    <text
       id="text65"
       xml:space="preserve"
       transform="matrix(0.9537807,0,0,0.9537807,177.26909,273.73506)"
       clip-path="url(#clipPath66)"><tspan
         style="font-variant:normal;font-weight:normal;font-size:11px;font-family:Helvetica;writing-mode:lr-tb;fill:#000000;fill-opacity:1;fill-rule:nonzero;stroke:none"
         x="0 7.9438477 14.061523 20.179199 25.679199 28.123047 34.240723 37.296875 44.633789 50.751465"
         y="0"
         sodipodi:role="line"
         id="tspan65">Cookie Key</tspan></text>
    <text
       id="text66"
       xml:space="preserve"
       transform="matrix(0.9537807,0,0,0.9537807,178.44641,286.13421)"
       clip-path="url(#clipPath67)"><tspan
         style="font-variant:normal;font-weight:normal;font-size:11px;font-family:Helvetica;writing-mode:lr-tb;fill:#000000;fill-opacity:1;fill-rule:nonzero;stroke:none"
         x="0 3.0561523 9.1738281 12.836914 15.893066 23.836914 29.95459 36.072266 41.572266 44.016113 50.133789"
         y="0"
         sodipodi:role="line"
         id="tspan66">for Cookie-</tspan></text>
    <text
       id="text67"
       xml:space="preserve"
       transform="matrix(0.9537807,0,0,0.9537807,185.43584,298.53336)"
       clip-path="url(#clipPath68)"><tspan
         style="font-variant:normal;font-weight:normal;font-size:11px;font-family:Helvetica;writing-mode:lr-tb;fill:#000000;fill-opacity:1;fill-rule:nonzero;stroke:none"
         x="0 7.3369141 13.45459 18.95459 24.45459 26.898438 33.016113"
         y="0"
         sodipodi:role="line"
         id="tspan67">Session</tspan></text>
  </g>
</svg>
