<?xml version="1.0" encoding="UTF-8" standalone="no"?>
<!-- Created with Inkscape (http://www.inkscape.org/) -->

<svg
   version="1.1"
   id="svg1"
   width="587.84003"
   height="186.56"
   viewBox="0 0 587.84003 186.56"
   sodipodi:docname="nest-3.pdf"
   xmlns:inkscape="http://www.inkscape.org/namespaces/inkscape"
   xmlns:sodipodi="http://sodipodi.sourceforge.net/DTD/sodipodi-0.dtd"
   xmlns="http://www.w3.org/2000/svg"
   xmlns:svg="http://www.w3.org/2000/svg">
  <defs
     id="defs1">
    <clipPath
       clipPathUnits="userSpaceOnUse"
       id="clipPath2">
      <path
         d="M 0,0 H 1837.4999 V 580.57813 H 0 Z"
         transform="scale(0.33414968)"
         clip-rule="evenodd"
         id="path2" />
    </clipPath>
    <clipPath
       clipPathUnits="userSpaceOnUse"
       id="clipPath4">
      <path
         d="M 0,0 H 1837.4999 V 580.57813 H 0 Z"
         transform="matrix(0.33414968,0,0,0.33414968,-0.49999999,-0.49999999)"
         clip-rule="evenodd"
         id="path4" />
    </clipPath>
    <clipPath
       clipPathUnits="userSpaceOnUse"
       id="clipPath6">
      <path
         d="M 0,0 H 1837.4999 V 580.57813 H 0 Z"
         transform="matrix(0.33414968,0,0,0.33414968,-0.49999999,-0.49999999)"
         clip-rule="evenodd"
         id="path6" />
    </clipPath>
    <clipPath
       clipPathUnits="userSpaceOnUse"
       id="clipPath8">
      <path
         d="M 0,0 H 1837.4999 V 580.57813 H 0 Z"
         transform="matrix(0.33414968,0,0,0.33414968,-0.49999999,-0.49999999)"
         clip-rule="evenodd"
         id="path8" />
    </clipPath>
    <clipPath
       clipPathUnits="userSpaceOnUse"
       id="clipPath9">
      <path
         d="M 0,0 H 1837.4999 V 580.57813 H 0 Z"
         transform="matrix(0.33414633,0,0,0.33414633,-75.578125,-108)"
         clip-rule="evenodd"
         id="path9" />
    </clipPath>
    <clipPath
       clipPathUnits="userSpaceOnUse"
       id="clipPath10">
      <path
         d="M 0,0 H 1837.4999 V 580.57813 H 0 Z"
         transform="matrix(0.33414633,0,0,0.33414633,-6.359375,-126)"
         clip-rule="evenodd"
         id="path10" />
    </clipPath>
    <clipPath
       clipPathUnits="userSpaceOnUse"
       id="clipPath12">
      <path
         d="M 0,0 H 1837.4999 V 580.57813 H 0 Z"
         transform="matrix(0.33414968,0,0,0.33414968,-0.49999999,-0.49999999)"
         clip-rule="evenodd"
         id="path12" />
    </clipPath>
    <clipPath
       clipPathUnits="userSpaceOnUse"
       id="clipPath13">
      <path
         d="M 0,0 H 1837.4999 V 580.57813 H 0 Z"
         transform="matrix(0.33414633,0,0,0.33414633,-61.406249,-72)"
         clip-rule="evenodd"
         id="path13" />
    </clipPath>
    <clipPath
       clipPathUnits="userSpaceOnUse"
       id="clipPath15">
      <path
         d="M 0,0 H 1837.4999 V 580.57813 H 0 Z"
         transform="matrix(0.33414968,0,0,0.33414968,-0.49999999,-0.49999999)"
         clip-rule="evenodd"
         id="path15" />
    </clipPath>
    <clipPath
       clipPathUnits="userSpaceOnUse"
       id="clipPath17">
      <path
         d="M 0,0 H 1837.4999 V 580.57813 H 0 Z"
         transform="matrix(0.33414968,0,0,0.33414968,-0.49999999,-0.49999999)"
         clip-rule="evenodd"
         id="path17" />
    </clipPath>
    <clipPath
       clipPathUnits="userSpaceOnUse"
       id="clipPath18">
      <path
         d="M 0,0 H 1837.4999 V 580.57813 H 0 Z"
         transform="matrix(0.33414633,0,0,0.33414633,-388.90625,-22)"
         clip-rule="evenodd"
         id="path18" />
    </clipPath>
    <clipPath
       clipPathUnits="userSpaceOnUse"
       id="clipPath19">
      <path
         d="M 0,0 H 1837.4999 V 580.57813 H 0 Z"
         transform="matrix(0.33414633,0,0,0.33414633,-37.21875,-158)"
         clip-rule="evenodd"
         id="path19" />
    </clipPath>
    <clipPath
       clipPathUnits="userSpaceOnUse"
       id="clipPath20">
      <path
         d="M 0,0 H 1837.4999 V 580.57813 H 0 Z"
         transform="matrix(0.33414633,0,0,0.33414633,-47.21875,-176)"
         clip-rule="evenodd"
         id="path20" />
    </clipPath>
    <clipPath
       clipPathUnits="userSpaceOnUse"
       id="clipPath22">
      <path
         d="M 0,0 H 1837.4999 V 580.57813 H 0 Z"
         transform="matrix(0.33414968,0,0,0.33414968,-0.49999999,-0.49999999)"
         clip-rule="evenodd"
         id="path22" />
    </clipPath>
    <clipPath
       clipPathUnits="userSpaceOnUse"
       id="clipPath23">
      <path
         d="M 0,0 H 1837.4999 V 580.57813 H 0 Z"
         transform="matrix(0.33414633,0,0,0.33414633,-384.96875,-66.999999)"
         clip-rule="evenodd"
         id="path23" />
    </clipPath>
    <clipPath
       clipPathUnits="userSpaceOnUse"
       id="clipPath24">
      <path
         d="M 0,0 H 1837.4999 V 580.57813 H 0 Z"
         transform="matrix(0.33414633,0,0,0.33414633,-384.3125,-81)"
         clip-rule="evenodd"
         id="path24" />
    </clipPath>
    <clipPath
       clipPathUnits="userSpaceOnUse"
       id="clipPath25">
      <path
         d="M 0,0 H 1837.4999 V 580.57813 H 0 Z"
         transform="matrix(0.33414633,0,0,0.33414633,-407.65625,-95)"
         clip-rule="evenodd"
         id="path25" />
    </clipPath>
    <clipPath
       clipPathUnits="userSpaceOnUse"
       id="clipPath26">
      <path
         d="M 0,0 H 1837.4999 V 580.57813 H 0 Z"
         transform="matrix(0.33414633,0,0,0.33414633,-386.3125,-110)"
         clip-rule="evenodd"
         id="path26" />
    </clipPath>
    <clipPath
       clipPathUnits="userSpaceOnUse"
       id="clipPath27">
      <path
         d="M 0,0 H 1837.4999 V 580.57813 H 0 Z"
         transform="matrix(0.33414633,0,0,0.33414633,-389.98438,-124)"
         clip-rule="evenodd"
         id="path27" />
    </clipPath>
    <clipPath
       clipPathUnits="userSpaceOnUse"
       id="clipPath29">
      <path
         d="M 0,0 H 1837.4999 V 580.57813 H 0 Z"
         transform="matrix(0.33414968,0,0,0.33414968,-0.49999999,-0.49999999)"
         clip-rule="evenodd"
         id="path29" />
    </clipPath>
    <clipPath
       clipPathUnits="userSpaceOnUse"
       id="clipPath31">
      <path
         d="M 0,0 H 1837.4999 V 580.57813 H 0 Z"
         transform="matrix(0.33414968,0,0,0.33414968,-0.49999999,-0.49999999)"
         clip-rule="evenodd"
         id="path31" />
    </clipPath>
    <clipPath
       clipPathUnits="userSpaceOnUse"
       id="clipPath33">
      <path
         d="M 0,0 H 1837.4999 V 580.57813 H 0 Z"
         transform="matrix(0.33414968,0,0,0.33414968,-0.49999999,-0.49999999)"
         clip-rule="evenodd"
         id="path33" />
    </clipPath>
    <clipPath
       clipPathUnits="userSpaceOnUse"
       id="clipPath34">
      <path
         d="M 0,0 H 1837.4999 V 580.57813 H 0 Z"
         transform="matrix(0.33414633,0,0,0.33414633,-463.64063,-81)"
         clip-rule="evenodd"
         id="path34" />
    </clipPath>
    <clipPath
       clipPathUnits="userSpaceOnUse"
       id="clipPath35">
      <path
         d="M 0,0 H 1837.4999 V 580.57813 H 0 Z"
         transform="matrix(0.33414633,0,0,0.33414633,-467.3125,-95)"
         clip-rule="evenodd"
         id="path35" />
    </clipPath>
    <clipPath
       clipPathUnits="userSpaceOnUse"
       id="clipPath36">
      <path
         d="M 0,0 H 1837.4999 V 580.57813 H 0 Z"
         transform="matrix(0.33414633,0,0,0.33414633,-478.65625,-110)"
         clip-rule="evenodd"
         id="path36" />
    </clipPath>
    <clipPath
       clipPathUnits="userSpaceOnUse"
       id="clipPath38">
      <path
         d="M 0,0 H 1837.4999 V 580.57813 H 0 Z"
         transform="matrix(0.33414968,0,0,0.33414968,-0.49999999,-0.49999999)"
         clip-rule="evenodd"
         id="path38" />
    </clipPath>
    <clipPath
       clipPathUnits="userSpaceOnUse"
       id="clipPath40">
      <path
         d="M 0,0 H 1837.4999 V 580.57813 H 0 Z"
         transform="matrix(0.33414968,0,0,0.33414968,-0.49999999,-0.49999999)"
         clip-rule="evenodd"
         id="path40" />
    </clipPath>
    <clipPath
       clipPathUnits="userSpaceOnUse"
       id="clipPath42">
      <path
         d="M 0,0 H 1837.4999 V 580.57813 H 0 Z"
         transform="matrix(0.33414968,0,0,0.33414968,-0.49999999,-0.49999999)"
         clip-rule="evenodd"
         id="path42" />
    </clipPath>
    <clipPath
       clipPathUnits="userSpaceOnUse"
       id="clipPath43">
      <path
         d="M 0,0 H 1837.4999 V 580.57813 H 0 Z"
         transform="matrix(0.33414633,0,0,0.33414633,-546.65625,-88)"
         clip-rule="evenodd"
         id="path43" />
    </clipPath>
    <clipPath
       clipPathUnits="userSpaceOnUse"
       id="clipPath44">
      <path
         d="M 0,0 H 1837.4999 V 580.57813 H 0 Z"
         transform="matrix(0.33414633,0,0,0.33414633,-546.29687,-103)"
         clip-rule="evenodd"
         id="path44" />
    </clipPath>
    <clipPath
       clipPathUnits="userSpaceOnUse"
       id="clipPath46">
      <path
         d="M 0,0 H 1837.4999 V 580.57813 H 0 Z"
         transform="matrix(0.33414968,0,0,0.33414968,-0.49999999,-0.49999999)"
         clip-rule="evenodd"
         id="path46" />
    </clipPath>
    <clipPath
       clipPathUnits="userSpaceOnUse"
       id="clipPath47">
      <path
         d="M 0,0 H 1837.4999 V 580.57813 H 0 Z"
         transform="matrix(0.33414633,0,0,0.33414633,-382.32813,-155)"
         clip-rule="evenodd"
         id="path47" />
    </clipPath>
    <clipPath
       clipPathUnits="userSpaceOnUse"
       id="clipPath49">
      <path
         d="M 0,0 H 1837.4999 V 580.57813 H 0 Z"
         transform="matrix(0.33414968,0,0,0.33414968,-0.49999999,-0.49999999)"
         clip-rule="evenodd"
         id="path49" />
    </clipPath>
    <clipPath
       clipPathUnits="userSpaceOnUse"
       id="clipPath50">
      <path
         d="M 0,0 H 1837.4999 V 580.57813 H 0 Z"
         transform="matrix(0.33414633,0,0,0.33414633,-469.64063,-155)"
         clip-rule="evenodd"
         id="path50" />
    </clipPath>
    <clipPath
       clipPathUnits="userSpaceOnUse"
       id="clipPath52">
      <path
         d="M 0,0 H 1837.4999 V 580.57813 H 0 Z"
         transform="matrix(0.33414968,0,0,0.33414968,-0.49999999,-0.49999999)"
         clip-rule="evenodd"
         id="path52" />
    </clipPath>
    <clipPath
       clipPathUnits="userSpaceOnUse"
       id="clipPath53">
      <path
         d="M 0,0 H 1837.4999 V 580.57813 H 0 Z"
         transform="matrix(0.33414633,0,0,0.33414633,-542.26563,-155)"
         clip-rule="evenodd"
         id="path53" />
    </clipPath>
  </defs>
  <sodipodi:namedview
     id="namedview1"
     pagecolor="#ffffff"
     bordercolor="#000000"
     borderopacity="0.25"
     inkscape:showpageshadow="2"
     inkscape:pageopacity="0.0"
     inkscape:pagecheckerboard="0"
     inkscape:deskcolor="#d1d1d1">
    <inkscape:page
       x="0"
       y="0"
       inkscape:label="1"
       id="page1"
       width="587.84003"
       height="186.56"
       margin="0"
       bleed="0" />
  </sodipodi:namedview>
  <g
     id="g1"
     inkscape:groupmode="layer"
     inkscape:label="1">
    <path
       id="path1"
       d="M 0,0 H 614 V 194 H 0 Z"
       style="fill:#ffffff;fill-opacity:1;fill-rule:nonzero;stroke:none"
       transform="scale(0.95765462)"
       clip-path="url(#clipPath2)" />
    <path
       id="path3"
       d="m 181,111 h 20 -10 13.63"
       style="fill:none;stroke:#000000;stroke-width:1;stroke-linecap:butt;stroke-linejoin:miter;stroke-miterlimit:10;stroke-dasharray:none;stroke-opacity:1"
       transform="matrix(0.95765462,0,0,0.95765462,0.4788273,0.4788273)"
       clip-path="url(#clipPath4)" />
    <path
       id="path5"
       d="m 209.88,111 -7,3.5 1.75,-3.5 -1.75,-3.5 z"
       style="fill:#000000;fill-opacity:1;fill-rule:nonzero;stroke:#000000;stroke-width:1;stroke-linecap:butt;stroke-linejoin:miter;stroke-miterlimit:10;stroke-dasharray:none;stroke-opacity:1"
       transform="matrix(0.95765462,0,0,0.95765462,0.4788273,0.4788273)"
       clip-path="url(#clipPath6)" />
    <path
       id="path7"
       d="m 1,81 h 180 v 60 H 1 Z"
       style="fill:#ffffff;fill-opacity:1;fill-rule:nonzero;stroke:#000000;stroke-width:1;stroke-linecap:butt;stroke-linejoin:miter;stroke-miterlimit:10;stroke-dasharray:none;stroke-opacity:1"
       transform="matrix(0.95765462,0,0,0.95765462,0.4788273,0.4788273)"
       clip-path="url(#clipPath8)" />
    <text
       id="text8"
       xml:space="preserve"
       transform="matrix(0.95766422,0,0,0.95766422,72.378466,103.42774)"
       clip-path="url(#clipPath9)"><tspan
         style="font-variant:normal;font-weight:normal;font-size:15px;font-family:Helvetica;writing-mode:lr-tb;fill:#000000;fill-opacity:1;fill-rule:nonzero;stroke:none"
         x="0 11.66748 21.672363"
         y="0"
         sodipodi:role="line"
         id="tspan8">GET</tspan></text>
    <text
       id="text9"
       xml:space="preserve"
       transform="matrix(0.95766422,0,0,0.95766422,6.0901459,120.66569)"
       clip-path="url(#clipPath10)"><tspan
         style="font-variant:normal;font-weight:normal;font-size:15px;font-family:Helvetica;writing-mode:lr-tb;fill:#000000;fill-opacity:1;fill-rule:nonzero;stroke:none"
         x="0 3.3325195 11.674805 19.174805 27.51709 30.849609 39.191895 47.53418 55.03418 59.20166 63.369141 71.711426 80.053711 88.395996 96.738281 100.90576 113.40088 121.74316 129.24316 136.74316 145.08545 153.42773 161.77002"
         y="0"
         sodipodi:role="line"
         id="tspan9">localhost:3000/messages</tspan></text>
    <path
       id="path11"
       d="M 1,51 H 181 V 81 H 1 Z"
       style="fill:#f5f5f5;fill-opacity:1;fill-rule:nonzero;stroke:#666666;stroke-width:1;stroke-linecap:butt;stroke-linejoin:miter;stroke-miterlimit:10;stroke-dasharray:none;stroke-opacity:1"
       transform="matrix(0.95765462,0,0,0.95765462,0.4788273,0.4788273)"
       clip-path="url(#clipPath12)" />
    <text
       id="text12"
       xml:space="preserve"
       transform="matrix(0.95766422,0,0,0.95766422,58.806568,68.951824)"
       clip-path="url(#clipPath13)"><tspan
         style="font-variant:normal;font-weight:700;font-size:15px;font-family:Helvetica;writing-mode:lr-tb;fill:#333333;fill-opacity:1;fill-rule:nonzero;stroke:none"
         x="0 10.83252 19.174805 28.337402 37.5 45.842285 54.18457"
         y="0"
         sodipodi:role="line"
         id="tspan12">Request</tspan></text>
    <path
       id="path14"
       d="M 211,31 H 611 V 191 H 211 Z"
       style="fill:#dae8fc;fill-opacity:1;fill-rule:nonzero;stroke:#6c8ebf;stroke-width:1;stroke-linecap:butt;stroke-linejoin:miter;stroke-miterlimit:10;stroke-dasharray:none;stroke-opacity:1"
       transform="matrix(0.95765462,0,0,0.95765462,0.4788273,0.4788273)"
       clip-path="url(#clipPath15)" />
    <path
       id="path16"
       d="M 211,1 H 611 V 31 H 211 Z"
       style="fill:#dae8fc;fill-opacity:1;fill-rule:nonzero;stroke:#6c8ebf;stroke-width:1;stroke-linecap:butt;stroke-linejoin:miter;stroke-miterlimit:10;stroke-dasharray:none;stroke-opacity:1"
       transform="matrix(0.95765462,0,0,0.95765462,0.4788273,0.4788273)"
       clip-path="url(#clipPath17)" />
    <text
       id="text17"
       xml:space="preserve"
       transform="matrix(0.95766422,0,0,0.95766422,372.4416,21.068613)"
       clip-path="url(#clipPath18)"><tspan
         style="font-variant:normal;font-weight:normal;font-size:15px;font-family:Helvetica;writing-mode:lr-tb;fill:#000000;fill-opacity:1;fill-rule:nonzero;stroke:none"
         x="0 10.004883 18.347168 23.342285 30.842285 39.18457"
         y="0"
         sodipodi:role="line"
         id="tspan17">Server</tspan></text>
    <text
       id="text18"
       xml:space="preserve"
       transform="matrix(0.95766422,0,0,0.95766422,35.643065,151.31095)"
       clip-path="url(#clipPath19)"><tspan
         style="font-style:oblique;font-variant:normal;font-weight:normal;font-size:15px;font-family:Helvetica;writing-mode:lr-tb;fill:#000000;fill-opacity:1;fill-rule:nonzero;stroke:none"
         x="0 10.83252 19.174805 23.342285 28.337402 31.669922 40.012207 47.512207 55.854492 60.021973 68.364258 72.531738 75.864258 79.196777 86.696777 90.864258 95.031738 103.37402"
         y="0"
         sodipodi:role="line"
         id="tspan18">Retrieve a list of</tspan></text>
    <text
       id="text19"
       xml:space="preserve"
       transform="matrix(0.95766422,0,0,0.95766422,45.219707,168.5489)"
       clip-path="url(#clipPath20)"><tspan
         style="font-style:oblique;font-variant:normal;font-weight:normal;font-size:15px;font-family:Helvetica;writing-mode:lr-tb;fill:#000000;fill-opacity:1;fill-rule:nonzero;stroke:none"
         x="0 8.3422852 11.674805 15.007324 19.174805 31.669922 40.012207 47.512207 55.012207 63.354492 71.696777 80.039062"
         y="0"
         sodipodi:role="line"
         id="tspan19">all messages</tspan></text>
    <path
       id="path21"
       d="m 381,51 h 60 v 80 h -60 z"
       style="fill:#ffffff;fill-opacity:1;fill-rule:nonzero;stroke:#000000;stroke-width:1;stroke-linecap:butt;stroke-linejoin:miter;stroke-miterlimit:10;stroke-dasharray:none;stroke-opacity:1"
       transform="matrix(0.95765462,0,0,0.95765462,0.4788273,0.4788273)"
       clip-path="url(#clipPath22)" />
    <text
       id="text22"
       xml:space="preserve"
       transform="matrix(0.95766422,0,0,0.95766422,368.6708,64.163502)"
       clip-path="url(#clipPath23)"><tspan
         style="font-style:oblique;font-variant:normal;font-weight:normal;font-size:12px;font-family:Helvetica;writing-mode:lr-tb;fill:#000000;fill-opacity:1;fill-rule:nonzero;stroke:none"
         x="0 8.6660156 15.339844 22.013672 25.347656 32.021484 35.355469 38.689453 45.363281"
         y="0"
         sodipodi:role="line"
         id="tspan22">Route the</tspan></text>
    <text
       id="text23"
       xml:space="preserve"
       transform="matrix(0.95766422,0,0,0.95766422,368.04233,77.570802)"
       clip-path="url(#clipPath24)"><tspan
         style="font-style:oblique;font-variant:normal;font-weight:normal;font-size:12px;font-family:Helvetica;writing-mode:lr-tb;fill:#000000;fill-opacity:1;fill-rule:nonzero;stroke:none"
         x="0 3.9960938 10.669922 17.34375 24.017578 30.691406 36.691406 40.025391 43.359375 46.693359"
         y="0"
         sodipodi:role="line"
         id="tspan23">request to</tspan></text>
    <text
       id="text24"
       xml:space="preserve"
       transform="matrix(0.95766422,0,0,0.95766422,390.3978,90.978101)"
       clip-path="url(#clipPath25)"><tspan
         style="font-style:oblique;font-variant:normal;font-weight:normal;font-size:12px;font-family:Helvetica;writing-mode:lr-tb;fill:#000000;fill-opacity:1;fill-rule:nonzero;stroke:none"
         x="0"
         y="0"
         id="tspan24">a</tspan></text>
    <text
       id="text25"
       xml:space="preserve"
       transform="matrix(0.95766422,0,0,0.95766422,369.95766,105.34306)"
       clip-path="url(#clipPath26)"><tspan
         style="font-style:oblique;font-variant:normal;font-weight:normal;font-size:12px;font-family:Helvetica;writing-mode:lr-tb;fill:#000000;fill-opacity:1;fill-rule:nonzero;stroke:none"
         x="0 6.6738281 13.347656 17.34375 20.677734 23.34375 29.34375 36.017578 38.683594 45.357422"
         y="0"
         sodipodi:role="line"
         id="tspan25">particular</tspan></text>
    <text
       id="text26"
       xml:space="preserve"
       transform="matrix(0.95766422,0,0,0.95766422,373.47409,118.75036)"
       clip-path="url(#clipPath27)"><tspan
         style="font-style:oblique;font-variant:normal;font-weight:normal;font-size:12px;font-family:Helvetica;writing-mode:lr-tb;fill:#000000;fill-opacity:1;fill-rule:nonzero;stroke:none"
         x="0 3.3339844 10.007812 16.681641 22.681641 26.015625 28.681641 35.355469"
         y="0"
         sodipodi:role="line"
         id="tspan26">function</tspan></text>
    <path
       id="path28"
       d="m 441,91 h 13.64001"
       style="fill:none;stroke:#000000;stroke-width:1;stroke-linecap:butt;stroke-linejoin:miter;stroke-miterlimit:10;stroke-dasharray:none;stroke-opacity:1"
       transform="matrix(0.95765462,0,0,0.95765462,0.4788273,0.4788273)"
       clip-path="url(#clipPath29)" />
    <path
       id="path30"
       d="m 459.89001,91 -7,3.5 1.75,-3.5 -1.75,-3.5 z"
       style="fill:#000000;fill-opacity:1;fill-rule:nonzero;stroke:#000000;stroke-width:1;stroke-linecap:butt;stroke-linejoin:miter;stroke-miterlimit:10;stroke-dasharray:none;stroke-opacity:1"
       transform="matrix(0.95765462,0,0,0.95765462,0.4788273,0.4788273)"
       clip-path="url(#clipPath31)" />
    <path
       id="path32"
       d="m 461,51 h 60 v 80 h -60 z"
       style="fill:#ffffff;fill-opacity:1;fill-rule:nonzero;stroke:#000000;stroke-width:1;stroke-linecap:butt;stroke-linejoin:miter;stroke-miterlimit:10;stroke-dasharray:none;stroke-opacity:1"
       transform="matrix(0.95765462,0,0,0.95765462,0.4788273,0.4788273)"
       clip-path="url(#clipPath33)" />
    <text
       id="text33"
       xml:space="preserve"
       transform="matrix(0.95766422,0,0,0.95766422,444.01204,77.570802)"
       clip-path="url(#clipPath34)"><tspan
         style="font-style:oblique;font-variant:normal;font-weight:normal;font-size:12px;font-family:Helvetica;writing-mode:lr-tb;fill:#000000;fill-opacity:1;fill-rule:nonzero;stroke:none"
         x="0 8.6660156 15.339844 22.013672 25.347656 31.347656 38.021484 48.017578"
         y="0"
         sodipodi:role="line"
         id="tspan33">Run some</tspan></text>
    <text
       id="text34"
       xml:space="preserve"
       transform="matrix(0.95766422,0,0,0.95766422,447.52846,90.978101)"
       clip-path="url(#clipPath35)"><tspan
         style="font-style:oblique;font-variant:normal;font-weight:normal;font-size:12px;font-family:Helvetica;writing-mode:lr-tb;fill:#000000;fill-opacity:1;fill-rule:nonzero;stroke:none"
         x="0 6.6738281 13.347656 19.347656 22.013672 28.6875 35.361328 41.361328"
         y="0"
         sodipodi:role="line"
         id="tspan34">business</tspan></text>
    <text
       id="text35"
       xml:space="preserve"
       transform="matrix(0.95766422,0,0,0.95766422,458.39196,105.34306)"
       clip-path="url(#clipPath36)"><tspan
         style="font-style:oblique;font-variant:normal;font-weight:normal;font-size:12px;font-family:Helvetica;writing-mode:lr-tb;fill:#000000;fill-opacity:1;fill-rule:nonzero;stroke:none"
         x="0 2.6660156 9.3398438 16.013672 18.679688"
         y="0"
         sodipodi:role="line"
         id="tspan35">logic</tspan></text>
    <path
       id="path37"
       d="m 521.01001,91 h 13.63"
       style="fill:none;stroke:#000000;stroke-width:1;stroke-linecap:butt;stroke-linejoin:miter;stroke-miterlimit:10;stroke-dasharray:none;stroke-opacity:1"
       transform="matrix(0.95765462,0,0,0.95765462,0.4788273,0.4788273)"
       clip-path="url(#clipPath38)" />
    <path
       id="path39"
       d="m 539.89001,91 -7,3.5 1.75,-3.5 -1.75,-3.5 z"
       style="fill:#000000;fill-opacity:1;fill-rule:nonzero;stroke:#000000;stroke-width:1;stroke-linecap:butt;stroke-linejoin:miter;stroke-miterlimit:10;stroke-dasharray:none;stroke-opacity:1"
       transform="matrix(0.95765462,0,0,0.95765462,0.4788273,0.4788273)"
       clip-path="url(#clipPath40)" />
    <path
       id="path41"
       d="m 541.01001,51 h 60 v 80 h -60 z"
       style="fill:#ffffff;fill-opacity:1;fill-rule:nonzero;stroke:#000000;stroke-width:1;stroke-linecap:butt;stroke-linejoin:miter;stroke-miterlimit:10;stroke-dasharray:none;stroke-opacity:1"
       transform="matrix(0.95765462,0,0,0.95765462,0.4788273,0.4788273)"
       clip-path="url(#clipPath42)" />
    <text
       id="text42"
       xml:space="preserve"
       transform="matrix(0.95766422,0,0,0.95766422,523.51313,84.274451)"
       clip-path="url(#clipPath43)"><tspan
         style="font-style:oblique;font-variant:normal;font-weight:normal;font-size:12px;font-family:Helvetica;writing-mode:lr-tb;fill:#000000;fill-opacity:1;fill-rule:nonzero;stroke:none"
         x="0 8.0039062 14.003906 20.003906 26.677734 32.677734 38.677734 42.011719"
         y="0"
         sodipodi:role="line"
         id="tspan42">Access a</tspan></text>
    <text
       id="text43"
       xml:space="preserve"
       transform="matrix(0.95766422,0,0,0.95766422,523.16897,98.639414)"
       clip-path="url(#clipPath44)"><tspan
         style="font-style:oblique;font-variant:normal;font-weight:normal;font-size:12px;font-family:Helvetica;writing-mode:lr-tb;fill:#000000;fill-opacity:1;fill-rule:nonzero;stroke:none"
         x="0 6.6738281 13.347656 16.681641 23.355469 30.029297 36.703125 42.703125"
         y="0"
         sodipodi:role="line"
         id="tspan43">database</tspan></text>
    <path
       id="path45"
       d="m 381,131 h 60 v 40 h -60 z"
       style="fill:#ffe6cc;fill-opacity:1;fill-rule:nonzero;stroke:#d79b00;stroke-width:1;stroke-linecap:butt;stroke-linejoin:miter;stroke-miterlimit:10;stroke-dasharray:none;stroke-opacity:1"
       transform="matrix(0.95765462,0,0,0.95765462,0.4788273,0.4788273)"
       clip-path="url(#clipPath46)" />
    <text
       id="text46"
       xml:space="preserve"
       transform="matrix(0.95766422,0,0,0.95766422,366.14197,148.43795)"
       clip-path="url(#clipPath47)"><tspan
         style="font-variant:normal;font-weight:700;font-size:12px;font-family:Helvetica;writing-mode:lr-tb;fill:#000000;fill-opacity:1;fill-rule:nonzero;stroke:none"
         x="0 8.6660156 15.996094 23.326172 27.322266 31.992188 39.322266 42.65625 45.990234 52.664062"
         y="0"
         sodipodi:role="line"
         id="tspan46">Controller</tspan></text>
    <path
       id="path48"
       d="m 461,131 h 60 v 40 h -60 z"
       style="fill:#ffe6cc;fill-opacity:1;fill-rule:nonzero;stroke:#d79b00;stroke-width:1;stroke-linecap:butt;stroke-linejoin:miter;stroke-miterlimit:10;stroke-dasharray:none;stroke-opacity:1"
       transform="matrix(0.95765462,0,0,0.95765462,0.4788273,0.4788273)"
       clip-path="url(#clipPath49)" />
    <text
       id="text49"
       xml:space="preserve"
       transform="matrix(0.95766422,0,0,0.95766422,449.75803,148.43795)"
       clip-path="url(#clipPath50)"><tspan
         style="font-variant:normal;font-weight:700;font-size:12px;font-family:Helvetica;writing-mode:lr-tb;fill:#000000;fill-opacity:1;fill-rule:nonzero;stroke:none"
         x="0 8.0039062 14.677734 19.347656 26.021484 29.355469 36.029297"
         y="0"
         sodipodi:role="line"
         id="tspan49">Service</tspan></text>
    <path
       id="path51"
       d="m 541.01001,131 h 60 v 40 h -60 z"
       style="fill:#ffe6cc;fill-opacity:1;fill-rule:nonzero;stroke:#d79b00;stroke-width:1;stroke-linecap:butt;stroke-linejoin:miter;stroke-miterlimit:10;stroke-dasharray:none;stroke-opacity:1"
       transform="matrix(0.95765462,0,0,0.95765462,0.4788273,0.4788273)"
       clip-path="url(#clipPath52)" />
    <text
       id="text52"
       xml:space="preserve"
       transform="matrix(0.95766422,0,0,0.95766422,519.30839,148.43795)"
       clip-path="url(#clipPath53)"><tspan
         style="font-variant:normal;font-weight:700;font-size:11px;font-family:Helvetica;writing-mode:lr-tb;fill:#000000;fill-opacity:1;fill-rule:nonzero;stroke:none"
         x="0 7.9438477 14.061523 20.780762 27.5 33.617676 36.673828 40.336914 47.056152 51.336914"
         y="0"
         sodipodi:role="line"
         id="tspan52">Repository</tspan></text>
  </g>
</svg>
