<?xml version="1.0" encoding="UTF-8" standalone="no"?>
<!-- Created with Inkscape (http://www.inkscape.org/) -->

<svg
   version="1.1"
   id="svg1"
   width="693.44"
   height="206.71999"
   viewBox="0 0 693.44 206.71999"
   sodipodi:docname="nest-16.pdf"
   xmlns:inkscape="http://www.inkscape.org/namespaces/inkscape"
   xmlns:sodipodi="http://sodipodi.sourceforge.net/DTD/sodipodi-0.dtd"
   xmlns="http://www.w3.org/2000/svg"
   xmlns:svg="http://www.w3.org/2000/svg">
  <defs
     id="defs1">
    <clipPath
       clipPathUnits="userSpaceOnUse"
       id="clipPath2">
      <path
         d="M 0,0 H 2166.6665 V 643.4162 H 0 Z"
         transform="scale(0.33415387)"
         clip-rule="evenodd"
         id="path2" />
    </clipPath>
    <clipPath
       clipPathUnits="userSpaceOnUse"
       id="clipPath4">
      <path
         d="M 0,0 H 2166.6665 V 640.42352 H 0 Z"
         transform="matrix(0.33415387,0,0,0.33415387,-0.5,-0.5)"
         clip-rule="evenodd"
         id="path4" />
    </clipPath>
    <clipPath
       clipPathUnits="userSpaceOnUse"
       id="clipPath5">
      <path
         d="M 0,0 H 2166.6665 V 640.42352 H 0 Z"
         transform="matrix(0.33415051,0,0,0.33415051,-70.5625,-108)"
         clip-rule="evenodd"
         id="path5" />
    </clipPath>
    <clipPath
       clipPathUnits="userSpaceOnUse"
       id="clipPath6">
      <path
         d="M 0,0 H 2166.6665 V 640.42352 H 0 Z"
         transform="matrix(0.33415051,0,0,0.33415051,-54.71875,-126)"
         clip-rule="evenodd"
         id="path6" />
    </clipPath>
    <clipPath
       clipPathUnits="userSpaceOnUse"
       id="clipPath8">
      <path
         d="M 0,0 H 2166.6665 V 640.42352 H 0 Z"
         transform="matrix(0.33415387,0,0,0.33415387,-0.5,-0.5)"
         clip-rule="evenodd"
         id="path8" />
    </clipPath>
    <clipPath
       clipPathUnits="userSpaceOnUse"
       id="clipPath9">
      <path
         d="M 0,0 H 2166.6665 V 640.42352 H 0 Z"
         transform="matrix(0.33415051,0,0,0.33415051,-61.40625,-72)"
         clip-rule="evenodd"
         id="path9" />
    </clipPath>
    <clipPath
       clipPathUnits="userSpaceOnUse"
       id="clipPath11">
      <path
         d="M 0,0 H 2166.6665 V 640.42352 H 0 Z"
         transform="matrix(0.33415387,0,0,0.33415387,-0.5,-0.5)"
         clip-rule="evenodd"
         id="path11" />
    </clipPath>
    <clipPath
       clipPathUnits="userSpaceOnUse"
       id="clipPath13">
      <path
         d="M 0,0 H 2166.6665 V 640.42352 H 0 Z"
         transform="matrix(0.33415387,0,0,0.33415387,-0.5,-0.5)"
         clip-rule="evenodd"
         id="path13" />
    </clipPath>
    <clipPath
       clipPathUnits="userSpaceOnUse"
       id="clipPath15">
      <path
         d="M 0,0 H 2166.6665 V 640.42352 H 0 Z"
         transform="matrix(0.33415387,0,0,0.33415387,-0.5,-0.5)"
         clip-rule="evenodd"
         id="path15" />
    </clipPath>
    <clipPath
       clipPathUnits="userSpaceOnUse"
       id="clipPath16">
      <path
         d="M 0,0 H 2166.6665 V 640.42352 H 0 Z"
         transform="matrix(0.33415051,0,0,0.33415051,-17.375,-172)"
         clip-rule="evenodd"
         id="path16" />
    </clipPath>
    <clipPath
       clipPathUnits="userSpaceOnUse"
       id="clipPath18">
      <path
         d="M 0,0 H 2166.6665 V 640.42352 H 0 Z"
         transform="matrix(0.33415387,0,0,0.33415387,-0.5,-0.5)"
         clip-rule="evenodd"
         id="path18" />
    </clipPath>
    <clipPath
       clipPathUnits="userSpaceOnUse"
       id="clipPath19">
      <path
         d="M 0,0 H 2166.6665 V 640.42352 H 0 Z"
         transform="matrix(0.33415051,0,0,0.33415051,-441.07813,-21)"
         clip-rule="evenodd"
         id="path19" />
    </clipPath>
    <clipPath
       clipPathUnits="userSpaceOnUse"
       id="clipPath21">
      <path
         d="M 0,0 H 2166.6665 V 640.42352 H 0 Z"
         transform="matrix(0.33415387,0,0,0.33415387,-0.5,-0.5)"
         clip-rule="evenodd"
         id="path21" />
    </clipPath>
    <clipPath
       clipPathUnits="userSpaceOnUse"
       id="clipPath23">
      <path
         d="M 0,0 H 2166.6665 V 640.42352 H 0 Z"
         transform="matrix(0.33415387,0,0,0.33415387,-0.5,-0.5)"
         clip-rule="evenodd"
         id="path23" />
    </clipPath>
    <clipPath
       clipPathUnits="userSpaceOnUse"
       id="clipPath24">
      <path
         d="M 0,0 H 2166.6665 V 640.42352 H 0 Z"
         transform="matrix(0.33415051,0,0,0.33415051,-413.21874,-71)"
         clip-rule="evenodd"
         id="path24" />
    </clipPath>
    <clipPath
       clipPathUnits="userSpaceOnUse"
       id="clipPath26">
      <path
         d="M 0,0 H 2166.6665 V 640.42352 H 0 Z"
         transform="matrix(0.33415387,0,0,0.33415387,-0.5,-0.5)"
         clip-rule="evenodd"
         id="path26" />
    </clipPath>
    <clipPath
       clipPathUnits="userSpaceOnUse"
       id="clipPath28">
      <path
         d="M 0,0 H 2166.6665 V 640.42352 H 0 Z"
         transform="matrix(0.33415387,0,0,0.33415387,-0.5,-0.5)"
         clip-rule="evenodd"
         id="path28" />
    </clipPath>
    <clipPath
       clipPathUnits="userSpaceOnUse"
       id="clipPath30">
      <path
         d="M 0,0 H 2166.6665 V 640.42352 H 0 Z"
         transform="matrix(0.33415387,0,0,0.33415387,-0.5,-0.5)"
         clip-rule="evenodd"
         id="path30" />
    </clipPath>
    <clipPath
       clipPathUnits="userSpaceOnUse"
       id="clipPath32">
      <path
         d="M 0,0 H 2166.6665 V 640.42352 H 0 Z"
         transform="matrix(0.33415387,0,0,0.33415387,-0.5,-0.5)"
         clip-rule="evenodd"
         id="path32" />
    </clipPath>
    <clipPath
       clipPathUnits="userSpaceOnUse"
       id="clipPath33">
      <path
         d="M 0,0 H 2166.6665 V 640.42352 H 0 Z"
         transform="matrix(0.33415051,0,0,0.33415051,-240.64063,-126)"
         clip-rule="evenodd"
         id="path33" />
    </clipPath>
    <clipPath
       clipPathUnits="userSpaceOnUse"
       id="clipPath34">
      <path
         d="M 0,0 H 2166.6665 V 640.42352 H 0 Z"
         transform="matrix(0.33415051,0,0,0.33415051,-251.28125,-139.99999)"
         clip-rule="evenodd"
         id="path34" />
    </clipPath>
    <clipPath
       clipPathUnits="userSpaceOnUse"
       id="clipPath35">
      <path
         d="M 0,0 H 2166.6665 V 640.42352 H 0 Z"
         transform="matrix(0.33415051,0,0,0.33415051,-237.40625,-155)"
         clip-rule="evenodd"
         id="path35" />
    </clipPath>
    <clipPath
       clipPathUnits="userSpaceOnUse"
       id="clipPath37">
      <path
         d="M 0,0 H 2166.6665 V 640.42352 H 0 Z"
         transform="matrix(0.33415387,0,0,0.33415387,-0.5,-0.5)"
         clip-rule="evenodd"
         id="path37" />
    </clipPath>
    <clipPath
       clipPathUnits="userSpaceOnUse"
       id="clipPath39">
      <path
         d="M 0,0 H 2166.6665 V 640.42352 H 0 Z"
         transform="matrix(0.33415387,0,0,0.33415387,-0.5,-0.5)"
         clip-rule="evenodd"
         id="path39" />
    </clipPath>
    <clipPath
       clipPathUnits="userSpaceOnUse"
       id="clipPath41">
      <path
         d="M 0,0 H 2166.6665 V 640.42352 H 0 Z"
         transform="matrix(0.33415387,0,0,0.33415387,-0.5,-0.5)"
         clip-rule="evenodd"
         id="path41" />
    </clipPath>
    <clipPath
       clipPathUnits="userSpaceOnUse"
       id="clipPath42">
      <path
         d="M 0,0 H 2166.6665 V 640.42352 H 0 Z"
         transform="matrix(0.33415051,0,0,0.33415051,-408.64063,-133)"
         clip-rule="evenodd"
         id="path42" />
    </clipPath>
    <clipPath
       clipPathUnits="userSpaceOnUse"
       id="clipPath43">
      <path
         d="M 0,0 H 2166.6665 V 640.42352 H 0 Z"
         transform="matrix(0.33415051,0,0,0.33415051,-411.29688,-148)"
         clip-rule="evenodd"
         id="path43" />
    </clipPath>
    <clipPath
       clipPathUnits="userSpaceOnUse"
       id="clipPath45">
      <path
         d="M 0,0 H 2166.6665 V 640.42352 H 0 Z"
         transform="matrix(0.33415387,0,0,0.33415387,-0.5,-0.5)"
         clip-rule="evenodd"
         id="path45" />
    </clipPath>
    <clipPath
       clipPathUnits="userSpaceOnUse"
       id="clipPath46">
      <path
         d="M 0,0 H 2166.6665 V 640.42352 H 0 Z"
         transform="matrix(0.33415051,0,0,0.33415051,-569.95313,-112)"
         clip-rule="evenodd"
         id="path46" />
    </clipPath>
    <clipPath
       clipPathUnits="userSpaceOnUse"
       id="clipPath47">
      <path
         d="M 0,0 H 2166.6665 V 640.42352 H 0 Z"
         transform="matrix(0.33415051,0,0,0.33415051,-585.3125,-126)"
         clip-rule="evenodd"
         id="path47" />
    </clipPath>
    <clipPath
       clipPathUnits="userSpaceOnUse"
       id="clipPath48">
      <path
         d="M 0,0 H 2166.6665 V 640.42352 H 0 Z"
         transform="matrix(0.33415051,0,0,0.33415051,-565.40625,-139.99999)"
         clip-rule="evenodd"
         id="path48" />
    </clipPath>
    <clipPath
       clipPathUnits="userSpaceOnUse"
       id="clipPath49">
      <path
         d="M 0,0 H 2166.6665 V 640.42352 H 0 Z"
         transform="matrix(0.33415051,0,0,0.33415051,-563.28125,-155)"
         clip-rule="evenodd"
         id="path49" />
    </clipPath>
    <clipPath
       clipPathUnits="userSpaceOnUse"
       id="clipPath50">
      <path
         d="M 0,0 H 2166.6665 V 640.42352 H 0 Z"
         transform="matrix(0.33415051,0,0,0.33415051,-605.98437,-169)"
         clip-rule="evenodd"
         id="path50" />
    </clipPath>
  </defs>
  <sodipodi:namedview
     id="namedview1"
     pagecolor="#ffffff"
     bordercolor="#000000"
     borderopacity="0.25"
     inkscape:showpageshadow="2"
     inkscape:pageopacity="0.0"
     inkscape:pagecheckerboard="0"
     inkscape:deskcolor="#d1d1d1">
    <inkscape:page
       x="0"
       y="0"
       inkscape:label="1"
       id="page1"
       width="693.44"
       height="206.71999"
       margin="0"
       bleed="0" />
  </sodipodi:namedview>
  <g
     id="g1"
     inkscape:groupmode="layer"
     inkscape:label="1">
    <path
       id="path1"
       d="M 0,0 H 724 V 215 H 0 Z"
       style="fill:#ffffff;fill-opacity:1;fill-rule:nonzero;stroke:none"
       transform="scale(0.95764262)"
       clip-path="url(#clipPath2)" />
    <path
       id="path3"
       d="m 1,81 h 180 v 60 H 1 Z"
       style="fill:#ffffff;fill-opacity:1;fill-rule:nonzero;stroke:#000000;stroke-width:1;stroke-linecap:butt;stroke-linejoin:miter;stroke-miterlimit:10;stroke-dasharray:none;stroke-opacity:1"
       transform="matrix(0.95764262,0,0,0.95764262,0.47882131,0.47882131)"
       clip-path="url(#clipPath4)" />
    <text
       id="text4"
       xml:space="preserve"
       transform="matrix(0.95765225,0,0,0.95765225,67.574337,103.42644)"
       clip-path="url(#clipPath5)"><tspan
         style="font-variant:normal;font-weight:normal;font-size:15px;font-family:Helvetica;writing-mode:lr-tb;fill:#000000;fill-opacity:1;fill-rule:nonzero;stroke:none"
         x="0 10.004883 21.672363 31.677246"
         y="0"
         sodipodi:role="line"
         id="tspan4">POST</tspan></text>
    <text
       id="text5"
       xml:space="preserve"
       transform="matrix(0.95765225,0,0,0.95765225,52.401534,120.66418)"
       clip-path="url(#clipPath6)"><tspan
         style="font-variant:normal;font-weight:normal;font-size:15px;font-family:Helvetica;writing-mode:lr-tb;fill:#000000;fill-opacity:1;fill-rule:nonzero;stroke:none"
         x="0 4.1674805 16.662598 25.004883 32.504883 40.004883 48.347168 56.689453 65.031738"
         y="0"
         sodipodi:role="line"
         id="tspan5">/messages</tspan></text>
    <path
       id="path7"
       d="M 1,51 H 181 V 81 H 1 Z"
       style="fill:#f5f5f5;fill-opacity:1;fill-rule:nonzero;stroke:#666666;stroke-width:1;stroke-linecap:butt;stroke-linejoin:miter;stroke-miterlimit:10;stroke-dasharray:none;stroke-opacity:1"
       transform="matrix(0.95764262,0,0,0.95764262,0.47882131,0.47882131)"
       clip-path="url(#clipPath8)" />
    <text
       id="text8"
       xml:space="preserve"
       transform="matrix(0.95765225,0,0,0.95765225,58.805833,68.950962)"
       clip-path="url(#clipPath9)"><tspan
         style="font-variant:normal;font-weight:700;font-size:15px;font-family:Helvetica;writing-mode:lr-tb;fill:#333333;fill-opacity:1;fill-rule:nonzero;stroke:none"
         x="0 10.83252 19.174805 28.337402 37.5 45.842285 54.18457"
         y="0"
         sodipodi:role="line"
         id="tspan8">Request</tspan></text>
    <path
       id="path10"
       d="m 181,166 h 23.63"
       style="fill:none;stroke:#000000;stroke-width:1;stroke-linecap:butt;stroke-linejoin:miter;stroke-miterlimit:10;stroke-dasharray:none;stroke-opacity:1"
       transform="matrix(0.95764262,0,0,0.95764262,0.47882131,0.47882131)"
       clip-path="url(#clipPath11)" />
    <path
       id="path12"
       d="m 209.88,166 -7,3.5 1.75,-3.5 -1.75,-3.5 z"
       style="fill:#000000;fill-opacity:1;fill-rule:nonzero;stroke:#000000;stroke-width:1;stroke-linecap:butt;stroke-linejoin:miter;stroke-miterlimit:10;stroke-dasharray:none;stroke-opacity:1"
       transform="matrix(0.95764262,0,0,0.95764262,0.47882131,0.47882131)"
       clip-path="url(#clipPath13)" />
    <path
       id="path14"
       d="m 1,141 h 180 v 50 H 1 Z"
       style="fill:#ffffff;fill-opacity:1;fill-rule:nonzero;stroke:#000000;stroke-width:1;stroke-linecap:butt;stroke-linejoin:miter;stroke-miterlimit:10;stroke-dasharray:none;stroke-opacity:1"
       transform="matrix(0.95764262,0,0,0.95764262,0.47882131,0.47882131)"
       clip-path="url(#clipPath15)" />
    <text
       id="text15"
       xml:space="preserve"
       transform="matrix(0.95765225,0,0,0.95765225,16.639208,164.71619)"
       clip-path="url(#clipPath16)"><tspan
         style="font-variant:normal;font-weight:normal;font-size:15px;font-family:Helvetica;writing-mode:lr-tb;fill:#000000;fill-opacity:1;fill-rule:nonzero;stroke:none"
         x="0 5.0097656 9.1772461 14.501953 22.001953 30.344238 38.686523 42.854004 51.196289 59.538574 63.706055 69.030762 73.198242 77.365723 82.69043 91.032715 94.365234 98.532715 102.7002 111.04248 119.38477 124.37988 132.72217 138.04688 142.21436"
         y="0"
         sodipodi:role="line"
         id="tspan15">{ &quot;content&quot;: &quot;hi there&quot; }</tspan></text>
    <path
       id="path17"
       d="M 211,1 H 721.01001 V 31 H 211 Z"
       style="fill:#dae8fc;fill-opacity:1;fill-rule:nonzero;stroke:#6c8ebf;stroke-width:1;stroke-linecap:butt;stroke-linejoin:miter;stroke-miterlimit:10;stroke-dasharray:none;stroke-opacity:1"
       transform="matrix(0.95764262,0,0,0.95764262,0.47882131,0.47882131)"
       clip-path="url(#clipPath18)" />
    <text
       id="text18"
       xml:space="preserve"
       transform="matrix(0.95765225,0,0,0.95765225,422.39946,20.110697)"
       clip-path="url(#clipPath19)"><tspan
         style="font-variant:normal;font-weight:700;font-size:16px;font-family:Helvetica;writing-mode:lr-tb;fill:#000000;fill-opacity:1;fill-rule:nonzero;stroke:none"
         x="0 10.671875 19.570312 25.796875 34.695312 43.59375"
         y="0"
         sodipodi:role="line"
         id="tspan18">Server</tspan></text>
    <path
       id="path20"
       d="M 211,31 H 721.01001 V 211 H 211 Z"
       style="fill:#dae8fc;fill-opacity:1;fill-rule:nonzero;stroke:#6c8ebf;stroke-width:1;stroke-linecap:butt;stroke-linejoin:miter;stroke-miterlimit:10;stroke-dasharray:none;stroke-opacity:1"
       transform="matrix(0.95764262,0,0,0.95764262,0.47882131,0.47882131)"
       clip-path="url(#clipPath21)" />
    <path
       id="path22"
       d="M 226,51 H 706 V 81 H 226 Z"
       style="fill:#f5f5f5;fill-opacity:1;fill-rule:nonzero;stroke:#666666;stroke-width:1;stroke-linecap:butt;stroke-linejoin:miter;stroke-miterlimit:10;stroke-dasharray:none;stroke-opacity:1"
       transform="matrix(0.95764262,0,0,0.95764262,0.47882131,0.47882131)"
       clip-path="url(#clipPath23)" />
    <text
       id="text23"
       xml:space="preserve"
       transform="matrix(0.95765225,0,0,0.95765225,395.71986,67.99331)"
       clip-path="url(#clipPath24)"><tspan
         style="font-variant:normal;font-weight:normal;font-size:16px;font-family:Helvetica;writing-mode:lr-tb;fill:#333333;fill-opacity:1;fill-rule:nonzero;stroke:none"
         x="0 9.4921875 18.390625 21.945312 25.5 34.398438 43.296875 47.742188 51.296875 60.195312 69.09375 73.539062 84.210938 87.765625 96.664062"
         y="0"
         sodipodi:role="line"
         id="tspan23">Validation Pipe</tspan></text>
    <path
       id="path25"
       d="M 226,81 H 706 V 191 H 226 Z"
       style="fill:#f5f5f5;fill-opacity:1;fill-rule:nonzero;stroke:#666666;stroke-width:1;stroke-linecap:butt;stroke-linejoin:miter;stroke-miterlimit:10;stroke-dasharray:none;stroke-opacity:1"
       transform="matrix(0.95764262,0,0,0.95764262,0.47882131,0.47882131)"
       clip-path="url(#clipPath26)" />
    <path
       id="path27"
       d="m 376,136.00999 h 13.64001"
       style="fill:none;stroke:#000000;stroke-width:1;stroke-linecap:butt;stroke-linejoin:miter;stroke-miterlimit:10;stroke-dasharray:none;stroke-opacity:1"
       transform="matrix(0.95764262,0,0,0.95764262,0.47882131,0.47882131)"
       clip-path="url(#clipPath28)" />
    <path
       id="path29"
       d="m 394.89001,136.00999 -7,3.5 1.75,-3.5 -1.75,-3.5 z"
       style="fill:#000000;fill-opacity:1;fill-rule:nonzero;stroke:#000000;stroke-width:1;stroke-linecap:butt;stroke-linejoin:miter;stroke-miterlimit:10;stroke-dasharray:none;stroke-opacity:1"
       transform="matrix(0.95764262,0,0,0.95764262,0.47882131,0.47882131)"
       clip-path="url(#clipPath30)" />
    <path
       id="path31"
       d="M 236,92.879997 H 376 V 179.13 H 236 Z"
       style="fill:#ffffff;fill-opacity:1;fill-rule:nonzero;stroke:#000000;stroke-width:1;stroke-linecap:butt;stroke-linejoin:miter;stroke-miterlimit:10;stroke-dasharray:none;stroke-opacity:1"
       transform="matrix(0.95764262,0,0,0.95764262,0.47882131,0.47882131)"
       clip-path="url(#clipPath32)" />
    <text
       id="text32"
       xml:space="preserve"
       transform="matrix(0.95765225,0,0,0.95765225,230.45004,120.66418)"
       clip-path="url(#clipPath33)"><tspan
         style="font-variant:normal;font-weight:normal;font-size:12px;font-family:Helvetica;writing-mode:lr-tb;fill:#000000;fill-opacity:1;fill-rule:nonzero;stroke:none"
         x="0 8.6660156 14.666016 21.339844 24.673828 30.673828 33.339844 40.013672 46.013672 52.013672 56.009766 59.34375 63.339844 70.013672 76.6875 82.6875 86.021484 92.695312 96.691406 106.6875 113.36133 117.35742 120.69141 124.02539"
         y="0"
         sodipodi:role="line"
         id="tspan32">Use class-transformer to</tspan></text>
    <text
       id="text33"
       xml:space="preserve"
       transform="matrix(0.95765225,0,0,0.95765225,240.64005,134.07131)"
       clip-path="url(#clipPath34)"><tspan
         style="font-variant:normal;font-weight:normal;font-size:12px;font-family:Helvetica;writing-mode:lr-tb;fill:#000000;fill-opacity:1;fill-rule:nonzero;stroke:none"
         x="0 3.3339844 10.007812 14.003906 20.677734 24.011719 27.345703 34.019531 40.693359 44.027344 50.701172 57.375 64.048828 70.048828 73.382812 76.048828 82.722656 86.056641 92.730469 96.064453 102.73828"
         y="0"
         sodipodi:role="line"
         id="tspan33">turn the body into an</tspan></text>
    <text
       id="text34"
       xml:space="preserve"
       transform="matrix(0.95765225,0,0,0.95765225,227.35263,148.4361)"
       clip-path="url(#clipPath35)"><tspan
         style="font-variant:normal;font-weight:normal;font-size:12px;font-family:Helvetica;writing-mode:lr-tb;fill:#000000;fill-opacity:1;fill-rule:nonzero;stroke:none"
         x="0 2.6660156 9.3398438 15.339844 18.673828 25.347656 32.021484 38.021484 44.695312 48.029297 54.703125 58.037109 61.371094 64.705078 71.378906 78.052734 81.386719 90.052734 97.171875 106.50586 109.83984 115.83984 118.50586 125.17969 131.17969"
         y="0"
         sodipodi:role="line"
         id="tspan34">instance of the DTO class</tspan></text>
    <path
       id="path36"
       d="M 536.01001,136.00999 549.63,136"
       style="fill:none;stroke:#000000;stroke-width:1;stroke-linecap:butt;stroke-linejoin:miter;stroke-miterlimit:10;stroke-dasharray:none;stroke-opacity:1"
       transform="matrix(0.95764262,0,0,0.95764262,0.47882131,0.47882131)"
       clip-path="url(#clipPath37)" />
    <path
       id="path38"
       d="m 554.88,136 -7,3.5 1.75,-3.5 -1.75,-3.5 z"
       style="fill:#000000;fill-opacity:1;fill-rule:nonzero;stroke:#000000;stroke-width:1;stroke-linecap:butt;stroke-linejoin:miter;stroke-miterlimit:10;stroke-dasharray:none;stroke-opacity:1"
       transform="matrix(0.95764262,0,0,0.95764262,0.47882131,0.47882131)"
       clip-path="url(#clipPath39)" />
    <path
       id="path40"
       d="M 396,92.879997 H 536 V 179.13 H 396 Z"
       style="fill:#ffffff;fill-opacity:1;fill-rule:nonzero;stroke:#000000;stroke-width:1;stroke-linecap:butt;stroke-linejoin:miter;stroke-miterlimit:10;stroke-dasharray:none;stroke-opacity:1"
       transform="matrix(0.95764262,0,0,0.95764262,0.47882131,0.47882131)"
       clip-path="url(#clipPath41)" />
    <text
       id="text41"
       xml:space="preserve"
       transform="matrix(0.95765225,0,0,0.95765225,391.33562,127.36775)"
       clip-path="url(#clipPath42)"><tspan
         style="font-variant:normal;font-weight:normal;font-size:12px;font-family:Helvetica;writing-mode:lr-tb;fill:#000000;fill-opacity:1;fill-rule:nonzero;stroke:none"
         x="0 8.6660156 14.666016 21.339844 24.673828 30.673828 33.339844 40.013672 46.013672 52.013672 56.009766 62.009766 68.683594 71.349609 74.015625 80.689453 87.363281 90.697266 97.371094 101.36719 104.70117 108.03516"
         y="0"
         sodipodi:role="line"
         id="tspan41">Use class-validator to</tspan></text>
    <text
       id="text42"
       xml:space="preserve"
       transform="matrix(0.95765225,0,0,0.95765225,393.87938,141.73253)"
       clip-path="url(#clipPath43)"><tspan
         style="font-variant:normal;font-weight:normal;font-size:12px;font-family:Helvetica;writing-mode:lr-tb;fill:#000000;fill-opacity:1;fill-rule:nonzero;stroke:none"
         x="0 6 12.673828 15.339844 18.005859 24.679688 31.353516 34.6875 41.361328 44.695312 48.029297 54.703125 61.376953 64.710938 67.376953 74.050781 80.050781 83.384766 90.058594 96.732422 102.73242"
         y="0"
         sodipodi:role="line"
         id="tspan42">validate the instance</tspan></text>
    <path
       id="path44"
       d="m 556.01001,92.879997 h 140 V 179.13 h -140 z"
       style="fill:#ffffff;fill-opacity:1;fill-rule:nonzero;stroke:#000000;stroke-width:1;stroke-linecap:butt;stroke-linejoin:miter;stroke-miterlimit:10;stroke-dasharray:none;stroke-opacity:1"
       transform="matrix(0.95764262,0,0,0.95764262,0.47882131,0.47882131)"
       clip-path="url(#clipPath45)" />
    <text
       id="text45"
       xml:space="preserve"
       transform="matrix(0.95765225,0,0,0.95765225,545.8169,107.25705)"
       clip-path="url(#clipPath46)"><tspan
         style="font-variant:normal;font-weight:normal;font-size:12px;font-family:Helvetica;writing-mode:lr-tb;fill:#000000;fill-opacity:1;fill-rule:nonzero;stroke:none"
         x="0 3.3339844 6.6679688 10.001953 13.335938 20.009766 26.683594 30.679688 37.353516 40.6875 47.361328 51.357422 58.03125 61.365234 67.365234 74.039062 76.705078 79.371094 86.044922 92.71875 96.052734 98.71875 105.39258"
         y="0"
         sodipodi:role="line"
         id="tspan45">If there are validation</tspan></text>
    <text
       id="text46"
       xml:space="preserve"
       transform="matrix(0.95765225,0,0,0.95765225,560.52583,120.66418)"
       clip-path="url(#clipPath47)"><tspan
         style="font-variant:normal;font-weight:normal;font-size:12px;font-family:Helvetica;writing-mode:lr-tb;fill:#000000;fill-opacity:1;fill-rule:nonzero;stroke:none"
         x="0 6.6738281 10.669922 14.666016 21.339844 25.335938 31.335938 34.669922 38.003906 42 48.673828 54.673828 61.347656 68.021484 74.695312"
         y="0"
         sodipodi:role="line"
         id="tspan46">errors, respond</tspan></text>
    <text
       id="text47"
       xml:space="preserve"
       transform="matrix(0.95765225,0,0,0.95765225,541.46257,134.07131)"
       clip-path="url(#clipPath48)"><tspan
         style="font-variant:normal;font-weight:normal;font-size:12px;font-family:Helvetica;writing-mode:lr-tb;fill:#000000;fill-opacity:1;fill-rule:nonzero;stroke:none"
         x="0 2.6660156 12.662109 22.658203 29.332031 36.005859 38.671875 45.345703 48.679688 55.353516 58.019531 63.134766 66.46875 69.802734 76.476562 79.810547 86.484375 93.158203 97.154297 105.82031 108.48633 114.48633"
         y="0"
         sodipodi:role="line"
         id="tspan47">immediately, otherwise</tspan></text>
    <text
       id="text48"
       xml:space="preserve"
       transform="matrix(0.95765225,0,0,0.95765225,539.42756,148.4361)"
       clip-path="url(#clipPath49)"><tspan
         style="font-variant:normal;font-weight:normal;font-size:12px;font-family:Helvetica;writing-mode:lr-tb;fill:#000000;fill-opacity:1;fill-rule:nonzero;stroke:none"
         x="0 6.6738281 10.669922 17.34375 23.34375 26.009766 32.683594 39.357422 42.691406 49.365234 56.039062 62.712891 68.712891 72.046875 75.380859 82.054688 85.388672 89.384766 96.058594 102.73242 109.40625 116.08008 122.08008"
         y="0"
         sodipodi:role="line"
         id="tspan48">provide body to request</tspan></text>
    <text
       id="text49"
       xml:space="preserve"
       transform="matrix(0.95765225,0,0,0.95765225,580.3223,161.84323)"
       clip-path="url(#clipPath50)"><tspan
         style="font-variant:normal;font-weight:normal;font-size:12px;font-family:Helvetica;writing-mode:lr-tb;fill:#000000;fill-opacity:1;fill-rule:nonzero;stroke:none"
         x="0 6.6738281 13.347656 20.021484 26.695312 29.361328 36.035156"
         y="0"
         sodipodi:role="line"
         id="tspan49">handler</tspan></text>
  </g>
</svg>
