<?xml version="1.0" encoding="UTF-8" standalone="no"?>
<!-- Created with Inkscape (http://www.inkscape.org/) -->

<svg
   version="1.1"
   id="svg1"
   width="432"
   height="146.56"
   viewBox="0 0 432 146.56"
   sodipodi:docname="nest-6.pdf"
   xmlns:inkscape="http://www.inkscape.org/namespaces/inkscape"
   xmlns:sodipodi="http://sodipodi.sourceforge.net/DTD/sodipodi-0.dtd"
   xmlns="http://www.w3.org/2000/svg"
   xmlns:svg="http://www.w3.org/2000/svg">
  <defs
     id="defs1">
    <clipPath
       clipPathUnits="userSpaceOnUse"
       id="clipPath2">
      <path
         d="M 0,0 H 1349.9999 V 457.98224 H 0 Z"
         transform="scale(0.3340741)"
         clip-rule="evenodd"
         id="path2" />
    </clipPath>
    <clipPath
       clipPathUnits="userSpaceOnUse"
       id="clipPath4">
      <path
         d="M 0,0 H 1349.9999 V 451.99554 H 0 Z"
         transform="matrix(0.3340741,0,0,0.3340741,-0.49999999,-0.49999999)"
         clip-rule="evenodd"
         id="path4" />
    </clipPath>
    <clipPath
       clipPathUnits="userSpaceOnUse"
       id="clipPath5">
      <path
         d="M 0,0 H 1349.9999 V 451.99554 H 0 Z"
         transform="matrix(0.33407075,0,0,0.33407075,-13.71875,-76.999999)"
         clip-rule="evenodd"
         id="path5" />
    </clipPath>
    <clipPath
       clipPathUnits="userSpaceOnUse"
       id="clipPath7">
      <path
         d="M 0,0 H 1349.9999 V 451.99554 H 0 Z"
         transform="matrix(0.3340741,0,0,0.3340741,-0.49999999,-0.49999999)"
         clip-rule="evenodd"
         id="path7" />
    </clipPath>
    <clipPath
       clipPathUnits="userSpaceOnUse"
       id="clipPath8">
      <path
         d="M 0,0 H 1349.9999 V 451.99554 H 0 Z"
         transform="matrix(0.33407075,0,0,0.33407075,-156.01563,-76.999999)"
         clip-rule="evenodd"
         id="path8" />
    </clipPath>
    <clipPath
       clipPathUnits="userSpaceOnUse"
       id="clipPath10">
      <path
         d="M 0,0 H 1349.9999 V 451.99554 H 0 Z"
         transform="matrix(0.3340741,0,0,0.3340741,-0.49999999,-0.49999999)"
         clip-rule="evenodd"
         id="path10" />
    </clipPath>
    <clipPath
       clipPathUnits="userSpaceOnUse"
       id="clipPath11">
      <path
         d="M 0,0 H 1349.9999 V 451.99554 H 0 Z"
         transform="matrix(0.33407075,0,0,0.33407075,-231.3125,-76.999999)"
         clip-rule="evenodd"
         id="path11" />
    </clipPath>
    <clipPath
       clipPathUnits="userSpaceOnUse"
       id="clipPath13">
      <path
         d="M 0,0 H 1349.9999 V 451.99554 H 0 Z"
         transform="matrix(0.3340741,0,0,0.3340741,-0.49999999,-0.49999999)"
         clip-rule="evenodd"
         id="path13" />
    </clipPath>
    <clipPath
       clipPathUnits="userSpaceOnUse"
       id="clipPath14">
      <path
         d="M 0,0 H 1349.9999 V 451.99554 H 0 Z"
         transform="matrix(0.33407075,0,0,0.33407075,-391.90625,-76.999999)"
         clip-rule="evenodd"
         id="path14" />
    </clipPath>
    <clipPath
       clipPathUnits="userSpaceOnUse"
       id="clipPath16">
      <path
         d="M 0,0 H 1349.9999 V 451.99554 H 0 Z"
         transform="matrix(0,0.3340741,-0.3340741,0,358.24998,-169.75)"
         clip-rule="evenodd"
         id="path16" />
    </clipPath>
    <clipPath
       clipPathUnits="userSpaceOnUse"
       id="clipPath18">
      <path
         d="M 0,0 H 1349.9999 V 451.99554 H 0 Z"
         transform="matrix(0,-0.3340741,0.3340741,0,148.49999,223.5)"
         clip-rule="evenodd"
         id="path18" />
    </clipPath>
    <clipPath
       clipPathUnits="userSpaceOnUse"
       id="clipPath20">
      <path
         d="M 0,0 H 1349.9999 V 451.99554 H 0 Z"
         transform="matrix(0,-0.3340741,0.3340741,0,279.25,375.24999)"
         clip-rule="evenodd"
         id="path20" />
    </clipPath>
    <clipPath
       clipPathUnits="userSpaceOnUse"
       id="clipPath22">
      <path
         d="M 0,0 H 1349.9999 V 451.99554 H 0 Z"
         transform="matrix(0,0.3340741,-0.3340741,0,513.49998,-299.5)"
         clip-rule="evenodd"
         id="path22" />
    </clipPath>
    <clipPath
       clipPathUnits="userSpaceOnUse"
       id="clipPath23">
      <path
         d="M 0,0 H 1349.9999 V 451.99554 H 0 Z"
         transform="matrix(0.33407075,0,0,0.33407075,-151.74999,-11)"
         clip-rule="evenodd"
         id="path23" />
    </clipPath>
    <clipPath
       clipPathUnits="userSpaceOnUse"
       id="clipPath24">
      <path
         d="M 0,0 H 1349.9999 V 451.99554 H 0 Z"
         transform="matrix(0.33407075,0,0,0.33407075,-166.75,-23)"
         clip-rule="evenodd"
         id="path24" />
    </clipPath>
    <clipPath
       clipPathUnits="userSpaceOnUse"
       id="clipPath25">
      <path
         d="M 0,0 H 1349.9999 V 451.99554 H 0 Z"
         transform="matrix(0.33407075,0,0,0.33407075,-229.57813,-117.99999)"
         clip-rule="evenodd"
         id="path25" />
    </clipPath>
    <clipPath
       clipPathUnits="userSpaceOnUse"
       id="clipPath26">
      <path
         d="M 0,0 H 1349.9999 V 451.99554 H 0 Z"
         transform="matrix(0.33407075,0,0,0.33407075,-232.35938,-130)"
         clip-rule="evenodd"
         id="path26" />
    </clipPath>
    <clipPath
       clipPathUnits="userSpaceOnUse"
       id="clipPath27">
      <path
         d="M 0,0 H 1349.9999 V 451.99554 H 0 Z"
         transform="matrix(0.33407075,0,0,0.33407075,-250.98438,-142)"
         clip-rule="evenodd"
         id="path27" />
    </clipPath>
    <clipPath
       clipPathUnits="userSpaceOnUse"
       id="clipPath28">
      <path
         d="M 0,0 H 1349.9999 V 451.99554 H 0 Z"
         transform="matrix(0.33407075,0,0,0.33407075,-297.76563,-11)"
         clip-rule="evenodd"
         id="path28" />
    </clipPath>
    <clipPath
       clipPathUnits="userSpaceOnUse"
       id="clipPath29">
      <path
         d="M 0,0 H 1349.9999 V 451.99554 H 0 Z"
         transform="matrix(0.33407075,0,0,0.33407075,-302.79687,-23)"
         clip-rule="evenodd"
         id="path29" />
    </clipPath>
    <clipPath
       clipPathUnits="userSpaceOnUse"
       id="clipPath30">
      <path
         d="M 0,0 H 1349.9999 V 451.99554 H 0 Z"
         transform="matrix(0.33407075,0,0,0.33407075,-372.73438,-124)"
         clip-rule="evenodd"
         id="path30" />
    </clipPath>
    <clipPath
       clipPathUnits="userSpaceOnUse"
       id="clipPath31">
      <path
         d="M 0,0 H 1349.9999 V 451.99554 H 0 Z"
         transform="matrix(0.33407075,0,0,0.33407075,-367.03125,-136)"
         clip-rule="evenodd"
         id="path31" />
    </clipPath>
    <clipPath
       clipPathUnits="userSpaceOnUse"
       id="clipPath32">
      <path
         d="M 0,0 H 1349.9999 V 451.99554 H 0 Z"
         transform="matrix(0.33407075,0,0,0.33407075,-381.51563,-148)"
         clip-rule="evenodd"
         id="path32" />
    </clipPath>
  </defs>
  <sodipodi:namedview
     id="namedview1"
     pagecolor="#ffffff"
     bordercolor="#000000"
     borderopacity="0.25"
     inkscape:showpageshadow="2"
     inkscape:pageopacity="0.0"
     inkscape:pagecheckerboard="0"
     inkscape:deskcolor="#d1d1d1">
    <inkscape:page
       x="0"
       y="0"
       inkscape:label="1"
       id="page1"
       width="432"
       height="146.56"
       margin="0"
       bleed="0" />
  </sodipodi:namedview>
  <g
     id="g1"
     inkscape:groupmode="layer"
     inkscape:label="1">
    <path
       id="path1"
       d="M 0,0 H 451 V 153 H 0 Z"
       style="fill:#ffffff;fill-opacity:1;fill-rule:nonzero;stroke:none"
       transform="scale(0.95787129)"
       clip-path="url(#clipPath2)" />
    <path
       id="path3"
       d="M 1,52 H 111 V 92 H 1 Z"
       style="fill:#dae8fc;fill-opacity:1;fill-rule:nonzero;stroke:#6c8ebf;stroke-width:1;stroke-linecap:butt;stroke-linejoin:miter;stroke-miterlimit:10;stroke-dasharray:none;stroke-opacity:1"
       transform="matrix(0.95787129,0,0,0.95787129,0.47893564,0.47893564)"
       clip-path="url(#clipPath4)" />
    <text
       id="text4"
       xml:space="preserve"
       transform="matrix(0.95788089,0,0,0.95788089,13.140928,73.756828)"
       clip-path="url(#clipPath5)"><tspan
         style="font-variant:normal;font-weight:700;font-size:13px;font-family:Helvetica;writing-mode:lr-tb;fill:#000000;fill-opacity:1;fill-rule:nonzero;stroke:none"
         x="0 7.940918 15.170898 22.400879 26.72998 30.341797 38.282715 45.512695 53.453613 60.683594 65.742676 72.972656 77.301758"
         y="0"
         sodipodi:role="line"
         id="tspan4">nest generate</tspan></text>
    <path
       id="path6"
       d="m 151,52 h 70 v 40 h -70 z"
       style="fill:#dae8fc;fill-opacity:1;fill-rule:nonzero;stroke:#6c8ebf;stroke-width:1;stroke-linecap:butt;stroke-linejoin:miter;stroke-miterlimit:10;stroke-dasharray:none;stroke-opacity:1"
       transform="matrix(0.95787129,0,0,0.95787129,0.47893564,0.47893564)"
       clip-path="url(#clipPath7)" />
    <text
       id="text7"
       xml:space="preserve"
       transform="matrix(0.95788089,0,0,0.95788089,149.44439,73.756828)"
       clip-path="url(#clipPath8)"><tspan
         style="font-variant:normal;font-weight:700;font-size:13px;font-family:Helvetica;writing-mode:lr-tb;fill:#000000;fill-opacity:1;fill-rule:nonzero;stroke:none"
         x="0 7.2299805 15.170898 23.111816 27.440918 32.5 40.440918 44.052734 47.664551 54.894531"
         y="0"
         sodipodi:role="line"
         id="tspan7">controller</tspan></text>
    <path
       id="path9"
       d="M 221,52 H 371 V 92 H 221 Z"
       style="fill:#dae8fc;fill-opacity:1;fill-rule:nonzero;stroke:#6c8ebf;stroke-width:1;stroke-linecap:butt;stroke-linejoin:miter;stroke-miterlimit:10;stroke-dasharray:none;stroke-opacity:1"
       transform="matrix(0.95787129,0,0,0.95787129,0.47893564,0.47893564)"
       clip-path="url(#clipPath10)" />
    <text
       id="text10"
       xml:space="preserve"
       transform="matrix(0.95788089,0,0,0.95788089,221.56982,73.756828)"
       clip-path="url(#clipPath11)"><tspan
         style="font-variant:normal;font-weight:700;font-size:13px;font-family:Helvetica;writing-mode:lr-tb;fill:#000000;fill-opacity:1;fill-rule:nonzero;stroke:none"
         x="0 11.559082 18.789062 26.019043 33.249023 40.479004 48.419922 55.649902 62.879883 66.491699 78.050781 85.280762 92.510742 99.740723 106.9707 114.91162 122.1416"
         y="0"
         sodipodi:role="line"
         id="tspan10">messages/messages</tspan></text>
    <path
       id="path12"
       d="m 371,52 h 70 v 40 h -70 z"
       style="fill:#dae8fc;fill-opacity:1;fill-rule:nonzero;stroke:#6c8ebf;stroke-width:1;stroke-linecap:butt;stroke-linejoin:miter;stroke-miterlimit:10;stroke-dasharray:none;stroke-opacity:1"
       transform="matrix(0.95787129,0,0,0.95787129,0.47893564,0.47893564)"
       clip-path="url(#clipPath13)" />
    <g
       id="g13" />
    <text
       id="text13"
       xml:space="preserve"
       transform="matrix(0.95788089,0,0,0.95788089,375.39951,73.756828)"
       clip-path="url(#clipPath14)"><tspan
         style="font-variant:normal;font-weight:700;font-size:13px;font-family:Helvetica;writing-mode:lr-tb;fill:#000000;fill-opacity:1;fill-rule:nonzero;stroke:none"
         x="0 4.3291016 8.6582031 16.599121 23.829102"
         y="0"
         sodipodi:role="line"
         id="tspan13">--ﬂat</tspan></text>
    <path
       id="path15"
       d="m 279.75,64.75 h -8.12 c -5.42001,0 -8.13,3.333336 -8.13,10 v 9.75 c 0,6.5 -2.70667,9.75 -8.12,9.75 h -4.05999 c -2.71334,0 -1.36,0 4.05999,0 h 4.06 c 2.70667,0 4.06,3.333336 4.06,10 V 114 c 0,6.5 2.70999,9.75 8.13,9.75 h 8.12"
       style="fill:none;stroke:#000000;stroke-width:1;stroke-linecap:butt;stroke-linejoin:miter;stroke-miterlimit:10;stroke-dasharray:none;stroke-opacity:1"
       transform="matrix(0,-0.95787129,0.95787129,0,162.59865,343.15737)"
       clip-path="url(#clipPath16)" />
    <path
       id="path17"
       d="m 196,2 h -5 c -3.33333,0 -5,3.333333 -5,10 v 15 c 0,6.666668 -1.66667,10 -5,10 h -2.5 c -1.66667,0 -0.83333,0 2.5,0 h 2.5 c 1.66667,0 2.5,3.333332 2.5,10 v 15 c 0,6.666664 1.66667,10 5,10 h 5"
       style="fill:none;stroke:#000000;stroke-width:1;stroke-linecap:butt;stroke-linejoin:miter;stroke-miterlimit:10;stroke-dasharray:none;stroke-opacity:1"
       transform="matrix(0,0.95787129,-0.95787129,0,214.08423,-142.24388)"
       clip-path="url(#clipPath18)" />
    <path
       id="path19"
       d="m 343.5,18 h -8.12 c -5.42001,0 -8.13,3.333332 -8.13,10 v 9.75 c 0,6.5 -2.70667,9.75 -8.12,9.75 h -4.05999 c -2.71335,0 -1.36002,0 4.05999,0 h 4.06 c 2.70667,0 4.06,3.333332 4.06,10 v 9.75 c 0,6.5 2.70999,9.75 8.13,9.75 h 8.12"
       style="fill:none;stroke:#000000;stroke-width:1;stroke-linecap:butt;stroke-linejoin:miter;stroke-miterlimit:10;stroke-dasharray:none;stroke-opacity:1"
       transform="matrix(0,0.95787129,-0.95787129,0,359.44119,-267.48556)"
       clip-path="url(#clipPath20)" />
    <path
       id="path21"
       d="m 416,72 h -5 c -3.33334,0 -5,3.333336 -5,10 v 15 c 0,6.66666 -1.66666,10 -5,10 h -2.5 c -1.66666,0 -0.83334,0 2.5,0 h 2.5 c 1.66666,0 2.5,3.33334 2.5,10 v 15 c 0,6.66667 1.66666,10 5,10 h 5"
       style="fill:none;stroke:#000000;stroke-width:1;stroke-linecap:butt;stroke-linejoin:miter;stroke-miterlimit:10;stroke-dasharray:none;stroke-opacity:1"
       transform="matrix(0,-0.95787129,0.95787129,0,286.88245,491.86689)"
       clip-path="url(#clipPath22)" />
    <text
       id="text22"
       xml:space="preserve"
       transform="matrix(0.95788089,0,0,0.95788089,145.35842,10.53669)"
       clip-path="url(#clipPath23)"><tspan
         style="font-style:oblique;font-variant:normal;font-weight:normal;font-size:10px;font-family:Helvetica;writing-mode:lr-tb;fill:#000000;fill-opacity:1;fill-rule:nonzero;stroke:none"
         x="0 5.5615234 10.561523 16.123047 21.68457 24.462891 30.024414 32.802734 35.581055 40.581055 42.802734 48.364258 53.364258 58.364258 61.142578 63.920898"
         y="0"
         sodipodi:role="line"
         id="tspan22">Type of class to</tspan></text>
    <text
       id="text23"
       xml:space="preserve"
       transform="matrix(0.95788089,0,0,0.95788089,159.72664,22.03126)"
       clip-path="url(#clipPath24)"><tspan
         style="font-style:oblique;font-variant:normal;font-weight:normal;font-size:10px;font-family:Helvetica;writing-mode:lr-tb;fill:#000000;fill-opacity:1;fill-rule:nonzero;stroke:none"
         x="0 5.5615234 11.123047 16.68457 22.246094 25.576172 31.137695 33.916016"
         y="0"
         sodipodi:role="line"
         id="tspan23">generate</tspan></text>
    <g
       id="g24" />
    <text
       id="text24"
       xml:space="preserve"
       transform="matrix(0.95788089,0,0,0.95788089,219.9085,113.02994)"
       clip-path="url(#clipPath25)"><tspan
         style="font-style:oblique;font-variant:normal;font-weight:normal;font-size:10px;font-family:Helvetica;writing-mode:lr-tb;fill:#000000;fill-opacity:1;fill-rule:nonzero;stroke:none"
         x="0 6.6699219 8.8916016 14.453125 19.453125 25.014648 27.792969 30.571289 36.132812 41.694336 44.472656 49.472656 51.694336 57.255859 60.03418 62.255859"
         y="0"
         sodipodi:role="line"
         id="tspan24">Place the ﬁle in</tspan></text>
    <text
       id="text25"
       xml:space="preserve"
       transform="matrix(0.95788089,0,0,0.95788089,222.57261,124.52452)"
       clip-path="url(#clipPath26)"><tspan
         style="font-style:oblique;font-variant:normal;font-weight:normal;font-size:10px;font-family:Helvetica;writing-mode:lr-tb;fill:#000000;fill-opacity:1;fill-rule:nonzero;stroke:none"
         x="0 2.7783203 8.3398438 13.901367 16.679688 25.009766 30.571289 35.571289 40.571289 46.132812 51.694336 57.255859"
         y="0"
         sodipodi:role="line"
         id="tspan25">the messages</tspan></text>
    <text
       id="text26"
       xml:space="preserve"
       transform="matrix(0.95788089,0,0,0.95788089,240.41314,136.01909)"
       clip-path="url(#clipPath27)"><tspan
         style="font-style:oblique;font-variant:normal;font-weight:normal;font-size:10px;font-family:Helvetica;writing-mode:lr-tb;fill:#000000;fill-opacity:1;fill-rule:nonzero;stroke:none"
         x="0 2.7783203 8.3398438 10.561523 16.123047 21.68457"
         y="0"
         sodipodi:role="line"
         id="tspan26">folder</tspan></text>
    <text
       id="text27"
       xml:space="preserve"
       transform="matrix(0.95788089,0,0,0.95788089,285.22401,10.53669)"
       clip-path="url(#clipPath28)"><tspan
         style="font-style:oblique;font-variant:normal;font-weight:normal;font-size:10px;font-family:Helvetica;writing-mode:lr-tb;fill:#000000;fill-opacity:1;fill-rule:nonzero;stroke:none"
         x="0 7.2216797 12.783203 15.004883 17.226562 20.004883 22.783203 28.344727 33.90625 36.68457 41.68457 43.90625 49.467773 54.467773"
         y="0"
         sodipodi:role="line"
         id="tspan27">Call the class</tspan></text>
    <text
       id="text28"
       xml:space="preserve"
       transform="matrix(0.95788089,0,0,0.95788089,290.04334,22.03126)"
       clip-path="url(#clipPath29)"><tspan
         style="font-style:oblique;font-variant:normal;font-weight:normal;font-size:10px;font-family:Helvetica;writing-mode:lr-tb;fill:#000000;fill-opacity:1;fill-rule:nonzero;stroke:none"
         x="0 1.9091797 10.239258 15.800781 20.800781 25.800781 31.362305 36.923828 42.485352 47.485352"
         y="0"
         sodipodi:role="line"
         id="tspan28">'messages'</tspan></text>
    <text
       id="text29"
       xml:space="preserve"
       transform="matrix(0.95788089,0,0,0.95788089,357.03514,118.77723)"
       clip-path="url(#clipPath30)"><tspan
         style="font-style:oblique;font-variant:normal;font-weight:normal;font-size:10px;font-family:Helvetica;writing-mode:lr-tb;fill:#000000;fill-opacity:1;fill-rule:nonzero;stroke:none"
         x="0 7.2216797 12.783203 18.344727 20.253906 23.032227 25.810547 30.810547 34.140625 39.702148 45.263672 48.041992 53.603516 56.381836 61.943359"
         y="0"
         sodipodi:role="line"
         id="tspan29">Don't create an</tspan></text>
    <text
       id="text30"
       xml:space="preserve"
       transform="matrix(0.95788089,0,0,0.95788089,351.57222,130.2718)"
       clip-path="url(#clipPath31)"><tspan
         style="font-style:oblique;font-variant:normal;font-weight:normal;font-size:10px;font-family:Helvetica;writing-mode:lr-tb;fill:#000000;fill-opacity:1;fill-rule:nonzero;stroke:none"
         x="0 5.5615234 10.561523 13.339844 16.669922 22.231445 25.009766 27.788086 33.349609 35.571289 41.132812 46.694336 50.024414 52.802734 57.802734 63.364258 65.585938 67.807617 73.369141"
         y="0"
         sodipodi:role="line"
         id="tspan30">extra folder called</tspan></text>
    <text
       id="text31"
       xml:space="preserve"
       transform="matrix(0.95788089,0,0,0.95788089,365.44653,141.76637)"
       clip-path="url(#clipPath32)"><tspan
         style="font-style:oblique;font-variant:normal;font-weight:normal;font-size:10px;font-family:Helvetica;writing-mode:lr-tb;fill:#000000;fill-opacity:1;fill-rule:nonzero;stroke:none"
         x="0 1.9091797 6.9091797 12.470703 18.032227 20.810547 24.140625 29.702148 31.923828 34.145508 39.707031 43.037109 48.037109"
         y="0"
         sodipodi:role="line"
         id="tspan31">'controllers'</tspan></text>
  </g>
</svg>
