<?xml version="1.0" encoding="UTF-8" standalone="no"?>
<!-- Created with Inkscape (http://www.inkscape.org/) -->

<svg
   version="1.1"
   id="svg1"
   width="462.71997"
   height="181.44"
   viewBox="0 0 462.71997 181.44"
   sodipodi:docname="nest-14.pdf"
   xmlns:inkscape="http://www.inkscape.org/namespaces/inkscape"
   xmlns:sodipodi="http://sodipodi.sourceforge.net/DTD/sodipodi-0.dtd"
   xmlns="http://www.w3.org/2000/svg"
   xmlns:svg="http://www.w3.org/2000/svg">
  <defs
     id="defs1">
    <clipPath
       clipPathUnits="userSpaceOnUse"
       id="clipPath2">
      <path
         d="M 0,0 H 1445.8333 V 564.59192 H 0 Z"
         transform="scale(0.33475507)"
         clip-rule="evenodd"
         id="path2" />
    </clipPath>
    <clipPath
       clipPathUnits="userSpaceOnUse"
       id="clipPath4">
      <path
         d="M 0,0 H 1445.8333 V 561.60461 H 0 Z"
         transform="matrix(0.33475507,0,0,0.33475507,-0.5,-0.5)"
         clip-rule="evenodd"
         id="path4" />
    </clipPath>
    <clipPath
       clipPathUnits="userSpaceOnUse"
       id="clipPath5">
      <path
         d="M 0,0 H 1445.8333 V 561.60461 H 0 Z"
         transform="matrix(0.33475173,0,0,0.33475173,-70.562501,-58)"
         clip-rule="evenodd"
         id="path5" />
    </clipPath>
    <clipPath
       clipPathUnits="userSpaceOnUse"
       id="clipPath6">
      <path
         d="M 0,0 H 1445.8333 V 561.60461 H 0 Z"
         transform="matrix(0.33475173,0,0,0.33475173,-54.71875,-76)"
         clip-rule="evenodd"
         id="path6" />
    </clipPath>
    <clipPath
       clipPathUnits="userSpaceOnUse"
       id="clipPath8">
      <path
         d="M 0,0 H 1445.8333 V 561.60461 H 0 Z"
         transform="matrix(0.33475507,0,0,0.33475507,-0.5,-0.5)"
         clip-rule="evenodd"
         id="path8" />
    </clipPath>
    <clipPath
       clipPathUnits="userSpaceOnUse"
       id="clipPath9">
      <path
         d="M 0,0 H 1445.8333 V 561.60461 H 0 Z"
         transform="matrix(0.33475173,0,0,0.33475173,-61.40625,-22)"
         clip-rule="evenodd"
         id="path9" />
    </clipPath>
    <clipPath
       clipPathUnits="userSpaceOnUse"
       id="clipPath11">
      <path
         d="M 0,0 H 1445.8333 V 561.60461 H 0 Z"
         transform="matrix(0.33475507,0,0,0.33475507,-0.5,-0.5)"
         clip-rule="evenodd"
         id="path11" />
    </clipPath>
    <clipPath
       clipPathUnits="userSpaceOnUse"
       id="clipPath13">
      <path
         d="M 0,0 H 1445.8333 V 561.60461 H 0 Z"
         transform="matrix(0.33475507,0,0,0.33475507,-0.5,-0.5)"
         clip-rule="evenodd"
         id="path13" />
    </clipPath>
    <clipPath
       clipPathUnits="userSpaceOnUse"
       id="clipPath15">
      <path
         d="M 0,0 H 1445.8333 V 561.60461 H 0 Z"
         transform="matrix(0.33475507,0,0,0.33475507,-0.5,-0.5)"
         clip-rule="evenodd"
         id="path15" />
    </clipPath>
    <clipPath
       clipPathUnits="userSpaceOnUse"
       id="clipPath16">
      <path
         d="M 0,0 H 1445.8333 V 561.60461 H 0 Z"
         transform="matrix(0.33475173,0,0,0.33475173,-17.375,-122)"
         clip-rule="evenodd"
         id="path16" />
    </clipPath>
    <clipPath
       clipPathUnits="userSpaceOnUse"
       id="clipPath18">
      <path
         d="M 0,0 H 1445.8333 V 561.60461 H 0 Z"
         transform="matrix(0.33475507,0,0,0.33475507,-0.5,-0.5)"
         clip-rule="evenodd"
         id="path18" />
    </clipPath>
    <clipPath
       clipPathUnits="userSpaceOnUse"
       id="clipPath19">
      <path
         d="M 0,0 H 1445.8333 V 561.60461 H 0 Z"
         transform="matrix(0.33475173,0,0,0.33475173,-400.64063,-112)"
         clip-rule="evenodd"
         id="path19" />
    </clipPath>
    <clipPath
       clipPathUnits="userSpaceOnUse"
       id="clipPath20">
      <path
         d="M 0,0 H 1445.8333 V 561.60461 H 0 Z"
         transform="matrix(0.33475173,0,0,0.33475173,-392.71875,-135)"
         clip-rule="evenodd"
         id="path20" />
    </clipPath>
    <clipPath
       clipPathUnits="userSpaceOnUse"
       id="clipPath22">
      <path
         d="M 0,0 H 1445.8333 V 561.60461 H 0 Z"
         transform="matrix(0.33475507,0,0,0.33475507,-0.5,-0.5)"
         clip-rule="evenodd"
         id="path22" />
    </clipPath>
    <clipPath
       clipPathUnits="userSpaceOnUse"
       id="clipPath24">
      <path
         d="M 0,0 H 1445.8333 V 561.60461 H 0 Z"
         transform="matrix(0.33475507,0,0,0.33475507,-0.5,-0.5)"
         clip-rule="evenodd"
         id="path24" />
    </clipPath>
    <clipPath
       clipPathUnits="userSpaceOnUse"
       id="clipPath26">
      <path
         d="M 0,0 H 1445.8333 V 561.60461 H 0 Z"
         transform="matrix(0.33475507,0,0,0.33475507,-0.5,-0.5)"
         clip-rule="evenodd"
         id="path26" />
    </clipPath>
    <clipPath
       clipPathUnits="userSpaceOnUse"
       id="clipPath27">
      <path
         d="M 0,0 H 1445.8333 V 561.60461 H 0 Z"
         transform="matrix(0.33475173,0,0,0.33475173,-216.4375,-112)"
         clip-rule="evenodd"
         id="path27" />
    </clipPath>
    <clipPath
       clipPathUnits="userSpaceOnUse"
       id="clipPath28">
      <path
         d="M 0,0 H 1445.8333 V 561.60461 H 0 Z"
         transform="matrix(0.33475173,0,0,0.33475173,-246.53125,-135)"
         clip-rule="evenodd"
         id="path28" />
    </clipPath>
    <clipPath
       clipPathUnits="userSpaceOnUse"
       id="clipPath29">
      <path
         d="M 0,0 H 1445.8333 V 561.60461 H 0 Z"
         transform="matrix(0.33475173,0,0,0.33475173,-241.09375,-163)"
         clip-rule="evenodd"
         id="path29" />
    </clipPath>
    <clipPath
       clipPathUnits="userSpaceOnUse"
       id="clipPath30">
      <path
         d="M 0,0 H 1445.8333 V 561.60461 H 0 Z"
         transform="matrix(0.33475173,0,0,0.33475173,-219.40625,-179)"
         clip-rule="evenodd"
         id="path30" />
    </clipPath>
  </defs>
  <sodipodi:namedview
     id="namedview1"
     pagecolor="#ffffff"
     bordercolor="#000000"
     borderopacity="0.25"
     inkscape:showpageshadow="2"
     inkscape:pageopacity="0.0"
     inkscape:pagecheckerboard="0"
     inkscape:deskcolor="#d1d1d1">
    <inkscape:page
       x="0"
       y="0"
       inkscape:label="1"
       id="page1"
       width="462.71997"
       height="181.44"
       margin="0"
       bleed="0" />
  </sodipodi:namedview>
  <g
     id="g1"
     inkscape:groupmode="layer"
     inkscape:label="1">
    <path
       id="path1"
       d="M 0,0 H 484 V 189 H 0 Z"
       style="fill:#ffffff;fill-opacity:1;fill-rule:nonzero;stroke:none"
       transform="scale(0.95592274)"
       clip-path="url(#clipPath2)" />
    <path
       id="path3"
       d="M 1,31 H 181 V 91 H 1 Z"
       style="fill:#ffffff;fill-opacity:1;fill-rule:nonzero;stroke:#000000;stroke-width:1;stroke-linecap:butt;stroke-linejoin:miter;stroke-miterlimit:10;stroke-dasharray:none;stroke-opacity:1"
       transform="matrix(0.95592274,0,0,0.95592274,0.47796137,0.47796137)"
       clip-path="url(#clipPath4)" />
    <text
       id="text4"
       xml:space="preserve"
       transform="matrix(0.95593228,0,0,0.95593228,67.452972,55.444072)"
       clip-path="url(#clipPath5)"><tspan
         style="font-variant:normal;font-weight:normal;font-size:15px;font-family:Helvetica;writing-mode:lr-tb;fill:#000000;fill-opacity:1;fill-rule:nonzero;stroke:none"
         x="0 10.004883 21.672363 31.677246"
         y="0"
         sodipodi:role="line"
         id="tspan4">POST</tspan></text>
    <text
       id="text5"
       xml:space="preserve"
       transform="matrix(0.95593228,0,0,0.95593228,52.307419,72.650853)"
       clip-path="url(#clipPath6)"><tspan
         style="font-variant:normal;font-weight:normal;font-size:15px;font-family:Helvetica;writing-mode:lr-tb;fill:#000000;fill-opacity:1;fill-rule:nonzero;stroke:none"
         x="0 4.1674805 16.662598 25.004883 32.504883 40.004883 48.347168 56.689453 65.031738"
         y="0"
         sodipodi:role="line"
         id="tspan5">/messages</tspan></text>
    <path
       id="path7"
       d="M 1,1 H 181 V 31 H 1 Z"
       style="fill:#f5f5f5;fill-opacity:1;fill-rule:nonzero;stroke:#666666;stroke-width:1;stroke-linecap:butt;stroke-linejoin:miter;stroke-miterlimit:10;stroke-dasharray:none;stroke-opacity:1"
       transform="matrix(0.95592274,0,0,0.95592274,0.47796137,0.47796137)"
       clip-path="url(#clipPath8)" />
    <text
       id="text8"
       xml:space="preserve"
       transform="matrix(0.95593228,0,0,0.95593228,58.700217,21.03051)"
       clip-path="url(#clipPath9)"><tspan
         style="font-variant:normal;font-weight:700;font-size:15px;font-family:Helvetica;writing-mode:lr-tb;fill:#333333;fill-opacity:1;fill-rule:nonzero;stroke:none"
         x="0 10.83252 19.174805 28.337402 37.5 45.842285 54.18457"
         y="0"
         sodipodi:role="line"
         id="tspan8">Request</tspan></text>
    <path
       id="path10"
       d="m 181,116 h 23.63"
       style="fill:none;stroke:#000000;stroke-width:1;stroke-linecap:butt;stroke-linejoin:miter;stroke-miterlimit:10;stroke-dasharray:none;stroke-opacity:1"
       transform="matrix(0.95592274,0,0,0.95592274,0.47796137,0.47796137)"
       clip-path="url(#clipPath11)" />
    <path
       id="path12"
       d="m 209.88,116 -7,3.5 1.75,-3.5 -1.75,-3.5 z"
       style="fill:#000000;fill-opacity:1;fill-rule:nonzero;stroke:#000000;stroke-width:1;stroke-linecap:butt;stroke-linejoin:miter;stroke-miterlimit:10;stroke-dasharray:none;stroke-opacity:1"
       transform="matrix(0.95592274,0,0,0.95592274,0.47796137,0.47796137)"
       clip-path="url(#clipPath13)" />
    <path
       id="path14"
       d="m 1,91 h 180 v 50 H 1 Z"
       style="fill:#ffffff;fill-opacity:1;fill-rule:nonzero;stroke:#000000;stroke-width:1;stroke-linecap:butt;stroke-linejoin:miter;stroke-miterlimit:10;stroke-dasharray:none;stroke-opacity:1"
       transform="matrix(0.95592274,0,0,0.95592274,0.47796137,0.47796137)"
       clip-path="url(#clipPath15)" />
    <text
       id="text15"
       xml:space="preserve"
       transform="matrix(0.95593228,0,0,0.95593228,16.609323,116.62374)"
       clip-path="url(#clipPath16)"><tspan
         style="font-variant:normal;font-weight:normal;font-size:15px;font-family:Helvetica;writing-mode:lr-tb;fill:#000000;fill-opacity:1;fill-rule:nonzero;stroke:none"
         x="0 5.0097656 9.1772461 14.501953 22.001953 30.344238 38.686523 42.854004 51.196289 59.538574 63.706055 69.030762 73.198242 77.365723 82.69043 91.032715 94.365234 98.532715 102.7002 111.04248 119.38477 124.37988 132.72217 138.04688 142.21436"
         y="0"
         sodipodi:role="line"
         id="tspan15">{ &quot;content&quot;: &quot;hi there&quot; }</tspan></text>
    <path
       id="path17"
       d="m 371,86 h 110 v 60 H 371 Z"
       style="fill:#ffffff;fill-opacity:1;fill-rule:nonzero;stroke:#000000;stroke-width:1;stroke-linecap:butt;stroke-linejoin:miter;stroke-miterlimit:10;stroke-dasharray:none;stroke-opacity:1"
       transform="matrix(0.95592274,0,0,0.95592274,0.47796137,0.47796137)"
       clip-path="url(#clipPath18)" />
    <text
       id="text18"
       xml:space="preserve"
       transform="matrix(0.95593228,0,0,0.95593228,382.98531,107.06442)"
       clip-path="url(#clipPath19)"><tspan
         style="font-variant:normal;font-weight:normal;font-size:19px;font-family:Helvetica;writing-mode:lr-tb;fill:#000000;fill-opacity:1;fill-rule:nonzero;stroke:none"
         x="0 13.721191 24.288086 34.85498 40.133789"
         y="0"
         sodipodi:role="line"
         id="tspan18">Route</tspan></text>
    <text
       id="text19"
       xml:space="preserve"
       transform="matrix(0.95593228,0,0,0.95593228,375.41253,129.05086)"
       clip-path="url(#clipPath20)"><tspan
         style="font-variant:normal;font-weight:normal;font-size:19px;font-family:Helvetica;writing-mode:lr-tb;fill:#000000;fill-opacity:1;fill-rule:nonzero;stroke:none"
         x="0 13.721191 24.288086 34.85498 45.421875 49.643066 60.209961"
         y="0"
         sodipodi:role="line"
         id="tspan19">Handler</tspan></text>
    <path
       id="path21"
       d="m 338.5,116 h 20 -7.5 13.64001"
       style="fill:none;stroke:#000000;stroke-width:1;stroke-linecap:butt;stroke-linejoin:miter;stroke-miterlimit:10;stroke-dasharray:none;stroke-opacity:1"
       transform="matrix(0.95592274,0,0,0.95592274,0.47796137,0.47796137)"
       clip-path="url(#clipPath22)" />
    <path
       id="path23"
       d="m 369.89001,116 -7,3.5 1.75,-3.5 -1.75,-3.5 z"
       style="fill:#000000;fill-opacity:1;fill-rule:nonzero;stroke:#000000;stroke-width:1;stroke-linecap:butt;stroke-linejoin:miter;stroke-miterlimit:10;stroke-dasharray:none;stroke-opacity:1"
       transform="matrix(0.95592274,0,0,0.95592274,0.47796137,0.47796137)"
       clip-path="url(#clipPath24)" />
    <path
       id="path25"
       d="m 208.5,86 h 130 v 60 h -130 z"
       style="fill:#dae8fc;fill-opacity:1;fill-rule:nonzero;stroke:#6c8ebf;stroke-width:1;stroke-linecap:butt;stroke-linejoin:miter;stroke-miterlimit:10;stroke-dasharray:none;stroke-opacity:1"
       transform="matrix(0.95592274,0,0,0.95592274,0.47796137,0.47796137)"
       clip-path="url(#clipPath26)" />
    <text
       id="text26"
       xml:space="preserve"
       transform="matrix(0.95593228,0,0,0.95593228,206.89959,107.06442)"
       clip-path="url(#clipPath27)"><tspan
         style="font-variant:normal;font-weight:normal;font-size:19px;font-family:Helvetica;writing-mode:lr-tb;fill:#000000;fill-opacity:1;fill-rule:nonzero;stroke:none"
         x="0 13.721191 24.288086 29.566895 40.133789 45.078613 55.98877 62.315918 72.882812 83.449707 92.949707 98.228516 108.79541"
         y="0"
         sodipodi:role="line"
         id="tspan26">Data Transfer</tspan></text>
    <text
       id="text27"
       xml:space="preserve"
       transform="matrix(0.95593228,0,0,0.95593228,235.66718,129.05086)"
       clip-path="url(#clipPath28)"><tspan
         style="font-variant:normal;font-weight:normal;font-size:19px;font-family:Helvetica;writing-mode:lr-tb;fill:#000000;fill-opacity:1;fill-rule:nonzero;stroke:none"
         x="0 14.778809 25.345703 29.566895 40.133789 49.633789"
         y="0"
         sodipodi:role="line"
         id="tspan27">Object</tspan></text>
    <text
       id="text28"
       xml:space="preserve"
       transform="matrix(0.95593228,0,0,0.95593228,230.4693,155.81696)"
       clip-path="url(#clipPath29)"><tspan
         style="font-style:oblique;font-variant:normal;font-weight:normal;font-size:13px;font-family:Helvetica;writing-mode:lr-tb;fill:#000000;fill-opacity:1;fill-rule:nonzero;stroke:none"
         x="0 9.3881836 16.618164 20.947266 25.276367 28.164551 35.394531 41.894531 45.506348 52.736328 59.966309 63.578125"
         y="0"
         sodipodi:role="line"
         id="tspan28">Carries data</tspan></text>
    <text
       id="text29"
       xml:space="preserve"
       transform="matrix(0.95593228,0,0,0.95593228,209.73752,171.11188)"
       clip-path="url(#clipPath30)"><tspan
         style="font-style:oblique;font-variant:normal;font-weight:normal;font-size:13px;font-family:Helvetica;writing-mode:lr-tb;fill:#000000;fill-opacity:1;fill-rule:nonzero;stroke:none"
         x="0 7.2299805 14.459961 18.071777 27.459961 34.689941 41.919922 49.149902 52.761719 56.373535 65.761719 72.991699 76.603516 83.833496 86.72168 93.95166 100.45166 107.68164"
         y="0"
         sodipodi:role="line"
         id="tspan29">between two places</tspan></text>
  </g>
</svg>
