<?xml version="1.0" encoding="UTF-8" standalone="no"?>
<!-- Created with Inkscape (http://www.inkscape.org/) -->

<svg
   version="1.1"
   id="svg1"
   width="329.28"
   height="80"
   viewBox="0 0 329.28 80"
   sodipodi:docname="nest-1.pdf"
   xmlns:inkscape="http://www.inkscape.org/namespaces/inkscape"
   xmlns:sodipodi="http://sodipodi.sourceforge.net/DTD/sodipodi-0.dtd"
   xmlns="http://www.w3.org/2000/svg"
   xmlns:svg="http://www.w3.org/2000/svg">
  <defs
     id="defs1">
    <clipPath
       clipPathUnits="userSpaceOnUse"
       id="clipPath2">
      <path
         d="M 0,0 H 1029.1666 V 248.31636 H 0 Z"
         transform="scale(0.33425103)"
         clip-rule="evenodd"
         id="path2" />
    </clipPath>
    <clipPath
       clipPathUnits="userSpaceOnUse"
       id="clipPath4">
      <path
         d="M 0,0 H 1029.1666 V 248.31636 H 0 Z"
         transform="matrix(0.33425103,0,0,0.33425103,-0.49999999,-0.49999999)"
         clip-rule="evenodd"
         id="path4" />
    </clipPath>
    <clipPath
       clipPathUnits="userSpaceOnUse"
       id="clipPath5">
      <path
         d="M 0,0 H 1029.1666 V 248.31636 H 0 Z"
         transform="matrix(0.33424768,0,0,0.33424768,-9.890625,-27)"
         clip-rule="evenodd"
         id="path5" />
    </clipPath>
    <clipPath
       clipPathUnits="userSpaceOnUse"
       id="clipPath6">
      <path
         d="M 0,0 H 1029.1666 V 248.31636 H 0 Z"
         transform="matrix(0.33424768,0,0,0.33424768,-111,-48)"
         clip-rule="evenodd"
         id="path6" />
    </clipPath>
    <clipPath
       clipPathUnits="userSpaceOnUse"
       id="clipPath7">
      <path
         d="M 0,0 H 1029.1666 V 248.31636 H 0 Z"
         transform="matrix(0.33424768,0,0,0.33424768,-139.71875,-77)"
         clip-rule="evenodd"
         id="path7" />
    </clipPath>
  </defs>
  <sodipodi:namedview
     id="namedview1"
     pagecolor="#ffffff"
     bordercolor="#000000"
     borderopacity="0.25"
     inkscape:showpageshadow="2"
     inkscape:pageopacity="0.0"
     inkscape:pagecheckerboard="0"
     inkscape:deskcolor="#d1d1d1">
    <inkscape:page
       x="0"
       y="0"
       inkscape:label="1"
       id="page1"
       width="329.28"
       height="80"
       margin="0"
       bleed="0" />
  </sodipodi:namedview>
  <g
     id="g1"
     inkscape:groupmode="layer"
     inkscape:label="1">
    <path
       id="path1"
       d="M 0,0 H 344 V 83 H 0 Z"
       style="fill:#ffffff;fill-opacity:1;fill-rule:nonzero;stroke:none"
       transform="scale(0.95736425)"
       clip-path="url(#clipPath2)" />
    <path
       id="path3"
       d="M 1,1 H 341 V 61 H 1 Z"
       style="fill:#dae8fc;fill-opacity:1;fill-rule:nonzero;stroke:#6c8ebf;stroke-width:1;stroke-linecap:butt;stroke-linejoin:miter;stroke-miterlimit:10;stroke-dasharray:none;stroke-opacity:1"
       transform="matrix(0.95736425,0,0,0.95736425,0.47868212,0.47868212)"
       clip-path="url(#clipPath4)" />
    <text
       id="text4"
       xml:space="preserve"
       transform="matrix(0.95737385,0,0,0.95737385,9.4690257,25.849094)"
       clip-path="url(#clipPath5)"><tspan
         style="font-variant:normal;font-weight:700;font-size:17px;font-family:Helvetica;writing-mode:lr-tb;fill:#000000;fill-opacity:1;fill-rule:nonzero;stroke:none"
         x="0 11.338867 17 27.384277 34 43.45459 48.177734 57.632324 68.016602 78.400879 83.124023 89.739746 99.194336 104.85547 111.47119 116.19434 125.64893 135.10352 144.55811 149.28125 164.39697 173.85156 183.30615 192.76074 202.21533 212.59961 222.0542 231.50879 236.23193 245.68652 251.34766 261.73193 268.34766 277.80225 288.18652 292.90967 297.63281 308.01709 312.74023"
         y="0"
         sodipodi:role="line"
         id="tspan4">Store and retrieve messages stored in a</tspan></text>
    <g
       id="g5" />
    <text
       id="text5"
       xml:space="preserve"
       transform="matrix(0.95737385,0,0,0.95737385,106.2685,45.953945)"
       clip-path="url(#clipPath6)"><tspan
         style="font-variant:normal;font-weight:700;font-size:17px;font-family:Helvetica;writing-mode:lr-tb;fill:#000000;fill-opacity:1;fill-rule:nonzero;stroke:none"
         x="0 10.384277 15.107422 24.562012 29.285156 39.669434 44.392578 53.847168 65.186035 78.40918 90.686035 95.40918 105.79346 110.5166"
         y="0"
         sodipodi:role="line"
         id="tspan5">plain JSON ﬁle</tspan></text>
    <text
       id="text6"
       xml:space="preserve"
       transform="matrix(0.95737385,0,0,0.95737385,133.76308,73.717786)"
       clip-path="url(#clipPath7)"><tspan
         style="font-variant:normal;font-weight:normal;font-size:15px;font-family:Helvetica;writing-mode:lr-tb;fill:#000000;fill-opacity:1;fill-rule:nonzero;stroke:none"
         x="0 10.004883 18.347168 26.689453 30.856934 42.524414 50.866699 59.208984"
         y="0"
         sodipodi:role="line"
         id="tspan6">App Goal</tspan></text>
  </g>
</svg>
