<?xml version="1.0" encoding="UTF-8" standalone="no"?>
<!-- Created with Inkscape (http://www.inkscape.org/) -->

<svg
   version="1.1"
   id="svg1"
   width="366.72"
   height="261.44"
   viewBox="0 0 366.72 261.44"
   sodipodi:docname="nest-3.pdf"
   xmlns:inkscape="http://www.inkscape.org/namespaces/inkscape"
   xmlns:sodipodi="http://sodipodi.sourceforge.net/DTD/sodipodi-0.dtd"
   xmlns="http://www.w3.org/2000/svg"
   xmlns:svg="http://www.w3.org/2000/svg">
  <defs
     id="defs1">
    <clipPath
       clipPathUnits="userSpaceOnUse"
       id="clipPath2">
      <path
         d="M 0,0 H 1145.8333 V 813.7511 H 0 Z"
         transform="scale(0.33425455)"
         clip-rule="evenodd"
         id="path2" />
    </clipPath>
    <clipPath
       clipPathUnits="userSpaceOnUse"
       id="clipPath3">
      <path
         d="M 0,0 H 1132 V 156 H 0 Z"
         transform="matrix(0.33425455,0,0,0.33425455,-0.16021813,32.933746)"
         id="path3" />
    </clipPath>
    <clipPath
       clipPathUnits="userSpaceOnUse"
       id="clipPath5">
      <path
         d="M 0,0 H 1145.8333 V 807.76758 H 0 Z"
         transform="scale(0.31999999)"
         clip-rule="evenodd"
         id="path5" />
    </clipPath>
    <clipPath
       clipPathUnits="userSpaceOnUse"
       id="clipPath7">
      <path
         d="M 0,0 H 1145.8333 V 807.76758 H 0 Z"
         transform="matrix(0.33425455,0,0,0.33425455,-0.49999999,-0.49999999)"
         clip-rule="evenodd"
         id="path7" />
    </clipPath>
    <clipPath
       clipPathUnits="userSpaceOnUse"
       id="clipPath8">
      <path
         d="M 0,0 H 1145.8333 V 807.76758 H 0 Z"
         transform="matrix(0.3342512,0,0,0.3342512,-100.95312,-66)"
         clip-rule="evenodd"
         id="path8" />
    </clipPath>
    <clipPath
       clipPathUnits="userSpaceOnUse"
       id="clipPath9">
      <path
         d="M 0,0 H 1145.8333 V 807.76758 H 0 Z"
         transform="matrix(0.3342512,0,0,0.3342512,-130.07812,-22)"
         clip-rule="evenodd"
         id="path9" />
    </clipPath>
    <clipPath
       clipPathUnits="userSpaceOnUse"
       id="clipPath10">
      <path
         d="M 0,0 H 1132 V 156 H 0 Z"
         transform="matrix(0.33425455,0,0,0.33425455,-0.16021813,152.93113)"
         id="path10" />
    </clipPath>
    <clipPath
       clipPathUnits="userSpaceOnUse"
       id="clipPath12">
      <path
         d="M 0,0 H 1145.8333 V 807.76758 H 0 Z"
         transform="scale(0.31999999)"
         clip-rule="evenodd"
         id="path12" />
    </clipPath>
    <clipPath
       clipPathUnits="userSpaceOnUse"
       id="clipPath14">
      <path
         d="M 0,0 H 1145.8333 V 807.76758 H 0 Z"
         transform="matrix(0.33425455,0,0,0.33425455,-0.49999999,-0.49999999)"
         clip-rule="evenodd"
         id="path14" />
    </clipPath>
    <clipPath
       clipPathUnits="userSpaceOnUse"
       id="clipPath15">
      <path
         d="M 0,0 H 1145.8333 V 807.76758 H 0 Z"
         transform="matrix(0.3342512,0,0,0.3342512,-35.40625,-186)"
         clip-rule="evenodd"
         id="path15" />
    </clipPath>
    <clipPath
       clipPathUnits="userSpaceOnUse"
       id="clipPath16">
      <path
         d="M 0,0 H 1132 V 157 H 0 Z"
         transform="matrix(0.33425455,0,0,0.33425455,-0.16021813,92.765307)"
         id="path16" />
    </clipPath>
    <clipPath
       clipPathUnits="userSpaceOnUse"
       id="clipPath18">
      <path
         d="M 0,0 H 1145.8333 V 807.76758 H 0 Z"
         transform="scale(0.31999999)"
         clip-rule="evenodd"
         id="path18" />
    </clipPath>
    <clipPath
       clipPathUnits="userSpaceOnUse"
       id="clipPath20">
      <path
         d="M 0,0 H 1145.8333 V 807.76758 H 0 Z"
         transform="matrix(0.33425455,0,0,0.33425455,-0.49999999,-0.49999999)"
         clip-rule="evenodd"
         id="path20" />
    </clipPath>
    <clipPath
       clipPathUnits="userSpaceOnUse"
       id="clipPath21">
      <path
         d="M 0,0 H 1145.8333 V 807.76758 H 0 Z"
         transform="matrix(0.3342512,0,0,0.3342512,-143.48437,-125.99999)"
         clip-rule="evenodd"
         id="path21" />
    </clipPath>
    <clipPath
       clipPathUnits="userSpaceOnUse"
       id="clipPath22">
      <path
         d="M 0,0 H 1132 V 157 H 0 Z"
         transform="matrix(0.33425455,0,0,0.33425455,-0.16021813,212.76269)"
         id="path22" />
    </clipPath>
    <clipPath
       clipPathUnits="userSpaceOnUse"
       id="clipPath24">
      <path
         d="M 0,0 H 1145.8333 V 807.76758 H 0 Z"
         transform="scale(0.31999999)"
         clip-rule="evenodd"
         id="path24" />
    </clipPath>
    <clipPath
       clipPathUnits="userSpaceOnUse"
       id="clipPath26">
      <path
         d="M 0,0 H 1145.8333 V 807.76758 H 0 Z"
         transform="matrix(0.33425455,0,0,0.33425455,-0.49999999,-0.49999999)"
         clip-rule="evenodd"
         id="path26" />
    </clipPath>
    <clipPath
       clipPathUnits="userSpaceOnUse"
       id="clipPath27">
      <path
         d="M 0,0 H 1145.8333 V 807.76758 H 0 Z"
         transform="matrix(0.3342512,0,0,0.3342512,-52.15625,-235)"
         clip-rule="evenodd"
         id="path27" />
    </clipPath>
    <clipPath
       clipPathUnits="userSpaceOnUse"
       id="clipPath28">
      <path
         d="M 0,0 H 1145.8333 V 807.76758 H 0 Z"
         transform="matrix(0.3342512,0,0,0.3342512,-104.42188,-257)"
         clip-rule="evenodd"
         id="path28" />
    </clipPath>
  </defs>
  <sodipodi:namedview
     id="namedview1"
     pagecolor="#ffffff"
     bordercolor="#000000"
     borderopacity="0.25"
     inkscape:showpageshadow="2"
     inkscape:pageopacity="0.0"
     inkscape:pagecheckerboard="0"
     inkscape:deskcolor="#d1d1d1">
    <inkscape:page
       x="0"
       y="0"
       inkscape:label="1"
       id="page1"
       width="366.72"
       height="261.44"
       margin="0"
       bleed="0" />
  </sodipodi:namedview>
  <g
     id="g1"
     inkscape:groupmode="layer"
     inkscape:label="1">
    <path
       id="path1"
       d="M 0,0 H 383 V 272 H 0 Z"
       style="fill:#ffffff;fill-opacity:1;fill-rule:nonzero;stroke:none"
       transform="scale(0.95735417)"
       clip-path="url(#clipPath2)" />
    <g
       opacity="0.25"
       id="g4"
       clip-path="url(#clipPath5)">
      <path
         d="M 1,34 H 377 V 84 H 1 Z"
         style="fill:#000000;fill-opacity:1;fill-rule:nonzero;stroke:#000000;stroke-width:1;stroke-linecap:butt;stroke-linejoin:miter;stroke-miterlimit:10;stroke-dasharray:none;stroke-opacity:1"
         transform="matrix(0.95735417,0,0,0.95735417,2.3933854,3.3507397)"
         clip-path="url(#clipPath3)"
         id="path4" />
    </g>
    <path
       id="path6"
       d="M 1,34 H 377 V 84 H 1 Z"
       style="fill:#ffffff;fill-opacity:1;fill-rule:nonzero;stroke:#000000;stroke-width:1;stroke-linecap:butt;stroke-linejoin:miter;stroke-miterlimit:10;stroke-dasharray:none;stroke-opacity:1"
       transform="matrix(0.95735417,0,0,0.95735417,0.47867708,0.47867708)"
       clip-path="url(#clipPath7)" />
    <text
       id="text7"
       xml:space="preserve"
       transform="matrix(0.95736377,0,0,0.95736377,96.648864,63.186009)"
       clip-path="url(#clipPath8)"><tspan
         style="font-variant:normal;font-weight:normal;font-size:18px;font-family:Helvetica;writing-mode:lr-tb;fill:#000000;fill-opacity:1;fill-rule:nonzero;stroke:none"
         x="0 12.999023 16.998047 27.008789 37.019531 43.013672 48.014648 61.013672 71.024414 80.024414 84.023438 94.03418 104.04492 109.0459 121.05176 131.0625 136.06348 141.06445 151.0752 157.06934 167.08008"
         y="0"
         sodipodi:role="line"
         id="tspan7">Clear Design Patterns</tspan></text>
    <text
       id="text8"
       xml:space="preserve"
       transform="matrix(0.95736377,0,0,0.95736377,124.53208,21.062003)"
       clip-path="url(#clipPath9)"><tspan
         style="font-variant:normal;font-weight:700;font-size:23px;font-family:Helvetica;writing-mode:lr-tb;fill:#000000;fill-opacity:1;fill-rule:nonzero;stroke:none"
         x="0 21.708496 35.757812 48.549316 54.939453 71.549316 84.34082 97.132324 104.7915"
         y="0"
         sodipodi:role="line"
         id="tspan8">Why Nest?</tspan></text>
    <g
       opacity="0.25"
       id="g11"
       clip-path="url(#clipPath12)">
      <path
         d="m 1,154 h 376 v 50 H 1 Z"
         style="fill:#000000;fill-opacity:1;fill-rule:nonzero;stroke:#000000;stroke-width:1;stroke-linecap:butt;stroke-linejoin:miter;stroke-miterlimit:10;stroke-dasharray:none;stroke-opacity:1"
         transform="matrix(0.95735417,0,0,0.95735417,2.3933854,3.3507423)"
         clip-path="url(#clipPath10)"
         id="path11" />
    </g>
    <path
       id="path13"
       d="m 1,154 h 376 v 50 H 1 Z"
       style="fill:#ffffff;fill-opacity:1;fill-rule:nonzero;stroke:#000000;stroke-width:1;stroke-linecap:butt;stroke-linejoin:miter;stroke-miterlimit:10;stroke-dasharray:none;stroke-opacity:1"
       transform="matrix(0.95735417,0,0,0.95735417,0.47867708,0.47867708)"
       clip-path="url(#clipPath14)" />
    <text
       id="text14"
       xml:space="preserve"
       transform="matrix(0.95736377,0,0,0.95736377,33.896661,178.06966)"
       clip-path="url(#clipPath15)"><tspan
         style="font-variant:normal;font-weight:normal;font-size:18px;font-family:Helvetica;writing-mode:lr-tb;fill:#000000;fill-opacity:1;fill-rule:nonzero;stroke:none"
         x="0 14.000977 19.995117 30.005859 40.016602 45.017578 50.018555 54.017578 64.02832 69.029297 79.040039 89.050781 95.044922 105.05566 110.05664 114.05566 124.06641 134.07715 139.07812 144.0791 154.08984 160.08398 165.08496 175.0957 185.10645 195.11719 205.12793 209.12695 219.1377 225.13184 230.13281 240.14355 250.1543 259.1543 268.1543 278.16504 288.17578 298.18652"
         y="0"
         sodipodi:role="line"
         id="tspan14">Great integration for popular packages</tspan></text>
    <g
       opacity="0.25"
       id="g17"
       clip-path="url(#clipPath18)">
      <path
         d="m 1,94 h 376 v 50 H 1 Z"
         style="fill:#000000;fill-opacity:1;fill-rule:nonzero;stroke:#000000;stroke-width:1;stroke-linecap:butt;stroke-linejoin:miter;stroke-miterlimit:10;stroke-dasharray:none;stroke-opacity:1"
         transform="matrix(0.95735417,0,0,0.95735417,2.3933854,3.3507423)"
         clip-path="url(#clipPath16)"
         id="path17" />
    </g>
    <path
       id="path19"
       d="m 1,94 h 376 v 50 H 1 Z"
       style="fill:#ffffff;fill-opacity:1;fill-rule:nonzero;stroke:#000000;stroke-width:1;stroke-linecap:butt;stroke-linejoin:miter;stroke-miterlimit:10;stroke-dasharray:none;stroke-opacity:1"
       transform="matrix(0.95735417,0,0,0.95735417,0.47867708,0.47867708)"
       clip-path="url(#clipPath20)" />
    <text
       id="text20"
       xml:space="preserve"
       transform="matrix(0.95736377,0,0,0.95736377,137.36674,120.62783)"
       clip-path="url(#clipPath21)"><tspan
         style="font-variant:normal;font-weight:normal;font-size:18px;font-family:Helvetica;writing-mode:lr-tb;fill:#000000;fill-opacity:1;fill-rule:nonzero;stroke:none"
         x="0 14.000977 19.995117 30.005859 40.016602 45.017578 50.018555 63.017578 73.02832 82.02832"
         y="0"
         sodipodi:role="line"
         id="tspan20">Great Docs</tspan></text>
    <g
       opacity="0.25"
       id="g23"
       clip-path="url(#clipPath24)">
      <path
         d="m 1,214 h 376 v 50 H 1 Z"
         style="fill:#000000;fill-opacity:1;fill-rule:nonzero;stroke:#000000;stroke-width:1;stroke-linecap:butt;stroke-linejoin:miter;stroke-miterlimit:10;stroke-dasharray:none;stroke-opacity:1"
         transform="matrix(0.95735417,0,0,0.95735417,2.3933854,3.3507423)"
         clip-path="url(#clipPath22)"
         id="path23" />
    </g>
    <path
       id="path25"
       d="m 1,214 h 376 v 50 H 1 Z"
       style="fill:#ffffff;fill-opacity:1;fill-rule:nonzero;stroke:#000000;stroke-width:1;stroke-linecap:butt;stroke-linejoin:miter;stroke-miterlimit:10;stroke-dasharray:none;stroke-opacity:1"
       transform="matrix(0.95735417,0,0,0.95735417,0.47867708,0.47867708)"
       clip-path="url(#clipPath26)" />
    <text
       id="text26"
       xml:space="preserve"
       transform="matrix(0.95736377,0,0,0.95736377,49.932504,224.98049)"
       clip-path="url(#clipPath27)"><tspan
         style="font-variant:normal;font-weight:normal;font-size:18px;font-family:Helvetica;writing-mode:lr-tb;fill:#000000;fill-opacity:1;fill-rule:nonzero;stroke:none"
         x="0 12.005859 22.016602 31.016602 40.016602 45.017578 50.018555 60.029297 69.029297 74.030273 78.029297 88.040039 98.050781 103.05176 113.56348 118.56445 127.56445 137.5752 147.58594 157.59668 162.59766 168.5918 178.60254 188.61328 197.61328 207.62402 212.625 217.62598 227.63672 233.63086 243.6416 253.65234 263.66309"
         y="0"
         sodipodi:role="line"
         id="tspan26">Easy testing + code reuse through</tspan></text>
    <text
       id="text27"
       xml:space="preserve"
       transform="matrix(0.95736377,0,0,0.95736377,99.96972,246.04249)"
       clip-path="url(#clipPath28)"><tspan
         style="font-variant:normal;font-weight:normal;font-size:18px;font-family:Helvetica;writing-mode:lr-tb;fill:#000000;fill-opacity:1;fill-rule:nonzero;stroke:none"
         x="0 10.010742 20.021484 30.032227 40.042969 50.053711 60.064453 70.075195 80.085938 89.085938 98.085938 103.08691 107.08594 117.09668 121.0957 131.10645 140.10645 145.10742 149.10645 159.11719"
         y="0"
         sodipodi:role="line"
         id="tspan27">dependency injection</tspan></text>
  </g>
</svg>
