<?xml version="1.0" encoding="UTF-8" standalone="no"?>
<!-- Created with Inkscape (http://www.inkscape.org/) -->

<svg
   version="1.1"
   id="svg1"
   width="290.56"
   height="147.84"
   viewBox="0 0 290.56 147.84"
   sodipodi:docname="nest-12.pdf"
   xmlns:inkscape="http://www.inkscape.org/namespaces/inkscape"
   xmlns:sodipodi="http://sodipodi.sourceforge.net/DTD/sodipodi-0.dtd"
   xmlns="http://www.w3.org/2000/svg"
   xmlns:svg="http://www.w3.org/2000/svg">
  <defs
     id="defs1">
    <clipPath
       clipPathUnits="userSpaceOnUse"
       id="clipPath2">
      <path
         d="M 0,0 H 908.33325 V 460.14252 H 0 Z"
         transform="scale(0.33467892)"
         clip-rule="evenodd"
         id="path2" />
    </clipPath>
    <clipPath
       clipPathUnits="userSpaceOnUse"
       id="clipPath4">
      <path
         d="M 0,0 H 908.33325 V 460.14252 H 0 Z"
         transform="matrix(0.33467892,0,0,0.33467892,-0.49999999,-0.49999999)"
         clip-rule="evenodd"
         id="path4" />
    </clipPath>
    <clipPath
       clipPathUnits="userSpaceOnUse"
       id="clipPath5">
      <path
         d="M 0,0 H 908.33325 V 460.14252 H 0 Z"
         transform="matrix(0.33467558,0,0,0.33467558,-12.09375,-21)"
         clip-rule="evenodd"
         id="path5" />
    </clipPath>
    <clipPath
       clipPathUnits="userSpaceOnUse"
       id="clipPath7">
      <path
         d="M 0,0 H 908.33325 V 460.14252 H 0 Z"
         transform="matrix(0.33467892,0,0,0.33467892,-0.49999999,-0.49999999)"
         clip-rule="evenodd"
         id="path7" />
    </clipPath>
    <clipPath
       clipPathUnits="userSpaceOnUse"
       id="clipPath8">
      <path
         d="M 0,0 H 908.33325 V 460.14252 H 0 Z"
         transform="matrix(0.33467558,0,0,0.33467558,-130.57813,-21)"
         clip-rule="evenodd"
         id="path8" />
    </clipPath>
    <clipPath
       clipPathUnits="userSpaceOnUse"
       id="clipPath10">
      <path
         d="M 0,0 H 908.33325 V 460.14252 H 0 Z"
         transform="matrix(0.33467892,0,0,0.33467892,-0.49999999,-0.49999999)"
         clip-rule="evenodd"
         id="path10" />
    </clipPath>
    <clipPath
       clipPathUnits="userSpaceOnUse"
       id="clipPath11">
      <path
         d="M 0,0 H 908.33325 V 460.14252 H 0 Z"
         transform="matrix(0.33467558,0,0,0.33467558,-12.09375,-61)"
         clip-rule="evenodd"
         id="path11" />
    </clipPath>
    <clipPath
       clipPathUnits="userSpaceOnUse"
       id="clipPath13">
      <path
         d="M 0,0 H 908.33325 V 460.14252 H 0 Z"
         transform="matrix(0.33467892,0,0,0.33467892,-0.49999999,-0.49999999)"
         clip-rule="evenodd"
         id="path13" />
    </clipPath>
    <clipPath
       clipPathUnits="userSpaceOnUse"
       id="clipPath14">
      <path
         d="M 0,0 H 908.33325 V 460.14252 H 0 Z"
         transform="matrix(0.33467558,0,0,0.33467558,-57.5625,-61)"
         clip-rule="evenodd"
         id="path14" />
    </clipPath>
    <clipPath
       clipPathUnits="userSpaceOnUse"
       id="clipPath16">
      <path
         d="M 0,0 H 908.33325 V 460.14252 H 0 Z"
         transform="matrix(0.33467892,0,0,0.33467892,-0.49999999,-0.49999999)"
         clip-rule="evenodd"
         id="path16" />
    </clipPath>
    <clipPath
       clipPathUnits="userSpaceOnUse"
       id="clipPath17">
      <path
         d="M 0,0 H 908.33325 V 460.14252 H 0 Z"
         transform="matrix(0.33467558,0,0,0.33467558,-12.09375,-101)"
         clip-rule="evenodd"
         id="path17" />
    </clipPath>
    <clipPath
       clipPathUnits="userSpaceOnUse"
       id="clipPath19">
      <path
         d="M 0,0 H 908.33325 V 460.14252 H 0 Z"
         transform="matrix(0.33467892,0,0,0.33467892,-0.49999999,-0.49999999)"
         clip-rule="evenodd"
         id="path19" />
    </clipPath>
    <clipPath
       clipPathUnits="userSpaceOnUse"
       id="clipPath20">
      <path
         d="M 0,0 H 908.33325 V 460.14252 H 0 Z"
         transform="matrix(0.33467558,0,0,0.33467558,-53.546875,-101)"
         clip-rule="evenodd"
         id="path20" />
    </clipPath>
    <clipPath
       clipPathUnits="userSpaceOnUse"
       id="clipPath22">
      <path
         d="M 0,0 H 908.33325 V 460.14252 H 0 Z"
         transform="matrix(0.33467892,0,0,0.33467892,-0.49999999,-0.49999999)"
         clip-rule="evenodd"
         id="path22" />
    </clipPath>
    <clipPath
       clipPathUnits="userSpaceOnUse"
       id="clipPath23">
      <path
         d="M 0,0 H 908.33325 V 460.14252 H 0 Z"
         transform="matrix(0.33467558,0,0,0.33467558,-12.09375,-141)"
         clip-rule="evenodd"
         id="path23" />
    </clipPath>
    <clipPath
       clipPathUnits="userSpaceOnUse"
       id="clipPath25">
      <path
         d="M 0,0 H 908.33325 V 460.14252 H 0 Z"
         transform="matrix(0.33467892,0,0,0.33467892,-0.49999999,-0.49999999)"
         clip-rule="evenodd"
         id="path25" />
    </clipPath>
    <clipPath
       clipPathUnits="userSpaceOnUse"
       id="clipPath26">
      <path
         d="M 0,0 H 908.33325 V 460.14252 H 0 Z"
         transform="matrix(0.33467558,0,0,0.33467558,-123.96875,-141)"
         clip-rule="evenodd"
         id="path26" />
    </clipPath>
  </defs>
  <sodipodi:namedview
     id="namedview1"
     pagecolor="#ffffff"
     bordercolor="#000000"
     borderopacity="0.25"
     inkscape:showpageshadow="2"
     inkscape:pageopacity="0.0"
     inkscape:pagecheckerboard="0"
     inkscape:deskcolor="#d1d1d1">
    <inkscape:page
       x="0"
       y="0"
       inkscape:label="1"
       id="page1"
       width="290.56"
       height="147.84"
       margin="0"
       bleed="0" />
  </sodipodi:namedview>
  <g
     id="g1"
     inkscape:groupmode="layer"
     inkscape:label="1">
    <path
       id="path1"
       d="M 0,0 H 304 V 154 H 0 Z"
       style="fill:#ffffff;fill-opacity:1;fill-rule:nonzero;stroke:none"
       transform="scale(0.95614025)"
       clip-path="url(#clipPath2)" />
    <path
       id="path3"
       d="M 1,1 H 31 V 31 H 1 Z"
       style="fill:#dae8fc;fill-opacity:1;fill-rule:nonzero;stroke:#6c8ebf;stroke-width:1;stroke-linecap:butt;stroke-linejoin:miter;stroke-miterlimit:10;stroke-dasharray:none;stroke-opacity:1"
       transform="matrix(0.95614025,0,0,0.95614025,0.47807012,0.47807012)"
       clip-path="url(#clipPath4)" />
    <text
       id="text4"
       xml:space="preserve"
       transform="matrix(0.95614978,0,0,0.95614978,11.563436,20.079145)"
       clip-path="url(#clipPath5)"><tspan
         style="font-variant:normal;font-weight:normal;font-size:14px;font-family:Helvetica;writing-mode:lr-tb;fill:#000000;fill-opacity:1;fill-rule:nonzero;stroke:none"
         x="0"
         y="0"
         id="tspan4">1</tspan></text>
    <path
       id="path6"
       d="M 31,1 H 301 V 31 H 31 Z"
       style="fill:#ffffff;fill-opacity:1;fill-rule:nonzero;stroke:#000000;stroke-width:1;stroke-linecap:butt;stroke-linejoin:miter;stroke-miterlimit:10;stroke-dasharray:none;stroke-opacity:1"
       transform="matrix(0.95614025,0,0,0.95614025,0.47807012,0.47807012)"
       clip-path="url(#clipPath7)" />
    <text
       id="text7"
       xml:space="preserve"
       transform="matrix(0.95614978,0,0,0.95614978,124.85225,20.079145)"
       clip-path="url(#clipPath8)"><tspan
         style="font-variant:normal;font-weight:normal;font-size:14px;font-family:Helvetica;writing-mode:lr-tb;fill:#000000;fill-opacity:1;fill-rule:nonzero;stroke:none"
         x="0 3.8896484 11.675781 18.675781 22.56543 30.351562 33.461914 36.572266 40.461914 48.248047 56.03418 63.820312"
         y="0"
         sodipodi:role="line"
         id="tspan7">Install deps</tspan></text>
    <path
       id="path9"
       d="M 1,41 H 31 V 71 H 1 Z"
       style="fill:#dae8fc;fill-opacity:1;fill-rule:nonzero;stroke:#6c8ebf;stroke-width:1;stroke-linecap:butt;stroke-linejoin:miter;stroke-miterlimit:10;stroke-dasharray:none;stroke-opacity:1"
       transform="matrix(0.95614025,0,0,0.95614025,0.47807012,0.47807012)"
       clip-path="url(#clipPath10)" />
    <text
       id="text10"
       xml:space="preserve"
       transform="matrix(0.95614978,0,0,0.95614978,11.563436,58.325137)"
       clip-path="url(#clipPath11)"><tspan
         style="font-variant:normal;font-weight:normal;font-size:14px;font-family:Helvetica;writing-mode:lr-tb;fill:#000000;fill-opacity:1;fill-rule:nonzero;stroke:none"
         x="0"
         y="0"
         id="tspan10">2</tspan></text>
    <path
       id="path12"
       d="M 31,41 H 301 V 71 H 31 Z"
       style="fill:#ffffff;fill-opacity:1;fill-rule:nonzero;stroke:#000000;stroke-width:1;stroke-linecap:butt;stroke-linejoin:miter;stroke-miterlimit:10;stroke-dasharray:none;stroke-opacity:1"
       transform="matrix(0.95614025,0,0,0.95614025,0.47807012,0.47807012)"
       clip-path="url(#clipPath13)" />
    <text
       id="text13"
       xml:space="preserve"
       transform="matrix(0.95614978,0,0,0.95614978,55.038372,58.325137)"
       clip-path="url(#clipPath14)"><tspan
         style="font-variant:normal;font-weight:normal;font-size:14px;font-family:Helvetica;writing-mode:lr-tb;fill:#000000;fill-opacity:1;fill-rule:nonzero;stroke:none"
         x="0 9.3378906 17.124023 21.013672 24.90332 32.689453 40.475586 44.119141 51.905273 58.905273 66.691406 74.477539 81.477539 88.477539 93.139648 96.25 104.03613 107.92578 111.81543 118.81543 126.60156 138.26367 146.0498 149.16016 152.27051 160.05664 164.71875 168.6084 175.6084 183.39453 187.28418 191.17383 194.28418 202.07031 209.85645"
         y="0"
         sodipodi:role="line"
         id="tspan13">Set up Typescript compiler settings</tspan></text>
    <path
       id="path15"
       d="m 1,81 h 30 v 30 H 1 Z"
       style="fill:#dae8fc;fill-opacity:1;fill-rule:nonzero;stroke:#6c8ebf;stroke-width:1;stroke-linecap:butt;stroke-linejoin:miter;stroke-miterlimit:10;stroke-dasharray:none;stroke-opacity:1"
       transform="matrix(0.95614025,0,0,0.95614025,0.47807012,0.47807012)"
       clip-path="url(#clipPath16)" />
    <text
       id="text16"
       xml:space="preserve"
       transform="matrix(0.95614978,0,0,0.95614978,11.563436,96.571128)"
       clip-path="url(#clipPath17)"><tspan
         style="font-variant:normal;font-weight:normal;font-size:14px;font-family:Helvetica;writing-mode:lr-tb;fill:#000000;fill-opacity:1;fill-rule:nonzero;stroke:none"
         x="0"
         y="0"
         id="tspan16">3</tspan></text>
    <path
       id="path18"
       d="m 31,81 h 270 v 30 H 31 Z"
       style="fill:#ffffff;fill-opacity:1;fill-rule:nonzero;stroke:#000000;stroke-width:1;stroke-linecap:butt;stroke-linejoin:miter;stroke-miterlimit:10;stroke-dasharray:none;stroke-opacity:1"
       transform="matrix(0.95614025,0,0,0.95614025,0.47807012,0.47807012)"
       clip-path="url(#clipPath19)" />
    <text
       id="text19"
       xml:space="preserve"
       transform="matrix(0.95614978,0,0,0.95614978,51.198833,96.571128)"
       clip-path="url(#clipPath20)"><tspan
         style="font-variant:normal;font-weight:normal;font-size:14px;font-family:Helvetica;writing-mode:lr-tb;fill:#000000;fill-opacity:1;fill-rule:nonzero;stroke:none"
         x="0 10.110352 14.772461 22.558594 30.344727 34.234375 42.020508 45.910156 53.696289 57.585938 67.696289 75.482422 82.482422 86.37207 90.261719 101.92383 109.70996 117.49609 125.28223 128.39258 136.17871 140.06836 147.85449 155.64062 163.42676 167.31641 174.31641 182.10254 189.88867 193.77832 198.44043 206.22656 209.33691 212.44727 220.2334"
         y="0"
         sodipodi:role="line"
         id="tspan19">Create a Nest module and controller</tspan></text>
    <path
       id="path21"
       d="m 1,121 h 30 v 30 H 1 Z"
       style="fill:#dae8fc;fill-opacity:1;fill-rule:nonzero;stroke:#6c8ebf;stroke-width:1;stroke-linecap:butt;stroke-linejoin:miter;stroke-miterlimit:10;stroke-dasharray:none;stroke-opacity:1"
       transform="matrix(0.95614025,0,0,0.95614025,0.47807012,0.47807012)"
       clip-path="url(#clipPath22)" />
    <text
       id="text22"
       xml:space="preserve"
       transform="matrix(0.95614978,0,0,0.95614978,11.563436,134.81712)"
       clip-path="url(#clipPath23)"><tspan
         style="font-variant:normal;font-weight:normal;font-size:14px;font-family:Helvetica;writing-mode:lr-tb;fill:#000000;fill-opacity:1;fill-rule:nonzero;stroke:none"
         x="0"
         y="0"
         id="tspan22">4</tspan></text>
    <path
       id="path24"
       d="m 31,121 h 270 v 30 H 31 Z"
       style="fill:#ffffff;fill-opacity:1;fill-rule:nonzero;stroke:#000000;stroke-width:1;stroke-linecap:butt;stroke-linejoin:miter;stroke-miterlimit:10;stroke-dasharray:none;stroke-opacity:1"
       transform="matrix(0.95614025,0,0,0.95614025,0.47807012,0.47807012)"
       clip-path="url(#clipPath25)" />
    <text
       id="text25"
       xml:space="preserve"
       transform="matrix(0.95614978,0,0,0.95614978,118.53269,134.81712)"
       clip-path="url(#clipPath26)"><tspan
         style="font-variant:normal;font-weight:normal;font-size:14px;font-family:Helvetica;writing-mode:lr-tb;fill:#000000;fill-opacity:1;fill-rule:nonzero;stroke:none"
         x="0 9.3378906 13.227539 21.013672 25.675781 29.56543 33.455078 37.344727 45.130859 52.916992 56.806641 64.592773 72.378906 80.165039"
         y="0"
         sodipodi:role="line"
         id="tspan25">Start the app!</tspan></text>
  </g>
</svg>
