<?xml version="1.0" encoding="UTF-8" standalone="no"?>
<!-- Created with Inkscape (http://www.inkscape.org/) -->

<svg
   version="1.1"
   id="svg1"
   width="396.16"
   height="168"
   viewBox="0 0 396.16 168"
   sodipodi:docname="nest-10.pdf"
   xmlns:inkscape="http://www.inkscape.org/namespaces/inkscape"
   xmlns:sodipodi="http://sodipodi.sourceforge.net/DTD/sodipodi-0.dtd"
   xmlns="http://www.w3.org/2000/svg"
   xmlns:svg="http://www.w3.org/2000/svg">
  <defs
     id="defs1">
    <clipPath
       clipPathUnits="userSpaceOnUse"
       id="clipPath2">
      <path
         d="M 0,0 H 1237.4999 V 523.09778 H 0 Z"
         transform="scale(0.33454547)"
         clip-rule="evenodd"
         id="path2" />
    </clipPath>
    <clipPath
       clipPathUnits="userSpaceOnUse"
       id="clipPath4">
      <path
         d="M 0,0 H 1237.4999 V 520.10864 H 0 Z"
         transform="matrix(0.33454547,0,0,0.33454547,-0.49999999,-0.49999999)"
         clip-rule="evenodd"
         id="path4" />
    </clipPath>
    <clipPath
       clipPathUnits="userSpaceOnUse"
       id="clipPath5">
      <path
         d="M 0,0 H 1237.4999 V 520.10864 H 0 Z"
         transform="matrix(0.33454211,0,0,0.33454211,-211.51563,-21)"
         clip-rule="evenodd"
         id="path5" />
    </clipPath>
    <clipPath
       clipPathUnits="userSpaceOnUse"
       id="clipPath7">
      <path
         d="M 0,0 H 1237.4999 V 520.10864 H 0 Z"
         transform="matrix(0.33454547,0,0,0.33454547,-0.49999999,-0.49999999)"
         clip-rule="evenodd"
         id="path7" />
    </clipPath>
    <clipPath
       clipPathUnits="userSpaceOnUse"
       id="clipPath9">
      <path
         d="M 0,0 H 1237.4999 V 520.10864 H 0 Z"
         transform="matrix(0.33454547,0,0,0.33454547,-0.49999999,-0.49999999)"
         clip-rule="evenodd"
         id="path9" />
    </clipPath>
    <clipPath
       clipPathUnits="userSpaceOnUse"
       id="clipPath10">
      <path
         d="M 0,0 H 1237.4999 V 520.10864 H 0 Z"
         transform="matrix(0.33454211,0,0,0.33454211,-109.6875,-66)"
         clip-rule="evenodd"
         id="path10" />
    </clipPath>
    <clipPath
       clipPathUnits="userSpaceOnUse"
       id="clipPath12">
      <path
         d="M 0,0 H 1237.4999 V 520.10864 H 0 Z"
         transform="matrix(0.33454547,0,0,0.33454547,-0.49999999,-0.49999999)"
         clip-rule="evenodd"
         id="path12" />
    </clipPath>
    <clipPath
       clipPathUnits="userSpaceOnUse"
       id="clipPath14">
      <path
         d="M 0,0 H 1237.4999 V 520.10864 H 0 Z"
         transform="matrix(0.33454547,0,0,0.33454547,-0.49999999,-0.49999999)"
         clip-rule="evenodd"
         id="path14" />
    </clipPath>
    <clipPath
       clipPathUnits="userSpaceOnUse"
       id="clipPath16">
      <path
         d="M 0,0 H 1237.4999 V 520.10864 H 0 Z"
         transform="matrix(0.33454547,0,0,0.33454547,-0.49999999,-0.49999999)"
         clip-rule="evenodd"
         id="path16" />
    </clipPath>
    <clipPath
       clipPathUnits="userSpaceOnUse"
       id="clipPath17">
      <path
         d="M 0,0 H 1237.4999 V 520.10864 H 0 Z"
         transform="matrix(0.33454211,0,0,0.33454211,-123.1875,-101)"
         clip-rule="evenodd"
         id="path17" />
    </clipPath>
    <clipPath
       clipPathUnits="userSpaceOnUse"
       id="clipPath18">
      <path
         d="M 0,0 H 1237.4999 V 520.10864 H 0 Z"
         transform="matrix(0.33454211,0,0,0.33454211,-105.84375,-121)"
         clip-rule="evenodd"
         id="path18" />
    </clipPath>
    <clipPath
       clipPathUnits="userSpaceOnUse"
       id="clipPath20">
      <path
         d="M 0,0 H 1237.4999 V 520.10864 H 0 Z"
         transform="matrix(0.33454547,0,0,0.33454547,-0.49999999,-0.49999999)"
         clip-rule="evenodd"
         id="path20" />
    </clipPath>
    <clipPath
       clipPathUnits="userSpaceOnUse"
       id="clipPath22">
      <path
         d="M 0,0 H 1237.4999 V 520.10864 H 0 Z"
         transform="matrix(0.33454547,0,0,0.33454547,-0.49999999,-0.49999999)"
         clip-rule="evenodd"
         id="path22" />
    </clipPath>
    <clipPath
       clipPathUnits="userSpaceOnUse"
       id="clipPath24">
      <path
         d="M 0,0 H 1237.4999 V 520.10864 H 0 Z"
         transform="matrix(0.33454547,0,0,0.33454547,-0.49999999,-0.49999999)"
         clip-rule="evenodd"
         id="path24" />
    </clipPath>
    <clipPath
       clipPathUnits="userSpaceOnUse"
       id="clipPath25">
      <path
         d="M 0,0 H 1237.4999 V 520.10864 H 0 Z"
         transform="matrix(0.33454211,0,0,0.33454211,-13.640625,-90)"
         clip-rule="evenodd"
         id="path25" />
    </clipPath>
    <clipPath
       clipPathUnits="userSpaceOnUse"
       id="clipPath27">
      <path
         d="M 0,0 H 1237.4999 V 520.10864 H 0 Z"
         transform="matrix(0.33454547,0,0,0.33454547,-0.49999999,-0.49999999)"
         clip-rule="evenodd"
         id="path27" />
    </clipPath>
    <clipPath
       clipPathUnits="userSpaceOnUse"
       id="clipPath28">
      <path
         d="M 0,0 H 1237.4999 V 520.10864 H 0 Z"
         transform="matrix(0.33454211,0,0,0.33454211,-8.96875,-130)"
         clip-rule="evenodd"
         id="path28" />
    </clipPath>
    <clipPath
       clipPathUnits="userSpaceOnUse"
       id="clipPath30">
      <path
         d="M 0,0 H 1237.4999 V 520.10864 H 0 Z"
         transform="matrix(0.33454547,0,0,0.33454547,-0.49999999,-0.49999999)"
         clip-rule="evenodd"
         id="path30" />
    </clipPath>
    <clipPath
       clipPathUnits="userSpaceOnUse"
       id="clipPath32">
      <path
         d="M 0,0 H 1237.4999 V 520.10864 H 0 Z"
         transform="matrix(0.33454547,0,0,0.33454547,-0.49999999,-0.49999999)"
         clip-rule="evenodd"
         id="path32" />
    </clipPath>
    <clipPath
       clipPathUnits="userSpaceOnUse"
       id="clipPath34">
      <path
         d="M 0,0 H 1237.4999 V 520.10864 H 0 Z"
         transform="matrix(0.33454547,0,0,0.33454547,-0.49999999,-0.49999999)"
         clip-rule="evenodd"
         id="path34" />
    </clipPath>
    <clipPath
       clipPathUnits="userSpaceOnUse"
       id="clipPath35">
      <path
         d="M 0,0 H 1237.4999 V 520.10864 H 0 Z"
         transform="matrix(0.33454211,0,0,0.33454211,-299.10938,-111)"
         clip-rule="evenodd"
         id="path35" />
    </clipPath>
  </defs>
  <sodipodi:namedview
     id="namedview1"
     pagecolor="#ffffff"
     bordercolor="#000000"
     borderopacity="0.25"
     inkscape:showpageshadow="2"
     inkscape:pageopacity="0.0"
     inkscape:pagecheckerboard="0"
     inkscape:deskcolor="#d1d1d1">
    <inkscape:page
       x="0"
       y="0"
       inkscape:label="1"
       id="page1"
       width="396.16"
       height="168"
       margin="0"
       bleed="0" />
  </sodipodi:namedview>
  <g
     id="g1"
     inkscape:groupmode="layer"
     inkscape:label="1">
    <path
       id="path1"
       d="M 0,0 H 414 V 175 H 0 Z"
       style="fill:#ffffff;fill-opacity:1;fill-rule:nonzero;stroke:none"
       transform="scale(0.95652166)"
       clip-path="url(#clipPath2)" />
    <path
       id="path3"
       d="M 101,1 H 411 V 31 H 101 Z"
       style="fill:#dae8fc;fill-opacity:1;fill-rule:nonzero;stroke:#6c8ebf;stroke-width:1;stroke-linecap:butt;stroke-linejoin:miter;stroke-miterlimit:10;stroke-dasharray:none;stroke-opacity:1"
       transform="matrix(0.95652166,0,0,0.95652166,0.47826082,0.47826082)"
       clip-path="url(#clipPath4)" />
    <text
       id="text4"
       xml:space="preserve"
       transform="matrix(0.95653126,0,0,0.95653126,202.32131,20.087156)"
       clip-path="url(#clipPath5)"><tspan
         style="font-variant:normal;font-weight:700;font-size:16px;font-family:Helvetica;writing-mode:lr-tb;fill:#000000;fill-opacity:1;fill-rule:nonzero;stroke:none"
         x="0 11.554688 20.453125 29.351562 34.679688 39.125 49.796875 58.695312 64.921875 73.820312 82.71875"
         y="0"
         sodipodi:role="line"
         id="tspan4">Nest Server</tspan></text>
    <path
       id="path6"
       d="M 101,31 H 411 V 171 H 101 Z"
       style="fill:#dae8fc;fill-opacity:1;fill-rule:nonzero;stroke:#6c8ebf;stroke-width:1;stroke-linecap:butt;stroke-linejoin:miter;stroke-miterlimit:10;stroke-dasharray:none;stroke-opacity:1"
       transform="matrix(0.95652166,0,0,0.95652166,0.47826082,0.47826082)"
       clip-path="url(#clipPath7)" />
    <path
       id="path8"
       d="M 101,51 H 221 V 71 H 101 Z"
       style="fill:#ffffff;fill-opacity:1;fill-rule:nonzero;stroke:#000000;stroke-width:1;stroke-linecap:butt;stroke-linejoin:miter;stroke-miterlimit:10;stroke-dasharray:none;stroke-opacity:1"
       transform="matrix(0.95652166,0,0,0.95652166,0.47826082,0.47826082)"
       clip-path="url(#clipPath9)" />
    <text
       id="text9"
       xml:space="preserve"
       transform="matrix(0.95653126,0,0,0.95653126,104.91952,63.131063)"
       clip-path="url(#clipPath10)"><tspan
         style="font-variant:normal;font-weight:700;font-size:10px;font-family:Helvetica;writing-mode:lr-tb;fill:#000000;fill-opacity:1;fill-rule:nonzero;stroke:none"
         x="0 7.2216797 13.330078 19.438477 25.932617 28.710938 31.489258 40.380859 46.489258 49.267578 54.829102 63.720703 69.282227 75.390625 78.720703 84.282227 87.612305 90.390625 96.499023"
         y="0"
         sodipodi:role="line"
         id="tspan9">HTTP Implementation</tspan></text>
    <path
       id="path11"
       d="m 221,106 h 43.63"
       style="fill:none;stroke:#000000;stroke-width:1;stroke-linecap:butt;stroke-linejoin:miter;stroke-miterlimit:10;stroke-dasharray:none;stroke-opacity:1"
       transform="matrix(0.95652166,0,0,0.95652166,0.47826082,0.47826082)"
       clip-path="url(#clipPath12)" />
    <path
       id="path13"
       d="m 269.88,106 -7,3.5 1.75,-3.5 -1.75,-3.5 z"
       style="fill:#000000;fill-opacity:1;fill-rule:nonzero;stroke:#000000;stroke-width:1;stroke-linecap:butt;stroke-linejoin:miter;stroke-miterlimit:10;stroke-dasharray:none;stroke-opacity:1"
       transform="matrix(0.95652166,0,0,0.95652166,0.47826082,0.47826082)"
       clip-path="url(#clipPath14)" />
    <path
       id="path15"
       d="m 101,71 h 120 v 70 H 101 Z"
       style="fill:#f8cecc;fill-opacity:1;fill-rule:nonzero;stroke:#b85450;stroke-width:1;stroke-linecap:butt;stroke-linejoin:miter;stroke-miterlimit:10;stroke-dasharray:none;stroke-opacity:1"
       transform="matrix(0.95652166,0,0,0.95652166,0.47826082,0.47826082)"
       clip-path="url(#clipPath16)" />
    <text
       id="text16"
       xml:space="preserve"
       transform="matrix(0.95653126,0,0,0.95653126,117.83269,96.609657)"
       clip-path="url(#clipPath17)"><tspan
         style="font-style:oblique;font-variant:normal;font-weight:normal;font-size:16px;font-family:Helvetica;writing-mode:lr-tb;fill:#000000;fill-opacity:1;fill-rule:nonzero;stroke:none"
         x="0 10.671875 14.226562 23.125 32.023438 40.023438 48.921875 53.367188 62.265625 71.164062"
         y="0"
         sodipodi:role="line"
         id="tspan16">Please put</tspan></text>
    <text
       id="text17"
       xml:space="preserve"
       transform="matrix(0.95653126,0,0,0.95653126,101.24286,115.74028)"
       clip-path="url(#clipPath18)"><tspan
         style="font-style:oblique;font-variant:normal;font-weight:normal;font-size:16px;font-family:Helvetica;writing-mode:lr-tb;fill:#000000;fill-opacity:1;fill-rule:nonzero;stroke:none"
         x="0 8 16.898438 30.226562 39.125 43.570312 52.46875 56.023438 64.921875 73.820312 78.265625 87.164062 96.0625 101.39062"
         y="0"
         sodipodi:role="line"
         id="tspan17">something here</tspan></text>
    <path
       id="path19"
       d="M 71,86 H 94.629997"
       style="fill:none;stroke:#000000;stroke-width:1;stroke-linecap:butt;stroke-linejoin:miter;stroke-miterlimit:10;stroke-dasharray:none;stroke-opacity:1"
       transform="matrix(0.95652166,0,0,0.95652166,0.47826082,0.47826082)"
       clip-path="url(#clipPath20)" />
    <path
       id="path21"
       d="m 99.879997,86 -7,3.5 1.75,-3.5 -1.75,-3.5 z"
       style="fill:#000000;fill-opacity:1;fill-rule:nonzero;stroke:#000000;stroke-width:1;stroke-linecap:butt;stroke-linejoin:miter;stroke-miterlimit:10;stroke-dasharray:none;stroke-opacity:1"
       transform="matrix(0.95652166,0,0,0.95652166,0.47826082,0.47826082)"
       clip-path="url(#clipPath22)" />
    <path
       id="path23"
       d="m 1,71 h 70 v 30 H 1 Z"
       style="fill:#ffffff;fill-opacity:1;fill-rule:nonzero;stroke:#000000;stroke-width:1;stroke-linecap:butt;stroke-linejoin:miter;stroke-miterlimit:10;stroke-dasharray:none;stroke-opacity:1"
       transform="matrix(0.95652166,0,0,0.95652166,0.47826082,0.47826082)"
       clip-path="url(#clipPath24)" />
    <text
       id="text24"
       xml:space="preserve"
       transform="matrix(0.95653126,0,0,0.95653126,13.047684,86.087813)"
       clip-path="url(#clipPath25)"><tspan
         style="font-variant:normal;font-weight:normal;font-size:12px;font-family:Helvetica;writing-mode:lr-tb;fill:#000000;fill-opacity:1;fill-rule:nonzero;stroke:none"
         x="0 8.6660156 15.339844 22.013672 28.6875 35.361328 41.361328"
         y="0"
         sodipodi:role="line"
         id="tspan24">Request</tspan></text>
    <path
       id="path26"
       d="m 1,111 h 70 v 30 H 1 Z"
       style="fill:#ffffff;fill-opacity:1;fill-rule:nonzero;stroke:#000000;stroke-width:1;stroke-linecap:butt;stroke-linejoin:miter;stroke-miterlimit:10;stroke-dasharray:none;stroke-opacity:1"
       transform="matrix(0.95652166,0,0,0.95652166,0.47826082,0.47826082)"
       clip-path="url(#clipPath27)" />
    <text
       id="text27"
       xml:space="preserve"
       transform="matrix(0.95653126,0,0,0.95653126,8.5788897,124.34906)"
       clip-path="url(#clipPath28)"><tspan
         style="font-variant:normal;font-weight:normal;font-size:12px;font-family:Helvetica;writing-mode:lr-tb;fill:#000000;fill-opacity:1;fill-rule:nonzero;stroke:none"
         x="0 8.6660156 15.339844 21.339844 28.013672 34.6875 41.361328 47.361328"
         y="0"
         sodipodi:role="line"
         id="tspan27">Response</tspan></text>
    <path
       id="path29"
       d="M 101,126 H 77.370003"
       style="fill:none;stroke:#000000;stroke-width:1;stroke-linecap:butt;stroke-linejoin:miter;stroke-miterlimit:10;stroke-dasharray:none;stroke-opacity:1"
       transform="matrix(0.95652166,0,0,0.95652166,0.47826082,0.47826082)"
       clip-path="url(#clipPath30)" />
    <path
       id="path31"
       d="m 72.120003,126 7,-3.5 -1.75,3.5 1.75,3.5 z"
       style="fill:#000000;fill-opacity:1;fill-rule:nonzero;stroke:#000000;stroke-width:1;stroke-linecap:butt;stroke-linejoin:miter;stroke-miterlimit:10;stroke-dasharray:none;stroke-opacity:1"
       transform="matrix(0.95652166,0,0,0.95652166,0.47826082,0.47826082)"
       clip-path="url(#clipPath32)" />
    <path
       id="path33"
       d="m 271,76 h 120 v 60 H 271 Z"
       style="fill:#ffffff;fill-opacity:1;fill-rule:nonzero;stroke:#000000;stroke-width:1;stroke-linecap:butt;stroke-linejoin:miter;stroke-miterlimit:10;stroke-dasharray:none;stroke-opacity:1"
       transform="matrix(0.95652166,0,0,0.95652166,0.47826082,0.47826082)"
       clip-path="url(#clipPath34)" />
    <text
       id="text34"
       xml:space="preserve"
       transform="matrix(0.95653126,0,0,0.95653126,286.10747,106.17497)"
       clip-path="url(#clipPath35)"><tspan
         style="font-style:oblique;font-variant:normal;font-weight:700;font-size:14px;font-family:Helvetica;writing-mode:lr-tb;fill:#000000;fill-opacity:1;fill-rule:nonzero;stroke:none"
         x="0 10.889648 19.441406 24.889648 28.779297 38.889648 47.441406 55.993164"
         y="0"
         sodipodi:role="line"
         id="tspan34">Our Code</tspan></text>
  </g>
</svg>
