<?xml version="1.0" encoding="UTF-8" standalone="no"?>
<!-- Created with Inkscape (http://www.inkscape.org/) -->

<svg
   version="1.1"
   id="svg1"
   width="389.44"
   height="190.71999"
   viewBox="0 0 389.44 190.71999"
   sodipodi:docname="nest-2.pdf"
   xmlns:inkscape="http://www.inkscape.org/namespaces/inkscape"
   xmlns:sodipodi="http://sodipodi.sourceforge.net/DTD/sodipodi-0.dtd"
   xmlns="http://www.w3.org/2000/svg"
   xmlns:svg="http://www.w3.org/2000/svg">
  <defs
     id="defs1">
    <clipPath
       clipPathUnits="userSpaceOnUse"
       id="clipPath2">
      <path
         d="M 0,0 H 1216.6666 V 594.88123 H 0 Z"
         transform="scale(0.33452056)"
         clip-rule="evenodd"
         id="path2" />
    </clipPath>
    <clipPath
       clipPathUnits="userSpaceOnUse"
       id="clipPath3">
      <path
         d="M 0,0 H 1203 V 127 H 0 Z"
         transform="matrix(0.33452056,0,0,0.33452056,-0.15835618,-0.15479441)"
         id="path3" />
    </clipPath>
    <clipPath
       clipPathUnits="userSpaceOnUse"
       id="clipPath5">
      <path
         d="M 0,0 H 1216.6666 V 591.89191 H 0 Z"
         transform="scale(0.31999999)"
         clip-rule="evenodd"
         id="path5" />
    </clipPath>
    <clipPath
       clipPathUnits="userSpaceOnUse"
       id="clipPath7">
      <path
         d="M 0,0 H 1216.6666 V 591.89191 H 0 Z"
         transform="matrix(0.33452056,0,0,0.33452056,-0.50000001,-0.50000001)"
         clip-rule="evenodd"
         id="path7" />
    </clipPath>
    <clipPath
       clipPathUnits="userSpaceOnUse"
       id="clipPath8">
      <path
         d="M 0,0 H 1216.6666 V 591.89191 H 0 Z"
         transform="matrix(0.33451719,0,0,0.33451719,-108.32813,-29)"
         clip-rule="evenodd"
         id="path8" />
    </clipPath>
    <clipPath
       clipPathUnits="userSpaceOnUse"
       id="clipPath9">
      <path
         d="M 0,0 H 1203 V 127 H 0 Z"
         transform="matrix(0.33452056,0,0,0.33452056,-0.15835618,49.688768)"
         id="path9" />
    </clipPath>
    <clipPath
       clipPathUnits="userSpaceOnUse"
       id="clipPath11">
      <path
         d="M 0,0 H 1216.6666 V 591.89191 H 0 Z"
         transform="scale(0.31999999)"
         clip-rule="evenodd"
         id="path11" />
    </clipPath>
    <clipPath
       clipPathUnits="userSpaceOnUse"
       id="clipPath13">
      <path
         d="M 0,0 H 1216.6666 V 591.89191 H 0 Z"
         transform="matrix(0.33452056,0,0,0.33452056,-0.50000001,-0.50000001)"
         clip-rule="evenodd"
         id="path13" />
    </clipPath>
    <clipPath
       clipPathUnits="userSpaceOnUse"
       id="clipPath14">
      <path
         d="M 0,0 H 1216.6666 V 591.89191 H 0 Z"
         transform="matrix(0.33451719,0,0,0.33451719,-108.95312,-78)"
         clip-rule="evenodd"
         id="path14" />
    </clipPath>
    <clipPath
       clipPathUnits="userSpaceOnUse"
       id="clipPath15">
      <path
         d="M 0,0 H 1203 V 126 H 0 Z"
         transform="matrix(0.33452056,0,0,0.33452056,-0.15835618,99.866851)"
         id="path15" />
    </clipPath>
    <clipPath
       clipPathUnits="userSpaceOnUse"
       id="clipPath17">
      <path
         d="M 0,0 H 1216.6666 V 591.89191 H 0 Z"
         transform="scale(0.31999999)"
         clip-rule="evenodd"
         id="path17" />
    </clipPath>
    <clipPath
       clipPathUnits="userSpaceOnUse"
       id="clipPath19">
      <path
         d="M 0,0 H 1216.6666 V 591.89191 H 0 Z"
         transform="matrix(0.33452056,0,0,0.33452056,-0.50000001,-0.50000001)"
         clip-rule="evenodd"
         id="path19" />
    </clipPath>
    <clipPath
       clipPathUnits="userSpaceOnUse"
       id="clipPath20">
      <path
         d="M 0,0 H 1216.6666 V 591.89191 H 0 Z"
         transform="matrix(0.33451719,0,0,0.33451719,-89.953125,-128)"
         clip-rule="evenodd"
         id="path20" />
    </clipPath>
    <clipPath
       clipPathUnits="userSpaceOnUse"
       id="clipPath21">
      <path
         d="M 0,0 H 1203 V 127 H 0 Z"
         transform="matrix(0.33452056,0,0,0.33452056,-0.15835618,149.71041)"
         id="path21" />
    </clipPath>
    <clipPath
       clipPathUnits="userSpaceOnUse"
       id="clipPath23">
      <path
         d="M 0,0 H 1216.6666 V 591.89191 H 0 Z"
         transform="scale(0.31999999)"
         clip-rule="evenodd"
         id="path23" />
    </clipPath>
    <clipPath
       clipPathUnits="userSpaceOnUse"
       id="clipPath25">
      <path
         d="M 0,0 H 1216.6666 V 591.89191 H 0 Z"
         transform="matrix(0.33452056,0,0,0.33452056,-0.50000001,-0.50000001)"
         clip-rule="evenodd"
         id="path25" />
    </clipPath>
    <clipPath
       clipPathUnits="userSpaceOnUse"
       id="clipPath26">
      <path
         d="M 0,0 H 1216.6666 V 591.89191 H 0 Z"
         transform="matrix(0.33451719,0,0,0.33451719,-128.46875,-178)"
         clip-rule="evenodd"
         id="path26" />
    </clipPath>
  </defs>
  <sodipodi:namedview
     id="namedview1"
     pagecolor="#ffffff"
     bordercolor="#000000"
     borderopacity="0.25"
     inkscape:showpageshadow="2"
     inkscape:pageopacity="0.0"
     inkscape:pagecheckerboard="0"
     inkscape:deskcolor="#d1d1d1">
    <inkscape:page
       x="0"
       y="0"
       inkscape:label="1"
       id="page1"
       width="389.44"
       height="190.71999"
       margin="0"
       bleed="0" />
  </sodipodi:namedview>
  <g
     id="g1"
     inkscape:groupmode="layer"
     inkscape:label="1">
    <path
       id="path1"
       d="M 0,0 H 407 V 199 H 0 Z"
       style="fill:#ffffff;fill-opacity:1;fill-rule:nonzero;stroke:none"
       transform="scale(0.95659289)"
       clip-path="url(#clipPath2)" />
    <g
       opacity="0.25"
       id="g4"
       clip-path="url(#clipPath5)">
      <path
         d="M 1,1 H 401 V 41 H 1 Z"
         style="fill:#000000;fill-opacity:1;fill-rule:nonzero;stroke:#000000;stroke-width:1;stroke-linecap:butt;stroke-linejoin:miter;stroke-miterlimit:10;stroke-dasharray:none;stroke-opacity:1"
         transform="matrix(0.95659289,0,0,0.95659289,2.3914823,3.3480751)"
         clip-path="url(#clipPath3)"
         id="path4" />
    </g>
    <path
       id="path6"
       d="M 1,1 H 401 V 41 H 1 Z"
       style="fill:#dae8fc;fill-opacity:1;fill-rule:nonzero;stroke:#6c8ebf;stroke-width:1;stroke-linecap:butt;stroke-linejoin:miter;stroke-miterlimit:10;stroke-dasharray:none;stroke-opacity:1"
       transform="matrix(0.95659289,0,0,0.95659289,0.47829645,0.47829645)"
       clip-path="url(#clipPath7)" />
    <text
       id="text7"
       xml:space="preserve"
       transform="matrix(0.95660252,0,0,0.95660252,103.62696,27.741473)"
       clip-path="url(#clipPath8)"><tspan
         style="font-variant:normal;font-weight:700;font-size:24px;font-family:Helvetica;writing-mode:lr-tb;fill:#000000;fill-opacity:1;fill-rule:nonzero;stroke:none"
         x="0 17.332031 31.992188 50.660156 57.328125 65.320312 79.980469 86.648438 105.31641 118.66406 126.65625 133.32422 150.65625 164.00391 170.67188"
         y="0"
         sodipodi:role="line"
         id="tspan7">How to Get Help</tspan></text>
    <g
       opacity="0.25"
       id="g10"
       clip-path="url(#clipPath11)">
      <path
         d="M 1,51 H 401 V 91 H 1 Z"
         style="fill:#000000;fill-opacity:1;fill-rule:nonzero;stroke:#000000;stroke-width:1;stroke-linecap:butt;stroke-linejoin:miter;stroke-miterlimit:10;stroke-dasharray:none;stroke-opacity:1"
         transform="matrix(0.95659289,0,0,0.95659289,2.3914823,3.348076)"
         clip-path="url(#clipPath9)"
         id="path10" />
    </g>
    <path
       id="path12"
       d="M 1,51 H 401 V 91 H 1 Z"
       style="fill:#f5f5f5;fill-opacity:1;fill-rule:nonzero;stroke:#666666;stroke-width:1;stroke-linecap:butt;stroke-linejoin:miter;stroke-miterlimit:10;stroke-dasharray:none;stroke-opacity:1"
       transform="matrix(0.95659289,0,0,0.95659289,0.47829645,0.47829645)"
       clip-path="url(#clipPath13)" />
    <text
       id="text13"
       xml:space="preserve"
       transform="matrix(0.95660252,0,0,0.95660252,104.22483,74.614997)"
       clip-path="url(#clipPath14)"><tspan
         style="font-variant:normal;font-weight:normal;font-size:18px;font-family:Helvetica;writing-mode:lr-tb;fill:#333333;fill-opacity:1;fill-rule:nonzero;stroke:none"
         x="0 12.999023 23.009766 33.020508 48.014648 57.014648 62.015625 76.016602 81.017578 92.039062 97.040039 110.03906 114.03809 123.03809 132.03809 142.04883 151.04883 160.04883 164.04785 174.05859"
         y="0"
         sodipodi:role="line"
         id="tspan13">Udemy Q/A Discussion</tspan></text>
    <g
       opacity="0.25"
       id="g16"
       clip-path="url(#clipPath17)">
      <path
         d="m 1,101 h 400 v 40 H 1 Z"
         style="fill:#000000;fill-opacity:1;fill-rule:nonzero;stroke:#000000;stroke-width:1;stroke-linecap:butt;stroke-linejoin:miter;stroke-miterlimit:10;stroke-dasharray:none;stroke-opacity:1"
         transform="matrix(0.95659289,0,0,0.95659289,2.3914823,3.3480767)"
         clip-path="url(#clipPath15)"
         id="path16" />
    </g>
    <path
       id="path18"
       d="m 1,101 h 400 v 40 H 1 Z"
       style="fill:#f5f5f5;fill-opacity:1;fill-rule:nonzero;stroke:#666666;stroke-width:1;stroke-linecap:butt;stroke-linejoin:miter;stroke-miterlimit:10;stroke-dasharray:none;stroke-opacity:1"
       transform="matrix(0.95659289,0,0,0.95659289,0.47829645,0.47829645)"
       clip-path="url(#clipPath19)" />
    <text
       id="text19"
       xml:space="preserve"
       transform="matrix(0.95660252,0,0,0.95660252,86.049386,122.44512)"
       clip-path="url(#clipPath20)"><tspan
         style="font-variant:normal;font-weight:normal;font-size:18px;font-family:Helvetica;writing-mode:lr-tb;fill:#333333;fill-opacity:1;fill-rule:nonzero;stroke:none"
         x="0 12.999023 16.998047 25.998047 34.998047 45.008789 51.00293 61.013672 66.014648 72.008789 76.007812 80.006836 90.017578 99.017578 104.01855 108.01758 118.02832 123.0293 133.04004 143.05078 152.05078 157.05176 162.05273 166.05176 176.0625 185.0625 190.06348 200.07422 206.06836 216.0791"
         y="0"
         sodipodi:role="line"
         id="tspan19">Discord (link in next lecture)</tspan></text>
    <g
       opacity="0.25"
       id="g22"
       clip-path="url(#clipPath23)">
      <path
         d="m 1,151 h 400 v 40 H 1 Z"
         style="fill:#000000;fill-opacity:1;fill-rule:nonzero;stroke:#000000;stroke-width:1;stroke-linecap:butt;stroke-linejoin:miter;stroke-miterlimit:10;stroke-dasharray:none;stroke-opacity:1"
         transform="matrix(0.95659289,0,0,0.95659289,2.3914823,3.3480767)"
         clip-path="url(#clipPath21)"
         id="path22" />
    </g>
    <path
       id="path24"
       d="m 1,151 h 400 v 40 H 1 Z"
       style="fill:#f5f5f5;fill-opacity:1;fill-rule:nonzero;stroke:#666666;stroke-width:1;stroke-linecap:butt;stroke-linejoin:miter;stroke-miterlimit:10;stroke-dasharray:none;stroke-opacity:1"
       transform="matrix(0.95659289,0,0,0.95659289,0.47829645,0.47829645)"
       clip-path="url(#clipPath25)" />
    <text
       id="text25"
       xml:space="preserve"
       transform="matrix(0.95660252,0,0,0.95660252,122.89353,170.27525)"
       clip-path="url(#clipPath26)"><tspan
         style="font-variant:normal;font-weight:normal;font-size:18px;font-family:Helvetica;writing-mode:lr-tb;fill:#333333;fill-opacity:1;fill-rule:nonzero;stroke:none"
         x="0 12.999023 27.993164 32.994141 47.988281 57.999023 63 73.010742 83.021484 88.022461 101.02148 111.03223 121.04297 136.03711"
         y="0"
         sodipodi:role="line"
         id="tspan25">DM me on Udemy</tspan></text>
  </g>
</svg>
