<?xml version="1.0" encoding="UTF-8" standalone="no"?>
<!-- Created with Inkscape (http://www.inkscape.org/) -->

<svg
   version="1.1"
   id="svg1"
   width="338.56"
   height="248"
   viewBox="0 0 338.56 248"
   sodipodi:docname="nest-6.pdf"
   xmlns:inkscape="http://www.inkscape.org/namespaces/inkscape"
   xmlns:sodipodi="http://sodipodi.sourceforge.net/DTD/sodipodi-0.dtd"
   xmlns="http://www.w3.org/2000/svg"
   xmlns:svg="http://www.w3.org/2000/svg">
  <defs
     id="defs1">
    <clipPath
       clipPathUnits="userSpaceOnUse"
       id="clipPath2">
      <path
         d="M 0,0 H 1058.3333 V 774.31726 H 0 Z"
         transform="scale(0.33448822)"
         clip-rule="evenodd"
         id="path2" />
    </clipPath>
    <clipPath
       clipPathUnits="userSpaceOnUse"
       id="clipPath4">
      <path
         d="M 0,0 H 1058.3333 V 768.33795 H 0 Z"
         transform="matrix(0.33448822,0,0,0.33448822,-0.49999999,-0.49999999)"
         clip-rule="evenodd"
         id="path4" />
    </clipPath>
    <clipPath
       clipPathUnits="userSpaceOnUse"
       id="clipPath6">
      <path
         d="M 0,0 H 1058.3333 V 768.33795 H 0 Z"
         transform="matrix(0.33448822,0,0,0.33448822,-0.49999999,-0.49999999)"
         clip-rule="evenodd"
         id="path6" />
    </clipPath>
    <clipPath
       clipPathUnits="userSpaceOnUse"
       id="clipPath8">
      <path
         d="M 0,0 H 1058.3333 V 768.33795 H 0 Z"
         transform="matrix(0.33448822,0,0,0.33448822,-0.49999999,-0.49999999)"
         clip-rule="evenodd"
         id="path8" />
    </clipPath>
    <clipPath
       clipPathUnits="userSpaceOnUse"
       id="clipPath9">
      <path
         d="M 0,0 H 1058.3333 V 768.33795 H 0 Z"
         transform="matrix(0.33448486,0,0,0.33448486,-19.015625,-48.999999)"
         clip-rule="evenodd"
         id="path9" />
    </clipPath>
    <clipPath
       clipPathUnits="userSpaceOnUse"
       id="clipPath11">
      <path
         d="M 0,0 H 1058.3333 V 768.33795 H 0 Z"
         transform="matrix(0.33448822,0,0,0.33448822,-0.49999999,-0.49999999)"
         clip-rule="evenodd"
         id="path11" />
    </clipPath>
    <clipPath
       clipPathUnits="userSpaceOnUse"
       id="clipPath12">
      <path
         d="M 0,0 H 1058.3333 V 768.33795 H 0 Z"
         transform="matrix(0.33448486,0,0,0.33448486,-30.234374,-135)"
         clip-rule="evenodd"
         id="path12" />
    </clipPath>
    <clipPath
       clipPathUnits="userSpaceOnUse"
       id="clipPath13">
      <path
         d="M 0,0 H 1058.3333 V 768.33795 H 0 Z"
         transform="matrix(0.33448486,0,0,0.33448486,-66.6875,-163)"
         clip-rule="evenodd"
         id="path13" />
    </clipPath>
    <clipPath
       clipPathUnits="userSpaceOnUse"
       id="clipPath14">
      <path
         d="M 0,0 H 1058.3333 V 768.33795 H 0 Z"
         transform="matrix(0.33448486,0,0,0.33448486,-59.546875,-212)"
         clip-rule="evenodd"
         id="path14" />
    </clipPath>
    <clipPath
       clipPathUnits="userSpaceOnUse"
       id="clipPath15">
      <path
         d="M 0,0 H 1058.3333 V 768.33795 H 0 Z"
         transform="matrix(0.33448486,0,0,0.33448486,-65.3125,-231)"
         clip-rule="evenodd"
         id="path15" />
    </clipPath>
    <clipPath
       clipPathUnits="userSpaceOnUse"
       id="clipPath16">
      <path
         d="M 0,0 H 1058.3333 V 768.33795 H 0 Z"
         transform="matrix(0.33448486,0,0,0.33448486,-128.04687,-250)"
         clip-rule="evenodd"
         id="path16" />
    </clipPath>
  </defs>
  <sodipodi:namedview
     id="namedview1"
     pagecolor="#ffffff"
     bordercolor="#000000"
     borderopacity="0.25"
     inkscape:showpageshadow="2"
     inkscape:pageopacity="0.0"
     inkscape:pagecheckerboard="0"
     inkscape:deskcolor="#d1d1d1">
    <inkscape:page
       x="0"
       y="0"
       inkscape:label="1"
       id="page1"
       width="338.56"
       height="248"
       margin="0"
       bleed="0" />
  </sodipodi:namedview>
  <g
     id="g1"
     inkscape:groupmode="layer"
     inkscape:label="1">
    <path
       id="path1"
       d="M 0,0 H 354 V 259 H 0 Z"
       style="fill:#ffffff;fill-opacity:1;fill-rule:nonzero;stroke:none"
       transform="scale(0.95668537)"
       clip-path="url(#clipPath2)" />
    <path
       id="path3"
       d="M 176,81 V 94.629997"
       style="fill:none;stroke:#000000;stroke-width:1;stroke-linecap:butt;stroke-linejoin:miter;stroke-miterlimit:10;stroke-dasharray:none;stroke-opacity:1"
       transform="matrix(0.95668537,0,0,0.95668537,0.47834268,0.47834268)"
       clip-path="url(#clipPath4)" />
    <path
       id="path5"
       d="m 176,99.879997 -3.5,-7 3.5,1.75 3.5,-1.75 z"
       style="fill:#000000;fill-opacity:1;fill-rule:nonzero;stroke:#000000;stroke-width:1;stroke-linecap:butt;stroke-linejoin:miter;stroke-miterlimit:10;stroke-dasharray:none;stroke-opacity:1"
       transform="matrix(0.95668537,0,0,0.95668537,0.47834268,0.47834268)"
       clip-path="url(#clipPath6)" />
    <path
       id="path7"
       d="M 1,1 H 351 V 81 H 1 Z"
       style="fill:#ffe6cc;fill-opacity:1;fill-rule:nonzero;stroke:#d79b00;stroke-width:1;stroke-linecap:butt;stroke-linejoin:miter;stroke-miterlimit:10;stroke-dasharray:none;stroke-opacity:1"
       transform="matrix(0.95668537,0,0,0.95668537,0.47834268,0.47834268)"
       clip-path="url(#clipPath8)" />
    <text
       id="text8"
       xml:space="preserve"
       transform="matrix(0.95669497,0,0,0.95669497,18.192153,46.878053)"
       clip-path="url(#clipPath9)"><tspan
         style="font-variant:normal;font-weight:700;font-size:23px;font-family:Helvetica;writing-mode:lr-tb;fill:#000000;fill-opacity:1;fill-rule:nonzero;stroke:none"
         x="0 16.609863 30.65918 38.318359 44.708496 52.367676 65.15918 85.609863 92 98.390137 104.78027 117.57178 126.52246 132.9126 150.80273 157.19287 164.85205 178.90137 185.2915 197.64502 210.43652 224.48584 237.27734 250.06885 262.86035 271.81104 278.20117 292.25049 299.90967"
         y="0"
         sodipodi:role="line"
         id="tspan8">Not familiar with Typescript?</tspan></text>
    <path
       id="path10"
       d="m 1,101 h 350 v 80 H 1 Z"
       style="fill:#ffffff;fill-opacity:1;fill-rule:nonzero;stroke:#000000;stroke-width:1;stroke-linecap:butt;stroke-linejoin:miter;stroke-miterlimit:10;stroke-dasharray:none;stroke-opacity:1"
       transform="matrix(0.95668537,0,0,0.95668537,0.47834268,0.47834268)"
       clip-path="url(#clipPath11)" />
    <text
       id="text11"
       xml:space="preserve"
       transform="matrix(0.95669497,0,0,0.95669497,28.925074,129.15382)"
       clip-path="url(#clipPath12)"><tspan
         style="font-variant:normal;font-weight:normal;font-size:23px;font-family:Helvetica;writing-mode:lr-tb;fill:#000000;fill-opacity:1;fill-rule:nonzero;stroke:none"
         x="0 16.609863 29.401367 42.192871 53.692871 65.192871 71.583008 84.374512 97.166016 103.55615 109.94629 116.33643 129.12793 141.91943 148.30957 161.10107 173.89258 186.68408 199.47559 212.26709 225.05859 230.16846 241.66846 248.05859 255.71777 260.82764 273.61914 285.11914"
         y="0"
         sodipodi:role="line"
         id="tspan11">Check out the appendix (last</tspan></text>
    <text
       id="text12"
       xml:space="preserve"
       transform="matrix(0.95669497,0,0,0.95669497,63.799596,155.94128)"
       clip-path="url(#clipPath13)"><tspan
         style="font-variant:normal;font-weight:normal;font-size:23px;font-family:Helvetica;writing-mode:lr-tb;fill:#000000;fill-opacity:1;fill-rule:nonzero;stroke:none"
         x="0 11.5 24.291504 35.791504 42.181641 47.291504 60.083008 72.874512 79.264648 84.374512 97.166016 103.55615 109.94629 122.73779 135.5293 141.91943 153.41943 166.21094 179.00244 186.66162 198.16162 210.95312"
         y="0"
         sodipodi:role="line"
         id="tspan12">section in the course)</tspan></text>
    <text
       id="text13"
       xml:space="preserve"
       transform="matrix(0.95669497,0,0,0.95669497,56.968196,202.81933)"
       clip-path="url(#clipPath14)"><tspan
         style="font-style:oblique;font-variant:normal;font-weight:normal;font-size:16px;font-family:Helvetica;writing-mode:lr-tb;fill:#000000;fill-opacity:1;fill-rule:nonzero;stroke:none"
         x="0 11.554688 20.453125 24.898438 33.796875 38.242188 42.6875 47.132812 51.578125 60.476562 73.804688 78.25 87.148438 95.148438 103.14844 112.04688 125.375 128.92969 137.82812 146.72656 151.17188 159.17188 168.07031 176.96875 181.41406 190.3125 193.86719 199.19531 208.09375 216.99219 225.89062"
         y="0"
         sodipodi:role="line"
         id="tspan13">Note: I am assuming you already</tspan></text>
    <text
       id="text14"
       xml:space="preserve"
       transform="matrix(0.95669497,0,0,0.95669497,62.48414,220.99654)"
       clip-path="url(#clipPath15)"><tspan
         style="font-style:oblique;font-variant:normal;font-weight:normal;font-size:16px;font-family:Helvetica;writing-mode:lr-tb;fill:#000000;fill-opacity:1;fill-rule:nonzero;stroke:none"
         x="0 8.8984375 17.796875 25.796875 34.695312 39.140625 50.695312 59.59375 68.492188 77.390625 81.835938 89.835938 100.50781 104.95312 108.50781 117.40625 125.40625 129.85156 138.75 142.30469 145.85938 154.75781 163.65625 168.10156 177 185.89844 194.79688 199.24219 208.14062 213.46875"
         y="0"
         sodipodi:role="line"
         id="tspan14">have Node JS installed and are</tspan></text>
    <text
       id="text15"
       xml:space="preserve"
       transform="matrix(0.95669497,0,0,0.95669497,122.5018,239.17374)"
       clip-path="url(#clipPath16)"><tspan
         style="font-style:oblique;font-variant:normal;font-weight:normal;font-size:16px;font-family:Helvetica;writing-mode:lr-tb;fill:#000000;fill-opacity:1;fill-rule:nonzero;stroke:none"
         x="0 4.4453125 13.34375 26.671875 30.226562 33.78125 37.335938 46.234375 51.5625 56.007812 67.5625 71.117188 75.5625 84.460938 88.90625 92.460938"
         y="0"
         sodipodi:role="line"
         id="tspan15">familiar with it</tspan></text>
  </g>
</svg>
