<?xml version="1.0" encoding="UTF-8" standalone="no"?>
<!-- Created with Inkscape (http://www.inkscape.org/) -->

<svg
   version="1.1"
   id="svg1"
   width="434.55997"
   height="170.56"
   viewBox="0 0 434.55997 170.56"
   sodipodi:docname="nest-8.pdf"
   xmlns:inkscape="http://www.inkscape.org/namespaces/inkscape"
   xmlns:sodipodi="http://sodipodi.sourceforge.net/DTD/sodipodi-0.dtd"
   xmlns="http://www.w3.org/2000/svg"
   xmlns:svg="http://www.w3.org/2000/svg">
  <defs
     id="defs1">
    <clipPath
       clipPathUnits="userSpaceOnUse"
       id="clipPath2">
      <path
         d="M 0,0 H 1358.3333 V 532.56238 H 0 Z"
         transform="scale(0.33423313)"
         clip-rule="evenodd"
         id="path2" />
    </clipPath>
    <clipPath
       clipPathUnits="userSpaceOnUse"
       id="clipPath4">
      <path
         d="M 0,0 H 1358.3333 V 526.57855 H 0 Z"
         transform="matrix(0.33423313,0,0,0.33423313,-0.49999999,-0.49999999)"
         clip-rule="evenodd"
         id="path4" />
    </clipPath>
    <clipPath
       clipPathUnits="userSpaceOnUse"
       id="clipPath5">
      <path
         d="M 0,0 H 1358.3333 V 526.57855 H 0 Z"
         transform="matrix(0.33422978,0,0,0.33422978,-79.71875,-59.000001)"
         clip-rule="evenodd"
         id="path5" />
    </clipPath>
    <clipPath
       clipPathUnits="userSpaceOnUse"
       id="clipPath6">
      <path
         d="M 0,0 H 1358.3333 V 526.57855 H 0 Z"
         transform="matrix(0.33422978,0,0,0.33422978,-117.85938,-22)"
         clip-rule="evenodd"
         id="path6" />
    </clipPath>
    <clipPath
       clipPathUnits="userSpaceOnUse"
       id="clipPath8">
      <path
         d="M 0,0 H 1358.3333 V 526.57855 H 0 Z"
         transform="matrix(0.33423313,0,0,0.33423313,-0.49999999,-0.49999999)"
         clip-rule="evenodd"
         id="path8" />
    </clipPath>
    <clipPath
       clipPathUnits="userSpaceOnUse"
       id="clipPath9">
      <path
         d="M 0,0 H 1358.3333 V 526.57855 H 0 Z"
         transform="matrix(0.33422978,0,0,0.33422978,-30.171875,-109)"
         clip-rule="evenodd"
         id="path9" />
    </clipPath>
    <clipPath
       clipPathUnits="userSpaceOnUse"
       id="clipPath11">
      <path
         d="M 0,0 H 1358.3333 V 526.57855 H 0 Z"
         transform="matrix(0.33423313,0,0,0.33423313,-0.49999999,-0.49999999)"
         clip-rule="evenodd"
         id="path11" />
    </clipPath>
    <clipPath
       clipPathUnits="userSpaceOnUse"
       id="clipPath12">
      <path
         d="M 0,0 H 1358.3333 V 526.57855 H 0 Z"
         transform="matrix(0.33422978,0,0,0.33422978,-23.234375,-159)"
         clip-rule="evenodd"
         id="path12" />
    </clipPath>
    <clipPath
       clipPathUnits="userSpaceOnUse"
       id="clipPath13">
      <path
         d="M 0,0 H 1358.3333 V 526.57855 H 0 Z"
         transform="matrix(0.33422978,0,0,0.33422978,-319.35938,-159)"
         clip-rule="evenodd"
         id="path13" />
    </clipPath>
    <clipPath
       clipPathUnits="userSpaceOnUse"
       id="clipPath14">
      <path
         d="M 0,0 H 1358.3333 V 526.57855 H 0 Z"
         transform="matrix(0.33422978,0,0,0.33422978,-335.375,-159)"
         clip-rule="evenodd"
         id="path14" />
    </clipPath>
  </defs>
  <sodipodi:namedview
     id="namedview1"
     pagecolor="#ffffff"
     bordercolor="#000000"
     borderopacity="0.25"
     inkscape:showpageshadow="2"
     inkscape:pageopacity="0.0"
     inkscape:pagecheckerboard="0"
     inkscape:deskcolor="#d1d1d1">
    <inkscape:page
       x="0"
       y="0"
       inkscape:label="1"
       id="page1"
       width="434.55997"
       height="170.56"
       margin="0"
       bleed="0" />
  </sodipodi:namedview>
  <g
     id="g1"
     inkscape:groupmode="layer"
     inkscape:label="1">
    <path
       id="path1"
       d="M 0,0 H 454 V 178 H 0 Z"
       style="fill:#ffffff;fill-opacity:1;fill-rule:nonzero;stroke:none"
       transform="scale(0.95741551)"
       clip-path="url(#clipPath2)" />
    <path
       id="path3"
       d="M 1,34 H 451 V 74 H 1 Z"
       style="fill:#ffffff;fill-opacity:1;fill-rule:nonzero;stroke:#000000;stroke-width:1;stroke-linecap:butt;stroke-linejoin:miter;stroke-miterlimit:10;stroke-dasharray:none;stroke-opacity:1"
       transform="matrix(0.95741551,0,0,0.95741551,0.47870775,0.47870775)"
       clip-path="url(#clipPath4)" />
    <g
       id="g4" />
    <text
       id="text4"
       xml:space="preserve"
       transform="matrix(0.95742511,0,0,0.95742511,76.324733,56.488082)"
       clip-path="url(#clipPath5)"><tspan
         style="font-variant:normal;font-weight:normal;font-size:16px;font-family:Helvetica;writing-mode:lr-tb;fill:#000000;fill-opacity:1;fill-rule:nonzero;stroke:none"
         x="0 9.7734375 18.671875 22.226562 30.226562 34.671875 42.671875 48 56 60.445312 64.890625 73.789062 79.117188 88.015625 91.570312 100.46875 108.46875 112.91406 117.35938 128.91406 132.46875 136.02344 139.57812 144.02344 152.92188 161.82031 166.26562 175.16406 179.60938 183.16406 186.71875 191.16406 195.60938 199.16406 208.0625 212.50781 221.40625 224.96094 229.40625 233.85156 238.29688 242.74219 247.1875 256.08594 264.98438 270.3125 279.21094 283.65625 288.10156"
         y="0"
         sodipodi:role="line"
         id="tspan4">This ﬁrst project will be a little bit....hard...</tspan></text>
    <text
       id="text5"
       xml:space="preserve"
       transform="matrix(0.95742511,0,0,0.95742511,112.84153,21.063352)"
       clip-path="url(#clipPath6)"><tspan
         style="font-variant:normal;font-weight:700;font-size:23px;font-family:Helvetica;writing-mode:lr-tb;fill:#000000;fill-opacity:1;fill-rule:nonzero;stroke:none"
         x="0 21.708496 35.757812 48.549316 54.939453 68.98877 77.939453 91.98877 112.43945 118.82959 134.17041 146.96191 155.9126 168.7041 176.36328 189.15479 203.2041"
         y="0"
         sodipodi:role="line"
         id="tspan5">Why From Scratch?</tspan></text>
    <path
       id="path7"
       d="m 1,84 h 450 v 40 H 1 Z"
       style="fill:#ffffff;fill-opacity:1;fill-rule:nonzero;stroke:#000000;stroke-width:1;stroke-linecap:butt;stroke-linejoin:miter;stroke-miterlimit:10;stroke-dasharray:none;stroke-opacity:1"
       transform="matrix(0.95741551,0,0,0.95741551,0.47870775,0.47870775)"
       clip-path="url(#clipPath8)" />
    <text
       id="text8"
       xml:space="preserve"
       transform="matrix(0.95742511,0,0,0.95742511,28.887311,104.35934)"
       clip-path="url(#clipPath9)"><tspan
         style="font-variant:normal;font-weight:normal;font-size:16px;font-family:Helvetica;writing-mode:lr-tb;fill:#000000;fill-opacity:1;fill-rule:nonzero;stroke:none"
         x="0 14.820312 23.71875 28.164062 37.0625 42.390625 51.289062 55.734375 64.632812 73.53125 77.085938 85.984375 94.882812 99.328125 103.77344 112.67188 117.11719 121.5625 130.46094 138.46094 147.35938 155.35938 159.80469 168.70312 177.60156 182.04688 190.04688 198.94531 212.27344 221.17188 225.61719 234.51562 243.41406 252.3125 255.86719 264.76562 273.66406 278.99219 283.4375 292.33594 301.23438 306.5625 314.5625 322.5625 331.46094 340.35938 349.25781 357.25781 361.70312 369.70312 374.14844 383.04688 387.21094"
         y="0"
         sodipodi:role="line"
         id="tspan8">We are going to focus on some behind-the-scenes stuff</tspan></text>
    <path
       id="path10"
       d="m 1,134 h 450 v 40 H 1 Z"
       style="fill:#ffffff;fill-opacity:1;fill-rule:nonzero;stroke:#000000;stroke-width:1;stroke-linecap:butt;stroke-linejoin:miter;stroke-miterlimit:10;stroke-dasharray:none;stroke-opacity:1"
       transform="matrix(0.95741551,0,0,0.95741551,0.47870775,0.47870775)"
       clip-path="url(#clipPath11)" />
    <text
       id="text11"
       xml:space="preserve"
       transform="matrix(0.95742511,0,0,0.95742511,22.245174,152.23059)"
       clip-path="url(#clipPath12)"><tspan
         style="font-variant:normal;font-weight:normal;font-size:16px;font-family:Helvetica;writing-mode:lr-tb;fill:#000000;fill-opacity:1;fill-rule:nonzero;stroke:none"
         x="0 11.554688 20.453125 29.351562 38.25 43.578125 51.578125 56.023438 64.921875 73.820312 82.71875 86.273438 95.171875 104.07031 108.51562 117.41406 126.3125 137.86719 142.3125 153.86719 162.76562 170.76562 175.21094 179.65625 191.21094 200.10938 205.4375 213.4375 221.4375 225.88281 237.4375 240.99219 244.54688 248.10156 252.54688 265.875 274.77344 282.77344 291.67188"
         y="0"
         sodipodi:role="line"
         id="tspan11">Understanding how Nest works will make </tspan></text>
    <text
       id="text12"
       xml:space="preserve"
       transform="matrix(0.95742511,0,0,0.95742511,305.76269,152.23059)"
       clip-path="url(#clipPath13)"><tspan
         style="font-style:oblique;font-variant:normal;font-weight:normal;font-size:16px;font-family:Helvetica;writing-mode:lr-tb;fill:#000000;fill-opacity:1;fill-rule:nonzero;stroke:none"
         x="0 8.8984375 12.453125"
         y="0"
         sodipodi:role="line"
         id="tspan12">all</tspan></text>
    <text
       id="text13"
       xml:space="preserve"
       transform="matrix(0.95742511,0,0,0.95742511,321.09645,152.23059)"
       clip-path="url(#clipPath14)"><tspan
         style="font-variant:normal;font-weight:normal;font-size:16px;font-family:Helvetica;writing-mode:lr-tb;fill:#000000;fill-opacity:1;fill-rule:nonzero;stroke:none"
         x="0 4.4453125 13.34375 17.789062 22.234375 33.789062 42.6875 50.6875 55.132812 59.578125 68.476562 77.375 85.375"
         y="0"
         sodipodi:role="line"
         id="tspan13"> of Nest easy</tspan></text>
  </g>
</svg>
