<?xml version="1.0" encoding="UTF-8" standalone="no"?>
<!-- Created with Inkscape (http://www.inkscape.org/) -->

<svg
   version="1.1"
   id="svg1"
   width="492.16"
   height="196.15999"
   viewBox="0 0 492.16 196.15999"
   sodipodi:docname="nest-7.pdf"
   xmlns:inkscape="http://www.inkscape.org/namespaces/inkscape"
   xmlns:sodipodi="http://sodipodi.sourceforge.net/DTD/sodipodi-0.dtd"
   xmlns="http://www.w3.org/2000/svg"
   xmlns:svg="http://www.w3.org/2000/svg">
  <defs
     id="defs1">
    <clipPath
       clipPathUnits="userSpaceOnUse"
       id="clipPath2">
      <path
         d="M 0,0 H 1537.5 V 610.21399 H 0 Z"
         transform="scale(0.33430896)"
         clip-rule="evenodd"
         id="path2" />
    </clipPath>
    <clipPath
       clipPathUnits="userSpaceOnUse"
       id="clipPath4">
      <path
         d="M 0,0 H 1537.5 V 610.21399 H 0 Z"
         transform="matrix(0.33430896,0,0,0.33430896,-0.50000001,-0.50000001)"
         clip-rule="evenodd"
         id="path4" />
    </clipPath>
    <clipPath
       clipPathUnits="userSpaceOnUse"
       id="clipPath5">
      <path
         d="M 0,0 H 1537.5 V 610.21399 H 0 Z"
         transform="matrix(0.3343056,0,0,0.3343056,-19.34375,-109)"
         clip-rule="evenodd"
         id="path5" />
    </clipPath>
    <clipPath
       clipPathUnits="userSpaceOnUse"
       id="clipPath7">
      <path
         d="M 0,0 H 1537.5 V 610.21399 H 0 Z"
         transform="matrix(0.33430896,0,0,0.33430896,-0.50000001,-0.50000001)"
         clip-rule="evenodd"
         id="path7" />
    </clipPath>
    <clipPath
       clipPathUnits="userSpaceOnUse"
       id="clipPath8">
      <path
         d="M 0,0 H 1537.5 V 610.21399 H 0 Z"
         transform="matrix(0.3343056,0,0,0.3343056,-197.15625,-38)"
         clip-rule="evenodd"
         id="path8" />
    </clipPath>
    <clipPath
       clipPathUnits="userSpaceOnUse"
       id="clipPath10">
      <path
         d="M 0,0 H 1537.5 V 610.21399 H 0 Z"
         transform="matrix(0.33430896,0,0,0.33430896,-0.50000001,-0.50000001)"
         clip-rule="evenodd"
         id="path10" />
    </clipPath>
    <clipPath
       clipPathUnits="userSpaceOnUse"
       id="clipPath11">
      <path
         d="M 0,0 H 1537.5 V 610.21399 H 0 Z"
         transform="matrix(0.3343056,0,0,0.3343056,-187.0625,-108)"
         clip-rule="evenodd"
         id="path11" />
    </clipPath>
    <clipPath
       clipPathUnits="userSpaceOnUse"
       id="clipPath13">
      <path
         d="M 0,0 H 1537.5 V 610.21399 H 0 Z"
         transform="matrix(0.33430896,0,0,0.33430896,-0.50000001,-0.50000001)"
         clip-rule="evenodd"
         id="path13" />
    </clipPath>
    <clipPath
       clipPathUnits="userSpaceOnUse"
       id="clipPath14">
      <path
         d="M 0,0 H 1537.5 V 610.21399 H 0 Z"
         transform="matrix(0.3343056,0,0,0.3343056,-197.4375,-167)"
         clip-rule="evenodd"
         id="path14" />
    </clipPath>
    <clipPath
       clipPathUnits="userSpaceOnUse"
       id="clipPath15">
      <path
         d="M 0,0 H 1537.5 V 610.21399 H 0 Z"
         transform="matrix(0.3343056,0,0,0.3343056,-458.5625,-167)"
         clip-rule="evenodd"
         id="path15" />
    </clipPath>
    <clipPath
       clipPathUnits="userSpaceOnUse"
       id="clipPath16">
      <path
         d="M 0,0 H 1537.5 V 610.21399 H 0 Z"
         transform="matrix(0.3343056,0,0,0.3343056,-316.98438,-189)"
         clip-rule="evenodd"
         id="path16" />
    </clipPath>
    <clipPath
       clipPathUnits="userSpaceOnUse"
       id="clipPath18">
      <path
         d="M 0,0 H 1537.5 V 610.21399 H 0 Z"
         transform="matrix(0.33430896,0,0,0.33430896,-0.50000001,-0.50000001)"
         clip-rule="evenodd"
         id="path18" />
    </clipPath>
  </defs>
  <sodipodi:namedview
     id="namedview1"
     pagecolor="#ffffff"
     bordercolor="#000000"
     borderopacity="0.25"
     inkscape:showpageshadow="2"
     inkscape:pageopacity="0.0"
     inkscape:pagecheckerboard="0"
     inkscape:deskcolor="#d1d1d1">
    <inkscape:page
       x="0"
       y="0"
       inkscape:label="1"
       id="page1"
       width="492.16"
       height="196.15999"
       margin="0"
       bleed="0" />
  </sodipodi:namedview>
  <g
     id="g1"
     inkscape:groupmode="layer"
     inkscape:label="1">
    <path
       id="path1"
       d="M 0,0 H 514 V 204 H 0 Z"
       style="fill:#ffffff;fill-opacity:1;fill-rule:nonzero;stroke:none"
       transform="scale(0.95719836)"
       clip-path="url(#clipPath2)" />
    <path
       id="path3"
       d="m 1,66 h 130 v 70 H 1 Z"
       style="fill:#dae8fc;fill-opacity:1;fill-rule:nonzero;stroke:#6c8ebf;stroke-width:1;stroke-linecap:butt;stroke-linejoin:miter;stroke-miterlimit:10;stroke-dasharray:none;stroke-opacity:1"
       transform="matrix(0.95719836,0,0,0.95719836,0.47859919,0.47859919)"
       clip-path="url(#clipPath4)" />
    <text
       id="text4"
       xml:space="preserve"
       transform="matrix(0.95720799,0,0,0.95720799,18.515992,104.33567)"
       clip-path="url(#clipPath5)"><tspan
         style="font-variant:normal;font-weight:700;font-size:23px;font-family:Helvetica;writing-mode:lr-tb;fill:#000000;fill-opacity:1;fill-rule:nonzero;stroke:none"
         x="0 16.609863 29.401367 42.192871 49.852051 56.242188 72.852051 86.901367"
         y="0"
         sodipodi:role="line"
         id="tspan4">Nest CLI</tspan></text>
    <path
       id="path6"
       d="M 181,1 H 511 V 61 H 181 Z"
       style="fill:#ffffff;fill-opacity:1;fill-rule:nonzero;stroke:#000000;stroke-width:1;stroke-linecap:butt;stroke-linejoin:miter;stroke-miterlimit:10;stroke-dasharray:none;stroke-opacity:1"
       transform="matrix(0.95719836,0,0,0.95719836,0.47859919,0.47859919)"
       clip-path="url(#clipPath7)" />
    <text
       id="text7"
       xml:space="preserve"
       transform="matrix(0.95720799,0,0,0.95720799,188.71954,36.373904)"
       clip-path="url(#clipPath8)"><tspan
         style="font-variant:normal;font-weight:normal;font-size:18px;font-family:Helvetica;writing-mode:lr-tb;fill:#000000;fill-opacity:1;fill-rule:nonzero;stroke:none"
         x="0 9 19.010742 29.021484 33.020508 38.021484 43.022461 53.033203 59.027344 64.02832 74.039062 84.049805 94.060547 104.07129 110.06543 120.07617 125.07715 129.07617 139.08691 149.09766 154.09863 164.61035 169.61133 175.60547 185.61621 195.62695 205.6377 209.63672 219.64746 229.6582 234.65918 244.66992 250.66406 260.6748 264.67383 274.68457 283.68457 288.68555"
         y="0"
         sodipodi:role="line"
         id="tspan7">Tool for generating + running projects</tspan></text>
    <path
       id="path9"
       d="m 181,71 h 330 v 60 H 181 Z"
       style="fill:#ffffff;fill-opacity:1;fill-rule:nonzero;stroke:#000000;stroke-width:1;stroke-linecap:butt;stroke-linejoin:miter;stroke-miterlimit:10;stroke-dasharray:none;stroke-opacity:1"
       transform="matrix(0.95719836,0,0,0.95719836,0.47859919,0.47859919)"
       clip-path="url(#clipPath10)" />
    <text
       id="text10"
       xml:space="preserve"
       transform="matrix(0.95720799,0,0,0.95720799,179.05772,103.37846)"
       clip-path="url(#clipPath11)"><tspan
         style="font-variant:normal;font-weight:normal;font-size:18px;font-family:Helvetica;writing-mode:lr-tb;fill:#000000;fill-opacity:1;fill-rule:nonzero;stroke:none"
         x="0 16.672852 26.683594 31.68457 44.683594 48.682617 52.681641 56.680664 61.681641 71.692383 80.692383 90.703125 95.704102 100.70508 110.71582 114.71484 123.71484 128.71582 138.72656 148.7373 158.74805 163.74902 167.74805 177.75879 187.76953 193.76367 203.77441 208.77539 218.78613 223.78711 228.78809 238.79883 248.80957 253.81055 263.82129 273.83203 283.84277 293.85352 298.85449 303.85547 307.85449 312.85547"
         y="0"
         sodipodi:role="line"
         id="tspan10">We will use this and learn a ton about it!</tspan></text>
    <path
       id="path12"
       d="m 181,141 h 330 v 60 H 181 Z"
       style="fill:#ffffff;fill-opacity:1;fill-rule:nonzero;stroke:#000000;stroke-width:1;stroke-linecap:butt;stroke-linejoin:miter;stroke-miterlimit:10;stroke-dasharray:none;stroke-opacity:1"
       transform="matrix(0.95719836,0,0,0.95719836,0.47859919,0.47859919)"
       clip-path="url(#clipPath13)" />
    <text
       id="text13"
       xml:space="preserve"
       transform="matrix(0.95720799,0,0,0.95720799,188.98875,159.85373)"
       clip-path="url(#clipPath14)"><tspan
         style="font-variant:normal;font-weight:normal;font-size:18px;font-family:Helvetica;writing-mode:lr-tb;fill:#000000;fill-opacity:1;fill-rule:nonzero;stroke:none"
         x="0 10.995117 21.005859 27 32.000977 42.011719 52.022461 64.037109 69.038086 74.039062 87.038086 97.048828 102.0498 115.04883 119.04785 123.04688 127.0459 132.04688 141.04688 147.04102 157.05176 167.0625 172.06348 182.07422 187.0752 197.08594 202.08691 212.09766 218.0918 228.10254 232.10156 242.1123 251.1123 256.11328"
         y="0"
         sodipodi:role="line"
         id="tspan13">For now, we will create a project </tspan></text>
    <text
       id="text14"
       xml:space="preserve"
       transform="matrix(0.95720799,0,0,0.95720799,438.93969,159.85373)"
       clip-path="url(#clipPath15)"><tspan
         style="font-style:oblique;font-variant:normal;font-weight:normal;font-size:18px;font-family:Helvetica;writing-mode:lr-tb;fill:#000000;fill-opacity:1;fill-rule:nonzero;stroke:none"
         x="0 5.0009766 10.995117 21.005859"
         y="0"
         sodipodi:role="line"
         id="tspan14">from</tspan></text>
    <text
       id="text15"
       xml:space="preserve"
       transform="matrix(0.95720799,0,0,0.95720799,303.41998,180.91231)"
       clip-path="url(#clipPath16)"><tspan
         style="font-style:oblique;font-variant:normal;font-weight:normal;font-size:18px;font-family:Helvetica;writing-mode:lr-tb;fill:#000000;fill-opacity:1;fill-rule:nonzero;stroke:none"
         x="0 9 18 23.994141 34.004883 39.005859 48.005859"
         y="0"
         sodipodi:role="line"
         id="tspan15">scratch</tspan></text>
    <path
       id="path17"
       d="m 171,1 h -10 c -6.66667,0 -10,3.333333 -10,10 v 80 c 0,6.666664 -3.33333,10 -10,10 h -5 c -3.33333,0 -1.66667,0 5,0 h 5 c 3.33333,0 5,3.33334 5,10 v 80 c 0,6.66667 3.33333,10 10,10 h 10"
       style="fill:none;stroke:#000000;stroke-width:1;stroke-linecap:butt;stroke-linejoin:miter;stroke-miterlimit:10;stroke-dasharray:none;stroke-opacity:1"
       transform="matrix(0.95719836,0,0,0.95719836,0.47859919,0.47859919)"
       clip-path="url(#clipPath18)" />
  </g>
</svg>
