<?xml version="1.0" encoding="UTF-8" standalone="no"?>
<!-- Created with Inkscape (http://www.inkscape.org/) -->

<svg
   version="1.1"
   id="svg1"
   width="473.28"
   height="226.56"
   viewBox="0 0 473.28 226.56"
   sodipodi:docname="nest-5.pdf"
   xmlns:inkscape="http://www.inkscape.org/namespaces/inkscape"
   xmlns:sodipodi="http://sodipodi.sourceforge.net/DTD/sodipodi-0.dtd"
   xmlns="http://www.w3.org/2000/svg"
   xmlns:svg="http://www.w3.org/2000/svg">
  <defs
     id="defs1">
    <clipPath
       clipPathUnits="userSpaceOnUse"
       id="clipPath2">
      <path
         d="M 0,0 H 1479.1666 V 706.64636 H 0 Z"
         transform="scale(0.33397184)"
         clip-rule="evenodd"
         id="path2" />
    </clipPath>
    <clipPath
       clipPathUnits="userSpaceOnUse"
       id="clipPath4">
      <path
         d="M 0,0 H 1479.1666 V 703.6521 H 0 Z"
         transform="matrix(0.33397184,0,0,0.33397184,-0.49999999,-0.49999999)"
         clip-rule="evenodd"
         id="path4" />
    </clipPath>
    <clipPath
       clipPathUnits="userSpaceOnUse"
       id="clipPath5">
      <path
         d="M 0,0 H 1479.1666 V 703.6521 H 0 Z"
         transform="matrix(0.3339685,0,0,0.3339685,-413.53125,-143)"
         clip-rule="evenodd"
         id="path5" />
    </clipPath>
    <clipPath
       clipPathUnits="userSpaceOnUse"
       id="clipPath7">
      <path
         d="M 0,0 H 1479.1666 V 703.6521 H 0 Z"
         transform="matrix(0.33397184,0,0,0.33397184,-0.49999999,-0.49999999)"
         clip-rule="evenodd"
         id="path7" />
    </clipPath>
    <clipPath
       clipPathUnits="userSpaceOnUse"
       id="clipPath8">
      <path
         d="M 0,0 H 1479.1666 V 703.6521 H 0 Z"
         transform="matrix(0.3339685,0,0,0.3339685,-225.85938,-67.999999)"
         clip-rule="evenodd"
         id="path8" />
    </clipPath>
    <clipPath
       clipPathUnits="userSpaceOnUse"
       id="clipPath10">
      <path
         d="M 0,0 H 1479.1666 V 703.6521 H 0 Z"
         transform="matrix(0.33397184,0,0,0.33397184,-0.49999999,-0.49999999)"
         clip-rule="evenodd"
         id="path10" />
    </clipPath>
    <clipPath
       clipPathUnits="userSpaceOnUse"
       id="clipPath12">
      <path
         d="M 0,0 H 1479.1666 V 703.6521 H 0 Z"
         transform="matrix(0.33397184,0,0,0.33397184,-0.49999999,-0.49999999)"
         clip-rule="evenodd"
         id="path12" />
    </clipPath>
    <clipPath
       clipPathUnits="userSpaceOnUse"
       id="clipPath14">
      <path
         d="M 0,0 H 1479.1666 V 703.6521 H 0 Z"
         transform="matrix(0.33397184,0,0,0.33397184,-0.49999999,-0.49999999)"
         clip-rule="evenodd"
         id="path14" />
    </clipPath>
    <clipPath
       clipPathUnits="userSpaceOnUse"
       id="clipPath15">
      <path
         d="M 0,0 H 1479.1666 V 703.6521 H 0 Z"
         transform="matrix(0.3339685,0,0,0.3339685,-57.093749,-67.999999)"
         clip-rule="evenodd"
         id="path15" />
    </clipPath>
    <clipPath
       clipPathUnits="userSpaceOnUse"
       id="clipPath16">
      <path
         d="M 0,0 H 1479.1666 V 703.6521 H 0 Z"
         transform="matrix(0.3339685,0,0,0.3339685,-51.3125,-14)"
         clip-rule="evenodd"
         id="path16" />
    </clipPath>
    <clipPath
       clipPathUnits="userSpaceOnUse"
       id="clipPath17">
      <path
         d="M 0,0 H 1479.1666 V 703.6521 H 0 Z"
         transform="matrix(0.3339685,0,0,0.3339685,-49.078125,-34)"
         clip-rule="evenodd"
         id="path17" />
    </clipPath>
    <clipPath
       clipPathUnits="userSpaceOnUse"
       id="clipPath18">
      <path
         d="M 0,0 H 1479.1666 V 703.6521 H 0 Z"
         transform="matrix(0.3339685,0,0,0.3339685,-225.57813,-14)"
         clip-rule="evenodd"
         id="path18" />
    </clipPath>
    <clipPath
       clipPathUnits="userSpaceOnUse"
       id="clipPath19">
      <path
         d="M 0,0 H 1479.1666 V 703.6521 H 0 Z"
         transform="matrix(0.3339685,0,0,0.3339685,-216.26563,-34)"
         clip-rule="evenodd"
         id="path19" />
    </clipPath>
    <clipPath
       clipPathUnits="userSpaceOnUse"
       id="clipPath21">
      <path
         d="M 0,0 H 1479.1666 V 703.6521 H 0 Z"
         transform="matrix(0.33397184,0,0,0.33397184,-0.49999999,-0.49999999)"
         clip-rule="evenodd"
         id="path21" />
    </clipPath>
    <clipPath
       clipPathUnits="userSpaceOnUse"
       id="clipPath23">
      <path
         d="M 0,0 H 1479.1666 V 703.6521 H 0 Z"
         transform="matrix(0.33397184,0,0,0.33397184,-0.49999999,-0.49999999)"
         clip-rule="evenodd"
         id="path23" />
    </clipPath>
    <clipPath
       clipPathUnits="userSpaceOnUse"
       id="clipPath25">
      <path
         d="M 0,0 H 1479.1666 V 703.6521 H 0 Z"
         transform="matrix(0.33397184,0,0,0.33397184,-0.49999999,-0.49999999)"
         clip-rule="evenodd"
         id="path25" />
    </clipPath>
    <clipPath
       clipPathUnits="userSpaceOnUse"
       id="clipPath26">
      <path
         d="M 0,0 H 1479.1666 V 703.6521 H 0 Z"
         transform="matrix(0.3339685,0,0,0.3339685,-208.0625,-118)"
         clip-rule="evenodd"
         id="path26" />
    </clipPath>
    <clipPath
       clipPathUnits="userSpaceOnUse"
       id="clipPath28">
      <path
         d="M 0,0 H 1479.1666 V 703.6521 H 0 Z"
         transform="matrix(0.33397184,0,0,0.33397184,-0.49999999,-0.49999999)"
         clip-rule="evenodd"
         id="path28" />
    </clipPath>
    <clipPath
       clipPathUnits="userSpaceOnUse"
       id="clipPath30">
      <path
         d="M 0,0 H 1479.1666 V 703.6521 H 0 Z"
         transform="matrix(0.33397184,0,0,0.33397184,-0.49999999,-0.49999999)"
         clip-rule="evenodd"
         id="path30" />
    </clipPath>
    <clipPath
       clipPathUnits="userSpaceOnUse"
       id="clipPath32">
      <path
         d="M 0,0 H 1479.1666 V 703.6521 H 0 Z"
         transform="matrix(0.33397184,0,0,0.33397184,-0.49999999,-0.49999999)"
         clip-rule="evenodd"
         id="path32" />
    </clipPath>
    <clipPath
       clipPathUnits="userSpaceOnUse"
       id="clipPath33">
      <path
         d="M 0,0 H 1479.1666 V 703.6521 H 0 Z"
         transform="matrix(0.3339685,0,0,0.3339685,-39.3125,-118)"
         clip-rule="evenodd"
         id="path33" />
    </clipPath>
    <clipPath
       clipPathUnits="userSpaceOnUse"
       id="clipPath35">
      <path
         d="M 0,0 H 1479.1666 V 703.6521 H 0 Z"
         transform="matrix(0.33397184,0,0,0.33397184,-0.49999999,-0.49999999)"
         clip-rule="evenodd"
         id="path35" />
    </clipPath>
    <clipPath
       clipPathUnits="userSpaceOnUse"
       id="clipPath37">
      <path
         d="M 0,0 H 1479.1666 V 703.6521 H 0 Z"
         transform="matrix(0.33397184,0,0,0.33397184,-0.49999999,-0.49999999)"
         clip-rule="evenodd"
         id="path37" />
    </clipPath>
    <clipPath
       clipPathUnits="userSpaceOnUse"
       id="clipPath39">
      <path
         d="M 0,0 H 1479.1666 V 703.6521 H 0 Z"
         transform="matrix(0.33397184,0,0,0.33397184,-0.49999999,-0.49999999)"
         clip-rule="evenodd"
         id="path39" />
    </clipPath>
    <clipPath
       clipPathUnits="userSpaceOnUse"
       id="clipPath40">
      <path
         d="M 0,0 H 1479.1666 V 703.6521 H 0 Z"
         transform="matrix(0.3339685,0,0,0.3339685,-217.39063,-168)"
         clip-rule="evenodd"
         id="path40" />
    </clipPath>
    <clipPath
       clipPathUnits="userSpaceOnUse"
       id="clipPath42">
      <path
         d="M 0,0 H 1479.1666 V 703.6521 H 0 Z"
         transform="matrix(0.33397184,0,0,0.33397184,-0.49999999,-0.49999999)"
         clip-rule="evenodd"
         id="path42" />
    </clipPath>
    <clipPath
       clipPathUnits="userSpaceOnUse"
       id="clipPath44">
      <path
         d="M 0,0 H 1479.1666 V 703.6521 H 0 Z"
         transform="matrix(0.33397184,0,0,0.33397184,-0.49999999,-0.49999999)"
         clip-rule="evenodd"
         id="path44" />
    </clipPath>
    <clipPath
       clipPathUnits="userSpaceOnUse"
       id="clipPath46">
      <path
         d="M 0,0 H 1479.1666 V 703.6521 H 0 Z"
         transform="matrix(0.33397184,0,0,0.33397184,-0.49999999,-0.49999999)"
         clip-rule="evenodd"
         id="path46" />
    </clipPath>
    <clipPath
       clipPathUnits="userSpaceOnUse"
       id="clipPath47">
      <path
         d="M 0,0 H 1479.1666 V 703.6521 H 0 Z"
         transform="matrix(0.3339685,0,0,0.3339685,-48.640624,-168)"
         clip-rule="evenodd"
         id="path47" />
    </clipPath>
    <clipPath
       clipPathUnits="userSpaceOnUse"
       id="clipPath49">
      <path
         d="M 0,0 H 1479.1666 V 703.6521 H 0 Z"
         transform="matrix(0.33397184,0,0,0.33397184,-0.49999999,-0.49999999)"
         clip-rule="evenodd"
         id="path49" />
    </clipPath>
    <clipPath
       clipPathUnits="userSpaceOnUse"
       id="clipPath51">
      <path
         d="M 0,0 H 1479.1666 V 703.6521 H 0 Z"
         transform="matrix(0.33397184,0,0,0.33397184,-0.49999999,-0.49999999)"
         clip-rule="evenodd"
         id="path51" />
    </clipPath>
    <clipPath
       clipPathUnits="userSpaceOnUse"
       id="clipPath53">
      <path
         d="M 0,0 H 1479.1666 V 703.6521 H 0 Z"
         transform="matrix(0.33397184,0,0,0.33397184,-0.49999999,-0.49999999)"
         clip-rule="evenodd"
         id="path53" />
    </clipPath>
    <clipPath
       clipPathUnits="userSpaceOnUse"
       id="clipPath54">
      <path
         d="M 0,0 H 1479.1666 V 703.6521 H 0 Z"
         transform="matrix(0.3339685,0,0,0.3339685,-224.0625,-218)"
         clip-rule="evenodd"
         id="path54" />
    </clipPath>
    <clipPath
       clipPathUnits="userSpaceOnUse"
       id="clipPath56">
      <path
         d="M 0,0 H 1479.1666 V 703.6521 H 0 Z"
         transform="matrix(0.33397184,0,0,0.33397184,-0.49999999,-0.49999999)"
         clip-rule="evenodd"
         id="path56" />
    </clipPath>
    <clipPath
       clipPathUnits="userSpaceOnUse"
       id="clipPath58">
      <path
         d="M 0,0 H 1479.1666 V 703.6521 H 0 Z"
         transform="matrix(0.33397184,0,0,0.33397184,-0.49999999,-0.49999999)"
         clip-rule="evenodd"
         id="path58" />
    </clipPath>
    <clipPath
       clipPathUnits="userSpaceOnUse"
       id="clipPath60">
      <path
         d="M 0,0 H 1479.1666 V 703.6521 H 0 Z"
         transform="matrix(0.33397184,0,0,0.33397184,-0.49999999,-0.49999999)"
         clip-rule="evenodd"
         id="path60" />
    </clipPath>
    <clipPath
       clipPathUnits="userSpaceOnUse"
       id="clipPath61">
      <path
         d="M 0,0 H 1479.1666 V 703.6521 H 0 Z"
         transform="matrix(0.3339685,0,0,0.3339685,-55.3125,-218)"
         clip-rule="evenodd"
         id="path61" />
    </clipPath>
    <clipPath
       clipPathUnits="userSpaceOnUse"
       id="clipPath63">
      <path
         d="M 0,0 H 1479.1666 V 703.6521 H 0 Z"
         transform="matrix(0.33397184,0,0,0.33397184,-0.49999999,-0.49999999)"
         clip-rule="evenodd"
         id="path63" />
    </clipPath>
    <clipPath
       clipPathUnits="userSpaceOnUse"
       id="clipPath65">
      <path
         d="M 0,0 H 1479.1666 V 703.6521 H 0 Z"
         transform="matrix(0.33397184,0,0,0.33397184,-0.49999999,-0.49999999)"
         clip-rule="evenodd"
         id="path65" />
    </clipPath>
  </defs>
  <sodipodi:namedview
     id="namedview1"
     pagecolor="#ffffff"
     bordercolor="#000000"
     borderopacity="0.25"
     inkscape:showpageshadow="2"
     inkscape:pageopacity="0.0"
     inkscape:pagecheckerboard="0"
     inkscape:deskcolor="#d1d1d1">
    <inkscape:page
       x="0"
       y="0"
       inkscape:label="1"
       id="page1"
       width="473.28"
       height="226.56"
       margin="0"
       bleed="0" />
  </sodipodi:namedview>
  <g
     id="g1"
     inkscape:groupmode="layer"
     inkscape:label="1">
    <path
       id="path1"
       d="M 0,0 H 494 V 236 H 0 Z"
       style="fill:#ffffff;fill-opacity:1;fill-rule:nonzero;stroke:none"
       transform="scale(0.95816457)"
       clip-path="url(#clipPath2)" />
    <path
       id="path3"
       d="m 401,43 h 90 v 190 h -90 z"
       style="fill:#f5f5f5;fill-opacity:1;fill-rule:nonzero;stroke:#666666;stroke-width:1;stroke-linecap:butt;stroke-linejoin:miter;stroke-miterlimit:10;stroke-dasharray:none;stroke-opacity:1"
       transform="matrix(0.95816457,0,0,0.95816457,0.47908228,0.47908228)"
       clip-path="url(#clipPath4)" />
    <text
       id="text4"
       xml:space="preserve"
       transform="matrix(0.95817417,0,0,0.95817417,396.23496,137.01891)"
       clip-path="url(#clipPath5)"><tspan
         style="font-variant:normal;font-weight:normal;font-size:16px;font-family:Helvetica;writing-mode:lr-tb;fill:#333333;fill-opacity:1;fill-rule:nonzero;stroke:none"
         x="0 11.554688 20.453125 28.453125 32.898438 36.46875 47.140625 56.039062"
         y="0"
         sodipodi:role="line"
         id="tspan4">Nest App</tspan></text>
    <path
       id="path6"
       d="M 201,43 H 371 V 83 H 201 Z"
       style="fill:#dae8fc;fill-opacity:1;fill-rule:nonzero;stroke:#6c8ebf;stroke-width:1;stroke-linecap:butt;stroke-linejoin:miter;stroke-miterlimit:10;stroke-dasharray:none;stroke-opacity:1"
       transform="matrix(0.95816457,0,0,0.95816457,0.47908228,0.47908228)"
       clip-path="url(#clipPath7)" />
    <text
       id="text7"
       xml:space="preserve"
       transform="matrix(0.95817417,0,0,0.95817417,216.41262,65.155843)"
       clip-path="url(#clipPath8)"><tspan
         style="font-variant:normal;font-weight:normal;font-size:16px;font-family:Helvetica;writing-mode:lr-tb;fill:#000000;fill-opacity:1;fill-rule:nonzero;stroke:none"
         x="0 16.242188 25.140625 34.039062 42.039062 46.484375 50.039062 58.039062 62.484375 66.929688 74.929688 83.828125 92.726562 101.625 106.95312"
         y="0"
         sodipodi:role="line"
         id="tspan7">@nestjs/typeorm</tspan></text>
    <path
       id="path9"
       d="m 171,63 h 20 -10 13.63"
       style="fill:none;stroke:#000000;stroke-width:1;stroke-linecap:butt;stroke-linejoin:miter;stroke-miterlimit:10;stroke-dasharray:none;stroke-opacity:1"
       transform="matrix(0.95816457,0,0,0.95816457,0.47908228,0.47908228)"
       clip-path="url(#clipPath10)" />
    <path
       id="path11"
       d="m 199.88,63 -7,3.5 1.75,-3.5 -1.75,-3.5 z"
       style="fill:#000000;fill-opacity:1;fill-rule:nonzero;stroke:#000000;stroke-width:1;stroke-linecap:butt;stroke-linejoin:miter;stroke-miterlimit:10;stroke-dasharray:none;stroke-opacity:1"
       transform="matrix(0.95816457,0,0,0.95816457,0.47908228,0.47908228)"
       clip-path="url(#clipPath12)" />
    <path
       id="path13"
       d="M 1,43 H 171 V 83 H 1 Z"
       style="fill:#d5e8d4;fill-opacity:1;fill-rule:nonzero;stroke:#82b366;stroke-width:1;stroke-linecap:butt;stroke-linejoin:miter;stroke-miterlimit:10;stroke-dasharray:none;stroke-opacity:1"
       transform="matrix(0.95816457,0,0,0.95816457,0.47908228,0.47908228)"
       clip-path="url(#clipPath14)" />
    <text
       id="text14"
       xml:space="preserve"
       transform="matrix(0.95817417,0,0,0.95817417,54.705756,65.155843)"
       clip-path="url(#clipPath15)"><tspan
         style="font-variant:normal;font-weight:normal;font-size:16px;font-family:Helvetica;writing-mode:lr-tb;fill:#000000;fill-opacity:1;fill-rule:nonzero;stroke:none"
         x="0 4.4453125 12.445312 21.34375 30.242188 39.140625 44.46875"
         y="0"
         sodipodi:role="line"
         id="tspan14">typeorm</tspan></text>
    <text
       id="text15"
       xml:space="preserve"
       transform="matrix(0.95817417,0,0,0.95817417,49.166312,13.414438)"
       clip-path="url(#clipPath16)"><tspan
         style="font-variant:normal;font-weight:700;font-size:16px;font-family:Helvetica;writing-mode:lr-tb;fill:#000000;fill-opacity:1;fill-rule:nonzero;stroke:none"
         x="0 8.8984375 15.125 24.898438 29.34375 40.015625 48.914062 55.140625 60.46875"
         y="0"
         sodipodi:role="line"
         id="tspan15">3rd Party</tspan></text>
    <text
       id="text16"
       xml:space="preserve"
       transform="matrix(0.95817417,0,0,0.95817417,47.025392,32.577922)"
       clip-path="url(#clipPath17)"><tspan
         style="font-variant:normal;font-weight:700;font-size:16px;font-family:Helvetica;writing-mode:lr-tb;fill:#000000;fill-opacity:1;fill-rule:nonzero;stroke:none"
         x="0 10.671875 19.570312 28.46875 37.367188 46.265625 56.039062 64.9375"
         y="0"
         sodipodi:role="line"
         id="tspan16">Packages</tspan></text>
    <text
       id="text17"
       xml:space="preserve"
       transform="matrix(0.95817417,0,0,0.95817417,216.14314,13.414438)"
       clip-path="url(#clipPath18)"><tspan
         style="font-variant:normal;font-weight:700;font-size:16px;font-family:Helvetica;writing-mode:lr-tb;fill:#000000;fill-opacity:1;fill-rule:nonzero;stroke:none"
         x="0 10.671875 19.570312 28.46875 37.367188 46.265625 56.039062 64.9375 69.382812 74.710938 84.484375 88.929688 98.703125 107.60156 112.04688"
         y="0"
         sodipodi:role="line"
         id="tspan17">Package to help</tspan></text>
    <text
       id="text18"
       xml:space="preserve"
       transform="matrix(0.95817417,0,0,0.95817417,207.22014,32.577922)"
       clip-path="url(#clipPath19)"><tspan
         style="font-variant:normal;font-weight:700;font-size:16px;font-family:Helvetica;writing-mode:lr-tb;fill:#000000;fill-opacity:1;fill-rule:nonzero;stroke:none"
         x="0 4.4453125 14.21875 19.546875 28.445312 38.21875 44.445312 53.34375 58.671875 67.570312 72.015625 76.460938 86.234375 91.5625 101.33594 105.78125 117.33594 126.23438 135.13281"
         y="0"
         sodipodi:role="line"
         id="tspan18">integrate into Nest</tspan></text>
    <path
       id="path20"
       d="m 371,62.799999 h 23.64001"
       style="fill:none;stroke:#000000;stroke-width:1;stroke-linecap:butt;stroke-linejoin:miter;stroke-miterlimit:10;stroke-dasharray:none;stroke-opacity:1"
       transform="matrix(0.95816457,0,0,0.95816457,0.47908228,0.47908228)"
       clip-path="url(#clipPath21)" />
    <path
       id="path22"
       d="m 399.89001,62.799999 -7,3.500004 1.75,-3.500004 -1.75,-3.5 z"
       style="fill:#000000;fill-opacity:1;fill-rule:nonzero;stroke:#000000;stroke-width:1;stroke-linecap:butt;stroke-linejoin:miter;stroke-miterlimit:10;stroke-dasharray:none;stroke-opacity:1"
       transform="matrix(0.95816457,0,0,0.95816457,0.47908228,0.47908228)"
       clip-path="url(#clipPath23)" />
    <path
       id="path24"
       d="m 201,93 h 170 v 40 H 201 Z"
       style="fill:#dae8fc;fill-opacity:1;fill-rule:nonzero;stroke:#6c8ebf;stroke-width:1;stroke-linecap:butt;stroke-linejoin:miter;stroke-miterlimit:10;stroke-dasharray:none;stroke-opacity:1"
       transform="matrix(0.95816457,0,0,0.95816457,0.47908228,0.47908228)"
       clip-path="url(#clipPath25)" />
    <text
       id="text25"
       xml:space="preserve"
       transform="matrix(0.95817417,0,0,0.95817417,199.36011,113.06455)"
       clip-path="url(#clipPath26)"><tspan
         style="font-variant:normal;font-weight:normal;font-size:16px;font-family:Helvetica;writing-mode:lr-tb;fill:#000000;fill-opacity:1;fill-rule:nonzero;stroke:none"
         x="0 16.242188 25.140625 34.039062 42.039062 46.484375 50.039062 58.039062 62.484375 71.382812 74.9375 83.835938 91.835938 96.28125 99.835938 107.83594 115.83594 124.73438 133.63281 138.96094 146.96094"
         y="0"
         sodipodi:role="line"
         id="tspan25">@nestjs/elasticsearch</tspan></text>
    <path
       id="path27"
       d="m 171,113 h 20 -10 13.63"
       style="fill:none;stroke:#000000;stroke-width:1;stroke-linecap:butt;stroke-linejoin:miter;stroke-miterlimit:10;stroke-dasharray:none;stroke-opacity:1"
       transform="matrix(0.95816457,0,0,0.95816457,0.47908228,0.47908228)"
       clip-path="url(#clipPath28)" />
    <path
       id="path29"
       d="m 199.88,113 -7,3.5 1.75,-3.5 -1.75,-3.5 z"
       style="fill:#000000;fill-opacity:1;fill-rule:nonzero;stroke:#000000;stroke-width:1;stroke-linecap:butt;stroke-linejoin:miter;stroke-miterlimit:10;stroke-dasharray:none;stroke-opacity:1"
       transform="matrix(0.95816457,0,0,0.95816457,0.47908228,0.47908228)"
       clip-path="url(#clipPath30)" />
    <path
       id="path31"
       d="m 1,93 h 170 v 40 H 1 Z"
       style="fill:#d5e8d4;fill-opacity:1;fill-rule:nonzero;stroke:#82b366;stroke-width:1;stroke-linecap:butt;stroke-linejoin:miter;stroke-miterlimit:10;stroke-dasharray:none;stroke-opacity:1"
       transform="matrix(0.95816457,0,0,0.95816457,0.47908228,0.47908228)"
       clip-path="url(#clipPath32)" />
    <text
       id="text32"
       xml:space="preserve"
       transform="matrix(0.95817417,0,0,0.95817417,37.668222,113.06455)"
       clip-path="url(#clipPath33)"><tspan
         style="font-variant:normal;font-weight:normal;font-size:16px;font-family:Helvetica;writing-mode:lr-tb;fill:#000000;fill-opacity:1;fill-rule:nonzero;stroke:none"
         x="0 8.8984375 12.453125 21.351562 29.351562 33.796875 37.351562 45.351562 53.351562 62.25 71.148438 76.476562 84.476562"
         y="0"
         sodipodi:role="line"
         id="tspan32">elasticsearch</tspan></text>
    <path
       id="path34"
       d="m 371,112.8 h 23.64001"
       style="fill:none;stroke:#000000;stroke-width:1;stroke-linecap:butt;stroke-linejoin:miter;stroke-miterlimit:10;stroke-dasharray:none;stroke-opacity:1"
       transform="matrix(0.95816457,0,0,0.95816457,0.47908228,0.47908228)"
       clip-path="url(#clipPath35)" />
    <path
       id="path36"
       d="m 399.89001,112.8 -7,3.5 1.75,-3.5 -1.75,-3.5 z"
       style="fill:#000000;fill-opacity:1;fill-rule:nonzero;stroke:#000000;stroke-width:1;stroke-linecap:butt;stroke-linejoin:miter;stroke-miterlimit:10;stroke-dasharray:none;stroke-opacity:1"
       transform="matrix(0.95816457,0,0,0.95816457,0.47908228,0.47908228)"
       clip-path="url(#clipPath37)" />
    <path
       id="path38"
       d="m 201,143 h 170 v 40 H 201 Z"
       style="fill:#dae8fc;fill-opacity:1;fill-rule:nonzero;stroke:#6c8ebf;stroke-width:1;stroke-linecap:butt;stroke-linejoin:miter;stroke-miterlimit:10;stroke-dasharray:none;stroke-opacity:1"
       transform="matrix(0.95816457,0,0,0.95816457,0.47908228,0.47908228)"
       clip-path="url(#clipPath39)" />
    <text
       id="text39"
       xml:space="preserve"
       transform="matrix(0.95817417,0,0,0.95817417,208.29809,160.97326)"
       clip-path="url(#clipPath40)"><tspan
         style="font-variant:normal;font-weight:normal;font-size:16px;font-family:Helvetica;writing-mode:lr-tb;fill:#000000;fill-opacity:1;fill-rule:nonzero;stroke:none"
         x="0 16.242188 25.140625 34.039062 42.039062 46.484375 50.039062 58.039062 62.484375 75.8125 84.710938 93.609375 102.50781 111.40625 120.30469 128.30469"
         y="0"
         sodipodi:role="line"
         id="tspan39">@nestjs/mongoose</tspan></text>
    <path
       id="path41"
       d="m 171,163 h 20 -10 13.63"
       style="fill:none;stroke:#000000;stroke-width:1;stroke-linecap:butt;stroke-linejoin:miter;stroke-miterlimit:10;stroke-dasharray:none;stroke-opacity:1"
       transform="matrix(0.95816457,0,0,0.95816457,0.47908228,0.47908228)"
       clip-path="url(#clipPath42)" />
    <path
       id="path43"
       d="m 199.88,163 -7,3.5 1.75,-3.5 -1.75,-3.5 z"
       style="fill:#000000;fill-opacity:1;fill-rule:nonzero;stroke:#000000;stroke-width:1;stroke-linecap:butt;stroke-linejoin:miter;stroke-miterlimit:10;stroke-dasharray:none;stroke-opacity:1"
       transform="matrix(0.95816457,0,0,0.95816457,0.47908228,0.47908228)"
       clip-path="url(#clipPath44)" />
    <path
       id="path45"
       d="m 1,143 h 170 v 40 H 1 Z"
       style="fill:#d5e8d4;fill-opacity:1;fill-rule:nonzero;stroke:#82b366;stroke-width:1;stroke-linecap:butt;stroke-linejoin:miter;stroke-miterlimit:10;stroke-dasharray:none;stroke-opacity:1"
       transform="matrix(0.95816457,0,0,0.95816457,0.47908228,0.47908228)"
       clip-path="url(#clipPath46)" />
    <text
       id="text46"
       xml:space="preserve"
       transform="matrix(0.95817417,0,0,0.95817417,46.60619,160.97326)"
       clip-path="url(#clipPath47)"><tspan
         style="font-variant:normal;font-weight:normal;font-size:16px;font-family:Helvetica;writing-mode:lr-tb;fill:#000000;fill-opacity:1;fill-rule:nonzero;stroke:none"
         x="0 13.328125 22.226562 31.125 40.023438 48.921875 57.820312 65.820312"
         y="0"
         sodipodi:role="line"
         id="tspan46">mongoose</tspan></text>
    <path
       id="path48"
       d="m 371,162.8 h 23.64001"
       style="fill:none;stroke:#000000;stroke-width:1;stroke-linecap:butt;stroke-linejoin:miter;stroke-miterlimit:10;stroke-dasharray:none;stroke-opacity:1"
       transform="matrix(0.95816457,0,0,0.95816457,0.47908228,0.47908228)"
       clip-path="url(#clipPath49)" />
    <path
       id="path50"
       d="m 399.89001,162.8 -7,3.5 1.75,-3.5 -1.75,-3.5 z"
       style="fill:#000000;fill-opacity:1;fill-rule:nonzero;stroke:#000000;stroke-width:1;stroke-linecap:butt;stroke-linejoin:miter;stroke-miterlimit:10;stroke-dasharray:none;stroke-opacity:1"
       transform="matrix(0.95816457,0,0,0.95816457,0.47908228,0.47908228)"
       clip-path="url(#clipPath51)" />
    <path
       id="path52"
       d="m 201,193 h 170 v 40 H 201 Z"
       style="fill:#dae8fc;fill-opacity:1;fill-rule:nonzero;stroke:#6c8ebf;stroke-width:1;stroke-linecap:butt;stroke-linejoin:miter;stroke-miterlimit:10;stroke-dasharray:none;stroke-opacity:1"
       transform="matrix(0.95816457,0,0,0.95816457,0.47908228,0.47908228)"
       clip-path="url(#clipPath53)" />
    <text
       id="text53"
       xml:space="preserve"
       transform="matrix(0.95817417,0,0,0.95817417,214.6909,208.88197)"
       clip-path="url(#clipPath54)"><tspan
         style="font-variant:normal;font-weight:normal;font-size:16px;font-family:Helvetica;writing-mode:lr-tb;fill:#000000;fill-opacity:1;fill-rule:nonzero;stroke:none"
         x="0 16.242188 25.140625 34.039062 42.039062 46.484375 50.039062 58.039062 62.484375 71.382812 80.28125 88.28125 96.28125 105.17969 114.07812 119.40625"
         y="0"
         sodipodi:role="line"
         id="tspan53">@nestjs/passport</tspan></text>
    <path
       id="path55"
       d="m 171,213 h 20 -10 13.63"
       style="fill:none;stroke:#000000;stroke-width:1;stroke-linecap:butt;stroke-linejoin:miter;stroke-miterlimit:10;stroke-dasharray:none;stroke-opacity:1"
       transform="matrix(0.95816457,0,0,0.95816457,0.47908228,0.47908228)"
       clip-path="url(#clipPath56)" />
    <path
       id="path57"
       d="m 199.88,213 -7,3.5 1.75,-3.5 -1.75,-3.5 z"
       style="fill:#000000;fill-opacity:1;fill-rule:nonzero;stroke:#000000;stroke-width:1;stroke-linecap:butt;stroke-linejoin:miter;stroke-miterlimit:10;stroke-dasharray:none;stroke-opacity:1"
       transform="matrix(0.95816457,0,0,0.95816457,0.47908228,0.47908228)"
       clip-path="url(#clipPath58)" />
    <path
       id="path59"
       d="m 1,193 h 170 v 40 H 1 Z"
       style="fill:#d5e8d4;fill-opacity:1;fill-rule:nonzero;stroke:#82b366;stroke-width:1;stroke-linecap:butt;stroke-linejoin:miter;stroke-miterlimit:10;stroke-dasharray:none;stroke-opacity:1"
       transform="matrix(0.95816457,0,0,0.95816457,0.47908228,0.47908228)"
       clip-path="url(#clipPath60)" />
    <text
       id="text60"
       xml:space="preserve"
       transform="matrix(0.95817417,0,0,0.95817417,52.999009,208.88197)"
       clip-path="url(#clipPath61)"><tspan
         style="font-variant:normal;font-weight:normal;font-size:16px;font-family:Helvetica;writing-mode:lr-tb;fill:#000000;fill-opacity:1;fill-rule:nonzero;stroke:none"
         x="0 8.8984375 17.796875 25.796875 33.796875 42.695312 51.59375 56.921875"
         y="0"
         sodipodi:role="line"
         id="tspan60">passport</tspan></text>
    <path
       id="path62"
       d="m 371,212.8 h 23.64001"
       style="fill:none;stroke:#000000;stroke-width:1;stroke-linecap:butt;stroke-linejoin:miter;stroke-miterlimit:10;stroke-dasharray:none;stroke-opacity:1"
       transform="matrix(0.95816457,0,0,0.95816457,0.47908228,0.47908228)"
       clip-path="url(#clipPath63)" />
    <path
       id="path64"
       d="m 399.89001,212.8 -7,3.5 1.75,-3.5 -1.75,-3.5 z"
       style="fill:#000000;fill-opacity:1;fill-rule:nonzero;stroke:#000000;stroke-width:1;stroke-linecap:butt;stroke-linejoin:miter;stroke-miterlimit:10;stroke-dasharray:none;stroke-opacity:1"
       transform="matrix(0.95816457,0,0,0.95816457,0.47908228,0.47908228)"
       clip-path="url(#clipPath65)" />
  </g>
</svg>
