<?xml version="1.0" encoding="UTF-8" standalone="no"?>
<!-- Created with Inkscape (http://www.inkscape.org/) -->

<svg
   version="1.1"
   id="svg1"
   width="357.44"
   height="147.84"
   viewBox="0 0 357.44 147.84"
   sodipodi:docname="nest-13.pdf"
   xmlns:inkscape="http://www.inkscape.org/namespaces/inkscape"
   xmlns:sodipodi="http://sodipodi.sourceforge.net/DTD/sodipodi-0.dtd"
   xmlns="http://www.w3.org/2000/svg"
   xmlns:svg="http://www.w3.org/2000/svg">
  <defs
     id="defs1">
    <clipPath
       clipPathUnits="userSpaceOnUse"
       id="clipPath2">
      <path
         d="M 0,0 H 1116.6666 V 459.80392 H 0 Z"
         transform="scale(0.33492538)"
         clip-rule="evenodd"
         id="path2" />
    </clipPath>
    <clipPath
       clipPathUnits="userSpaceOnUse"
       id="clipPath4">
      <path
         d="M 0,0 H 1116.6666 V 459.80392 H 0 Z"
         transform="matrix(0.33492538,0,0,0.33492538,-0.5,-0.5)"
         clip-rule="evenodd"
         id="path4" />
    </clipPath>
    <clipPath
       clipPathUnits="userSpaceOnUse"
       id="clipPath5">
      <path
         d="M 0,0 H 1116.6666 V 459.80392 H 0 Z"
         transform="matrix(0.33492204,0,0,0.33492204,-224.20313,-21)"
         clip-rule="evenodd"
         id="path5" />
    </clipPath>
    <clipPath
       clipPathUnits="userSpaceOnUse"
       id="clipPath7">
      <path
         d="M 0,0 H 1116.6666 V 459.80392 H 0 Z"
         transform="matrix(0.33492538,0,0,0.33492538,-0.5,-0.5)"
         clip-rule="evenodd"
         id="path7" />
    </clipPath>
    <clipPath
       clipPathUnits="userSpaceOnUse"
       id="clipPath9">
      <path
         d="M 0,0 H 1116.6666 V 459.80392 H 0 Z"
         transform="matrix(0.33492538,0,0,0.33492538,-0.5,-0.5)"
         clip-rule="evenodd"
         id="path9" />
    </clipPath>
    <clipPath
       clipPathUnits="userSpaceOnUse"
       id="clipPath11">
      <path
         d="M 0,0 H 1116.6666 V 459.80392 H 0 Z"
         transform="matrix(0.33492538,0,0,0.33492538,-0.5,-0.5)"
         clip-rule="evenodd"
         id="path11" />
    </clipPath>
    <clipPath
       clipPathUnits="userSpaceOnUse"
       id="clipPath13">
      <path
         d="M 0,0 H 1116.6666 V 459.80392 H 0 Z"
         transform="matrix(0.33492538,0,0,0.33492538,-0.5,-0.5)"
         clip-rule="evenodd"
         id="path13" />
    </clipPath>
    <clipPath
       clipPathUnits="userSpaceOnUse"
       id="clipPath14">
      <path
         d="M 0,0 H 1116.6666 V 459.80392 H 0 Z"
         transform="matrix(0.33492204,0,0,0.33492204,-9.921875,-71)"
         clip-rule="evenodd"
         id="path14" />
    </clipPath>
    <clipPath
       clipPathUnits="userSpaceOnUse"
       id="clipPath16">
      <path
         d="M 0,0 H 1116.6666 V 459.80392 H 0 Z"
         transform="matrix(0.33492538,0,0,0.33492538,-0.5,-0.5)"
         clip-rule="evenodd"
         id="path16" />
    </clipPath>
    <clipPath
       clipPathUnits="userSpaceOnUse"
       id="clipPath18">
      <path
         d="M 0,0 H 1116.6666 V 459.80392 H 0 Z"
         transform="matrix(0.33492538,0,0,0.33492538,-0.5,-0.5)"
         clip-rule="evenodd"
         id="path18" />
    </clipPath>
    <clipPath
       clipPathUnits="userSpaceOnUse"
       id="clipPath20">
      <path
         d="M 0,0 H 1116.6666 V 459.80392 H 0 Z"
         transform="matrix(0.33492538,0,0,0.33492538,-0.5,-0.5)"
         clip-rule="evenodd"
         id="path20" />
    </clipPath>
    <clipPath
       clipPathUnits="userSpaceOnUse"
       id="clipPath21">
      <path
         d="M 0,0 H 1116.6666 V 459.80392 H 0 Z"
         transform="matrix(0.33492204,0,0,0.33492204,-4.46875,-121)"
         clip-rule="evenodd"
         id="path21" />
    </clipPath>
    <clipPath
       clipPathUnits="userSpaceOnUse"
       id="clipPath23">
      <path
         d="M 0,0 H 1116.6666 V 459.80392 H 0 Z"
         transform="matrix(0.33492538,0,0,0.33492538,-0.5,-0.5)"
         clip-rule="evenodd"
         id="path23" />
    </clipPath>
    <clipPath
       clipPathUnits="userSpaceOnUse"
       id="clipPath24">
      <path
         d="M 0,0 H 1116.6666 V 459.80392 H 0 Z"
         transform="matrix(0.33492204,0,0,0.33492204,-133.34375,-79)"
         clip-rule="evenodd"
         id="path24" />
    </clipPath>
    <clipPath
       clipPathUnits="userSpaceOnUse"
       id="clipPath25">
      <path
         d="M 0,0 H 1116.6666 V 459.80392 H 0 Z"
         transform="matrix(0.33492204,0,0,0.33492204,-130.375,-96)"
         clip-rule="evenodd"
         id="path25" />
    </clipPath>
    <clipPath
       clipPathUnits="userSpaceOnUse"
       id="clipPath26">
      <path
         d="M 0,0 H 1116.6666 V 459.80392 H 0 Z"
         transform="matrix(0.33492204,0,0,0.33492204,-141.90625,-113)"
         clip-rule="evenodd"
         id="path26" />
    </clipPath>
  </defs>
  <sodipodi:namedview
     id="namedview1"
     pagecolor="#ffffff"
     bordercolor="#000000"
     borderopacity="0.25"
     inkscape:showpageshadow="2"
     inkscape:pageopacity="0.0"
     inkscape:pagecheckerboard="0"
     inkscape:deskcolor="#d1d1d1">
    <inkscape:page
       x="0"
       y="0"
       inkscape:label="1"
       id="page1"
       width="357.44"
       height="147.84"
       margin="0"
       bleed="0" />
  </sodipodi:namedview>
  <g
     id="g1"
     inkscape:groupmode="layer"
     inkscape:label="1">
    <path
       id="path1"
       d="M 0,0 H 374 V 154 H 0 Z"
       style="fill:#ffffff;fill-opacity:1;fill-rule:nonzero;stroke:none"
       transform="scale(0.95543666)"
       clip-path="url(#clipPath2)" />
    <path
       id="path3"
       d="M 121,1 H 371 V 31 H 121 Z"
       style="fill:#dae8fc;fill-opacity:1;fill-rule:nonzero;stroke:#6c8ebf;stroke-width:1;stroke-linecap:butt;stroke-linejoin:miter;stroke-miterlimit:10;stroke-dasharray:none;stroke-opacity:1"
       transform="matrix(0.95543666,0,0,0.95543666,0.47771833,0.47771833)"
       clip-path="url(#clipPath4)" />
    <text
       id="text4"
       xml:space="preserve"
       transform="matrix(0.9554462,0,0,0.9554462,214.21403,20.06437)"
       clip-path="url(#clipPath5)"><tspan
         style="font-variant:normal;font-weight:700;font-size:14px;font-family:Helvetica;writing-mode:lr-tb;fill:#000000;fill-opacity:1;fill-rule:nonzero;stroke:none"
         x="0 9.3378906 17.124023 22.572266 30.358398 38.144531"
         y="0"
         sodipodi:role="line"
         id="tspan4">Server</tspan></text>
    <path
       id="path6"
       d="M 121,31 H 371 V 151 H 121 Z"
       style="fill:#dae8fc;fill-opacity:1;fill-rule:nonzero;stroke:#6c8ebf;stroke-width:1;stroke-linecap:butt;stroke-linejoin:miter;stroke-miterlimit:10;stroke-dasharray:none;stroke-opacity:1"
       transform="matrix(0.95543666,0,0,0.95543666,0.47771833,0.47771833)"
       clip-path="url(#clipPath7)" />
    <path
       id="path8"
       d="m 71,66 h 25 l 18.63,-0.07"
       style="fill:none;stroke:#000000;stroke-width:1;stroke-linecap:butt;stroke-linejoin:miter;stroke-miterlimit:10;stroke-dasharray:none;stroke-opacity:1"
       transform="matrix(0.95543666,0,0,0.95543666,0.47771833,0.47771833)"
       clip-path="url(#clipPath9)" />
    <path
       id="path10"
       d="M 119.88,65.910004 112.9,69.440002 114.63,65.93 112.87,62.439999 Z"
       style="fill:#000000;fill-opacity:1;fill-rule:nonzero;stroke:#000000;stroke-width:1;stroke-linecap:butt;stroke-linejoin:miter;stroke-miterlimit:10;stroke-dasharray:none;stroke-opacity:1"
       transform="matrix(0.95543666,0,0,0.95543666,0.47771833,0.47771833)"
       clip-path="url(#clipPath11)" />
    <path
       id="path12"
       d="M 1,46 H 71 V 86 H 1 Z"
       style="fill:#ffffff;fill-opacity:1;fill-rule:nonzero;stroke:#000000;stroke-width:1;stroke-linecap:butt;stroke-linejoin:miter;stroke-miterlimit:10;stroke-dasharray:none;stroke-opacity:1"
       transform="matrix(0.95543666,0,0,0.95543666,0.47771833,0.47771833)"
       clip-path="url(#clipPath13)" />
    <text
       id="text13"
       xml:space="preserve"
       transform="matrix(0.9554462,0,0,0.9554462,9.4798178,67.83668)"
       clip-path="url(#clipPath14)"><tspan
         style="font-variant:normal;font-weight:normal;font-size:14px;font-family:Helvetica;writing-mode:lr-tb;fill:#000000;fill-opacity:1;fill-rule:nonzero;stroke:none"
         x="0 10.110352 17.896484 25.682617 33.46875 41.254883 48.254883"
         y="0"
         sodipodi:role="line"
         id="tspan13">Request</tspan></text>
    <path
       id="path15"
       d="M 121,115.91 96,116.4 77.370003,116.1"
       style="fill:none;stroke:#000000;stroke-width:1;stroke-linecap:butt;stroke-linejoin:miter;stroke-miterlimit:10;stroke-dasharray:none;stroke-opacity:1"
       transform="matrix(0.95543666,0,0,0.95543666,0.47771833,0.47771833)"
       clip-path="url(#clipPath16)" />
    <path
       id="path17"
       d="m 72.120003,116.02 7.049995,-3.39 -1.799995,3.47 1.689995,3.53 z"
       style="fill:#000000;fill-opacity:1;fill-rule:nonzero;stroke:#000000;stroke-width:1;stroke-linecap:butt;stroke-linejoin:miter;stroke-miterlimit:10;stroke-dasharray:none;stroke-opacity:1"
       transform="matrix(0.95543666,0,0,0.95543666,0.47771833,0.47771833)"
       clip-path="url(#clipPath18)" />
    <path
       id="path19"
       d="m 1,96 h 70 v 40 H 1 Z"
       style="fill:#ffffff;fill-opacity:1;fill-rule:nonzero;stroke:#000000;stroke-width:1;stroke-linecap:butt;stroke-linejoin:miter;stroke-miterlimit:10;stroke-dasharray:none;stroke-opacity:1"
       transform="matrix(0.95543666,0,0,0.95543666,0.47771833,0.47771833)"
       clip-path="url(#clipPath20)" />
    <text
       id="text20"
       xml:space="preserve"
       transform="matrix(0.9554462,0,0,0.9554462,4.2696502,115.60899)"
       clip-path="url(#clipPath21)"><tspan
         style="font-variant:normal;font-weight:normal;font-size:14px;font-family:Helvetica;writing-mode:lr-tb;fill:#000000;fill-opacity:1;fill-rule:nonzero;stroke:none"
         x="0 10.110352 17.896484 24.896484 32.682617 40.46875 48.254883 55.254883"
         y="0"
         sodipodi:role="line"
         id="tspan20">Response</tspan></text>
    <path
       id="path22"
       d="m 121,51 h 150 v 80 H 121 Z"
       style="fill:#ffffff;fill-opacity:1;fill-rule:nonzero;stroke:#000000;stroke-width:1;stroke-linecap:butt;stroke-linejoin:miter;stroke-miterlimit:10;stroke-dasharray:none;stroke-opacity:1"
       transform="matrix(0.95543666,0,0,0.95543666,0.47771833,0.47771833)"
       clip-path="url(#clipPath23)" />
    <text
       id="text23"
       xml:space="preserve"
       transform="matrix(0.9554462,0,0,0.9554462,127.40278,75.48025)"
       clip-path="url(#clipPath24)"><tspan
         style="font-style:oblique;font-variant:normal;font-weight:normal;font-size:14px;font-family:Helvetica;writing-mode:lr-tb;fill:#000000;fill-opacity:1;fill-rule:nonzero;stroke:none"
         x="0 10.110352 17.896484 25.682617 33.46875 37.358398 41.248047 49.03418 52.923828 60.709961 65.37207 73.158203 80.158203 87.944336 94.944336 101.94434 105.83398 109.72363 117.50977"
         y="0"
         sodipodi:role="line"
         id="tspan23">Code to process the</tspan></text>
    <text
       id="text24"
       xml:space="preserve"
       transform="matrix(0.9554462,0,0,0.9554462,124.5663,91.722835)"
       clip-path="url(#clipPath25)"><tspan
         style="font-style:oblique;font-variant:normal;font-weight:normal;font-size:14px;font-family:Helvetica;writing-mode:lr-tb;fill:#000000;fill-opacity:1;fill-rule:nonzero;stroke:none"
         x="0 4.6621094 12.448242 20.234375 28.020508 35.806641 42.806641 46.696289 50.585938 53.696289 61.482422 65.37207 72.37207 80.158203 91.820312 99.606445 103.49609 113.60645 121.39258 127.36035"
         y="0"
         sodipodi:role="line"
         id="tspan24">request in some way,</tspan></text>
    <text
       id="text25"
       xml:space="preserve"
       transform="matrix(0.9554462,0,0,0.9554462,135.58379,107.96542)"
       clip-path="url(#clipPath26)"><tspan
         style="font-style:oblique;font-variant:normal;font-weight:normal;font-size:14px;font-family:Helvetica;writing-mode:lr-tb;fill:#000000;fill-opacity:1;fill-rule:nonzero;stroke:none"
         x="0 3.8896484 11.675781 19.461914 27.248047 31.137695 35.799805 43.585938 50.585938 58.37207 66.158203 73.944336 81.730469 85.620117 89.509766 97.295898 101.18555 104.2959"
         y="0"
         sodipodi:role="line"
         id="tspan25">then respond to it</tspan></text>
  </g>
</svg>
