<?xml version="1.0" encoding="UTF-8" standalone="no"?>
<!-- Created with Inkscape (http://www.inkscape.org/) -->

<svg
   version="1.1"
   id="svg1"
   width="377.28"
   height="168"
   viewBox="0 0 377.28 168"
   sodipodi:docname="nest-17.pdf"
   xmlns:inkscape="http://www.inkscape.org/namespaces/inkscape"
   xmlns:sodipodi="http://sodipodi.sourceforge.net/DTD/sodipodi-0.dtd"
   xmlns="http://www.w3.org/2000/svg"
   xmlns:svg="http://www.w3.org/2000/svg">
  <defs
     id="defs1">
    <clipPath
       clipPathUnits="userSpaceOnUse"
       id="clipPath2">
      <path
         d="M 0,0 H 1179.1666 V 523.74152 H 0 Z"
         transform="scale(0.33413427)"
         clip-rule="evenodd"
         id="path2" />
    </clipPath>
    <clipPath
       clipPathUnits="userSpaceOnUse"
       id="clipPath4">
      <path
         d="M 0,0 H 1179.1666 V 520.74872 H 0 Z"
         transform="matrix(0.33413427,0,0,0.33413427,-0.5,-0.5)"
         clip-rule="evenodd"
         id="path4" />
    </clipPath>
    <clipPath
       clipPathUnits="userSpaceOnUse"
       id="clipPath5">
      <path
         d="M 0,0 H 1179.1666 V 520.74872 H 0 Z"
         transform="matrix(0.33413091,0,0,0.33413091,-244.20313,-21)"
         clip-rule="evenodd"
         id="path5" />
    </clipPath>
    <clipPath
       clipPathUnits="userSpaceOnUse"
       id="clipPath7">
      <path
         d="M 0,0 H 1179.1666 V 520.74872 H 0 Z"
         transform="matrix(0.33413427,0,0,0.33413427,-0.5,-0.5)"
         clip-rule="evenodd"
         id="path7" />
    </clipPath>
    <clipPath
       clipPathUnits="userSpaceOnUse"
       id="clipPath9">
      <path
         d="M 0,0 H 1179.1666 V 520.74872 H 0 Z"
         transform="scale(0.33413427)"
         clip-rule="evenodd"
         id="path9" />
    </clipPath>
    <clipPath
       clipPathUnits="userSpaceOnUse"
       id="clipPath11">
      <path
         d="M 0,0 H 1179.1666 V 520.74872 H 0 Z"
         transform="scale(0.33413427)"
         clip-rule="evenodd"
         id="path11" />
    </clipPath>
    <clipPath
       clipPathUnits="userSpaceOnUse"
       id="clipPath13">
      <path
         d="M 0,0 H 1179.1666 V 520.74872 H 0 Z"
         transform="matrix(0.33413427,0,0,0.33413427,-0.5,-0.5)"
         clip-rule="evenodd"
         id="path13" />
    </clipPath>
    <clipPath
       clipPathUnits="userSpaceOnUse"
       id="clipPath14">
      <path
         d="M 0,0 H 1179.1666 V 520.74872 H 0 Z"
         transform="matrix(0.33413091,0,0,0.33413091,-19.921875,-63)"
         clip-rule="evenodd"
         id="path14" />
    </clipPath>
    <clipPath
       clipPathUnits="userSpaceOnUse"
       id="clipPath15">
      <path
         d="M 0,0 H 1179.1666 V 520.74872 H 0 Z"
         transform="matrix(0.33413091,0,0,0.33413091,-25.15625,-80)"
         clip-rule="evenodd"
         id="path15" />
    </clipPath>
    <clipPath
       clipPathUnits="userSpaceOnUse"
       id="clipPath17">
      <path
         d="M 0,0 H 1179.1666 V 520.74872 H 0 Z"
         transform="matrix(0.33413427,0,0,0.33413427,-0.5,-0.5)"
         clip-rule="evenodd"
         id="path17" />
    </clipPath>
    <clipPath
       clipPathUnits="userSpaceOnUse"
       id="clipPath18">
      <path
         d="M 0,0 H 1179.1666 V 520.74872 H 0 Z"
         transform="matrix(0.33413091,0,0,0.33413091,-14.46875,-146)"
         clip-rule="evenodd"
         id="path18" />
    </clipPath>
    <clipPath
       clipPathUnits="userSpaceOnUse"
       id="clipPath20">
      <path
         d="M 0,0 H 1179.1666 V 520.74872 H 0 Z"
         transform="matrix(0.33413427,0,0,0.33413427,-0.5,-0.5)"
         clip-rule="evenodd"
         id="path20" />
    </clipPath>
    <clipPath
       clipPathUnits="userSpaceOnUse"
       id="clipPath21">
      <path
         d="M 0,0 H 1179.1666 V 520.74872 H 0 Z"
         transform="matrix(0.33413091,0,0,0.33413091,-225.65625,-63)"
         clip-rule="evenodd"
         id="path21" />
    </clipPath>
    <clipPath
       clipPathUnits="userSpaceOnUse"
       id="clipPath23">
      <path
         d="M 0,0 H 1179.1666 V 520.74872 H 0 Z"
         transform="scale(0.33413427)"
         clip-rule="evenodd"
         id="path23" />
    </clipPath>
    <clipPath
       clipPathUnits="userSpaceOnUse"
       id="clipPath25">
      <path
         d="M 0,0 H 1179.1666 V 520.74872 H 0 Z"
         transform="scale(0.33413427)"
         clip-rule="evenodd"
         id="path25" />
    </clipPath>
    <clipPath
       clipPathUnits="userSpaceOnUse"
       id="clipPath27">
      <path
         d="M 0,0 H 1179.1666 V 520.74872 H 0 Z"
         transform="matrix(0.33413427,0,0,0.33413427,-0.5,-0.5)"
         clip-rule="evenodd"
         id="path27" />
    </clipPath>
    <clipPath
       clipPathUnits="userSpaceOnUse"
       id="clipPath28">
      <path
         d="M 0,0 H 1179.1666 V 520.74872 H 0 Z"
         transform="matrix(0.33413091,0,0,0.33413091,-190.82812,-100)"
         clip-rule="evenodd"
         id="path28" />
    </clipPath>
    <clipPath
       clipPathUnits="userSpaceOnUse"
       id="clipPath30">
      <path
         d="M 0,0 H 1179.1666 V 520.74872 H 0 Z"
         transform="scale(0.33413427)"
         clip-rule="evenodd"
         id="path30" />
    </clipPath>
    <clipPath
       clipPathUnits="userSpaceOnUse"
       id="clipPath32">
      <path
         d="M 0,0 H 1179.1666 V 520.74872 H 0 Z"
         transform="scale(0.33413427)"
         clip-rule="evenodd"
         id="path32" />
    </clipPath>
    <clipPath
       clipPathUnits="userSpaceOnUse"
       id="clipPath34">
      <path
         d="M 0,0 H 1179.1666 V 520.74872 H 0 Z"
         transform="matrix(0.33413427,0,0,0.33413427,-0.5,-0.5)"
         clip-rule="evenodd"
         id="path34" />
    </clipPath>
    <clipPath
       clipPathUnits="userSpaceOnUse"
       id="clipPath35">
      <path
         d="M 0,0 H 1179.1666 V 520.74872 H 0 Z"
         transform="matrix(0.33413091,0,0,0.33413091,-303.96875,-100)"
         clip-rule="evenodd"
         id="path35" />
    </clipPath>
  </defs>
  <sodipodi:namedview
     id="namedview1"
     pagecolor="#ffffff"
     bordercolor="#000000"
     borderopacity="0.25"
     inkscape:showpageshadow="2"
     inkscape:pageopacity="0.0"
     inkscape:pagecheckerboard="0"
     inkscape:deskcolor="#d1d1d1">
    <inkscape:page
       x="0"
       y="0"
       inkscape:label="1"
       id="page1"
       width="377.28"
       height="168"
       margin="0"
       bleed="0" />
  </sodipodi:namedview>
  <g
     id="g1"
     inkscape:groupmode="layer"
     inkscape:label="1">
    <path
       id="path1"
       d="M 0,0 H 394 V 175 H 0 Z"
       style="fill:#ffffff;fill-opacity:1;fill-rule:nonzero;stroke:none"
       transform="scale(0.95769878)"
       clip-path="url(#clipPath2)" />
    <path
       id="path3"
       d="M 141,1 H 391 V 31 H 141 Z"
       style="fill:#dae8fc;fill-opacity:1;fill-rule:nonzero;stroke:#6c8ebf;stroke-width:1;stroke-linecap:butt;stroke-linejoin:miter;stroke-miterlimit:10;stroke-dasharray:none;stroke-opacity:1"
       transform="matrix(0.95769878,0,0,0.95769878,0.47884939,0.47884939)"
       clip-path="url(#clipPath4)" />
    <text
       id="text4"
       xml:space="preserve"
       transform="matrix(0.95770841,0,0,0.95770841,233.87539,20.111877)"
       clip-path="url(#clipPath5)"><tspan
         style="font-variant:normal;font-weight:700;font-size:14px;font-family:Helvetica;writing-mode:lr-tb;fill:#000000;fill-opacity:1;fill-rule:nonzero;stroke:none"
         x="0 9.3378906 17.124023 22.572266 30.358398 38.144531"
         y="0"
         sodipodi:role="line"
         id="tspan4">Server</tspan></text>
    <path
       id="path6"
       d="M 141,31 H 391 V 171 H 141 Z"
       style="fill:#dae8fc;fill-opacity:1;fill-rule:nonzero;stroke:#6c8ebf;stroke-width:1;stroke-linecap:butt;stroke-linejoin:miter;stroke-miterlimit:10;stroke-dasharray:none;stroke-opacity:1"
       transform="matrix(0.95769878,0,0,0.95769878,0.47884939,0.47884939)"
       clip-path="url(#clipPath7)" />
    <path
       id="path8"
       d="m 91,66 h 37.5 v 30 h 29.27"
       style="fill:none;stroke:#000000;stroke-width:1;stroke-linecap:butt;stroke-linejoin:miter;stroke-miterlimit:10;stroke-dasharray:none;stroke-opacity:1"
       transform="scale(0.95769878)"
       clip-path="url(#clipPath9)" />
    <path
       id="path10"
       d="m 163.77,96 -8,4 2,-4 -2,-4 z"
       style="fill:#000000;fill-opacity:1;fill-rule:nonzero;stroke:#000000;stroke-width:1;stroke-linecap:butt;stroke-linejoin:miter;stroke-miterlimit:10;stroke-dasharray:none;stroke-opacity:1"
       transform="scale(0.95769878)"
       clip-path="url(#clipPath11)" />
    <path
       id="path12"
       d="M 1,46 H 91 V 86 H 1 Z"
       style="fill:#ffffff;fill-opacity:1;fill-rule:nonzero;stroke:#000000;stroke-width:1;stroke-linecap:butt;stroke-linejoin:miter;stroke-miterlimit:10;stroke-dasharray:none;stroke-opacity:1"
       transform="matrix(0.95769878,0,0,0.95769878,0.47884939,0.47884939)"
       clip-path="url(#clipPath13)" />
    <text
       id="text13"
       xml:space="preserve"
       transform="matrix(0.95770841,0,0,0.95770841,19.079347,60.33563)"
       clip-path="url(#clipPath14)"><tspan
         style="font-variant:normal;font-weight:normal;font-size:14px;font-family:Helvetica;writing-mode:lr-tb;fill:#000000;fill-opacity:1;fill-rule:nonzero;stroke:none"
         x="0 10.110352 17.896484 25.682617 33.46875 41.254883 48.254883"
         y="0"
         sodipodi:role="line"
         id="tspan13">Request</tspan></text>
    <text
       id="text14"
       xml:space="preserve"
       transform="matrix(0.95770841,0,0,0.95770841,24.092352,76.616673)"
       clip-path="url(#clipPath15)"><tspan
         style="font-variant:normal;font-weight:normal;font-size:14px;font-family:Helvetica;writing-mode:lr-tb;fill:#000000;fill-opacity:1;fill-rule:nonzero;stroke:none"
         x="0 10.889648 20.227539 28.533203 32.422852 35.095703 38.985352"
         y="0"
         sodipodi:role="line"
         id="tspan14">GET '/'</tspan></text>
    <path
       id="path16"
       d="m 1,121 h 90 v 40 H 1 Z"
       style="fill:#ffffff;fill-opacity:1;fill-rule:nonzero;stroke:#000000;stroke-width:1;stroke-linecap:butt;stroke-linejoin:miter;stroke-miterlimit:10;stroke-dasharray:none;stroke-opacity:1"
       transform="matrix(0.95769878,0,0,0.95769878,0.47884939,0.47884939)"
       clip-path="url(#clipPath17)" />
    <text
       id="text17"
       xml:space="preserve"
       transform="matrix(0.95770841,0,0,0.95770841,13.856844,139.82543)"
       clip-path="url(#clipPath18)"><tspan
         style="font-variant:normal;font-weight:normal;font-size:14px;font-family:Helvetica;writing-mode:lr-tb;fill:#000000;fill-opacity:1;fill-rule:nonzero;stroke:none"
         x="0 10.110352 17.896484 24.896484 32.682617 40.46875 48.254883 55.254883"
         y="0"
         sodipodi:role="line"
         id="tspan17">Response</tspan></text>
    <path
       id="path19"
       d="M 166,46 H 366 V 71 H 166 Z"
       style="fill:#ffffff;fill-opacity:1;fill-rule:nonzero;stroke:#000000;stroke-width:1;stroke-linecap:butt;stroke-linejoin:miter;stroke-miterlimit:10;stroke-dasharray:none;stroke-opacity:1"
       transform="matrix(0.95769878,0,0,0.95769878,0.47884939,0.47884939)"
       clip-path="url(#clipPath20)" />
    <text
       id="text20"
       xml:space="preserve"
       transform="matrix(0.95770841,0,0,0.95770841,216.11289,60.33563)"
       clip-path="url(#clipPath21)"><tspan
         style="font-variant:normal;font-weight:700;font-size:12px;font-family:Helvetica;writing-mode:lr-tb;fill:#000000;fill-opacity:1;fill-rule:nonzero;stroke:none"
         x="0 8.6660156 15.996094 23.326172 31.992188 39.322266 46.652344 50.648438 55.318359 62.648438 65.982422 69.316406 75.990234"
         y="0"
         sodipodi:role="line"
         id="tspan20">AppController</tspan></text>
    <path
       id="path22"
       d="m 271,96 h 20 -20 11.76999"
       style="fill:none;stroke:#000000;stroke-width:1;stroke-linecap:butt;stroke-linejoin:miter;stroke-miterlimit:10;stroke-dasharray:none;stroke-opacity:1"
       transform="scale(0.95769878)"
       clip-path="url(#clipPath23)" />
    <path
       id="path24"
       d="m 288.76999,96 -8,4 2,-4 -2,-4 z"
       style="fill:#000000;fill-opacity:1;fill-rule:nonzero;stroke:#000000;stroke-width:1;stroke-linecap:butt;stroke-linejoin:miter;stroke-miterlimit:10;stroke-dasharray:none;stroke-opacity:1"
       transform="scale(0.95769878)"
       clip-path="url(#clipPath25)" />
    <path
       id="path26"
       d="m 166,71 h 105 v 50 H 166 Z"
       style="fill:#f5f5f5;fill-opacity:1;fill-rule:nonzero;stroke:#666666;stroke-width:1;stroke-linecap:butt;stroke-linejoin:miter;stroke-miterlimit:10;stroke-dasharray:none;stroke-opacity:1"
       transform="matrix(0.95769878,0,0,0.95769878,0.47884939,0.47884939)"
       clip-path="url(#clipPath27)" />
    <text
       id="text27"
       xml:space="preserve"
       transform="matrix(0.95770841,0,0,0.95770841,182.7577,95.770841)"
       clip-path="url(#clipPath28)"><tspan
         style="font-variant:normal;font-weight:700;font-size:12px;font-family:Helvetica;writing-mode:lr-tb;fill:#333333;fill-opacity:1;fill-rule:nonzero;stroke:none"
         x="0 7.3300781 12 18.673828 25.347656 29.34375 32.677734 40.007812 47.337891 51.333984"
         y="0"
         sodipodi:role="line"
         id="tspan27">greeting()</tspan></text>
    <path
       id="path29"
       d="m 328.5,121 v 20 H 99.239998"
       style="fill:none;stroke:#000000;stroke-width:1;stroke-linecap:butt;stroke-linejoin:miter;stroke-miterlimit:10;stroke-dasharray:none;stroke-opacity:1"
       transform="scale(0.95769878)"
       clip-path="url(#clipPath30)" />
    <path
       id="path31"
       d="m 93.239998,141 8.000002,-4 -2.000002,4 2.000002,4 z"
       style="fill:#000000;fill-opacity:1;fill-rule:nonzero;stroke:#000000;stroke-width:1;stroke-linecap:butt;stroke-linejoin:miter;stroke-miterlimit:10;stroke-dasharray:none;stroke-opacity:1"
       transform="scale(0.95769878)"
       clip-path="url(#clipPath32)" />
    <path
       id="path33"
       d="m 291,71 h 75 v 50 h -75 z"
       style="fill:#f5f5f5;fill-opacity:1;fill-rule:nonzero;stroke:#666666;stroke-width:1;stroke-linecap:butt;stroke-linejoin:miter;stroke-miterlimit:10;stroke-dasharray:none;stroke-opacity:1"
       transform="matrix(0.95769878,0,0,0.95769878,0.47884939,0.47884939)"
       clip-path="url(#clipPath34)" />
    <text
       id="text34"
       xml:space="preserve"
       transform="matrix(0.95770841,0,0,0.95770841,291.11343,95.770841)"
       clip-path="url(#clipPath35)"><tspan
         style="font-variant:normal;font-weight:700;font-size:12px;font-family:Helvetica;writing-mode:lr-tb;fill:#333333;fill-opacity:1;fill-rule:nonzero;stroke:none"
         x="0 2.8535156 10.183594 13.517578 16.851562 20.847656 28.177734 34.851562 39.521484 46.195312"
         y="0"
         sodipodi:role="line"
         id="tspan34">'hi there'</tspan></text>
  </g>
</svg>
