<?xml version="1.0" encoding="UTF-8" standalone="no"?>
<!-- Created with Inkscape (http://www.inkscape.org/) -->

<svg
   version="1.1"
   id="svg1"
   width="453.44"
   height="186.56"
   viewBox="0 0 453.44 186.56"
   sodipodi:docname="nest-29.pdf"
   xmlns:inkscape="http://www.inkscape.org/namespaces/inkscape"
   xmlns:sodipodi="http://sodipodi.sourceforge.net/DTD/sodipodi-0.dtd"
   xmlns="http://www.w3.org/2000/svg"
   xmlns:svg="http://www.w3.org/2000/svg">
  <defs
     id="defs1">
    <clipPath
       clipPathUnits="userSpaceOnUse"
       id="clipPath2">
      <path
         d="M 0,0 H 1416.6666 V 582.80585 H 0 Z"
         transform="scale(0.33458825)"
         clip-rule="evenodd"
         id="path2" />
    </clipPath>
    <clipPath
       clipPathUnits="userSpaceOnUse"
       id="clipPath4">
      <path
         d="M 0,0 H 1416.6666 V 579.81714 H 0 Z"
         transform="matrix(0.33458825,0,0,0.33458825,-0.49999999,-0.49999999)"
         clip-rule="evenodd"
         id="path4" />
    </clipPath>
    <clipPath
       clipPathUnits="userSpaceOnUse"
       id="clipPath5">
      <path
         d="M 0,0 H 1416.6666 V 579.81714 H 0 Z"
         transform="matrix(0.33458489,0,0,0.33458489,-6.4375,-75)"
         clip-rule="evenodd"
         id="path5" />
    </clipPath>
    <clipPath
       clipPathUnits="userSpaceOnUse"
       id="clipPath7">
      <path
         d="M 0,0 H 1416.6666 V 579.81714 H 0 Z"
         transform="matrix(0.33458825,0,0,0.33458825,-0.49999999,-0.49999999)"
         clip-rule="evenodd"
         id="path7" />
    </clipPath>
    <clipPath
       clipPathUnits="userSpaceOnUse"
       id="clipPath9">
      <path
         d="M 0,0 H 1416.6666 V 579.81714 H 0 Z"
         transform="matrix(0.33458825,0,0,0.33458825,-0.49999999,-0.49999999)"
         clip-rule="evenodd"
         id="path9" />
    </clipPath>
    <clipPath
       clipPathUnits="userSpaceOnUse"
       id="clipPath11">
      <path
         d="M 0,0 H 1416.6666 V 579.81714 H 0 Z"
         transform="matrix(0.33458825,0,0,0.33458825,-0.49999999,-0.49999999)"
         clip-rule="evenodd"
         id="path11" />
    </clipPath>
    <clipPath
       clipPathUnits="userSpaceOnUse"
       id="clipPath12">
      <path
         d="M 0,0 H 1416.6666 V 579.81714 H 0 Z"
         transform="matrix(0.33458489,0,0,0.33458489,-14.296875,-50.000001)"
         clip-rule="evenodd"
         id="path12" />
    </clipPath>
    <clipPath
       clipPathUnits="userSpaceOnUse"
       id="clipPath14">
      <path
         d="M 0,0 H 1416.6666 V 579.81714 H 0 Z"
         transform="matrix(0.33458825,0,0,0.33458825,-0.49999999,-0.49999999)"
         clip-rule="evenodd"
         id="path14" />
    </clipPath>
    <clipPath
       clipPathUnits="userSpaceOnUse"
       id="clipPath15">
      <path
         d="M 0,0 H 1416.6666 V 579.81714 H 0 Z"
         transform="matrix(0.33458489,0,0,0.33458489,-210.70313,-13)"
         clip-rule="evenodd"
         id="path15" />
    </clipPath>
    <clipPath
       clipPathUnits="userSpaceOnUse"
       id="clipPath16">
      <path
         d="M 0,0 H 1416.6666 V 579.81714 H 0 Z"
         transform="matrix(0.33458489,0,0,0.33458489,-199.71875,-27)"
         clip-rule="evenodd"
         id="path16" />
    </clipPath>
    <clipPath
       clipPathUnits="userSpaceOnUse"
       id="clipPath18">
      <path
         d="M 0,0 H 1416.6666 V 579.81714 H 0 Z"
         transform="matrix(0.33458825,0,0,0.33458825,-0.49999999,-0.49999999)"
         clip-rule="evenodd"
         id="path18" />
    </clipPath>
    <clipPath
       clipPathUnits="userSpaceOnUse"
       id="clipPath20">
      <path
         d="M 0,0 H 1416.6666 V 579.81714 H 0 Z"
         transform="matrix(0.33458825,0,0,0.33458825,-0.49999999,-0.49999999)"
         clip-rule="evenodd"
         id="path20" />
    </clipPath>
    <clipPath
       clipPathUnits="userSpaceOnUse"
       id="clipPath22">
      <path
         d="M 0,0 H 1416.6666 V 579.81714 H 0 Z"
         transform="matrix(0.33458825,0,0,0.33458825,-0.49999999,-0.49999999)"
         clip-rule="evenodd"
         id="path22" />
    </clipPath>
    <clipPath
       clipPathUnits="userSpaceOnUse"
       id="clipPath24">
      <path
         d="M 0,0 H 1416.6666 V 579.81714 H 0 Z"
         transform="matrix(0.33458825,0,0,0.33458825,-0.49999999,-0.49999999)"
         clip-rule="evenodd"
         id="path24" />
    </clipPath>
    <clipPath
       clipPathUnits="userSpaceOnUse"
       id="clipPath26">
      <path
         d="M 0,0 H 1416.6666 V 579.81714 H 0 Z"
         transform="matrix(0.33458825,0,0,0.33458825,-0.49999999,-0.49999999)"
         clip-rule="evenodd"
         id="path26" />
    </clipPath>
    <clipPath
       clipPathUnits="userSpaceOnUse"
       id="clipPath27">
      <path
         d="M 0,0 H 1416.6666 V 579.81714 H 0 Z"
         transform="matrix(0.33458489,0,0,0.33458489,-201.84375,-65)"
         clip-rule="evenodd"
         id="path27" />
    </clipPath>
    <clipPath
       clipPathUnits="userSpaceOnUse"
       id="clipPath29">
      <path
         d="M 0,0 H 1416.6666 V 579.81714 H 0 Z"
         transform="matrix(0.33458825,0,0,0.33458825,-0.49999999,-0.49999999)"
         clip-rule="evenodd"
         id="path29" />
    </clipPath>
    <clipPath
       clipPathUnits="userSpaceOnUse"
       id="clipPath30">
      <path
         d="M 0,0 H 1416.6666 V 579.81714 H 0 Z"
         transform="matrix(0.33458489,0,0,0.33458489,-420.70313,-13)"
         clip-rule="evenodd"
         id="path30" />
    </clipPath>
    <clipPath
       clipPathUnits="userSpaceOnUse"
       id="clipPath31">
      <path
         d="M 0,0 H 1416.6666 V 579.81714 H 0 Z"
         transform="matrix(0.33458489,0,0,0.33458489,-416.42188,-27)"
         clip-rule="evenodd"
         id="path31" />
    </clipPath>
    <clipPath
       clipPathUnits="userSpaceOnUse"
       id="clipPath33">
      <path
         d="M 0,0 H 1416.6666 V 579.81714 H 0 Z"
         transform="matrix(0.33458825,0,0,0.33458825,-0.49999999,-0.49999999)"
         clip-rule="evenodd"
         id="path33" />
    </clipPath>
    <clipPath
       clipPathUnits="userSpaceOnUse"
       id="clipPath35">
      <path
         d="M 0,0 H 1416.6666 V 579.81714 H 0 Z"
         transform="matrix(0.33458825,0,0,0.33458825,-0.49999999,-0.49999999)"
         clip-rule="evenodd"
         id="path35" />
    </clipPath>
    <clipPath
       clipPathUnits="userSpaceOnUse"
       id="clipPath37">
      <path
         d="M 0,0 H 1416.6666 V 579.81714 H 0 Z"
         transform="matrix(0.33458825,0,0,0.33458825,-0.49999999,-0.49999999)"
         clip-rule="evenodd"
         id="path37" />
    </clipPath>
    <clipPath
       clipPathUnits="userSpaceOnUse"
       id="clipPath38">
      <path
         d="M 0,0 H 1416.6666 V 579.81714 H 0 Z"
         transform="matrix(0.33458489,0,0,0.33458489,-413.0625,-65)"
         clip-rule="evenodd"
         id="path38" />
    </clipPath>
    <clipPath
       clipPathUnits="userSpaceOnUse"
       id="clipPath40">
      <path
         d="M 0,0 H 1416.6666 V 579.81714 H 0 Z"
         transform="matrix(0.33458825,0,0,0.33458825,-0.49999999,-0.49999999)"
         clip-rule="evenodd"
         id="path40" />
    </clipPath>
    <clipPath
       clipPathUnits="userSpaceOnUse"
       id="clipPath41">
      <path
         d="M 0,0 H 1416.6666 V 579.81714 H 0 Z"
         transform="matrix(0.33458489,0,0,0.33458489,-299.20313,-90.000001)"
         clip-rule="evenodd"
         id="path41" />
    </clipPath>
    <clipPath
       clipPathUnits="userSpaceOnUse"
       id="clipPath42">
      <path
         d="M 0,0 H 1416.6666 V 579.81714 H 0 Z"
         transform="matrix(0.33458489,0,0,0.33458489,-306.42188,-106)"
         clip-rule="evenodd"
         id="path42" />
    </clipPath>
    <clipPath
       clipPathUnits="userSpaceOnUse"
       id="clipPath44">
      <path
         d="M 0,0 H 1416.6666 V 579.81714 H 0 Z"
         transform="matrix(0.33458825,0,0,0.33458825,-0.49999999,-0.49999999)"
         clip-rule="evenodd"
         id="path44" />
    </clipPath>
    <clipPath
       clipPathUnits="userSpaceOnUse"
       id="clipPath45">
      <path
         d="M 0,0 H 1416.6666 V 579.81714 H 0 Z"
         transform="matrix(0.33458489,0,0,0.33458489,-290.21875,-128)"
         clip-rule="evenodd"
         id="path45" />
    </clipPath>
    <clipPath
       clipPathUnits="userSpaceOnUse"
       id="clipPath46">
      <path
         d="M 0,0 H 1416.6666 V 579.81714 H 0 Z"
         transform="matrix(0.33458489,0,0,0.33458489,-288.21875,-139)"
         clip-rule="evenodd"
         id="path46" />
    </clipPath>
    <clipPath
       clipPathUnits="userSpaceOnUse"
       id="clipPath47">
      <path
         d="M 0,0 H 1416.6666 V 579.81714 H 0 Z"
         transform="matrix(0.33458489,0,0,0.33458489,-284.46875,-150)"
         clip-rule="evenodd"
         id="path47" />
    </clipPath>
    <clipPath
       clipPathUnits="userSpaceOnUse"
       id="clipPath49">
      <path
         d="M 0,0 H 1416.6666 V 579.81714 H 0 Z"
         transform="matrix(0.33458825,0,0,0.33458825,-0.49999999,-0.49999999)"
         clip-rule="evenodd"
         id="path49" />
    </clipPath>
    <clipPath
       clipPathUnits="userSpaceOnUse"
       id="clipPath50">
      <path
         d="M 0,0 H 1416.6666 V 579.81714 H 0 Z"
         transform="matrix(0.33458489,0,0,0.33458489,-121.73438,-93.000001)"
         clip-rule="evenodd"
         id="path50" />
    </clipPath>
    <clipPath
       clipPathUnits="userSpaceOnUse"
       id="clipPath51">
      <path
         d="M 0,0 H 1416.6666 V 579.81714 H 0 Z"
         transform="matrix(0.33458489,0,0,0.33458489,-110.90625,-109)"
         clip-rule="evenodd"
         id="path51" />
    </clipPath>
    <clipPath
       clipPathUnits="userSpaceOnUse"
       id="clipPath52">
      <path
         d="M 0,0 H 1416.6666 V 579.81714 H 0 Z"
         transform="matrix(0.33458489,0,0,0.33458489,-106.92188,-124)"
         clip-rule="evenodd"
         id="path52" />
    </clipPath>
    <clipPath
       clipPathUnits="userSpaceOnUse"
       id="clipPath54">
      <path
         d="M 0,0 H 1416.6666 V 579.81714 H 0 Z"
         transform="matrix(0.33458825,0,0,0.33458825,-0.49999999,-0.49999999)"
         clip-rule="evenodd"
         id="path54" />
    </clipPath>
    <clipPath
       clipPathUnits="userSpaceOnUse"
       id="clipPath56">
      <path
         d="M 0,0 H 1416.6666 V 579.81714 H 0 Z"
         transform="matrix(0.33458825,0,0,0.33458825,-0.49999999,-0.49999999)"
         clip-rule="evenodd"
         id="path56" />
    </clipPath>
    <clipPath
       clipPathUnits="userSpaceOnUse"
       id="clipPath58">
      <path
         d="M 0,0 H 1416.6666 V 579.81714 H 0 Z"
         transform="matrix(0.33458825,0,0,0.33458825,-0.49999999,-0.49999999)"
         clip-rule="evenodd"
         id="path58" />
    </clipPath>
    <clipPath
       clipPathUnits="userSpaceOnUse"
       id="clipPath59">
      <path
         d="M 0,0 H 1416.6666 V 579.81714 H 0 Z"
         transform="matrix(0.33458489,0,0,0.33458489,-102.39062,-143)"
         clip-rule="evenodd"
         id="path59" />
    </clipPath>
    <clipPath
       clipPathUnits="userSpaceOnUse"
       id="clipPath60">
      <path
         d="M 0,0 H 1416.6666 V 579.81714 H 0 Z"
         transform="matrix(0.33458489,0,0,0.33458489,-102.48438,-153)"
         clip-rule="evenodd"
         id="path60" />
    </clipPath>
    <clipPath
       clipPathUnits="userSpaceOnUse"
       id="clipPath61">
      <path
         d="M 0,0 H 1416.6666 V 579.81714 H 0 Z"
         transform="matrix(0.33458489,0,0,0.33458489,-111.46875,-164)"
         clip-rule="evenodd"
         id="path61" />
    </clipPath>
    <clipPath
       clipPathUnits="userSpaceOnUse"
       id="clipPath62">
      <path
         d="M 0,0 H 1416.6666 V 579.81714 H 0 Z"
         transform="matrix(0.33458489,0,0,0.33458489,-107.21875,-175)"
         clip-rule="evenodd"
         id="path62" />
    </clipPath>
    <clipPath
       clipPathUnits="userSpaceOnUse"
       id="clipPath63">
      <path
         d="M 0,0 H 1416.6666 V 579.81714 H 0 Z"
         transform="matrix(0.33458489,0,0,0.33458489,-128.23437,-186.00001)"
         clip-rule="evenodd"
         id="path63" />
    </clipPath>
  </defs>
  <sodipodi:namedview
     id="namedview1"
     pagecolor="#ffffff"
     bordercolor="#000000"
     borderopacity="0.25"
     inkscape:showpageshadow="2"
     inkscape:pageopacity="0.0"
     inkscape:pagecheckerboard="0"
     inkscape:deskcolor="#d1d1d1">
    <inkscape:page
       x="0"
       y="0"
       inkscape:label="1"
       id="page1"
       width="453.44"
       height="186.56"
       margin="0"
       bleed="0" />
  </sodipodi:namedview>
  <g
     id="g1"
     inkscape:groupmode="layer"
     inkscape:label="1">
    <path
       id="path1"
       d="M 0,0 H 474 V 195 H 0 Z"
       style="fill:#ffffff;fill-opacity:1;fill-rule:nonzero;stroke:none"
       transform="scale(0.95639935)"
       clip-path="url(#clipPath2)" />
    <path
       id="path3"
       d="M 1,56 H 71 V 86 H 1 Z"
       style="fill:#ffffff;fill-opacity:1;fill-rule:nonzero;stroke:#000000;stroke-width:1;stroke-linecap:butt;stroke-linejoin:miter;stroke-miterlimit:10;stroke-dasharray:none;stroke-opacity:1"
       transform="matrix(0.95639935,0,0,0.95639935,0.47819967,0.47819967)"
       clip-path="url(#clipPath4)" />
    <text
       id="text4"
       xml:space="preserve"
       transform="matrix(0.95640895,0,0,0.95640895,6.1568826,71.730671)"
       clip-path="url(#clipPath5)"><tspan
         style="font-variant:normal;font-weight:normal;font-size:11px;font-family:Helvetica;writing-mode:lr-tb;fill:#000000;fill-opacity:1;fill-rule:nonzero;stroke:none"
         x="0 8.5561523 15.893066 22.418945 25.475098 28.53125 34.648926 40.766602 43.822754 49.94043 52.996582"
         y="0"
         sodipodi:role="line"
         id="tspan4">GET /auth/2</tspan></text>
    <path
       id="path6"
       d="M 71,46 H 184.63"
       style="fill:none;stroke:#000000;stroke-width:1;stroke-linecap:butt;stroke-linejoin:miter;stroke-miterlimit:10;stroke-dasharray:none;stroke-opacity:1"
       transform="matrix(0.95639935,0,0,0.95639935,0.47819967,0.47819967)"
       clip-path="url(#clipPath7)" />
    <path
       id="path8"
       d="m 189.88,46 -7,3.5 1.75,-3.5 -1.75,-3.5 z"
       style="fill:#000000;fill-opacity:1;fill-rule:nonzero;stroke:#000000;stroke-width:1;stroke-linecap:butt;stroke-linejoin:miter;stroke-miterlimit:10;stroke-dasharray:none;stroke-opacity:1"
       transform="matrix(0.95639935,0,0,0.95639935,0.47819967,0.47819967)"
       clip-path="url(#clipPath9)" />
    <path
       id="path10"
       d="M 1,36 H 71 V 56 H 1 Z"
       style="fill:#ffffff;fill-opacity:1;fill-rule:nonzero;stroke:#000000;stroke-width:1;stroke-linecap:butt;stroke-linejoin:miter;stroke-miterlimit:10;stroke-dasharray:none;stroke-opacity:1"
       transform="matrix(0.95639935,0,0,0.95639935,0.47819967,0.47819967)"
       clip-path="url(#clipPath11)" />
    <text
       id="text11"
       xml:space="preserve"
       transform="matrix(0.95640895,0,0,0.95640895,13.673659,47.820448)"
       clip-path="url(#clipPath12)"><tspan
         style="font-variant:normal;font-weight:700;font-size:11px;font-family:Helvetica;writing-mode:lr-tb;fill:#000000;fill-opacity:1;fill-rule:nonzero;stroke:none"
         x="0 7.9438477 14.061523 20.780762 27.5 33.617676 39.735352"
         y="0"
         sodipodi:role="line"
         id="tspan11">Request</tspan></text>
    <path
       id="path13"
       d="m 191,1 h 70 v 30 h -70 z"
       style="fill:#dae8fc;fill-opacity:1;fill-rule:nonzero;stroke:#6c8ebf;stroke-width:1;stroke-linecap:butt;stroke-linejoin:miter;stroke-miterlimit:10;stroke-dasharray:none;stroke-opacity:1"
       transform="matrix(0.95639935,0,0,0.95639935,0.47819967,0.47819967)"
       clip-path="url(#clipPath14)" />
    <text
       id="text14"
       xml:space="preserve"
       transform="matrix(0.95640895,0,0,0.95640895,201.51836,12.433316)"
       clip-path="url(#clipPath15)"><tspan
         style="font-variant:normal;font-weight:700;font-size:11px;font-family:Helvetica;writing-mode:lr-tb;fill:#000000;fill-opacity:1;fill-rule:nonzero;stroke:none"
         x="0 7.9438477 14.061523 20.179199 24.459961"
         y="0"
         sodipodi:role="line"
         id="tspan14">Users</tspan></text>
    <text
       id="text15"
       xml:space="preserve"
       transform="matrix(0.95640895,0,0,0.95640895,191.0128,25.823042)"
       clip-path="url(#clipPath16)"><tspan
         style="font-variant:normal;font-weight:700;font-size:11px;font-family:Helvetica;writing-mode:lr-tb;fill:#000000;fill-opacity:1;fill-rule:nonzero;stroke:none"
         x="0 7.9438477 14.663086 21.382324 25.04541 29.326172 36.04541 39.101562 42.157715 48.275391"
         y="0"
         sodipodi:role="line"
         id="tspan15">Controller</tspan></text>
    <path
       id="path17"
       d="M 261,46 H 394.64001"
       style="fill:none;stroke:#000000;stroke-width:1;stroke-linecap:butt;stroke-linejoin:miter;stroke-miterlimit:10;stroke-dasharray:none;stroke-opacity:1"
       transform="matrix(0.95639935,0,0,0.95639935,0.47819967,0.47819967)"
       clip-path="url(#clipPath18)" />
    <path
       id="path19"
       d="m 399.89001,46 -7,3.5 1.75,-3.5 -1.75,-3.5 z"
       style="fill:#000000;fill-opacity:1;fill-rule:nonzero;stroke:#000000;stroke-width:1;stroke-linecap:butt;stroke-linejoin:miter;stroke-miterlimit:10;stroke-dasharray:none;stroke-opacity:1"
       transform="matrix(0.95639935,0,0,0.95639935,0.47819967,0.47819967)"
       clip-path="url(#clipPath20)" />
    <path
       id="path21"
       d="M 191,76 H 131 L 76.389999,76.09"
       style="fill:none;stroke:#000000;stroke-width:1;stroke-linecap:butt;stroke-linejoin:miter;stroke-miterlimit:10;stroke-dasharray:none;stroke-opacity:1"
       transform="matrix(0.95639935,0,0,0.95639935,0.47819967,0.47819967)"
       clip-path="url(#clipPath22)" />
    <path
       id="path23"
       d="m 71.139999,76.099998 6.989998,-3.510002 -1.739998,3.5 1.75,3.5 z"
       style="fill:#000000;fill-opacity:1;fill-rule:nonzero;stroke:#000000;stroke-width:1;stroke-linecap:butt;stroke-linejoin:miter;stroke-miterlimit:10;stroke-dasharray:none;stroke-opacity:1"
       transform="matrix(0.95639935,0,0,0.95639935,0.47819967,0.47819967)"
       clip-path="url(#clipPath24)" />
    <path
       id="path25"
       d="m 191,31 h 70 v 60 h -70 z"
       style="fill:#dae8fc;fill-opacity:1;fill-rule:nonzero;stroke:#6c8ebf;stroke-width:1;stroke-linecap:butt;stroke-linejoin:miter;stroke-miterlimit:10;stroke-dasharray:none;stroke-opacity:1"
       transform="matrix(0.95639935,0,0,0.95639935,0.47819967,0.47819967)"
       clip-path="url(#clipPath26)" />
    <g
       id="g26" />
    <text
       id="text26"
       xml:space="preserve"
       transform="matrix(0.95640895,0,0,0.95640895,193.04517,62.166582)"
       clip-path="url(#clipPath27)"><tspan
         style="font-variant:normal;font-weight:normal;font-size:11px;font-family:Helvetica;writing-mode:lr-tb;fill:#000000;fill-opacity:1;fill-rule:nonzero;stroke:none"
         x="0 5.5 11.617676 17.735352 25.679199 31.179199 37.296875 40.959961 44.623047"
         y="0"
         sodipodi:role="line"
         id="tspan26">ﬁndUser()</tspan></text>
    <path
       id="path28"
       d="m 401,1 h 70 v 30 h -70 z"
       style="fill:#dae8fc;fill-opacity:1;fill-rule:nonzero;stroke:#6c8ebf;stroke-width:1;stroke-linecap:butt;stroke-linejoin:miter;stroke-miterlimit:10;stroke-dasharray:none;stroke-opacity:1"
       transform="matrix(0.95639935,0,0,0.95639935,0.47819967,0.47819967)"
       clip-path="url(#clipPath29)" />
    <text
       id="text29"
       xml:space="preserve"
       transform="matrix(0.95640895,0,0,0.95640895,402.36424,12.433316)"
       clip-path="url(#clipPath30)"><tspan
         style="font-variant:normal;font-weight:700;font-size:11px;font-family:Helvetica;writing-mode:lr-tb;fill:#000000;fill-opacity:1;fill-rule:nonzero;stroke:none"
         x="0 7.9438477 14.061523 20.179199 24.459961"
         y="0"
         sodipodi:role="line"
         id="tspan29">Users</tspan></text>
    <text
       id="text30"
       xml:space="preserve"
       transform="matrix(0.95640895,0,0,0.95640895,398.26961,25.823042)"
       clip-path="url(#clipPath31)"><tspan
         style="font-variant:normal;font-weight:700;font-size:11px;font-family:Helvetica;writing-mode:lr-tb;fill:#000000;fill-opacity:1;fill-rule:nonzero;stroke:none"
         x="0 7.3369141 13.45459 17.735352 23.853027 26.90918 33.026855"
         y="0"
         sodipodi:role="line"
         id="tspan30">Service</tspan></text>
    <path
       id="path32"
       d="M 401,76 H 267.37"
       style="fill:none;stroke:#000000;stroke-width:1;stroke-linecap:butt;stroke-linejoin:miter;stroke-miterlimit:10;stroke-dasharray:none;stroke-opacity:1"
       transform="matrix(0.95639935,0,0,0.95639935,0.47819967,0.47819967)"
       clip-path="url(#clipPath33)" />
    <path
       id="path34"
       d="m 262.12,76 7,-3.5 -1.75,3.5 1.75,3.5 z"
       style="fill:#000000;fill-opacity:1;fill-rule:nonzero;stroke:#000000;stroke-width:1;stroke-linecap:butt;stroke-linejoin:miter;stroke-miterlimit:10;stroke-dasharray:none;stroke-opacity:1"
       transform="matrix(0.95639935,0,0,0.95639935,0.47819967,0.47819967)"
       clip-path="url(#clipPath35)" />
    <path
       id="path36"
       d="m 401,31 h 70 v 60 h -70 z"
       style="fill:#dae8fc;fill-opacity:1;fill-rule:nonzero;stroke:#6c8ebf;stroke-width:1;stroke-linecap:butt;stroke-linejoin:miter;stroke-miterlimit:10;stroke-dasharray:none;stroke-opacity:1"
       transform="matrix(0.95639935,0,0,0.95639935,0.47819967,0.47819967)"
       clip-path="url(#clipPath37)" />
    <g
       id="g37" />
    <text
       id="text37"
       xml:space="preserve"
       transform="matrix(0.95640895,0,0,0.95640895,395.05667,62.166582)"
       clip-path="url(#clipPath38)"><tspan
         style="font-variant:normal;font-weight:normal;font-size:11px;font-family:Helvetica;writing-mode:lr-tb;fill:#000000;fill-opacity:1;fill-rule:nonzero;stroke:none"
         x="0 5.5 11.617676 17.735352 26.291504 32.40918 38.526855 42.189941"
         y="0"
         sodipodi:role="line"
         id="tspan37">ﬁndOne()</tspan></text>
    <path
       id="path39"
       d="m 281,76 h 100 v 35 H 281 Z"
       style="fill:#f5f5f5;fill-opacity:1;fill-rule:nonzero;stroke:#666666;stroke-width:1;stroke-linecap:butt;stroke-linejoin:miter;stroke-miterlimit:10;stroke-dasharray:none;stroke-opacity:1"
       transform="matrix(0.95639935,0,0,0.95639935,0.47819967,0.47819967)"
       clip-path="url(#clipPath40)" />
    <text
       id="text40"
       xml:space="preserve"
       transform="matrix(0.95640895,0,0,0.95640895,286.16055,86.076806)"
       clip-path="url(#clipPath41)"><tspan
         style="font-variant:normal;font-weight:normal;font-size:13px;font-family:Helvetica;writing-mode:lr-tb;fill:#333333;fill-opacity:1;fill-rule:nonzero;stroke:none"
         x="0 9.3881836 15.888184 23.118164 27.447266 31.059082 39.72998 46.959961 50.571777 53.459961 57.071777"
         y="0"
         sodipodi:role="line"
         id="tspan40">User Entity</tspan></text>
    <text
       id="text41"
       xml:space="preserve"
       transform="matrix(0.95640895,0,0,0.95640895,293.06463,101.37935)"
       clip-path="url(#clipPath42)"><tspan
         style="font-variant:normal;font-weight:normal;font-size:13px;font-family:Helvetica;writing-mode:lr-tb;fill:#333333;fill-opacity:1;fill-rule:nonzero;stroke:none"
         x="0 3.6118164 10.841797 17.341797 20.953613 28.183594 35.413574 41.913574"
         y="0"
         sodipodi:role="line"
         id="tspan41">Instance</tspan></text>
    <path
       id="path43"
       d="m 281,111 h 100 v 50 H 281 Z"
       style="fill:#f5f5f5;fill-opacity:1;fill-rule:nonzero;stroke:#666666;stroke-width:1;stroke-linecap:butt;stroke-linejoin:miter;stroke-miterlimit:10;stroke-dasharray:none;stroke-opacity:1"
       transform="matrix(0.95639935,0,0,0.95639935,0.47819967,0.47819967)"
       clip-path="url(#clipPath44)" />
    <text
       id="text44"
       xml:space="preserve"
       transform="matrix(0.95640895,0,0,0.95640895,277.56781,122.42035)"
       clip-path="url(#clipPath45)"><tspan
         style="font-style:oblique;font-variant:normal;font-weight:normal;font-size:9px;font-family:Helvetica;writing-mode:lr-tb;fill:#333333;fill-opacity:1;fill-rule:nonzero;stroke:none"
         x="0 6.4995117 8.4990234 11.496094 16.501465 21.001465 23.501953 25.501465 30.506836 35.512207 40.012207 42.512695 47.518066 52.523438 55.023926 60.029297 65.034668 71.53418 74.034668 76.535156"
         y="0"
         sodipodi:role="line"
         id="tspan44">Directions on how to</tspan></text>
    <text
       id="text45"
       xml:space="preserve"
       transform="matrix(0.95640895,0,0,0.95640895,275.65499,132.94084)"
       clip-path="url(#clipPath46)"><tspan
         style="font-style:oblique;font-variant:normal;font-weight:normal;font-size:9px;font-family:Helvetica;writing-mode:lr-tb;fill:#333333;fill-opacity:1;fill-rule:nonzero;stroke:none"
         x="0 2.5004883 7.5058594 10.50293 15.508301 18.008789 20.509277 25.514648 27.51416 32.01416 34.514648 36.51416 41.519531 46.019531 48.52002 53.525391 58.530762 63.030762 68.036133 70.536621 75.541992 78.04248 80.542969"
         y="0"
         sodipodi:role="line"
         id="tspan45">turn this instance of a</tspan></text>
    <text
       id="text46"
       xml:space="preserve"
       transform="matrix(0.95640895,0,0,0.95640895,272.06846,143.46134)"
       clip-path="url(#clipPath47)"><tspan
         style="font-style:oblique;font-variant:normal;font-weight:normal;font-size:9px;font-family:Helvetica;writing-mode:lr-tb;fill:#333333;fill-opacity:1;fill-rule:nonzero;stroke:none"
         x="0 4.5 6.4995117 11.504883 16.004883 20.504883 23.005371 25.004883 30.010254 32.510742 37.516113 40.016602 45.021973 47.522461 52.527832 54.527344 59.532715 61.532227 66.537598 69.038086 74.043457 79.048828 81.04834 86.053711 90.553711"
         y="0"
         sodipodi:role="line"
         id="tspan46">class into a plain object</tspan></text>
    <path
       id="path48"
       d="m 98,76 h 80 v 55 H 98 Z"
       style="fill:#f5f5f5;fill-opacity:1;fill-rule:nonzero;stroke:#666666;stroke-width:1;stroke-linecap:butt;stroke-linejoin:miter;stroke-miterlimit:10;stroke-dasharray:none;stroke-opacity:1"
       transform="matrix(0.95639935,0,0,0.95639935,0.47819967,0.47819967)"
       clip-path="url(#clipPath49)" />
    <text
       id="text49"
       xml:space="preserve"
       transform="matrix(0.95640895,0,0,0.95640895,116.42785,88.946033)"
       clip-path="url(#clipPath50)"><tspan
         style="font-variant:normal;font-weight:normal;font-size:13px;font-family:Helvetica;writing-mode:lr-tb;fill:#333333;fill-opacity:1;fill-rule:nonzero;stroke:none"
         x="0 9.3881836 12.276367 19.506348 26.006348"
         y="0"
         sodipodi:role="line"
         id="tspan49">Class</tspan></text>
    <text
       id="text50"
       xml:space="preserve"
       transform="matrix(0.95640895,0,0,0.95640895,106.07173,104.24858)"
       clip-path="url(#clipPath51)"><tspan
         style="font-variant:normal;font-weight:normal;font-size:13px;font-family:Helvetica;writing-mode:lr-tb;fill:#333333;fill-opacity:1;fill-rule:nonzero;stroke:none"
         x="0 8.6708984 15.900879 20.22998 23.118164 30.348145 33.236328 36.124512 42.624512 49.854492"
         y="0"
         sodipodi:role="line"
         id="tspan50">Serializer</tspan></text>
    <text
       id="text51"
       xml:space="preserve"
       transform="matrix(0.95640895,0,0,0.95640895,102.26104,118.59471)"
       clip-path="url(#clipPath52)"><tspan
         style="font-variant:normal;font-weight:normal;font-size:13px;font-family:Helvetica;writing-mode:lr-tb;fill:#333333;fill-opacity:1;fill-rule:nonzero;stroke:none"
         x="0 3.6118164 10.841797 14.453613 21.683594 26.012695 32.512695 39.742676 46.972656 50.584473 57.814453"
         y="0"
         sodipodi:role="line"
         id="tspan51">Interceptor</tspan></text>
    <path
       id="path53"
       d="m 178,161 h 51.5 v -25 h 45.13"
       style="fill:none;stroke:#000000;stroke-width:1;stroke-linecap:butt;stroke-linejoin:miter;stroke-miterlimit:10;stroke-dasharray:none;stroke-opacity:1"
       transform="matrix(0.95639935,0,0,0.95639935,0.47819967,0.47819967)"
       clip-path="url(#clipPath54)" />
    <path
       id="path55"
       d="m 279.88,136 -7,3.5 1.75,-3.5 -1.75,-3.5 z"
       style="fill:#000000;fill-opacity:1;fill-rule:nonzero;stroke:#000000;stroke-width:1;stroke-linecap:butt;stroke-linejoin:miter;stroke-miterlimit:10;stroke-dasharray:none;stroke-opacity:1"
       transform="matrix(0.95639935,0,0,0.95639935,0.47819967,0.47819967)"
       clip-path="url(#clipPath56)" />
    <path
       id="path57"
       d="m 98,131 h 80 v 60 H 98 Z"
       style="fill:#f5f5f5;fill-opacity:1;fill-rule:nonzero;stroke:#666666;stroke-width:1;stroke-linecap:butt;stroke-linejoin:miter;stroke-miterlimit:10;stroke-dasharray:none;stroke-opacity:1"
       transform="matrix(0.95639935,0,0,0.95639935,0.47819967,0.47819967)"
       clip-path="url(#clipPath58)" />
    <text
       id="text58"
       xml:space="preserve"
       transform="matrix(0.95640895,0,0,0.95640895,97.92731,136.76648)"
       clip-path="url(#clipPath59)"><tspan
         style="font-style:oblique;font-variant:normal;font-weight:normal;font-size:9px;font-family:Helvetica;writing-mode:lr-tb;fill:#333333;fill-opacity:1;fill-rule:nonzero;stroke:none"
         x="0 5.1679688 10.17334 13.17041 18.175781 22.675781 25.17627 30.181641 35.187012 37.6875 39.687012 44.692383 49.192383 51.692871 56.698242 61.703613 66.203613"
         y="0"
         sodipodi:role="line"
         id="tspan58">Turns an instance</tspan></text>
    <text
       id="text59"
       xml:space="preserve"
       transform="matrix(0.95640895,0,0,0.95640895,98.016974,146.33057)"
       clip-path="url(#clipPath60)"><tspan
         style="font-style:oblique;font-variant:normal;font-weight:normal;font-size:9px;font-family:Helvetica;writing-mode:lr-tb;fill:#333333;fill-opacity:1;fill-rule:nonzero;stroke:none"
         x="0 5.0053711 7.5058594 10.006348 16.505859 21.005859 26.01123 29.008301 31.508789 37.511719 42.51709 45.017578 47.01709 49.517578 54.017578 56.518066 58.517578 63.522949 66.023438"
         y="0"
         sodipodi:role="line"
         id="tspan59">of User Entity into</tspan></text>
    <text
       id="text60"
       xml:space="preserve"
       transform="matrix(0.95640895,0,0,0.95640895,106.60971,156.85107)"
       clip-path="url(#clipPath61)"><tspan
         style="font-style:oblique;font-variant:normal;font-weight:normal;font-size:9px;font-family:Helvetica;writing-mode:lr-tb;fill:#333333;fill-opacity:1;fill-rule:nonzero;stroke:none"
         x="0 5.0053711 7.5058594 12.51123 14.510742 19.516113 21.515625 26.520996 29.021484 34.026855 39.032227 41.031738 46.037109 50.537109"
         y="0"
         sodipodi:role="line"
         id="tspan60">a plain object</tspan></text>
    <text
       id="text61"
       xml:space="preserve"
       transform="matrix(0.95640895,0,0,0.95640895,102.54497,167.37157)"
       clip-path="url(#clipPath62)"><tspan
         style="font-style:oblique;font-variant:normal;font-weight:normal;font-size:9px;font-family:Helvetica;writing-mode:lr-tb;fill:#333333;fill-opacity:1;fill-rule:nonzero;stroke:none"
         x="0 5.0053711 10.010742 14.510742 19.516113 24.521484 27.021973 32.027344 37.032715 39.533203 44.033203 49.038574 56.535645"
         y="0"
         sodipodi:role="line"
         id="tspan61">based on some</tspan></text>
    <text
       id="text62"
       xml:space="preserve"
       transform="matrix(0.95640895,0,0,0.95640895,122.6445,177.89207)"
       clip-path="url(#clipPath63)"><tspan
         style="font-style:oblique;font-variant:normal;font-weight:normal;font-size:9px;font-family:Helvetica;writing-mode:lr-tb;fill:#333333;fill-opacity:1;fill-rule:nonzero;stroke:none"
         x="0 2.9970703 8.0024414 10.001953 15.007324"
         y="0"
         sodipodi:role="line"
         id="tspan62">rules</tspan></text>
  </g>
</svg>
