<?xml version="1.0" encoding="UTF-8" standalone="no"?>
<!-- Created with Inkscape (http://www.inkscape.org/) -->

<svg
   version="1.1"
   id="svg1"
   width="510.71997"
   height="241.27998"
   viewBox="0 0 510.71997 241.27998"
   sodipodi:docname="nest-31.pdf"
   xmlns:inkscape="http://www.inkscape.org/namespaces/inkscape"
   xmlns:sodipodi="http://sodipodi.sourceforge.net/DTD/sodipodi-0.dtd"
   xmlns="http://www.w3.org/2000/svg"
   xmlns:svg="http://www.w3.org/2000/svg">
  <defs
     id="defs1">
    <clipPath
       clipPathUnits="userSpaceOnUse"
       id="clipPath2">
      <path
         d="M 0,0 H 1595.8334 V 753.0899 H 0 Z"
         transform="scale(0.3346214)"
         clip-rule="evenodd"
         id="path2" />
    </clipPath>
    <clipPath
       clipPathUnits="userSpaceOnUse"
       id="clipPath4">
      <path
         d="M 0,0 H 1595.8334 V 750.10144 H 0 Z"
         transform="matrix(0.3346214,0,0,0.3346214,-0.49999999,-0.49999999)"
         clip-rule="evenodd"
         id="path4" />
    </clipPath>
    <clipPath
       clipPathUnits="userSpaceOnUse"
       id="clipPath5">
      <path
         d="M 0,0 H 1595.8334 V 750.10144 H 0 Z"
         transform="matrix(0.33461804,0,0,0.33461804,-174.6875,-68)"
         clip-rule="evenodd"
         id="path5" />
    </clipPath>
    <clipPath
       clipPathUnits="userSpaceOnUse"
       id="clipPath6">
      <path
         d="M 0,0 H 1595.8334 V 750.10144 H 0 Z"
         transform="matrix(0.33461804,0,0,0.33461804,-151.4375,-82)"
         clip-rule="evenodd"
         id="path6" />
    </clipPath>
    <clipPath
       clipPathUnits="userSpaceOnUse"
       id="clipPath7">
      <path
         d="M 0,0 H 1595.8334 V 750.10144 H 0 Z"
         transform="matrix(0.33461804,0,0,0.33461804,-154.5,-82)"
         clip-rule="evenodd"
         id="path7" />
    </clipPath>
    <clipPath
       clipPathUnits="userSpaceOnUse"
       id="clipPath8">
      <path
         d="M 0,0 H 1595.8334 V 750.10144 H 0 Z"
         transform="matrix(0.33461804,0,0,0.33461804,-186.90625,-82)"
         clip-rule="evenodd"
         id="path8" />
    </clipPath>
    <clipPath
       clipPathUnits="userSpaceOnUse"
       id="clipPath10">
      <path
         d="M 0,0 H 1595.8334 V 750.10144 H 0 Z"
         transform="matrix(0.3346214,0,0,0.3346214,-0.49999999,-0.49999999)"
         clip-rule="evenodd"
         id="path10" />
    </clipPath>
    <clipPath
       clipPathUnits="userSpaceOnUse"
       id="clipPath12">
      <path
         d="M 0,0 H 1595.8334 V 750.10144 H 0 Z"
         transform="matrix(0.3346214,0,0,0.3346214,-0.49999999,-0.49999999)"
         clip-rule="evenodd"
         id="path12" />
    </clipPath>
    <clipPath
       clipPathUnits="userSpaceOnUse"
       id="clipPath14">
      <path
         d="M 0,0 H 1595.8334 V 750.10144 H 0 Z"
         transform="matrix(0.3346214,0,0,0.3346214,-0.49999999,-0.49999999)"
         clip-rule="evenodd"
         id="path14" />
    </clipPath>
    <clipPath
       clipPathUnits="userSpaceOnUse"
       id="clipPath15">
      <path
         d="M 0,0 H 1595.8334 V 750.10144 H 0 Z"
         transform="matrix(0.33461804,0,0,0.33461804,-164.29687,-50)"
         clip-rule="evenodd"
         id="path15" />
    </clipPath>
    <clipPath
       clipPathUnits="userSpaceOnUse"
       id="clipPath17">
      <path
         d="M 0,0 H 1595.8334 V 750.10144 H 0 Z"
         transform="matrix(0.3346214,0,0,0.3346214,-0.49999999,-0.49999999)"
         clip-rule="evenodd"
         id="path17" />
    </clipPath>
    <clipPath
       clipPathUnits="userSpaceOnUse"
       id="clipPath18">
      <path
         d="M 0,0 H 1595.8334 V 750.10144 H 0 Z"
         transform="matrix(0.33461804,0,0,0.33461804,-267.89063,-20)"
         clip-rule="evenodd"
         id="path18" />
    </clipPath>
    <clipPath
       clipPathUnits="userSpaceOnUse"
       id="clipPath20">
      <path
         d="M 0,0 H 1595.8334 V 750.10144 H 0 Z"
         transform="matrix(0.3346214,0,0,0.3346214,-0.49999999,-0.49999999)"
         clip-rule="evenodd"
         id="path20" />
    </clipPath>
    <clipPath
       clipPathUnits="userSpaceOnUse"
       id="clipPath22">
      <path
         d="M 0,0 H 1595.8334 V 750.10144 H 0 Z"
         transform="matrix(0.3346214,0,0,0.3346214,-0.49999999,-0.49999999)"
         clip-rule="evenodd"
         id="path22" />
    </clipPath>
    <clipPath
       clipPathUnits="userSpaceOnUse"
       id="clipPath24">
      <path
         d="M 0,0 H 1595.8334 V 750.10144 H 0 Z"
         transform="matrix(0.3346214,0,0,0.3346214,-0.49999999,-0.49999999)"
         clip-rule="evenodd"
         id="path24" />
    </clipPath>
    <clipPath
       clipPathUnits="userSpaceOnUse"
       id="clipPath25">
      <path
         d="M 0,0 H 1595.8334 V 750.10144 H 0 Z"
         transform="matrix(0.33461804,0,0,0.33461804,-263.01563,-65)"
         clip-rule="evenodd"
         id="path25" />
    </clipPath>
    <clipPath
       clipPathUnits="userSpaceOnUse"
       id="clipPath27">
      <path
         d="M 0,0 H 1595.8334 V 750.10144 H 0 Z"
         transform="matrix(0.3346214,0,0,0.3346214,-0.49999999,-0.49999999)"
         clip-rule="evenodd"
         id="path27" />
    </clipPath>
    <clipPath
       clipPathUnits="userSpaceOnUse"
       id="clipPath28">
      <path
         d="M 0,0 H 1595.8334 V 750.10144 H 0 Z"
         transform="matrix(0.33461804,0,0,0.33461804,-465.70313,-74)"
         clip-rule="evenodd"
         id="path28" />
    </clipPath>
    <clipPath
       clipPathUnits="userSpaceOnUse"
       id="clipPath29">
      <path
         d="M 0,0 H 1595.8334 V 750.10144 H 0 Z"
         transform="matrix(0.33461804,0,0,0.33461804,-461.42188,-88)"
         clip-rule="evenodd"
         id="path29" />
    </clipPath>
    <clipPath
       clipPathUnits="userSpaceOnUse"
       id="clipPath31">
      <path
         d="M 0,0 H 1595.8334 V 750.10144 H 0 Z"
         transform="matrix(0.3346214,0,0,0.3346214,-0.49999999,-0.49999999)"
         clip-rule="evenodd"
         id="path31" />
    </clipPath>
    <clipPath
       clipPathUnits="userSpaceOnUse"
       id="clipPath33">
      <path
         d="M 0,0 H 1595.8334 V 750.10144 H 0 Z"
         transform="matrix(0.3346214,0,0,0.3346214,-0.49999999,-0.49999999)"
         clip-rule="evenodd"
         id="path33" />
    </clipPath>
    <clipPath
       clipPathUnits="userSpaceOnUse"
       id="clipPath35">
      <path
         d="M 0,0 H 1595.8334 V 750.10144 H 0 Z"
         transform="matrix(0.3346214,0,0,0.3346214,-0.49999999,-0.49999999)"
         clip-rule="evenodd"
         id="path35" />
    </clipPath>
    <clipPath
       clipPathUnits="userSpaceOnUse"
       id="clipPath37">
      <path
         d="M 0,0 H 1595.8334 V 750.10144 H 0 Z"
         transform="matrix(0.3346214,0,0,0.3346214,-0.49999999,-0.49999999)"
         clip-rule="evenodd"
         id="path37" />
    </clipPath>
    <clipPath
       clipPathUnits="userSpaceOnUse"
       id="clipPath39">
      <path
         d="M 0,0 H 1595.8334 V 750.10144 H 0 Z"
         transform="matrix(0.3346214,0,0,0.3346214,-0.49999999,-0.49999999)"
         clip-rule="evenodd"
         id="path39" />
    </clipPath>
    <clipPath
       clipPathUnits="userSpaceOnUse"
       id="clipPath40">
      <path
         d="M 0,0 H 1595.8334 V 750.10144 H 0 Z"
         transform="matrix(0.33461804,0,0,0.33461804,-458.0625,-126)"
         clip-rule="evenodd"
         id="path40" />
    </clipPath>
    <clipPath
       clipPathUnits="userSpaceOnUse"
       id="clipPath42">
      <path
         d="M 0,0 H 1595.8334 V 750.10144 H 0 Z"
         transform="matrix(0.3346214,0,0,0.3346214,-0.49999999,-0.49999999)"
         clip-rule="evenodd"
         id="path42" />
    </clipPath>
    <clipPath
       clipPathUnits="userSpaceOnUse"
       id="clipPath43">
      <path
         d="M 0,0 H 1595.8334 V 750.10144 H 0 Z"
         transform="matrix(0.33461804,0,0,0.33461804,-174.67188,-188)"
         clip-rule="evenodd"
         id="path43" />
    </clipPath>
    <clipPath
       clipPathUnits="userSpaceOnUse"
       id="clipPath44">
      <path
         d="M 0,0 H 1595.8334 V 750.10144 H 0 Z"
         transform="matrix(0.33461804,0,0,0.33461804,-169.17188,-202)"
         clip-rule="evenodd"
         id="path44" />
    </clipPath>
    <clipPath
       clipPathUnits="userSpaceOnUse"
       id="clipPath46">
      <path
         d="M 0,0 H 1595.8334 V 750.10144 H 0 Z"
         transform="matrix(0.3346214,0,0,0.3346214,-0.49999999,-0.49999999)"
         clip-rule="evenodd"
         id="path46" />
    </clipPath>
    <clipPath
       clipPathUnits="userSpaceOnUse"
       id="clipPath48">
      <path
         d="M 0,0 H 1595.8334 V 750.10144 H 0 Z"
         transform="matrix(0.3346214,0,0,0.3346214,-0.49999999,-0.49999999)"
         clip-rule="evenodd"
         id="path48" />
    </clipPath>
    <clipPath
       clipPathUnits="userSpaceOnUse"
       id="clipPath50">
      <path
         d="M 0,0 H 1595.8334 V 750.10144 H 0 Z"
         transform="matrix(0.3346214,0,0,0.3346214,-0.49999999,-0.49999999)"
         clip-rule="evenodd"
         id="path50" />
    </clipPath>
    <clipPath
       clipPathUnits="userSpaceOnUse"
       id="clipPath51">
      <path
         d="M 0,0 H 1595.8334 V 750.10144 H 0 Z"
         transform="matrix(0.33461804,0,0,0.33461804,-164.29687,-170)"
         clip-rule="evenodd"
         id="path51" />
    </clipPath>
    <clipPath
       clipPathUnits="userSpaceOnUse"
       id="clipPath53">
      <path
         d="M 0,0 H 1595.8334 V 750.10144 H 0 Z"
         transform="matrix(0.3346214,0,0,0.3346214,-0.49999999,-0.49999999)"
         clip-rule="evenodd"
         id="path53" />
    </clipPath>
    <clipPath
       clipPathUnits="userSpaceOnUse"
       id="clipPath54">
      <path
         d="M 0,0 H 1595.8334 V 750.10144 H 0 Z"
         transform="matrix(0.33461804,0,0,0.33461804,-267.89063,-140)"
         clip-rule="evenodd"
         id="path54" />
    </clipPath>
    <clipPath
       clipPathUnits="userSpaceOnUse"
       id="clipPath56">
      <path
         d="M 0,0 H 1595.8334 V 750.10144 H 0 Z"
         transform="matrix(0.3346214,0,0,0.3346214,-0.49999999,-0.49999999)"
         clip-rule="evenodd"
         id="path56" />
    </clipPath>
    <clipPath
       clipPathUnits="userSpaceOnUse"
       id="clipPath58">
      <path
         d="M 0,0 H 1595.8334 V 750.10144 H 0 Z"
         transform="matrix(0.3346214,0,0,0.3346214,-0.49999999,-0.49999999)"
         clip-rule="evenodd"
         id="path58" />
    </clipPath>
    <clipPath
       clipPathUnits="userSpaceOnUse"
       id="clipPath60">
      <path
         d="M 0,0 H 1595.8334 V 750.10144 H 0 Z"
         transform="matrix(0.3346214,0,0,0.3346214,-0.49999999,-0.49999999)"
         clip-rule="evenodd"
         id="path60" />
    </clipPath>
    <clipPath
       clipPathUnits="userSpaceOnUse"
       id="clipPath61">
      <path
         d="M 0,0 H 1595.8334 V 750.10144 H 0 Z"
         transform="matrix(0.33461804,0,0,0.33461804,-286.84375,-185)"
         clip-rule="evenodd"
         id="path61" />
    </clipPath>
    <clipPath
       clipPathUnits="userSpaceOnUse"
       id="clipPath63">
      <path
         d="M 0,0 H 1595.8334 V 750.10144 H 0 Z"
         transform="matrix(0.3346214,0,0,0.3346214,-0.49999999,-0.49999999)"
         clip-rule="evenodd"
         id="path63" />
    </clipPath>
    <clipPath
       clipPathUnits="userSpaceOnUse"
       id="clipPath65">
      <path
         d="M 0,0 H 1595.8334 V 750.10144 H 0 Z"
         transform="matrix(0.3346214,0,0,0.3346214,-0.49999999,-0.49999999)"
         clip-rule="evenodd"
         id="path65" />
    </clipPath>
    <clipPath
       clipPathUnits="userSpaceOnUse"
       id="clipPath67">
      <path
         d="M 0,0 H 1595.8334 V 750.10144 H 0 Z"
         transform="matrix(0.3346214,0,0,0.3346214,-0.49999999,-0.49999999)"
         clip-rule="evenodd"
         id="path67" />
    </clipPath>
    <clipPath
       clipPathUnits="userSpaceOnUse"
       id="clipPath68">
      <path
         d="M 0,0 H 1595.8334 V 750.10144 H 0 Z"
         transform="matrix(0.33461804,0,0,0.33461804,-15.6875,-64)"
         clip-rule="evenodd"
         id="path68" />
    </clipPath>
    <clipPath
       clipPathUnits="userSpaceOnUse"
       id="clipPath69">
      <path
         d="M 0,0 H 1595.8334 V 750.10144 H 0 Z"
         transform="matrix(0.33461804,0,0,0.33461804,-19.859375,-76)"
         clip-rule="evenodd"
         id="path69" />
    </clipPath>
    <clipPath
       clipPathUnits="userSpaceOnUse"
       id="clipPath70">
      <path
         d="M 0,0 H 1595.8334 V 750.10144 H 0 Z"
         transform="matrix(0.33461804,0,0,0.33461804,-8.46875,-88)"
         clip-rule="evenodd"
         id="path70" />
    </clipPath>
    <clipPath
       clipPathUnits="userSpaceOnUse"
       id="clipPath72">
      <path
         d="M 0,0 H 1595.8334 V 750.10144 H 0 Z"
         transform="matrix(0.3346214,0,0,0.3346214,-0.49999999,-0.49999999)"
         clip-rule="evenodd"
         id="path72" />
    </clipPath>
    <clipPath
       clipPathUnits="userSpaceOnUse"
       id="clipPath74">
      <path
         d="M 0,0 H 1595.8334 V 750.10144 H 0 Z"
         transform="matrix(0.3346214,0,0,0.3346214,-0.49999999,-0.49999999)"
         clip-rule="evenodd"
         id="path74" />
    </clipPath>
    <clipPath
       clipPathUnits="userSpaceOnUse"
       id="clipPath76">
      <path
         d="M 0,0 H 1595.8334 V 750.10144 H 0 Z"
         transform="matrix(0.3346214,0,0,0.3346214,-0.49999999,-0.49999999)"
         clip-rule="evenodd"
         id="path76" />
    </clipPath>
    <clipPath
       clipPathUnits="userSpaceOnUse"
       id="clipPath77">
      <path
         d="M 0,0 H 1595.8334 V 750.10144 H 0 Z"
         transform="matrix(0.33461804,0,0,0.33461804,-6.796875,-189)"
         clip-rule="evenodd"
         id="path77" />
    </clipPath>
    <clipPath
       clipPathUnits="userSpaceOnUse"
       id="clipPath78">
      <path
         d="M 0,0 H 1595.8334 V 750.10144 H 0 Z"
         transform="matrix(0.33461804,0,0,0.33461804,-5.125,-202)"
         clip-rule="evenodd"
         id="path78" />
    </clipPath>
    <clipPath
       clipPathUnits="userSpaceOnUse"
       id="clipPath80">
      <path
         d="M 0,0 H 1595.8334 V 750.10144 H 0 Z"
         transform="matrix(0.3346214,0,0,0.3346214,-0.49999999,-0.49999999)"
         clip-rule="evenodd"
         id="path80" />
    </clipPath>
    <clipPath
       clipPathUnits="userSpaceOnUse"
       id="clipPath81">
      <path
         d="M 0,0 H 1595.8334 V 750.10144 H 0 Z"
         transform="matrix(0.33461804,0,0,0.33461804,-7.078125,-112)"
         clip-rule="evenodd"
         id="path81" />
    </clipPath>
    <clipPath
       clipPathUnits="userSpaceOnUse"
       id="clipPath83">
      <path
         d="M 0,0 H 1595.8334 V 750.10144 H 0 Z"
         transform="matrix(0.3346214,0,0,0.3346214,-0.49999999,-0.49999999)"
         clip-rule="evenodd"
         id="path83" />
    </clipPath>
    <clipPath
       clipPathUnits="userSpaceOnUse"
       id="clipPath84">
      <path
         d="M 0,0 H 1595.8334 V 750.10144 H 0 Z"
         transform="matrix(0.33461804,0,0,0.33461804,-34.3125,-240)"
         clip-rule="evenodd"
         id="path84" />
    </clipPath>
    <clipPath
       clipPathUnits="userSpaceOnUse"
       id="clipPath86">
      <path
         d="M 0,0 H 1595.8334 V 750.10144 H 0 Z"
         transform="matrix(0.3346214,0,0,0.3346214,-0.49999999,-0.49999999)"
         clip-rule="evenodd"
         id="path86" />
    </clipPath>
    <clipPath
       clipPathUnits="userSpaceOnUse"
       id="clipPath87">
      <path
         d="M 0,0 H 1595.8334 V 750.10144 H 0 Z"
         transform="matrix(0.33461804,0,0,0.33461804,-449.20313,-167)"
         clip-rule="evenodd"
         id="path87" />
    </clipPath>
    <clipPath
       clipPathUnits="userSpaceOnUse"
       id="clipPath88">
      <path
         d="M 0,0 H 1595.8334 V 750.10144 H 0 Z"
         transform="matrix(0.33461804,0,0,0.33461804,-456.42189,-183)"
         clip-rule="evenodd"
         id="path88" />
    </clipPath>
    <clipPath
       clipPathUnits="userSpaceOnUse"
       id="clipPath90">
      <path
         d="M 0,0 H 1595.8334 V 750.10144 H 0 Z"
         transform="matrix(0.3346214,0,0,0.3346214,-0.49999999,-0.49999999)"
         clip-rule="evenodd"
         id="path90" />
    </clipPath>
    <clipPath
       clipPathUnits="userSpaceOnUse"
       id="clipPath91">
      <path
         d="M 0,0 H 1595.8334 V 750.10144 H 0 Z"
         transform="matrix(0.33461804,0,0,0.33461804,-440.21875,-204)"
         clip-rule="evenodd"
         id="path91" />
    </clipPath>
    <clipPath
       clipPathUnits="userSpaceOnUse"
       id="clipPath92">
      <path
         d="M 0,0 H 1595.8334 V 750.10144 H 0 Z"
         transform="matrix(0.33461804,0,0,0.33461804,-438.21875,-215)"
         clip-rule="evenodd"
         id="path92" />
    </clipPath>
    <clipPath
       clipPathUnits="userSpaceOnUse"
       id="clipPath93">
      <path
         d="M 0,0 H 1595.8334 V 750.10144 H 0 Z"
         transform="matrix(0.33461804,0,0,0.33461804,-434.46876,-226)"
         clip-rule="evenodd"
         id="path93" />
    </clipPath>
  </defs>
  <sodipodi:namedview
     id="namedview1"
     pagecolor="#ffffff"
     bordercolor="#000000"
     borderopacity="0.25"
     inkscape:showpageshadow="2"
     inkscape:pageopacity="0.0"
     inkscape:pagecheckerboard="0"
     inkscape:deskcolor="#d1d1d1">
    <inkscape:page
       x="0"
       y="0"
       inkscape:label="1"
       id="page1"
       width="510.71997"
       height="241.27998"
       margin="0"
       bleed="0" />
  </sodipodi:namedview>
  <g
     id="g1"
     inkscape:groupmode="layer"
     inkscape:label="1">
    <path
       id="path1"
       d="M 0,0 H 534 V 252 H 0 Z"
       style="fill:#ffffff;fill-opacity:1;fill-rule:nonzero;stroke:none"
       transform="scale(0.9563046)"
       clip-path="url(#clipPath2)" />
    <path
       id="path3"
       d="m 141,56 h 90 v 30 h -90 z"
       style="fill:#ffffff;fill-opacity:1;fill-rule:nonzero;stroke:#000000;stroke-width:1;stroke-linecap:butt;stroke-linejoin:miter;stroke-miterlimit:10;stroke-dasharray:none;stroke-opacity:1"
       transform="matrix(0.9563046,0,0,0.9563046,0.47815229,0.47815229)"
       clip-path="url(#clipPath4)" />
    <text
       id="text4"
       xml:space="preserve"
       transform="matrix(0.9563142,0,0,0.9563142,167.05614,65.029366)"
       clip-path="url(#clipPath5)"><tspan
         style="font-variant:normal;font-weight:normal;font-size:11px;font-family:Helvetica;writing-mode:lr-tb;fill:#000000;fill-opacity:1;fill-rule:nonzero;stroke:none"
         x="0 8.5561523 15.893066"
         y="0"
         sodipodi:role="line"
         id="tspan4">GET</tspan></text>
    <text
       id="text5"
       xml:space="preserve"
       transform="matrix(0.9563142,0,0,0.9563142,144.82183,78.417764)"
       clip-path="url(#clipPath6)"><tspan
         style="font-variant:normal;font-weight:normal;font-size:11px;font-family:Helvetica;writing-mode:lr-tb;fill:#000000;fill-opacity:1;fill-rule:nonzero;stroke:none"
         x="0"
         y="0"
         id="tspan5">/</tspan></text>
    <text
       id="text6"
       xml:space="preserve"
       transform="matrix(0.9563142,0,0,0.9563142,147.75054,78.417764)"
       clip-path="url(#clipPath7)"><tspan
         style="font-variant:normal;font-weight:700;font-size:11px;font-family:Helvetica;writing-mode:lr-tb;fill:#000000;fill-opacity:1;fill-rule:nonzero;stroke:none"
         x="0 6.1176758 12.836914 22.617676 25.673828"
         y="0"
         sodipodi:role="line"
         id="tspan6">admin</tspan></text>
    <text
       id="text7"
       xml:space="preserve"
       transform="matrix(0.9563142,0,0,0.9563142,178.7411,78.417764)"
       clip-path="url(#clipPath8)"><tspan
         style="font-variant:normal;font-weight:normal;font-size:11px;font-family:Helvetica;writing-mode:lr-tb;fill:#000000;fill-opacity:1;fill-rule:nonzero;stroke:none"
         x="0 3.0561523 9.1738281 15.291504 18.347656 24.465332 27.521484"
         y="0"
         sodipodi:role="line"
         id="tspan7">/auth/2</tspan></text>
    <path
       id="path9"
       d="m 231,46 h 23.63"
       style="fill:none;stroke:#000000;stroke-width:1;stroke-linecap:butt;stroke-linejoin:miter;stroke-miterlimit:10;stroke-dasharray:none;stroke-opacity:1"
       transform="matrix(0.9563046,0,0,0.9563046,0.47815229,0.47815229)"
       clip-path="url(#clipPath10)" />
    <path
       id="path11"
       d="m 259.88,46 -7,3.5 1.75,-3.5 -1.75,-3.5 z"
       style="fill:#000000;fill-opacity:1;fill-rule:nonzero;stroke:#000000;stroke-width:1;stroke-linecap:butt;stroke-linejoin:miter;stroke-miterlimit:10;stroke-dasharray:none;stroke-opacity:1"
       transform="matrix(0.9563046,0,0,0.9563046,0.47815229,0.47815229)"
       clip-path="url(#clipPath12)" />
    <path
       id="path13"
       d="m 141,36 h 90 v 20 h -90 z"
       style="fill:#ffffff;fill-opacity:1;fill-rule:nonzero;stroke:#000000;stroke-width:1;stroke-linecap:butt;stroke-linejoin:miter;stroke-miterlimit:10;stroke-dasharray:none;stroke-opacity:1"
       transform="matrix(0.9563046,0,0,0.9563046,0.47815229,0.47815229)"
       clip-path="url(#clipPath14)" />
    <text
       id="text14"
       xml:space="preserve"
       transform="matrix(0.9563142,0,0,0.9563142,157.11943,47.81571)"
       clip-path="url(#clipPath15)"><tspan
         style="font-variant:normal;font-weight:700;font-size:11px;font-family:Helvetica;writing-mode:lr-tb;fill:#000000;fill-opacity:1;fill-rule:nonzero;stroke:none"
         x="0 7.9438477 14.061523 20.780762 27.5 33.617676 39.735352"
         y="0"
         sodipodi:role="line"
         id="tspan14">Request</tspan></text>
    <path
       id="path16"
       d="M 261,1 H 361 V 31 H 261 Z"
       style="fill:#dae8fc;fill-opacity:1;fill-rule:nonzero;stroke:#6c8ebf;stroke-width:1;stroke-linecap:butt;stroke-linejoin:miter;stroke-miterlimit:10;stroke-dasharray:none;stroke-opacity:1"
       transform="matrix(0.9563046,0,0,0.9563046,0.47815229,0.47815229)"
       clip-path="url(#clipPath17)" />
    <text
       id="text17"
       xml:space="preserve"
       transform="matrix(0.9563142,0,0,0.9563142,256.18761,19.126284)"
       clip-path="url(#clipPath18)"><tspan
         style="font-variant:normal;font-weight:700;font-size:11px;font-family:Helvetica;writing-mode:lr-tb;fill:#000000;fill-opacity:1;fill-rule:nonzero;stroke:none"
         x="0 7.9438477 14.061523 20.179199 24.459961 30.577637 33.633789 41.577637 48.296875 55.016113 58.679199 62.959961 69.679199 72.735352 75.791504 81.90918"
         y="0"
         sodipodi:role="line"
         id="tspan17">Users Controller</tspan></text>
    <path
       id="path19"
       d="M 261,76 H 236.07001"
       style="fill:none;stroke:#000000;stroke-width:1;stroke-linecap:butt;stroke-linejoin:miter;stroke-miterlimit:10;stroke-dasharray:none;stroke-opacity:1"
       transform="matrix(0.9563046,0,0,0.9563046,0.47815229,0.47815229)"
       clip-path="url(#clipPath20)" />
    <path
       id="path21"
       d="m 230.82001,76 7,-3.5 -1.75,3.5 1.75,3.5 z"
       style="fill:#000000;fill-opacity:1;fill-rule:nonzero;stroke:#000000;stroke-width:1;stroke-linecap:butt;stroke-linejoin:miter;stroke-miterlimit:10;stroke-dasharray:none;stroke-opacity:1"
       transform="matrix(0.9563046,0,0,0.9563046,0.47815229,0.47815229)"
       clip-path="url(#clipPath22)" />
    <path
       id="path23"
       d="M 261,31 H 361 V 91 H 261 Z"
       style="fill:#dae8fc;fill-opacity:1;fill-rule:nonzero;stroke:#6c8ebf;stroke-width:1;stroke-linecap:butt;stroke-linejoin:miter;stroke-miterlimit:10;stroke-dasharray:none;stroke-opacity:1"
       transform="matrix(0.9563046,0,0,0.9563046,0.47815229,0.47815229)"
       clip-path="url(#clipPath24)" />
    <g
       id="g24" />
    <text
       id="text24"
       xml:space="preserve"
       transform="matrix(0.9563142,0,0,0.9563142,251.52558,62.160423)"
       clip-path="url(#clipPath25)"><tspan
         style="font-variant:normal;font-weight:normal;font-size:11px;font-family:Helvetica;writing-mode:lr-tb;fill:#000000;fill-opacity:1;fill-rule:nonzero;stroke:none"
         x="0 5.5 11.617676 17.735352 25.679199 31.179199 37.296875 40.959961 47.679199 53.796875 57.459961 64.796875 70.914551 80.077637 82.521484 88.63916 92.302246"
         y="0"
         sodipodi:role="line"
         id="tspan24">ﬁndUserForAdmin()</tspan></text>
    <path
       id="path26"
       d="m 446,62.25 h 70 v 30 h -70 z"
       style="fill:#dae8fc;fill-opacity:1;fill-rule:nonzero;stroke:#6c8ebf;stroke-width:1;stroke-linecap:butt;stroke-linejoin:miter;stroke-miterlimit:10;stroke-dasharray:none;stroke-opacity:1"
       transform="matrix(0.9563046,0,0,0.9563046,0.47815229,0.47815229)"
       clip-path="url(#clipPath27)" />
    <text
       id="text27"
       xml:space="preserve"
       transform="matrix(0.9563142,0,0,0.9563142,445.35852,70.767251)"
       clip-path="url(#clipPath28)"><tspan
         style="font-variant:normal;font-weight:700;font-size:11px;font-family:Helvetica;writing-mode:lr-tb;fill:#000000;fill-opacity:1;fill-rule:nonzero;stroke:none"
         x="0 7.9438477 14.061523 20.179199 24.459961"
         y="0"
         sodipodi:role="line"
         id="tspan27">Users</tspan></text>
    <text
       id="text28"
       xml:space="preserve"
       transform="matrix(0.9563142,0,0,0.9563142,441.2643,84.15565)"
       clip-path="url(#clipPath29)"><tspan
         style="font-variant:normal;font-weight:700;font-size:11px;font-family:Helvetica;writing-mode:lr-tb;fill:#000000;fill-opacity:1;fill-rule:nonzero;stroke:none"
         x="0 7.3369141 13.45459 17.735352 23.853027 26.90918 33.026855"
         y="0"
         sodipodi:role="line"
         id="tspan28">Service</tspan></text>
    <path
       id="path30"
       d="m 446,122.25 -42.5,0.05 V 61 h -36.13"
       style="fill:none;stroke:#000000;stroke-width:1;stroke-linecap:butt;stroke-linejoin:miter;stroke-miterlimit:10;stroke-dasharray:none;stroke-opacity:1"
       transform="matrix(0.9563046,0,0,0.9563046,0.47815229,0.47815229)"
       clip-path="url(#clipPath31)" />
    <path
       id="path32"
       d="m 362.12,61 7,-3.5 -1.75,3.5 1.75,3.5 z"
       style="fill:#000000;fill-opacity:1;fill-rule:nonzero;stroke:#000000;stroke-width:1;stroke-linecap:butt;stroke-linejoin:miter;stroke-miterlimit:10;stroke-dasharray:none;stroke-opacity:1"
       transform="matrix(0.9563046,0,0,0.9563046,0.47815229,0.47815229)"
       clip-path="url(#clipPath33)" />
    <path
       id="path34"
       d="m 446,122.25 -42.5,0.05 V 181 h -36.13"
       style="fill:none;stroke:#000000;stroke-width:1;stroke-linecap:butt;stroke-linejoin:miter;stroke-miterlimit:10;stroke-dasharray:none;stroke-opacity:1"
       transform="matrix(0.9563046,0,0,0.9563046,0.47815229,0.47815229)"
       clip-path="url(#clipPath35)" />
    <path
       id="path36"
       d="m 362.12,181 7,-3.5 -1.75,3.5 1.75,3.5 z"
       style="fill:#000000;fill-opacity:1;fill-rule:nonzero;stroke:#000000;stroke-width:1;stroke-linecap:butt;stroke-linejoin:miter;stroke-miterlimit:10;stroke-dasharray:none;stroke-opacity:1"
       transform="matrix(0.9563046,0,0,0.9563046,0.47815229,0.47815229)"
       clip-path="url(#clipPath37)" />
    <path
       id="path38"
       d="m 446,92.25 h 70 v 60 h -70 z"
       style="fill:#dae8fc;fill-opacity:1;fill-rule:nonzero;stroke:#6c8ebf;stroke-width:1;stroke-linecap:butt;stroke-linejoin:miter;stroke-miterlimit:10;stroke-dasharray:none;stroke-opacity:1"
       transform="matrix(0.9563046,0,0,0.9563046,0.47815229,0.47815229)"
       clip-path="url(#clipPath39)" />
    <g
       id="g39" />
    <text
       id="text39"
       xml:space="preserve"
       transform="matrix(0.9563142,0,0,0.9563142,438.05167,120.49559)"
       clip-path="url(#clipPath40)"><tspan
         style="font-variant:normal;font-weight:normal;font-size:11px;font-family:Helvetica;writing-mode:lr-tb;fill:#000000;fill-opacity:1;fill-rule:nonzero;stroke:none"
         x="0 5.5 11.617676 17.735352 26.291504 32.40918 38.526855 42.189941"
         y="0"
         sodipodi:role="line"
         id="tspan39">ﬁndOne()</tspan></text>
    <path
       id="path41"
       d="m 141,176 h 90 v 30 h -90 z"
       style="fill:#ffffff;fill-opacity:1;fill-rule:nonzero;stroke:#000000;stroke-width:1;stroke-linecap:butt;stroke-linejoin:miter;stroke-miterlimit:10;stroke-dasharray:none;stroke-opacity:1"
       transform="matrix(0.9563046,0,0,0.9563046,0.47815229,0.47815229)"
       clip-path="url(#clipPath42)" />
    <text
       id="text42"
       xml:space="preserve"
       transform="matrix(0.9563142,0,0,0.9563142,167.0412,179.78707)"
       clip-path="url(#clipPath43)"><tspan
         style="font-variant:normal;font-weight:normal;font-size:11px;font-family:Helvetica;writing-mode:lr-tb;fill:#000000;fill-opacity:1;fill-rule:nonzero;stroke:none"
         x="0 8.5561523 15.893066"
         y="0"
         sodipodi:role="line"
         id="tspan42">GET</tspan></text>
    <text
       id="text43"
       xml:space="preserve"
       transform="matrix(0.9563142,0,0,0.9563142,161.78147,193.17547)"
       clip-path="url(#clipPath44)"><tspan
         style="font-variant:normal;font-weight:normal;font-size:11px;font-family:Helvetica;writing-mode:lr-tb;fill:#000000;fill-opacity:1;fill-rule:nonzero;stroke:none"
         x="0 3.0561523 9.1738281 15.291504 18.347656 24.465332 27.521484"
         y="0"
         sodipodi:role="line"
         id="tspan43">/auth/2</tspan></text>
    <path
       id="path45"
       d="m 231,166 h 23.63"
       style="fill:none;stroke:#000000;stroke-width:1;stroke-linecap:butt;stroke-linejoin:miter;stroke-miterlimit:10;stroke-dasharray:none;stroke-opacity:1"
       transform="matrix(0.9563046,0,0,0.9563046,0.47815229,0.47815229)"
       clip-path="url(#clipPath46)" />
    <path
       id="path47"
       d="m 259.88,166 -7,3.5 1.75,-3.5 -1.75,-3.5 z"
       style="fill:#000000;fill-opacity:1;fill-rule:nonzero;stroke:#000000;stroke-width:1;stroke-linecap:butt;stroke-linejoin:miter;stroke-miterlimit:10;stroke-dasharray:none;stroke-opacity:1"
       transform="matrix(0.9563046,0,0,0.9563046,0.47815229,0.47815229)"
       clip-path="url(#clipPath48)" />
    <path
       id="path49"
       d="m 141,156 h 90 v 20 h -90 z"
       style="fill:#ffffff;fill-opacity:1;fill-rule:nonzero;stroke:#000000;stroke-width:1;stroke-linecap:butt;stroke-linejoin:miter;stroke-miterlimit:10;stroke-dasharray:none;stroke-opacity:1"
       transform="matrix(0.9563046,0,0,0.9563046,0.47815229,0.47815229)"
       clip-path="url(#clipPath50)" />
    <text
       id="text50"
       xml:space="preserve"
       transform="matrix(0.9563142,0,0,0.9563142,157.11943,162.57341)"
       clip-path="url(#clipPath51)"><tspan
         style="font-variant:normal;font-weight:700;font-size:11px;font-family:Helvetica;writing-mode:lr-tb;fill:#000000;fill-opacity:1;fill-rule:nonzero;stroke:none"
         x="0 7.9438477 14.061523 20.780762 27.5 33.617676 39.735352"
         y="0"
         sodipodi:role="line"
         id="tspan50">Request</tspan></text>
    <path
       id="path52"
       d="m 261,121 h 100 v 30 H 261 Z"
       style="fill:#dae8fc;fill-opacity:1;fill-rule:nonzero;stroke:#6c8ebf;stroke-width:1;stroke-linecap:butt;stroke-linejoin:miter;stroke-miterlimit:10;stroke-dasharray:none;stroke-opacity:1"
       transform="matrix(0.9563046,0,0,0.9563046,0.47815229,0.47815229)"
       clip-path="url(#clipPath53)" />
    <text
       id="text53"
       xml:space="preserve"
       transform="matrix(0.9563142,0,0,0.9563142,256.18761,133.88399)"
       clip-path="url(#clipPath54)"><tspan
         style="font-variant:normal;font-weight:700;font-size:11px;font-family:Helvetica;writing-mode:lr-tb;fill:#000000;fill-opacity:1;fill-rule:nonzero;stroke:none"
         x="0 7.9438477 14.061523 20.179199 24.459961 30.577637 33.633789 41.577637 48.296875 55.016113 58.679199 62.959961 69.679199 72.735352 75.791504 81.90918"
         y="0"
         sodipodi:role="line"
         id="tspan53">Users Controller</tspan></text>
    <path
       id="path55"
       d="M 261,196 H 236.07001"
       style="fill:none;stroke:#000000;stroke-width:1;stroke-linecap:butt;stroke-linejoin:miter;stroke-miterlimit:10;stroke-dasharray:none;stroke-opacity:1"
       transform="matrix(0.9563046,0,0,0.9563046,0.47815229,0.47815229)"
       clip-path="url(#clipPath56)" />
    <path
       id="path57"
       d="m 230.82001,196 7,-3.5 -1.75,3.5 1.75,3.5 z"
       style="fill:#000000;fill-opacity:1;fill-rule:nonzero;stroke:#000000;stroke-width:1;stroke-linecap:butt;stroke-linejoin:miter;stroke-miterlimit:10;stroke-dasharray:none;stroke-opacity:1"
       transform="matrix(0.9563046,0,0,0.9563046,0.47815229,0.47815229)"
       clip-path="url(#clipPath58)" />
    <path
       id="path59"
       d="m 261,151 h 100 v 60 H 261 Z"
       style="fill:#dae8fc;fill-opacity:1;fill-rule:nonzero;stroke:#6c8ebf;stroke-width:1;stroke-linecap:butt;stroke-linejoin:miter;stroke-miterlimit:10;stroke-dasharray:none;stroke-opacity:1"
       transform="matrix(0.9563046,0,0,0.9563046,0.47815229,0.47815229)"
       clip-path="url(#clipPath60)" />
    <g
       id="g60" />
    <text
       id="text60"
       xml:space="preserve"
       transform="matrix(0.9563142,0,0,0.9563142,274.31275,176.91813)"
       clip-path="url(#clipPath61)"><tspan
         style="font-variant:normal;font-weight:normal;font-size:11px;font-family:Helvetica;writing-mode:lr-tb;fill:#000000;fill-opacity:1;fill-rule:nonzero;stroke:none"
         x="0 5.5 11.617676 17.735352 25.679199 31.179199 37.296875 40.959961 44.623047"
         y="0"
         sodipodi:role="line"
         id="tspan60">ﬁndUser()</tspan></text>
    <path
       id="path62"
       d="m 121,71 h 20 -20 13.63"
       style="fill:none;stroke:#000000;stroke-width:1;stroke-linecap:butt;stroke-linejoin:miter;stroke-miterlimit:10;stroke-dasharray:none;stroke-opacity:1"
       transform="matrix(0.9563046,0,0,0.9563046,0.47815229,0.47815229)"
       clip-path="url(#clipPath63)" />
    <path
       id="path64"
       d="m 139.88,71 -7,3.5 1.75,-3.5 -1.75,-3.5 z"
       style="fill:#000000;fill-opacity:1;fill-rule:nonzero;stroke:#000000;stroke-width:1;stroke-linecap:butt;stroke-linejoin:miter;stroke-miterlimit:10;stroke-dasharray:none;stroke-opacity:1"
       transform="matrix(0.9563046,0,0,0.9563046,0.47815229,0.47815229)"
       clip-path="url(#clipPath65)" />
    <path
       id="path66"
       d="m 1,48.5 h 120 v 45 H 1 Z"
       style="fill:#f8cecc;fill-opacity:1;fill-rule:nonzero;stroke:#b85450;stroke-width:1;stroke-linecap:butt;stroke-linejoin:miter;stroke-miterlimit:10;stroke-dasharray:none;stroke-opacity:1"
       transform="matrix(0.9563046,0,0,0.9563046,0.47815229,0.47815229)"
       clip-path="url(#clipPath67)" />
    <text
       id="text67"
       xml:space="preserve"
       transform="matrix(0.9563142,0,0,0.9563142,15.002179,61.204109)"
       clip-path="url(#clipPath68)"><tspan
         style="font-variant:normal;font-weight:normal;font-size:10px;font-family:Helvetica;writing-mode:lr-tb;fill:#000000;fill-opacity:1;fill-rule:nonzero;stroke:none"
         x="0 6.6699219 12.231445 20.561523 22.783203 28.344727 31.123047 34.453125 40.014648 45.576172 48.354492 53.916016 56.694336 59.472656 66.142578 71.704102 77.265625 82.827148 85.048828"
         y="0"
         sodipodi:role="line"
         id="tspan67">Admin route! Should</tspan></text>
    <text
       id="text68"
       xml:space="preserve"
       transform="matrix(0.9563142,0,0,0.9563142,18.991802,72.679879)"
       clip-path="url(#clipPath69)"><tspan
         style="font-variant:normal;font-weight:normal;font-size:10px;font-family:Helvetica;writing-mode:lr-tb;fill:#000000;fill-opacity:1;fill-rule:nonzero;stroke:none"
         x="0 5.5615234 8.8916016 14.453125 20.014648 25.576172 31.137695 33.359375 38.359375 41.137695 46.137695 51.699219 57.260742 60.039062 65.600586 70.600586 73.378906 76.708984"
         y="0"
         sodipodi:role="line"
         id="tspan68">probably see extra</tspan></text>
    <text
       id="text69"
       xml:space="preserve"
       transform="matrix(0.9563142,0,0,0.9563142,8.0987859,84.15565)"
       clip-path="url(#clipPath70)"><tspan
         style="font-variant:normal;font-weight:normal;font-size:10px;font-family:Helvetica;writing-mode:lr-tb;fill:#000000;fill-opacity:1;fill-rule:nonzero;stroke:none"
         x="0 5.5615234 8.8916016 14.453125 20.014648 25.576172 28.90625 31.68457 33.90625 39.467773 44.467773 47.246094 50.024414 52.246094 57.807617 63.369141 66.147461 68.925781 74.487305 77.265625 82.827148 85.605469 91.166992 96.166992 101.72852"
         y="0"
         sodipodi:role="line"
         id="tspan69">properties tied to a user</tspan></text>
    <path
       id="path71"
       d="m 121,191 h 13.63"
       style="fill:none;stroke:#000000;stroke-width:1;stroke-linecap:butt;stroke-linejoin:miter;stroke-miterlimit:10;stroke-dasharray:none;stroke-opacity:1"
       transform="matrix(0.9563046,0,0,0.9563046,0.47815229,0.47815229)"
       clip-path="url(#clipPath72)" />
    <path
       id="path73"
       d="m 139.88,191 -7,3.5 1.75,-3.5 -1.75,-3.5 z"
       style="fill:#000000;fill-opacity:1;fill-rule:nonzero;stroke:#000000;stroke-width:1;stroke-linecap:butt;stroke-linejoin:miter;stroke-miterlimit:10;stroke-dasharray:none;stroke-opacity:1"
       transform="matrix(0.9563046,0,0,0.9563046,0.47815229,0.47815229)"
       clip-path="url(#clipPath74)" />
    <path
       id="path75"
       d="m 1,161 h 120 v 60 H 1 Z"
       style="fill:#f8cecc;fill-opacity:1;fill-rule:nonzero;stroke:#b85450;stroke-width:1;stroke-linecap:butt;stroke-linejoin:miter;stroke-miterlimit:10;stroke-dasharray:none;stroke-opacity:1"
       transform="matrix(0.9563046,0,0,0.9563046,0.47815229,0.47815229)"
       clip-path="url(#clipPath76)" />
    <text
       id="text76"
       xml:space="preserve"
       transform="matrix(0.9563142,0,0,0.9563142,6.4999481,180.74338)"
       clip-path="url(#clipPath77)"><tspan
         style="font-variant:normal;font-weight:normal;font-size:10px;font-family:Helvetica;writing-mode:lr-tb;fill:#000000;fill-opacity:1;fill-rule:nonzero;stroke:none"
         x="0 6.6699219 12.231445 17.792969 20.014648 22.236328 27.236328 30.014648 33.344727 38.90625 44.467773 47.246094 52.807617 55.585938 58.364258 65.03418 70.595703 76.157227 81.71875 83.94043 89.501953 92.280273 97.280273 102.8418"
         y="0"
         sodipodi:role="line"
         id="tspan76">Public route! Should see</tspan></text>
    <text
       id="text77"
       xml:space="preserve"
       transform="matrix(0.9563142,0,0,0.9563142,4.9011103,193.17547)"
       clip-path="url(#clipPath78)"><tspan
         style="font-variant:normal;font-weight:normal;font-size:10px;font-family:Helvetica;writing-mode:lr-tb;fill:#000000;fill-opacity:1;fill-rule:nonzero;stroke:none"
         x="0 2.7783203 8.3398438 11.669922 14.448242 16.669922 22.231445 27.231445 32.231445 35.009766 37.231445 42.792969 45.571289 51.132812 53.911133 56.689453 58.911133 64.472656 70.03418 72.8125 75.59082 81.152344 83.930664 89.492188 92.270508 97.832031 102.83203 108.39355"
         y="0"
         sodipodi:role="line"
         id="tspan77">far less info tied to a user</tspan></text>
    <path
       id="path79"
       d="M 1,93.5 H 121 V 121 H 1 Z"
       style="fill:#f8cecc;fill-opacity:1;fill-rule:nonzero;stroke:#b85450;stroke-width:1;stroke-linecap:butt;stroke-linejoin:miter;stroke-miterlimit:10;stroke-dasharray:none;stroke-opacity:1"
       transform="matrix(0.9563046,0,0,0.9563046,0.47815229,0.47815229)"
       clip-path="url(#clipPath80)" />
    <text
       id="text80"
       xml:space="preserve"
       transform="matrix(0.9563142,0,0,0.9563142,6.7689114,107.10719)"
       clip-path="url(#clipPath81)"><tspan
         style="font-style:oblique;font-variant:normal;font-weight:700;font-size:10px;font-family:Helvetica;writing-mode:lr-tb;fill:#000000;fill-opacity:1;fill-rule:nonzero;stroke:none"
         x="0 3.8916016 6.6699219 9.4482422 15.556641 18.334961 21.113281 26.674805 35.566406 41.12793 43.90625 46.68457 49.462891 52.241211 57.802734 63.911133 69.472656 72.250977 75.029297 81.137695 86.699219 95.59082 101.15234 103.93066"
         y="0"
         sodipodi:role="line"
         id="tspan80">{ id, email, age, name }</tspan></text>
    <path
       id="path82"
       d="m 1,221 h 120 v 27.5 H 1 Z"
       style="fill:#f8cecc;fill-opacity:1;fill-rule:nonzero;stroke:#b85450;stroke-width:1;stroke-linecap:butt;stroke-linejoin:miter;stroke-miterlimit:10;stroke-dasharray:none;stroke-opacity:1"
       transform="matrix(0.9563046,0,0,0.9563046,0.47815229,0.47815229)"
       clip-path="url(#clipPath83)" />
    <text
       id="text83"
       xml:space="preserve"
       transform="matrix(0.9563142,0,0,0.9563142,32.813531,229.51541)"
       clip-path="url(#clipPath84)"><tspan
         style="font-style:oblique;font-variant:normal;font-weight:700;font-size:10px;font-family:Helvetica;writing-mode:lr-tb;fill:#000000;fill-opacity:1;fill-rule:nonzero;stroke:none"
         x="0 3.8916016 6.6699219 9.4482422 15.556641 18.334961 21.113281 26.674805 35.566406 41.12793 43.90625 46.68457 49.462891"
         y="0"
         sodipodi:role="line"
         id="tspan83">{ id, email }</tspan></text>
    <path
       id="path85"
       d="m 431,152.25 h 100 v 35 H 431 Z"
       style="fill:#f5f5f5;fill-opacity:1;fill-rule:nonzero;stroke:#666666;stroke-width:1;stroke-linecap:butt;stroke-linejoin:miter;stroke-miterlimit:10;stroke-dasharray:none;stroke-opacity:1"
       transform="matrix(0.9563046,0,0,0.9563046,0.47815229,0.47815229)"
       clip-path="url(#clipPath86)" />
    <text
       id="text86"
       xml:space="preserve"
       transform="matrix(0.9563142,0,0,0.9563142,429.57933,159.70447)"
       clip-path="url(#clipPath87)"><tspan
         style="font-variant:normal;font-weight:normal;font-size:13px;font-family:Helvetica;writing-mode:lr-tb;fill:#333333;fill-opacity:1;fill-rule:nonzero;stroke:none"
         x="0 9.3881836 15.888184 23.118164 27.447266 31.059082 39.72998 46.959961 50.571777 53.459961 57.071777"
         y="0"
         sodipodi:role="line"
         id="tspan86">User Entity</tspan></text>
    <text
       id="text87"
       xml:space="preserve"
       transform="matrix(0.9563142,0,0,0.9563142,436.48273,175.0055)"
       clip-path="url(#clipPath88)"><tspan
         style="font-variant:normal;font-weight:normal;font-size:13px;font-family:Helvetica;writing-mode:lr-tb;fill:#333333;fill-opacity:1;fill-rule:nonzero;stroke:none"
         x="0 3.6118164 10.841797 17.341797 20.953613 28.183594 35.413574 41.913574"
         y="0"
         sodipodi:role="line"
         id="tspan87">Instance</tspan></text>
    <path
       id="path89"
       d="m 431,187.25 h 100 v 50 H 431 Z"
       style="fill:#f5f5f5;fill-opacity:1;fill-rule:nonzero;stroke:#666666;stroke-width:1;stroke-linecap:butt;stroke-linejoin:miter;stroke-miterlimit:10;stroke-dasharray:none;stroke-opacity:1"
       transform="matrix(0.9563046,0,0,0.9563046,0.47815229,0.47815229)"
       clip-path="url(#clipPath90)" />
    <text
       id="text90"
       xml:space="preserve"
       transform="matrix(0.9563142,0,0,0.9563142,420.98744,195.0881)"
       clip-path="url(#clipPath91)"><tspan
         style="font-style:oblique;font-variant:normal;font-weight:normal;font-size:9px;font-family:Helvetica;writing-mode:lr-tb;fill:#333333;fill-opacity:1;fill-rule:nonzero;stroke:none"
         x="0 6.4995117 8.4990234 11.496094 16.501465 21.001465 23.501953 25.501465 30.506836 35.512207 40.012207 42.512695 47.518066 52.523438 55.023926 60.029297 65.034668 71.53418 74.034668 76.535156"
         y="0"
         sodipodi:role="line"
         id="tspan90">Directions on how to</tspan></text>
    <text
       id="text91"
       xml:space="preserve"
       transform="matrix(0.9563142,0,0,0.9563142,419.07481,205.60755)"
       clip-path="url(#clipPath92)"><tspan
         style="font-style:oblique;font-variant:normal;font-weight:normal;font-size:9px;font-family:Helvetica;writing-mode:lr-tb;fill:#333333;fill-opacity:1;fill-rule:nonzero;stroke:none"
         x="0 2.5004883 7.5058594 10.50293 15.508301 18.008789 20.509277 25.514648 27.51416 32.01416 34.514648 36.51416 41.519531 46.019531 48.52002 53.525391 58.530762 63.030762 68.036133 70.536621 75.541992 78.04248 80.542969"
         y="0"
         sodipodi:role="line"
         id="tspan91">turn this instance of a</tspan></text>
    <text
       id="text92"
       xml:space="preserve"
       transform="matrix(0.9563142,0,0,0.9563142,415.48864,216.12701)"
       clip-path="url(#clipPath93)"><tspan
         style="font-style:oblique;font-variant:normal;font-weight:normal;font-size:9px;font-family:Helvetica;writing-mode:lr-tb;fill:#333333;fill-opacity:1;fill-rule:nonzero;stroke:none"
         x="0 4.5 6.4995117 11.504883 16.004883 20.504883 23.005371 25.004883 30.010254 32.510742 37.516113 40.016602 45.021973 47.522461 52.527832 54.527344 59.532715 61.532227 66.537598 69.038086 74.043457 79.048828 81.04834 86.053711 90.553711"
         y="0"
         sodipodi:role="line"
         id="tspan92">class into a plain object</tspan></text>
  </g>
</svg>
