<?xml version="1.0" encoding="UTF-8" standalone="no"?>
<!-- Created with Inkscape (http://www.inkscape.org/) -->

<svg
   version="1.1"
   id="svg1"
   width="473.28"
   height="169.28"
   viewBox="0 0 473.28 169.28"
   sodipodi:docname="nest-10.pdf"
   xmlns:inkscape="http://www.inkscape.org/namespaces/inkscape"
   xmlns:sodipodi="http://sodipodi.sourceforge.net/DTD/sodipodi-0.dtd"
   xmlns="http://www.w3.org/2000/svg"
   xmlns:svg="http://www.w3.org/2000/svg">
  <defs
     id="defs1">
    <clipPath
       clipPathUnits="userSpaceOnUse"
       id="clipPath2">
      <path
         d="M 0,0 H 1479.1666 V 526.99054 H 0 Z"
         transform="scale(0.33397184)"
         clip-rule="evenodd"
         id="path2" />
    </clipPath>
    <clipPath
       clipPathUnits="userSpaceOnUse"
       id="clipPath4">
      <path
         d="M 0,0 H 1479.1666 V 523.99628 H 0 Z"
         transform="matrix(0.33397184,0,0,0.33397184,-0.49999999,-0.49999999)"
         clip-rule="evenodd"
         id="path4" />
    </clipPath>
    <clipPath
       clipPathUnits="userSpaceOnUse"
       id="clipPath5">
      <path
         d="M 0,0 H 1479.1666 V 523.99628 H 0 Z"
         transform="matrix(0.3339685,0,0,0.3339685,-316.39063,-17)"
         clip-rule="evenodd"
         id="path5" />
    </clipPath>
    <clipPath
       clipPathUnits="userSpaceOnUse"
       id="clipPath7">
      <path
         d="M 0,0 H 1479.1666 V 523.99628 H 0 Z"
         transform="matrix(0.33397184,0,0,0.33397184,-0.49999999,-0.49999999)"
         clip-rule="evenodd"
         id="path7" />
    </clipPath>
    <clipPath
       clipPathUnits="userSpaceOnUse"
       id="clipPath9">
      <path
         d="M 0,0 H 1479.1666 V 523.99628 H 0 Z"
         transform="matrix(0.33397184,0,0,0.33397184,-0.49999999,-0.49999999)"
         clip-rule="evenodd"
         id="path9" />
    </clipPath>
    <clipPath
       clipPathUnits="userSpaceOnUse"
       id="clipPath10">
      <path
         d="M 0,0 H 1479.1666 V 523.99628 H 0 Z"
         transform="matrix(0.3339685,0,0,0.3339685,-329.29688,-47)"
         clip-rule="evenodd"
         id="path10" />
    </clipPath>
    <clipPath
       clipPathUnits="userSpaceOnUse"
       id="clipPath12">
      <path
         d="M 0,0 H 1479.1666 V 523.99628 H 0 Z"
         transform="matrix(0.33397184,0,0,0.33397184,-0.49999999,-0.49999999)"
         clip-rule="evenodd"
         id="path12" />
    </clipPath>
    <clipPath
       clipPathUnits="userSpaceOnUse"
       id="clipPath13">
      <path
         d="M 0,0 H 1479.1666 V 523.99628 H 0 Z"
         transform="matrix(0.3339685,0,0,0.3339685,-301.70313,-63)"
         clip-rule="evenodd"
         id="path13" />
    </clipPath>
    <clipPath
       clipPathUnits="userSpaceOnUse"
       id="clipPath14">
      <path
         d="M 0,0 H 1479.1666 V 523.99628 H 0 Z"
         transform="matrix(0.3339685,0,0,0.3339685,-287.34375,-77)"
         clip-rule="evenodd"
         id="path14" />
    </clipPath>
    <clipPath
       clipPathUnits="userSpaceOnUse"
       id="clipPath16">
      <path
         d="M 0,0 H 1479.1666 V 523.99628 H 0 Z"
         transform="matrix(0.33397184,0,0,0.33397184,-0.49999999,-0.49999999)"
         clip-rule="evenodd"
         id="path16" />
    </clipPath>
    <clipPath
       clipPathUnits="userSpaceOnUse"
       id="clipPath17">
      <path
         d="M 0,0 H 1479.1666 V 523.99628 H 0 Z"
         transform="matrix(0.3339685,0,0,0.3339685,-362.84375,-63)"
         clip-rule="evenodd"
         id="path17" />
    </clipPath>
    <clipPath
       clipPathUnits="userSpaceOnUse"
       id="clipPath18">
      <path
         d="M 0,0 H 1479.1666 V 523.99628 H 0 Z"
         transform="matrix(0.3339685,0,0,0.3339685,-362.54688,-77)"
         clip-rule="evenodd"
         id="path18" />
    </clipPath>
    <clipPath
       clipPathUnits="userSpaceOnUse"
       id="clipPath20">
      <path
         d="M 0,0 H 1479.1666 V 523.99628 H 0 Z"
         transform="matrix(0.33397184,0,0,0.33397184,-0.49999999,-0.49999999)"
         clip-rule="evenodd"
         id="path20" />
    </clipPath>
    <clipPath
       clipPathUnits="userSpaceOnUse"
       id="clipPath22">
      <path
         d="M 0,0 H 1479.1666 V 523.99628 H 0 Z"
         transform="matrix(0.33397184,0,0,0.33397184,-0.49999999,-0.49999999)"
         clip-rule="evenodd"
         id="path22" />
    </clipPath>
    <clipPath
       clipPathUnits="userSpaceOnUse"
       id="clipPath24">
      <path
         d="M 0,0 H 1479.1666 V 523.99628 H 0 Z"
         transform="matrix(0.33397184,0,0,0.33397184,-0.49999999,-0.49999999)"
         clip-rule="evenodd"
         id="path24" />
    </clipPath>
    <clipPath
       clipPathUnits="userSpaceOnUse"
       id="clipPath26">
      <path
         d="M 0,0 H 1479.1666 V 523.99628 H 0 Z"
         transform="matrix(0.33397184,0,0,0.33397184,-0.49999999,-0.49999999)"
         clip-rule="evenodd"
         id="path26" />
    </clipPath>
    <clipPath
       clipPathUnits="userSpaceOnUse"
       id="clipPath28">
      <path
         d="M 0,0 H 1479.1666 V 523.99628 H 0 Z"
         transform="matrix(0.33397184,0,0,0.33397184,-0.49999999,-0.49999999)"
         clip-rule="evenodd"
         id="path28" />
    </clipPath>
    <clipPath
       clipPathUnits="userSpaceOnUse"
       id="clipPath30">
      <path
         d="M 0,0 H 1479.1666 V 523.99628 H 0 Z"
         transform="matrix(0.33397184,0,0,0.33397184,-0.49999999,-0.49999999)"
         clip-rule="evenodd"
         id="path30" />
    </clipPath>
    <clipPath
       clipPathUnits="userSpaceOnUse"
       id="clipPath32">
      <path
         d="M 0,0 H 1479.1666 V 523.99628 H 0 Z"
         transform="matrix(0.33397184,0,0,0.33397184,-0.49999999,-0.49999999)"
         clip-rule="evenodd"
         id="path32" />
    </clipPath>
    <clipPath
       clipPathUnits="userSpaceOnUse"
       id="clipPath33">
      <path
         d="M 0,0 H 1479.1666 V 523.99628 H 0 Z"
         transform="matrix(0.3339685,0,0,0.3339685,-422.45313,-63)"
         clip-rule="evenodd"
         id="path33" />
    </clipPath>
    <clipPath
       clipPathUnits="userSpaceOnUse"
       id="clipPath34">
      <path
         d="M 0,0 H 1479.1666 V 523.99628 H 0 Z"
         transform="matrix(0.3339685,0,0,0.3339685,-432.53125,-77)"
         clip-rule="evenodd"
         id="path34" />
    </clipPath>
    <clipPath
       clipPathUnits="userSpaceOnUse"
       id="clipPath36">
      <path
         d="M 0,0 H 1479.1666 V 523.99628 H 0 Z"
         transform="matrix(0.33397184,0,0,0.33397184,-0.49999999,-0.49999999)"
         clip-rule="evenodd"
         id="path36" />
    </clipPath>
    <clipPath
       clipPathUnits="userSpaceOnUse"
       id="clipPath38">
      <path
         d="M 0,0 H 1479.1666 V 523.99628 H 0 Z"
         transform="matrix(0.33397184,0,0,0.33397184,-0.49999999,-0.49999999)"
         clip-rule="evenodd"
         id="path38" />
    </clipPath>
    <clipPath
       clipPathUnits="userSpaceOnUse"
       id="clipPath40">
      <path
         d="M 0,0 H 1479.1666 V 523.99628 H 0 Z"
         transform="matrix(0.33397184,0,0,0.33397184,-0.49999999,-0.49999999)"
         clip-rule="evenodd"
         id="path40" />
    </clipPath>
    <clipPath
       clipPathUnits="userSpaceOnUse"
       id="clipPath42">
      <path
         d="M 0,0 H 1479.1666 V 523.99628 H 0 Z"
         transform="matrix(0.33397184,0,0,0.33397184,-0.49999999,-0.49999999)"
         clip-rule="evenodd"
         id="path42" />
    </clipPath>
    <clipPath
       clipPathUnits="userSpaceOnUse"
       id="clipPath43">
      <path
         d="M 0,0 H 1479.1666 V 523.99628 H 0 Z"
         transform="matrix(0.3339685,0,0,0.3339685,-46.265625,-18)"
         clip-rule="evenodd"
         id="path43" />
    </clipPath>
    <clipPath
       clipPathUnits="userSpaceOnUse"
       id="clipPath45">
      <path
         d="M 0,0 H 1479.1666 V 523.99628 H 0 Z"
         transform="matrix(0.33397184,0,0,0.33397184,-0.49999999,-0.49999999)"
         clip-rule="evenodd"
         id="path45" />
    </clipPath>
    <clipPath
       clipPathUnits="userSpaceOnUse"
       id="clipPath47">
      <path
         d="M 0,0 H 1479.1666 V 523.99628 H 0 Z"
         transform="matrix(0.33397184,0,0,0.33397184,-0.49999999,-0.49999999)"
         clip-rule="evenodd"
         id="path47" />
    </clipPath>
    <clipPath
       clipPathUnits="userSpaceOnUse"
       id="clipPath49">
      <path
         d="M 0,0 H 1479.1666 V 523.99628 H 0 Z"
         transform="matrix(0.33397184,0,0,0.33397184,-0.49999999,-0.49999999)"
         clip-rule="evenodd"
         id="path49" />
    </clipPath>
    <clipPath
       clipPathUnits="userSpaceOnUse"
       id="clipPath51">
      <path
         d="M 0,0 H 1479.1666 V 523.99628 H 0 Z"
         transform="matrix(0.33397184,0,0,0.33397184,-0.49999999,-0.49999999)"
         clip-rule="evenodd"
         id="path51" />
    </clipPath>
    <clipPath
       clipPathUnits="userSpaceOnUse"
       id="clipPath52">
      <path
         d="M 0,0 H 1479.1666 V 523.99628 H 0 Z"
         transform="matrix(0.3339685,0,0,0.3339685,-23.109375,-116)"
         clip-rule="evenodd"
         id="path52" />
    </clipPath>
    <clipPath
       clipPathUnits="userSpaceOnUse"
       id="clipPath54">
      <path
         d="M 0,0 H 1479.1666 V 523.99628 H 0 Z"
         transform="matrix(0.33397184,0,0,0.33397184,-0.49999999,-0.49999999)"
         clip-rule="evenodd"
         id="path54" />
    </clipPath>
    <clipPath
       clipPathUnits="userSpaceOnUse"
       id="clipPath55">
      <path
         d="M 0,0 H 1479.1666 V 523.99628 H 0 Z"
         transform="matrix(0.3339685,0,0,0.3339685,-27.84375,-136)"
         clip-rule="evenodd"
         id="path55" />
    </clipPath>
    <clipPath
       clipPathUnits="userSpaceOnUse"
       id="clipPath57">
      <path
         d="M 0,0 H 1479.1666 V 523.99628 H 0 Z"
         transform="matrix(0.33397184,0,0,0.33397184,-0.49999999,-0.49999999)"
         clip-rule="evenodd"
         id="path57" />
    </clipPath>
    <clipPath
       clipPathUnits="userSpaceOnUse"
       id="clipPath58">
      <path
         d="M 0,0 H 1479.1666 V 523.99628 H 0 Z"
         transform="matrix(0.3339685,0,0,0.3339685,-82.375,-136)"
         clip-rule="evenodd"
         id="path58" />
    </clipPath>
    <clipPath
       clipPathUnits="userSpaceOnUse"
       id="clipPath60">
      <path
         d="M 0,0 H 1479.1666 V 523.99628 H 0 Z"
         transform="matrix(0.33397184,0,0,0.33397184,-0.49999999,-0.49999999)"
         clip-rule="evenodd"
         id="path60" />
    </clipPath>
    <clipPath
       clipPathUnits="userSpaceOnUse"
       id="clipPath61">
      <path
         d="M 0,0 H 1479.1666 V 523.99628 H 0 Z"
         transform="matrix(0.3339685,0,0,0.3339685,-17.453125,-156)"
         clip-rule="evenodd"
         id="path61" />
    </clipPath>
    <clipPath
       clipPathUnits="userSpaceOnUse"
       id="clipPath63">
      <path
         d="M 0,0 H 1479.1666 V 523.99628 H 0 Z"
         transform="matrix(0.33397184,0,0,0.33397184,-0.49999999,-0.49999999)"
         clip-rule="evenodd"
         id="path63" />
    </clipPath>
    <clipPath
       clipPathUnits="userSpaceOnUse"
       id="clipPath64">
      <path
         d="M 0,0 H 1479.1666 V 523.99628 H 0 Z"
         transform="matrix(0.3339685,0,0,0.3339685,-102.9375,-156)"
         clip-rule="evenodd"
         id="path64" />
    </clipPath>
    <clipPath
       clipPathUnits="userSpaceOnUse"
       id="clipPath66">
      <path
         d="M 0,0 H 1479.1666 V 523.99628 H 0 Z"
         transform="matrix(0.33397184,0,0,0.33397184,-0.49999999,-0.49999999)"
         clip-rule="evenodd"
         id="path66" />
    </clipPath>
    <clipPath
       clipPathUnits="userSpaceOnUse"
       id="clipPath68">
      <path
         d="M 0,0 H 1479.1666 V 523.99628 H 0 Z"
         transform="matrix(0.33397184,0,0,0.33397184,-0.49999999,-0.49999999)"
         clip-rule="evenodd"
         id="path68" />
    </clipPath>
    <clipPath
       clipPathUnits="userSpaceOnUse"
       id="clipPath70">
      <path
         d="M 0,0 H 1479.1666 V 523.99628 H 0 Z"
         transform="matrix(0.33397184,0,0,0.33397184,-0.49999999,-0.49999999)"
         clip-rule="evenodd"
         id="path70" />
    </clipPath>
    <clipPath
       clipPathUnits="userSpaceOnUse"
       id="clipPath71">
      <path
         d="M 0,0 H 1479.1666 V 523.99628 H 0 Z"
         transform="matrix(0.3339685,0,0,0.3339685,-51.3125,-49)"
         clip-rule="evenodd"
         id="path71" />
    </clipPath>
    <clipPath
       clipPathUnits="userSpaceOnUse"
       id="clipPath73">
      <path
         d="M 0,0 H 1479.1666 V 523.99628 H 0 Z"
         transform="matrix(0.33397184,0,0,0.33397184,-0.49999999,-0.49999999)"
         clip-rule="evenodd"
         id="path73" />
    </clipPath>
    <clipPath
       clipPathUnits="userSpaceOnUse"
       id="clipPath74">
      <path
         d="M 0,0 H 1479.1666 V 523.99628 H 0 Z"
         transform="matrix(0.3339685,0,0,0.3339685,-46.484375,-81)"
         clip-rule="evenodd"
         id="path74" />
    </clipPath>
    <clipPath
       clipPathUnits="userSpaceOnUse"
       id="clipPath76">
      <path
         d="M 0,0 H 1479.1666 V 523.99628 H 0 Z"
         transform="matrix(0.33397184,0,0,0.33397184,-0.49999999,-0.49999999)"
         clip-rule="evenodd"
         id="path76" />
    </clipPath>
    <clipPath
       clipPathUnits="userSpaceOnUse"
       id="clipPath77">
      <path
         d="M 0,0 H 1479.1666 V 523.99628 H 0 Z"
         transform="matrix(0.3339685,0,0,0.3339685,-171.73438,-89)"
         clip-rule="evenodd"
         id="path77" />
    </clipPath>
  </defs>
  <sodipodi:namedview
     id="namedview1"
     pagecolor="#ffffff"
     bordercolor="#000000"
     borderopacity="0.25"
     inkscape:showpageshadow="2"
     inkscape:pageopacity="0.0"
     inkscape:pagecheckerboard="0"
     inkscape:deskcolor="#d1d1d1">
    <inkscape:page
       x="0"
       y="0"
       inkscape:label="1"
       id="page1"
       width="473.28"
       height="169.28"
       margin="0"
       bleed="0" />
  </sodipodi:namedview>
  <g
     id="g1"
     inkscape:groupmode="layer"
     inkscape:label="1">
    <path
       id="path1"
       d="M 0,0 H 494 V 176 H 0 Z"
       style="fill:#ffffff;fill-opacity:1;fill-rule:nonzero;stroke:none"
       transform="scale(0.95816457)"
       clip-path="url(#clipPath2)" />
    <path
       id="path3"
       d="M 261,1 H 491 V 21 H 261 Z"
       style="fill:#e1d5e7;fill-opacity:1;fill-rule:nonzero;stroke:#9673a6;stroke-width:1;stroke-linecap:butt;stroke-linejoin:miter;stroke-miterlimit:10;stroke-dasharray:none;stroke-opacity:1"
       transform="matrix(0.95816457,0,0,0.95816457,0.47908228,0.47908228)"
       clip-path="url(#clipPath4)" />
    <text
       id="text4"
       xml:space="preserve"
       transform="matrix(0.95817417,0,0,0.95817417,303.15733,16.288961)"
       clip-path="url(#clipPath5)"><tspan
         style="font-variant:normal;font-weight:700;font-size:15px;font-family:Helvetica;writing-mode:lr-tb;fill:#000000;fill-opacity:1;fill-rule:nonzero;stroke:none"
         x="0 10.004883 21.672363 30.834961 35.002441 39.997559 48.339844 52.507324 63.339844 71.682129 76.677246 85.019531 94.182129 102.52441 110.8667"
         y="0"
         sodipodi:role="line"
         id="tspan4">SQLite Database</tspan></text>
    <path
       id="path6"
       d="M 261,21 H 491 V 171 H 261 Z"
       style="fill:#e1d5e7;fill-opacity:1;fill-rule:nonzero;stroke:#9673a6;stroke-width:1;stroke-linecap:butt;stroke-linejoin:miter;stroke-miterlimit:10;stroke-dasharray:none;stroke-opacity:1"
       transform="matrix(0.95816457,0,0,0.95816457,0.47908228,0.47908228)"
       clip-path="url(#clipPath7)" />
    <path
       id="path8"
       d="M 271,31 H 481 V 51 H 271 Z"
       style="fill:#d5e8d4;fill-opacity:1;fill-rule:nonzero;stroke:#82b366;stroke-width:1;stroke-linecap:butt;stroke-linejoin:miter;stroke-miterlimit:10;stroke-dasharray:none;stroke-opacity:1"
       transform="matrix(0.95816457,0,0,0.95816457,0.47908228,0.47908228)"
       clip-path="url(#clipPath9)" />
    <text
       id="text9"
       xml:space="preserve"
       transform="matrix(0.95817417,0,0,0.95817417,315.52376,45.034186)"
       clip-path="url(#clipPath10)"><tspan
         style="font-variant:normal;font-weight:normal;font-size:15px;font-family:Helvetica;writing-mode:lr-tb;fill:#000000;fill-opacity:1;fill-rule:nonzero;stroke:none"
         x="0 7.5 15.842285 24.18457 27.51709 35.859375 40.026855 48.369141 52.536621 56.704102 65.046387 72.546387 80.888672 85.883789"
         y="0"
         sodipodi:role="line"
         id="tspan9">Table of users</tspan></text>
    <path
       id="path11"
       d="m 271,51 h 70 v 30 h -70 z"
       style="fill:#dae8fc;fill-opacity:1;fill-rule:nonzero;stroke:#6c8ebf;stroke-width:1;stroke-linecap:butt;stroke-linejoin:miter;stroke-miterlimit:10;stroke-dasharray:none;stroke-opacity:1"
       transform="matrix(0.95816457,0,0,0.95816457,0.47908228,0.47908228)"
       clip-path="url(#clipPath12)" />
    <text
       id="text12"
       xml:space="preserve"
       transform="matrix(0.95817417,0,0,0.95817417,289.08415,60.364973)"
       clip-path="url(#clipPath13)"><tspan
         style="font-style:oblique;font-variant:normal;font-weight:normal;font-size:11px;font-family:Helvetica;writing-mode:lr-tb;fill:#000000;fill-opacity:1;fill-rule:nonzero;stroke:none"
         x="0 2.4438477"
         y="0"
         sodipodi:role="line"
         id="tspan12">id</tspan></text>
    <text
       id="text13"
       xml:space="preserve"
       transform="matrix(0.95817417,0,0,0.95817417,275.32536,73.779411)"
       clip-path="url(#clipPath14)"><tspan
         style="font-style:oblique;font-variant:normal;font-weight:normal;font-size:11px;font-family:Helvetica;writing-mode:lr-tb;fill:#000000;fill-opacity:1;fill-rule:nonzero;stroke:none"
         x="0 6.1176758 12.235352 21.398438 27.516113 33.633789"
         y="0"
         sodipodi:role="line"
         id="tspan13">number</tspan></text>
    <path
       id="path15"
       d="m 341,51 h 70 v 30 h -70 z"
       style="fill:#dae8fc;fill-opacity:1;fill-rule:nonzero;stroke:#6c8ebf;stroke-width:1;stroke-linecap:butt;stroke-linejoin:miter;stroke-miterlimit:10;stroke-dasharray:none;stroke-opacity:1"
       transform="matrix(0.95816457,0,0,0.95816457,0.47908228,0.47908228)"
       clip-path="url(#clipPath16)" />
    <text
       id="text16"
       xml:space="preserve"
       transform="matrix(0.95817417,0,0,0.95817417,347.66751,60.364973)"
       clip-path="url(#clipPath17)"><tspan
         style="font-style:oblique;font-variant:normal;font-weight:normal;font-size:11px;font-family:Helvetica;writing-mode:lr-tb;fill:#000000;fill-opacity:1;fill-rule:nonzero;stroke:none"
         x="0 6.1176758 15.280762 21.398438 23.842285"
         y="0"
         sodipodi:role="line"
         id="tspan16">email</tspan></text>
    <text
       id="text17"
       xml:space="preserve"
       transform="matrix(0.95817417,0,0,0.95817417,347.38306,73.779411)"
       clip-path="url(#clipPath18)"><tspan
         style="font-style:oblique;font-variant:normal;font-weight:normal;font-size:11px;font-family:Helvetica;writing-mode:lr-tb;fill:#000000;fill-opacity:1;fill-rule:nonzero;stroke:none"
         x="0 5.5 8.5561523 12.219238 14.663086 20.780762"
         y="0"
         sodipodi:role="line"
         id="tspan17">string</tspan></text>
    <path
       id="path19"
       d="m 271,81 h 70 v 20 h -70 z"
       style="fill:#ffffff;fill-opacity:1;fill-rule:nonzero;stroke:#000000;stroke-width:1;stroke-linecap:butt;stroke-linejoin:miter;stroke-miterlimit:10;stroke-dasharray:none;stroke-opacity:1"
       transform="matrix(0.95816457,0,0,0.95816457,0.47908228,0.47908228)"
       clip-path="url(#clipPath20)" />
    <path
       id="path21"
       d="m 341,81 h 70 v 20 h -70 z"
       style="fill:#ffffff;fill-opacity:1;fill-rule:nonzero;stroke:#000000;stroke-width:1;stroke-linecap:butt;stroke-linejoin:miter;stroke-miterlimit:10;stroke-dasharray:none;stroke-opacity:1"
       transform="matrix(0.95816457,0,0,0.95816457,0.47908228,0.47908228)"
       clip-path="url(#clipPath22)" />
    <path
       id="path23"
       d="m 271,101 h 70 v 20 h -70 z"
       style="fill:#ffffff;fill-opacity:1;fill-rule:nonzero;stroke:#000000;stroke-width:1;stroke-linecap:butt;stroke-linejoin:miter;stroke-miterlimit:10;stroke-dasharray:none;stroke-opacity:1"
       transform="matrix(0.95816457,0,0,0.95816457,0.47908228,0.47908228)"
       clip-path="url(#clipPath24)" />
    <path
       id="path25"
       d="m 341,101 h 70 v 20 h -70 z"
       style="fill:#ffffff;fill-opacity:1;fill-rule:nonzero;stroke:#000000;stroke-width:1;stroke-linecap:butt;stroke-linejoin:miter;stroke-miterlimit:10;stroke-dasharray:none;stroke-opacity:1"
       transform="matrix(0.95816457,0,0,0.95816457,0.47908228,0.47908228)"
       clip-path="url(#clipPath26)" />
    <path
       id="path27"
       d="m 271,121 h 70 v 20 h -70 z"
       style="fill:#ffffff;fill-opacity:1;fill-rule:nonzero;stroke:#000000;stroke-width:1;stroke-linecap:butt;stroke-linejoin:miter;stroke-miterlimit:10;stroke-dasharray:none;stroke-opacity:1"
       transform="matrix(0.95816457,0,0,0.95816457,0.47908228,0.47908228)"
       clip-path="url(#clipPath28)" />
    <path
       id="path29"
       d="m 341,121 h 70 v 20 h -70 z"
       style="fill:#ffffff;fill-opacity:1;fill-rule:nonzero;stroke:#000000;stroke-width:1;stroke-linecap:butt;stroke-linejoin:miter;stroke-miterlimit:10;stroke-dasharray:none;stroke-opacity:1"
       transform="matrix(0.95816457,0,0,0.95816457,0.47908228,0.47908228)"
       clip-path="url(#clipPath30)" />
    <path
       id="path31"
       d="m 411,51 h 70 v 30 h -70 z"
       style="fill:#dae8fc;fill-opacity:1;fill-rule:nonzero;stroke:#6c8ebf;stroke-width:1;stroke-linecap:butt;stroke-linejoin:miter;stroke-miterlimit:10;stroke-dasharray:none;stroke-opacity:1"
       transform="matrix(0.95816457,0,0,0.95816457,0.47908228,0.47908228)"
       clip-path="url(#clipPath32)" />
    <text
       id="text32"
       xml:space="preserve"
       transform="matrix(0.95817417,0,0,0.95817417,404.78368,60.364973)"
       clip-path="url(#clipPath33)"><tspan
         style="font-style:oblique;font-variant:normal;font-weight:normal;font-size:11px;font-family:Helvetica;writing-mode:lr-tb;fill:#000000;fill-opacity:1;fill-rule:nonzero;stroke:none"
         x="0 6.1176758 12.235352 17.735352 23.235352 31.179199 37.296875 40.959961"
         y="0"
         sodipodi:role="line"
         id="tspan32">password</tspan></text>
    <text
       id="text33"
       xml:space="preserve"
       transform="matrix(0.95817417,0,0,0.95817417,414.44027,73.779411)"
       clip-path="url(#clipPath34)"><tspan
         style="font-style:oblique;font-variant:normal;font-weight:normal;font-size:11px;font-family:Helvetica;writing-mode:lr-tb;fill:#000000;fill-opacity:1;fill-rule:nonzero;stroke:none"
         x="0 5.5 8.5561523 12.219238 14.663086 20.780762"
         y="0"
         sodipodi:role="line"
         id="tspan33">string</tspan></text>
    <path
       id="path35"
       d="m 411,81 h 70 v 20 h -70 z"
       style="fill:#ffffff;fill-opacity:1;fill-rule:nonzero;stroke:#000000;stroke-width:1;stroke-linecap:butt;stroke-linejoin:miter;stroke-miterlimit:10;stroke-dasharray:none;stroke-opacity:1"
       transform="matrix(0.95816457,0,0,0.95816457,0.47908228,0.47908228)"
       clip-path="url(#clipPath36)" />
    <path
       id="path37"
       d="m 411,101 h 70 v 20 h -70 z"
       style="fill:#ffffff;fill-opacity:1;fill-rule:nonzero;stroke:#000000;stroke-width:1;stroke-linecap:butt;stroke-linejoin:miter;stroke-miterlimit:10;stroke-dasharray:none;stroke-opacity:1"
       transform="matrix(0.95816457,0,0,0.95816457,0.47908228,0.47908228)"
       clip-path="url(#clipPath38)" />
    <path
       id="path39"
       d="m 411,121 h 70 v 20 h -70 z"
       style="fill:#ffffff;fill-opacity:1;fill-rule:nonzero;stroke:#000000;stroke-width:1;stroke-linecap:butt;stroke-linejoin:miter;stroke-miterlimit:10;stroke-dasharray:none;stroke-opacity:1"
       transform="matrix(0.95816457,0,0,0.95816457,0.47908228,0.47908228)"
       clip-path="url(#clipPath40)" />
    <path
       id="path41"
       d="M 1,2 H 151 V 22 H 1 Z"
       style="fill:#f5f5f5;fill-opacity:1;fill-rule:nonzero;stroke:#666666;stroke-width:1;stroke-linecap:butt;stroke-linejoin:miter;stroke-miterlimit:10;stroke-dasharray:none;stroke-opacity:1"
       transform="matrix(0.95816457,0,0,0.95816457,0.47908228,0.47908228)"
       clip-path="url(#clipPath42)" />
    <text
       id="text42"
       xml:space="preserve"
       transform="matrix(0.95817417,0,0,0.95817417,44.330527,17.247135)"
       clip-path="url(#clipPath43)"><tspan
         style="font-variant:normal;font-weight:700;font-size:15px;font-family:Helvetica;writing-mode:lr-tb;fill:#333333;fill-opacity:1;fill-rule:nonzero;stroke:none"
         x="0 11.66748 20.830078 26.66748 30.285645 41.118164 50.280762"
         y="0"
         sodipodi:role="line"
         id="tspan42">Our App</tspan></text>
    <path
       id="path44"
       d="m 151,97 v -1 h 90 13.63"
       style="fill:none;stroke:#000000;stroke-width:1;stroke-linecap:butt;stroke-linejoin:miter;stroke-miterlimit:10;stroke-dasharray:none;stroke-opacity:1"
       transform="matrix(0.95816457,0,0,0.95816457,0.47908228,0.47908228)"
       clip-path="url(#clipPath45)" />
    <path
       id="path46"
       d="m 259.88,96 -7,3.5 1.75,-3.5 -1.75,-3.5 z"
       style="fill:#000000;fill-opacity:1;fill-rule:nonzero;stroke:#000000;stroke-width:1;stroke-linecap:butt;stroke-linejoin:miter;stroke-miterlimit:10;stroke-dasharray:none;stroke-opacity:1"
       transform="matrix(0.95816457,0,0,0.95816457,0.47908228,0.47908228)"
       clip-path="url(#clipPath47)" />
    <path
       id="path48"
       d="M 1,22 H 151 V 172 H 1 Z"
       style="fill:#f5f5f5;fill-opacity:1;fill-rule:nonzero;stroke:#666666;stroke-width:1;stroke-linecap:butt;stroke-linejoin:miter;stroke-miterlimit:10;stroke-dasharray:none;stroke-opacity:1"
       transform="matrix(0.95816457,0,0,0.95816457,0.47908228,0.47908228)"
       clip-path="url(#clipPath49)" />
    <path
       id="path50"
       d="m 11,102 h 130 v 20 H 11 Z"
       style="fill:#dae8fc;fill-opacity:1;fill-rule:nonzero;stroke:#6c8ebf;stroke-width:1;stroke-linecap:butt;stroke-linejoin:miter;stroke-miterlimit:10;stroke-dasharray:none;stroke-opacity:1"
       transform="matrix(0.95816457,0,0,0.95816457,0.47908228,0.47908228)"
       clip-path="url(#clipPath51)" />
    <text
       id="text51"
       xml:space="preserve"
       transform="matrix(0.95817417,0,0,0.95817417,22.142806,111.1482)"
       clip-path="url(#clipPath52)"><tspan
         style="font-variant:normal;font-weight:700;font-size:11px;font-family:Helvetica;writing-mode:lr-tb;fill:#000000;fill-opacity:1;fill-rule:nonzero;stroke:none"
         x="0 7.9438477 14.061523 20.179199 24.459961 27.516113 34.853027 41.572266 45.235352 48.291504 51.95459 58.072266 61.128418 64.18457 70.903809 77.021484 80.68457 86.802246 93.521484 99.63916"
         y="0"
         sodipodi:role="line"
         id="tspan51">User Entity Instance</tspan></text>
    <path
       id="path53"
       d="m 11,122 h 60 v 20 H 11 Z"
       style="fill:#dae8fc;fill-opacity:1;fill-rule:nonzero;stroke:#6c8ebf;stroke-width:1;stroke-linecap:butt;stroke-linejoin:miter;stroke-miterlimit:10;stroke-dasharray:none;stroke-opacity:1"
       transform="matrix(0.95816457,0,0,0.95816457,0.47908228,0.47908228)"
       clip-path="url(#clipPath54)" />
    <text
       id="text54"
       xml:space="preserve"
       transform="matrix(0.95817417,0,0,0.95817417,26.679162,130.31169)"
       clip-path="url(#clipPath55)"><tspan
         style="font-variant:normal;font-weight:normal;font-size:11px;font-family:Helvetica;writing-mode:lr-tb;fill:#000000;fill-opacity:1;fill-rule:nonzero;stroke:none"
         x="0 6.1176758 15.280762 21.398438 23.842285"
         y="0"
         sodipodi:role="line"
         id="tspan54">email</tspan></text>
    <path
       id="path56"
       d="m 71,122 h 70 v 20 H 71 Z"
       style="fill:#dae8fc;fill-opacity:1;fill-rule:nonzero;stroke:#6c8ebf;stroke-width:1;stroke-linecap:butt;stroke-linejoin:miter;stroke-miterlimit:10;stroke-dasharray:none;stroke-opacity:1"
       transform="matrix(0.95816457,0,0,0.95816457,0.47908228,0.47908228)"
       clip-path="url(#clipPath57)" />
    <text
       id="text57"
       xml:space="preserve"
       transform="matrix(0.95817417,0,0,0.95817417,78.929597,130.31169)"
       clip-path="url(#clipPath58)"><tspan
         style="font-variant:normal;font-weight:normal;font-size:11px;font-family:Helvetica;writing-mode:lr-tb;fill:#000000;fill-opacity:1;fill-rule:nonzero;stroke:none"
         x="0 6.1176758 17.28418 23.401855 26.458008 31.958008 38.075684"
         y="0"
         sodipodi:role="line"
         id="tspan57">b@b.com</tspan></text>
    <path
       id="path59"
       d="m 11,142 h 60 v 20 H 11 Z"
       style="fill:#dae8fc;fill-opacity:1;fill-rule:nonzero;stroke:#6c8ebf;stroke-width:1;stroke-linecap:butt;stroke-linejoin:miter;stroke-miterlimit:10;stroke-dasharray:none;stroke-opacity:1"
       transform="matrix(0.95816457,0,0,0.95816457,0.47908228,0.47908228)"
       clip-path="url(#clipPath60)" />
    <text
       id="text60"
       xml:space="preserve"
       transform="matrix(0.95817417,0,0,0.95817417,16.723134,149.47517)"
       clip-path="url(#clipPath61)"><tspan
         style="font-variant:normal;font-weight:normal;font-size:11px;font-family:Helvetica;writing-mode:lr-tb;fill:#000000;fill-opacity:1;fill-rule:nonzero;stroke:none"
         x="0 6.1176758 12.235352 17.735352 23.235352 31.179199 37.296875 40.959961"
         y="0"
         sodipodi:role="line"
         id="tspan60">password</tspan></text>
    <path
       id="path62"
       d="m 71,142 h 70 v 20 H 71 Z"
       style="fill:#dae8fc;fill-opacity:1;fill-rule:nonzero;stroke:#6c8ebf;stroke-width:1;stroke-linecap:butt;stroke-linejoin:miter;stroke-miterlimit:10;stroke-dasharray:none;stroke-opacity:1"
       transform="matrix(0.95816457,0,0,0.95816457,0.47908228,0.47908228)"
       clip-path="url(#clipPath63)" />
    <text
       id="text63"
       xml:space="preserve"
       transform="matrix(0.95817417,0,0,0.95817417,98.632053,149.47517)"
       clip-path="url(#clipPath64)"><tspan
         style="font-variant:normal;font-weight:normal;font-size:11px;font-family:Helvetica;writing-mode:lr-tb;fill:#000000;fill-opacity:1;fill-rule:nonzero;stroke:none"
         x="0"
         y="0"
         id="tspan63">a</tspan></text>
    <path
       id="path65"
       d="M 43.5,61 V 95.629997"
       style="fill:none;stroke:#000000;stroke-width:1;stroke-linecap:butt;stroke-linejoin:miter;stroke-miterlimit:10;stroke-dasharray:none;stroke-opacity:1"
       transform="matrix(0.95816457,0,0,0.95816457,0.47908228,0.47908228)"
       clip-path="url(#clipPath66)" />
    <path
       id="path67"
       d="m 43.5,100.88 -3.5,-7.000003 3.5,1.75 3.5,-1.75 z"
       style="fill:#000000;fill-opacity:1;fill-rule:nonzero;stroke:#000000;stroke-width:1;stroke-linecap:butt;stroke-linejoin:miter;stroke-miterlimit:10;stroke-dasharray:none;stroke-opacity:1"
       transform="matrix(0.95816457,0,0,0.95816457,0.47908228,0.47908228)"
       clip-path="url(#clipPath68)" />
    <path
       id="path69"
       d="M 11,31 H 141 V 61 H 11 Z"
       style="fill:#ffffff;fill-opacity:1;fill-rule:nonzero;stroke:#000000;stroke-width:1;stroke-linecap:butt;stroke-linejoin:miter;stroke-miterlimit:10;stroke-dasharray:none;stroke-opacity:1"
       transform="matrix(0.95816457,0,0,0.95816457,0.47908228,0.47908228)"
       clip-path="url(#clipPath70)" />
    <text
       id="text70"
       xml:space="preserve"
       transform="matrix(0.95817417,0,0,0.95817417,49.166312,46.950534)"
       clip-path="url(#clipPath71)"><tspan
         style="font-variant:normal;font-weight:normal;font-size:8px;font-family:Helvetica;writing-mode:lr-tb;fill:#000000;fill-opacity:1;fill-rule:nonzero;stroke:none"
         x="0 1.5273438 5.9765625 14.097656 18.546875 20.769531 24.769531 29.21875 35.882812 37.410156 39.632812 41.855469 43.382812 47.832031"
         y="0"
         sodipodi:role="line"
         id="tspan70">'b@b.com', 'a'</tspan></text>
    <path
       id="path72"
       d="m 43,68 h 80 V 88 H 43 Z"
       style="fill:#f8cecc;fill-opacity:1;fill-rule:nonzero;stroke:#b85450;stroke-width:1;stroke-linecap:butt;stroke-linejoin:miter;stroke-miterlimit:10;stroke-dasharray:none;stroke-opacity:1"
       transform="matrix(0.95816457,0,0,0.95816457,0.47908228,0.47908228)"
       clip-path="url(#clipPath73)" />
    <text
       id="text73"
       xml:space="preserve"
       transform="matrix(0.95817417,0,0,0.95817417,44.540127,77.612108)"
       clip-path="url(#clipPath74)"><tspan
         style="font-style:oblique;font-variant:normal;font-weight:700;font-size:9px;font-family:Helvetica;writing-mode:lr-tb;fill:#000000;fill-opacity:1;fill-rule:nonzero;stroke:none"
         x="0 2.9970703 8.4946289 10.995117 16.000488 18.500977 22.003418 27.008789 32.506348 38.003906 40.504395 45.509766 49.012207 54.017578 59.022949 62.02002 67.025391 70.022461"
         y="0"
         sodipodi:role="line"
         id="tspan73">this.repo.create()</tspan></text>
    <path
       id="path75"
       d="m 170,76 h 70 v 20 h -70 z"
       style="fill:#f8cecc;fill-opacity:1;fill-rule:nonzero;stroke:#b85450;stroke-width:1;stroke-linecap:butt;stroke-linejoin:miter;stroke-miterlimit:10;stroke-dasharray:none;stroke-opacity:1"
       transform="matrix(0.95816457,0,0,0.95816457,0.47908228,0.47908228)"
       clip-path="url(#clipPath76)" />
    <text
       id="text76"
       xml:space="preserve"
       transform="matrix(0.95817417,0,0,0.95817417,164.55145,85.277501)"
       clip-path="url(#clipPath77)"><tspan
         style="font-style:oblique;font-variant:normal;font-weight:700;font-size:9px;font-family:Helvetica;writing-mode:lr-tb;fill:#000000;fill-opacity:1;fill-rule:nonzero;stroke:none"
         x="0 2.9970703 8.4946289 10.995117 16.000488 18.500977 22.003418 27.008789 32.506348 38.003906 40.504395 45.509766 50.515137 55.520508 60.525879 63.522949"
         y="0"
         sodipodi:role="line"
         id="tspan76">this.repo.save()</tspan></text>
  </g>
</svg>
