<?xml version="1.0" encoding="UTF-8" standalone="no"?>
<!-- Created with Inkscape (http://www.inkscape.org/) -->

<svg
   version="1.1"
   id="svg1"
   width="290.56"
   height="178.56"
   viewBox="0 0 290.56 178.56"
   sodipodi:docname="nest-12.pdf"
   xmlns:inkscape="http://www.inkscape.org/namespaces/inkscape"
   xmlns:sodipodi="http://sodipodi.sourceforge.net/DTD/sodipodi-0.dtd"
   xmlns="http://www.w3.org/2000/svg"
   xmlns:svg="http://www.w3.org/2000/svg">
  <defs
     id="defs1">
    <clipPath
       clipPathUnits="userSpaceOnUse"
       id="clipPath2">
      <path
         d="M 0,0 H 908.33325 V 555.75653 H 0 Z"
         transform="scale(0.33467892)"
         clip-rule="evenodd"
         id="path2" />
    </clipPath>
    <clipPath
       clipPathUnits="userSpaceOnUse"
       id="clipPath4">
      <path
         d="M 0,0 H 908.33325 V 552.76862 H 0 Z"
         transform="matrix(0.33467892,0,0,0.33467892,-0.49999999,-0.49999999)"
         clip-rule="evenodd"
         id="path4" />
    </clipPath>
    <clipPath
       clipPathUnits="userSpaceOnUse"
       id="clipPath6">
      <path
         d="M 0,0 H 908.33325 V 552.76862 H 0 Z"
         transform="matrix(0.33467892,0,0,0.33467892,-0.49999999,-0.49999999)"
         clip-rule="evenodd"
         id="path6" />
    </clipPath>
    <clipPath
       clipPathUnits="userSpaceOnUse"
       id="clipPath8">
      <path
         d="M 0,0 H 908.33325 V 552.76862 H 0 Z"
         transform="matrix(0.33467892,0,0,0.33467892,-0.49999999,-0.49999999)"
         clip-rule="evenodd"
         id="path8" />
    </clipPath>
    <clipPath
       clipPathUnits="userSpaceOnUse"
       id="clipPath9">
      <path
         d="M 0,0 H 908.33325 V 552.76862 H 0 Z"
         transform="matrix(0.33467558,0,0,0.33467558,-13.109375,-75.000001)"
         clip-rule="evenodd"
         id="path9" />
    </clipPath>
    <clipPath
       clipPathUnits="userSpaceOnUse"
       id="clipPath11">
      <path
         d="M 0,0 H 908.33325 V 552.76862 H 0 Z"
         transform="matrix(0.33467892,0,0,0.33467892,-0.49999999,-0.49999999)"
         clip-rule="evenodd"
         id="path11" />
    </clipPath>
    <clipPath
       clipPathUnits="userSpaceOnUse"
       id="clipPath12">
      <path
         d="M 0,0 H 908.33325 V 552.76862 H 0 Z"
         transform="matrix(0.33467558,0,0,0.33467558,-21.046875,-175)"
         clip-rule="evenodd"
         id="path12" />
    </clipPath>
    <clipPath
       clipPathUnits="userSpaceOnUse"
       id="clipPath14">
      <path
         d="M 0,0 H 908.33325 V 552.76862 H 0 Z"
         transform="matrix(0.33467892,0,0,0.33467892,-0.49999999,-0.49999999)"
         clip-rule="evenodd"
         id="path14" />
    </clipPath>
    <clipPath
       clipPathUnits="userSpaceOnUse"
       id="clipPath16">
      <path
         d="M 0,0 H 908.33325 V 552.76862 H 0 Z"
         transform="matrix(0.33467892,0,0,0.33467892,-0.49999999,-0.49999999)"
         clip-rule="evenodd"
         id="path16" />
    </clipPath>
    <clipPath
       clipPathUnits="userSpaceOnUse"
       id="clipPath18">
      <path
         d="M 0,0 H 908.33325 V 552.76862 H 0 Z"
         transform="matrix(0.33467892,0,0,0.33467892,-0.49999999,-0.49999999)"
         clip-rule="evenodd"
         id="path18" />
    </clipPath>
    <clipPath
       clipPathUnits="userSpaceOnUse"
       id="clipPath19">
      <path
         d="M 0,0 H 908.33325 V 552.76862 H 0 Z"
         transform="matrix(0.33467558,0,0,0.33467558,-175.9375,-70)"
         clip-rule="evenodd"
         id="path19" />
    </clipPath>
    <clipPath
       clipPathUnits="userSpaceOnUse"
       id="clipPath20">
      <path
         d="M 0,0 H 908.33325 V 552.76862 H 0 Z"
         transform="matrix(0.33467558,0,0,0.33467558,-193.60938,-82)"
         clip-rule="evenodd"
         id="path20" />
    </clipPath>
    <clipPath
       clipPathUnits="userSpaceOnUse"
       id="clipPath22">
      <path
         d="M 0,0 H 908.33325 V 552.76862 H 0 Z"
         transform="matrix(0.33467892,0,0,0.33467892,-0.49999999,-0.49999999)"
         clip-rule="evenodd"
         id="path22" />
    </clipPath>
    <clipPath
       clipPathUnits="userSpaceOnUse"
       id="clipPath23">
      <path
         d="M 0,0 H 908.33325 V 552.76862 H 0 Z"
         transform="matrix(0.33467558,0,0,0.33467558,-191.04688,-175)"
         clip-rule="evenodd"
         id="path23" />
    </clipPath>
    <clipPath
       clipPathUnits="userSpaceOnUse"
       id="clipPath25">
      <path
         d="M 0,0 H 908.33325 V 552.76862 H 0 Z"
         transform="matrix(0.33467892,0,0,0.33467892,-0.49999999,-0.49999999)"
         clip-rule="evenodd"
         id="path25" />
    </clipPath>
    <clipPath
       clipPathUnits="userSpaceOnUse"
       id="clipPath27">
      <path
         d="M 0,0 H 908.33325 V 552.76862 H 0 Z"
         transform="matrix(0.33467892,0,0,0.33467892,-0.49999999,-0.49999999)"
         clip-rule="evenodd"
         id="path27" />
    </clipPath>
    <clipPath
       clipPathUnits="userSpaceOnUse"
       id="clipPath28">
      <path
         d="M 0,0 H 908.33325 V 552.76862 H 0 Z"
         transform="matrix(0.33467558,0,0,0.33467558,-21.515625,-21)"
         clip-rule="evenodd"
         id="path28" />
    </clipPath>
    <clipPath
       clipPathUnits="userSpaceOnUse"
       id="clipPath30">
      <path
         d="M 0,0 H 908.33325 V 552.76862 H 0 Z"
         transform="matrix(0.33467892,0,0,0.33467892,-0.49999999,-0.49999999)"
         clip-rule="evenodd"
         id="path30" />
    </clipPath>
    <clipPath
       clipPathUnits="userSpaceOnUse"
       id="clipPath31">
      <path
         d="M 0,0 H 908.33325 V 552.76862 H 0 Z"
         transform="matrix(0.33467558,0,0,0.33467558,-190.96875,-21)"
         clip-rule="evenodd"
         id="path31" />
    </clipPath>
    <clipPath
       clipPathUnits="userSpaceOnUse"
       id="clipPath32">
      <path
         d="M 0,0 H 908.33325 V 552.76862 H 0 Z"
         transform="matrix(0.33467558,0,0,0.33467558,-222.09375,-21)"
         clip-rule="evenodd"
         id="path32" />
    </clipPath>
    <clipPath
       clipPathUnits="userSpaceOnUse"
       id="clipPath33">
      <path
         d="M 0,0 H 908.33325 V 552.76862 H 0 Z"
         transform="matrix(0.33467558,0,0,0.33467558,-237.64063,-21)"
         clip-rule="evenodd"
         id="path33" />
    </clipPath>
    <clipPath
       clipPathUnits="userSpaceOnUse"
       id="clipPath35">
      <path
         d="M 0,0 H 908.33325 V 552.76862 H 0 Z"
         transform="matrix(0.33467892,0,0,0.33467892,-0.49999999,-0.49999999)"
         clip-rule="evenodd"
         id="path35" />
    </clipPath>
    <clipPath
       clipPathUnits="userSpaceOnUse"
       id="clipPath36">
      <path
         d="M 0,0 H 908.33325 V 552.76862 H 0 Z"
         transform="matrix(0.33467558,0,0,0.33467558,-17.84375,-105)"
         clip-rule="evenodd"
         id="path36" />
    </clipPath>
    <clipPath
       clipPathUnits="userSpaceOnUse"
       id="clipPath38">
      <path
         d="M 0,0 H 908.33325 V 552.76862 H 0 Z"
         transform="matrix(0.33467892,0,0,0.33467892,-0.49999999,-0.49999999)"
         clip-rule="evenodd"
         id="path38" />
    </clipPath>
    <clipPath
       clipPathUnits="userSpaceOnUse"
       id="clipPath39">
      <path
         d="M 0,0 H 908.33325 V 552.76862 H 0 Z"
         transform="matrix(0.33467558,0,0,0.33467558,-72.375001,-105)"
         clip-rule="evenodd"
         id="path39" />
    </clipPath>
    <clipPath
       clipPathUnits="userSpaceOnUse"
       id="clipPath41">
      <path
         d="M 0,0 H 908.33325 V 552.76862 H 0 Z"
         transform="matrix(0.33467892,0,0,0.33467892,-0.49999999,-0.49999999)"
         clip-rule="evenodd"
         id="path41" />
    </clipPath>
    <clipPath
       clipPathUnits="userSpaceOnUse"
       id="clipPath42">
      <path
         d="M 0,0 H 908.33325 V 552.76862 H 0 Z"
         transform="matrix(0.33467558,0,0,0.33467558,-7.4531251,-125)"
         clip-rule="evenodd"
         id="path42" />
    </clipPath>
    <clipPath
       clipPathUnits="userSpaceOnUse"
       id="clipPath44">
      <path
         d="M 0,0 H 908.33325 V 552.76862 H 0 Z"
         transform="matrix(0.33467892,0,0,0.33467892,-0.49999999,-0.49999999)"
         clip-rule="evenodd"
         id="path44" />
    </clipPath>
    <clipPath
       clipPathUnits="userSpaceOnUse"
       id="clipPath45">
      <path
         d="M 0,0 H 908.33325 V 552.76862 H 0 Z"
         transform="matrix(0.33467558,0,0,0.33467558,-92.937501,-125)"
         clip-rule="evenodd"
         id="path45" />
    </clipPath>
  </defs>
  <sodipodi:namedview
     id="namedview1"
     pagecolor="#ffffff"
     bordercolor="#000000"
     borderopacity="0.25"
     inkscape:showpageshadow="2"
     inkscape:pageopacity="0.0"
     inkscape:pagecheckerboard="0"
     inkscape:deskcolor="#d1d1d1">
    <inkscape:page
       x="0"
       y="0"
       inkscape:label="1"
       id="page1"
       width="290.56"
       height="178.56"
       margin="0"
       bleed="0" />
  </sodipodi:namedview>
  <g
     id="g1"
     inkscape:groupmode="layer"
     inkscape:label="1">
    <path
       id="path1"
       d="M 0,0 H 304 V 186 H 0 Z"
       style="fill:#ffffff;fill-opacity:1;fill-rule:nonzero;stroke:none"
       transform="scale(0.95614025)"
       clip-path="url(#clipPath2)" />
    <path
       id="path3"
       d="m 66,91 v 63.63"
       style="fill:none;stroke:#000000;stroke-width:1;stroke-linecap:butt;stroke-linejoin:miter;stroke-miterlimit:10;stroke-dasharray:none;stroke-opacity:1"
       transform="matrix(0.95614025,0,0,0.95614025,0.47807012,0.47807012)"
       clip-path="url(#clipPath4)" />
    <path
       id="path5"
       d="m 66,159.88 -3.5,-7 3.5,1.75 3.5,-1.75 z"
       style="fill:#000000;fill-opacity:1;fill-rule:nonzero;stroke:#000000;stroke-width:1;stroke-linecap:butt;stroke-linejoin:miter;stroke-miterlimit:10;stroke-dasharray:none;stroke-opacity:1"
       transform="matrix(0.95614025,0,0,0.95614025,0.47807012,0.47807012)"
       clip-path="url(#clipPath6)" />
    <path
       id="path7"
       d="M 1,51 H 131 V 91 H 1 Z"
       style="fill:#f5f5f5;fill-opacity:1;fill-rule:nonzero;stroke:#666666;stroke-width:1;stroke-linecap:butt;stroke-linejoin:miter;stroke-miterlimit:10;stroke-dasharray:none;stroke-opacity:1"
       transform="matrix(0.95614025,0,0,0.95614025,0.47807012,0.47807012)"
       clip-path="url(#clipPath8)" />
    <text
       id="text8"
       xml:space="preserve"
       transform="matrix(0.95614978,0,0,0.95614978,12.534526,71.711234)"
       clip-path="url(#clipPath9)"><tspan
         style="font-variant:normal;font-weight:700;font-size:11px;font-family:Helvetica;writing-mode:lr-tb;fill:#333333;fill-opacity:1;fill-rule:nonzero;stroke:none"
         x="0 7.9438477 14.061523 20.179199 24.459961 27.516113 34.853027 41.572266 45.235352 48.291504 51.95459 58.072266 61.128418 64.18457 70.903809 77.021484 80.68457 86.802246 93.521484 99.63916"
         y="0"
         sodipodi:role="line"
         id="tspan8">User Entity Instance</tspan></text>
    <path
       id="path10"
       d="m 1,161 h 130 v 20 H 1 Z"
       style="fill:#dae8fc;fill-opacity:1;fill-rule:nonzero;stroke:#6c8ebf;stroke-width:1;stroke-linecap:butt;stroke-linejoin:miter;stroke-miterlimit:10;stroke-dasharray:none;stroke-opacity:1"
       transform="matrix(0.95614025,0,0,0.95614025,0.47807012,0.47807012)"
       clip-path="url(#clipPath11)" />
    <text
       id="text11"
       xml:space="preserve"
       transform="matrix(0.95614978,0,0,0.95614978,20.123965,167.32621)"
       clip-path="url(#clipPath12)"><tspan
         style="font-variant:normal;font-weight:700;font-size:11px;font-family:Helvetica;writing-mode:lr-tb;fill:#000000;fill-opacity:1;fill-rule:nonzero;stroke:none"
         x="0 7.9438477 14.061523 20.179199 24.459961 30.577637 33.633789 41.577637 47.695312 54.414551 61.133789 64.189941 71.526855 77.644531 83.762207"
         y="0"
         sodipodi:role="line"
         id="tspan11">Users Repo Save</tspan></text>
    <path
       id="path13"
       d="m 236,91 v 63.63"
       style="fill:none;stroke:#000000;stroke-width:1;stroke-linecap:butt;stroke-linejoin:miter;stroke-miterlimit:10;stroke-dasharray:none;stroke-opacity:1"
       transform="matrix(0.95614025,0,0,0.95614025,0.47807012,0.47807012)"
       clip-path="url(#clipPath14)" />
    <path
       id="path15"
       d="m 236,159.88 -3.5,-7 3.5,1.75 3.5,-1.75 z"
       style="fill:#000000;fill-opacity:1;fill-rule:nonzero;stroke:#000000;stroke-width:1;stroke-linecap:butt;stroke-linejoin:miter;stroke-miterlimit:10;stroke-dasharray:none;stroke-opacity:1"
       transform="matrix(0.95614025,0,0,0.95614025,0.47807012,0.47807012)"
       clip-path="url(#clipPath16)" />
    <path
       id="path17"
       d="M 171,51 H 301 V 91 H 171 Z"
       style="fill:#f5f5f5;fill-opacity:1;fill-rule:nonzero;stroke:#666666;stroke-width:1;stroke-linecap:butt;stroke-linejoin:miter;stroke-miterlimit:10;stroke-dasharray:none;stroke-opacity:1"
       transform="matrix(0.95614025,0,0,0.95614025,0.47807012,0.47807012)"
       clip-path="url(#clipPath18)" />
    <text
       id="text18"
       xml:space="preserve"
       transform="matrix(0.95614978,0,0,0.95614978,168.2226,66.930485)"
       clip-path="url(#clipPath19)"><tspan
         style="font-variant:normal;font-weight:700;font-size:10px;font-family:Helvetica;writing-mode:lr-tb;fill:#333333;fill-opacity:1;fill-rule:nonzero;stroke:none"
         x="0 3.8916016 6.6699219 12.231445 21.123047 26.68457 29.462891 32.241211 35.571289 38.349609 40.727539 46.289062 51.850586 57.958984 61.289062 71.040039 76.601562 82.163086 88.271484 91.601562 94.379883 99.941406 106.0498 114.94141 117.31934"
         y="0"
         sodipodi:role="line"
         id="tspan18">{ email: 'asdf@asdf.com',</tspan></text>
    <text
       id="text19"
       xml:space="preserve"
       transform="matrix(0.95614978,0,0,0.95614978,185.11957,78.404282)"
       clip-path="url(#clipPath20)"><tspan
         style="font-variant:normal;font-weight:700;font-size:10px;font-family:Helvetica;writing-mode:lr-tb;fill:#333333;fill-opacity:1;fill-rule:nonzero;stroke:none"
         x="0 6.1083984 11.669922 17.231445 22.792969 30.571289 36.679688 40.571289 46.679688 50.009766 52.788086 55.166016 60.727539 66.289062 72.397461 75.727539 78.105469 80.883789"
         y="0"
         sodipodi:role="line"
         id="tspan19">password: 'asdf' }</tspan></text>
    <path
       id="path21"
       d="m 171,161 h 130 v 20 H 171 Z"
       style="fill:#dae8fc;fill-opacity:1;fill-rule:nonzero;stroke:#6c8ebf;stroke-width:1;stroke-linecap:butt;stroke-linejoin:miter;stroke-miterlimit:10;stroke-dasharray:none;stroke-opacity:1"
       transform="matrix(0.95614025,0,0,0.95614025,0.47807012,0.47807012)"
       clip-path="url(#clipPath22)" />
    <text
       id="text22"
       xml:space="preserve"
       transform="matrix(0.95614978,0,0,0.95614978,182.66943,167.32621)"
       clip-path="url(#clipPath23)"><tspan
         style="font-variant:normal;font-weight:700;font-size:11px;font-family:Helvetica;writing-mode:lr-tb;fill:#000000;fill-opacity:1;fill-rule:nonzero;stroke:none"
         x="0 7.9438477 14.061523 20.179199 24.459961 30.577637 33.633789 41.577637 47.695312 54.414551 61.133789 64.189941 71.526855 77.644531 83.762207"
         y="0"
         sodipodi:role="line"
         id="tspan22">Users Repo Save</tspan></text>
    <path
       id="path24"
       d="M 151,41 V 181"
       style="fill:none;stroke:#000000;stroke-width:1;stroke-linecap:butt;stroke-linejoin:miter;stroke-miterlimit:10;stroke-dasharray:none;stroke-opacity:1"
       transform="matrix(0.95614025,0,0,0.95614025,0.47807012,0.47807012)"
       clip-path="url(#clipPath25)" />
    <path
       id="path26"
       d="M 6,1 H 126 V 31 H 6 Z"
       style="fill:#d5e8d4;fill-opacity:1;fill-rule:nonzero;stroke:#82b366;stroke-width:1;stroke-linecap:butt;stroke-linejoin:miter;stroke-miterlimit:10;stroke-dasharray:none;stroke-opacity:1"
       transform="matrix(0.95614025,0,0,0.95614025,0.47807012,0.47807012)"
       clip-path="url(#clipPath27)" />
    <text
       id="text27"
       xml:space="preserve"
       transform="matrix(0.95614978,0,0,0.95614978,20.57216,20.079145)"
       clip-path="url(#clipPath28)"><tspan
         style="font-style:oblique;font-variant:normal;font-weight:normal;font-size:10px;font-family:Helvetica;writing-mode:lr-tb;fill:#000000;fill-opacity:1;fill-rule:nonzero;stroke:none"
         x="0 7.2216797 12.783203 18.344727 23.344727 28.344727 31.123047 36.68457 40.014648 45.576172 48.354492 53.916016 58.916016 64.477539 69.477539 75.039062 77.817383 83.378906"
         y="0"
         sodipodi:role="line"
         id="tspan27">Hooks are executed</tspan></text>
    <path
       id="path29"
       d="M 176,1 H 296 V 31 H 176 Z"
       style="fill:#fff2cc;fill-opacity:1;fill-rule:nonzero;stroke:#d6b656;stroke-width:1;stroke-linecap:butt;stroke-linejoin:miter;stroke-miterlimit:10;stroke-dasharray:none;stroke-opacity:1"
       transform="matrix(0.95614025,0,0,0.95614025,0.47807012,0.47807012)"
       clip-path="url(#clipPath30)" />
    <text
       id="text30"
       xml:space="preserve"
       transform="matrix(0.95614978,0,0,0.95614978,182.59473,20.079145)"
       clip-path="url(#clipPath31)"><tspan
         style="font-style:oblique;font-variant:normal;font-weight:normal;font-size:10px;font-family:Helvetica;writing-mode:lr-tb;fill:#000000;fill-opacity:1;fill-rule:nonzero;stroke:none"
         x="0 7.2216797 12.783203 18.344727 23.344727 28.344727"
         y="0"
         sodipodi:role="line"
         id="tspan30">Hooks </tspan></text>
    <text
       id="text31"
       xml:space="preserve"
       transform="matrix(0.95614978,0,0,0.95614978,212.35489,20.079145)"
       clip-path="url(#clipPath32)"><tspan
         style="font-style:oblique;font-variant:normal;font-weight:700;font-size:10px;font-family:Helvetica;writing-mode:lr-tb;fill:#000000;fill-opacity:1;fill-rule:nonzero;stroke:none"
         x="0 6.1083984 12.216797"
         y="0"
         sodipodi:role="line"
         id="tspan31">not</tspan></text>
    <text
       id="text32"
       xml:space="preserve"
       transform="matrix(0.95614978,0,0,0.95614978,227.22004,20.079145)"
       clip-path="url(#clipPath33)"><tspan
         style="font-style:oblique;font-variant:normal;font-weight:normal;font-size:10px;font-family:Helvetica;writing-mode:lr-tb;fill:#000000;fill-opacity:1;fill-rule:nonzero;stroke:none"
         x="0 2.7783203 8.3398438 13.339844 18.901367 23.901367 29.462891 32.241211 37.802734"
         y="0"
         sodipodi:role="line"
         id="tspan32"> executed</tspan></text>
    <path
       id="path34"
       d="m 1,91 h 60 v 20 H 1 Z"
       style="fill:#dae8fc;fill-opacity:1;fill-rule:nonzero;stroke:#6c8ebf;stroke-width:1;stroke-linecap:butt;stroke-linejoin:miter;stroke-miterlimit:10;stroke-dasharray:none;stroke-opacity:1"
       transform="matrix(0.95614025,0,0,0.95614025,0.47807012,0.47807012)"
       clip-path="url(#clipPath35)" />
    <text
       id="text35"
       xml:space="preserve"
       transform="matrix(0.95614978,0,0,0.95614978,17.061298,100.39573)"
       clip-path="url(#clipPath36)"><tspan
         style="font-variant:normal;font-weight:normal;font-size:11px;font-family:Helvetica;writing-mode:lr-tb;fill:#000000;fill-opacity:1;fill-rule:nonzero;stroke:none"
         x="0 6.1176758 15.280762 21.398438 23.842285"
         y="0"
         sodipodi:role="line"
         id="tspan35">email</tspan></text>
    <path
       id="path37"
       d="m 61,91 h 70 v 20 H 61 Z"
       style="fill:#dae8fc;fill-opacity:1;fill-rule:nonzero;stroke:#6c8ebf;stroke-width:1;stroke-linecap:butt;stroke-linejoin:miter;stroke-miterlimit:10;stroke-dasharray:none;stroke-opacity:1"
       transform="matrix(0.95614025,0,0,0.95614025,0.47807012,0.47807012)"
       clip-path="url(#clipPath38)" />
    <text
       id="text38"
       xml:space="preserve"
       transform="matrix(0.95614978,0,0,0.95614978,69.201341,100.39573)"
       clip-path="url(#clipPath39)"><tspan
         style="font-variant:normal;font-weight:normal;font-size:11px;font-family:Helvetica;writing-mode:lr-tb;fill:#000000;fill-opacity:1;fill-rule:nonzero;stroke:none"
         x="0 6.1176758 17.28418 23.401855 26.458008 31.958008 38.075684"
         y="0"
         sodipodi:role="line"
         id="tspan38">b@b.com</tspan></text>
    <path
       id="path40"
       d="m 1,111 h 60 v 20 H 1 Z"
       style="fill:#dae8fc;fill-opacity:1;fill-rule:nonzero;stroke:#6c8ebf;stroke-width:1;stroke-linecap:butt;stroke-linejoin:miter;stroke-miterlimit:10;stroke-dasharray:none;stroke-opacity:1"
       transform="matrix(0.95614025,0,0,0.95614025,0.47807012,0.47807012)"
       clip-path="url(#clipPath41)" />
    <text
       id="text41"
       xml:space="preserve"
       transform="matrix(0.95614978,0,0,0.95614978,7.1263039,119.51872)"
       clip-path="url(#clipPath42)"><tspan
         style="font-variant:normal;font-weight:normal;font-size:11px;font-family:Helvetica;writing-mode:lr-tb;fill:#000000;fill-opacity:1;fill-rule:nonzero;stroke:none"
         x="0 6.1176758 12.235352 17.735352 23.235352 31.179199 37.296875 40.959961"
         y="0"
         sodipodi:role="line"
         id="tspan41">password</tspan></text>
    <path
       id="path43"
       d="m 61,111 h 70 v 20 H 61 Z"
       style="fill:#dae8fc;fill-opacity:1;fill-rule:nonzero;stroke:#6c8ebf;stroke-width:1;stroke-linecap:butt;stroke-linejoin:miter;stroke-miterlimit:10;stroke-dasharray:none;stroke-opacity:1"
       transform="matrix(0.95614025,0,0,0.95614025,0.47807012,0.47807012)"
       clip-path="url(#clipPath44)" />
    <text
       id="text44"
       xml:space="preserve"
       transform="matrix(0.95614978,0,0,0.95614978,88.862171,119.51872)"
       clip-path="url(#clipPath45)"><tspan
         style="font-variant:normal;font-weight:normal;font-size:11px;font-family:Helvetica;writing-mode:lr-tb;fill:#000000;fill-opacity:1;fill-rule:nonzero;stroke:none"
         x="0"
         y="0"
         id="tspan44">a</tspan></text>
  </g>
</svg>
