<?xml version="1.0" encoding="UTF-8" standalone="no"?>
<!-- Created with Inkscape (http://www.inkscape.org/) -->

<svg
   version="1.1"
   id="svg1"
   width="252.16"
   height="206.71999"
   viewBox="0 0 252.16 206.71999"
   sodipodi:docname="nest-30.pdf"
   xmlns:inkscape="http://www.inkscape.org/namespaces/inkscape"
   xmlns:sodipodi="http://sodipodi.sourceforge.net/DTD/sodipodi-0.dtd"
   xmlns="http://www.w3.org/2000/svg"
   xmlns:svg="http://www.w3.org/2000/svg">
  <defs
     id="defs1">
    <clipPath
       clipPathUnits="userSpaceOnUse"
       id="clipPath2">
      <path
         d="M 0,0 H 787.49994 V 644.31812 H 0 Z"
         transform="scale(0.33523812)"
         clip-rule="evenodd"
         id="path2" />
    </clipPath>
    <clipPath
       clipPathUnits="userSpaceOnUse"
       id="clipPath4">
      <path
         d="M 0,0 H 787.49994 V 638.35223 H 0 Z"
         transform="matrix(0.33523812,0,0,0.33523812,-0.49999999,-0.49999999)"
         clip-rule="evenodd"
         id="path4" />
    </clipPath>
    <clipPath
       clipPathUnits="userSpaceOnUse"
       id="clipPath6">
      <path
         d="M 0,0 H 787.49994 V 638.35223 H 0 Z"
         transform="matrix(0.33523812,0,0,0.33523812,-0.49999999,-0.49999999)"
         clip-rule="evenodd"
         id="path6" />
    </clipPath>
    <clipPath
       clipPathUnits="userSpaceOnUse"
       id="clipPath8">
      <path
         d="M 0,0 H 787.49994 V 638.35223 H 0 Z"
         transform="matrix(0.33523812,0,0,0.33523812,-0.49999999,-0.49999999)"
         clip-rule="evenodd"
         id="path8" />
    </clipPath>
    <clipPath
       clipPathUnits="userSpaceOnUse"
       id="clipPath9">
      <path
         d="M 0,0 H 787.49994 V 638.35223 H 0 Z"
         transform="matrix(0.33523477,0,0,0.33523477,-2.28125,-28)"
         clip-rule="evenodd"
         id="path9" />
    </clipPath>
    <clipPath
       clipPathUnits="userSpaceOnUse"
       id="clipPath10">
      <path
         d="M 0,0 H 787.49994 V 638.35223 H 0 Z"
         transform="matrix(0.33523477,0,0,0.33523477,-21.953125,-43.000001)"
         clip-rule="evenodd"
         id="path10" />
    </clipPath>
    <clipPath
       clipPathUnits="userSpaceOnUse"
       id="clipPath12">
      <path
         d="M 0,0 H 787.49994 V 638.35223 H 0 Z"
         transform="matrix(0.33523812,0,0,0.33523812,-0.49999999,-0.49999999)"
         clip-rule="evenodd"
         id="path12" />
    </clipPath>
    <clipPath
       clipPathUnits="userSpaceOnUse"
       id="clipPath14">
      <path
         d="M 0,0 H 787.49994 V 638.35223 H 0 Z"
         transform="matrix(0.33523812,0,0,0.33523812,-0.49999999,-0.49999999)"
         clip-rule="evenodd"
         id="path14" />
    </clipPath>
    <clipPath
       clipPathUnits="userSpaceOnUse"
       id="clipPath16">
      <path
         d="M 0,0 H 787.49994 V 638.35223 H 0 Z"
         transform="matrix(0.33523812,0,0,0.33523812,-0.49999999,-0.49999999)"
         clip-rule="evenodd"
         id="path16" />
    </clipPath>
    <clipPath
       clipPathUnits="userSpaceOnUse"
       id="clipPath17">
      <path
         d="M 0,0 H 787.49994 V 638.35223 H 0 Z"
         transform="matrix(0.33523477,0,0,0.33523477,-21.875,-103)"
         clip-rule="evenodd"
         id="path17" />
    </clipPath>
    <clipPath
       clipPathUnits="userSpaceOnUse"
       id="clipPath18">
      <path
         d="M 0,0 H 787.49994 V 638.35223 H 0 Z"
         transform="matrix(0.33523477,0,0,0.33523477,-103.89062,-119)"
         clip-rule="evenodd"
         id="path18" />
    </clipPath>
    <clipPath
       clipPathUnits="userSpaceOnUse"
       id="clipPath20">
      <path
         d="M 0,0 H 787.49994 V 638.35223 H 0 Z"
         transform="matrix(0.33523812,0,0,0.33523812,-0.49999999,-0.49999999)"
         clip-rule="evenodd"
         id="path20" />
    </clipPath>
    <clipPath
       clipPathUnits="userSpaceOnUse"
       id="clipPath21">
      <path
         d="M 0,0 H 787.49994 V 638.35223 H 0 Z"
         transform="matrix(0.33523477,0,0,0.33523477,-8.5312501,-178)"
         clip-rule="evenodd"
         id="path21" />
    </clipPath>
    <clipPath
       clipPathUnits="userSpaceOnUse"
       id="clipPath22">
      <path
         d="M 0,0 H 787.49994 V 638.35223 H 0 Z"
         transform="matrix(0.33523477,0,0,0.33523477,-65.96875,-194.00001)"
         clip-rule="evenodd"
         id="path22" />
    </clipPath>
  </defs>
  <sodipodi:namedview
     id="namedview1"
     pagecolor="#ffffff"
     bordercolor="#000000"
     borderopacity="0.25"
     inkscape:showpageshadow="2"
     inkscape:pageopacity="0.0"
     inkscape:pagecheckerboard="0"
     inkscape:deskcolor="#d1d1d1">
    <inkscape:page
       x="0"
       y="0"
       inkscape:label="1"
       id="page1"
       width="252.16"
       height="206.71999"
       margin="0"
       bleed="0" />
  </sodipodi:namedview>
  <g
     id="g1"
     inkscape:groupmode="layer"
     inkscape:label="1">
    <path
       id="path1"
       d="M 0,0 H 264 V 216 H 0 Z"
       style="fill:#ffffff;fill-opacity:1;fill-rule:nonzero;stroke:none"
       transform="scale(0.95454534)"
       clip-path="url(#clipPath2)" />
    <path
       id="path3"
       d="M 131,61 V 81 56 69.629997"
       style="fill:none;stroke:#000000;stroke-width:1;stroke-linecap:butt;stroke-linejoin:miter;stroke-miterlimit:10;stroke-dasharray:none;stroke-opacity:1"
       transform="matrix(0.95454534,0,0,0.95454534,0.47727266,0.47727266)"
       clip-path="url(#clipPath4)" />
    <path
       id="path5"
       d="m 131,74.879997 -3.5,-7 3.5,1.75 3.5,-1.75 z"
       style="fill:#000000;fill-opacity:1;fill-rule:nonzero;stroke:#000000;stroke-width:1;stroke-linecap:butt;stroke-linejoin:miter;stroke-miterlimit:10;stroke-dasharray:none;stroke-opacity:1"
       transform="matrix(0.95454534,0,0,0.95454534,0.47727266,0.47727266)"
       clip-path="url(#clipPath6)" />
    <path
       id="path7"
       d="M 1,1 H 261 V 61 H 1 Z"
       style="fill:#ffffff;fill-opacity:1;fill-rule:nonzero;stroke:#000000;stroke-width:1;stroke-linecap:butt;stroke-linejoin:miter;stroke-miterlimit:10;stroke-dasharray:none;stroke-opacity:1"
       transform="matrix(0.95454534,0,0,0.95454534,0.47727266,0.47727266)"
       clip-path="url(#clipPath8)" />
    <text
       id="text8"
       xml:space="preserve"
       transform="matrix(0.95455487,0,0,0.95455487,2.1775783,26.727536)"
       clip-path="url(#clipPath9)"><tspan
         style="font-variant:normal;font-weight:normal;font-size:12px;font-family:Helvetica;writing-mode:lr-tb;fill:#000000;fill-opacity:1;fill-rule:nonzero;stroke:none"
         x="0 6 12.673828 18.673828 25.347656 28.681641 35.355469 38.689453 41.355469 48.029297 54.703125 60.703125 64.037109 70.710938 74.044922 77.378906 84.052734 90.726562 99.392578 102.72656 106.06055 112.73438 116.06836 122.74219 125.4082 132.08203 138.75586 142.08984 145.42383 152.09766 158.77148 162.10547 165.43945 167.73047 174.4043 181.07812 187.07812 193.07812 201.74414 208.41797 212.41406 219.08789 221.37891 224.71289 231.38672 238.06055 244.06055 250.73438"
         y="0"
         sodipodi:role="line"
         id="tspan8">Take a look at how to hide that 'password' based</tspan></text>
    <text
       id="text9"
       xml:space="preserve"
       transform="matrix(0.95455487,0,0,0.95455487,20.955462,41.04586)"
       clip-path="url(#clipPath10)"><tspan
         style="font-variant:normal;font-weight:normal;font-size:12px;font-family:Helvetica;writing-mode:lr-tb;fill:#000000;fill-opacity:1;fill-rule:nonzero;stroke:none"
         x="0 6.6738281 13.347656 16.681641 20.677734 27.351562 33.351562 40.025391 50.021484 60.017578 66.691406 73.365234 80.039062 86.712891 90.046875 92.712891 99.386719 106.06055 112.06055 115.39453 118.72852 122.72461 129.39844 139.39453 142.72852 146.0625 152.73633 159.41016 162.74414 171.41016 178.08398 184.08398 187.41797 190.75195 199.41797 206.0918 212.0918"
         y="0"
         sodipodi:role="line"
         id="tspan9">on recommendations from the Nest Docs</tspan></text>
    <path
       id="path11"
       d="m 131,136 v 8.63"
       style="fill:none;stroke:#000000;stroke-width:1;stroke-linecap:butt;stroke-linejoin:miter;stroke-miterlimit:10;stroke-dasharray:none;stroke-opacity:1"
       transform="matrix(0.95454534,0,0,0.95454534,0.47727266,0.47727266)"
       clip-path="url(#clipPath12)" />
    <path
       id="path13"
       d="m 131,149.88 -3.5,-7 3.5,1.75 3.5,-1.75 z"
       style="fill:#000000;fill-opacity:1;fill-rule:nonzero;stroke:#000000;stroke-width:1;stroke-linecap:butt;stroke-linejoin:miter;stroke-miterlimit:10;stroke-dasharray:none;stroke-opacity:1"
       transform="matrix(0.95454534,0,0,0.95454534,0.47727266,0.47727266)"
       clip-path="url(#clipPath14)" />
    <path
       id="path15"
       d="m 1,76 h 260 v 60 H 1 Z"
       style="fill:#ffffff;fill-opacity:1;fill-rule:nonzero;stroke:#000000;stroke-width:1;stroke-linecap:butt;stroke-linejoin:miter;stroke-miterlimit:10;stroke-dasharray:none;stroke-opacity:1"
       transform="matrix(0.95454534,0,0,0.95454534,0.47727266,0.47727266)"
       clip-path="url(#clipPath16)" />
    <text
       id="text16"
       xml:space="preserve"
       transform="matrix(0.95455487,0,0,0.95455487,20.880888,98.319152)"
       clip-path="url(#clipPath17)"><tspan
         style="font-variant:normal;font-weight:normal;font-size:13px;font-family:Helvetica;writing-mode:lr-tb;fill:#000000;fill-opacity:1;fill-rule:nonzero;stroke:none"
         x="0 9.3881836 16.618164 23.848145 31.078125 35.407227 41.907227 45.519043 52.749023 59.979004 67.208984 70.820801 77.320801 84.550781 95.379883 102.60986 106.22168 113.45166 120.68164 130.06982 137.2998 143.7998 146.68799 153.91797 161.14795 167.64795 171.25977 180.64795 183.53613 187.14795 194.37793 197.98975 201.60156 208.83154 211.71973"
         y="0"
         sodipodi:role="line"
         id="tspan16">Understand some downsides with this</tspan></text>
    <text
       id="text17"
       xml:space="preserve"
       transform="matrix(0.95455487,0,0,0.95455487,99.169302,113.59203)"
       clip-path="url(#clipPath18)"><tspan
         style="font-variant:normal;font-weight:normal;font-size:13px;font-family:Helvetica;writing-mode:lr-tb;fill:#000000;fill-opacity:1;fill-rule:nonzero;stroke:none"
         x="0 7.2299805 14.459961 21.689941 26.019043 33.249023 40.479004 46.979004"
         y="0"
         sodipodi:role="line"
         id="tspan17">approach</tspan></text>
    <path
       id="path19"
       d="m 1,151 h 260 v 60 H 1 Z"
       style="fill:#ffffff;fill-opacity:1;fill-rule:nonzero;stroke:#000000;stroke-width:1;stroke-linecap:butt;stroke-linejoin:miter;stroke-miterlimit:10;stroke-dasharray:none;stroke-opacity:1"
       transform="matrix(0.95454534,0,0,0.95454534,0.47727266,0.47727266)"
       clip-path="url(#clipPath20)" />
    <text
       id="text20"
       xml:space="preserve"
       transform="matrix(0.95455487,0,0,0.95455487,8.1435463,169.91077)"
       clip-path="url(#clipPath21)"><tspan
         style="font-variant:normal;font-weight:normal;font-size:13px;font-family:Helvetica;writing-mode:lr-tb;fill:#000000;fill-opacity:1;fill-rule:nonzero;stroke:none"
         x="0 9.3881836 15.888184 23.118164 26.72998 33.959961 37.571777 44.071777 46.959961 49.848145 57.078125 64.308105 67.919922 70.808105 77.308105 80.919922 91.749023 98.979004 103.30811 110.53809 114.1499 120.6499 127.87988 138.70898 145.93896 148.82715 151.71533 158.21533 165.44531 169.05713 176.28711 183.51709 187.12891 191.45801 198.68799 205.91797 209.52979 213.1416 223.9707 231.20068 237.70068"
         y="0"
         sodipodi:role="line"
         id="tspan20">Use a slightly more complicated (but much</tspan></text>
    <g
       id="g21" />
    <text
       id="text21"
       xml:space="preserve"
       transform="matrix(0.95455487,0,0,0.95455487,62.970792,185.18365)"
       clip-path="url(#clipPath22)"><tspan
         style="font-variant:normal;font-weight:normal;font-size:13px;font-family:Helvetica;writing-mode:lr-tb;fill:#000000;fill-opacity:1;fill-rule:nonzero;stroke:none"
         x="0 10.829102 18.059082 22.388184 29.618164 33.22998 39.72998 46.959961 53.459961 56.348145 63.578125 66.466309 73.696289 77.308105 81.637207 85.249023 91.749023 98.979004 101.86719 109.09717 112.70898 115.59717 122.82715"
         y="0"
         sodipodi:role="line"
         id="tspan21">more ﬂexible!) solution</tspan></text>
  </g>
</svg>
