<?xml version="1.0" encoding="UTF-8" standalone="no"?>
<!-- Created with Inkscape (http://www.inkscape.org/) -->

<svg
   version="1.1"
   id="svg1"
   width="473.28"
   height="349.44"
   viewBox="0 0 473.28 349.44"
   sodipodi:docname="nest-26.pdf"
   xmlns:inkscape="http://www.inkscape.org/namespaces/inkscape"
   xmlns:sodipodi="http://sodipodi.sourceforge.net/DTD/sodipodi-0.dtd"
   xmlns="http://www.w3.org/2000/svg"
   xmlns:svg="http://www.w3.org/2000/svg">
  <defs
     id="defs1">
    <clipPath
       clipPathUnits="userSpaceOnUse"
       id="clipPath2">
      <path
         d="M 0,0 H 1479.1666 V 1089.1227 H 0 Z"
         transform="scale(0.33329577)"
         clip-rule="evenodd"
         id="path2" />
    </clipPath>
    <clipPath
       clipPathUnits="userSpaceOnUse"
       id="clipPath4">
      <path
         d="M 0,0 H 1479.1666 V 1089.1227 H 0 Z"
         transform="matrix(0.33329577,0,0,0.33329577,-0.49999999,-0.49999999)"
         clip-rule="evenodd"
         id="path4" />
    </clipPath>
    <clipPath
       clipPathUnits="userSpaceOnUse"
       id="clipPath6">
      <path
         d="M 0,0 H 1479.1666 V 1089.1227 H 0 Z"
         transform="matrix(0.33329577,0,0,0.33329577,-0.49999999,-0.49999999)"
         clip-rule="evenodd"
         id="path6" />
    </clipPath>
    <clipPath
       clipPathUnits="userSpaceOnUse"
       id="clipPath8">
      <path
         d="M 0,0 H 1479.1666 V 1089.1227 H 0 Z"
         transform="matrix(0.33329577,0,0,0.33329577,-0.49999999,-0.49999999)"
         clip-rule="evenodd"
         id="path8" />
    </clipPath>
    <clipPath
       clipPathUnits="userSpaceOnUse"
       id="clipPath9">
      <path
         d="M 0,0 H 1479.1666 V 1089.1227 H 0 Z"
         transform="matrix(0.33329244,0,0,0.33329244,-166.75001,-106)"
         clip-rule="evenodd"
         id="path9" />
    </clipPath>
    <clipPath
       clipPathUnits="userSpaceOnUse"
       id="clipPath11">
      <path
         d="M 0,0 H 1479.1666 V 1089.1227 H 0 Z"
         transform="matrix(0.33329577,0,0,0.33329577,-0.49999999,-0.49999999)"
         clip-rule="evenodd"
         id="path11" />
    </clipPath>
    <clipPath
       clipPathUnits="userSpaceOnUse"
       id="clipPath12">
      <path
         d="M 0,0 H 1479.1666 V 1089.1227 H 0 Z"
         transform="matrix(0.33329244,0,0,0.33329244,-183.375,-16)"
         clip-rule="evenodd"
         id="path12" />
    </clipPath>
    <clipPath
       clipPathUnits="userSpaceOnUse"
       id="clipPath14">
      <path
         d="M 0,0 H 1479.1666 V 1089.1227 H 0 Z"
         transform="matrix(0.33329577,0,0,0.33329577,-0.49999999,-0.49999999)"
         clip-rule="evenodd"
         id="path14" />
    </clipPath>
    <clipPath
       clipPathUnits="userSpaceOnUse"
       id="clipPath16">
      <path
         d="M 0,0 H 1479.1666 V 1089.1227 H 0 Z"
         transform="matrix(0.33329577,0,0,0.33329577,-0.49999999,-0.49999999)"
         clip-rule="evenodd"
         id="path16" />
    </clipPath>
    <clipPath
       clipPathUnits="userSpaceOnUse"
       id="clipPath18">
      <path
         d="M 0,0 H 1479.1666 V 1089.1227 H 0 Z"
         transform="matrix(0.33329577,0,0,0.33329577,-0.49999999,-0.49999999)"
         clip-rule="evenodd"
         id="path18" />
    </clipPath>
    <clipPath
       clipPathUnits="userSpaceOnUse"
       id="clipPath19">
      <path
         d="M 0,0 H 1479.1666 V 1089.1227 H 0 Z"
         transform="matrix(0.33329244,0,0,0.33329244,-192.03125,-45)"
         clip-rule="evenodd"
         id="path19" />
    </clipPath>
    <clipPath
       clipPathUnits="userSpaceOnUse"
       id="clipPath21">
      <path
         d="M 0,0 H 1479.1666 V 1089.1227 H 0 Z"
         transform="matrix(0.33329577,0,0,0.33329577,-0.49999999,-0.49999999)"
         clip-rule="evenodd"
         id="path21" />
    </clipPath>
    <clipPath
       clipPathUnits="userSpaceOnUse"
       id="clipPath23">
      <path
         d="M 0,0 H 1479.1666 V 1089.1227 H 0 Z"
         transform="matrix(0.33329577,0,0,0.33329577,-0.49999999,-0.49999999)"
         clip-rule="evenodd"
         id="path23" />
    </clipPath>
    <clipPath
       clipPathUnits="userSpaceOnUse"
       id="clipPath25">
      <path
         d="M 0,0 H 1479.1666 V 1089.1227 H 0 Z"
         transform="matrix(0.33329577,0,0,0.33329577,-0.49999999,-0.49999999)"
         clip-rule="evenodd"
         id="path25" />
    </clipPath>
    <clipPath
       clipPathUnits="userSpaceOnUse"
       id="clipPath26">
      <path
         d="M 0,0 H 1479.1666 V 1089.1227 H 0 Z"
         transform="matrix(0.33329244,0,0,0.33329244,-329.78125,-106)"
         clip-rule="evenodd"
         id="path26" />
    </clipPath>
    <clipPath
       clipPathUnits="userSpaceOnUse"
       id="clipPath28">
      <path
         d="M 0,0 H 1479.1666 V 1089.1227 H 0 Z"
         transform="matrix(0.33329577,0,0,0.33329577,-0.49999999,-0.49999999)"
         clip-rule="evenodd"
         id="path28" />
    </clipPath>
    <clipPath
       clipPathUnits="userSpaceOnUse"
       id="clipPath29">
      <path
         d="M 0,0 H 1479.1666 V 1089.1227 H 0 Z"
         transform="matrix(0.33329244,0,0,0.33329244,-361.25,-145)"
         clip-rule="evenodd"
         id="path29" />
    </clipPath>
    <clipPath
       clipPathUnits="userSpaceOnUse"
       id="clipPath31">
      <path
         d="M 0,0 H 1479.1666 V 1089.1227 H 0 Z"
         transform="matrix(0.33329577,0,0,0.33329577,-0.49999999,-0.49999999)"
         clip-rule="evenodd"
         id="path31" />
    </clipPath>
    <clipPath
       clipPathUnits="userSpaceOnUse"
       id="clipPath33">
      <path
         d="M 0,0 H 1479.1666 V 1089.1227 H 0 Z"
         transform="matrix(0.33329577,0,0,0.33329577,-0.49999999,-0.49999999)"
         clip-rule="evenodd"
         id="path33" />
    </clipPath>
    <clipPath
       clipPathUnits="userSpaceOnUse"
       id="clipPath35">
      <path
         d="M 0,0 H 1479.1666 V 1089.1227 H 0 Z"
         transform="matrix(0.33329577,0,0,0.33329577,-0.49999999,-0.49999999)"
         clip-rule="evenodd"
         id="path35" />
    </clipPath>
    <clipPath
       clipPathUnits="userSpaceOnUse"
       id="clipPath36">
      <path
         d="M 0,0 H 1479.1666 V 1089.1227 H 0 Z"
         transform="matrix(0.33329244,0,0,0.33329244,-141.34375,-166)"
         clip-rule="evenodd"
         id="path36" />
    </clipPath>
    <clipPath
       clipPathUnits="userSpaceOnUse"
       id="clipPath38">
      <path
         d="M 0,0 H 1479.1666 V 1089.1227 H 0 Z"
         transform="matrix(0.33329577,0,0,0.33329577,-0.49999999,-0.49999999)"
         clip-rule="evenodd"
         id="path38" />
    </clipPath>
    <clipPath
       clipPathUnits="userSpaceOnUse"
       id="clipPath40">
      <path
         d="M 0,0 H 1479.1666 V 1089.1227 H 0 Z"
         transform="matrix(0.33329577,0,0,0.33329577,-0.49999999,-0.49999999)"
         clip-rule="evenodd"
         id="path40" />
    </clipPath>
    <clipPath
       clipPathUnits="userSpaceOnUse"
       id="clipPath42">
      <path
         d="M 0,0 H 1479.1666 V 1089.1227 H 0 Z"
         transform="matrix(0.33329577,0,0,0.33329577,-0.49999999,-0.49999999)"
         clip-rule="evenodd"
         id="path42" />
    </clipPath>
    <clipPath
       clipPathUnits="userSpaceOnUse"
       id="clipPath43">
      <path
         d="M 0,0 H 1479.1666 V 1089.1227 H 0 Z"
         transform="matrix(0.33329244,0,0,0.33329244,-144.84375,-226)"
         clip-rule="evenodd"
         id="path43" />
    </clipPath>
    <clipPath
       clipPathUnits="userSpaceOnUse"
       id="clipPath45">
      <path
         d="M 0,0 H 1479.1666 V 1089.1227 H 0 Z"
         transform="matrix(0.33329577,0,0,0.33329577,-0.49999999,-0.49999999)"
         clip-rule="evenodd"
         id="path45" />
    </clipPath>
    <clipPath
       clipPathUnits="userSpaceOnUse"
       id="clipPath47">
      <path
         d="M 0,0 H 1479.1666 V 1089.1227 H 0 Z"
         transform="matrix(0.33329577,0,0,0.33329577,-0.49999999,-0.49999999)"
         clip-rule="evenodd"
         id="path47" />
    </clipPath>
    <clipPath
       clipPathUnits="userSpaceOnUse"
       id="clipPath49">
      <path
         d="M 0,0 H 1479.1666 V 1089.1227 H 0 Z"
         transform="matrix(0.33329577,0,0,0.33329577,-0.49999999,-0.49999999)"
         clip-rule="evenodd"
         id="path49" />
    </clipPath>
    <clipPath
       clipPathUnits="userSpaceOnUse"
       id="clipPath50">
      <path
         d="M 0,0 H 1479.1666 V 1089.1227 H 0 Z"
         transform="matrix(0.33329244,0,0,0.33329244,-134.73438,-286)"
         clip-rule="evenodd"
         id="path50" />
    </clipPath>
    <clipPath
       clipPathUnits="userSpaceOnUse"
       id="clipPath52">
      <path
         d="M 0,0 H 1479.1666 V 1089.1227 H 0 Z"
         transform="matrix(0.33329577,0,0,0.33329577,-0.49999999,-0.49999999)"
         clip-rule="evenodd"
         id="path52" />
    </clipPath>
    <clipPath
       clipPathUnits="userSpaceOnUse"
       id="clipPath53">
      <path
         d="M 0,0 H 1479.1666 V 1089.1227 H 0 Z"
         transform="matrix(0.33329244,0,0,0.33329244,-177.92189,-346)"
         clip-rule="evenodd"
         id="path53" />
    </clipPath>
    <clipPath
       clipPathUnits="userSpaceOnUse"
       id="clipPath54">
      <path
         d="M 0,0 H 1479.1666 V 1089.1227 H 0 Z"
         transform="matrix(0.33329244,0,0,0.33329244,-17.46875,-152)"
         clip-rule="evenodd"
         id="path54" />
    </clipPath>
    <clipPath
       clipPathUnits="userSpaceOnUse"
       id="clipPath55">
      <path
         d="M 0,0 H 1479.1666 V 1089.1227 H 0 Z"
         transform="matrix(0.33329244,0,0,0.33329244,-25.71875,-165)"
         clip-rule="evenodd"
         id="path55" />
    </clipPath>
    <clipPath
       clipPathUnits="userSpaceOnUse"
       id="clipPath56">
      <path
         d="M 0,0 H 1479.1666 V 1089.1227 H 0 Z"
         transform="matrix(0.33329244,0,0,0.33329244,-42.21875,-178)"
         clip-rule="evenodd"
         id="path56" />
    </clipPath>
    <clipPath
       clipPathUnits="userSpaceOnUse"
       id="clipPath57">
      <path
         d="M 0,0 H 1479.1666 V 1089.1227 H 0 Z"
         transform="matrix(0.33329244,0,0,0.33329244,-20.8125,-218)"
         clip-rule="evenodd"
         id="path57" />
    </clipPath>
    <clipPath
       clipPathUnits="userSpaceOnUse"
       id="clipPath58">
      <path
         d="M 0,0 H 1479.1666 V 1089.1227 H 0 Z"
         transform="matrix(0.33329244,0,0,0.33329244,-103.375,-232)"
         clip-rule="evenodd"
         id="path58" />
    </clipPath>
    <clipPath
       clipPathUnits="userSpaceOnUse"
       id="clipPath59">
      <path
         d="M 0,0 H 1479.1666 V 1089.1227 H 0 Z"
         transform="matrix(0.33329244,0,0,0.33329244,-12.6875,-278.00001)"
         clip-rule="evenodd"
         id="path59" />
    </clipPath>
    <clipPath
       clipPathUnits="userSpaceOnUse"
       id="clipPath60">
      <path
         d="M 0,0 H 1479.1666 V 1089.1227 H 0 Z"
         transform="matrix(0.33329244,0,0,0.33329244,-33.28125,-292)"
         clip-rule="evenodd"
         id="path60" />
    </clipPath>
    <clipPath
       clipPathUnits="userSpaceOnUse"
       id="clipPath62">
      <path
         d="M 0,0 H 1479.1666 V 1089.1227 H 0 Z"
         transform="matrix(0.33329577,0,0,0.33329577,-0.49999999,-0.49999999)"
         clip-rule="evenodd"
         id="path62" />
    </clipPath>
    <clipPath
       clipPathUnits="userSpaceOnUse"
       id="clipPath64">
      <path
         d="M 0,0 H 1479.1666 V 1089.1227 H 0 Z"
         transform="matrix(0.33329577,0,0,0.33329577,-0.49999999,-0.49999999)"
         clip-rule="evenodd"
         id="path64" />
    </clipPath>
    <clipPath
       clipPathUnits="userSpaceOnUse"
       id="clipPath66">
      <path
         d="M 0,0 H 1479.1666 V 1089.1227 H 0 Z"
         transform="matrix(0.33329577,0,0,0.33329577,-0.49999999,-0.49999999)"
         clip-rule="evenodd"
         id="path66" />
    </clipPath>
    <clipPath
       clipPathUnits="userSpaceOnUse"
       id="clipPath68">
      <path
         d="M 0,0 H 1479.1666 V 1089.1227 H 0 Z"
         transform="matrix(0.33329577,0,0,0.33329577,-0.49999999,-0.49999999)"
         clip-rule="evenodd"
         id="path68" />
    </clipPath>
    <clipPath
       clipPathUnits="userSpaceOnUse"
       id="clipPath70">
      <path
         d="M 0,0 H 1479.1666 V 1089.1227 H 0 Z"
         transform="matrix(0.33329577,0,0,0.33329577,-0.49999999,-0.49999999)"
         clip-rule="evenodd"
         id="path70" />
    </clipPath>
    <clipPath
       clipPathUnits="userSpaceOnUse"
       id="clipPath71">
      <path
         d="M 0,0 H 1479.1666 V 1089.1227 H 0 Z"
         transform="matrix(0.33329244,0,0,0.33329244,-352.23438,-256)"
         clip-rule="evenodd"
         id="path71" />
    </clipPath>
  </defs>
  <sodipodi:namedview
     id="namedview1"
     pagecolor="#ffffff"
     bordercolor="#000000"
     borderopacity="0.25"
     inkscape:showpageshadow="2"
     inkscape:pageopacity="0.0"
     inkscape:pagecheckerboard="0"
     inkscape:deskcolor="#d1d1d1">
    <inkscape:page
       x="0"
       y="0"
       inkscape:label="1"
       id="page1"
       width="473.28"
       height="349.44"
       margin="0"
       bleed="0" />
  </sodipodi:namedview>
  <g
     id="g1"
     inkscape:groupmode="layer"
     inkscape:label="1">
    <path
       id="path1"
       d="M 0,0 H 493 V 364 H 0 Z"
       style="fill:#ffffff;fill-opacity:1;fill-rule:nonzero;stroke:none"
       transform="scale(0.96010815)"
       clip-path="url(#clipPath2)" />
    <path
       id="path3"
       d="m 211,121 v 13.63"
       style="fill:none;stroke:#000000;stroke-width:1;stroke-linecap:butt;stroke-linejoin:miter;stroke-miterlimit:10;stroke-dasharray:none;stroke-opacity:1"
       transform="matrix(0.96010815,0,0,0.96010815,0.48005407,0.48005407)"
       clip-path="url(#clipPath4)" />
    <path
       id="path5"
       d="m 211,139.88 -3.5,-7 3.5,1.75 3.5,-1.75 z"
       style="fill:#000000;fill-opacity:1;fill-rule:nonzero;stroke:#000000;stroke-width:1;stroke-linecap:butt;stroke-linejoin:miter;stroke-miterlimit:10;stroke-dasharray:none;stroke-opacity:1"
       transform="matrix(0.96010815,0,0,0.96010815,0.48005407,0.48005407)"
       clip-path="url(#clipPath6)" />
    <path
       id="path7"
       d="m 131,81 h 160 v 40 H 131 Z"
       style="fill:#dae8fc;fill-opacity:1;fill-rule:nonzero;stroke:#6c8ebf;stroke-width:1;stroke-linecap:butt;stroke-linejoin:miter;stroke-miterlimit:10;stroke-dasharray:none;stroke-opacity:1"
       transform="matrix(0.96010815,0,0,0.96010815,0.48005407,0.48005407)"
       clip-path="url(#clipPath8)" />
    <text
       id="text8"
       xml:space="preserve"
       transform="matrix(0.96011775,0,0,0.96011775,160.09964,101.77248)"
       clip-path="url(#clipPath9)"><tspan
         style="font-variant:normal;font-weight:normal;font-size:14px;font-family:Helvetica;writing-mode:lr-tb;fill:#000000;fill-opacity:1;fill-rule:nonzero;stroke:none"
         x="0 8.3056641 16.091797 19.202148 22.3125 30.098633 37.884766 41.774414 44.884766 52.670898 60.457031 69.794922 72.905273 80.691406"
         y="0"
         sodipodi:role="line"
         id="tspan8">ValidationPipe</tspan></text>
    <path
       id="path10"
       d="M 131,1 H 291 V 21 H 131 Z"
       style="fill:#f5f5f5;fill-opacity:1;fill-rule:nonzero;stroke:#666666;stroke-width:1;stroke-linecap:butt;stroke-linejoin:miter;stroke-miterlimit:10;stroke-dasharray:none;stroke-opacity:1"
       transform="matrix(0.96010815,0,0,0.96010815,0.48005407,0.48005407)"
       clip-path="url(#clipPath11)" />
    <text
       id="text11"
       xml:space="preserve"
       transform="matrix(0.96011775,0,0,0.96011775,176.06159,15.361884)"
       clip-path="url(#clipPath12)"><tspan
         style="font-variant:normal;font-weight:700;font-size:14px;font-family:Helvetica;writing-mode:lr-tb;fill:#333333;fill-opacity:1;fill-rule:nonzero;stroke:none"
         x="0 10.110352 17.896484 26.448242 35 42.786133 50.572266"
         y="0"
         sodipodi:role="line"
         id="tspan11">Request</tspan></text>
    <path
       id="path13"
       d="M 211,61 V 81 61 74.629997"
       style="fill:none;stroke:#000000;stroke-width:1;stroke-linecap:butt;stroke-linejoin:miter;stroke-miterlimit:10;stroke-dasharray:none;stroke-opacity:1"
       transform="matrix(0.96010815,0,0,0.96010815,0.48005407,0.48005407)"
       clip-path="url(#clipPath14)" />
    <path
       id="path15"
       d="m 211,79.879997 -3.5,-7 3.5,1.75 3.5,-1.75 z"
       style="fill:#000000;fill-opacity:1;fill-rule:nonzero;stroke:#000000;stroke-width:1;stroke-linecap:butt;stroke-linejoin:miter;stroke-miterlimit:10;stroke-dasharray:none;stroke-opacity:1"
       transform="matrix(0.96010815,0,0,0.96010815,0.48005407,0.48005407)"
       clip-path="url(#clipPath16)" />
    <path
       id="path17"
       d="M 131,21 H 291 V 61 H 131 Z"
       style="fill:#f5f5f5;fill-opacity:1;fill-rule:nonzero;stroke:#666666;stroke-width:1;stroke-linecap:butt;stroke-linejoin:miter;stroke-miterlimit:10;stroke-dasharray:none;stroke-opacity:1"
       transform="matrix(0.96010815,0,0,0.96010815,0.48005407,0.48005407)"
       clip-path="url(#clipPath18)" />
    <text
       id="text18"
       xml:space="preserve"
       transform="matrix(0.96011775,0,0,0.96011775,184.37261,43.205299)"
       clip-path="url(#clipPath19)"><tspan
         style="font-variant:normal;font-weight:normal;font-size:11px;font-family:Helvetica;writing-mode:lr-tb;fill:#333333;fill-opacity:1;fill-rule:nonzero;stroke:none"
         x="0 3.6738281 6.7299805 12.847656 18.965332 22.021484 28.13916 31.195312 34.251465"
         y="0"
         sodipodi:role="line"
         id="tspan18">{ date: }</tspan></text>
    <path
       id="path20"
       d="M 321,101 H 297.37"
       style="fill:none;stroke:#000000;stroke-width:1;stroke-linecap:butt;stroke-linejoin:miter;stroke-miterlimit:10;stroke-dasharray:none;stroke-opacity:1"
       transform="matrix(0.96010815,0,0,0.96010815,0.48005407,0.48005407)"
       clip-path="url(#clipPath21)" />
    <path
       id="path22"
       d="m 292.12,101 7,-3.5 -1.75,3.5 1.75,3.5 z"
       style="fill:#000000;fill-opacity:1;fill-rule:nonzero;stroke:#000000;stroke-width:1;stroke-linecap:butt;stroke-linejoin:miter;stroke-miterlimit:10;stroke-dasharray:none;stroke-opacity:1"
       transform="matrix(0.96010815,0,0,0.96010815,0.48005407,0.48005407)"
       clip-path="url(#clipPath23)" />
    <path
       id="path24"
       d="m 321,81 h 160 v 40 H 321 Z"
       style="fill:#dae8fc;fill-opacity:1;fill-rule:nonzero;stroke:#6c8ebf;stroke-width:1;stroke-linecap:butt;stroke-linejoin:miter;stroke-miterlimit:10;stroke-dasharray:none;stroke-opacity:1"
       transform="matrix(0.96010815,0,0,0.96010815,0.48005407,0.48005407)"
       clip-path="url(#clipPath25)" />
    <text
       id="text25"
       xml:space="preserve"
       transform="matrix(0.96011775,0,0,0.96011775,316.62883,101.77248)"
       clip-path="url(#clipPath26)"><tspan
         style="font-variant:normal;font-weight:normal;font-size:14px;font-family:Helvetica;writing-mode:lr-tb;fill:#000000;fill-opacity:1;fill-rule:nonzero;stroke:none"
         x="0 10.110352 14.772461 22.558594 30.344727 34.234375 42.020508 51.358398 59.144531 66.930664 74.716797 77.827148 85.613281 89.50293 101.16504 108.95117 116.7373 120.62695 130.7373 134.62695"
         y="0"
         sodipodi:role="line"
         id="tspan25">CreateAppointmentDto</tspan></text>
    <path
       id="path27"
       d="m 321,121 h 160 v 40 H 321 Z"
       style="fill:#f5f5f5;fill-opacity:1;fill-rule:nonzero;stroke:#666666;stroke-width:1;stroke-linecap:butt;stroke-linejoin:miter;stroke-miterlimit:10;stroke-dasharray:none;stroke-opacity:1"
       transform="matrix(0.96010815,0,0,0.96010815,0.48005407,0.48005407)"
       clip-path="url(#clipPath28)" />
    <text
       id="text28"
       xml:space="preserve"
       transform="matrix(0.96011775,0,0,0.96011775,346.84254,139.21707)"
       clip-path="url(#clipPath29)"><tspan
         style="font-variant:normal;font-weight:normal;font-size:11px;font-family:Helvetica;writing-mode:lr-tb;fill:#333333;fill-opacity:1;fill-rule:nonzero;stroke:none"
         x="0 6.1176758 12.235352 15.291504 21.40918 24.465332 27.521484 35.465332 41.583008 44.63916 50.756836 58.09375 61.149902 64.812988 67.256836 73.374512"
         y="0"
         sodipodi:role="line"
         id="tspan28">date: DateString</tspan></text>
    <path
       id="path30"
       d="m 211,181 v 20 -20 13.63"
       style="fill:none;stroke:#000000;stroke-width:1;stroke-linecap:butt;stroke-linejoin:miter;stroke-miterlimit:10;stroke-dasharray:none;stroke-opacity:1"
       transform="matrix(0.96010815,0,0,0.96010815,0.48005407,0.48005407)"
       clip-path="url(#clipPath31)" />
    <path
       id="path32"
       d="m 211,199.88 -3.5,-7 3.5,1.75 3.5,-1.75 z"
       style="fill:#000000;fill-opacity:1;fill-rule:nonzero;stroke:#000000;stroke-width:1;stroke-linecap:butt;stroke-linejoin:miter;stroke-miterlimit:10;stroke-dasharray:none;stroke-opacity:1"
       transform="matrix(0.96010815,0,0,0.96010815,0.48005407,0.48005407)"
       clip-path="url(#clipPath33)" />
    <path
       id="path34"
       d="m 131,141 h 160 v 40 H 131 Z"
       style="fill:#dae8fc;fill-opacity:1;fill-rule:nonzero;stroke:#6c8ebf;stroke-width:1;stroke-linecap:butt;stroke-linejoin:miter;stroke-miterlimit:10;stroke-dasharray:none;stroke-opacity:1"
       transform="matrix(0.96010815,0,0,0.96010815,0.48005407,0.48005407)"
       clip-path="url(#clipPath35)" />
    <text
       id="text35"
       xml:space="preserve"
       transform="matrix(0.96011775,0,0,0.96011775,135.70664,159.37955)"
       clip-path="url(#clipPath36)"><tspan
         style="font-variant:normal;font-weight:normal;font-size:14px;font-family:Helvetica;writing-mode:lr-tb;fill:#000000;fill-opacity:1;fill-rule:nonzero;stroke:none"
         x="0 9.3378906 17.124023 24.910156 32.696289 35.806641 43.592773 47.482422 59.144531 66.930664 74.716797 78.606445 88.716797 96.50293 104.28906 108.17871 112.84082 120.62695 123.7373 126.84766 134.63379"
         y="0"
         sodipodi:role="line"
         id="tspan35">AppointmentController</tspan></text>
    <path
       id="path37"
       d="m 211,241 v 20 -20 13.63"
       style="fill:none;stroke:#000000;stroke-width:1;stroke-linecap:butt;stroke-linejoin:miter;stroke-miterlimit:10;stroke-dasharray:none;stroke-opacity:1"
       transform="matrix(0.96010815,0,0,0.96010815,0.48005407,0.48005407)"
       clip-path="url(#clipPath38)" />
    <path
       id="path39"
       d="m 211,259.88 -3.5,-7 3.5,1.75 3.5,-1.75 z"
       style="fill:#000000;fill-opacity:1;fill-rule:nonzero;stroke:#000000;stroke-width:1;stroke-linecap:butt;stroke-linejoin:miter;stroke-miterlimit:10;stroke-dasharray:none;stroke-opacity:1"
       transform="matrix(0.96010815,0,0,0.96010815,0.48005407,0.48005407)"
       clip-path="url(#clipPath40)" />
    <path
       id="path41"
       d="m 131,201 h 160 v 40 H 131 Z"
       style="fill:#dae8fc;fill-opacity:1;fill-rule:nonzero;stroke:#6c8ebf;stroke-width:1;stroke-linecap:butt;stroke-linejoin:miter;stroke-miterlimit:10;stroke-dasharray:none;stroke-opacity:1"
       transform="matrix(0.96010815,0,0,0.96010815,0.48005407,0.48005407)"
       clip-path="url(#clipPath42)" />
    <text
       id="text42"
       xml:space="preserve"
       transform="matrix(0.96011775,0,0,0.96011775,139.06706,216.98661)"
       clip-path="url(#clipPath43)"><tspan
         style="font-variant:normal;font-weight:normal;font-size:14px;font-family:Helvetica;writing-mode:lr-tb;fill:#000000;fill-opacity:1;fill-rule:nonzero;stroke:none"
         x="0 9.3378906 17.124023 24.910156 32.696289 35.806641 43.592773 47.482422 59.144531 66.930664 74.716797 78.606445 85.606445 94.944336 102.73047 107.39258 114.39258 117.50293 124.50293"
         y="0"
         sodipodi:role="line"
         id="tspan42">AppointmentsService</tspan></text>
    <path
       id="path44"
       d="m 211,301 v 13.64001"
       style="fill:none;stroke:#000000;stroke-width:1;stroke-linecap:butt;stroke-linejoin:miter;stroke-miterlimit:10;stroke-dasharray:none;stroke-opacity:1"
       transform="matrix(0.96010815,0,0,0.96010815,0.48005407,0.48005407)"
       clip-path="url(#clipPath45)" />
    <path
       id="path46"
       d="m 211,319.89001 -3.5,-7 3.5,1.75 3.5,-1.75 z"
       style="fill:#000000;fill-opacity:1;fill-rule:nonzero;stroke:#000000;stroke-width:1;stroke-linecap:butt;stroke-linejoin:miter;stroke-miterlimit:10;stroke-dasharray:none;stroke-opacity:1"
       transform="matrix(0.96010815,0,0,0.96010815,0.48005407,0.48005407)"
       clip-path="url(#clipPath47)" />
    <path
       id="path48"
       d="m 131,261 h 160 v 40 H 131 Z"
       style="fill:#dae8fc;fill-opacity:1;fill-rule:nonzero;stroke:#6c8ebf;stroke-width:1;stroke-linecap:butt;stroke-linejoin:miter;stroke-miterlimit:10;stroke-dasharray:none;stroke-opacity:1"
       transform="matrix(0.96010815,0,0,0.96010815,0.48005407,0.48005407)"
       clip-path="url(#clipPath49)" />
    <text
       id="text49"
       xml:space="preserve"
       transform="matrix(0.96011775,0,0,0.96011775,129.36087,274.59368)"
       clip-path="url(#clipPath50)"><tspan
         style="font-variant:normal;font-weight:normal;font-size:14px;font-family:Helvetica;writing-mode:lr-tb;fill:#000000;fill-opacity:1;fill-rule:nonzero;stroke:none"
         x="0 9.3378906 17.124023 24.910156 32.696289 35.806641 43.592773 47.482422 59.144531 66.930664 74.716797 78.606445 85.606445 95.716797 103.50293 111.28906 119.0752 126.0752 129.18555 133.0752 140.86133 145.52344"
         y="0"
         sodipodi:role="line"
         id="tspan49">AppointmentsRepository</tspan></text>
    <path
       id="path51"
       d="m 131,321 h 160 v 40 H 131 Z"
       style="fill:#dae8fc;fill-opacity:1;fill-rule:nonzero;stroke:#6c8ebf;stroke-width:1;stroke-linecap:butt;stroke-linejoin:miter;stroke-miterlimit:10;stroke-dasharray:none;stroke-opacity:1"
       transform="matrix(0.96010815,0,0,0.96010815,0.48005407,0.48005407)"
       clip-path="url(#clipPath52)" />
    <text
       id="text52"
       xml:space="preserve"
       transform="matrix(0.96011775,0,0,0.96011775,170.82596,332.20074)"
       clip-path="url(#clipPath53)"><tspan
         style="font-variant:normal;font-weight:normal;font-size:14px;font-family:Helvetica;writing-mode:lr-tb;fill:#000000;fill-opacity:1;fill-rule:nonzero;stroke:none"
         x="0 9.3378906 20.227539 28.013672 31.124023 35.013672 42.799805 46.689453 56.799805"
         y="0"
         sodipodi:role="line"
         id="tspan52">SQLite DB</tspan></text>
    <g
       id="g53" />
    <text
       id="text53"
       xml:space="preserve"
       transform="matrix(0.96011775,0,0,0.96011775,16.772057,145.9379)"
       clip-path="url(#clipPath54)"><tspan
         style="font-variant:normal;font-weight:normal;font-size:11px;font-family:Helvetica;writing-mode:lr-tb;fill:#000000;fill-opacity:1;fill-rule:nonzero;stroke:none"
         x="0 7.9438477 14.061523 19.561523 25.679199 31.796875 37.296875 40.353027 44.016113 50.133789 56.251465 59.307617 65.425293 70.925293 73.981445 80.405273 83.461426 89.579102 92.022949 97.522949 103.02295"
         y="0"
         sodipodi:role="line"
         id="tspan53">Deﬁnes routes + picks</tspan></text>
    <text
       id="text54"
       xml:space="preserve"
       transform="matrix(0.96011775,0,0,0.96011775,24.693028,158.41943)"
       clip-path="url(#clipPath55)"><tspan
         style="font-variant:normal;font-weight:normal;font-size:11px;font-family:Helvetica;writing-mode:lr-tb;fill:#000000;fill-opacity:1;fill-rule:nonzero;stroke:none"
         x="0 2.4438477 8.5615234 11.617676 17.735352 21.398438 27.516113 33.016113 36.072266 38.516113 44.633789 50.751465 53.807617 59.925293 66.042969 69.099121 75.216797 78.272949 81.329102 84.992188 91.109863"
         y="0"
         sodipodi:role="line"
         id="tspan54">interesting data from</tspan></text>
    <text
       id="text55"
       xml:space="preserve"
       transform="matrix(0.96011775,0,0,0.96011775,40.534971,170.90096)"
       clip-path="url(#clipPath56)"><tspan
         style="font-variant:normal;font-weight:normal;font-size:11px;font-family:Helvetica;writing-mode:lr-tb;fill:#000000;fill-opacity:1;fill-rule:nonzero;stroke:none"
         x="0 2.4438477 8.5615234 14.061523 20.179199 29.342285 31.786133 37.903809 44.021484 47.077637 50.740723 56.858398 62.976074 69.09375 75.211426 80.711426"
         y="0"
         sodipodi:role="line"
         id="tspan55">incoming request</tspan></text>
    <text
       id="text56"
       xml:space="preserve"
       transform="matrix(0.96011775,0,0,0.96011775,19.982451,209.30567)"
       clip-path="url(#clipPath57)"><tspan
         style="font-variant:normal;font-weight:normal;font-size:11px;font-family:Helvetica;writing-mode:lr-tb;fill:#000000;fill-opacity:1;fill-rule:nonzero;stroke:none"
         x="0 7.9438477 14.061523 20.179199 23.235352 29.353027 31.796875 37.914551 43.414551 46.470703 52.588379 58.706055 62.369141 65.425293 69.088379 75.206055 81.32373 83.767578 86.82373 92.941406 99.059082"
         y="0"
         sodipodi:role="line"
         id="tspan56">Contains our real app</tspan></text>
    <text
       id="text57"
       xml:space="preserve"
       transform="matrix(0.96011775,0,0,0.96011775,99.252173,222.74732)"
       clip-path="url(#clipPath58)"><tspan
         style="font-variant:normal;font-weight:normal;font-size:11px;font-family:Helvetica;writing-mode:lr-tb;fill:#000000;fill-opacity:1;fill-rule:nonzero;stroke:none"
         x="0 2.4438477 8.5615234 14.679199 17.123047"
         y="0"
         sodipodi:role="line"
         id="tspan57">logic</tspan></text>
    <text
       id="text58"
       xml:space="preserve"
       transform="matrix(0.96011775,0,0,0.96011775,12.181494,266.91274)"
       clip-path="url(#clipPath59)"><tspan
         style="font-variant:normal;font-weight:normal;font-size:11px;font-family:Helvetica;writing-mode:lr-tb;fill:#000000;fill-opacity:1;fill-rule:nonzero;stroke:none"
         x="0 7.9438477 11.606934 17.724609 23.842285 26.898438 33.016113 39.133789 42.189941 48.307617 53.807617 56.67041 62.788086 68.288086 74.405762 80.523438 89.07959 97.023438 106.18652 109.24268"
         y="0"
         sodipodi:role="line"
         id="tspan58">Created by TypeORM. </tspan></text>
    <text
       id="text59"
       xml:space="preserve"
       transform="matrix(0.96011775,0,0,0.96011775,31.953919,280.35438)"
       clip-path="url(#clipPath60)"><tspan
         style="font-variant:normal;font-weight:normal;font-size:11px;font-family:Helvetica;writing-mode:lr-tb;fill:#000000;fill-opacity:1;fill-rule:nonzero;stroke:none"
         x="0 3.0561523 9.1738281 12.22998 18.347656 22.010742 25.066895 31.18457 36.68457 42.802246 45.858398 48.914551 55.032227 58.088379 61.144531 67.262207 73.379883 76.436035 84.379883"
         y="0"
         sodipodi:role="line"
         id="tspan59">Interface to the DB</tspan></text>
    <path
       id="path61"
       d="M 331,251 H 311 V 221 H 297.37"
       style="fill:none;stroke:#000000;stroke-width:1;stroke-linecap:butt;stroke-linejoin:miter;stroke-miterlimit:10;stroke-dasharray:none;stroke-opacity:1"
       transform="matrix(0.96010815,0,0,0.96010815,0.48005407,0.48005407)"
       clip-path="url(#clipPath62)" />
    <path
       id="path63"
       d="m 292.12,221 7,-3.5 -1.75,3.5 1.75,3.5 z"
       style="fill:#000000;fill-opacity:1;fill-rule:nonzero;stroke:#000000;stroke-width:1;stroke-linecap:butt;stroke-linejoin:miter;stroke-miterlimit:10;stroke-dasharray:none;stroke-opacity:1"
       transform="matrix(0.96010815,0,0,0.96010815,0.48005407,0.48005407)"
       clip-path="url(#clipPath64)" />
    <path
       id="path65"
       d="m 331,251 h -20 v 30 h -13.63"
       style="fill:none;stroke:#000000;stroke-width:1;stroke-linecap:butt;stroke-linejoin:miter;stroke-miterlimit:10;stroke-dasharray:none;stroke-opacity:1"
       transform="matrix(0.96010815,0,0,0.96010815,0.48005407,0.48005407)"
       clip-path="url(#clipPath66)" />
    <path
       id="path67"
       d="m 292.12,281 7,-3.5 -1.75,3.5 1.75,3.5 z"
       style="fill:#000000;fill-opacity:1;fill-rule:nonzero;stroke:#000000;stroke-width:1;stroke-linecap:butt;stroke-linejoin:miter;stroke-miterlimit:10;stroke-dasharray:none;stroke-opacity:1"
       transform="matrix(0.96010815,0,0,0.96010815,0.48005407,0.48005407)"
       clip-path="url(#clipPath68)" />
    <path
       id="path69"
       d="m 331,231 h 160 v 40 H 331 Z"
       style="fill:#dae8fc;fill-opacity:1;fill-rule:nonzero;stroke:#6c8ebf;stroke-width:1;stroke-linecap:butt;stroke-linejoin:miter;stroke-miterlimit:10;stroke-dasharray:none;stroke-opacity:1"
       transform="matrix(0.96010815,0,0,0.96010815,0.48005407,0.48005407)"
       clip-path="url(#clipPath70)" />
    <text
       id="text70"
       xml:space="preserve"
       transform="matrix(0.96011775,0,0,0.96011775,338.18648,245.79014)"
       clip-path="url(#clipPath71)"><tspan
         style="font-variant:normal;font-weight:normal;font-size:14px;font-family:Helvetica;writing-mode:lr-tb;fill:#000000;fill-opacity:1;fill-rule:nonzero;stroke:none"
         x="0 9.3378906 17.124023 24.910156 32.696289 35.806641 43.592773 47.482422 59.144531 66.930664 74.716797 78.606445 82.496094 91.833984 99.620117 103.50977 106.62012 110.50977"
         y="0"
         sodipodi:role="line"
         id="tspan70">Appointment Entity</tspan></text>
  </g>
</svg>
