<?xml version="1.0" encoding="UTF-8" standalone="no"?>
<!-- Created with Inkscape (http://www.inkscape.org/) -->

<svg
   version="1.1"
   id="svg1"
   width="299.84"
   height="166.72"
   viewBox="0 0 299.84 166.72"
   sodipodi:docname="nest-25.pdf"
   xmlns:inkscape="http://www.inkscape.org/namespaces/inkscape"
   xmlns:sodipodi="http://sodipodi.sourceforge.net/DTD/sodipodi-0.dtd"
   xmlns="http://www.w3.org/2000/svg"
   xmlns:svg="http://www.w3.org/2000/svg">
  <defs
     id="defs1">
    <clipPath
       clipPathUnits="userSpaceOnUse"
       id="clipPath2">
      <path
         d="M 0,0 H 937.49994 V 519.50635 H 0 Z"
         transform="scale(0.33493334)"
         clip-rule="evenodd"
         id="path2" />
    </clipPath>
    <clipPath
       clipPathUnits="userSpaceOnUse"
       id="clipPath4">
      <path
         d="M 0,0 H 937.49994 V 513.53503 H 0 Z"
         transform="matrix(0.33493334,0,0,0.33493334,-0.5,-0.5)"
         clip-rule="evenodd"
         id="path4" />
    </clipPath>
    <clipPath
       clipPathUnits="userSpaceOnUse"
       id="clipPath6">
      <path
         d="M 0,0 H 937.49994 V 513.53503 H 0 Z"
         transform="matrix(0.33493334,0,0,0.33493334,-0.5,-0.5)"
         clip-rule="evenodd"
         id="path6" />
    </clipPath>
    <clipPath
       clipPathUnits="userSpaceOnUse"
       id="clipPath8">
      <path
         d="M 0,0 H 937.49994 V 513.53503 H 0 Z"
         transform="matrix(0.33493334,0,0,0.33493334,-0.5,-0.5)"
         clip-rule="evenodd"
         id="path8" />
    </clipPath>
    <clipPath
       clipPathUnits="userSpaceOnUse"
       id="clipPath9">
      <path
         d="M 0,0 H 937.49994 V 513.53503 H 0 Z"
         transform="matrix(0.33493,0,0,0.33493,-246.53124,-102)"
         clip-rule="evenodd"
         id="path9" />
    </clipPath>
    <clipPath
       clipPathUnits="userSpaceOnUse"
       id="clipPath10">
      <path
         d="M 0,0 H 937.49994 V 513.53503 H 0 Z"
         transform="matrix(0.33493,0,0,0.33493,-241.07813,-119)"
         clip-rule="evenodd"
         id="path10" />
    </clipPath>
    <clipPath
       clipPathUnits="userSpaceOnUse"
       id="clipPath11">
      <path
         d="M 0,0 H 937.49994 V 513.53503 H 0 Z"
         transform="matrix(0.33493,0,0,0.33493,-100.35937,-15)"
         clip-rule="evenodd"
         id="path11" />
    </clipPath>
    <clipPath
       clipPathUnits="userSpaceOnUse"
       id="clipPath13">
      <path
         d="M 0,0 H 937.49994 V 513.53503 H 0 Z"
         transform="matrix(0.33493334,0,0,0.33493334,-0.5,-0.5)"
         clip-rule="evenodd"
         id="path13" />
    </clipPath>
    <clipPath
       clipPathUnits="userSpaceOnUse"
       id="clipPath15">
      <path
         d="M 0,0 H 937.49994 V 513.53503 H 0 Z"
         transform="matrix(0.33493334,0,0,0.33493334,-0.5,-0.5)"
         clip-rule="evenodd"
         id="path15" />
    </clipPath>
    <clipPath
       clipPathUnits="userSpaceOnUse"
       id="clipPath17">
      <path
         d="M 0,0 H 937.49994 V 513.53503 H 0 Z"
         transform="matrix(0.33493334,0,0,0.33493334,-0.5,-0.5)"
         clip-rule="evenodd"
         id="path17" />
    </clipPath>
    <clipPath
       clipPathUnits="userSpaceOnUse"
       id="clipPath18">
      <path
         d="M 0,0 H 937.49994 V 513.53503 H 0 Z"
         transform="matrix(0.33493,0,0,0.33493,-15.421874,-75.999999)"
         clip-rule="evenodd"
         id="path18" />
    </clipPath>
    <clipPath
       clipPathUnits="userSpaceOnUse"
       id="clipPath19">
      <path
         d="M 0,0 H 937.49994 V 513.53503 H 0 Z"
         transform="matrix(0.33493,0,0,0.33493,-20.609375,-89)"
         clip-rule="evenodd"
         id="path19" />
    </clipPath>
    <clipPath
       clipPathUnits="userSpaceOnUse"
       id="clipPath20">
      <path
         d="M 0,0 H 937.49994 V 513.53503 H 0 Z"
         transform="matrix(0.33493,0,0,0.33493,-8.078125,-102)"
         clip-rule="evenodd"
         id="path20" />
    </clipPath>
    <clipPath
       clipPathUnits="userSpaceOnUse"
       id="clipPath21">
      <path
         d="M 0,0 H 937.49994 V 513.53503 H 0 Z"
         transform="matrix(0.33493,0,0,0.33493,-8.6875,-116)"
         clip-rule="evenodd"
         id="path21" />
    </clipPath>
    <clipPath
       clipPathUnits="userSpaceOnUse"
       id="clipPath22">
      <path
         d="M 0,0 H 937.49994 V 513.53503 H 0 Z"
         transform="matrix(0.33493,0,0,0.33493,-3.796875,-129)"
         clip-rule="evenodd"
         id="path22" />
    </clipPath>
    <clipPath
       clipPathUnits="userSpaceOnUse"
       id="clipPath23">
      <path
         d="M 0,0 H 937.49994 V 513.53503 H 0 Z"
         transform="matrix(0.33493,0,0,0.33493,-35.296875,-142)"
         clip-rule="evenodd"
         id="path23" />
    </clipPath>
    <clipPath
       clipPathUnits="userSpaceOnUse"
       id="clipPath25">
      <path
         d="M 0,0 H 937.49994 V 513.53503 H 0 Z"
         transform="matrix(0.33493334,0,0,0.33493334,-0.5,-0.5)"
         clip-rule="evenodd"
         id="path25" />
    </clipPath>
    <clipPath
       clipPathUnits="userSpaceOnUse"
       id="clipPath26">
      <path
         d="M 0,0 H 937.49994 V 513.53503 H 0 Z"
         transform="matrix(0.33493,0,0,0.33493,-126.20313,-56)"
         clip-rule="evenodd"
         id="path26" />
    </clipPath>
    <clipPath
       clipPathUnits="userSpaceOnUse"
       id="clipPath27">
      <path
         d="M 0,0 H 937.49994 V 513.53503 H 0 Z"
         transform="matrix(0.33493,0,0,0.33493,-133.64062,-65)"
         clip-rule="evenodd"
         id="path27" />
    </clipPath>
    <clipPath
       clipPathUnits="userSpaceOnUse"
       id="clipPath29">
      <path
         d="M 0,0 H 937.49994 V 513.53503 H 0 Z"
         transform="matrix(0.33493334,0,0,0.33493334,-0.5,-0.5)"
         clip-rule="evenodd"
         id="path29" />
    </clipPath>
    <clipPath
       clipPathUnits="userSpaceOnUse"
       id="clipPath30">
      <path
         d="M 0,0 H 937.49994 V 513.53503 H 0 Z"
         transform="matrix(0.33493,0,0,0.33493,-126.20313,-146)"
         clip-rule="evenodd"
         id="path30" />
    </clipPath>
    <clipPath
       clipPathUnits="userSpaceOnUse"
       id="clipPath31">
      <path
         d="M 0,0 H 937.49994 V 513.53503 H 0 Z"
         transform="matrix(0.33493,0,0,0.33493,-123.6875,-154)"
         clip-rule="evenodd"
         id="path31" />
    </clipPath>
    <clipPath
       clipPathUnits="userSpaceOnUse"
       id="clipPath32">
      <path
         d="M 0,0 H 937.49994 V 513.53503 H 0 Z"
         transform="matrix(0.33493,0,0,0.33493,-154.82813,-163)"
         clip-rule="evenodd"
         id="path32" />
    </clipPath>
  </defs>
  <sodipodi:namedview
     id="namedview1"
     pagecolor="#ffffff"
     bordercolor="#000000"
     borderopacity="0.25"
     inkscape:showpageshadow="2"
     inkscape:pageopacity="0.0"
     inkscape:pagecheckerboard="0"
     inkscape:deskcolor="#d1d1d1">
    <inkscape:page
       x="0"
       y="0"
       inkscape:label="1"
       id="page1"
       width="299.84"
       height="166.72"
       margin="0"
       bleed="0" />
  </sodipodi:namedview>
  <g
     id="g1"
     inkscape:groupmode="layer"
     inkscape:label="1">
    <path
       id="path1"
       d="M 0,0 H 314 V 174 H 0 Z"
       style="fill:#ffffff;fill-opacity:1;fill-rule:nonzero;stroke:none"
       transform="scale(0.95541394)"
       clip-path="url(#clipPath2)" />
    <path
       id="path3"
       d="M 221,72.5 H 97.370003"
       style="fill:none;stroke:#000000;stroke-width:1;stroke-linecap:butt;stroke-linejoin:miter;stroke-miterlimit:10;stroke-dasharray:none;stroke-opacity:1"
       transform="matrix(0.95541394,0,0,0.95541394,0.47770697,0.47770697)"
       clip-path="url(#clipPath4)" />
    <path
       id="path5"
       d="m 92.120003,72.5 7,-3.5 -1.75,3.5 1.75,3.5 z"
       style="fill:#000000;fill-opacity:1;fill-rule:nonzero;stroke:#000000;stroke-width:1;stroke-linecap:butt;stroke-linejoin:miter;stroke-miterlimit:10;stroke-dasharray:none;stroke-opacity:1"
       transform="matrix(0.95541394,0,0,0.95541394,0.47770697,0.47770697)"
       clip-path="url(#clipPath6)" />
    <path
       id="path7"
       d="m 221,40 h 90 v 130 h -90 z"
       style="fill:#dae8fc;fill-opacity:1;fill-rule:nonzero;stroke:#6c8ebf;stroke-width:1;stroke-linecap:butt;stroke-linejoin:miter;stroke-miterlimit:10;stroke-dasharray:none;stroke-opacity:1"
       transform="matrix(0.95541394,0,0,0.95541394,0.47770697,0.47770697)"
       clip-path="url(#clipPath8)" />
    <text
       id="text8"
       xml:space="preserve"
       transform="matrix(0.95542348,0,0,0.95542348,235.54174,97.453195)"
       clip-path="url(#clipPath9)"><tspan
         style="font-variant:normal;font-weight:700;font-size:14px;font-family:Helvetica;writing-mode:lr-tb;fill:#000000;fill-opacity:1;fill-rule:nonzero;stroke:none"
         x="0 10.110352 17.896484 25.682617 31.130859"
         y="0"
         sodipodi:role="line"
         id="tspan8">Users</tspan></text>
    <text
       id="text9"
       xml:space="preserve"
       transform="matrix(0.95542348,0,0,0.95542348,230.33171,113.69539)"
       clip-path="url(#clipPath10)"><tspan
         style="font-variant:normal;font-weight:700;font-size:14px;font-family:Helvetica;writing-mode:lr-tb;fill:#000000;fill-opacity:1;fill-rule:nonzero;stroke:none"
         x="0 9.3378906 17.124023 22.572266 30.358398 34.248047 42.03418"
         y="0"
         sodipodi:role="line"
         id="tspan9">Service</tspan></text>
    <text
       id="text10"
       xml:space="preserve"
       transform="matrix(0.95542348,0,0,0.95542348,95.885703,14.331352)"
       clip-path="url(#clipPath11)"><tspan
         style="font-variant:normal;font-weight:700;font-size:14px;font-family:Helvetica;writing-mode:lr-tb;fill:#000000;fill-opacity:1;fill-rule:nonzero;stroke:none"
         x="0 9.3378906 17.124023 24.910156 33.461914 38.910156 42.799805 47.461914 55.248047 59.137695 69.248047 74.696289 82.482422 90.268555 98.054688 106.60645"
         y="0"
         sodipodi:role="line"
         id="tspan10">Security Breach!</tspan></text>
    <path
       id="path12"
       d="m 91,137.5 h 65 l 60.88,0.11999"
       style="fill:none;stroke:#000000;stroke-width:1;stroke-linecap:butt;stroke-linejoin:miter;stroke-miterlimit:10;stroke-dasharray:none;stroke-opacity:1"
       transform="matrix(0.95541394,0,0,0.95541394,0.47770697,0.47770697)"
       clip-path="url(#clipPath13)" />
    <path
       id="path14"
       d="m 222.13,137.63 -7,3.48999 1.75,-3.5 -1.74,-3.5 z"
       style="fill:#000000;fill-opacity:1;fill-rule:nonzero;stroke:#000000;stroke-width:1;stroke-linecap:butt;stroke-linejoin:miter;stroke-miterlimit:10;stroke-dasharray:none;stroke-opacity:1"
       transform="matrix(0.95541394,0,0,0.95541394,0.47770697,0.47770697)"
       clip-path="url(#clipPath15)" />
    <path
       id="path16"
       d="M 1,40 H 91 V 170 H 1 Z"
       style="fill:#fff2cc;fill-opacity:1;fill-rule:nonzero;stroke:#d6b656;stroke-width:1;stroke-linecap:butt;stroke-linejoin:miter;stroke-miterlimit:10;stroke-dasharray:none;stroke-opacity:1"
       transform="matrix(0.95541394,0,0,0.95541394,0.47770697,0.47770697)"
       clip-path="url(#clipPath17)" />
    <g
       id="g17" />
    <text
       id="text17"
       xml:space="preserve"
       transform="matrix(0.95542348,0,0,0.95542348,14.734421,72.612184)"
       clip-path="url(#clipPath18)"><tspan
         style="font-variant:normal;font-weight:normal;font-size:11px;font-family:Helvetica;writing-mode:lr-tb;fill:#000000;fill-opacity:1;fill-rule:nonzero;stroke:none"
         x="0 7.3369141 12.836914 16.5 18.943848 25.061523 28.117676 31.173828 34.22998 40.347656 43.403809 48.903809 55.021484"
         y="0"
         sodipodi:role="line"
         id="tspan17">Script to ﬁnd</tspan></text>
    <text
       id="text18"
       xml:space="preserve"
       transform="matrix(0.95542348,0,0,0.95542348,19.690681,85.03269)"
       clip-path="url(#clipPath19)"><tspan
         style="font-variant:normal;font-weight:normal;font-size:11px;font-family:Helvetica;writing-mode:lr-tb;fill:#000000;fill-opacity:1;fill-rule:nonzero;stroke:none"
         x="0 6.1176758 12.235352 17.735352 23.853027 26.90918 33.026855 38.526855 44.644531 47.706055"
         y="0"
         sodipodi:role="line"
         id="tspan18">each user,</tspan></text>
    <text
       id="text19"
       xml:space="preserve"
       transform="matrix(0.95542348,0,0,0.95542348,7.7180303,97.453195)"
       clip-path="url(#clipPath20)"><tspan
         style="font-variant:normal;font-weight:normal;font-size:11px;font-family:Helvetica;writing-mode:lr-tb;fill:#000000;fill-opacity:1;fill-rule:nonzero;stroke:none"
         x="0 6.1176758 12.235352 18.353027 24.470703 28.133789 34.251465 37.307617 43.425293 46.481445 52.599121 55.655273 61.772949 67.890625"
         y="0"
         sodipodi:role="line"
         id="tspan19">generate a new</tspan></text>
    <text
       id="text20"
       xml:space="preserve"
       transform="matrix(0.95542348,0,0,0.95542348,8.3002415,110.82912)"
       clip-path="url(#clipPath21)"><tspan
         style="font-variant:normal;font-weight:normal;font-size:11px;font-family:Helvetica;writing-mode:lr-tb;fill:#000000;fill-opacity:1;fill-rule:nonzero;stroke:none"
         x="0 6.1176758 12.235352 17.735352 23.235352 31.179199 37.296875 40.959961 47.077637 50.133789 53.189941 56.246094 62.36377 68.481445"
         y="0"
         sodipodi:role="line"
         id="tspan20">password, then</tspan></text>
    <text
       id="text21"
       xml:space="preserve"
       transform="matrix(0.95542348,0,0,0.95542348,3.6276235,123.24963)"
       clip-path="url(#clipPath22)"><tspan
         style="font-variant:normal;font-weight:normal;font-size:11px;font-family:Helvetica;writing-mode:lr-tb;fill:#000000;fill-opacity:1;fill-rule:nonzero;stroke:none"
         x="0 5.5 11.617676 17.117676 23.235352 26.291504 29.347656 35.465332 41.583008 44.63916 50.756836 56.874512 62.992188 69.109863 72.166016 78.283691"
         y="0"
         sodipodi:role="line"
         id="tspan21">save the updated</tspan></text>
    <text
       id="text22"
       xml:space="preserve"
       transform="matrix(0.95542348,0,0,0.95542348,33.723463,135.67013)"
       clip-path="url(#clipPath23)"><tspan
         style="font-variant:normal;font-weight:normal;font-size:11px;font-family:Helvetica;writing-mode:lr-tb;fill:#000000;fill-opacity:1;fill-rule:nonzero;stroke:none"
         x="0 6.1176758 11.617676 17.735352"
         y="0"
         sodipodi:role="line"
         id="tspan22">user</tspan></text>
    <path
       id="path24"
       d="m 121,43 h 70 v 30 h -70 z"
       style="fill:#f5f5f5;fill-opacity:1;fill-rule:nonzero;stroke:#666666;stroke-width:1;stroke-linecap:butt;stroke-linejoin:miter;stroke-miterlimit:10;stroke-dasharray:none;stroke-opacity:1"
       transform="matrix(0.95541394,0,0,0.95541394,0.47770697,0.47770697)"
       clip-path="url(#clipPath25)" />
    <text
       id="text25"
       xml:space="preserve"
       transform="matrix(0.95542348,0,0,0.95542348,120.57743,53.503715)"
       clip-path="url(#clipPath26)"><tspan
         style="font-variant:normal;font-weight:normal;font-size:7px;font-family:Helvetica;writing-mode:lr-tb;fill:#333333;fill-opacity:1;fill-rule:nonzero;stroke:none"
         x="0 2.3378906 4.2827148 8.1757812 14.006836 17.899902 19.455078 21.010254 22.955078 24.899902 26.236328 30.129395 37.235352 41.128418 43.073242 46.573242 50.466309 56.297363 57.633789"
         y="0"
         sodipodi:role="line"
         id="tspan25">{ email: 'a@a.com',</tspan></text>
    <text
       id="text26"
       xml:space="preserve"
       transform="matrix(0.95542348,0,0,0.95542348,127.68339,62.102526)"
       clip-path="url(#clipPath27)"><tspan
         style="font-variant:normal;font-weight:normal;font-size:7px;font-family:Helvetica;writing-mode:lr-tb;fill:#333333;fill-opacity:1;fill-rule:nonzero;stroke:none"
         x="0 3.8930664 7.7861328 11.286133 14.786133 19.841309 23.734375 26.06543 29.958496 31.90332 33.848145 35.18457 39.077637 40.414062 42.358887"
         y="0"
         sodipodi:role="line"
         id="tspan26">password: 'a' }</tspan></text>
    <path
       id="path28"
       d="m 121,137 h 70 v 30 h -70 z"
       style="fill:#f5f5f5;fill-opacity:1;fill-rule:nonzero;stroke:#666666;stroke-width:1;stroke-linecap:butt;stroke-linejoin:miter;stroke-miterlimit:10;stroke-dasharray:none;stroke-opacity:1"
       transform="matrix(0.95541394,0,0,0.95541394,0.47770697,0.47770697)"
       clip-path="url(#clipPath29)" />
    <text
       id="text29"
       xml:space="preserve"
       transform="matrix(0.95542348,0,0,0.95542348,120.57743,139.49183)"
       clip-path="url(#clipPath30)"><tspan
         style="font-variant:normal;font-weight:normal;font-size:7px;font-family:Helvetica;writing-mode:lr-tb;fill:#333333;fill-opacity:1;fill-rule:nonzero;stroke:none"
         x="0 2.3378906 4.2827148 8.1757812 14.006836 17.899902 19.455078 21.010254 22.955078 24.899902 26.236328 30.129395 37.235352 41.128418 43.073242 46.573242 50.466309 56.297363 57.633789"
         y="0"
         sodipodi:role="line"
         id="tspan29">{ email: 'a@a.com',</tspan></text>
    <g
       id="g30" />
    <text
       id="text30"
       xml:space="preserve"
       transform="matrix(0.95542348,0,0,0.95542348,118.17394,147.13522)"
       clip-path="url(#clipPath31)"><tspan
         style="font-variant:normal;font-weight:normal;font-size:7px;font-family:Helvetica;writing-mode:lr-tb;fill:#333333;fill-opacity:1;fill-rule:nonzero;stroke:none"
         x="0 3.8930664 7.7861328 11.286133 14.786133 19.841309 23.734375 26.06543 29.958496 31.90332 33.848145 37.741211 41.634277 45.527344 49.42041 52.92041 56.813477 60.706543"
         y="0"
         sodipodi:role="line"
         id="tspan30">password: undeﬁned</tspan></text>
    <text
       id="text31"
       xml:space="preserve"
       transform="matrix(0.95542348,0,0,0.95542348,147.92643,155.73403)"
       clip-path="url(#clipPath32)"><tspan
         style="font-variant:normal;font-weight:normal;font-size:7px;font-family:Helvetica;writing-mode:lr-tb;fill:#333333;fill-opacity:1;fill-rule:nonzero;stroke:none"
         x="0"
         y="0"
         id="tspan31">}</tspan></text>
  </g>
</svg>
