<?xml version="1.0" encoding="UTF-8" standalone="no"?>
<!-- Created with Inkscape (http://www.inkscape.org/) -->

<svg
   version="1.1"
   id="svg1"
   width="425.28"
   height="261.44"
   viewBox="0 0 425.28 261.44"
   sodipodi:docname="nest-7.pdf"
   xmlns:inkscape="http://www.inkscape.org/namespaces/inkscape"
   xmlns:sodipodi="http://sodipodi.sourceforge.net/DTD/sodipodi-0.dtd"
   xmlns="http://www.w3.org/2000/svg"
   xmlns:svg="http://www.w3.org/2000/svg">
  <defs
     id="defs1">
    <clipPath
       clipPathUnits="userSpaceOnUse"
       id="clipPath2">
      <path
         d="M 0,0 H 1329.1666 V 814.26422 H 0 Z"
         transform="scale(0.3340439)"
         clip-rule="evenodd"
         id="path2" />
    </clipPath>
    <clipPath
       clipPathUnits="userSpaceOnUse"
       id="clipPath4">
      <path
         d="M 0,0 H 1329.1666 V 814.26422 H 0 Z"
         transform="matrix(0.3340439,0,0,0.3340439,-0.5,-0.5)"
         clip-rule="evenodd"
         id="path4" />
    </clipPath>
    <clipPath
       clipPathUnits="userSpaceOnUse"
       id="clipPath6">
      <path
         d="M 0,0 H 1329.1666 V 814.26422 H 0 Z"
         transform="matrix(0.3340439,0,0,0.3340439,-0.5,-0.5)"
         clip-rule="evenodd"
         id="path6" />
    </clipPath>
    <clipPath
       clipPathUnits="userSpaceOnUse"
       id="clipPath8">
      <path
         d="M 0,0 H 1329.1666 V 814.26422 H 0 Z"
         transform="matrix(0.3340439,0,0,0.3340439,-0.5,-0.5)"
         clip-rule="evenodd"
         id="path8" />
    </clipPath>
    <clipPath
       clipPathUnits="userSpaceOnUse"
       id="clipPath10">
      <path
         d="M 0,0 H 1329.1666 V 814.26422 H 0 Z"
         transform="matrix(0.3340439,0,0,0.3340439,-0.5,-0.5)"
         clip-rule="evenodd"
         id="path10" />
    </clipPath>
    <clipPath
       clipPathUnits="userSpaceOnUse"
       id="clipPath12">
      <path
         d="M 0,0 H 1329.1666 V 814.26422 H 0 Z"
         transform="matrix(0.3340439,0,0,0.3340439,-0.5,-0.5)"
         clip-rule="evenodd"
         id="path12" />
    </clipPath>
    <clipPath
       clipPathUnits="userSpaceOnUse"
       id="clipPath13">
      <path
         d="M 0,0 H 1329.1666 V 814.26422 H 0 Z"
         transform="matrix(0.33404055,0,0,0.33404055,-197.45313,-36)"
         clip-rule="evenodd"
         id="path13" />
    </clipPath>
    <clipPath
       clipPathUnits="userSpaceOnUse"
       id="clipPath15">
      <path
         d="M 0,0 H 1329.1666 V 814.26422 H 0 Z"
         transform="matrix(0.3340439,0,0,0.3340439,-0.5,-0.5)"
         clip-rule="evenodd"
         id="path15" />
    </clipPath>
    <clipPath
       clipPathUnits="userSpaceOnUse"
       id="clipPath16">
      <path
         d="M 0,0 H 1329.1666 V 814.26422 H 0 Z"
         transform="matrix(0.33404055,0,0,0.33404055,-83.265625,-116)"
         clip-rule="evenodd"
         id="path16" />
    </clipPath>
    <clipPath
       clipPathUnits="userSpaceOnUse"
       id="clipPath18">
      <path
         d="M 0,0 H 1329.1666 V 814.26422 H 0 Z"
         transform="matrix(0.3340439,0,0,0.3340439,-0.5,-0.5)"
         clip-rule="evenodd"
         id="path18" />
    </clipPath>
    <clipPath
       clipPathUnits="userSpaceOnUse"
       id="clipPath19">
      <path
         d="M 0,0 H 1329.1666 V 814.26422 H 0 Z"
         transform="matrix(0.33404055,0,0,0.33404055,-290.26563,-116)"
         clip-rule="evenodd"
         id="path19" />
    </clipPath>
    <clipPath
       clipPathUnits="userSpaceOnUse"
       id="clipPath21">
      <path
         d="M 0,0 H 1329.1666 V 814.26422 H 0 Z"
         transform="matrix(0.3340439,0,0,0.3340439,-0.5,-0.5)"
         clip-rule="evenodd"
         id="path21" />
    </clipPath>
    <clipPath
       clipPathUnits="userSpaceOnUse"
       id="clipPath23">
      <path
         d="M 0,0 H 1329.1666 V 814.26422 H 0 Z"
         transform="matrix(0.3340439,0,0,0.3340439,-0.5,-0.5)"
         clip-rule="evenodd"
         id="path23" />
    </clipPath>
    <clipPath
       clipPathUnits="userSpaceOnUse"
       id="clipPath25">
      <path
         d="M 0,0 H 1329.1666 V 814.26422 H 0 Z"
         transform="matrix(0.3340439,0,0,0.3340439,-0.5,-0.5)"
         clip-rule="evenodd"
         id="path25" />
    </clipPath>
    <clipPath
       clipPathUnits="userSpaceOnUse"
       id="clipPath27">
      <path
         d="M 0,0 H 1329.1666 V 814.26422 H 0 Z"
         transform="matrix(0.3340439,0,0,0.3340439,-0.5,-0.5)"
         clip-rule="evenodd"
         id="path27" />
    </clipPath>
    <clipPath
       clipPathUnits="userSpaceOnUse"
       id="clipPath29">
      <path
         d="M 0,0 H 1329.1666 V 814.26422 H 0 Z"
         transform="matrix(0.3340439,0,0,0.3340439,-0.5,-0.5)"
         clip-rule="evenodd"
         id="path29" />
    </clipPath>
    <clipPath
       clipPathUnits="userSpaceOnUse"
       id="clipPath30">
      <path
         d="M 0,0 H 1329.1666 V 814.26422 H 0 Z"
         transform="matrix(0.33404055,0,0,0.33404055,-11.625,-25.999999)"
         clip-rule="evenodd"
         id="path30" />
    </clipPath>
    <clipPath
       clipPathUnits="userSpaceOnUse"
       id="clipPath31">
      <path
         d="M 0,0 H 1329.1666 V 814.26422 H 0 Z"
         transform="matrix(0.33404055,0,0,0.33404055,-23.203125,-46)"
         clip-rule="evenodd"
         id="path31" />
    </clipPath>
    <clipPath
       clipPathUnits="userSpaceOnUse"
       id="clipPath33">
      <path
         d="M 0,0 H 1329.1666 V 814.26422 H 0 Z"
         transform="matrix(0.3340439,0,0,0.3340439,-0.5,-0.5)"
         clip-rule="evenodd"
         id="path33" />
    </clipPath>
    <clipPath
       clipPathUnits="userSpaceOnUse"
       id="clipPath34">
      <path
         d="M 0,0 H 1329.1666 V 814.26422 H 0 Z"
         transform="matrix(0.33404055,0,0,0.33404055,-74.109375,-161)"
         clip-rule="evenodd"
         id="path34" />
    </clipPath>
    <clipPath
       clipPathUnits="userSpaceOnUse"
       id="clipPath35">
      <path
         d="M 0,0 H 1329.1666 V 814.26422 H 0 Z"
         transform="matrix(0.33404055,0,0,0.33404055,-70.984375,-181)"
         clip-rule="evenodd"
         id="path35" />
    </clipPath>
    <clipPath
       clipPathUnits="userSpaceOnUse"
       id="clipPath37">
      <path
         d="M 0,0 H 1329.1666 V 814.26422 H 0 Z"
         transform="matrix(0.3340439,0,0,0.3340439,-0.5,-0.5)"
         clip-rule="evenodd"
         id="path37" />
    </clipPath>
    <clipPath
       clipPathUnits="userSpaceOnUse"
       id="clipPath38">
      <path
         d="M 0,0 H 1329.1666 V 814.26422 H 0 Z"
         transform="matrix(0.33404055,0,0,0.33404055,-158.10938,-161)"
         clip-rule="evenodd"
         id="path38" />
    </clipPath>
    <clipPath
       clipPathUnits="userSpaceOnUse"
       id="clipPath39">
      <path
         d="M 0,0 H 1329.1666 V 814.26422 H 0 Z"
         transform="matrix(0.33404055,0,0,0.33404055,-140.75,-181)"
         clip-rule="evenodd"
         id="path39" />
    </clipPath>
    <clipPath
       clipPathUnits="userSpaceOnUse"
       id="clipPath41">
      <path
         d="M 0,0 H 1329.1666 V 814.26422 H 0 Z"
         transform="matrix(0.3340439,0,0,0.3340439,-0.5,-0.5)"
         clip-rule="evenodd"
         id="path41" />
    </clipPath>
    <clipPath
       clipPathUnits="userSpaceOnUse"
       id="clipPath42">
      <path
         d="M 0,0 H 1329.1666 V 814.26422 H 0 Z"
         transform="matrix(0.33404055,0,0,0.33404055,-279.98438,-161)"
         clip-rule="evenodd"
         id="path42" />
    </clipPath>
    <clipPath
       clipPathUnits="userSpaceOnUse"
       id="clipPath43">
      <path
         d="M 0,0 H 1329.1666 V 814.26422 H 0 Z"
         transform="matrix(0.33404055,0,0,0.33404055,-283.98438,-181)"
         clip-rule="evenodd"
         id="path43" />
    </clipPath>
    <clipPath
       clipPathUnits="userSpaceOnUse"
       id="clipPath45">
      <path
         d="M 0,0 H 1329.1666 V 814.26422 H 0 Z"
         transform="matrix(0.3340439,0,0,0.3340439,-0.5,-0.5)"
         clip-rule="evenodd"
         id="path45" />
    </clipPath>
    <clipPath
       clipPathUnits="userSpaceOnUse"
       id="clipPath46">
      <path
         d="M 0,0 H 1329.1666 V 814.26422 H 0 Z"
         transform="matrix(0.33404055,0,0,0.33404055,-365.98438,-161)"
         clip-rule="evenodd"
         id="path46" />
    </clipPath>
    <clipPath
       clipPathUnits="userSpaceOnUse"
       id="clipPath47">
      <path
         d="M 0,0 H 1329.1666 V 814.26422 H 0 Z"
         transform="matrix(0.33404055,0,0,0.33404055,-355.75,-181)"
         clip-rule="evenodd"
         id="path47" />
    </clipPath>
    <clipPath
       clipPathUnits="userSpaceOnUse"
       id="clipPath49">
      <path
         d="M 0,0 H 1329.1666 V 814.26422 H 0 Z"
         transform="matrix(0.3340439,0,0,0.3340439,-0.5,-0.5)"
         clip-rule="evenodd"
         id="path49" />
    </clipPath>
    <clipPath
       clipPathUnits="userSpaceOnUse"
       id="clipPath51">
      <path
         d="M 0,0 H 1329.1666 V 814.26422 H 0 Z"
         transform="matrix(0.3340439,0,0,0.3340439,-0.5,-0.5)"
         clip-rule="evenodd"
         id="path51" />
    </clipPath>
    <clipPath
       clipPathUnits="userSpaceOnUse"
       id="clipPath52">
      <path
         d="M 0,0 H 1329.1666 V 814.26422 H 0 Z"
         transform="matrix(0.33404055,0,0,0.33404055,-143.42187,-239)"
         clip-rule="evenodd"
         id="path52" />
    </clipPath>
    <clipPath
       clipPathUnits="userSpaceOnUse"
       id="clipPath53">
      <path
         d="M 0,0 H 1329.1666 V 814.26422 H 0 Z"
         transform="matrix(0.33404055,0,0,0.33404055,-145.90625,-251)"
         clip-rule="evenodd"
         id="path53" />
    </clipPath>
    <clipPath
       clipPathUnits="userSpaceOnUse"
       id="clipPath54">
      <path
         d="M 0,0 H 1329.1666 V 814.26422 H 0 Z"
         transform="matrix(0.33404055,0,0,0.33404055,-148.98438,-263)"
         clip-rule="evenodd"
         id="path54" />
    </clipPath>
    <clipPath
       clipPathUnits="userSpaceOnUse"
       id="clipPath56">
      <path
         d="M 0,0 H 1329.1666 V 814.26422 H 0 Z"
         transform="matrix(0.3340439,0,0,0.3340439,-0.5,-0.5)"
         clip-rule="evenodd"
         id="path56" />
    </clipPath>
    <clipPath
       clipPathUnits="userSpaceOnUse"
       id="clipPath58">
      <path
         d="M 0,0 H 1329.1666 V 814.26422 H 0 Z"
         transform="matrix(0.3340439,0,0,0.3340439,-0.5,-0.5)"
         clip-rule="evenodd"
         id="path58" />
    </clipPath>
    <clipPath
       clipPathUnits="userSpaceOnUse"
       id="clipPath59">
      <path
         d="M 0,0 H 1329.1666 V 814.26422 H 0 Z"
         transform="matrix(0.33404055,0,0,0.33404055,-358.42189,-239)"
         clip-rule="evenodd"
         id="path59" />
    </clipPath>
    <clipPath
       clipPathUnits="userSpaceOnUse"
       id="clipPath60">
      <path
         d="M 0,0 H 1329.1666 V 814.26422 H 0 Z"
         transform="matrix(0.33404055,0,0,0.33404055,-360.90625,-251)"
         clip-rule="evenodd"
         id="path60" />
    </clipPath>
    <clipPath
       clipPathUnits="userSpaceOnUse"
       id="clipPath61">
      <path
         d="M 0,0 H 1329.1666 V 814.26422 H 0 Z"
         transform="matrix(0.33404055,0,0,0.33404055,-359.53125,-263)"
         clip-rule="evenodd"
         id="path61" />
    </clipPath>
    <clipPath
       clipPathUnits="userSpaceOnUse"
       id="clipPath63">
      <path
         d="M 0,0 H 1329.1666 V 814.26422 H 0 Z"
         transform="matrix(0.3340439,0,0,0.3340439,-0.5,-0.5)"
         clip-rule="evenodd"
         id="path63" />
    </clipPath>
    <clipPath
       clipPathUnits="userSpaceOnUse"
       id="clipPath65">
      <path
         d="M 0,0 H 1329.1666 V 814.26422 H 0 Z"
         transform="matrix(0.3340439,0,0,0.3340439,-0.5,-0.5)"
         clip-rule="evenodd"
         id="path65" />
    </clipPath>
    <clipPath
       clipPathUnits="userSpaceOnUse"
       id="clipPath66">
      <path
         d="M 0,0 H 1329.1666 V 814.26422 H 0 Z"
         transform="matrix(0.33404055,0,0,0.33404055,-53,-233)"
         clip-rule="evenodd"
         id="path66" />
    </clipPath>
    <clipPath
       clipPathUnits="userSpaceOnUse"
       id="clipPath67">
      <path
         d="M 0,0 H 1329.1666 V 814.26422 H 0 Z"
         transform="matrix(0.33404055,0,0,0.33404055,-54.859375,-245)"
         clip-rule="evenodd"
         id="path67" />
    </clipPath>
    <clipPath
       clipPathUnits="userSpaceOnUse"
       id="clipPath68">
      <path
         d="M 0,0 H 1329.1666 V 814.26422 H 0 Z"
         transform="matrix(0.33404055,0,0,0.33404055,-62.375,-257)"
         clip-rule="evenodd"
         id="path68" />
    </clipPath>
    <clipPath
       clipPathUnits="userSpaceOnUse"
       id="clipPath69">
      <path
         d="M 0,0 H 1329.1666 V 814.26422 H 0 Z"
         transform="matrix(0.33404055,0,0,0.33404055,-62.921875,-269)"
         clip-rule="evenodd"
         id="path69" />
    </clipPath>
    <clipPath
       clipPathUnits="userSpaceOnUse"
       id="clipPath71">
      <path
         d="M 0,0 H 1329.1666 V 814.26422 H 0 Z"
         transform="matrix(0.3340439,0,0,0.3340439,-0.5,-0.5)"
         clip-rule="evenodd"
         id="path71" />
    </clipPath>
    <clipPath
       clipPathUnits="userSpaceOnUse"
       id="clipPath73">
      <path
         d="M 0,0 H 1329.1666 V 814.26422 H 0 Z"
         transform="matrix(0.3340439,0,0,0.3340439,-0.5,-0.5)"
         clip-rule="evenodd"
         id="path73" />
    </clipPath>
    <clipPath
       clipPathUnits="userSpaceOnUse"
       id="clipPath74">
      <path
         d="M 0,0 H 1329.1666 V 814.26422 H 0 Z"
         transform="matrix(0.33404055,0,0,0.33404055,-266,-233)"
         clip-rule="evenodd"
         id="path74" />
    </clipPath>
    <clipPath
       clipPathUnits="userSpaceOnUse"
       id="clipPath75">
      <path
         d="M 0,0 H 1329.1666 V 814.26422 H 0 Z"
         transform="matrix(0.33404055,0,0,0.33404055,-267.85938,-245)"
         clip-rule="evenodd"
         id="path75" />
    </clipPath>
    <clipPath
       clipPathUnits="userSpaceOnUse"
       id="clipPath76">
      <path
         d="M 0,0 H 1329.1666 V 814.26422 H 0 Z"
         transform="matrix(0.33404055,0,0,0.33404055,-270.92188,-257)"
         clip-rule="evenodd"
         id="path76" />
    </clipPath>
    <clipPath
       clipPathUnits="userSpaceOnUse"
       id="clipPath77">
      <path
         d="M 0,0 H 1329.1666 V 814.26422 H 0 Z"
         transform="matrix(0.33404055,0,0,0.33404055,-275.92188,-269)"
         clip-rule="evenodd"
         id="path77" />
    </clipPath>
  </defs>
  <sodipodi:namedview
     id="namedview1"
     pagecolor="#ffffff"
     bordercolor="#000000"
     borderopacity="0.25"
     inkscape:showpageshadow="2"
     inkscape:pageopacity="0.0"
     inkscape:pagecheckerboard="0"
     inkscape:deskcolor="#d1d1d1">
    <inkscape:page
       x="0"
       y="0"
       inkscape:label="1"
       id="page1"
       width="425.28"
       height="261.44"
       margin="0"
       bleed="0" />
  </sodipodi:namedview>
  <g
     id="g1"
     inkscape:groupmode="layer"
     inkscape:label="1">
    <path
       id="path1"
       d="M 0,0 H 444 V 272 H 0 Z"
       style="fill:#ffffff;fill-opacity:1;fill-rule:nonzero;stroke:none"
       transform="scale(0.95795788)"
       clip-path="url(#clipPath2)" />
    <path
       id="path3"
       d="M 241,46 V 71 H 133.5 v 18.629997"
       style="fill:none;stroke:#000000;stroke-width:1;stroke-linecap:butt;stroke-linejoin:miter;stroke-miterlimit:10;stroke-dasharray:none;stroke-opacity:1"
       transform="matrix(0.95795788,0,0,0.95795788,0.47897894,0.47897894)"
       clip-path="url(#clipPath4)" />
    <path
       id="path5"
       d="m 133.5,94.879997 -3.5,-7 3.5,1.75 3.5,-1.75 z"
       style="fill:#000000;fill-opacity:1;fill-rule:nonzero;stroke:#000000;stroke-width:1;stroke-linecap:butt;stroke-linejoin:miter;stroke-miterlimit:10;stroke-dasharray:none;stroke-opacity:1"
       transform="matrix(0.95795788,0,0,0.95795788,0.47897894,0.47897894)"
       clip-path="url(#clipPath6)" />
    <path
       id="path7"
       d="M 241,46 V 71 H 348.5 V 89.629997"
       style="fill:none;stroke:#000000;stroke-width:1;stroke-linecap:butt;stroke-linejoin:miter;stroke-miterlimit:10;stroke-dasharray:none;stroke-opacity:1"
       transform="matrix(0.95795788,0,0,0.95795788,0.47897894,0.47897894)"
       clip-path="url(#clipPath8)" />
    <path
       id="path9"
       d="m 348.5,94.879997 -3.5,-7 3.5,1.75 3.5,-1.75 z"
       style="fill:#000000;fill-opacity:1;fill-rule:nonzero;stroke:#000000;stroke-width:1;stroke-linecap:butt;stroke-linejoin:miter;stroke-miterlimit:10;stroke-dasharray:none;stroke-opacity:1"
       transform="matrix(0.95795788,0,0,0.95795788,0.47897894,0.47897894)"
       clip-path="url(#clipPath10)" />
    <path
       id="path11"
       d="M 161,16 H 321 V 46 H 161 Z"
       style="fill:#dae8fc;fill-opacity:1;fill-rule:nonzero;stroke:#6c8ebf;stroke-width:1;stroke-linecap:butt;stroke-linejoin:miter;stroke-miterlimit:10;stroke-dasharray:none;stroke-opacity:1"
       transform="matrix(0.95795788,0,0,0.95795788,0.47897894,0.47897894)"
       clip-path="url(#clipPath12)" />
    <text
       id="text12"
       xml:space="preserve"
       transform="matrix(0.95796748,0,0,0.95796748,189.15368,34.486829)"
       clip-path="url(#clipPath13)"><tspan
         style="font-variant:normal;font-weight:700;font-size:16px;font-family:Helvetica;writing-mode:lr-tb;fill:#000000;fill-opacity:1;fill-rule:nonzero;stroke:none"
         x="0 11.554688 21.328125 31.101562 44.429688 54.203125 63.976562 73.75 78.195312"
         y="0"
         sodipodi:role="line"
         id="tspan12">AppModule</tspan></text>
    <path
       id="path14"
       d="m 41,96 h 185 v 30 H 41 Z"
       style="fill:#dae8fc;fill-opacity:1;fill-rule:nonzero;stroke:#6c8ebf;stroke-width:1;stroke-linecap:butt;stroke-linejoin:miter;stroke-miterlimit:10;stroke-dasharray:none;stroke-opacity:1"
       transform="matrix(0.95795788,0,0,0.95795788,0.47897894,0.47897894)"
       clip-path="url(#clipPath15)" />
    <text
       id="text15"
       xml:space="preserve"
       transform="matrix(0.95796748,0,0,0.95796748,79.765761,111.12423)"
       clip-path="url(#clipPath16)"><tspan
         style="font-variant:normal;font-weight:700;font-size:16px;font-family:Helvetica;writing-mode:lr-tb;fill:#000000;fill-opacity:1;fill-rule:nonzero;stroke:none"
         x="0 11.554688 20.453125 29.351562 35.578125 44.476562 57.804688 67.578125 77.351562 87.125 91.570312"
         y="0"
         sodipodi:role="line"
         id="tspan15">UsersModule</tspan></text>
    <path
       id="path17"
       d="m 256,96 h 185 v 30 H 256 Z"
       style="fill:#dae8fc;fill-opacity:1;fill-rule:nonzero;stroke:#6c8ebf;stroke-width:1;stroke-linecap:butt;stroke-linejoin:miter;stroke-miterlimit:10;stroke-dasharray:none;stroke-opacity:1"
       transform="matrix(0.95795788,0,0,0.95795788,0.47897894,0.47897894)"
       clip-path="url(#clipPath18)" />
    <text
       id="text18"
       xml:space="preserve"
       transform="matrix(0.95796748,0,0,0.95796748,278.06503,111.12423)"
       clip-path="url(#clipPath19)"><tspan
         style="font-variant:normal;font-weight:700;font-size:16px;font-family:Helvetica;writing-mode:lr-tb;fill:#000000;fill-opacity:1;fill-rule:nonzero;stroke:none"
         x="0 11.554688 20.453125 30.226562 40 46.226562 51.554688 60.453125 73.78125 83.554688 93.328125 103.10156 107.54688"
         y="0"
         sodipodi:role="line"
         id="tspan18">ReportsModule</tspan></text>
    <path
       id="path20"
       d="m 41,126 h 185 v 80 H 41 Z"
       style="fill:#dae8fc;fill-opacity:1;fill-rule:nonzero;stroke:#6c8ebf;stroke-width:1;stroke-linecap:butt;stroke-linejoin:miter;stroke-miterlimit:10;stroke-dasharray:none;stroke-opacity:1"
       transform="matrix(0.95795788,0,0,0.95795788,0.47897894,0.47897894)"
       clip-path="url(#clipPath21)" />
    <path
       id="path22"
       d="m 256,126 h 185 v 80 H 256 Z"
       style="fill:#dae8fc;fill-opacity:1;fill-rule:nonzero;stroke:#6c8ebf;stroke-width:1;stroke-linecap:butt;stroke-linejoin:miter;stroke-miterlimit:10;stroke-dasharray:none;stroke-opacity:1"
       transform="matrix(0.95795788,0,0,0.95795788,0.47897894,0.47897894)"
       clip-path="url(#clipPath23)" />
    <path
       id="path24"
       d="m 121,31 h 33.63"
       style="fill:none;stroke:#000000;stroke-width:1;stroke-linecap:butt;stroke-linejoin:miter;stroke-miterlimit:10;stroke-dasharray:none;stroke-opacity:1"
       transform="matrix(0.95795788,0,0,0.95795788,0.47897894,0.47897894)"
       clip-path="url(#clipPath25)" />
    <path
       id="path26"
       d="m 159.88,31 -7,3.5 1.75,-3.5 -1.75,-3.5 z"
       style="fill:#000000;fill-opacity:1;fill-rule:nonzero;stroke:#000000;stroke-width:1;stroke-linecap:butt;stroke-linejoin:miter;stroke-miterlimit:10;stroke-dasharray:none;stroke-opacity:1"
       transform="matrix(0.95795788,0,0,0.95795788,0.47897894,0.47897894)"
       clip-path="url(#clipPath27)" />
    <path
       id="path28"
       d="M 1,1 H 121 V 61 H 1 Z"
       style="fill:#ffffff;fill-opacity:1;fill-rule:nonzero;stroke:#000000;stroke-width:1;stroke-linecap:butt;stroke-linejoin:miter;stroke-miterlimit:10;stroke-dasharray:none;stroke-opacity:1"
       transform="matrix(0.95795788,0,0,0.95795788,0.47897894,0.47897894)"
       clip-path="url(#clipPath29)" />
    <text
       id="text29"
       xml:space="preserve"
       transform="matrix(0.95796748,0,0,0.95796748,11.136372,24.907154)"
       clip-path="url(#clipPath30)"><tspan
         style="font-style:oblique;font-variant:normal;font-weight:normal;font-size:16px;font-family:Helvetica;writing-mode:lr-tb;fill:#000000;fill-opacity:1;fill-rule:nonzero;stroke:none"
         x="0 11.554688 20.453125 29.351562 38.25 47.148438 55.148438 59.59375 63.148438 72.046875 80.945312 85.390625 89.835938"
         y="0"
         sodipodi:role="line"
         id="tspan29">Connection to</tspan></text>
    <text
       id="text30"
       xml:space="preserve"
       transform="matrix(0.95796748,0,0,0.95796748,22.227839,44.066504)"
       clip-path="url(#clipPath31)"><tspan
         style="font-style:oblique;font-variant:normal;font-weight:normal;font-size:16px;font-family:Helvetica;writing-mode:lr-tb;fill:#000000;fill-opacity:1;fill-rule:nonzero;stroke:none"
         x="0 10.671875 23.117188 32.015625 35.570312 40.015625 48.914062 53.359375 64.914062"
         y="0"
         sodipodi:role="line"
         id="tspan30">SQLite DB</tspan></text>
    <path
       id="path32"
       d="m 51,136 h 80 v 60 H 51 Z"
       style="fill:#ffffff;fill-opacity:1;fill-rule:nonzero;stroke:#000000;stroke-width:1;stroke-linecap:butt;stroke-linejoin:miter;stroke-miterlimit:10;stroke-dasharray:none;stroke-opacity:1"
       transform="matrix(0.95795788,0,0,0.95795788,0.47897894,0.47897894)"
       clip-path="url(#clipPath33)" />
    <text
       id="text33"
       xml:space="preserve"
       transform="matrix(0.95796748,0,0,0.95796748,70.994371,154.23276)"
       clip-path="url(#clipPath34)"><tspan
         style="font-variant:normal;font-weight:normal;font-size:16px;font-family:Helvetica;writing-mode:lr-tb;fill:#000000;fill-opacity:1;fill-rule:nonzero;stroke:none"
         x="0 11.554688 19.554688 28.453125"
         y="0"
         sodipodi:role="line"
         id="tspan33">User</tspan></text>
    <text
       id="text34"
       xml:space="preserve"
       transform="matrix(0.95796748,0,0,0.95796748,68.000723,173.39211)"
       clip-path="url(#clipPath35)"><tspan
         style="font-variant:normal;font-weight:normal;font-size:16px;font-family:Helvetica;writing-mode:lr-tb;fill:#000000;fill-opacity:1;fill-rule:nonzero;stroke:none"
         x="0 10.671875 19.570312 24.015625 27.570312 32.015625"
         y="0"
         sodipodi:role="line"
         id="tspan34">Entity</tspan></text>
    <path
       id="path36"
       d="m 139,136 h 80 v 60 h -80 z"
       style="fill:#ffffff;fill-opacity:1;fill-rule:nonzero;stroke:#000000;stroke-width:1;stroke-linecap:butt;stroke-linejoin:miter;stroke-miterlimit:10;stroke-dasharray:none;stroke-opacity:1"
       transform="matrix(0.95795788,0,0,0.95795788,0.47897894,0.47897894)"
       clip-path="url(#clipPath37)" />
    <text
       id="text37"
       xml:space="preserve"
       transform="matrix(0.95796748,0,0,0.95796748,151.46364,154.23276)"
       clip-path="url(#clipPath38)"><tspan
         style="font-variant:normal;font-weight:normal;font-size:16px;font-family:Helvetica;writing-mode:lr-tb;fill:#000000;fill-opacity:1;fill-rule:nonzero;stroke:none"
         x="0 11.554688 19.554688 28.453125 33.78125"
         y="0"
         sodipodi:role="line"
         id="tspan37">Users</tspan></text>
    <text
       id="text38"
       xml:space="preserve"
       transform="matrix(0.95796748,0,0,0.95796748,134.83392,173.39211)"
       clip-path="url(#clipPath39)"><tspan
         style="font-variant:normal;font-weight:normal;font-size:16px;font-family:Helvetica;writing-mode:lr-tb;fill:#000000;fill-opacity:1;fill-rule:nonzero;stroke:none"
         x="0 11.554688 20.453125 29.351562 38.25 46.25 49.804688 54.25 63.148438 68.476562"
         y="0"
         sodipodi:role="line"
         id="tspan38">Repository</tspan></text>
    <path
       id="path40"
       d="m 263.5,136 h 80 v 60 h -80 z"
       style="fill:#ffffff;fill-opacity:1;fill-rule:nonzero;stroke:#000000;stroke-width:1;stroke-linecap:butt;stroke-linejoin:miter;stroke-miterlimit:10;stroke-dasharray:none;stroke-opacity:1"
       transform="matrix(0.95795788,0,0,0.95795788,0.47897894,0.47897894)"
       clip-path="url(#clipPath41)" />
    <text
       id="text41"
       xml:space="preserve"
       transform="matrix(0.95796748,0,0,0.95796748,268.21593,154.23276)"
       clip-path="url(#clipPath42)"><tspan
         style="font-variant:normal;font-weight:normal;font-size:16px;font-family:Helvetica;writing-mode:lr-tb;fill:#000000;fill-opacity:1;fill-rule:nonzero;stroke:none"
         x="0 11.554688 20.453125 29.351562 38.25 43.578125"
         y="0"
         sodipodi:role="line"
         id="tspan41">Report</tspan></text>
    <text
       id="text42"
       xml:space="preserve"
       transform="matrix(0.95796748,0,0,0.95796748,272.0478,173.39211)"
       clip-path="url(#clipPath43)"><tspan
         style="font-variant:normal;font-weight:normal;font-size:16px;font-family:Helvetica;writing-mode:lr-tb;fill:#000000;fill-opacity:1;fill-rule:nonzero;stroke:none"
         x="0 10.671875 19.570312 24.015625 27.570312 32.015625"
         y="0"
         sodipodi:role="line"
         id="tspan42">Entity</tspan></text>
    <path
       id="path44"
       d="m 353.5,136 h 80 v 60 h -80 z"
       style="fill:#ffffff;fill-opacity:1;fill-rule:nonzero;stroke:#000000;stroke-width:1;stroke-linecap:butt;stroke-linejoin:miter;stroke-miterlimit:10;stroke-dasharray:none;stroke-opacity:1"
       transform="matrix(0.95795788,0,0,0.95795788,0.47897894,0.47897894)"
       clip-path="url(#clipPath45)" />
    <text
       id="text45"
       xml:space="preserve"
       transform="matrix(0.95796748,0,0,0.95796748,350.60113,154.23276)"
       clip-path="url(#clipPath46)"><tspan
         style="font-variant:normal;font-weight:normal;font-size:16px;font-family:Helvetica;writing-mode:lr-tb;fill:#000000;fill-opacity:1;fill-rule:nonzero;stroke:none"
         x="0 11.554688 20.453125 29.351562 38.25 43.578125 48.023438"
         y="0"
         sodipodi:role="line"
         id="tspan45">Reports</tspan></text>
    <text
       id="text46"
       xml:space="preserve"
       transform="matrix(0.95796748,0,0,0.95796748,340.79693,173.39211)"
       clip-path="url(#clipPath47)"><tspan
         style="font-variant:normal;font-weight:normal;font-size:16px;font-family:Helvetica;writing-mode:lr-tb;fill:#000000;fill-opacity:1;fill-rule:nonzero;stroke:none"
         x="0 11.554688 20.453125 29.351562 38.25 46.25 49.804688 54.25 63.148438 68.476562"
         y="0"
         sodipodi:role="line"
         id="tspan46">Repository</tspan></text>
    <path
       id="path48"
       d="M 179,226 V 202.37"
       style="fill:none;stroke:#000000;stroke-width:1;stroke-linecap:butt;stroke-linejoin:miter;stroke-miterlimit:10;stroke-dasharray:none;stroke-opacity:1"
       transform="matrix(0.95795788,0,0,0.95795788,0.47897894,0.47897894)"
       clip-path="url(#clipPath49)" />
    <path
       id="path50"
       d="m 179,197.12 3.5,7 -3.5,-1.75 -3.5,1.75 z"
       style="fill:#000000;fill-opacity:1;fill-rule:nonzero;stroke:#000000;stroke-width:1;stroke-linecap:butt;stroke-linejoin:miter;stroke-miterlimit:10;stroke-dasharray:none;stroke-opacity:1"
       transform="matrix(0.95795788,0,0,0.95795788,0.47897894,0.47897894)"
       clip-path="url(#clipPath51)" />
    <g
       id="g51" />
    <text
       id="text51"
       xml:space="preserve"
       transform="matrix(0.95796748,0,0,0.95796748,137.39349,228.95423)"
       clip-path="url(#clipPath52)"><tspan
         style="font-style:oblique;font-variant:normal;font-weight:normal;font-size:10px;font-family:Helvetica;writing-mode:lr-tb;fill:#000000;fill-opacity:1;fill-rule:nonzero;stroke:none"
         x="0 8.3300781 13.891602 16.669922 22.231445 27.792969 33.354492 38.354492 41.132812 43.911133 49.472656 52.250977 57.250977 62.8125 68.374023"
         y="0"
         sodipodi:role="line"
         id="tspan51">Methods to ﬁnd,</tspan></text>
    <text
       id="text52"
       xml:space="preserve"
       transform="matrix(0.95796748,0,0,0.95796748,139.77344,240.44984)"
       clip-path="url(#clipPath53)"><tspan
         style="font-style:oblique;font-variant:normal;font-weight:normal;font-size:10px;font-family:Helvetica;writing-mode:lr-tb;fill:#000000;fill-opacity:1;fill-rule:nonzero;stroke:none"
         x="0 5.5615234 11.123047 16.68457 22.246094 25.024414 30.585938 33.364258 36.142578 41.704102 47.265625 49.487305 55.048828 57.827148 63.388672"
         y="0"
         sodipodi:role="line"
         id="tspan52">update, delete,</tspan></text>
    <text
       id="text53"
       xml:space="preserve"
       transform="matrix(0.95796748,0,0,0.95796748,142.72219,251.94545)"
       clip-path="url(#clipPath54)"><tspan
         style="font-style:oblique;font-variant:normal;font-weight:normal;font-size:10px;font-family:Helvetica;writing-mode:lr-tb;fill:#000000;fill-opacity:1;fill-rule:nonzero;stroke:none"
         x="0 5 8.3300781 13.891602 19.453125 22.231445 27.792969 30.571289 36.132812 38.911133 46.132812 51.132812 56.694336"
         y="0"
         sodipodi:role="line"
         id="tspan53">create a User</tspan></text>
    <path
       id="path55"
       d="M 393.5,226 V 202.37"
       style="fill:none;stroke:#000000;stroke-width:1;stroke-linecap:butt;stroke-linejoin:miter;stroke-miterlimit:10;stroke-dasharray:none;stroke-opacity:1"
       transform="matrix(0.95795788,0,0,0.95795788,0.47897894,0.47897894)"
       clip-path="url(#clipPath56)" />
    <path
       id="path57"
       d="m 393.5,197.12 3.5,7 -3.5,-1.75 -3.5,1.75 z"
       style="fill:#000000;fill-opacity:1;fill-rule:nonzero;stroke:#000000;stroke-width:1;stroke-linecap:butt;stroke-linejoin:miter;stroke-miterlimit:10;stroke-dasharray:none;stroke-opacity:1"
       transform="matrix(0.95795788,0,0,0.95795788,0.47897894,0.47897894)"
       clip-path="url(#clipPath58)" />
    <g
       id="g58" />
    <text
       id="text58"
       xml:space="preserve"
       transform="matrix(0.95796748,0,0,0.95796748,343.35651,228.95423)"
       clip-path="url(#clipPath59)"><tspan
         style="font-style:oblique;font-variant:normal;font-weight:normal;font-size:10px;font-family:Helvetica;writing-mode:lr-tb;fill:#000000;fill-opacity:1;fill-rule:nonzero;stroke:none"
         x="0 8.3300781 13.891602 16.669922 22.231445 27.792969 33.354492 38.354492 41.132812 43.911133 49.472656 52.250977 57.250977 62.8125 68.374023"
         y="0"
         sodipodi:role="line"
         id="tspan58">Methods to ﬁnd,</tspan></text>
    <text
       id="text59"
       xml:space="preserve"
       transform="matrix(0.95796748,0,0,0.95796748,345.73645,240.44984)"
       clip-path="url(#clipPath60)"><tspan
         style="font-style:oblique;font-variant:normal;font-weight:normal;font-size:10px;font-family:Helvetica;writing-mode:lr-tb;fill:#000000;fill-opacity:1;fill-rule:nonzero;stroke:none"
         x="0 5.5615234 11.123047 16.68457 22.246094 25.024414 30.585938 33.364258 36.142578 41.704102 47.265625 49.487305 55.048828 57.827148 63.388672"
         y="0"
         sodipodi:role="line"
         id="tspan59">update, delete,</tspan></text>
    <text
       id="text60"
       xml:space="preserve"
       transform="matrix(0.95796748,0,0,0.95796748,344.41925,251.94545)"
       clip-path="url(#clipPath61)"><tspan
         style="font-style:oblique;font-variant:normal;font-weight:normal;font-size:10px;font-family:Helvetica;writing-mode:lr-tb;fill:#000000;fill-opacity:1;fill-rule:nonzero;stroke:none"
         x="0 5 8.3300781 13.891602 19.453125 22.231445 27.792969 30.571289 36.132812 38.911133 46.132812 51.694336 57.255859 62.817383 66.147461"
         y="0"
         sodipodi:role="line"
         id="tspan60">create a Report</tspan></text>
    <path
       id="path62"
       d="m 91,226 v -20 10 -13.63"
       style="fill:none;stroke:#000000;stroke-width:1;stroke-linecap:butt;stroke-linejoin:miter;stroke-miterlimit:10;stroke-dasharray:none;stroke-opacity:1"
       transform="matrix(0.95795788,0,0,0.95795788,0.47897894,0.47897894)"
       clip-path="url(#clipPath63)" />
    <path
       id="path64"
       d="m 91,197.12 3.5,7 -3.5,-1.75 -3.5,1.75 z"
       style="fill:#000000;fill-opacity:1;fill-rule:nonzero;stroke:#000000;stroke-width:1;stroke-linecap:butt;stroke-linejoin:miter;stroke-miterlimit:10;stroke-dasharray:none;stroke-opacity:1"
       transform="matrix(0.95795788,0,0,0.95795788,0.47897894,0.47897894)"
       clip-path="url(#clipPath65)" />
    <text
       id="text65"
       xml:space="preserve"
       transform="matrix(0.95796748,0,0,0.95796748,50.772276,223.20642)"
       clip-path="url(#clipPath66)"><tspan
         style="font-style:oblique;font-variant:normal;font-weight:normal;font-size:10px;font-family:Helvetica;writing-mode:lr-tb;fill:#000000;fill-opacity:1;fill-rule:nonzero;stroke:none"
         x="0 5.5615234 7.7832031 12.783203 15.561523 20.561523 23.339844 26.118164 31.679688 37.241211 40.019531 45.581055 47.802734 50.405273 53.183594 58.745117 62.075195 67.636719 73.198242"
         y="0"
         sodipodi:role="line"
         id="tspan65">Lists the different</tspan></text>
    <text
       id="text66"
       xml:space="preserve"
       transform="matrix(0.95796748,0,0,0.95796748,52.553497,234.70203)"
       clip-path="url(#clipPath67)"><tspan
         style="font-style:oblique;font-variant:normal;font-weight:normal;font-size:10px;font-family:Helvetica;writing-mode:lr-tb;fill:#000000;fill-opacity:1;fill-rule:nonzero;stroke:none"
         x="0 5.5615234 8.8916016 14.453125 20.014648 25.576172 28.90625 31.68457 33.90625 39.467773 44.467773 47.246094 50.024414 55.585938 61.147461 63.925781 66.704102"
         y="0"
         sodipodi:role="line"
         id="tspan66">properties that a</tspan></text>
    <text
       id="text67"
       xml:space="preserve"
       transform="matrix(0.95796748,0,0,0.95796748,59.753222,246.19764)"
       clip-path="url(#clipPath68)"><tspan
         style="font-style:oblique;font-variant:normal;font-weight:normal;font-size:10px;font-family:Helvetica;writing-mode:lr-tb;fill:#000000;fill-opacity:1;fill-rule:nonzero;stroke:none"
         x="0 7.2216797 12.22168 17.783203 21.113281 23.891602 29.453125 35.014648 40.014648 42.792969 46.123047 51.68457"
         y="0"
         sodipodi:role="line"
         id="tspan67">User has (no</tspan></text>
    <text
       id="text68"
       xml:space="preserve"
       transform="matrix(0.95796748,0,0,0.95796748,60.27711,257.69325)"
       clip-path="url(#clipPath69)"><tspan
         style="font-style:oblique;font-variant:normal;font-weight:normal;font-size:10px;font-family:Helvetica;writing-mode:lr-tb;fill:#000000;fill-opacity:1;fill-rule:nonzero;stroke:none"
         x="0 2.7783203 8.3398438 13.901367 18.901367 21.679688 23.901367 29.462891 35.024414 40.585938 42.807617 45.029297 47.807617 52.807617"
         y="0"
         sodipodi:role="line"
         id="tspan68">functionality)</tspan></text>
    <path
       id="path70"
       d="m 303.5,226 v -20 10 -13.63"
       style="fill:none;stroke:#000000;stroke-width:1;stroke-linecap:butt;stroke-linejoin:miter;stroke-miterlimit:10;stroke-dasharray:none;stroke-opacity:1"
       transform="matrix(0.95795788,0,0,0.95795788,0.47897894,0.47897894)"
       clip-path="url(#clipPath71)" />
    <path
       id="path72"
       d="m 303.5,197.12 3.5,7 -3.5,-1.75 -3.5,1.75 z"
       style="fill:#000000;fill-opacity:1;fill-rule:nonzero;stroke:#000000;stroke-width:1;stroke-linecap:butt;stroke-linejoin:miter;stroke-miterlimit:10;stroke-dasharray:none;stroke-opacity:1"
       transform="matrix(0.95795788,0,0,0.95795788,0.47897894,0.47897894)"
       clip-path="url(#clipPath73)" />
    <text
       id="text73"
       xml:space="preserve"
       transform="matrix(0.95796748,0,0,0.95796748,254.81935,223.20642)"
       clip-path="url(#clipPath74)"><tspan
         style="font-style:oblique;font-variant:normal;font-weight:normal;font-size:10px;font-family:Helvetica;writing-mode:lr-tb;fill:#000000;fill-opacity:1;fill-rule:nonzero;stroke:none"
         x="0 5.5615234 7.7832031 12.783203 15.561523 20.561523 23.339844 26.118164 31.679688 37.241211 40.019531 45.581055 47.802734 50.405273 53.183594 58.745117 62.075195 67.636719 73.198242"
         y="0"
         sodipodi:role="line"
         id="tspan73">Lists the different</tspan></text>
    <text
       id="text74"
       xml:space="preserve"
       transform="matrix(0.95796748,0,0,0.95796748,256.60058,234.70203)"
       clip-path="url(#clipPath75)"><tspan
         style="font-style:oblique;font-variant:normal;font-weight:normal;font-size:10px;font-family:Helvetica;writing-mode:lr-tb;fill:#000000;fill-opacity:1;fill-rule:nonzero;stroke:none"
         x="0 5.5615234 8.8916016 14.453125 20.014648 25.576172 28.90625 31.68457 33.90625 39.467773 44.467773 47.246094 50.024414 55.585938 61.147461 63.925781 66.704102"
         y="0"
         sodipodi:role="line"
         id="tspan74">properties that a</tspan></text>
    <text
       id="text75"
       xml:space="preserve"
       transform="matrix(0.95796748,0,0,0.95796748,259.53435,246.19764)"
       clip-path="url(#clipPath76)"><tspan
         style="font-style:oblique;font-variant:normal;font-weight:normal;font-size:10px;font-family:Helvetica;writing-mode:lr-tb;fill:#000000;fill-opacity:1;fill-rule:nonzero;stroke:none"
         x="0 7.2216797 12.783203 18.344727 23.90625 27.236328 30.014648 32.792969 38.354492 43.916016 48.916016 51.694336 55.024414 60.585938"
         y="0"
         sodipodi:role="line"
         id="tspan75">Report has (no</tspan></text>
    <text
       id="text76"
       xml:space="preserve"
       transform="matrix(0.95796748,0,0,0.95796748,264.32419,257.69325)"
       clip-path="url(#clipPath77)"><tspan
         style="font-style:oblique;font-variant:normal;font-weight:normal;font-size:10px;font-family:Helvetica;writing-mode:lr-tb;fill:#000000;fill-opacity:1;fill-rule:nonzero;stroke:none"
         x="0 2.7783203 8.3398438 13.901367 18.901367 21.679688 23.901367 29.462891 35.024414 40.585938 42.807617 45.029297 47.807617 52.807617"
         y="0"
         sodipodi:role="line"
         id="tspan76">functionality)</tspan></text>
  </g>
</svg>
