<?xml version="1.0" encoding="UTF-8" standalone="no"?>
<!-- Created with Inkscape (http://www.inkscape.org/) -->

<svg
   version="1.1"
   id="svg1"
   width="348.16"
   height="216"
   viewBox="0 0 348.16 216"
   sodipodi:docname="nest-2.pdf"
   xmlns:inkscape="http://www.inkscape.org/namespaces/inkscape"
   xmlns:sodipodi="http://sodipodi.sourceforge.net/DTD/sodipodi-0.dtd"
   xmlns="http://www.w3.org/2000/svg"
   xmlns:svg="http://www.w3.org/2000/svg">
  <defs
     id="defs1">
    <clipPath
       clipPathUnits="userSpaceOnUse"
       id="clipPath2">
      <path
         d="M 0,0 H 1087.5 V 672.21838 H 0 Z"
         transform="scale(0.33471265)"
         clip-rule="evenodd"
         id="path2" />
    </clipPath>
    <clipPath
       clipPathUnits="userSpaceOnUse"
       id="clipPath4">
      <path
         d="M 0,0 H 1087.5 V 669.23077 H 0 Z"
         transform="matrix(0.33471265,0,0,0.33471265,-0.49999999,-0.49999999)"
         clip-rule="evenodd"
         id="path4" />
    </clipPath>
    <clipPath
       clipPathUnits="userSpaceOnUse"
       id="clipPath5">
      <path
         d="M 0,0 H 1087.5 V 669.23077 H 0 Z"
         transform="matrix(0.33470931,0,0,0.33470931,-49.65625,-75)"
         clip-rule="evenodd"
         id="path5" />
    </clipPath>
    <clipPath
       clipPathUnits="userSpaceOnUse"
       id="clipPath7">
      <path
         d="M 0,0 H 1087.5 V 669.23077 H 0 Z"
         transform="matrix(0.33471265,0,0,0.33471265,-0.49999999,-0.49999999)"
         clip-rule="evenodd"
         id="path7" />
    </clipPath>
    <clipPath
       clipPathUnits="userSpaceOnUse"
       id="clipPath8">
      <path
         d="M 0,0 H 1087.5 V 669.23077 H 0 Z"
         transform="matrix(0.33470931,0,0,0.33470931,-176.0625,-25)"
         clip-rule="evenodd"
         id="path8" />
    </clipPath>
    <clipPath
       clipPathUnits="userSpaceOnUse"
       id="clipPath10">
      <path
         d="M 0,0 H 1087.5 V 669.23077 H 0 Z"
         transform="matrix(0.33471265,0,0,0.33471265,-0.49999999,-0.49999999)"
         clip-rule="evenodd"
         id="path10" />
    </clipPath>
    <clipPath
       clipPathUnits="userSpaceOnUse"
       id="clipPath11">
      <path
         d="M 0,0 H 1087.5 V 669.23077 H 0 Z"
         transform="matrix(0.33470931,0,0,0.33470931,-171.95313,-75)"
         clip-rule="evenodd"
         id="path11" />
    </clipPath>
    <clipPath
       clipPathUnits="userSpaceOnUse"
       id="clipPath13">
      <path
         d="M 0,0 H 1087.5 V 669.23077 H 0 Z"
         transform="matrix(0.33471265,0,0,0.33471265,-0.49999999,-0.49999999)"
         clip-rule="evenodd"
         id="path13" />
    </clipPath>
    <clipPath
       clipPathUnits="userSpaceOnUse"
       id="clipPath14">
      <path
         d="M 0,0 H 1087.5 V 669.23077 H 0 Z"
         transform="matrix(0.33470931,0,0,0.33470931,-181.28125,-125)"
         clip-rule="evenodd"
         id="path14" />
    </clipPath>
    <clipPath
       clipPathUnits="userSpaceOnUse"
       id="clipPath16">
      <path
         d="M 0,0 H 1087.5 V 669.23077 H 0 Z"
         transform="matrix(0.33471265,0,0,0.33471265,-0.49999999,-0.49999999)"
         clip-rule="evenodd"
         id="path16" />
    </clipPath>
    <clipPath
       clipPathUnits="userSpaceOnUse"
       id="clipPath18">
      <path
         d="M 0,0 H 1087.5 V 669.23077 H 0 Z"
         transform="matrix(0.33471265,0,0,0.33471265,-0.49999999,-0.49999999)"
         clip-rule="evenodd"
         id="path18" />
    </clipPath>
    <clipPath
       clipPathUnits="userSpaceOnUse"
       id="clipPath19">
      <path
         d="M 0,0 H 1087.5 V 669.23077 H 0 Z"
         transform="matrix(0.33470931,0,0,0.33470931,-14.734375,-181)"
         clip-rule="evenodd"
         id="path19" />
    </clipPath>
    <clipPath
       clipPathUnits="userSpaceOnUse"
       id="clipPath20">
      <path
         d="M 0,0 H 1087.5 V 669.23077 H 0 Z"
         transform="matrix(0.33470931,0,0,0.33470931,-14.3125,-201)"
         clip-rule="evenodd"
         id="path20" />
    </clipPath>
    <clipPath
       clipPathUnits="userSpaceOnUse"
       id="clipPath22">
      <path
         d="M 0,0 H 1087.5 V 669.23077 H 0 Z"
         transform="matrix(0.33471265,0,0,0.33471265,-0.49999999,-0.49999999)"
         clip-rule="evenodd"
         id="path22" />
    </clipPath>
    <clipPath
       clipPathUnits="userSpaceOnUse"
       id="clipPath23">
      <path
         d="M 0,0 H 1087.5 V 669.23077 H 0 Z"
         transform="matrix(0.33470931,0,0,0.33470931,-234.3125,-181)"
         clip-rule="evenodd"
         id="path23" />
    </clipPath>
    <clipPath
       clipPathUnits="userSpaceOnUse"
       id="clipPath24">
      <path
         d="M 0,0 H 1087.5 V 669.23077 H 0 Z"
         transform="matrix(0.33470931,0,0,0.33470931,-230.29688,-201)"
         clip-rule="evenodd"
         id="path24" />
    </clipPath>
  </defs>
  <sodipodi:namedview
     id="namedview1"
     pagecolor="#ffffff"
     bordercolor="#000000"
     borderopacity="0.25"
     inkscape:showpageshadow="2"
     inkscape:pageopacity="0.0"
     inkscape:pagecheckerboard="0"
     inkscape:deskcolor="#d1d1d1">
    <inkscape:page
       x="0"
       y="0"
       inkscape:label="1"
       id="page1"
       width="348.16"
       height="216"
       margin="0"
       bleed="0" />
  </sodipodi:namedview>
  <g
     id="g1"
     inkscape:groupmode="layer"
     inkscape:label="1">
    <path
       id="path1"
       d="M 0,0 H 364 V 225 H 0 Z"
       style="fill:#ffffff;fill-opacity:1;fill-rule:nonzero;stroke:none"
       transform="scale(0.9560439)"
       clip-path="url(#clipPath2)" />
    <path
       id="path3"
       d="m 31,51 h 90 V 91 H 31 Z"
       style="fill:#ffffff;fill-opacity:1;fill-rule:nonzero;stroke:#000000;stroke-width:1;stroke-linecap:butt;stroke-linejoin:miter;stroke-miterlimit:10;stroke-dasharray:none;stroke-opacity:1"
       transform="matrix(0.9560439,0,0,0.9560439,0.47802194,0.47802194)"
       clip-path="url(#clipPath4)" />
    <text
       id="text4"
       xml:space="preserve"
       transform="matrix(0.95605343,0,0,0.95605343,47.474028,71.704007)"
       clip-path="url(#clipPath5)"><tspan
         style="font-variant:normal;font-weight:normal;font-size:12px;font-family:Helvetica;writing-mode:lr-tb;fill:#000000;fill-opacity:1;fill-rule:nonzero;stroke:none"
         x="0 8.6660156 14.666016 21.339844 25.335938 28.013672 36.017578 44.021484"
         y="0"
         sodipodi:role="line"
         id="tspan4">User ABC</tspan></text>
    <path
       id="path6"
       d="M 161,1 H 361 V 41 H 161 Z"
       style="fill:#ffffff;fill-opacity:1;fill-rule:nonzero;stroke:#000000;stroke-width:1;stroke-linecap:butt;stroke-linejoin:miter;stroke-miterlimit:10;stroke-dasharray:none;stroke-opacity:1"
       transform="matrix(0.9560439,0,0,0.9560439,0.47802194,0.47802194)"
       clip-path="url(#clipPath7)" />
    <text
       id="text7"
       xml:space="preserve"
       transform="matrix(0.95605343,0,0,0.95605343,168.32516,23.901336)"
       clip-path="url(#clipPath8)"><tspan
         style="font-variant:normal;font-weight:normal;font-size:12px;font-family:Helvetica;writing-mode:lr-tb;fill:#000000;fill-opacity:1;fill-rule:nonzero;stroke:none"
         x="0 8.6660156 15.339844 22.013672 28.6875 32.683594 36.017578 39.351562 42.685547 49.359375 53.355469 56.689453 62.689453 69.363281 72.029297 74.695312 77.361328 84.035156 90.708984 94.042969 100.7168 103.83984 109.83984 116.51367 122.51367 129.1875 132.52148 139.19531 142.5293 150.5332 154.5293 157.19531 163.86914"
         y="0"
         sodipodi:role="line"
         id="tspan7">Report for selling a Toyota Prius</tspan></text>
    <path
       id="path9"
       d="M 161,51 H 361 V 91 H 161 Z"
       style="fill:#ffffff;fill-opacity:1;fill-rule:nonzero;stroke:#000000;stroke-width:1;stroke-linecap:butt;stroke-linejoin:miter;stroke-miterlimit:10;stroke-dasharray:none;stroke-opacity:1"
       transform="matrix(0.9560439,0,0,0.9560439,0.47802194,0.47802194)"
       clip-path="url(#clipPath10)" />
    <text
       id="text10"
       xml:space="preserve"
       transform="matrix(0.95605343,0,0,0.95605343,164.39638,71.704007)"
       clip-path="url(#clipPath11)"><tspan
         style="font-variant:normal;font-weight:normal;font-size:12px;font-family:Helvetica;writing-mode:lr-tb;fill:#000000;fill-opacity:1;fill-rule:nonzero;stroke:none"
         x="0 8.6660156 15.339844 22.013672 28.6875 32.683594 36.017578 39.351562 42.685547 49.359375 53.355469 56.689453 62.689453 69.363281 72.029297 74.695312 77.361328 84.035156 90.708984 94.042969 100.7168 104.05078 111.38086 118.05469 122.05078 128.72461 132.05859 142.05469 148.72852 154.72852 158.0625 164.73633 171.41016"
         y="0"
         sodipodi:role="line"
         id="tspan10">Report for selling a Ford Mustang</tspan></text>
    <path
       id="path12"
       d="m 161,101 h 200 v 40 H 161 Z"
       style="fill:#ffffff;fill-opacity:1;fill-rule:nonzero;stroke:#000000;stroke-width:1;stroke-linecap:butt;stroke-linejoin:miter;stroke-miterlimit:10;stroke-dasharray:none;stroke-opacity:1"
       transform="matrix(0.9560439,0,0,0.9560439,0.47802194,0.47802194)"
       clip-path="url(#clipPath13)" />
    <text
       id="text13"
       xml:space="preserve"
       transform="matrix(0.95605343,0,0,0.95605343,173.31456,119.50668)"
       clip-path="url(#clipPath14)"><tspan
         style="font-variant:normal;font-weight:normal;font-size:12px;font-family:Helvetica;writing-mode:lr-tb;fill:#000000;fill-opacity:1;fill-rule:nonzero;stroke:none"
         x="0 8.6660156 15.339844 22.013672 28.6875 32.683594 36.017578 39.351562 42.685547 49.359375 53.355469 56.689453 62.689453 69.363281 72.029297 74.695312 77.361328 84.035156 90.708984 94.042969 100.7168 104.05078 111.38086 118.05469 122.05078 128.72461 132.05859 139.38867 146.0625 152.73633"
         y="0"
         sodipodi:role="line"
         id="tspan13">Report for selling a Ford F150</tspan></text>
    <path
       id="path15"
       d="m 151,1 h -7.5 c -5,0 -7.5,3.333333 -7.5,10 v 50 c 0,6.666664 -2.5,10 -7.5,10 h -3.75 c -2.5,0 -1.25,0 3.75,0 h 3.75 c 2.5,0 3.75,3.333336 3.75,10 v 50 c 0,6.66667 2.5,10 7.5,10 h 7.5"
       style="fill:none;stroke:#000000;stroke-width:1;stroke-linecap:butt;stroke-linejoin:miter;stroke-miterlimit:10;stroke-dasharray:none;stroke-opacity:1"
       transform="matrix(0.9560439,0,0,0.9560439,0.47802194,0.47802194)"
       clip-path="url(#clipPath16)" />
    <path
       id="path17"
       d="m 1,151 h 120 v 70 H 1 Z"
       style="fill:#dae8fc;fill-opacity:1;fill-rule:nonzero;stroke:#6c8ebf;stroke-width:1;stroke-linecap:butt;stroke-linejoin:miter;stroke-miterlimit:10;stroke-dasharray:none;stroke-opacity:1"
       transform="matrix(0.9560439,0,0,0.9560439,0.47802194,0.47802194)"
       clip-path="url(#clipPath18)" />
    <text
       id="text18"
       xml:space="preserve"
       transform="matrix(0.95605343,0,0,0.95605343,14.08685,173.04567)"
       clip-path="url(#clipPath19)"><tspan
         style="font-variant:normal;font-weight:normal;font-size:16px;font-family:Helvetica;writing-mode:lr-tb;fill:#000000;fill-opacity:1;fill-rule:nonzero;stroke:none"
         x="0 8.8984375 17.796875 26.695312 31.140625 40.039062 48.039062 56.9375 62.265625 66.710938 75.609375 84.507812"
         y="0"
         sodipodi:role="line"
         id="tspan18">one user has</tspan></text>
    <text
       id="text19"
       xml:space="preserve"
       transform="matrix(0.95605343,0,0,0.95605343,13.683515,192.16674)"
       clip-path="url(#clipPath20)"><tspan
         style="font-variant:normal;font-weight:normal;font-size:16px;font-family:Helvetica;writing-mode:lr-tb;fill:#000000;fill-opacity:1;fill-rule:nonzero;stroke:none"
         x="0 13.328125 22.226562 31.125 39.125 43.570312 48.898438 57.796875 66.695312 75.59375 80.921875 85.367188"
         y="0"
         sodipodi:role="line"
         id="tspan19">many reports</tspan></text>
    <path
       id="path21"
       d="m 221,151 h 120 v 70 H 221 Z"
       style="fill:#dae8fc;fill-opacity:1;fill-rule:nonzero;stroke:#6c8ebf;stroke-width:1;stroke-linecap:butt;stroke-linejoin:miter;stroke-miterlimit:10;stroke-dasharray:none;stroke-opacity:1"
       transform="matrix(0.9560439,0,0,0.9560439,0.47802194,0.47802194)"
       clip-path="url(#clipPath22)" />
    <text
       id="text22"
       xml:space="preserve"
       transform="matrix(0.95605343,0,0,0.95605343,224.01527,173.04567)"
       clip-path="url(#clipPath23)"><tspan
         style="font-variant:normal;font-weight:normal;font-size:16px;font-family:Helvetica;writing-mode:lr-tb;fill:#000000;fill-opacity:1;fill-rule:nonzero;stroke:none"
         x="0 13.328125 22.226562 31.125 39.125 43.570312 48.898438 57.796875 66.695312 75.59375 80.921875 85.367188"
         y="0"
         sodipodi:role="line"
         id="tspan22">many reports</tspan></text>
    <text
       id="text23"
       xml:space="preserve"
       transform="matrix(0.95605343,0,0,0.95605343,220.17612,192.16674)"
       clip-path="url(#clipPath24)"><tspan
         style="font-variant:normal;font-weight:normal;font-size:16px;font-family:Helvetica;writing-mode:lr-tb;fill:#000000;fill-opacity:1;fill-rule:nonzero;stroke:none"
         x="0 8.8984375 17.796875 25.796875 34.695312 39.140625 48.039062 56.9375 65.835938 70.28125 79.179688 87.179688 96.078125"
         y="0"
         sodipodi:role="line"
         id="tspan23">have one user</tspan></text>
  </g>
</svg>
