<?xml version="1.0" encoding="UTF-8" standalone="no"?>
<!-- Created with Inkscape (http://www.inkscape.org/) -->

<svg
   version="1.1"
   id="svg1"
   width="381.44"
   height="312"
   viewBox="0 0 381.44 312"
   sodipodi:docname="nest-5.pdf"
   xmlns:inkscape="http://www.inkscape.org/namespaces/inkscape"
   xmlns:sodipodi="http://sodipodi.sourceforge.net/DTD/sodipodi-0.dtd"
   xmlns="http://www.w3.org/2000/svg"
   xmlns:svg="http://www.w3.org/2000/svg">
  <defs
     id="defs1">
    <clipPath
       clipPathUnits="userSpaceOnUse"
       id="clipPath2">
      <path
         d="M 0,0 H 1191.6665 V 973.09454 H 0 Z"
         transform="scale(0.33398605)"
         clip-rule="evenodd"
         id="path2" />
    </clipPath>
    <clipPath
       clipPathUnits="userSpaceOnUse"
       id="clipPath4">
      <path
         d="M 0,0 H 1191.6665 V 970.1004 H 0 Z"
         transform="matrix(0.33398605,0,0,0.33398605,-0.50000001,-0.50000001)"
         clip-rule="evenodd"
         id="path4" />
    </clipPath>
    <clipPath
       clipPathUnits="userSpaceOnUse"
       id="clipPath5">
      <path
         d="M 0,0 H 1191.6665 V 970.1004 H 0 Z"
         transform="matrix(0.3339827,0,0,0.3339827,-95.265625,-17)"
         clip-rule="evenodd"
         id="path5" />
    </clipPath>
    <clipPath
       clipPathUnits="userSpaceOnUse"
       id="clipPath7">
      <path
         d="M 0,0 H 1191.6665 V 970.1004 H 0 Z"
         transform="matrix(0.33398605,0,0,0.33398605,-0.50000001,-0.50000001)"
         clip-rule="evenodd"
         id="path7" />
    </clipPath>
    <clipPath
       clipPathUnits="userSpaceOnUse"
       id="clipPath9">
      <path
         d="M 0,0 H 1191.6665 V 970.1004 H 0 Z"
         transform="matrix(0.33398605,0,0,0.33398605,-0.50000001,-0.50000001)"
         clip-rule="evenodd"
         id="path9" />
    </clipPath>
    <clipPath
       clipPathUnits="userSpaceOnUse"
       id="clipPath11">
      <path
         d="M 0,0 H 1191.6665 V 970.1004 H 0 Z"
         transform="matrix(0.33398605,0,0,0.33398605,-0.50000001,-0.50000001)"
         clip-rule="evenodd"
         id="path11" />
    </clipPath>
    <clipPath
       clipPathUnits="userSpaceOnUse"
       id="clipPath13">
      <path
         d="M 0,0 H 1191.6665 V 970.1004 H 0 Z"
         transform="matrix(0.33398605,0,0,0.33398605,-0.50000001,-0.50000001)"
         clip-rule="evenodd"
         id="path13" />
    </clipPath>
    <clipPath
       clipPathUnits="userSpaceOnUse"
       id="clipPath14">
      <path
         d="M 0,0 H 1191.6665 V 970.1004 H 0 Z"
         transform="matrix(0.3339827,0,0,0.3339827,-98.062501,-47)"
         clip-rule="evenodd"
         id="path14" />
    </clipPath>
    <clipPath
       clipPathUnits="userSpaceOnUse"
       id="clipPath16">
      <path
         d="M 0,0 H 1191.6665 V 970.1004 H 0 Z"
         transform="matrix(0.33398605,0,0,0.33398605,-0.50000001,-0.50000001)"
         clip-rule="evenodd"
         id="path16" />
    </clipPath>
    <clipPath
       clipPathUnits="userSpaceOnUse"
       id="clipPath17">
      <path
         d="M 0,0 H 1191.6665 V 970.1004 H 0 Z"
         transform="matrix(0.3339827,0,0,0.3339827,-71.703125,-63)"
         clip-rule="evenodd"
         id="path17" />
    </clipPath>
    <clipPath
       clipPathUnits="userSpaceOnUse"
       id="clipPath18">
      <path
         d="M 0,0 H 1191.6665 V 970.1004 H 0 Z"
         transform="matrix(0.3339827,0,0,0.3339827,-57.34375,-77)"
         clip-rule="evenodd"
         id="path18" />
    </clipPath>
    <clipPath
       clipPathUnits="userSpaceOnUse"
       id="clipPath20">
      <path
         d="M 0,0 H 1191.6665 V 970.1004 H 0 Z"
         transform="matrix(0.33398605,0,0,0.33398605,-0.50000001,-0.50000001)"
         clip-rule="evenodd"
         id="path20" />
    </clipPath>
    <clipPath
       clipPathUnits="userSpaceOnUse"
       id="clipPath21">
      <path
         d="M 0,0 H 1191.6665 V 970.1004 H 0 Z"
         transform="matrix(0.3339827,0,0,0.3339827,-122.84375,-63)"
         clip-rule="evenodd"
         id="path21" />
    </clipPath>
    <clipPath
       clipPathUnits="userSpaceOnUse"
       id="clipPath22">
      <path
         d="M 0,0 H 1191.6665 V 970.1004 H 0 Z"
         transform="matrix(0.3339827,0,0,0.3339827,-122.54688,-77)"
         clip-rule="evenodd"
         id="path22" />
    </clipPath>
    <clipPath
       clipPathUnits="userSpaceOnUse"
       id="clipPath24">
      <path
         d="M 0,0 H 1191.6665 V 970.1004 H 0 Z"
         transform="matrix(0.33398605,0,0,0.33398605,-0.50000001,-0.50000001)"
         clip-rule="evenodd"
         id="path24" />
    </clipPath>
    <clipPath
       clipPathUnits="userSpaceOnUse"
       id="clipPath25">
      <path
         d="M 0,0 H 1191.6665 V 970.1004 H 0 Z"
         transform="matrix(0.3339827,0,0,0.3339827,-72.9375,-95)"
         clip-rule="evenodd"
         id="path25" />
    </clipPath>
    <clipPath
       clipPathUnits="userSpaceOnUse"
       id="clipPath27">
      <path
         d="M 0,0 H 1191.6665 V 970.1004 H 0 Z"
         transform="matrix(0.33398605,0,0,0.33398605,-0.50000001,-0.50000001)"
         clip-rule="evenodd"
         id="path27" />
    </clipPath>
    <clipPath
       clipPathUnits="userSpaceOnUse"
       id="clipPath28">
      <path
         d="M 0,0 H 1191.6665 V 970.1004 H 0 Z"
         transform="matrix(0.3339827,0,0,0.3339827,-118.8125,-94.000001)"
         clip-rule="evenodd"
         id="path28" />
    </clipPath>
    <clipPath
       clipPathUnits="userSpaceOnUse"
       id="clipPath30">
      <path
         d="M 0,0 H 1191.6665 V 970.1004 H 0 Z"
         transform="matrix(0.33398605,0,0,0.33398605,-0.50000001,-0.50000001)"
         clip-rule="evenodd"
         id="path30" />
    </clipPath>
    <clipPath
       clipPathUnits="userSpaceOnUse"
       id="clipPath31">
      <path
         d="M 0,0 H 1191.6665 V 970.1004 H 0 Z"
         transform="matrix(0.3339827,0,0,0.3339827,-72.9375,-115)"
         clip-rule="evenodd"
         id="path31" />
    </clipPath>
    <clipPath
       clipPathUnits="userSpaceOnUse"
       id="clipPath33">
      <path
         d="M 0,0 H 1191.6665 V 970.1004 H 0 Z"
         transform="matrix(0.33398605,0,0,0.33398605,-0.50000001,-0.50000001)"
         clip-rule="evenodd"
         id="path33" />
    </clipPath>
    <clipPath
       clipPathUnits="userSpaceOnUse"
       id="clipPath34">
      <path
         d="M 0,0 H 1191.6665 V 970.1004 H 0 Z"
         transform="matrix(0.3339827,0,0,0.3339827,-118.8125,-114)"
         clip-rule="evenodd"
         id="path34" />
    </clipPath>
    <clipPath
       clipPathUnits="userSpaceOnUse"
       id="clipPath36">
      <path
         d="M 0,0 H 1191.6665 V 970.1004 H 0 Z"
         transform="matrix(0.33398605,0,0,0.33398605,-0.50000001,-0.50000001)"
         clip-rule="evenodd"
         id="path36" />
    </clipPath>
    <clipPath
       clipPathUnits="userSpaceOnUse"
       id="clipPath37">
      <path
         d="M 0,0 H 1191.6665 V 970.1004 H 0 Z"
         transform="matrix(0.3339827,0,0,0.3339827,-182.45313,-63)"
         clip-rule="evenodd"
         id="path37" />
    </clipPath>
    <clipPath
       clipPathUnits="userSpaceOnUse"
       id="clipPath38">
      <path
         d="M 0,0 H 1191.6665 V 970.1004 H 0 Z"
         transform="matrix(0.3339827,0,0,0.3339827,-192.53125,-77)"
         clip-rule="evenodd"
         id="path38" />
    </clipPath>
    <clipPath
       clipPathUnits="userSpaceOnUse"
       id="clipPath40">
      <path
         d="M 0,0 H 1191.6665 V 970.1004 H 0 Z"
         transform="matrix(0.33398605,0,0,0.33398605,-0.50000001,-0.50000001)"
         clip-rule="evenodd"
         id="path40" />
    </clipPath>
    <clipPath
       clipPathUnits="userSpaceOnUse"
       id="clipPath41">
      <path
         d="M 0,0 H 1191.6665 V 970.1004 H 0 Z"
         transform="matrix(0.3339827,0,0,0.3339827,-198.4375,-94.000001)"
         clip-rule="evenodd"
         id="path41" />
    </clipPath>
    <clipPath
       clipPathUnits="userSpaceOnUse"
       id="clipPath43">
      <path
         d="M 0,0 H 1191.6665 V 970.1004 H 0 Z"
         transform="matrix(0.33398605,0,0,0.33398605,-0.50000001,-0.50000001)"
         clip-rule="evenodd"
         id="path43" />
    </clipPath>
    <clipPath
       clipPathUnits="userSpaceOnUse"
       id="clipPath44">
      <path
         d="M 0,0 H 1191.6665 V 970.1004 H 0 Z"
         transform="matrix(0.3339827,0,0,0.3339827,-198.4375,-114)"
         clip-rule="evenodd"
         id="path44" />
    </clipPath>
    <clipPath
       clipPathUnits="userSpaceOnUse"
       id="clipPath46">
      <path
         d="M 0,0 H 1191.6665 V 970.1004 H 0 Z"
         transform="matrix(0.33398605,0,0,0.33398605,-0.50000001,-0.50000001)"
         clip-rule="evenodd"
         id="path46" />
    </clipPath>
    <clipPath
       clipPathUnits="userSpaceOnUse"
       id="clipPath47">
      <path
         d="M 0,0 H 1191.6665 V 970.1004 H 0 Z"
         transform="matrix(0.3339827,0,0,0.3339827,-95.265625,-207)"
         clip-rule="evenodd"
         id="path47" />
    </clipPath>
    <clipPath
       clipPathUnits="userSpaceOnUse"
       id="clipPath49">
      <path
         d="M 0,0 H 1191.6665 V 970.1004 H 0 Z"
         transform="matrix(0.33398605,0,0,0.33398605,-0.50000001,-0.50000001)"
         clip-rule="evenodd"
         id="path49" />
    </clipPath>
    <clipPath
       clipPathUnits="userSpaceOnUse"
       id="clipPath51">
      <path
         d="M 0,0 H 1191.6665 V 970.1004 H 0 Z"
         transform="matrix(0.33398605,0,0,0.33398605,-0.50000001,-0.50000001)"
         clip-rule="evenodd"
         id="path51" />
    </clipPath>
    <clipPath
       clipPathUnits="userSpaceOnUse"
       id="clipPath52">
      <path
         d="M 0,0 H 1191.6665 V 970.1004 H 0 Z"
         transform="matrix(0.3339827,0,0,0.3339827,-98.5625,-237)"
         clip-rule="evenodd"
         id="path52" />
    </clipPath>
    <clipPath
       clipPathUnits="userSpaceOnUse"
       id="clipPath54">
      <path
         d="M 0,0 H 1191.6665 V 970.1004 H 0 Z"
         transform="matrix(0.33398605,0,0,0.33398605,-0.50000001,-0.50000001)"
         clip-rule="evenodd"
         id="path54" />
    </clipPath>
    <clipPath
       clipPathUnits="userSpaceOnUse"
       id="clipPath55">
      <path
         d="M 0,0 H 1191.6665 V 970.1004 H 0 Z"
         transform="matrix(0.3339827,0,0,0.3339827,-36.703125,-253)"
         clip-rule="evenodd"
         id="path55" />
    </clipPath>
    <clipPath
       clipPathUnits="userSpaceOnUse"
       id="clipPath56">
      <path
         d="M 0,0 H 1191.6665 V 970.1004 H 0 Z"
         transform="matrix(0.3339827,0,0,0.3339827,-22.34375,-267)"
         clip-rule="evenodd"
         id="path56" />
    </clipPath>
    <clipPath
       clipPathUnits="userSpaceOnUse"
       id="clipPath58">
      <path
         d="M 0,0 H 1191.6665 V 970.1004 H 0 Z"
         transform="matrix(0.33398605,0,0,0.33398605,-0.50000001,-0.50000001)"
         clip-rule="evenodd"
         id="path58" />
    </clipPath>
    <clipPath
       clipPathUnits="userSpaceOnUse"
       id="clipPath59">
      <path
         d="M 0,0 H 1191.6665 V 970.1004 H 0 Z"
         transform="matrix(0.3339827,0,0,0.3339827,-87.843751,-253)"
         clip-rule="evenodd"
         id="path59" />
    </clipPath>
    <clipPath
       clipPathUnits="userSpaceOnUse"
       id="clipPath60">
      <path
         d="M 0,0 H 1191.6665 V 970.1004 H 0 Z"
         transform="matrix(0.3339827,0,0,0.3339827,-87.546875,-267)"
         clip-rule="evenodd"
         id="path60" />
    </clipPath>
    <clipPath
       clipPathUnits="userSpaceOnUse"
       id="clipPath62">
      <path
         d="M 0,0 H 1191.6665 V 970.1004 H 0 Z"
         transform="matrix(0.33398605,0,0,0.33398605,-0.50000001,-0.50000001)"
         clip-rule="evenodd"
         id="path62" />
    </clipPath>
    <clipPath
       clipPathUnits="userSpaceOnUse"
       id="clipPath63">
      <path
         d="M 0,0 H 1191.6665 V 970.1004 H 0 Z"
         transform="matrix(0.3339827,0,0,0.3339827,-37.9375,-285)"
         clip-rule="evenodd"
         id="path63" />
    </clipPath>
    <clipPath
       clipPathUnits="userSpaceOnUse"
       id="clipPath65">
      <path
         d="M 0,0 H 1191.6665 V 970.1004 H 0 Z"
         transform="matrix(0.33398605,0,0,0.33398605,-0.50000001,-0.50000001)"
         clip-rule="evenodd"
         id="path65" />
    </clipPath>
    <clipPath
       clipPathUnits="userSpaceOnUse"
       id="clipPath66">
      <path
         d="M 0,0 H 1191.6665 V 970.1004 H 0 Z"
         transform="matrix(0.3339827,0,0,0.3339827,-83.8125,-284)"
         clip-rule="evenodd"
         id="path66" />
    </clipPath>
    <clipPath
       clipPathUnits="userSpaceOnUse"
       id="clipPath68">
      <path
         d="M 0,0 H 1191.6665 V 970.1004 H 0 Z"
         transform="matrix(0.33398605,0,0,0.33398605,-0.50000001,-0.50000001)"
         clip-rule="evenodd"
         id="path68" />
    </clipPath>
    <clipPath
       clipPathUnits="userSpaceOnUse"
       id="clipPath69">
      <path
         d="M 0,0 H 1191.6665 V 970.1004 H 0 Z"
         transform="matrix(0.3339827,0,0,0.3339827,-37.9375,-305)"
         clip-rule="evenodd"
         id="path69" />
    </clipPath>
    <clipPath
       clipPathUnits="userSpaceOnUse"
       id="clipPath71">
      <path
         d="M 0,0 H 1191.6665 V 970.1004 H 0 Z"
         transform="matrix(0.33398605,0,0,0.33398605,-0.50000001,-0.50000001)"
         clip-rule="evenodd"
         id="path71" />
    </clipPath>
    <clipPath
       clipPathUnits="userSpaceOnUse"
       id="clipPath72">
      <path
         d="M 0,0 H 1191.6665 V 970.1004 H 0 Z"
         transform="matrix(0.3339827,0,0,0.3339827,-83.8125,-304)"
         clip-rule="evenodd"
         id="path72" />
    </clipPath>
    <clipPath
       clipPathUnits="userSpaceOnUse"
       id="clipPath74">
      <path
         d="M 0,0 H 1191.6665 V 970.1004 H 0 Z"
         transform="matrix(0.33398605,0,0,0.33398605,-0.50000001,-0.50000001)"
         clip-rule="evenodd"
         id="path74" />
    </clipPath>
    <clipPath
       clipPathUnits="userSpaceOnUse"
       id="clipPath75">
      <path
         d="M 0,0 H 1191.6665 V 970.1004 H 0 Z"
         transform="matrix(0.3339827,0,0,0.3339827,-147.45313,-253)"
         clip-rule="evenodd"
         id="path75" />
    </clipPath>
    <clipPath
       clipPathUnits="userSpaceOnUse"
       id="clipPath76">
      <path
         d="M 0,0 H 1191.6665 V 970.1004 H 0 Z"
         transform="matrix(0.3339827,0,0,0.3339827,-157.53125,-267)"
         clip-rule="evenodd"
         id="path76" />
    </clipPath>
    <clipPath
       clipPathUnits="userSpaceOnUse"
       id="clipPath78">
      <path
         d="M 0,0 H 1191.6665 V 970.1004 H 0 Z"
         transform="matrix(0.33398605,0,0,0.33398605,-0.50000001,-0.50000001)"
         clip-rule="evenodd"
         id="path78" />
    </clipPath>
    <clipPath
       clipPathUnits="userSpaceOnUse"
       id="clipPath79">
      <path
         d="M 0,0 H 1191.6665 V 970.1004 H 0 Z"
         transform="matrix(0.3339827,0,0,0.3339827,-163.4375,-284)"
         clip-rule="evenodd"
         id="path79" />
    </clipPath>
    <clipPath
       clipPathUnits="userSpaceOnUse"
       id="clipPath81">
      <path
         d="M 0,0 H 1191.6665 V 970.1004 H 0 Z"
         transform="matrix(0.33398605,0,0,0.33398605,-0.50000001,-0.50000001)"
         clip-rule="evenodd"
         id="path81" />
    </clipPath>
    <clipPath
       clipPathUnits="userSpaceOnUse"
       id="clipPath82">
      <path
         d="M 0,0 H 1191.6665 V 970.1004 H 0 Z"
         transform="matrix(0.3339827,0,0,0.3339827,-163.4375,-304)"
         clip-rule="evenodd"
         id="path82" />
    </clipPath>
    <clipPath
       clipPathUnits="userSpaceOnUse"
       id="clipPath84">
      <path
         d="M 0,0 H 1191.6665 V 970.1004 H 0 Z"
         transform="matrix(0.33398605,0,0,0.33398605,-0.50000001,-0.50000001)"
         clip-rule="evenodd"
         id="path84" />
    </clipPath>
    <clipPath
       clipPathUnits="userSpaceOnUse"
       id="clipPath85">
      <path
         d="M 0,0 H 1191.6665 V 970.1004 H 0 Z"
         transform="matrix(0.3339827,0,0,0.3339827,-163.25,-163)"
         clip-rule="evenodd"
         id="path85" />
    </clipPath>
    <clipPath
       clipPathUnits="userSpaceOnUse"
       id="clipPath86">
      <path
         d="M 0,0 H 1191.6665 V 970.1004 H 0 Z"
         transform="matrix(0.3339827,0,0,0.3339827,-268,-153.00001)"
         clip-rule="evenodd"
         id="path86" />
    </clipPath>
    <clipPath
       clipPathUnits="userSpaceOnUse"
       id="clipPath87">
      <path
         d="M 0,0 H 1191.6665 V 970.1004 H 0 Z"
         transform="matrix(0.3339827,0,0,0.3339827,-268,-168)"
         clip-rule="evenodd"
         id="path87" />
    </clipPath>
    <clipPath
       clipPathUnits="userSpaceOnUse"
       id="clipPath89">
      <path
         d="M 0,0 H 1191.6665 V 970.1004 H 0 Z"
         transform="matrix(0.33398605,0,0,0.33398605,-0.50000001,-0.50000001)"
         clip-rule="evenodd"
         id="path89" />
    </clipPath>
    <clipPath
       clipPathUnits="userSpaceOnUse"
       id="clipPath90">
      <path
         d="M 0,0 H 1191.6665 V 970.1004 H 0 Z"
         transform="matrix(0.3339827,0,0,0.3339827,-216.53125,-253)"
         clip-rule="evenodd"
         id="path90" />
    </clipPath>
    <clipPath
       clipPathUnits="userSpaceOnUse"
       id="clipPath91">
      <path
         d="M 0,0 H 1191.6665 V 970.1004 H 0 Z"
         transform="matrix(0.3339827,0,0,0.3339827,-227.53125,-267)"
         clip-rule="evenodd"
         id="path91" />
    </clipPath>
    <clipPath
       clipPathUnits="userSpaceOnUse"
       id="clipPath93">
      <path
         d="M 0,0 H 1191.6665 V 970.1004 H 0 Z"
         transform="matrix(0.33398605,0,0,0.33398605,-0.50000001,-0.50000001)"
         clip-rule="evenodd"
         id="path93" />
    </clipPath>
    <clipPath
       clipPathUnits="userSpaceOnUse"
       id="clipPath94">
      <path
         d="M 0,0 H 1191.6665 V 970.1004 H 0 Z"
         transform="matrix(0.3339827,0,0,0.3339827,-232.09375,-284)"
         clip-rule="evenodd"
         id="path94" />
    </clipPath>
    <clipPath
       clipPathUnits="userSpaceOnUse"
       id="clipPath96">
      <path
         d="M 0,0 H 1191.6665 V 970.1004 H 0 Z"
         transform="matrix(0.33398605,0,0,0.33398605,-0.50000001,-0.50000001)"
         clip-rule="evenodd"
         id="path96" />
    </clipPath>
    <clipPath
       clipPathUnits="userSpaceOnUse"
       id="clipPath97">
      <path
         d="M 0,0 H 1191.6665 V 970.1004 H 0 Z"
         transform="matrix(0.3339827,0,0,0.3339827,-229.875,-304)"
         clip-rule="evenodd"
         id="path97" />
    </clipPath>
  </defs>
  <sodipodi:namedview
     id="namedview1"
     pagecolor="#ffffff"
     bordercolor="#000000"
     borderopacity="0.25"
     inkscape:showpageshadow="2"
     inkscape:pageopacity="0.0"
     inkscape:pagecheckerboard="0"
     inkscape:deskcolor="#d1d1d1">
    <inkscape:page
       x="0"
       y="0"
       inkscape:label="1"
       id="page1"
       width="381.44"
       height="312"
       margin="0"
       bleed="0" />
  </sodipodi:namedview>
  <g
     id="g1"
     inkscape:groupmode="layer"
     inkscape:label="1">
    <path
       id="path1"
       d="M 0,0 H 398 V 325 H 0 Z"
       style="fill:#ffffff;fill-opacity:1;fill-rule:nonzero;stroke:none"
       transform="scale(0.9581238)"
       clip-path="url(#clipPath2)" />
    <path
       id="path3"
       d="M 36,1 H 256 V 21 H 36 Z"
       style="fill:#e1d5e7;fill-opacity:1;fill-rule:nonzero;stroke:#9673a6;stroke-width:1;stroke-linecap:butt;stroke-linejoin:miter;stroke-miterlimit:10;stroke-dasharray:none;stroke-opacity:1"
       transform="matrix(0.9581238,0,0,0.9581238,0.47906191,0.47906191)"
       clip-path="url(#clipPath4)" />
    <text
       id="text4"
       xml:space="preserve"
       transform="matrix(0.95813343,0,0,0.95813343,91.27718,16.288268)"
       clip-path="url(#clipPath5)"><tspan
         style="font-variant:normal;font-weight:700;font-size:15px;font-family:Helvetica;writing-mode:lr-tb;fill:#000000;fill-opacity:1;fill-rule:nonzero;stroke:none"
         x="0 10.004883 21.672363 30.571289 34.73877 45.571289 53.913574 58.908691 67.250977 76.413574 84.755859 93.098145"
         y="0"
         sodipodi:role="line"
         id="tspan4">SQL Database</tspan></text>
    <path
       id="path6"
       d="m 146,131 v 53.63"
       style="fill:none;stroke:#000000;stroke-width:1;stroke-linecap:butt;stroke-linejoin:miter;stroke-miterlimit:10;stroke-dasharray:none;stroke-opacity:1"
       transform="matrix(0.9581238,0,0,0.9581238,0.47906191,0.47906191)"
       clip-path="url(#clipPath7)" />
    <path
       id="path8"
       d="m 146,189.88 -3.5,-7 3.5,1.75 3.5,-1.75 z"
       style="fill:#000000;fill-opacity:1;fill-rule:nonzero;stroke:#000000;stroke-width:1;stroke-linecap:butt;stroke-linejoin:miter;stroke-miterlimit:10;stroke-dasharray:none;stroke-opacity:1"
       transform="matrix(0.9581238,0,0,0.9581238,0.47906191,0.47906191)"
       clip-path="url(#clipPath9)" />
    <path
       id="path10"
       d="M 36,21 H 256 V 131 H 36 Z"
       style="fill:#e1d5e7;fill-opacity:1;fill-rule:nonzero;stroke:#9673a6;stroke-width:1;stroke-linecap:butt;stroke-linejoin:miter;stroke-miterlimit:10;stroke-dasharray:none;stroke-opacity:1"
       transform="matrix(0.9581238,0,0,0.9581238,0.47906191,0.47906191)"
       clip-path="url(#clipPath11)" />
    <path
       id="path12"
       d="M 51,31 H 241 V 51 H 51 Z"
       style="fill:#d5e8d4;fill-opacity:1;fill-rule:nonzero;stroke:#82b366;stroke-width:1;stroke-linecap:butt;stroke-linejoin:miter;stroke-miterlimit:10;stroke-dasharray:none;stroke-opacity:1"
       transform="matrix(0.9581238,0,0,0.9581238,0.47906191,0.47906191)"
       clip-path="url(#clipPath13)" />
    <text
       id="text13"
       xml:space="preserve"
       transform="matrix(0.95813343,0,0,0.95813343,93.95696,45.032271)"
       clip-path="url(#clipPath14)"><tspan
         style="font-variant:normal;font-weight:normal;font-size:15px;font-family:Helvetica;writing-mode:lr-tb;fill:#000000;fill-opacity:1;fill-rule:nonzero;stroke:none"
         x="0 7.5 15.842285 24.18457 27.51709 35.859375 40.026855 48.369141 52.536621 56.704102 67.536621 75.036621 83.378906 88.374023"
         y="0"
         sodipodi:role="line"
         id="tspan13">Table of Users</tspan></text>
    <path
       id="path15"
       d="m 51,51 h 50 V 81 H 51 Z"
       style="fill:#dae8fc;fill-opacity:1;fill-rule:nonzero;stroke:#6c8ebf;stroke-width:1;stroke-linecap:butt;stroke-linejoin:miter;stroke-miterlimit:10;stroke-dasharray:none;stroke-opacity:1"
       transform="matrix(0.9581238,0,0,0.9581238,0.47906191,0.47906191)"
       clip-path="url(#clipPath16)" />
    <text
       id="text16"
       xml:space="preserve"
       transform="matrix(0.95813343,0,0,0.95813343,68.701161,60.362406)"
       clip-path="url(#clipPath17)"><tspan
         style="font-style:oblique;font-variant:normal;font-weight:normal;font-size:11px;font-family:Helvetica;writing-mode:lr-tb;fill:#000000;fill-opacity:1;fill-rule:nonzero;stroke:none"
         x="0 2.4438477"
         y="0"
         sodipodi:role="line"
         id="tspan16">id</tspan></text>
    <text
       id="text17"
       xml:space="preserve"
       transform="matrix(0.95813343,0,0,0.95813343,54.942964,73.776274)"
       clip-path="url(#clipPath18)"><tspan
         style="font-style:oblique;font-variant:normal;font-weight:normal;font-size:11px;font-family:Helvetica;writing-mode:lr-tb;fill:#000000;fill-opacity:1;fill-rule:nonzero;stroke:none"
         x="0 6.1176758 12.235352 21.398438 27.516113 33.633789"
         y="0"
         sodipodi:role="line"
         id="tspan17">number</tspan></text>
    <path
       id="path19"
       d="m 101,51 h 70 v 30 h -70 z"
       style="fill:#dae8fc;fill-opacity:1;fill-rule:nonzero;stroke:#6c8ebf;stroke-width:1;stroke-linecap:butt;stroke-linejoin:miter;stroke-miterlimit:10;stroke-dasharray:none;stroke-opacity:1"
       transform="matrix(0.9581238,0,0,0.9581238,0.47906191,0.47906191)"
       clip-path="url(#clipPath20)" />
    <text
       id="text20"
       xml:space="preserve"
       transform="matrix(0.95813343,0,0,0.95813343,117.7007,60.362406)"
       clip-path="url(#clipPath21)"><tspan
         style="font-style:oblique;font-variant:normal;font-weight:normal;font-size:11px;font-family:Helvetica;writing-mode:lr-tb;fill:#000000;fill-opacity:1;fill-rule:nonzero;stroke:none"
         x="0 6.1176758 15.280762 21.398438 23.842285"
         y="0"
         sodipodi:role="line"
         id="tspan20">email</tspan></text>
    <text
       id="text21"
       xml:space="preserve"
       transform="matrix(0.95813343,0,0,0.95813343,117.41626,73.776274)"
       clip-path="url(#clipPath22)"><tspan
         style="font-style:oblique;font-variant:normal;font-weight:normal;font-size:11px;font-family:Helvetica;writing-mode:lr-tb;fill:#000000;fill-opacity:1;fill-rule:nonzero;stroke:none"
         x="0 5.5 8.5561523 12.219238 14.663086 20.780762"
         y="0"
         sodipodi:role="line"
         id="tspan21">string</tspan></text>
    <path
       id="path23"
       d="m 51,81 h 50 v 20 H 51 Z"
       style="fill:#ffffff;fill-opacity:1;fill-rule:nonzero;stroke:#000000;stroke-width:1;stroke-linecap:butt;stroke-linejoin:miter;stroke-miterlimit:10;stroke-dasharray:none;stroke-opacity:1"
       transform="matrix(0.9581238,0,0,0.9581238,0.47906191,0.47906191)"
       clip-path="url(#clipPath24)" />
    <text
       id="text24"
       xml:space="preserve"
       transform="matrix(0.95813343,0,0,0.95813343,69.883857,91.022676)"
       clip-path="url(#clipPath25)"><tspan
         style="font-variant:normal;font-weight:normal;font-size:11px;font-family:Helvetica;writing-mode:lr-tb;fill:#000000;fill-opacity:1;fill-rule:nonzero;stroke:none"
         x="0"
         y="0"
         id="tspan24">1</tspan></text>
    <path
       id="path26"
       d="m 101,81 h 70 v 20 h -70 z"
       style="fill:#ffffff;fill-opacity:1;fill-rule:nonzero;stroke:#000000;stroke-width:1;stroke-linecap:butt;stroke-linejoin:miter;stroke-miterlimit:10;stroke-dasharray:none;stroke-opacity:1"
       transform="matrix(0.9581238,0,0,0.9581238,0.47906191,0.47906191)"
       clip-path="url(#clipPath27)" />
    <text
       id="text27"
       xml:space="preserve"
       transform="matrix(0.95813343,0,0,0.95813343,113.83823,90.064543)"
       clip-path="url(#clipPath28)"><tspan
         style="font-variant:normal;font-weight:normal;font-size:8px;font-family:Helvetica;writing-mode:lr-tb;fill:#000000;fill-opacity:1;fill-rule:nonzero;stroke:none"
         x="0 4.4492188 12.570312 17.019531 19.242188 23.242188 27.691406"
         y="0"
         sodipodi:role="line"
         id="tspan27">a@a.com</tspan></text>
    <path
       id="path29"
       d="m 51,101 h 50 v 20 H 51 Z"
       style="fill:#ffffff;fill-opacity:1;fill-rule:nonzero;stroke:#000000;stroke-width:1;stroke-linecap:butt;stroke-linejoin:miter;stroke-miterlimit:10;stroke-dasharray:none;stroke-opacity:1"
       transform="matrix(0.9581238,0,0,0.9581238,0.47906191,0.47906191)"
       clip-path="url(#clipPath30)" />
    <text
       id="text30"
       xml:space="preserve"
       transform="matrix(0.95813343,0,0,0.95813343,69.883857,110.18534)"
       clip-path="url(#clipPath31)"><tspan
         style="font-variant:normal;font-weight:normal;font-size:11px;font-family:Helvetica;writing-mode:lr-tb;fill:#000000;fill-opacity:1;fill-rule:nonzero;stroke:none"
         x="0"
         y="0"
         id="tspan30">2</tspan></text>
    <path
       id="path32"
       d="m 101,101 h 70 v 20 h -70 z"
       style="fill:#ffffff;fill-opacity:1;fill-rule:nonzero;stroke:#000000;stroke-width:1;stroke-linecap:butt;stroke-linejoin:miter;stroke-miterlimit:10;stroke-dasharray:none;stroke-opacity:1"
       transform="matrix(0.9581238,0,0,0.9581238,0.47906191,0.47906191)"
       clip-path="url(#clipPath33)" />
    <text
       id="text33"
       xml:space="preserve"
       transform="matrix(0.95813343,0,0,0.95813343,113.83823,109.22721)"
       clip-path="url(#clipPath34)"><tspan
         style="font-variant:normal;font-weight:normal;font-size:8px;font-family:Helvetica;writing-mode:lr-tb;fill:#000000;fill-opacity:1;fill-rule:nonzero;stroke:none"
         x="0 4.4492188 12.570312 17.019531 19.242188 23.242188 27.691406"
         y="0"
         sodipodi:role="line"
         id="tspan33">b@b.com</tspan></text>
    <path
       id="path35"
       d="m 171,51 h 70 v 30 h -70 z"
       style="fill:#dae8fc;fill-opacity:1;fill-rule:nonzero;stroke:#6c8ebf;stroke-width:1;stroke-linecap:butt;stroke-linejoin:miter;stroke-miterlimit:10;stroke-dasharray:none;stroke-opacity:1"
       transform="matrix(0.9581238,0,0,0.9581238,0.47906191,0.47906191)"
       clip-path="url(#clipPath36)" />
    <text
       id="text36"
       xml:space="preserve"
       transform="matrix(0.95813343,0,0,0.95813343,174.81444,60.362406)"
       clip-path="url(#clipPath37)"><tspan
         style="font-style:oblique;font-variant:normal;font-weight:normal;font-size:11px;font-family:Helvetica;writing-mode:lr-tb;fill:#000000;fill-opacity:1;fill-rule:nonzero;stroke:none"
         x="0 6.1176758 12.235352 17.735352 23.235352 31.179199 37.296875 40.959961"
         y="0"
         sodipodi:role="line"
         id="tspan36">password</tspan></text>
    <text
       id="text37"
       xml:space="preserve"
       transform="matrix(0.95813343,0,0,0.95813343,184.47063,73.776274)"
       clip-path="url(#clipPath38)"><tspan
         style="font-style:oblique;font-variant:normal;font-weight:normal;font-size:11px;font-family:Helvetica;writing-mode:lr-tb;fill:#000000;fill-opacity:1;fill-rule:nonzero;stroke:none"
         x="0 5.5 8.5561523 12.219238 14.663086 20.780762"
         y="0"
         sodipodi:role="line"
         id="tspan37">string</tspan></text>
    <path
       id="path39"
       d="m 171,81 h 70 v 20 h -70 z"
       style="fill:#ffffff;fill-opacity:1;fill-rule:nonzero;stroke:#000000;stroke-width:1;stroke-linecap:butt;stroke-linejoin:miter;stroke-miterlimit:10;stroke-dasharray:none;stroke-opacity:1"
       transform="matrix(0.9581238,0,0,0.9581238,0.47906191,0.47906191)"
       clip-path="url(#clipPath40)" />
    <text
       id="text40"
       xml:space="preserve"
       transform="matrix(0.95813343,0,0,0.95813343,190.1296,90.064543)"
       clip-path="url(#clipPath41)"><tspan
         style="font-variant:normal;font-weight:normal;font-size:8px;font-family:Helvetica;writing-mode:lr-tb;fill:#000000;fill-opacity:1;fill-rule:nonzero;stroke:none"
         x="0 4.4492188 8.4492188 12.898438"
         y="0"
         sodipodi:role="line"
         id="tspan40">asdf</tspan></text>
    <path
       id="path42"
       d="m 171,101 h 70 v 20 h -70 z"
       style="fill:#ffffff;fill-opacity:1;fill-rule:nonzero;stroke:#000000;stroke-width:1;stroke-linecap:butt;stroke-linejoin:miter;stroke-miterlimit:10;stroke-dasharray:none;stroke-opacity:1"
       transform="matrix(0.9581238,0,0,0.9581238,0.47906191,0.47906191)"
       clip-path="url(#clipPath43)" />
    <text
       id="text43"
       xml:space="preserve"
       transform="matrix(0.95813343,0,0,0.95813343,190.1296,109.22721)"
       clip-path="url(#clipPath44)"><tspan
         style="font-variant:normal;font-weight:normal;font-size:8px;font-family:Helvetica;writing-mode:lr-tb;fill:#000000;fill-opacity:1;fill-rule:nonzero;stroke:none"
         x="0 4.4492188 8.4492188 12.898438"
         y="0"
         sodipodi:role="line"
         id="tspan43">asdf</tspan></text>
    <path
       id="path45"
       d="m 1,191 h 290 v 20 H 1 Z"
       style="fill:#e1d5e7;fill-opacity:1;fill-rule:nonzero;stroke:#9673a6;stroke-width:1;stroke-linecap:butt;stroke-linejoin:miter;stroke-miterlimit:10;stroke-dasharray:none;stroke-opacity:1"
       transform="matrix(0.9581238,0,0,0.9581238,0.47906191,0.47906191)"
       clip-path="url(#clipPath46)" />
    <text
       id="text46"
       xml:space="preserve"
       transform="matrix(0.95813343,0,0,0.95813343,91.27718,198.33362)"
       clip-path="url(#clipPath47)"><tspan
         style="font-variant:normal;font-weight:700;font-size:15px;font-family:Helvetica;writing-mode:lr-tb;fill:#000000;fill-opacity:1;fill-rule:nonzero;stroke:none"
         x="0 10.004883 21.672363 30.571289 34.73877 45.571289 53.913574 58.908691 67.250977 76.413574 84.755859 93.098145"
         y="0"
         sodipodi:role="line"
         id="tspan46">SQL Database</tspan></text>
    <path
       id="path48"
       d="M 1,211 H 291 V 321 H 1 Z"
       style="fill:#e1d5e7;fill-opacity:1;fill-rule:nonzero;stroke:#9673a6;stroke-width:1;stroke-linecap:butt;stroke-linejoin:miter;stroke-miterlimit:10;stroke-dasharray:none;stroke-opacity:1"
       transform="matrix(0.9581238,0,0,0.9581238,0.47906191,0.47906191)"
       clip-path="url(#clipPath49)" />
    <path
       id="path50"
       d="m 19,221 h 255 v 20 H 19 Z"
       style="fill:#d5e8d4;fill-opacity:1;fill-rule:nonzero;stroke:#82b366;stroke-width:1;stroke-linecap:butt;stroke-linejoin:miter;stroke-miterlimit:10;stroke-dasharray:none;stroke-opacity:1"
       transform="matrix(0.9581238,0,0,0.9581238,0.47906191,0.47906191)"
       clip-path="url(#clipPath51)" />
    <text
       id="text51"
       xml:space="preserve"
       transform="matrix(0.95813343,0,0,0.95813343,94.436026,227.07762)"
       clip-path="url(#clipPath52)"><tspan
         style="font-variant:normal;font-weight:normal;font-size:15px;font-family:Helvetica;writing-mode:lr-tb;fill:#000000;fill-opacity:1;fill-rule:nonzero;stroke:none"
         x="0 7.5 15.842285 24.18457 27.51709 35.859375 40.026855 48.369141 52.536621 56.704102 67.536621 75.036621 83.378906 88.374023"
         y="0"
         sodipodi:role="line"
         id="tspan51">Table of Users</tspan></text>
    <path
       id="path53"
       d="m 16,241 h 50 v 30 H 16 Z"
       style="fill:#dae8fc;fill-opacity:1;fill-rule:nonzero;stroke:#6c8ebf;stroke-width:1;stroke-linecap:butt;stroke-linejoin:miter;stroke-miterlimit:10;stroke-dasharray:none;stroke-opacity:1"
       transform="matrix(0.9581238,0,0,0.9581238,0.47906191,0.47906191)"
       clip-path="url(#clipPath54)" />
    <text
       id="text54"
       xml:space="preserve"
       transform="matrix(0.95813343,0,0,0.95813343,35.166491,242.40776)"
       clip-path="url(#clipPath55)"><tspan
         style="font-style:oblique;font-variant:normal;font-weight:normal;font-size:11px;font-family:Helvetica;writing-mode:lr-tb;fill:#000000;fill-opacity:1;fill-rule:nonzero;stroke:none"
         x="0 2.4438477"
         y="0"
         sodipodi:role="line"
         id="tspan54">id</tspan></text>
    <text
       id="text55"
       xml:space="preserve"
       transform="matrix(0.95813343,0,0,0.95813343,21.408294,255.82163)"
       clip-path="url(#clipPath56)"><tspan
         style="font-style:oblique;font-variant:normal;font-weight:normal;font-size:11px;font-family:Helvetica;writing-mode:lr-tb;fill:#000000;fill-opacity:1;fill-rule:nonzero;stroke:none"
         x="0 6.1176758 12.235352 21.398438 27.516113 33.633789"
         y="0"
         sodipodi:role="line"
         id="tspan55">number</tspan></text>
    <path
       id="path57"
       d="m 66,241 h 70 v 30 H 66 Z"
       style="fill:#dae8fc;fill-opacity:1;fill-rule:nonzero;stroke:#6c8ebf;stroke-width:1;stroke-linecap:butt;stroke-linejoin:miter;stroke-miterlimit:10;stroke-dasharray:none;stroke-opacity:1"
       transform="matrix(0.9581238,0,0,0.9581238,0.47906191,0.47906191)"
       clip-path="url(#clipPath58)" />
    <text
       id="text58"
       xml:space="preserve"
       transform="matrix(0.95813343,0,0,0.95813343,84.166034,242.40776)"
       clip-path="url(#clipPath59)"><tspan
         style="font-style:oblique;font-variant:normal;font-weight:normal;font-size:11px;font-family:Helvetica;writing-mode:lr-tb;fill:#000000;fill-opacity:1;fill-rule:nonzero;stroke:none"
         x="0 6.1176758 15.280762 21.398438 23.842285"
         y="0"
         sodipodi:role="line"
         id="tspan58">email</tspan></text>
    <text
       id="text59"
       xml:space="preserve"
       transform="matrix(0.95813343,0,0,0.95813343,83.881588,255.82163)"
       clip-path="url(#clipPath60)"><tspan
         style="font-style:oblique;font-variant:normal;font-weight:normal;font-size:11px;font-family:Helvetica;writing-mode:lr-tb;fill:#000000;fill-opacity:1;fill-rule:nonzero;stroke:none"
         x="0 5.5 8.5561523 12.219238 14.663086 20.780762"
         y="0"
         sodipodi:role="line"
         id="tspan59">string</tspan></text>
    <path
       id="path61"
       d="m 16,271 h 50 v 20 H 16 Z"
       style="fill:#ffffff;fill-opacity:1;fill-rule:nonzero;stroke:#000000;stroke-width:1;stroke-linecap:butt;stroke-linejoin:miter;stroke-miterlimit:10;stroke-dasharray:none;stroke-opacity:1"
       transform="matrix(0.9581238,0,0,0.9581238,0.47906191,0.47906191)"
       clip-path="url(#clipPath62)" />
    <text
       id="text62"
       xml:space="preserve"
       transform="matrix(0.95813343,0,0,0.95813343,36.349187,273.06803)"
       clip-path="url(#clipPath63)"><tspan
         style="font-variant:normal;font-weight:normal;font-size:11px;font-family:Helvetica;writing-mode:lr-tb;fill:#000000;fill-opacity:1;fill-rule:nonzero;stroke:none"
         x="0"
         y="0"
         id="tspan62">1</tspan></text>
    <path
       id="path64"
       d="m 66,271 h 70 v 20 H 66 Z"
       style="fill:#ffffff;fill-opacity:1;fill-rule:nonzero;stroke:#000000;stroke-width:1;stroke-linecap:butt;stroke-linejoin:miter;stroke-miterlimit:10;stroke-dasharray:none;stroke-opacity:1"
       transform="matrix(0.9581238,0,0,0.9581238,0.47906191,0.47906191)"
       clip-path="url(#clipPath65)" />
    <text
       id="text65"
       xml:space="preserve"
       transform="matrix(0.95813343,0,0,0.95813343,80.303558,272.10989)"
       clip-path="url(#clipPath66)"><tspan
         style="font-variant:normal;font-weight:normal;font-size:8px;font-family:Helvetica;writing-mode:lr-tb;fill:#000000;fill-opacity:1;fill-rule:nonzero;stroke:none"
         x="0 4.4492188 12.570312 17.019531 19.242188 23.242188 27.691406"
         y="0"
         sodipodi:role="line"
         id="tspan65">a@a.com</tspan></text>
    <path
       id="path67"
       d="m 16,291 h 50 v 20 H 16 Z"
       style="fill:#ffffff;fill-opacity:1;fill-rule:nonzero;stroke:#000000;stroke-width:1;stroke-linecap:butt;stroke-linejoin:miter;stroke-miterlimit:10;stroke-dasharray:none;stroke-opacity:1"
       transform="matrix(0.9581238,0,0,0.9581238,0.47906191,0.47906191)"
       clip-path="url(#clipPath68)" />
    <text
       id="text68"
       xml:space="preserve"
       transform="matrix(0.95813343,0,0,0.95813343,36.349187,292.2307)"
       clip-path="url(#clipPath69)"><tspan
         style="font-variant:normal;font-weight:normal;font-size:11px;font-family:Helvetica;writing-mode:lr-tb;fill:#000000;fill-opacity:1;fill-rule:nonzero;stroke:none"
         x="0"
         y="0"
         id="tspan68">2</tspan></text>
    <path
       id="path70"
       d="m 66,291 h 70 v 20 H 66 Z"
       style="fill:#ffffff;fill-opacity:1;fill-rule:nonzero;stroke:#000000;stroke-width:1;stroke-linecap:butt;stroke-linejoin:miter;stroke-miterlimit:10;stroke-dasharray:none;stroke-opacity:1"
       transform="matrix(0.9581238,0,0,0.9581238,0.47906191,0.47906191)"
       clip-path="url(#clipPath71)" />
    <text
       id="text71"
       xml:space="preserve"
       transform="matrix(0.95813343,0,0,0.95813343,80.303558,291.27256)"
       clip-path="url(#clipPath72)"><tspan
         style="font-variant:normal;font-weight:normal;font-size:8px;font-family:Helvetica;writing-mode:lr-tb;fill:#000000;fill-opacity:1;fill-rule:nonzero;stroke:none"
         x="0 4.4492188 12.570312 17.019531 19.242188 23.242188 27.691406"
         y="0"
         sodipodi:role="line"
         id="tspan71">b@b.com</tspan></text>
    <path
       id="path73"
       d="m 136,241 h 70 v 30 h -70 z"
       style="fill:#dae8fc;fill-opacity:1;fill-rule:nonzero;stroke:#6c8ebf;stroke-width:1;stroke-linecap:butt;stroke-linejoin:miter;stroke-miterlimit:10;stroke-dasharray:none;stroke-opacity:1"
       transform="matrix(0.9581238,0,0,0.9581238,0.47906191,0.47906191)"
       clip-path="url(#clipPath74)" />
    <text
       id="text74"
       xml:space="preserve"
       transform="matrix(0.95813343,0,0,0.95813343,141.27977,242.40776)"
       clip-path="url(#clipPath75)"><tspan
         style="font-style:oblique;font-variant:normal;font-weight:normal;font-size:11px;font-family:Helvetica;writing-mode:lr-tb;fill:#000000;fill-opacity:1;fill-rule:nonzero;stroke:none"
         x="0 6.1176758 12.235352 17.735352 23.235352 31.179199 37.296875 40.959961"
         y="0"
         sodipodi:role="line"
         id="tspan74">password</tspan></text>
    <text
       id="text75"
       xml:space="preserve"
       transform="matrix(0.95813343,0,0,0.95813343,150.93596,255.82163)"
       clip-path="url(#clipPath76)"><tspan
         style="font-style:oblique;font-variant:normal;font-weight:normal;font-size:11px;font-family:Helvetica;writing-mode:lr-tb;fill:#000000;fill-opacity:1;fill-rule:nonzero;stroke:none"
         x="0 5.5 8.5561523 12.219238 14.663086 20.780762"
         y="0"
         sodipodi:role="line"
         id="tspan75">string</tspan></text>
    <path
       id="path77"
       d="m 136,271 h 70 v 20 h -70 z"
       style="fill:#ffffff;fill-opacity:1;fill-rule:nonzero;stroke:#000000;stroke-width:1;stroke-linecap:butt;stroke-linejoin:miter;stroke-miterlimit:10;stroke-dasharray:none;stroke-opacity:1"
       transform="matrix(0.9581238,0,0,0.9581238,0.47906191,0.47906191)"
       clip-path="url(#clipPath78)" />
    <text
       id="text78"
       xml:space="preserve"
       transform="matrix(0.95813343,0,0,0.95813343,156.59493,272.10989)"
       clip-path="url(#clipPath79)"><tspan
         style="font-variant:normal;font-weight:normal;font-size:8px;font-family:Helvetica;writing-mode:lr-tb;fill:#000000;fill-opacity:1;fill-rule:nonzero;stroke:none"
         x="0 4.4492188 8.4492188 12.898438"
         y="0"
         sodipodi:role="line"
         id="tspan78">asdf</tspan></text>
    <path
       id="path80"
       d="m 136,291 h 70 v 20 h -70 z"
       style="fill:#ffffff;fill-opacity:1;fill-rule:nonzero;stroke:#000000;stroke-width:1;stroke-linecap:butt;stroke-linejoin:miter;stroke-miterlimit:10;stroke-dasharray:none;stroke-opacity:1"
       transform="matrix(0.9581238,0,0,0.9581238,0.47906191,0.47906191)"
       clip-path="url(#clipPath81)" />
    <text
       id="text81"
       xml:space="preserve"
       transform="matrix(0.95813343,0,0,0.95813343,156.59493,291.27256)"
       clip-path="url(#clipPath82)"><tspan
         style="font-variant:normal;font-weight:normal;font-size:8px;font-family:Helvetica;writing-mode:lr-tb;fill:#000000;fill-opacity:1;fill-rule:nonzero;stroke:none"
         x="0 4.4492188 8.4492188 12.898438"
         y="0"
         sodipodi:role="line"
         id="tspan81">asdf</tspan></text>
    <path
       id="path83"
       d="m 146,141 h 120 v 30 H 146 Z"
       style="fill:#f8cecc;fill-opacity:1;fill-rule:nonzero;stroke:#b85450;stroke-width:1;stroke-linecap:butt;stroke-linejoin:miter;stroke-miterlimit:10;stroke-dasharray:none;stroke-opacity:1"
       transform="matrix(0.9581238,0,0,0.9581238,0.47906191,0.47906191)"
       clip-path="url(#clipPath84)" />
    <text
       id="text84"
       xml:space="preserve"
       transform="matrix(0.95813343,0,0,0.95813343,156.41528,156.17575)"
       clip-path="url(#clipPath85)"><tspan
         style="font-variant:normal;font-weight:700;font-size:19px;font-family:Helvetica;writing-mode:lr-tb;fill:#000000;fill-opacity:1;fill-rule:nonzero;stroke:none"
         x="0 15.827148 21.105957 32.711914 40.105957 50.672852 57 62.278809 73.884766"
         y="0"
         sodipodi:role="line"
         id="tspan84">Migration</tspan></text>
    <text
       id="text85"
       xml:space="preserve"
       transform="matrix(0.95813343,0,0,0.95813343,256.77976,146.59442)"
       clip-path="url(#clipPath86)"><tspan
         style="font-style:oblique;font-variant:normal;font-weight:normal;font-size:12px;font-family:Helvetica;writing-mode:lr-tb;fill:#000000;fill-opacity:1;fill-rule:nonzero;stroke:none"
         x="0 8.6660156 15.339844 22.013672 28.6875 35.361328 42.035156 48.035156 51.369141 54.703125 61.376953 68.050781 71.384766 77.384766 80.71875 84.714844 91.388672 97.388672 100.72266 107.39648 111.39258"
         y="0"
         sodipodi:role="line"
         id="tspan85">Changes the structure</tspan></text>
    <text
       id="text86"
       xml:space="preserve"
       transform="matrix(0.95813343,0,0,0.95813343,256.77976,160.96642)"
       clip-path="url(#clipPath87)"><tspan
         style="font-style:oblique;font-variant:normal;font-weight:normal;font-size:12px;font-family:Helvetica;writing-mode:lr-tb;fill:#000000;fill-opacity:1;fill-rule:nonzero;stroke:none"
         x="0 6.6738281 10.007812 13.341797 16.675781 23.349609 30.023438 33.357422 40.03125 46.705078 50.039062 56.712891 63.386719 70.060547 76.060547"
         y="0"
         sodipodi:role="line"
         id="tspan86">of the database</tspan></text>
    <path
       id="path88"
       d="m 206,241 h 70 v 30 h -70 z"
       style="fill:#dae8fc;fill-opacity:1;fill-rule:nonzero;stroke:#6c8ebf;stroke-width:1;stroke-linecap:butt;stroke-linejoin:miter;stroke-miterlimit:10;stroke-dasharray:none;stroke-opacity:1"
       transform="matrix(0.9581238,0,0,0.9581238,0.47906191,0.47906191)"
       clip-path="url(#clipPath89)" />
    <text
       id="text89"
       xml:space="preserve"
       transform="matrix(0.95813343,0,0,0.95813343,207.46583,242.40776)"
       clip-path="url(#clipPath90)"><tspan
         style="font-style:oblique;font-variant:normal;font-weight:normal;font-size:11px;font-family:Helvetica;writing-mode:lr-tb;fill:#000000;fill-opacity:1;fill-rule:nonzero;stroke:none"
         x="0 6.1176758 11.617676 17.735352 21.398438 27.516113 33.633789 42.796875"
         y="0"
         sodipodi:role="line"
         id="tspan89">username</tspan></text>
    <text
       id="text90"
       xml:space="preserve"
       transform="matrix(0.95813343,0,0,0.95813343,218.0053,255.82163)"
       clip-path="url(#clipPath91)"><tspan
         style="font-style:oblique;font-variant:normal;font-weight:normal;font-size:11px;font-family:Helvetica;writing-mode:lr-tb;fill:#000000;fill-opacity:1;fill-rule:nonzero;stroke:none"
         x="0 5.5 8.5561523 12.219238 14.663086 20.780762"
         y="0"
         sodipodi:role="line"
         id="tspan90">string</tspan></text>
    <path
       id="path92"
       d="m 206,271 h 70 v 20 h -70 z"
       style="fill:#ffffff;fill-opacity:1;fill-rule:nonzero;stroke:#000000;stroke-width:1;stroke-linecap:butt;stroke-linejoin:miter;stroke-miterlimit:10;stroke-dasharray:none;stroke-opacity:1"
       transform="matrix(0.9581238,0,0,0.9581238,0.47906191,0.47906191)"
       clip-path="url(#clipPath93)" />
    <text
       id="text93"
       xml:space="preserve"
       transform="matrix(0.95813343,0,0,0.95813343,222.37678,272.10989)"
       clip-path="url(#clipPath94)"><tspan
         style="font-variant:normal;font-weight:normal;font-size:8px;font-family:Helvetica;writing-mode:lr-tb;fill:#000000;fill-opacity:1;fill-rule:nonzero;stroke:none"
         x="0 4.4492188 8.8984375 13.347656"
         y="0"
         sodipodi:role="line"
         id="tspan93">bbbb</tspan></text>
    <path
       id="path95"
       d="m 206,291 h 70 v 20 h -70 z"
       style="fill:#ffffff;fill-opacity:1;fill-rule:nonzero;stroke:#000000;stroke-width:1;stroke-linecap:butt;stroke-linejoin:miter;stroke-miterlimit:10;stroke-dasharray:none;stroke-opacity:1"
       transform="matrix(0.9581238,0,0,0.9581238,0.47906191,0.47906191)"
       clip-path="url(#clipPath96)" />
    <text
       id="text96"
       xml:space="preserve"
       transform="matrix(0.95813343,0,0,0.95813343,220.25092,291.27256)"
       clip-path="url(#clipPath97)"><tspan
         style="font-variant:normal;font-weight:normal;font-size:8px;font-family:Helvetica;writing-mode:lr-tb;fill:#000000;fill-opacity:1;fill-rule:nonzero;stroke:none"
         x="0 4.4492188 8.8984375 13.347656 17.796875"
         y="0"
         sodipodi:role="line"
         id="tspan96">aaaaa</tspan></text>
  </g>
</svg>
