<?xml version="1.0" encoding="UTF-8" standalone="no"?>
<!-- Created with Inkscape (http://www.inkscape.org/) -->

<svg
   version="1.1"
   id="svg1"
   width="530.56"
   height="147.84"
   viewBox="0 0 530.56 147.84"
   sodipodi:docname="nest-22.pdf"
   xmlns:inkscape="http://www.inkscape.org/namespaces/inkscape"
   xmlns:sodipodi="http://sodipodi.sourceforge.net/DTD/sodipodi-0.dtd"
   xmlns="http://www.w3.org/2000/svg"
   xmlns:svg="http://www.w3.org/2000/svg">
  <defs
     id="defs1">
    <clipPath
       clipPathUnits="userSpaceOnUse"
       id="clipPath2">
      <path
         d="M 0,0 H 1658.3334 V 460.98074 H 0 Z"
         transform="scale(0.33407035)"
         clip-rule="evenodd"
         id="path2" />
    </clipPath>
    <clipPath
       clipPathUnits="userSpaceOnUse"
       id="clipPath4">
      <path
         d="M 0,0 H 1658.3334 V 460.98074 H 0 Z"
         transform="matrix(0.33407035,0,0,0.33407035,-0.5,-0.5)"
         clip-rule="evenodd"
         id="path4" />
    </clipPath>
    <clipPath
       clipPathUnits="userSpaceOnUse"
       id="clipPath5">
      <path
         d="M 0,0 H 1658.3334 V 460.98074 H 0 Z"
         transform="matrix(0.334067,0,0,0.334067,-38.375,-16)"
         clip-rule="evenodd"
         id="path5" />
    </clipPath>
    <clipPath
       clipPathUnits="userSpaceOnUse"
       id="clipPath7">
      <path
         d="M 0,0 H 1658.3334 V 460.98074 H 0 Z"
         transform="matrix(0.33407035,0,0,0.33407035,-0.5,-0.5)"
         clip-rule="evenodd"
         id="path7" />
    </clipPath>
    <clipPath
       clipPathUnits="userSpaceOnUse"
       id="clipPath9">
      <path
         d="M 0,0 H 1658.3334 V 460.98074 H 0 Z"
         transform="matrix(0.33407035,0,0,0.33407035,-0.5,-0.5)"
         clip-rule="evenodd"
         id="path9" />
    </clipPath>
    <clipPath
       clipPathUnits="userSpaceOnUse"
       id="clipPath11">
      <path
         d="M 0,0 H 1658.3334 V 460.98074 H 0 Z"
         transform="matrix(0.33407035,0,0,0.33407035,-0.5,-0.5)"
         clip-rule="evenodd"
         id="path11" />
    </clipPath>
    <clipPath
       clipPathUnits="userSpaceOnUse"
       id="clipPath12">
      <path
         d="M 0,0 H 1658.3334 V 460.98074 H 0 Z"
         transform="matrix(0.334067,0,0,0.334067,-9,-34)"
         clip-rule="evenodd"
         id="path12" />
    </clipPath>
    <clipPath
       clipPathUnits="userSpaceOnUse"
       id="clipPath13">
      <path
         d="M 0,0 H 1658.3334 V 460.98074 H 0 Z"
         transform="matrix(0.334067,0,0,0.334067,-9,-47)"
         clip-rule="evenodd"
         id="path13" />
    </clipPath>
    <clipPath
       clipPathUnits="userSpaceOnUse"
       id="clipPath14">
      <path
         d="M 0,0 H 1658.3334 V 460.98074 H 0 Z"
         transform="matrix(0.334067,0,0,0.334067,-9,-60)"
         clip-rule="evenodd"
         id="path14" />
    </clipPath>
    <clipPath
       clipPathUnits="userSpaceOnUse"
       id="clipPath15">
      <path
         d="M 0,0 H 1658.3334 V 460.98074 H 0 Z"
         transform="matrix(0.334067,0,0,0.334067,-9,-73)"
         clip-rule="evenodd"
         id="path15" />
    </clipPath>
    <clipPath
       clipPathUnits="userSpaceOnUse"
       id="clipPath16">
      <path
         d="M 0,0 H 1658.3334 V 460.98074 H 0 Z"
         transform="matrix(0.334067,0,0,0.334067,-9,-86)"
         clip-rule="evenodd"
         id="path16" />
    </clipPath>
    <clipPath
       clipPathUnits="userSpaceOnUse"
       id="clipPath18">
      <path
         d="M 0,0 H 1658.3334 V 460.98074 H 0 Z"
         transform="matrix(0.33407035,0,0,0.33407035,-0.5,-0.5)"
         clip-rule="evenodd"
         id="path18" />
    </clipPath>
    <clipPath
       clipPathUnits="userSpaceOnUse"
       id="clipPath20">
      <path
         d="M 0,0 H 1658.3334 V 460.98074 H 0 Z"
         transform="matrix(0.33407035,0,0,0.33407035,-0.5,-0.5)"
         clip-rule="evenodd"
         id="path20" />
    </clipPath>
    <clipPath
       clipPathUnits="userSpaceOnUse"
       id="clipPath22">
      <path
         d="M 0,0 H 1658.3334 V 460.98074 H 0 Z"
         transform="matrix(0.33407035,0,0,0.33407035,-0.5,-0.5)"
         clip-rule="evenodd"
         id="path22" />
    </clipPath>
    <clipPath
       clipPathUnits="userSpaceOnUse"
       id="clipPath23">
      <path
         d="M 0,0 H 1658.3334 V 460.98074 H 0 Z"
         transform="matrix(0.334067,0,0,0.334067,-289.57813,-53)"
         clip-rule="evenodd"
         id="path23" />
    </clipPath>
    <clipPath
       clipPathUnits="userSpaceOnUse"
       id="clipPath24">
      <path
         d="M 0,0 H 1658.3334 V 460.98074 H 0 Z"
         transform="matrix(0.334067,0,0,0.334067,-287.04688,-70)"
         clip-rule="evenodd"
         id="path24" />
    </clipPath>
    <clipPath
       clipPathUnits="userSpaceOnUse"
       id="clipPath26">
      <path
         d="M 0,0 H 1658.3334 V 460.98074 H 0 Z"
         transform="matrix(0.33407035,0,0,0.33407035,-0.5,-0.5)"
         clip-rule="evenodd"
         id="path26" />
    </clipPath>
    <clipPath
       clipPathUnits="userSpaceOnUse"
       id="clipPath27">
      <path
         d="M 0,0 H 1658.3334 V 460.98074 H 0 Z"
         transform="matrix(0.334067,0,0,0.334067,-155.14063,-61)"
         clip-rule="evenodd"
         id="path27" />
    </clipPath>
    <clipPath
       clipPathUnits="userSpaceOnUse"
       id="clipPath28">
      <path
         d="M 0,0 H 1658.3334 V 460.98074 H 0 Z"
         transform="matrix(0.334067,0,0,0.334067,-159.85938,-84)"
         clip-rule="evenodd"
         id="path28" />
    </clipPath>
    <clipPath
       clipPathUnits="userSpaceOnUse"
       id="clipPath29">
      <path
         d="M 0,0 H 1658.3334 V 460.98074 H 0 Z"
         transform="matrix(0.334067,0,0,0.334067,-191.54689,-96)"
         clip-rule="evenodd"
         id="path29" />
    </clipPath>
    <clipPath
       clipPathUnits="userSpaceOnUse"
       id="clipPath31">
      <path
         d="M 0,0 H 1658.3334 V 460.98074 H 0 Z"
         transform="matrix(0.33407035,0,0,0.33407035,-0.5,-0.5)"
         clip-rule="evenodd"
         id="path31" />
    </clipPath>
    <clipPath
       clipPathUnits="userSpaceOnUse"
       id="clipPath32">
      <path
         d="M 0,0 H 1658.3334 V 460.98074 H 0 Z"
         transform="matrix(0.334067,0,0,0.334067,-284.84375,-96)"
         clip-rule="evenodd"
         id="path32" />
    </clipPath>
    <clipPath
       clipPathUnits="userSpaceOnUse"
       id="clipPath33">
      <path
         d="M 0,0 H 1658.3334 V 460.98074 H 0 Z"
         transform="matrix(0.334067,0,0,0.334067,-290.40625,-108)"
         clip-rule="evenodd"
         id="path33" />
    </clipPath>
    <clipPath
       clipPathUnits="userSpaceOnUse"
       id="clipPath34">
      <path
         d="M 0,0 H 1658.3334 V 460.98074 H 0 Z"
         transform="matrix(0.334067,0,0,0.334067,-285.6875,-120)"
         clip-rule="evenodd"
         id="path34" />
    </clipPath>
    <clipPath
       clipPathUnits="userSpaceOnUse"
       id="clipPath35">
      <path
         d="M 0,0 H 1658.3334 V 460.98074 H 0 Z"
         transform="matrix(0.334067,0,0,0.334067,-283.17188,-132)"
         clip-rule="evenodd"
         id="path35" />
    </clipPath>
    <clipPath
       clipPathUnits="userSpaceOnUse"
       id="clipPath36">
      <path
         d="M 0,0 H 1658.3334 V 460.98074 H 0 Z"
         transform="matrix(0.334067,0,0,0.334067,-334.04688,-144)"
         clip-rule="evenodd"
         id="path36" />
    </clipPath>
    <clipPath
       clipPathUnits="userSpaceOnUse"
       id="clipPath38">
      <path
         d="M 0,0 H 1658.3334 V 460.98074 H 0 Z"
         transform="matrix(0.33407035,0,0,0.33407035,-0.5,-0.5)"
         clip-rule="evenodd"
         id="path38" />
    </clipPath>
    <clipPath
       clipPathUnits="userSpaceOnUse"
       id="clipPath39">
      <path
         d="M 0,0 H 1658.3334 V 460.98074 H 0 Z"
         transform="matrix(0.334067,0,0,0.334067,-448.4375,-55)"
         clip-rule="evenodd"
         id="path39" />
    </clipPath>
    <clipPath
       clipPathUnits="userSpaceOnUse"
       id="clipPath40">
      <path
         d="M 0,0 H 1658.3334 V 460.98074 H 0 Z"
         transform="matrix(0.334067,0,0,0.334067,-441.79688,-67)"
         clip-rule="evenodd"
         id="path40" />
    </clipPath>
    <clipPath
       clipPathUnits="userSpaceOnUse"
       id="clipPath41">
      <path
         d="M 0,0 H 1658.3334 V 460.98074 H 0 Z"
         transform="matrix(0.334067,0,0,0.334067,-373.21875,-16)"
         clip-rule="evenodd"
         id="path41" />
    </clipPath>
  </defs>
  <sodipodi:namedview
     id="namedview1"
     pagecolor="#ffffff"
     bordercolor="#000000"
     borderopacity="0.25"
     inkscape:showpageshadow="2"
     inkscape:pageopacity="0.0"
     inkscape:pagecheckerboard="0"
     inkscape:deskcolor="#d1d1d1">
    <inkscape:page
       x="0"
       y="0"
       inkscape:label="1"
       id="page1"
       width="530.56"
       height="147.84"
       margin="0"
       bleed="0" />
  </sodipodi:namedview>
  <g
     id="g1"
     inkscape:groupmode="layer"
     inkscape:label="1">
    <path
       id="path1"
       d="M 0,0 H 554 V 154 H 0 Z"
       style="fill:#ffffff;fill-opacity:1;fill-rule:nonzero;stroke:none"
       transform="scale(0.95788204)"
       clip-path="url(#clipPath2)" />
    <path
       id="path3"
       d="M 1,1 H 131 V 21 H 1 Z"
       style="fill:#f5f5f5;fill-opacity:1;fill-rule:nonzero;stroke:#666666;stroke-width:1;stroke-linecap:butt;stroke-linejoin:miter;stroke-miterlimit:10;stroke-dasharray:none;stroke-opacity:1"
       transform="matrix(0.95788204,0,0,0.95788204,0.47894102,0.47894102)"
       clip-path="url(#clipPath4)" />
    <text
       id="text4"
       xml:space="preserve"
       transform="matrix(0.95789164,0,0,0.95789164,36.759092,15.326266)"
       clip-path="url(#clipPath5)"><tspan
         style="font-variant:normal;font-weight:700;font-size:14px;font-family:Helvetica;writing-mode:lr-tb;fill:#333333;fill-opacity:1;fill-rule:nonzero;stroke:none"
         x="0 10.110352 17.896484 26.448242 35 42.786133 50.572266"
         y="0"
         sodipodi:role="line"
         id="tspan4">Request</tspan></text>
    <path
       id="path6"
       d="m 131,56 h 75 l 68.63,0.09"
       style="fill:none;stroke:#000000;stroke-width:1;stroke-linecap:butt;stroke-linejoin:miter;stroke-miterlimit:10;stroke-dasharray:none;stroke-opacity:1"
       transform="matrix(0.95788204,0,0,0.95788204,0.47894102,0.47894102)"
       clip-path="url(#clipPath7)" />
    <path
       id="path8"
       d="m 279.88,56.099998 -7,3.490002 1.75,-3.5 -1.73999,-3.5 z"
       style="fill:#000000;fill-opacity:1;fill-rule:nonzero;stroke:#000000;stroke-width:1;stroke-linecap:butt;stroke-linejoin:miter;stroke-miterlimit:10;stroke-dasharray:none;stroke-opacity:1"
       transform="matrix(0.95788204,0,0,0.95788204,0.47894102,0.47894102)"
       clip-path="url(#clipPath9)" />
    <path
       id="path10"
       d="M 1,21 H 131 V 91 H 1 Z"
       style="fill:#f5f5f5;fill-opacity:1;fill-rule:nonzero;stroke:#666666;stroke-width:1;stroke-linecap:butt;stroke-linejoin:miter;stroke-miterlimit:10;stroke-dasharray:none;stroke-opacity:1"
       transform="matrix(0.95788204,0,0,0.95788204,0.47894102,0.47894102)"
       clip-path="url(#clipPath11)" />
    <text
       id="text11"
       xml:space="preserve"
       transform="matrix(0.95789164,0,0,0.95789164,8.6210248,32.568316)"
       clip-path="url(#clipPath12)"><tspan
         style="font-variant:normal;font-weight:normal;font-size:11px;font-family:Helvetica;writing-mode:lr-tb;fill:#333333;fill-opacity:1;fill-rule:nonzero;stroke:none"
         x="0"
         y="0"
         id="tspan11">[</tspan></text>
    <text
       id="text12"
       xml:space="preserve"
       transform="matrix(0.95789164,0,0,0.95789164,8.6210248,45.020907)"
       clip-path="url(#clipPath13)"><tspan
         style="font-variant:normal;font-weight:normal;font-size:11px;font-family:Helvetica;writing-mode:lr-tb;fill:#333333;fill-opacity:1;fill-rule:nonzero;stroke:none"
         x="0 3.0561523 6.1123047 9.7861328 12.842285 18.959961 28.123047 34.240723 36.68457 39.128418 42.18457 45.240723 47.34082 53.458496 64.625 70.742676 73.798828 79.298828 85.416504 94.57959 96.679688 99.73584 103.40967"
         y="0"
         sodipodi:role="line"
         id="tspan12">  { email: 'a@a.com' },</tspan></text>
    <text
       id="text13"
       xml:space="preserve"
       transform="matrix(0.95789164,0,0,0.95789164,8.6210248,57.473498)"
       clip-path="url(#clipPath14)"><tspan
         style="font-variant:normal;font-weight:normal;font-size:11px;font-family:Helvetica;writing-mode:lr-tb;fill:#333333;fill-opacity:1;fill-rule:nonzero;stroke:none"
         x="0 3.0561523 6.1123047 9.7861328 12.842285 18.959961 28.123047 34.240723 36.68457 39.128418 42.18457 45.240723 47.34082 53.458496 64.625 70.742676 73.798828 79.298828 85.416504 94.57959 96.679688 99.73584 103.40967"
         y="0"
         sodipodi:role="line"
         id="tspan13">  { email: 'b@b.com' },</tspan></text>
    <text
       id="text14"
       xml:space="preserve"
       transform="matrix(0.95789164,0,0,0.95789164,8.6210248,69.92609)"
       clip-path="url(#clipPath15)"><tspan
         style="font-variant:normal;font-weight:normal;font-size:11px;font-family:Helvetica;writing-mode:lr-tb;fill:#333333;fill-opacity:1;fill-rule:nonzero;stroke:none"
         x="0 3.0561523 6.1123047 9.7861328 12.842285 18.959961 28.123047 34.240723 36.68457 39.128418 42.18457 45.240723 47.34082 52.84082 64.007324 69.507324 72.563477 78.063477 84.181152 93.344238 95.444336 98.500488 102.17432"
         y="0"
         sodipodi:role="line"
         id="tspan14">  { email: 'c@c.com' },</tspan></text>
    <text
       id="text15"
       xml:space="preserve"
       transform="matrix(0.95789164,0,0,0.95789164,8.6210248,82.378681)"
       clip-path="url(#clipPath16)"><tspan
         style="font-variant:normal;font-weight:normal;font-size:11px;font-family:Helvetica;writing-mode:lr-tb;fill:#333333;fill-opacity:1;fill-rule:nonzero;stroke:none"
         x="0"
         y="0"
         id="tspan15">]</tspan></text>
    <path
       id="path17"
       d="m 411,56 h 20 -20 13.64001"
       style="fill:none;stroke:#000000;stroke-width:1;stroke-linecap:butt;stroke-linejoin:miter;stroke-miterlimit:10;stroke-dasharray:none;stroke-opacity:1"
       transform="matrix(0.95788204,0,0,0.95788204,0.47894102,0.47894102)"
       clip-path="url(#clipPath18)" />
    <path
       id="path19"
       d="m 429.89001,56 -7,3.5 1.75,-3.5 -1.75,-3.5 z"
       style="fill:#000000;fill-opacity:1;fill-rule:nonzero;stroke:#000000;stroke-width:1;stroke-linecap:butt;stroke-linejoin:miter;stroke-miterlimit:10;stroke-dasharray:none;stroke-opacity:1"
       transform="matrix(0.95788204,0,0,0.95788204,0.47894102,0.47894102)"
       clip-path="url(#clipPath20)" />
    <path
       id="path21"
       d="m 281,32.25 h 130 v 47.5 H 281 Z"
       style="fill:#dae8fc;fill-opacity:1;fill-rule:nonzero;stroke:#6c8ebf;stroke-width:1;stroke-linecap:butt;stroke-linejoin:miter;stroke-miterlimit:10;stroke-dasharray:none;stroke-opacity:1"
       transform="matrix(0.95788204,0,0,0.95788204,0.47894102,0.47894102)"
       clip-path="url(#clipPath22)" />
    <text
       id="text22"
       xml:space="preserve"
       transform="matrix(0.95789164,0,0,0.95789164,277.38447,50.768257)"
       clip-path="url(#clipPath23)"><tspan
         style="font-variant:normal;font-weight:700;font-size:14px;font-family:Helvetica;writing-mode:lr-tb;fill:#000000;fill-opacity:1;fill-rule:nonzero;stroke:none"
         x="0 10.110352 18.662109 22.551758 30.337891 34.227539 44.337891 49.786133 57.572266 65.358398 70.020508 77.806641 81.696289 91.806641 99.592773 107.37891"
         y="0"
         sodipodi:role="line"
         id="tspan22">Bulk Create User</tspan></text>
    <text
       id="text23"
       xml:space="preserve"
       transform="matrix(0.95789164,0,0,0.95789164,274.95981,67.052415)"
       clip-path="url(#clipPath24)"><tspan
         style="font-variant:normal;font-weight:700;font-size:14px;font-family:Helvetica;writing-mode:lr-tb;fill:#000000;fill-opacity:1;fill-rule:nonzero;stroke:none"
         x="0 10.110352 17.896484 26.448242 35 38.889648 46.675781 52.124023 56.013672 64.189453 68.079102 77.416992 85.203125 90.651367 98.4375 102.32715 110.11328"
         y="0"
         sodipodi:role="line"
         id="tspan23">Handler + Service</tspan></text>
    <path
       id="path25"
       d="M 151,41 H 251 V 71 H 151 Z"
       style="fill:#d5e8d4;fill-opacity:1;fill-rule:nonzero;stroke:#82b366;stroke-width:1;stroke-linecap:butt;stroke-linejoin:miter;stroke-miterlimit:10;stroke-dasharray:none;stroke-opacity:1"
       transform="matrix(0.95788204,0,0,0.95788204,0.47894102,0.47894102)"
       clip-path="url(#clipPath26)" />
    <text
       id="text26"
       xml:space="preserve"
       transform="matrix(0.95789164,0,0,0.95789164,148.60791,58.43139)"
       clip-path="url(#clipPath27)"><tspan
         style="font-variant:normal;font-weight:700;font-size:10px;font-family:Helvetica;writing-mode:lr-tb;fill:#000000;fill-opacity:1;fill-rule:nonzero;stroke:none"
         x="0 7.2216797 13.330078 16.108398 21.669922 28.891602 32.783203 38.344727 43.90625 47.236328 52.797852 60.019531 65.581055 71.142578 75.03418 82.255859 85.585938"
         y="0"
         sodipodi:role="line"
         id="tspan26">BulkCreateUserDto</tspan></text>
    <text
       id="text27"
       xml:space="preserve"
       transform="matrix(0.95789164,0,0,0.95789164,153.12796,80.462898)"
       clip-path="url(#clipPath28)"><tspan
         style="font-style:oblique;font-variant:normal;font-weight:normal;font-size:10px;font-family:Helvetica;writing-mode:lr-tb;fill:#000000;fill-opacity:1;fill-rule:nonzero;stroke:none"
         x="0 6.6699219 12.231445 17.231445 22.792969 26.123047 31.68457 36.68457 39.462891 45.024414 53.354492 58.916016 61.137695 63.359375 66.137695 68.359375 73.359375 76.137695 81.699219"
         y="0"
         sodipodi:role="line"
         id="tspan27">Ensures email is an</tspan></text>
    <text
       id="text28"
       xml:space="preserve"
       transform="matrix(0.95789164,0,0,0.95789164,183.48116,91.957597)"
       clip-path="url(#clipPath29)"><tspan
         style="font-style:oblique;font-variant:normal;font-weight:normal;font-size:10px;font-family:Helvetica;writing-mode:lr-tb;fill:#000000;fill-opacity:1;fill-rule:nonzero;stroke:none"
         x="0 5.5615234 13.891602 19.453125 21.674805"
         y="0"
         sodipodi:role="line"
         id="tspan28">email</tspan></text>
    <path
       id="path30"
       d="M 281,79.75 H 411 V 151 H 281 Z"
       style="fill:#dae8fc;fill-opacity:1;fill-rule:nonzero;stroke:#6c8ebf;stroke-width:1;stroke-linecap:butt;stroke-linejoin:miter;stroke-miterlimit:10;stroke-dasharray:none;stroke-opacity:1"
       transform="matrix(0.95788204,0,0,0.95788204,0.47894102,0.47894102)"
       clip-path="url(#clipPath31)" />
    <text
       id="text31"
       xml:space="preserve"
       transform="matrix(0.95789164,0,0,0.95789164,272.84945,91.957597)"
       clip-path="url(#clipPath32)"><tspan
         style="font-style:oblique;font-variant:normal;font-weight:normal;font-size:10px;font-family:Helvetica;writing-mode:lr-tb;fill:#000000;fill-opacity:1;fill-rule:nonzero;stroke:none"
         x="0 7.2216797 12.783203 18.344727 23.90625 26.68457 29.462891 35.024414 37.802734 43.364258 48.925781 54.487305 60.048828 63.378906 68.94043 71.71875 77.280273 80.058594 85.620117 88.398438 91.728516 97.290039 102.85156 108.41309 113.97461"
         y="0"
         sodipodi:role="line"
         id="tspan31">Code to generate a random</tspan></text>
    <text
       id="text32"
       xml:space="preserve"
       transform="matrix(0.95789164,0,0,0.95789164,278.17772,103.4523)"
       clip-path="url(#clipPath33)"><tspan
         style="font-style:oblique;font-variant:normal;font-weight:normal;font-size:10px;font-family:Helvetica;writing-mode:lr-tb;fill:#000000;fill-opacity:1;fill-rule:nonzero;stroke:none"
         x="0 5.5615234 11.123047 16.123047 21.123047 28.344727 33.90625 37.236328 42.797852 45.576172 48.354492 53.916016 57.246094 60.024414 65.585938 71.147461 76.147461 81.708984 84.487305 90.048828 98.378906 103.94043 106.16211 108.38379"
         y="0"
         sodipodi:role="line"
         id="tspan32">password for each email,</tspan></text>
    <text
       id="text33"
       xml:space="preserve"
       transform="matrix(0.95789164,0,0,0.95789164,273.65767,114.947)"
       clip-path="url(#clipPath34)"><tspan
         style="font-style:oblique;font-variant:normal;font-weight:normal;font-size:10px;font-family:Helvetica;writing-mode:lr-tb;fill:#000000;fill-opacity:1;fill-rule:nonzero;stroke:none"
         x="0 5 10.561523 15.561523 21.123047 23.901367 29.462891 35.024414 40.024414 45.585938 48.364258 53.925781 62.255859 67.817383 70.039062 72.260742 75.039062 80.600586 87.822266 90.600586 96.162109 101.72363 103.94531 107.27539 110.05371 115.61523"
         y="0"
         sodipodi:role="line"
         id="tspan33">save each email/pw pair as</tspan></text>
    <text
       id="text34"
       xml:space="preserve"
       transform="matrix(0.95789164,0,0,0.95789164,271.24798,126.4417)"
       clip-path="url(#clipPath35)"><tspan
         style="font-style:oblique;font-variant:normal;font-weight:normal;font-size:10px;font-family:Helvetica;writing-mode:lr-tb;fill:#000000;fill-opacity:1;fill-rule:nonzero;stroke:none"
         x="0 5.5615234 8.3398438 13.901367 19.462891 26.68457 29.462891 35.024414 40.024414 45.585938 48.369141 51.147461 53.925781 59.487305 65.048828 70.610352 73.388672 78.388672 83.950195 89.511719 95.073242 97.851562 103.41309 108.97461 111.75293 114.53125 120.09277"
         y="0"
         sodipodi:role="line"
         id="tspan34">a new user, and send out an</tspan></text>
    <text
       id="text35"
       xml:space="preserve"
       transform="matrix(0.95789164,0,0,0.95789164,319.98071,137.9364)"
       clip-path="url(#clipPath36)"><tspan
         style="font-style:oblique;font-variant:normal;font-weight:normal;font-size:10px;font-family:Helvetica;writing-mode:lr-tb;fill:#000000;fill-opacity:1;fill-rule:nonzero;stroke:none"
         x="0 5.5615234 13.891602 19.453125 21.674805"
         y="0"
         sodipodi:role="line"
         id="tspan35">email</tspan></text>
    <path
       id="path37"
       d="M 431,26 H 551 V 86 H 431 Z"
       style="fill:#f8cecc;fill-opacity:1;fill-rule:nonzero;stroke:#b85450;stroke-width:1;stroke-linecap:butt;stroke-linejoin:miter;stroke-miterlimit:10;stroke-dasharray:none;stroke-opacity:1"
       transform="matrix(0.95788204,0,0,0.95788204,0.47894102,0.47894102)"
       clip-path="url(#clipPath38)" />
    <text
       id="text38"
       xml:space="preserve"
       transform="matrix(0.95789164,0,0,0.95789164,429.55453,52.68404)"
       clip-path="url(#clipPath39)"><tspan
         style="font-variant:normal;font-weight:normal;font-size:10px;font-family:Helvetica;writing-mode:lr-tb;fill:#000000;fill-opacity:1;fill-rule:nonzero;stroke:none"
         x="0 3.3398438 6.1181641 11.679688 20.009766 25.571289 27.792969 30.014648 32.792969 35.571289 37.480469 43.041992 53.193359 58.754883 61.533203 66.533203 72.094727 80.424805 82.333984"
         y="0"
         sodipodi:role="line"
         id="tspan38">{ email: 'a@a.com',</tspan></text>
    <g
       id="g39" />
    <text
       id="text39"
       xml:space="preserve"
       transform="matrix(0.95789164,0,0,0.95789164,423.19354,64.17874)"
       clip-path="url(#clipPath40)"><tspan
         style="font-variant:normal;font-weight:normal;font-size:10px;font-family:Helvetica;writing-mode:lr-tb;fill:#000000;fill-opacity:1;fill-rule:nonzero;stroke:none"
         x="0 5.5615234 11.123047 16.123047 21.123047 28.344727 33.90625 37.236328 42.797852 45.576172 48.354492 53.916016 59.477539 65.039062 70.600586 75.600586 81.162109 86.723633 92.285156 95.063477"
         y="0"
         sodipodi:role="line"
         id="tspan39">password: undeﬁned }</tspan></text>
    <text
       id="text40"
       xml:space="preserve"
       transform="matrix(0.95789164,0,0,0.95789164,357.50312,15.326266)"
       clip-path="url(#clipPath41)"><tspan
         style="font-variant:normal;font-weight:700;font-size:14px;font-family:Helvetica;writing-mode:lr-tb;fill:#000000;fill-opacity:1;fill-rule:nonzero;stroke:none"
         x="0 10.889648 19.441406 27.993164 35.779297 39.668945 43.558594 51.344727 55.234375 63.786133 72.337891 80.889648"
         y="0"
         sodipodi:role="line"
         id="tspan40">Oops, a bug!</tspan></text>
  </g>
</svg>
