<?xml version="1.0" encoding="UTF-8" standalone="no"?>
<!-- Created with Inkscape (http://www.inkscape.org/) -->

<svg
   version="1.1"
   id="svg1"
   width="798.71997"
   height="168"
   viewBox="0 0 798.71997 168"
   sodipodi:docname="nest-4.pdf"
   xmlns:inkscape="http://www.inkscape.org/namespaces/inkscape"
   xmlns:sodipodi="http://sodipodi.sourceforge.net/DTD/sodipodi-0.dtd"
   xmlns="http://www.w3.org/2000/svg"
   xmlns:svg="http://www.w3.org/2000/svg">
  <defs
     id="defs1">
    <clipPath
       clipPathUnits="userSpaceOnUse"
       id="clipPath2">
      <path
         d="M 0,0 H 2495.8333 V 523.70599 H 0 Z"
         transform="scale(0.33415695)"
         clip-rule="evenodd"
         id="path2" />
    </clipPath>
    <clipPath
       clipPathUnits="userSpaceOnUse"
       id="clipPath4">
      <path
         d="M 0,0 H 2495.8333 V 520.71338 H 0 Z"
         transform="matrix(0.33415695,0,0,0.33415695,-0.5,-0.5)"
         clip-rule="evenodd"
         id="path4" />
    </clipPath>
    <clipPath
       clipPathUnits="userSpaceOnUse"
       id="clipPath5">
      <path
         d="M 0,0 H 2495.8333 V 520.71338 H 0 Z"
         transform="matrix(0.3341536,0,0,0.3341536,-180.96875,-21)"
         clip-rule="evenodd"
         id="path5" />
    </clipPath>
    <clipPath
       clipPathUnits="userSpaceOnUse"
       id="clipPath7">
      <path
         d="M 0,0 H 2495.8333 V 520.71338 H 0 Z"
         transform="matrix(0.33415695,0,0,0.33415695,-0.5,-0.5)"
         clip-rule="evenodd"
         id="path7" />
    </clipPath>
    <clipPath
       clipPathUnits="userSpaceOnUse"
       id="clipPath8">
      <path
         d="M 0,0 H 2495.8333 V 520.71338 H 0 Z"
         transform="matrix(0.3341536,0,0,0.3341536,-33,-53)"
         clip-rule="evenodd"
         id="path8" />
    </clipPath>
    <clipPath
       clipPathUnits="userSpaceOnUse"
       id="clipPath9">
      <path
         d="M 0,0 H 2495.8333 V 520.71338 H 0 Z"
         transform="matrix(0.3341536,0,0,0.3341536,-33,-71)"
         clip-rule="evenodd"
         id="path9" />
    </clipPath>
    <clipPath
       clipPathUnits="userSpaceOnUse"
       id="clipPath11">
      <path
         d="M 0,0 H 2495.8333 V 520.71338 H 0 Z"
         transform="matrix(0.33415695,0,0,0.33415695,-0.5,-0.5)"
         clip-rule="evenodd"
         id="path11" />
    </clipPath>
    <clipPath
       clipPathUnits="userSpaceOnUse"
       id="clipPath12">
      <path
         d="M 0,0 H 2495.8333 V 520.71338 H 0 Z"
         transform="matrix(0.3341536,0,0,0.3341536,-592.96875,-21)"
         clip-rule="evenodd"
         id="path12" />
    </clipPath>
    <clipPath
       clipPathUnits="userSpaceOnUse"
       id="clipPath14">
      <path
         d="M 0,0 H 2495.8333 V 520.71338 H 0 Z"
         transform="matrix(0.33415695,0,0,0.33415695,-0.5,-0.5)"
         clip-rule="evenodd"
         id="path14" />
    </clipPath>
    <clipPath
       clipPathUnits="userSpaceOnUse"
       id="clipPath15">
      <path
         d="M 0,0 H 2495.8333 V 520.71338 H 0 Z"
         transform="matrix(0.3341536,0,0,0.3341536,-453,-53)"
         clip-rule="evenodd"
         id="path15" />
    </clipPath>
    <clipPath
       clipPathUnits="userSpaceOnUse"
       id="clipPath16">
      <path
         d="M 0,0 H 2495.8333 V 520.71338 H 0 Z"
         transform="matrix(0.3341536,0,0,0.3341536,-453,-71)"
         clip-rule="evenodd"
         id="path16" />
    </clipPath>
    <clipPath
       clipPathUnits="userSpaceOnUse"
       id="clipPath18">
      <path
         d="M 0,0 H 2495.8333 V 520.71338 H 0 Z"
         transform="matrix(0.33415695,0,0,0.33415695,-0.5,-0.5)"
         clip-rule="evenodd"
         id="path18" />
    </clipPath>
    <clipPath
       clipPathUnits="userSpaceOnUse"
       id="clipPath20">
      <path
         d="M 0,0 H 2495.8333 V 520.71338 H 0 Z"
         transform="matrix(0.33415695,0,0,0.33415695,-0.5,-0.5)"
         clip-rule="evenodd"
         id="path20" />
    </clipPath>
    <clipPath
       clipPathUnits="userSpaceOnUse"
       id="clipPath22">
      <path
         d="M 0,0 H 2495.8333 V 520.71338 H 0 Z"
         transform="matrix(0.33415695,0,0,0.33415695,-0.5,-0.5)"
         clip-rule="evenodd"
         id="path22" />
    </clipPath>
    <clipPath
       clipPathUnits="userSpaceOnUse"
       id="clipPath24">
      <path
         d="M 0,0 H 2495.8333 V 520.71338 H 0 Z"
         transform="matrix(0.33415695,0,0,0.33415695,-0.5,-0.5)"
         clip-rule="evenodd"
         id="path24" />
    </clipPath>
    <clipPath
       clipPathUnits="userSpaceOnUse"
       id="clipPath25">
      <path
         d="M 0,0 H 2495.8333 V 520.71338 H 0 Z"
         transform="matrix(0.3341536,0,0,0.3341536,-12.96875,-138)"
         clip-rule="evenodd"
         id="path25" />
    </clipPath>
    <clipPath
       clipPathUnits="userSpaceOnUse"
       id="clipPath26">
      <path
         d="M 0,0 H 2495.8333 V 520.71338 H 0 Z"
         transform="matrix(0.3341536,0,0,0.3341536,-14.21875,-156)"
         clip-rule="evenodd"
         id="path26" />
    </clipPath>
    <clipPath
       clipPathUnits="userSpaceOnUse"
       id="clipPath28">
      <path
         d="M 0,0 H 2495.8333 V 520.71338 H 0 Z"
         transform="matrix(0.33415695,0,0,0.33415695,-0.5,-0.5)"
         clip-rule="evenodd"
         id="path28" />
    </clipPath>
    <clipPath
       clipPathUnits="userSpaceOnUse"
       id="clipPath30">
      <path
         d="M 0,0 H 2495.8333 V 520.71338 H 0 Z"
         transform="matrix(0.33415695,0,0,0.33415695,-0.5,-0.5)"
         clip-rule="evenodd"
         id="path30" />
    </clipPath>
    <clipPath
       clipPathUnits="userSpaceOnUse"
       id="clipPath32">
      <path
         d="M 0,0 H 2495.8333 V 520.71338 H 0 Z"
         transform="matrix(0.33415695,0,0,0.33415695,-0.5,-0.5)"
         clip-rule="evenodd"
         id="path32" />
    </clipPath>
    <clipPath
       clipPathUnits="userSpaceOnUse"
       id="clipPath33">
      <path
         d="M 0,0 H 2495.8333 V 520.71338 H 0 Z"
         transform="matrix(0.3341536,0,0,0.3341536,-154.64062,-129)"
         clip-rule="evenodd"
         id="path33" />
    </clipPath>
    <clipPath
       clipPathUnits="userSpaceOnUse"
       id="clipPath34">
      <path
         d="M 0,0 H 2495.8333 V 520.71338 H 0 Z"
         transform="matrix(0.3341536,0,0,0.3341536,-162.14063,-147)"
         clip-rule="evenodd"
         id="path34" />
    </clipPath>
    <clipPath
       clipPathUnits="userSpaceOnUse"
       id="clipPath35">
      <path
         d="M 0,0 H 2495.8333 V 520.71338 H 0 Z"
         transform="matrix(0.3341536,0,0,0.3341536,-158.79688,-165)"
         clip-rule="evenodd"
         id="path35" />
    </clipPath>
    <clipPath
       clipPathUnits="userSpaceOnUse"
       id="clipPath37">
      <path
         d="M 0,0 H 2495.8333 V 520.71338 H 0 Z"
         transform="matrix(0.33415695,0,0,0.33415695,-0.5,-0.5)"
         clip-rule="evenodd"
         id="path37" />
    </clipPath>
    <clipPath
       clipPathUnits="userSpaceOnUse"
       id="clipPath39">
      <path
         d="M 0,0 H 2495.8333 V 520.71338 H 0 Z"
         transform="matrix(0.33415695,0,0,0.33415695,-0.5,-0.5)"
         clip-rule="evenodd"
         id="path39" />
    </clipPath>
    <clipPath
       clipPathUnits="userSpaceOnUse"
       id="clipPath41">
      <path
         d="M 0,0 H 2495.8333 V 520.71338 H 0 Z"
         transform="matrix(0.33415695,0,0,0.33415695,-0.5,-0.5)"
         clip-rule="evenodd"
         id="path41" />
    </clipPath>
    <clipPath
       clipPathUnits="userSpaceOnUse"
       id="clipPath43">
      <path
         d="M 0,0 H 2495.8333 V 520.71338 H 0 Z"
         transform="matrix(0.33415695,0,0,0.33415695,-0.5,-0.5)"
         clip-rule="evenodd"
         id="path43" />
    </clipPath>
    <clipPath
       clipPathUnits="userSpaceOnUse"
       id="clipPath45">
      <path
         d="M 0,0 H 2495.8333 V 520.71338 H 0 Z"
         transform="matrix(0.33415695,0,0,0.33415695,-0.5,-0.5)"
         clip-rule="evenodd"
         id="path45" />
    </clipPath>
    <clipPath
       clipPathUnits="userSpaceOnUse"
       id="clipPath46">
      <path
         d="M 0,0 H 2495.8333 V 520.71338 H 0 Z"
         transform="matrix(0.3341536,0,0,0.3341536,-288.39063,-129)"
         clip-rule="evenodd"
         id="path46" />
    </clipPath>
    <clipPath
       clipPathUnits="userSpaceOnUse"
       id="clipPath47">
      <path
         d="M 0,0 H 2495.8333 V 520.71338 H 0 Z"
         transform="matrix(0.3341536,0,0,0.3341536,-293.625,-147)"
         clip-rule="evenodd"
         id="path47" />
    </clipPath>
    <clipPath
       clipPathUnits="userSpaceOnUse"
       id="clipPath48">
      <path
         d="M 0,0 H 2495.8333 V 520.71338 H 0 Z"
         transform="matrix(0.3341536,0,0,0.3341536,-304.64063,-165)"
         clip-rule="evenodd"
         id="path48" />
    </clipPath>
    <clipPath
       clipPathUnits="userSpaceOnUse"
       id="clipPath50">
      <path
         d="M 0,0 H 2495.8333 V 520.71338 H 0 Z"
         transform="matrix(0.33415695,0,0,0.33415695,-0.5,-0.5)"
         clip-rule="evenodd"
         id="path50" />
    </clipPath>
    <clipPath
       clipPathUnits="userSpaceOnUse"
       id="clipPath52">
      <path
         d="M 0,0 H 2495.8333 V 520.71338 H 0 Z"
         transform="matrix(0.33415695,0,0,0.33415695,-0.5,-0.5)"
         clip-rule="evenodd"
         id="path52" />
    </clipPath>
    <clipPath
       clipPathUnits="userSpaceOnUse"
       id="clipPath54">
      <path
         d="M 0,0 H 2495.8333 V 520.71338 H 0 Z"
         transform="matrix(0.33415695,0,0,0.33415695,-0.5,-0.5)"
         clip-rule="evenodd"
         id="path54" />
    </clipPath>
    <clipPath
       clipPathUnits="userSpaceOnUse"
       id="clipPath56">
      <path
         d="M 0,0 H 2495.8333 V 520.71338 H 0 Z"
         transform="matrix(0.33415695,0,0,0.33415695,-0.5,-0.5)"
         clip-rule="evenodd"
         id="path56" />
    </clipPath>
    <clipPath
       clipPathUnits="userSpaceOnUse"
       id="clipPath57">
      <path
         d="M 0,0 H 2495.8333 V 520.71338 H 0 Z"
         transform="matrix(0.3341536,0,0,0.3341536,-449.21875,-129)"
         clip-rule="evenodd"
         id="path57" />
    </clipPath>
    <clipPath
       clipPathUnits="userSpaceOnUse"
       id="clipPath58">
      <path
         d="M 0,0 H 2495.8333 V 520.71338 H 0 Z"
         transform="matrix(0.3341536,0,0,0.3341536,-447.53125,-147)"
         clip-rule="evenodd"
         id="path58" />
    </clipPath>
    <clipPath
       clipPathUnits="userSpaceOnUse"
       id="clipPath59">
      <path
         d="M 0,0 H 2495.8333 V 520.71338 H 0 Z"
         transform="matrix(0.3341536,0,0,0.3341536,-478.40625,-165)"
         clip-rule="evenodd"
         id="path59" />
    </clipPath>
    <clipPath
       clipPathUnits="userSpaceOnUse"
       id="clipPath61">
      <path
         d="M 0,0 H 2495.8333 V 520.71338 H 0 Z"
         transform="matrix(0.33415695,0,0,0.33415695,-0.5,-0.5)"
         clip-rule="evenodd"
         id="path61" />
    </clipPath>
    <clipPath
       clipPathUnits="userSpaceOnUse"
       id="clipPath63">
      <path
         d="M 0,0 H 2495.8333 V 520.71338 H 0 Z"
         transform="matrix(0.33415695,0,0,0.33415695,-0.5,-0.5)"
         clip-rule="evenodd"
         id="path63" />
    </clipPath>
    <clipPath
       clipPathUnits="userSpaceOnUse"
       id="clipPath65">
      <path
         d="M 0,0 H 2495.8333 V 520.71338 H 0 Z"
         transform="matrix(0.33415695,0,0,0.33415695,-0.5,-0.5)"
         clip-rule="evenodd"
         id="path65" />
    </clipPath>
    <clipPath
       clipPathUnits="userSpaceOnUse"
       id="clipPath66">
      <path
         d="M 0,0 H 2495.8333 V 520.71338 H 0 Z"
         transform="matrix(0.3341536,0,0,0.3341536,-574.64064,-129)"
         clip-rule="evenodd"
         id="path66" />
    </clipPath>
    <clipPath
       clipPathUnits="userSpaceOnUse"
       id="clipPath67">
      <path
         d="M 0,0 H 2495.8333 V 520.71338 H 0 Z"
         transform="matrix(0.3341536,0,0,0.3341536,-582.14063,-147)"
         clip-rule="evenodd"
         id="path67" />
    </clipPath>
    <clipPath
       clipPathUnits="userSpaceOnUse"
       id="clipPath68">
      <path
         d="M 0,0 H 2495.8333 V 520.71338 H 0 Z"
         transform="matrix(0.3341536,0,0,0.3341536,-578.79688,-165)"
         clip-rule="evenodd"
         id="path68" />
    </clipPath>
    <clipPath
       clipPathUnits="userSpaceOnUse"
       id="clipPath70">
      <path
         d="M 0,0 H 2495.8333 V 520.71338 H 0 Z"
         transform="matrix(0.33415695,0,0,0.33415695,-0.5,-0.5)"
         clip-rule="evenodd"
         id="path70" />
    </clipPath>
    <clipPath
       clipPathUnits="userSpaceOnUse"
       id="clipPath72">
      <path
         d="M 0,0 H 2495.8333 V 520.71338 H 0 Z"
         transform="matrix(0.33415695,0,0,0.33415695,-0.5,-0.5)"
         clip-rule="evenodd"
         id="path72" />
    </clipPath>
    <clipPath
       clipPathUnits="userSpaceOnUse"
       id="clipPath74">
      <path
         d="M 0,0 H 2495.8333 V 520.71338 H 0 Z"
         transform="matrix(0.33415695,0,0,0.33415695,-0.5,-0.5)"
         clip-rule="evenodd"
         id="path74" />
    </clipPath>
    <clipPath
       clipPathUnits="userSpaceOnUse"
       id="clipPath76">
      <path
         d="M 0,0 H 2495.8333 V 520.71338 H 0 Z"
         transform="matrix(0.33415695,0,0,0.33415695,-0.5,-0.5)"
         clip-rule="evenodd"
         id="path76" />
    </clipPath>
    <clipPath
       clipPathUnits="userSpaceOnUse"
       id="clipPath78">
      <path
         d="M 0,0 H 2495.8333 V 520.71338 H 0 Z"
         transform="matrix(0.33415695,0,0,0.33415695,-0.5,-0.5)"
         clip-rule="evenodd"
         id="path78" />
    </clipPath>
    <clipPath
       clipPathUnits="userSpaceOnUse"
       id="clipPath79">
      <path
         d="M 0,0 H 2495.8333 V 520.71338 H 0 Z"
         transform="matrix(0.3341536,0,0,0.3341536,-704.81251,-131)"
         clip-rule="evenodd"
         id="path79" />
    </clipPath>
    <clipPath
       clipPathUnits="userSpaceOnUse"
       id="clipPath80">
      <path
         d="M 0,0 H 2495.8333 V 520.71338 H 0 Z"
         transform="matrix(0.3341536,0,0,0.3341536,-720.29688,-145)"
         clip-rule="evenodd"
         id="path80" />
    </clipPath>
    <clipPath
       clipPathUnits="userSpaceOnUse"
       id="clipPath81">
      <path
         d="M 0,0 H 2495.8333 V 520.71338 H 0 Z"
         transform="matrix(0.3341536,0,0,0.3341536,-706.29688,-160)"
         clip-rule="evenodd"
         id="path81" />
    </clipPath>
  </defs>
  <sodipodi:namedview
     id="namedview1"
     pagecolor="#ffffff"
     bordercolor="#000000"
     borderopacity="0.25"
     inkscape:showpageshadow="2"
     inkscape:pageopacity="0.0"
     inkscape:pagecheckerboard="0"
     inkscape:deskcolor="#d1d1d1">
    <inkscape:page
       x="0"
       y="0"
       inkscape:label="1"
       id="page1"
       width="798.71997"
       height="168"
       margin="0"
       bleed="0" />
  </sodipodi:namedview>
  <g
     id="g1"
     inkscape:groupmode="layer"
     inkscape:label="1">
    <path
       id="path1"
       d="M 0,0 H 834 V 175 H 0 Z"
       style="fill:#ffffff;fill-opacity:1;fill-rule:nonzero;stroke:none"
       transform="scale(0.95763378)"
       clip-path="url(#clipPath2)" />
    <path
       id="path3"
       d="M 31,1 H 411 V 31 H 31 Z"
       style="fill:#dae8fc;fill-opacity:1;fill-rule:nonzero;stroke:#6c8ebf;stroke-width:1;stroke-linecap:butt;stroke-linejoin:miter;stroke-miterlimit:10;stroke-dasharray:none;stroke-opacity:1"
       transform="matrix(0.95763378,0,0,0.95763378,0.47881689,0.47881689)"
       clip-path="url(#clipPath4)" />
    <text
       id="text4"
       xml:space="preserve"
       transform="matrix(0.95764338,0,0,0.95764338,173.30353,20.110511)"
       clip-path="url(#clipPath5)"><tspan
         style="font-variant:normal;font-weight:700;font-size:16px;font-family:Helvetica;writing-mode:lr-tb;fill:#000000;fill-opacity:1;fill-rule:nonzero;stroke:none"
         x="0 8.8984375 13.34375 22.242188 31.140625 40.039062 44.484375 56.039062 64.9375 73.835938"
         y="0"
         sodipodi:role="line"
         id="tspan4">class User</tspan></text>
    <path
       id="path6"
       d="M 31,31 H 411 V 81 H 31 Z"
       style="fill:#dae8fc;fill-opacity:1;fill-rule:nonzero;stroke:#6c8ebf;stroke-width:1;stroke-linecap:butt;stroke-linejoin:miter;stroke-miterlimit:10;stroke-dasharray:none;stroke-opacity:1"
       transform="matrix(0.95763378,0,0,0.95763378,0.47881689,0.47881689)"
       clip-path="url(#clipPath7)" />
    <text
       id="text7"
       xml:space="preserve"
       transform="matrix(0.95764338,0,0,0.95764338,31.602232,50.755099)"
       clip-path="url(#clipPath8)"><tspan
         style="font-variant:normal;font-weight:normal;font-size:15px;font-family:Helvetica;writing-mode:lr-tb;fill:#000000;fill-opacity:1;fill-rule:nonzero;stroke:none"
         x="0 15.227051 26.894531 35.236816 43.579102 51.079102 59.421387 71.916504 80.258789 88.601074 96.101074 101.09619 106.09131 111.08643 115.25391 124.01367 132.77344 136.94092 147.77344 156.11572 164.45801 172.80029 177.79541 181.96289 186.13037 190.29785 195.29297 203.63525 211.97754 220.31982 225.31494 229.48242 233.6499 242.40967 251.16943 255.33691 260.33203 268.67432 277.0166 285.35889 290.354 294.52148 298.68896 307.03125 314.53125 322.87354 327.86865"
         y="0"
         sodipodi:role="line"
         id="tspan7">@OneToMany(() =&gt; Report, report =&gt; report.user)</tspan></text>
    <text
       id="text8"
       xml:space="preserve"
       transform="matrix(0.95764338,0,0,0.95764338,31.602232,67.99268)"
       clip-path="url(#clipPath9)"><tspan
         style="font-variant:normal;font-weight:normal;font-size:15px;font-family:Helvetica;writing-mode:lr-tb;fill:#000000;fill-opacity:1;fill-rule:nonzero;stroke:none"
         x="0 4.9951172 13.337402 21.679688 30.021973 35.01709 39.18457 46.68457 50.852051 55.019531 65.852051 74.194336 82.536621 90.878906 95.874023 100.0415 104.20898"
         y="0"
         sodipodi:role="line"
         id="tspan8">reports: Report[]</tspan></text>
    <path
       id="path10"
       d="M 451,1 H 831 V 31 H 451 Z"
       style="fill:#dae8fc;fill-opacity:1;fill-rule:nonzero;stroke:#6c8ebf;stroke-width:1;stroke-linecap:butt;stroke-linejoin:miter;stroke-miterlimit:10;stroke-dasharray:none;stroke-opacity:1"
       transform="matrix(0.95763378,0,0,0.95763378,0.47881689,0.47881689)"
       clip-path="url(#clipPath11)" />
    <text
       id="text11"
       xml:space="preserve"
       transform="matrix(0.95764338,0,0,0.95764338,567.8526,20.110511)"
       clip-path="url(#clipPath12)"><tspan
         style="font-variant:normal;font-weight:700;font-size:16px;font-family:Helvetica;writing-mode:lr-tb;fill:#000000;fill-opacity:1;fill-rule:nonzero;stroke:none"
         x="0 8.8984375 13.34375 22.242188 31.140625 40.039062 44.484375 56.039062 64.9375 74.710938 84.484375 90.710938"
         y="0"
         sodipodi:role="line"
         id="tspan11">class Report</tspan></text>
    <path
       id="path13"
       d="M 451,31 H 831 V 81 H 451 Z"
       style="fill:#dae8fc;fill-opacity:1;fill-rule:nonzero;stroke:#6c8ebf;stroke-width:1;stroke-linecap:butt;stroke-linejoin:miter;stroke-miterlimit:10;stroke-dasharray:none;stroke-opacity:1"
       transform="matrix(0.95763378,0,0,0.95763378,0.47881689,0.47881689)"
       clip-path="url(#clipPath14)" />
    <text
       id="text14"
       xml:space="preserve"
       transform="matrix(0.95764338,0,0,0.95764338,433.81245,50.755099)"
       clip-path="url(#clipPath15)"><tspan
         style="font-variant:normal;font-weight:normal;font-size:15px;font-family:Helvetica;writing-mode:lr-tb;fill:#000000;fill-opacity:1;fill-rule:nonzero;stroke:none"
         x="0 15.227051 27.722168 36.064453 44.406738 51.906738 59.406738 67.749023 79.416504 87.758789 96.101074 101.09619 106.09131 111.08643 115.25391 124.01367 132.77344 136.94092 147.77344 155.27344 163.61572 167.79053 171.95801 176.12549 184.46777 191.96777 200.31006 205.30518 209.47266 218.23242 226.99219 231.15967 239.50195 247.00195 255.34424 259.51904 263.68652 268.68164 277.02393 285.36621 293.7085 298.70361 302.87109 310.37109"
         y="0"
         sodipodi:role="line"
         id="tspan14">@ManyToOne(() =&gt; User, user =&gt; user.reports)</tspan></text>
    <text
       id="text15"
       xml:space="preserve"
       transform="matrix(0.95764338,0,0,0.95764338,433.81245,67.99268)"
       clip-path="url(#clipPath16)"><tspan
         style="font-variant:normal;font-weight:normal;font-size:15px;font-family:Helvetica;writing-mode:lr-tb;fill:#000000;fill-opacity:1;fill-rule:nonzero;stroke:none"
         x="0 8.3422852 15.842285 24.18457 29.179688 33.347168 37.514648 48.347168 55.847168 64.189453"
         y="0"
         sodipodi:role="line"
         id="tspan15">user: User</tspan></text>
    <path
       id="path17"
       d="m 47,40 h 83 V 58 H 47 Z"
       style="fill:none;stroke:#b85450;stroke-width:1;stroke-linecap:butt;stroke-linejoin:miter;stroke-miterlimit:10;stroke-dasharray:none;stroke-opacity:1"
       transform="matrix(0.95763378,0,0,0.95763378,0.47881689,0.47881689)"
       clip-path="url(#clipPath18)" />
    <path
       id="path19"
       d="M 58,111 V 84.5 H 88.5 V 64.370003"
       style="fill:none;stroke:#000000;stroke-width:1;stroke-linecap:butt;stroke-linejoin:miter;stroke-miterlimit:10;stroke-dasharray:none;stroke-opacity:1"
       transform="matrix(0.95763378,0,0,0.95763378,0.47881689,0.47881689)"
       clip-path="url(#clipPath20)" />
    <path
       id="path21"
       d="m 88.5,59.119999 3.5,7.000004 -3.5,-1.75 -3.5,1.75 z"
       style="fill:#000000;fill-opacity:1;fill-rule:nonzero;stroke:#000000;stroke-width:1;stroke-linecap:butt;stroke-linejoin:miter;stroke-miterlimit:10;stroke-dasharray:none;stroke-opacity:1"
       transform="matrix(0.95763378,0,0,0.95763378,0.47881689,0.47881689)"
       clip-path="url(#clipPath22)" />
    <path
       id="path23"
       d="m 1,111 h 114 v 60 H 1 Z"
       style="fill:#f8cecc;fill-opacity:1;fill-rule:nonzero;stroke:#b85450;stroke-width:1;stroke-linecap:butt;stroke-linejoin:miter;stroke-miterlimit:10;stroke-dasharray:none;stroke-opacity:1"
       transform="matrix(0.95763378,0,0,0.95763378,0.47881689,0.47881689)"
       clip-path="url(#clipPath24)" />
    <text
       id="text24"
       xml:space="preserve"
       transform="matrix(0.95764338,0,0,0.95764338,12.419438,132.15479)"
       clip-path="url(#clipPath25)"><tspan
         style="font-variant:normal;font-weight:normal;font-size:15px;font-family:Helvetica;writing-mode:lr-tb;fill:#000000;fill-opacity:1;fill-rule:nonzero;stroke:none"
         x="0 11.66748 20.009766 28.352051 32.519531 40.861816 48.361816 56.704102 61.699219 65.866699 74.208984 82.55127"
         y="0"
         sodipodi:role="line"
         id="tspan24">One user has</tspan></text>
    <text
       id="text25"
       xml:space="preserve"
       transform="matrix(0.95764338,0,0,0.95764338,13.616492,149.39237)"
       clip-path="url(#clipPath26)"><tspan
         style="font-variant:normal;font-weight:normal;font-size:15px;font-family:Helvetica;writing-mode:lr-tb;fill:#000000;fill-opacity:1;fill-rule:nonzero;stroke:none"
         x="0 12.495117 20.837402 29.179688 36.679688 40.847168 45.842285 54.18457 62.526855 70.869141 75.864258 80.031738"
         y="0"
         sodipodi:role="line"
         id="tspan25">many reports</tspan></text>
    <path
       id="path27"
       d="M 198,111 V 84.5 H 174.5 V 64.370003"
       style="fill:none;stroke:#000000;stroke-width:1;stroke-linecap:butt;stroke-linejoin:miter;stroke-miterlimit:10;stroke-dasharray:none;stroke-opacity:1"
       transform="matrix(0.95763378,0,0,0.95763378,0.47881689,0.47881689)"
       clip-path="url(#clipPath28)" />
    <path
       id="path29"
       d="m 174.5,59.119999 3.5,7.000004 -3.5,-1.75 -3.5,1.75 z"
       style="fill:#000000;fill-opacity:1;fill-rule:nonzero;stroke:#000000;stroke-width:1;stroke-linecap:butt;stroke-linejoin:miter;stroke-miterlimit:10;stroke-dasharray:none;stroke-opacity:1"
       transform="matrix(0.95763378,0,0,0.95763378,0.47881689,0.47881689)"
       clip-path="url(#clipPath30)" />
    <path
       id="path31"
       d="m 141,111 h 114 v 60 H 141 Z"
       style="fill:#f8cecc;fill-opacity:1;fill-rule:nonzero;stroke:#b85450;stroke-width:1;stroke-linecap:butt;stroke-linejoin:miter;stroke-miterlimit:10;stroke-dasharray:none;stroke-opacity:1"
       transform="matrix(0.95763378,0,0,0.95763378,0.47881689,0.47881689)"
       clip-path="url(#clipPath32)" />
    <text
       id="text32"
       xml:space="preserve"
       transform="matrix(0.95764338,0,0,0.95764338,148.09057,123.536)"
       clip-path="url(#clipPath33)"><tspan
         style="font-variant:normal;font-weight:normal;font-size:15px;font-family:Helvetica;writing-mode:lr-tb;fill:#000000;fill-opacity:1;fill-rule:nonzero;stroke:none"
         x="0 9.1625977 17.504883 25.847168 33.347168 37.514648 40.847168 49.189453 57.531738 61.699219 65.866699 74.208984 82.55127"
         y="0"
         sodipodi:role="line"
         id="tspan32">Function that</tspan></text>
    <text
       id="text33"
       xml:space="preserve"
       transform="matrix(0.95764338,0,0,0.95764338,155.2729,140.77358)"
       clip-path="url(#clipPath34)"><tspan
         style="font-variant:normal;font-weight:normal;font-size:15px;font-family:Helvetica;writing-mode:lr-tb;fill:#000000;fill-opacity:1;fill-rule:nonzero;stroke:none"
         x="0 4.9951172 13.337402 17.504883 25.847168 30.842285 39.18457 46.68457 50.852051 55.019531 63.361816"
         y="0"
         sodipodi:role="line"
         id="tspan33">returns the</tspan></text>
    <text
       id="text34"
       xml:space="preserve"
       transform="matrix(0.95764338,0,0,0.95764338,152.07078,158.01116)"
       clip-path="url(#clipPath35)"><tspan
         style="font-variant:normal;font-weight:normal;font-size:15px;font-family:Helvetica;writing-mode:lr-tb;fill:#000000;fill-opacity:1;fill-rule:nonzero;stroke:none"
         x="0 4.1674805 12.509766 17.504883 25.847168 34.189453 38.356934 42.524414 50.866699 59.208984 63.376465 66.708984 70.876465"
         y="0"
         sodipodi:role="line"
         id="tspan34">target entity</tspan></text>
    <path
       id="path36"
       d="m 133,40 h 83 v 18 h -83 z"
       style="fill:none;stroke:#b85450;stroke-width:1;stroke-linecap:butt;stroke-linejoin:miter;stroke-miterlimit:10;stroke-dasharray:none;stroke-opacity:1"
       transform="matrix(0.95763378,0,0,0.95763378,0.47881689,0.47881689)"
       clip-path="url(#clipPath37)" />
    <path
       id="path38"
       d="M 221,40 H 361 V 58 H 221 Z"
       style="fill:none;stroke:#b85450;stroke-width:1;stroke-linecap:butt;stroke-linejoin:miter;stroke-miterlimit:10;stroke-dasharray:none;stroke-opacity:1"
       transform="matrix(0.95763378,0,0,0.95763378,0.47881689,0.47881689)"
       clip-path="url(#clipPath39)" />
    <path
       id="path40"
       d="M 338,111 V 84.5 H 291 V 64.370003"
       style="fill:none;stroke:#000000;stroke-width:1;stroke-linecap:butt;stroke-linejoin:miter;stroke-miterlimit:10;stroke-dasharray:none;stroke-opacity:1"
       transform="matrix(0.95763378,0,0,0.95763378,0.47881689,0.47881689)"
       clip-path="url(#clipPath41)" />
    <path
       id="path42"
       d="m 291,59.119999 3.5,7.000004 -3.5,-1.75 -3.5,1.75 z"
       style="fill:#000000;fill-opacity:1;fill-rule:nonzero;stroke:#000000;stroke-width:1;stroke-linecap:butt;stroke-linejoin:miter;stroke-miterlimit:10;stroke-dasharray:none;stroke-opacity:1"
       transform="matrix(0.95763378,0,0,0.95763378,0.47881689,0.47881689)"
       clip-path="url(#clipPath43)" />
    <path
       id="path44"
       d="m 281,111 h 114 v 60 H 281 Z"
       style="fill:#f8cecc;fill-opacity:1;fill-rule:nonzero;stroke:#b85450;stroke-width:1;stroke-linecap:butt;stroke-linejoin:miter;stroke-miterlimit:10;stroke-dasharray:none;stroke-opacity:1"
       transform="matrix(0.95763378,0,0,0.95763378,0.47881689,0.47881689)"
       clip-path="url(#clipPath45)" />
    <text
       id="text45"
       xml:space="preserve"
       transform="matrix(0.95764338,0,0,0.95764338,276.17538,123.536)"
       clip-path="url(#clipPath46)"><tspan
         style="font-variant:normal;font-weight:normal;font-size:15px;font-family:Helvetica;writing-mode:lr-tb;fill:#000000;fill-opacity:1;fill-rule:nonzero;stroke:none"
         x="0 11.66748 15 22.5 30.842285 39.18457 43.352051 51.694336 55.861816 60.856934 69.199219 77.541504 85.883789 90.878906 95.046387"
         y="0"
         sodipodi:role="line"
         id="tspan45">Given a report,</tspan></text>
    <text
       id="text46"
       xml:space="preserve"
       transform="matrix(0.95764338,0,0,0.95764338,281.18804,140.77358)"
       clip-path="url(#clipPath47)"><tspan
         style="font-variant:normal;font-weight:normal;font-size:15px;font-family:Helvetica;writing-mode:lr-tb;fill:#000000;fill-opacity:1;fill-rule:nonzero;stroke:none"
         x="0 8.3422852 16.68457 21.679688 30.021973 32.885742 40.385742 44.553223 52.895508 61.237793 72.070312 76.237793 80.405273"
         y="0"
         sodipodi:role="line"
         id="tspan46">here's how to</tspan></text>
    <text
       id="text47"
       xml:space="preserve"
       transform="matrix(0.95764338,0,0,0.95764338,291.73708,158.01116)"
       clip-path="url(#clipPath48)"><tspan
         style="font-variant:normal;font-weight:normal;font-size:15px;font-family:Helvetica;writing-mode:lr-tb;fill:#000000;fill-opacity:1;fill-rule:nonzero;stroke:none"
         x="0 8.3422852 16.68457 20.852051 25.019531 33.361816 37.529297 45.871582 53.371582 61.713867"
         y="0"
         sodipodi:role="line"
         id="tspan47">get a user</tspan></text>
    <path
       id="path49"
       d="m 467,40 h 83 v 18 h -83 z"
       style="fill:none;stroke:#b85450;stroke-width:1;stroke-linecap:butt;stroke-linejoin:miter;stroke-miterlimit:10;stroke-dasharray:none;stroke-opacity:1"
       transform="matrix(0.95763378,0,0,0.95763378,0.47881689,0.47881689)"
       clip-path="url(#clipPath50)" />
    <path
       id="path51"
       d="M 493,111 V 84.5 h 15.5 V 64.370003"
       style="fill:none;stroke:#000000;stroke-width:1;stroke-linecap:butt;stroke-linejoin:miter;stroke-miterlimit:10;stroke-dasharray:none;stroke-opacity:1"
       transform="matrix(0.95763378,0,0,0.95763378,0.47881689,0.47881689)"
       clip-path="url(#clipPath52)" />
    <path
       id="path53"
       d="m 508.5,59.119999 3.5,7.000004 -3.5,-1.75 -3.5,1.75 z"
       style="fill:#000000;fill-opacity:1;fill-rule:nonzero;stroke:#000000;stroke-width:1;stroke-linecap:butt;stroke-linejoin:miter;stroke-miterlimit:10;stroke-dasharray:none;stroke-opacity:1"
       transform="matrix(0.95763378,0,0,0.95763378,0.47881689,0.47881689)"
       clip-path="url(#clipPath54)" />
    <path
       id="path55"
       d="m 436,111 h 114 v 60 H 436 Z"
       style="fill:#f8cecc;fill-opacity:1;fill-rule:nonzero;stroke:#b85450;stroke-width:1;stroke-linecap:butt;stroke-linejoin:miter;stroke-miterlimit:10;stroke-dasharray:none;stroke-opacity:1"
       transform="matrix(0.95763378,0,0,0.95763378,0.47881689,0.47881689)"
       clip-path="url(#clipPath56)" />
    <text
       id="text56"
       xml:space="preserve"
       transform="matrix(0.95764338,0,0,0.95764338,430.19136,123.536)"
       clip-path="url(#clipPath57)"><tspan
         style="font-variant:normal;font-weight:normal;font-size:15px;font-family:Helvetica;writing-mode:lr-tb;fill:#000000;fill-opacity:1;fill-rule:nonzero;stroke:none"
         x="0 12.495117 20.837402 29.179688 36.679688 40.847168 45.842285 54.18457 62.526855 70.869141 75.864258 80.031738"
         y="0"
         sodipodi:role="line"
         id="tspan56">Many reports</tspan></text>
    <text
       id="text57"
       xml:space="preserve"
       transform="matrix(0.95764338,0,0,0.95764338,428.57534,140.77358)"
       clip-path="url(#clipPath58)"><tspan
         style="font-variant:normal;font-weight:normal;font-size:15px;font-family:Helvetica;writing-mode:lr-tb;fill:#000000;fill-opacity:1;fill-rule:nonzero;stroke:none"
         x="0 8.3422852 16.68457 20.01709 28.359375 36.70166 45.043945 49.211426 53.378906 61.721191 65.888672 74.230957 82.573242"
         y="0"
         sodipodi:role="line"
         id="tspan57">belong to one</tspan></text>
    <text
       id="text58"
       xml:space="preserve"
       transform="matrix(0.95764338,0,0,0.95764338,458.14258,158.01116)"
       clip-path="url(#clipPath59)"><tspan
         style="font-variant:normal;font-weight:normal;font-size:15px;font-family:Helvetica;writing-mode:lr-tb;fill:#000000;fill-opacity:1;fill-rule:nonzero;stroke:none"
         x="0 8.3422852 15.842285 24.18457"
         y="0"
         sodipodi:role="line"
         id="tspan58">user</tspan></text>
    <path
       id="path60"
       d="M 618.01001,111 618,84.5 H 587 V 64.370003"
       style="fill:none;stroke:#000000;stroke-width:1;stroke-linecap:butt;stroke-linejoin:miter;stroke-miterlimit:10;stroke-dasharray:none;stroke-opacity:1"
       transform="matrix(0.95763378,0,0,0.95763378,0.47881689,0.47881689)"
       clip-path="url(#clipPath61)" />
    <path
       id="path62"
       d="m 587,59.119999 3.5,7.000004 -3.5,-1.75 -3.5,1.75 z"
       style="fill:#000000;fill-opacity:1;fill-rule:nonzero;stroke:#000000;stroke-width:1;stroke-linecap:butt;stroke-linejoin:miter;stroke-miterlimit:10;stroke-dasharray:none;stroke-opacity:1"
       transform="matrix(0.95763378,0,0,0.95763378,0.47881689,0.47881689)"
       clip-path="url(#clipPath63)" />
    <path
       id="path64"
       d="m 561.01001,111 h 114 v 60 h -114 z"
       style="fill:#f8cecc;fill-opacity:1;fill-rule:nonzero;stroke:#b85450;stroke-width:1;stroke-linecap:butt;stroke-linejoin:miter;stroke-miterlimit:10;stroke-dasharray:none;stroke-opacity:1"
       transform="matrix(0.95763378,0,0,0.95763378,0.47881689,0.47881689)"
       clip-path="url(#clipPath65)" />
    <text
       id="text65"
       xml:space="preserve"
       transform="matrix(0.95764338,0,0,0.95764338,550.3008,123.536)"
       clip-path="url(#clipPath66)"><tspan
         style="font-variant:normal;font-weight:normal;font-size:15px;font-family:Helvetica;writing-mode:lr-tb;fill:#000000;fill-opacity:1;fill-rule:nonzero;stroke:none"
         x="0 9.1625977 17.504883 25.847168 33.347168 37.514648 40.847168 49.189453 57.531738 61.699219 65.866699 74.208984 82.55127"
         y="0"
         sodipodi:role="line"
         id="tspan65">Function that</tspan></text>
    <text
       id="text66"
       xml:space="preserve"
       transform="matrix(0.95764338,0,0,0.95764338,557.48312,140.77358)"
       clip-path="url(#clipPath67)"><tspan
         style="font-variant:normal;font-weight:normal;font-size:15px;font-family:Helvetica;writing-mode:lr-tb;fill:#000000;fill-opacity:1;fill-rule:nonzero;stroke:none"
         x="0 4.9951172 13.337402 17.504883 25.847168 30.842285 39.18457 46.68457 50.852051 55.019531 63.361816"
         y="0"
         sodipodi:role="line"
         id="tspan66">returns the</tspan></text>
    <text
       id="text67"
       xml:space="preserve"
       transform="matrix(0.95764338,0,0,0.95764338,554.281,158.01116)"
       clip-path="url(#clipPath68)"><tspan
         style="font-variant:normal;font-weight:normal;font-size:15px;font-family:Helvetica;writing-mode:lr-tb;fill:#000000;fill-opacity:1;fill-rule:nonzero;stroke:none"
         x="0 4.1674805 12.509766 17.504883 25.847168 34.189453 38.356934 42.524414 50.866699 59.208984 63.376465 66.708984 70.876465"
         y="0"
         sodipodi:role="line"
         id="tspan67">target entity</tspan></text>
    <path
       id="path69"
       d="m 553.01001,40 h 68 v 18 h -68 z"
       style="fill:none;stroke:#b85450;stroke-width:1;stroke-linecap:butt;stroke-linejoin:miter;stroke-miterlimit:10;stroke-dasharray:none;stroke-opacity:1"
       transform="matrix(0.95763378,0,0,0.95763378,0.47881689,0.47881689)"
       clip-path="url(#clipPath70)" />
    <path
       id="path71"
       d="m 626.01001,40 h 150 v 18 h -150 z"
       style="fill:none;stroke:#b85450;stroke-width:1;stroke-linecap:butt;stroke-linejoin:miter;stroke-miterlimit:10;stroke-dasharray:none;stroke-opacity:1"
       transform="matrix(0.95763378,0,0,0.95763378,0.47881689,0.47881689)"
       clip-path="url(#clipPath72)" />
    <path
       id="path73"
       d="M 758.01001,111 758,84.5 H 701 V 64.370003"
       style="fill:none;stroke:#000000;stroke-width:1;stroke-linecap:butt;stroke-linejoin:miter;stroke-miterlimit:10;stroke-dasharray:none;stroke-opacity:1"
       transform="matrix(0.95763378,0,0,0.95763378,0.47881689,0.47881689)"
       clip-path="url(#clipPath74)" />
    <path
       id="path75"
       d="m 701,59.119999 3.5,7.000004 -3.5,-1.75 -3.5,1.75 z"
       style="fill:#000000;fill-opacity:1;fill-rule:nonzero;stroke:#000000;stroke-width:1;stroke-linecap:butt;stroke-linejoin:miter;stroke-miterlimit:10;stroke-dasharray:none;stroke-opacity:1"
       transform="matrix(0.95763378,0,0,0.95763378,0.47881689,0.47881689)"
       clip-path="url(#clipPath76)" />
    <path
       id="path77"
       d="m 701.01001,111 h 114 v 60 h -114 z"
       style="fill:#f8cecc;fill-opacity:1;fill-rule:nonzero;stroke:#b85450;stroke-width:1;stroke-linecap:butt;stroke-linejoin:miter;stroke-miterlimit:10;stroke-dasharray:none;stroke-opacity:1"
       transform="matrix(0.95763378,0,0,0.95763378,0.47881689,0.47881689)"
       clip-path="url(#clipPath78)" />
    <text
       id="text78"
       xml:space="preserve"
       transform="matrix(0.95764338,0,0,0.95764338,674.95903,125.45128)"
       clip-path="url(#clipPath79)"><tspan
         style="font-variant:normal;font-weight:normal;font-size:12px;font-family:Helvetica;writing-mode:lr-tb;fill:#000000;fill-opacity:1;fill-rule:nonzero;stroke:none"
         x="0 9.3339844 12 18 24.673828 31.347656 34.681641 41.355469 44.689453 51.363281 57.363281 64.037109 67.376953 70.710938 74.044922 80.71875 87.392578 91.388672 98.0625 100.35352"
         y="0"
         sodipodi:role="line"
         id="tspan78">Given a user, here's</tspan></text>
    <text
       id="text79"
       xml:space="preserve"
       transform="matrix(0.95764338,0,0,0.95764338,689.78754,138.85829)"
       clip-path="url(#clipPath80)"><tspan
         style="font-variant:normal;font-weight:normal;font-size:12px;font-family:Helvetica;writing-mode:lr-tb;fill:#000000;fill-opacity:1;fill-rule:nonzero;stroke:none"
         x="0 6.6738281 13.347656 22.013672 25.347656 28.681641 35.355469 38.689453 45.363281 52.037109 55.371094 58.705078 62.039062 68.712891"
         y="0"
         sodipodi:role="line"
         id="tspan79">how to get the</tspan></text>
    <text
       id="text80"
       xml:space="preserve"
       transform="matrix(0.95764338,0,0,0.95764338,676.38053,153.22294)"
       clip-path="url(#clipPath81)"><tspan
         style="font-variant:normal;font-weight:normal;font-size:12px;font-family:Helvetica;writing-mode:lr-tb;fill:#000000;fill-opacity:1;fill-rule:nonzero;stroke:none"
         x="0 3.9960938 10.669922 17.34375 24.017578 28.013672 31.347656 37.347656 40.681641 44.015625 46.681641 53.355469 60.029297 63.363281 66.697266 73.371094 76.705078 80.039062 86.712891 93.386719"
         y="0"
         sodipodi:role="line"
         id="tspan80">reports tied to them</tspan></text>
  </g>
</svg>
