<?xml version="1.0" encoding="UTF-8" standalone="no"?>
<!-- Created with Inkscape (http://www.inkscape.org/) -->

<svg
   version="1.1"
   id="svg1"
   width="396.16"
   height="288"
   viewBox="0 0 396.16 288"
   sodipodi:docname="nest-9.pdf"
   xmlns:inkscape="http://www.inkscape.org/namespaces/inkscape"
   xmlns:sodipodi="http://sodipodi.sourceforge.net/DTD/sodipodi-0.dtd"
   xmlns="http://www.w3.org/2000/svg"
   xmlns:svg="http://www.w3.org/2000/svg">
  <defs
     id="defs1">
    <clipPath
       clipPathUnits="userSpaceOnUse"
       id="clipPath2">
      <path
         d="M 0,0 H 1237.4999 V 899.72821 H 0 Z"
         transform="scale(0.33454547)"
         clip-rule="evenodd"
         id="path2" />
    </clipPath>
    <clipPath
       clipPathUnits="userSpaceOnUse"
       id="clipPath4">
      <path
         d="M 0,0 H 1237.4999 V 893.74994 H 0 Z"
         transform="matrix(0.33454547,0,0,0.33454547,-0.49999999,-0.49999999)"
         clip-rule="evenodd"
         id="path4" />
    </clipPath>
    <clipPath
       clipPathUnits="userSpaceOnUse"
       id="clipPath6">
      <path
         d="M 0,0 H 1237.4999 V 893.74994 H 0 Z"
         transform="matrix(0.33454547,0,0,0.33454547,-0.49999999,-0.49999999)"
         clip-rule="evenodd"
         id="path6" />
    </clipPath>
    <clipPath
       clipPathUnits="userSpaceOnUse"
       id="clipPath7">
      <path
         d="M 0,0 H 1237.4999 V 893.74994 H 0 Z"
         transform="matrix(0.33454211,0,0,0.33454211,-19.625,-59.999999)"
         clip-rule="evenodd"
         id="path7" />
    </clipPath>
    <clipPath
       clipPathUnits="userSpaceOnUse"
       id="clipPath9">
      <path
         d="M 0,0 H 1237.4999 V 893.74994 H 0 Z"
         transform="matrix(0.33454547,0,0,0.33454547,-0.49999999,-0.49999999)"
         clip-rule="evenodd"
         id="path9" />
    </clipPath>
    <clipPath
       clipPathUnits="userSpaceOnUse"
       id="clipPath10">
      <path
         d="M 0,0 H 1237.4999 V 893.74994 H 0 Z"
         transform="matrix(0.33454211,0,0,0.33454211,-142.09375,-59.999999)"
         clip-rule="evenodd"
         id="path10" />
    </clipPath>
    <clipPath
       clipPathUnits="userSpaceOnUse"
       id="clipPath12">
      <path
         d="M 0,0 H 1237.4999 V 893.74994 H 0 Z"
         transform="matrix(0.33454547,0,0,0.33454547,-0.49999999,-0.49999999)"
         clip-rule="evenodd"
         id="path12" />
    </clipPath>
    <clipPath
       clipPathUnits="userSpaceOnUse"
       id="clipPath13">
      <path
         d="M 0,0 H 1237.4999 V 893.74994 H 0 Z"
         transform="matrix(0.33454211,0,0,0.33454211,-18.03125,-20)"
         clip-rule="evenodd"
         id="path13" />
    </clipPath>
    <clipPath
       clipPathUnits="userSpaceOnUse"
       id="clipPath15">
      <path
         d="M 0,0 H 1237.4999 V 893.74994 H 0 Z"
         transform="matrix(0.33454547,0,0,0.33454547,-0.49999999,-0.49999999)"
         clip-rule="evenodd"
         id="path15" />
    </clipPath>
    <clipPath
       clipPathUnits="userSpaceOnUse"
       id="clipPath16">
      <path
         d="M 0,0 H 1237.4999 V 893.74994 H 0 Z"
         transform="matrix(0.33454211,0,0,0.33454211,-150.375,-20)"
         clip-rule="evenodd"
         id="path16" />
    </clipPath>
    <clipPath
       clipPathUnits="userSpaceOnUse"
       id="clipPath18">
      <path
         d="M 0,0 H 1237.4999 V 893.74994 H 0 Z"
         transform="matrix(0.33454547,0,0,0.33454547,-0.49999999,-0.49999999)"
         clip-rule="evenodd"
         id="path18" />
    </clipPath>
    <clipPath
       clipPathUnits="userSpaceOnUse"
       id="clipPath19">
      <path
         d="M 0,0 H 1237.4999 V 893.74994 H 0 Z"
         transform="matrix(0.33454211,0,0,0.33454211,-315.73438,-20)"
         clip-rule="evenodd"
         id="path19" />
    </clipPath>
    <clipPath
       clipPathUnits="userSpaceOnUse"
       id="clipPath21">
      <path
         d="M 0,0 H 1237.4999 V 893.74994 H 0 Z"
         transform="matrix(0.33454547,0,0,0.33454547,-0.49999999,-0.49999999)"
         clip-rule="evenodd"
         id="path21" />
    </clipPath>
    <clipPath
       clipPathUnits="userSpaceOnUse"
       id="clipPath22">
      <path
         d="M 0,0 H 1237.4999 V 893.74994 H 0 Z"
         transform="matrix(0.33454211,0,0,0.33454211,-301.04688,-59.999999)"
         clip-rule="evenodd"
         id="path22" />
    </clipPath>
    <clipPath
       clipPathUnits="userSpaceOnUse"
       id="clipPath24">
      <path
         d="M 0,0 H 1237.4999 V 893.74994 H 0 Z"
         transform="matrix(0.33454547,0,0,0.33454547,-0.49999999,-0.49999999)"
         clip-rule="evenodd"
         id="path24" />
    </clipPath>
    <clipPath
       clipPathUnits="userSpaceOnUse"
       id="clipPath25">
      <path
         d="M 0,0 H 1237.4999 V 893.74994 H 0 Z"
         transform="matrix(0.33454211,0,0,0.33454211,-33.6875,-100)"
         clip-rule="evenodd"
         id="path25" />
    </clipPath>
    <clipPath
       clipPathUnits="userSpaceOnUse"
       id="clipPath27">
      <path
         d="M 0,0 H 1237.4999 V 893.74994 H 0 Z"
         transform="matrix(0.33454547,0,0,0.33454547,-0.49999999,-0.49999999)"
         clip-rule="evenodd"
         id="path27" />
    </clipPath>
    <clipPath
       clipPathUnits="userSpaceOnUse"
       id="clipPath28">
      <path
         d="M 0,0 H 1237.4999 V 893.74994 H 0 Z"
         transform="matrix(0.33454211,0,0,0.33454211,-204.15624,-100)"
         clip-rule="evenodd"
         id="path28" />
    </clipPath>
    <clipPath
       clipPathUnits="userSpaceOnUse"
       id="clipPath30">
      <path
         d="M 0,0 H 1237.4999 V 893.74994 H 0 Z"
         transform="matrix(0.33454547,0,0,0.33454547,-0.49999999,-0.49999999)"
         clip-rule="evenodd"
         id="path30" />
    </clipPath>
    <clipPath
       clipPathUnits="userSpaceOnUse"
       id="clipPath31">
      <path
         d="M 0,0 H 1237.4999 V 893.74994 H 0 Z"
         transform="matrix(0.33454211,0,0,0.33454211,-292.5,-93)"
         clip-rule="evenodd"
         id="path31" />
    </clipPath>
    <clipPath
       clipPathUnits="userSpaceOnUse"
       id="clipPath32">
      <path
         d="M 0,0 H 1237.4999 V 893.74994 H 0 Z"
         transform="matrix(0.33454211,0,0,0.33454211,-341.71875,-106.99999)"
         clip-rule="evenodd"
         id="path32" />
    </clipPath>
    <clipPath
       clipPathUnits="userSpaceOnUse"
       id="clipPath34">
      <path
         d="M 0,0 H 1237.4999 V 893.74994 H 0 Z"
         transform="matrix(0.33454547,0,0,0.33454547,-0.49999999,-0.49999999)"
         clip-rule="evenodd"
         id="path34" />
    </clipPath>
    <clipPath
       clipPathUnits="userSpaceOnUse"
       id="clipPath35">
      <path
         d="M 0,0 H 1237.4999 V 893.74994 H 0 Z"
         transform="matrix(0.33454211,0,0,0.33454211,-27.0625,-180)"
         clip-rule="evenodd"
         id="path35" />
    </clipPath>
    <clipPath
       clipPathUnits="userSpaceOnUse"
       id="clipPath37">
      <path
         d="M 0,0 H 1237.4999 V 893.74994 H 0 Z"
         transform="matrix(0.33454547,0,0,0.33454547,-0.49999999,-0.49999999)"
         clip-rule="evenodd"
         id="path37" />
    </clipPath>
    <clipPath
       clipPathUnits="userSpaceOnUse"
       id="clipPath38">
      <path
         d="M 0,0 H 1237.4999 V 893.74994 H 0 Z"
         transform="matrix(0.33454211,0,0,0.33454211,-142.09375,-180)"
         clip-rule="evenodd"
         id="path38" />
    </clipPath>
    <clipPath
       clipPathUnits="userSpaceOnUse"
       id="clipPath40">
      <path
         d="M 0,0 H 1237.4999 V 893.74994 H 0 Z"
         transform="matrix(0.33454547,0,0,0.33454547,-0.49999999,-0.49999999)"
         clip-rule="evenodd"
         id="path40" />
    </clipPath>
    <clipPath
       clipPathUnits="userSpaceOnUse"
       id="clipPath41">
      <path
         d="M 0,0 H 1237.4999 V 893.74994 H 0 Z"
         transform="matrix(0.33454211,0,0,0.33454211,-300.14062,-173)"
         clip-rule="evenodd"
         id="path41" />
    </clipPath>
    <clipPath
       clipPathUnits="userSpaceOnUse"
       id="clipPath42">
      <path
         d="M 0,0 H 1237.4999 V 893.74994 H 0 Z"
         transform="matrix(0.33454211,0,0,0.33454211,-327.03125,-186.99999)"
         clip-rule="evenodd"
         id="path42" />
    </clipPath>
    <clipPath
       clipPathUnits="userSpaceOnUse"
       id="clipPath44">
      <path
         d="M 0,0 H 1237.4999 V 893.74994 H 0 Z"
         transform="matrix(0.33454547,0,0,0.33454547,-0.49999999,-0.49999999)"
         clip-rule="evenodd"
         id="path44" />
    </clipPath>
    <clipPath
       clipPathUnits="userSpaceOnUse"
       id="clipPath45">
      <path
         d="M 0,0 H 1237.4999 V 893.74994 H 0 Z"
         transform="matrix(0.33454211,0,0,0.33454211,-23.5,-220)"
         clip-rule="evenodd"
         id="path45" />
    </clipPath>
    <clipPath
       clipPathUnits="userSpaceOnUse"
       id="clipPath47">
      <path
         d="M 0,0 H 1237.4999 V 893.74994 H 0 Z"
         transform="matrix(0.33454547,0,0,0.33454547,-0.49999999,-0.49999999)"
         clip-rule="evenodd"
         id="path47" />
    </clipPath>
    <clipPath
       clipPathUnits="userSpaceOnUse"
       id="clipPath48">
      <path
         d="M 0,0 H 1237.4999 V 893.74994 H 0 Z"
         transform="matrix(0.33454211,0,0,0.33454211,-204.15624,-220)"
         clip-rule="evenodd"
         id="path48" />
    </clipPath>
    <clipPath
       clipPathUnits="userSpaceOnUse"
       id="clipPath50">
      <path
         d="M 0,0 H 1237.4999 V 893.74994 H 0 Z"
         transform="matrix(0.33454547,0,0,0.33454547,-0.49999999,-0.49999999)"
         clip-rule="evenodd"
         id="path50" />
    </clipPath>
    <clipPath
       clipPathUnits="userSpaceOnUse"
       id="clipPath51">
      <path
         d="M 0,0 H 1237.4999 V 893.74994 H 0 Z"
         transform="matrix(0.33454211,0,0,0.33454211,-306.5625,-213)"
         clip-rule="evenodd"
         id="path51" />
    </clipPath>
    <clipPath
       clipPathUnits="userSpaceOnUse"
       id="clipPath52">
      <path
         d="M 0,0 H 1237.4999 V 893.74994 H 0 Z"
         transform="matrix(0.33454211,0,0,0.33454211,-327.03125,-227)"
         clip-rule="evenodd"
         id="path52" />
    </clipPath>
    <clipPath
       clipPathUnits="userSpaceOnUse"
       id="clipPath54">
      <path
         d="M 0,0 H 1237.4999 V 893.74994 H 0 Z"
         transform="matrix(0.33454547,0,0,0.33454547,-0.49999999,-0.49999999)"
         clip-rule="evenodd"
         id="path54" />
    </clipPath>
    <clipPath
       clipPathUnits="userSpaceOnUse"
       id="clipPath55">
      <path
         d="M 0,0 H 1237.4999 V 893.74994 H 0 Z"
         transform="matrix(0.33454211,0,0,0.33454211,-17.03125,-140)"
         clip-rule="evenodd"
         id="path55" />
    </clipPath>
    <clipPath
       clipPathUnits="userSpaceOnUse"
       id="clipPath57">
      <path
         d="M 0,0 H 1237.4999 V 893.74994 H 0 Z"
         transform="matrix(0.33454547,0,0,0.33454547,-0.49999999,-0.49999999)"
         clip-rule="evenodd"
         id="path57" />
    </clipPath>
    <clipPath
       clipPathUnits="userSpaceOnUse"
       id="clipPath58">
      <path
         d="M 0,0 H 1237.4999 V 893.74994 H 0 Z"
         transform="matrix(0.33454211,0,0,0.33454211,-204.15624,-140)"
         clip-rule="evenodd"
         id="path58" />
    </clipPath>
    <clipPath
       clipPathUnits="userSpaceOnUse"
       id="clipPath60">
      <path
         d="M 0,0 H 1237.4999 V 893.74994 H 0 Z"
         transform="matrix(0.33454547,0,0,0.33454547,-0.49999999,-0.49999999)"
         clip-rule="evenodd"
         id="path60" />
    </clipPath>
    <clipPath
       clipPathUnits="userSpaceOnUse"
       id="clipPath61">
      <path
         d="M 0,0 H 1237.4999 V 893.74994 H 0 Z"
         transform="matrix(0.33454211,0,0,0.33454211,-301.96875,-133)"
         clip-rule="evenodd"
         id="path61" />
    </clipPath>
    <clipPath
       clipPathUnits="userSpaceOnUse"
       id="clipPath62">
      <path
         d="M 0,0 H 1237.4999 V 893.74994 H 0 Z"
         transform="matrix(0.33454211,0,0,0.33454211,-318.17188,-146.99999)"
         clip-rule="evenodd"
         id="path62" />
    </clipPath>
    <clipPath
       clipPathUnits="userSpaceOnUse"
       id="clipPath63">
      <path
         d="M 0,0 H 1237.4999 V 893.74994 H 0 Z"
         transform="matrix(0.33454211,0,0,0.33454211,-113.14062,-260)"
         clip-rule="evenodd"
         id="path63" />
    </clipPath>
    <clipPath
       clipPathUnits="userSpaceOnUse"
       id="clipPath64">
      <path
         d="M 0,0 H 1237.4999 V 893.74994 H 0 Z"
         transform="matrix(0.33454211,0,0,0.33454211,-120.90625,-277)"
         clip-rule="evenodd"
         id="path64" />
    </clipPath>
    <clipPath
       clipPathUnits="userSpaceOnUse"
       id="clipPath65">
      <path
         d="M 0,0 H 1237.4999 V 893.74994 H 0 Z"
         transform="matrix(0.33454211,0,0,0.33454211,-112.89062,-294)"
         clip-rule="evenodd"
         id="path65" />
    </clipPath>
  </defs>
  <sodipodi:namedview
     id="namedview1"
     pagecolor="#ffffff"
     bordercolor="#000000"
     borderopacity="0.25"
     inkscape:showpageshadow="2"
     inkscape:pageopacity="0.0"
     inkscape:pagecheckerboard="0"
     inkscape:deskcolor="#d1d1d1">
    <inkscape:page
       x="0"
       y="0"
       inkscape:label="1"
       id="page1"
       width="396.16"
       height="288"
       margin="0"
       bleed="0" />
  </sodipodi:namedview>
  <g
     id="g1"
     inkscape:groupmode="layer"
     inkscape:label="1">
    <path
       id="path1"
       d="M 0,0 H 414 V 301 H 0 Z"
       style="fill:#ffffff;fill-opacity:1;fill-rule:nonzero;stroke:none"
       transform="scale(0.95652166)"
       clip-path="url(#clipPath2)" />
    <path
       id="path3"
       d="M 1,77 H 411 V 240 H 1 Z"
       style="fill:#fff2cc;fill-opacity:1;fill-rule:nonzero;stroke:#d6b656;stroke-width:1;stroke-linecap:butt;stroke-linejoin:miter;stroke-miterlimit:10;stroke-dasharray:none;stroke-opacity:1"
       transform="matrix(0.95652166,0,0,0.95652166,0.47826082,0.47826082)"
       clip-path="url(#clipPath4)" />
    <path
       id="path5"
       d="M 11,41 H 121 V 71 H 11 Z"
       style="fill:#ffffff;fill-opacity:1;fill-rule:nonzero;stroke:#000000;stroke-width:1;stroke-linecap:butt;stroke-linejoin:miter;stroke-miterlimit:10;stroke-dasharray:none;stroke-opacity:1"
       transform="matrix(0.95652166,0,0,0.95652166,0.47826082,0.47826082)"
       clip-path="url(#clipPath6)" />
    <text
       id="text6"
       xml:space="preserve"
       transform="matrix(0.95653126,0,0,0.95653126,18.771926,57.391875)"
       clip-path="url(#clipPath7)"><tspan
         style="font-variant:normal;font-weight:normal;font-size:11px;font-family:Helvetica;writing-mode:lr-tb;fill:#000000;fill-opacity:1;fill-rule:nonzero;stroke:none"
         x="0 7.3369141 15.893066 23.22998 29.755859 32.812012 35.868164 41.98584 48.103516 51.159668 57.277344 60.333496 65.833496 68.277344 74.39502 80.512695 86.630371"
         y="0"
         sodipodi:role="line"
         id="tspan6">POST /auth/signup</tspan></text>
    <path
       id="path8"
       d="M 131,41 H 281 V 71 H 131 Z"
       style="fill:#ffffff;fill-opacity:1;fill-rule:nonzero;stroke:#000000;stroke-width:1;stroke-linecap:butt;stroke-linejoin:miter;stroke-miterlimit:10;stroke-dasharray:none;stroke-opacity:1"
       transform="matrix(0.95652166,0,0,0.95652166,0.47826082,0.47826082)"
       clip-path="url(#clipPath9)" />
    <text
       id="text9"
       xml:space="preserve"
       transform="matrix(0.95653126,0,0,0.95653126,135.91711,57.391875)"
       clip-path="url(#clipPath10)"><tspan
         style="font-variant:normal;font-weight:normal;font-size:11px;font-family:Helvetica;writing-mode:lr-tb;fill:#000000;fill-opacity:1;fill-rule:nonzero;stroke:none"
         x="0 7.3369141 13.45459 19.572266 25.072266 28.128418 31.791504 34.847656 38.521484 41.577637 47.695312 56.858398 62.976074 65.419922 67.86377 70.919922 73.976074 80.09375 86.211426 91.711426 97.211426 105.15527 111.27295 114.93604 121.05371 124.10986"
         y="0"
         sodipodi:role="line"
         id="tspan9">Body - { email, password }</tspan></text>
    <path
       id="path11"
       d="M 11,1 H 121 V 31 H 11 Z"
       style="fill:#e1d5e7;fill-opacity:1;fill-rule:nonzero;stroke:#9673a6;stroke-width:1;stroke-linecap:butt;stroke-linejoin:miter;stroke-miterlimit:10;stroke-dasharray:none;stroke-opacity:1"
       transform="matrix(0.95652166,0,0,0.95652166,0.47826082,0.47826082)"
       clip-path="url(#clipPath12)" />
    <text
       id="text12"
       xml:space="preserve"
       transform="matrix(0.95653126,0,0,0.95653126,17.247454,19.130625)"
       clip-path="url(#clipPath13)"><tspan
         style="font-variant:normal;font-weight:700;font-size:11px;font-family:Helvetica;writing-mode:lr-tb;fill:#000000;fill-opacity:1;fill-rule:nonzero;stroke:none"
         x="0 9.1630859 15.280762 18.943848 25.663086 32.382324 39.101562 42.157715 48.275391 54.994629 61.713867 64.77002 72.713867 79.433105 86.152344 89.81543"
         y="0"
         sodipodi:role="line"
         id="tspan12">Method and Route</tspan></text>
    <path
       id="path14"
       d="M 131,1 H 281 V 31 H 131 Z"
       style="fill:#e1d5e7;fill-opacity:1;fill-rule:nonzero;stroke:#9673a6;stroke-width:1;stroke-linecap:butt;stroke-linejoin:miter;stroke-miterlimit:10;stroke-dasharray:none;stroke-opacity:1"
       transform="matrix(0.95652166,0,0,0.95652166,0.47826082,0.47826082)"
       clip-path="url(#clipPath15)" />
    <text
       id="text15"
       xml:space="preserve"
       transform="matrix(0.95653126,0,0,0.95653126,143.83839,19.130625)"
       clip-path="url(#clipPath16)"><tspan
         style="font-variant:normal;font-weight:700;font-size:11px;font-family:Helvetica;writing-mode:lr-tb;fill:#000000;fill-opacity:1;fill-rule:nonzero;stroke:none"
         x="0 7.9438477 14.663086 21.382324 27.5 30.556152 37.275391 41.556152 44.612305 53.168457 59.887695 66.005371 70.286133 76.403809 79.459961 86.796875 90.459961 94.740723 97.796875 104.51611"
         y="0"
         sodipodi:role="line"
         id="tspan15">Body or Query String</tspan></text>
    <path
       id="path17"
       d="M 291,1 H 401 V 31 H 291 Z"
       style="fill:#e1d5e7;fill-opacity:1;fill-rule:nonzero;stroke:#9673a6;stroke-width:1;stroke-linecap:butt;stroke-linejoin:miter;stroke-miterlimit:10;stroke-dasharray:none;stroke-opacity:1"
       transform="matrix(0.95652166,0,0,0.95652166,0.47826082,0.47826082)"
       clip-path="url(#clipPath18)" />
    <text
       id="text18"
       xml:space="preserve"
       transform="matrix(0.95653126,0,0,0.95653126,302.0098,19.130625)"
       clip-path="url(#clipPath19)"><tspan
         style="font-variant:normal;font-weight:700;font-size:11px;font-family:Helvetica;writing-mode:lr-tb;fill:#000000;fill-opacity:1;fill-rule:nonzero;stroke:none"
         x="0 7.9438477 14.061523 20.179199 26.296875 30.577637 33.633789 40.353027 44.016113 47.072266 53.791504"
         y="0"
         sodipodi:role="line"
         id="tspan18">Description</tspan></text>
    <path
       id="path20"
       d="M 291,41 H 401 V 71 H 291 Z"
       style="fill:#ffffff;fill-opacity:1;fill-rule:nonzero;stroke:#000000;stroke-width:1;stroke-linecap:butt;stroke-linejoin:miter;stroke-miterlimit:10;stroke-dasharray:none;stroke-opacity:1"
       transform="matrix(0.95652166,0,0,0.95652166,0.47826082,0.47826082)"
       clip-path="url(#clipPath21)" />
    <text
       id="text21"
       xml:space="preserve"
       transform="matrix(0.95653126,0,0,0.95653126,287.96075,57.391875)"
       clip-path="url(#clipPath22)"><tspan
         style="font-variant:normal;font-weight:normal;font-size:11px;font-family:Helvetica;writing-mode:lr-tb;fill:#000000;fill-opacity:1;fill-rule:nonzero;stroke:none"
         x="0 7.9438477 11.606934 17.724609 23.842285 26.898438 33.016113 36.072266 42.189941 45.246094 51.36377 57.481445 65.425293 68.481445 74.599121 80.099121 86.216797"
         y="0"
         sodipodi:role="line"
         id="tspan21">Create a new user</tspan></text>
    <path
       id="path23"
       d="m 11,81 h 110 v 30 H 11 Z"
       style="fill:#ffffff;fill-opacity:1;fill-rule:nonzero;stroke:#000000;stroke-width:1;stroke-linecap:butt;stroke-linejoin:miter;stroke-miterlimit:10;stroke-dasharray:none;stroke-opacity:1"
       transform="matrix(0.95652166,0,0,0.95652166,0.47826082,0.47826082)"
       clip-path="url(#clipPath24)" />
    <text
       id="text24"
       xml:space="preserve"
       transform="matrix(0.95653126,0,0,0.95653126,32.223147,95.653126)"
       clip-path="url(#clipPath25)"><tspan
         style="font-variant:normal;font-weight:normal;font-size:11px;font-family:Helvetica;writing-mode:lr-tb;fill:#000000;fill-opacity:1;fill-rule:nonzero;stroke:none"
         x="0 8.5561523 15.893066 22.418945 25.475098 28.53125 34.648926 40.766602 43.822754 49.94043 52.996582 56.052734 58.496582"
         y="0"
         sodipodi:role="line"
         id="tspan24">GET /auth/:id</tspan></text>
    <path
       id="path26"
       d="m 131,81 h 150 v 30 H 131 Z"
       style="fill:#ffffff;fill-opacity:1;fill-rule:nonzero;stroke:#000000;stroke-width:1;stroke-linecap:butt;stroke-linejoin:miter;stroke-miterlimit:10;stroke-dasharray:none;stroke-opacity:1"
       transform="matrix(0.95652166,0,0,0.95652166,0.47826082,0.47826082)"
       clip-path="url(#clipPath27)" />
    <text
       id="text27"
       xml:space="preserve"
       transform="matrix(0.95653126,0,0,0.95653126,195.28183,95.653126)"
       clip-path="url(#clipPath28)"><tspan
         style="font-variant:normal;font-weight:normal;font-size:11px;font-family:Helvetica;writing-mode:lr-tb;fill:#000000;fill-opacity:1;fill-rule:nonzero;stroke:none"
         x="0"
         y="0"
         id="tspan27">-</tspan></text>
    <path
       id="path29"
       d="m 291,81 h 110 v 30 H 291 Z"
       style="fill:#ffffff;fill-opacity:1;fill-rule:nonzero;stroke:#000000;stroke-width:1;stroke-linecap:butt;stroke-linejoin:miter;stroke-miterlimit:10;stroke-dasharray:none;stroke-opacity:1"
       transform="matrix(0.95652166,0,0,0.95652166,0.47826082,0.47826082)"
       clip-path="url(#clipPath30)" />
    <text
       id="text30"
       xml:space="preserve"
       transform="matrix(0.95653126,0,0,0.95653126,279.78539,88.957407)"
       clip-path="url(#clipPath31)"><tspan
         style="font-variant:normal;font-weight:normal;font-size:11px;font-family:Helvetica;writing-mode:lr-tb;fill:#000000;fill-opacity:1;fill-rule:nonzero;stroke:none"
         x="0 6.7192383 9.1630859 15.280762 21.398438 24.45459 30.572266 33.628418 39.746094 45.246094 51.36377 55.026855 58.083008 66.026855 68.470703 71.526855 77.644531 80.700684 86.818359 89.262207 94.762207 100.87988"
         y="0"
         sodipodi:role="line"
         id="tspan30">Find a user with given</tspan></text>
    <text
       id="text31"
       xml:space="preserve"
       transform="matrix(0.95653126,0,0,0.95653126,326.86467,102.34884)"
       clip-path="url(#clipPath32)"><tspan
         style="font-variant:normal;font-weight:normal;font-size:11px;font-family:Helvetica;writing-mode:lr-tb;fill:#000000;fill-opacity:1;fill-rule:nonzero;stroke:none"
         x="0 2.4438477"
         y="0"
         sodipodi:role="line"
         id="tspan31">id</tspan></text>
    <path
       id="path33"
       d="m 11,161 h 110 v 30 H 11 Z"
       style="fill:#ffffff;fill-opacity:1;fill-rule:nonzero;stroke:#000000;stroke-width:1;stroke-linecap:butt;stroke-linejoin:miter;stroke-miterlimit:10;stroke-dasharray:none;stroke-opacity:1"
       transform="matrix(0.95652166,0,0,0.95652166,0.47826082,0.47826082)"
       clip-path="url(#clipPath34)" />
    <text
       id="text34"
       xml:space="preserve"
       transform="matrix(0.95653126,0,0,0.95653126,25.886127,172.17563)"
       clip-path="url(#clipPath35)"><tspan
         style="font-variant:normal;font-weight:normal;font-size:11px;font-family:Helvetica;writing-mode:lr-tb;fill:#000000;fill-opacity:1;fill-rule:nonzero;stroke:none"
         x="0 6.5258789 13.051758 19.770996 27.714844 35.658691 38.714844 41.770996 47.888672 54.006348 57.0625 63.180176 66.236328 69.29248 71.736328"
         y="0"
         sodipodi:role="line"
         id="tspan34">PATCH /auth/:id</tspan></text>
    <path
       id="path36"
       d="m 131,161 h 150 v 30 H 131 Z"
       style="fill:#ffffff;fill-opacity:1;fill-rule:nonzero;stroke:#000000;stroke-width:1;stroke-linecap:butt;stroke-linejoin:miter;stroke-miterlimit:10;stroke-dasharray:none;stroke-opacity:1"
       transform="matrix(0.95652166,0,0,0.95652166,0.47826082,0.47826082)"
       clip-path="url(#clipPath37)" />
    <text
       id="text37"
       xml:space="preserve"
       transform="matrix(0.95653126,0,0,0.95653126,135.91711,172.17563)"
       clip-path="url(#clipPath38)"><tspan
         style="font-variant:normal;font-weight:normal;font-size:11px;font-family:Helvetica;writing-mode:lr-tb;fill:#000000;fill-opacity:1;fill-rule:nonzero;stroke:none"
         x="0 7.3369141 13.45459 19.572266 25.072266 28.128418 31.791504 34.847656 38.521484 41.577637 47.695312 56.858398 62.976074 65.419922 67.86377 70.919922 73.976074 80.09375 86.211426 91.711426 97.211426 105.15527 111.27295 114.93604 121.05371 124.10986"
         y="0"
         sodipodi:role="line"
         id="tspan37">Body - { email, password }</tspan></text>
    <path
       id="path39"
       d="m 291,161 h 110 v 30 H 291 Z"
       style="fill:#ffffff;fill-opacity:1;fill-rule:nonzero;stroke:#000000;stroke-width:1;stroke-linecap:butt;stroke-linejoin:miter;stroke-miterlimit:10;stroke-dasharray:none;stroke-opacity:1"
       transform="matrix(0.95652166,0,0,0.95652166,0.47826082,0.47826082)"
       clip-path="url(#clipPath40)" />
    <text
       id="text40"
       xml:space="preserve"
       transform="matrix(0.95653126,0,0,0.95653126,287.09389,165.47991)"
       clip-path="url(#clipPath41)"><tspan
         style="font-variant:normal;font-weight:normal;font-size:11px;font-family:Helvetica;writing-mode:lr-tb;fill:#000000;fill-opacity:1;fill-rule:nonzero;stroke:none"
         x="0 7.9438477 14.061523 20.179199 26.296875 29.353027 35.470703 38.526855 44.644531 47.700684 53.818359 59.318359 65.436035 69.099121 72.155273 80.099121 82.542969 85.599121"
         y="0"
         sodipodi:role="line"
         id="tspan40">Update a user with</tspan></text>
    <text
       id="text41"
       xml:space="preserve"
       transform="matrix(0.95653126,0,0,0.95653126,312.81561,178.87134)"
       clip-path="url(#clipPath42)"><tspan
         style="font-variant:normal;font-weight:normal;font-size:11px;font-family:Helvetica;writing-mode:lr-tb;fill:#000000;fill-opacity:1;fill-rule:nonzero;stroke:none"
         x="0 6.1176758 8.5615234 14.061523 20.179199 26.296875 29.353027 31.796875"
         y="0"
         sodipodi:role="line"
         id="tspan41">given id</tspan></text>
    <path
       id="path43"
       d="m 11,201 h 110 v 30 H 11 Z"
       style="fill:#ffffff;fill-opacity:1;fill-rule:nonzero;stroke:#000000;stroke-width:1;stroke-linecap:butt;stroke-linejoin:miter;stroke-miterlimit:10;stroke-dasharray:none;stroke-opacity:1"
       transform="matrix(0.95652166,0,0,0.95652166,0.47826082,0.47826082)"
       clip-path="url(#clipPath44)" />
    <text
       id="text44"
       xml:space="preserve"
       transform="matrix(0.95653126,0,0,0.95653126,22.478485,210.43688)"
       clip-path="url(#clipPath45)"><tspan
         style="font-variant:normal;font-weight:normal;font-size:11px;font-family:Helvetica;writing-mode:lr-tb;fill:#000000;fill-opacity:1;fill-rule:nonzero;stroke:none"
         x="0 7.9438477 15.280762 21.398438 28.735352 35.45459 42.791504 45.847656 48.903809 55.021484 61.13916 64.195312 70.312988 73.369141 76.425293 78.869141"
         y="0"
         sodipodi:role="line"
         id="tspan44">DELETE /auth/:id</tspan></text>
    <path
       id="path46"
       d="m 131,201 h 150 v 30 H 131 Z"
       style="fill:#ffffff;fill-opacity:1;fill-rule:nonzero;stroke:#000000;stroke-width:1;stroke-linecap:butt;stroke-linejoin:miter;stroke-miterlimit:10;stroke-dasharray:none;stroke-opacity:1"
       transform="matrix(0.95652166,0,0,0.95652166,0.47826082,0.47826082)"
       clip-path="url(#clipPath47)" />
    <text
       id="text47"
       xml:space="preserve"
       transform="matrix(0.95653126,0,0,0.95653126,195.28183,210.43688)"
       clip-path="url(#clipPath48)"><tspan
         style="font-variant:normal;font-weight:normal;font-size:11px;font-family:Helvetica;writing-mode:lr-tb;fill:#000000;fill-opacity:1;fill-rule:nonzero;stroke:none"
         x="0"
         y="0"
         id="tspan47">-</tspan></text>
    <path
       id="path49"
       d="m 291,201 h 110 v 30 H 291 Z"
       style="fill:#ffffff;fill-opacity:1;fill-rule:nonzero;stroke:#000000;stroke-width:1;stroke-linecap:butt;stroke-linejoin:miter;stroke-miterlimit:10;stroke-dasharray:none;stroke-opacity:1"
       transform="matrix(0.95652166,0,0,0.95652166,0.47826082,0.47826082)"
       clip-path="url(#clipPath50)" />
    <text
       id="text50"
       xml:space="preserve"
       transform="matrix(0.95653126,0,0,0.95653126,293.23661,203.74116)"
       clip-path="url(#clipPath51)"><tspan
         style="font-variant:normal;font-weight:normal;font-size:11px;font-family:Helvetica;writing-mode:lr-tb;fill:#000000;fill-opacity:1;fill-rule:nonzero;stroke:none"
         x="0 7.9438477 14.061523 16.505371 22.623047 25.679199 31.796875 34.853027 40.970703 46.470703 52.588379 56.251465 59.307617 67.251465 69.695312 72.751465"
         y="0"
         sodipodi:role="line"
         id="tspan50">Delete user with</tspan></text>
    <text
       id="text51"
       xml:space="preserve"
       transform="matrix(0.95653126,0,0,0.95653126,312.81561,217.1326)"
       clip-path="url(#clipPath52)"><tspan
         style="font-variant:normal;font-weight:normal;font-size:11px;font-family:Helvetica;writing-mode:lr-tb;fill:#000000;fill-opacity:1;fill-rule:nonzero;stroke:none"
         x="0 6.1176758 8.5615234 14.061523 20.179199 26.296875 29.353027 31.796875"
         y="0"
         sodipodi:role="line"
         id="tspan51">given id</tspan></text>
    <path
       id="path53"
       d="m 11,121 h 110 v 30 H 11 Z"
       style="fill:#ffffff;fill-opacity:1;fill-rule:nonzero;stroke:#000000;stroke-width:1;stroke-linecap:butt;stroke-linejoin:miter;stroke-miterlimit:10;stroke-dasharray:none;stroke-opacity:1"
       transform="matrix(0.95652166,0,0,0.95652166,0.47826082,0.47826082)"
       clip-path="url(#clipPath54)" />
    <text
       id="text54"
       xml:space="preserve"
       transform="matrix(0.95653126,0,0,0.95653126,16.290923,133.91438)"
       clip-path="url(#clipPath55)"><tspan
         style="font-variant:normal;font-weight:normal;font-size:11px;font-family:Helvetica;writing-mode:lr-tb;fill:#000000;fill-opacity:1;fill-rule:nonzero;stroke:none"
         x="0 8.5561523 15.893066 22.418945 25.475098 28.53125 34.648926 40.766602 43.822754 49.94043 56.058105 62.175781 71.338867 77.456543 79.900391 82.344238 88.768066 91.824219 94.880371"
         y="0"
         sodipodi:role="line"
         id="tspan54">GET /auth?email=...</tspan></text>
    <path
       id="path56"
       d="m 131,121 h 150 v 30 H 131 Z"
       style="fill:#ffffff;fill-opacity:1;fill-rule:nonzero;stroke:#000000;stroke-width:1;stroke-linecap:butt;stroke-linejoin:miter;stroke-miterlimit:10;stroke-dasharray:none;stroke-opacity:1"
       transform="matrix(0.95652166,0,0,0.95652166,0.47826082,0.47826082)"
       clip-path="url(#clipPath57)" />
    <text
       id="text57"
       xml:space="preserve"
       transform="matrix(0.95653126,0,0,0.95653126,195.28183,133.91438)"
       clip-path="url(#clipPath58)"><tspan
         style="font-variant:normal;font-weight:normal;font-size:11px;font-family:Helvetica;writing-mode:lr-tb;fill:#000000;fill-opacity:1;fill-rule:nonzero;stroke:none"
         x="0"
         y="0"
         id="tspan57">-</tspan></text>
    <path
       id="path59"
       d="m 291,121 h 110 v 30 H 291 Z"
       style="fill:#ffffff;fill-opacity:1;fill-rule:nonzero;stroke:#000000;stroke-width:1;stroke-linecap:butt;stroke-linejoin:miter;stroke-miterlimit:10;stroke-dasharray:none;stroke-opacity:1"
       transform="matrix(0.95652166,0,0,0.95652166,0.47826082,0.47826082)"
       clip-path="url(#clipPath60)" />
    <text
       id="text60"
       xml:space="preserve"
       transform="matrix(0.95653126,0,0,0.95653126,288.84255,127.21866)"
       clip-path="url(#clipPath61)"><tspan
         style="font-variant:normal;font-weight:normal;font-size:11px;font-family:Helvetica;writing-mode:lr-tb;fill:#000000;fill-opacity:1;fill-rule:nonzero;stroke:none"
         x="0 6.7192383 9.1630859 15.280762 21.398438 24.45459 30.572266 33.016113 35.459961 38.516113 44.633789 50.133789 56.251465 59.914551 65.414551 68.470703 76.414551 78.858398 81.914551"
         y="0"
         sodipodi:role="line"
         id="tspan60">Find all users with</tspan></text>
    <text
       id="text61"
       xml:space="preserve"
       transform="matrix(0.95653126,0,0,0.95653126,304.34135,140.61009)"
       clip-path="url(#clipPath62)"><tspan
         style="font-variant:normal;font-weight:normal;font-size:11px;font-family:Helvetica;writing-mode:lr-tb;fill:#000000;fill-opacity:1;fill-rule:nonzero;stroke:none"
         x="0 6.1176758 8.5615234 14.061523 20.179199 26.296875 29.353027 35.470703 44.633789 50.751465 53.195312"
         y="0"
         sodipodi:role="line"
         id="tspan61">given email</tspan></text>
    <text
       id="text62"
       xml:space="preserve"
       transform="matrix(0.95653126,0,0,0.95653126,108.22254,248.69813)"
       clip-path="url(#clipPath63)"><tspan
         style="font-variant:normal;font-weight:700;font-size:14px;font-family:Helvetica;writing-mode:lr-tb;fill:#000000;fill-opacity:1;fill-rule:nonzero;stroke:none"
         x="0 10.110352 18.662109 23.324219 27.213867 35.765625 43.551758 51.337891 59.889648 67.675781 76.227539 80.117188 84.779297 93.331055 98.779297 102.66895 111.2207 119.77246 125.2207 129.11035 134.55859 142.34473 150.13086 154.02051 157.91016 165.69629 174.24805 182.7998"
         y="0"
         sodipodi:role="line"
         id="tspan62">Not needed for our real app,</tspan></text>
    <text
       id="text63"
       xml:space="preserve"
       transform="matrix(0.95653126,0,0,0.95653126,115.65061,264.95916)"
       clip-path="url(#clipPath64)"><tspan
         style="font-variant:normal;font-weight:700;font-size:14px;font-family:Helvetica;writing-mode:lr-tb;fill:#000000;fill-opacity:1;fill-rule:nonzero;stroke:none"
         x="0 10.889648 18.675781 22.56543 33.455078 37.344727 41.234375 45.124023 49.013672 61.461914 69.248047 77.03418 84.820312 88.709961 93.37207 101.92383 109.70996 117.49609 125.28223 129.17188 133.06152 141.61328 149.39941 154.06152 157.95117 162.61328"
         y="0"
         sodipodi:role="line"
         id="tspan63">we will make these just to</tspan></text>
    <text
       id="text64"
       xml:space="preserve"
       transform="matrix(0.95653126,0,0,0.95653126,107.98341,281.22019)"
       clip-path="url(#clipPath65)"><tspan
         style="font-variant:normal;font-weight:700;font-size:14px;font-family:Helvetica;writing-mode:lr-tb;fill:#000000;fill-opacity:1;fill-rule:nonzero;stroke:none"
         x="0 8.5517578 16.337891 21 25.662109 33.448242 38.896484 42.786133 51.337891 59.889648 68.441406 76.227539 81.675781 89.461914 94.124023 101.91016 110.46191 119.01367 122.90332 130.42285 138.20898 146.76074 154.54688 165.43652 175.54688"
         y="0"
         sodipodi:role="line"
         id="tspan64">better understand TypeORM</tspan></text>
  </g>
</svg>
