<?xml version="1.0" encoding="UTF-8" standalone="no"?>
<!-- Created with Inkscape (http://www.inkscape.org/) -->

<svg
   version="1.1"
   id="svg1"
   width="348.16"
   height="109.44"
   viewBox="0 0 348.16 109.44"
   sodipodi:docname="nest-21.pdf"
   xmlns:inkscape="http://www.inkscape.org/namespaces/inkscape"
   xmlns:sodipodi="http://sodipodi.sourceforge.net/DTD/sodipodi-0.dtd"
   xmlns="http://www.w3.org/2000/svg"
   xmlns:svg="http://www.w3.org/2000/svg">
  <defs
     id="defs1">
    <clipPath
       clipPathUnits="userSpaceOnUse"
       id="clipPath2">
      <path
         d="M 0,0 H 1087.5 V 340.59064 H 0 Z"
         transform="scale(0.33471265)"
         clip-rule="evenodd"
         id="path2" />
    </clipPath>
    <clipPath
       clipPathUnits="userSpaceOnUse"
       id="clipPath4">
      <path
         d="M 0,0 H 1087.5 V 337.60303 H 0 Z"
         transform="matrix(0.33471265,0,0,0.33471265,-0.49999999,-0.49999999)"
         clip-rule="evenodd"
         id="path4" />
    </clipPath>
    <clipPath
       clipPathUnits="userSpaceOnUse"
       id="clipPath5">
      <path
         d="M 0,0 H 1087.5 V 337.60303 H 0 Z"
         transform="matrix(0.33470931,0,0,0.33470931,-38.375,-16)"
         clip-rule="evenodd"
         id="path5" />
    </clipPath>
    <clipPath
       clipPathUnits="userSpaceOnUse"
       id="clipPath7">
      <path
         d="M 0,0 H 1087.5 V 337.60303 H 0 Z"
         transform="matrix(0.33471265,0,0,0.33471265,-0.49999999,-0.49999999)"
         clip-rule="evenodd"
         id="path7" />
    </clipPath>
    <clipPath
       clipPathUnits="userSpaceOnUse"
       id="clipPath9">
      <path
         d="M 0,0 H 1087.5 V 337.60303 H 0 Z"
         transform="matrix(0.33471265,0,0,0.33471265,-0.49999999,-0.49999999)"
         clip-rule="evenodd"
         id="path9" />
    </clipPath>
    <clipPath
       clipPathUnits="userSpaceOnUse"
       id="clipPath11">
      <path
         d="M 0,0 H 1087.5 V 337.60303 H 0 Z"
         transform="matrix(0.33471265,0,0,0.33471265,-0.49999999,-0.49999999)"
         clip-rule="evenodd"
         id="path11" />
    </clipPath>
    <clipPath
       clipPathUnits="userSpaceOnUse"
       id="clipPath12">
      <path
         d="M 0,0 H 1087.5 V 337.60303 H 0 Z"
         transform="matrix(0.33470931,0,0,0.33470931,-4.5,-38)"
         clip-rule="evenodd"
         id="path12" />
    </clipPath>
    <clipPath
       clipPathUnits="userSpaceOnUse"
       id="clipPath13">
      <path
         d="M 0,0 H 1087.5 V 337.60303 H 0 Z"
         transform="matrix(0.33470931,0,0,0.33470931,-23.53125,-52)"
         clip-rule="evenodd"
         id="path13" />
    </clipPath>
    <clipPath
       clipPathUnits="userSpaceOnUse"
       id="clipPath15">
      <path
         d="M 0,0 H 1087.5 V 337.60303 H 0 Z"
         transform="matrix(0.33471265,0,0,0.33471265,-0.49999999,-0.49999999)"
         clip-rule="evenodd"
         id="path15" />
    </clipPath>
    <clipPath
       clipPathUnits="userSpaceOnUse"
       id="clipPath16">
      <path
         d="M 0,0 H 1087.5 V 337.60303 H 0 Z"
         transform="matrix(0.33470931,0,0,0.33470931,-271.6875,-38)"
         clip-rule="evenodd"
         id="path16" />
    </clipPath>
    <clipPath
       clipPathUnits="userSpaceOnUse"
       id="clipPath17">
      <path
         d="M 0,0 H 1087.5 V 337.60303 H 0 Z"
         transform="matrix(0.33470931,0,0,0.33470931,-284.9375,-55)"
         clip-rule="evenodd"
         id="path17" />
    </clipPath>
    <clipPath
       clipPathUnits="userSpaceOnUse"
       id="clipPath19">
      <path
         d="M 0,0 H 1087.5 V 337.60303 H 0 Z"
         transform="matrix(0.33471265,0,0,0.33471265,-0.49999999,-0.49999999)"
         clip-rule="evenodd"
         id="path19" />
    </clipPath>
    <clipPath
       clipPathUnits="userSpaceOnUse"
       id="clipPath20">
      <path
         d="M 0,0 H 1087.5 V 337.60303 H 0 Z"
         transform="matrix(0.33470931,0,0,0.33470931,-160.98437,-61)"
         clip-rule="evenodd"
         id="path20" />
    </clipPath>
    <clipPath
       clipPathUnits="userSpaceOnUse"
       id="clipPath21">
      <path
         d="M 0,0 H 1087.5 V 337.60303 H 0 Z"
         transform="matrix(0.33470931,0,0,0.33470931,-151.85938,-84)"
         clip-rule="evenodd"
         id="path21" />
    </clipPath>
    <clipPath
       clipPathUnits="userSpaceOnUse"
       id="clipPath22">
      <path
         d="M 0,0 H 1087.5 V 337.60303 H 0 Z"
         transform="matrix(0.33470931,0,0,0.33470931,-151.03125,-96)"
         clip-rule="evenodd"
         id="path22" />
    </clipPath>
    <clipPath
       clipPathUnits="userSpaceOnUse"
       id="clipPath23">
      <path
         d="M 0,0 H 1087.5 V 337.60303 H 0 Z"
         transform="matrix(0.33470931,0,0,0.33470931,-174.09375,-108)"
         clip-rule="evenodd"
         id="path23" />
    </clipPath>
  </defs>
  <sodipodi:namedview
     id="namedview1"
     pagecolor="#ffffff"
     bordercolor="#000000"
     borderopacity="0.25"
     inkscape:showpageshadow="2"
     inkscape:pageopacity="0.0"
     inkscape:pagecheckerboard="0"
     inkscape:deskcolor="#d1d1d1">
    <inkscape:page
       x="0"
       y="0"
       inkscape:label="1"
       id="page1"
       width="348.16"
       height="109.44"
       margin="0"
       bleed="0" />
  </sodipodi:namedview>
  <g
     id="g1"
     inkscape:groupmode="layer"
     inkscape:label="1">
    <path
       id="path1"
       d="M 0,0 H 364 V 114 H 0 Z"
       style="fill:#ffffff;fill-opacity:1;fill-rule:nonzero;stroke:none"
       transform="scale(0.9560439)"
       clip-path="url(#clipPath2)" />
    <path
       id="path3"
       d="M 1,1 H 131 V 21 H 1 Z"
       style="fill:#f5f5f5;fill-opacity:1;fill-rule:nonzero;stroke:#666666;stroke-width:1;stroke-linecap:butt;stroke-linejoin:miter;stroke-miterlimit:10;stroke-dasharray:none;stroke-opacity:1"
       transform="matrix(0.9560439,0,0,0.9560439,0.47802194,0.47802194)"
       clip-path="url(#clipPath4)" />
    <text
       id="text4"
       xml:space="preserve"
       transform="matrix(0.95605343,0,0,0.95605343,36.68855,15.296855)"
       clip-path="url(#clipPath5)"><tspan
         style="font-variant:normal;font-weight:700;font-size:14px;font-family:Helvetica;writing-mode:lr-tb;fill:#333333;fill-opacity:1;fill-rule:nonzero;stroke:none"
         x="0 10.110352 17.896484 26.448242 35 42.786133 50.572266"
         y="0"
         sodipodi:role="line"
         id="tspan4">Request</tspan></text>
    <path
       id="path6"
       d="M 131,41 H 254.63"
       style="fill:none;stroke:#000000;stroke-width:1;stroke-linecap:butt;stroke-linejoin:miter;stroke-miterlimit:10;stroke-dasharray:none;stroke-opacity:1"
       transform="matrix(0.9560439,0,0,0.9560439,0.47802194,0.47802194)"
       clip-path="url(#clipPath7)" />
    <path
       id="path8"
       d="m 259.88,41 -7,3.5 1.75,-3.5 -1.75,-3.5 z"
       style="fill:#000000;fill-opacity:1;fill-rule:nonzero;stroke:#000000;stroke-width:1;stroke-linecap:butt;stroke-linejoin:miter;stroke-miterlimit:10;stroke-dasharray:none;stroke-opacity:1"
       transform="matrix(0.9560439,0,0,0.9560439,0.47802194,0.47802194)"
       clip-path="url(#clipPath9)" />
    <path
       id="path10"
       d="M 1,21 H 131 V 61 H 1 Z"
       style="fill:#f5f5f5;fill-opacity:1;fill-rule:nonzero;stroke:#666666;stroke-width:1;stroke-linecap:butt;stroke-linejoin:miter;stroke-miterlimit:10;stroke-dasharray:none;stroke-opacity:1"
       transform="matrix(0.9560439,0,0,0.9560439,0.47802194,0.47802194)"
       clip-path="url(#clipPath11)" />
    <text
       id="text11"
       xml:space="preserve"
       transform="matrix(0.95605343,0,0,0.95605343,4.3022404,36.33003)"
       clip-path="url(#clipPath12)"><tspan
         style="font-variant:normal;font-weight:normal;font-size:11px;font-family:Helvetica;writing-mode:lr-tb;fill:#333333;fill-opacity:1;fill-rule:nonzero;stroke:none"
         x="0 3.6738281 6.7299805 12.847656 22.010742 28.128418 30.572266 33.016113 36.072266 39.128418 41.228516 47.346191 52.846191 58.963867 62.02002 73.186523 79.304199 84.804199 90.921875 93.978027 97.03418 102.53418 108.65186 117.81494 119.91504"
         y="0"
         sodipodi:role="line"
         id="tspan11">{ email: 'asdf@asdf.com',</tspan></text>
    <text
       id="text12"
       xml:space="preserve"
       transform="matrix(0.95605343,0,0,0.95605343,22.497132,49.714778)"
       clip-path="url(#clipPath13)"><tspan
         style="font-variant:normal;font-weight:normal;font-size:11px;font-family:Helvetica;writing-mode:lr-tb;fill:#333333;fill-opacity:1;fill-rule:nonzero;stroke:none"
         x="0 6.1176758 12.235352 17.735352 23.235352 31.179199 37.296875 40.959961 47.077637 50.133789 53.189941 55.290039 61.407715 66.907715 73.025391 76.081543 78.181641 81.237793"
         y="0"
         sodipodi:role="line"
         id="tspan12">password: 'asdf' }</tspan></text>
    <path
       id="path14"
       d="M 261,11 H 361 V 71 H 261 Z"
       style="fill:#dae8fc;fill-opacity:1;fill-rule:nonzero;stroke:#6c8ebf;stroke-width:1;stroke-linecap:butt;stroke-linejoin:miter;stroke-miterlimit:10;stroke-dasharray:none;stroke-opacity:1"
       transform="matrix(0.9560439,0,0,0.9560439,0.47802194,0.47802194)"
       clip-path="url(#clipPath15)" />
    <text
       id="text15"
       xml:space="preserve"
       transform="matrix(0.95605343,0,0,0.95605343,259.74777,36.33003)"
       clip-path="url(#clipPath16)"><tspan
         style="font-variant:normal;font-weight:700;font-size:14px;font-family:Helvetica;writing-mode:lr-tb;fill:#000000;fill-opacity:1;fill-rule:nonzero;stroke:none"
         x="0 10.110352 15.558594 23.344727 31.130859 35.792969 43.579102 47.46875 57.579102 65.365234 73.151367"
         y="0"
         sodipodi:role="line"
         id="tspan15">Create User</tspan></text>
    <text
       id="text16"
       xml:space="preserve"
       transform="matrix(0.95605343,0,0,0.95605343,272.41547,52.582939)"
       clip-path="url(#clipPath17)"><tspan
         style="font-variant:normal;font-weight:700;font-size:14px;font-family:Helvetica;writing-mode:lr-tb;fill:#000000;fill-opacity:1;fill-rule:nonzero;stroke:none"
         x="0 10.110352 17.896484 26.448242 35 38.889648 46.675781"
         y="0"
         sodipodi:role="line"
         id="tspan16">Handler</tspan></text>
    <path
       id="path18"
       d="m 151,41 h 90 v 30 h -90 z"
       style="fill:#d5e8d4;fill-opacity:1;fill-rule:nonzero;stroke:#82b366;stroke-width:1;stroke-linecap:butt;stroke-linejoin:miter;stroke-miterlimit:10;stroke-dasharray:none;stroke-opacity:1"
       transform="matrix(0.9560439,0,0,0.9560439,0.47802194,0.47802194)"
       clip-path="url(#clipPath19)" />
    <text
       id="text19"
       xml:space="preserve"
       transform="matrix(0.95605343,0,0,0.95605343,153.90966,58.319259)"
       clip-path="url(#clipPath20)"><tspan
         style="font-variant:normal;font-weight:700;font-size:10px;font-family:Helvetica;writing-mode:lr-tb;fill:#000000;fill-opacity:1;fill-rule:nonzero;stroke:none"
         x="0 7.2216797 11.113281 16.674805 22.236328 25.566406 31.12793 38.349609 43.911133 49.472656 53.364258 60.585938 63.916016"
         y="0"
         sodipodi:role="line"
         id="tspan19">CreateUserDto</tspan></text>
    <text
       id="text20"
       xml:space="preserve"
       transform="matrix(0.95605343,0,0,0.95605343,145.18568,80.308488)"
       clip-path="url(#clipPath21)"><tspan
         style="font-style:oblique;font-variant:normal;font-weight:normal;font-size:10px;font-family:Helvetica;writing-mode:lr-tb;fill:#000000;fill-opacity:1;fill-rule:nonzero;stroke:none"
         x="0 6.6699219 12.231445 17.231445 22.792969 26.123047 31.68457 36.68457 39.462891 45.024414 53.354492 58.916016 61.137695 63.359375 66.137695 68.359375 73.359375 76.137695 81.699219"
         y="0"
         sodipodi:role="line"
         id="tspan20">Ensures email is an</tspan></text>
    <text
       id="text21"
       xml:space="preserve"
       transform="matrix(0.95605343,0,0,0.95605343,144.39394,91.781129)"
       clip-path="url(#clipPath22)"><tspan
         style="font-style:oblique;font-variant:normal;font-weight:normal;font-size:10px;font-family:Helvetica;writing-mode:lr-tb;fill:#000000;fill-opacity:1;fill-rule:nonzero;stroke:none"
         x="0 5.5615234 13.891602 19.453125 21.674805 23.896484 26.674805 32.236328 37.797852 43.359375 46.137695 51.699219 57.260742 62.260742 67.260742 74.482422 80.043945 83.374023"
         y="0"
         sodipodi:role="line"
         id="tspan21">email and password</tspan></text>
    <text
       id="text22"
       xml:space="preserve"
       transform="matrix(0.95605343,0,0,0.95605343,166.44293,103.25377)"
       clip-path="url(#clipPath23)"><tspan
         style="font-style:oblique;font-variant:normal;font-weight:normal;font-size:10px;font-family:Helvetica;writing-mode:lr-tb;fill:#000000;fill-opacity:1;fill-rule:nonzero;stroke:none"
         x="0 2.2216797 7.2216797 10 15.561523 18.339844 23.339844 26.118164 29.448242 31.669922 37.231445"
         y="0"
         sodipodi:role="line"
         id="tspan22">is a string</tspan></text>
  </g>
</svg>
