<?xml version="1.0" encoding="UTF-8" standalone="no"?>
<!-- Created with Inkscape (http://www.inkscape.org/) -->

<svg
   version="1.1"
   id="svg1"
   width="473.28"
   height="349.44"
   viewBox="0 0 473.28 349.44"
   sodipodi:docname="nest-23.pdf"
   xmlns:inkscape="http://www.inkscape.org/namespaces/inkscape"
   xmlns:sodipodi="http://sodipodi.sourceforge.net/DTD/sodipodi-0.dtd"
   xmlns="http://www.w3.org/2000/svg"
   xmlns:svg="http://www.w3.org/2000/svg">
  <defs
     id="defs1">
    <clipPath
       clipPathUnits="userSpaceOnUse"
       id="clipPath2">
      <path
         d="M 0,0 H 1479.1666 V 1089.1227 H 0 Z"
         transform="scale(0.33329577)"
         clip-rule="evenodd"
         id="path2" />
    </clipPath>
    <clipPath
       clipPathUnits="userSpaceOnUse"
       id="clipPath4">
      <path
         d="M 0,0 H 1479.1666 V 1089.1227 H 0 Z"
         transform="matrix(0.33329577,0,0,0.33329577,-0.49999999,-0.49999999)"
         clip-rule="evenodd"
         id="path4" />
    </clipPath>
    <clipPath
       clipPathUnits="userSpaceOnUse"
       id="clipPath6">
      <path
         d="M 0,0 H 1479.1666 V 1089.1227 H 0 Z"
         transform="matrix(0.33329577,0,0,0.33329577,-0.49999999,-0.49999999)"
         clip-rule="evenodd"
         id="path6" />
    </clipPath>
    <clipPath
       clipPathUnits="userSpaceOnUse"
       id="clipPath8">
      <path
         d="M 0,0 H 1479.1666 V 1089.1227 H 0 Z"
         transform="matrix(0.33329577,0,0,0.33329577,-0.49999999,-0.49999999)"
         clip-rule="evenodd"
         id="path8" />
    </clipPath>
    <clipPath
       clipPathUnits="userSpaceOnUse"
       id="clipPath9">
      <path
         d="M 0,0 H 1479.1666 V 1089.1227 H 0 Z"
         transform="matrix(0.33329244,0,0,0.33329244,-166.75001,-106)"
         clip-rule="evenodd"
         id="path9" />
    </clipPath>
    <clipPath
       clipPathUnits="userSpaceOnUse"
       id="clipPath11">
      <path
         d="M 0,0 H 1479.1666 V 1089.1227 H 0 Z"
         transform="matrix(0.33329577,0,0,0.33329577,-0.49999999,-0.49999999)"
         clip-rule="evenodd"
         id="path11" />
    </clipPath>
    <clipPath
       clipPathUnits="userSpaceOnUse"
       id="clipPath12">
      <path
         d="M 0,0 H 1479.1666 V 1089.1227 H 0 Z"
         transform="matrix(0.33329244,0,0,0.33329244,-183.375,-16)"
         clip-rule="evenodd"
         id="path12" />
    </clipPath>
    <clipPath
       clipPathUnits="userSpaceOnUse"
       id="clipPath14">
      <path
         d="M 0,0 H 1479.1666 V 1089.1227 H 0 Z"
         transform="matrix(0.33329577,0,0,0.33329577,-0.49999999,-0.49999999)"
         clip-rule="evenodd"
         id="path14" />
    </clipPath>
    <clipPath
       clipPathUnits="userSpaceOnUse"
       id="clipPath16">
      <path
         d="M 0,0 H 1479.1666 V 1089.1227 H 0 Z"
         transform="matrix(0.33329577,0,0,0.33329577,-0.49999999,-0.49999999)"
         clip-rule="evenodd"
         id="path16" />
    </clipPath>
    <clipPath
       clipPathUnits="userSpaceOnUse"
       id="clipPath18">
      <path
         d="M 0,0 H 1479.1666 V 1089.1227 H 0 Z"
         transform="matrix(0.33329577,0,0,0.33329577,-0.49999999,-0.49999999)"
         clip-rule="evenodd"
         id="path18" />
    </clipPath>
    <clipPath
       clipPathUnits="userSpaceOnUse"
       id="clipPath19">
      <path
         d="M 0,0 H 1479.1666 V 1089.1227 H 0 Z"
         transform="matrix(0.33329244,0,0,0.33329244,-149.5,-38.000001)"
         clip-rule="evenodd"
         id="path19" />
    </clipPath>
    <clipPath
       clipPathUnits="userSpaceOnUse"
       id="clipPath20">
      <path
         d="M 0,0 H 1479.1666 V 1089.1227 H 0 Z"
         transform="matrix(0.33329244,0,0,0.33329244,-168.53125,-52)"
         clip-rule="evenodd"
         id="path20" />
    </clipPath>
    <clipPath
       clipPathUnits="userSpaceOnUse"
       id="clipPath22">
      <path
         d="M 0,0 H 1479.1666 V 1089.1227 H 0 Z"
         transform="matrix(0.33329577,0,0,0.33329577,-0.49999999,-0.49999999)"
         clip-rule="evenodd"
         id="path22" />
    </clipPath>
    <clipPath
       clipPathUnits="userSpaceOnUse"
       id="clipPath24">
      <path
         d="M 0,0 H 1479.1666 V 1089.1227 H 0 Z"
         transform="matrix(0.33329577,0,0,0.33329577,-0.49999999,-0.49999999)"
         clip-rule="evenodd"
         id="path24" />
    </clipPath>
    <clipPath
       clipPathUnits="userSpaceOnUse"
       id="clipPath26">
      <path
         d="M 0,0 H 1479.1666 V 1089.1227 H 0 Z"
         transform="matrix(0.33329577,0,0,0.33329577,-0.49999999,-0.49999999)"
         clip-rule="evenodd"
         id="path26" />
    </clipPath>
    <clipPath
       clipPathUnits="userSpaceOnUse"
       id="clipPath27">
      <path
         d="M 0,0 H 1479.1666 V 1089.1227 H 0 Z"
         transform="matrix(0.33329244,0,0,0.33329244,-354.3125,-106)"
         clip-rule="evenodd"
         id="path27" />
    </clipPath>
    <clipPath
       clipPathUnits="userSpaceOnUse"
       id="clipPath29">
      <path
         d="M 0,0 H 1479.1666 V 1089.1227 H 0 Z"
         transform="matrix(0.33329577,0,0,0.33329577,-0.49999999,-0.49999999)"
         clip-rule="evenodd"
         id="path29" />
    </clipPath>
    <clipPath
       clipPathUnits="userSpaceOnUse"
       id="clipPath30">
      <path
         d="M 0,0 H 1479.1666 V 1089.1227 H 0 Z"
         transform="matrix(0.33329244,0,0,0.33329244,-371.34375,-138)"
         clip-rule="evenodd"
         id="path30" />
    </clipPath>
    <clipPath
       clipPathUnits="userSpaceOnUse"
       id="clipPath31">
      <path
         d="M 0,0 H 1479.1666 V 1089.1227 H 0 Z"
         transform="matrix(0.33329244,0,0,0.33329244,-360.95313,-152)"
         clip-rule="evenodd"
         id="path31" />
    </clipPath>
    <clipPath
       clipPathUnits="userSpaceOnUse"
       id="clipPath33">
      <path
         d="M 0,0 H 1479.1666 V 1089.1227 H 0 Z"
         transform="matrix(0.33329577,0,0,0.33329577,-0.49999999,-0.49999999)"
         clip-rule="evenodd"
         id="path33" />
    </clipPath>
    <clipPath
       clipPathUnits="userSpaceOnUse"
       id="clipPath35">
      <path
         d="M 0,0 H 1479.1666 V 1089.1227 H 0 Z"
         transform="matrix(0.33329577,0,0,0.33329577,-0.49999999,-0.49999999)"
         clip-rule="evenodd"
         id="path35" />
    </clipPath>
    <clipPath
       clipPathUnits="userSpaceOnUse"
       id="clipPath37">
      <path
         d="M 0,0 H 1479.1666 V 1089.1227 H 0 Z"
         transform="matrix(0.33329577,0,0,0.33329577,-0.49999999,-0.49999999)"
         clip-rule="evenodd"
         id="path37" />
    </clipPath>
    <clipPath
       clipPathUnits="userSpaceOnUse"
       id="clipPath38">
      <path
         d="M 0,0 H 1479.1666 V 1089.1227 H 0 Z"
         transform="matrix(0.33329244,0,0,0.33329244,-162.375,-166)"
         clip-rule="evenodd"
         id="path38" />
    </clipPath>
    <clipPath
       clipPathUnits="userSpaceOnUse"
       id="clipPath40">
      <path
         d="M 0,0 H 1479.1666 V 1089.1227 H 0 Z"
         transform="matrix(0.33329577,0,0,0.33329577,-0.49999999,-0.49999999)"
         clip-rule="evenodd"
         id="path40" />
    </clipPath>
    <clipPath
       clipPathUnits="userSpaceOnUse"
       id="clipPath42">
      <path
         d="M 0,0 H 1479.1666 V 1089.1227 H 0 Z"
         transform="matrix(0.33329577,0,0,0.33329577,-0.49999999,-0.49999999)"
         clip-rule="evenodd"
         id="path42" />
    </clipPath>
    <clipPath
       clipPathUnits="userSpaceOnUse"
       id="clipPath44">
      <path
         d="M 0,0 H 1479.1666 V 1089.1227 H 0 Z"
         transform="matrix(0.33329577,0,0,0.33329577,-0.49999999,-0.49999999)"
         clip-rule="evenodd"
         id="path44" />
    </clipPath>
    <clipPath
       clipPathUnits="userSpaceOnUse"
       id="clipPath45">
      <path
         d="M 0,0 H 1479.1666 V 1089.1227 H 0 Z"
         transform="matrix(0.33329244,0,0,0.33329244,-169.375,-226)"
         clip-rule="evenodd"
         id="path45" />
    </clipPath>
    <clipPath
       clipPathUnits="userSpaceOnUse"
       id="clipPath47">
      <path
         d="M 0,0 H 1479.1666 V 1089.1227 H 0 Z"
         transform="matrix(0.33329577,0,0,0.33329577,-0.49999999,-0.49999999)"
         clip-rule="evenodd"
         id="path47" />
    </clipPath>
    <clipPath
       clipPathUnits="userSpaceOnUse"
       id="clipPath49">
      <path
         d="M 0,0 H 1479.1666 V 1089.1227 H 0 Z"
         transform="matrix(0.33329577,0,0,0.33329577,-0.49999999,-0.49999999)"
         clip-rule="evenodd"
         id="path49" />
    </clipPath>
    <clipPath
       clipPathUnits="userSpaceOnUse"
       id="clipPath51">
      <path
         d="M 0,0 H 1479.1666 V 1089.1227 H 0 Z"
         transform="matrix(0.33329577,0,0,0.33329577,-0.49999999,-0.49999999)"
         clip-rule="evenodd"
         id="path51" />
    </clipPath>
    <clipPath
       clipPathUnits="userSpaceOnUse"
       id="clipPath52">
      <path
         d="M 0,0 H 1479.1666 V 1089.1227 H 0 Z"
         transform="matrix(0.33329244,0,0,0.33329244,-159.25,-286)"
         clip-rule="evenodd"
         id="path52" />
    </clipPath>
    <clipPath
       clipPathUnits="userSpaceOnUse"
       id="clipPath54">
      <path
         d="M 0,0 H 1479.1666 V 1089.1227 H 0 Z"
         transform="matrix(0.33329577,0,0,0.33329577,-0.49999999,-0.49999999)"
         clip-rule="evenodd"
         id="path54" />
    </clipPath>
    <clipPath
       clipPathUnits="userSpaceOnUse"
       id="clipPath55">
      <path
         d="M 0,0 H 1479.1666 V 1089.1227 H 0 Z"
         transform="matrix(0.33329244,0,0,0.33329244,-177.92189,-346)"
         clip-rule="evenodd"
         id="path55" />
    </clipPath>
    <clipPath
       clipPathUnits="userSpaceOnUse"
       id="clipPath56">
      <path
         d="M 0,0 H 1479.1666 V 1089.1227 H 0 Z"
         transform="matrix(0.33329244,0,0,0.33329244,-17.46875,-152)"
         clip-rule="evenodd"
         id="path56" />
    </clipPath>
    <clipPath
       clipPathUnits="userSpaceOnUse"
       id="clipPath57">
      <path
         d="M 0,0 H 1479.1666 V 1089.1227 H 0 Z"
         transform="matrix(0.33329244,0,0,0.33329244,-25.71875,-165)"
         clip-rule="evenodd"
         id="path57" />
    </clipPath>
    <clipPath
       clipPathUnits="userSpaceOnUse"
       id="clipPath58">
      <path
         d="M 0,0 H 1479.1666 V 1089.1227 H 0 Z"
         transform="matrix(0.33329244,0,0,0.33329244,-42.21875,-178)"
         clip-rule="evenodd"
         id="path58" />
    </clipPath>
    <clipPath
       clipPathUnits="userSpaceOnUse"
       id="clipPath59">
      <path
         d="M 0,0 H 1479.1666 V 1089.1227 H 0 Z"
         transform="matrix(0.33329244,0,0,0.33329244,-20.8125,-218)"
         clip-rule="evenodd"
         id="path59" />
    </clipPath>
    <clipPath
       clipPathUnits="userSpaceOnUse"
       id="clipPath60">
      <path
         d="M 0,0 H 1479.1666 V 1089.1227 H 0 Z"
         transform="matrix(0.33329244,0,0,0.33329244,-103.375,-232)"
         clip-rule="evenodd"
         id="path60" />
    </clipPath>
    <clipPath
       clipPathUnits="userSpaceOnUse"
       id="clipPath61">
      <path
         d="M 0,0 H 1479.1666 V 1089.1227 H 0 Z"
         transform="matrix(0.33329244,0,0,0.33329244,-12.6875,-278.00001)"
         clip-rule="evenodd"
         id="path61" />
    </clipPath>
    <clipPath
       clipPathUnits="userSpaceOnUse"
       id="clipPath62">
      <path
         d="M 0,0 H 1479.1666 V 1089.1227 H 0 Z"
         transform="matrix(0.33329244,0,0,0.33329244,-33.28125,-292)"
         clip-rule="evenodd"
         id="path62" />
    </clipPath>
    <clipPath
       clipPathUnits="userSpaceOnUse"
       id="clipPath64">
      <path
         d="M 0,0 H 1479.1666 V 1089.1227 H 0 Z"
         transform="matrix(0.33329577,0,0,0.33329577,-0.49999999,-0.49999999)"
         clip-rule="evenodd"
         id="path64" />
    </clipPath>
    <clipPath
       clipPathUnits="userSpaceOnUse"
       id="clipPath66">
      <path
         d="M 0,0 H 1479.1666 V 1089.1227 H 0 Z"
         transform="matrix(0.33329577,0,0,0.33329577,-0.49999999,-0.49999999)"
         clip-rule="evenodd"
         id="path66" />
    </clipPath>
    <clipPath
       clipPathUnits="userSpaceOnUse"
       id="clipPath68">
      <path
         d="M 0,0 H 1479.1666 V 1089.1227 H 0 Z"
         transform="matrix(0.33329577,0,0,0.33329577,-0.49999999,-0.49999999)"
         clip-rule="evenodd"
         id="path68" />
    </clipPath>
    <clipPath
       clipPathUnits="userSpaceOnUse"
       id="clipPath70">
      <path
         d="M 0,0 H 1479.1666 V 1089.1227 H 0 Z"
         transform="matrix(0.33329577,0,0,0.33329577,-0.49999999,-0.49999999)"
         clip-rule="evenodd"
         id="path70" />
    </clipPath>
    <clipPath
       clipPathUnits="userSpaceOnUse"
       id="clipPath72">
      <path
         d="M 0,0 H 1479.1666 V 1089.1227 H 0 Z"
         transform="matrix(0.33329577,0,0,0.33329577,-0.49999999,-0.49999999)"
         clip-rule="evenodd"
         id="path72" />
    </clipPath>
    <clipPath
       clipPathUnits="userSpaceOnUse"
       id="clipPath73">
      <path
         d="M 0,0 H 1479.1666 V 1089.1227 H 0 Z"
         transform="matrix(0.33329244,0,0,0.33329244,-376.76563,-256)"
         clip-rule="evenodd"
         id="path73" />
    </clipPath>
    <clipPath
       clipPathUnits="userSpaceOnUse"
       id="clipPath74">
      <path
         d="M 0,0 H 1479.1666 V 1089.1227 H 0 Z"
         transform="matrix(0.33329244,0,0,0.33329244,-361.78125,-285)"
         clip-rule="evenodd"
         id="path74" />
    </clipPath>
  </defs>
  <sodipodi:namedview
     id="namedview1"
     pagecolor="#ffffff"
     bordercolor="#000000"
     borderopacity="0.25"
     inkscape:showpageshadow="2"
     inkscape:pageopacity="0.0"
     inkscape:pagecheckerboard="0"
     inkscape:deskcolor="#d1d1d1">
    <inkscape:page
       x="0"
       y="0"
       inkscape:label="1"
       id="page1"
       width="473.28"
       height="349.44"
       margin="0"
       bleed="0" />
  </sodipodi:namedview>
  <g
     id="g1"
     inkscape:groupmode="layer"
     inkscape:label="1">
    <path
       id="path1"
       d="M 0,0 H 493 V 364 H 0 Z"
       style="fill:#ffffff;fill-opacity:1;fill-rule:nonzero;stroke:none"
       transform="scale(0.96010815)"
       clip-path="url(#clipPath2)" />
    <path
       id="path3"
       d="m 211,121 v 13.63"
       style="fill:none;stroke:#000000;stroke-width:1;stroke-linecap:butt;stroke-linejoin:miter;stroke-miterlimit:10;stroke-dasharray:none;stroke-opacity:1"
       transform="matrix(0.96010815,0,0,0.96010815,0.48005407,0.48005407)"
       clip-path="url(#clipPath4)" />
    <path
       id="path5"
       d="m 211,139.88 -3.5,-7 3.5,1.75 3.5,-1.75 z"
       style="fill:#000000;fill-opacity:1;fill-rule:nonzero;stroke:#000000;stroke-width:1;stroke-linecap:butt;stroke-linejoin:miter;stroke-miterlimit:10;stroke-dasharray:none;stroke-opacity:1"
       transform="matrix(0.96010815,0,0,0.96010815,0.48005407,0.48005407)"
       clip-path="url(#clipPath6)" />
    <path
       id="path7"
       d="m 131,81 h 160 v 40 H 131 Z"
       style="fill:#dae8fc;fill-opacity:1;fill-rule:nonzero;stroke:#6c8ebf;stroke-width:1;stroke-linecap:butt;stroke-linejoin:miter;stroke-miterlimit:10;stroke-dasharray:none;stroke-opacity:1"
       transform="matrix(0.96010815,0,0,0.96010815,0.48005407,0.48005407)"
       clip-path="url(#clipPath8)" />
    <text
       id="text8"
       xml:space="preserve"
       transform="matrix(0.96011775,0,0,0.96011775,160.09964,101.77248)"
       clip-path="url(#clipPath9)"><tspan
         style="font-variant:normal;font-weight:normal;font-size:14px;font-family:Helvetica;writing-mode:lr-tb;fill:#000000;fill-opacity:1;fill-rule:nonzero;stroke:none"
         x="0 8.3056641 16.091797 19.202148 22.3125 30.098633 37.884766 41.774414 44.884766 52.670898 60.457031 69.794922 72.905273 80.691406"
         y="0"
         sodipodi:role="line"
         id="tspan8">ValidationPipe</tspan></text>
    <path
       id="path10"
       d="M 131,1 H 291 V 21 H 131 Z"
       style="fill:#f5f5f5;fill-opacity:1;fill-rule:nonzero;stroke:#666666;stroke-width:1;stroke-linecap:butt;stroke-linejoin:miter;stroke-miterlimit:10;stroke-dasharray:none;stroke-opacity:1"
       transform="matrix(0.96010815,0,0,0.96010815,0.48005407,0.48005407)"
       clip-path="url(#clipPath11)" />
    <text
       id="text11"
       xml:space="preserve"
       transform="matrix(0.96011775,0,0,0.96011775,176.06159,15.361884)"
       clip-path="url(#clipPath12)"><tspan
         style="font-variant:normal;font-weight:700;font-size:14px;font-family:Helvetica;writing-mode:lr-tb;fill:#333333;fill-opacity:1;fill-rule:nonzero;stroke:none"
         x="0 10.110352 17.896484 26.448242 35 42.786133 50.572266"
         y="0"
         sodipodi:role="line"
         id="tspan11">Request</tspan></text>
    <path
       id="path13"
       d="M 211,61 V 81 61 74.629997"
       style="fill:none;stroke:#000000;stroke-width:1;stroke-linecap:butt;stroke-linejoin:miter;stroke-miterlimit:10;stroke-dasharray:none;stroke-opacity:1"
       transform="matrix(0.96010815,0,0,0.96010815,0.48005407,0.48005407)"
       clip-path="url(#clipPath14)" />
    <path
       id="path15"
       d="m 211,79.879997 -3.5,-7 3.5,1.75 3.5,-1.75 z"
       style="fill:#000000;fill-opacity:1;fill-rule:nonzero;stroke:#000000;stroke-width:1;stroke-linecap:butt;stroke-linejoin:miter;stroke-miterlimit:10;stroke-dasharray:none;stroke-opacity:1"
       transform="matrix(0.96010815,0,0,0.96010815,0.48005407,0.48005407)"
       clip-path="url(#clipPath16)" />
    <path
       id="path17"
       d="M 131,21 H 291 V 61 H 131 Z"
       style="fill:#f5f5f5;fill-opacity:1;fill-rule:nonzero;stroke:#666666;stroke-width:1;stroke-linecap:butt;stroke-linejoin:miter;stroke-miterlimit:10;stroke-dasharray:none;stroke-opacity:1"
       transform="matrix(0.96010815,0,0,0.96010815,0.48005407,0.48005407)"
       clip-path="url(#clipPath18)" />
    <text
       id="text18"
       xml:space="preserve"
       transform="matrix(0.96011775,0,0,0.96011775,143.5376,36.484475)"
       clip-path="url(#clipPath19)"><tspan
         style="font-variant:normal;font-weight:normal;font-size:11px;font-family:Helvetica;writing-mode:lr-tb;fill:#333333;fill-opacity:1;fill-rule:nonzero;stroke:none"
         x="0 3.6738281 6.7299805 12.847656 22.010742 28.128418 30.572266 33.016113 36.072266 39.128418 41.228516 47.346191 52.846191 58.963867 62.02002 73.186523 79.304199 84.804199 90.921875 93.978027 97.03418 102.53418 108.65186 117.81494 119.91504"
         y="0"
         sodipodi:role="line"
         id="tspan18">{ email: 'asdf@asdf.com',</tspan></text>
    <text
       id="text19"
       xml:space="preserve"
       transform="matrix(0.96011775,0,0,0.96011775,161.80984,49.926123)"
       clip-path="url(#clipPath20)"><tspan
         style="font-variant:normal;font-weight:normal;font-size:11px;font-family:Helvetica;writing-mode:lr-tb;fill:#333333;fill-opacity:1;fill-rule:nonzero;stroke:none"
         x="0 6.1176758 12.235352 17.735352 23.235352 31.179199 37.296875 40.959961 47.077637 50.133789 53.189941 55.290039 61.407715 66.907715 73.025391 76.081543 78.181641 81.237793"
         y="0"
         sodipodi:role="line"
         id="tspan19">password: 'asdf' }</tspan></text>
    <path
       id="path21"
       d="M 321,101 H 297.37"
       style="fill:none;stroke:#000000;stroke-width:1;stroke-linecap:butt;stroke-linejoin:miter;stroke-miterlimit:10;stroke-dasharray:none;stroke-opacity:1"
       transform="matrix(0.96010815,0,0,0.96010815,0.48005407,0.48005407)"
       clip-path="url(#clipPath22)" />
    <path
       id="path23"
       d="m 292.12,101 7,-3.5 -1.75,3.5 1.75,3.5 z"
       style="fill:#000000;fill-opacity:1;fill-rule:nonzero;stroke:#000000;stroke-width:1;stroke-linecap:butt;stroke-linejoin:miter;stroke-miterlimit:10;stroke-dasharray:none;stroke-opacity:1"
       transform="matrix(0.96010815,0,0,0.96010815,0.48005407,0.48005407)"
       clip-path="url(#clipPath24)" />
    <path
       id="path25"
       d="m 321,81 h 160 v 40 H 321 Z"
       style="fill:#dae8fc;fill-opacity:1;fill-rule:nonzero;stroke:#6c8ebf;stroke-width:1;stroke-linecap:butt;stroke-linejoin:miter;stroke-miterlimit:10;stroke-dasharray:none;stroke-opacity:1"
       transform="matrix(0.96010815,0,0,0.96010815,0.48005407,0.48005407)"
       clip-path="url(#clipPath26)" />
    <text
       id="text26"
       xml:space="preserve"
       transform="matrix(0.96011775,0,0,0.96011775,340.18172,101.77248)"
       clip-path="url(#clipPath27)"><tspan
         style="font-variant:normal;font-weight:normal;font-size:14px;font-family:Helvetica;writing-mode:lr-tb;fill:#000000;fill-opacity:1;fill-rule:nonzero;stroke:none"
         x="0 10.110352 14.772461 22.558594 30.344727 34.234375 42.020508 52.130859 59.130859 66.916992 71.579102 81.689453 85.579102"
         y="0"
         sodipodi:role="line"
         id="tspan26">CreateUserDto</tspan></text>
    <path
       id="path28"
       d="m 321,121 h 160 v 40 H 321 Z"
       style="fill:#f5f5f5;fill-opacity:1;fill-rule:nonzero;stroke:#666666;stroke-width:1;stroke-linecap:butt;stroke-linejoin:miter;stroke-miterlimit:10;stroke-dasharray:none;stroke-opacity:1"
       transform="matrix(0.96010815,0,0,0.96010815,0.48005407,0.48005407)"
       clip-path="url(#clipPath29)" />
    <text
       id="text29"
       xml:space="preserve"
       transform="matrix(0.96011775,0,0,0.96011775,356.53373,132.49625)"
       clip-path="url(#clipPath30)"><tspan
         style="font-variant:normal;font-weight:normal;font-size:11px;font-family:Helvetica;writing-mode:lr-tb;fill:#333333;fill-opacity:1;fill-rule:nonzero;stroke:none"
         x="0 6.1176758 15.280762 21.398438 23.842285 26.286133 29.342285 32.398438 37.898438 40.95459 44.617676 47.061523 53.179199"
         y="0"
         sodipodi:role="line"
         id="tspan29">email: string</tspan></text>
    <text
       id="text30"
       xml:space="preserve"
       transform="matrix(0.96011775,0,0,0.96011775,346.55751,145.9379)"
       clip-path="url(#clipPath31)"><tspan
         style="font-variant:normal;font-weight:normal;font-size:11px;font-family:Helvetica;writing-mode:lr-tb;fill:#333333;fill-opacity:1;fill-rule:nonzero;stroke:none"
         x="0 6.1176758 12.235352 17.735352 23.235352 31.179199 37.296875 40.959961 47.077637 50.133789 53.189941 58.689941 61.746094 65.40918 67.853027 73.970703"
         y="0"
         sodipodi:role="line"
         id="tspan30">password: string</tspan></text>
    <path
       id="path32"
       d="m 211,181 v 20 -20 13.63"
       style="fill:none;stroke:#000000;stroke-width:1;stroke-linecap:butt;stroke-linejoin:miter;stroke-miterlimit:10;stroke-dasharray:none;stroke-opacity:1"
       transform="matrix(0.96010815,0,0,0.96010815,0.48005407,0.48005407)"
       clip-path="url(#clipPath33)" />
    <path
       id="path34"
       d="m 211,199.88 -3.5,-7 3.5,1.75 3.5,-1.75 z"
       style="fill:#000000;fill-opacity:1;fill-rule:nonzero;stroke:#000000;stroke-width:1;stroke-linecap:butt;stroke-linejoin:miter;stroke-miterlimit:10;stroke-dasharray:none;stroke-opacity:1"
       transform="matrix(0.96010815,0,0,0.96010815,0.48005407,0.48005407)"
       clip-path="url(#clipPath35)" />
    <path
       id="path36"
       d="m 131,141 h 160 v 40 H 131 Z"
       style="fill:#dae8fc;fill-opacity:1;fill-rule:nonzero;stroke:#6c8ebf;stroke-width:1;stroke-linecap:butt;stroke-linejoin:miter;stroke-miterlimit:10;stroke-dasharray:none;stroke-opacity:1"
       transform="matrix(0.96010815,0,0,0.96010815,0.48005407,0.48005407)"
       clip-path="url(#clipPath37)" />
    <text
       id="text37"
       xml:space="preserve"
       transform="matrix(0.96011775,0,0,0.96011775,155.89912,159.37955)"
       clip-path="url(#clipPath38)"><tspan
         style="font-variant:normal;font-weight:normal;font-size:14px;font-family:Helvetica;writing-mode:lr-tb;fill:#000000;fill-opacity:1;fill-rule:nonzero;stroke:none"
         x="0 10.110352 17.110352 24.896484 29.558594 36.558594 46.668945 54.455078 62.241211 66.130859 70.792969 78.579102 81.689453 84.799805 92.585938"
         y="0"
         sodipodi:role="line"
         id="tspan37">UsersController</tspan></text>
    <path
       id="path39"
       d="m 211,241 v 20 -20 13.63"
       style="fill:none;stroke:#000000;stroke-width:1;stroke-linecap:butt;stroke-linejoin:miter;stroke-miterlimit:10;stroke-dasharray:none;stroke-opacity:1"
       transform="matrix(0.96010815,0,0,0.96010815,0.48005407,0.48005407)"
       clip-path="url(#clipPath40)" />
    <path
       id="path41"
       d="m 211,259.88 -3.5,-7 3.5,1.75 3.5,-1.75 z"
       style="fill:#000000;fill-opacity:1;fill-rule:nonzero;stroke:#000000;stroke-width:1;stroke-linecap:butt;stroke-linejoin:miter;stroke-miterlimit:10;stroke-dasharray:none;stroke-opacity:1"
       transform="matrix(0.96010815,0,0,0.96010815,0.48005407,0.48005407)"
       clip-path="url(#clipPath42)" />
    <path
       id="path43"
       d="m 131,201 h 160 v 40 H 131 Z"
       style="fill:#dae8fc;fill-opacity:1;fill-rule:nonzero;stroke:#6c8ebf;stroke-width:1;stroke-linecap:butt;stroke-linejoin:miter;stroke-miterlimit:10;stroke-dasharray:none;stroke-opacity:1"
       transform="matrix(0.96010815,0,0,0.96010815,0.48005407,0.48005407)"
       clip-path="url(#clipPath44)" />
    <text
       id="text44"
       xml:space="preserve"
       transform="matrix(0.96011775,0,0,0.96011775,162.61994,216.98661)"
       clip-path="url(#clipPath45)"><tspan
         style="font-variant:normal;font-weight:normal;font-size:14px;font-family:Helvetica;writing-mode:lr-tb;fill:#000000;fill-opacity:1;fill-rule:nonzero;stroke:none"
         x="0 10.110352 17.110352 24.896484 29.558594 36.558594 45.896484 53.682617 58.344727 65.344727 68.455078 75.455078"
         y="0"
         sodipodi:role="line"
         id="tspan44">UsersService</tspan></text>
    <path
       id="path46"
       d="m 211,301 v 13.64001"
       style="fill:none;stroke:#000000;stroke-width:1;stroke-linecap:butt;stroke-linejoin:miter;stroke-miterlimit:10;stroke-dasharray:none;stroke-opacity:1"
       transform="matrix(0.96010815,0,0,0.96010815,0.48005407,0.48005407)"
       clip-path="url(#clipPath47)" />
    <path
       id="path48"
       d="m 211,319.89001 -3.5,-7 3.5,1.75 3.5,-1.75 z"
       style="fill:#000000;fill-opacity:1;fill-rule:nonzero;stroke:#000000;stroke-width:1;stroke-linecap:butt;stroke-linejoin:miter;stroke-miterlimit:10;stroke-dasharray:none;stroke-opacity:1"
       transform="matrix(0.96010815,0,0,0.96010815,0.48005407,0.48005407)"
       clip-path="url(#clipPath49)" />
    <path
       id="path50"
       d="m 131,261 h 160 v 40 H 131 Z"
       style="fill:#dae8fc;fill-opacity:1;fill-rule:nonzero;stroke:#6c8ebf;stroke-width:1;stroke-linecap:butt;stroke-linejoin:miter;stroke-miterlimit:10;stroke-dasharray:none;stroke-opacity:1"
       transform="matrix(0.96010815,0,0,0.96010815,0.48005407,0.48005407)"
       clip-path="url(#clipPath51)" />
    <text
       id="text51"
       xml:space="preserve"
       transform="matrix(0.96011775,0,0,0.96011775,152.89875,274.59368)"
       clip-path="url(#clipPath52)"><tspan
         style="font-variant:normal;font-weight:normal;font-size:14px;font-family:Helvetica;writing-mode:lr-tb;fill:#000000;fill-opacity:1;fill-rule:nonzero;stroke:none"
         x="0 10.110352 17.110352 24.896484 29.558594 36.558594 46.668945 54.455078 62.241211 70.027344 77.027344 80.137695 84.027344 91.813477 96.475586"
         y="0"
         sodipodi:role="line"
         id="tspan51">UsersRepository</tspan></text>
    <path
       id="path53"
       d="m 131,321 h 160 v 40 H 131 Z"
       style="fill:#dae8fc;fill-opacity:1;fill-rule:nonzero;stroke:#6c8ebf;stroke-width:1;stroke-linecap:butt;stroke-linejoin:miter;stroke-miterlimit:10;stroke-dasharray:none;stroke-opacity:1"
       transform="matrix(0.96010815,0,0,0.96010815,0.48005407,0.48005407)"
       clip-path="url(#clipPath54)" />
    <text
       id="text54"
       xml:space="preserve"
       transform="matrix(0.96011775,0,0,0.96011775,170.82596,332.20074)"
       clip-path="url(#clipPath55)"><tspan
         style="font-variant:normal;font-weight:normal;font-size:14px;font-family:Helvetica;writing-mode:lr-tb;fill:#000000;fill-opacity:1;fill-rule:nonzero;stroke:none"
         x="0 9.3378906 20.227539 28.013672 31.124023 35.013672 42.799805 46.689453 56.799805"
         y="0"
         sodipodi:role="line"
         id="tspan54">SQLite DB</tspan></text>
    <g
       id="g55" />
    <text
       id="text55"
       xml:space="preserve"
       transform="matrix(0.96011775,0,0,0.96011775,16.772057,145.9379)"
       clip-path="url(#clipPath56)"><tspan
         style="font-variant:normal;font-weight:normal;font-size:11px;font-family:Helvetica;writing-mode:lr-tb;fill:#000000;fill-opacity:1;fill-rule:nonzero;stroke:none"
         x="0 7.9438477 14.061523 19.561523 25.679199 31.796875 37.296875 40.353027 44.016113 50.133789 56.251465 59.307617 65.425293 70.925293 73.981445 80.405273 83.461426 89.579102 92.022949 97.522949 103.02295"
         y="0"
         sodipodi:role="line"
         id="tspan55">Deﬁnes routes + picks</tspan></text>
    <text
       id="text56"
       xml:space="preserve"
       transform="matrix(0.96011775,0,0,0.96011775,24.693028,158.41943)"
       clip-path="url(#clipPath57)"><tspan
         style="font-variant:normal;font-weight:normal;font-size:11px;font-family:Helvetica;writing-mode:lr-tb;fill:#000000;fill-opacity:1;fill-rule:nonzero;stroke:none"
         x="0 2.4438477 8.5615234 11.617676 17.735352 21.398438 27.516113 33.016113 36.072266 38.516113 44.633789 50.751465 53.807617 59.925293 66.042969 69.099121 75.216797 78.272949 81.329102 84.992188 91.109863"
         y="0"
         sodipodi:role="line"
         id="tspan56">interesting data from</tspan></text>
    <text
       id="text57"
       xml:space="preserve"
       transform="matrix(0.96011775,0,0,0.96011775,40.534971,170.90096)"
       clip-path="url(#clipPath58)"><tspan
         style="font-variant:normal;font-weight:normal;font-size:11px;font-family:Helvetica;writing-mode:lr-tb;fill:#000000;fill-opacity:1;fill-rule:nonzero;stroke:none"
         x="0 2.4438477 8.5615234 14.061523 20.179199 29.342285 31.786133 37.903809 44.021484 47.077637 50.740723 56.858398 62.976074 69.09375 75.211426 80.711426"
         y="0"
         sodipodi:role="line"
         id="tspan57">incoming request</tspan></text>
    <text
       id="text58"
       xml:space="preserve"
       transform="matrix(0.96011775,0,0,0.96011775,19.982451,209.30567)"
       clip-path="url(#clipPath59)"><tspan
         style="font-variant:normal;font-weight:normal;font-size:11px;font-family:Helvetica;writing-mode:lr-tb;fill:#000000;fill-opacity:1;fill-rule:nonzero;stroke:none"
         x="0 7.9438477 14.061523 20.179199 23.235352 29.353027 31.796875 37.914551 43.414551 46.470703 52.588379 58.706055 62.369141 65.425293 69.088379 75.206055 81.32373 83.767578 86.82373 92.941406 99.059082"
         y="0"
         sodipodi:role="line"
         id="tspan58">Contains our real app</tspan></text>
    <text
       id="text59"
       xml:space="preserve"
       transform="matrix(0.96011775,0,0,0.96011775,99.252173,222.74732)"
       clip-path="url(#clipPath60)"><tspan
         style="font-variant:normal;font-weight:normal;font-size:11px;font-family:Helvetica;writing-mode:lr-tb;fill:#000000;fill-opacity:1;fill-rule:nonzero;stroke:none"
         x="0 2.4438477 8.5615234 14.679199 17.123047"
         y="0"
         sodipodi:role="line"
         id="tspan59">logic</tspan></text>
    <text
       id="text60"
       xml:space="preserve"
       transform="matrix(0.96011775,0,0,0.96011775,12.181494,266.91274)"
       clip-path="url(#clipPath61)"><tspan
         style="font-variant:normal;font-weight:normal;font-size:11px;font-family:Helvetica;writing-mode:lr-tb;fill:#000000;fill-opacity:1;fill-rule:nonzero;stroke:none"
         x="0 7.9438477 11.606934 17.724609 23.842285 26.898438 33.016113 39.133789 42.189941 48.307617 53.807617 56.67041 62.788086 68.288086 74.405762 80.523438 89.07959 97.023438 106.18652 109.24268"
         y="0"
         sodipodi:role="line"
         id="tspan60">Created by TypeORM. </tspan></text>
    <text
       id="text61"
       xml:space="preserve"
       transform="matrix(0.96011775,0,0,0.96011775,31.953919,280.35438)"
       clip-path="url(#clipPath62)"><tspan
         style="font-variant:normal;font-weight:normal;font-size:11px;font-family:Helvetica;writing-mode:lr-tb;fill:#000000;fill-opacity:1;fill-rule:nonzero;stroke:none"
         x="0 3.0561523 9.1738281 12.22998 18.347656 22.010742 25.066895 31.18457 36.68457 42.802246 45.858398 48.914551 55.032227 58.088379 61.144531 67.262207 73.379883 76.436035 84.379883"
         y="0"
         sodipodi:role="line"
         id="tspan61">Interface to the DB</tspan></text>
    <path
       id="path63"
       d="M 331,251 H 311 V 221 H 297.37"
       style="fill:none;stroke:#000000;stroke-width:1;stroke-linecap:butt;stroke-linejoin:miter;stroke-miterlimit:10;stroke-dasharray:none;stroke-opacity:1"
       transform="matrix(0.96010815,0,0,0.96010815,0.48005407,0.48005407)"
       clip-path="url(#clipPath64)" />
    <path
       id="path65"
       d="m 292.12,221 7,-3.5 -1.75,3.5 1.75,3.5 z"
       style="fill:#000000;fill-opacity:1;fill-rule:nonzero;stroke:#000000;stroke-width:1;stroke-linecap:butt;stroke-linejoin:miter;stroke-miterlimit:10;stroke-dasharray:none;stroke-opacity:1"
       transform="matrix(0.96010815,0,0,0.96010815,0.48005407,0.48005407)"
       clip-path="url(#clipPath66)" />
    <path
       id="path67"
       d="m 331,251 h -20 v 30 h -13.63"
       style="fill:none;stroke:#000000;stroke-width:1;stroke-linecap:butt;stroke-linejoin:miter;stroke-miterlimit:10;stroke-dasharray:none;stroke-opacity:1"
       transform="matrix(0.96010815,0,0,0.96010815,0.48005407,0.48005407)"
       clip-path="url(#clipPath68)" />
    <path
       id="path69"
       d="m 292.12,281 7,-3.5 -1.75,3.5 1.75,3.5 z"
       style="fill:#000000;fill-opacity:1;fill-rule:nonzero;stroke:#000000;stroke-width:1;stroke-linecap:butt;stroke-linejoin:miter;stroke-miterlimit:10;stroke-dasharray:none;stroke-opacity:1"
       transform="matrix(0.96010815,0,0,0.96010815,0.48005407,0.48005407)"
       clip-path="url(#clipPath70)" />
    <path
       id="path71"
       d="m 331,231 h 160 v 40 H 331 Z"
       style="fill:#dae8fc;fill-opacity:1;fill-rule:nonzero;stroke:#6c8ebf;stroke-width:1;stroke-linecap:butt;stroke-linejoin:miter;stroke-miterlimit:10;stroke-dasharray:none;stroke-opacity:1"
       transform="matrix(0.96010815,0,0,0.96010815,0.48005407,0.48005407)"
       clip-path="url(#clipPath72)" />
    <text
       id="text72"
       xml:space="preserve"
       transform="matrix(0.96011775,0,0,0.96011775,361.73937,245.79014)"
       clip-path="url(#clipPath73)"><tspan
         style="font-variant:normal;font-weight:normal;font-size:14px;font-family:Helvetica;writing-mode:lr-tb;fill:#000000;fill-opacity:1;fill-rule:nonzero;stroke:none"
         x="0 10.110352 17.110352 24.896484 29.558594 33.448242 42.786133 50.572266 54.461914 57.572266 61.461914"
         y="0"
         sodipodi:role="line"
         id="tspan72">User Entity</tspan></text>
    <g
       id="g73" />
    <text
       id="text73"
       xml:space="preserve"
       transform="matrix(0.96011775,0,0,0.96011775,347.3526,273.63356)"
       clip-path="url(#clipPath74)"><tspan
         style="font-variant:normal;font-weight:normal;font-size:11px;font-family:Helvetica;writing-mode:lr-tb;fill:#000000;fill-opacity:1;fill-rule:nonzero;stroke:none"
         x="0 7.9438477 14.061523 19.561523 25.679199 31.796875 37.296875 40.353027 48.296875 54.414551 60.532227 63.588379 66.644531 72.762207 75.818359 81.936035 87.436035 93.553711 97.216797 100.27295 102.7168"
         y="0"
         sodipodi:role="line"
         id="tspan73">Deﬁnes what a user is</tspan></text>
  </g>
</svg>
