<?xml version="1.0" encoding="UTF-8" standalone="no"?>
<!-- Created with Inkscape (http://www.inkscape.org/) -->

<svg
   version="1.1"
   id="svg1"
   width="434.55997"
   height="216"
   viewBox="0 0 434.55997 216"
   sodipodi:docname="nest-32.pdf"
   xmlns:inkscape="http://www.inkscape.org/namespaces/inkscape"
   xmlns:sodipodi="http://sodipodi.sourceforge.net/DTD/sodipodi-0.dtd"
   xmlns="http://www.w3.org/2000/svg"
   xmlns:svg="http://www.w3.org/2000/svg">
  <defs
     id="defs1">
    <clipPath
       clipPathUnits="userSpaceOnUse"
       id="clipPath2">
      <path
         d="M 0,0 H 1358.3333 V 673.1828 H 0 Z"
         transform="scale(0.33423313)"
         clip-rule="evenodd"
         id="path2" />
    </clipPath>
    <clipPath
       clipPathUnits="userSpaceOnUse"
       id="clipPath4">
      <path
         d="M 0,0 H 1358.3333 V 670.19086 H 0 Z"
         transform="matrix(0.33423313,0,0,0.33423313,-0.49999999,-0.49999999)"
         clip-rule="evenodd"
         id="path4" />
    </clipPath>
    <clipPath
       clipPathUnits="userSpaceOnUse"
       id="clipPath5">
      <path
         d="M 0,0 H 1358.3333 V 670.19086 H 0 Z"
         transform="matrix(0.33422978,0,0,0.33422978,-6.4375001,-75)"
         clip-rule="evenodd"
         id="path5" />
    </clipPath>
    <clipPath
       clipPathUnits="userSpaceOnUse"
       id="clipPath7">
      <path
         d="M 0,0 H 1358.3333 V 670.19086 H 0 Z"
         transform="matrix(0.33423313,0,0,0.33423313,-0.49999999,-0.49999999)"
         clip-rule="evenodd"
         id="path7" />
    </clipPath>
    <clipPath
       clipPathUnits="userSpaceOnUse"
       id="clipPath9">
      <path
         d="M 0,0 H 1358.3333 V 670.19086 H 0 Z"
         transform="matrix(0.33423313,0,0,0.33423313,-0.49999999,-0.49999999)"
         clip-rule="evenodd"
         id="path9" />
    </clipPath>
    <clipPath
       clipPathUnits="userSpaceOnUse"
       id="clipPath11">
      <path
         d="M 0,0 H 1358.3333 V 670.19086 H 0 Z"
         transform="matrix(0.33423313,0,0,0.33423313,-0.49999999,-0.49999999)"
         clip-rule="evenodd"
         id="path11" />
    </clipPath>
    <clipPath
       clipPathUnits="userSpaceOnUse"
       id="clipPath12">
      <path
         d="M 0,0 H 1358.3333 V 670.19086 H 0 Z"
         transform="matrix(0.33422978,0,0,0.33422978,-14.296875,-50.000001)"
         clip-rule="evenodd"
         id="path12" />
    </clipPath>
    <clipPath
       clipPathUnits="userSpaceOnUse"
       id="clipPath14">
      <path
         d="M 0,0 H 1358.3333 V 670.19086 H 0 Z"
         transform="matrix(0.33423313,0,0,0.33423313,-0.49999999,-0.49999999)"
         clip-rule="evenodd"
         id="path14" />
    </clipPath>
    <clipPath
       clipPathUnits="userSpaceOnUse"
       id="clipPath15">
      <path
         d="M 0,0 H 1358.3333 V 670.19086 H 0 Z"
         transform="matrix(0.33422978,0,0,0.33422978,-190.70313,-13)"
         clip-rule="evenodd"
         id="path15" />
    </clipPath>
    <clipPath
       clipPathUnits="userSpaceOnUse"
       id="clipPath16">
      <path
         d="M 0,0 H 1358.3333 V 670.19086 H 0 Z"
         transform="matrix(0.33422978,0,0,0.33422978,-179.71875,-27)"
         clip-rule="evenodd"
         id="path16" />
    </clipPath>
    <clipPath
       clipPathUnits="userSpaceOnUse"
       id="clipPath18">
      <path
         d="M 0,0 H 1358.3333 V 670.19086 H 0 Z"
         transform="matrix(0.33423313,0,0,0.33423313,-0.49999999,-0.49999999)"
         clip-rule="evenodd"
         id="path18" />
    </clipPath>
    <clipPath
       clipPathUnits="userSpaceOnUse"
       id="clipPath20">
      <path
         d="M 0,0 H 1358.3333 V 670.19086 H 0 Z"
         transform="matrix(0.33423313,0,0,0.33423313,-0.49999999,-0.49999999)"
         clip-rule="evenodd"
         id="path20" />
    </clipPath>
    <clipPath
       clipPathUnits="userSpaceOnUse"
       id="clipPath22">
      <path
         d="M 0,0 H 1358.3333 V 670.19086 H 0 Z"
         transform="matrix(0.33423313,0,0,0.33423313,-0.49999999,-0.49999999)"
         clip-rule="evenodd"
         id="path22" />
    </clipPath>
    <clipPath
       clipPathUnits="userSpaceOnUse"
       id="clipPath24">
      <path
         d="M 0,0 H 1358.3333 V 670.19086 H 0 Z"
         transform="matrix(0.33423313,0,0,0.33423313,-0.49999999,-0.49999999)"
         clip-rule="evenodd"
         id="path24" />
    </clipPath>
    <clipPath
       clipPathUnits="userSpaceOnUse"
       id="clipPath26">
      <path
         d="M 0,0 H 1358.3333 V 670.19086 H 0 Z"
         transform="matrix(0.33423313,0,0,0.33423313,-0.49999999,-0.49999999)"
         clip-rule="evenodd"
         id="path26" />
    </clipPath>
    <clipPath
       clipPathUnits="userSpaceOnUse"
       id="clipPath27">
      <path
         d="M 0,0 H 1358.3333 V 670.19086 H 0 Z"
         transform="matrix(0.33422978,0,0,0.33422978,-181.84375,-65)"
         clip-rule="evenodd"
         id="path27" />
    </clipPath>
    <clipPath
       clipPathUnits="userSpaceOnUse"
       id="clipPath29">
      <path
         d="M 0,0 H 1358.3333 V 670.19086 H 0 Z"
         transform="matrix(0.33423313,0,0,0.33423313,-0.49999999,-0.49999999)"
         clip-rule="evenodd"
         id="path29" />
    </clipPath>
    <clipPath
       clipPathUnits="userSpaceOnUse"
       id="clipPath30">
      <path
         d="M 0,0 H 1358.3333 V 670.19086 H 0 Z"
         transform="matrix(0.33422978,0,0,0.33422978,-400.70313,-13)"
         clip-rule="evenodd"
         id="path30" />
    </clipPath>
    <clipPath
       clipPathUnits="userSpaceOnUse"
       id="clipPath31">
      <path
         d="M 0,0 H 1358.3333 V 670.19086 H 0 Z"
         transform="matrix(0.33422978,0,0,0.33422978,-396.42188,-27)"
         clip-rule="evenodd"
         id="path31" />
    </clipPath>
    <clipPath
       clipPathUnits="userSpaceOnUse"
       id="clipPath33">
      <path
         d="M 0,0 H 1358.3333 V 670.19086 H 0 Z"
         transform="matrix(0.33423313,0,0,0.33423313,-0.49999999,-0.49999999)"
         clip-rule="evenodd"
         id="path33" />
    </clipPath>
    <clipPath
       clipPathUnits="userSpaceOnUse"
       id="clipPath35">
      <path
         d="M 0,0 H 1358.3333 V 670.19086 H 0 Z"
         transform="matrix(0.33423313,0,0,0.33423313,-0.49999999,-0.49999999)"
         clip-rule="evenodd"
         id="path35" />
    </clipPath>
    <clipPath
       clipPathUnits="userSpaceOnUse"
       id="clipPath37">
      <path
         d="M 0,0 H 1358.3333 V 670.19086 H 0 Z"
         transform="matrix(0.33423313,0,0,0.33423313,-0.49999999,-0.49999999)"
         clip-rule="evenodd"
         id="path37" />
    </clipPath>
    <clipPath
       clipPathUnits="userSpaceOnUse"
       id="clipPath38">
      <path
         d="M 0,0 H 1358.3333 V 670.19086 H 0 Z"
         transform="matrix(0.33422978,0,0,0.33422978,-393.0625,-65)"
         clip-rule="evenodd"
         id="path38" />
    </clipPath>
    <clipPath
       clipPathUnits="userSpaceOnUse"
       id="clipPath40">
      <path
         d="M 0,0 H 1358.3333 V 670.19086 H 0 Z"
         transform="matrix(0.33423313,0,0,0.33423313,-0.49999999,-0.49999999)"
         clip-rule="evenodd"
         id="path40" />
    </clipPath>
    <clipPath
       clipPathUnits="userSpaceOnUse"
       id="clipPath41">
      <path
         d="M 0,0 H 1358.3333 V 670.19086 H 0 Z"
         transform="matrix(0.33422978,0,0,0.33422978,-279.20313,-90)"
         clip-rule="evenodd"
         id="path41" />
    </clipPath>
    <clipPath
       clipPathUnits="userSpaceOnUse"
       id="clipPath42">
      <path
         d="M 0,0 H 1358.3333 V 670.19086 H 0 Z"
         transform="matrix(0.33422978,0,0,0.33422978,-286.42188,-106)"
         clip-rule="evenodd"
         id="path42" />
    </clipPath>
    <clipPath
       clipPathUnits="userSpaceOnUse"
       id="clipPath44">
      <path
         d="M 0,0 H 1358.3333 V 670.19086 H 0 Z"
         transform="matrix(0.33423313,0,0,0.33423313,-0.49999999,-0.49999999)"
         clip-rule="evenodd"
         id="path44" />
    </clipPath>
    <clipPath
       clipPathUnits="userSpaceOnUse"
       id="clipPath45">
      <path
         d="M 0,0 H 1358.3333 V 670.19086 H 0 Z"
         transform="matrix(0.33422978,0,0,0.33422978,-102.09375,-101)"
         clip-rule="evenodd"
         id="path45" />
    </clipPath>
    <clipPath
       clipPathUnits="userSpaceOnUse"
       id="clipPath46">
      <path
         d="M 0,0 H 1358.3333 V 670.19086 H 0 Z"
         transform="matrix(0.33422978,0,0,0.33422978,-93.421875,-117)"
         clip-rule="evenodd"
         id="path46" />
    </clipPath>
    <clipPath
       clipPathUnits="userSpaceOnUse"
       id="clipPath48">
      <path
         d="M 0,0 H 1358.3333 V 670.19086 H 0 Z"
         transform="matrix(0.33423313,0,0,0.33423313,-0.49999999,-0.49999999)"
         clip-rule="evenodd"
         id="path48" />
    </clipPath>
    <clipPath
       clipPathUnits="userSpaceOnUse"
       id="clipPath49">
      <path
         d="M 0,0 H 1358.3333 V 670.19086 H 0 Z"
         transform="matrix(0.33422978,0,0,0.33422978,-55.390625,-185)"
         clip-rule="evenodd"
         id="path49" />
    </clipPath>
    <clipPath
       clipPathUnits="userSpaceOnUse"
       id="clipPath50">
      <path
         d="M 0,0 H 1358.3333 V 670.19086 H 0 Z"
         transform="matrix(0.33422978,0,0,0.33422978,-52.734375,-201)"
         clip-rule="evenodd"
         id="path50" />
    </clipPath>
    <clipPath
       clipPathUnits="userSpaceOnUse"
       id="clipPath51">
      <path
         d="M 0,0 H 1358.3333 V 670.19086 H 0 Z"
         transform="matrix(0.33422978,0,0,0.33422978,-58.140625,-216)"
         clip-rule="evenodd"
         id="path51" />
    </clipPath>
    <clipPath
       clipPathUnits="userSpaceOnUse"
       id="clipPath53">
      <path
         d="M 0,0 H 1358.3333 V 670.19086 H 0 Z"
         transform="matrix(0.33423313,0,0,0.33423313,-0.49999999,-0.49999999)"
         clip-rule="evenodd"
         id="path53" />
    </clipPath>
    <clipPath
       clipPathUnits="userSpaceOnUse"
       id="clipPath55">
      <path
         d="M 0,0 H 1358.3333 V 670.19086 H 0 Z"
         transform="matrix(0.33423313,0,0,0.33423313,-0.49999999,-0.49999999)"
         clip-rule="evenodd"
         id="path55" />
    </clipPath>
    <clipPath
       clipPathUnits="userSpaceOnUse"
       id="clipPath57">
      <path
         d="M 0,0 H 1358.3333 V 670.19086 H 0 Z"
         transform="matrix(0.33423313,0,0,0.33423313,-0.49999999,-0.49999999)"
         clip-rule="evenodd"
         id="path57" />
    </clipPath>
    <clipPath
       clipPathUnits="userSpaceOnUse"
       id="clipPath58">
      <path
         d="M 0,0 H 1358.3333 V 670.19086 H 0 Z"
         transform="matrix(0.33422978,0,0,0.33422978,-95.125,-166)"
         clip-rule="evenodd"
         id="path58" />
    </clipPath>
  </defs>
  <sodipodi:namedview
     id="namedview1"
     pagecolor="#ffffff"
     bordercolor="#000000"
     borderopacity="0.25"
     inkscape:showpageshadow="2"
     inkscape:pageopacity="0.0"
     inkscape:pagecheckerboard="0"
     inkscape:deskcolor="#d1d1d1">
    <inkscape:page
       x="0"
       y="0"
       inkscape:label="1"
       id="page1"
       width="434.55997"
       height="216"
       margin="0"
       bleed="0" />
  </sodipodi:namedview>
  <g
     id="g1"
     inkscape:groupmode="layer"
     inkscape:label="1">
    <path
       id="path1"
       d="M 0,0 H 454 V 225 H 0 Z"
       style="fill:#ffffff;fill-opacity:1;fill-rule:nonzero;stroke:none"
       transform="scale(0.95741551)"
       clip-path="url(#clipPath2)" />
    <path
       id="path3"
       d="M 1,56 H 71 V 86 H 1 Z"
       style="fill:#ffffff;fill-opacity:1;fill-rule:nonzero;stroke:#000000;stroke-width:1;stroke-linecap:butt;stroke-linejoin:miter;stroke-miterlimit:10;stroke-dasharray:none;stroke-opacity:1"
       transform="matrix(0.95741551,0,0,0.95741551,0.47870775,0.47870775)"
       clip-path="url(#clipPath4)" />
    <text
       id="text4"
       xml:space="preserve"
       transform="matrix(0.95742511,0,0,0.95742511,6.1634242,71.806883)"
       clip-path="url(#clipPath5)"><tspan
         style="font-variant:normal;font-weight:normal;font-size:11px;font-family:Helvetica;writing-mode:lr-tb;fill:#000000;fill-opacity:1;fill-rule:nonzero;stroke:none"
         x="0 8.5561523 15.893066 22.418945 25.475098 28.53125 34.648926 40.766602 43.822754 49.94043 52.996582"
         y="0"
         sodipodi:role="line"
         id="tspan4">GET /auth/2</tspan></text>
    <path
       id="path6"
       d="m 71,46 h 93.63"
       style="fill:none;stroke:#000000;stroke-width:1;stroke-linecap:butt;stroke-linejoin:miter;stroke-miterlimit:10;stroke-dasharray:none;stroke-opacity:1"
       transform="matrix(0.95741551,0,0,0.95741551,0.47870775,0.47870775)"
       clip-path="url(#clipPath7)" />
    <path
       id="path8"
       d="m 169.88,46 -7,3.5 1.75,-3.5 -1.75,-3.5 z"
       style="fill:#000000;fill-opacity:1;fill-rule:nonzero;stroke:#000000;stroke-width:1;stroke-linecap:butt;stroke-linejoin:miter;stroke-miterlimit:10;stroke-dasharray:none;stroke-opacity:1"
       transform="matrix(0.95741551,0,0,0.95741551,0.47870775,0.47870775)"
       clip-path="url(#clipPath9)" />
    <path
       id="path10"
       d="M 1,36 H 71 V 56 H 1 Z"
       style="fill:#ffffff;fill-opacity:1;fill-rule:nonzero;stroke:#000000;stroke-width:1;stroke-linecap:butt;stroke-linejoin:miter;stroke-miterlimit:10;stroke-dasharray:none;stroke-opacity:1"
       transform="matrix(0.95741551,0,0,0.95741551,0.47870775,0.47870775)"
       clip-path="url(#clipPath11)" />
    <text
       id="text11"
       xml:space="preserve"
       transform="matrix(0.95742511,0,0,0.95742511,13.688187,47.871256)"
       clip-path="url(#clipPath12)"><tspan
         style="font-variant:normal;font-weight:700;font-size:11px;font-family:Helvetica;writing-mode:lr-tb;fill:#000000;fill-opacity:1;fill-rule:nonzero;stroke:none"
         x="0 7.9438477 14.061523 20.780762 27.5 33.617676 39.735352"
         y="0"
         sodipodi:role="line"
         id="tspan11">Request</tspan></text>
    <path
       id="path13"
       d="m 171,1 h 70 v 30 h -70 z"
       style="fill:#dae8fc;fill-opacity:1;fill-rule:nonzero;stroke:#6c8ebf;stroke-width:1;stroke-linecap:butt;stroke-linejoin:miter;stroke-miterlimit:10;stroke-dasharray:none;stroke-opacity:1"
       transform="matrix(0.95741551,0,0,0.95741551,0.47870775,0.47870775)"
       clip-path="url(#clipPath14)" />
    <text
       id="text14"
       xml:space="preserve"
       transform="matrix(0.95742511,0,0,0.95742511,182.58397,12.446526)"
       clip-path="url(#clipPath15)"><tspan
         style="font-variant:normal;font-weight:700;font-size:11px;font-family:Helvetica;writing-mode:lr-tb;fill:#000000;fill-opacity:1;fill-rule:nonzero;stroke:none"
         x="0 7.9438477 14.061523 20.179199 24.459961"
         y="0"
         sodipodi:role="line"
         id="tspan14">Users</tspan></text>
    <text
       id="text15"
       xml:space="preserve"
       transform="matrix(0.95742511,0,0,0.95742511,172.06724,25.850478)"
       clip-path="url(#clipPath16)"><tspan
         style="font-variant:normal;font-weight:700;font-size:11px;font-family:Helvetica;writing-mode:lr-tb;fill:#000000;fill-opacity:1;fill-rule:nonzero;stroke:none"
         x="0 7.9438477 14.663086 21.382324 25.04541 29.326172 36.04541 39.101562 42.157715 48.275391"
         y="0"
         sodipodi:role="line"
         id="tspan15">Controller</tspan></text>
    <path
       id="path17"
       d="M 241,46 H 374.64001"
       style="fill:none;stroke:#000000;stroke-width:1;stroke-linecap:butt;stroke-linejoin:miter;stroke-miterlimit:10;stroke-dasharray:none;stroke-opacity:1"
       transform="matrix(0.95741551,0,0,0.95741551,0.47870775,0.47870775)"
       clip-path="url(#clipPath18)" />
    <path
       id="path19"
       d="m 379.89001,46 -7,3.5 1.75,-3.5 -1.75,-3.5 z"
       style="fill:#000000;fill-opacity:1;fill-rule:nonzero;stroke:#000000;stroke-width:1;stroke-linecap:butt;stroke-linejoin:miter;stroke-miterlimit:10;stroke-dasharray:none;stroke-opacity:1"
       transform="matrix(0.95741551,0,0,0.95741551,0.47870775,0.47870775)"
       clip-path="url(#clipPath20)" />
    <path
       id="path21"
       d="M 171,76 H 121 L 76.389999,76.09"
       style="fill:none;stroke:#000000;stroke-width:1;stroke-linecap:butt;stroke-linejoin:miter;stroke-miterlimit:10;stroke-dasharray:none;stroke-opacity:1"
       transform="matrix(0.95741551,0,0,0.95741551,0.47870775,0.47870775)"
       clip-path="url(#clipPath22)" />
    <path
       id="path23"
       d="m 71.139999,76.099998 6.989998,-3.519996 -1.739998,3.509994 1.760003,3.490006 z"
       style="fill:#000000;fill-opacity:1;fill-rule:nonzero;stroke:#000000;stroke-width:1;stroke-linecap:butt;stroke-linejoin:miter;stroke-miterlimit:10;stroke-dasharray:none;stroke-opacity:1"
       transform="matrix(0.95741551,0,0,0.95741551,0.47870775,0.47870775)"
       clip-path="url(#clipPath24)" />
    <path
       id="path25"
       d="m 171,31 h 70 v 60 h -70 z"
       style="fill:#dae8fc;fill-opacity:1;fill-rule:nonzero;stroke:#6c8ebf;stroke-width:1;stroke-linecap:butt;stroke-linejoin:miter;stroke-miterlimit:10;stroke-dasharray:none;stroke-opacity:1"
       transform="matrix(0.95741551,0,0,0.95741551,0.47870775,0.47870775)"
       clip-path="url(#clipPath26)" />
    <g
       id="g26" />
    <text
       id="text26"
       xml:space="preserve"
       transform="matrix(0.95742511,0,0,0.95742511,174.10177,62.232632)"
       clip-path="url(#clipPath27)"><tspan
         style="font-variant:normal;font-weight:normal;font-size:11px;font-family:Helvetica;writing-mode:lr-tb;fill:#000000;fill-opacity:1;fill-rule:nonzero;stroke:none"
         x="0 5.5 11.617676 17.735352 25.679199 31.179199 37.296875 40.959961 44.623047"
         y="0"
         sodipodi:role="line"
         id="tspan26">ﬁndUser()</tspan></text>
    <path
       id="path28"
       d="m 381,1 h 70 v 30 h -70 z"
       style="fill:#dae8fc;fill-opacity:1;fill-rule:nonzero;stroke:#6c8ebf;stroke-width:1;stroke-linecap:butt;stroke-linejoin:miter;stroke-miterlimit:10;stroke-dasharray:none;stroke-opacity:1"
       transform="matrix(0.95741551,0,0,0.95741551,0.47870775,0.47870775)"
       clip-path="url(#clipPath29)" />
    <text
       id="text29"
       xml:space="preserve"
       transform="matrix(0.95742511,0,0,0.95742511,383.64324,12.446526)"
       clip-path="url(#clipPath30)"><tspan
         style="font-variant:normal;font-weight:700;font-size:11px;font-family:Helvetica;writing-mode:lr-tb;fill:#000000;fill-opacity:1;fill-rule:nonzero;stroke:none"
         x="0 7.9438477 14.061523 20.179199 24.459961"
         y="0"
         sodipodi:role="line"
         id="tspan29">Users</tspan></text>
    <text
       id="text30"
       xml:space="preserve"
       transform="matrix(0.95742511,0,0,0.95742511,379.54426,25.850478)"
       clip-path="url(#clipPath31)"><tspan
         style="font-variant:normal;font-weight:700;font-size:11px;font-family:Helvetica;writing-mode:lr-tb;fill:#000000;fill-opacity:1;fill-rule:nonzero;stroke:none"
         x="0 7.3369141 13.45459 17.735352 23.853027 26.90918 33.026855"
         y="0"
         sodipodi:role="line"
         id="tspan30">Service</tspan></text>
    <path
       id="path32"
       d="M 381,76 H 247.37"
       style="fill:none;stroke:#000000;stroke-width:1;stroke-linecap:butt;stroke-linejoin:miter;stroke-miterlimit:10;stroke-dasharray:none;stroke-opacity:1"
       transform="matrix(0.95741551,0,0,0.95741551,0.47870775,0.47870775)"
       clip-path="url(#clipPath33)" />
    <path
       id="path34"
       d="m 242.12,76 7,-3.5 -1.75,3.5 1.75,3.5 z"
       style="fill:#000000;fill-opacity:1;fill-rule:nonzero;stroke:#000000;stroke-width:1;stroke-linecap:butt;stroke-linejoin:miter;stroke-miterlimit:10;stroke-dasharray:none;stroke-opacity:1"
       transform="matrix(0.95741551,0,0,0.95741551,0.47870775,0.47870775)"
       clip-path="url(#clipPath35)" />
    <path
       id="path36"
       d="m 381,31 h 70 v 60 h -70 z"
       style="fill:#dae8fc;fill-opacity:1;fill-rule:nonzero;stroke:#6c8ebf;stroke-width:1;stroke-linecap:butt;stroke-linejoin:miter;stroke-miterlimit:10;stroke-dasharray:none;stroke-opacity:1"
       transform="matrix(0.95741551,0,0,0.95741551,0.47870775,0.47870775)"
       clip-path="url(#clipPath37)" />
    <g
       id="g37" />
    <text
       id="text37"
       xml:space="preserve"
       transform="matrix(0.95742511,0,0,0.95742511,376.32791,62.232632)"
       clip-path="url(#clipPath38)"><tspan
         style="font-variant:normal;font-weight:normal;font-size:11px;font-family:Helvetica;writing-mode:lr-tb;fill:#000000;fill-opacity:1;fill-rule:nonzero;stroke:none"
         x="0 5.5 11.617676 17.735352 26.291504 32.40918 38.526855 42.189941"
         y="0"
         sodipodi:role="line"
         id="tspan37">ﬁndOne()</tspan></text>
    <path
       id="path39"
       d="m 261,76 h 100 v 35 H 261 Z"
       style="fill:#f5f5f5;fill-opacity:1;fill-rule:nonzero;stroke:#666666;stroke-width:1;stroke-linecap:butt;stroke-linejoin:miter;stroke-miterlimit:10;stroke-dasharray:none;stroke-opacity:1"
       transform="matrix(0.95741551,0,0,0.95741551,0.47870775,0.47870775)"
       clip-path="url(#clipPath40)" />
    <text
       id="text40"
       xml:space="preserve"
       transform="matrix(0.95742511,0,0,0.95742511,267.31609,86.16826)"
       clip-path="url(#clipPath41)"><tspan
         style="font-variant:normal;font-weight:normal;font-size:13px;font-family:Helvetica;writing-mode:lr-tb;fill:#333333;fill-opacity:1;fill-rule:nonzero;stroke:none"
         x="0 9.3881836 15.888184 23.118164 27.447266 31.059082 39.72998 46.959961 50.571777 53.459961 57.071777"
         y="0"
         sodipodi:role="line"
         id="tspan40">User Entity</tspan></text>
    <text
       id="text41"
       xml:space="preserve"
       transform="matrix(0.95742511,0,0,0.95742511,274.2275,101.48706)"
       clip-path="url(#clipPath42)"><tspan
         style="font-variant:normal;font-weight:normal;font-size:13px;font-family:Helvetica;writing-mode:lr-tb;fill:#333333;fill-opacity:1;fill-rule:nonzero;stroke:none"
         x="0 3.6118164 10.841797 17.341797 20.953613 28.183594 35.413574 41.913574"
         y="0"
         sodipodi:role="line"
         id="tspan41">Instance</tspan></text>
    <path
       id="path43"
       d="m 91,76 h 67 v 55 H 91 Z"
       style="fill:#f5f5f5;fill-opacity:1;fill-rule:nonzero;stroke:#666666;stroke-width:1;stroke-linecap:butt;stroke-linejoin:miter;stroke-miterlimit:10;stroke-dasharray:none;stroke-opacity:1"
       transform="matrix(0.95741551,0,0,0.95741551,0.47870775,0.47870775)"
       clip-path="url(#clipPath44)" />
    <text
       id="text44"
       xml:space="preserve"
       transform="matrix(0.95742511,0,0,0.95742511,97.74712,96.699936)"
       clip-path="url(#clipPath45)"><tspan
         style="font-variant:normal;font-weight:normal;font-size:13px;font-family:Helvetica;writing-mode:lr-tb;fill:#333333;fill-opacity:1;fill-rule:nonzero;stroke:none"
         x="0 9.3881836 16.618164 23.118164 26.72998 33.959961"
         y="0"
         sodipodi:role="line"
         id="tspan44">Custom</tspan></text>
    <text
       id="text45"
       xml:space="preserve"
       transform="matrix(0.95742511,0,0,0.95742511,89.444449,112.01874)"
       clip-path="url(#clipPath46)"><tspan
         style="font-variant:normal;font-weight:normal;font-size:13px;font-family:Helvetica;writing-mode:lr-tb;fill:#333333;fill-opacity:1;fill-rule:nonzero;stroke:none"
         x="0 3.6118164 10.841797 14.453613 21.683594 26.012695 32.512695 39.742676 46.972656 50.584473 57.814453"
         y="0"
         sodipodi:role="line"
         id="tspan45">Interceptor</tspan></text>
    <path
       id="path47"
       d="m 49.5,171 h 150 v 50 h -150 z"
       style="fill:#f5f5f5;fill-opacity:1;fill-rule:nonzero;stroke:#666666;stroke-width:1;stroke-linecap:butt;stroke-linejoin:miter;stroke-miterlimit:10;stroke-dasharray:none;stroke-opacity:1"
       transform="matrix(0.95741551,0,0,0.95741551,0.47870775,0.47870775)"
       clip-path="url(#clipPath48)" />
    <text
       id="text48"
       xml:space="preserve"
       transform="matrix(0.95742511,0,0,0.95742511,53.032375,177.12365)"
       clip-path="url(#clipPath49)"><tspan
         style="font-variant:normal;font-weight:normal;font-size:13px;font-family:Helvetica;writing-mode:lr-tb;fill:#333333;fill-opacity:1;fill-rule:nonzero;stroke:none"
         x="0 9.3881836 17.100586 27.212402 30.824219 34.436035 41.666016 48.895996 52.507812 56.119629 63.349609 70.57959 77.07959 83.57959 87.908691 90.796875 98.026855 105.25684 111.75684 115.36865 122.59863 129.82861"
         y="0"
         sodipodi:role="line"
         id="tspan48">DTO that describes how</tspan></text>
    <text
       id="text49"
       xml:space="preserve"
       transform="matrix(0.95742511,0,0,0.95742511,50.489215,192.44245)"
       clip-path="url(#clipPath50)"><tspan
         style="font-variant:normal;font-weight:normal;font-size:13px;font-family:Helvetica;writing-mode:lr-tb;fill:#333333;fill-opacity:1;fill-rule:nonzero;stroke:none"
         x="0 3.6118164 10.841797 14.453613 20.953613 28.183594 32.512695 35.400879 42.630859 45.519043 48.407227 54.907227 62.137207 65.749023 72.979004 76.59082 83.820801 90.320801 97.550781 101.87988 105.4917 109.10352 116.3335 120.6626 124.27441 127.88623 135.11621 138.00439"
         y="0"
         sodipodi:role="line"
         id="tspan49">to serialize a user for this</tspan></text>
    <text
       id="text50"
       xml:space="preserve"
       transform="matrix(0.95742511,0,0,0.95742511,55.665294,206.80382)"
       clip-path="url(#clipPath51)"><tspan
         style="font-variant:normal;font-weight:normal;font-size:13px;font-family:Helvetica;writing-mode:lr-tb;fill:#333333;fill-opacity:1;fill-rule:nonzero;stroke:none"
         x="0 7.2299805 14.459961 18.789062 22.400879 25.289062 31.789062 39.019043 41.907227 49.137207 53.466309 57.078125 61.407227 68.637207 75.867188 79.479004 86.708984 90.320801 97.550781 104.78076 112.01074 119.24072 122.12891 129.35889"
         y="0"
         sodipodi:role="line"
         id="tspan50">particular route handler</tspan></text>
    <path
       id="path52"
       d="m 124.5,151 v -20 20 -13.63001"
       style="fill:none;stroke:#000000;stroke-width:1;stroke-linecap:butt;stroke-linejoin:miter;stroke-miterlimit:10;stroke-dasharray:none;stroke-opacity:1"
       transform="matrix(0.95741551,0,0,0.95741551,0.47870775,0.47870775)"
       clip-path="url(#clipPath53)" />
    <path
       id="path54"
       d="m 124.5,132.11999 3.5,7 -3.5,-1.75 -3.5,1.75 z"
       style="fill:#000000;fill-opacity:1;fill-rule:nonzero;stroke:#000000;stroke-width:1;stroke-linecap:butt;stroke-linejoin:miter;stroke-miterlimit:10;stroke-dasharray:none;stroke-opacity:1"
       transform="matrix(0.95741551,0,0,0.95741551,0.47870775,0.47870775)"
       clip-path="url(#clipPath55)" />
    <path
       id="path56"
       d="m 49.5,151 h 150 v 20 h -150 z"
       style="fill:#f5f5f5;fill-opacity:1;fill-rule:nonzero;stroke:#666666;stroke-width:1;stroke-linecap:butt;stroke-linejoin:miter;stroke-miterlimit:10;stroke-dasharray:none;stroke-opacity:1"
       transform="matrix(0.95741551,0,0,0.95741551,0.47870775,0.47870775)"
       clip-path="url(#clipPath57)" />
    <text
       id="text57"
       xml:space="preserve"
       transform="matrix(0.95742511,0,0,0.95742511,91.075064,158.93257)"
       clip-path="url(#clipPath58)"><tspan
         style="font-variant:normal;font-weight:700;font-size:13px;font-family:Helvetica;writing-mode:lr-tb;fill:#333333;fill-opacity:1;fill-rule:nonzero;stroke:none"
         x="0 9.3881836 16.618164 23.848145 28.907227 32.519043 41.907227 49.619629"
         y="0"
         sodipodi:role="line"
         id="tspan57">User DTO</tspan></text>
  </g>
</svg>
