<?xml version="1.0" encoding="UTF-8" standalone="no"?>
<!-- Created with Inkscape (http://www.inkscape.org/) -->

<svg
   version="1.1"
   id="svg1"
   width="377.28"
   height="197.44"
   viewBox="0 0 377.28 197.44"
   sodipodi:docname="nest-10.pdf"
   xmlns:inkscape="http://www.inkscape.org/namespaces/inkscape"
   xmlns:sodipodi="http://sodipodi.sourceforge.net/DTD/sodipodi-0.dtd"
   xmlns="http://www.w3.org/2000/svg"
   xmlns:svg="http://www.w3.org/2000/svg">
  <defs
     id="defs1">
    <clipPath
       clipPathUnits="userSpaceOnUse"
       id="clipPath2">
      <path
         d="M 0,0 H 1179.1666 V 616.51862 H 0 Z"
         transform="scale(0.33413427)"
         clip-rule="evenodd"
         id="path2" />
    </clipPath>
    <clipPath
       clipPathUnits="userSpaceOnUse"
       id="clipPath4">
      <path
         d="M 0,0 H 1179.1666 V 610.53302 H 0 Z"
         transform="matrix(0.33413427,0,0,0.33413427,-0.5,-0.5)"
         clip-rule="evenodd"
         id="path4" />
    </clipPath>
    <clipPath
       clipPathUnits="userSpaceOnUse"
       id="clipPath5">
      <path
         d="M 0,0 H 1179.1666 V 610.53302 H 0 Z"
         transform="matrix(0.33413091,0,0,0.33413091,-47.984374,-54)"
         clip-rule="evenodd"
         id="path5" />
    </clipPath>
    <clipPath
       clipPathUnits="userSpaceOnUse"
       id="clipPath6">
      <path
         d="M 0,0 H 1179.1666 V 610.53302 H 0 Z"
         transform="matrix(0.33413091,0,0,0.33413091,-67.578125,-71.999999)"
         clip-rule="evenodd"
         id="path6" />
    </clipPath>
    <clipPath
       clipPathUnits="userSpaceOnUse"
       id="clipPath8">
      <path
         d="M 0,0 H 1179.1666 V 610.53302 H 0 Z"
         transform="matrix(0.33413427,0,0,0.33413427,-0.5,-0.5)"
         clip-rule="evenodd"
         id="path8" />
    </clipPath>
    <clipPath
       clipPathUnits="userSpaceOnUse"
       id="clipPath9">
      <path
         d="M 0,0 H 1179.1666 V 610.53302 H 0 Z"
         transform="matrix(0.33413091,0,0,0.33413091,-11.828125,-63)"
         clip-rule="evenodd"
         id="path9" />
    </clipPath>
    <clipPath
       clipPathUnits="userSpaceOnUse"
       id="clipPath11">
      <path
         d="M 0,0 H 1179.1666 V 610.53302 H 0 Z"
         transform="matrix(0.33413427,0,0,0.33413427,-0.5,-0.5)"
         clip-rule="evenodd"
         id="path11" />
    </clipPath>
    <clipPath
       clipPathUnits="userSpaceOnUse"
       id="clipPath12">
      <path
         d="M 0,0 H 1179.1666 V 610.53302 H 0 Z"
         transform="matrix(0.33413091,0,0,0.33413091,-78.687499,-114)"
         clip-rule="evenodd"
         id="path12" />
    </clipPath>
    <clipPath
       clipPathUnits="userSpaceOnUse"
       id="clipPath13">
      <path
         d="M 0,0 H 1179.1666 V 610.53302 H 0 Z"
         transform="matrix(0.33413091,0,0,0.33413091,-165.96875,-132)"
         clip-rule="evenodd"
         id="path13" />
    </clipPath>
    <clipPath
       clipPathUnits="userSpaceOnUse"
       id="clipPath15">
      <path
         d="M 0,0 H 1179.1666 V 610.53302 H 0 Z"
         transform="matrix(0.33413427,0,0,0.33413427,-0.5,-0.5)"
         clip-rule="evenodd"
         id="path15" />
    </clipPath>
    <clipPath
       clipPathUnits="userSpaceOnUse"
       id="clipPath16">
      <path
         d="M 0,0 H 1179.1666 V 610.53302 H 0 Z"
         transform="matrix(0.33413091,0,0,0.33413091,-11.828125,-123)"
         clip-rule="evenodd"
         id="path16" />
    </clipPath>
    <clipPath
       clipPathUnits="userSpaceOnUse"
       id="clipPath18">
      <path
         d="M 0,0 H 1179.1666 V 610.53302 H 0 Z"
         transform="matrix(0.33413427,0,0,0.33413427,-0.5,-0.5)"
         clip-rule="evenodd"
         id="path18" />
    </clipPath>
    <clipPath
       clipPathUnits="userSpaceOnUse"
       id="clipPath19">
      <path
         d="M 0,0 H 1179.1666 V 610.53302 H 0 Z"
         transform="matrix(0.33413091,0,0,0.33413091,-61.03125,-183)"
         clip-rule="evenodd"
         id="path19" />
    </clipPath>
    <clipPath
       clipPathUnits="userSpaceOnUse"
       id="clipPath21">
      <path
         d="M 0,0 H 1179.1666 V 610.53302 H 0 Z"
         transform="matrix(0.33413427,0,0,0.33413427,-0.5,-0.5)"
         clip-rule="evenodd"
         id="path21" />
    </clipPath>
    <clipPath
       clipPathUnits="userSpaceOnUse"
       id="clipPath22">
      <path
         d="M 0,0 H 1179.1666 V 610.53302 H 0 Z"
         transform="matrix(0.33413091,0,0,0.33413091,-11.828125,-183)"
         clip-rule="evenodd"
         id="path22" />
    </clipPath>
    <clipPath
       clipPathUnits="userSpaceOnUse"
       id="clipPath23">
      <path
         d="M 0,0 H 1179.1666 V 610.53302 H 0 Z"
         transform="matrix(0.33413091,0,0,0.33413091,-104.3125,-19)"
         clip-rule="evenodd"
         id="path23" />
    </clipPath>
  </defs>
  <sodipodi:namedview
     id="namedview1"
     pagecolor="#ffffff"
     bordercolor="#000000"
     borderopacity="0.25"
     inkscape:showpageshadow="2"
     inkscape:pageopacity="0.0"
     inkscape:pagecheckerboard="0"
     inkscape:deskcolor="#d1d1d1">
    <inkscape:page
       x="0"
       y="0"
       inkscape:label="1"
       id="page1"
       width="377.28"
       height="197.44"
       margin="0"
       bleed="0" />
  </sodipodi:namedview>
  <g
     id="g1"
     inkscape:groupmode="layer"
     inkscape:label="1">
    <path
       id="path1"
       d="M 0,0 H 394 V 206 H 0 Z"
       style="fill:#ffffff;fill-opacity:1;fill-rule:nonzero;stroke:none"
       transform="scale(0.95769878)"
       clip-path="url(#clipPath2)" />
    <path
       id="path3"
       d="M 31,32 H 391 V 82 H 31 Z"
       style="fill:#f5f5f5;fill-opacity:1;fill-rule:nonzero;stroke:#666666;stroke-width:1;stroke-linecap:butt;stroke-linejoin:miter;stroke-miterlimit:10;stroke-dasharray:none;stroke-opacity:1"
       transform="matrix(0.95769878,0,0,0.95769878,0.47884939,0.47884939)"
       clip-path="url(#clipPath4)" />
    <text
       id="text4"
       xml:space="preserve"
       transform="matrix(0.95770841,0,0,0.95770841,45.955039,51.716254)"
       clip-path="url(#clipPath5)"><tspan
         style="font-variant:normal;font-weight:normal;font-size:15px;font-family:Helvetica;writing-mode:lr-tb;fill:#333333;fill-opacity:1;fill-rule:nonzero;stroke:none"
         x="0 12.495117 20.837402 29.179688 37.521973 40.854492 49.196777 56.696777 60.864258 65.031738 73.374023 78.369141 85.869141 94.211426 98.378906 105.87891 114.22119 122.56348 126.73096 130.89844 139.24072 143.4082 147.57568 155.91797 159.25049 167.59277 175.09277 179.26025 187.60254 195.94482 204.28711 212.62939 216.79688 220.96436 229.30664 237.64893 248.48145 252.64893 260.14893 268.49121 276.8335 281.82861 285.99609 294.33838 302.68066 311.02295 315.19043 318.52295"
         y="0"
         sodipodi:role="line"
         id="tspan4">Modules force you to think about how your app is</tspan></text>
    <text
       id="text5"
       xml:space="preserve"
       transform="matrix(0.95770841,0,0,0.95770841,64.720139,68.955005)"
       clip-path="url(#clipPath6)"><tspan
         style="font-variant:normal;font-weight:normal;font-size:15px;font-family:Helvetica;writing-mode:lr-tb;fill:#333333;fill-opacity:1;fill-rule:nonzero;stroke:none"
         x="0 7.5 11.66748 16.662598 25.004883 32.504883 36.672363 45.014648 50.009766 58.352051 66.694336 70.861816 75.856934 80.024414 92.519531 95.852051 104.19434 112.53662 116.7041 120.87158 124.2041 132.54639 140.88867 149.23096 153.39844 157.56592 165.9082 170.07568 178.41797 186.76025 190.92773 195.09521 203.4375 208.43262 212.6001 220.1001 228.44238 236.78467 245.12695 249.29443 254.28955 262.63184 270.97412 278.47412"
         y="0"
         sodipodi:role="line"
         id="tspan5">structured - might lead to better code reuse</tspan></text>
    <path
       id="path7"
       d="M 1,32 H 31 V 82 H 1 Z"
       style="fill:#dae8fc;fill-opacity:1;fill-rule:nonzero;stroke:#6c8ebf;stroke-width:1;stroke-linecap:butt;stroke-linejoin:miter;stroke-miterlimit:10;stroke-dasharray:none;stroke-opacity:1"
       transform="matrix(0.95769878,0,0,0.95769878,0.47884939,0.47884939)"
       clip-path="url(#clipPath8)" />
    <text
       id="text8"
       xml:space="preserve"
       transform="matrix(0.95770841,0,0,0.95770841,11.327895,60.33563)"
       clip-path="url(#clipPath9)"><tspan
         style="font-variant:normal;font-weight:700;font-size:15px;font-family:Helvetica;writing-mode:lr-tb;fill:#000000;fill-opacity:1;fill-rule:nonzero;stroke:none"
         x="0"
         y="0"
         id="tspan8">1</tspan></text>
    <path
       id="path10"
       d="m 31,92 h 360 v 50 H 31 Z"
       style="fill:#f5f5f5;fill-opacity:1;fill-rule:nonzero;stroke:#666666;stroke-width:1;stroke-linecap:butt;stroke-linejoin:miter;stroke-miterlimit:10;stroke-dasharray:none;stroke-opacity:1"
       transform="matrix(0.95769878,0,0,0.95769878,0.47884939,0.47884939)"
       clip-path="url(#clipPath11)" />
    <text
       id="text11"
       xml:space="preserve"
       transform="matrix(0.95770841,0,0,0.95770841,75.35968,109.17876)"
       clip-path="url(#clipPath12)"><tspan
         style="font-variant:normal;font-weight:normal;font-size:15px;font-family:Helvetica;writing-mode:lr-tb;fill:#333333;fill-opacity:1;fill-rule:nonzero;stroke:none"
         x="0 10.83252 14.165039 18.068848 22.236328 30.578613 35.57373 43.916016 52.258301 56.425781 60.593262 73.088379 81.430664 89.772949 98.115234 101.44775 109.79004 117.29004 121.45752 128.95752 137.2998 145.64209 149.80957 158.15186 166.49414 170.66162 179.00391 182.33643 189.83643 198.17871 206.521 210.68848 219.03076 222.36328 226.26709 230.43457 238.77686 243.77197 252.11426 260.45654"
         y="0"
         sodipodi:role="line"
         id="tspan11">Different modules can be given different</tspan></text>
    <g
       id="g12" />
    <text
       id="text12"
       xml:space="preserve"
       transform="matrix(0.95770841,0,0,0.95770841,158.94967,126.41751)"
       clip-path="url(#clipPath13)"><tspan
         style="font-variant:normal;font-weight:normal;font-size:15px;font-family:Helvetica;writing-mode:lr-tb;fill:#333333;fill-opacity:1;fill-rule:nonzero;stroke:none"
         x="0 7.5 15.842285 24.18457 31.68457 40.026855 48.369141 53.364258 61.706543 65.874023 69.206543 77.548828 85.891113"
         y="0"
         sodipodi:role="line"
         id="tspan12">conﬁguration </tspan></text>
    <path
       id="path14"
       d="m 1,92 h 30 v 50 H 1 Z"
       style="fill:#dae8fc;fill-opacity:1;fill-rule:nonzero;stroke:#6c8ebf;stroke-width:1;stroke-linecap:butt;stroke-linejoin:miter;stroke-miterlimit:10;stroke-dasharray:none;stroke-opacity:1"
       transform="matrix(0.95769878,0,0,0.95769878,0.47884939,0.47884939)"
       clip-path="url(#clipPath15)" />
    <text
       id="text15"
       xml:space="preserve"
       transform="matrix(0.95770841,0,0,0.95770841,11.327895,117.79813)"
       clip-path="url(#clipPath16)"><tspan
         style="font-variant:normal;font-weight:700;font-size:15px;font-family:Helvetica;writing-mode:lr-tb;fill:#000000;fill-opacity:1;fill-rule:nonzero;stroke:none"
         x="0"
         y="0"
         id="tspan15">2</tspan></text>
    <path
       id="path17"
       d="m 31,152 h 360 v 50 H 31 Z"
       style="fill:#f5f5f5;fill-opacity:1;fill-rule:nonzero;stroke:#666666;stroke-width:1;stroke-linecap:butt;stroke-linejoin:miter;stroke-miterlimit:10;stroke-dasharray:none;stroke-opacity:1"
       transform="matrix(0.95769878,0,0,0.95769878,0.47884939,0.47884939)"
       clip-path="url(#clipPath18)" />
    <g
       id="g18" />
    <text
       id="text18"
       xml:space="preserve"
       transform="matrix(0.95770841,0,0,0.95770841,58.450141,175.26064)"
       clip-path="url(#clipPath19)"><tspan
         style="font-variant:normal;font-weight:normal;font-size:15px;font-family:Helvetica;writing-mode:lr-tb;fill:#333333;fill-opacity:1;fill-rule:nonzero;stroke:none"
         x="0 9.7412109 17.241211 25.583496 28.916016 37.258301 44.758301 48.925781 56.425781 64.768066 68.935547 73.103027 76.435547 84.777832 93.120117 97.287598 105.62988 113.97217 118.13965 126.48193 129.81445 133.14697 137.31445 148.14697 152.31445 156.48193 164.82422 168.15674 176.49902 184.84131 188.17383 196.51611 204.8584 209.02588 212.3584 220.70068 224.86816 233.21045 237.37793 244.87793 248.21045 256.55273 264.89502 268.22754 276.56982 280.7373 288.2373 291.56982"
         y="0"
         sodipodi:role="line"
         id="tspan18">Avoids setting up all DI binding in a single ﬁle</tspan></text>
    <path
       id="path20"
       d="m 1,152 h 30 v 50 H 1 Z"
       style="fill:#dae8fc;fill-opacity:1;fill-rule:nonzero;stroke:#6c8ebf;stroke-width:1;stroke-linecap:butt;stroke-linejoin:miter;stroke-miterlimit:10;stroke-dasharray:none;stroke-opacity:1"
       transform="matrix(0.95769878,0,0,0.95769878,0.47884939,0.47884939)"
       clip-path="url(#clipPath21)" />
    <text
       id="text21"
       xml:space="preserve"
       transform="matrix(0.95770841,0,0,0.95770841,11.327895,175.26064)"
       clip-path="url(#clipPath22)"><tspan
         style="font-variant:normal;font-weight:700;font-size:15px;font-family:Helvetica;writing-mode:lr-tb;fill:#000000;fill-opacity:1;fill-rule:nonzero;stroke:none"
         x="0"
         y="0"
         id="tspan21">3</tspan></text>
    <text
       id="text22"
       xml:space="preserve"
       transform="matrix(0.95770841,0,0,0.95770841,99.900958,18.19646)"
       clip-path="url(#clipPath23)"><tspan
         style="font-variant:normal;font-weight:700;font-size:20px;font-family:Helvetica;writing-mode:lr-tb;fill:#000000;fill-opacity:1;fill-rule:nonzero;stroke:none"
         x="0 18.876953 31.09375 42.216797 47.773438 62.216797 73.339844 84.462891 90.019531 106.67969 118.89648 131.11328 143.33008 148.88672 160.00977 171.13281"
         y="0"
         sodipodi:role="line"
         id="tspan22">Why Use Modules?</tspan></text>
  </g>
</svg>
