<?xml version="1.0" encoding="UTF-8" standalone="no"?>
<!-- Created with Inkscape (http://www.inkscape.org/) -->

<svg
   version="1.1"
   id="svg1"
   width="318.72"
   height="186.56"
   viewBox="0 0 318.72 186.56"
   sodipodi:docname="nest-5.pdf"
   xmlns:inkscape="http://www.inkscape.org/namespaces/inkscape"
   xmlns:sodipodi="http://sodipodi.sourceforge.net/DTD/sodipodi-0.dtd"
   xmlns="http://www.w3.org/2000/svg"
   xmlns:svg="http://www.w3.org/2000/svg">
  <defs
     id="defs1">
    <clipPath
       clipPathUnits="userSpaceOnUse"
       id="clipPath2">
      <path
         d="M 0,0 H 995.83325 V 581.39966 H 0 Z"
         transform="scale(0.33539753)"
         clip-rule="evenodd"
         id="path2" />
    </clipPath>
    <clipPath
       clipPathUnits="userSpaceOnUse"
       id="clipPath4">
      <path
         d="M 0,0 H 995.83325 V 578.41809 H 0 Z"
         transform="matrix(0.33539753,0,0,0.33539753,-0.50000001,-0.50000001)"
         clip-rule="evenodd"
         id="path4" />
    </clipPath>
    <clipPath
       clipPathUnits="userSpaceOnUse"
       id="clipPath5">
      <path
         d="M 0,0 H 995.83325 V 578.41809 H 0 Z"
         transform="matrix(0.33539417,0,0,0.33539417,-138,-21)"
         clip-rule="evenodd"
         id="path5" />
    </clipPath>
    <clipPath
       clipPathUnits="userSpaceOnUse"
       id="clipPath7">
      <path
         d="M 0,0 H 995.83325 V 578.41809 H 0 Z"
         transform="matrix(0.33539753,0,0,0.33539753,-0.50000001,-0.50000001)"
         clip-rule="evenodd"
         id="path7" />
    </clipPath>
    <clipPath
       clipPathUnits="userSpaceOnUse"
       id="clipPath9">
      <path
         d="M 0,0 H 995.83325 V 578.41809 H 0 Z"
         transform="matrix(0.33539753,0,0,0.33539753,-0.50000001,-0.50000001)"
         clip-rule="evenodd"
         id="path9" />
    </clipPath>
    <clipPath
       clipPathUnits="userSpaceOnUse"
       id="clipPath11">
      <path
         d="M 0,0 H 995.83325 V 578.41809 H 0 Z"
         transform="matrix(0.33539753,0,0,0.33539753,-0.50000001,-0.50000001)"
         clip-rule="evenodd"
         id="path11" />
    </clipPath>
    <clipPath
       clipPathUnits="userSpaceOnUse"
       id="clipPath12">
      <path
         d="M 0,0 H 995.83325 V 578.41809 H 0 Z"
         transform="matrix(0.33539417,0,0,0.33539417,-34.765625,-61)"
         clip-rule="evenodd"
         id="path12" />
    </clipPath>
    <clipPath
       clipPathUnits="userSpaceOnUse"
       id="clipPath14">
      <path
         d="M 0,0 H 995.83325 V 578.41809 H 0 Z"
         transform="matrix(0.33539753,0,0,0.33539753,-0.50000001,-0.50000001)"
         clip-rule="evenodd"
         id="path14" />
    </clipPath>
    <clipPath
       clipPathUnits="userSpaceOnUse"
       id="clipPath15">
      <path
         d="M 0,0 H 995.83325 V 578.41809 H 0 Z"
         transform="matrix(0.33539417,0,0,0.33539417,-151.9375,-59.999999)"
         clip-rule="evenodd"
         id="path15" />
    </clipPath>
    <clipPath
       clipPathUnits="userSpaceOnUse"
       id="clipPath17">
      <path
         d="M 0,0 H 995.83325 V 578.41809 H 0 Z"
         transform="matrix(0.33539753,0,0,0.33539753,-0.50000001,-0.50000001)"
         clip-rule="evenodd"
         id="path17" />
    </clipPath>
    <clipPath
       clipPathUnits="userSpaceOnUse"
       id="clipPath19">
      <path
         d="M 0,0 H 995.83325 V 578.41809 H 0 Z"
         transform="matrix(0.33539753,0,0,0.33539753,-0.50000001,-0.50000001)"
         clip-rule="evenodd"
         id="path19" />
    </clipPath>
    <clipPath
       clipPathUnits="userSpaceOnUse"
       id="clipPath21">
      <path
         d="M 0,0 H 995.83325 V 578.41809 H 0 Z"
         transform="matrix(0.33539753,0,0,0.33539753,-0.50000001,-0.50000001)"
         clip-rule="evenodd"
         id="path21" />
    </clipPath>
    <clipPath
       clipPathUnits="userSpaceOnUse"
       id="clipPath22">
      <path
         d="M 0,0 H 995.83325 V 578.41809 H 0 Z"
         transform="matrix(0.33539417,0,0,0.33539417,-24.09375,-101)"
         clip-rule="evenodd"
         id="path22" />
    </clipPath>
    <clipPath
       clipPathUnits="userSpaceOnUse"
       id="clipPath24">
      <path
         d="M 0,0 H 995.83325 V 578.41809 H 0 Z"
         transform="matrix(0.33539753,0,0,0.33539753,-0.50000001,-0.50000001)"
         clip-rule="evenodd"
         id="path24" />
    </clipPath>
    <clipPath
       clipPathUnits="userSpaceOnUse"
       id="clipPath25">
      <path
         d="M 0,0 H 995.83325 V 578.41809 H 0 Z"
         transform="matrix(0.33539417,0,0,0.33539417,-151.95312,-92.999999)"
         clip-rule="evenodd"
         id="path25" />
    </clipPath>
    <clipPath
       clipPathUnits="userSpaceOnUse"
       id="clipPath26">
      <path
         d="M 0,0 H 995.83325 V 578.41809 H 0 Z"
         transform="matrix(0.33539417,0,0,0.33539417,-216.3125,-108)"
         clip-rule="evenodd"
         id="path26" />
    </clipPath>
    <clipPath
       clipPathUnits="userSpaceOnUse"
       id="clipPath28">
      <path
         d="M 0,0 H 995.83325 V 578.41809 H 0 Z"
         transform="matrix(0.33539753,0,0,0.33539753,-0.50000001,-0.50000001)"
         clip-rule="evenodd"
         id="path28" />
    </clipPath>
    <clipPath
       clipPathUnits="userSpaceOnUse"
       id="clipPath30">
      <path
         d="M 0,0 H 995.83325 V 578.41809 H 0 Z"
         transform="matrix(0.33539753,0,0,0.33539753,-0.50000001,-0.50000001)"
         clip-rule="evenodd"
         id="path30" />
    </clipPath>
    <clipPath
       clipPathUnits="userSpaceOnUse"
       id="clipPath32">
      <path
         d="M 0,0 H 995.83325 V 578.41809 H 0 Z"
         transform="matrix(0.33539753,0,0,0.33539753,-0.50000001,-0.50000001)"
         clip-rule="evenodd"
         id="path32" />
    </clipPath>
    <clipPath
       clipPathUnits="userSpaceOnUse"
       id="clipPath33">
      <path
         d="M 0,0 H 995.83325 V 578.41809 H 0 Z"
         transform="matrix(0.33539417,0,0,0.33539417,-28.09375,-141)"
         clip-rule="evenodd"
         id="path33" />
    </clipPath>
    <clipPath
       clipPathUnits="userSpaceOnUse"
       id="clipPath35">
      <path
         d="M 0,0 H 995.83325 V 578.41809 H 0 Z"
         transform="matrix(0.33539753,0,0,0.33539753,-0.50000001,-0.50000001)"
         clip-rule="evenodd"
         id="path35" />
    </clipPath>
    <clipPath
       clipPathUnits="userSpaceOnUse"
       id="clipPath36">
      <path
         d="M 0,0 H 995.83325 V 578.41809 H 0 Z"
         transform="matrix(0.33539417,0,0,0.33539417,-152.28124,-133)"
         clip-rule="evenodd"
         id="path36" />
    </clipPath>
    <clipPath
       clipPathUnits="userSpaceOnUse"
       id="clipPath37">
      <path
         d="M 0,0 H 995.83325 V 578.41809 H 0 Z"
         transform="matrix(0.33539417,0,0,0.33539417,-186.98438,-148)"
         clip-rule="evenodd"
         id="path37" />
    </clipPath>
    <clipPath
       clipPathUnits="userSpaceOnUse"
       id="clipPath39">
      <path
         d="M 0,0 H 995.83325 V 578.41809 H 0 Z"
         transform="matrix(0.33539753,0,0,0.33539753,-0.50000001,-0.50000001)"
         clip-rule="evenodd"
         id="path39" />
    </clipPath>
    <clipPath
       clipPathUnits="userSpaceOnUse"
       id="clipPath41">
      <path
         d="M 0,0 H 995.83325 V 578.41809 H 0 Z"
         transform="matrix(0.33539753,0,0,0.33539753,-0.50000001,-0.50000001)"
         clip-rule="evenodd"
         id="path41" />
    </clipPath>
    <clipPath
       clipPathUnits="userSpaceOnUse"
       id="clipPath43">
      <path
         d="M 0,0 H 995.83325 V 578.41809 H 0 Z"
         transform="matrix(0.33539753,0,0,0.33539753,-0.50000001,-0.50000001)"
         clip-rule="evenodd"
         id="path43" />
    </clipPath>
    <clipPath
       clipPathUnits="userSpaceOnUse"
       id="clipPath44">
      <path
         d="M 0,0 H 995.83325 V 578.41809 H 0 Z"
         transform="matrix(0.33539417,0,0,0.33539417,-34.765625,-181)"
         clip-rule="evenodd"
         id="path44" />
    </clipPath>
    <clipPath
       clipPathUnits="userSpaceOnUse"
       id="clipPath46">
      <path
         d="M 0,0 H 995.83325 V 578.41809 H 0 Z"
         transform="matrix(0.33539753,0,0,0.33539753,-0.50000001,-0.50000001)"
         clip-rule="evenodd"
         id="path46" />
    </clipPath>
    <clipPath
       clipPathUnits="userSpaceOnUse"
       id="clipPath47">
      <path
         d="M 0,0 H 995.83325 V 578.41809 H 0 Z"
         transform="matrix(0.33539417,0,0,0.33539417,-142.26562,-173)"
         clip-rule="evenodd"
         id="path47" />
    </clipPath>
    <clipPath
       clipPathUnits="userSpaceOnUse"
       id="clipPath48">
      <path
         d="M 0,0 H 995.83325 V 578.41809 H 0 Z"
         transform="matrix(0.33539417,0,0,0.33539417,-165.95313,-188)"
         clip-rule="evenodd"
         id="path48" />
    </clipPath>
  </defs>
  <sodipodi:namedview
     id="namedview1"
     pagecolor="#ffffff"
     bordercolor="#000000"
     borderopacity="0.25"
     inkscape:showpageshadow="2"
     inkscape:pageopacity="0.0"
     inkscape:pagecheckerboard="0"
     inkscape:deskcolor="#d1d1d1">
    <inkscape:page
       x="0"
       y="0"
       inkscape:label="1"
       id="page1"
       width="318.72"
       height="186.56"
       margin="0"
       bleed="0" />
  </sodipodi:namedview>
  <g
     id="g1"
     inkscape:groupmode="layer"
     inkscape:label="1">
    <path
       id="path1"
       d="M 0,0 H 334 V 195 H 0 Z"
       style="fill:#ffffff;fill-opacity:1;fill-rule:nonzero;stroke:none"
       transform="scale(0.95409167)"
       clip-path="url(#clipPath2)" />
    <path
       id="path3"
       d="M 1,1 H 331 V 31 H 1 Z"
       style="fill:#dae8fc;fill-opacity:1;fill-rule:nonzero;stroke:#6c8ebf;stroke-width:1;stroke-linecap:butt;stroke-linejoin:miter;stroke-miterlimit:10;stroke-dasharray:none;stroke-opacity:1"
       transform="matrix(0.95409167,0,0,0.95409167,0.47704584,0.47704584)"
       clip-path="url(#clipPath4)" />
    <text
       id="text4"
       xml:space="preserve"
       transform="matrix(0.95410121,0,0,0.95410121,131.66597,20.036125)"
       clip-path="url(#clipPath5)"><tspan
         style="font-variant:normal;font-weight:700;font-size:16px;font-family:Helvetica;writing-mode:lr-tb;fill:#000000;fill-opacity:1;fill-rule:nonzero;stroke:none"
         x="0 13.328125 23.101562 32.875 42.648438 47.09375"
         y="0"
         sodipodi:role="line"
         id="tspan4">Module</tspan></text>
    <path
       id="path6"
       d="m 121,56 h 20 -20 13.63"
       style="fill:none;stroke:#000000;stroke-width:1;stroke-linecap:butt;stroke-linejoin:miter;stroke-miterlimit:10;stroke-dasharray:none;stroke-opacity:1"
       transform="matrix(0.95409167,0,0,0.95409167,0.47704584,0.47704584)"
       clip-path="url(#clipPath7)" />
    <path
       id="path8"
       d="m 139.88,56 -7,3.5 1.75,-3.5 -1.75,-3.5 z"
       style="fill:#000000;fill-opacity:1;fill-rule:nonzero;stroke:#000000;stroke-width:1;stroke-linecap:butt;stroke-linejoin:miter;stroke-miterlimit:10;stroke-dasharray:none;stroke-opacity:1"
       transform="matrix(0.95409167,0,0,0.95409167,0.47704584,0.47704584)"
       clip-path="url(#clipPath9)" />
    <path
       id="path10"
       d="M 1,41 H 121 V 71 H 1 Z"
       style="fill:#f5f5f5;fill-opacity:1;fill-rule:nonzero;stroke:#666666;stroke-width:1;stroke-linecap:butt;stroke-linejoin:miter;stroke-miterlimit:10;stroke-dasharray:none;stroke-opacity:1"
       transform="matrix(0.95409167,0,0,0.95409167,0.47704584,0.47704584)"
       clip-path="url(#clipPath11)" />
    <text
       id="text11"
       xml:space="preserve"
       transform="matrix(0.95410121,0,0,0.95410121,33.169925,58.200174)"
       clip-path="url(#clipPath12)"><tspan
         style="font-variant:normal;font-weight:normal;font-size:16px;font-family:Helvetica;writing-mode:lr-tb;fill:#333333;fill-opacity:1;fill-rule:nonzero;stroke:none"
         x="0 3.5546875 16.882812 25.78125 34.679688 40.007812 44.453125"
         y="0"
         sodipodi:role="line"
         id="tspan11">imports</tspan></text>
    <path
       id="path13"
       d="M 141,41 H 331 V 71 H 141 Z"
       style="fill:#f5f5f5;fill-opacity:1;fill-rule:nonzero;stroke:#666666;stroke-width:1;stroke-linecap:butt;stroke-linejoin:miter;stroke-miterlimit:10;stroke-dasharray:none;stroke-opacity:1"
       transform="matrix(0.95409167,0,0,0.95409167,0.47704584,0.47704584)"
       clip-path="url(#clipPath14)" />
    <text
       id="text14"
       xml:space="preserve"
       transform="matrix(0.95410121,0,0,0.95410121,144.96375,57.246072)"
       clip-path="url(#clipPath15)"><tspan
         style="font-variant:normal;font-weight:normal;font-size:12px;font-family:Helvetica;writing-mode:lr-tb;fill:#333333;fill-opacity:1;fill-rule:nonzero;stroke:none"
         x="0 6.6738281 9.3398438 15.339844 18.673828 22.007812 28.681641 32.015625 35.349609 45.345703 52.019531 58.693359 65.367188 68.033203 74.707031 80.707031 84.041016 87.375 94.048828 100.72266 104.05664 107.39062 114.06445 118.06055 124.73438 128.06836 134.74219 141.41602 148.08984 154.76367 161.4375"
         y="0"
         sodipodi:role="line"
         id="tspan14">List of modules that are needed</tspan></text>
    <path
       id="path16"
       d="m 121,96 h 20 -20 13.63"
       style="fill:none;stroke:#000000;stroke-width:1;stroke-linecap:butt;stroke-linejoin:miter;stroke-miterlimit:10;stroke-dasharray:none;stroke-opacity:1"
       transform="matrix(0.95409167,0,0,0.95409167,0.47704584,0.47704584)"
       clip-path="url(#clipPath17)" />
    <path
       id="path18"
       d="m 139.88,96 -7,3.5 1.75,-3.5 -1.75,-3.5 z"
       style="fill:#000000;fill-opacity:1;fill-rule:nonzero;stroke:#000000;stroke-width:1;stroke-linecap:butt;stroke-linejoin:miter;stroke-miterlimit:10;stroke-dasharray:none;stroke-opacity:1"
       transform="matrix(0.95409167,0,0,0.95409167,0.47704584,0.47704584)"
       clip-path="url(#clipPath19)" />
    <path
       id="path20"
       d="m 1,81 h 120 v 30 H 1 Z"
       style="fill:#f5f5f5;fill-opacity:1;fill-rule:nonzero;stroke:#666666;stroke-width:1;stroke-linecap:butt;stroke-linejoin:miter;stroke-miterlimit:10;stroke-dasharray:none;stroke-opacity:1"
       transform="matrix(0.95409167,0,0,0.95409167,0.47704584,0.47704584)"
       clip-path="url(#clipPath21)" />
    <text
       id="text21"
       xml:space="preserve"
       transform="matrix(0.95410121,0,0,0.95410121,22.987876,96.364222)"
       clip-path="url(#clipPath22)"><tspan
         style="font-variant:normal;font-weight:normal;font-size:16px;font-family:Helvetica;writing-mode:lr-tb;fill:#333333;fill-opacity:1;fill-rule:nonzero;stroke:none"
         x="0 8 16.898438 25.796875 30.242188 35.570312 44.46875 48.023438 51.578125 60.476562 65.804688"
         y="0"
         sodipodi:role="line"
         id="tspan21">controllers</tspan></text>
    <path
       id="path23"
       d="m 141,81 h 190 v 30 H 141 Z"
       style="fill:#f5f5f5;fill-opacity:1;fill-rule:nonzero;stroke:#666666;stroke-width:1;stroke-linecap:butt;stroke-linejoin:miter;stroke-miterlimit:10;stroke-dasharray:none;stroke-opacity:1"
       transform="matrix(0.95409167,0,0,0.95409167,0.47704584,0.47704584)"
       clip-path="url(#clipPath24)" />
    <g
       id="g24" />
    <text
       id="text24"
       xml:space="preserve"
       transform="matrix(0.95410121,0,0,0.95410121,144.97866,88.731412)"
       clip-path="url(#clipPath25)"><tspan
         style="font-variant:normal;font-weight:normal;font-size:12px;font-family:Helvetica;writing-mode:lr-tb;fill:#333333;fill-opacity:1;fill-rule:nonzero;stroke:none"
         x="0 6.6738281 9.3398438 15.339844 18.673828 22.007812 28.681641 32.015625 35.349609 41.349609 48.023438 54.697266 58.03125 62.027344 68.701172 71.367188 74.033203 80.707031 84.703125 90.703125 94.037109 100.71094 107.38477 113.38477 120.05859 126.73242 133.40625 136.74023 139.40625 146.08008 149.41406 152.74805 159.42188 162.08789"
         y="0"
         sodipodi:role="line"
         id="tspan24">List of controllers deﬁned in this</tspan></text>
    <text
       id="text25"
       xml:space="preserve"
       transform="matrix(0.95410121,0,0,0.95410121,206.38402,103.04293)"
       clip-path="url(#clipPath26)"><tspan
         style="font-variant:normal;font-weight:normal;font-size:12px;font-family:Helvetica;writing-mode:lr-tb;fill:#333333;fill-opacity:1;fill-rule:nonzero;stroke:none"
         x="0 9.9960938 16.669922 23.34375 30.017578 32.683594"
         y="0"
         sodipodi:role="line"
         id="tspan25">module</tspan></text>
    <path
       id="path27"
       d="m 121,136 h 20 -20 13.63"
       style="fill:none;stroke:#000000;stroke-width:1;stroke-linecap:butt;stroke-linejoin:miter;stroke-miterlimit:10;stroke-dasharray:none;stroke-opacity:1"
       transform="matrix(0.95409167,0,0,0.95409167,0.47704584,0.47704584)"
       clip-path="url(#clipPath28)" />
    <path
       id="path29"
       d="m 139.88,136 -7,3.5 1.75,-3.5 -1.75,-3.5 z"
       style="fill:#000000;fill-opacity:1;fill-rule:nonzero;stroke:#000000;stroke-width:1;stroke-linecap:butt;stroke-linejoin:miter;stroke-miterlimit:10;stroke-dasharray:none;stroke-opacity:1"
       transform="matrix(0.95409167,0,0,0.95409167,0.47704584,0.47704584)"
       clip-path="url(#clipPath30)" />
    <path
       id="path31"
       d="m 1,121 h 120 v 30 H 1 Z"
       style="fill:#f5f5f5;fill-opacity:1;fill-rule:nonzero;stroke:#666666;stroke-width:1;stroke-linecap:butt;stroke-linejoin:miter;stroke-miterlimit:10;stroke-dasharray:none;stroke-opacity:1"
       transform="matrix(0.95409167,0,0,0.95409167,0.47704584,0.47704584)"
       clip-path="url(#clipPath32)" />
    <text
       id="text32"
       xml:space="preserve"
       transform="matrix(0.95410121,0,0,0.95410121,26.804281,134.52827)"
       clip-path="url(#clipPath33)"><tspan
         style="font-variant:normal;font-weight:normal;font-size:16px;font-family:Helvetica;writing-mode:lr-tb;fill:#333333;fill-opacity:1;fill-rule:nonzero;stroke:none"
         x="0 8.8984375 14.226562 23.125 31.125 34.679688 43.578125 52.476562 57.804688"
         y="0"
         sodipodi:role="line"
         id="tspan32">providers</tspan></text>
    <path
       id="path34"
       d="m 141,121 h 190 v 30 H 141 Z"
       style="fill:#f5f5f5;fill-opacity:1;fill-rule:nonzero;stroke:#666666;stroke-width:1;stroke-linecap:butt;stroke-linejoin:miter;stroke-miterlimit:10;stroke-dasharray:none;stroke-opacity:1"
       transform="matrix(0.95409167,0,0,0.95409167,0.47704584,0.47704584)"
       clip-path="url(#clipPath35)" />
    <text
       id="text35"
       xml:space="preserve"
       transform="matrix(0.95410121,0,0,0.95410121,145.29172,126.89546)"
       clip-path="url(#clipPath36)"><tspan
         style="font-variant:normal;font-weight:normal;font-size:12px;font-family:Helvetica;writing-mode:lr-tb;fill:#333333;fill-opacity:1;fill-rule:nonzero;stroke:none"
         x="0 6.6738281 9.3398438 15.339844 18.673828 22.007812 28.681641 32.015625 35.349609 41.349609 44.015625 50.689453 56.689453 62.689453 69.363281 75.363281 78.697266 82.03125 88.705078 95.378906 98.712891 102.04688 108.04688 114.7207 121.39453 124.72852 131.40234 138.07617 141.41016 148.08398 154.08398 160.75781"
         y="0"
         sodipodi:role="line"
         id="tspan35">List of classes that can be used</tspan></text>
    <text
       id="text36"
       xml:space="preserve"
       transform="matrix(0.95410121,0,0,0.95410121,178.40202,141.20698)"
       clip-path="url(#clipPath37)"><tspan
         style="font-variant:normal;font-weight:normal;font-size:12px;font-family:Helvetica;writing-mode:lr-tb;fill:#333333;fill-opacity:1;fill-rule:nonzero;stroke:none"
         x="0 8.6660156 11.332031 14.666016 21.339844 24.673828 28.007812 34.681641 41.355469 44.689453 53.355469 56.689453 60.023438 66.023438 72.023438 78.023438 81.357422 88.03125"
         y="0"
         sodipodi:role="line"
         id="tspan36">with the DI system</tspan></text>
    <path
       id="path38"
       d="m 121,176 h 20 -20 13.63"
       style="fill:none;stroke:#000000;stroke-width:1;stroke-linecap:butt;stroke-linejoin:miter;stroke-miterlimit:10;stroke-dasharray:none;stroke-opacity:1"
       transform="matrix(0.95409167,0,0,0.95409167,0.47704584,0.47704584)"
       clip-path="url(#clipPath39)" />
    <path
       id="path40"
       d="m 139.88,176 -7,3.5 1.75,-3.5 -1.75,-3.5 z"
       style="fill:#000000;fill-opacity:1;fill-rule:nonzero;stroke:#000000;stroke-width:1;stroke-linecap:butt;stroke-linejoin:miter;stroke-miterlimit:10;stroke-dasharray:none;stroke-opacity:1"
       transform="matrix(0.95409167,0,0,0.95409167,0.47704584,0.47704584)"
       clip-path="url(#clipPath41)" />
    <path
       id="path42"
       d="m 1,161 h 120 v 30 H 1 Z"
       style="fill:#f5f5f5;fill-opacity:1;fill-rule:nonzero;stroke:#666666;stroke-width:1;stroke-linecap:butt;stroke-linejoin:miter;stroke-miterlimit:10;stroke-dasharray:none;stroke-opacity:1"
       transform="matrix(0.95409167,0,0,0.95409167,0.47704584,0.47704584)"
       clip-path="url(#clipPath43)" />
    <text
       id="text43"
       xml:space="preserve"
       transform="matrix(0.95410121,0,0,0.95410121,33.169925,172.69232)"
       clip-path="url(#clipPath44)"><tspan
         style="font-variant:normal;font-weight:normal;font-size:16px;font-family:Helvetica;writing-mode:lr-tb;fill:#333333;fill-opacity:1;fill-rule:nonzero;stroke:none"
         x="0 8.8984375 16.898438 25.796875 34.695312 40.023438 44.46875"
         y="0"
         sodipodi:role="line"
         id="tspan43">exports</tspan></text>
    <path
       id="path45"
       d="m 141,161 h 190 v 30 H 141 Z"
       style="fill:#f5f5f5;fill-opacity:1;fill-rule:nonzero;stroke:#666666;stroke-width:1;stroke-linecap:butt;stroke-linejoin:miter;stroke-miterlimit:10;stroke-dasharray:none;stroke-opacity:1"
       transform="matrix(0.95409167,0,0,0.95409167,0.47704584,0.47704584)"
       clip-path="url(#clipPath46)" />
    <text
       id="text46"
       xml:space="preserve"
       transform="matrix(0.95410121,0,0,0.95410121,135.7358,165.05951)"
       clip-path="url(#clipPath47)"><tspan
         style="font-variant:normal;font-weight:normal;font-size:12px;font-family:Helvetica;writing-mode:lr-tb;fill:#333333;fill-opacity:1;fill-rule:nonzero;stroke:none"
         x="0 6.6738281 9.3398438 15.339844 18.673828 22.007812 28.681641 32.015625 35.349609 41.349609 44.015625 50.689453 56.689453 62.689453 69.363281 75.363281 78.697266 82.03125 88.705078 95.378906 98.712891 102.04688 108.04688 114.7207 121.39453 128.06836 130.73438 137.4082 140.74219 147.41602 154.08984 157.42383 167.41992 174.09375 180.76758"
         y="0"
         sodipodi:role="line"
         id="tspan46">List of classes that should be made</tspan></text>
    <text
       id="text47"
       xml:space="preserve"
       transform="matrix(0.95410121,0,0,0.95410121,158.33608,179.37103)"
       clip-path="url(#clipPath48)"><tspan
         style="font-variant:normal;font-weight:normal;font-size:12px;font-family:Helvetica;writing-mode:lr-tb;fill:#333333;fill-opacity:1;fill-rule:nonzero;stroke:none"
         x="0 6.6738281 12.673828 19.347656 22.013672 24.679688 31.353516 38.027344 40.693359 47.367188 50.701172 54.035156 60.708984 64.042969 70.716797 74.050781 80.724609 87.398438 91.394531 94.728516 104.72461 111.39844 118.07227 124.74609 127.41211 134.08594"
         y="0"
         sodipodi:role="line"
         id="tspan47">available to other modules</tspan></text>
  </g>
</svg>
