<?xml version="1.0" encoding="UTF-8" standalone="no"?>
<!-- Created with Inkscape (http://www.inkscape.org/) -->

<svg
   version="1.1"
   id="svg1"
   width="386.55997"
   height="291.84"
   viewBox="0 0 386.55997 291.84"
   sodipodi:docname="nest-4.pdf"
   xmlns:inkscape="http://www.inkscape.org/namespaces/inkscape"
   xmlns:sodipodi="http://sodipodi.sourceforge.net/DTD/sodipodi-0.dtd"
   xmlns="http://www.w3.org/2000/svg"
   xmlns:svg="http://www.w3.org/2000/svg">
  <defs
     id="defs1">
    <clipPath
       clipPathUnits="userSpaceOnUse"
       id="clipPath2">
      <path
         d="M 0,0 H 1208.3333 V 912.23181 H 0 Z"
         transform="scale(0.33434485)"
         clip-rule="evenodd"
         id="path2" />
    </clipPath>
    <clipPath
       clipPathUnits="userSpaceOnUse"
       id="clipPath4">
      <path
         d="M 0,0 H 1208.3333 V 909.24084 H 0 Z"
         transform="matrix(0.33434485,0,0,0.33434485,-0.49999999,-0.49999999)"
         clip-rule="evenodd"
         id="path4" />
    </clipPath>
    <clipPath
       clipPathUnits="userSpaceOnUse"
       id="clipPath5">
      <path
         d="M 0,0 H 1208.3333 V 909.24084 H 0 Z"
         transform="matrix(0.33434149,0,0,0.33434149,-137.07813,-73)"
         clip-rule="evenodd"
         id="path5" />
    </clipPath>
    <clipPath
       clipPathUnits="userSpaceOnUse"
       id="clipPath7">
      <path
         d="M 0,0 H 1208.3333 V 909.24084 H 0 Z"
         transform="matrix(0.33434485,0,0,0.33434485,-0.49999999,-0.49999999)"
         clip-rule="evenodd"
         id="path7" />
    </clipPath>
    <clipPath
       clipPathUnits="userSpaceOnUse"
       id="clipPath9">
      <path
         d="M 0,0 H 1208.3333 V 909.24084 H 0 Z"
         transform="matrix(0.33434485,0,0,0.33434485,-0.49999999,-0.49999999)"
         clip-rule="evenodd"
         id="path9" />
    </clipPath>
    <clipPath
       clipPathUnits="userSpaceOnUse"
       id="clipPath11">
      <path
         d="M 0,0 H 1208.3333 V 909.24084 H 0 Z"
         transform="matrix(0.33434485,0,0,0.33434485,-0.49999999,-0.49999999)"
         clip-rule="evenodd"
         id="path11" />
    </clipPath>
    <clipPath
       clipPathUnits="userSpaceOnUse"
       id="clipPath13">
      <path
         d="M 0,0 H 1208.3333 V 909.24084 H 0 Z"
         transform="matrix(0.33434485,0,0,0.33434485,-0.49999999,-0.49999999)"
         clip-rule="evenodd"
         id="path13" />
    </clipPath>
    <clipPath
       clipPathUnits="userSpaceOnUse"
       id="clipPath14">
      <path
         d="M 0,0 H 1208.3333 V 909.24084 H 0 Z"
         transform="matrix(0.33434149,0,0,0.33434149,-52.421875,-114)"
         clip-rule="evenodd"
         id="path14" />
    </clipPath>
    <clipPath
       clipPathUnits="userSpaceOnUse"
       id="clipPath16">
      <path
         d="M 0,0 H 1208.3333 V 909.24084 H 0 Z"
         transform="matrix(0.33434485,0,0,0.33434485,-0.49999999,-0.49999999)"
         clip-rule="evenodd"
         id="path16" />
    </clipPath>
    <clipPath
       clipPathUnits="userSpaceOnUse"
       id="clipPath17">
      <path
         d="M 0,0 H 1208.3333 V 909.24084 H 0 Z"
         transform="matrix(0.33434149,0,0,0.33434149,-68.84375,-135)"
         clip-rule="evenodd"
         id="path17" />
    </clipPath>
    <clipPath
       clipPathUnits="userSpaceOnUse"
       id="clipPath19">
      <path
         d="M 0,0 H 1208.3333 V 909.24084 H 0 Z"
         transform="matrix(0.33434485,0,0,0.33434485,-0.49999999,-0.49999999)"
         clip-rule="evenodd"
         id="path19" />
    </clipPath>
    <clipPath
       clipPathUnits="userSpaceOnUse"
       id="clipPath20">
      <path
         d="M 0,0 H 1208.3333 V 909.24084 H 0 Z"
         transform="matrix(0.33434149,0,0,0.33434149,-235.40625,-114)"
         clip-rule="evenodd"
         id="path20" />
    </clipPath>
    <clipPath
       clipPathUnits="userSpaceOnUse"
       id="clipPath22">
      <path
         d="M 0,0 H 1208.3333 V 909.24084 H 0 Z"
         transform="matrix(0.33434485,0,0,0.33434485,-0.49999999,-0.49999999)"
         clip-rule="evenodd"
         id="path22" />
    </clipPath>
    <clipPath
       clipPathUnits="userSpaceOnUse"
       id="clipPath23">
      <path
         d="M 0,0 H 1208.3333 V 909.24084 H 0 Z"
         transform="matrix(0.33434149,0,0,0.33434149,-259.85938,-135)"
         clip-rule="evenodd"
         id="path23" />
    </clipPath>
    <clipPath
       clipPathUnits="userSpaceOnUse"
       id="clipPath25">
      <path
         d="M 0,0 H 1208.3333 V 909.24084 H 0 Z"
         transform="matrix(0.33434485,0,0,0.33434485,-0.49999999,-0.49999999)"
         clip-rule="evenodd"
         id="path25" />
    </clipPath>
    <clipPath
       clipPathUnits="userSpaceOnUse"
       id="clipPath26">
      <path
         d="M 0,0 H 1208.3333 V 909.24084 H 0 Z"
         transform="matrix(0.33434149,0,0,0.33434149,-100.42188,-28)"
         clip-rule="evenodd"
         id="path26" />
    </clipPath>
    <clipPath
       clipPathUnits="userSpaceOnUse"
       id="clipPath28">
      <path
         d="M 0,0 H 1208.3333 V 909.24084 H 0 Z"
         transform="matrix(0.33434485,0,0,0.33434485,-0.49999999,-0.49999999)"
         clip-rule="evenodd"
         id="path28" />
    </clipPath>
    <clipPath
       clipPathUnits="userSpaceOnUse"
       id="clipPath29">
      <path
         d="M 0,0 H 1208.3333 V 909.24084 H 0 Z"
         transform="matrix(0.33434149,0,0,0.33434149,-46.515625,-207)"
         clip-rule="evenodd"
         id="path29" />
    </clipPath>
    <clipPath
       clipPathUnits="userSpaceOnUse"
       id="clipPath31">
      <path
         d="M 0,0 H 1208.3333 V 909.24084 H 0 Z"
         transform="matrix(0.33434485,0,0,0.33434485,-0.49999999,-0.49999999)"
         clip-rule="evenodd"
         id="path31" />
    </clipPath>
    <clipPath
       clipPathUnits="userSpaceOnUse"
       id="clipPath32">
      <path
         d="M 0,0 H 1208.3333 V 909.24084 H 0 Z"
         transform="matrix(0.33434149,0,0,0.33434149,-10.328125,-207)"
         clip-rule="evenodd"
         id="path32" />
    </clipPath>
    <clipPath
       clipPathUnits="userSpaceOnUse"
       id="clipPath34">
      <path
         d="M 0,0 H 1208.3333 V 909.24084 H 0 Z"
         transform="matrix(0.33434485,0,0,0.33434485,-0.49999999,-0.49999999)"
         clip-rule="evenodd"
         id="path34" />
    </clipPath>
    <clipPath
       clipPathUnits="userSpaceOnUse"
       id="clipPath35">
      <path
         d="M 0,0 H 1208.3333 V 909.24084 H 0 Z"
         transform="matrix(0.33434149,0,0,0.33434149,-44.734375,-238)"
         clip-rule="evenodd"
         id="path35" />
    </clipPath>
    <clipPath
       clipPathUnits="userSpaceOnUse"
       id="clipPath36">
      <path
         d="M 0,0 H 1208.3333 V 909.24084 H 0 Z"
         transform="matrix(0.33434149,0,0,0.33434149,-181.64063,-256)"
         clip-rule="evenodd"
         id="path36" />
    </clipPath>
    <clipPath
       clipPathUnits="userSpaceOnUse"
       id="clipPath38">
      <path
         d="M 0,0 H 1208.3333 V 909.24084 H 0 Z"
         transform="matrix(0.33434485,0,0,0.33434485,-0.49999999,-0.49999999)"
         clip-rule="evenodd"
         id="path38" />
    </clipPath>
    <clipPath
       clipPathUnits="userSpaceOnUse"
       id="clipPath39">
      <path
         d="M 0,0 H 1208.3333 V 909.24084 H 0 Z"
         transform="matrix(0.33434149,0,0,0.33434149,-10.328125,-247)"
         clip-rule="evenodd"
         id="path39" />
    </clipPath>
    <clipPath
       clipPathUnits="userSpaceOnUse"
       id="clipPath41">
      <path
         d="M 0,0 H 1208.3333 V 909.24084 H 0 Z"
         transform="matrix(0.33434485,0,0,0.33434485,-0.49999999,-0.49999999)"
         clip-rule="evenodd"
         id="path41" />
    </clipPath>
    <clipPath
       clipPathUnits="userSpaceOnUse"
       id="clipPath42">
      <path
         d="M 0,0 H 1208.3333 V 909.24084 H 0 Z"
         transform="matrix(0.33434149,0,0,0.33434149,-27.390625,-278)"
         clip-rule="evenodd"
         id="path42" />
    </clipPath>
    <clipPath
       clipPathUnits="userSpaceOnUse"
       id="clipPath43">
      <path
         d="M 0,0 H 1208.3333 V 909.24084 H 0 Z"
         transform="matrix(0.33434149,0,0,0.33434149,-134.59375,-296)"
         clip-rule="evenodd"
         id="path43" />
    </clipPath>
    <clipPath
       clipPathUnits="userSpaceOnUse"
       id="clipPath45">
      <path
         d="M 0,0 H 1208.3333 V 909.24084 H 0 Z"
         transform="matrix(0.33434485,0,0,0.33434485,-0.49999999,-0.49999999)"
         clip-rule="evenodd"
         id="path45" />
    </clipPath>
    <clipPath
       clipPathUnits="userSpaceOnUse"
       id="clipPath46">
      <path
         d="M 0,0 H 1208.3333 V 909.24084 H 0 Z"
         transform="matrix(0.33434149,0,0,0.33434149,-10.328125,-286.99999)"
         clip-rule="evenodd"
         id="path46" />
    </clipPath>
  </defs>
  <sodipodi:namedview
     id="namedview1"
     pagecolor="#ffffff"
     bordercolor="#000000"
     borderopacity="0.25"
     inkscape:showpageshadow="2"
     inkscape:pageopacity="0.0"
     inkscape:pagecheckerboard="0"
     inkscape:deskcolor="#d1d1d1">
    <inkscape:page
       x="0"
       y="0"
       inkscape:label="1"
       id="page1"
       width="386.55997"
       height="291.84"
       margin="0"
       bleed="0" />
  </sodipodi:namedview>
  <g
     id="g1"
     inkscape:groupmode="layer"
     inkscape:label="1">
    <path
       id="path1"
       d="M 0,0 H 404 V 305 H 0 Z"
       style="fill:#ffffff;fill-opacity:1;fill-rule:nonzero;stroke:none"
       transform="scale(0.95709561)"
       clip-path="url(#clipPath2)" />
    <path
       id="path3"
       d="M 1,51 H 401 V 81 H 1 Z"
       style="fill:#ffe6cc;fill-opacity:1;fill-rule:nonzero;stroke:#d79b00;stroke-width:1;stroke-linecap:butt;stroke-linejoin:miter;stroke-miterlimit:10;stroke-dasharray:none;stroke-opacity:1"
       transform="matrix(0.95709561,0,0,0.95709561,0.4785478,0.4785478)"
       clip-path="url(#clipPath4)" />
    <text
       id="text4"
       xml:space="preserve"
       transform="matrix(0.95710521,0,0,0.95710521,131.19819,69.86868)"
       clip-path="url(#clipPath5)"><tspan
         style="font-variant:normal;font-weight:normal;font-size:20px;font-family:Helvetica;writing-mode:lr-tb;fill:#000000;fill-opacity:1;fill-rule:nonzero;stroke:none"
         x="0 13.339844 24.462891 38.90625 50.029297 56.689453 62.246094 78.90625 90.029297 101.15234 112.27539 116.71875"
         y="0"
         sodipodi:role="line"
         id="tspan4">Power Module</tspan></text>
    <path
       id="path6"
       d="m 1,81 h 400 v 70 H 1 Z"
       style="fill:#ffe6cc;fill-opacity:1;fill-rule:nonzero;stroke:#d79b00;stroke-width:1;stroke-linecap:butt;stroke-linejoin:miter;stroke-miterlimit:10;stroke-dasharray:none;stroke-opacity:1"
       transform="matrix(0.95709561,0,0,0.95709561,0.4785478,0.4785478)"
       clip-path="url(#clipPath7)" />
    <path
       id="path8"
       d="m 183.5,108.5 h 20 -5 13.63"
       style="fill:none;stroke:#000000;stroke-width:1;stroke-linecap:butt;stroke-linejoin:miter;stroke-miterlimit:10;stroke-dasharray:none;stroke-opacity:1"
       transform="matrix(0.95709561,0,0,0.95709561,0.4785478,0.4785478)"
       clip-path="url(#clipPath9)" />
    <path
       id="path10"
       d="m 217.38,108.5 -7,3.5 1.75,-3.5 -1.75,-3.5 z"
       style="fill:#000000;fill-opacity:1;fill-rule:nonzero;stroke:#000000;stroke-width:1;stroke-linecap:butt;stroke-linejoin:miter;stroke-miterlimit:10;stroke-dasharray:none;stroke-opacity:1"
       transform="matrix(0.95709561,0,0,0.95709561,0.4785478,0.4785478)"
       clip-path="url(#clipPath11)" />
    <path
       id="path12"
       d="m 23.5,93.5 h 160 v 30 h -160 z"
       style="fill:#f5f5f5;fill-opacity:1;fill-rule:nonzero;stroke:#666666;stroke-width:1;stroke-linecap:butt;stroke-linejoin:miter;stroke-miterlimit:10;stroke-dasharray:none;stroke-opacity:1"
       transform="matrix(0.95709561,0,0,0.95709561,0.4785478,0.4785478)"
       clip-path="url(#clipPath13)" />
    <text
       id="text13"
       xml:space="preserve"
       transform="matrix(0.95710521,0,0,0.95710521,50.17325,109.10999)"
       clip-path="url(#clipPath14)"><tspan
         style="font-variant:normal;font-weight:normal;font-size:16px;font-family:Helvetica;writing-mode:lr-tb;fill:#333333;fill-opacity:1;fill-rule:nonzero;stroke:none"
         x="0 10.671875 19.570312 31.125 40.023438 45.351562 49.796875 60.46875 69.367188 74.695312 82.695312 86.25 94.25"
         y="0"
         sodipodi:role="line"
         id="tspan13">Power Service</tspan></text>
    <path
       id="path15"
       d="m 23.5,123.5 h 160 v 15 h -160 z"
       style="fill:#f5f5f5;fill-opacity:1;fill-rule:nonzero;stroke:#666666;stroke-width:1;stroke-linecap:butt;stroke-linejoin:miter;stroke-miterlimit:10;stroke-dasharray:none;stroke-opacity:1"
       transform="matrix(0.95709561,0,0,0.95709561,0.4785478,0.4785478)"
       clip-path="url(#clipPath16)" />
    <text
       id="text16"
       xml:space="preserve"
       transform="matrix(0.95710521,0,0,0.95710521,65.890712,129.2092)"
       clip-path="url(#clipPath17)"><tspan
         style="font-variant:normal;font-weight:normal;font-size:11px;font-family:Helvetica;writing-mode:lr-tb;fill:#333333;fill-opacity:1;fill-rule:nonzero;stroke:none"
         x="0 5.5 11.617676 17.735352 23.853027 26.296875 31.796875 39.133789 45.251465 53.195312 59.312988 62.976074 66.63916"
         y="0"
         sodipodi:role="line"
         id="tspan16">supplyPower()</tspan></text>
    <path
       id="path18"
       d="m 218.5,93.5 h 160 v 30 h -160 z"
       style="fill:#f5f5f5;fill-opacity:1;fill-rule:nonzero;stroke:#666666;stroke-width:1;stroke-linecap:butt;stroke-linejoin:miter;stroke-miterlimit:10;stroke-dasharray:none;stroke-opacity:1"
       transform="matrix(0.95709561,0,0,0.95709561,0.4785478,0.4785478)"
       clip-path="url(#clipPath19)" />
    <text
       id="text19"
       xml:space="preserve"
       transform="matrix(0.95710521,0,0,0.95710521,225.30855,109.10999)"
       clip-path="url(#clipPath20)"><tspan
         style="font-variant:normal;font-weight:normal;font-size:16px;font-family:Helvetica;writing-mode:lr-tb;fill:#333333;fill-opacity:1;fill-rule:nonzero;stroke:none"
         x="0 11.554688 20.453125 29.351562 38.25 41.804688 50.703125 55.148438 64.046875 69.375 73.820312 84.492188 93.390625 98.71875 106.71875 110.27344 118.27344"
         y="0"
         sodipodi:role="line"
         id="tspan19">Regulator Service</tspan></text>
    <path
       id="path21"
       d="m 218.5,123.5 h 160 v 15 h -160 z"
       style="fill:#f5f5f5;fill-opacity:1;fill-rule:nonzero;stroke:#666666;stroke-width:1;stroke-linecap:butt;stroke-linejoin:miter;stroke-miterlimit:10;stroke-dasharray:none;stroke-opacity:1"
       transform="matrix(0.95709561,0,0,0.95709561,0.4785478,0.4785478)"
       clip-path="url(#clipPath22)" />
    <text
       id="text22"
       xml:space="preserve"
       transform="matrix(0.95710521,0,0,0.95710521,248.71277,129.2092)"
       clip-path="url(#clipPath23)"><tspan
         style="font-variant:normal;font-weight:normal;font-size:11px;font-family:Helvetica;writing-mode:lr-tb;fill:#333333;fill-opacity:1;fill-rule:nonzero;stroke:none"
         x="0 3.6630859 9.7807617 15.898438 22.016113 24.459961 30.577637 33.633789 39.751465 47.088379 53.206055 61.149902 67.267578 70.930664 74.59375"
         y="0"
         sodipodi:role="line"
         id="tspan22">regulatePower()</tspan></text>
    <path
       id="path24"
       d="M 61,1 H 341 V 41 H 61 Z"
       style="fill:#f8cecc;fill-opacity:1;fill-rule:nonzero;stroke:#b85450;stroke-width:1;stroke-linecap:butt;stroke-linejoin:miter;stroke-miterlimit:10;stroke-dasharray:none;stroke-opacity:1"
       transform="matrix(0.95709561,0,0,0.95709561,0.4785478,0.4785478)"
       clip-path="url(#clipPath25)" />
    <text
       id="text25"
       xml:space="preserve"
       transform="matrix(0.95710521,0,0,0.95710521,96.1143,26.798946)"
       clip-path="url(#clipPath26)"><tspan
         style="font-variant:normal;font-weight:700;font-size:20px;font-family:Helvetica;writing-mode:lr-tb;fill:#000000;fill-opacity:1;fill-rule:nonzero;stroke:none"
         x="0 14.443359 20 25.556641 31.113281 43.330078 54.453125 60.009766 72.226562 83.349609 88.90625 101.12305 107.7832 113.33984 124.46289 130.01953 147.80273 160.01953 172.23633 184.45312 190.00977"
         y="0"
         sodipodi:role="line"
         id="tspan25">DI inside of a module</tspan></text>
    <path
       id="path27"
       d="m 25.75,181 h 373.5 v 40 H 25.75 Z"
       style="fill:#f5f5f5;fill-opacity:1;fill-rule:nonzero;stroke:#666666;stroke-width:1;stroke-linecap:butt;stroke-linejoin:miter;stroke-miterlimit:10;stroke-dasharray:none;stroke-opacity:1"
       transform="matrix(0.95709561,0,0,0.95709561,0.4785478,0.4785478)"
       clip-path="url(#clipPath28)" />
    <text
       id="text28"
       xml:space="preserve"
       transform="matrix(0.95710521,0,0,0.95710521,44.520347,198.12078)"
       clip-path="url(#clipPath29)"><tspan
         style="font-variant:normal;font-weight:normal;font-size:15px;font-family:Helvetica;writing-mode:lr-tb;fill:#333333;fill-opacity:1;fill-rule:nonzero;stroke:none"
         x="0 10.004883 18.347168 26.689453 30.856934 35.024414 43.366699 51.708984 55.876465 58.740234 73.967285 78.134766 86.477051 89.80957 98.151855 105.65186 109.81934 118.16162 126.50391 129.83643 138.17871 143.17383 148.16895 151.03271 155.2002 163.54248 171.88477 179.38477 187.72705 192.72217 201.06445 205.23193 213.57422 218.56934 222.73682 226.9043 235.24658 239.41406 249.41895 257.76123 268.59375 276.93604 281.93115 291.93604 300.27832 305.27344 312.77344 316.10596 323.60596"
         y="0"
         sodipodi:role="line"
         id="tspan28">Add the '@Injectable()' decorator to PowerService</tspan></text>
    <path
       id="path30"
       d="m 2.75,181 h 23 v 40 h -23 z"
       style="fill:#dae8fc;fill-opacity:1;fill-rule:nonzero;stroke:#6c8ebf;stroke-width:1;stroke-linecap:butt;stroke-linejoin:miter;stroke-miterlimit:10;stroke-dasharray:none;stroke-opacity:1"
       transform="matrix(0.95709561,0,0,0.95709561,0.4785478,0.4785478)"
       clip-path="url(#clipPath31)" />
    <text
       id="text31"
       xml:space="preserve"
       transform="matrix(0.95710521,0,0,0.95710521,9.8851022,198.12078)"
       clip-path="url(#clipPath32)"><tspan
         style="font-variant:normal;font-weight:700;font-size:15px;font-family:Helvetica;writing-mode:lr-tb;fill:#000000;fill-opacity:1;fill-rule:nonzero;stroke:none"
         x="0"
         y="0"
         id="tspan31">1</tspan></text>
    <path
       id="path33"
       d="m 25.75,221 h 373.5 v 40 H 25.75 Z"
       style="fill:#f5f5f5;fill-opacity:1;fill-rule:nonzero;stroke:#666666;stroke-width:1;stroke-linecap:butt;stroke-linejoin:miter;stroke-miterlimit:10;stroke-dasharray:none;stroke-opacity:1"
       transform="matrix(0.95709561,0,0,0.95709561,0.4785478,0.4785478)"
       clip-path="url(#clipPath34)" />
    <text
       id="text34"
       xml:space="preserve"
       transform="matrix(0.95710521,0,0,0.95710521,42.815503,227.79104)"
       clip-path="url(#clipPath35)"><tspan
         style="font-variant:normal;font-weight:normal;font-size:15px;font-family:Helvetica;writing-mode:lr-tb;fill:#333333;fill-opacity:1;fill-rule:nonzero;stroke:none"
         x="0 10.004883 18.347168 26.689453 30.856934 35.024414 43.366699 51.708984 55.876465 65.881348 74.223633 85.056152 93.398438 98.393555 108.39844 116.74072 121.73584 129.23584 132.56836 140.06836 148.41064 152.57812 156.74561 165.08789 169.25537 173.42285 181.76514 190.10742 194.2749 204.27979 212.62207 223.45459 231.79688 236.79199 249.28711 257.62939 265.97168 274.31396 277.64648 285.98877 288.85254 296.35254 300.52002 303.85254 307.18506 314.68506 318.85254 323.02002 331.3623"
         y="0"
         sodipodi:role="line"
         id="tspan34">Add the PowerService to the PowerModule's list of</tspan></text>
    <text
       id="text35"
       xml:space="preserve"
       transform="matrix(0.95710521,0,0,0.95710521,173.84919,245.01893)"
       clip-path="url(#clipPath36)"><tspan
         style="font-variant:normal;font-weight:normal;font-size:15px;font-family:Helvetica;writing-mode:lr-tb;fill:#333333;fill-opacity:1;fill-rule:nonzero;stroke:none"
         x="0 8.3422852 13.337402 21.679688 29.179688 32.512207 40.854492 49.196777 54.191895"
         y="0"
         sodipodi:role="line"
         id="tspan35">providers</tspan></text>
    <path
       id="path37"
       d="m 2.75,221 h 23 v 40 h -23 z"
       style="fill:#dae8fc;fill-opacity:1;fill-rule:nonzero;stroke:#6c8ebf;stroke-width:1;stroke-linecap:butt;stroke-linejoin:miter;stroke-miterlimit:10;stroke-dasharray:none;stroke-opacity:1"
       transform="matrix(0.95709561,0,0,0.95709561,0.4785478,0.4785478)"
       clip-path="url(#clipPath38)" />
    <text
       id="text38"
       xml:space="preserve"
       transform="matrix(0.95710521,0,0,0.95710521,9.8851022,236.40499)"
       clip-path="url(#clipPath39)"><tspan
         style="font-variant:normal;font-weight:700;font-size:15px;font-family:Helvetica;writing-mode:lr-tb;fill:#000000;fill-opacity:1;fill-rule:nonzero;stroke:none"
         x="0"
         y="0"
         id="tspan38">2</tspan></text>
    <path
       id="path40"
       d="m 25.75,261 h 373.5 v 40 H 25.75 Z"
       style="fill:#f5f5f5;fill-opacity:1;fill-rule:nonzero;stroke:#666666;stroke-width:1;stroke-linecap:butt;stroke-linejoin:miter;stroke-miterlimit:10;stroke-dasharray:none;stroke-opacity:1"
       transform="matrix(0.95709561,0,0,0.95709561,0.4785478,0.4785478)"
       clip-path="url(#clipPath41)" />
    <g
       id="g41" />
    <text
       id="text41"
       xml:space="preserve"
       transform="matrix(0.95710521,0,0,0.95710521,26.21571,266.07525)"
       clip-path="url(#clipPath42)"><tspan
         style="font-variant:normal;font-weight:normal;font-size:15px;font-family:Helvetica;writing-mode:lr-tb;fill:#333333;fill-opacity:1;fill-rule:nonzero;stroke:none"
         x="0 10.83252 19.174805 26.674805 35.01709 43.359375 47.526855 51.694336 60.036621 68.378906 72.546387 80.046387 88.388672 96.730957 104.23096 108.39844 113.39355 121.73584 129.23584 133.40332 141.74561 146.74072 150.9082 163.40332 171.74561 175.91309 184.25537 192.59766 200.93994 205.10742 213.44971 221.79199 225.95947 236.79199 245.13428 253.47656 261.81885 265.15137 273.49365 277.66113 286.00342 290.99854 301.00342 309.3457 314.34082 321.84082 325.17334 332.67334 341.01562 345.18311 353.52539 361.86768"
         y="0"
         sodipodi:role="line"
         id="tspan41">Deﬁne the constructor method on RegulatorService and</tspan></text>
    <text
       id="text42"
       xml:space="preserve"
       transform="matrix(0.95710521,0,0,0.95710521,128.82038,283.30314)"
       clip-path="url(#clipPath43)"><tspan
         style="font-variant:normal;font-weight:normal;font-size:15px;font-family:Helvetica;writing-mode:lr-tb;fill:#333333;fill-opacity:1;fill-rule:nonzero;stroke:none"
         x="0 8.3422852 16.68457 25.026855 29.194336 32.058105 42.062988 50.405273 61.237793 69.580078 74.575195 84.580078 92.922363 97.91748 105.41748 108.75 116.25 124.59229 127.45605 131.62354 135.79102 144.1333 148.30078 151.6333"
         y="0"
         sodipodi:role="line"
         id="tspan42">add 'PowerService' to it</tspan></text>
    <path
       id="path44"
       d="m 2.75,261 h 23 v 40 h -23 z"
       style="fill:#dae8fc;fill-opacity:1;fill-rule:nonzero;stroke:#6c8ebf;stroke-width:1;stroke-linecap:butt;stroke-linejoin:miter;stroke-miterlimit:10;stroke-dasharray:none;stroke-opacity:1"
       transform="matrix(0.95709561,0,0,0.95709561,0.4785478,0.4785478)"
       clip-path="url(#clipPath45)" />
    <text
       id="text45"
       xml:space="preserve"
       transform="matrix(0.95710521,0,0,0.95710521,9.8851022,274.68919)"
       clip-path="url(#clipPath46)"><tspan
         style="font-variant:normal;font-weight:700;font-size:15px;font-family:Helvetica;writing-mode:lr-tb;fill:#000000;fill-opacity:1;fill-rule:nonzero;stroke:none"
         x="0"
         y="0"
         id="tspan45">3</tspan></text>
  </g>
</svg>
