<?xml version="1.0" encoding="UTF-8" standalone="no"?>
<!-- Created with Inkscape (http://www.inkscape.org/) -->

<svg
   version="1.1"
   id="svg1"
   width="318.72"
   height="216"
   viewBox="0 0 318.72 216"
   sodipodi:docname="nest-2.pdf"
   xmlns:inkscape="http://www.inkscape.org/namespaces/inkscape"
   xmlns:sodipodi="http://sodipodi.sourceforge.net/DTD/sodipodi-0.dtd"
   xmlns="http://www.w3.org/2000/svg"
   xmlns:svg="http://www.w3.org/2000/svg">
  <defs
     id="defs1">
    <clipPath
       clipPathUnits="userSpaceOnUse"
       id="clipPath2">
      <path
         d="M 0,0 H 995.83325 V 673.82727 H 0 Z"
         transform="scale(0.33539753)"
         clip-rule="evenodd"
         id="path2" />
    </clipPath>
    <clipPath
       clipPathUnits="userSpaceOnUse"
       id="clipPath4">
      <path
         d="M 0,0 H 995.83325 V 667.8642 H 0 Z"
         transform="matrix(0.33539753,0,0,0.33539753,-0.50000001,-0.50000001)"
         clip-rule="evenodd"
         id="path4" />
    </clipPath>
    <clipPath
       clipPathUnits="userSpaceOnUse"
       id="clipPath5">
      <path
         d="M 0,0 H 995.83325 V 667.8642 H 0 Z"
         transform="matrix(0.33539417,0,0,0.33539417,-118.76563,-28)"
         clip-rule="evenodd"
         id="path5" />
    </clipPath>
    <clipPath
       clipPathUnits="userSpaceOnUse"
       id="clipPath7">
      <path
         d="M 0,0 H 995.83325 V 667.8642 H 0 Z"
         transform="matrix(0.33539753,0,0,0.33539753,-0.50000001,-0.50000001)"
         clip-rule="evenodd"
         id="path7" />
    </clipPath>
    <clipPath
       clipPathUnits="userSpaceOnUse"
       id="clipPath9">
      <path
         d="M 0,0 H 995.83325 V 667.8642 H 0 Z"
         transform="matrix(0.33539753,0,0,0.33539753,-0.50000001,-0.50000001)"
         clip-rule="evenodd"
         id="path9" />
    </clipPath>
    <clipPath
       clipPathUnits="userSpaceOnUse"
       id="clipPath10">
      <path
         d="M 0,0 H 995.83325 V 667.8642 H 0 Z"
         transform="matrix(0.33539417,0,0,0.33539417,-54.875,-97.999999)"
         clip-rule="evenodd"
         id="path10" />
    </clipPath>
    <clipPath
       clipPathUnits="userSpaceOnUse"
       id="clipPath12">
      <path
         d="M 0,0 H 995.83325 V 667.8642 H 0 Z"
         transform="matrix(0.33539753,0,0,0.33539753,-0.50000001,-0.50000001)"
         clip-rule="evenodd"
         id="path12" />
    </clipPath>
    <clipPath
       clipPathUnits="userSpaceOnUse"
       id="clipPath13">
      <path
         d="M 0,0 H 995.83325 V 667.8642 H 0 Z"
         transform="matrix(0.33539417,0,0,0.33539417,-56.546875,-178)"
         clip-rule="evenodd"
         id="path13" />
    </clipPath>
    <clipPath
       clipPathUnits="userSpaceOnUse"
       id="clipPath15">
      <path
         d="M 0,0 H 995.83325 V 667.8642 H 0 Z"
         transform="matrix(0.33539753,0,0,0.33539753,-0.50000001,-0.50000001)"
         clip-rule="evenodd"
         id="path15" />
    </clipPath>
    <clipPath
       clipPathUnits="userSpaceOnUse"
       id="clipPath17">
      <path
         d="M 0,0 H 995.83325 V 667.8642 H 0 Z"
         transform="matrix(0.33539753,0,0,0.33539753,-0.50000001,-0.50000001)"
         clip-rule="evenodd"
         id="path17" />
    </clipPath>
    <clipPath
       clipPathUnits="userSpaceOnUse"
       id="clipPath19">
      <path
         d="M 0,0 H 995.83325 V 667.8642 H 0 Z"
         transform="matrix(0.33539753,0,0,0.33539753,-0.50000001,-0.50000001)"
         clip-rule="evenodd"
         id="path19" />
    </clipPath>
    <clipPath
       clipPathUnits="userSpaceOnUse"
       id="clipPath21">
      <path
         d="M 0,0 H 995.83325 V 667.8642 H 0 Z"
         transform="matrix(0.33539753,0,0,0.33539753,-0.50000001,-0.50000001)"
         clip-rule="evenodd"
         id="path21" />
    </clipPath>
    <clipPath
       clipPathUnits="userSpaceOnUse"
       id="clipPath23">
      <path
         d="M 0,0 H 995.83325 V 667.8642 H 0 Z"
         transform="matrix(0.33539753,0,0,0.33539753,-0.50000001,-0.50000001)"
         clip-rule="evenodd"
         id="path23" />
    </clipPath>
    <clipPath
       clipPathUnits="userSpaceOnUse"
       id="clipPath24">
      <path
         d="M 0,0 H 995.83325 V 667.8642 H 0 Z"
         transform="matrix(0.33539417,0,0,0.33539417,-227.64063,-126)"
         clip-rule="evenodd"
         id="path24" />
    </clipPath>
    <clipPath
       clipPathUnits="userSpaceOnUse"
       id="clipPath25">
      <path
         d="M 0,0 H 995.83325 V 667.8642 H 0 Z"
         transform="matrix(0.33539417,0,0,0.33539417,-225.42188,-150)"
         clip-rule="evenodd"
         id="path25" />
    </clipPath>
  </defs>
  <sodipodi:namedview
     id="namedview1"
     pagecolor="#ffffff"
     bordercolor="#000000"
     borderopacity="0.25"
     inkscape:showpageshadow="2"
     inkscape:pageopacity="0.0"
     inkscape:pagecheckerboard="0"
     inkscape:deskcolor="#d1d1d1">
    <inkscape:page
       x="0"
       y="0"
       inkscape:label="1"
       id="page1"
       width="318.72"
       height="216"
       margin="0"
       bleed="0" />
  </sodipodi:namedview>
  <g
     id="g1"
     inkscape:groupmode="layer"
     inkscape:label="1">
    <path
       id="path1"
       d="M 0,0 H 334 V 226 H 0 Z"
       style="fill:#ffffff;fill-opacity:1;fill-rule:nonzero;stroke:none"
       transform="scale(0.95409167)"
       clip-path="url(#clipPath2)" />
    <path
       id="path3"
       d="M 1,1 H 331 V 41 H 1 Z"
       style="fill:#dae8fc;fill-opacity:1;fill-rule:nonzero;stroke:#6c8ebf;stroke-width:1;stroke-linecap:butt;stroke-linejoin:miter;stroke-miterlimit:10;stroke-dasharray:none;stroke-opacity:1"
       transform="matrix(0.95409167,0,0,0.95409167,0.47704584,0.47704584)"
       clip-path="url(#clipPath4)" />
    <text
       id="text4"
       xml:space="preserve"
       transform="matrix(0.95410121,0,0,0.95410121,113.31443,26.714834)"
       clip-path="url(#clipPath5)"><tspan
         style="font-variant:normal;font-weight:700;font-size:20px;font-family:Helvetica;writing-mode:lr-tb;fill:#000000;fill-opacity:1;fill-rule:nonzero;stroke:none"
         x="0 14.443359 26.660156 44.443359 56.660156 68.876953 75.537109 86.660156"
         y="0"
         sodipodi:role="line"
         id="tspan4">Computer</tspan></text>
    <path
       id="path6"
       d="M 1,41 H 331 V 221 H 1 Z"
       style="fill:#dae8fc;fill-opacity:1;fill-rule:nonzero;stroke:#6c8ebf;stroke-width:1;stroke-linecap:butt;stroke-linejoin:miter;stroke-miterlimit:10;stroke-dasharray:none;stroke-opacity:1"
       transform="matrix(0.95409167,0,0,0.95409167,0.47704584,0.47704584)"
       clip-path="url(#clipPath7)" />
    <path
       id="path8"
       d="m 16,61 h 120 v 60 H 16 Z"
       style="fill:#f5f5f5;fill-opacity:1;fill-rule:nonzero;stroke:#666666;stroke-width:1;stroke-linecap:butt;stroke-linejoin:miter;stroke-miterlimit:10;stroke-dasharray:none;stroke-opacity:1"
       transform="matrix(0.95409167,0,0,0.95409167,0.47704584,0.47704584)"
       clip-path="url(#clipPath9)" />
    <text
       id="text9"
       xml:space="preserve"
       transform="matrix(0.95410121,0,0,0.95410121,52.356304,93.501918)"
       clip-path="url(#clipPath10)"><tspan
         style="font-variant:normal;font-weight:normal;font-size:20px;font-family:Helvetica;writing-mode:lr-tb;fill:#333333;fill-opacity:1;fill-rule:nonzero;stroke:none"
         x="0 14.443359 27.783203"
         y="0"
         sodipodi:role="line"
         id="tspan9">CPU</tspan></text>
    <path
       id="path11"
       d="m 16,141 h 120 v 60 H 16 Z"
       style="fill:#f5f5f5;fill-opacity:1;fill-rule:nonzero;stroke:#666666;stroke-width:1;stroke-linecap:butt;stroke-linejoin:miter;stroke-miterlimit:10;stroke-dasharray:none;stroke-opacity:1"
       transform="matrix(0.95409167,0,0,0.95409167,0.47704584,0.47704584)"
       clip-path="url(#clipPath12)" />
    <text
       id="text12"
       xml:space="preserve"
       transform="matrix(0.95410121,0,0,0.95410121,53.951442,169.83002)"
       clip-path="url(#clipPath13)"><tspan
         style="font-variant:normal;font-weight:normal;font-size:20px;font-family:Helvetica;writing-mode:lr-tb;fill:#333333;fill-opacity:1;fill-rule:nonzero;stroke:none"
         x="0 14.443359 18.886719 28.886719"
         y="0"
         sodipodi:role="line"
         id="tspan12">Disk</tspan></text>
    <path
       id="path14"
       d="M 196,131 H 166 V 91 h -23.63001"
       style="fill:none;stroke:#000000;stroke-width:1;stroke-linecap:butt;stroke-linejoin:miter;stroke-miterlimit:10;stroke-dasharray:none;stroke-opacity:1"
       transform="matrix(0.95409167,0,0,0.95409167,0.47704584,0.47704584)"
       clip-path="url(#clipPath15)" />
    <path
       id="path16"
       d="m 137.11999,91 7,-3.5 -1.75,3.5 1.75,3.5 z"
       style="fill:#000000;fill-opacity:1;fill-rule:nonzero;stroke:#000000;stroke-width:1;stroke-linecap:butt;stroke-linejoin:miter;stroke-miterlimit:10;stroke-dasharray:none;stroke-opacity:1"
       transform="matrix(0.95409167,0,0,0.95409167,0.47704584,0.47704584)"
       clip-path="url(#clipPath17)" />
    <path
       id="path18"
       d="m 196,131 h -30 v 40 h -23.63001"
       style="fill:none;stroke:#000000;stroke-width:1;stroke-linecap:butt;stroke-linejoin:miter;stroke-miterlimit:10;stroke-dasharray:none;stroke-opacity:1"
       transform="matrix(0.95409167,0,0,0.95409167,0.47704584,0.47704584)"
       clip-path="url(#clipPath19)" />
    <path
       id="path20"
       d="m 137.11999,171 7,-3.5 -1.75,3.5 1.75,3.5 z"
       style="fill:#000000;fill-opacity:1;fill-rule:nonzero;stroke:#000000;stroke-width:1;stroke-linecap:butt;stroke-linejoin:miter;stroke-miterlimit:10;stroke-dasharray:none;stroke-opacity:1"
       transform="matrix(0.95409167,0,0,0.95409167,0.47704584,0.47704584)"
       clip-path="url(#clipPath21)" />
    <path
       id="path22"
       d="m 196,101 h 120 v 60 H 196 Z"
       style="fill:#f5f5f5;fill-opacity:1;fill-rule:nonzero;stroke:#666666;stroke-width:1;stroke-linecap:butt;stroke-linejoin:miter;stroke-miterlimit:10;stroke-dasharray:none;stroke-opacity:1"
       transform="matrix(0.95409167,0,0,0.95409167,0.47704584,0.47704584)"
       clip-path="url(#clipPath23)" />
    <text
       id="text23"
       xml:space="preserve"
       transform="matrix(0.95410121,0,0,0.95410121,217.1922,120.21675)"
       clip-path="url(#clipPath24)"><tspan
         style="font-variant:normal;font-weight:normal;font-size:20px;font-family:Helvetica;writing-mode:lr-tb;fill:#333333;fill-opacity:1;fill-rule:nonzero;stroke:none"
         x="0 13.339844 24.462891 38.90625 50.029297"
         y="0"
         sodipodi:role="line"
         id="tspan23">Power</tspan></text>
    <text
       id="text24"
       xml:space="preserve"
       transform="matrix(0.95410121,0,0,0.95410121,215.07529,143.11518)"
       clip-path="url(#clipPath25)"><tspan
         style="font-variant:normal;font-weight:normal;font-size:20px;font-family:Helvetica;writing-mode:lr-tb;fill:#333333;fill-opacity:1;fill-rule:nonzero;stroke:none"
         x="0 13.339844 24.462891 35.585938 46.708984 51.152344"
         y="0"
         sodipodi:role="line"
         id="tspan24">Supply</tspan></text>
  </g>
</svg>
