<?xml version="1.0" encoding="UTF-8" standalone="no"?>
<!-- Created with Inkscape (http://www.inkscape.org/) -->

<svg
   version="1.1"
   id="svg1"
   width="309.44"
   height="244.16"
   viewBox="0 0 309.44 244.16"
   sodipodi:docname="nest-15.pdf"
   xmlns:inkscape="http://www.inkscape.org/namespaces/inkscape"
   xmlns:sodipodi="http://sodipodi.sourceforge.net/DTD/sodipodi-0.dtd"
   xmlns="http://www.w3.org/2000/svg"
   xmlns:svg="http://www.w3.org/2000/svg">
  <defs
     id="defs1">
    <clipPath
       clipPathUnits="userSpaceOnUse"
       id="clipPath2">
      <path
         d="M 0,0 H 966.66656 V 760.80243 H 0 Z"
         transform="scale(0.33517244)"
         clip-rule="evenodd"
         id="path2" />
    </clipPath>
    <clipPath
       clipPathUnits="userSpaceOnUse"
       id="clipPath4">
      <path
         d="M 0,0 H 966.66656 V 757.81885 H 0 Z"
         transform="matrix(0.33517244,0,0,0.33517244,-0.49999999,-0.49999999)"
         clip-rule="evenodd"
         id="path4" />
    </clipPath>
    <clipPath
       clipPathUnits="userSpaceOnUse"
       id="clipPath6">
      <path
         d="M 0,0 H 966.66656 V 757.81885 H 0 Z"
         transform="matrix(0.33517244,0,0,0.33517244,-0.49999999,-0.49999999)"
         clip-rule="evenodd"
         id="path6" />
    </clipPath>
    <clipPath
       clipPathUnits="userSpaceOnUse"
       id="clipPath8">
      <path
         d="M 0,0 H 966.66656 V 757.81885 H 0 Z"
         transform="matrix(0.33517244,0,0,0.33517244,-0.49999999,-0.49999999)"
         clip-rule="evenodd"
         id="path8" />
    </clipPath>
    <clipPath
       clipPathUnits="userSpaceOnUse"
       id="clipPath9">
      <path
         d="M 0,0 H 966.66656 V 757.81885 H 0 Z"
         transform="matrix(0.33516909,0,0,0.33516909,-112.35938,-157.00001)"
         clip-rule="evenodd"
         id="path9" />
    </clipPath>
    <clipPath
       clipPathUnits="userSpaceOnUse"
       id="clipPath11">
      <path
         d="M 0,0 H 966.66656 V 757.81885 H 0 Z"
         transform="matrix(0.33517244,0,0,0.33517244,-0.49999999,-0.49999999)"
         clip-rule="evenodd"
         id="path11" />
    </clipPath>
    <clipPath
       clipPathUnits="userSpaceOnUse"
       id="clipPath13">
      <path
         d="M 0,0 H 966.66656 V 757.81885 H 0 Z"
         transform="matrix(0.33517244,0,0,0.33517244,-0.49999999,-0.49999999)"
         clip-rule="evenodd"
         id="path13" />
    </clipPath>
    <clipPath
       clipPathUnits="userSpaceOnUse"
       id="clipPath15">
      <path
         d="M 0,0 H 966.66656 V 757.81885 H 0 Z"
         transform="matrix(0.33517244,0,0,0.33517244,-0.49999999,-0.49999999)"
         clip-rule="evenodd"
         id="path15" />
    </clipPath>
    <clipPath
       clipPathUnits="userSpaceOnUse"
       id="clipPath16">
      <path
         d="M 0,0 H 966.66656 V 757.81885 H 0 Z"
         transform="matrix(0.33516909,0,0,0.33516909,-20.25,-237)"
         clip-rule="evenodd"
         id="path16" />
    </clipPath>
    <clipPath
       clipPathUnits="userSpaceOnUse"
       id="clipPath18">
      <path
         d="M 0,0 H 966.66656 V 757.81885 H 0 Z"
         transform="matrix(0.33517244,0,0,0.33517244,-0.49999999,-0.49999999)"
         clip-rule="evenodd"
         id="path18" />
    </clipPath>
    <clipPath
       clipPathUnits="userSpaceOnUse"
       id="clipPath20">
      <path
         d="M 0,0 H 966.66656 V 757.81885 H 0 Z"
         transform="matrix(0.33517244,0,0,0.33517244,-0.49999999,-0.49999999)"
         clip-rule="evenodd"
         id="path20" />
    </clipPath>
    <clipPath
       clipPathUnits="userSpaceOnUse"
       id="clipPath22">
      <path
         d="M 0,0 H 966.66656 V 757.81885 H 0 Z"
         transform="matrix(0.33517244,0,0,0.33517244,-0.49999999,-0.49999999)"
         clip-rule="evenodd"
         id="path22" />
    </clipPath>
    <clipPath
       clipPathUnits="userSpaceOnUse"
       id="clipPath23">
      <path
         d="M 0,0 H 966.66656 V 757.81885 H 0 Z"
         transform="matrix(0.33516909,0,0,0.33516909,-181.76563,-237)"
         clip-rule="evenodd"
         id="path23" />
    </clipPath>
    <clipPath
       clipPathUnits="userSpaceOnUse"
       id="clipPath25">
      <path
         d="M 0,0 H 966.66656 V 757.81885 H 0 Z"
         transform="matrix(0.33517244,0,0,0.33517244,-0.49999999,-0.49999999)"
         clip-rule="evenodd"
         id="path25" />
    </clipPath>
    <clipPath
       clipPathUnits="userSpaceOnUse"
       id="clipPath26">
      <path
         d="M 0,0 H 966.66656 V 757.81885 H 0 Z"
         transform="matrix(0.33516909,0,0,0.33516909,-133.59375,-22)"
         clip-rule="evenodd"
         id="path26" />
    </clipPath>
    <clipPath
       clipPathUnits="userSpaceOnUse"
       id="clipPath28">
      <path
         d="M 0,0 H 966.66656 V 757.81885 H 0 Z"
         transform="matrix(0.33517244,0,0,0.33517244,-0.49999999,-0.49999999)"
         clip-rule="evenodd"
         id="path28" />
    </clipPath>
    <clipPath
       clipPathUnits="userSpaceOnUse"
       id="clipPath30">
      <path
         d="M 0,0 H 966.66656 V 757.81885 H 0 Z"
         transform="matrix(0.33517244,0,0,0.33517244,-0.49999999,-0.49999999)"
         clip-rule="evenodd"
         id="path30" />
    </clipPath>
    <clipPath
       clipPathUnits="userSpaceOnUse"
       id="clipPath31">
      <path
         d="M 0,0 H 966.66656 V 757.81885 H 0 Z"
         transform="matrix(0.33516909,0,0,0.33516909,-90.031251,-58.000001)"
         clip-rule="evenodd"
         id="path31" />
    </clipPath>
    <clipPath
       clipPathUnits="userSpaceOnUse"
       id="clipPath32">
      <path
         d="M 0,0 H 966.66656 V 757.81885 H 0 Z"
         transform="matrix(0.33516909,0,0,0.33516909,-88.953126,-74)"
         clip-rule="evenodd"
         id="path32" />
    </clipPath>
    <clipPath
       clipPathUnits="userSpaceOnUse"
       id="clipPath34">
      <path
         d="M 0,0 H 966.66656 V 757.81885 H 0 Z"
         transform="matrix(0.33517244,0,0,0.33517244,-0.49999999,-0.49999999)"
         clip-rule="evenodd"
         id="path34" />
    </clipPath>
    <clipPath
       clipPathUnits="userSpaceOnUse"
       id="clipPath35">
      <path
         d="M 0,0 H 966.66656 V 757.81885 H 0 Z"
         transform="matrix(0.33516909,0,0,0.33516909,-182.92188,-58.000001)"
         clip-rule="evenodd"
         id="path35" />
    </clipPath>
    <clipPath
       clipPathUnits="userSpaceOnUse"
       id="clipPath36">
      <path
         d="M 0,0 H 966.66656 V 757.81885 H 0 Z"
         transform="matrix(0.33516909,0,0,0.33516909,-197.98438,-74)"
         clip-rule="evenodd"
         id="path36" />
    </clipPath>
  </defs>
  <sodipodi:namedview
     id="namedview1"
     pagecolor="#ffffff"
     bordercolor="#000000"
     borderopacity="0.25"
     inkscape:showpageshadow="2"
     inkscape:pageopacity="0.0"
     inkscape:pagecheckerboard="0"
     inkscape:deskcolor="#d1d1d1">
    <inkscape:page
       x="0"
       y="0"
       inkscape:label="1"
       id="page1"
       width="309.44"
       height="244.16"
       margin="0"
       bleed="0" />
  </sodipodi:namedview>
  <g
     id="g1"
     inkscape:groupmode="layer"
     inkscape:label="1">
    <path
       id="path1"
       d="M 0,0 H 324 V 255 H 0 Z"
       style="fill:#ffffff;fill-opacity:1;fill-rule:nonzero;stroke:none"
       transform="scale(0.95473241)"
       clip-path="url(#clipPath2)" />
    <path
       id="path3"
       d="M 161,131 V 97.370003"
       style="fill:none;stroke:#000000;stroke-width:1;stroke-linecap:butt;stroke-linejoin:miter;stroke-miterlimit:10;stroke-dasharray:none;stroke-opacity:1"
       transform="matrix(0.95473241,0,0,0.95473241,0.4773662,0.4773662)"
       clip-path="url(#clipPath4)" />
    <path
       id="path5"
       d="m 161,92.120003 3.5,7 -3.5,-1.75 -3.5,1.75 z"
       style="fill:#000000;fill-opacity:1;fill-rule:nonzero;stroke:#000000;stroke-width:1;stroke-linecap:butt;stroke-linejoin:miter;stroke-miterlimit:10;stroke-dasharray:none;stroke-opacity:1"
       transform="matrix(0.95473241,0,0,0.95473241,0.4773662,0.4773662)"
       clip-path="url(#clipPath6)" />
    <path
       id="path7"
       d="m 71,131 h 180 v 40 H 71 Z"
       style="fill:#dae8fc;fill-opacity:1;fill-rule:nonzero;stroke:#6c8ebf;stroke-width:1;stroke-linecap:butt;stroke-linejoin:miter;stroke-miterlimit:10;stroke-dasharray:none;stroke-opacity:1"
       transform="matrix(0.95473241,0,0,0.95473241,0.4773662,0.4773662)"
       clip-path="url(#clipPath8)" />
    <text
       id="text8"
       xml:space="preserve"
       transform="matrix(0.95474194,0,0,0.95474194,107.27421,149.89449)"
       clip-path="url(#clipPath9)"><tspan
         style="font-variant:normal;font-weight:700;font-size:17px;font-family:Helvetica;writing-mode:lr-tb;fill:#000000;fill-opacity:1;fill-rule:nonzero;stroke:none"
         x="0 12.276855 22.661133 33.04541 37.768555 51.929688 62.313965 72.698242 83.08252 87.805664"
         y="0"
         sodipodi:role="line"
         id="tspan8">App Module</tspan></text>
    <path
       id="path10"
       d="m 76,211 v -20 h 85 v -13.63"
       style="fill:none;stroke:#000000;stroke-width:1;stroke-linecap:butt;stroke-linejoin:miter;stroke-miterlimit:10;stroke-dasharray:none;stroke-opacity:1"
       transform="matrix(0.95473241,0,0,0.95473241,0.4773662,0.4773662)"
       clip-path="url(#clipPath11)" />
    <path
       id="path12"
       d="m 161,172.12 3.5,7 -3.5,-1.75 -3.5,1.75 z"
       style="fill:#000000;fill-opacity:1;fill-rule:nonzero;stroke:#000000;stroke-width:1;stroke-linecap:butt;stroke-linejoin:miter;stroke-miterlimit:10;stroke-dasharray:none;stroke-opacity:1"
       transform="matrix(0.95473241,0,0,0.95473241,0.4773662,0.4773662)"
       clip-path="url(#clipPath13)" />
    <path
       id="path14"
       d="m 1,211 h 150 v 40 H 1 Z"
       style="fill:#dae8fc;fill-opacity:1;fill-rule:nonzero;stroke:#6c8ebf;stroke-width:1;stroke-linecap:butt;stroke-linejoin:miter;stroke-miterlimit:10;stroke-dasharray:none;stroke-opacity:1"
       transform="matrix(0.95473241,0,0,0.95473241,0.4773662,0.4773662)"
       clip-path="url(#clipPath15)" />
    <text
       id="text15"
       xml:space="preserve"
       transform="matrix(0.95474194,0,0,0.95474194,19.333524,226.27384)"
       clip-path="url(#clipPath16)"><tspan
         style="font-variant:normal;font-weight:700;font-size:17px;font-family:Helvetica;writing-mode:lr-tb;fill:#000000;fill-opacity:1;fill-rule:nonzero;stroke:none"
         x="0 12.276855 21.731445 31.186035 37.801758 47.256348 51.979492 66.140625 76.524902 86.90918 97.293457 102.0166"
         y="0"
         sodipodi:role="line"
         id="tspan15">Users Module</tspan></text>
    <path
       id="path17"
       d="M 246,211 V 191 H 161 V 177.37"
       style="fill:none;stroke:#000000;stroke-width:1;stroke-linecap:butt;stroke-linejoin:miter;stroke-miterlimit:10;stroke-dasharray:none;stroke-opacity:1"
       transform="matrix(0.95473241,0,0,0.95473241,0.4773662,0.4773662)"
       clip-path="url(#clipPath18)" />
    <path
       id="path19"
       d="m 161,172.12 3.5,7 -3.5,-1.75 -3.5,1.75 z"
       style="fill:#000000;fill-opacity:1;fill-rule:nonzero;stroke:#000000;stroke-width:1;stroke-linecap:butt;stroke-linejoin:miter;stroke-miterlimit:10;stroke-dasharray:none;stroke-opacity:1"
       transform="matrix(0.95473241,0,0,0.95473241,0.4773662,0.4773662)"
       clip-path="url(#clipPath20)" />
    <path
       id="path21"
       d="m 171,211 h 150 v 40 H 171 Z"
       style="fill:#dae8fc;fill-opacity:1;fill-rule:nonzero;stroke:#6c8ebf;stroke-width:1;stroke-linecap:butt;stroke-linejoin:miter;stroke-miterlimit:10;stroke-dasharray:none;stroke-opacity:1"
       transform="matrix(0.95473241,0,0,0.95473241,0.4773662,0.4773662)"
       clip-path="url(#clipPath22)" />
    <text
       id="text22"
       xml:space="preserve"
       transform="matrix(0.95474194,0,0,0.95474194,173.53927,226.27384)"
       clip-path="url(#clipPath23)"><tspan
         style="font-variant:normal;font-weight:700;font-size:17px;font-family:Helvetica;writing-mode:lr-tb;fill:#000000;fill-opacity:1;fill-rule:nonzero;stroke:none"
         x="0 12.276855 21.731445 32.115723 42.5 49.115723 54.776855 64.231445 68.95459 83.115723 93.5 103.88428 114.26855 118.9917"
         y="0"
         sodipodi:role="line"
         id="tspan22">Reports Module</tspan></text>
    <path
       id="path24"
       d="M 66,1 H 256 V 31 H 66 Z"
       style="fill:#f5f5f5;fill-opacity:1;fill-rule:nonzero;stroke:#666666;stroke-width:1;stroke-linecap:butt;stroke-linejoin:miter;stroke-miterlimit:10;stroke-dasharray:none;stroke-opacity:1"
       transform="matrix(0.95473241,0,0,0.95473241,0.4773662,0.4773662)"
       clip-path="url(#clipPath25)" />
    <text
       id="text25"
       xml:space="preserve"
       transform="matrix(0.95474194,0,0,0.95474194,127.54756,21.004323)"
       clip-path="url(#clipPath26)"><tspan
         style="font-variant:normal;font-weight:normal;font-size:17px;font-family:Helvetica;writing-mode:lr-tb;fill:#333333;fill-opacity:1;fill-rule:nonzero;stroke:none"
         x="0 14.161133 23.615723 27.392578 36.847168 41.570312 46.293457"
         y="0"
         sodipodi:role="line"
         id="tspan25">main.ts</tspan></text>
    <path
       id="path27"
       d="M 66,31 H 256 V 91 H 66 Z"
       style="fill:#f5f5f5;fill-opacity:1;fill-rule:nonzero;stroke:#666666;stroke-width:1;stroke-linecap:butt;stroke-linejoin:miter;stroke-miterlimit:10;stroke-dasharray:none;stroke-opacity:1"
       transform="matrix(0.95473241,0,0,0.95473241,0.4773662,0.4773662)"
       clip-path="url(#clipPath28)" />
    <path
       id="path29"
       d="m 76,41 h 70 V 81 H 76 Z"
       style="fill:#ffffff;fill-opacity:1;fill-rule:nonzero;stroke:#000000;stroke-width:1;stroke-linecap:butt;stroke-linejoin:miter;stroke-miterlimit:10;stroke-dasharray:none;stroke-opacity:1"
       transform="matrix(0.95473241,0,0,0.95473241,0.4773662,0.4773662)"
       clip-path="url(#clipPath30)" />
    <text
       id="text30"
       xml:space="preserve"
       transform="matrix(0.95474194,0,0,0.95474194,85.956611,55.375033)"
       clip-path="url(#clipPath31)"><tspan
         style="font-variant:normal;font-weight:normal;font-size:13px;font-family:Helvetica;writing-mode:lr-tb;fill:#000000;fill-opacity:1;fill-rule:nonzero;stroke:none"
         x="0 6.5 13.72998 20.959961 27.459961 30.348145 37.578125"
         y="0"
         sodipodi:role="line"
         id="tspan30">cookie-</tspan></text>
    <text
       id="text31"
       xml:space="preserve"
       transform="matrix(0.95474194,0,0,0.95474194,84.92728,70.650904)"
       clip-path="url(#clipPath32)"><tspan
         style="font-variant:normal;font-weight:normal;font-size:13px;font-family:Helvetica;writing-mode:lr-tb;fill:#000000;fill-opacity:1;fill-rule:nonzero;stroke:none"
         x="0 6.5 13.72998 20.22998 26.72998 29.618164 36.848145"
         y="0"
         sodipodi:role="line"
         id="tspan31">session</tspan></text>
    <path
       id="path33"
       d="m 176,41 h 70 v 40 h -70 z"
       style="fill:#ffffff;fill-opacity:1;fill-rule:nonzero;stroke:#000000;stroke-width:1;stroke-linecap:butt;stroke-linejoin:miter;stroke-miterlimit:10;stroke-dasharray:none;stroke-opacity:1"
       transform="matrix(0.95473241,0,0,0.95473241,0.4773662,0.4773662)"
       clip-path="url(#clipPath34)" />
    <text
       id="text34"
       xml:space="preserve"
       transform="matrix(0.95474194,0,0,0.95474194,174.64319,55.375033)"
       clip-path="url(#clipPath35)"><tspan
         style="font-variant:normal;font-weight:normal;font-size:13px;font-family:Helvetica;writing-mode:lr-tb;fill:#000000;fill-opacity:1;fill-rule:nonzero;stroke:none"
         x="0 7.7124023 14.942383 17.830566 20.71875 27.94873 35.178711 38.790527 41.678711 48.908691"
         y="0"
         sodipodi:role="line"
         id="tspan34">Validation</tspan></text>
    <text
       id="text35"
       xml:space="preserve"
       transform="matrix(0.95474194,0,0,0.95474194,189.02399,70.650904)"
       clip-path="url(#clipPath36)"><tspan
         style="font-variant:normal;font-weight:normal;font-size:13px;font-family:Helvetica;writing-mode:lr-tb;fill:#000000;fill-opacity:1;fill-rule:nonzero;stroke:none"
         x="0 8.6708984 11.559082 18.789062"
         y="0"
         sodipodi:role="line"
         id="tspan35">Pipe</tspan></text>
  </g>
</svg>
