<?xml version="1.0" encoding="UTF-8" standalone="no"?>
<!-- Created with Inkscape (http://www.inkscape.org/) -->

<svg
   version="1.1"
   id="svg1"
   width="357.44"
   height="147.84"
   viewBox="0 0 357.44 147.84"
   sodipodi:docname="nest-10.pdf"
   xmlns:inkscape="http://www.inkscape.org/namespaces/inkscape"
   xmlns:sodipodi="http://sodipodi.sourceforge.net/DTD/sodipodi-0.dtd"
   xmlns="http://www.w3.org/2000/svg"
   xmlns:svg="http://www.w3.org/2000/svg">
  <defs
     id="defs1">
    <clipPath
       clipPathUnits="userSpaceOnUse"
       id="clipPath2">
      <path
         d="M 0,0 H 1116.6666 V 459.80392 H 0 Z"
         transform="scale(0.33492538)"
         clip-rule="evenodd"
         id="path2" />
    </clipPath>
    <clipPath
       clipPathUnits="userSpaceOnUse"
       id="clipPath4">
      <path
         d="M 0,0 H 1116.6666 V 459.80392 H 0 Z"
         transform="matrix(0.33492538,0,0,0.33492538,-0.5,-0.5)"
         clip-rule="evenodd"
         id="path4" />
    </clipPath>
    <clipPath
       clipPathUnits="userSpaceOnUse"
       id="clipPath5">
      <path
         d="M 0,0 H 1116.6666 V 459.80392 H 0 Z"
         transform="matrix(0.33492204,0,0,0.33492204,-106.65625,-22)"
         clip-rule="evenodd"
         id="path5" />
    </clipPath>
    <clipPath
       clipPathUnits="userSpaceOnUse"
       id="clipPath7">
      <path
         d="M 0,0 H 1116.6666 V 459.80392 H 0 Z"
         transform="matrix(0.33492538,0,0,0.33492538,-0.5,-0.5)"
         clip-rule="evenodd"
         id="path7" />
    </clipPath>
    <clipPath
       clipPathUnits="userSpaceOnUse"
       id="clipPath8">
      <path
         d="M 0,0 H 1116.6666 V 459.80392 H 0 Z"
         transform="matrix(0.33492204,0,0,0.33492204,-115.17187,-61)"
         clip-rule="evenodd"
         id="path8" />
    </clipPath>
    <clipPath
       clipPathUnits="userSpaceOnUse"
       id="clipPath10">
      <path
         d="M 0,0 H 1116.6666 V 459.80392 H 0 Z"
         transform="matrix(0.33492538,0,0,0.33492538,-0.5,-0.5)"
         clip-rule="evenodd"
         id="path10" />
    </clipPath>
    <clipPath
       clipPathUnits="userSpaceOnUse"
       id="clipPath11">
      <path
         d="M 0,0 H 1116.6666 V 459.80392 H 0 Z"
         transform="matrix(0.33492204,0,0,0.33492204,-14.375,-101)"
         clip-rule="evenodd"
         id="path11" />
    </clipPath>
    <clipPath
       clipPathUnits="userSpaceOnUse"
       id="clipPath13">
      <path
         d="M 0,0 H 1116.6666 V 459.80392 H 0 Z"
         transform="matrix(0.33492538,0,0,0.33492538,-0.5,-0.5)"
         clip-rule="evenodd"
         id="path13" />
    </clipPath>
    <clipPath
       clipPathUnits="userSpaceOnUse"
       id="clipPath14">
      <path
         d="M 0,0 H 1116.6666 V 459.80392 H 0 Z"
         transform="matrix(0.33492204,0,0,0.33492204,-19.796875,-133)"
         clip-rule="evenodd"
         id="path14" />
    </clipPath>
    <clipPath
       clipPathUnits="userSpaceOnUse"
       id="clipPath15">
      <path
         d="M 0,0 H 1116.6666 V 459.80392 H 0 Z"
         transform="matrix(0.33492204,0,0,0.33492204,-164.3125,-149)"
         clip-rule="evenodd"
         id="path15" />
    </clipPath>
  </defs>
  <sodipodi:namedview
     id="namedview1"
     pagecolor="#ffffff"
     bordercolor="#000000"
     borderopacity="0.25"
     inkscape:showpageshadow="2"
     inkscape:pageopacity="0.0"
     inkscape:pagecheckerboard="0"
     inkscape:deskcolor="#d1d1d1">
    <inkscape:page
       x="0"
       y="0"
       inkscape:label="1"
       id="page1"
       width="357.44"
       height="147.84"
       margin="0"
       bleed="0" />
  </sodipodi:namedview>
  <g
     id="g1"
     inkscape:groupmode="layer"
     inkscape:label="1">
    <path
       id="path1"
       d="M 0,0 H 374 V 154 H 0 Z"
       style="fill:#ffffff;fill-opacity:1;fill-rule:nonzero;stroke:none"
       transform="scale(0.95543666)"
       clip-path="url(#clipPath2)" />
    <path
       id="path3"
       d="M 1,1 H 371 V 31 H 1 Z"
       style="fill:#dae8fc;fill-opacity:1;fill-rule:nonzero;stroke:#6c8ebf;stroke-width:1;stroke-linecap:butt;stroke-linejoin:miter;stroke-miterlimit:10;stroke-dasharray:none;stroke-opacity:1"
       transform="matrix(0.95543666,0,0,0.95543666,0.47771833,0.47771833)"
       clip-path="url(#clipPath4)" />
    <text
       id="text4"
       xml:space="preserve"
       transform="matrix(0.9554462,0,0,0.9554462,101.90431,21.019816)"
       clip-path="url(#clipPath5)"><tspan
         style="font-variant:normal;font-weight:700;font-size:17px;font-family:Helvetica;writing-mode:lr-tb;fill:#000000;fill-opacity:1;fill-rule:nonzero;stroke:none"
         x="0 9.4545898 18.90918 28.36377 34.024902 38.748047 52.90918 63.293457 72.748047 82.202637 86.925781 97.310059 107.69434 118.07861 127.5332 133.19434 137.91748 148.30176"
         y="0"
         sodipodi:role="line"
         id="tspan4">Jest Mock Function</tspan></text>
    <path
       id="path6"
       d="M 1,41 H 371 V 71 H 1 Z"
       style="fill:#ffffff;fill-opacity:1;fill-rule:nonzero;stroke:#000000;stroke-width:1;stroke-linecap:butt;stroke-linejoin:miter;stroke-miterlimit:10;stroke-dasharray:none;stroke-opacity:1"
       transform="matrix(0.95543666,0,0,0.95543666,0.47771833,0.47771833)"
       clip-path="url(#clipPath7)" />
    <text
       id="text7"
       xml:space="preserve"
       transform="matrix(0.9554462,0,0,0.9554462,110.04053,58.282218)"
       clip-path="url(#clipPath8)"><tspan
         style="font-variant:normal;font-weight:normal;font-size:13px;font-family:Helvetica;writing-mode:lr-tb;fill:#000000;fill-opacity:1;fill-rule:nonzero;stroke:none"
         x="0 7.940918 15.170898 22.400879 28.900879 32.512695 35.400879 42.630859 49.86084 53.472656 59.972656 64.301758 71.531738 78.761719 82.373535 89.603516 96.833496 100.44531 107.67529 114.17529 117.78711 124.28711 131.51709 138.01709"
         y="0"
         sodipodi:role="line"
         id="tspan7">Function created by Jest</tspan></text>
    <path
       id="path9"
       d="m 1,81 h 370 v 30 H 1 Z"
       style="fill:#ffffff;fill-opacity:1;fill-rule:nonzero;stroke:#000000;stroke-width:1;stroke-linecap:butt;stroke-linejoin:miter;stroke-miterlimit:10;stroke-dasharray:none;stroke-opacity:1"
       transform="matrix(0.95543666,0,0,0.95543666,0.47771833,0.47771833)"
       clip-path="url(#clipPath10)" />
    <text
       id="text10"
       xml:space="preserve"
       transform="matrix(0.9554462,0,0,0.9554462,13.734539,96.500066)"
       clip-path="url(#clipPath11)"><tspan
         style="font-variant:normal;font-weight:normal;font-size:13px;font-family:Helvetica;writing-mode:lr-tb;fill:#000000;fill-opacity:1;fill-rule:nonzero;stroke:none"
         x="0 9.3881836 16.618164 23.118164 30.348145 34.677246 41.907227 48.407227 52.019043 59.249023 66.479004 75.867188 79.479004 86.708984 90.320801 93.932617 101.1626 108.39258 112.00439 114.89258 118.50439 122.11621 125.00439 131.50439 135.11621 141.61621 148.84619 151.73438 154.62256 161.85254 169.08252 172.69434 179.92432 187.1543 194.38428 197.99609 201.60791 208.83789 216.06787 219.67969 226.90967 231.23877 238.46875 245.69873 256.52783 263.75781 270.98779 274.59961 281.09961 284.71143 287.59961 291.21143 294.82324 299.15234 306.38232 312.88232 320.1123 323.00049 329.50049 336.73047"
         y="0"
         sodipodi:role="line"
         id="tspan10">Records how often it is called and the arguments it receives</tspan></text>
    <path
       id="path12"
       d="m 1,121 h 370 v 30 H 1 Z"
       style="fill:#ffffff;fill-opacity:1;fill-rule:nonzero;stroke:#000000;stroke-width:1;stroke-linecap:butt;stroke-linejoin:miter;stroke-miterlimit:10;stroke-dasharray:none;stroke-opacity:1"
       transform="matrix(0.95543666,0,0,0.95543666,0.47771833,0.47771833)"
       clip-path="url(#clipPath13)" />
    <text
       id="text13"
       xml:space="preserve"
       transform="matrix(0.9554462,0,0,0.9554462,18.914849,127.07434)"
       clip-path="url(#clipPath14)"><tspan
         style="font-variant:normal;font-weight:normal;font-size:13px;font-family:Helvetica;writing-mode:lr-tb;fill:#000000;fill-opacity:1;fill-rule:nonzero;stroke:none"
         x="0 9.3881836 15.888184 23.118164 26.72998 36.118164 43.348145 50.578125 57.808105 61.419922 70.808105 78.038086 81.649902 88.879883 93.208984 100.43896 104.05078 107.6626 114.89258 121.39258 125.00439 127.89258 135.12256 142.35254 145.96436 152.46436 159.69434 170.52344 177.75342 181.36523 188.59521 191.4834 198.71338 205.94336 209.55518 213.16699 220.39697 227.62695 231.23877 234.85059 237.73877 244.96875 251.46875 255.08057 258.69238 265.19238 272.42236 275.31055 278.19873 284.69873 288.31055 295.54053 302.77051 310.00049 313.6123 320.84229 328.07227"
         y="0"
         sodipodi:role="line"
         id="tspan13">Use when we are testing something that just calls another</tspan></text>
    <text
       id="text14"
       xml:space="preserve"
       transform="matrix(0.9554462,0,0,0.9554462,156.99175,142.36148)"
       clip-path="url(#clipPath15)"><tspan
         style="font-variant:normal;font-weight:normal;font-size:13px;font-family:Helvetica;writing-mode:lr-tb;fill:#000000;fill-opacity:1;fill-rule:nonzero;stroke:none"
         x="0 10.829102 18.059082 21.670898 28.900879 36.130859"
         y="0"
         sodipodi:role="line"
         id="tspan14">method</tspan></text>
  </g>
</svg>
