<?xml version="1.0" encoding="UTF-8" standalone="no"?>
<!-- Created with Inkscape (http://www.inkscape.org/) -->

<svg
   version="1.1"
   id="svg1"
   width="366.72"
   height="291.84"
   viewBox="0 0 366.72 291.84"
   sodipodi:docname="nest-17.pdf"
   xmlns:inkscape="http://www.inkscape.org/namespaces/inkscape"
   xmlns:sodipodi="http://sodipodi.sourceforge.net/DTD/sodipodi-0.dtd"
   xmlns="http://www.w3.org/2000/svg"
   xmlns:svg="http://www.w3.org/2000/svg">
  <defs
     id="defs1">
    <clipPath
       clipPathUnits="userSpaceOnUse"
       id="clipPath2">
      <path
         d="M 0,0 H 1145.8333 V 910.10193 H 0 Z"
         transform="scale(0.33512729)"
         clip-rule="evenodd"
         id="path2" />
    </clipPath>
    <clipPath
       clipPathUnits="userSpaceOnUse"
       id="clipPath4">
      <path
         d="M 0,0 H 1145.8333 V 907.11804 H 0 Z"
         transform="matrix(0.33512729,0,0,0.33512729,-0.5,-0.5)"
         clip-rule="evenodd"
         id="path4" />
    </clipPath>
    <clipPath
       clipPathUnits="userSpaceOnUse"
       id="clipPath6">
      <path
         d="M 0,0 H 1145.8333 V 907.11804 H 0 Z"
         transform="matrix(0.33512729,0,0,0.33512729,-0.5,-0.5)"
         clip-rule="evenodd"
         id="path6" />
    </clipPath>
    <clipPath
       clipPathUnits="userSpaceOnUse"
       id="clipPath8">
      <path
         d="M 0,0 H 1145.8333 V 907.11804 H 0 Z"
         transform="matrix(0.33512729,0,0,0.33512729,-0.5,-0.5)"
         clip-rule="evenodd"
         id="path8" />
    </clipPath>
    <clipPath
       clipPathUnits="userSpaceOnUse"
       id="clipPath9">
      <path
         d="M 0,0 H 1145.8333 V 907.11804 H 0 Z"
         transform="matrix(0.33512395,0,0,0.33512395,-172.35938,-157)"
         clip-rule="evenodd"
         id="path9" />
    </clipPath>
    <clipPath
       clipPathUnits="userSpaceOnUse"
       id="clipPath11">
      <path
         d="M 0,0 H 1145.8333 V 907.11804 H 0 Z"
         transform="matrix(0.33512729,0,0,0.33512729,-0.5,-0.5)"
         clip-rule="evenodd"
         id="path11" />
    </clipPath>
    <clipPath
       clipPathUnits="userSpaceOnUse"
       id="clipPath13">
      <path
         d="M 0,0 H 1145.8333 V 907.11804 H 0 Z"
         transform="matrix(0.33512729,0,0,0.33512729,-0.5,-0.5)"
         clip-rule="evenodd"
         id="path13" />
    </clipPath>
    <clipPath
       clipPathUnits="userSpaceOnUse"
       id="clipPath15">
      <path
         d="M 0,0 H 1145.8333 V 907.11804 H 0 Z"
         transform="matrix(0.33512729,0,0,0.33512729,-0.5,-0.5)"
         clip-rule="evenodd"
         id="path15" />
    </clipPath>
    <clipPath
       clipPathUnits="userSpaceOnUse"
       id="clipPath16">
      <path
         d="M 0,0 H 1145.8333 V 907.11804 H 0 Z"
         transform="matrix(0.33512395,0,0,0.33512395,-80.25,-287)"
         clip-rule="evenodd"
         id="path16" />
    </clipPath>
    <clipPath
       clipPathUnits="userSpaceOnUse"
       id="clipPath18">
      <path
         d="M 0,0 H 1145.8333 V 907.11804 H 0 Z"
         transform="matrix(0.33512729,0,0,0.33512729,-0.5,-0.5)"
         clip-rule="evenodd"
         id="path18" />
    </clipPath>
    <clipPath
       clipPathUnits="userSpaceOnUse"
       id="clipPath20">
      <path
         d="M 0,0 H 1145.8333 V 907.11804 H 0 Z"
         transform="matrix(0.33512729,0,0,0.33512729,-0.5,-0.5)"
         clip-rule="evenodd"
         id="path20" />
    </clipPath>
    <clipPath
       clipPathUnits="userSpaceOnUse"
       id="clipPath22">
      <path
         d="M 0,0 H 1145.8333 V 907.11804 H 0 Z"
         transform="matrix(0.33512729,0,0,0.33512729,-0.5,-0.5)"
         clip-rule="evenodd"
         id="path22" />
    </clipPath>
    <clipPath
       clipPathUnits="userSpaceOnUse"
       id="clipPath23">
      <path
         d="M 0,0 H 1145.8333 V 907.11804 H 0 Z"
         transform="matrix(0.33512395,0,0,0.33512395,-241.76563,-287)"
         clip-rule="evenodd"
         id="path23" />
    </clipPath>
    <clipPath
       clipPathUnits="userSpaceOnUse"
       id="clipPath25">
      <path
         d="M 0,0 H 1145.8333 V 907.11804 H 0 Z"
         transform="matrix(0.33512729,0,0,0.33512729,-0.5,-0.5)"
         clip-rule="evenodd"
         id="path25" />
    </clipPath>
    <clipPath
       clipPathUnits="userSpaceOnUse"
       id="clipPath26">
      <path
         d="M 0,0 H 1145.8333 V 907.11804 H 0 Z"
         transform="matrix(0.33512395,0,0,0.33512395,-193.59375,-22)"
         clip-rule="evenodd"
         id="path26" />
    </clipPath>
    <clipPath
       clipPathUnits="userSpaceOnUse"
       id="clipPath28">
      <path
         d="M 0,0 H 1145.8333 V 907.11804 H 0 Z"
         transform="matrix(0.33512729,0,0,0.33512729,-0.5,-0.5)"
         clip-rule="evenodd"
         id="path28" />
    </clipPath>
    <clipPath
       clipPathUnits="userSpaceOnUse"
       id="clipPath30">
      <path
         d="M 0,0 H 1145.8333 V 907.11804 H 0 Z"
         transform="matrix(0.33512729,0,0,0.33512729,-0.5,-0.5)"
         clip-rule="evenodd"
         id="path30" />
    </clipPath>
    <clipPath
       clipPathUnits="userSpaceOnUse"
       id="clipPath32">
      <path
         d="M 0,0 H 1145.8333 V 907.11804 H 0 Z"
         transform="matrix(0.33512729,0,0,0.33512729,-0.5,-0.5)"
         clip-rule="evenodd"
         id="path32" />
    </clipPath>
    <clipPath
       clipPathUnits="userSpaceOnUse"
       id="clipPath34">
      <path
         d="M 0,0 H 1145.8333 V 907.11804 H 0 Z"
         transform="matrix(0.33512729,0,0,0.33512729,-0.5,-0.5)"
         clip-rule="evenodd"
         id="path34" />
    </clipPath>
    <clipPath
       clipPathUnits="userSpaceOnUse"
       id="clipPath35">
      <path
         d="M 0,0 H 1145.8333 V 907.11804 H 0 Z"
         transform="matrix(0.33512395,0,0,0.33512395,-11.53125,-146)"
         clip-rule="evenodd"
         id="path35" />
    </clipPath>
    <clipPath
       clipPathUnits="userSpaceOnUse"
       id="clipPath36">
      <path
         d="M 0,0 H 1145.8333 V 907.11804 H 0 Z"
         transform="matrix(0.33512395,0,0,0.33512395,-31.171875,-170)"
         clip-rule="evenodd"
         id="path36" />
    </clipPath>
    <clipPath
       clipPathUnits="userSpaceOnUse"
       id="clipPath38">
      <path
         d="M 0,0 H 1145.8333 V 907.11804 H 0 Z"
         transform="matrix(0.33512729,0,0,0.33512729,-0.5,-0.5)"
         clip-rule="evenodd"
         id="path38" />
    </clipPath>
    <clipPath
       clipPathUnits="userSpaceOnUse"
       id="clipPath40">
      <path
         d="M 0,0 H 1145.8333 V 907.11804 H 0 Z"
         transform="matrix(0.33512729,0,0,0.33512729,-0.5,-0.5)"
         clip-rule="evenodd"
         id="path40" />
    </clipPath>
    <clipPath
       clipPathUnits="userSpaceOnUse"
       id="clipPath41">
      <path
         d="M 0,0 H 1145.8333 V 907.11804 H 0 Z"
         transform="matrix(0.33512395,0,0,0.33512395,-245.03125,-198)"
         clip-rule="evenodd"
         id="path41" />
    </clipPath>
    <clipPath
       clipPathUnits="userSpaceOnUse"
       id="clipPath42">
      <path
         d="M 0,0 H 1145.8333 V 907.11804 H 0 Z"
         transform="matrix(0.33512395,0,0,0.33512395,-243.95313,-214)"
         clip-rule="evenodd"
         id="path42" />
    </clipPath>
    <clipPath
       clipPathUnits="userSpaceOnUse"
       id="clipPath44">
      <path
         d="M 0,0 H 1145.8333 V 907.11804 H 0 Z"
         transform="matrix(0.33512729,0,0,0.33512729,-0.5,-0.5)"
         clip-rule="evenodd"
         id="path44" />
    </clipPath>
    <clipPath
       clipPathUnits="userSpaceOnUse"
       id="clipPath45">
      <path
         d="M 0,0 H 1145.8333 V 907.11804 H 0 Z"
         transform="matrix(0.33512395,0,0,0.33512395,-147.92187,-198)"
         clip-rule="evenodd"
         id="path45" />
    </clipPath>
    <clipPath
       clipPathUnits="userSpaceOnUse"
       id="clipPath46">
      <path
         d="M 0,0 H 1145.8333 V 907.11804 H 0 Z"
         transform="matrix(0.33512395,0,0,0.33512395,-162.98438,-214)"
         clip-rule="evenodd"
         id="path46" />
    </clipPath>
  </defs>
  <sodipodi:namedview
     id="namedview1"
     pagecolor="#ffffff"
     bordercolor="#000000"
     borderopacity="0.25"
     inkscape:showpageshadow="2"
     inkscape:pageopacity="0.0"
     inkscape:pagecheckerboard="0"
     inkscape:deskcolor="#d1d1d1">
    <inkscape:page
       x="0"
       y="0"
       inkscape:label="1"
       id="page1"
       width="366.72"
       height="291.84"
       margin="0"
       bleed="0" />
  </sodipodi:namedview>
  <g
     id="g1"
     inkscape:groupmode="layer"
     inkscape:label="1">
    <path
       id="path1"
       d="M 0,0 H 384 V 305 H 0 Z"
       style="fill:#ffffff;fill-opacity:1;fill-rule:nonzero;stroke:none"
       transform="scale(0.95486102)"
       clip-path="url(#clipPath2)" />
    <path
       id="path3"
       d="m 221,131 v -20 10 -13.63"
       style="fill:none;stroke:#000000;stroke-width:1;stroke-linecap:butt;stroke-linejoin:miter;stroke-miterlimit:10;stroke-dasharray:none;stroke-opacity:1"
       transform="matrix(0.95486102,0,0,0.95486102,0.47743051,0.47743051)"
       clip-path="url(#clipPath4)" />
    <path
       id="path5"
       d="m 221,102.12 3.5,7 -3.5,-1.75 -3.5,1.75 z"
       style="fill:#000000;fill-opacity:1;fill-rule:nonzero;stroke:#000000;stroke-width:1;stroke-linecap:butt;stroke-linejoin:miter;stroke-miterlimit:10;stroke-dasharray:none;stroke-opacity:1"
       transform="matrix(0.95486102,0,0,0.95486102,0.47743051,0.47743051)"
       clip-path="url(#clipPath6)" />
    <path
       id="path7"
       d="m 131,131 h 180 v 40 H 131 Z"
       style="fill:#dae8fc;fill-opacity:1;fill-rule:nonzero;stroke:#6c8ebf;stroke-width:1;stroke-linecap:butt;stroke-linejoin:miter;stroke-miterlimit:10;stroke-dasharray:none;stroke-opacity:1"
       transform="matrix(0.95486102,0,0,0.95486102,0.47743051,0.47743051)"
       clip-path="url(#clipPath8)" />
    <text
       id="text8"
       xml:space="preserve"
       transform="matrix(0.95487055,0,0,0.95487055,164.5809,149.91468)"
       clip-path="url(#clipPath9)"><tspan
         style="font-variant:normal;font-weight:700;font-size:17px;font-family:Helvetica;writing-mode:lr-tb;fill:#000000;fill-opacity:1;fill-rule:nonzero;stroke:none"
         x="0 12.276855 22.661133 33.04541 37.768555 51.929688 62.313965 72.698242 83.08252 87.805664"
         y="0"
         sodipodi:role="line"
         id="tspan8">App Module</tspan></text>
    <path
       id="path10"
       d="m 136,261 v -20 h 85 v -3.63"
       style="fill:none;stroke:#000000;stroke-width:1;stroke-linecap:butt;stroke-linejoin:miter;stroke-miterlimit:10;stroke-dasharray:none;stroke-opacity:1"
       transform="matrix(0.95486102,0,0,0.95486102,0.47743051,0.47743051)"
       clip-path="url(#clipPath11)" />
    <path
       id="path12"
       d="m 221,232.12 3.5,7 -3.5,-1.75 -3.5,1.75 z"
       style="fill:#000000;fill-opacity:1;fill-rule:nonzero;stroke:#000000;stroke-width:1;stroke-linecap:butt;stroke-linejoin:miter;stroke-miterlimit:10;stroke-dasharray:none;stroke-opacity:1"
       transform="matrix(0.95486102,0,0,0.95486102,0.47743051,0.47743051)"
       clip-path="url(#clipPath13)" />
    <path
       id="path14"
       d="m 61,261 h 150 v 40 H 61 Z"
       style="fill:#dae8fc;fill-opacity:1;fill-rule:nonzero;stroke:#6c8ebf;stroke-width:1;stroke-linecap:butt;stroke-linejoin:miter;stroke-miterlimit:10;stroke-dasharray:none;stroke-opacity:1"
       transform="matrix(0.95486102,0,0,0.95486102,0.47743051,0.47743051)"
       clip-path="url(#clipPath15)" />
    <text
       id="text15"
       xml:space="preserve"
       transform="matrix(0.95487055,0,0,0.95487055,76.628362,274.04785)"
       clip-path="url(#clipPath16)"><tspan
         style="font-variant:normal;font-weight:700;font-size:17px;font-family:Helvetica;writing-mode:lr-tb;fill:#000000;fill-opacity:1;fill-rule:nonzero;stroke:none"
         x="0 12.276855 21.731445 31.186035 37.801758 47.256348 51.979492 66.140625 76.524902 86.90918 97.293457 102.0166"
         y="0"
         sodipodi:role="line"
         id="tspan15">Users Module</tspan></text>
    <path
       id="path17"
       d="m 306,261 v -20 h -85 v -3.63"
       style="fill:none;stroke:#000000;stroke-width:1;stroke-linecap:butt;stroke-linejoin:miter;stroke-miterlimit:10;stroke-dasharray:none;stroke-opacity:1"
       transform="matrix(0.95486102,0,0,0.95486102,0.47743051,0.47743051)"
       clip-path="url(#clipPath18)" />
    <path
       id="path19"
       d="m 221,232.12 3.5,7 -3.5,-1.75 -3.5,1.75 z"
       style="fill:#000000;fill-opacity:1;fill-rule:nonzero;stroke:#000000;stroke-width:1;stroke-linecap:butt;stroke-linejoin:miter;stroke-miterlimit:10;stroke-dasharray:none;stroke-opacity:1"
       transform="matrix(0.95486102,0,0,0.95486102,0.47743051,0.47743051)"
       clip-path="url(#clipPath20)" />
    <path
       id="path21"
       d="m 231,261 h 150 v 40 H 231 Z"
       style="fill:#dae8fc;fill-opacity:1;fill-rule:nonzero;stroke:#6c8ebf;stroke-width:1;stroke-linecap:butt;stroke-linejoin:miter;stroke-miterlimit:10;stroke-dasharray:none;stroke-opacity:1"
       transform="matrix(0.95486102,0,0,0.95486102,0.47743051,0.47743051)"
       clip-path="url(#clipPath22)" />
    <text
       id="text22"
       xml:space="preserve"
       transform="matrix(0.95487055,0,0,0.95487055,230.85488,274.04785)"
       clip-path="url(#clipPath23)"><tspan
         style="font-variant:normal;font-weight:700;font-size:17px;font-family:Helvetica;writing-mode:lr-tb;fill:#000000;fill-opacity:1;fill-rule:nonzero;stroke:none"
         x="0 12.276855 21.731445 32.115723 42.5 49.115723 54.776855 64.231445 68.95459 83.115723 93.5 103.88428 114.26855 118.9917"
         y="0"
         sodipodi:role="line"
         id="tspan22">Reports Module</tspan></text>
    <path
       id="path24"
       d="M 126,1 H 316 V 31 H 126 Z"
       style="fill:#f5f5f5;fill-opacity:1;fill-rule:nonzero;stroke:#666666;stroke-width:1;stroke-linecap:butt;stroke-linejoin:miter;stroke-miterlimit:10;stroke-dasharray:none;stroke-opacity:1"
       transform="matrix(0.95486102,0,0,0.95486102,0.47743051,0.47743051)"
       clip-path="url(#clipPath25)" />
    <text
       id="text25"
       xml:space="preserve"
       transform="matrix(0.95487055,0,0,0.95487055,184.85697,21.007152)"
       clip-path="url(#clipPath26)"><tspan
         style="font-variant:normal;font-weight:normal;font-size:17px;font-family:Helvetica;writing-mode:lr-tb;fill:#333333;fill-opacity:1;fill-rule:nonzero;stroke:none"
         x="0 14.161133 23.615723 27.392578 36.847168 41.570312 46.293457"
         y="0"
         sodipodi:role="line"
         id="tspan25">main.ts</tspan></text>
    <path
       id="path27"
       d="m 126,31 h 190 v 70 H 126 Z"
       style="fill:#f5f5f5;fill-opacity:1;fill-rule:nonzero;stroke:#666666;stroke-width:1;stroke-linecap:butt;stroke-linejoin:miter;stroke-miterlimit:10;stroke-dasharray:none;stroke-opacity:1"
       transform="matrix(0.95486102,0,0,0.95486102,0.47743051,0.47743051)"
       clip-path="url(#clipPath28)" />
    <path
       id="path29"
       d="m 101,151 h 20 -10 13.63"
       style="fill:none;stroke:#000000;stroke-width:1;stroke-linecap:butt;stroke-linejoin:miter;stroke-miterlimit:10;stroke-dasharray:none;stroke-opacity:1"
       transform="matrix(0.95486102,0,0,0.95486102,0.47743051,0.47743051)"
       clip-path="url(#clipPath30)" />
    <path
       id="path31"
       d="m 129.88,151 -7,3.5 1.75,-3.5 -1.75,-3.5 z"
       style="fill:#000000;fill-opacity:1;fill-rule:nonzero;stroke:#000000;stroke-width:1;stroke-linecap:butt;stroke-linejoin:miter;stroke-miterlimit:10;stroke-dasharray:none;stroke-opacity:1"
       transform="matrix(0.95486102,0,0,0.95486102,0.47743051,0.47743051)"
       clip-path="url(#clipPath32)" />
    <path
       id="path33"
       d="m 1,121 h 100 v 60 H 1 Z"
       style="fill:#f8cecc;fill-opacity:1;fill-rule:nonzero;stroke:#b85450;stroke-width:1;stroke-linecap:butt;stroke-linejoin:miter;stroke-miterlimit:10;stroke-dasharray:none;stroke-opacity:1"
       transform="matrix(0.95486102,0,0,0.95486102,0.47743051,0.47743051)"
       clip-path="url(#clipPath34)" />
    <text
       id="text34"
       xml:space="preserve"
       transform="matrix(0.95487055,0,0,0.95487055,11.010851,139.4111)"
       clip-path="url(#clipPath35)"><tspan
         style="font-variant:normal;font-weight:700;font-size:20px;font-family:Helvetica;writing-mode:lr-tb;fill:#000000;fill-opacity:1;fill-rule:nonzero;stroke:none"
         x="0 15.556641 27.773438 35.556641 41.113281 54.453125 65.576172"
         y="0"
         sodipodi:role="line"
         id="tspan34">Our E2E</tspan></text>
    <text
       id="text35"
       xml:space="preserve"
       transform="matrix(0.95487055,0,0,0.95487055,29.765105,162.32799)"
       clip-path="url(#clipPath36)"><tspan
         style="font-variant:normal;font-weight:700;font-size:20px;font-family:Helvetica;writing-mode:lr-tb;fill:#000000;fill-opacity:1;fill-rule:nonzero;stroke:none"
         x="0 10.742188 21.865234 32.988281"
         y="0"
         sodipodi:role="line"
         id="tspan35">Test</tspan></text>
    <path
       id="path37"
       d="m 131,171 h 180 v 60 H 131 Z"
       style="fill:#dae8fc;fill-opacity:1;fill-rule:nonzero;stroke:#6c8ebf;stroke-width:1;stroke-linecap:butt;stroke-linejoin:miter;stroke-miterlimit:10;stroke-dasharray:none;stroke-opacity:1"
       transform="matrix(0.95486102,0,0,0.95486102,0.47743051,0.47743051)"
       clip-path="url(#clipPath38)" />
    <path
       id="path39"
       d="m 231,181 h 70 v 40 h -70 z"
       style="fill:#ffffff;fill-opacity:1;fill-rule:nonzero;stroke:#000000;stroke-width:1;stroke-linecap:butt;stroke-linejoin:miter;stroke-miterlimit:10;stroke-dasharray:none;stroke-opacity:1"
       transform="matrix(0.95486102,0,0,0.95486102,0.47743051,0.47743051)"
       clip-path="url(#clipPath40)" />
    <text
       id="text40"
       xml:space="preserve"
       transform="matrix(0.95487055,0,0,0.95487055,233.97312,189.06437)"
       clip-path="url(#clipPath41)"><tspan
         style="font-variant:normal;font-weight:normal;font-size:13px;font-family:Helvetica;writing-mode:lr-tb;fill:#000000;fill-opacity:1;fill-rule:nonzero;stroke:none"
         x="0 6.5 13.72998 20.959961 27.459961 30.348145 37.578125"
         y="0"
         sodipodi:role="line"
         id="tspan40">cookie-</tspan></text>
    <text
       id="text41"
       xml:space="preserve"
       transform="matrix(0.95487055,0,0,0.95487055,232.94366,204.3423)"
       clip-path="url(#clipPath42)"><tspan
         style="font-variant:normal;font-weight:normal;font-size:13px;font-family:Helvetica;writing-mode:lr-tb;fill:#000000;fill-opacity:1;fill-rule:nonzero;stroke:none"
         x="0 6.5 13.72998 20.22998 26.72998 29.618164 36.848145"
         y="0"
         sodipodi:role="line"
         id="tspan41">session</tspan></text>
    <path
       id="path43"
       d="m 141,181 h 70 v 40 h -70 z"
       style="fill:#ffffff;fill-opacity:1;fill-rule:nonzero;stroke:#000000;stroke-width:1;stroke-linecap:butt;stroke-linejoin:miter;stroke-miterlimit:10;stroke-dasharray:none;stroke-opacity:1"
       transform="matrix(0.95486102,0,0,0.95486102,0.47743051,0.47743051)"
       clip-path="url(#clipPath44)" />
    <text
       id="text44"
       xml:space="preserve"
       transform="matrix(0.95487055,0,0,0.95487055,141.24624,189.06437)"
       clip-path="url(#clipPath45)"><tspan
         style="font-variant:normal;font-weight:normal;font-size:13px;font-family:Helvetica;writing-mode:lr-tb;fill:#000000;fill-opacity:1;fill-rule:nonzero;stroke:none"
         x="0 7.7124023 14.942383 17.830566 20.71875 27.94873 35.178711 38.790527 41.678711 48.908691"
         y="0"
         sodipodi:role="line"
         id="tspan44">Validation</tspan></text>
    <text
       id="text45"
       xml:space="preserve"
       transform="matrix(0.95487055,0,0,0.95487055,155.62898,204.3423)"
       clip-path="url(#clipPath46)"><tspan
         style="font-variant:normal;font-weight:normal;font-size:13px;font-family:Helvetica;writing-mode:lr-tb;fill:#000000;fill-opacity:1;fill-rule:nonzero;stroke:none"
         x="0 8.6708984 11.559082 18.789062"
         y="0"
         sodipodi:role="line"
         id="tspan45">Pipe</tspan></text>
  </g>
</svg>
