<?xml version="1.0" encoding="UTF-8" standalone="no"?>
<!-- Created with Inkscape (http://www.inkscape.org/) -->

<svg
   version="1.1"
   id="svg1"
   width="299.84"
   height="97.279999"
   viewBox="0 0 299.84 97.279999"
   sodipodi:docname="nest-3.pdf"
   xmlns:inkscape="http://www.inkscape.org/namespaces/inkscape"
   xmlns:sodipodi="http://sodipodi.sourceforge.net/DTD/sodipodi-0.dtd"
   xmlns="http://www.w3.org/2000/svg"
   xmlns:svg="http://www.w3.org/2000/svg">
  <defs
     id="defs1">
    <clipPath
       clipPathUnits="userSpaceOnUse"
       id="clipPath2">
      <path
         d="M 0,0 H 937.49994 V 301.55252 H 0 Z"
         transform="scale(0.33493334)"
         clip-rule="evenodd"
         id="path2" />
    </clipPath>
    <clipPath
       clipPathUnits="userSpaceOnUse"
       id="clipPath4">
      <path
         d="M 0,0 H 937.49994 V 298.56686 H 0 Z"
         transform="matrix(0.33493334,0,0,0.33493334,-0.5,-0.5)"
         clip-rule="evenodd"
         id="path4" />
    </clipPath>
    <clipPath
       clipPathUnits="userSpaceOnUse"
       id="clipPath5">
      <path
         d="M 0,0 H 937.49994 V 298.56686 H 0 Z"
         transform="matrix(0.33493,0,0,0.33493,-14.515625,-27)"
         clip-rule="evenodd"
         id="path5" />
    </clipPath>
    <clipPath
       clipPathUnits="userSpaceOnUse"
       id="clipPath7">
      <path
         d="M 0,0 H 937.49994 V 298.56686 H 0 Z"
         transform="matrix(0.33493334,0,0,0.33493334,-0.5,-0.5)"
         clip-rule="evenodd"
         id="path7" />
    </clipPath>
    <clipPath
       clipPathUnits="userSpaceOnUse"
       id="clipPath8">
      <path
         d="M 0,0 H 937.49994 V 298.56686 H 0 Z"
         transform="matrix(0.33493,0,0,0.33493,-44.3125,-57)"
         clip-rule="evenodd"
         id="path8" />
    </clipPath>
    <clipPath
       clipPathUnits="userSpaceOnUse"
       id="clipPath10">
      <path
         d="M 0,0 H 937.49994 V 298.56686 H 0 Z"
         transform="matrix(0.33493334,0,0,0.33493334,-0.5,-0.5)"
         clip-rule="evenodd"
         id="path10" />
    </clipPath>
    <clipPath
       clipPathUnits="userSpaceOnUse"
       id="clipPath11">
      <path
         d="M 0,0 H 937.49994 V 298.56686 H 0 Z"
         transform="matrix(0.33493,0,0,0.33493,-46.3125,-87)"
         clip-rule="evenodd"
         id="path11" />
    </clipPath>
    <clipPath
       clipPathUnits="userSpaceOnUse"
       id="clipPath13">
      <path
         d="M 0,0 H 937.49994 V 298.56686 H 0 Z"
         transform="matrix(0.33493334,0,0,0.33493334,-0.5,-0.5)"
         clip-rule="evenodd"
         id="path13" />
    </clipPath>
    <clipPath
       clipPathUnits="userSpaceOnUse"
       id="clipPath15">
      <path
         d="M 0,0 H 937.49994 V 298.56686 H 0 Z"
         transform="matrix(0.33493334,0,0,0.33493334,-0.5,-0.5)"
         clip-rule="evenodd"
         id="path15" />
    </clipPath>
    <clipPath
       clipPathUnits="userSpaceOnUse"
       id="clipPath17">
      <path
         d="M 0,0 H 937.49994 V 298.56686 H 0 Z"
         transform="matrix(0.33493334,0,0,0.33493334,-0.5,-0.5)"
         clip-rule="evenodd"
         id="path17" />
    </clipPath>
    <clipPath
       clipPathUnits="userSpaceOnUse"
       id="clipPath18">
      <path
         d="M 0,0 H 937.49994 V 298.56686 H 0 Z"
         transform="matrix(0.33493,0,0,0.33493,-222.3125,-20)"
         clip-rule="evenodd"
         id="path18" />
    </clipPath>
    <clipPath
       clipPathUnits="userSpaceOnUse"
       id="clipPath19">
      <path
         d="M 0,0 H 937.49994 V 298.56686 H 0 Z"
         transform="matrix(0.33493,0,0,0.33493,-197.96875,-35)"
         clip-rule="evenodd"
         id="path19" />
    </clipPath>
  </defs>
  <sodipodi:namedview
     id="namedview1"
     pagecolor="#ffffff"
     bordercolor="#000000"
     borderopacity="0.25"
     inkscape:showpageshadow="2"
     inkscape:pageopacity="0.0"
     inkscape:pagecheckerboard="0"
     inkscape:deskcolor="#d1d1d1">
    <inkscape:page
       x="0"
       y="0"
       inkscape:label="1"
       id="page1"
       width="299.84"
       height="97.279999"
       margin="0"
       bleed="0" />
  </sodipodi:namedview>
  <g
     id="g1"
     inkscape:groupmode="layer"
     inkscape:label="1">
    <path
       id="path1"
       d="M 0,0 H 314 V 101 H 0 Z"
       style="fill:#ffffff;fill-opacity:1;fill-rule:nonzero;stroke:none"
       transform="scale(0.95541394)"
       clip-path="url(#clipPath2)" />
    <path
       id="path3"
       d="M 1,8 H 131 V 38 H 1 Z"
       style="fill:#dae8fc;fill-opacity:1;fill-rule:nonzero;stroke:#6c8ebf;stroke-width:1;stroke-linecap:butt;stroke-linejoin:miter;stroke-miterlimit:10;stroke-dasharray:none;stroke-opacity:1"
       transform="matrix(0.95541394,0,0,0.95541394,0.47770697,0.47770697)"
       clip-path="url(#clipPath4)" />
    <text
       id="text4"
       xml:space="preserve"
       transform="matrix(0.95542348,0,0,0.95542348,13.868569,25.796434)"
       clip-path="url(#clipPath5)"><tspan
         style="font-variant:normal;font-weight:700;font-size:12px;font-family:Helvetica;writing-mode:lr-tb;fill:#000000;fill-opacity:1;fill-rule:nonzero;stroke:none"
         x="0 6.6738281 10.007812 16.681641 23.355469 30.029297 32.923828 41.589844 48.919922 52.916016 60.246094 68.25 74.923828 79.59375 86.267578 89.601562 96.275391"
         y="0"
         sodipodi:role="line"
         id="tspan4">class AuthService</tspan></text>
    <path
       id="path6"
       d="M 1,38 H 131 V 68 H 1 Z"
       style="fill:#f5f5f5;fill-opacity:1;fill-rule:nonzero;stroke:#666666;stroke-width:1;stroke-linecap:butt;stroke-linejoin:miter;stroke-miterlimit:10;stroke-dasharray:none;stroke-opacity:1"
       transform="matrix(0.95541394,0,0,0.95541394,0.47770697,0.47770697)"
       clip-path="url(#clipPath7)" />
    <text
       id="text7"
       xml:space="preserve"
       transform="matrix(0.95542348,0,0,0.95542348,42.337203,54.459138)"
       clip-path="url(#clipPath8)"><tspan
         style="font-variant:normal;font-weight:normal;font-size:12px;font-family:Helvetica;writing-mode:lr-tb;fill:#333333;fill-opacity:1;fill-rule:nonzero;stroke:none"
         x="0 6 8.6660156 15.339844 22.013672 28.6875 35.361328 39.357422"
         y="0"
         sodipodi:role="line"
         id="tspan7">signup()</tspan></text>
    <path
       id="path9"
       d="M 1,68 H 131 V 98 H 1 Z"
       style="fill:#f5f5f5;fill-opacity:1;fill-rule:nonzero;stroke:#666666;stroke-width:1;stroke-linecap:butt;stroke-linejoin:miter;stroke-miterlimit:10;stroke-dasharray:none;stroke-opacity:1"
       transform="matrix(0.95541394,0,0,0.95541394,0.47770697,0.47770697)"
       clip-path="url(#clipPath10)" />
    <text
       id="text10"
       xml:space="preserve"
       transform="matrix(0.95542348,0,0,0.95542348,44.24805,83.121843)"
       clip-path="url(#clipPath11)"><tspan
         style="font-variant:normal;font-weight:normal;font-size:12px;font-family:Helvetica;writing-mode:lr-tb;fill:#333333;fill-opacity:1;fill-rule:nonzero;stroke:none"
         x="0 6 8.6660156 15.339844 22.013672 24.679688 31.353516 35.349609"
         y="0"
         sodipodi:role="line"
         id="tspan10">signin()</tspan></text>
    <path
       id="path12"
       d="m 161,23 h -20 10 -13.63001"
       style="fill:none;stroke:#000000;stroke-width:1;stroke-linecap:butt;stroke-linejoin:miter;stroke-miterlimit:10;stroke-dasharray:none;stroke-opacity:1"
       transform="matrix(0.95541394,0,0,0.95541394,0.47770697,0.47770697)"
       clip-path="url(#clipPath13)" />
    <path
       id="path14"
       d="m 132.11999,23 7,-3.5 -1.75,3.5 1.75,3.5 z"
       style="fill:#000000;fill-opacity:1;fill-rule:nonzero;stroke:#000000;stroke-width:1;stroke-linecap:butt;stroke-linejoin:miter;stroke-miterlimit:10;stroke-dasharray:none;stroke-opacity:1"
       transform="matrix(0.95541394,0,0,0.95541394,0.47770697,0.47770697)"
       clip-path="url(#clipPath15)" />
    <path
       id="path16"
       d="m 161,0.5 h 150 v 45 H 161 Z"
       style="fill:#f8cecc;fill-opacity:1;fill-rule:nonzero;stroke:#b85450;stroke-width:1;stroke-linecap:butt;stroke-linejoin:miter;stroke-miterlimit:10;stroke-dasharray:none;stroke-opacity:1"
       transform="matrix(0.95541394,0,0,0.95541394,0.47770697,0.47770697)"
       clip-path="url(#clipPath17)" />
    <text
       id="text17"
       xml:space="preserve"
       transform="matrix(0.95542348,0,0,0.95542348,212.40258,19.10847)"
       clip-path="url(#clipPath18)"><tspan
         style="font-variant:normal;font-weight:700;font-size:12px;font-family:Helvetica;writing-mode:lr-tb;fill:#000000;fill-opacity:1;fill-rule:nonzero;stroke:none"
         x="0 7.3300781 14.003906 20.677734"
         y="0"
         sodipodi:role="line"
         id="tspan17">Fake</tspan></text>
    <text
       id="text18"
       xml:space="preserve"
       transform="matrix(0.95542348,0,0,0.95542348,189.14399,33.439822)"
       clip-path="url(#clipPath19)"><tspan
         style="font-variant:normal;font-weight:700;font-size:12px;font-family:Helvetica;writing-mode:lr-tb;fill:#000000;fill-opacity:1;fill-rule:nonzero;stroke:none"
         x="0 8.6660156 15.339844 22.013672 26.683594 33.357422 41.361328 48.035156 52.705078 59.378906 62.712891 69.386719"
         y="0"
         sodipodi:role="line"
         id="tspan18">UsersService</tspan></text>
  </g>
</svg>
