<?xml version="1.0" encoding="UTF-8" standalone="no"?>
<!-- Created with Inkscape (http://www.inkscape.org/) -->

<svg
   version="1.1"
   id="svg1"
   width="390.72"
   height="129.28"
   viewBox="0 0 390.72 129.28"
   sodipodi:docname="nest-9.pdf"
   xmlns:inkscape="http://www.inkscape.org/namespaces/inkscape"
   xmlns:sodipodi="http://sodipodi.sourceforge.net/DTD/sodipodi-0.dtd"
   xmlns="http://www.w3.org/2000/svg"
   xmlns:svg="http://www.w3.org/2000/svg">
  <defs
     id="defs1">
    <clipPath
       clipPathUnits="userSpaceOnUse"
       id="clipPath2">
      <path
         d="M 0,0 H 1220.8333 V 402.96454 H 0 Z"
         transform="scale(0.33501708)"
         clip-rule="evenodd"
         id="path2" />
    </clipPath>
    <clipPath
       clipPathUnits="userSpaceOnUse"
       id="clipPath4">
      <path
         d="M 0,0 H 1220.8333 V 399.97961 H 0 Z"
         transform="matrix(0.33501708,0,0,0.33501708,-0.49999999,-0.49999999)"
         clip-rule="evenodd"
         id="path4" />
    </clipPath>
    <clipPath
       clipPathUnits="userSpaceOnUse"
       id="clipPath6">
      <path
         d="M 0,0 H 1220.8333 V 399.97961 H 0 Z"
         transform="matrix(0.33501708,0,0,0.33501708,-0.49999999,-0.49999999)"
         clip-rule="evenodd"
         id="path6" />
    </clipPath>
    <clipPath
       clipPathUnits="userSpaceOnUse"
       id="clipPath7">
      <path
         d="M 0,0 H 1220.8333 V 399.97961 H 0 Z"
         transform="matrix(0.33501374,0,0,0.33501374,-241.90625,-93.000001)"
         clip-rule="evenodd"
         id="path7" />
    </clipPath>
    <clipPath
       clipPathUnits="userSpaceOnUse"
       id="clipPath8">
      <path
         d="M 0,0 H 1220.8333 V 399.97961 H 0 Z"
         transform="matrix(0.33501374,0,0,0.33501374,-230.98438,-108)"
         clip-rule="evenodd"
         id="path8" />
    </clipPath>
    <clipPath
       clipPathUnits="userSpaceOnUse"
       id="clipPath10">
      <path
         d="M 0,0 H 1220.8333 V 399.97961 H 0 Z"
         transform="matrix(0.33501708,0,0,0.33501708,-0.49999999,-0.49999999)"
         clip-rule="evenodd"
         id="path10" />
    </clipPath>
    <clipPath
       clipPathUnits="userSpaceOnUse"
       id="clipPath11">
      <path
         d="M 0,0 H 1220.8333 V 399.97961 H 0 Z"
         transform="matrix(0.33501374,0,0,0.33501374,-277.3125,-70)"
         clip-rule="evenodd"
         id="path11" />
    </clipPath>
    <clipPath
       clipPathUnits="userSpaceOnUse"
       id="clipPath13">
      <path
         d="M 0,0 H 1220.8333 V 399.97961 H 0 Z"
         transform="matrix(0.33501708,0,0,0.33501708,-0.49999999,-0.49999999)"
         clip-rule="evenodd"
         id="path13" />
    </clipPath>
    <clipPath
       clipPathUnits="userSpaceOnUse"
       id="clipPath14">
      <path
         d="M 0,0 H 1220.8333 V 399.97961 H 0 Z"
         transform="matrix(0.33501374,0,0,0.33501374,-257.5,-35)"
         clip-rule="evenodd"
         id="path14" />
    </clipPath>
    <clipPath
       clipPathUnits="userSpaceOnUse"
       id="clipPath16">
      <path
         d="M 0,0 H 1220.8333 V 399.97961 H 0 Z"
         transform="matrix(0.33501708,0,0,0.33501708,-0.49999999,-0.49999999)"
         clip-rule="evenodd"
         id="path16" />
    </clipPath>
    <clipPath
       clipPathUnits="userSpaceOnUse"
       id="clipPath17">
      <path
         d="M 0,0 H 1220.8333 V 399.97961 H 0 Z"
         transform="matrix(0.33501374,0,0,0.33501374,-21.984375,-100)"
         clip-rule="evenodd"
         id="path17" />
    </clipPath>
    <clipPath
       clipPathUnits="userSpaceOnUse"
       id="clipPath19">
      <path
         d="M 0,0 H 1220.8333 V 399.97961 H 0 Z"
         transform="matrix(0.33501708,0,0,0.33501708,-0.49999999,-0.49999999)"
         clip-rule="evenodd"
         id="path19" />
    </clipPath>
    <clipPath
       clipPathUnits="userSpaceOnUse"
       id="clipPath21">
      <path
         d="M 0,0 H 1220.8333 V 399.97961 H 0 Z"
         transform="matrix(0.33501708,0,0,0.33501708,-0.49999999,-0.49999999)"
         clip-rule="evenodd"
         id="path21" />
    </clipPath>
    <clipPath
       clipPathUnits="userSpaceOnUse"
       id="clipPath23">
      <path
         d="M 0,0 H 1220.8333 V 399.97961 H 0 Z"
         transform="matrix(0.33501708,0,0,0.33501708,-0.49999999,-0.49999999)"
         clip-rule="evenodd"
         id="path23" />
    </clipPath>
    <clipPath
       clipPathUnits="userSpaceOnUse"
       id="clipPath24">
      <path
         d="M 0,0 H 1220.8333 V 399.97961 H 0 Z"
         transform="matrix(0.33501374,0,0,0.33501374,-43.59375,-18)"
         clip-rule="evenodd"
         id="path24" />
    </clipPath>
    <clipPath
       clipPathUnits="userSpaceOnUse"
       id="clipPath25">
      <path
         d="M 0,0 H 1220.8333 V 399.97961 H 0 Z"
         transform="matrix(0.33501374,0,0,0.33501374,-53.359376,-33)"
         clip-rule="evenodd"
         id="path25" />
    </clipPath>
  </defs>
  <sodipodi:namedview
     id="namedview1"
     pagecolor="#ffffff"
     bordercolor="#000000"
     borderopacity="0.25"
     inkscape:showpageshadow="2"
     inkscape:pageopacity="0.0"
     inkscape:pagecheckerboard="0"
     inkscape:deskcolor="#d1d1d1">
    <inkscape:page
       x="0"
       y="0"
       inkscape:label="1"
       id="page1"
       width="390.72"
       height="129.28"
       margin="0"
       bleed="0" />
  </sodipodi:namedview>
  <g
     id="g1"
     inkscape:groupmode="layer"
     inkscape:label="1">
    <path
       id="path1"
       d="M 0,0 H 409 V 135 H 0 Z"
       style="fill:#ffffff;fill-opacity:1;fill-rule:nonzero;stroke:none"
       transform="scale(0.95517513)"
       clip-path="url(#clipPath2)" />
    <path
       id="path3"
       d="m 211,41 h 195 v 90 H 211 Z"
       style="fill:#f5f5f5;fill-opacity:1;fill-rule:nonzero;stroke:#666666;stroke-width:1;stroke-linecap:butt;stroke-linejoin:miter;stroke-miterlimit:10;stroke-dasharray:none;stroke-opacity:1"
       transform="matrix(0.95517513,0,0,0.95517513,0.47758756,0.47758756)"
       clip-path="url(#clipPath4)" />
    <path
       id="path5"
       d="m 223.5,76 h 170 v 40 h -170 z"
       style="fill:#dae8fc;fill-opacity:1;fill-rule:nonzero;stroke:#6c8ebf;stroke-width:1;stroke-linecap:butt;stroke-linejoin:miter;stroke-miterlimit:10;stroke-dasharray:none;stroke-opacity:1"
       transform="matrix(0.95517513,0,0,0.95517513,0.47758756,0.47758756)"
       clip-path="url(#clipPath6)" />
    <text
       id="text6"
       xml:space="preserve"
       transform="matrix(0.95518466,0,0,0.95518466,231.06514,88.832174)"
       clip-path="url(#clipPath7)"><tspan
         style="font-variant:normal;font-weight:normal;font-size:12px;font-family:Helvetica;writing-mode:lr-tb;fill:#000000;fill-opacity:1;fill-rule:nonzero;stroke:none"
         x="0 4.0078125 7.3417969 14.015625 24.011719 30.685547 33.351562 36.017578 39.351562 42.685547 44.976562 51.650391 57.650391 64.324219 67.658203 79.839844 86.513672 92.513672 99.1875 102.52148 105.85547 111.85547 118.5293 128.52539 130.81641"
         y="0"
         sodipodi:role="line"
         id="tspan6">{ email: 'asdf@asdf.com',</tspan></text>
    <text
       id="text7"
       xml:space="preserve"
       transform="matrix(0.95518466,0,0,0.95518466,220.63274,103.15994)"
       clip-path="url(#clipPath8)"><tspan
         style="font-variant:normal;font-weight:normal;font-size:12px;font-family:Helvetica;writing-mode:lr-tb;fill:#000000;fill-opacity:1;fill-rule:nonzero;stroke:none"
         x="0 6.6738281 13.347656 19.347656 25.347656 34.013672 40.6875 44.683594 51.357422 54.691406 58.025391 60.316406 62.982422 69.65625 76.330078 83.003906 85.669922 88.335938 95.009766 101.68359 108.35742 111.69141 117.69141 124.36523 127.03125 133.03125 139.70508 146.37891 148.66992 152.00391"
         y="0"
         sodipodi:role="line"
         id="tspan7">password: 'j124ijp14.k3jk5p' }</tspan></text>
    <path
       id="path9"
       d="m 223.5,56 h 170 v 20 h -170 z"
       style="fill:#dae8fc;fill-opacity:1;fill-rule:nonzero;stroke:#6c8ebf;stroke-width:1;stroke-linecap:butt;stroke-linejoin:miter;stroke-miterlimit:10;stroke-dasharray:none;stroke-opacity:1"
       transform="matrix(0.95517513,0,0,0.95517513,0.47758756,0.47758756)"
       clip-path="url(#clipPath10)" />
    <text
       id="text10"
       xml:space="preserve"
       transform="matrix(0.95518466,0,0,0.95518466,264.88465,66.862926)"
       clip-path="url(#clipPath11)"><tspan
         style="font-variant:normal;font-weight:700;font-size:12px;font-family:Helvetica;writing-mode:lr-tb;fill:#000000;fill-opacity:1;fill-rule:nonzero;stroke:none"
         x="0 8.6660156 15.339844 22.013672 26.683594 30.017578 38.021484 45.351562 49.347656 52.681641 56.677734"
         y="0"
         sodipodi:role="line"
         id="tspan10">User Entity</tspan></text>
    <path
       id="path12"
       d="M 211,21 H 406 V 41 H 211 Z"
       style="fill:#f5f5f5;fill-opacity:1;fill-rule:nonzero;stroke:#666666;stroke-width:1;stroke-linecap:butt;stroke-linejoin:miter;stroke-miterlimit:10;stroke-dasharray:none;stroke-opacity:1"
       transform="matrix(0.95517513,0,0,0.95517513,0.47758756,0.47758756)"
       clip-path="url(#clipPath13)" />
    <text
       id="text13"
       xml:space="preserve"
       transform="matrix(0.95518466,0,0,0.95518466,245.96005,33.431463)"
       clip-path="url(#clipPath14)"><tspan
         style="font-variant:normal;font-weight:700;font-size:12px;font-family:Helvetica;writing-mode:lr-tb;fill:#333333;fill-opacity:1;fill-rule:nonzero;stroke:none"
         x="0 7.3300781 14.003906 20.677734 27.351562 30.685547 38.015625 41.349609 48.679688 56.009766 59.34375 69.339844 76.013672 80.009766 87.339844 94.669922"
         y="0"
         sodipodi:role="line"
         id="tspan13">Fake Find Method</tspan></text>
    <path
       id="path15"
       d="m 1,73.5 h 180 v 45 H 1 Z"
       style="fill:#f8cecc;fill-opacity:1;fill-rule:nonzero;stroke:#b85450;stroke-width:1;stroke-linecap:butt;stroke-linejoin:miter;stroke-miterlimit:10;stroke-dasharray:none;stroke-opacity:1"
       transform="matrix(0.95517513,0,0,0.95517513,0.47758756,0.47758756)"
       clip-path="url(#clipPath16)" />
    <text
       id="text16"
       xml:space="preserve"
       transform="matrix(0.95518466,0,0,0.95518466,20.999138,95.518466)"
       clip-path="url(#clipPath17)"><tspan
         style="font-variant:normal;font-weight:700;font-size:12px;font-family:Helvetica;writing-mode:lr-tb;fill:#000000;fill-opacity:1;fill-rule:nonzero;stroke:none"
         x="0 8.0039062 11.337891 18.667969 25.998047 29.332031 36.662109 40.658203 47.332031 58.001953 64.675781 68.009766 71.34375 74.677734 78.011719 85.341797 92.015625 98.689453 105.36328 114.69727 122.02734 126.69727 134.02734"
         y="0"
         sodipodi:role="line"
         id="tspan16">Signin(email, password)</tspan></text>
    <path
       id="path18"
       d="M 91,41 V 61 53.5 67.129997"
       style="fill:none;stroke:#000000;stroke-width:1;stroke-linecap:butt;stroke-linejoin:miter;stroke-miterlimit:10;stroke-dasharray:none;stroke-opacity:1"
       transform="matrix(0.95517513,0,0,0.95517513,0.47758756,0.47758756)"
       clip-path="url(#clipPath19)" />
    <path
       id="path20"
       d="m 91,72.379997 -3.5,-7 3.5,1.75 3.5,-1.75 z"
       style="fill:#000000;fill-opacity:1;fill-rule:nonzero;stroke:#000000;stroke-width:1;stroke-linecap:butt;stroke-linejoin:miter;stroke-miterlimit:10;stroke-dasharray:none;stroke-opacity:1"
       transform="matrix(0.95517513,0,0,0.95517513,0.47758756,0.47758756)"
       clip-path="url(#clipPath21)" />
    <path
       id="path22"
       d="M 6,1 H 176 V 41 H 6 Z"
       style="fill:#dae8fc;fill-opacity:1;fill-rule:nonzero;stroke:#6c8ebf;stroke-width:1;stroke-linecap:butt;stroke-linejoin:miter;stroke-miterlimit:10;stroke-dasharray:none;stroke-opacity:1"
       transform="matrix(0.95517513,0,0,0.95517513,0.47758756,0.47758756)"
       clip-path="url(#clipPath23)" />
    <text
       id="text23"
       xml:space="preserve"
       transform="matrix(0.95518466,0,0,0.95518466,41.640081,17.193324)"
       clip-path="url(#clipPath24)"><tspan
         style="font-variant:normal;font-weight:normal;font-size:12px;font-family:Helvetica;writing-mode:lr-tb;fill:#000000;fill-opacity:1;fill-rule:nonzero;stroke:none"
         x="0 2.2910156 8.9648438 14.964844 21.638672 24.972656 37.154297 43.828125 49.828125 56.501953 59.835938 63.169922 69.169922 75.84375 85.839844 88.130859 91.464844"
         y="0"
         sodipodi:role="line"
         id="tspan23">'asdf@asdf.com', </tspan></text>
    <text
       id="text24"
       xml:space="preserve"
       transform="matrix(0.95518466,0,0,0.95518466,50.968057,31.521094)"
       clip-path="url(#clipPath25)"><tspan
         style="font-variant:normal;font-weight:normal;font-size:12px;font-family:Helvetica;writing-mode:lr-tb;fill:#000000;fill-opacity:1;fill-rule:nonzero;stroke:none"
         x="0 3.3339844 5.625 15.621094 21.621094 28.294922 34.96875 40.96875 46.96875 55.634766 62.308594 66.304688 72.978516"
         y="0"
         sodipodi:role="line"
         id="tspan24"> 'mypassword'</tspan></text>
  </g>
</svg>
