<?xml version="1.0" encoding="UTF-8" standalone="no"?>
<!-- Created with Inkscape (http://www.inkscape.org/) -->

<svg
   version="1.1"
   id="svg1"
   width="578.56"
   height="206.71999"
   viewBox="0 0 578.56 206.71999"
   sodipodi:docname="nest-18.pdf"
   xmlns:inkscape="http://www.inkscape.org/namespaces/inkscape"
   xmlns:sodipodi="http://sodipodi.sourceforge.net/DTD/sodipodi-0.dtd"
   xmlns="http://www.w3.org/2000/svg"
   xmlns:svg="http://www.w3.org/2000/svg">
  <defs
     id="defs1">
    <clipPath
       clipPathUnits="userSpaceOnUse"
       id="clipPath2">
      <path
         d="M 0,0 H 1808.3334 V 643.69482 H 0 Z"
         transform="scale(0.33400921)"
         clip-rule="evenodd"
         id="path2" />
    </clipPath>
    <clipPath
       clipPathUnits="userSpaceOnUse"
       id="clipPath4">
      <path
         d="M 0,0 H 1808.3334 V 640.70087 H 0 Z"
         transform="matrix(0.33400921,0,0,0.33400921,-0.49999999,-0.49999999)"
         clip-rule="evenodd"
         id="path4" />
    </clipPath>
    <clipPath
       clipPathUnits="userSpaceOnUse"
       id="clipPath6">
      <path
         d="M 0,0 H 1808.3334 V 640.70087 H 0 Z"
         transform="matrix(0.33400921,0,0,0.33400921,-0.49999999,-0.49999999)"
         clip-rule="evenodd"
         id="path6" />
    </clipPath>
    <clipPath
       clipPathUnits="userSpaceOnUse"
       id="clipPath8">
      <path
         d="M 0,0 H 1808.3334 V 640.70087 H 0 Z"
         transform="matrix(0.33400921,0,0,0.33400921,-0.49999999,-0.49999999)"
         clip-rule="evenodd"
         id="path8" />
    </clipPath>
    <clipPath
       clipPathUnits="userSpaceOnUse"
       id="clipPath9">
      <path
         d="M 0,0 H 1808.3334 V 640.70087 H 0 Z"
         transform="matrix(0.33400586,0,0,0.33400586,-6.0625,-76)"
         clip-rule="evenodd"
         id="path9" />
    </clipPath>
    <clipPath
       clipPathUnits="userSpaceOnUse"
       id="clipPath11">
      <path
         d="M 0,0 H 1808.3334 V 640.70087 H 0 Z"
         transform="matrix(0.33400921,0,0,0.33400921,-0.49999999,-0.49999999)"
         clip-rule="evenodd"
         id="path11" />
    </clipPath>
    <clipPath
       clipPathUnits="userSpaceOnUse"
       id="clipPath12">
      <path
         d="M 0,0 H 1808.3334 V 640.70087 H 0 Z"
         transform="matrix(0.33400586,0,0,0.33400586,-83.109375,-41)"
         clip-rule="evenodd"
         id="path12" />
    </clipPath>
    <clipPath
       clipPathUnits="userSpaceOnUse"
       id="clipPath14">
      <path
         d="M 0,0 H 1808.3334 V 640.70087 H 0 Z"
         transform="matrix(0.33400921,0,0,0.33400921,-0.49999999,-0.49999999)"
         clip-rule="evenodd"
         id="path14" />
    </clipPath>
    <clipPath
       clipPathUnits="userSpaceOnUse"
       id="clipPath15">
      <path
         d="M 0,0 H 1808.3334 V 640.70087 H 0 Z"
         transform="matrix(0.33400586,0,0,0.33400586,-443.96874,-22)"
         clip-rule="evenodd"
         id="path15" />
    </clipPath>
    <clipPath
       clipPathUnits="userSpaceOnUse"
       id="clipPath17">
      <path
         d="M 0,0 H 1808.3334 V 640.70087 H 0 Z"
         transform="matrix(0.33400921,0,0,0.33400921,-0.49999999,-0.49999999)"
         clip-rule="evenodd"
         id="path17" />
    </clipPath>
    <clipPath
       clipPathUnits="userSpaceOnUse"
       id="clipPath19">
      <path
         d="M 0,0 H 1808.3334 V 640.70087 H 0 Z"
         transform="matrix(0.33400921,0,0,0.33400921,-0.49999999,-0.49999999)"
         clip-rule="evenodd"
         id="path19" />
    </clipPath>
    <clipPath
       clipPathUnits="userSpaceOnUse"
       id="clipPath20">
      <path
         d="M 0,0 H 1808.3334 V 640.70087 H 0 Z"
         transform="matrix(0.33400586,0,0,0.33400586,-441.26562,-62)"
         clip-rule="evenodd"
         id="path20" />
    </clipPath>
    <clipPath
       clipPathUnits="userSpaceOnUse"
       id="clipPath22">
      <path
         d="M 0,0 H 1808.3334 V 640.70087 H 0 Z"
         transform="matrix(0.33400921,0,0,0.33400921,-0.49999999,-0.49999999)"
         clip-rule="evenodd"
         id="path22" />
    </clipPath>
    <clipPath
       clipPathUnits="userSpaceOnUse"
       id="clipPath23">
      <path
         d="M 0,0 H 1808.3334 V 640.70087 H 0 Z"
         transform="matrix(0.33400586,0,0,0.33400586,-396.32813,-85)"
         clip-rule="evenodd"
         id="path23" />
    </clipPath>
    <clipPath
       clipPathUnits="userSpaceOnUse"
       id="clipPath25">
      <path
         d="M 0,0 H 1808.3334 V 640.70087 H 0 Z"
         transform="matrix(0.33400921,0,0,0.33400921,-0.49999999,-0.49999999)"
         clip-rule="evenodd"
         id="path25" />
    </clipPath>
    <clipPath
       clipPathUnits="userSpaceOnUse"
       id="clipPath26">
      <path
         d="M 0,0 H 1808.3334 V 640.70087 H 0 Z"
         transform="matrix(0.33400586,0,0,0.33400586,-451.65624,-85)"
         clip-rule="evenodd"
         id="path26" />
    </clipPath>
    <clipPath
       clipPathUnits="userSpaceOnUse"
       id="clipPath28">
      <path
         d="M 0,0 H 1808.3334 V 640.70087 H 0 Z"
         transform="matrix(0.33400921,0,0,0.33400921,-0.49999999,-0.49999999)"
         clip-rule="evenodd"
         id="path28" />
    </clipPath>
    <clipPath
       clipPathUnits="userSpaceOnUse"
       id="clipPath29">
      <path
         d="M 0,0 H 1808.3334 V 640.70087 H 0 Z"
         transform="matrix(0.33400586,0,0,0.33400586,-525.31249,-85)"
         clip-rule="evenodd"
         id="path29" />
    </clipPath>
    <clipPath
       clipPathUnits="userSpaceOnUse"
       id="clipPath31">
      <path
         d="M 0,0 H 1808.3334 V 640.70087 H 0 Z"
         transform="matrix(0.33400921,0,0,0.33400921,-0.49999999,-0.49999999)"
         clip-rule="evenodd"
         id="path31" />
    </clipPath>
    <clipPath
       clipPathUnits="userSpaceOnUse"
       id="clipPath32">
      <path
         d="M 0,0 H 1808.3334 V 640.70087 H 0 Z"
         transform="matrix(0.33400586,0,0,0.33400586,-397.65625,-105)"
         clip-rule="evenodd"
         id="path32" />
    </clipPath>
    <clipPath
       clipPathUnits="userSpaceOnUse"
       id="clipPath34">
      <path
         d="M 0,0 H 1808.3334 V 640.70087 H 0 Z"
         transform="matrix(0.33400921,0,0,0.33400921,-0.49999999,-0.49999999)"
         clip-rule="evenodd"
         id="path34" />
    </clipPath>
    <clipPath
       clipPathUnits="userSpaceOnUse"
       id="clipPath35">
      <path
         d="M 0,0 H 1808.3334 V 640.70087 H 0 Z"
         transform="matrix(0.33400586,0,0,0.33400586,-412.89062,-105)"
         clip-rule="evenodd"
         id="path35" />
    </clipPath>
    <clipPath
       clipPathUnits="userSpaceOnUse"
       id="clipPath37">
      <path
         d="M 0,0 H 1808.3334 V 640.70087 H 0 Z"
         transform="matrix(0.33400921,0,0,0.33400921,-0.49999999,-0.49999999)"
         clip-rule="evenodd"
         id="path37" />
    </clipPath>
    <clipPath
       clipPathUnits="userSpaceOnUse"
       id="clipPath38">
      <path
         d="M 0,0 H 1808.3334 V 640.70087 H 0 Z"
         transform="matrix(0.33400586,0,0,0.33400586,-539.65625,-105)"
         clip-rule="evenodd"
         id="path38" />
    </clipPath>
    <clipPath
       clipPathUnits="userSpaceOnUse"
       id="clipPath40">
      <path
         d="M 0,0 H 1808.3334 V 640.70087 H 0 Z"
         transform="matrix(0.33400921,0,0,0.33400921,-0.49999999,-0.49999999)"
         clip-rule="evenodd"
         id="path40" />
    </clipPath>
    <clipPath
       clipPathUnits="userSpaceOnUse"
       id="clipPath42">
      <path
         d="M 0,0 H 1808.3334 V 640.70087 H 0 Z"
         transform="matrix(0.33400921,0,0,0.33400921,-0.49999999,-0.49999999)"
         clip-rule="evenodd"
         id="path42" />
    </clipPath>
    <clipPath
       clipPathUnits="userSpaceOnUse"
       id="clipPath44">
      <path
         d="M 0,0 H 1808.3334 V 640.70087 H 0 Z"
         transform="matrix(0.33400921,0,0,0.33400921,-0.49999999,-0.49999999)"
         clip-rule="evenodd"
         id="path44" />
    </clipPath>
    <clipPath
       clipPathUnits="userSpaceOnUse"
       id="clipPath45">
      <path
         d="M 0,0 H 1808.3334 V 640.70087 H 0 Z"
         transform="matrix(0.33400586,0,0,0.33400586,-248.20313,-78)"
         clip-rule="evenodd"
         id="path45" />
    </clipPath>
    <clipPath
       clipPathUnits="userSpaceOnUse"
       id="clipPath47">
      <path
         d="M 0,0 H 1808.3334 V 640.70087 H 0 Z"
         transform="matrix(0.33400921,0,0,0.33400921,-0.49999999,-0.49999999)"
         clip-rule="evenodd"
         id="path47" />
    </clipPath>
    <clipPath
       clipPathUnits="userSpaceOnUse"
       id="clipPath49">
      <path
         d="M 0,0 H 1808.3334 V 640.70087 H 0 Z"
         transform="matrix(0.33400921,0,0,0.33400921,-0.49999999,-0.49999999)"
         clip-rule="evenodd"
         id="path49" />
    </clipPath>
    <clipPath
       clipPathUnits="userSpaceOnUse"
       id="clipPath51">
      <path
         d="M 0,0 H 1808.3334 V 640.70087 H 0 Z"
         transform="matrix(0.33400921,0,0,0.33400921,-0.49999999,-0.49999999)"
         clip-rule="evenodd"
         id="path51" />
    </clipPath>
    <clipPath
       clipPathUnits="userSpaceOnUse"
       id="clipPath52">
      <path
         d="M 0,0 H 1808.3334 V 640.70087 H 0 Z"
         transform="matrix(0.33400586,0,0,0.33400586,-6.0625,-186)"
         clip-rule="evenodd"
         id="path52" />
    </clipPath>
    <clipPath
       clipPathUnits="userSpaceOnUse"
       id="clipPath54">
      <path
         d="M 0,0 H 1808.3334 V 640.70087 H 0 Z"
         transform="matrix(0.33400921,0,0,0.33400921,-0.49999999,-0.49999999)"
         clip-rule="evenodd"
         id="path54" />
    </clipPath>
    <clipPath
       clipPathUnits="userSpaceOnUse"
       id="clipPath55">
      <path
         d="M 0,0 H 1808.3334 V 640.70087 H 0 Z"
         transform="matrix(0.33400586,0,0,0.33400586,-83.109375,-151)"
         clip-rule="evenodd"
         id="path55" />
    </clipPath>
    <clipPath
       clipPathUnits="userSpaceOnUse"
       id="clipPath57">
      <path
         d="M 0,0 H 1808.3334 V 640.70087 H 0 Z"
         transform="matrix(0.33400921,0,0,0.33400921,-0.49999999,-0.49999999)"
         clip-rule="evenodd"
         id="path57" />
    </clipPath>
    <clipPath
       clipPathUnits="userSpaceOnUse"
       id="clipPath59">
      <path
         d="M 0,0 H 1808.3334 V 640.70087 H 0 Z"
         transform="matrix(0.33400921,0,0,0.33400921,-0.49999999,-0.49999999)"
         clip-rule="evenodd"
         id="path59" />
    </clipPath>
    <clipPath
       clipPathUnits="userSpaceOnUse"
       id="clipPath61">
      <path
         d="M 0,0 H 1808.3334 V 640.70087 H 0 Z"
         transform="matrix(0.33400921,0,0,0.33400921,-0.49999999,-0.49999999)"
         clip-rule="evenodd"
         id="path61" />
    </clipPath>
    <clipPath
       clipPathUnits="userSpaceOnUse"
       id="clipPath62">
      <path
         d="M 0,0 H 1808.3334 V 640.70087 H 0 Z"
         transform="matrix(0.33400586,0,0,0.33400586,-248.20313,-188)"
         clip-rule="evenodd"
         id="path62" />
    </clipPath>
  </defs>
  <sodipodi:namedview
     id="namedview1"
     pagecolor="#ffffff"
     bordercolor="#000000"
     borderopacity="0.25"
     inkscape:showpageshadow="2"
     inkscape:pageopacity="0.0"
     inkscape:pagecheckerboard="0"
     inkscape:deskcolor="#d1d1d1">
    <inkscape:page
       x="0"
       y="0"
       inkscape:label="1"
       id="page1"
       width="578.56"
       height="206.71999"
       margin="0"
       bleed="0" />
  </sodipodi:namedview>
  <g
     id="g1"
     inkscape:groupmode="layer"
     inkscape:label="1">
    <path
       id="path1"
       d="M 0,0 H 604 V 215 H 0 Z"
       style="fill:#ffffff;fill-opacity:1;fill-rule:nonzero;stroke:none"
       transform="scale(0.95805737)"
       clip-path="url(#clipPath2)" />
    <path
       id="path3"
       d="m 191,71 h 20 -10 13.63"
       style="fill:none;stroke:#000000;stroke-width:1;stroke-linecap:butt;stroke-linejoin:miter;stroke-miterlimit:10;stroke-dasharray:none;stroke-opacity:1"
       transform="matrix(0.95805737,0,0,0.95805737,0.47902868,0.47902868)"
       clip-path="url(#clipPath4)" />
    <path
       id="path5"
       d="m 219.88,71 -7,3.5 1.75,-3.5 -1.75,-3.5 z"
       style="fill:#000000;fill-opacity:1;fill-rule:nonzero;stroke:#000000;stroke-width:1;stroke-linecap:butt;stroke-linejoin:miter;stroke-miterlimit:10;stroke-dasharray:none;stroke-opacity:1"
       transform="matrix(0.95805737,0,0,0.95805737,0.47902868,0.47902868)"
       clip-path="url(#clipPath6)" />
    <path
       id="path7"
       d="M 1,51 H 191 V 91 H 1 Z"
       style="fill:#ffffff;fill-opacity:1;fill-rule:nonzero;stroke:#000000;stroke-width:1;stroke-linecap:butt;stroke-linejoin:miter;stroke-miterlimit:10;stroke-dasharray:none;stroke-opacity:1"
       transform="matrix(0.95805737,0,0,0.95805737,0.47902868,0.47902868)"
       clip-path="url(#clipPath8)" />
    <text
       id="text8"
       xml:space="preserve"
       transform="matrix(0.95806697,0,0,0.95806697,5.808281,72.81309)"
       clip-path="url(#clipPath9)"><tspan
         style="font-variant:normal;font-weight:normal;font-size:13px;font-family:Helvetica;writing-mode:lr-tb;fill:#000000;fill-opacity:1;fill-rule:nonzero;stroke:none"
         x="0 2.8881836 6.5 10.829102 13.311035 20.541016 27.770996 35.000977 42.230957 45.119141 52.349121 58.849121 62.460938 69.690918 73.302734 77.631836 84.861816 92.091797 99.321777 106.55176 113.05176 116.66357 120.27539 123.88721 131.11719 134.729 141.229 144.11719 151.34717 158.57715 165.80713 173.03711 175.51904"
         y="0"
         sodipodi:role="line"
         id="tspan8">it('handles a request to signup')</tspan></text>
    <path
       id="path10"
       d="M 1,21 H 191 V 51 H 1 Z"
       style="fill:#ffffff;fill-opacity:1;fill-rule:nonzero;stroke:#000000;stroke-width:1;stroke-linecap:butt;stroke-linejoin:miter;stroke-miterlimit:10;stroke-dasharray:none;stroke-opacity:1"
       transform="matrix(0.95805737,0,0,0.95805737,0.47902868,0.47902868)"
       clip-path="url(#clipPath11)" />
    <text
       id="text11"
       xml:space="preserve"
       transform="matrix(0.95806697,0,0,0.95806697,79.624347,39.280746)"
       clip-path="url(#clipPath12)"><tspan
         style="font-variant:normal;font-weight:700;font-size:13px;font-family:Helvetica;writing-mode:lr-tb;fill:#000000;fill-opacity:1;fill-rule:nonzero;stroke:none"
         x="0 6.9824219 14.212402 21.442383"
         y="0"
         sodipodi:role="line"
         id="tspan11">Test</tspan></text>
    <path
       id="path13"
       d="M 371,1 H 601 V 31 H 371 Z"
       style="fill:#dae8fc;fill-opacity:1;fill-rule:nonzero;stroke:#6c8ebf;stroke-width:1;stroke-linecap:butt;stroke-linejoin:miter;stroke-miterlimit:10;stroke-dasharray:none;stroke-opacity:1"
       transform="matrix(0.95805737,0,0,0.95805737,0.47902868,0.47902868)"
       clip-path="url(#clipPath14)" />
    <text
       id="text14"
       xml:space="preserve"
       transform="matrix(0.95806697,0,0,0.95806697,425.35179,21.077473)"
       clip-path="url(#clipPath15)"><tspan
         style="font-variant:normal;font-weight:700;font-size:17px;font-family:Helvetica;writing-mode:lr-tb;fill:#000000;fill-opacity:1;fill-rule:nonzero;stroke:none"
         x="0 11.338867 24.562012 34.946289 39.669434 45.330566 54.785156 59.508301 71.785156"
         y="0"
         sodipodi:role="line"
         id="tspan14">SQLite DB</tspan></text>
    <path
       id="path16"
       d="M 371,31 H 601 V 171 H 371 Z"
       style="fill:#dae8fc;fill-opacity:1;fill-rule:nonzero;stroke:#6c8ebf;stroke-width:1;stroke-linecap:butt;stroke-linejoin:miter;stroke-miterlimit:10;stroke-dasharray:none;stroke-opacity:1"
       transform="matrix(0.95805737,0,0,0.95805737,0.47902868,0.47902868)"
       clip-path="url(#clipPath17)" />
    <path
       id="path18"
       d="M 381,41 H 591 V 71 H 381 Z"
       style="fill:#d5e8d4;fill-opacity:1;fill-rule:nonzero;stroke:#82b366;stroke-width:1;stroke-linecap:butt;stroke-linejoin:miter;stroke-miterlimit:10;stroke-dasharray:none;stroke-opacity:1"
       transform="matrix(0.95805737,0,0,0.95805737,0.47902868,0.47902868)"
       clip-path="url(#clipPath19)" />
    <text
       id="text19"
       xml:space="preserve"
       transform="matrix(0.95806697,0,0,0.95806697,422.76202,59.400152)"
       clip-path="url(#clipPath20)"><tspan
         style="font-variant:normal;font-weight:normal;font-size:17px;font-family:Helvetica;writing-mode:lr-tb;fill:#000000;fill-opacity:1;fill-rule:nonzero;stroke:none"
         x="0 12.276855 20.776855 30.231445 35.892578 44.392578 48.816895 57.316895 66.771484 76.226074 80.00293"
         y="0"
         sodipodi:role="line"
         id="tspan19">Users Table</tspan></text>
    <path
       id="path21"
       d="m 381,71 h 40 v 20 h -40 z"
       style="fill:#f5f5f5;fill-opacity:1;fill-rule:nonzero;stroke:#666666;stroke-width:1;stroke-linecap:butt;stroke-linejoin:miter;stroke-miterlimit:10;stroke-dasharray:none;stroke-opacity:1"
       transform="matrix(0.95805737,0,0,0.95805737,0.47902868,0.47902868)"
       clip-path="url(#clipPath22)" />
    <text
       id="text22"
       xml:space="preserve"
       transform="matrix(0.95806697,0,0,0.95806697,379.70889,81.435692)"
       clip-path="url(#clipPath23)"><tspan
         style="font-style:oblique;font-variant:normal;font-weight:normal;font-size:12px;font-family:Helvetica;writing-mode:lr-tb;fill:#333333;fill-opacity:1;fill-rule:nonzero;stroke:none"
         x="0 2.6660156"
         y="0"
         sodipodi:role="line"
         id="tspan22">id</tspan></text>
    <path
       id="path24"
       d="m 421,71 h 90 v 20 h -90 z"
       style="fill:#f5f5f5;fill-opacity:1;fill-rule:nonzero;stroke:#666666;stroke-width:1;stroke-linecap:butt;stroke-linejoin:miter;stroke-miterlimit:10;stroke-dasharray:none;stroke-opacity:1"
       transform="matrix(0.95805737,0,0,0.95805737,0.47902868,0.47902868)"
       clip-path="url(#clipPath25)" />
    <text
       id="text25"
       xml:space="preserve"
       transform="matrix(0.95806697,0,0,0.95806697,432.71693,81.435692)"
       clip-path="url(#clipPath26)"><tspan
         style="font-style:oblique;font-variant:normal;font-weight:normal;font-size:12px;font-family:Helvetica;writing-mode:lr-tb;fill:#333333;fill-opacity:1;fill-rule:nonzero;stroke:none"
         x="0 6.6738281 16.669922 23.34375 26.009766"
         y="0"
         sodipodi:role="line"
         id="tspan25">email</tspan></text>
    <path
       id="path27"
       d="m 511.01001,71 h 80 v 20 h -80 z"
       style="fill:#f5f5f5;fill-opacity:1;fill-rule:nonzero;stroke:#666666;stroke-width:1;stroke-linecap:butt;stroke-linejoin:miter;stroke-miterlimit:10;stroke-dasharray:none;stroke-opacity:1"
       transform="matrix(0.95805737,0,0,0.95805737,0.47902868,0.47902868)"
       clip-path="url(#clipPath28)" />
    <text
       id="text28"
       xml:space="preserve"
       transform="matrix(0.95806697,0,0,0.95806697,503.28455,81.435692)"
       clip-path="url(#clipPath29)"><tspan
         style="font-style:oblique;font-variant:normal;font-weight:normal;font-size:12px;font-family:Helvetica;writing-mode:lr-tb;fill:#333333;fill-opacity:1;fill-rule:nonzero;stroke:none"
         x="0 6.6738281 13.347656 19.347656 25.347656 34.013672 40.6875 44.683594"
         y="0"
         sodipodi:role="line"
         id="tspan28">password</tspan></text>
    <path
       id="path30"
       d="m 381,91 h 40 v 20 h -40 z"
       style="fill:#ffffff;fill-opacity:1;fill-rule:nonzero;stroke:#000000;stroke-width:1;stroke-linecap:butt;stroke-linejoin:miter;stroke-miterlimit:10;stroke-dasharray:none;stroke-opacity:1"
       transform="matrix(0.95805737,0,0,0.95805737,0.47902868,0.47902868)"
       clip-path="url(#clipPath31)" />
    <text
       id="text31"
       xml:space="preserve"
       transform="matrix(0.95806697,0,0,0.95806697,380.98132,100.59703)"
       clip-path="url(#clipPath32)"><tspan
         style="font-variant:normal;font-weight:normal;font-size:12px;font-family:Helvetica;writing-mode:lr-tb;fill:#000000;fill-opacity:1;fill-rule:nonzero;stroke:none"
         x="0"
         y="0"
         id="tspan31">1</tspan></text>
    <path
       id="path33"
       d="m 421,91 h 90 v 20 h -90 z"
       style="fill:#ffffff;fill-opacity:1;fill-rule:nonzero;stroke:#000000;stroke-width:1;stroke-linecap:butt;stroke-linejoin:miter;stroke-miterlimit:10;stroke-dasharray:none;stroke-opacity:1"
       transform="matrix(0.95805737,0,0,0.95805737,0.47902868,0.47902868)"
       clip-path="url(#clipPath34)" />
    <g
       id="g34" />
    <text
       id="text34"
       xml:space="preserve"
       transform="matrix(0.95806697,0,0,0.95806697,395.57687,100.59703)"
       clip-path="url(#clipPath35)"><tspan
         style="font-variant:normal;font-weight:normal;font-size:12px;font-family:Helvetica;writing-mode:lr-tb;fill:#000000;fill-opacity:1;fill-rule:nonzero;stroke:none"
         x="0 6.6738281 12.673828 19.347656 22.013672 25.347656 31.347656 34.013672 46.195312 52.869141 58.869141 65.542969 71.542969 77.542969 80.208984 83.542969 89.542969 96.216797"
         y="0"
         sodipodi:role="line"
         id="tspan34">asdlfkj@asdﬂkj.com</tspan></text>
    <path
       id="path36"
       d="m 511.01001,91 h 80 v 20 h -80 z"
       style="fill:#ffffff;fill-opacity:1;fill-rule:nonzero;stroke:#000000;stroke-width:1;stroke-linecap:butt;stroke-linejoin:miter;stroke-miterlimit:10;stroke-dasharray:none;stroke-opacity:1"
       transform="matrix(0.95805737,0,0,0.95805737,0.47902868,0.47902868)"
       clip-path="url(#clipPath37)" />
    <text
       id="text37"
       xml:space="preserve"
       transform="matrix(0.95806697,0,0,0.95806697,517.02683,100.59703)"
       clip-path="url(#clipPath38)"><tspan
         style="font-variant:normal;font-weight:normal;font-size:12px;font-family:Helvetica;writing-mode:lr-tb;fill:#000000;fill-opacity:1;fill-rule:nonzero;stroke:none"
         x="0 6.6738281 12.673828 19.347656"
         y="0"
         sodipodi:role="line"
         id="tspan37">asdf</tspan></text>
    <path
       id="path39"
       d="m 311,71 h 30 v 30 h 23.64001"
       style="fill:none;stroke:#000000;stroke-width:1;stroke-linecap:butt;stroke-linejoin:miter;stroke-miterlimit:10;stroke-dasharray:none;stroke-opacity:1"
       transform="matrix(0.95805737,0,0,0.95805737,0.47902868,0.47902868)"
       clip-path="url(#clipPath40)" />
    <path
       id="path41"
       d="m 369.89001,101 -7,3.5 1.75,-3.5 -1.75,-3.5 z"
       style="fill:#000000;fill-opacity:1;fill-rule:nonzero;stroke:#000000;stroke-width:1;stroke-linecap:butt;stroke-linejoin:miter;stroke-miterlimit:10;stroke-dasharray:none;stroke-opacity:1"
       transform="matrix(0.95805737,0,0,0.95805737,0.47902868,0.47902868)"
       clip-path="url(#clipPath42)" />
    <path
       id="path43"
       d="m 221,41 h 90 v 60 h -90 z"
       style="fill:#f5f5f5;fill-opacity:1;fill-rule:nonzero;stroke:#666666;stroke-width:1;stroke-linecap:butt;stroke-linejoin:miter;stroke-miterlimit:10;stroke-dasharray:none;stroke-opacity:1"
       transform="matrix(0.95805737,0,0,0.95805737,0.47902868,0.47902868)"
       clip-path="url(#clipPath44)" />
    <text
       id="text44"
       xml:space="preserve"
       transform="matrix(0.95806697,0,0,0.95806697,237.79522,74.729224)"
       clip-path="url(#clipPath45)"><tspan
         style="font-variant:normal;font-weight:normal;font-size:20px;font-family:Helvetica;writing-mode:lr-tb;fill:#333333;fill-opacity:1;fill-rule:nonzero;stroke:none"
         x="0 13.339844 24.462891"
         y="0"
         sodipodi:role="line"
         id="tspan44">App</tspan></text>
    <path
       id="path46"
       d="m 191,181 h 20 -10 13.63"
       style="fill:none;stroke:#000000;stroke-width:1;stroke-linecap:butt;stroke-linejoin:miter;stroke-miterlimit:10;stroke-dasharray:none;stroke-opacity:1"
       transform="matrix(0.95805737,0,0,0.95805737,0.47902868,0.47902868)"
       clip-path="url(#clipPath47)" />
    <path
       id="path48"
       d="m 219.88,181 -7,3.5 1.75,-3.5 -1.75,-3.5 z"
       style="fill:#000000;fill-opacity:1;fill-rule:nonzero;stroke:#000000;stroke-width:1;stroke-linecap:butt;stroke-linejoin:miter;stroke-miterlimit:10;stroke-dasharray:none;stroke-opacity:1"
       transform="matrix(0.95805737,0,0,0.95805737,0.47902868,0.47902868)"
       clip-path="url(#clipPath49)" />
    <path
       id="path50"
       d="m 1,161 h 190 v 40 H 1 Z"
       style="fill:#ffffff;fill-opacity:1;fill-rule:nonzero;stroke:#000000;stroke-width:1;stroke-linecap:butt;stroke-linejoin:miter;stroke-miterlimit:10;stroke-dasharray:none;stroke-opacity:1"
       transform="matrix(0.95805737,0,0,0.95805737,0.47902868,0.47902868)"
       clip-path="url(#clipPath51)" />
    <text
       id="text51"
       xml:space="preserve"
       transform="matrix(0.95806697,0,0,0.95806697,5.808281,178.20046)"
       clip-path="url(#clipPath52)"><tspan
         style="font-variant:normal;font-weight:normal;font-size:13px;font-family:Helvetica;writing-mode:lr-tb;fill:#000000;fill-opacity:1;fill-rule:nonzero;stroke:none"
         x="0 2.8881836 6.5 10.829102 13.311035 20.541016 27.770996 35.000977 42.230957 45.119141 52.349121 58.849121 62.460938 69.690918 73.302734 77.631836 84.861816 92.091797 99.321777 106.55176 113.05176 116.66357 120.27539 123.88721 131.11719 134.729 141.229 144.11719 151.34717 158.57715 165.80713 173.03711 175.51904"
         y="0"
         sodipodi:role="line"
         id="tspan51">it('handles a request to signup')</tspan></text>
    <path
       id="path53"
       d="m 1,131 h 190 v 30 H 1 Z"
       style="fill:#ffffff;fill-opacity:1;fill-rule:nonzero;stroke:#000000;stroke-width:1;stroke-linecap:butt;stroke-linejoin:miter;stroke-miterlimit:10;stroke-dasharray:none;stroke-opacity:1"
       transform="matrix(0.95805737,0,0,0.95805737,0.47902868,0.47902868)"
       clip-path="url(#clipPath54)" />
    <text
       id="text54"
       xml:space="preserve"
       transform="matrix(0.95806697,0,0,0.95806697,79.624347,144.66811)"
       clip-path="url(#clipPath55)"><tspan
         style="font-variant:normal;font-weight:700;font-size:13px;font-family:Helvetica;writing-mode:lr-tb;fill:#000000;fill-opacity:1;fill-rule:nonzero;stroke:none"
         x="0 6.9824219 14.212402 21.442383"
         y="0"
         sodipodi:role="line"
         id="tspan54">Test</tspan></text>
    <path
       id="path56"
       d="m 311,181 h 30 v -80 h 23.64001"
       style="fill:none;stroke:#000000;stroke-width:1;stroke-linecap:butt;stroke-linejoin:miter;stroke-miterlimit:10;stroke-dasharray:none;stroke-opacity:1"
       transform="matrix(0.95805737,0,0,0.95805737,0.47902868,0.47902868)"
       clip-path="url(#clipPath57)" />
    <path
       id="path58"
       d="m 369.89001,101 -7,3.5 1.75,-3.5 -1.75,-3.5 z"
       style="fill:#000000;fill-opacity:1;fill-rule:nonzero;stroke:#000000;stroke-width:1;stroke-linecap:butt;stroke-linejoin:miter;stroke-miterlimit:10;stroke-dasharray:none;stroke-opacity:1"
       transform="matrix(0.95805737,0,0,0.95805737,0.47902868,0.47902868)"
       clip-path="url(#clipPath59)" />
    <path
       id="path60"
       d="m 221,151 h 90 v 60 h -90 z"
       style="fill:#f5f5f5;fill-opacity:1;fill-rule:nonzero;stroke:#666666;stroke-width:1;stroke-linecap:butt;stroke-linejoin:miter;stroke-miterlimit:10;stroke-dasharray:none;stroke-opacity:1"
       transform="matrix(0.95805737,0,0,0.95805737,0.47902868,0.47902868)"
       clip-path="url(#clipPath61)" />
    <text
       id="text61"
       xml:space="preserve"
       transform="matrix(0.95806697,0,0,0.95806697,237.79522,180.11659)"
       clip-path="url(#clipPath62)"><tspan
         style="font-variant:normal;font-weight:normal;font-size:20px;font-family:Helvetica;writing-mode:lr-tb;fill:#333333;fill-opacity:1;fill-rule:nonzero;stroke:none"
         x="0 13.339844 24.462891"
         y="0"
         sodipodi:role="line"
         id="tspan61">App</tspan></text>
  </g>
</svg>
