<?xml version="1.0" encoding="UTF-8" standalone="no"?>
<!-- Created with Inkscape (http://www.inkscape.org/) -->

<svg
   version="1.1"
   id="svg1"
   width="329.28"
   height="147.84"
   viewBox="0 0 329.28 147.84"
   sodipodi:docname="nest-1.pdf"
   xmlns:inkscape="http://www.inkscape.org/namespaces/inkscape"
   xmlns:sodipodi="http://sodipodi.sourceforge.net/DTD/sodipodi-0.dtd"
   xmlns="http://www.w3.org/2000/svg"
   xmlns:svg="http://www.w3.org/2000/svg">
  <defs
     id="defs1">
    <clipPath
       clipPathUnits="userSpaceOnUse"
       id="clipPath2">
      <path
         d="M 0,0 H 1029.1666 V 460.73157 H 0 Z"
         transform="scale(0.33425103)"
         clip-rule="evenodd"
         id="path2" />
    </clipPath>
    <clipPath
       clipPathUnits="userSpaceOnUse"
       id="clipPath4">
      <path
         d="M 0,0 H 1029.1666 V 460.73157 H 0 Z"
         transform="matrix(0.33425103,0,0,0.33425103,-0.49999999,-0.49999999)"
         clip-rule="evenodd"
         id="path4" />
    </clipPath>
    <clipPath
       clipPathUnits="userSpaceOnUse"
       id="clipPath5">
      <path
         d="M 0,0 H 1029.1666 V 460.73157 H 0 Z"
         transform="matrix(0.33424768,0,0,0.33424768,-19.65625,-116)"
         clip-rule="evenodd"
         id="path5" />
    </clipPath>
    <clipPath
       clipPathUnits="userSpaceOnUse"
       id="clipPath6">
      <path
         d="M 0,0 H 1029.1666 V 460.73157 H 0 Z"
         transform="matrix(0.33424768,0,0,0.33424768,-33.140625,-136)"
         clip-rule="evenodd"
         id="path6" />
    </clipPath>
    <clipPath
       clipPathUnits="userSpaceOnUse"
       id="clipPath8">
      <path
         d="M 0,0 H 1029.1666 V 460.73157 H 0 Z"
         transform="matrix(0.33425103,0,0,0.33425103,-0.49999999,-0.49999999)"
         clip-rule="evenodd"
         id="path8" />
    </clipPath>
    <clipPath
       clipPathUnits="userSpaceOnUse"
       id="clipPath10">
      <path
         d="M 0,0 H 1029.1666 V 460.73157 H 0 Z"
         transform="matrix(0.33425103,0,0,0.33425103,-0.49999999,-0.49999999)"
         clip-rule="evenodd"
         id="path10" />
    </clipPath>
    <clipPath
       clipPathUnits="userSpaceOnUse"
       id="clipPath12">
      <path
         d="M 0,0 H 1029.1666 V 460.73157 H 0 Z"
         transform="matrix(0.33425103,0,0,0.33425103,-0.49999999,-0.49999999)"
         clip-rule="evenodd"
         id="path12" />
    </clipPath>
    <clipPath
       clipPathUnits="userSpaceOnUse"
       id="clipPath13">
      <path
         d="M 0,0 H 1029.1666 V 460.73157 H 0 Z"
         transform="matrix(0.33424768,0,0,0.33424768,-15.359375,-36)"
         clip-rule="evenodd"
         id="path13" />
    </clipPath>
    <clipPath
       clipPathUnits="userSpaceOnUse"
       id="clipPath15">
      <path
         d="M 0,0 H 1029.1666 V 460.73157 H 0 Z"
         transform="matrix(0.33425103,0,0,0.33425103,-0.49999999,-0.49999999)"
         clip-rule="evenodd"
         id="path15" />
    </clipPath>
    <clipPath
       clipPathUnits="userSpaceOnUse"
       id="clipPath16">
      <path
         d="M 0,0 H 1029.1666 V 460.73157 H 0 Z"
         transform="matrix(0.33424768,0,0,0.33424768,-154.9375,-28)"
         clip-rule="evenodd"
         id="path16" />
    </clipPath>
    <clipPath
       clipPathUnits="userSpaceOnUse"
       id="clipPath17">
      <path
         d="M 0,0 H 1029.1666 V 460.73157 H 0 Z"
         transform="matrix(0.33424768,0,0,0.33424768,-161.95313,-42.999999)"
         clip-rule="evenodd"
         id="path17" />
    </clipPath>
    <clipPath
       clipPathUnits="userSpaceOnUse"
       id="clipPath19">
      <path
         d="M 0,0 H 1029.1666 V 460.73157 H 0 Z"
         transform="matrix(0.33425103,0,0,0.33425103,-0.49999999,-0.49999999)"
         clip-rule="evenodd"
         id="path19" />
    </clipPath>
    <clipPath
       clipPathUnits="userSpaceOnUse"
       id="clipPath21">
      <path
         d="M 0,0 H 1029.1666 V 460.73157 H 0 Z"
         transform="matrix(0.33425103,0,0,0.33425103,-0.49999999,-0.49999999)"
         clip-rule="evenodd"
         id="path21" />
    </clipPath>
    <clipPath
       clipPathUnits="userSpaceOnUse"
       id="clipPath23">
      <path
         d="M 0,0 H 1029.1666 V 460.73157 H 0 Z"
         transform="matrix(0.33425103,0,0,0.33425103,-0.49999999,-0.49999999)"
         clip-rule="evenodd"
         id="path23" />
    </clipPath>
    <clipPath
       clipPathUnits="userSpaceOnUse"
       id="clipPath24">
      <path
         d="M 0,0 H 1029.1666 V 460.73157 H 0 Z"
         transform="matrix(0.33424768,0,0,0.33424768,-171.28125,-125)"
         clip-rule="evenodd"
         id="path24" />
    </clipPath>
  </defs>
  <sodipodi:namedview
     id="namedview1"
     pagecolor="#ffffff"
     bordercolor="#000000"
     borderopacity="0.25"
     inkscape:showpageshadow="2"
     inkscape:pageopacity="0.0"
     inkscape:pagecheckerboard="0"
     inkscape:deskcolor="#d1d1d1">
    <inkscape:page
       x="0"
       y="0"
       inkscape:label="1"
       id="page1"
       width="329.28"
       height="147.84"
       margin="0"
       bleed="0" />
  </sodipodi:namedview>
  <g
     id="g1"
     inkscape:groupmode="layer"
     inkscape:label="1">
    <path
       id="path1"
       d="M 0,0 H 344 V 154 H 0 Z"
       style="fill:#ffffff;fill-opacity:1;fill-rule:nonzero;stroke:none"
       transform="scale(0.95736425)"
       clip-path="url(#clipPath2)" />
    <path
       id="path3"
       d="m 1,91 h 120 v 60 H 1 Z"
       style="fill:#dae8fc;fill-opacity:1;fill-rule:nonzero;stroke:#6c8ebf;stroke-width:1;stroke-linecap:butt;stroke-linejoin:miter;stroke-miterlimit:10;stroke-dasharray:none;stroke-opacity:1"
       transform="matrix(0.95736425,0,0,0.95736425,0.47868212,0.47868212)"
       clip-path="url(#clipPath4)" />
    <text
       id="text4"
       xml:space="preserve"
       transform="matrix(0.95737385,0,0,0.95737385,18.81838,111.05537)"
       clip-path="url(#clipPath5)"><tspan
         style="font-variant:normal;font-weight:700;font-size:16px;font-family:Helvetica;writing-mode:lr-tb;fill:#000000;fill-opacity:1;fill-rule:nonzero;stroke:none"
         x="0 4.4453125 14.21875 19.546875 28.445312 38.21875 44.445312 53.34375 58.671875 63.117188 72.890625"
         y="0"
         sodipodi:role="line"
         id="tspan4">Integration</tspan></text>
    <text
       id="text5"
       xml:space="preserve"
       transform="matrix(0.95737385,0,0,0.95737385,31.727968,130.20284)"
       clip-path="url(#clipPath6)"><tspan
         style="font-variant:normal;font-weight:700;font-size:16px;font-family:Helvetica;writing-mode:lr-tb;fill:#000000;fill-opacity:1;fill-rule:nonzero;stroke:none"
         x="0 8.59375 17.492188 26.390625 31.71875 36.164062 45.9375"
         y="0"
         sodipodi:role="line"
         id="tspan5">Testing</tspan></text>
    <path
       id="path7"
       d="m 121,31 h 20 -10 13.63"
       style="fill:none;stroke:#000000;stroke-width:1;stroke-linecap:butt;stroke-linejoin:miter;stroke-miterlimit:10;stroke-dasharray:none;stroke-opacity:1"
       transform="matrix(0.95736425,0,0,0.95736425,0.47868212,0.47868212)"
       clip-path="url(#clipPath8)" />
    <path
       id="path9"
       d="m 149.88,31 -7,3.5 1.75,-3.5 -1.75,-3.5 z"
       style="fill:#000000;fill-opacity:1;fill-rule:nonzero;stroke:#000000;stroke-width:1;stroke-linecap:butt;stroke-linejoin:miter;stroke-miterlimit:10;stroke-dasharray:none;stroke-opacity:1"
       transform="matrix(0.95736425,0,0,0.95736425,0.47868212,0.47868212)"
       clip-path="url(#clipPath10)" />
    <path
       id="path11"
       d="M 1,1 H 121 V 61 H 1 Z"
       style="fill:#dae8fc;fill-opacity:1;fill-rule:nonzero;stroke:#6c8ebf;stroke-width:1;stroke-linecap:butt;stroke-linejoin:miter;stroke-miterlimit:10;stroke-dasharray:none;stroke-opacity:1"
       transform="matrix(0.95736425,0,0,0.95736425,0.47868212,0.47868212)"
       clip-path="url(#clipPath12)" />
    <text
       id="text12"
       xml:space="preserve"
       transform="matrix(0.95737385,0,0,0.95737385,14.704664,34.465459)"
       clip-path="url(#clipPath13)"><tspan
         style="font-variant:normal;font-weight:700;font-size:16px;font-family:Helvetica;writing-mode:lr-tb;fill:#000000;fill-opacity:1;fill-rule:nonzero;stroke:none"
         x="0 11.554688 21.328125 25.773438 31.101562 35.546875 44.140625 53.039062 61.9375 67.265625 71.710938 81.484375"
         y="0"
         sodipodi:role="line"
         id="tspan12">Unit Testing</tspan></text>
    <path
       id="path14"
       d="M 151,1 H 341 V 61 H 151 Z"
       style="fill:#f5f5f5;fill-opacity:1;fill-rule:nonzero;stroke:#666666;stroke-width:1;stroke-linecap:butt;stroke-linejoin:miter;stroke-miterlimit:10;stroke-dasharray:none;stroke-opacity:1"
       transform="matrix(0.95736425,0,0,0.95736425,0.47868212,0.47868212)"
       clip-path="url(#clipPath15)" />
    <text
       id="text15"
       xml:space="preserve"
       transform="matrix(0.95737385,0,0,0.95737385,148.33311,26.806468)"
       clip-path="url(#clipPath16)"><tspan
         style="font-variant:normal;font-weight:normal;font-size:12px;font-family:Helvetica;writing-mode:lr-tb;fill:#333333;fill-opacity:1;fill-rule:nonzero;stroke:none"
         x="0 9.9960938 16.669922 22.669922 29.34375 32.677734 38.677734 45.351562 49.347656 56.021484 59.355469 62.689453 69.363281 76.037109 79.371094 82.705078 85.371094 92.044922 98.71875 101.38477 107.38477 110.05078 116.72461 123.39844 130.07227 132.73828 136.07227 146.06836 152.74219 156.07617 162.75 169.42383 176.09766"
         y="0"
         sodipodi:role="line"
         id="tspan15">Make sure that individual methods</tspan></text>
    <text
       id="text16"
       xml:space="preserve"
       transform="matrix(0.95737385,0,0,0.95737385,155.04969,41.167075)"
       clip-path="url(#clipPath17)"><tspan
         style="font-variant:normal;font-weight:normal;font-size:12px;font-family:Helvetica;writing-mode:lr-tb;fill:#333333;fill-opacity:1;fill-rule:nonzero;stroke:none"
         x="0 6.6738281 13.347656 16.681641 23.355469 26.689453 32.689453 35.355469 42.029297 48.029297 54.029297 57.363281 64.037109 68.033203 74.707031 78.041016 86.707031 93.380859 97.376953 103.37695 106.04297 112.7168 119.39062 122.72461 128.72461 135.39844 139.39453 143.39062 150.06445 156.06445 159.39844 162.06445"
         y="0"
         sodipodi:role="line"
         id="tspan16">on a class are working correctly</tspan></text>
    <path
       id="path18"
       d="m 121,121 21,0.5 2.64,-0.15"
       style="fill:none;stroke:#000000;stroke-width:1;stroke-linecap:butt;stroke-linejoin:miter;stroke-miterlimit:10;stroke-dasharray:none;stroke-opacity:1"
       transform="matrix(0.95736425,0,0,0.95736425,0.47868212,0.47868212)"
       clip-path="url(#clipPath19)" />
    <path
       id="path20"
       d="m 149.89,121.06 -6.8,3.88 1.55,-3.59 -1.94,-3.39 z"
       style="fill:#000000;fill-opacity:1;fill-rule:nonzero;stroke:#000000;stroke-width:1;stroke-linecap:butt;stroke-linejoin:miter;stroke-miterlimit:10;stroke-dasharray:none;stroke-opacity:1"
       transform="matrix(0.95736425,0,0,0.95736425,0.47868212,0.47868212)"
       clip-path="url(#clipPath21)" />
    <path
       id="path22"
       d="m 151,91 h 190 v 60 H 151 Z"
       style="fill:#f5f5f5;fill-opacity:1;fill-rule:nonzero;stroke:#666666;stroke-width:1;stroke-linecap:butt;stroke-linejoin:miter;stroke-miterlimit:10;stroke-dasharray:none;stroke-opacity:1"
       transform="matrix(0.95736425,0,0,0.95736425,0.47868212,0.47868212)"
       clip-path="url(#clipPath23)" />
    <g
       id="g23" />
    <text
       id="text23"
       xml:space="preserve"
       transform="matrix(0.95737385,0,0,0.95737385,163.98019,119.67173)"
       clip-path="url(#clipPath24)"><tspan
         style="font-variant:normal;font-weight:normal;font-size:12px;font-family:Helvetica;writing-mode:lr-tb;fill:#333333;fill-opacity:1;fill-rule:nonzero;stroke:none"
         x="0 6 12.673828 18.673828 22.007812 25.341797 28.675781 35.349609 42.023438 45.357422 48.691406 55.365234 58.03125 60.697266 64.03125 70.03125 76.705078 85.371094 88.705078 95.378906 98.712891 102.04688 108.7207 112.05469 115.38867 122.0625 128.73633 132.07031 138.74414 142.74023"
         y="0"
         sodipodi:role="line"
         id="tspan23">Test the full ﬂow of a feature</tspan></text>
  </g>
</svg>
