<?xml version="1.0" encoding="UTF-8" standalone="no"?>
<!-- Created with Inkscape (http://www.inkscape.org/) -->

<svg
   version="1.1"
   id="svg1"
   width="501.44"
   height="168"
   viewBox="0 0 501.44 168"
   sodipodi:docname="nest-4.pdf"
   xmlns:inkscape="http://www.inkscape.org/namespaces/inkscape"
   xmlns:sodipodi="http://sodipodi.sourceforge.net/DTD/sodipodi-0.dtd"
   xmlns="http://www.w3.org/2000/svg"
   xmlns:svg="http://www.w3.org/2000/svg">
  <defs
     id="defs1">
    <clipPath
       clipPathUnits="userSpaceOnUse"
       id="clipPath2">
      <path
         d="M 0,0 H 1566.6665 V 523.21881 H 0 Z"
         transform="scale(0.33446811)"
         clip-rule="evenodd"
         id="path2" />
    </clipPath>
    <clipPath
       clipPathUnits="userSpaceOnUse"
       id="clipPath4">
      <path
         d="M 0,0 H 1566.6665 V 520.22894 H 0 Z"
         transform="matrix(0.33446811,0,0,0.33446811,-0.5,-0.5)"
         clip-rule="evenodd"
         id="path4" />
    </clipPath>
    <clipPath
       clipPathUnits="userSpaceOnUse"
       id="clipPath5">
      <path
         d="M 0,0 H 1566.6665 V 520.22894 H 0 Z"
         transform="matrix(0.33446475,0,0,0.33446475,-42.078125,-78)"
         clip-rule="evenodd"
         id="path5" />
    </clipPath>
    <clipPath
       clipPathUnits="userSpaceOnUse"
       id="clipPath7">
      <path
         d="M 0,0 H 1566.6665 V 520.22894 H 0 Z"
         transform="matrix(0.33446811,0,0,0.33446811,-0.5,-0.5)"
         clip-rule="evenodd"
         id="path7" />
    </clipPath>
    <clipPath
       clipPathUnits="userSpaceOnUse"
       id="clipPath9">
      <path
         d="M 0,0 H 1566.6665 V 520.22894 H 0 Z"
         transform="matrix(0.33446811,0,0,0.33446811,-0.5,-0.5)"
         clip-rule="evenodd"
         id="path9" />
    </clipPath>
    <clipPath
       clipPathUnits="userSpaceOnUse"
       id="clipPath11">
      <path
         d="M 0,0 H 1566.6665 V 520.22894 H 0 Z"
         transform="matrix(0.33446811,0,0,0.33446811,-0.5,-0.5)"
         clip-rule="evenodd"
         id="path11" />
    </clipPath>
    <clipPath
       clipPathUnits="userSpaceOnUse"
       id="clipPath13">
      <path
         d="M 0,0 H 1566.6665 V 520.22894 H 0 Z"
         transform="matrix(0.33446811,0,0,0.33446811,-0.5,-0.5)"
         clip-rule="evenodd"
         id="path13" />
    </clipPath>
    <clipPath
       clipPathUnits="userSpaceOnUse"
       id="clipPath14">
      <path
         d="M 0,0 H 1566.6665 V 520.22894 H 0 Z"
         transform="matrix(0.33446475,0,0,0.33446475,-94.421875,-126.00001)"
         clip-rule="evenodd"
         id="path14" />
    </clipPath>
    <clipPath
       clipPathUnits="userSpaceOnUse"
       id="clipPath16">
      <path
         d="M 0,0 H 1566.6665 V 520.22894 H 0 Z"
         transform="matrix(0.33446811,0,0,0.33446811,-0.5,-0.5)"
         clip-rule="evenodd"
         id="path16" />
    </clipPath>
    <clipPath
       clipPathUnits="userSpaceOnUse"
       id="clipPath18">
      <path
         d="M 0,0 H 1566.6665 V 520.22894 H 0 Z"
         transform="matrix(0.33446811,0,0,0.33446811,-0.5,-0.5)"
         clip-rule="evenodd"
         id="path18" />
    </clipPath>
    <clipPath
       clipPathUnits="userSpaceOnUse"
       id="clipPath20">
      <path
         d="M 0,0 H 1566.6665 V 520.22894 H 0 Z"
         transform="matrix(0.33446811,0,0,0.33446811,-0.5,-0.5)"
         clip-rule="evenodd"
         id="path20" />
    </clipPath>
    <clipPath
       clipPathUnits="userSpaceOnUse"
       id="clipPath21">
      <path
         d="M 0,0 H 1566.6665 V 520.22894 H 0 Z"
         transform="matrix(0.33446475,0,0,0.33446475,-14.265625,-126.00001)"
         clip-rule="evenodd"
         id="path21" />
    </clipPath>
    <clipPath
       clipPathUnits="userSpaceOnUse"
       id="clipPath23">
      <path
         d="M 0,0 H 1566.6665 V 520.22894 H 0 Z"
         transform="matrix(0.33446811,0,0,0.33446811,-0.5,-0.5)"
         clip-rule="evenodd"
         id="path23" />
    </clipPath>
    <clipPath
       clipPathUnits="userSpaceOnUse"
       id="clipPath24">
      <path
         d="M 0,0 H 1566.6665 V 520.22894 H 0 Z"
         transform="matrix(0.33446475,0,0,0.33446475,-334.85938,-23.000001)"
         clip-rule="evenodd"
         id="path24" />
    </clipPath>
    <clipPath
       clipPathUnits="userSpaceOnUse"
       id="clipPath26">
      <path
         d="M 0,0 H 1566.6665 V 520.22894 H 0 Z"
         transform="matrix(0.33446811,0,0,0.33446811,-0.5,-0.5)"
         clip-rule="evenodd"
         id="path26" />
    </clipPath>
    <clipPath
       clipPathUnits="userSpaceOnUse"
       id="clipPath28">
      <path
         d="M 0,0 H 1566.6665 V 520.22894 H 0 Z"
         transform="matrix(0.33446811,0,0,0.33446811,-0.5,-0.5)"
         clip-rule="evenodd"
         id="path28" />
    </clipPath>
    <clipPath
       clipPathUnits="userSpaceOnUse"
       id="clipPath29">
      <path
         d="M 0,0 H 1566.6665 V 520.22894 H 0 Z"
         transform="matrix(0.33446475,0,0,0.33446475,-280.78125,-61.000001)"
         clip-rule="evenodd"
         id="path29" />
    </clipPath>
    <clipPath
       clipPathUnits="userSpaceOnUse"
       id="clipPath31">
      <path
         d="M 0,0 H 1566.6665 V 520.22894 H 0 Z"
         transform="matrix(0.33446811,0,0,0.33446811,-0.5,-0.5)"
         clip-rule="evenodd"
         id="path31" />
    </clipPath>
    <clipPath
       clipPathUnits="userSpaceOnUse"
       id="clipPath33">
      <path
         d="M 0,0 H 1566.6665 V 520.22894 H 0 Z"
         transform="matrix(0.33446811,0,0,0.33446811,-0.5,-0.5)"
         clip-rule="evenodd"
         id="path33" />
    </clipPath>
    <clipPath
       clipPathUnits="userSpaceOnUse"
       id="clipPath35">
      <path
         d="M 0,0 H 1566.6665 V 520.22894 H 0 Z"
         transform="matrix(0.33446811,0,0,0.33446811,-0.5,-0.5)"
         clip-rule="evenodd"
         id="path35" />
    </clipPath>
    <clipPath
       clipPathUnits="userSpaceOnUse"
       id="clipPath37">
      <path
         d="M 0,0 H 1566.6665 V 520.22894 H 0 Z"
         transform="matrix(0.33446811,0,0,0.33446811,-0.5,-0.5)"
         clip-rule="evenodd"
         id="path37" />
    </clipPath>
    <clipPath
       clipPathUnits="userSpaceOnUse"
       id="clipPath38">
      <path
         d="M 0,0 H 1566.6665 V 520.22894 H 0 Z"
         transform="matrix(0.33446475,0,0,0.33446475,-284.42189,-111)"
         clip-rule="evenodd"
         id="path38" />
    </clipPath>
    <clipPath
       clipPathUnits="userSpaceOnUse"
       id="clipPath40">
      <path
         d="M 0,0 H 1566.6665 V 520.22894 H 0 Z"
         transform="matrix(0.33446811,0,0,0.33446811,-0.5,-0.5)"
         clip-rule="evenodd"
         id="path40" />
    </clipPath>
    <clipPath
       clipPathUnits="userSpaceOnUse"
       id="clipPath41">
      <path
         d="M 0,0 H 1566.6665 V 520.22894 H 0 Z"
         transform="matrix(0.33446475,0,0,0.33446475,-448.32813,-111)"
         clip-rule="evenodd"
         id="path41" />
    </clipPath>
  </defs>
  <sodipodi:namedview
     id="namedview1"
     pagecolor="#ffffff"
     bordercolor="#000000"
     borderopacity="0.25"
     inkscape:showpageshadow="2"
     inkscape:pageopacity="0.0"
     inkscape:pagecheckerboard="0"
     inkscape:deskcolor="#d1d1d1">
    <inkscape:page
       x="0"
       y="0"
       inkscape:label="1"
       id="page1"
       width="501.44"
       height="168"
       margin="0"
       bleed="0" />
  </sodipodi:namedview>
  <g
     id="g1"
     inkscape:groupmode="layer"
     inkscape:label="1">
    <path
       id="path1"
       d="M 0,0 H 524 V 175 H 0 Z"
       style="fill:#ffffff;fill-opacity:1;fill-rule:nonzero;stroke:none"
       transform="scale(0.9567429)"
       clip-path="url(#clipPath2)" />
    <path
       id="path3"
       d="M 1,56 H 211 V 86 H 1 Z"
       style="fill:#ffe6cc;fill-opacity:1;fill-rule:nonzero;stroke:#d79b00;stroke-width:1;stroke-linecap:butt;stroke-linejoin:miter;stroke-miterlimit:10;stroke-dasharray:none;stroke-opacity:1"
       transform="matrix(0.9567429,0,0,0.9567429,0.47837145,0.47837145)"
       clip-path="url(#clipPath4)" />
    <text
       id="text4"
       xml:space="preserve"
       transform="matrix(0.9567525,0,0,0.9567525,40.258351,74.626695)"
       clip-path="url(#clipPath5)"><tspan
         style="font-variant:normal;font-weight:normal;font-size:20px;font-family:Helvetica;writing-mode:lr-tb;fill:#000000;fill-opacity:1;fill-rule:nonzero;stroke:none"
         x="0 13.339844 24.462891 38.90625 50.029297 56.689453 62.246094 78.90625 90.029297 101.15234 112.27539 116.71875"
         y="0"
         sodipodi:role="line"
         id="tspan4">Power Module</tspan></text>
    <path
       id="path6"
       d="m 211,121 43.63,0.02"
       style="fill:none;stroke:#000000;stroke-width:1;stroke-linecap:butt;stroke-linejoin:miter;stroke-miterlimit:10;stroke-dasharray:none;stroke-opacity:1"
       transform="matrix(0.9567429,0,0,0.9567429,0.47837145,0.47837145)"
       clip-path="url(#clipPath7)" />
    <path
       id="path8"
       d="m 259.88,121.02 -7,3.5 1.75,-3.5 -1.74,-3.5 z"
       style="fill:#000000;fill-opacity:1;fill-rule:nonzero;stroke:#000000;stroke-width:1;stroke-linecap:butt;stroke-linejoin:miter;stroke-miterlimit:10;stroke-dasharray:none;stroke-opacity:1"
       transform="matrix(0.9567429,0,0,0.9567429,0.47837145,0.47837145)"
       clip-path="url(#clipPath9)" />
    <path
       id="path10"
       d="m 1,86 h 210 v 70 H 1 Z"
       style="fill:#ffe6cc;fill-opacity:1;fill-rule:nonzero;stroke:#d79b00;stroke-width:1;stroke-linecap:butt;stroke-linejoin:miter;stroke-miterlimit:10;stroke-dasharray:none;stroke-opacity:1"
       transform="matrix(0.9567429,0,0,0.9567429,0.47837145,0.47837145)"
       clip-path="url(#clipPath11)" />
    <path
       id="path12"
       d="m 91,106 h 110 v 30 H 91 Z"
       style="fill:#f5f5f5;fill-opacity:1;fill-rule:nonzero;stroke:#666666;stroke-width:1;stroke-linecap:butt;stroke-linejoin:miter;stroke-miterlimit:10;stroke-dasharray:none;stroke-opacity:1"
       transform="matrix(0.9567429,0,0,0.9567429,0.47837145,0.47837145)"
       clip-path="url(#clipPath13)" />
    <text
       id="text13"
       xml:space="preserve"
       transform="matrix(0.9567525,0,0,0.9567525,90.338365,120.55082)"
       clip-path="url(#clipPath14)"><tspan
         style="font-variant:normal;font-weight:normal;font-size:16px;font-family:Helvetica;writing-mode:lr-tb;fill:#333333;fill-opacity:1;fill-rule:nonzero;stroke:none"
         x="0 10.671875 19.570312 31.125 40.023438 45.351562 49.796875 60.46875 69.367188 74.695312 82.695312 86.25 94.25"
         y="0"
         sodipodi:role="line"
         id="tspan13">Power Service</tspan></text>
    <path
       id="path15"
       d="M 71,121 H 91 71 84.629997"
       style="fill:none;stroke:#000000;stroke-width:1;stroke-linecap:butt;stroke-linejoin:miter;stroke-miterlimit:10;stroke-dasharray:none;stroke-opacity:1"
       transform="matrix(0.9567429,0,0,0.9567429,0.47837145,0.47837145)"
       clip-path="url(#clipPath16)" />
    <path
       id="path17"
       d="m 89.879997,121 -7,3.5 1.75,-3.5 -1.75,-3.5 z"
       style="fill:#000000;fill-opacity:1;fill-rule:nonzero;stroke:#000000;stroke-width:1;stroke-linecap:butt;stroke-linejoin:miter;stroke-miterlimit:10;stroke-dasharray:none;stroke-opacity:1"
       transform="matrix(0.9567429,0,0,0.9567429,0.47837145,0.47837145)"
       clip-path="url(#clipPath18)" />
    <path
       id="path19"
       d="m 11,106 h 60 v 30 H 11 Z"
       style="fill:#f5f5f5;fill-opacity:1;fill-rule:nonzero;stroke:#666666;stroke-width:1;stroke-linecap:butt;stroke-linejoin:miter;stroke-miterlimit:10;stroke-dasharray:none;stroke-opacity:1"
       transform="matrix(0.9567429,0,0,0.9567429,0.47837145,0.47837145)"
       clip-path="url(#clipPath20)" />
    <text
       id="text20"
       xml:space="preserve"
       transform="matrix(0.9567525,0,0,0.9567525,13.648672,120.55082)"
       clip-path="url(#clipPath21)"><tspan
         style="font-variant:normal;font-weight:normal;font-size:13px;font-family:Helvetica;writing-mode:lr-tb;fill:#333333;fill-opacity:1;fill-rule:nonzero;stroke:none"
         x="0 7.2299805 11.559082 18.789062 25.289062 28.177246 35.407227 42.637207 46.966309"
         y="0"
         sodipodi:role="line"
         id="tspan20">providers</tspan></text>
    <path
       id="path22"
       d="M 261,1 H 521 V 31 H 261 Z"
       style="fill:#dae8fc;fill-opacity:1;fill-rule:nonzero;stroke:#6c8ebf;stroke-width:1;stroke-linecap:butt;stroke-linejoin:miter;stroke-miterlimit:10;stroke-dasharray:none;stroke-opacity:1"
       transform="matrix(0.9567429,0,0,0.9567429,0.47837145,0.47837145)"
       clip-path="url(#clipPath23)" />
    <text
       id="text23"
       xml:space="preserve"
       transform="matrix(0.9567525,0,0,0.9567525,320.37755,22.005308)"
       clip-path="url(#clipPath24)"><tspan
         style="font-variant:normal;font-weight:normal;font-size:20px;font-family:Helvetica;writing-mode:lr-tb;fill:#000000;fill-opacity:1;fill-rule:nonzero;stroke:none"
         x="0 14.443359 20 25.556641 40 51.123047 62.246094 67.802734 78.925781 83.369141 94.492188 105.61523"
         y="0"
         sodipodi:role="line"
         id="tspan23">DI Container</tspan></text>
    <path
       id="path25"
       d="M 261,31 H 521 V 171 H 261 Z"
       style="fill:#dae8fc;fill-opacity:1;fill-rule:nonzero;stroke:#6c8ebf;stroke-width:1;stroke-linecap:butt;stroke-linejoin:miter;stroke-miterlimit:10;stroke-dasharray:none;stroke-opacity:1"
       transform="matrix(0.9567429,0,0,0.9567429,0.47837145,0.47837145)"
       clip-path="url(#clipPath26)" />
    <path
       id="path27"
       d="M 271,41 H 511 V 71 H 271 Z"
       style="fill:#ffffff;fill-opacity:1;fill-rule:nonzero;stroke:#000000;stroke-width:1;stroke-linecap:butt;stroke-linejoin:miter;stroke-miterlimit:10;stroke-dasharray:none;stroke-opacity:1"
       transform="matrix(0.9567429,0,0,0.9567429,0.47837145,0.47837145)"
       clip-path="url(#clipPath28)" />
    <text
       id="text28"
       xml:space="preserve"
       transform="matrix(0.9567525,0,0,0.9567525,268.63816,58.361903)"
       clip-path="url(#clipPath29)"><tspan
         style="font-variant:normal;font-weight:normal;font-size:13px;font-family:Helvetica;writing-mode:lr-tb;fill:#000000;fill-opacity:1;fill-rule:nonzero;stroke:none"
         x="0 7.2299805 10.118164 16.618164 20.22998 23.841797 31.071777 34.683594 38.29541 44.79541 47.683594 54.913574 61.413574 67.913574 75.143555 81.643555 85.255371 92.485352 99.715332 106.94531 110.55713 114.16895 121.39893 128.62891 131.51709 135.84619 139.45801 146.68799 153.91797 161.14795 168.37793 175.60791 182.83789 190.06787 197.29785 203.79785 206.68604 213.91602"
         y="0"
         sodipodi:role="line"
         id="tspan28">List of classes and their dependencies</tspan></text>
    <path
       id="path30"
       d="m 271,71 h 240 v 90 H 271 Z"
       style="fill:#ffffff;fill-opacity:1;fill-rule:nonzero;stroke:#000000;stroke-width:1;stroke-linecap:butt;stroke-linejoin:miter;stroke-miterlimit:10;stroke-dasharray:none;stroke-opacity:1"
       transform="matrix(0.9567429,0,0,0.9567429,0.47837145,0.47837145)"
       clip-path="url(#clipPath31)" />
    <path
       id="path32"
       d="m 391,106 h 20 -20 13.64001"
       style="fill:none;stroke:#000000;stroke-width:1;stroke-linecap:butt;stroke-linejoin:miter;stroke-miterlimit:10;stroke-dasharray:none;stroke-opacity:1"
       transform="matrix(0.9567429,0,0,0.9567429,0.47837145,0.47837145)"
       clip-path="url(#clipPath33)" />
    <path
       id="path34"
       d="m 409.89001,106 -7,3.5 1.75,-3.5 -1.75,-3.5 z"
       style="fill:#000000;fill-opacity:1;fill-rule:nonzero;stroke:#000000;stroke-width:1;stroke-linecap:butt;stroke-linejoin:miter;stroke-miterlimit:10;stroke-dasharray:none;stroke-opacity:1"
       transform="matrix(0.9567429,0,0,0.9567429,0.47837145,0.47837145)"
       clip-path="url(#clipPath35)" />
    <path
       id="path36"
       d="m 281,91 h 110 v 30 H 281 Z"
       style="fill:#f5f5f5;fill-opacity:1;fill-rule:nonzero;stroke:#666666;stroke-width:1;stroke-linecap:butt;stroke-linejoin:miter;stroke-miterlimit:10;stroke-dasharray:none;stroke-opacity:1"
       transform="matrix(0.9567429,0,0,0.9567429,0.47837145,0.47837145)"
       clip-path="url(#clipPath37)" />
    <text
       id="text37"
       xml:space="preserve"
       transform="matrix(0.9567525,0,0,0.9567525,272.12135,106.19953)"
       clip-path="url(#clipPath38)"><tspan
         style="font-variant:normal;font-weight:normal;font-size:16px;font-family:Helvetica;writing-mode:lr-tb;fill:#333333;fill-opacity:1;fill-rule:nonzero;stroke:none"
         x="0 10.671875 19.570312 31.125 40.023438 45.351562 49.796875 60.46875 69.367188 74.695312 82.695312 86.25 94.25"
         y="0"
         sodipodi:role="line"
         id="tspan37">Power Service</tspan></text>
    <path
       id="path39"
       d="m 411,91 h 80 v 30 h -80 z"
       style="fill:#f5f5f5;fill-opacity:1;fill-rule:nonzero;stroke:#666666;stroke-width:1;stroke-linecap:butt;stroke-linejoin:miter;stroke-miterlimit:10;stroke-dasharray:none;stroke-opacity:1"
       transform="matrix(0.9567429,0,0,0.9567429,0.47837145,0.47837145)"
       clip-path="url(#clipPath40)" />
    <text
       id="text40"
       xml:space="preserve"
       transform="matrix(0.9567525,0,0,0.9567525,428.93906,106.19953)"
       clip-path="url(#clipPath41)"><tspan
         style="font-variant:normal;font-weight:normal;font-size:16px;font-family:Helvetica;writing-mode:lr-tb;fill:#333333;fill-opacity:1;fill-rule:nonzero;stroke:none"
         x="0"
         y="0"
         id="tspan40">-</tspan></text>
  </g>
</svg>
