<?xml version="1.0" encoding="UTF-8" standalone="no"?>
<!-- Created with Inkscape (http://www.inkscape.org/) -->

<svg
   version="1.1"
   id="svg1"
   width="568"
   height="321.28"
   viewBox="0 0 568 321.28"
   sodipodi:docname="nest-3.pdf"
   xmlns:inkscape="http://www.inkscape.org/namespaces/inkscape"
   xmlns:sodipodi="http://sodipodi.sourceforge.net/DTD/sodipodi-0.dtd"
   xmlns="http://www.w3.org/2000/svg"
   xmlns:svg="http://www.w3.org/2000/svg">
  <defs
     id="defs1">
    <clipPath
       clipPathUnits="userSpaceOnUse"
       id="clipPath2">
      <path
         d="M 0,0 H 1775 V 1004.0404 H 0 Z"
         transform="scale(0.3346479)"
         clip-rule="evenodd"
         id="path2" />
    </clipPath>
    <clipPath
       clipPathUnits="userSpaceOnUse"
       id="clipPath4">
      <path
         d="M 0,0 H 1775 V 998.06396 H 0 Z"
         transform="matrix(0.3346479,0,0,0.3346479,-0.50000001,-0.50000001)"
         clip-rule="evenodd"
         id="path4" />
    </clipPath>
    <clipPath
       clipPathUnits="userSpaceOnUse"
       id="clipPath6">
      <path
         d="M 0,0 H 1775 V 998.06396 H 0 Z"
         transform="matrix(0.3346479,0,0,0.3346479,-0.50000001,-0.50000001)"
         clip-rule="evenodd"
         id="path6" />
    </clipPath>
    <clipPath
       clipPathUnits="userSpaceOnUse"
       id="clipPath8">
      <path
         d="M 0,0 H 1775 V 998.06396 H 0 Z"
         transform="matrix(0.3346479,0,0,0.3346479,-0.50000001,-0.50000001)"
         clip-rule="evenodd"
         id="path8" />
    </clipPath>
    <clipPath
       clipPathUnits="userSpaceOnUse"
       id="clipPath10">
      <path
         d="M 0,0 H 1775 V 998.06396 H 0 Z"
         transform="matrix(0.3346479,0,0,0.3346479,-0.50000001,-0.50000001)"
         clip-rule="evenodd"
         id="path10" />
    </clipPath>
    <clipPath
       clipPathUnits="userSpaceOnUse"
       id="clipPath12">
      <path
         d="M 0,0 H 1775 V 998.06396 H 0 Z"
         transform="matrix(0.3346479,0,0,0.3346479,-0.50000001,-0.50000001)"
         clip-rule="evenodd"
         id="path12" />
    </clipPath>
    <clipPath
       clipPathUnits="userSpaceOnUse"
       id="clipPath13">
      <path
         d="M 0,0 H 1775 V 998.06396 H 0 Z"
         transform="matrix(0.33464453,0,0,0.33464453,-157.21874,-137)"
         clip-rule="evenodd"
         id="path13" />
    </clipPath>
    <clipPath
       clipPathUnits="userSpaceOnUse"
       id="clipPath14">
      <path
         d="M 0,0 H 1775 V 998.06396 H 0 Z"
         transform="matrix(0.33464453,0,0,0.33464453,-185.57813,-137)"
         clip-rule="evenodd"
         id="path14" />
    </clipPath>
    <clipPath
       clipPathUnits="userSpaceOnUse"
       id="clipPath15">
      <path
         d="M 0,0 H 1775 V 998.06396 H 0 Z"
         transform="matrix(0.33464453,0,0,0.33464453,-238.92187,-137)"
         clip-rule="evenodd"
         id="path15" />
    </clipPath>
    <clipPath
       clipPathUnits="userSpaceOnUse"
       id="clipPath17">
      <path
         d="M 0,0 H 1775 V 998.06396 H 0 Z"
         transform="matrix(0.3346479,0,0,0.3346479,-0.50000001,-0.50000001)"
         clip-rule="evenodd"
         id="path17" />
    </clipPath>
    <clipPath
       clipPathUnits="userSpaceOnUse"
       id="clipPath19">
      <path
         d="M 0,0 H 1775 V 998.06396 H 0 Z"
         transform="matrix(0.3346479,0,0,0.3346479,-0.50000001,-0.50000001)"
         clip-rule="evenodd"
         id="path19" />
    </clipPath>
    <clipPath
       clipPathUnits="userSpaceOnUse"
       id="clipPath21">
      <path
         d="M 0,0 H 1775 V 998.06396 H 0 Z"
         transform="matrix(0.3346479,0,0,0.3346479,-0.50000001,-0.50000001)"
         clip-rule="evenodd"
         id="path21" />
    </clipPath>
    <clipPath
       clipPathUnits="userSpaceOnUse"
       id="clipPath22">
      <path
         d="M 0,0 H 1775 V 998.06396 H 0 Z"
         transform="matrix(0.33464453,0,0,0.33464453,-318.03125,-137)"
         clip-rule="evenodd"
         id="path22" />
    </clipPath>
    <clipPath
       clipPathUnits="userSpaceOnUse"
       id="clipPath23">
      <path
         d="M 0,0 H 1775 V 998.06396 H 0 Z"
         transform="matrix(0.33464453,0,0,0.33464453,-346.39063,-137)"
         clip-rule="evenodd"
         id="path23" />
    </clipPath>
    <clipPath
       clipPathUnits="userSpaceOnUse"
       id="clipPath24">
      <path
         d="M 0,0 H 1775 V 998.06396 H 0 Z"
         transform="matrix(0.33464453,0,0,0.33464453,-398.10938,-137)"
         clip-rule="evenodd"
         id="path24" />
    </clipPath>
    <clipPath
       clipPathUnits="userSpaceOnUse"
       id="clipPath26">
      <path
         d="M 0,0 H 1775 V 998.06396 H 0 Z"
         transform="matrix(0.3346479,0,0,0.3346479,-0.50000001,-0.50000001)"
         clip-rule="evenodd"
         id="path26" />
    </clipPath>
    <clipPath
       clipPathUnits="userSpaceOnUse"
       id="clipPath28">
      <path
         d="M 0,0 H 1775 V 998.06396 H 0 Z"
         transform="matrix(0.3346479,0,0,0.3346479,-0.50000001,-0.50000001)"
         clip-rule="evenodd"
         id="path28" />
    </clipPath>
    <clipPath
       clipPathUnits="userSpaceOnUse"
       id="clipPath30">
      <path
         d="M 0,0 H 1775 V 998.06396 H 0 Z"
         transform="matrix(0.3346479,0,0,0.3346479,-0.50000001,-0.50000001)"
         clip-rule="evenodd"
         id="path30" />
    </clipPath>
    <clipPath
       clipPathUnits="userSpaceOnUse"
       id="clipPath31">
      <path
         d="M 0,0 H 1775 V 998.06396 H 0 Z"
         transform="matrix(0.33464453,0,0,0.33464453,-149.29687,-287)"
         clip-rule="evenodd"
         id="path31" />
    </clipPath>
    <clipPath
       clipPathUnits="userSpaceOnUse"
       id="clipPath32">
      <path
         d="M 0,0 H 1775 V 998.06396 H 0 Z"
         transform="matrix(0.33464453,0,0,0.33464453,-193.5,-287)"
         clip-rule="evenodd"
         id="path32" />
    </clipPath>
    <clipPath
       clipPathUnits="userSpaceOnUse"
       id="clipPath33">
      <path
         d="M 0,0 H 1775 V 998.06396 H 0 Z"
         transform="matrix(0.33464453,0,0,0.33464453,-246.84375,-287)"
         clip-rule="evenodd"
         id="path33" />
    </clipPath>
    <clipPath
       clipPathUnits="userSpaceOnUse"
       id="clipPath35">
      <path
         d="M 0,0 H 1775 V 998.06396 H 0 Z"
         transform="matrix(0.3346479,0,0,0.3346479,-0.50000001,-0.50000001)"
         clip-rule="evenodd"
         id="path35" />
    </clipPath>
    <clipPath
       clipPathUnits="userSpaceOnUse"
       id="clipPath37">
      <path
         d="M 0,0 H 1775 V 998.06396 H 0 Z"
         transform="matrix(0.3346479,0,0,0.3346479,-0.50000001,-0.50000001)"
         clip-rule="evenodd"
         id="path37" />
    </clipPath>
    <clipPath
       clipPathUnits="userSpaceOnUse"
       id="clipPath39">
      <path
         d="M 0,0 H 1775 V 998.06396 H 0 Z"
         transform="matrix(0.3346479,0,0,0.3346479,-0.50000001,-0.50000001)"
         clip-rule="evenodd"
         id="path39" />
    </clipPath>
    <clipPath
       clipPathUnits="userSpaceOnUse"
       id="clipPath40">
      <path
         d="M 0,0 H 1775 V 998.06396 H 0 Z"
         transform="matrix(0.33464453,0,0,0.33464453,-340.10938,-287)"
         clip-rule="evenodd"
         id="path40" />
    </clipPath>
    <clipPath
       clipPathUnits="userSpaceOnUse"
       id="clipPath41">
      <path
         d="M 0,0 H 1775 V 998.06396 H 0 Z"
         transform="matrix(0.33464453,0,0,0.33464453,-384.3125,-287)"
         clip-rule="evenodd"
         id="path41" />
    </clipPath>
    <clipPath
       clipPathUnits="userSpaceOnUse"
       id="clipPath42">
      <path
         d="M 0,0 H 1775 V 998.06396 H 0 Z"
         transform="matrix(0.33464453,0,0,0.33464453,-436.03125,-287)"
         clip-rule="evenodd"
         id="path42" />
    </clipPath>
    <clipPath
       clipPathUnits="userSpaceOnUse"
       id="clipPath43">
      <path
         d="M 0,0 H 1775 V 998.06396 H 0 Z"
         transform="matrix(0.33464453,0,0,0.33464453,-207.40625,-207)"
         clip-rule="evenodd"
         id="path43" />
    </clipPath>
    <clipPath
       clipPathUnits="userSpaceOnUse"
       id="clipPath45">
      <path
         d="M 0,0 H 1775 V 998.06396 H 0 Z"
         transform="matrix(0.3346479,0,0,0.3346479,-0.50000001,-0.50000001)"
         clip-rule="evenodd"
         id="path45" />
    </clipPath>
    <clipPath
       clipPathUnits="userSpaceOnUse"
       id="clipPath46">
      <path
         d="M 0,0 H 1775 V 998.06396 H 0 Z"
         transform="matrix(0.33464453,0,0,0.33464453,-128.89062,-27)"
         clip-rule="evenodd"
         id="path46" />
    </clipPath>
    <clipPath
       clipPathUnits="userSpaceOnUse"
       id="clipPath47">
      <path
         d="M 0,0 H 1775 V 998.06396 H 0 Z"
         transform="matrix(0.33464453,0,0,0.33464453,-302.46875,-48.999999)"
         clip-rule="evenodd"
         id="path47" />
    </clipPath>
    <clipPath
       clipPathUnits="userSpaceOnUse"
       id="clipPath49">
      <path
         d="M 0,0 H 1775 V 998.06396 H 0 Z"
         transform="matrix(0.3346479,0,0,0.3346479,-0.50000001,-0.50000001)"
         clip-rule="evenodd"
         id="path49" />
    </clipPath>
    <clipPath
       clipPathUnits="userSpaceOnUse"
       id="clipPath51">
      <path
         d="M 0,0 H 1775 V 998.06396 H 0 Z"
         transform="matrix(0.3346479,0,0,0.3346479,-0.50000001,-0.50000001)"
         clip-rule="evenodd"
         id="path51" />
    </clipPath>
    <clipPath
       clipPathUnits="userSpaceOnUse"
       id="clipPath53">
      <path
         d="M 0,0 H 1775 V 998.06396 H 0 Z"
         transform="matrix(0.3346479,0,0,0.3346479,-0.50000001,-0.50000001)"
         clip-rule="evenodd"
         id="path53" />
    </clipPath>
    <clipPath
       clipPathUnits="userSpaceOnUse"
       id="clipPath54">
      <path
         d="M 0,0 H 1775 V 998.06396 H 0 Z"
         transform="matrix(0.33464453,0,0,0.33464453,-22.984375,-208)"
         clip-rule="evenodd"
         id="path54" />
    </clipPath>
    <clipPath
       clipPathUnits="userSpaceOnUse"
       id="clipPath56">
      <path
         d="M 0,0 H 1775 V 998.06396 H 0 Z"
         transform="matrix(0.3346479,0,0,0.3346479,-0.50000001,-0.50000001)"
         clip-rule="evenodd"
         id="path56" />
    </clipPath>
    <clipPath
       clipPathUnits="userSpaceOnUse"
       id="clipPath58">
      <path
         d="M 0,0 H 1775 V 998.06396 H 0 Z"
         transform="matrix(0.3346479,0,0,0.3346479,-0.50000001,-0.50000001)"
         clip-rule="evenodd"
         id="path58" />
    </clipPath>
    <clipPath
       clipPathUnits="userSpaceOnUse"
       id="clipPath60">
      <path
         d="M 0,0 H 1775 V 998.06396 H 0 Z"
         transform="matrix(0.3346479,0,0,0.3346479,-0.50000001,-0.50000001)"
         clip-rule="evenodd"
         id="path60" />
    </clipPath>
    <clipPath
       clipPathUnits="userSpaceOnUse"
       id="clipPath61">
      <path
         d="M 0,0 H 1775 V 998.06396 H 0 Z"
         transform="matrix(0.33464453,0,0,0.33464453,-479.71875,-137)"
         clip-rule="evenodd"
         id="path61" />
    </clipPath>
    <clipPath
       clipPathUnits="userSpaceOnUse"
       id="clipPath62">
      <path
         d="M 0,0 H 1775 V 998.06396 H 0 Z"
         transform="matrix(0.33464453,0,0,0.33464453,-483.89063,-137)"
         clip-rule="evenodd"
         id="path62" />
    </clipPath>
    <clipPath
       clipPathUnits="userSpaceOnUse"
       id="clipPath63">
      <path
         d="M 0,0 H 1775 V 998.06396 H 0 Z"
         transform="matrix(0.33464453,0,0,0.33464453,-546.42188,-137)"
         clip-rule="evenodd"
         id="path63" />
    </clipPath>
  </defs>
  <sodipodi:namedview
     id="namedview1"
     pagecolor="#ffffff"
     bordercolor="#000000"
     borderopacity="0.25"
     inkscape:showpageshadow="2"
     inkscape:pageopacity="0.0"
     inkscape:pagecheckerboard="0"
     inkscape:deskcolor="#d1d1d1">
    <inkscape:page
       x="0"
       y="0"
       inkscape:label="1"
       id="page1"
       width="568"
       height="321.28"
       margin="0"
       bleed="0" />
  </sodipodi:namedview>
  <g
     id="g1"
     inkscape:groupmode="layer"
     inkscape:label="1">
    <path
       id="path1"
       d="M 0,0 H 594 V 336 H 0 Z"
       style="fill:#ffffff;fill-opacity:1;fill-rule:nonzero;stroke:none"
       transform="scale(0.95622889)"
       clip-path="url(#clipPath2)" />
    <path
       id="path3"
       d="m 206,181 v 43.63"
       style="fill:none;stroke:#000000;stroke-width:1;stroke-linecap:butt;stroke-linejoin:miter;stroke-miterlimit:10;stroke-dasharray:none;stroke-opacity:1"
       transform="matrix(0.95622889,0,0,0.95622889,0.47811445,0.47811445)"
       clip-path="url(#clipPath4)" />
    <path
       id="path5"
       d="m 206,229.88 -3.5,-7 3.5,1.75 3.5,-1.75 z"
       style="fill:#000000;fill-opacity:1;fill-rule:nonzero;stroke:#000000;stroke-width:1;stroke-linecap:butt;stroke-linejoin:miter;stroke-miterlimit:10;stroke-dasharray:none;stroke-opacity:1"
       transform="matrix(0.95622889,0,0,0.95622889,0.47811445,0.47811445)"
       clip-path="url(#clipPath6)" />
    <path
       id="path7"
       d="m 141,81 h 100 l 30,30 v 70 H 141 Z"
       style="fill:#ffffff;fill-opacity:1;fill-rule:nonzero;stroke:#000000;stroke-width:1;stroke-linecap:butt;stroke-linejoin:miter;stroke-miterlimit:10;stroke-dasharray:none;stroke-opacity:1"
       transform="matrix(0.95622889,0,0,0.95622889,0.47811445,0.47811445)"
       clip-path="url(#clipPath8)" />
    <path
       id="path9"
       d="m 241,81 v 30 h 30 z"
       style="fill:#000000;fill-opacity:0.05;fill-rule:nonzero;stroke:none"
       transform="matrix(0.95622889,0,0,0.95622889,0.47811445,0.47811445)"
       clip-path="url(#clipPath10)" />
    <path
       id="path11"
       d="m 241,81 v 30 h 30"
       style="fill:none;stroke:#000000;stroke-width:1;stroke-linecap:butt;stroke-linejoin:miter;stroke-miterlimit:10;stroke-dasharray:none;stroke-opacity:1"
       transform="matrix(0.95622889,0,0,0.95622889,0.47811445,0.47811445)"
       clip-path="url(#clipPath12)" />
    <text
       id="text12"
       xml:space="preserve"
       transform="matrix(0.95623852,0,0,0.95623852,150.33862,131.00468)"
       clip-path="url(#clipPath13)"><tspan
         style="font-variant:normal;font-weight:normal;font-size:15px;font-family:Helvetica;writing-mode:lr-tb;fill:#000000;fill-opacity:1;fill-rule:nonzero;stroke:none"
         x="0 7.5 15.842285 24.18457"
         y="0"
         sodipodi:role="line"
         id="tspan12">cpu.</tspan></text>
    <text
       id="text13"
       xml:space="preserve"
       transform="matrix(0.95623852,0,0,0.95623852,177.45696,131.00468)"
       clip-path="url(#clipPath14)"><tspan
         style="font-variant:normal;font-weight:700;font-size:15px;font-family:Helvetica;writing-mode:lr-tb;fill:#000000;fill-opacity:1;fill-rule:nonzero;stroke:none"
         x="0 13.337402 22.5 31.662598 40.825195 44.992676"
         y="0"
         sodipodi:role="line"
         id="tspan13">module</tspan></text>
    <text
       id="text14"
       xml:space="preserve"
       transform="matrix(0.95623852,0,0,0.95623852,228.4663,131.00468)"
       clip-path="url(#clipPath15)"><tspan
         style="font-variant:normal;font-weight:normal;font-size:15px;font-family:Helvetica;writing-mode:lr-tb;fill:#000000;fill-opacity:1;fill-rule:nonzero;stroke:none"
         x="0 4.1674805 8.3349609"
         y="0"
         sodipodi:role="line"
         id="tspan14">.ts</tspan></text>
    <path
       id="path16"
       d="m 301,81 h 100 l 30,30 v 70 H 301 Z"
       style="fill:#ffffff;fill-opacity:1;fill-rule:nonzero;stroke:#000000;stroke-width:1;stroke-linecap:butt;stroke-linejoin:miter;stroke-miterlimit:10;stroke-dasharray:none;stroke-opacity:1"
       transform="matrix(0.95622889,0,0,0.95622889,0.47811445,0.47811445)"
       clip-path="url(#clipPath17)" />
    <path
       id="path18"
       d="m 401,81 v 30 h 30 z"
       style="fill:#000000;fill-opacity:0.05;fill-rule:nonzero;stroke:none"
       transform="matrix(0.95622889,0,0,0.95622889,0.47811445,0.47811445)"
       clip-path="url(#clipPath19)" />
    <path
       id="path20"
       d="m 401,81 v 30 h 30"
       style="fill:none;stroke:#000000;stroke-width:1;stroke-linecap:butt;stroke-linejoin:miter;stroke-miterlimit:10;stroke-dasharray:none;stroke-opacity:1"
       transform="matrix(0.95622889,0,0,0.95622889,0.47811445,0.47811445)"
       clip-path="url(#clipPath21)" />
    <text
       id="text21"
       xml:space="preserve"
       transform="matrix(0.95623852,0,0,0.95623852,304.11373,131.00468)"
       clip-path="url(#clipPath22)"><tspan
         style="font-variant:normal;font-weight:normal;font-size:15px;font-family:Helvetica;writing-mode:lr-tb;fill:#000000;fill-opacity:1;fill-rule:nonzero;stroke:none"
         x="0 7.5 15.842285 24.18457"
         y="0"
         sodipodi:role="line"
         id="tspan21">cpu.</tspan></text>
    <text
       id="text22"
       xml:space="preserve"
       transform="matrix(0.95623852,0,0,0.95623852,331.23206,131.00468)"
       clip-path="url(#clipPath23)"><tspan
         style="font-variant:normal;font-weight:700;font-size:15px;font-family:Helvetica;writing-mode:lr-tb;fill:#000000;fill-opacity:1;fill-rule:nonzero;stroke:none"
         x="0 8.3422852 16.68457 22.521973 30.864258 35.031738 43.374023"
         y="0"
         sodipodi:role="line"
         id="tspan22">service</tspan></text>
    <text
       id="text23"
       xml:space="preserve"
       transform="matrix(0.95623852,0,0,0.95623852,380.68752,131.00468)"
       clip-path="url(#clipPath24)"><tspan
         style="font-variant:normal;font-weight:normal;font-size:15px;font-family:Helvetica;writing-mode:lr-tb;fill:#000000;fill-opacity:1;fill-rule:nonzero;stroke:none"
         x="0 4.1674805 8.3349609"
         y="0"
         sodipodi:role="line"
         id="tspan23">.ts</tspan></text>
    <path
       id="path25"
       d="m 141,231 h 100 l 30,30 v 70 H 141 Z"
       style="fill:#ffffff;fill-opacity:1;fill-rule:nonzero;stroke:#000000;stroke-width:1;stroke-linecap:butt;stroke-linejoin:miter;stroke-miterlimit:10;stroke-dasharray:none;stroke-opacity:1"
       transform="matrix(0.95622889,0,0,0.95622889,0.47811445,0.47811445)"
       clip-path="url(#clipPath26)" />
    <path
       id="path27"
       d="m 241,231 v 30 h 30 z"
       style="fill:#000000;fill-opacity:0.05;fill-rule:nonzero;stroke:none"
       transform="matrix(0.95622889,0,0,0.95622889,0.47811445,0.47811445)"
       clip-path="url(#clipPath28)" />
    <path
       id="path29"
       d="m 241,231 v 30 h 30"
       style="fill:none;stroke:#000000;stroke-width:1;stroke-linecap:butt;stroke-linejoin:miter;stroke-miterlimit:10;stroke-dasharray:none;stroke-opacity:1"
       transform="matrix(0.95622889,0,0,0.95622889,0.47811445,0.47811445)"
       clip-path="url(#clipPath30)" />
    <text
       id="text30"
       xml:space="preserve"
       transform="matrix(0.95623852,0,0,0.95623852,142.76342,274.44046)"
       clip-path="url(#clipPath31)"><tspan
         style="font-variant:normal;font-weight:normal;font-size:15px;font-family:Helvetica;writing-mode:lr-tb;fill:#000000;fill-opacity:1;fill-rule:nonzero;stroke:none"
         x="0 8.3422852 16.68457 27.51709 35.859375 40.03418"
         y="0"
         sodipodi:role="line"
         id="tspan30">power.</tspan></text>
    <text
       id="text31"
       xml:space="preserve"
       transform="matrix(0.95623852,0,0,0.95623852,185.03215,274.44046)"
       clip-path="url(#clipPath32)"><tspan
         style="font-variant:normal;font-weight:700;font-size:15px;font-family:Helvetica;writing-mode:lr-tb;fill:#000000;fill-opacity:1;fill-rule:nonzero;stroke:none"
         x="0 13.337402 22.5 31.662598 40.825195 44.992676"
         y="0"
         sodipodi:role="line"
         id="tspan31">module</tspan></text>
    <text
       id="text32"
       xml:space="preserve"
       transform="matrix(0.95623852,0,0,0.95623852,236.0415,274.44046)"
       clip-path="url(#clipPath33)"><tspan
         style="font-variant:normal;font-weight:normal;font-size:15px;font-family:Helvetica;writing-mode:lr-tb;fill:#000000;fill-opacity:1;fill-rule:nonzero;stroke:none"
         x="0 4.1674805 8.3349609"
         y="0"
         sodipodi:role="line"
         id="tspan32">.ts</tspan></text>
    <path
       id="path34"
       d="m 331,231 h 100 l 30,30 v 70 H 331 Z"
       style="fill:#ffffff;fill-opacity:1;fill-rule:nonzero;stroke:#000000;stroke-width:1;stroke-linecap:butt;stroke-linejoin:miter;stroke-miterlimit:10;stroke-dasharray:none;stroke-opacity:1"
       transform="matrix(0.95622889,0,0,0.95622889,0.47811445,0.47811445)"
       clip-path="url(#clipPath35)" />
    <path
       id="path36"
       d="m 431,231 v 30 h 30 z"
       style="fill:#000000;fill-opacity:0.05;fill-rule:nonzero;stroke:none"
       transform="matrix(0.95622889,0,0,0.95622889,0.47811445,0.47811445)"
       clip-path="url(#clipPath37)" />
    <path
       id="path38"
       d="m 431,231 v 30 h 30"
       style="fill:none;stroke:#000000;stroke-width:1;stroke-linecap:butt;stroke-linejoin:miter;stroke-miterlimit:10;stroke-dasharray:none;stroke-opacity:1"
       transform="matrix(0.95622889,0,0,0.95622889,0.47811445,0.47811445)"
       clip-path="url(#clipPath39)" />
    <text
       id="text39"
       xml:space="preserve"
       transform="matrix(0.95623852,0,0,0.95623852,325.22569,274.44046)"
       clip-path="url(#clipPath40)"><tspan
         style="font-variant:normal;font-weight:normal;font-size:15px;font-family:Helvetica;writing-mode:lr-tb;fill:#000000;fill-opacity:1;fill-rule:nonzero;stroke:none"
         x="0 8.3422852 16.68457 27.51709 35.859375 40.03418"
         y="0"
         sodipodi:role="line"
         id="tspan39">power.</tspan></text>
    <text
       id="text40"
       xml:space="preserve"
       transform="matrix(0.95623852,0,0,0.95623852,367.49442,274.44046)"
       clip-path="url(#clipPath41)"><tspan
         style="font-variant:normal;font-weight:700;font-size:15px;font-family:Helvetica;writing-mode:lr-tb;fill:#000000;fill-opacity:1;fill-rule:nonzero;stroke:none"
         x="0 8.3422852 16.68457 22.521973 30.864258 35.031738 43.374023"
         y="0"
         sodipodi:role="line"
         id="tspan40">service</tspan></text>
    <text
       id="text41"
       xml:space="preserve"
       transform="matrix(0.95623852,0,0,0.95623852,416.94988,274.44046)"
       clip-path="url(#clipPath42)"><tspan
         style="font-variant:normal;font-weight:normal;font-size:15px;font-family:Helvetica;writing-mode:lr-tb;fill:#000000;fill-opacity:1;fill-rule:nonzero;stroke:none"
         x="0 4.1674805 8.3349609"
         y="0"
         sodipodi:role="line"
         id="tspan41">.ts</tspan></text>
    <text
       id="text42"
       xml:space="preserve"
       transform="matrix(0.95623852,0,0,0.95623852,198.32985,197.94137)"
       clip-path="url(#clipPath43)"><tspan
         style="font-style:oblique;font-variant:normal;font-weight:normal;font-size:15px;font-family:Helvetica;writing-mode:lr-tb;fill:#000000;fill-opacity:1;fill-rule:nonzero;stroke:none"
         x="0 3.3325195 15.827637 24.169922 32.512207 37.507324 41.674805"
         y="0"
         sodipodi:role="line"
         id="tspan42">imports</tspan></text>
    <path
       id="path44"
       d="M 121,1 H 591 V 61 H 121 Z"
       style="fill:#dae8fc;fill-opacity:1;fill-rule:nonzero;stroke:#6c8ebf;stroke-width:1;stroke-linecap:butt;stroke-linejoin:miter;stroke-miterlimit:10;stroke-dasharray:none;stroke-opacity:1"
       transform="matrix(0.95622889,0,0,0.95622889,0.47811445,0.47811445)"
       clip-path="url(#clipPath45)" />
    <g
       id="g45" />
    <text
       id="text45"
       xml:space="preserve"
       transform="matrix(0.95623852,0,0,0.95623852,123.25018,25.81844)"
       clip-path="url(#clipPath46)"><tspan
         style="font-variant:normal;font-weight:normal;font-size:18px;font-family:Helvetica;writing-mode:lr-tb;fill:#000000;fill-opacity:1;fill-rule:nonzero;stroke:none"
         x="0 14.000977 24.011719 34.022461 38.021484 43.022461 53.033203 63.043945 68.044922 74.039062 79.040039 91.045898 97.040039 107.05078 117.06152 126.06152 131.0625 140.0625 144.06152 154.07227 159.07324 163.07227 178.06641 188.07715 198.08789 204.08203 209.08301 218.08301 223.08398 233.09473 243.10547 248.10645 261.10547 271.11621 281.12695 291.1377 296.13867 311.13281 321.14355 331.1543 341.16504 345.16406 355.1748 364.1748 369.17578 375.16992 385.18066 394.18066 403.18066 413.19141 423.20215 428.20312 433.2041 438.20508 448.21582"
         y="0"
         sodipodi:role="line"
         id="tspan45">Goal #1 - Break ﬁle imports between modules (except for</tspan></text>
    <g
       id="g46" />
    <text
       id="text46"
       xml:space="preserve"
       transform="matrix(0.95623852,0,0,0.95623852,289.23227,46.855687)"
       clip-path="url(#clipPath47)"><tspan
         style="font-variant:normal;font-weight:normal;font-size:18px;font-family:Helvetica;writing-mode:lr-tb;fill:#000000;fill-opacity:1;fill-rule:nonzero;stroke:none"
         x="0 14.994141 25.004883 35.015625 45.026367 49.025391 59.036133 64.037109 73.037109 77.036133 87.046875 96.046875 102.04102"
         y="0"
         sodipodi:role="line"
         id="tspan46">module ﬁles) </tspan></text>
    <path
       id="path48"
       d="m 121,201 h 40 l 33.63,-0.08"
       style="fill:none;stroke:#000000;stroke-width:1;stroke-linecap:butt;stroke-linejoin:miter;stroke-miterlimit:10;stroke-dasharray:none;stroke-opacity:1"
       transform="matrix(0.95622889,0,0,0.95622889,0.47811445,0.47811445)"
       clip-path="url(#clipPath49)" />
    <path
       id="path50"
       d="m 199.88,200.91 -6.99,3.51999 1.74,-3.50999 -1.75,-3.49001 z"
       style="fill:#000000;fill-opacity:1;fill-rule:nonzero;stroke:#000000;stroke-width:1;stroke-linecap:butt;stroke-linejoin:miter;stroke-miterlimit:10;stroke-dasharray:none;stroke-opacity:1"
       transform="matrix(0.95622889,0,0,0.95622889,0.47811445,0.47811445)"
       clip-path="url(#clipPath51)" />
    <path
       id="path52"
       d="m 1,171 h 120 v 60 H 1 Z"
       style="fill:#d5e8d4;fill-opacity:1;fill-rule:nonzero;stroke:#82b366;stroke-width:1;stroke-linecap:butt;stroke-linejoin:miter;stroke-miterlimit:10;stroke-dasharray:none;stroke-opacity:1"
       transform="matrix(0.95622889,0,0,0.95622889,0.47811445,0.47811445)"
       clip-path="url(#clipPath53)" />
    <text
       id="text53"
       xml:space="preserve"
       transform="matrix(0.95623852,0,0,0.95623852,21.978545,198.89761)"
       clip-path="url(#clipPath54)"><tspan
         style="font-variant:normal;font-weight:normal;font-size:18px;font-family:Helvetica;writing-mode:lr-tb;fill:#000000;fill-opacity:1;fill-rule:nonzero;stroke:none"
         x="0 10.995117 21.005859 25.004883 34.004883 39.005859 43.004883 52.004883 57.005859 67.016602"
         y="0"
         sodipodi:role="line"
         id="tspan53">This is ok</tspan></text>
    <path
       id="path55"
       d="m 456,81 h 100.01001 l 30,30 v 70 H 456 Z"
       style="fill:#ffffff;fill-opacity:1;fill-rule:nonzero;stroke:#000000;stroke-width:1;stroke-linecap:butt;stroke-linejoin:miter;stroke-miterlimit:10;stroke-dasharray:none;stroke-opacity:1"
       transform="matrix(0.95622889,0,0,0.95622889,0.47811445,0.47811445)"
       clip-path="url(#clipPath56)" />
    <path
       id="path57"
       d="m 556.01001,81 v 30 h 30 z"
       style="fill:#000000;fill-opacity:0.05;fill-rule:nonzero;stroke:none"
       transform="matrix(0.95622889,0,0,0.95622889,0.47811445,0.47811445)"
       clip-path="url(#clipPath58)" />
    <path
       id="path59"
       d="m 556.01001,81 v 30 h 30"
       style="fill:none;stroke:#000000;stroke-width:1;stroke-linecap:butt;stroke-linejoin:miter;stroke-miterlimit:10;stroke-dasharray:none;stroke-opacity:1"
       transform="matrix(0.95622889,0,0,0.95622889,0.47811445,0.47811445)"
       clip-path="url(#clipPath60)" />
    <text
       id="text60"
       xml:space="preserve"
       transform="matrix(0.95623852,0,0,0.95623852,458.72555,131.00468)"
       clip-path="url(#clipPath61)"><tspan
         style="font-variant:normal;font-weight:normal;font-size:15px;font-family:Helvetica;writing-mode:lr-tb;fill:#000000;fill-opacity:1;fill-rule:nonzero;stroke:none"
         x="0"
         y="0"
         id="tspan60">.</tspan></text>
    <text
       id="text61"
       xml:space="preserve"
       transform="matrix(0.95623852,0,0,0.95623852,462.71486,131.00468)"
       clip-path="url(#clipPath62)"><tspan
         style="font-variant:normal;font-weight:700;font-size:15px;font-family:Helvetica;writing-mode:lr-tb;fill:#000000;fill-opacity:1;fill-rule:nonzero;stroke:none"
         x="0 4.1674805 13.330078 18.325195 26.66748 32.504883 37.5 45.842285 54.18457"
         y="0"
         sodipodi:role="line"
         id="tspan61">interface</tspan></text>
    <text
       id="text62"
       xml:space="preserve"
       transform="matrix(0.95623852,0,0,0.95623852,522.50965,131.00468)"
       clip-path="url(#clipPath63)"><tspan
         style="font-variant:normal;font-weight:normal;font-size:15px;font-family:Helvetica;writing-mode:lr-tb;fill:#000000;fill-opacity:1;fill-rule:nonzero;stroke:none"
         x="0 4.1674805 8.3349609"
         y="0"
         sodipodi:role="line"
         id="tspan62">.ts</tspan></text>
  </g>
</svg>
