<?xml version="1.0" encoding="UTF-8" standalone="no"?>
<!-- Created with Inkscape (http://www.inkscape.org/) -->

<svg
   version="1.1"
   id="svg1"
   width="492.16"
   height="216"
   viewBox="0 0 492.16 216"
   sodipodi:docname="nest-5.pdf"
   xmlns:inkscape="http://www.inkscape.org/namespaces/inkscape"
   xmlns:sodipodi="http://sodipodi.sourceforge.net/DTD/sodipodi-0.dtd"
   xmlns="http://www.w3.org/2000/svg"
   xmlns:svg="http://www.w3.org/2000/svg">
  <defs
     id="defs1">
    <clipPath
       clipPathUnits="userSpaceOnUse"
       id="clipPath2">
      <path
         d="M 0,0 H 1537.5 V 673.03015 H 0 Z"
         transform="scale(0.33430896)"
         clip-rule="evenodd"
         id="path2" />
    </clipPath>
    <clipPath
       clipPathUnits="userSpaceOnUse"
       id="clipPath4">
      <path
         d="M 0,0 H 1537.5 V 670.03888 H 0 Z"
         transform="matrix(0.33430896,0,0,0.33430896,-0.50000001,-0.50000001)"
         clip-rule="evenodd"
         id="path4" />
    </clipPath>
    <clipPath
       clipPathUnits="userSpaceOnUse"
       id="clipPath6">
      <path
         d="M 0,0 H 1537.5 V 670.03888 H 0 Z"
         transform="matrix(0.33430896,0,0,0.33430896,-0.50000001,-0.50000001)"
         clip-rule="evenodd"
         id="path6" />
    </clipPath>
    <clipPath
       clipPathUnits="userSpaceOnUse"
       id="clipPath7">
      <path
         d="M 0,0 H 1537.5 V 670.03888 H 0 Z"
         transform="matrix(0.3343056,0,0,0.3343056,-42.078126,-68)"
         clip-rule="evenodd"
         id="path7" />
    </clipPath>
    <clipPath
       clipPathUnits="userSpaceOnUse"
       id="clipPath9">
      <path
         d="M 0,0 H 1537.5 V 670.03888 H 0 Z"
         transform="matrix(0.33430896,0,0,0.33430896,-0.50000001,-0.50000001)"
         clip-rule="evenodd"
         id="path9" />
    </clipPath>
    <clipPath
       clipPathUnits="userSpaceOnUse"
       id="clipPath11">
      <path
         d="M 0,0 H 1537.5 V 670.03888 H 0 Z"
         transform="matrix(0.33430896,0,0,0.33430896,-0.50000001,-0.50000001)"
         clip-rule="evenodd"
         id="path11" />
    </clipPath>
    <clipPath
       clipPathUnits="userSpaceOnUse"
       id="clipPath13">
      <path
         d="M 0,0 H 1537.5 V 670.03888 H 0 Z"
         transform="matrix(0.33430896,0,0,0.33430896,-0.50000001,-0.50000001)"
         clip-rule="evenodd"
         id="path13" />
    </clipPath>
    <clipPath
       clipPathUnits="userSpaceOnUse"
       id="clipPath15">
      <path
         d="M 0,0 H 1537.5 V 670.03888 H 0 Z"
         transform="matrix(0.33430896,0,0,0.33430896,-0.50000001,-0.50000001)"
         clip-rule="evenodd"
         id="path15" />
    </clipPath>
    <clipPath
       clipPathUnits="userSpaceOnUse"
       id="clipPath16">
      <path
         d="M 0,0 H 1537.5 V 670.03888 H 0 Z"
         transform="matrix(0.3343056,0,0,0.3343056,-94.421875,-101)"
         clip-rule="evenodd"
         id="path16" />
    </clipPath>
    <clipPath
       clipPathUnits="userSpaceOnUse"
       id="clipPath18">
      <path
         d="M 0,0 H 1537.5 V 670.03888 H 0 Z"
         transform="matrix(0.33430896,0,0,0.33430896,-0.50000001,-0.50000001)"
         clip-rule="evenodd"
         id="path18" />
    </clipPath>
    <clipPath
       clipPathUnits="userSpaceOnUse"
       id="clipPath20">
      <path
         d="M 0,0 H 1537.5 V 670.03888 H 0 Z"
         transform="matrix(0.33430896,0,0,0.33430896,-0.50000001,-0.50000001)"
         clip-rule="evenodd"
         id="path20" />
    </clipPath>
    <clipPath
       clipPathUnits="userSpaceOnUse"
       id="clipPath22">
      <path
         d="M 0,0 H 1537.5 V 670.03888 H 0 Z"
         transform="matrix(0.33430896,0,0,0.33430896,-0.50000001,-0.50000001)"
         clip-rule="evenodd"
         id="path22" />
    </clipPath>
    <clipPath
       clipPathUnits="userSpaceOnUse"
       id="clipPath23">
      <path
         d="M 0,0 H 1537.5 V 670.03888 H 0 Z"
         transform="matrix(0.3343056,0,0,0.3343056,-14.265625,-101)"
         clip-rule="evenodd"
         id="path23" />
    </clipPath>
    <clipPath
       clipPathUnits="userSpaceOnUse"
       id="clipPath25">
      <path
         d="M 0,0 H 1537.5 V 670.03888 H 0 Z"
         transform="matrix(0.33430896,0,0,0.33430896,-0.50000001,-0.50000001)"
         clip-rule="evenodd"
         id="path25" />
    </clipPath>
    <clipPath
       clipPathUnits="userSpaceOnUse"
       id="clipPath26">
      <path
         d="M 0,0 H 1537.5 V 670.03888 H 0 Z"
         transform="matrix(0.3343056,0,0,0.3343056,-324.85938,-23)"
         clip-rule="evenodd"
         id="path26" />
    </clipPath>
    <clipPath
       clipPathUnits="userSpaceOnUse"
       id="clipPath28">
      <path
         d="M 0,0 H 1537.5 V 670.03888 H 0 Z"
         transform="matrix(0.33430896,0,0,0.33430896,-0.50000001,-0.50000001)"
         clip-rule="evenodd"
         id="path28" />
    </clipPath>
    <clipPath
       clipPathUnits="userSpaceOnUse"
       id="clipPath29">
      <path
         d="M 0,0 H 1537.5 V 670.03888 H 0 Z"
         transform="matrix(0.3343056,0,0,0.3343056,-270.78125,-61.000001)"
         clip-rule="evenodd"
         id="path29" />
    </clipPath>
    <clipPath
       clipPathUnits="userSpaceOnUse"
       id="clipPath31">
      <path
         d="M 0,0 H 1537.5 V 670.03888 H 0 Z"
         transform="matrix(0.33430896,0,0,0.33430896,-0.50000001,-0.50000001)"
         clip-rule="evenodd"
         id="path31" />
    </clipPath>
    <clipPath
       clipPathUnits="userSpaceOnUse"
       id="clipPath33">
      <path
         d="M 0,0 H 1537.5 V 670.03888 H 0 Z"
         transform="matrix(0.33430896,0,0,0.33430896,-0.50000001,-0.50000001)"
         clip-rule="evenodd"
         id="path33" />
    </clipPath>
    <clipPath
       clipPathUnits="userSpaceOnUse"
       id="clipPath35">
      <path
         d="M 0,0 H 1537.5 V 670.03888 H 0 Z"
         transform="matrix(0.33430896,0,0,0.33430896,-0.50000001,-0.50000001)"
         clip-rule="evenodd"
         id="path35" />
    </clipPath>
    <clipPath
       clipPathUnits="userSpaceOnUse"
       id="clipPath37">
      <path
         d="M 0,0 H 1537.5 V 670.03888 H 0 Z"
         transform="matrix(0.33430896,0,0,0.33430896,-0.50000001,-0.50000001)"
         clip-rule="evenodd"
         id="path37" />
    </clipPath>
    <clipPath
       clipPathUnits="userSpaceOnUse"
       id="clipPath38">
      <path
         d="M 0,0 H 1537.5 V 670.03888 H 0 Z"
         transform="matrix(0.3343056,0,0,0.3343056,-274.42188,-99)"
         clip-rule="evenodd"
         id="path38" />
    </clipPath>
    <clipPath
       clipPathUnits="userSpaceOnUse"
       id="clipPath40">
      <path
         d="M 0,0 H 1537.5 V 670.03888 H 0 Z"
         transform="matrix(0.33430896,0,0,0.33430896,-0.50000001,-0.50000001)"
         clip-rule="evenodd"
         id="path40" />
    </clipPath>
    <clipPath
       clipPathUnits="userSpaceOnUse"
       id="clipPath41">
      <path
         d="M 0,0 H 1537.5 V 670.03888 H 0 Z"
         transform="matrix(0.3343056,0,0,0.3343056,-438.32813,-99)"
         clip-rule="evenodd"
         id="path41" />
    </clipPath>
    <clipPath
       clipPathUnits="userSpaceOnUse"
       id="clipPath43">
      <path
         d="M 0,0 H 1537.5 V 670.03888 H 0 Z"
         transform="matrix(0.33430896,0,0,0.33430896,-0.50000001,-0.50000001)"
         clip-rule="evenodd"
         id="path43" />
    </clipPath>
    <clipPath
       clipPathUnits="userSpaceOnUse"
       id="clipPath45">
      <path
         d="M 0,0 H 1537.5 V 670.03888 H 0 Z"
         transform="matrix(0.33430896,0,0,0.33430896,-0.50000001,-0.50000001)"
         clip-rule="evenodd"
         id="path45" />
    </clipPath>
    <clipPath
       clipPathUnits="userSpaceOnUse"
       id="clipPath47">
      <path
         d="M 0,0 H 1537.5 V 670.03888 H 0 Z"
         transform="matrix(0.33430896,0,0,0.33430896,-0.50000001,-0.50000001)"
         clip-rule="evenodd"
         id="path47" />
    </clipPath>
    <clipPath
       clipPathUnits="userSpaceOnUse"
       id="clipPath48">
      <path
         d="M 0,0 H 1537.5 V 670.03888 H 0 Z"
         transform="matrix(0.3343056,0,0,0.3343056,-94.421875,-139)"
         clip-rule="evenodd"
         id="path48" />
    </clipPath>
    <clipPath
       clipPathUnits="userSpaceOnUse"
       id="clipPath50">
      <path
         d="M 0,0 H 1537.5 V 670.03888 H 0 Z"
         transform="matrix(0.33430896,0,0,0.33430896,-0.50000001,-0.50000001)"
         clip-rule="evenodd"
         id="path50" />
    </clipPath>
    <clipPath
       clipPathUnits="userSpaceOnUse"
       id="clipPath52">
      <path
         d="M 0,0 H 1537.5 V 670.03888 H 0 Z"
         transform="matrix(0.33430896,0,0,0.33430896,-0.50000001,-0.50000001)"
         clip-rule="evenodd"
         id="path52" />
    </clipPath>
    <clipPath
       clipPathUnits="userSpaceOnUse"
       id="clipPath54">
      <path
         d="M 0,0 H 1537.5 V 670.03888 H 0 Z"
         transform="matrix(0.33430896,0,0,0.33430896,-0.50000001,-0.50000001)"
         clip-rule="evenodd"
         id="path54" />
    </clipPath>
    <clipPath
       clipPathUnits="userSpaceOnUse"
       id="clipPath55">
      <path
         d="M 0,0 H 1537.5 V 670.03888 H 0 Z"
         transform="matrix(0.3343056,0,0,0.3343056,-19.671875,-139)"
         clip-rule="evenodd"
         id="path55" />
    </clipPath>
    <clipPath
       clipPathUnits="userSpaceOnUse"
       id="clipPath57">
      <path
         d="M 0,0 H 1537.5 V 670.03888 H 0 Z"
         transform="matrix(0.33430896,0,0,0.33430896,-0.50000001,-0.50000001)"
         clip-rule="evenodd"
         id="path57" />
    </clipPath>
    <clipPath
       clipPathUnits="userSpaceOnUse"
       id="clipPath58">
      <path
         d="M 0,0 H 1537.5 V 670.03888 H 0 Z"
         transform="matrix(0.3343056,0,0,0.3343056,-284.51563,-143)"
         clip-rule="evenodd"
         id="path58" />
    </clipPath>
    <clipPath
       clipPathUnits="userSpaceOnUse"
       id="clipPath59">
      <path
         d="M 0,0 H 1537.5 V 670.03888 H 0 Z"
         transform="matrix(0.3343056,0,0,0.3343056,-351.00001,-159)"
         clip-rule="evenodd"
         id="path59" />
    </clipPath>
    <clipPath
       clipPathUnits="userSpaceOnUse"
       id="clipPath61">
      <path
         d="M 0,0 H 1537.5 V 670.03888 H 0 Z"
         transform="matrix(0.33430896,0,0,0.33430896,-0.50000001,-0.50000001)"
         clip-rule="evenodd"
         id="path61" />
    </clipPath>
    <clipPath
       clipPathUnits="userSpaceOnUse"
       id="clipPath63">
      <path
         d="M 0,0 H 1537.5 V 670.03888 H 0 Z"
         transform="matrix(0.33430896,0,0,0.33430896,-0.50000001,-0.50000001)"
         clip-rule="evenodd"
         id="path63" />
    </clipPath>
    <clipPath
       clipPathUnits="userSpaceOnUse"
       id="clipPath64">
      <path
         d="M 0,0 H 1537.5 V 670.03888 H 0 Z"
         transform="matrix(0.3343056,0,0,0.3343056,-329.42188,-191)"
         clip-rule="evenodd"
         id="path64" />
    </clipPath>
  </defs>
  <sodipodi:namedview
     id="namedview1"
     pagecolor="#ffffff"
     bordercolor="#000000"
     borderopacity="0.25"
     inkscape:showpageshadow="2"
     inkscape:pageopacity="0.0"
     inkscape:pagecheckerboard="0"
     inkscape:deskcolor="#d1d1d1">
    <inkscape:page
       x="0"
       y="0"
       inkscape:label="1"
       id="page1"
       width="492.16"
       height="216"
       margin="0"
       bleed="0" />
  </sodipodi:namedview>
  <g
     id="g1"
     inkscape:groupmode="layer"
     inkscape:label="1">
    <path
       id="path1"
       d="M 0,0 H 514 V 225 H 0 Z"
       style="fill:#ffffff;fill-opacity:1;fill-rule:nonzero;stroke:none"
       transform="scale(0.95719836)"
       clip-path="url(#clipPath2)" />
    <path
       id="path3"
       d="M 251,31 H 511 V 221 H 251 Z"
       style="fill:#dae8fc;fill-opacity:1;fill-rule:nonzero;stroke:#6c8ebf;stroke-width:1;stroke-linecap:butt;stroke-linejoin:miter;stroke-miterlimit:10;stroke-dasharray:none;stroke-opacity:1"
       transform="matrix(0.95719836,0,0,0.95719836,0.47859919,0.47859919)"
       clip-path="url(#clipPath4)" />
    <path
       id="path5"
       d="M 1,46 H 211 V 76 H 1 Z"
       style="fill:#ffe6cc;fill-opacity:1;fill-rule:nonzero;stroke:#d79b00;stroke-width:1;stroke-linecap:butt;stroke-linejoin:miter;stroke-miterlimit:10;stroke-dasharray:none;stroke-opacity:1"
       transform="matrix(0.95719836,0,0,0.95719836,0.47859919,0.47859919)"
       clip-path="url(#clipPath6)" />
    <text
       id="text6"
       xml:space="preserve"
       transform="matrix(0.95720799,0,0,0.95720799,40.277518,65.090143)"
       clip-path="url(#clipPath7)"><tspan
         style="font-variant:normal;font-weight:normal;font-size:20px;font-family:Helvetica;writing-mode:lr-tb;fill:#000000;fill-opacity:1;fill-rule:nonzero;stroke:none"
         x="0 13.339844 24.462891 38.90625 50.029297 56.689453 62.246094 78.90625 90.029297 101.15234 112.27539 116.71875"
         y="0"
         sodipodi:role="line"
         id="tspan6">Power Module</tspan></text>
    <path
       id="path8"
       d="m 1,76 h 210 v 85 H 1 Z"
       style="fill:#ffe6cc;fill-opacity:1;fill-rule:nonzero;stroke:#d79b00;stroke-width:1;stroke-linecap:butt;stroke-linejoin:miter;stroke-miterlimit:10;stroke-dasharray:none;stroke-opacity:1"
       transform="matrix(0.95719836,0,0,0.95719836,0.47859919,0.47859919)"
       clip-path="url(#clipPath9)" />
    <path
       id="path10"
       d="m 201,96 h 30 V 56 h 23.63"
       style="fill:none;stroke:#000000;stroke-width:1;stroke-linecap:butt;stroke-linejoin:miter;stroke-miterlimit:10;stroke-dasharray:none;stroke-opacity:1"
       transform="matrix(0.95719836,0,0,0.95719836,0.47859919,0.47859919)"
       clip-path="url(#clipPath11)" />
    <path
       id="path12"
       d="m 259.88,56 -7,3.5 1.75,-3.5 -1.75,-3.5 z"
       style="fill:#000000;fill-opacity:1;fill-rule:nonzero;stroke:#000000;stroke-width:1;stroke-linecap:butt;stroke-linejoin:miter;stroke-miterlimit:10;stroke-dasharray:none;stroke-opacity:1"
       transform="matrix(0.95719836,0,0,0.95719836,0.47859919,0.47859919)"
       clip-path="url(#clipPath13)" />
    <path
       id="path14"
       d="m 91,81 h 110 v 30 H 91 Z"
       style="fill:#f5f5f5;fill-opacity:1;fill-rule:nonzero;stroke:#666666;stroke-width:1;stroke-linecap:butt;stroke-linejoin:miter;stroke-miterlimit:10;stroke-dasharray:none;stroke-opacity:1"
       transform="matrix(0.95719836,0,0,0.95719836,0.47859919,0.47859919)"
       clip-path="url(#clipPath15)" />
    <text
       id="text15"
       xml:space="preserve"
       transform="matrix(0.95720799,0,0,0.95720799,90.381373,96.678007)"
       clip-path="url(#clipPath16)"><tspan
         style="font-variant:normal;font-weight:normal;font-size:16px;font-family:Helvetica;writing-mode:lr-tb;fill:#333333;fill-opacity:1;fill-rule:nonzero;stroke:none"
         x="0 10.671875 19.570312 31.125 40.023438 45.351562 49.796875 60.46875 69.367188 74.695312 82.695312 86.25 94.25"
         y="0"
         sodipodi:role="line"
         id="tspan15">Power Service</tspan></text>
    <path
       id="path17"
       d="M 71,96 H 91 71 84.629997"
       style="fill:none;stroke:#000000;stroke-width:1;stroke-linecap:butt;stroke-linejoin:miter;stroke-miterlimit:10;stroke-dasharray:none;stroke-opacity:1"
       transform="matrix(0.95719836,0,0,0.95719836,0.47859919,0.47859919)"
       clip-path="url(#clipPath18)" />
    <path
       id="path19"
       d="m 89.879997,96 -7,3.5 1.75,-3.5 -1.75,-3.5 z"
       style="fill:#000000;fill-opacity:1;fill-rule:nonzero;stroke:#000000;stroke-width:1;stroke-linecap:butt;stroke-linejoin:miter;stroke-miterlimit:10;stroke-dasharray:none;stroke-opacity:1"
       transform="matrix(0.95719836,0,0,0.95719836,0.47859919,0.47859919)"
       clip-path="url(#clipPath20)" />
    <path
       id="path21"
       d="m 11,81 h 60 v 30 H 11 Z"
       style="fill:#f5f5f5;fill-opacity:1;fill-rule:nonzero;stroke:#666666;stroke-width:1;stroke-linecap:butt;stroke-linejoin:miter;stroke-miterlimit:10;stroke-dasharray:none;stroke-opacity:1"
       transform="matrix(0.95719836,0,0,0.95719836,0.47859919,0.47859919)"
       clip-path="url(#clipPath22)" />
    <text
       id="text22"
       xml:space="preserve"
       transform="matrix(0.95720799,0,0,0.95720799,13.65517,96.678007)"
       clip-path="url(#clipPath23)"><tspan
         style="font-variant:normal;font-weight:normal;font-size:13px;font-family:Helvetica;writing-mode:lr-tb;fill:#333333;fill-opacity:1;fill-rule:nonzero;stroke:none"
         x="0 7.2299805 11.559082 18.789062 25.289062 28.177246 35.407227 42.637207 46.966309"
         y="0"
         sodipodi:role="line"
         id="tspan22">providers</tspan></text>
    <path
       id="path24"
       d="M 251,1 H 511 V 31 H 251 Z"
       style="fill:#dae8fc;fill-opacity:1;fill-rule:nonzero;stroke:#6c8ebf;stroke-width:1;stroke-linecap:butt;stroke-linejoin:miter;stroke-miterlimit:10;stroke-dasharray:none;stroke-opacity:1"
       transform="matrix(0.95719836,0,0,0.95719836,0.47859919,0.47859919)"
       clip-path="url(#clipPath25)" />
    <text
       id="text25"
       xml:space="preserve"
       transform="matrix(0.95720799,0,0,0.95720799,310.95799,22.015784)"
       clip-path="url(#clipPath26)"><tspan
         style="font-variant:normal;font-weight:normal;font-size:20px;font-family:Helvetica;writing-mode:lr-tb;fill:#000000;fill-opacity:1;fill-rule:nonzero;stroke:none"
         x="0 14.443359 20 25.556641 40 51.123047 62.246094 67.802734 78.925781 83.369141 94.492188 105.61523"
         y="0"
         sodipodi:role="line"
         id="tspan25">DI Container</tspan></text>
    <path
       id="path27"
       d="M 261,41 H 501 V 71 H 261 Z"
       style="fill:#ffffff;fill-opacity:1;fill-rule:nonzero;stroke:#000000;stroke-width:1;stroke-linecap:butt;stroke-linejoin:miter;stroke-miterlimit:10;stroke-dasharray:none;stroke-opacity:1"
       transform="matrix(0.95719836,0,0,0.95719836,0.47859919,0.47859919)"
       clip-path="url(#clipPath28)" />
    <text
       id="text28"
       xml:space="preserve"
       transform="matrix(0.95720799,0,0,0.95720799,259.19398,58.389688)"
       clip-path="url(#clipPath29)"><tspan
         style="font-variant:normal;font-weight:normal;font-size:13px;font-family:Helvetica;writing-mode:lr-tb;fill:#000000;fill-opacity:1;fill-rule:nonzero;stroke:none"
         x="0 7.2299805 10.118164 16.618164 20.22998 23.841797 31.071777 34.683594 38.29541 44.79541 47.683594 54.913574 61.413574 67.913574 75.143555 81.643555 85.255371 92.485352 99.715332 106.94531 110.55713 114.16895 121.39893 128.62891 131.51709 135.84619 139.45801 146.68799 153.91797 161.14795 168.37793 175.60791 182.83789 190.06787 197.29785 203.79785 206.68604 213.91602"
         y="0"
         sodipodi:role="line"
         id="tspan28">List of classes and their dependencies</tspan></text>
    <path
       id="path30"
       d="m 261,71 h 240 v 50 H 261 Z"
       style="fill:#ffffff;fill-opacity:1;fill-rule:nonzero;stroke:#000000;stroke-width:1;stroke-linecap:butt;stroke-linejoin:miter;stroke-miterlimit:10;stroke-dasharray:none;stroke-opacity:1"
       transform="matrix(0.95719836,0,0,0.95719836,0.47859919,0.47859919)"
       clip-path="url(#clipPath31)" />
    <path
       id="path32"
       d="m 381,93.5 h 20 -20 13.64001"
       style="fill:none;stroke:#000000;stroke-width:1;stroke-linecap:butt;stroke-linejoin:miter;stroke-miterlimit:10;stroke-dasharray:none;stroke-opacity:1"
       transform="matrix(0.95719836,0,0,0.95719836,0.47859919,0.47859919)"
       clip-path="url(#clipPath33)" />
    <path
       id="path34"
       d="m 399.89001,93.5 -7,3.5 1.75,-3.5 -1.75,-3.5 z"
       style="fill:#000000;fill-opacity:1;fill-rule:nonzero;stroke:#000000;stroke-width:1;stroke-linecap:butt;stroke-linejoin:miter;stroke-miterlimit:10;stroke-dasharray:none;stroke-opacity:1"
       transform="matrix(0.95719836,0,0,0.95719836,0.47859919,0.47859919)"
       clip-path="url(#clipPath35)" />
    <path
       id="path36"
       d="m 271,78.5 h 110 v 30 H 271 Z"
       style="fill:#f5f5f5;fill-opacity:1;fill-rule:nonzero;stroke:#666666;stroke-width:1;stroke-linecap:butt;stroke-linejoin:miter;stroke-miterlimit:10;stroke-dasharray:none;stroke-opacity:1"
       transform="matrix(0.95719836,0,0,0.95719836,0.47859919,0.47859919)"
       clip-path="url(#clipPath37)" />
    <text
       id="text37"
       xml:space="preserve"
       transform="matrix(0.95720799,0,0,0.95720799,262.67882,94.763591)"
       clip-path="url(#clipPath38)"><tspan
         style="font-variant:normal;font-weight:normal;font-size:16px;font-family:Helvetica;writing-mode:lr-tb;fill:#333333;fill-opacity:1;fill-rule:nonzero;stroke:none"
         x="0 10.671875 19.570312 31.125 40.023438 45.351562 49.796875 60.46875 69.367188 74.695312 82.695312 86.25 94.25"
         y="0"
         sodipodi:role="line"
         id="tspan37">Power Service</tspan></text>
    <path
       id="path39"
       d="m 401,78.5 h 80 v 30 h -80 z"
       style="fill:#f5f5f5;fill-opacity:1;fill-rule:nonzero;stroke:#666666;stroke-width:1;stroke-linecap:butt;stroke-linejoin:miter;stroke-miterlimit:10;stroke-dasharray:none;stroke-opacity:1"
       transform="matrix(0.95719836,0,0,0.95719836,0.47859919,0.47859919)"
       clip-path="url(#clipPath40)" />
    <text
       id="text40"
       xml:space="preserve"
       transform="matrix(0.95720799,0,0,0.95720799,419.57119,94.763591)"
       clip-path="url(#clipPath41)"><tspan
         style="font-variant:normal;font-weight:normal;font-size:16px;font-family:Helvetica;writing-mode:lr-tb;fill:#333333;fill-opacity:1;fill-rule:nonzero;stroke:none"
         x="0"
         y="0"
         id="tspan40">-</tspan></text>
    <path
       id="path42"
       d="m 201,133.5 h 30 V 146 h 23.63"
       style="fill:none;stroke:#000000;stroke-width:1;stroke-linecap:butt;stroke-linejoin:miter;stroke-miterlimit:10;stroke-dasharray:none;stroke-opacity:1"
       transform="matrix(0.95719836,0,0,0.95719836,0.47859919,0.47859919)"
       clip-path="url(#clipPath43)" />
    <path
       id="path44"
       d="m 259.88,146 -7,3.5 1.75,-3.5 -1.75,-3.5 z"
       style="fill:#000000;fill-opacity:1;fill-rule:nonzero;stroke:#000000;stroke-width:1;stroke-linecap:butt;stroke-linejoin:miter;stroke-miterlimit:10;stroke-dasharray:none;stroke-opacity:1"
       transform="matrix(0.95719836,0,0,0.95719836,0.47859919,0.47859919)"
       clip-path="url(#clipPath45)" />
    <path
       id="path46"
       d="m 91,118.5 h 110 v 30 H 91 Z"
       style="fill:#f5f5f5;fill-opacity:1;fill-rule:nonzero;stroke:#666666;stroke-width:1;stroke-linecap:butt;stroke-linejoin:miter;stroke-miterlimit:10;stroke-dasharray:none;stroke-opacity:1"
       transform="matrix(0.95719836,0,0,0.95719836,0.47859919,0.47859919)"
       clip-path="url(#clipPath47)" />
    <text
       id="text47"
       xml:space="preserve"
       transform="matrix(0.95720799,0,0,0.95720799,90.381373,133.05191)"
       clip-path="url(#clipPath48)"><tspan
         style="font-variant:normal;font-weight:normal;font-size:16px;font-family:Helvetica;writing-mode:lr-tb;fill:#333333;fill-opacity:1;fill-rule:nonzero;stroke:none"
         x="0 10.671875 19.570312 31.125 40.023438 45.351562 49.796875 60.46875 69.367188 74.695312 82.695312 86.25 94.25"
         y="0"
         sodipodi:role="line"
         id="tspan47">Power Service</tspan></text>
    <path
       id="path49"
       d="M 71,133.5 H 91 71 84.629997"
       style="fill:none;stroke:#000000;stroke-width:1;stroke-linecap:butt;stroke-linejoin:miter;stroke-miterlimit:10;stroke-dasharray:none;stroke-opacity:1"
       transform="matrix(0.95719836,0,0,0.95719836,0.47859919,0.47859919)"
       clip-path="url(#clipPath50)" />
    <path
       id="path51"
       d="m 89.879997,133.5 -7,3.5 1.75,-3.5 -1.75,-3.5 z"
       style="fill:#000000;fill-opacity:1;fill-rule:nonzero;stroke:#000000;stroke-width:1;stroke-linecap:butt;stroke-linejoin:miter;stroke-miterlimit:10;stroke-dasharray:none;stroke-opacity:1"
       transform="matrix(0.95719836,0,0,0.95719836,0.47859919,0.47859919)"
       clip-path="url(#clipPath52)" />
    <path
       id="path53"
       d="m 11,118.5 h 60 v 30 H 11 Z"
       style="fill:#f5f5f5;fill-opacity:1;fill-rule:nonzero;stroke:#666666;stroke-width:1;stroke-linecap:butt;stroke-linejoin:miter;stroke-miterlimit:10;stroke-dasharray:none;stroke-opacity:1"
       transform="matrix(0.95719836,0,0,0.95719836,0.47859919,0.47859919)"
       clip-path="url(#clipPath54)" />
    <text
       id="text54"
       xml:space="preserve"
       transform="matrix(0.95720799,0,0,0.95720799,18.830076,133.05191)"
       clip-path="url(#clipPath55)"><tspan
         style="font-variant:normal;font-weight:normal;font-size:13px;font-family:Helvetica;writing-mode:lr-tb;fill:#333333;fill-opacity:1;fill-rule:nonzero;stroke:none"
         x="0 7.2299805 13.72998 20.959961 28.189941 32.519043 36.130859"
         y="0"
         sodipodi:role="line"
         id="tspan54">exports</tspan></text>
    <path
       id="path56"
       d="m 261,131 h 240 v 30 H 261 Z"
       style="fill:#ffffff;fill-opacity:1;fill-rule:nonzero;stroke:#000000;stroke-width:1;stroke-linecap:butt;stroke-linejoin:miter;stroke-miterlimit:10;stroke-dasharray:none;stroke-opacity:1"
       transform="matrix(0.95719836,0,0,0.95719836,0.47859919,0.47859919)"
       clip-path="url(#clipPath57)" />
    <text
       id="text57"
       xml:space="preserve"
       transform="matrix(0.95720799,0,0,0.95720799,272.34063,136.88074)"
       clip-path="url(#clipPath58)"><tspan
         style="font-variant:normal;font-weight:normal;font-size:13px;font-family:Helvetica;writing-mode:lr-tb;fill:#000000;fill-opacity:1;fill-rule:nonzero;stroke:none"
         x="0 9.3881836 12.276367 19.506348 26.006348 32.506348 39.736328 46.236328 49.848145 53.459961 60.689941 67.919922 71.531738 75.143555 81.643555 88.873535 96.103516 99.715332 106.94531 114.17529 117.78711 125.01709 131.51709 138.74707 145.97705 149.58887 152.47705 159.70703 163.31885 170.54883 174.16064 181.39062 188.62061"
         y="0"
         sodipodi:role="line"
         id="tspan57">Classes that can be used in other</tspan></text>
    <text
       id="text58"
       xml:space="preserve"
       transform="matrix(0.95720799,0,0,0.95720799,335.98001,152.19607)"
       clip-path="url(#clipPath59)"><tspan
         style="font-variant:normal;font-weight:normal;font-size:13px;font-family:Helvetica;writing-mode:lr-tb;fill:#000000;fill-opacity:1;fill-rule:nonzero;stroke:none"
         x="0 6.5 13.72998 20.959961 24.571777 31.801758 34.689941 41.919922 49.149902 53.479004"
         y="0"
         sodipodi:role="line"
         id="tspan58">containers</tspan></text>
    <path
       id="path60"
       d="m 261,161 h 240 v 50 H 261 Z"
       style="fill:#ffffff;fill-opacity:1;fill-rule:nonzero;stroke:#000000;stroke-width:1;stroke-linecap:butt;stroke-linejoin:miter;stroke-miterlimit:10;stroke-dasharray:none;stroke-opacity:1"
       transform="matrix(0.95719836,0,0,0.95719836,0.47859919,0.47859919)"
       clip-path="url(#clipPath61)" />
    <path
       id="path62"
       d="m 326,171 h 110 v 30 H 326 Z"
       style="fill:#f5f5f5;fill-opacity:1;fill-rule:nonzero;stroke:#666666;stroke-width:1;stroke-linecap:butt;stroke-linejoin:miter;stroke-miterlimit:10;stroke-dasharray:none;stroke-opacity:1"
       transform="matrix(0.95719836,0,0,0.95719836,0.47859919,0.47859919)"
       clip-path="url(#clipPath63)" />
    <text
       id="text63"
       xml:space="preserve"
       transform="matrix(0.95720799,0,0,0.95720799,315.32526,182.82673)"
       clip-path="url(#clipPath64)"><tspan
         style="font-variant:normal;font-weight:normal;font-size:16px;font-family:Helvetica;writing-mode:lr-tb;fill:#333333;fill-opacity:1;fill-rule:nonzero;stroke:none"
         x="0 10.671875 19.570312 31.125 40.023438 45.351562 49.796875 60.46875 69.367188 74.695312 82.695312 86.25 94.25"
         y="0"
         sodipodi:role="line"
         id="tspan63">Power Service</tspan></text>
  </g>
</svg>
