<?xml version="1.0" encoding="UTF-8" standalone="no"?>
<!-- Created with Inkscape (http://www.inkscape.org/) -->

<svg
   version="1.1"
   id="svg1"
   width="414.71997"
   height="244.16"
   viewBox="0 0 414.71997 244.16"
   sodipodi:docname="nest-2.pdf"
   xmlns:inkscape="http://www.inkscape.org/namespaces/inkscape"
   xmlns:sodipodi="http://sodipodi.sourceforge.net/DTD/sodipodi-0.dtd"
   xmlns="http://www.w3.org/2000/svg"
   xmlns:svg="http://www.w3.org/2000/svg">
  <defs
     id="defs1">
    <clipPath
       clipPathUnits="userSpaceOnUse"
       id="clipPath2">
      <path
         d="M 0,0 H 1295.8333 V 761.37671 H 0 Z"
         transform="scale(0.33491962)"
         clip-rule="evenodd"
         id="path2" />
    </clipPath>
    <clipPath
       clipPathUnits="userSpaceOnUse"
       id="clipPath4">
      <path
         d="M 0,0 H 1295.8333 V 752.41931 H 0 Z"
         transform="matrix(0.33491962,0,0,0.33491962,-0.49999999,-0.49999999)"
         clip-rule="evenodd"
         id="path4" />
    </clipPath>
    <clipPath
       clipPathUnits="userSpaceOnUse"
       id="clipPath5">
      <path
         d="M 0,0 H 1295.8333 V 752.41931 H 0 Z"
         transform="matrix(0.33491628,0,0,0.33491628,-33.078125,-78)"
         clip-rule="evenodd"
         id="path5" />
    </clipPath>
    <clipPath
       clipPathUnits="userSpaceOnUse"
       id="clipPath7">
      <path
         d="M 0,0 H 1295.8333 V 752.41931 H 0 Z"
         transform="matrix(0.33491962,0,0,0.33491962,-0.49999999,-0.49999999)"
         clip-rule="evenodd"
         id="path7" />
    </clipPath>
    <clipPath
       clipPathUnits="userSpaceOnUse"
       id="clipPath8">
      <path
         d="M 0,0 H 1295.8333 V 752.41931 H 0 Z"
         transform="matrix(0.33491628,0,0,0.33491628,-288.03125,-40)"
         clip-rule="evenodd"
         id="path8" />
    </clipPath>
    <clipPath
       clipPathUnits="userSpaceOnUse"
       id="clipPath10">
      <path
         d="M 0,0 H 1295.8333 V 752.41931 H 0 Z"
         transform="matrix(0.33491962,0,0,0.33491962,-0.49999999,-0.49999999)"
         clip-rule="evenodd"
         id="path10" />
    </clipPath>
    <clipPath
       clipPathUnits="userSpaceOnUse"
       id="clipPath11">
      <path
         d="M 0,0 H 1295.8333 V 752.41931 H 0 Z"
         transform="matrix(0.33491628,0,0,0.33491628,-274.01563,-169.99999)"
         clip-rule="evenodd"
         id="path11" />
    </clipPath>
    <clipPath
       clipPathUnits="userSpaceOnUse"
       id="clipPath12">
      <path
         d="M 0,0 H 1295.8333 V 752.41931 H 0 Z"
         transform="matrix(0.33491628,0,0,0.33491628,-306.65625,-14)"
         clip-rule="evenodd"
         id="path12" />
    </clipPath>
    <clipPath
       clipPathUnits="userSpaceOnUse"
       id="clipPath14">
      <path
         d="M 0,0 H 1295.8333 V 752.41931 H 0 Z"
         transform="matrix(0.33491962,0,0,0.33491962,-0.49999999,-0.49999999)"
         clip-rule="evenodd"
         id="path14" />
    </clipPath>
    <clipPath
       clipPathUnits="userSpaceOnUse"
       id="clipPath16">
      <path
         d="M 0,0 H 1295.8333 V 752.41931 H 0 Z"
         transform="matrix(0.33491962,0,0,0.33491962,-0.49999999,-0.49999999)"
         clip-rule="evenodd"
         id="path16" />
    </clipPath>
    <clipPath
       clipPathUnits="userSpaceOnUse"
       id="clipPath18">
      <path
         d="M 0,0 H 1295.8333 V 752.41931 H 0 Z"
         transform="matrix(0.33491962,0,0,0.33491962,-0.49999999,-0.49999999)"
         clip-rule="evenodd"
         id="path18" />
    </clipPath>
    <clipPath
       clipPathUnits="userSpaceOnUse"
       id="clipPath19">
      <path
         d="M 0,0 H 1295.8333 V 752.41931 H 0 Z"
         transform="matrix(0.33491628,0,0,0.33491628,-283.0625,-74)"
         clip-rule="evenodd"
         id="path19" />
    </clipPath>
    <clipPath
       clipPathUnits="userSpaceOnUse"
       id="clipPath21">
      <path
         d="M 0,0 H 1295.8333 V 752.41931 H 0 Z"
         transform="matrix(0.33491962,0,0,0.33491962,-0.49999999,-0.49999999)"
         clip-rule="evenodd"
         id="path21" />
    </clipPath>
    <clipPath
       clipPathUnits="userSpaceOnUse"
       id="clipPath22">
      <path
         d="M 0,0 H 1295.8333 V 752.41931 H 0 Z"
         transform="matrix(0.33491628,0,0,0.33491628,-357.34374,-74)"
         clip-rule="evenodd"
         id="path22" />
    </clipPath>
    <clipPath
       clipPathUnits="userSpaceOnUse"
       id="clipPath24">
      <path
         d="M 0,0 H 1295.8333 V 752.41931 H 0 Z"
         transform="matrix(0.33491962,0,0,0.33491962,-0.49999999,-0.49999999)"
         clip-rule="evenodd"
         id="path24" />
    </clipPath>
    <clipPath
       clipPathUnits="userSpaceOnUse"
       id="clipPath25">
      <path
         d="M 0,0 H 1295.8333 V 752.41931 H 0 Z"
         transform="matrix(0.33491628,0,0,0.33491628,-285.5,-104)"
         clip-rule="evenodd"
         id="path25" />
    </clipPath>
    <clipPath
       clipPathUnits="userSpaceOnUse"
       id="clipPath27">
      <path
         d="M 0,0 H 1295.8333 V 752.41931 H 0 Z"
         transform="matrix(0.33491962,0,0,0.33491962,-0.49999999,-0.49999999)"
         clip-rule="evenodd"
         id="path27" />
    </clipPath>
    <clipPath
       clipPathUnits="userSpaceOnUse"
       id="clipPath28">
      <path
         d="M 0,0 H 1295.8333 V 752.41931 H 0 Z"
         transform="matrix(0.33491628,0,0,0.33491628,-353.98438,-104)"
         clip-rule="evenodd"
         id="path28" />
    </clipPath>
    <clipPath
       clipPathUnits="userSpaceOnUse"
       id="clipPath30">
      <path
         d="M 0,0 H 1295.8333 V 752.41931 H 0 Z"
         transform="matrix(0.33491962,0,0,0.33491962,-0.49999999,-0.49999999)"
         clip-rule="evenodd"
         id="path30" />
    </clipPath>
    <clipPath
       clipPathUnits="userSpaceOnUse"
       id="clipPath31">
      <path
         d="M 0,0 H 1295.8333 V 752.41931 H 0 Z"
         transform="matrix(0.33491628,0,0,0.33491628,-283.0625,-204)"
         clip-rule="evenodd"
         id="path31" />
    </clipPath>
    <clipPath
       clipPathUnits="userSpaceOnUse"
       id="clipPath33">
      <path
         d="M 0,0 H 1295.8333 V 752.41931 H 0 Z"
         transform="matrix(0.33491962,0,0,0.33491962,-0.49999999,-0.49999999)"
         clip-rule="evenodd"
         id="path33" />
    </clipPath>
    <clipPath
       clipPathUnits="userSpaceOnUse"
       id="clipPath34">
      <path
         d="M 0,0 H 1295.8333 V 752.41931 H 0 Z"
         transform="matrix(0.33491628,0,0,0.33491628,-357.34374,-204)"
         clip-rule="evenodd"
         id="path34" />
    </clipPath>
    <clipPath
       clipPathUnits="userSpaceOnUse"
       id="clipPath36">
      <path
         d="M 0,0 H 1295.8333 V 752.41931 H 0 Z"
         transform="matrix(0.33491962,0,0,0.33491962,-0.49999999,-0.49999999)"
         clip-rule="evenodd"
         id="path36" />
    </clipPath>
    <clipPath
       clipPathUnits="userSpaceOnUse"
       id="clipPath37">
      <path
         d="M 0,0 H 1295.8333 V 752.41931 H 0 Z"
         transform="matrix(0.33491628,0,0,0.33491628,-285.5,-234)"
         clip-rule="evenodd"
         id="path37" />
    </clipPath>
    <clipPath
       clipPathUnits="userSpaceOnUse"
       id="clipPath39">
      <path
         d="M 0,0 H 1295.8333 V 752.41931 H 0 Z"
         transform="matrix(0.33491962,0,0,0.33491962,-0.49999999,-0.49999999)"
         clip-rule="evenodd"
         id="path39" />
    </clipPath>
    <clipPath
       clipPathUnits="userSpaceOnUse"
       id="clipPath40">
      <path
         d="M 0,0 H 1295.8333 V 752.41931 H 0 Z"
         transform="matrix(0.33491628,0,0,0.33491628,-353.98438,-234)"
         clip-rule="evenodd"
         id="path40" />
    </clipPath>
    <clipPath
       clipPathUnits="userSpaceOnUse"
       id="clipPath42">
      <path
         d="M 0,0 H 1295.8333 V 752.41931 H 0 Z"
         transform="matrix(0.33491962,0,0,0.33491962,-0.49999999,-0.49999999)"
         clip-rule="evenodd"
         id="path42" />
    </clipPath>
    <clipPath
       clipPathUnits="userSpaceOnUse"
       id="clipPath44">
      <path
         d="M 0,0 H 1295.8333 V 752.41931 H 0 Z"
         transform="matrix(0.33491962,0,0,0.33491962,-0.49999999,-0.49999999)"
         clip-rule="evenodd"
         id="path44" />
    </clipPath>
    <clipPath
       clipPathUnits="userSpaceOnUse"
       id="clipPath46">
      <path
         d="M 0,0 H 1295.8333 V 752.41931 H 0 Z"
         transform="matrix(0.33491962,0,0,0.33491962,-0.49999999,-0.49999999)"
         clip-rule="evenodd"
         id="path46" />
    </clipPath>
    <clipPath
       clipPathUnits="userSpaceOnUse"
       id="clipPath48">
      <path
         d="M 0,0 H 1295.8333 V 752.41931 H 0 Z"
         transform="matrix(0.33491962,0,0,0.33491962,-0.49999999,-0.49999999)"
         clip-rule="evenodd"
         id="path48" />
    </clipPath>
    <clipPath
       clipPathUnits="userSpaceOnUse"
       id="clipPath50">
      <path
         d="M 0,0 H 1295.8333 V 752.41931 H 0 Z"
         transform="matrix(0.33491962,0,0,0.33491962,-0.49999999,-0.49999999)"
         clip-rule="evenodd"
         id="path50" />
    </clipPath>
    <clipPath
       clipPathUnits="userSpaceOnUse"
       id="clipPath52">
      <path
         d="M 0,0 H 1295.8333 V 752.41931 H 0 Z"
         transform="matrix(0.33491962,0,0,0.33491962,-0.49999999,-0.49999999)"
         clip-rule="evenodd"
         id="path52" />
    </clipPath>
    <clipPath
       clipPathUnits="userSpaceOnUse"
       id="clipPath53">
      <path
         d="M 0,0 H 1295.8333 V 752.41931 H 0 Z"
         transform="matrix(0.33491628,0,0,0.33491628,-37.406249,-119)"
         clip-rule="evenodd"
         id="path53" />
    </clipPath>
    <clipPath
       clipPathUnits="userSpaceOnUse"
       id="clipPath55">
      <path
         d="M 0,0 H 1295.8333 V 752.41931 H 0 Z"
         transform="matrix(0.33491962,0,0,0.33491962,-0.49999999,-0.49999999)"
         clip-rule="evenodd"
         id="path55" />
    </clipPath>
    <clipPath
       clipPathUnits="userSpaceOnUse"
       id="clipPath56">
      <path
         d="M 0,0 H 1295.8333 V 752.41931 H 0 Z"
         transform="matrix(0.33491628,0,0,0.33491628,-51.765624,-149)"
         clip-rule="evenodd"
         id="path56" />
    </clipPath>
    <clipPath
       clipPathUnits="userSpaceOnUse"
       id="clipPath58">
      <path
         d="M 0,0 H 1295.8333 V 752.41931 H 0 Z"
         transform="matrix(0.33491962,0,0,0.33491962,-0.49999999,-0.49999999)"
         clip-rule="evenodd"
         id="path58" />
    </clipPath>
    <clipPath
       clipPathUnits="userSpaceOnUse"
       id="clipPath59">
      <path
         d="M 0,0 H 1295.8333 V 752.41931 H 0 Z"
         transform="matrix(0.33491628,0,0,0.33491628,-27.921875,-179)"
         clip-rule="evenodd"
         id="path59" />
    </clipPath>
  </defs>
  <sodipodi:namedview
     id="namedview1"
     pagecolor="#ffffff"
     bordercolor="#000000"
     borderopacity="0.25"
     inkscape:showpageshadow="2"
     inkscape:pageopacity="0.0"
     inkscape:pagecheckerboard="0"
     inkscape:deskcolor="#d1d1d1">
    <inkscape:page
       x="0"
       y="0"
       inkscape:label="1"
       id="page1"
       width="414.71997"
       height="244.16"
       margin="0"
       bleed="0" />
  </sodipodi:namedview>
  <g
     id="g1"
     inkscape:groupmode="layer"
     inkscape:label="1">
    <path
       id="path1"
       d="M 0,0 H 434 V 255 H 0 Z"
       style="fill:#ffffff;fill-opacity:1;fill-rule:nonzero;stroke:none"
       transform="scale(0.95545308)"
       clip-path="url(#clipPath2)" />
    <path
       id="path3"
       d="m 1,57.5 h 170 v 30 H 1 Z"
       style="fill:#dae8fc;fill-opacity:1;fill-rule:nonzero;stroke:#6c8ebf;stroke-width:1;stroke-linecap:butt;stroke-linejoin:miter;stroke-miterlimit:10;stroke-dasharray:none;stroke-opacity:1"
       transform="matrix(0.95545308,0,0,0.95545308,0.47772653,0.47772653)"
       clip-path="url(#clipPath4)" />
    <text
       id="text4"
       xml:space="preserve"
       transform="matrix(0.95546262,0,0,0.95546262,31.604912,74.526084)"
       clip-path="url(#clipPath5)"><tspan
         style="font-variant:normal;font-weight:700;font-size:14px;font-family:Helvetica;writing-mode:lr-tb;fill:#000000;fill-opacity:1;fill-rule:nonzero;stroke:none"
         x="0 11.662109 19.448242 23.337891 27.227539 35.779297 44.331055 52.117188 56.006836 65.344727 73.130859 78.579102 86.365234 90.254883 98.041016"
         y="0"
         sodipodi:role="line"
         id="tspan4">Mailbox Service</tspan></text>
    <path
       id="path6"
       d="M 261,20 H 431 V 50 H 261 Z"
       style="fill:#dae8fc;fill-opacity:1;fill-rule:nonzero;stroke:#6c8ebf;stroke-width:1;stroke-linecap:butt;stroke-linejoin:miter;stroke-miterlimit:10;stroke-dasharray:none;stroke-opacity:1"
       transform="matrix(0.95545308,0,0,0.95545308,0.47772653,0.47772653)"
       clip-path="url(#clipPath7)" />
    <text
       id="text7"
       xml:space="preserve"
       transform="matrix(0.95546262,0,0,0.95546262,275.20309,38.218505)"
       clip-path="url(#clipPath8)"><tspan
         style="font-variant:normal;font-weight:700;font-size:14px;font-family:Helvetica;writing-mode:lr-tb;fill:#000000;fill-opacity:1;fill-rule:nonzero;stroke:none"
         x="0 10.110352 17.896484 25.682617 31.130859 38.916992 42.806641 52.916992 60.703125 69.254883 77.806641 85.592773 89.482422 94.144531 102.69629 108.14453"
         y="0"
         sodipodi:role="line"
         id="tspan7">Users Repository</tspan></text>
    <path
       id="path9"
       d="m 261,150 h 170 v 30 H 261 Z"
       style="fill:#dae8fc;fill-opacity:1;fill-rule:nonzero;stroke:#6c8ebf;stroke-width:1;stroke-linecap:butt;stroke-linejoin:miter;stroke-miterlimit:10;stroke-dasharray:none;stroke-opacity:1"
       transform="matrix(0.95545308,0,0,0.95545308,0.47772653,0.47772653)"
       clip-path="url(#clipPath10)" />
    <text
       id="text10"
       xml:space="preserve"
       transform="matrix(0.95546262,0,0,0.95546262,261.81169,162.42864)"
       clip-path="url(#clipPath11)"><tspan
         style="font-variant:normal;font-weight:700;font-size:14px;font-family:Helvetica;writing-mode:lr-tb;fill:#000000;fill-opacity:1;fill-rule:nonzero;stroke:none"
         x="0 11.662109 19.448242 27.234375 35.020508 42.806641 51.358398 59.144531 66.930664 70.820312 80.930664 88.716797 97.268555 105.82031 113.60645 117.49609 122.1582 130.70996 136.1582"
         y="0"
         sodipodi:role="line"
         id="tspan10">Messages Repository</tspan></text>
    <text
       id="text11"
       xml:space="preserve"
       transform="matrix(0.95546262,0,0,0.95546262,292.99858,13.376477)"
       clip-path="url(#clipPath12)"><tspan
         style="font-style:oblique;font-variant:normal;font-weight:normal;font-size:11px;font-family:Helvetica;writing-mode:lr-tb;fill:#000000;fill-opacity:1;fill-rule:nonzero;stroke:none"
         x="0 10.188965 16.306641 19.362793 27.306641 33.424316 39.541992 41.64209 44.698242 47.754395 53.87207 59.989746 63.045898 72.208984 78.32666 83.82666 86.270508 92.388184 98.505859 101.56201 104.61816 110.73584 113.17969"
         y="0"
         sodipodi:role="line"
         id="tspan11">We won't be making this</tspan></text>
    <path
       id="path13"
       d="m 261,50 h 170 v 70 H 261 Z"
       style="fill:#f5f5f5;fill-opacity:1;fill-rule:nonzero;stroke:#666666;stroke-width:1;stroke-linecap:butt;stroke-linejoin:miter;stroke-miterlimit:10;stroke-dasharray:none;stroke-opacity:1"
       transform="matrix(0.95545308,0,0,0.95545308,0.47772653,0.47772653)"
       clip-path="url(#clipPath14)" />
    <path
       id="path15"
       d="m 261,180 h 170 v 70 H 261 Z"
       style="fill:#f5f5f5;fill-opacity:1;fill-rule:nonzero;stroke:#666666;stroke-width:1;stroke-linecap:butt;stroke-linejoin:miter;stroke-miterlimit:10;stroke-dasharray:none;stroke-opacity:1"
       transform="matrix(0.95545308,0,0,0.95545308,0.47772653,0.47772653)"
       clip-path="url(#clipPath16)" />
    <path
       id="path17"
       d="m 276,57.5 h 60 v 25 h -60 z"
       style="fill:#ffffff;fill-opacity:1;fill-rule:nonzero;stroke:#000000;stroke-width:1;stroke-linecap:butt;stroke-linejoin:miter;stroke-miterlimit:10;stroke-dasharray:none;stroke-opacity:1"
       transform="matrix(0.95545308,0,0,0.95545308,0.47772653,0.47772653)"
       clip-path="url(#clipPath18)" />
    <g
       id="g18" />
    <text
       id="text18"
       xml:space="preserve"
       transform="matrix(0.95546262,0,0,0.95546262,270.45564,70.704234)"
       clip-path="url(#clipPath19)"><tspan
         style="font-variant:normal;font-weight:normal;font-size:11px;font-family:Helvetica;writing-mode:lr-tb;fill:#000000;fill-opacity:1;fill-rule:nonzero;stroke:none"
         x="0 5.5 11.617676 17.735352 26.291504 32.40918 38.526855 42.189941"
         y="0"
         sodipodi:role="line"
         id="tspan18">ﬁndOne()</tspan></text>
    <path
       id="path20"
       d="m 346,57.5 h 60 v 25 h -60 z"
       style="fill:#ffffff;fill-opacity:1;fill-rule:nonzero;stroke:#000000;stroke-width:1;stroke-linecap:butt;stroke-linejoin:miter;stroke-miterlimit:10;stroke-dasharray:none;stroke-opacity:1"
       transform="matrix(0.95545308,0,0,0.95545308,0.47772653,0.47772653)"
       clip-path="url(#clipPath21)" />
    <g
       id="g21" />
    <text
       id="text21"
       xml:space="preserve"
       transform="matrix(0.95546262,0,0,0.95546262,341.42859,70.704234)"
       clip-path="url(#clipPath22)"><tspan
         style="font-variant:normal;font-weight:normal;font-size:11px;font-family:Helvetica;writing-mode:lr-tb;fill:#000000;fill-opacity:1;fill-rule:nonzero;stroke:none"
         x="0 5.5 11.617676 17.735352 25.072266 27.516113 29.959961 33.623047"
         y="0"
         sodipodi:role="line"
         id="tspan21">ﬁndAll()</tspan></text>
    <path
       id="path23"
       d="m 276,87.5 h 60 v 25 h -60 z"
       style="fill:#ffffff;fill-opacity:1;fill-rule:nonzero;stroke:#000000;stroke-width:1;stroke-linecap:butt;stroke-linejoin:miter;stroke-miterlimit:10;stroke-dasharray:none;stroke-opacity:1"
       transform="matrix(0.95545308,0,0,0.95545308,0.47772653,0.47772653)"
       clip-path="url(#clipPath24)" />
    <text
       id="text24"
       xml:space="preserve"
       transform="matrix(0.95546262,0,0,0.95546262,272.78458,99.368112)"
       clip-path="url(#clipPath25)"><tspan
         style="font-variant:normal;font-weight:normal;font-size:11px;font-family:Helvetica;writing-mode:lr-tb;fill:#000000;fill-opacity:1;fill-rule:nonzero;stroke:none"
         x="0 6.1176758 12.235352 18.353027 24.470703 27.526855 33.644531 37.307617"
         y="0"
         sodipodi:role="line"
         id="tspan24">update()</tspan></text>
    <path
       id="path26"
       d="m 346,87.5 h 60 v 25 h -60 z"
       style="fill:#ffffff;fill-opacity:1;fill-rule:nonzero;stroke:#000000;stroke-width:1;stroke-linecap:butt;stroke-linejoin:miter;stroke-miterlimit:10;stroke-dasharray:none;stroke-opacity:1"
       transform="matrix(0.95545308,0,0,0.95545308,0.47772653,0.47772653)"
       clip-path="url(#clipPath27)" />
    <text
       id="text27"
       xml:space="preserve"
       transform="matrix(0.95546262,0,0,0.95546262,338.21884,99.368112)"
       clip-path="url(#clipPath28)"><tspan
         style="font-variant:normal;font-weight:normal;font-size:11px;font-family:Helvetica;writing-mode:lr-tb;fill:#000000;fill-opacity:1;fill-rule:nonzero;stroke:none"
         x="0 3.6630859 9.7807617 18.943848 25.061523 30.561523 36.679199 40.342285"
         y="0"
         sodipodi:role="line"
         id="tspan27">remove()</tspan></text>
    <path
       id="path29"
       d="m 276,187.5 h 60 v 25 h -60 z"
       style="fill:#ffffff;fill-opacity:1;fill-rule:nonzero;stroke:#000000;stroke-width:1;stroke-linecap:butt;stroke-linejoin:miter;stroke-miterlimit:10;stroke-dasharray:none;stroke-opacity:1"
       transform="matrix(0.95545308,0,0,0.95545308,0.47772653,0.47772653)"
       clip-path="url(#clipPath30)" />
    <g
       id="g30" />
    <text
       id="text30"
       xml:space="preserve"
       transform="matrix(0.95546262,0,0,0.95546262,270.45564,194.91437)"
       clip-path="url(#clipPath31)"><tspan
         style="font-variant:normal;font-weight:normal;font-size:11px;font-family:Helvetica;writing-mode:lr-tb;fill:#000000;fill-opacity:1;fill-rule:nonzero;stroke:none"
         x="0 5.5 11.617676 17.735352 26.291504 32.40918 38.526855 42.189941"
         y="0"
         sodipodi:role="line"
         id="tspan30">ﬁndOne()</tspan></text>
    <path
       id="path32"
       d="m 346,187.5 h 60 v 25 h -60 z"
       style="fill:#ffffff;fill-opacity:1;fill-rule:nonzero;stroke:#000000;stroke-width:1;stroke-linecap:butt;stroke-linejoin:miter;stroke-miterlimit:10;stroke-dasharray:none;stroke-opacity:1"
       transform="matrix(0.95545308,0,0,0.95545308,0.47772653,0.47772653)"
       clip-path="url(#clipPath33)" />
    <g
       id="g33" />
    <text
       id="text33"
       xml:space="preserve"
       transform="matrix(0.95546262,0,0,0.95546262,341.42859,194.91437)"
       clip-path="url(#clipPath34)"><tspan
         style="font-variant:normal;font-weight:normal;font-size:11px;font-family:Helvetica;writing-mode:lr-tb;fill:#000000;fill-opacity:1;fill-rule:nonzero;stroke:none"
         x="0 5.5 11.617676 17.735352 25.072266 27.516113 29.959961 33.623047"
         y="0"
         sodipodi:role="line"
         id="tspan33">ﬁndAll()</tspan></text>
    <path
       id="path35"
       d="m 276,217.5 h 60 v 25 h -60 z"
       style="fill:#ffffff;fill-opacity:1;fill-rule:nonzero;stroke:#000000;stroke-width:1;stroke-linecap:butt;stroke-linejoin:miter;stroke-miterlimit:10;stroke-dasharray:none;stroke-opacity:1"
       transform="matrix(0.95545308,0,0,0.95545308,0.47772653,0.47772653)"
       clip-path="url(#clipPath36)" />
    <text
       id="text36"
       xml:space="preserve"
       transform="matrix(0.95546262,0,0,0.95546262,272.78458,223.57825)"
       clip-path="url(#clipPath37)"><tspan
         style="font-variant:normal;font-weight:normal;font-size:11px;font-family:Helvetica;writing-mode:lr-tb;fill:#000000;fill-opacity:1;fill-rule:nonzero;stroke:none"
         x="0 6.1176758 12.235352 18.353027 24.470703 27.526855 33.644531 37.307617"
         y="0"
         sodipodi:role="line"
         id="tspan36">update()</tspan></text>
    <path
       id="path38"
       d="m 346,217.5 h 60 v 25 h -60 z"
       style="fill:#ffffff;fill-opacity:1;fill-rule:nonzero;stroke:#000000;stroke-width:1;stroke-linecap:butt;stroke-linejoin:miter;stroke-miterlimit:10;stroke-dasharray:none;stroke-opacity:1"
       transform="matrix(0.95545308,0,0,0.95545308,0.47772653,0.47772653)"
       clip-path="url(#clipPath39)" />
    <text
       id="text39"
       xml:space="preserve"
       transform="matrix(0.95546262,0,0,0.95546262,338.21884,223.57825)"
       clip-path="url(#clipPath40)"><tspan
         style="font-variant:normal;font-weight:normal;font-size:11px;font-family:Helvetica;writing-mode:lr-tb;fill:#000000;fill-opacity:1;fill-rule:nonzero;stroke:none"
         x="0 3.6630859 9.7807617 18.943848 25.061523 30.561523 36.679199 40.342285"
         y="0"
         sodipodi:role="line"
         id="tspan39">remove()</tspan></text>
    <path
       id="path41"
       d="m 171,147.5 h 45 V 85 h 38.63"
       style="fill:none;stroke:#000000;stroke-width:1;stroke-linecap:butt;stroke-linejoin:miter;stroke-miterlimit:10;stroke-dasharray:none;stroke-opacity:1"
       transform="matrix(0.95545308,0,0,0.95545308,0.47772653,0.47772653)"
       clip-path="url(#clipPath42)" />
    <path
       id="path43"
       d="m 259.88,85 -7,3.5 1.75,-3.5 -1.75,-3.5 z"
       style="fill:#000000;fill-opacity:1;fill-rule:nonzero;stroke:#000000;stroke-width:1;stroke-linecap:butt;stroke-linejoin:miter;stroke-miterlimit:10;stroke-dasharray:none;stroke-opacity:1"
       transform="matrix(0.95545308,0,0,0.95545308,0.47772653,0.47772653)"
       clip-path="url(#clipPath44)" />
    <path
       id="path45"
       d="m 171,147.5 h 45 V 215 h 38.63"
       style="fill:none;stroke:#000000;stroke-width:1;stroke-linecap:butt;stroke-linejoin:miter;stroke-miterlimit:10;stroke-dasharray:none;stroke-opacity:1"
       transform="matrix(0.95545308,0,0,0.95545308,0.47772653,0.47772653)"
       clip-path="url(#clipPath46)" />
    <path
       id="path47"
       d="m 259.88,215 -7,3.5 1.75,-3.5 -1.75,-3.5 z"
       style="fill:#000000;fill-opacity:1;fill-rule:nonzero;stroke:#000000;stroke-width:1;stroke-linecap:butt;stroke-linejoin:miter;stroke-miterlimit:10;stroke-dasharray:none;stroke-opacity:1"
       transform="matrix(0.95545308,0,0,0.95545308,0.47772653,0.47772653)"
       clip-path="url(#clipPath48)" />
    <path
       id="path49"
       d="m 1,87.5 h 170 v 120 H 1 Z"
       style="fill:#f5f5f5;fill-opacity:1;fill-rule:nonzero;stroke:#666666;stroke-width:1;stroke-linecap:butt;stroke-linejoin:miter;stroke-miterlimit:10;stroke-dasharray:none;stroke-opacity:1"
       transform="matrix(0.95545308,0,0,0.95545308,0.47772653,0.47772653)"
       clip-path="url(#clipPath50)" />
    <path
       id="path51"
       d="m 16,102.5 h 140 v 25 H 16 Z"
       style="fill:#ffffff;fill-opacity:1;fill-rule:nonzero;stroke:#000000;stroke-width:1;stroke-linecap:butt;stroke-linejoin:miter;stroke-miterlimit:10;stroke-dasharray:none;stroke-opacity:1"
       transform="matrix(0.95545308,0,0,0.95545308,0.47772653,0.47772653)"
       clip-path="url(#clipPath52)" />
    <text
       id="text52"
       xml:space="preserve"
       transform="matrix(0.95546262,0,0,0.95546262,35.740273,113.70005)"
       clip-path="url(#clipPath53)"><tspan
         style="font-variant:normal;font-weight:normal;font-size:11px;font-family:Helvetica;writing-mode:lr-tb;fill:#000000;fill-opacity:1;fill-rule:nonzero;stroke:none"
         x="0 9.1630859 15.280762 20.780762 26.280762 32.398438 38.516113 44.633789 50.133789 56.853027 62.970703 66.633789 74.577637 80.077637 86.195312 89.858398 93.521484"
         y="0"
         sodipodi:role="line"
         id="tspan52">messagesForUser()</tspan></text>
    <path
       id="path54"
       d="m 16,132.5 h 140 v 25 H 16 Z"
       style="fill:#ffffff;fill-opacity:1;fill-rule:nonzero;stroke:#000000;stroke-width:1;stroke-linecap:butt;stroke-linejoin:miter;stroke-miterlimit:10;stroke-dasharray:none;stroke-opacity:1"
       transform="matrix(0.95545308,0,0,0.95545308,0.47772653,0.47772653)"
       clip-path="url(#clipPath55)" />
    <text
       id="text55"
       xml:space="preserve"
       transform="matrix(0.95546262,0,0,0.95546262,49.460119,142.36393)"
       clip-path="url(#clipPath56)"><tspan
         style="font-variant:normal;font-weight:normal;font-size:11px;font-family:Helvetica;writing-mode:lr-tb;fill:#000000;fill-opacity:1;fill-rule:nonzero;stroke:none"
         x="0 6.1176758 8.5615234 11.005371 20.168457 26.286133 31.786133 37.286133 43.403809 49.521484 55.63916 61.13916 64.802246"
         y="0"
         sodipodi:role="line"
         id="tspan55">allMessages()</tspan></text>
    <path
       id="path57"
       d="m 16,162.5 h 140 v 25 H 16 Z"
       style="fill:#ffffff;fill-opacity:1;fill-rule:nonzero;stroke:#000000;stroke-width:1;stroke-linecap:butt;stroke-linejoin:miter;stroke-miterlimit:10;stroke-dasharray:none;stroke-opacity:1"
       transform="matrix(0.95545308,0,0,0.95545308,0.47772653,0.47772653)"
       clip-path="url(#clipPath58)" />
    <text
       id="text58"
       xml:space="preserve"
       transform="matrix(0.95546262,0,0,0.95546262,26.678308,171.02781)"
       clip-path="url(#clipPath59)"><tspan
         style="font-variant:normal;font-weight:normal;font-size:11px;font-family:Helvetica;writing-mode:lr-tb;fill:#000000;fill-opacity:1;fill-rule:nonzero;stroke:none"
         x="0 6.1176758 12.235352 14.679199 20.796875 23.853027 29.970703 37.914551 43.414551 49.532227 53.195312 58.695312 67.858398 73.976074 79.476074 84.976074 91.09375 97.211426 103.3291 108.8291 112.49219"
         y="0"
         sodipodi:role="line"
         id="tspan58">deleteUsersMessages()</tspan></text>
  </g>
</svg>
