<?xml version="1.0" encoding="UTF-8" standalone="no"?>
<!-- Created with Inkscape (http://www.inkscape.org/) -->

<svg
   version="1.1"
   id="svg1"
   width="338.56"
   height="262.72"
   viewBox="0 0 338.56 262.72"
   sodipodi:docname="nest-9.pdf"
   xmlns:inkscape="http://www.inkscape.org/namespaces/inkscape"
   xmlns:sodipodi="http://sodipodi.sourceforge.net/DTD/sodipodi-0.dtd"
   xmlns="http://www.w3.org/2000/svg"
   xmlns:svg="http://www.w3.org/2000/svg">
  <defs
     id="defs1">
    <clipPath
       clipPathUnits="userSpaceOnUse"
       id="clipPath2">
      <path
         d="M 0,0 H 1058.3333 V 819.16187 H 0 Z"
         transform="scale(0.33448822)"
         clip-rule="evenodd"
         id="path2" />
    </clipPath>
    <clipPath
       clipPathUnits="userSpaceOnUse"
       id="clipPath3">
      <path
         d="M 0,0 H 1058.3333 V 813.18262 H 0 Z"
         transform="matrix(0.33448486,0,0,0.33448486,-44.8125,-27)"
         clip-rule="evenodd"
         id="path3" />
    </clipPath>
    <clipPath
       clipPathUnits="userSpaceOnUse"
       id="clipPath5">
      <path
         d="M 0,0 H 1058.3333 V 813.18262 H 0 Z"
         transform="matrix(0.33448822,0,0,0.33448822,-0.49999999,-0.49999999)"
         clip-rule="evenodd"
         id="path5" />
    </clipPath>
    <clipPath
       clipPathUnits="userSpaceOnUse"
       id="clipPath6">
      <path
         d="M 0,0 H 1058.3333 V 813.18262 H 0 Z"
         transform="matrix(0.33448486,0,0,0.33448486,-11.828125,-131)"
         clip-rule="evenodd"
         id="path6" />
    </clipPath>
    <clipPath
       clipPathUnits="userSpaceOnUse"
       id="clipPath8">
      <path
         d="M 0,0 H 1058.3333 V 813.18262 H 0 Z"
         transform="matrix(0.33448822,0,0,0.33448822,-0.49999999,-0.49999999)"
         clip-rule="evenodd"
         id="path8" />
    </clipPath>
    <clipPath
       clipPathUnits="userSpaceOnUse"
       id="clipPath9">
      <path
         d="M 0,0 H 1058.3333 V 813.18262 H 0 Z"
         transform="matrix(0.33448486,0,0,0.33448486,-52.71875,-113)"
         clip-rule="evenodd"
         id="path9" />
    </clipPath>
    <clipPath
       clipPathUnits="userSpaceOnUse"
       id="clipPath10">
      <path
         d="M 0,0 H 1058.3333 V 813.18262 H 0 Z"
         transform="matrix(0.33448486,0,0,0.33448486,-42.5625,-131)"
         clip-rule="evenodd"
         id="path10" />
    </clipPath>
    <clipPath
       clipPathUnits="userSpaceOnUse"
       id="clipPath11">
      <path
         d="M 0,0 H 1058.3333 V 813.18262 H 0 Z"
         transform="matrix(0.33448486,0,0,0.33448486,-99.84375,-149)"
         clip-rule="evenodd"
         id="path11" />
    </clipPath>
    <clipPath
       clipPathUnits="userSpaceOnUse"
       id="clipPath13">
      <path
         d="M 0,0 H 1058.3333 V 813.18262 H 0 Z"
         transform="matrix(0.33448822,0,0,0.33448822,-0.49999999,-0.49999999)"
         clip-rule="evenodd"
         id="path13" />
    </clipPath>
    <clipPath
       clipPathUnits="userSpaceOnUse"
       id="clipPath14">
      <path
         d="M 0,0 H 1058.3333 V 813.18262 H 0 Z"
         transform="matrix(0.33448486,0,0,0.33448486,-11.828125,-71)"
         clip-rule="evenodd"
         id="path14" />
    </clipPath>
    <clipPath
       clipPathUnits="userSpaceOnUse"
       id="clipPath16">
      <path
         d="M 0,0 H 1058.3333 V 813.18262 H 0 Z"
         transform="matrix(0.33448822,0,0,0.33448822,-0.49999999,-0.49999999)"
         clip-rule="evenodd"
         id="path16" />
    </clipPath>
    <clipPath
       clipPathUnits="userSpaceOnUse"
       id="clipPath17">
      <path
         d="M 0,0 H 1058.3333 V 813.18262 H 0 Z"
         transform="matrix(0.33448486,0,0,0.33448486,-83.84375,-71)"
         clip-rule="evenodd"
         id="path17" />
    </clipPath>
    <clipPath
       clipPathUnits="userSpaceOnUse"
       id="clipPath19">
      <path
         d="M 0,0 H 1058.3333 V 813.18262 H 0 Z"
         transform="matrix(0.33448822,0,0,0.33448822,-0.49999999,-0.49999999)"
         clip-rule="evenodd"
         id="path19" />
    </clipPath>
    <clipPath
       clipPathUnits="userSpaceOnUse"
       id="clipPath20">
      <path
         d="M 0,0 H 1058.3333 V 813.18262 H 0 Z"
         transform="matrix(0.33448486,0,0,0.33448486,-11.828125,-191)"
         clip-rule="evenodd"
         id="path20" />
    </clipPath>
    <clipPath
       clipPathUnits="userSpaceOnUse"
       id="clipPath22">
      <path
         d="M 0,0 H 1058.3333 V 813.18262 H 0 Z"
         transform="matrix(0.33448822,0,0,0.33448822,-0.49999999,-0.49999999)"
         clip-rule="evenodd"
         id="path22" />
    </clipPath>
    <clipPath
       clipPathUnits="userSpaceOnUse"
       id="clipPath23">
      <path
         d="M 0,0 H 1058.3333 V 813.18262 H 0 Z"
         transform="matrix(0.33448486,0,0,0.33448486,-85.515625,-191)"
         clip-rule="evenodd"
         id="path23" />
    </clipPath>
    <clipPath
       clipPathUnits="userSpaceOnUse"
       id="clipPath25">
      <path
         d="M 0,0 H 1058.3333 V 813.18262 H 0 Z"
         transform="matrix(0.33448822,0,0,0.33448822,-0.49999999,-0.49999999)"
         clip-rule="evenodd"
         id="path25" />
    </clipPath>
    <clipPath
       clipPathUnits="userSpaceOnUse"
       id="clipPath26">
      <path
         d="M 0,0 H 1058.3333 V 813.18262 H 0 Z"
         transform="matrix(0.33448486,0,0,0.33448486,-11.828125,-251)"
         clip-rule="evenodd"
         id="path26" />
    </clipPath>
    <clipPath
       clipPathUnits="userSpaceOnUse"
       id="clipPath28">
      <path
         d="M 0,0 H 1058.3333 V 813.18262 H 0 Z"
         transform="matrix(0.33448822,0,0,0.33448822,-0.49999999,-0.49999999)"
         clip-rule="evenodd"
         id="path28" />
    </clipPath>
    <clipPath
       clipPathUnits="userSpaceOnUse"
       id="clipPath29">
      <path
         d="M 0,0 H 1058.3333 V 813.18262 H 0 Z"
         transform="matrix(0.33448486,0,0,0.33448486,-63.421875,-251)"
         clip-rule="evenodd"
         id="path29" />
    </clipPath>
  </defs>
  <sodipodi:namedview
     id="namedview1"
     pagecolor="#ffffff"
     bordercolor="#000000"
     borderopacity="0.25"
     inkscape:showpageshadow="2"
     inkscape:pageopacity="0.0"
     inkscape:pagecheckerboard="0"
     inkscape:deskcolor="#d1d1d1">
    <inkscape:page
       x="0"
       y="0"
       inkscape:label="1"
       id="page1"
       width="338.56"
       height="262.72"
       margin="0"
       bleed="0" />
  </sodipodi:namedview>
  <g
     id="g1"
     inkscape:groupmode="layer"
     inkscape:label="1">
    <path
       id="path1"
       d="M 0,0 H 354 V 274 H 0 Z"
       style="fill:#ffffff;fill-opacity:1;fill-rule:nonzero;stroke:none"
       transform="scale(0.95668537)"
       clip-path="url(#clipPath2)" />
    <text
       id="text2"
       xml:space="preserve"
       transform="matrix(0.95669497,0,0,0.95669497,42.871893,25.830764)"
       clip-path="url(#clipPath3)"><tspan
         style="font-variant:normal;font-weight:700;font-size:18px;font-family:Helvetica;writing-mode:lr-tb;fill:#000000;fill-opacity:1;fill-rule:nonzero;stroke:none"
         x="0 12.005859 22.016602 28.010742 34.004883 39.005859 50.000977 60.996094 65.99707 78.996094 89.991211 94.333008 107.33203 118.32715 124.32129 135.31641 151.32129 161.33203 167.32617 172.32715 182.33789 187.33887 198.36035 208.37109 213.37207 218.37305 229.36816 239.37891 245.37305 250.37402 261.36914"
         y="0"
         sodipodi:role="line"
         id="tspan2">Setting Up Automatic Validation</tspan></text>
    <path
       id="path4"
       d="m 1,100 h 30 v 50 H 1 Z"
       style="fill:#dae8fc;fill-opacity:1;fill-rule:nonzero;stroke:#6c8ebf;stroke-width:1;stroke-linecap:butt;stroke-linejoin:miter;stroke-miterlimit:10;stroke-dasharray:none;stroke-opacity:1"
       transform="matrix(0.95668537,0,0,0.95668537,0.47834268,0.47834268)"
       clip-path="url(#clipPath5)" />
    <text
       id="text5"
       xml:space="preserve"
       transform="matrix(0.95669497,0,0,0.95669497,11.315908,125.32704)"
       clip-path="url(#clipPath6)"><tspan
         style="font-variant:normal;font-weight:normal;font-size:15px;font-family:Helvetica;writing-mode:lr-tb;fill:#000000;fill-opacity:1;fill-rule:nonzero;stroke:none"
         x="0"
         y="0"
         id="tspan5">2</tspan></text>
    <path
       id="path7"
       d="m 31,100 h 320 v 50 H 31 Z"
       style="fill:#ffffff;fill-opacity:1;fill-rule:nonzero;stroke:#000000;stroke-width:1;stroke-linecap:butt;stroke-linejoin:miter;stroke-miterlimit:10;stroke-dasharray:none;stroke-opacity:1"
       transform="matrix(0.95668537,0,0,0.95668537,0.47834268,0.47834268)"
       clip-path="url(#clipPath8)" />
    <text
       id="text8"
       xml:space="preserve"
       transform="matrix(0.95669497,0,0,0.95669497,50.435763,108.10653)"
       clip-path="url(#clipPath9)"><tspan
         style="font-variant:normal;font-weight:normal;font-size:15px;font-family:Helvetica;writing-mode:lr-tb;fill:#000000;fill-opacity:1;fill-rule:nonzero;stroke:none"
         x="0 10.83252 15.827637 24.169922 32.512207 36.679688 45.021973 49.189453 57.531738 61.699219 69.199219 72.531738 80.874023 88.374023 95.874023 100.0415 104.20898 112.55127 120.89355 125.06104 129.22852 137.5708 145.91309 153.41309 160.91309 165.9082 169.24072 177.58301 185.92529 193.42529 197.59277 201.76025 210.10254 218.44482 222.6123 230.95459 234.28711 238.19092 242.3584 250.70068 255.6958 264.03809 272.38037"
         y="0"
         sodipodi:role="line"
         id="tspan8">Create a class that describes the different</tspan></text>
    <text
       id="text9"
       xml:space="preserve"
       transform="matrix(0.95669497,0,0,0.95669497,40.71933,125.32704)"
       clip-path="url(#clipPath10)"><tspan
         style="font-variant:normal;font-weight:normal;font-size:15px;font-family:Helvetica;writing-mode:lr-tb;fill:#000000;fill-opacity:1;fill-rule:nonzero;stroke:none"
         x="0 8.3422852 13.337402 21.679688 30.021973 38.364258 43.359375 47.526855 50.859375 59.20166 66.70166 70.869141 75.036621 83.378906 91.721191 95.888672 100.05615 104.22363 112.56592 120.9082 125.07568 130.0708 138.41309 146.75537 155.09766 163.43994 170.93994 175.10742 179.2749 187.61719 195.95947 204.30176 211.80176 215.96924 223.46924 231.81152 240.15381 248.49609 251.82861 260.1709 264.33838 272.68066 281.02295 288.52295"
         y="0"
         sodipodi:role="line"
         id="tspan9">properties that the request body should have</tspan></text>
    <text
       id="text10"
       xml:space="preserve"
       transform="matrix(0.95669497,0,0,0.95669497,95.520013,142.54755)"
       clip-path="url(#clipPath11)"><tspan
         style="font-variant:normal;font-weight:normal;font-size:15px;font-family:Helvetica;writing-mode:lr-tb;fill:#000000;fill-opacity:1;fill-rule:nonzero;stroke:none"
         x="0 10.83252 19.731445 31.398926 35.566406 39.733887 43.901367 54.733887 63.076172 67.243652 75.585938 79.489746 88.103027 93.098145 101.44043 109.78271 117.28271 121.4502 129.79248 134.7876 138.95508 150.62256 158.96484 162.29736 170.63965 178.13965"
         y="0"
         sodipodi:role="line"
         id="tspan10">DTO.  Data Transfer Object</tspan></text>
    <path
       id="path12"
       d="M 1,40 H 31 V 90 H 1 Z"
       style="fill:#dae8fc;fill-opacity:1;fill-rule:nonzero;stroke:#6c8ebf;stroke-width:1;stroke-linecap:butt;stroke-linejoin:miter;stroke-miterlimit:10;stroke-dasharray:none;stroke-opacity:1"
       transform="matrix(0.95668537,0,0,0.95668537,0.47834268,0.47834268)"
       clip-path="url(#clipPath13)" />
    <text
       id="text13"
       xml:space="preserve"
       transform="matrix(0.95669497,0,0,0.95669497,11.315908,67.925343)"
       clip-path="url(#clipPath14)"><tspan
         style="font-variant:normal;font-weight:normal;font-size:15px;font-family:Helvetica;writing-mode:lr-tb;fill:#000000;fill-opacity:1;fill-rule:nonzero;stroke:none"
         x="0"
         y="0"
         id="tspan13">1</tspan></text>
    <path
       id="path15"
       d="M 31,40 H 351 V 90 H 31 Z"
       style="fill:#ffffff;fill-opacity:1;fill-rule:nonzero;stroke:#000000;stroke-width:1;stroke-linecap:butt;stroke-linejoin:miter;stroke-miterlimit:10;stroke-dasharray:none;stroke-opacity:1"
       transform="matrix(0.95668537,0,0,0.95668537,0.47834268,0.47834268)"
       clip-path="url(#clipPath16)" />
    <text
       id="text16"
       xml:space="preserve"
       transform="matrix(0.95669497,0,0,0.95669497,80.212894,67.925343)"
       clip-path="url(#clipPath17)"><tspan
         style="font-variant:normal;font-weight:normal;font-size:15px;font-family:Helvetica;writing-mode:lr-tb;fill:#000000;fill-opacity:1;fill-rule:nonzero;stroke:none"
         x="0 7.5 15.842285 19.174805 22.507324 26.674805 37.507324 45.849609 53.349609 57.51709 61.68457 65.852051 74.194336 78.361816 86.704102 94.204102 102.54639 106.71387 115.05615 118.38867 126.73096 135.07324 143.41553 146.74805 150.91553 158.41553 166.75781 170.09033 173.42285 181.76514 190.10742 194.2749 197.60742 205.94971"
         y="0"
         sodipodi:role="line"
         id="tspan16">Tell Nest to use global validation</tspan></text>
    <path
       id="path18"
       d="m 1,160 h 30 v 50 H 1 Z"
       style="fill:#dae8fc;fill-opacity:1;fill-rule:nonzero;stroke:#6c8ebf;stroke-width:1;stroke-linecap:butt;stroke-linejoin:miter;stroke-miterlimit:10;stroke-dasharray:none;stroke-opacity:1"
       transform="matrix(0.95668537,0,0,0.95668537,0.47834268,0.47834268)"
       clip-path="url(#clipPath19)" />
    <text
       id="text19"
       xml:space="preserve"
       transform="matrix(0.95669497,0,0,0.95669497,11.315908,182.72874)"
       clip-path="url(#clipPath20)"><tspan
         style="font-variant:normal;font-weight:normal;font-size:15px;font-family:Helvetica;writing-mode:lr-tb;fill:#000000;fill-opacity:1;fill-rule:nonzero;stroke:none"
         x="0"
         y="0"
         id="tspan19">3</tspan></text>
    <path
       id="path21"
       d="m 31,160 h 320 v 50 H 31 Z"
       style="fill:#ffffff;fill-opacity:1;fill-rule:nonzero;stroke:#000000;stroke-width:1;stroke-linecap:butt;stroke-linejoin:miter;stroke-miterlimit:10;stroke-dasharray:none;stroke-opacity:1"
       transform="matrix(0.95668537,0,0,0.95668537,0.47834268,0.47834268)"
       clip-path="url(#clipPath22)" />
    <text
       id="text22"
       xml:space="preserve"
       transform="matrix(0.95669497,0,0,0.95669497,81.812368,182.72874)"
       clip-path="url(#clipPath23)"><tspan
         style="font-variant:normal;font-weight:normal;font-size:15px;font-family:Helvetica;writing-mode:lr-tb;fill:#000000;fill-opacity:1;fill-rule:nonzero;stroke:none"
         x="0 10.004883 18.347168 26.689453 30.856934 38.356934 46.699219 50.031738 53.364258 61.706543 70.048828 74.216309 77.548828 85.891113 94.233398 98.400879 103.396 111.73828 115.0708 123.41309 130.91309 135.08057 139.24805 147.59033 151.75781 155.92529 164.26758 172.60986 176.77734 184.27734 187.60986 195.95215 203.45215"
         y="0"
         sodipodi:role="line"
         id="tspan22">Add validation rules to the class</tspan></text>
    <path
       id="path24"
       d="m 1,220 h 30 v 50 H 1 Z"
       style="fill:#dae8fc;fill-opacity:1;fill-rule:nonzero;stroke:#6c8ebf;stroke-width:1;stroke-linecap:butt;stroke-linejoin:miter;stroke-miterlimit:10;stroke-dasharray:none;stroke-opacity:1"
       transform="matrix(0.95668537,0,0,0.95668537,0.47834268,0.47834268)"
       clip-path="url(#clipPath25)" />
    <text
       id="text25"
       xml:space="preserve"
       transform="matrix(0.95669497,0,0,0.95669497,11.315908,240.13044)"
       clip-path="url(#clipPath26)"><tspan
         style="font-variant:normal;font-weight:normal;font-size:15px;font-family:Helvetica;writing-mode:lr-tb;fill:#000000;fill-opacity:1;fill-rule:nonzero;stroke:none"
         x="0"
         y="0"
         id="tspan25">4</tspan></text>
    <path
       id="path27"
       d="m 31,220 h 320 v 50 H 31 Z"
       style="fill:#ffffff;fill-opacity:1;fill-rule:nonzero;stroke:#000000;stroke-width:1;stroke-linecap:butt;stroke-linejoin:miter;stroke-miterlimit:10;stroke-dasharray:none;stroke-opacity:1"
       transform="matrix(0.95668537,0,0,0.95668537,0.47834268,0.47834268)"
       clip-path="url(#clipPath28)" />
    <text
       id="text28"
       xml:space="preserve"
       transform="matrix(0.95669497,0,0,0.95669497,60.675389,240.13044)"
       clip-path="url(#clipPath29)"><tspan
         style="font-variant:normal;font-weight:normal;font-size:15px;font-family:Helvetica;writing-mode:lr-tb;fill:#000000;fill-opacity:1;fill-rule:nonzero;stroke:none"
         x="0 10.004883 18.347168 26.689453 30.021973 37.521973 41.689453 45.856934 54.199219 62.541504 66.708984 70.876465 78.376465 81.708984 90.05127 97.55127 105.05127 109.21875 113.38623 121.72852 125.896 130.06348 138.40576 146.74805 150.91553 155.91064 164.25293 172.59521 180.9375 189.27979 196.77979 200.94727 205.11475 213.45703 221.79932 230.1416 238.48389 241.81641 250.15869"
         y="0"
         sodipodi:role="line"
         id="tspan28">Apply that class to the request handler</tspan></text>
  </g>
</svg>
