<?xml version="1.0" encoding="UTF-8" standalone="no"?>
<!-- Created with Inkscape (http://www.inkscape.org/) -->

<svg
   version="1.1"
   id="svg1"
   width="338.56"
   height="138.56"
   viewBox="0 0 338.56 138.56"
   sodipodi:docname="nest-3.pdf"
   xmlns:inkscape="http://www.inkscape.org/namespaces/inkscape"
   xmlns:sodipodi="http://sodipodi.sourceforge.net/DTD/sodipodi-0.dtd"
   xmlns="http://www.w3.org/2000/svg"
   xmlns:svg="http://www.w3.org/2000/svg">
  <defs
     id="defs1">
    <clipPath
       clipPathUnits="userSpaceOnUse"
       id="clipPath2">
      <path
         d="M 0,0 H 1058.3333 V 430.50842 H 0 Z"
         transform="scale(0.33448822)"
         clip-rule="evenodd"
         id="path2" />
    </clipPath>
    <clipPath
       clipPathUnits="userSpaceOnUse"
       id="clipPath4">
      <path
         d="M 0,0 H 1058.3333 V 430.50842 H 0 Z"
         transform="matrix(0.33448822,0,0,0.33448822,-0.49999999,-0.49999999)"
         clip-rule="evenodd"
         id="path4" />
    </clipPath>
    <clipPath
       clipPathUnits="userSpaceOnUse"
       id="clipPath5">
      <path
         d="M 0,0 H 1058.3333 V 430.50842 H 0 Z"
         transform="matrix(0.33448486,0,0,0.33448486,-141.98438,-27)"
         clip-rule="evenodd"
         id="path5" />
    </clipPath>
    <clipPath
       clipPathUnits="userSpaceOnUse"
       id="clipPath7">
      <path
         d="M 0,0 H 1058.3333 V 430.50842 H 0 Z"
         transform="matrix(0.33448822,0,0,0.33448822,-0.49999999,-0.49999999)"
         clip-rule="evenodd"
         id="path7" />
    </clipPath>
    <clipPath
       clipPathUnits="userSpaceOnUse"
       id="clipPath8">
      <path
         d="M 0,0 H 1058.3333 V 430.50842 H 0 Z"
         transform="matrix(0.33448486,0,0,0.33448486,-23.09375,-68)"
         clip-rule="evenodd"
         id="path8" />
    </clipPath>
    <clipPath
       clipPathUnits="userSpaceOnUse"
       id="clipPath9">
      <path
         d="M 0,0 H 1058.3333 V 430.50842 H 0 Z"
         transform="matrix(0.33448486,0,0,0.33448486,-127.75,-85)"
         clip-rule="evenodd"
         id="path9" />
    </clipPath>
    <clipPath
       clipPathUnits="userSpaceOnUse"
       id="clipPath11">
      <path
         d="M 0,0 H 1058.3333 V 430.50842 H 0 Z"
         transform="matrix(0.33448822,0,0,0.33448822,-0.49999999,-0.49999999)"
         clip-rule="evenodd"
         id="path11" />
    </clipPath>
    <clipPath
       clipPathUnits="userSpaceOnUse"
       id="clipPath12">
      <path
         d="M 0,0 H 1058.3333 V 430.50842 H 0 Z"
         transform="matrix(0.33448486,0,0,0.33448486,-8.515625,-118)"
         clip-rule="evenodd"
         id="path12" />
    </clipPath>
    <clipPath
       clipPathUnits="userSpaceOnUse"
       id="clipPath13">
      <path
         d="M 0,0 H 1058.3333 V 430.50842 H 0 Z"
         transform="matrix(0.33448486,0,0,0.33448486,-137.14063,-135)"
         clip-rule="evenodd"
         id="path13" />
    </clipPath>
  </defs>
  <sodipodi:namedview
     id="namedview1"
     pagecolor="#ffffff"
     bordercolor="#000000"
     borderopacity="0.25"
     inkscape:showpageshadow="2"
     inkscape:pageopacity="0.0"
     inkscape:pagecheckerboard="0"
     inkscape:deskcolor="#d1d1d1">
    <inkscape:page
       x="0"
       y="0"
       inkscape:label="1"
       id="page1"
       width="338.56"
       height="138.56"
       margin="0"
       bleed="0" />
  </sodipodi:namedview>
  <g
     id="g1"
     inkscape:groupmode="layer"
     inkscape:label="1">
    <path
       id="path1"
       d="M 0,0 H 354 V 144 H 0 Z"
       style="fill:#ffffff;fill-opacity:1;fill-rule:nonzero;stroke:none"
       transform="scale(0.95668537)"
       clip-path="url(#clipPath2)" />
    <path
       id="path3"
       d="M 1,1 H 351 V 41 H 1 Z"
       style="fill:#dae8fc;fill-opacity:1;fill-rule:nonzero;stroke:#6c8ebf;stroke-width:1;stroke-linecap:butt;stroke-linejoin:miter;stroke-miterlimit:10;stroke-dasharray:none;stroke-opacity:1"
       transform="matrix(0.95668537,0,0,0.95668537,0.47834268,0.47834268)"
       clip-path="url(#clipPath4)" />
    <text
       id="text4"
       xml:space="preserve"
       transform="matrix(0.95669497,0,0,0.95669497,135.83574,25.830764)"
       clip-path="url(#clipPath5)"><tspan
         style="font-variant:normal;font-weight:700;font-size:17px;font-family:Helvetica;writing-mode:lr-tb;fill:#000000;fill-opacity:1;fill-rule:nonzero;stroke:none"
         x="0 13.223145 23.607422 29.268555 38.723145 49.107422 58.562012"
         y="0"
         sodipodi:role="line"
         id="tspan4">Gotchas</tspan></text>
    <path
       id="path6"
       d="M 1,51 H 351 V 91 H 1 Z"
       style="fill:#ffffff;fill-opacity:1;fill-rule:nonzero;stroke:#000000;stroke-width:1;stroke-linecap:butt;stroke-linejoin:miter;stroke-miterlimit:10;stroke-dasharray:none;stroke-opacity:1"
       transform="matrix(0.95668537,0,0,0.95668537,0.47834268,0.47834268)"
       clip-path="url(#clipPath7)" />
    <text
       id="text7"
       xml:space="preserve"
       transform="matrix(0.95669497,0,0,0.95669497,22.093674,65.055258)"
       clip-path="url(#clipPath8)"><tspan
         style="font-variant:normal;font-weight:normal;font-size:14px;font-family:Helvetica;writing-mode:lr-tb;fill:#000000;fill-opacity:1;fill-rule:nonzero;stroke:none"
         x="0 3.8896484 11.675781 15.56543 22.56543 25.675781 37.337891 45.124023 48.234375 56.020508 59.910156 67.696289 75.482422 83.268555 90.268555 94.158203 98.047852 105.04785 112.83398 117.49609 124.49609 127.60645 134.60645 142.39258 149.39258 153.28223 161.06836 168.85449 176.64062 180.53027 185.19238 192.97852 200.76465 208.55078 215.55078 218.66113 222.55078 230.33691 234.99902 238.10938 245.89551 252.89551 256.78516 266.89551 270.00586 273.11621 276.22656 280.11621 283.22656 291.0127 298.79883"
         y="0"
         sodipodi:role="line"
         id="tspan7">In simple apps, services and repositories will look</tspan></text>
    <text
       id="text8"
       xml:space="preserve"
       transform="matrix(0.95669497,0,0,0.95669497,122.21778,81.319072)"
       clip-path="url(#clipPath9)"><tspan
         style="font-variant:normal;font-weight:normal;font-size:14px;font-family:Helvetica;writing-mode:lr-tb;fill:#000000;fill-opacity:1;fill-rule:nonzero;stroke:none"
         x="0 7.7861328 10.896484 22.558594 30.344727 37.344727 41.234375 45.124023 48.234375 56.020508 63.806641 71.592773 75.482422 78.592773 85.592773 93.378906"
         y="0"
         sodipodi:role="line"
         id="tspan8">almost identical</tspan></text>
    <path
       id="path10"
       d="m 1,101 h 350 v 40 H 1 Z"
       style="fill:#ffffff;fill-opacity:1;fill-rule:nonzero;stroke:#000000;stroke-width:1;stroke-linecap:butt;stroke-linejoin:miter;stroke-miterlimit:10;stroke-dasharray:none;stroke-opacity:1"
       transform="matrix(0.95668537,0,0,0.95668537,0.47834268,0.47834268)"
       clip-path="url(#clipPath11)" />
    <g
       id="g11" />
    <text
       id="text11"
       xml:space="preserve"
       transform="matrix(0.95669497,0,0,0.95669497,8.1468556,112.89001)"
       clip-path="url(#clipPath12)"><tspan
         style="font-variant:normal;font-weight:normal;font-size:14px;font-family:Helvetica;writing-mode:lr-tb;fill:#000000;fill-opacity:1;fill-rule:nonzero;stroke:none"
         x="0 8.5517578 16.337891 24.124023 28.013672 35.799805 39.689453 46.689453 53.689453 56.799805 64.585938 67.696289 71.585938 79.37207 87.158203 94.158203 101.1582 105.04785 112.83398 120.62012 128.40625 131.0791 134.96875 138.8584 143.52051 151.30664 159.09277 162.20312 165.31348 172.31348 176.20312 187.86523 195.65137 203.4375 207.32715 210.4375 218.22363 226.00977 229.89941 236.89941 244.68555 256.34766 264.13379 268.02344 275.80957 278.91992 286.70605 294.49219 298.38184 305.38184 313.16797 316.27832 319.38867 327.1748"
         y="0"
         sodipodi:role="line"
         id="tspan11">The ofﬁcial docs don't really mention something called</tspan></text>
    <text
       id="text12"
       xml:space="preserve"
       transform="matrix(0.95669497,0,0,0.95669497,131.20175,129.15382)"
       clip-path="url(#clipPath13)"><tspan
         style="font-variant:normal;font-weight:normal;font-size:14px;font-family:Helvetica;writing-mode:lr-tb;fill:#000000;fill-opacity:1;fill-rule:nonzero;stroke:none"
         x="0 2.6728516 7.3349609 15.121094 22.907227 30.693359 37.693359 40.803711 44.693359 52.479492 57.141602 60.251953 68.038086 75.038086"
         y="0"
         sodipodi:role="line"
         id="tspan12">'repositories'</tspan></text>
  </g>
</svg>
