<?xml version="1.0" encoding="UTF-8" standalone="no"?>
<!-- Created with Inkscape (http://www.inkscape.org/) -->

<svg
   version="1.1"
   id="svg1"
   width="482.55997"
   height="278.72"
   viewBox="0 0 482.55997 278.72"
   sodipodi:docname="nest-4.pdf"
   xmlns:inkscape="http://www.inkscape.org/namespaces/inkscape"
   xmlns:sodipodi="http://sodipodi.sourceforge.net/DTD/sodipodi-0.dtd"
   xmlns="http://www.w3.org/2000/svg"
   xmlns:svg="http://www.w3.org/2000/svg">
  <defs
     id="defs1">
    <clipPath
       clipPathUnits="userSpaceOnUse"
       id="clipPath2">
      <path
         d="M 0,0 H 1508.3333 V 867.89014 H 0 Z"
         transform="scale(0.33414367)"
         clip-rule="evenodd"
         id="path2" />
    </clipPath>
    <clipPath
       clipPathUnits="userSpaceOnUse"
       id="clipPath4">
      <path
         d="M 0,0 H 1508.3333 V 864.8974 H 0 Z"
         transform="matrix(0.33414367,0,0,0.33414367,-0.5,-0.5)"
         clip-rule="evenodd"
         id="path4" />
    </clipPath>
    <clipPath
       clipPathUnits="userSpaceOnUse"
       id="clipPath6">
      <path
         d="M 0,0 H 1508.3333 V 864.8974 H 0 Z"
         transform="matrix(0.33414367,0,0,0.33414367,-0.5,-0.5)"
         clip-rule="evenodd"
         id="path6" />
    </clipPath>
    <clipPath
       clipPathUnits="userSpaceOnUse"
       id="clipPath8">
      <path
         d="M 0,0 H 1508.3333 V 864.8974 H 0 Z"
         transform="matrix(0.33414367,0,0,0.33414367,-0.5,-0.5)"
         clip-rule="evenodd"
         id="path8" />
    </clipPath>
    <clipPath
       clipPathUnits="userSpaceOnUse"
       id="clipPath9">
      <path
         d="M 0,0 H 1508.3333 V 864.8974 H 0 Z"
         transform="matrix(0.33414032,0,0,0.33414032,-204.875,-71)"
         clip-rule="evenodd"
         id="path9" />
    </clipPath>
    <clipPath
       clipPathUnits="userSpaceOnUse"
       id="clipPath10">
      <path
         d="M 0,0 H 1508.3333 V 864.8974 H 0 Z"
         transform="matrix(0.33414032,0,0,0.33414032,-187.64063,-95)"
         clip-rule="evenodd"
         id="path10" />
    </clipPath>
    <clipPath
       clipPathUnits="userSpaceOnUse"
       id="clipPath12">
      <path
         d="M 0,0 H 1508.3333 V 864.8974 H 0 Z"
         transform="matrix(0.33414367,0,0,0.33414367,-0.5,-0.5)"
         clip-rule="evenodd"
         id="path12" />
    </clipPath>
    <clipPath
       clipPathUnits="userSpaceOnUse"
       id="clipPath13">
      <path
         d="M 0,0 H 1508.3333 V 864.8974 H 0 Z"
         transform="matrix(0.33414032,0,0,0.33414032,-11.8125,-22)"
         clip-rule="evenodd"
         id="path13" />
    </clipPath>
    <clipPath
       clipPathUnits="userSpaceOnUse"
       id="clipPath15">
      <path
         d="M 0,0 H 1508.3333 V 864.8974 H 0 Z"
         transform="matrix(0.33414367,0,0,0.33414367,-0.5,-0.5)"
         clip-rule="evenodd"
         id="path15" />
    </clipPath>
    <clipPath
       clipPathUnits="userSpaceOnUse"
       id="clipPath16">
      <path
         d="M 0,0 H 1508.3333 V 864.8974 H 0 Z"
         transform="matrix(0.33414032,0,0,0.33414032,-26.8125,-62.000001)"
         clip-rule="evenodd"
         id="path16" />
    </clipPath>
    <clipPath
       clipPathUnits="userSpaceOnUse"
       id="clipPath18">
      <path
         d="M 0,0 H 1508.3333 V 864.8974 H 0 Z"
         transform="matrix(0.33414367,0,0,0.33414367,-0.5,-0.5)"
         clip-rule="evenodd"
         id="path18" />
    </clipPath>
    <clipPath
       clipPathUnits="userSpaceOnUse"
       id="clipPath19">
      <path
         d="M 0,0 H 1508.3333 V 864.8974 H 0 Z"
         transform="matrix(0.33414032,0,0,0.33414032,-16.8125,-102)"
         clip-rule="evenodd"
         id="path19" />
    </clipPath>
    <clipPath
       clipPathUnits="userSpaceOnUse"
       id="clipPath21">
      <path
         d="M 0,0 H 1508.3333 V 864.8974 H 0 Z"
         transform="matrix(0.33414367,0,0,0.33414367,-0.5,-0.5)"
         clip-rule="evenodd"
         id="path21" />
    </clipPath>
    <clipPath
       clipPathUnits="userSpaceOnUse"
       id="clipPath22">
      <path
         d="M 0,0 H 1508.3333 V 864.8974 H 0 Z"
         transform="matrix(0.33414032,0,0,0.33414032,-28.890625,-142)"
         clip-rule="evenodd"
         id="path22" />
    </clipPath>
    <clipPath
       clipPathUnits="userSpaceOnUse"
       id="clipPath24">
      <path
         d="M 0,0 H 1508.3333 V 864.8974 H 0 Z"
         transform="matrix(0.33414367,0,0,0.33414367,-0.5,-0.5)"
         clip-rule="evenodd"
         id="path24" />
    </clipPath>
    <clipPath
       clipPathUnits="userSpaceOnUse"
       id="clipPath26">
      <path
         d="M 0,0 H 1508.3333 V 864.8974 H 0 Z"
         transform="matrix(0.33414367,0,0,0.33414367,-0.5,-0.5)"
         clip-rule="evenodd"
         id="path26" />
    </clipPath>
    <clipPath
       clipPathUnits="userSpaceOnUse"
       id="clipPath28">
      <path
         d="M 0,0 H 1508.3333 V 864.8974 H 0 Z"
         transform="matrix(-0.33414367,0,0,-0.33414367,272.5,152.49999)"
         clip-rule="evenodd"
         id="path28" />
    </clipPath>
    <clipPath
       clipPathUnits="userSpaceOnUse"
       id="clipPath30">
      <path
         d="M 0,0 H 1508.3333 V 864.8974 H 0 Z"
         transform="matrix(0.33414367,0,0,0.33414367,-0.5,-0.5)"
         clip-rule="evenodd"
         id="path30" />
    </clipPath>
    <clipPath
       clipPathUnits="userSpaceOnUse"
       id="clipPath31">
      <path
         d="M 0,0 H 1508.3333 V 864.8974 H 0 Z"
         transform="matrix(0.33414032,0,0,0.33414032,-417.09375,-122)"
         clip-rule="evenodd"
         id="path31" />
    </clipPath>
    <clipPath
       clipPathUnits="userSpaceOnUse"
       id="clipPath32">
      <path
         d="M 0,0 H 1508.3333 V 864.8974 H 0 Z"
         transform="matrix(0.33414032,0,0,0.33414032,-389.29689,-146)"
         clip-rule="evenodd"
         id="path32" />
    </clipPath>
    <clipPath
       clipPathUnits="userSpaceOnUse"
       id="clipPath33">
      <path
         d="M 0,0 H 1508.3333 V 864.8974 H 0 Z"
         transform="matrix(0.33414032,0,0,0.33414032,-397.625,-170)"
         clip-rule="evenodd"
         id="path33" />
    </clipPath>
    <clipPath
       clipPathUnits="userSpaceOnUse"
       id="clipPath34">
      <path
         d="M 0,0 H 1508.3333 V 864.8974 H 0 Z"
         transform="matrix(0.33414032,0,0,0.33414032,-400.42188,-194)"
         clip-rule="evenodd"
         id="path34" />
    </clipPath>
    <clipPath
       clipPathUnits="userSpaceOnUse"
       id="clipPath36">
      <path
         d="M 0,0 H 1508.3333 V 864.8974 H 0 Z"
         transform="matrix(0.33414367,0,0,0.33414367,-0.5,-0.5)"
         clip-rule="evenodd"
         id="path36" />
    </clipPath>
    <clipPath
       clipPathUnits="userSpaceOnUse"
       id="clipPath38">
      <path
         d="M 0,0 H 1508.3333 V 864.8974 H 0 Z"
         transform="matrix(0.33414367,0,0,0.33414367,-0.5,-0.5)"
         clip-rule="evenodd"
         id="path38" />
    </clipPath>
    <clipPath
       clipPathUnits="userSpaceOnUse"
       id="clipPath40">
      <path
         d="M 0,0 H 1508.3333 V 864.8974 H 0 Z"
         transform="matrix(0.33414367,0,0,0.33414367,-0.5,-0.5)"
         clip-rule="evenodd"
         id="path40" />
    </clipPath>
    <clipPath
       clipPathUnits="userSpaceOnUse"
       id="clipPath41">
      <path
         d="M 0,0 H 1508.3333 V 864.8974 H 0 Z"
         transform="matrix(0.33414032,0,0,0.33414032,-176.71875,-183)"
         clip-rule="evenodd"
         id="path41" />
    </clipPath>
    <clipPath
       clipPathUnits="userSpaceOnUse"
       id="clipPath43">
      <path
         d="M 0,0 H 1508.3333 V 864.8974 H 0 Z"
         transform="matrix(0.33414367,0,0,0.33414367,-0.5,-0.5)"
         clip-rule="evenodd"
         id="path43" />
    </clipPath>
    <clipPath
       clipPathUnits="userSpaceOnUse"
       id="clipPath45">
      <path
         d="M 0,0 H 1508.3333 V 864.8974 H 0 Z"
         transform="matrix(0.33414367,0,0,0.33414367,-0.5,-0.5)"
         clip-rule="evenodd"
         id="path45" />
    </clipPath>
    <clipPath
       clipPathUnits="userSpaceOnUse"
       id="clipPath47">
      <path
         d="M 0,0 H 1508.3333 V 864.8974 H 0 Z"
         transform="matrix(0.33414367,0,0,0.33414367,-0.5,-0.5)"
         clip-rule="evenodd"
         id="path47" />
    </clipPath>
    <clipPath
       clipPathUnits="userSpaceOnUse"
       id="clipPath48">
      <path
         d="M 0,0 H 1508.3333 V 864.8974 H 0 Z"
         transform="matrix(0.33414032,0,0,0.33414032,-195.42188,-263.00001)"
         clip-rule="evenodd"
         id="path48" />
    </clipPath>
  </defs>
  <sodipodi:namedview
     id="namedview1"
     pagecolor="#ffffff"
     bordercolor="#000000"
     borderopacity="0.25"
     inkscape:showpageshadow="2"
     inkscape:pageopacity="0.0"
     inkscape:pagecheckerboard="0"
     inkscape:deskcolor="#d1d1d1">
    <inkscape:page
       x="0"
       y="0"
       inkscape:label="1"
       id="page1"
       width="482.55997"
       height="278.72"
       margin="0"
       bleed="0" />
  </sodipodi:namedview>
  <g
     id="g1"
     inkscape:groupmode="layer"
     inkscape:label="1">
    <path
       id="path1"
       d="M 0,0 H 504 V 290 H 0 Z"
       style="fill:#ffffff;fill-opacity:1;fill-rule:nonzero;stroke:none"
       transform="scale(0.95767186)"
       clip-path="url(#clipPath2)" />
    <path
       id="path3"
       d="m 281,76 h 50 v 75 h 43.64001"
       style="fill:none;stroke:#000000;stroke-width:1;stroke-linecap:butt;stroke-linejoin:miter;stroke-miterlimit:10;stroke-dasharray:none;stroke-opacity:1"
       transform="matrix(0.95767186,0,0,0.95767186,0.47883593,0.47883593)"
       clip-path="url(#clipPath4)" />
    <path
       id="path5"
       d="m 379.89001,151 -7,3.5 1.75,-3.5 -1.75,-3.5 z"
       style="fill:#000000;fill-opacity:1;fill-rule:nonzero;stroke:#000000;stroke-width:1;stroke-linecap:butt;stroke-linejoin:miter;stroke-miterlimit:10;stroke-dasharray:none;stroke-opacity:1"
       transform="matrix(0.95767186,0,0,0.95767186,0.47883593,0.47883593)"
       clip-path="url(#clipPath6)" />
    <path
       id="path7"
       d="m 181,46 h 100 v 60 H 181 Z"
       style="fill:#dae8fc;fill-opacity:1;fill-rule:nonzero;stroke:#6c8ebf;stroke-width:1;stroke-linecap:butt;stroke-linejoin:miter;stroke-miterlimit:10;stroke-dasharray:none;stroke-opacity:1"
       transform="matrix(0.95767186,0,0,0.95767186,0.47883593,0.47883593)"
       clip-path="url(#clipPath8)" />
    <text
       id="text8"
       xml:space="preserve"
       transform="matrix(0.95768146,0,0,0.95768146,196.20499,67.995384)"
       clip-path="url(#clipPath9)"><tspan
         style="font-variant:normal;font-weight:normal;font-size:20px;font-family:Helvetica;writing-mode:lr-tb;fill:#000000;fill-opacity:1;fill-rule:nonzero;stroke:none"
         x="0 14.443359 26.660156 38.876953"
         y="0"
         sodipodi:role="line"
         id="tspan8">HTTP</tspan></text>
    <text
       id="text9"
       xml:space="preserve"
       transform="matrix(0.95768146,0,0,0.95768146,179.69995,90.979739)"
       clip-path="url(#clipPath10)"><tspan
         style="font-variant:normal;font-weight:normal;font-size:20px;font-family:Helvetica;writing-mode:lr-tb;fill:#000000;fill-opacity:1;fill-rule:nonzero;stroke:none"
         x="0 14.443359 25.566406 36.689453 42.246094 48.90625 60.029297 64.472656 68.916016 80.039062"
         y="0"
         sodipodi:role="line"
         id="tspan9">Controller</tspan></text>
    <path
       id="path11"
       d="M 1,1 H 111 V 31 H 1 Z"
       style="fill:#ffffff;fill-opacity:1;fill-rule:nonzero;stroke:#000000;stroke-width:1;stroke-linecap:butt;stroke-linejoin:miter;stroke-miterlimit:10;stroke-dasharray:none;stroke-opacity:1"
       transform="matrix(0.95767186,0,0,0.95767186,0.47883593,0.47883593)"
       clip-path="url(#clipPath12)" />
    <text
       id="text12"
       xml:space="preserve"
       transform="matrix(0.95768146,0,0,0.95768146,11.312612,21.068992)"
       clip-path="url(#clipPath13)"><tspan
         style="font-style:oblique;font-variant:normal;font-weight:normal;font-size:15px;font-family:Helvetica;writing-mode:lr-tb;fill:#000000;fill-opacity:1;fill-rule:nonzero;stroke:none"
         x="0 4.9951172 13.337402 21.679688 25.847168 34.189453 38.356934 46.699219 55.041504 60.036621 68.378906 80.874023"
         y="0"
         sodipodi:role="line"
         id="tspan12">route params</tspan></text>
    <path
       id="path14"
       d="M 1,41 H 111 V 71 H 1 Z"
       style="fill:#ffffff;fill-opacity:1;fill-rule:nonzero;stroke:#000000;stroke-width:1;stroke-linecap:butt;stroke-linejoin:miter;stroke-miterlimit:10;stroke-dasharray:none;stroke-opacity:1"
       transform="matrix(0.95767186,0,0,0.95767186,0.47883593,0.47883593)"
       clip-path="url(#clipPath15)" />
    <text
       id="text15"
       xml:space="preserve"
       transform="matrix(0.95768146,0,0,0.95768146,25.677834,59.376251)"
       clip-path="url(#clipPath16)"><tspan
         style="font-style:oblique;font-variant:normal;font-weight:normal;font-size:15px;font-family:Helvetica;writing-mode:lr-tb;fill:#000000;fill-opacity:1;fill-rule:nonzero;stroke:none"
         x="0 4.9951172 13.337402 21.679688 25.847168 34.189453 42.531738 50.874023"
         y="0"
         sodipodi:role="line"
         id="tspan15">req body</tspan></text>
    <path
       id="path17"
       d="m 1,81 h 110 v 30 H 1 Z"
       style="fill:#ffffff;fill-opacity:1;fill-rule:nonzero;stroke:#000000;stroke-width:1;stroke-linecap:butt;stroke-linejoin:miter;stroke-miterlimit:10;stroke-dasharray:none;stroke-opacity:1"
       transform="matrix(0.95767186,0,0,0.95767186,0.47883593,0.47883593)"
       clip-path="url(#clipPath18)" />
    <text
       id="text18"
       xml:space="preserve"
       transform="matrix(0.95768146,0,0,0.95768146,16.10102,97.683509)"
       clip-path="url(#clipPath19)"><tspan
         style="font-style:oblique;font-variant:normal;font-weight:normal;font-size:15px;font-family:Helvetica;writing-mode:lr-tb;fill:#000000;fill-opacity:1;fill-rule:nonzero;stroke:none"
         x="0 8.3422852 16.68457 25.026855 30.021973 37.521973 41.689453 49.189453 53.356934 58.352051 61.68457 70.026855"
         y="0"
         sodipodi:role="line"
         id="tspan18">query string</tspan></text>
    <path
       id="path20"
       d="m 1,121 h 110 v 30 H 1 Z"
       style="fill:#ffffff;fill-opacity:1;fill-rule:nonzero;stroke:#000000;stroke-width:1;stroke-linecap:butt;stroke-linejoin:miter;stroke-miterlimit:10;stroke-dasharray:none;stroke-opacity:1"
       transform="matrix(0.95767186,0,0,0.95767186,0.47883593,0.47883593)"
       clip-path="url(#clipPath21)" />
    <text
       id="text21"
       xml:space="preserve"
       transform="matrix(0.95768146,0,0,0.95768146,27.668016,135.99077)"
       clip-path="url(#clipPath22)"><tspan
         style="font-style:oblique;font-variant:normal;font-weight:normal;font-size:15px;font-family:Helvetica;writing-mode:lr-tb;fill:#000000;fill-opacity:1;fill-rule:nonzero;stroke:none"
         x="0 8.3422852 16.68457 25.026855 33.369141 41.711426 46.706543"
         y="0"
         sodipodi:role="line"
         id="tspan21">headers</tspan></text>
    <path
       id="path23"
       d="m 148,76 h 23 -10 13.63"
       style="fill:none;stroke:#000000;stroke-width:1;stroke-linecap:butt;stroke-linejoin:miter;stroke-miterlimit:10;stroke-dasharray:none;stroke-opacity:1"
       transform="matrix(0.95767186,0,0,0.95767186,0.47883593,0.47883593)"
       clip-path="url(#clipPath24)" />
    <path
       id="path25"
       d="m 179.88,76 -7,3.5 1.75,-3.5 -1.75,-3.5 z"
       style="fill:#000000;fill-opacity:1;fill-rule:nonzero;stroke:#000000;stroke-width:1;stroke-linecap:butt;stroke-linejoin:miter;stroke-miterlimit:10;stroke-dasharray:none;stroke-opacity:1"
       transform="matrix(0.95767186,0,0,0.95767186,0.47883593,0.47883593)"
       clip-path="url(#clipPath26)" />
    <path
       id="path27"
       d="m 151,1 h -7.5 c -5,0 -7.5,3.333333 -7.5,10 v 55 c 0,6.666664 -2.5,10 -7.5,10 h -3.75 c -2.5,0 -1.25,0 3.75,0 h 3.75 c 2.5,0 3.75,3.333336 3.75,10 v 55 c 0,6.66667 2.5,10 7.5,10 h 7.5"
       style="fill:none;stroke:#000000;stroke-width:1;stroke-linecap:butt;stroke-linejoin:miter;stroke-miterlimit:10;stroke-dasharray:none;stroke-opacity:1"
       transform="matrix(-0.95767186,0,0,-0.95767186,260.96558,146.04495)"
       clip-path="url(#clipPath28)" />
    <path
       id="path29"
       d="M 381,96 H 501 V 206 H 381 Z"
       style="fill:#f5f5f5;fill-opacity:1;fill-rule:nonzero;stroke:#666666;stroke-width:1;stroke-linecap:butt;stroke-linejoin:miter;stroke-miterlimit:10;stroke-dasharray:none;stroke-opacity:1"
       transform="matrix(0.95767186,0,0,0.95767186,0.47883593,0.47883593)"
       clip-path="url(#clipPath30)" />
    <text
       id="text30"
       xml:space="preserve"
       transform="matrix(0.95768146,0,0,0.95768146,399.44295,116.83714)"
       clip-path="url(#clipPath31)"><tspan
         style="font-style:oblique;font-variant:normal;font-weight:normal;font-size:20px;font-family:Helvetica;writing-mode:lr-tb;fill:#333333;fill-opacity:1;fill-rule:nonzero;stroke:none"
         x="0 14.443359 25.566406 36.689453"
         y="0"
         sodipodi:role="line"
         id="tspan30">Code</tspan></text>
    <text
       id="text31"
       xml:space="preserve"
       transform="matrix(0.95768146,0,0,0.95768146,372.82241,139.82149)"
       clip-path="url(#clipPath32)"><tspan
         style="font-style:oblique;font-variant:normal;font-weight:normal;font-size:20px;font-family:Helvetica;writing-mode:lr-tb;fill:#333333;fill-opacity:1;fill-rule:nonzero;stroke:none"
         x="0 10 21.123047 37.783203 48.90625 63.349609 74.472656 85.595703 92.255859"
         y="0"
         sodipodi:role="line"
         id="tspan31">somewhere</tspan></text>
    <text
       id="text32"
       xml:space="preserve"
       transform="matrix(0.95768146,0,0,0.95768146,380.79809,162.80585)"
       clip-path="url(#clipPath33)"><tspan
         style="font-style:oblique;font-variant:normal;font-weight:normal;font-size:20px;font-family:Helvetica;writing-mode:lr-tb;fill:#333333;fill-opacity:1;fill-rule:nonzero;stroke:none"
         x="0 11.123047 15.566406 25.566406 36.689453 42.246094 47.802734 58.925781 64.482422 75.605469"
         y="0"
         sodipodi:role="line"
         id="tspan32">else to do</tspan></text>
    <text
       id="text33"
       xml:space="preserve"
       transform="matrix(0.95768146,0,0,0.95768146,383.47661,185.7902)"
       clip-path="url(#clipPath34)"><tspan
         style="font-style:oblique;font-variant:normal;font-weight:normal;font-size:20px;font-family:Helvetica;writing-mode:lr-tb;fill:#333333;fill-opacity:1;fill-rule:nonzero;stroke:none"
         x="0 6.6601562 17.783203 28.90625 33.349609 38.90625 53.349609 64.472656 71.132812"
         y="0"
         sodipodi:role="line"
         id="tspan33">real work</tspan></text>
    <path
       id="path35"
       d="m 281,176 h 50 v -25 h 43.64001"
       style="fill:none;stroke:#000000;stroke-width:1;stroke-linecap:butt;stroke-linejoin:miter;stroke-miterlimit:10;stroke-dasharray:none;stroke-opacity:1"
       transform="matrix(0.95767186,0,0,0.95767186,0.47883593,0.47883593)"
       clip-path="url(#clipPath36)" />
    <path
       id="path37"
       d="m 379.89001,151 -7,3.5 1.75,-3.5 -1.75,-3.5 z"
       style="fill:#000000;fill-opacity:1;fill-rule:nonzero;stroke:#000000;stroke-width:1;stroke-linecap:butt;stroke-linejoin:miter;stroke-miterlimit:10;stroke-dasharray:none;stroke-opacity:1"
       transform="matrix(0.95767186,0,0,0.95767186,0.47883593,0.47883593)"
       clip-path="url(#clipPath38)" />
    <path
       id="path39"
       d="m 181,146 h 100 v 60 H 181 Z"
       style="fill:#dae8fc;fill-opacity:1;fill-rule:nonzero;stroke:#6c8ebf;stroke-width:1;stroke-linecap:butt;stroke-linejoin:miter;stroke-miterlimit:10;stroke-dasharray:none;stroke-opacity:1"
       transform="matrix(0.95767186,0,0,0.95767186,0.47883593,0.47883593)"
       clip-path="url(#clipPath40)" />
    <text
       id="text40"
       xml:space="preserve"
       transform="matrix(0.95768146,0,0,0.95768146,169.24027,175.25571)"
       clip-path="url(#clipPath41)"><tspan
         style="font-variant:normal;font-weight:normal;font-size:20px;font-family:Helvetica;writing-mode:lr-tb;fill:#000000;fill-opacity:1;fill-rule:nonzero;stroke:none"
         x="0 18.525391 29.648438 40.771484 50.771484 61.894531 71.894531 81.894531 93.017578 98.574219"
         y="0"
         sodipodi:role="line"
         id="tspan40">Websockets</tspan></text>
    <path
       id="path42"
       d="M 281,256 H 441 V 212.37"
       style="fill:none;stroke:#000000;stroke-width:1;stroke-linecap:butt;stroke-linejoin:miter;stroke-miterlimit:10;stroke-dasharray:none;stroke-opacity:1"
       transform="matrix(0.95767186,0,0,0.95767186,0.47883593,0.47883593)"
       clip-path="url(#clipPath43)" />
    <path
       id="path44"
       d="m 441,207.12 3.5,7 -3.5,-1.75 -3.5,1.75 z"
       style="fill:#000000;fill-opacity:1;fill-rule:nonzero;stroke:#000000;stroke-width:1;stroke-linecap:butt;stroke-linejoin:miter;stroke-miterlimit:10;stroke-dasharray:none;stroke-opacity:1"
       transform="matrix(0.95767186,0,0,0.95767186,0.47883593,0.47883593)"
       clip-path="url(#clipPath45)" />
    <path
       id="path46"
       d="m 181,226 h 100 v 60 H 181 Z"
       style="fill:#dae8fc;fill-opacity:1;fill-rule:nonzero;stroke:#6c8ebf;stroke-width:1;stroke-linecap:butt;stroke-linejoin:miter;stroke-miterlimit:10;stroke-dasharray:none;stroke-opacity:1"
       transform="matrix(0.95767186,0,0,0.95767186,0.47883593,0.47883593)"
       clip-path="url(#clipPath47)" />
    <text
       id="text47"
       xml:space="preserve"
       transform="matrix(0.95768146,0,0,0.95768146,187.15191,251.87023)"
       clip-path="url(#clipPath48)"><tspan
         style="font-variant:normal;font-weight:normal;font-size:20px;font-family:Helvetica;writing-mode:lr-tb;fill:#000000;fill-opacity:1;fill-rule:nonzero;stroke:none"
         x="0 15.556641 22.216797 33.339844 44.462891 55.585938 66.708984"
         y="0"
         sodipodi:role="line"
         id="tspan47">Graphql</tspan></text>
  </g>
</svg>
