<?xml version="1.0" encoding="UTF-8" standalone="no"?>
<!-- Created with Inkscape (http://www.inkscape.org/) -->

<svg
   version="1.1"
   id="svg1"
   width="414.71997"
   height="62.719997"
   viewBox="0 0 414.71997 62.719997"
   sodipodi:docname="nest-11.pdf"
   xmlns:inkscape="http://www.inkscape.org/namespaces/inkscape"
   xmlns:sodipodi="http://sodipodi.sourceforge.net/DTD/sodipodi-0.dtd"
   xmlns="http://www.w3.org/2000/svg"
   xmlns:svg="http://www.w3.org/2000/svg">
  <defs
     id="defs1">
    <clipPath
       clipPathUnits="userSpaceOnUse"
       id="clipPath2">
      <path
         d="M 0,0 H 1295.8333 V 194.07642 H 0 Z"
         transform="scale(0.33491962)"
         clip-rule="evenodd"
         id="path2" />
    </clipPath>
    <clipPath
       clipPathUnits="userSpaceOnUse"
       id="clipPath4">
      <path
         d="M 0,0 H 1295.8333 V 191.09062 H 0 Z"
         transform="matrix(0.33491962,0,0,0.33491962,-0.49999999,-0.49999999)"
         clip-rule="evenodd"
         id="path4" />
    </clipPath>
    <clipPath
       clipPathUnits="userSpaceOnUse"
       id="clipPath5">
      <path
         d="M 0,0 H 1295.8333 V 191.09062 H 0 Z"
         transform="matrix(0.33491628,0,0,0.33491628,-49.15625,-37.999999)"
         clip-rule="evenodd"
         id="path5" />
    </clipPath>
  </defs>
  <sodipodi:namedview
     id="namedview1"
     pagecolor="#ffffff"
     bordercolor="#000000"
     borderopacity="0.25"
     inkscape:showpageshadow="2"
     inkscape:pageopacity="0.0"
     inkscape:pagecheckerboard="0"
     inkscape:deskcolor="#d1d1d1">
    <inkscape:page
       x="0"
       y="0"
       inkscape:label="1"
       id="page1"
       width="414.71997"
       height="62.719997"
       margin="0"
       bleed="0" />
  </sodipodi:namedview>
  <g
     id="g1"
     inkscape:groupmode="layer"
     inkscape:label="1">
    <path
       id="path1"
       d="M 0,0 H 434 V 65 H 0 Z"
       style="fill:#ffffff;fill-opacity:1;fill-rule:nonzero;stroke:none"
       transform="scale(0.95545308)"
       clip-path="url(#clipPath2)" />
    <path
       id="path3"
       d="M 1,1 H 431 V 61 H 1 Z"
       style="fill:#dae8fc;fill-opacity:1;fill-rule:nonzero;stroke:#6c8ebf;stroke-width:1;stroke-linecap:butt;stroke-linejoin:miter;stroke-miterlimit:10;stroke-dasharray:none;stroke-opacity:1"
       transform="matrix(0.95545308,0,0,0.95545308,0.47772653,0.47772653)"
       clip-path="url(#clipPath4)" />
    <text
       id="text4"
       xml:space="preserve"
       transform="matrix(0.95546262,0,0,0.95546262,46.966959,36.307579)"
       clip-path="url(#clipPath5)"><tspan
         style="font-variant:normal;font-weight:700;font-size:19px;font-family:Helvetica;writing-mode:lr-tb;fill:#000000;fill-opacity:1;fill-rule:nonzero;stroke:none"
         x="0 11.605957 16.884766 23.211914 34.817871 46.423828 58.029785 63.308594 73.875488 85.481445 102.37549 107.6543 113.98145 124.54834 136.1543 146.72119 157.28809 163.61523 174.18213 184.74902 195.31592 200.59473 211.16162 216.44043 227.00732 237.57422 248.14111 254.46826 265.03516 275.60205 280.88086 286.15967 297.76562 308.33252 314.65967 326.26562"
         y="0"
         sodipodi:role="line"
         id="tspan4">github.com/typestack/class-validator</tspan></text>
  </g>
</svg>
