<?xml version="1.0" encoding="UTF-8" standalone="no"?>
<!-- Created with Inkscape (http://www.inkscape.org/) -->

<svg
   version="1.1"
   id="svg1"
   width="252.16"
   height="177.27998"
   viewBox="0 0 252.16 177.27998"
   sodipodi:docname="nest-8.pdf"
   xmlns:inkscape="http://www.inkscape.org/namespaces/inkscape"
   xmlns:sodipodi="http://sodipodi.sourceforge.net/DTD/sodipodi-0.dtd"
   xmlns="http://www.w3.org/2000/svg"
   xmlns:svg="http://www.w3.org/2000/svg">
  <defs
     id="defs1">
    <clipPath
       clipPathUnits="userSpaceOnUse"
       id="clipPath2">
      <path
         d="M 0,0 H 787.49994 V 551.84656 H 0 Z"
         transform="scale(0.33523812)"
         clip-rule="evenodd"
         id="path2" />
    </clipPath>
    <clipPath
       clipPathUnits="userSpaceOnUse"
       id="clipPath4">
      <path
         d="M 0,0 H 787.49994 V 548.86359 H 0 Z"
         transform="matrix(0.33523812,0,0,0.33523812,-0.49999999,-0.49999999)"
         clip-rule="evenodd"
         id="path4" />
    </clipPath>
    <clipPath
       clipPathUnits="userSpaceOnUse"
       id="clipPath5">
      <path
         d="M 0,0 H 787.49994 V 548.86359 H 0 Z"
         transform="matrix(0.33523477,0,0,0.33523477,-78.90625,-27.000001)"
         clip-rule="evenodd"
         id="path5" />
    </clipPath>
    <clipPath
       clipPathUnits="userSpaceOnUse"
       id="clipPath7">
      <path
         d="M 0,0 H 787.49994 V 548.86359 H 0 Z"
         transform="matrix(0.33523812,0,0,0.33523812,-0.49999999,-0.49999999)"
         clip-rule="evenodd"
         id="path7" />
    </clipPath>
    <clipPath
       clipPathUnits="userSpaceOnUse"
       id="clipPath8">
      <path
         d="M 0,0 H 787.49994 V 548.86359 H 0 Z"
         transform="matrix(0.33523477,0,0,0.33523477,-42.984376,-77)"
         clip-rule="evenodd"
         id="path8" />
    </clipPath>
    <clipPath
       clipPathUnits="userSpaceOnUse"
       id="clipPath10">
      <path
         d="M 0,0 H 787.49994 V 548.86359 H 0 Z"
         transform="scale(0.33523812)"
         clip-rule="evenodd"
         id="path10" />
    </clipPath>
    <clipPath
       clipPathUnits="userSpaceOnUse"
       id="clipPath12">
      <path
         d="M 0,0 H 787.49994 V 548.86359 H 0 Z"
         transform="matrix(0.33523812,0,0,0.33523812,-0.49999999,-0.49999999)"
         clip-rule="evenodd"
         id="path12" />
    </clipPath>
    <clipPath
       clipPathUnits="userSpaceOnUse"
       id="clipPath14">
      <path
         d="M 0,0 H 787.49994 V 548.86359 H 0 Z"
         transform="matrix(0.33523812,0,0,0.33523812,-0.49999999,-0.49999999)"
         clip-rule="evenodd"
         id="path14" />
    </clipPath>
    <clipPath
       clipPathUnits="userSpaceOnUse"
       id="clipPath16">
      <path
         d="M 0,0 H 787.49994 V 548.86359 H 0 Z"
         transform="matrix(0.33523812,0,0,0.33523812,-0.49999999,-0.49999999)"
         clip-rule="evenodd"
         id="path16" />
    </clipPath>
    <clipPath
       clipPathUnits="userSpaceOnUse"
       id="clipPath17">
      <path
         d="M 0,0 H 787.49994 V 548.86359 H 0 Z"
         transform="matrix(0.33523477,0,0,0.33523477,-51.25,-153.00001)"
         clip-rule="evenodd"
         id="path17" />
    </clipPath>
    <clipPath
       clipPathUnits="userSpaceOnUse"
       id="clipPath18">
      <path
         d="M 0,0 H 787.49994 V 548.86359 H 0 Z"
         transform="matrix(0.33523477,0,0,0.33523477,-65.28125,-171)"
         clip-rule="evenodd"
         id="path18" />
    </clipPath>
  </defs>
  <sodipodi:namedview
     id="namedview1"
     pagecolor="#ffffff"
     bordercolor="#000000"
     borderopacity="0.25"
     inkscape:showpageshadow="2"
     inkscape:pageopacity="0.0"
     inkscape:pagecheckerboard="0"
     inkscape:deskcolor="#d1d1d1">
    <inkscape:page
       x="0"
       y="0"
       inkscape:label="1"
       id="page1"
       width="252.16"
       height="177.27998"
       margin="0"
       bleed="0" />
  </sodipodi:namedview>
  <g
     id="g1"
     inkscape:groupmode="layer"
     inkscape:label="1">
    <path
       id="path1"
       d="M 0,0 H 264 V 185 H 0 Z"
       style="fill:#ffffff;fill-opacity:1;fill-rule:nonzero;stroke:none"
       transform="scale(0.95454534)"
       clip-path="url(#clipPath2)" />
    <path
       id="path3"
       d="M 1,1 H 261 V 41 H 1 Z"
       style="fill:#dae8fc;fill-opacity:1;fill-rule:nonzero;stroke:#6c8ebf;stroke-width:1;stroke-linecap:butt;stroke-linejoin:miter;stroke-miterlimit:10;stroke-dasharray:none;stroke-opacity:1"
       transform="matrix(0.95454534,0,0,0.95454534,0.47727266,0.47727266)"
       clip-path="url(#clipPath4)" />
    <text
       id="text4"
       xml:space="preserve"
       transform="matrix(0.95455487,0,0,0.95455487,75.320345,25.772982)"
       clip-path="url(#clipPath5)"><tspan
         style="font-variant:normal;font-weight:700;font-size:15px;font-family:Helvetica;writing-mode:lr-tb;fill:#000000;fill-opacity:1;fill-rule:nonzero;stroke:none"
         x="0 10.004883 21.672363 31.677246 40.839844 45.007324 55.839844 64.182129 73.344727 82.507324 90.849609 99.191895"
         y="0"
         sodipodi:role="line"
         id="tspan4">POST Request</tspan></text>
    <path
       id="path6"
       d="m 1,41 h 260 v 60 H 1 Z"
       style="fill:#ffffff;fill-opacity:1;fill-rule:nonzero;stroke:#000000;stroke-width:1;stroke-linecap:butt;stroke-linejoin:miter;stroke-miterlimit:10;stroke-dasharray:none;stroke-opacity:1"
       transform="matrix(0.95454534,0,0,0.95454534,0.47727266,0.47727266)"
       clip-path="url(#clipPath7)" />
    <text
       id="text7"
       xml:space="preserve"
       transform="matrix(0.95455487,0,0,0.95455487,41.030945,73.500725)"
       clip-path="url(#clipPath8)"><tspan
         style="font-variant:normal;font-weight:700;font-size:15px;font-family:Helvetica;writing-mode:lr-tb;fill:#000000;fill-opacity:1;fill-rule:nonzero;stroke:none"
         x="0 5.8374023 10.004883 17.116699 30.454102 38.796387 47.138672 55.480957 63.823242 72.98584 81.328125 88.439941 93.435059 97.602539 104.71436 113.87695 118.04443 122.21191 127.20703 136.36963 144.71191 150.54932 158.8916 166.00342 170.1709"
         y="0"
         sodipodi:role="line"
         id="tspan7">{ &quot;message&quot;: &quot;hi there&quot; }</tspan></text>
    <path
       id="path9"
       d="m 32.5,56 h 210 v 30 h -210 z"
       style="fill:none;stroke:#b85450;stroke-width:1;stroke-linecap:butt;stroke-linejoin:miter;stroke-miterlimit:10;stroke-dasharray:none;stroke-opacity:1"
       transform="scale(0.95454534)"
       clip-path="url(#clipPath10)" />
    <path
       id="path11"
       d="m 129,131 h 2 v -23.63"
       style="fill:none;stroke:#000000;stroke-width:1;stroke-linecap:butt;stroke-linejoin:miter;stroke-miterlimit:10;stroke-dasharray:none;stroke-opacity:1"
       transform="matrix(0.95454534,0,0,0.95454534,0.47727266,0.47727266)"
       clip-path="url(#clipPath12)" />
    <path
       id="path13"
       d="m 131,102.12 3.5,7 -3.5,-1.75 -3.5,1.75 z"
       style="fill:#000000;fill-opacity:1;fill-rule:nonzero;stroke:#000000;stroke-width:1;stroke-linecap:butt;stroke-linejoin:miter;stroke-miterlimit:10;stroke-dasharray:none;stroke-opacity:1"
       transform="matrix(0.95454534,0,0,0.95454534,0.47727266,0.47727266)"
       clip-path="url(#clipPath14)" />
    <path
       id="path15"
       d="m 32.5,131 h 193 v 50 h -193 z"
       style="fill:#fff2cc;fill-opacity:1;fill-rule:nonzero;stroke:#d6b656;stroke-width:1;stroke-linecap:butt;stroke-linejoin:miter;stroke-miterlimit:10;stroke-dasharray:none;stroke-opacity:1"
       transform="matrix(0.95454534,0,0,0.95454534,0.47727266,0.47727266)"
       clip-path="url(#clipPath16)" />
    <text
       id="text16"
       xml:space="preserve"
       transform="matrix(0.95455487,0,0,0.95455487,48.920937,146.0469)"
       clip-path="url(#clipPath17)"><tspan
         style="font-style:oblique;font-variant:normal;font-weight:normal;font-size:15px;font-family:Helvetica;writing-mode:lr-tb;fill:#000000;fill-opacity:1;fill-rule:nonzero;stroke:none"
         x="0 11.66748 20.009766 24.177246 27.509766 35.852051 44.194336 48.361816 56.704102 65.046387 69.213867 74.208984 78.376465 87.275391 95.617676 98.950195 102.28271 110.625 118.96729 123.13477 131.47705 135.64453 139.81201 148.1543"
         y="0"
         sodipodi:role="line"
         id="tspan16">Option #2 - Validate the</tspan></text>
    <text
       id="text17"
       xml:space="preserve"
       transform="matrix(0.95455487,0,0,0.95455487,62.314535,163.22888)"
       clip-path="url(#clipPath18)"><tspan
         style="font-style:oblique;font-variant:normal;font-weight:normal;font-size:15px;font-family:Helvetica;writing-mode:lr-tb;fill:#000000;fill-opacity:1;fill-rule:nonzero;stroke:none"
         x="0 8.3422852 16.68457 20.852051 24.18457 29.179688 37.521973 41.689453 46.68457 55.026855 63.369141 71.711426 80.053711 87.553711 91.721191 95.888672 104.23096 112.57324 120.91553"
         y="0"
         sodipodi:role="line"
         id="tspan17">entire request body</tspan></text>
  </g>
</svg>
