<?xml version="1.0" encoding="UTF-8" standalone="no"?>
<!-- Created with Inkscape (http://www.inkscape.org/) -->

<svg
   version="1.1"
   id="svg1"
   width="252.16"
   height="225.27998"
   viewBox="0 0 252.16 225.27998"
   sodipodi:docname="nest-10.pdf"
   xmlns:inkscape="http://www.inkscape.org/namespaces/inkscape"
   xmlns:sodipodi="http://sodipodi.sourceforge.net/DTD/sodipodi-0.dtd"
   xmlns="http://www.w3.org/2000/svg"
   xmlns:svg="http://www.w3.org/2000/svg">
  <defs
     id="defs1">
    <clipPath
       clipPathUnits="userSpaceOnUse"
       id="clipPath2">
      <path
         d="M 0,0 H 787.49994 V 703.97723 H 0 Z"
         transform="scale(0.33523812)"
         clip-rule="evenodd"
         id="path2" />
    </clipPath>
    <clipPath
       clipPathUnits="userSpaceOnUse"
       id="clipPath4">
      <path
         d="M 0,0 H 787.49994 V 698.01129 H 0 Z"
         transform="matrix(0.33523812,0,0,0.33523812,-0.49999999,-0.49999999)"
         clip-rule="evenodd"
         id="path4" />
    </clipPath>
    <clipPath
       clipPathUnits="userSpaceOnUse"
       id="clipPath5">
      <path
         d="M 0,0 H 787.49994 V 698.01129 H 0 Z"
         transform="matrix(0.33523477,0,0,0.33523477,-78.90625,-27.000001)"
         clip-rule="evenodd"
         id="path5" />
    </clipPath>
    <clipPath
       clipPathUnits="userSpaceOnUse"
       id="clipPath7">
      <path
         d="M 0,0 H 787.49994 V 698.01129 H 0 Z"
         transform="matrix(0.33523812,0,0,0.33523812,-0.49999999,-0.49999999)"
         clip-rule="evenodd"
         id="path7" />
    </clipPath>
    <clipPath
       clipPathUnits="userSpaceOnUse"
       id="clipPath9">
      <path
         d="M 0,0 H 787.49994 V 698.01129 H 0 Z"
         transform="matrix(0.33523812,0,0,0.33523812,-0.49999999,-0.49999999)"
         clip-rule="evenodd"
         id="path9" />
    </clipPath>
    <clipPath
       clipPathUnits="userSpaceOnUse"
       id="clipPath11">
      <path
         d="M 0,0 H 787.49994 V 698.01129 H 0 Z"
         transform="matrix(0.33523812,0,0,0.33523812,-0.49999999,-0.49999999)"
         clip-rule="evenodd"
         id="path11" />
    </clipPath>
    <clipPath
       clipPathUnits="userSpaceOnUse"
       id="clipPath12">
      <path
         d="M 0,0 H 787.49994 V 698.01129 H 0 Z"
         transform="matrix(0.33523477,0,0,0.33523477,-42.984376,-77)"
         clip-rule="evenodd"
         id="path12" />
    </clipPath>
    <clipPath
       clipPathUnits="userSpaceOnUse"
       id="clipPath14">
      <path
         d="M 0,0 H 787.49994 V 698.01129 H 0 Z"
         transform="matrix(0.33523812,0,0,0.33523812,-0.49999999,-0.49999999)"
         clip-rule="evenodd"
         id="path14" />
    </clipPath>
    <clipPath
       clipPathUnits="userSpaceOnUse"
       id="clipPath15">
      <path
         d="M 0,0 H 787.49994 V 698.01129 H 0 Z"
         transform="matrix(0.33523477,0,0,0.33523477,-42.609376,-157)"
         clip-rule="evenodd"
         id="path15" />
    </clipPath>
    <clipPath
       clipPathUnits="userSpaceOnUse"
       id="clipPath17">
      <path
         d="M 0,0 H 787.49994 V 698.01129 H 0 Z"
         transform="matrix(0.33523812,0,0,0.33523812,-0.49999999,-0.49999999)"
         clip-rule="evenodd"
         id="path17" />
    </clipPath>
    <clipPath
       clipPathUnits="userSpaceOnUse"
       id="clipPath18">
      <path
         d="M 0,0 H 787.49994 V 698.01129 H 0 Z"
         transform="matrix(0.33523477,0,0,0.33523477,-12,-207)"
         clip-rule="evenodd"
         id="path18" />
    </clipPath>
  </defs>
  <sodipodi:namedview
     id="namedview1"
     pagecolor="#ffffff"
     bordercolor="#000000"
     borderopacity="0.25"
     inkscape:showpageshadow="2"
     inkscape:pageopacity="0.0"
     inkscape:pagecheckerboard="0"
     inkscape:deskcolor="#d1d1d1">
    <inkscape:page
       x="0"
       y="0"
       inkscape:label="1"
       id="page1"
       width="252.16"
       height="225.27998"
       margin="0"
       bleed="0" />
  </sodipodi:namedview>
  <g
     id="g1"
     inkscape:groupmode="layer"
     inkscape:label="1">
    <path
       id="path1"
       d="M 0,0 H 264 V 236 H 0 Z"
       style="fill:#ffffff;fill-opacity:1;fill-rule:nonzero;stroke:none"
       transform="scale(0.95454534)"
       clip-path="url(#clipPath2)" />
    <path
       id="path3"
       d="M 1,1 H 261 V 41 H 1 Z"
       style="fill:#dae8fc;fill-opacity:1;fill-rule:nonzero;stroke:#6c8ebf;stroke-width:1;stroke-linecap:butt;stroke-linejoin:miter;stroke-miterlimit:10;stroke-dasharray:none;stroke-opacity:1"
       transform="matrix(0.95454534,0,0,0.95454534,0.47727266,0.47727266)"
       clip-path="url(#clipPath4)" />
    <text
       id="text4"
       xml:space="preserve"
       transform="matrix(0.95455487,0,0,0.95455487,75.320345,25.772982)"
       clip-path="url(#clipPath5)"><tspan
         style="font-variant:normal;font-weight:700;font-size:15px;font-family:Helvetica;writing-mode:lr-tb;fill:#000000;fill-opacity:1;fill-rule:nonzero;stroke:none"
         x="0 10.004883 21.672363 31.677246 40.839844 45.007324 55.839844 64.182129 73.344727 82.507324 90.849609 99.191895"
         y="0"
         sodipodi:role="line"
         id="tspan4">POST Request</tspan></text>
    <path
       id="path6"
       d="m 131,101 v 20 -10 13.63"
       style="fill:none;stroke:#000000;stroke-width:1;stroke-linecap:butt;stroke-linejoin:miter;stroke-miterlimit:10;stroke-dasharray:none;stroke-opacity:1"
       transform="matrix(0.95454534,0,0,0.95454534,0.47727266,0.47727266)"
       clip-path="url(#clipPath7)" />
    <path
       id="path8"
       d="m 131,129.88 -3.5,-7 3.5,1.75 3.5,-1.75 z"
       style="fill:#000000;fill-opacity:1;fill-rule:nonzero;stroke:#000000;stroke-width:1;stroke-linecap:butt;stroke-linejoin:miter;stroke-miterlimit:10;stroke-dasharray:none;stroke-opacity:1"
       transform="matrix(0.95454534,0,0,0.95454534,0.47727266,0.47727266)"
       clip-path="url(#clipPath9)" />
    <path
       id="path10"
       d="m 1,41 h 260 v 60 H 1 Z"
       style="fill:#ffffff;fill-opacity:1;fill-rule:nonzero;stroke:#000000;stroke-width:1;stroke-linecap:butt;stroke-linejoin:miter;stroke-miterlimit:10;stroke-dasharray:none;stroke-opacity:1"
       transform="matrix(0.95454534,0,0,0.95454534,0.47727266,0.47727266)"
       clip-path="url(#clipPath11)" />
    <text
       id="text11"
       xml:space="preserve"
       transform="matrix(0.95455487,0,0,0.95455487,41.030945,73.500725)"
       clip-path="url(#clipPath12)"><tspan
         style="font-variant:normal;font-weight:700;font-size:15px;font-family:Helvetica;writing-mode:lr-tb;fill:#000000;fill-opacity:1;fill-rule:nonzero;stroke:none"
         x="0 5.8374023 10.004883 17.116699 30.454102 38.796387 47.138672 55.480957 63.823242 72.98584 81.328125 88.439941 93.435059 97.602539 104.71436 113.87695 118.04443 122.21191 127.20703 136.36963 144.71191 150.54932 158.8916 166.00342 170.1709"
         y="0"
         sodipodi:role="line"
         id="tspan11">{ &quot;message&quot;: &quot;hi there&quot; }</tspan></text>
    <path
       id="path13"
       d="m 1,131 h 260 v 40 H 1 Z"
       style="fill:#ffe6cc;fill-opacity:1;fill-rule:nonzero;stroke:#d79b00;stroke-width:1;stroke-linecap:butt;stroke-linejoin:miter;stroke-miterlimit:10;stroke-dasharray:none;stroke-opacity:1"
       transform="matrix(0.95454534,0,0,0.95454534,0.47727266,0.47727266)"
       clip-path="url(#clipPath14)" />
    <text
       id="text14"
       xml:space="preserve"
       transform="matrix(0.95455487,0,0,0.95455487,40.672987,149.86511)"
       clip-path="url(#clipPath15)"><tspan
         style="font-variant:normal;font-weight:700;font-size:15px;font-family:Helvetica;writing-mode:lr-tb;fill:#000000;fill-opacity:1;fill-rule:nonzero;stroke:none"
         x="0 8.3422852 12.509766 20.852051 29.194336 37.536621 41.704102 52.536621 58.374023 66.716309 75.058594 80.053711 88.395996 100.89111 109.2334 117.57568 125.91797 134.26025 143.42285 151.76514 162.59766 167.59277"
         y="0"
         sodipodi:role="line"
         id="tspan14">class CreateMessageDto</tspan></text>
    <path
       id="path16"
       d="m 1,171 h 260 v 60 H 1 Z"
       style="fill:#ffffff;fill-opacity:1;fill-rule:nonzero;stroke:#000000;stroke-width:1;stroke-linecap:butt;stroke-linejoin:miter;stroke-miterlimit:10;stroke-dasharray:none;stroke-opacity:1"
       transform="matrix(0.95454534,0,0,0.95454534,0.47727266,0.47727266)"
       clip-path="url(#clipPath17)" />
    <text
       id="text17"
       xml:space="preserve"
       transform="matrix(0.95455487,0,0,0.95455487,11.454658,197.59286)"
       clip-path="url(#clipPath18)"><tspan
         style="font-variant:normal;font-weight:700;font-size:15px;font-family:Helvetica;writing-mode:lr-tb;fill:#000000;fill-opacity:1;fill-rule:nonzero;stroke:none"
         x="0 13.337402 21.679688 30.021973 38.364258 46.706543 55.869141 64.211426 69.206543 73.374023 81.716309 86.711426 92.548828 96.716309 105.87891"
         y="0"
         sodipodi:role="line"
         id="tspan17">message: string</tspan></text>
  </g>
</svg>
