<?xml version="1.0" encoding="UTF-8" standalone="no"?>
<!-- Created with Inkscape (http://www.inkscape.org/) -->

<svg
   version="1.1"
   id="svg1"
   width="414.71997"
   height="225.27998"
   viewBox="0 0 414.71997 225.27998"
   sodipodi:docname="nest-1.pdf"
   xmlns:inkscape="http://www.inkscape.org/namespaces/inkscape"
   xmlns:sodipodi="http://sodipodi.sourceforge.net/DTD/sodipodi-0.dtd"
   xmlns="http://www.w3.org/2000/svg"
   xmlns:svg="http://www.w3.org/2000/svg">
  <defs
     id="defs1">
    <clipPath
       clipPathUnits="userSpaceOnUse"
       id="clipPath2">
      <path
         d="M 0,0 H 1295.8333 V 701.66089 H 0 Z"
         transform="scale(0.33491962)"
         clip-rule="evenodd"
         id="path2" />
    </clipPath>
    <clipPath
       clipPathUnits="userSpaceOnUse"
       id="clipPath4">
      <path
         d="M 0,0 H 1295.8333 V 698.67511 H 0 Z"
         transform="matrix(0.33491962,0,0,0.33491962,-0.49999999,-0.49999999)"
         clip-rule="evenodd"
         id="path4" />
    </clipPath>
    <clipPath
       clipPathUnits="userSpaceOnUse"
       id="clipPath5">
      <path
         d="M 0,0 H 1295.8333 V 698.67511 H 0 Z"
         transform="matrix(0.33491628,0,0,0.33491628,-64.65625,-20)"
         clip-rule="evenodd"
         id="path5" />
    </clipPath>
    <clipPath
       clipPathUnits="userSpaceOnUse"
       id="clipPath7">
      <path
         d="M 0,0 H 1295.8333 V 698.67511 H 0 Z"
         transform="matrix(0.33491962,0,0,0.33491962,-0.49999999,-0.49999999)"
         clip-rule="evenodd"
         id="path7" />
    </clipPath>
    <clipPath
       clipPathUnits="userSpaceOnUse"
       id="clipPath8">
      <path
         d="M 0,0 H 1295.8333 V 698.67511 H 0 Z"
         transform="matrix(0.33491628,0,0,0.33491628,-26.515624,-95)"
         clip-rule="evenodd"
         id="path8" />
    </clipPath>
    <clipPath
       clipPathUnits="userSpaceOnUse"
       id="clipPath9">
      <path
         d="M 0,0 H 1295.8333 V 698.67511 H 0 Z"
         transform="matrix(0.33491628,0,0,0.33491628,-47.078124,-107)"
         clip-rule="evenodd"
         id="path9" />
    </clipPath>
    <clipPath
       clipPathUnits="userSpaceOnUse"
       id="clipPath11">
      <path
         d="M 0,0 H 1295.8333 V 698.67511 H 0 Z"
         transform="matrix(0.33491962,0,0,0.33491962,-0.49999999,-0.49999999)"
         clip-rule="evenodd"
         id="path11" />
    </clipPath>
    <clipPath
       clipPathUnits="userSpaceOnUse"
       id="clipPath12">
      <path
         d="M 0,0 H 1295.8333 V 698.67511 H 0 Z"
         transform="matrix(0.33491628,0,0,0.33491628,-8.171875,-55)"
         clip-rule="evenodd"
         id="path12" />
    </clipPath>
    <clipPath
       clipPathUnits="userSpaceOnUse"
       id="clipPath13">
      <path
         d="M 0,0 H 1295.8333 V 698.67511 H 0 Z"
         transform="matrix(0.33491628,0,0,0.33491628,-65.968749,-66.999999)"
         clip-rule="evenodd"
         id="path13" />
    </clipPath>
    <clipPath
       clipPathUnits="userSpaceOnUse"
       id="clipPath15">
      <path
         d="M 0,0 H 1295.8333 V 698.67511 H 0 Z"
         transform="matrix(0.33491962,0,0,0.33491962,-0.49999999,-0.49999999)"
         clip-rule="evenodd"
         id="path15" />
    </clipPath>
    <clipPath
       clipPathUnits="userSpaceOnUse"
       id="clipPath16">
      <path
         d="M 0,0 H 1295.8333 V 698.67511 H 0 Z"
         transform="matrix(0.33491628,0,0,0.33491628,-31.140625,-135)"
         clip-rule="evenodd"
         id="path16" />
    </clipPath>
    <clipPath
       clipPathUnits="userSpaceOnUse"
       id="clipPath17">
      <path
         d="M 0,0 H 1295.8333 V 698.67511 H 0 Z"
         transform="matrix(0.33491628,0,0,0.33491628,-15.671875,-146.99999)"
         clip-rule="evenodd"
         id="path17" />
    </clipPath>
    <clipPath
       clipPathUnits="userSpaceOnUse"
       id="clipPath19">
      <path
         d="M 0,0 H 1295.8333 V 698.67511 H 0 Z"
         transform="matrix(0.33491962,0,0,0.33491962,-0.49999999,-0.49999999)"
         clip-rule="evenodd"
         id="path19" />
    </clipPath>
    <clipPath
       clipPathUnits="userSpaceOnUse"
       id="clipPath20">
      <path
         d="M 0,0 H 1295.8333 V 698.67511 H 0 Z"
         transform="matrix(0.33491628,0,0,0.33491628,-27.90625,-181)"
         clip-rule="evenodd"
         id="path20" />
    </clipPath>
    <clipPath
       clipPathUnits="userSpaceOnUse"
       id="clipPath22">
      <path
         d="M 0,0 H 1295.8333 V 698.67511 H 0 Z"
         transform="matrix(0.33491962,0,0,0.33491962,-0.49999999,-0.49999999)"
         clip-rule="evenodd"
         id="path22" />
    </clipPath>
    <clipPath
       clipPathUnits="userSpaceOnUse"
       id="clipPath23">
      <path
         d="M 0,0 H 1295.8333 V 698.67511 H 0 Z"
         transform="matrix(0.33491628,0,0,0.33491628,-306.29688,-20)"
         clip-rule="evenodd"
         id="path23" />
    </clipPath>
    <clipPath
       clipPathUnits="userSpaceOnUse"
       id="clipPath25">
      <path
         d="M 0,0 H 1295.8333 V 698.67511 H 0 Z"
         transform="matrix(0.33491962,0,0,0.33491962,-0.49999999,-0.49999999)"
         clip-rule="evenodd"
         id="path25" />
    </clipPath>
    <clipPath
       clipPathUnits="userSpaceOnUse"
       id="clipPath26">
      <path
         d="M 0,0 H 1295.8333 V 698.67511 H 0 Z"
         transform="matrix(0.33491628,0,0,0.33491628,-256.51562,-95)"
         clip-rule="evenodd"
         id="path26" />
    </clipPath>
    <clipPath
       clipPathUnits="userSpaceOnUse"
       id="clipPath27">
      <path
         d="M 0,0 H 1295.8333 V 698.67511 H 0 Z"
         transform="matrix(0.33491628,0,0,0.33491628,-277.07812,-107)"
         clip-rule="evenodd"
         id="path27" />
    </clipPath>
    <clipPath
       clipPathUnits="userSpaceOnUse"
       id="clipPath29">
      <path
         d="M 0,0 H 1295.8333 V 698.67511 H 0 Z"
         transform="matrix(0.33491962,0,0,0.33491962,-0.49999999,-0.49999999)"
         clip-rule="evenodd"
         id="path29" />
    </clipPath>
    <clipPath
       clipPathUnits="userSpaceOnUse"
       id="clipPath30">
      <path
         d="M 0,0 H 1295.8333 V 698.67511 H 0 Z"
         transform="matrix(0.33491628,0,0,0.33491628,-238.17188,-55)"
         clip-rule="evenodd"
         id="path30" />
    </clipPath>
    <clipPath
       clipPathUnits="userSpaceOnUse"
       id="clipPath31">
      <path
         d="M 0,0 H 1295.8333 V 698.67511 H 0 Z"
         transform="matrix(0.33491628,0,0,0.33491628,-295.96875,-66.999999)"
         clip-rule="evenodd"
         id="path31" />
    </clipPath>
    <clipPath
       clipPathUnits="userSpaceOnUse"
       id="clipPath33">
      <path
         d="M 0,0 H 1295.8333 V 698.67511 H 0 Z"
         transform="matrix(0.33491962,0,0,0.33491962,-0.49999999,-0.49999999)"
         clip-rule="evenodd"
         id="path33" />
    </clipPath>
    <clipPath
       clipPathUnits="userSpaceOnUse"
       id="clipPath34">
      <path
         d="M 0,0 H 1295.8333 V 698.67511 H 0 Z"
         transform="matrix(0.33491628,0,0,0.33491628,-261.14063,-135)"
         clip-rule="evenodd"
         id="path34" />
    </clipPath>
    <clipPath
       clipPathUnits="userSpaceOnUse"
       id="clipPath35">
      <path
         d="M 0,0 H 1295.8333 V 698.67511 H 0 Z"
         transform="matrix(0.33491628,0,0,0.33491628,-245.67188,-146.99999)"
         clip-rule="evenodd"
         id="path35" />
    </clipPath>
    <clipPath
       clipPathUnits="userSpaceOnUse"
       id="clipPath37">
      <path
         d="M 0,0 H 1295.8333 V 698.67511 H 0 Z"
         transform="matrix(0.33491962,0,0,0.33491962,-0.49999999,-0.49999999)"
         clip-rule="evenodd"
         id="path37" />
    </clipPath>
    <clipPath
       clipPathUnits="userSpaceOnUse"
       id="clipPath38">
      <path
         d="M 0,0 H 1295.8333 V 698.67511 H 0 Z"
         transform="matrix(0.33491628,0,0,0.33491628,-257.90625,-181)"
         clip-rule="evenodd"
         id="path38" />
    </clipPath>
    <clipPath
       clipPathUnits="userSpaceOnUse"
       id="clipPath40">
      <path
         d="M 0,0 H 1295.8333 V 698.67511 H 0 Z"
         transform="matrix(0.33491962,0,0,0.33491962,-0.49999999,-0.49999999)"
         clip-rule="evenodd"
         id="path40" />
    </clipPath>
    <clipPath
       clipPathUnits="userSpaceOnUse"
       id="clipPath41">
      <path
         d="M 0,0 H 1295.8333 V 698.67511 H 0 Z"
         transform="matrix(0.33491628,0,0,0.33491628,-11.5,-215)"
         clip-rule="evenodd"
         id="path41" />
    </clipPath>
    <clipPath
       clipPathUnits="userSpaceOnUse"
       id="clipPath42">
      <path
         d="M 0,0 H 1295.8333 V 698.67511 H 0 Z"
         transform="matrix(0.33491628,0,0,0.33491628,-66.53125,-227)"
         clip-rule="evenodd"
         id="path42" />
    </clipPath>
  </defs>
  <sodipodi:namedview
     id="namedview1"
     pagecolor="#ffffff"
     bordercolor="#000000"
     borderopacity="0.25"
     inkscape:showpageshadow="2"
     inkscape:pageopacity="0.0"
     inkscape:pagecheckerboard="0"
     inkscape:deskcolor="#d1d1d1">
    <inkscape:page
       x="0"
       y="0"
       inkscape:label="1"
       id="page1"
       width="414.71997"
       height="225.27998"
       margin="0"
       bleed="0" />
  </sodipodi:namedview>
  <g
     id="g1"
     inkscape:groupmode="layer"
     inkscape:label="1">
    <path
       id="path1"
       d="M 0,0 H 434 V 235 H 0 Z"
       style="fill:#ffffff;fill-opacity:1;fill-rule:nonzero;stroke:none"
       transform="scale(0.95545308)"
       clip-path="url(#clipPath2)" />
    <path
       id="path3"
       d="M 1,1 H 201 V 31 H 1 Z"
       style="fill:#dae8fc;fill-opacity:1;fill-rule:nonzero;stroke:#6c8ebf;stroke-width:1;stroke-linecap:butt;stroke-linejoin:miter;stroke-miterlimit:10;stroke-dasharray:none;stroke-opacity:1"
       transform="matrix(0.95545308,0,0,0.95545308,0.47772653,0.47772653)"
       clip-path="url(#clipPath4)" />
    <text
       id="text4"
       xml:space="preserve"
       transform="matrix(0.95546262,0,0,0.95546262,61.77663,19.109252)"
       clip-path="url(#clipPath5)"><tspan
         style="font-variant:normal;font-weight:700;font-size:12px;font-family:Helvetica;writing-mode:lr-tb;fill:#000000;fill-opacity:1;fill-rule:nonzero;stroke:none"
         x="0 8.6660156 15.339844 22.669922 30 36.673828 40.007812 44.003906 51.333984 56.003906 59.337891 66.011719"
         y="0"
         sodipodi:role="line"
         id="tspan4">Repositories</tspan></text>
    <path
       id="path6"
       d="m 1,81 h 200 v 30 H 1 Z"
       style="fill:#f5f5f5;fill-opacity:1;fill-rule:nonzero;stroke:#666666;stroke-width:1;stroke-linecap:butt;stroke-linejoin:miter;stroke-miterlimit:10;stroke-dasharray:none;stroke-opacity:1"
       transform="matrix(0.95545308,0,0,0.95545308,0.47772653,0.47772653)"
       clip-path="url(#clipPath7)" />
    <g
       id="g7" />
    <text
       id="text7"
       xml:space="preserve"
       transform="matrix(0.95546262,0,0,0.95546262,25.334688,90.768949)"
       clip-path="url(#clipPath8)"><tspan
         style="font-variant:normal;font-weight:normal;font-size:10px;font-family:Helvetica;writing-mode:lr-tb;fill:#333333;fill-opacity:1;fill-rule:nonzero;stroke:none"
         x="0 7.2216797 12.783203 15.561523 18.339844 23.339844 25.561523 31.123047 36.68457 40.014648 42.236328 47.236328 50.014648 55.576172 61.137695 66.137695 71.699219 77.260742 82.822266 85.600586 88.930664 94.492188 97.822266 100.60059 106.16211 111.16211 116.72363 122.28516 125.06348 128.39355 133.95508 139.5166 141.73828 143.95996"
         y="0"
         sodipodi:role="line"
         id="tspan7">Not clearly deﬁned (or even really</tspan></text>
    <text
       id="text8"
       xml:space="preserve"
       transform="matrix(0.95546262,0,0,0.95546262,44.981388,102.2345)"
       clip-path="url(#clipPath9)"><tspan
         style="font-variant:normal;font-weight:normal;font-size:10px;font-family:Helvetica;writing-mode:lr-tb;fill:#333333;fill-opacity:1;fill-rule:nonzero;stroke:none"
         x="0 8.3300781 13.891602 19.453125 22.231445 24.453125 30.014648 35.576172 41.137695 46.699219 50.029297 52.807617 55.029297 60.59082 63.369141 70.59082 76.152344 81.152344 83.930664 86.708984 92.270508 97.832031 102.83203"
         y="0"
         sodipodi:role="line"
         id="tspan8">mentioned) in Nest docs</tspan></text>
    <path
       id="path10"
       d="M 1,41 H 201 V 71 H 1 Z"
       style="fill:#f5f5f5;fill-opacity:1;fill-rule:nonzero;stroke:#666666;stroke-width:1;stroke-linecap:butt;stroke-linejoin:miter;stroke-miterlimit:10;stroke-dasharray:none;stroke-opacity:1"
       transform="matrix(0.95545308,0,0,0.95545308,0.47772653,0.47772653)"
       clip-path="url(#clipPath11)" />
    <text
       id="text11"
       xml:space="preserve"
       transform="matrix(0.95546262,0,0,0.95546262,7.8079211,52.550444)"
       clip-path="url(#clipPath12)"><tspan
         style="font-variant:normal;font-weight:normal;font-size:10px;font-family:Helvetica;writing-mode:lr-tb;fill:#333333;fill-opacity:1;fill-rule:nonzero;stroke:none"
         x="0 7.2216797 9.4433594 15.004883 20.004883 25.004883 27.783203 30.561523 36.123047 41.68457 44.462891 47.241211 52.802734 58.364258 63.364258 66.142578 74.472656 80.03418 82.8125 88.374023 93.935547 99.49707 104.49707 107.27539 110.05371 115.61523 118.39355 123.95508 126.17676 129.50684 135.06836 140.06836 142.84668 145.06836 150.06836 152.84668 155.06836 160.62988 163.4082 168.96973 172.2998 177.86133 182.86133"
         y="0"
         sodipodi:role="line"
         id="tspan11">Class that has methods to directly interact</tspan></text>
    <text
       id="text12"
       xml:space="preserve"
       transform="matrix(0.95546262,0,0,0.95546262,63.030674,64.015995)"
       clip-path="url(#clipPath13)"><tspan
         style="font-variant:normal;font-weight:normal;font-size:10px;font-family:Helvetica;writing-mode:lr-tb;fill:#333333;fill-opacity:1;fill-rule:nonzero;stroke:none"
         x="0 7.2216797 9.4433594 12.22168 17.783203 20.561523 26.123047 28.901367 34.462891 40.024414 42.802734 48.364258 53.925781 59.487305 64.487305"
         y="0"
         sodipodi:role="line"
         id="tspan12">with a database</tspan></text>
    <path
       id="path14"
       d="m 1,121 h 200 v 30 H 1 Z"
       style="fill:#f5f5f5;fill-opacity:1;fill-rule:nonzero;stroke:#666666;stroke-width:1;stroke-linecap:butt;stroke-linejoin:miter;stroke-miterlimit:10;stroke-dasharray:none;stroke-opacity:1"
       transform="matrix(0.95545308,0,0,0.95545308,0.47772653,0.47772653)"
       clip-path="url(#clipPath15)" />
    <text
       id="text15"
       xml:space="preserve"
       transform="matrix(0.95546262,0,0,0.95546262,29.753703,128.98745)"
       clip-path="url(#clipPath16)"><tspan
         style="font-variant:normal;font-weight:normal;font-size:10px;font-family:Helvetica;writing-mode:lr-tb;fill:#333333;fill-opacity:1;fill-rule:nonzero;stroke:none"
         x="0 7.2216797 12.22168 17.783203 23.344727 25.566406 27.788086 32.788086 35.566406 41.12793 43.730469 49.291992 54.291992 59.853516 65.415039 70.976562 74.306641 82.636719 85.415039 88.745117 94.306641 99.868164 105.42969 110.42969 112.65137 115.42969 120.99121 124.32129 128.58398 131.3623 134.14062"
         y="0"
         sodipodi:role="line"
         id="tspan15">Usually a Typeorm repository, a</tspan></text>
    <text
       id="text16"
       xml:space="preserve"
       transform="matrix(0.95546262,0,0,0.95546262,14.973891,140.453)"
       clip-path="url(#clipPath17)"><tspan
         style="font-variant:normal;font-weight:normal;font-size:10px;font-family:Helvetica;writing-mode:lr-tb;fill:#333333;fill-opacity:1;fill-rule:nonzero;stroke:none"
         x="0 8.3300781 13.891602 19.453125 25.014648 30.576172 36.137695 41.137695 46.699219 49.477539 57.807617 63.369141 68.930664 74.492188 80.053711 82.832031 87.832031 93.393555 95.615234 97.836914 103.39844 108.39844 111.17676 113.39844 118.95996 124.52148 127.2998 130.07812 135.63965 138.96973 141.74805 146.74805 148.96973 157.2998 159.52148 161.74316 167.30469"
         y="0"
         sodipodi:role="line"
         id="tspan16">Mongoose/Mongo collection, or similar</tspan></text>
    <path
       id="path18"
       d="m 1,161 h 200 v 30 H 1 Z"
       style="fill:#f5f5f5;fill-opacity:1;fill-rule:nonzero;stroke:#666666;stroke-width:1;stroke-linecap:butt;stroke-linejoin:miter;stroke-miterlimit:10;stroke-dasharray:none;stroke-opacity:1"
       transform="matrix(0.95545308,0,0,0.95545308,0.47772653,0.47772653)"
       clip-path="url(#clipPath19)" />
    <text
       id="text19"
       xml:space="preserve"
       transform="matrix(0.95546262,0,0,0.95546262,26.663379,172.93873)"
       clip-path="url(#clipPath20)"><tspan
         style="font-variant:normal;font-weight:normal;font-size:10px;font-family:Helvetica;writing-mode:lr-tb;fill:#333333;fill-opacity:1;fill-rule:nonzero;stroke:none"
         x="0 6.6699219 9.4482422 15.009766 18.339844 23.901367 28.901367 31.679688 37.241211 42.241211 47.802734 52.802734 55.581055 57.802734 62.802734 65.581055 71.142578 76.704102 82.265625 85.043945 87.822266 92.822266 98.383789 103.94531 106.72363 112.28516 115.06348 117.8418 121.17188 126.7334 131.7334 137.29492 140.625"
         y="0"
         sodipodi:role="line"
         id="tspan19">Stores exactly one type of record</tspan></text>
    <path
       id="path21"
       d="M 231,1 H 431 V 31 H 231 Z"
       style="fill:#dae8fc;fill-opacity:1;fill-rule:nonzero;stroke:#6c8ebf;stroke-width:1;stroke-linecap:butt;stroke-linejoin:miter;stroke-miterlimit:10;stroke-dasharray:none;stroke-opacity:1"
       transform="matrix(0.95545308,0,0,0.95545308,0.47772653,0.47772653)"
       clip-path="url(#clipPath22)" />
    <text
       id="text22"
       xml:space="preserve"
       transform="matrix(0.95546262,0,0,0.95546262,292.65522,19.109252)"
       clip-path="url(#clipPath23)"><tspan
         style="font-variant:normal;font-weight:700;font-size:12px;font-family:Helvetica;writing-mode:lr-tb;fill:#000000;fill-opacity:1;fill-rule:nonzero;stroke:none"
         x="0 8.0039062 14.677734 19.347656 26.021484 29.355469 36.029297 42.703125"
         y="0"
         sodipodi:role="line"
         id="tspan22">Services</tspan></text>
    <path
       id="path24"
       d="m 231,81 h 200 v 30 H 231 Z"
       style="fill:#f5f5f5;fill-opacity:1;fill-rule:nonzero;stroke:#666666;stroke-width:1;stroke-linecap:butt;stroke-linejoin:miter;stroke-miterlimit:10;stroke-dasharray:none;stroke-opacity:1"
       transform="matrix(0.95545308,0,0,0.95545308,0.47772653,0.47772653)"
       clip-path="url(#clipPath25)" />
    <g
       id="g25" />
    <text
       id="text25"
       xml:space="preserve"
       transform="matrix(0.95546262,0,0,0.95546262,245.09109,90.768949)"
       clip-path="url(#clipPath26)"><tspan
         style="font-variant:normal;font-weight:normal;font-size:10px;font-family:Helvetica;writing-mode:lr-tb;fill:#333333;fill-opacity:1;fill-rule:nonzero;stroke:none"
         x="0 7.2216797 12.783203 15.561523 18.339844 23.339844 25.561523 31.123047 36.68457 40.014648 42.236328 47.236328 50.014648 55.576172 61.137695 66.137695 71.699219 77.260742 82.822266 85.600586 88.930664 94.492188 97.822266 100.60059 106.16211 111.16211 116.72363 122.28516 125.06348 128.39355 133.95508 139.5166 141.73828 143.95996"
         y="0"
         sodipodi:role="line"
         id="tspan25">Not clearly deﬁned (or even really</tspan></text>
    <text
       id="text26"
       xml:space="preserve"
       transform="matrix(0.95546262,0,0,0.95546262,264.73779,102.2345)"
       clip-path="url(#clipPath27)"><tspan
         style="font-variant:normal;font-weight:normal;font-size:10px;font-family:Helvetica;writing-mode:lr-tb;fill:#333333;fill-opacity:1;fill-rule:nonzero;stroke:none"
         x="0 8.3300781 13.891602 19.453125 22.231445 24.453125 30.014648 35.576172 41.137695 46.699219 50.029297 52.807617 55.029297 60.59082 63.369141 70.59082 76.152344 81.152344 83.930664 86.708984 92.270508 97.832031 102.83203"
         y="0"
         sodipodi:role="line"
         id="tspan26">mentioned) in Nest docs</tspan></text>
    <path
       id="path28"
       d="M 231,41 H 431 V 71 H 231 Z"
       style="fill:#f5f5f5;fill-opacity:1;fill-rule:nonzero;stroke:#666666;stroke-width:1;stroke-linecap:butt;stroke-linejoin:miter;stroke-miterlimit:10;stroke-dasharray:none;stroke-opacity:1"
       transform="matrix(0.95545308,0,0,0.95545308,0.47772653,0.47772653)"
       clip-path="url(#clipPath29)" />
    <text
       id="text29"
       xml:space="preserve"
       transform="matrix(0.95546262,0,0,0.95546262,227.56433,52.550444)"
       clip-path="url(#clipPath30)"><tspan
         style="font-variant:normal;font-weight:normal;font-size:10px;font-family:Helvetica;writing-mode:lr-tb;fill:#333333;fill-opacity:1;fill-rule:nonzero;stroke:none"
         x="0 7.2216797 9.4433594 15.004883 20.004883 25.004883 27.783203 30.561523 36.123047 41.68457 44.462891 47.241211 52.802734 58.364258 63.364258 66.142578 74.472656 80.03418 82.8125 88.374023 93.935547 99.49707 104.49707 107.27539 110.05371 115.61523 118.39355 123.95508 126.17676 129.50684 135.06836 140.06836 142.84668 145.06836 150.06836 152.84668 155.06836 160.62988 163.4082 168.96973 172.2998 177.86133 182.86133"
         y="0"
         sodipodi:role="line"
         id="tspan29">Class that has methods to directly interact</tspan></text>
    <text
       id="text30"
       xml:space="preserve"
       transform="matrix(0.95546262,0,0,0.95546262,282.78708,64.015995)"
       clip-path="url(#clipPath31)"><tspan
         style="font-variant:normal;font-weight:normal;font-size:10px;font-family:Helvetica;writing-mode:lr-tb;fill:#333333;fill-opacity:1;fill-rule:nonzero;stroke:none"
         x="0 7.2216797 9.4433594 12.22168 17.783203 20.561523 26.123047 28.901367 34.462891 40.024414 42.802734 48.364258 53.925781 59.487305 64.487305"
         y="0"
         sodipodi:role="line"
         id="tspan30">with a database</tspan></text>
    <path
       id="path32"
       d="m 231,121 h 200 v 30 H 231 Z"
       style="fill:#f5f5f5;fill-opacity:1;fill-rule:nonzero;stroke:#666666;stroke-width:1;stroke-linecap:butt;stroke-linejoin:miter;stroke-miterlimit:10;stroke-dasharray:none;stroke-opacity:1"
       transform="matrix(0.95545308,0,0,0.95545308,0.47772653,0.47772653)"
       clip-path="url(#clipPath33)" />
    <text
       id="text33"
       xml:space="preserve"
       transform="matrix(0.95546262,0,0,0.95546262,249.51011,128.98745)"
       clip-path="url(#clipPath34)"><tspan
         style="font-variant:normal;font-weight:normal;font-size:10px;font-family:Helvetica;writing-mode:lr-tb;fill:#333333;fill-opacity:1;fill-rule:nonzero;stroke:none"
         x="0 7.2216797 12.22168 17.783203 23.344727 25.566406 27.788086 32.788086 35.566406 41.12793 43.730469 49.291992 54.291992 59.853516 65.415039 70.976562 74.306641 82.636719 85.415039 88.745117 94.306641 99.868164 105.42969 110.42969 112.65137 115.42969 120.99121 124.32129 128.58398 131.3623 134.14062"
         y="0"
         sodipodi:role="line"
         id="tspan33">Usually a Typeorm repository, a</tspan></text>
    <text
       id="text34"
       xml:space="preserve"
       transform="matrix(0.95546262,0,0,0.95546262,234.7303,140.453)"
       clip-path="url(#clipPath35)"><tspan
         style="font-variant:normal;font-weight:normal;font-size:10px;font-family:Helvetica;writing-mode:lr-tb;fill:#333333;fill-opacity:1;fill-rule:nonzero;stroke:none"
         x="0 8.3300781 13.891602 19.453125 25.014648 30.576172 36.137695 41.137695 46.699219 49.477539 57.807617 63.369141 68.930664 74.492188 80.053711 82.832031 87.832031 93.393555 95.615234 97.836914 103.39844 108.39844 111.17676 113.39844 118.95996 124.52148 127.2998 130.07812 135.63965 138.96973 141.74805 146.74805 148.96973 157.2998 159.52148 161.74316 167.30469"
         y="0"
         sodipodi:role="line"
         id="tspan34">Mongoose/Mongo collection, or similar</tspan></text>
    <path
       id="path36"
       d="m 231,161 h 200 v 30 H 231 Z"
       style="fill:#f5f5f5;fill-opacity:1;fill-rule:nonzero;stroke:#666666;stroke-width:1;stroke-linecap:butt;stroke-linejoin:miter;stroke-miterlimit:10;stroke-dasharray:none;stroke-opacity:1"
       transform="matrix(0.95545308,0,0,0.95545308,0.47772653,0.47772653)"
       clip-path="url(#clipPath37)" />
    <text
       id="text37"
       xml:space="preserve"
       transform="matrix(0.95546262,0,0,0.95546262,246.41978,172.93873)"
       clip-path="url(#clipPath38)"><tspan
         style="font-variant:normal;font-weight:normal;font-size:10px;font-family:Helvetica;writing-mode:lr-tb;fill:#333333;fill-opacity:1;fill-rule:nonzero;stroke:none"
         x="0 6.6699219 9.4482422 15.009766 18.339844 23.901367 28.901367 31.679688 37.241211 42.241211 47.802734 52.802734 55.581055 57.802734 62.802734 65.581055 71.142578 76.704102 82.265625 85.043945 87.822266 92.822266 98.383789 103.94531 106.72363 112.28516 115.06348 117.8418 121.17188 126.7334 131.7334 137.29492 140.625"
         y="0"
         sodipodi:role="line"
         id="tspan37">Stores exactly one type of record</tspan></text>
    <path
       id="path39"
       d="m 1,201 h 200 v 30 H 1 Z"
       style="fill:#f5f5f5;fill-opacity:1;fill-rule:nonzero;stroke:#666666;stroke-width:1;stroke-linecap:butt;stroke-linejoin:miter;stroke-miterlimit:10;stroke-dasharray:none;stroke-opacity:1"
       transform="matrix(0.95545308,0,0,0.95545308,0.47772653,0.47772653)"
       clip-path="url(#clipPath40)" />
    <text
       id="text40"
       xml:space="preserve"
       transform="matrix(0.95546262,0,0,0.95546262,10.98782,205.42446)"
       clip-path="url(#clipPath41)"><tspan
         style="font-variant:normal;font-weight:normal;font-size:10px;font-family:Helvetica;writing-mode:lr-tb;fill:#333333;fill-opacity:1;fill-rule:nonzero;stroke:none"
         x="0 7.2216797 12.783203 18.344727 21.123047 26.68457 32.246094 37.246094 42.807617 45.585938 53.916016 59.477539 62.255859 67.817383 73.378906 78.94043 83.94043 86.71875 89.49707 95.058594 97.836914 106.16699 111.72852 117.29004 119.51172 122.29004 127.29004 130.06836 135.62988 141.19141 143.96973 149.53125 152.30957 154.53125 160.09277 162.87109 168.43262 173.99414"
         y="0"
         sodipodi:role="line"
         id="tspan40">Can have methods to modify data in any</tspan></text>
    <text
       id="text41"
       xml:space="preserve"
       transform="matrix(0.95546262,0,0,0.95546262,63.568122,216.89001)"
       clip-path="url(#clipPath42)"><tspan
         style="font-variant:normal;font-weight:normal;font-size:10px;font-family:Helvetica;writing-mode:lr-tb;fill:#333333;fill-opacity:1;fill-rule:nonzero;stroke:none"
         x="0 7.2216797 12.783203 17.783203 20.561523 22.783203 31.113281 36.674805 42.236328 44.458008 50.019531 55.581055 61.142578 63.364258"
         y="0"
         sodipodi:role="line"
         id="tspan41">way imaginable</tspan></text>
  </g>
</svg>
