<?xml version="1.0" encoding="UTF-8" standalone="no"?>
<!-- Created with Inkscape (http://www.inkscape.org/) -->

<svg
   version="1.1"
   id="svg1"
   width="433.28"
   height="110.72"
   viewBox="0 0 433.28 110.72"
   sodipodi:docname="nest-15.pdf"
   xmlns:inkscape="http://www.inkscape.org/namespaces/inkscape"
   xmlns:sodipodi="http://sodipodi.sourceforge.net/DTD/sodipodi-0.dtd"
   xmlns="http://www.w3.org/2000/svg"
   xmlns:svg="http://www.w3.org/2000/svg">
  <defs
     id="defs1">
    <clipPath
       clipPathUnits="userSpaceOnUse"
       id="clipPath2">
      <path
         d="M 0,0 H 1354.1668 V 344.53357 H 0 Z"
         transform="scale(0.33378461)"
         clip-rule="evenodd"
         id="path2" />
    </clipPath>
    <clipPath
       clipPathUnits="userSpaceOnUse"
       id="clipPath4">
      <path
         d="M 0,0 H 1354.1668 V 341.53763 H 0 Z"
         transform="matrix(0.33378461,0,0,0.33378461,-0.5,-0.5)"
         clip-rule="evenodd"
         id="path4" />
    </clipPath>
    <clipPath
       clipPathUnits="userSpaceOnUse"
       id="clipPath5">
      <path
         d="M 0,0 H 1354.1668 V 341.53763 H 0 Z"
         transform="matrix(0.33378126,0,0,0.33378126,-170.40625,-53.000001)"
         clip-rule="evenodd"
         id="path5" />
    </clipPath>
    <clipPath
       clipPathUnits="userSpaceOnUse"
       id="clipPath6">
      <path
         d="M 0,0 H 1354.1668 V 341.53763 H 0 Z"
         transform="matrix(0.33378126,0,0,0.33378126,-168.32813,-71)"
         clip-rule="evenodd"
         id="path6" />
    </clipPath>
    <clipPath
       clipPathUnits="userSpaceOnUse"
       id="clipPath8">
      <path
         d="M 0,0 H 1354.1668 V 341.53763 H 0 Z"
         transform="matrix(0.33378461,0,0,0.33378461,-0.5,-0.5)"
         clip-rule="evenodd"
         id="path8" />
    </clipPath>
    <clipPath
       clipPathUnits="userSpaceOnUse"
       id="clipPath9">
      <path
         d="M 0,0 H 1354.1668 V 341.53763 H 0 Z"
         transform="matrix(0.33378126,0,0,0.33378126,-116.64063,-60)"
         clip-rule="evenodd"
         id="path9" />
    </clipPath>
    <clipPath
       clipPathUnits="userSpaceOnUse"
       id="clipPath11">
      <path
         d="M 0,0 H 1354.1668 V 341.53763 H 0 Z"
         transform="matrix(0.33378461,0,0,0.33378461,-0.5,-0.5)"
         clip-rule="evenodd"
         id="path11" />
    </clipPath>
    <clipPath
       clipPathUnits="userSpaceOnUse"
       id="clipPath13">
      <path
         d="M 0,0 H 1354.1668 V 341.53763 H 0 Z"
         transform="matrix(0.33378461,0,0,0.33378461,-0.5,-0.5)"
         clip-rule="evenodd"
         id="path13" />
    </clipPath>
    <clipPath
       clipPathUnits="userSpaceOnUse"
       id="clipPath15">
      <path
         d="M 0,0 H 1354.1668 V 341.53763 H 0 Z"
         transform="matrix(0.33378461,0,0,0.33378461,-0.5,-0.5)"
         clip-rule="evenodd"
         id="path15" />
    </clipPath>
    <clipPath
       clipPathUnits="userSpaceOnUse"
       id="clipPath16">
      <path
         d="M 0,0 H 1354.1668 V 341.53763 H 0 Z"
         transform="matrix(0.33378126,0,0,0.33378126,-251.98438,-60)"
         clip-rule="evenodd"
         id="path16" />
    </clipPath>
    <clipPath
       clipPathUnits="userSpaceOnUse"
       id="clipPath18">
      <path
         d="M 0,0 H 1354.1668 V 341.53763 H 0 Z"
         transform="matrix(0.33378461,0,0,0.33378461,-0.5,-0.5)"
         clip-rule="evenodd"
         id="path18" />
    </clipPath>
    <clipPath
       clipPathUnits="userSpaceOnUse"
       id="clipPath20">
      <path
         d="M 0,0 H 1354.1668 V 341.53763 H 0 Z"
         transform="matrix(0.33378461,0,0,0.33378461,-0.5,-0.5)"
         clip-rule="evenodd"
         id="path20" />
    </clipPath>
    <clipPath
       clipPathUnits="userSpaceOnUse"
       id="clipPath21">
      <path
         d="M 0,0 H 1354.1668 V 341.53763 H 0 Z"
         transform="matrix(0.33378126,0,0,0.33378126,-2.0625,-60)"
         clip-rule="evenodd"
         id="path21" />
    </clipPath>
    <clipPath
       clipPathUnits="userSpaceOnUse"
       id="clipPath22">
      <path
         d="M 0,0 H 1354.1668 V 341.53763 H 0 Z"
         transform="matrix(0.33378126,0,0,0.33378126,-325.67188,-60)"
         clip-rule="evenodd"
         id="path22" />
    </clipPath>
  </defs>
  <sodipodi:namedview
     id="namedview1"
     pagecolor="#ffffff"
     bordercolor="#000000"
     borderopacity="0.25"
     inkscape:showpageshadow="2"
     inkscape:pageopacity="0.0"
     inkscape:pagecheckerboard="0"
     inkscape:deskcolor="#d1d1d1">
    <inkscape:page
       x="0"
       y="0"
       inkscape:label="1"
       id="page1"
       width="433.28"
       height="110.72"
       margin="0"
       bleed="0" />
  </sodipodi:namedview>
  <g
     id="g1"
     inkscape:groupmode="layer"
     inkscape:label="1">
    <path
       id="path1"
       d="M 0,0 H 452 V 115 H 0 Z"
       style="fill:#ffffff;fill-opacity:1;fill-rule:nonzero;stroke:none"
       transform="scale(0.95870204)"
       clip-path="url(#clipPath2)" />
    <path
       id="path3"
       d="M 150,1 H 250 V 111 H 150 Z"
       style="fill:#dae8fc;fill-opacity:1;fill-rule:nonzero;stroke:#6c8ebf;stroke-width:1;stroke-linecap:butt;stroke-linejoin:miter;stroke-miterlimit:10;stroke-dasharray:none;stroke-opacity:1"
       transform="matrix(0.95870204,0,0,0.95870204,0.47935102,0.47935102)"
       clip-path="url(#clipPath4)" />
    <text
       id="text4"
       xml:space="preserve"
       transform="matrix(0.95871167,0,0,0.95871167,163.37046,50.811719)"
       clip-path="url(#clipPath5)"><tspan
         style="font-variant:normal;font-weight:700;font-size:15px;font-family:Helvetica;writing-mode:lr-tb;fill:#000000;fill-opacity:1;fill-rule:nonzero;stroke:none"
         x="0 10.83252 19.174805 27.51709 36.679688 40.847168 50.009766"
         y="0"
         sodipodi:role="line"
         id="tspan4">Hashing</tspan></text>
    <text
       id="text5"
       xml:space="preserve"
       transform="matrix(0.95871167,0,0,0.95871167,161.37814,68.068529)"
       clip-path="url(#clipPath6)"><tspan
         style="font-variant:normal;font-weight:700;font-size:15px;font-family:Helvetica;writing-mode:lr-tb;fill:#000000;fill-opacity:1;fill-rule:nonzero;stroke:none"
         x="0 9.1625977 18.325195 27.487793 35.830078 40.825195 44.992676 54.155273"
         y="0"
         sodipodi:role="line"
         id="tspan5">Function</tspan></text>
    <path
       id="path7"
       d="m 110,31 h 40 v 50 h -40 z"
       style="fill:#f5f5f5;fill-opacity:1;fill-rule:nonzero;stroke:#666666;stroke-width:1;stroke-linecap:butt;stroke-linejoin:miter;stroke-miterlimit:10;stroke-dasharray:none;stroke-opacity:1"
       transform="matrix(0.95870204,0,0,0.95870204,0.47935102,0.47935102)"
       clip-path="url(#clipPath8)" />
    <text
       id="text8"
       xml:space="preserve"
       transform="matrix(0.95871167,0,0,0.95871167,111.82473,57.5227)"
       clip-path="url(#clipPath9)"><tspan
         style="font-style:oblique;font-variant:normal;font-weight:normal;font-size:12px;font-family:Helvetica;writing-mode:lr-tb;fill:#333333;fill-opacity:1;fill-rule:nonzero;stroke:none"
         x="0 3.3339844 10.007812 16.681641 23.355469"
         y="0"
         sodipodi:role="line"
         id="tspan8">Input</tspan></text>
    <path
       id="path10"
       d="m 290,56 h 20 -10 13.64001"
       style="fill:none;stroke:#000000;stroke-width:1;stroke-linecap:butt;stroke-linejoin:miter;stroke-miterlimit:10;stroke-dasharray:none;stroke-opacity:1"
       transform="matrix(0.95870204,0,0,0.95870204,0.47935102,0.47935102)"
       clip-path="url(#clipPath11)" />
    <path
       id="path12"
       d="m 318.89001,56 -7,3.5 1.75,-3.5 -1.75,-3.5 z"
       style="fill:#000000;fill-opacity:1;fill-rule:nonzero;stroke:#000000;stroke-width:1;stroke-linecap:butt;stroke-linejoin:miter;stroke-miterlimit:10;stroke-dasharray:none;stroke-opacity:1"
       transform="matrix(0.95870204,0,0,0.95870204,0.47935102,0.47935102)"
       clip-path="url(#clipPath13)" />
    <path
       id="path14"
       d="m 250,31 h 40 v 50 h -40 z"
       style="fill:#f5f5f5;fill-opacity:1;fill-rule:nonzero;stroke:#666666;stroke-width:1;stroke-linecap:butt;stroke-linejoin:miter;stroke-miterlimit:10;stroke-dasharray:none;stroke-opacity:1"
       transform="matrix(0.95870204,0,0,0.95870204,0.47935102,0.47935102)"
       clip-path="url(#clipPath15)" />
    <text
       id="text15"
       xml:space="preserve"
       transform="matrix(0.95871167,0,0,0.95871167,241.58037,57.5227)"
       clip-path="url(#clipPath16)"><tspan
         style="font-style:oblique;font-variant:normal;font-weight:normal;font-size:12px;font-family:Helvetica;writing-mode:lr-tb;fill:#333333;fill-opacity:1;fill-rule:nonzero;stroke:none"
         x="0 9.3339844 16.007812 19.341797 26.015625 32.689453"
         y="0"
         sodipodi:role="line"
         id="tspan15">Output</tspan></text>
    <path
       id="path17"
       d="m 80,56 h 20 -10 13.63"
       style="fill:none;stroke:#000000;stroke-width:1;stroke-linecap:butt;stroke-linejoin:miter;stroke-miterlimit:10;stroke-dasharray:none;stroke-opacity:1"
       transform="matrix(0.95870204,0,0,0.95870204,0.47935102,0.47935102)"
       clip-path="url(#clipPath18)" />
    <path
       id="path19"
       d="m 108.88,56 -7,3.5 1.75,-3.5 -1.75,-3.5 z"
       style="fill:#000000;fill-opacity:1;fill-rule:nonzero;stroke:#000000;stroke-width:1;stroke-linecap:butt;stroke-linejoin:miter;stroke-miterlimit:10;stroke-dasharray:none;stroke-opacity:1"
       transform="matrix(0.95870204,0,0,0.95870204,0.47935102,0.47935102)"
       clip-path="url(#clipPath20)" />
    <text
       id="text20"
       xml:space="preserve"
       transform="matrix(0.95871167,0,0,0.95871167,1.9773428,57.5227)"
       clip-path="url(#clipPath21)"><tspan
         style="font-variant:normal;font-weight:normal;font-size:12px;font-family:Helvetica;writing-mode:lr-tb;fill:#000000;fill-opacity:1;fill-rule:nonzero;stroke:none"
         x="0 4.2597656 14.255859 20.255859 26.929688 33.603516 39.603516 45.603516 54.269531 60.943359 64.939453 71.613281"
         y="0"
         sodipodi:role="line"
         id="tspan20">&quot;mypassword&quot;</tspan></text>
    <text
       id="text21"
       xml:space="preserve"
       transform="matrix(0.95871167,0,0,0.95871167,312.22543,57.5227)"
       clip-path="url(#clipPath22)"><tspan
         style="font-variant:normal;font-weight:normal;font-size:12px;font-family:Helvetica;writing-mode:lr-tb;fill:#000000;fill-opacity:1;fill-rule:nonzero;stroke:none"
         x="0 4.2597656 10.933594 17.607422 24.28125 30.955078 37.628906 44.302734 50.976562 57.650391 60.984375 67.658203 74.332031 81.005859 87.679688 94.353516 101.02734 107.70117 114.375"
         y="0"
         sodipodi:role="line"
         id="tspan21">&quot;477d20a7f924a59d8&quot;</tspan></text>
  </g>
</svg>
