<?xml version="1.0" encoding="UTF-8" standalone="no"?>
<!-- Created with Inkscape (http://www.inkscape.org/) -->

<svg
   version="1.1"
   id="svg1"
   width="425.28"
   height="465.28"
   viewBox="0 0 425.28 465.28"
   sodipodi:docname="nest-10.pdf"
   xmlns:inkscape="http://www.inkscape.org/namespaces/inkscape"
   xmlns:sodipodi="http://sodipodi.sourceforge.net/DTD/sodipodi-0.dtd"
   xmlns="http://www.w3.org/2000/svg"
   xmlns:svg="http://www.w3.org/2000/svg">
  <defs
     id="defs1">
    <clipPath
       clipPathUnits="userSpaceOnUse"
       id="clipPath2">
      <path
         d="M 0,0 H 1329.1666 V 1451.9049 H 0 Z"
         transform="scale(0.3340439)"
         clip-rule="evenodd"
         id="path2" />
    </clipPath>
    <clipPath
       clipPathUnits="userSpaceOnUse"
       id="clipPath4">
      <path
         d="M 0,0 H 1329.1666 V 1448.9114 H 0 Z"
         transform="matrix(0.3340439,0,0,0.3340439,-0.5,-0.5)"
         clip-rule="evenodd"
         id="path4" />
    </clipPath>
    <clipPath
       clipPathUnits="userSpaceOnUse"
       id="clipPath5">
      <path
         d="M 0,0 H 1329.1666 V 1448.9114 H 0 Z"
         transform="matrix(0.33404055,0,0,0.33404055,-286.45313,-23)"
         clip-rule="evenodd"
         id="path5" />
    </clipPath>
    <clipPath
       clipPathUnits="userSpaceOnUse"
       id="clipPath7">
      <path
         d="M 0,0 H 1329.1666 V 1448.9114 H 0 Z"
         transform="matrix(0.3340439,0,0,0.3340439,-0.5,-0.5)"
         clip-rule="evenodd"
         id="path7" />
    </clipPath>
    <clipPath
       clipPathUnits="userSpaceOnUse"
       id="clipPath8">
      <path
         d="M 0,0 H 1329.1666 V 1448.9114 H 0 Z"
         transform="matrix(0.33404055,0,0,0.33404055,-320.15625,-52)"
         clip-rule="evenodd"
         id="path8" />
    </clipPath>
    <clipPath
       clipPathUnits="userSpaceOnUse"
       id="clipPath10">
      <path
         d="M 0,0 H 1329.1666 V 1448.9114 H 0 Z"
         transform="matrix(0.3340439,0,0,0.3340439,-0.5,-0.5)"
         clip-rule="evenodd"
         id="path10" />
    </clipPath>
    <clipPath
       clipPathUnits="userSpaceOnUse"
       id="clipPath11">
      <path
         d="M 0,0 H 1329.1666 V 1448.9114 H 0 Z"
         transform="matrix(0.33404055,0,0,0.33404055,-314.73438,-82)"
         clip-rule="evenodd"
         id="path11" />
    </clipPath>
    <clipPath
       clipPathUnits="userSpaceOnUse"
       id="clipPath13">
      <path
         d="M 0,0 H 1329.1666 V 1448.9114 H 0 Z"
         transform="matrix(0.3340439,0,0,0.3340439,-0.5,-0.5)"
         clip-rule="evenodd"
         id="path13" />
    </clipPath>
    <clipPath
       clipPathUnits="userSpaceOnUse"
       id="clipPath14">
      <path
         d="M 0,0 H 1329.1666 V 1448.9114 H 0 Z"
         transform="matrix(0.33404055,0,0,0.33404055,-328.90625,-112)"
         clip-rule="evenodd"
         id="path14" />
    </clipPath>
    <clipPath
       clipPathUnits="userSpaceOnUse"
       id="clipPath16">
      <path
         d="M 0,0 H 1329.1666 V 1448.9114 H 0 Z"
         transform="matrix(0.3340439,0,0,0.3340439,-0.5,-0.5)"
         clip-rule="evenodd"
         id="path16" />
    </clipPath>
    <clipPath
       clipPathUnits="userSpaceOnUse"
       id="clipPath17">
      <path
         d="M 0,0 H 1329.1666 V 1448.9114 H 0 Z"
         transform="matrix(0.33404055,0,0,0.33404055,-318.0625,-142)"
         clip-rule="evenodd"
         id="path17" />
    </clipPath>
    <clipPath
       clipPathUnits="userSpaceOnUse"
       id="clipPath19">
      <path
         d="M 0,0 H 1329.1666 V 1448.9114 H 0 Z"
         transform="matrix(0.3340439,0,0,0.3340439,-0.5,-0.5)"
         clip-rule="evenodd"
         id="path19" />
    </clipPath>
    <clipPath
       clipPathUnits="userSpaceOnUse"
       id="clipPath20">
      <path
         d="M 0,0 H 1329.1666 V 1448.9114 H 0 Z"
         transform="matrix(0.33404055,0,0,0.33404055,-315.98438,-172)"
         clip-rule="evenodd"
         id="path20" />
    </clipPath>
    <clipPath
       clipPathUnits="userSpaceOnUse"
       id="clipPath22">
      <path
         d="M 0,0 H 1329.1666 V 1448.9114 H 0 Z"
         transform="matrix(0.3340439,0,0,0.3340439,-0.5,-0.5)"
         clip-rule="evenodd"
         id="path22" />
    </clipPath>
    <clipPath
       clipPathUnits="userSpaceOnUse"
       id="clipPath23">
      <path
         d="M 0,0 H 1329.1666 V 1448.9114 H 0 Z"
         transform="matrix(0.33404055,0,0,0.33404055,-318.89063,-202)"
         clip-rule="evenodd"
         id="path23" />
    </clipPath>
    <clipPath
       clipPathUnits="userSpaceOnUse"
       id="clipPath25">
      <path
         d="M 0,0 H 1329.1666 V 1448.9114 H 0 Z"
         transform="matrix(0.3340439,0,0,0.3340439,-0.5,-0.5)"
         clip-rule="evenodd"
         id="path25" />
    </clipPath>
    <clipPath
       clipPathUnits="userSpaceOnUse"
       id="clipPath26">
      <path
         d="M 0,0 H 1329.1666 V 1448.9114 H 0 Z"
         transform="matrix(0.33404055,0,0,0.33404055,-321.40625,-232)"
         clip-rule="evenodd"
         id="path26" />
    </clipPath>
    <clipPath
       clipPathUnits="userSpaceOnUse"
       id="clipPath27">
      <path
         d="M 0,0 H 1329.1666 V 1448.9114 H 0 Z"
         transform="matrix(0.33404055,0,0,0.33404055,-127.28125,-208)"
         clip-rule="evenodd"
         id="path27" />
    </clipPath>
    <clipPath
       clipPathUnits="userSpaceOnUse"
       id="clipPath28">
      <path
         d="M 0,0 H 1329.1666 V 1448.9114 H 0 Z"
         transform="matrix(0.33404055,0,0,0.33404055,-144.76562,-226)"
         clip-rule="evenodd"
         id="path28" />
    </clipPath>
    <clipPath
       clipPathUnits="userSpaceOnUse"
       id="clipPath30">
      <path
         d="M 0,0 H 1329.1666 V 1448.9114 H 0 Z"
         transform="matrix(0.3340439,0,0,0.3340439,-0.5,-0.5)"
         clip-rule="evenodd"
         id="path30" />
    </clipPath>
    <clipPath
       clipPathUnits="userSpaceOnUse"
       id="clipPath32">
      <path
         d="M 0,0 H 1329.1666 V 1448.9114 H 0 Z"
         transform="matrix(0.3340439,0,0,0.3340439,-0.5,-0.5)"
         clip-rule="evenodd"
         id="path32" />
    </clipPath>
    <clipPath
       clipPathUnits="userSpaceOnUse"
       id="clipPath33">
      <path
         d="M 0,0 H 1329.1666 V 1448.9114 H 0 Z"
         transform="matrix(0.33404055,0,0,0.33404055,-10.578125,-27)"
         clip-rule="evenodd"
         id="path33" />
    </clipPath>
    <clipPath
       clipPathUnits="userSpaceOnUse"
       id="clipPath34">
      <path
         d="M 0,0 H 1329.1666 V 1448.9114 H 0 Z"
         transform="matrix(0.33404055,0,0,0.33404055,-35.4375,-45)"
         clip-rule="evenodd"
         id="path34" />
    </clipPath>
    <clipPath
       clipPathUnits="userSpaceOnUse"
       id="clipPath35">
      <path
         d="M 0,0 H 1329.1666 V 1448.9114 H 0 Z"
         transform="matrix(0.33404055,0,0,0.33404055,-26.796875,-63)"
         clip-rule="evenodd"
         id="path35" />
    </clipPath>
    <clipPath
       clipPathUnits="userSpaceOnUse"
       id="clipPath36">
      <path
         d="M 0,0 H 1329.1666 V 1448.9114 H 0 Z"
         transform="matrix(0.33404055,0,0,0.33404055,-16.265625,-81)"
         clip-rule="evenodd"
         id="path36" />
    </clipPath>
    <clipPath
       clipPathUnits="userSpaceOnUse"
       id="clipPath37">
      <path
         d="M 0,0 H 1329.1666 V 1448.9114 H 0 Z"
         transform="matrix(0.33404055,0,0,0.33404055,-53.46875,-99.000001)"
         clip-rule="evenodd"
         id="path37" />
    </clipPath>
    <clipPath
       clipPathUnits="userSpaceOnUse"
       id="clipPath38">
      <path
         d="M 0,0 H 1329.1666 V 1448.9114 H 0 Z"
         transform="matrix(0.33404055,0,0,0.33404055,-15.859376,-117.00001)"
         clip-rule="evenodd"
         id="path38" />
    </clipPath>
    <clipPath
       clipPathUnits="userSpaceOnUse"
       id="clipPath40">
      <path
         d="M 0,0 H 1329.1666 V 1448.9114 H 0 Z"
         transform="matrix(0.3340439,0,0,0.3340439,-0.5,-0.5)"
         clip-rule="evenodd"
         id="path40" />
    </clipPath>
    <clipPath
       clipPathUnits="userSpaceOnUse"
       id="clipPath41">
      <path
         d="M 0,0 H 1329.1666 V 1448.9114 H 0 Z"
         transform="matrix(0.33404055,0,0,0.33404055,-290.5625,-262)"
         clip-rule="evenodd"
         id="path41" />
    </clipPath>
    <clipPath
       clipPathUnits="userSpaceOnUse"
       id="clipPath43">
      <path
         d="M 0,0 H 1329.1666 V 1448.9114 H 0 Z"
         transform="matrix(0.3340439,0,0,0.3340439,-0.5,-0.5)"
         clip-rule="evenodd"
         id="path43" />
    </clipPath>
    <clipPath
       clipPathUnits="userSpaceOnUse"
       id="clipPath44">
      <path
         d="M 0,0 H 1329.1666 V 1448.9114 H 0 Z"
         transform="matrix(0.33404055,0,0,0.33404055,-290.14063,-292)"
         clip-rule="evenodd"
         id="path44" />
    </clipPath>
    <clipPath
       clipPathUnits="userSpaceOnUse"
       id="clipPath45">
      <path
         d="M 0,0 H 1329.1666 V 1448.9114 H 0 Z"
         transform="matrix(0.33404055,0,0,0.33404055,-98.9375,-268)"
         clip-rule="evenodd"
         id="path45" />
    </clipPath>
    <clipPath
       clipPathUnits="userSpaceOnUse"
       id="clipPath46">
      <path
         d="M 0,0 H 1329.1666 V 1448.9114 H 0 Z"
         transform="matrix(0.33404055,0,0,0.33404055,-123.10938,-286)"
         clip-rule="evenodd"
         id="path46" />
    </clipPath>
    <clipPath
       clipPathUnits="userSpaceOnUse"
       id="clipPath48">
      <path
         d="M 0,0 H 1329.1666 V 1448.9114 H 0 Z"
         transform="matrix(0.3340439,0,0,0.3340439,-0.5,-0.5)"
         clip-rule="evenodd"
         id="path48" />
    </clipPath>
    <clipPath
       clipPathUnits="userSpaceOnUse"
       id="clipPath50">
      <path
         d="M 0,0 H 1329.1666 V 1448.9114 H 0 Z"
         transform="matrix(0.3340439,0,0,0.3340439,-0.5,-0.5)"
         clip-rule="evenodd"
         id="path50" />
    </clipPath>
    <clipPath
       clipPathUnits="userSpaceOnUse"
       id="clipPath51">
      <path
         d="M 0,0 H 1329.1666 V 1448.9114 H 0 Z"
         transform="matrix(0.33404055,0,0,0.33404055,-291.39063,-322)"
         clip-rule="evenodd"
         id="path51" />
    </clipPath>
    <clipPath
       clipPathUnits="userSpaceOnUse"
       id="clipPath53">
      <path
         d="M 0,0 H 1329.1666 V 1448.9114 H 0 Z"
         transform="matrix(0.3340439,0,0,0.3340439,-0.5,-0.5)"
         clip-rule="evenodd"
         id="path53" />
    </clipPath>
    <clipPath
       clipPathUnits="userSpaceOnUse"
       id="clipPath54">
      <path
         d="M 0,0 H 1329.1666 V 1448.9114 H 0 Z"
         transform="matrix(0.33404055,0,0,0.33404055,-106.4375,-313)"
         clip-rule="evenodd"
         id="path54" />
    </clipPath>
    <clipPath
       clipPathUnits="userSpaceOnUse"
       id="clipPath55">
      <path
         d="M 0,0 H 1329.1666 V 1448.9114 H 0 Z"
         transform="matrix(0.33404055,0,0,0.33404055,-100.60937,-331)"
         clip-rule="evenodd"
         id="path55" />
    </clipPath>
    <clipPath
       clipPathUnits="userSpaceOnUse"
       id="clipPath57">
      <path
         d="M 0,0 H 1329.1666 V 1448.9114 H 0 Z"
         transform="matrix(0.3340439,0,0,0.3340439,-0.5,-0.5)"
         clip-rule="evenodd"
         id="path57" />
    </clipPath>
    <clipPath
       clipPathUnits="userSpaceOnUse"
       id="clipPath58">
      <path
         d="M 0,0 H 1329.1666 V 1448.9114 H 0 Z"
         transform="matrix(0.33404055,0,0,0.33404055,-318.89063,-352)"
         clip-rule="evenodd"
         id="path58" />
    </clipPath>
    <clipPath
       clipPathUnits="userSpaceOnUse"
       id="clipPath60">
      <path
         d="M 0,0 H 1329.1666 V 1448.9114 H 0 Z"
         transform="matrix(0.3340439,0,0,0.3340439,-0.5,-0.5)"
         clip-rule="evenodd"
         id="path60" />
    </clipPath>
    <clipPath
       clipPathUnits="userSpaceOnUse"
       id="clipPath61">
      <path
         d="M 0,0 H 1329.1666 V 1448.9114 H 0 Z"
         transform="matrix(0.33404055,0,0,0.33404055,-321.40625,-382)"
         clip-rule="evenodd"
         id="path61" />
    </clipPath>
    <clipPath
       clipPathUnits="userSpaceOnUse"
       id="clipPath63">
      <path
         d="M 0,0 H 1329.1666 V 1448.9114 H 0 Z"
         transform="matrix(0.3340439,0,0,0.3340439,-0.5,-0.5)"
         clip-rule="evenodd"
         id="path63" />
    </clipPath>
    <clipPath
       clipPathUnits="userSpaceOnUse"
       id="clipPath64">
      <path
         d="M 0,0 H 1329.1666 V 1448.9114 H 0 Z"
         transform="matrix(0.33404055,0,0,0.33404055,-290.5625,-412)"
         clip-rule="evenodd"
         id="path64" />
    </clipPath>
    <clipPath
       clipPathUnits="userSpaceOnUse"
       id="clipPath66">
      <path
         d="M 0,0 H 1329.1666 V 1448.9114 H 0 Z"
         transform="matrix(0.3340439,0,0,0.3340439,-0.5,-0.5)"
         clip-rule="evenodd"
         id="path66" />
    </clipPath>
    <clipPath
       clipPathUnits="userSpaceOnUse"
       id="clipPath67">
      <path
         d="M 0,0 H 1329.1666 V 1448.9114 H 0 Z"
         transform="matrix(0.33404055,0,0,0.33404055,-290.14063,-442)"
         clip-rule="evenodd"
         id="path67" />
    </clipPath>
    <clipPath
       clipPathUnits="userSpaceOnUse"
       id="clipPath69">
      <path
         d="M 0,0 H 1329.1666 V 1448.9114 H 0 Z"
         transform="matrix(0.3340439,0,0,0.3340439,-0.5,-0.5)"
         clip-rule="evenodd"
         id="path69" />
    </clipPath>
    <clipPath
       clipPathUnits="userSpaceOnUse"
       id="clipPath70">
      <path
         d="M 0,0 H 1329.1666 V 1448.9114 H 0 Z"
         transform="matrix(0.33404055,0,0,0.33404055,-291.39063,-472)"
         clip-rule="evenodd"
         id="path70" />
    </clipPath>
  </defs>
  <sodipodi:namedview
     id="namedview1"
     pagecolor="#ffffff"
     bordercolor="#000000"
     borderopacity="0.25"
     inkscape:showpageshadow="2"
     inkscape:pageopacity="0.0"
     inkscape:pagecheckerboard="0"
     inkscape:deskcolor="#d1d1d1">
    <inkscape:page
       x="0"
       y="0"
       inkscape:label="1"
       id="page1"
       width="425.28"
       height="465.28"
       margin="0"
       bleed="0" />
  </sodipodi:namedview>
  <g
     id="g1"
     inkscape:groupmode="layer"
     inkscape:label="1">
    <path
       id="path1"
       d="M 0,0 H 444 V 485 H 0 Z"
       style="fill:#ffffff;fill-opacity:1;fill-rule:nonzero;stroke:none"
       transform="scale(0.95795788)"
       clip-path="url(#clipPath2)" />
    <path
       id="path3"
       d="M 251,1 H 441 V 31 H 251 Z"
       style="fill:#dae8fc;fill-opacity:1;fill-rule:nonzero;stroke:#6c8ebf;stroke-width:1;stroke-linecap:butt;stroke-linejoin:miter;stroke-miterlimit:10;stroke-dasharray:none;stroke-opacity:1"
       transform="matrix(0.95795788,0,0,0.95795788,0.47897894,0.47897894)"
       clip-path="url(#clipPath4)" />
    <text
       id="text4"
       xml:space="preserve"
       transform="matrix(0.95796748,0,0,0.95796748,274.41278,22.033252)"
       clip-path="url(#clipPath5)"><tspan
         style="font-variant:normal;font-weight:700;font-size:18px;font-family:Helvetica;writing-mode:lr-tb;fill:#000000;fill-opacity:1;fill-rule:nonzero;stroke:none"
         x="0 12.999023 23.009766 33.020508 40.025391 50.036133 55.037109 67.042969 77.053711 84.058594 94.069336 99.070312 109.08105"
         y="0"
         sodipodi:role="line"
         id="tspan4">Users Service</tspan></text>
    <path
       id="path6"
       d="M 251,31 H 441 V 61 H 251 Z"
       style="fill:#ffffff;fill-opacity:1;fill-rule:nonzero;stroke:#000000;stroke-width:1;stroke-linecap:butt;stroke-linejoin:miter;stroke-miterlimit:10;stroke-dasharray:none;stroke-opacity:1"
       transform="matrix(0.95795788,0,0,0.95795788,0.47897894,0.47897894)"
       clip-path="url(#clipPath7)" />
    <text
       id="text7"
       xml:space="preserve"
       transform="matrix(0.95796748,0,0,0.95796748,306.69928,49.814309)"
       clip-path="url(#clipPath8)"><tspan
         style="font-variant:normal;font-weight:normal;font-size:15px;font-family:Helvetica;writing-mode:lr-tb;fill:#000000;fill-opacity:1;fill-rule:nonzero;stroke:none"
         x="0 7.5 12.495117 20.837402 29.179688 33.347168 41.689453 46.68457"
         y="0"
         sodipodi:role="line"
         id="tspan7">create()</tspan></text>
    <path
       id="path9"
       d="M 251,61 H 441 V 91 H 251 Z"
       style="fill:#ffffff;fill-opacity:1;fill-rule:nonzero;stroke:#000000;stroke-width:1;stroke-linecap:butt;stroke-linejoin:miter;stroke-miterlimit:10;stroke-dasharray:none;stroke-opacity:1"
       transform="matrix(0.95795788,0,0,0.95795788,0.47897894,0.47897894)"
       clip-path="url(#clipPath10)" />
    <g
       id="g10" />
    <text
       id="text10"
       xml:space="preserve"
       transform="matrix(0.95796748,0,0,0.95796748,301.5053,78.553333)"
       clip-path="url(#clipPath11)"><tspan
         style="font-variant:normal;font-weight:normal;font-size:15px;font-family:Helvetica;writing-mode:lr-tb;fill:#000000;fill-opacity:1;fill-rule:nonzero;stroke:none"
         x="0 7.5 15.842285 24.18457 35.852051 44.194336 52.536621 57.531738"
         y="0"
         sodipodi:role="line"
         id="tspan10">ﬁndOne()</tspan></text>
    <path
       id="path12"
       d="m 251,91 h 190 v 30 H 251 Z"
       style="fill:#ffffff;fill-opacity:1;fill-rule:nonzero;stroke:#000000;stroke-width:1;stroke-linecap:butt;stroke-linejoin:miter;stroke-miterlimit:10;stroke-dasharray:none;stroke-opacity:1"
       transform="matrix(0.95795788,0,0,0.95795788,0.47897894,0.47897894)"
       clip-path="url(#clipPath13)" />
    <g
       id="g13" />
    <text
       id="text13"
       xml:space="preserve"
       transform="matrix(0.95796748,0,0,0.95796748,315.08149,107.29236)"
       clip-path="url(#clipPath14)"><tspan
         style="font-variant:normal;font-weight:normal;font-size:15px;font-family:Helvetica;writing-mode:lr-tb;fill:#000000;fill-opacity:1;fill-rule:nonzero;stroke:none"
         x="0 7.5 15.842285 24.18457 29.179688"
         y="0"
         sodipodi:role="line"
         id="tspan13">ﬁnd()</tspan></text>
    <path
       id="path15"
       d="m 251,121 h 190 v 30 H 251 Z"
       style="fill:#ffffff;fill-opacity:1;fill-rule:nonzero;stroke:#000000;stroke-width:1;stroke-linecap:butt;stroke-linejoin:miter;stroke-miterlimit:10;stroke-dasharray:none;stroke-opacity:1"
       transform="matrix(0.95795788,0,0,0.95795788,0.47897894,0.47897894)"
       clip-path="url(#clipPath16)" />
    <text
       id="text16"
       xml:space="preserve"
       transform="matrix(0.95796748,0,0,0.95796748,304.69353,136.03138)"
       clip-path="url(#clipPath17)"><tspan
         style="font-variant:normal;font-weight:normal;font-size:15px;font-family:Helvetica;writing-mode:lr-tb;fill:#000000;fill-opacity:1;fill-rule:nonzero;stroke:none"
         x="0 8.3422852 16.68457 25.026855 33.369141 37.536621 45.878906 50.874023"
         y="0"
         sodipodi:role="line"
         id="tspan16">update()</tspan></text>
    <path
       id="path18"
       d="m 251,151 h 190 v 30 H 251 Z"
       style="fill:#ffffff;fill-opacity:1;fill-rule:nonzero;stroke:#000000;stroke-width:1;stroke-linecap:butt;stroke-linejoin:miter;stroke-miterlimit:10;stroke-dasharray:none;stroke-opacity:1"
       transform="matrix(0.95795788,0,0,0.95795788,0.47897894,0.47897894)"
       clip-path="url(#clipPath19)" />
    <text
       id="text19"
       xml:space="preserve"
       transform="matrix(0.95796748,0,0,0.95796748,302.70276,164.77041)"
       clip-path="url(#clipPath20)"><tspan
         style="font-variant:normal;font-weight:normal;font-size:15px;font-family:Helvetica;writing-mode:lr-tb;fill:#000000;fill-opacity:1;fill-rule:nonzero;stroke:none"
         x="0 4.9951172 13.337402 25.83252 34.174805 41.674805 50.01709 55.012207"
         y="0"
         sodipodi:role="line"
         id="tspan19">remove()</tspan></text>
    <path
       id="path21"
       d="m 251,181 h 190 v 30 H 251 Z"
       style="fill:#ffe6cc;fill-opacity:1;fill-rule:nonzero;stroke:#d79b00;stroke-width:1;stroke-linecap:butt;stroke-linejoin:miter;stroke-miterlimit:10;stroke-dasharray:none;stroke-opacity:1"
       transform="matrix(0.95795788,0,0,0.95795788,0.47897894,0.47897894)"
       clip-path="url(#clipPath22)" />
    <text
       id="text22"
       xml:space="preserve"
       transform="matrix(0.95796748,0,0,0.95796748,305.48685,193.50943)"
       clip-path="url(#clipPath23)"><tspan
         style="font-variant:normal;font-weight:normal;font-size:15px;font-family:Helvetica;writing-mode:lr-tb;fill:#000000;fill-opacity:1;fill-rule:nonzero;stroke:none"
         x="0 7.5 10.83252 19.174805 27.51709 35.859375 44.20166 49.196777"
         y="0"
         sodipodi:role="line"
         id="tspan22">signup()</tspan></text>
    <path
       id="path24"
       d="m 251,211 h 190 v 30 H 251 Z"
       style="fill:#ffe6cc;fill-opacity:1;fill-rule:nonzero;stroke:#d79b00;stroke-width:1;stroke-linecap:butt;stroke-linejoin:miter;stroke-miterlimit:10;stroke-dasharray:none;stroke-opacity:1"
       transform="matrix(0.95795788,0,0,0.95795788,0.47897894,0.47897894)"
       clip-path="url(#clipPath25)" />
    <text
       id="text25"
       xml:space="preserve"
       transform="matrix(0.95796748,0,0,0.95796748,307.89674,222.24846)"
       clip-path="url(#clipPath26)"><tspan
         style="font-variant:normal;font-weight:normal;font-size:15px;font-family:Helvetica;writing-mode:lr-tb;fill:#000000;fill-opacity:1;fill-rule:nonzero;stroke:none"
         x="0 7.5 10.83252 19.174805 27.51709 30.849609 39.191895 44.187012"
         y="0"
         sodipodi:role="line"
         id="tspan25">signin()</tspan></text>
    <text
       id="text26"
       xml:space="preserve"
       transform="matrix(0.95796748,0,0,0.95796748,121.9313,199.25724)"
       clip-path="url(#clipPath27)"><tspan
         style="font-style:oblique;font-variant:normal;font-weight:normal;font-size:15px;font-family:Helvetica;writing-mode:lr-tb;fill:#000000;fill-opacity:1;fill-rule:nonzero;stroke:none"
         x="0 10.83252 19.174805 30.007324 34.174805 46.669922 55.012207 59.179688 67.521973 75.864258 84.206543"
         y="0"
         sodipodi:role="line"
         id="tspan26">New methods</tspan></text>
    <text
       id="text27"
       xml:space="preserve"
       transform="matrix(0.95796748,0,0,0.95796748,138.68076,216.50065)"
       clip-path="url(#clipPath28)"><tspan
         style="font-style:oblique;font-variant:normal;font-weight:normal;font-size:15px;font-family:Helvetica;writing-mode:lr-tb;fill:#000000;fill-opacity:1;fill-rule:nonzero;stroke:none"
         x="0 4.1674805 7.5 15.842285 24.18457 28.352051 32.519531 40.861816 45.029297 53.371582 61.713867 65.881348"
         y="0"
         sodipodi:role="line"
         id="tspan27">tied to auth</tspan></text>
    <path
       id="path29"
       d="m 241,181 h -5 c -3.33333,0 -5,3.33333 -5,10 v 10 c 0,6.66667 -1.66667,10 -5,10 h -2.5 c -1.66667,0 -0.83333,0 2.5,0 h 2.5 c 1.66667,0 2.5,3.33333 2.5,10 v 10 c 0,6.66667 1.66667,10 5,10 h 5"
       style="fill:none;stroke:#000000;stroke-width:1;stroke-linecap:butt;stroke-linejoin:miter;stroke-miterlimit:10;stroke-dasharray:none;stroke-opacity:1"
       transform="matrix(0.95795788,0,0,0.95795788,0.47897894,0.47897894)"
       clip-path="url(#clipPath30)" />
    <path
       id="path31"
       d="M 1,1 H 201 V 131 H 1 Z"
       style="fill:#f8cecc;fill-opacity:1;fill-rule:nonzero;stroke:#b85450;stroke-width:1;stroke-linecap:butt;stroke-linejoin:miter;stroke-miterlimit:10;stroke-dasharray:none;stroke-opacity:1"
       transform="matrix(0.95795788,0,0,0.95795788,0.47897894,0.47897894)"
       clip-path="url(#clipPath32)" />
    <text
       id="text32"
       xml:space="preserve"
       transform="matrix(0.95796748,0,0,0.95796748,10.1335,25.865122)"
       clip-path="url(#clipPath33)"><tspan
         style="font-variant:normal;font-weight:700;font-size:15px;font-family:Helvetica;writing-mode:lr-tb;fill:#000000;fill-opacity:1;fill-rule:nonzero;stroke:none"
         x="0 10.004883 15.842285 25.004883 34.16748 38.334961 46.677246 60.014648 64.182129 75.849609 80.01709 85.012207 94.174805 98.342285 110.00977 119.17236 124.16748 128.33496 137.49756 146.66016 150.82764 159.16992 167.51221 171.67969 176.6748"
         y="0"
         sodipodi:role="line"
         id="tspan32">Problem with Option #1 - </tspan></text>
    <text
       id="text33"
       xml:space="preserve"
       transform="matrix(0.95796748,0,0,0.95796748,33.947973,43.108537)"
       clip-path="url(#clipPath34)"><tspan
         style="font-variant:normal;font-weight:700;font-size:15px;font-family:Helvetica;writing-mode:lr-tb;fill:#000000;fill-opacity:1;fill-rule:nonzero;stroke:none"
         x="0 9.1625977 17.504883 22.5 26.066895 34.40918 38.57666 46.918945 56.081543 65.244141 69.411621 73.579102 82.741699 86.90918 95.251465 99.418945 108.58154 116.92383 125.26611"
         y="0"
         sodipodi:role="line"
         id="tspan33">Let's add in a user</tspan></text>
    <text
       id="text34"
       xml:space="preserve"
       transform="matrix(0.95796748,0,0,0.95796748,25.670535,60.351951)"
       clip-path="url(#clipPath35)"><tspan
         style="font-variant:normal;font-weight:700;font-size:15px;font-family:Helvetica;writing-mode:lr-tb;fill:#000000;fill-opacity:1;fill-rule:nonzero;stroke:none"
         x="0 9.1625977 15 23.342285 28.337402 36.679688 42.51709 50.859375 60.021973 68.364258 76.706543 85.048828 89.216309 94.211426 102.55371 110.896 115.89111 125.05371 130.89111 139.2334 144.22852"
         y="0"
         sodipodi:role="line"
         id="tspan34">preferences feature! </tspan></text>
    <text
       id="text35"
       xml:space="preserve"
       transform="matrix(0.95796748,0,0,0.95796748,15.58194,77.595366)"
       clip-path="url(#clipPath36)"><tspan
         style="font-variant:normal;font-weight:700;font-size:15px;font-family:Helvetica;writing-mode:lr-tb;fill:#000000;fill-opacity:1;fill-rule:nonzero;stroke:none"
         x="0 9.1625977 17.504883 22.5 26.066895 34.40918 38.57666 46.918945 56.081543 65.244141 69.411621 73.579102 82.741699 86.90918 95.251465 99.418945 108.58154 116.92383 125.26611 133.6084 145.27588 154.43848 160.27588"
         y="0"
         sodipodi:role="line"
         id="tspan35">Let's add in a password</tspan></text>
    <text
       id="text36"
       xml:space="preserve"
       transform="matrix(0.95796748,0,0,0.95796748,51.221324,94.838781)"
       clip-path="url(#clipPath37)"><tspan
         style="font-variant:normal;font-weight:700;font-size:15px;font-family:Helvetica;writing-mode:lr-tb;fill:#000000;fill-opacity:1;fill-rule:nonzero;stroke:none"
         x="0 5.8374023 14.179688 22.521973 30.864258 35.859375 40.026855 45.021973 53.364258 61.706543 66.70166 75.864258 81.70166 90.043945"
         y="0"
         sodipodi:role="line"
         id="tspan36">reset feature!</tspan></text>
    <text
       id="text37"
       xml:space="preserve"
       transform="matrix(0.95796748,0,0,0.95796748,15.192766,112.0822)"
       clip-path="url(#clipPath38)"><tspan
         style="font-variant:normal;font-weight:700;font-size:15px;font-family:Helvetica;writing-mode:lr-tb;fill:#000000;fill-opacity:1;fill-rule:nonzero;stroke:none"
         x="0 9.1625977 17.504883 22.5 26.066895 34.40918 38.57666 46.918945 56.081543 65.244141 69.411621 73.579102 82.741699 86.90918 95.251465 103.59375 111.09375 115.26123 120.25635 128.59863 136.94092 141.93604 151.09863 156.93604 165.27832"
         y="0"
         sodipodi:role="line"
         id="tspan37">Let's add in xyz feature!</tspan></text>
    <path
       id="path39"
       d="m 251,241 h 190 v 30 H 251 Z"
       style="fill:#ffe6cc;fill-opacity:1;fill-rule:nonzero;stroke:#d79b00;stroke-width:1;stroke-linecap:butt;stroke-linejoin:miter;stroke-miterlimit:10;stroke-dasharray:none;stroke-opacity:1"
       transform="matrix(0.95795788,0,0,0.95795788,0.47897894,0.47897894)"
       clip-path="url(#clipPath40)" />
    <text
       id="text40"
       xml:space="preserve"
       transform="matrix(0.95796748,0,0,0.95796748,278.34943,250.98748)"
       clip-path="url(#clipPath41)"><tspan
         style="font-variant:normal;font-weight:normal;font-size:15px;font-family:Helvetica;writing-mode:lr-tb;fill:#000000;fill-opacity:1;fill-rule:nonzero;stroke:none"
         x="0 7.5 15.842285 20.009766 30.014648 35.009766 43.352051 47.519531 55.861816 60.856934 69.199219 77.541504 85.041504 93.383789 100.88379 105.87891"
         y="0"
         sodipodi:role="line"
         id="tspan40">setPreferences()</tspan></text>
    <path
       id="path42"
       d="m 251,271 h 190 v 30 H 251 Z"
       style="fill:#ffe6cc;fill-opacity:1;fill-rule:nonzero;stroke:#d79b00;stroke-width:1;stroke-linecap:butt;stroke-linejoin:miter;stroke-miterlimit:10;stroke-dasharray:none;stroke-opacity:1"
       transform="matrix(0.95795788,0,0,0.95795788,0.47897894,0.47897894)"
       clip-path="url(#clipPath43)" />
    <text
       id="text43"
       xml:space="preserve"
       transform="matrix(0.95796748,0,0,0.95796748,277.94529,279.7265)"
       clip-path="url(#clipPath44)"><tspan
         style="font-variant:normal;font-weight:normal;font-size:15px;font-family:Helvetica;writing-mode:lr-tb;fill:#000000;fill-opacity:1;fill-rule:nonzero;stroke:none"
         x="0 8.3422852 16.68457 20.852051 30.856934 35.852051 44.194336 48.361816 56.704102 61.699219 70.041504 78.383789 85.883789 94.226074 101.72607 106.72119"
         y="0"
         sodipodi:role="line"
         id="tspan43">getPreferences()</tspan></text>
    <text
       id="text44"
       xml:space="preserve"
       transform="matrix(0.95796748,0,0,0.95796748,94.778908,256.73528)"
       clip-path="url(#clipPath45)"><tspan
         style="font-style:oblique;font-variant:normal;font-weight:normal;font-size:15px;font-family:Helvetica;writing-mode:lr-tb;fill:#000000;fill-opacity:1;fill-rule:nonzero;stroke:none"
         x="0 10.83252 19.174805 30.007324 34.174805 46.669922 55.012207 59.179688 67.521973 75.864258 84.206543 91.706543 95.874023 100.0415 103.37402 111.71631"
         y="0"
         sodipodi:role="line"
         id="tspan44">New methods tied</tspan></text>
    <text
       id="text45"
       xml:space="preserve"
       transform="matrix(0.95796748,0,0,0.95796748,117.93478,273.9787)"
       clip-path="url(#clipPath46)"><tspan
         style="font-style:oblique;font-variant:normal;font-weight:normal;font-size:15px;font-family:Helvetica;writing-mode:lr-tb;fill:#000000;fill-opacity:1;fill-rule:nonzero;stroke:none"
         x="0 4.1674805 12.509766 16.677246 25.019531 30.014648 38.356934 42.524414 50.866699 55.861816 64.204102 72.546387 80.046387 88.388672"
         y="0"
         sodipodi:role="line"
         id="tspan45">to preferences</tspan></text>
    <path
       id="path47"
       d="m 241,241 h -5 c -3.33333,0 -5,3.33333 -5,10 v 10 c 0,6.66666 -1.66667,10 -5,10 h -2.5 c -1.66667,0 -0.83333,0 2.5,0 h 2.5 c 1.66667,0 2.5,3.33334 2.5,10 v 10 c 0,6.66666 1.66667,10 5,10 h 5"
       style="fill:none;stroke:#000000;stroke-width:1;stroke-linecap:butt;stroke-linejoin:miter;stroke-miterlimit:10;stroke-dasharray:none;stroke-opacity:1"
       transform="matrix(0.95795788,0,0,0.95795788,0.47897894,0.47897894)"
       clip-path="url(#clipPath48)" />
    <path
       id="path49"
       d="m 251,301 h 190 v 30 H 251 Z"
       style="fill:#ffe6cc;fill-opacity:1;fill-rule:nonzero;stroke:#d79b00;stroke-width:1;stroke-linecap:butt;stroke-linejoin:miter;stroke-miterlimit:10;stroke-dasharray:none;stroke-opacity:1"
       transform="matrix(0.95795788,0,0,0.95795788,0.47897894,0.47897894)"
       clip-path="url(#clipPath50)" />
    <text
       id="text50"
       xml:space="preserve"
       transform="matrix(0.95796748,0,0,0.95796748,279.14275,308.46553)"
       clip-path="url(#clipPath51)"><tspan
         style="font-variant:normal;font-weight:normal;font-size:15px;font-family:Helvetica;writing-mode:lr-tb;fill:#000000;fill-opacity:1;fill-rule:nonzero;stroke:none"
         x="0 4.9951172 13.337402 20.837402 29.179688 33.347168 43.352051 51.694336 59.194336 66.694336 77.526855 85.869141 90.864258 99.206543 104.20166"
         y="0"
         sodipodi:role="line"
         id="tspan50">resetPassword()</tspan></text>
    <path
       id="path52"
       d="m 241,301 h -5 c -3.33333,0 -5,2.5 -5,7.5 v 3.75 c 0,2.5 -1.66667,3.75 -5,3.75 h -2.5 c -1.66667,0 -0.83333,0 2.5,0 h 2.5 c 1.66667,0 2.5,2.5 2.5,7.5 v 3.75 c 0,2.5 1.66667,3.75 5,3.75 h 5"
       style="fill:none;stroke:#000000;stroke-width:1;stroke-linecap:butt;stroke-linejoin:miter;stroke-miterlimit:10;stroke-dasharray:none;stroke-opacity:1"
       transform="matrix(0.95795788,0,0,0.95795788,0.47897894,0.47897894)"
       clip-path="url(#clipPath53)" />
    <text
       id="text53"
       xml:space="preserve"
       transform="matrix(0.95796748,0,0,0.95796748,101.96366,299.84382)"
       clip-path="url(#clipPath54)"><tspan
         style="font-style:oblique;font-variant:normal;font-weight:normal;font-size:15px;font-family:Helvetica;writing-mode:lr-tb;fill:#000000;fill-opacity:1;fill-rule:nonzero;stroke:none"
         x="0 10.83252 19.174805 30.007324 34.174805 46.669922 55.012207 59.179688 67.521973 75.864258 84.206543 88.374023 92.541504 95.874023 104.21631"
         y="0"
         sodipodi:role="line"
         id="tspan53">New method tied</tspan></text>
    <text
       id="text54"
       xml:space="preserve"
       transform="matrix(0.95796748,0,0,0.95796748,96.380509,317.08724)"
       clip-path="url(#clipPath55)"><tspan
         style="font-style:oblique;font-variant:normal;font-weight:normal;font-size:15px;font-family:Helvetica;writing-mode:lr-tb;fill:#000000;fill-opacity:1;fill-rule:nonzero;stroke:none"
         x="0 4.1674805 12.509766 16.677246 25.019531 33.361816 40.861816 48.361816 59.194336 67.536621 72.531738 80.874023 85.041504 90.036621 98.378906 105.87891 114.22119"
         y="0"
         sodipodi:role="line"
         id="tspan54">to password reset</tspan></text>
    <path
       id="path56"
       d="m 251,331 h 190 v 30 H 251 Z"
       style="fill:#ffe6cc;fill-opacity:1;fill-rule:nonzero;stroke:#d79b00;stroke-width:1;stroke-linecap:butt;stroke-linejoin:miter;stroke-miterlimit:10;stroke-dasharray:none;stroke-opacity:1"
       transform="matrix(0.95795788,0,0,0.95795788,0.47897894,0.47897894)"
       clip-path="url(#clipPath57)" />
    <text
       id="text57"
       xml:space="preserve"
       transform="matrix(0.95796748,0,0,0.95796748,305.48685,337.20455)"
       clip-path="url(#clipPath58)"><tspan
         style="font-variant:normal;font-weight:normal;font-size:15px;font-family:Helvetica;writing-mode:lr-tb;fill:#000000;fill-opacity:1;fill-rule:nonzero;stroke:none"
         x="0 7.5 10.83252 19.174805 27.51709 35.859375 44.20166 49.196777"
         y="0"
         sodipodi:role="line"
         id="tspan57">signup()</tspan></text>
    <path
       id="path59"
       d="m 251,361 h 190 v 30 H 251 Z"
       style="fill:#ffe6cc;fill-opacity:1;fill-rule:nonzero;stroke:#d79b00;stroke-width:1;stroke-linecap:butt;stroke-linejoin:miter;stroke-miterlimit:10;stroke-dasharray:none;stroke-opacity:1"
       transform="matrix(0.95795788,0,0,0.95795788,0.47897894,0.47897894)"
       clip-path="url(#clipPath60)" />
    <text
       id="text60"
       xml:space="preserve"
       transform="matrix(0.95796748,0,0,0.95796748,307.89674,365.94358)"
       clip-path="url(#clipPath61)"><tspan
         style="font-variant:normal;font-weight:normal;font-size:15px;font-family:Helvetica;writing-mode:lr-tb;fill:#000000;fill-opacity:1;fill-rule:nonzero;stroke:none"
         x="0 7.5 10.83252 19.174805 27.51709 30.849609 39.191895 44.187012"
         y="0"
         sodipodi:role="line"
         id="tspan60">signin()</tspan></text>
    <path
       id="path62"
       d="m 251,391 h 190 v 30 H 251 Z"
       style="fill:#ffe6cc;fill-opacity:1;fill-rule:nonzero;stroke:#d79b00;stroke-width:1;stroke-linecap:butt;stroke-linejoin:miter;stroke-miterlimit:10;stroke-dasharray:none;stroke-opacity:1"
       transform="matrix(0.95795788,0,0,0.95795788,0.47897894,0.47897894)"
       clip-path="url(#clipPath63)" />
    <text
       id="text63"
       xml:space="preserve"
       transform="matrix(0.95796748,0,0,0.95796748,278.34943,394.6826)"
       clip-path="url(#clipPath64)"><tspan
         style="font-variant:normal;font-weight:normal;font-size:15px;font-family:Helvetica;writing-mode:lr-tb;fill:#000000;fill-opacity:1;fill-rule:nonzero;stroke:none"
         x="0 7.5 15.842285 20.009766 30.014648 35.009766 43.352051 47.519531 55.861816 60.856934 69.199219 77.541504 85.041504 93.383789 100.88379 105.87891"
         y="0"
         sodipodi:role="line"
         id="tspan63">setPreferences()</tspan></text>
    <path
       id="path65"
       d="m 251,421 h 190 v 30 H 251 Z"
       style="fill:#ffe6cc;fill-opacity:1;fill-rule:nonzero;stroke:#d79b00;stroke-width:1;stroke-linecap:butt;stroke-linejoin:miter;stroke-miterlimit:10;stroke-dasharray:none;stroke-opacity:1"
       transform="matrix(0.95795788,0,0,0.95795788,0.47897894,0.47897894)"
       clip-path="url(#clipPath66)" />
    <text
       id="text66"
       xml:space="preserve"
       transform="matrix(0.95796748,0,0,0.95796748,277.94529,423.42163)"
       clip-path="url(#clipPath67)"><tspan
         style="font-variant:normal;font-weight:normal;font-size:15px;font-family:Helvetica;writing-mode:lr-tb;fill:#000000;fill-opacity:1;fill-rule:nonzero;stroke:none"
         x="0 8.3422852 16.68457 20.852051 30.856934 35.852051 44.194336 48.361816 56.704102 61.699219 70.041504 78.383789 85.883789 94.226074 101.72607 106.72119"
         y="0"
         sodipodi:role="line"
         id="tspan66">getPreferences()</tspan></text>
    <path
       id="path68"
       d="m 251,451 h 190 v 30 H 251 Z"
       style="fill:#ffe6cc;fill-opacity:1;fill-rule:nonzero;stroke:#d79b00;stroke-width:1;stroke-linecap:butt;stroke-linejoin:miter;stroke-miterlimit:10;stroke-dasharray:none;stroke-opacity:1"
       transform="matrix(0.95795788,0,0,0.95795788,0.47897894,0.47897894)"
       clip-path="url(#clipPath69)" />
    <text
       id="text69"
       xml:space="preserve"
       transform="matrix(0.95796748,0,0,0.95796748,279.14275,452.16065)"
       clip-path="url(#clipPath70)"><tspan
         style="font-variant:normal;font-weight:normal;font-size:15px;font-family:Helvetica;writing-mode:lr-tb;fill:#000000;fill-opacity:1;fill-rule:nonzero;stroke:none"
         x="0 4.9951172 13.337402 20.837402 29.179688 33.347168 43.352051 51.694336 59.194336 66.694336 77.526855 85.869141 90.864258 99.206543 104.20166"
         y="0"
         sodipodi:role="line"
         id="tspan69">resetPassword()</tspan></text>
  </g>
</svg>
