<?xml version="1.0" encoding="UTF-8" standalone="no"?>
<!-- Created with Inkscape (http://www.inkscape.org/) -->

<svg
   version="1.1"
   id="svg1"
   width="370.55997"
   height="206.71999"
   viewBox="0 0 370.55997 206.71999"
   sodipodi:docname="nest-4.pdf"
   xmlns:inkscape="http://www.inkscape.org/namespaces/inkscape"
   xmlns:sodipodi="http://sodipodi.sourceforge.net/DTD/sodipodi-0.dtd"
   xmlns="http://www.w3.org/2000/svg"
   xmlns:svg="http://www.w3.org/2000/svg">
  <defs
     id="defs1">
    <clipPath
       clipPathUnits="userSpaceOnUse"
       id="clipPath2">
      <path
         d="M 0,0 H 1158.3333 V 643.51849 H 0 Z"
         transform="scale(0.33410074)"
         clip-rule="evenodd"
         id="path2" />
    </clipPath>
    <clipPath
       clipPathUnits="userSpaceOnUse"
       id="clipPath4">
      <path
         d="M 0,0 H 1158.3333 V 640.52539 H 0 Z"
         transform="matrix(0.33410074,0,0,0.33410074,-0.50000001,-0.50000001)"
         clip-rule="evenodd"
         id="path4" />
    </clipPath>
    <clipPath
       clipPathUnits="userSpaceOnUse"
       id="clipPath6">
      <path
         d="M 0,0 H 1158.3333 V 640.52539 H 0 Z"
         transform="matrix(0.33410074,0,0,0.33410074,-0.50000001,-0.50000001)"
         clip-rule="evenodd"
         id="path6" />
    </clipPath>
    <clipPath
       clipPathUnits="userSpaceOnUse"
       id="clipPath8">
      <path
         d="M 0,0 H 1158.3333 V 640.52539 H 0 Z"
         transform="matrix(0.33410074,0,0,0.33410074,-0.50000001,-0.50000001)"
         clip-rule="evenodd"
         id="path8" />
    </clipPath>
    <clipPath
       clipPathUnits="userSpaceOnUse"
       id="clipPath9">
      <path
         d="M 0,0 H 1158.3333 V 640.52539 H 0 Z"
         transform="matrix(0.33409738,0,0,0.33409738,-22.4375,-60)"
         clip-rule="evenodd"
         id="path9" />
    </clipPath>
    <clipPath
       clipPathUnits="userSpaceOnUse"
       id="clipPath11">
      <path
         d="M 0,0 H 1158.3333 V 640.52539 H 0 Z"
         transform="matrix(0.33410074,0,0,0.33410074,-0.50000001,-0.50000001)"
         clip-rule="evenodd"
         id="path11" />
    </clipPath>
    <clipPath
       clipPathUnits="userSpaceOnUse"
       id="clipPath12">
      <path
         d="M 0,0 H 1158.3333 V 640.52539 H 0 Z"
         transform="matrix(0.33409738,0,0,0.33409738,-30.296875,-35)"
         clip-rule="evenodd"
         id="path12" />
    </clipPath>
    <clipPath
       clipPathUnits="userSpaceOnUse"
       id="clipPath14">
      <path
         d="M 0,0 H 1158.3333 V 640.52539 H 0 Z"
         transform="matrix(0.33410074,0,0,0.33410074,-0.50000001,-0.50000001)"
         clip-rule="evenodd"
         id="path14" />
    </clipPath>
    <clipPath
       clipPathUnits="userSpaceOnUse"
       id="clipPath15">
      <path
         d="M 0,0 H 1158.3333 V 640.52539 H 0 Z"
         transform="matrix(0.33409738,0,0,0.33409738,-198.89063,-20)"
         clip-rule="evenodd"
         id="path15" />
    </clipPath>
    <clipPath
       clipPathUnits="userSpaceOnUse"
       id="clipPath17">
      <path
         d="M 0,0 H 1158.3333 V 640.52539 H 0 Z"
         transform="matrix(0.33410074,0,0,0.33410074,-0.50000001,-0.50000001)"
         clip-rule="evenodd"
         id="path17" />
    </clipPath>
    <clipPath
       clipPathUnits="userSpaceOnUse"
       id="clipPath18">
      <path
         d="M 0,0 H 1158.3333 V 640.52539 H 0 Z"
         transform="matrix(0.33409738,0,0,0.33409738,-217.84375,-60)"
         clip-rule="evenodd"
         id="path18" />
    </clipPath>
    <clipPath
       clipPathUnits="userSpaceOnUse"
       id="clipPath20">
      <path
         d="M 0,0 H 1158.3333 V 640.52539 H 0 Z"
         transform="matrix(0.33410074,0,0,0.33410074,-0.50000001,-0.50000001)"
         clip-rule="evenodd"
         id="path20" />
    </clipPath>
    <clipPath
       clipPathUnits="userSpaceOnUse"
       id="clipPath21">
      <path
         d="M 0,0 H 1158.3333 V 640.52539 H 0 Z"
         transform="matrix(0.33409738,0,0,0.33409738,-9.953125,-188)"
         clip-rule="evenodd"
         id="path21" />
    </clipPath>
    <clipPath
       clipPathUnits="userSpaceOnUse"
       id="clipPath22">
      <path
         d="M 0,0 H 1158.3333 V 640.52539 H 0 Z"
         transform="matrix(0.33409738,0,0,0.33409738,-25.296875,-203)"
         clip-rule="evenodd"
         id="path22" />
    </clipPath>
    <clipPath
       clipPathUnits="userSpaceOnUse"
       id="clipPath24">
      <path
         d="M 0,0 H 1158.3333 V 640.52539 H 0 Z"
         transform="matrix(0.33410074,0,0,0.33410074,-0.50000001,-0.50000001)"
         clip-rule="evenodd"
         id="path24" />
    </clipPath>
    <clipPath
       clipPathUnits="userSpaceOnUse"
       id="clipPath26">
      <path
         d="M 0,0 H 1158.3333 V 640.52539 H 0 Z"
         transform="matrix(0.33410074,0,0,0.33410074,-0.50000001,-0.50000001)"
         clip-rule="evenodd"
         id="path26" />
    </clipPath>
    <clipPath
       clipPathUnits="userSpaceOnUse"
       id="clipPath28">
      <path
         d="M 0,0 H 1158.3333 V 640.52539 H 0 Z"
         transform="matrix(0.33410074,0,0,0.33410074,-0.50000001,-0.50000001)"
         clip-rule="evenodd"
         id="path28" />
    </clipPath>
    <clipPath
       clipPathUnits="userSpaceOnUse"
       id="clipPath29">
      <path
         d="M 0,0 H 1158.3333 V 640.52539 H 0 Z"
         transform="matrix(0.33409738,0,0,0.33409738,-18.765625,-115)"
         clip-rule="evenodd"
         id="path29" />
    </clipPath>
    <clipPath
       clipPathUnits="userSpaceOnUse"
       id="clipPath31">
      <path
         d="M 0,0 H 1158.3333 V 640.52539 H 0 Z"
         transform="matrix(0.33410074,0,0,0.33410074,-0.50000001,-0.50000001)"
         clip-rule="evenodd"
         id="path31" />
    </clipPath>
    <clipPath
       clipPathUnits="userSpaceOnUse"
       id="clipPath32">
      <path
         d="M 0,0 H 1158.3333 V 640.52539 H 0 Z"
         transform="matrix(0.33409738,0,0,0.33409738,-30.296875,-89.999999)"
         clip-rule="evenodd"
         id="path32" />
    </clipPath>
    <clipPath
       clipPathUnits="userSpaceOnUse"
       id="clipPath34">
      <path
         d="M 0,0 H 1158.3333 V 640.52539 H 0 Z"
         transform="matrix(0.33410074,0,0,0.33410074,-0.50000001,-0.50000001)"
         clip-rule="evenodd"
         id="path34" />
    </clipPath>
    <clipPath
       clipPathUnits="userSpaceOnUse"
       id="clipPath35">
      <path
         d="M 0,0 H 1158.3333 V 640.52539 H 0 Z"
         transform="matrix(0.33409738,0,0,0.33409738,-211.4375,-115)"
         clip-rule="evenodd"
         id="path35" />
    </clipPath>
    <clipPath
       clipPathUnits="userSpaceOnUse"
       id="clipPath37">
      <path
         d="M 0,0 H 1158.3333 V 640.52539 H 0 Z"
         transform="matrix(0.33410074,0,0,0.33410074,-0.50000001,-0.50000001)"
         clip-rule="evenodd"
         id="path37" />
    </clipPath>
    <clipPath
       clipPathUnits="userSpaceOnUse"
       id="clipPath38">
      <path
         d="M 0,0 H 1158.3333 V 640.52539 H 0 Z"
         transform="matrix(0.33409738,0,0,0.33409738,-328.09375,-76)"
         clip-rule="evenodd"
         id="path38" />
    </clipPath>
    <clipPath
       clipPathUnits="userSpaceOnUse"
       id="clipPath39">
      <path
         d="M 0,0 H 1158.3333 V 640.52539 H 0 Z"
         transform="matrix(0.33409738,0,0,0.33409738,-319.42188,-91.999999)"
         clip-rule="evenodd"
         id="path39" />
    </clipPath>
  </defs>
  <sodipodi:namedview
     id="namedview1"
     pagecolor="#ffffff"
     bordercolor="#000000"
     borderopacity="0.25"
     inkscape:showpageshadow="2"
     inkscape:pageopacity="0.0"
     inkscape:pagecheckerboard="0"
     inkscape:deskcolor="#d1d1d1">
    <inkscape:page
       x="0"
       y="0"
       inkscape:label="1"
       id="page1"
       width="370.55997"
       height="206.71999"
       margin="0"
       bleed="0" />
  </sodipodi:namedview>
  <g
     id="g1"
     inkscape:groupmode="layer"
     inkscape:label="1">
    <path
       id="path1"
       d="M 0,0 H 387 V 215 H 0 Z"
       style="fill:#ffffff;fill-opacity:1;fill-rule:nonzero;stroke:none"
       transform="scale(0.9577949)"
       clip-path="url(#clipPath2)" />
    <path
       id="path3"
       d="M 87,56 H 190.63"
       style="fill:none;stroke:#000000;stroke-width:1;stroke-linecap:butt;stroke-linejoin:miter;stroke-miterlimit:10;stroke-dasharray:none;stroke-opacity:1"
       transform="matrix(0.9577949,0,0,0.9577949,0.47889746,0.47889746)"
       clip-path="url(#clipPath4)" />
    <path
       id="path5"
       d="m 195.88,56 -7,3.5 1.75,-3.5 -1.75,-3.5 z"
       style="fill:#000000;fill-opacity:1;fill-rule:nonzero;stroke:#000000;stroke-width:1;stroke-linecap:butt;stroke-linejoin:miter;stroke-miterlimit:10;stroke-dasharray:none;stroke-opacity:1"
       transform="matrix(0.9577949,0,0,0.9577949,0.47889746,0.47889746)"
       clip-path="url(#clipPath6)" />
    <path
       id="path7"
       d="M 17,41 H 87 V 71 H 17 Z"
       style="fill:#ffffff;fill-opacity:1;fill-rule:nonzero;stroke:#000000;stroke-width:1;stroke-linecap:butt;stroke-linejoin:miter;stroke-miterlimit:10;stroke-dasharray:none;stroke-opacity:1"
       transform="matrix(0.9577949,0,0,0.9577949,0.47889746,0.47889746)"
       clip-path="url(#clipPath8)" />
    <text
       id="text8"
       xml:space="preserve"
       transform="matrix(0.95780454,0,0,0.95780454,21.490739,57.468272)"
       clip-path="url(#clipPath9)"><tspan
         style="font-variant:normal;font-weight:normal;font-size:11px;font-family:Helvetica;writing-mode:lr-tb;fill:#000000;fill-opacity:1;fill-rule:nonzero;stroke:none"
         x="0 8.5561523 15.893066 22.418945 25.475098 28.53125 34.648926 40.766602 43.822754 49.94043 52.996582"
         y="0"
         sodipodi:role="line"
         id="tspan8">GET /auth/2</tspan></text>
    <path
       id="path10"
       d="M 17,21 H 87 V 41 H 17 Z"
       style="fill:#ffffff;fill-opacity:1;fill-rule:nonzero;stroke:#000000;stroke-width:1;stroke-linecap:butt;stroke-linejoin:miter;stroke-miterlimit:10;stroke-dasharray:none;stroke-opacity:1"
       transform="matrix(0.9577949,0,0,0.9577949,0.47889746,0.47889746)"
       clip-path="url(#clipPath11)" />
    <text
       id="text11"
       xml:space="preserve"
       transform="matrix(0.95780454,0,0,0.95780454,29.018484,33.523159)"
       clip-path="url(#clipPath12)"><tspan
         style="font-variant:normal;font-weight:700;font-size:11px;font-family:Helvetica;writing-mode:lr-tb;fill:#000000;fill-opacity:1;fill-rule:nonzero;stroke:none"
         x="0 7.9438477 14.061523 20.780762 27.5 33.617676 39.735352"
         y="0"
         sodipodi:role="line"
         id="tspan11">Request</tspan></text>
    <path
       id="path13"
       d="m 197,1 h 90 v 30 h -90 z"
       style="fill:#dae8fc;fill-opacity:1;fill-rule:nonzero;stroke:#6c8ebf;stroke-width:1;stroke-linecap:butt;stroke-linejoin:miter;stroke-miterlimit:10;stroke-dasharray:none;stroke-opacity:1"
       transform="matrix(0.9577949,0,0,0.9577949,0.47889746,0.47889746)"
       clip-path="url(#clipPath14)" />
    <text
       id="text14"
       xml:space="preserve"
       transform="matrix(0.95780454,0,0,0.95780454,190.49835,19.156091)"
       clip-path="url(#clipPath15)"><tspan
         style="font-variant:normal;font-weight:700;font-size:11px;font-family:Helvetica;writing-mode:lr-tb;fill:#000000;fill-opacity:1;fill-rule:nonzero;stroke:none"
         x="0 7.9438477 14.061523 20.179199 24.459961 30.577637 33.633789 41.577637 48.296875 55.016113 58.679199 62.959961 69.679199 72.735352 75.791504 81.90918"
         y="0"
         sodipodi:role="line"
         id="tspan14">Users Controller</tspan></text>
    <path
       id="path16"
       d="m 197,31 h 90 v 50 h -90 z"
       style="fill:#dae8fc;fill-opacity:1;fill-rule:nonzero;stroke:#6c8ebf;stroke-width:1;stroke-linecap:butt;stroke-linejoin:miter;stroke-miterlimit:10;stroke-dasharray:none;stroke-opacity:1"
       transform="matrix(0.9577949,0,0,0.9577949,0.47889746,0.47889746)"
       clip-path="url(#clipPath17)" />
    <g
       id="g17" />
    <text
       id="text17"
       xml:space="preserve"
       transform="matrix(0.95780454,0,0,0.95780454,208.65173,57.468272)"
       clip-path="url(#clipPath18)"><tspan
         style="font-variant:normal;font-weight:normal;font-size:11px;font-family:Helvetica;writing-mode:lr-tb;fill:#000000;fill-opacity:1;fill-rule:nonzero;stroke:none"
         x="0 5.5 11.617676 17.735352 25.679199 31.179199 37.296875 40.959961 44.623047"
         y="0"
         sodipodi:role="line"
         id="tspan17">ﬁndUser()</tspan></text>
    <path
       id="path19"
       d="m 1,171 h 286 v 40 H 1 Z"
       style="fill:#f8cecc;fill-opacity:1;fill-rule:nonzero;stroke:#b85450;stroke-width:1;stroke-linecap:butt;stroke-linejoin:miter;stroke-miterlimit:10;stroke-dasharray:none;stroke-opacity:1"
       transform="matrix(0.9577949,0,0,0.9577949,0.47889746,0.47889746)"
       clip-path="url(#clipPath20)" />
    <text
       id="text20"
       xml:space="preserve"
       transform="matrix(0.95780454,0,0,0.95780454,9.5331483,180.06725)"
       clip-path="url(#clipPath21)"><tspan
         style="font-variant:normal;font-weight:700;font-size:12px;font-family:Helvetica;writing-mode:lr-tb;fill:#000000;fill-opacity:1;fill-rule:nonzero;stroke:none"
         x="0 3.3339844 10.664062 14.660156 21.333984 26.003906 32.677734 39.351562 46.681641 50.677734 58.007812 62.677734 69.351562 72.685547 79.359375 86.033203 93.363281 96.697266 104.02734 110.70117 114.03516 120.70898 128.03906 135.36914 138.70312 142.03711 148.71094 156.04102 159.375 163.37109 170.70117 174.03516 180.70898 184.04297 190.7168 194.05078 201.38086 208.71094 212.04492 218.71875 222.05273 229.38281 236.05664 243.38672 250.7168 254.05078 260.72461 264.73828"
         y="0"
         sodipodi:role="line"
         id="tspan20">Interceptors can be applied to a single handler,</tspan></text>
    <text
       id="text21"
       xml:space="preserve"
       transform="matrix(0.95780454,0,0,0.95780454,24.229462,194.43432)"
       clip-path="url(#clipPath22)"><tspan
         style="font-variant:normal;font-weight:700;font-size:12px;font-family:Helvetica;writing-mode:lr-tb;fill:#000000;fill-opacity:1;fill-rule:nonzero;stroke:none"
         x="0 6.6738281 10.007812 13.341797 16.675781 20.671875 28.001953 34.675781 38.009766 45.339844 52.013672 59.34375 66.673828 70.007812 76.681641 81.351562 88.025391 91.359375 94.693359 102.02344 105.35742 112.03125 115.36523 122.03906 129.36914 136.69922 140.69531 145.36523 152.69531 156.0293 159.36328 166.03711 170.05078 173.38477 176.71875 184.04883 188.71875 192.05273 199.38281 202.7168 210.04688 217.37695 224.05078 227.38477 230.71875"
         y="0"
         sodipodi:role="line"
         id="tspan21">all the handlers in a controller, or globally</tspan></text>
    <path
       id="path23"
       d="M 87,111 H 190.63"
       style="fill:none;stroke:#000000;stroke-width:1;stroke-linecap:butt;stroke-linejoin:miter;stroke-miterlimit:10;stroke-dasharray:none;stroke-opacity:1"
       transform="matrix(0.9577949,0,0,0.9577949,0.47889746,0.47889746)"
       clip-path="url(#clipPath24)" />
    <path
       id="path25"
       d="m 195.88,111 -7,3.5 1.75,-3.5 -1.75,-3.5 z"
       style="fill:#000000;fill-opacity:1;fill-rule:nonzero;stroke:#000000;stroke-width:1;stroke-linecap:butt;stroke-linejoin:miter;stroke-miterlimit:10;stroke-dasharray:none;stroke-opacity:1"
       transform="matrix(0.9577949,0,0,0.9577949,0.47889746,0.47889746)"
       clip-path="url(#clipPath26)" />
    <path
       id="path27"
       d="m 17,96 h 70 v 30 H 17 Z"
       style="fill:#ffffff;fill-opacity:1;fill-rule:nonzero;stroke:#000000;stroke-width:1;stroke-linecap:butt;stroke-linejoin:miter;stroke-miterlimit:10;stroke-dasharray:none;stroke-opacity:1"
       transform="matrix(0.9577949,0,0,0.9577949,0.47889746,0.47889746)"
       clip-path="url(#clipPath28)" />
    <text
       id="text28"
       xml:space="preserve"
       transform="matrix(0.95780454,0,0,0.95780454,17.973801,110.14752)"
       clip-path="url(#clipPath29)"><tspan
         style="font-variant:normal;font-weight:normal;font-size:11px;font-family:Helvetica;writing-mode:lr-tb;fill:#000000;fill-opacity:1;fill-rule:nonzero;stroke:none"
         x="0 7.3369141 15.893066 23.22998 29.755859 32.812012 35.868164 41.98584 48.103516 51.159668 57.277344 60.333496"
         y="0"
         sodipodi:role="line"
         id="tspan28">POST /auth/2</tspan></text>
    <path
       id="path30"
       d="M 17,76 H 87 V 96 H 17 Z"
       style="fill:#ffffff;fill-opacity:1;fill-rule:nonzero;stroke:#000000;stroke-width:1;stroke-linecap:butt;stroke-linejoin:miter;stroke-miterlimit:10;stroke-dasharray:none;stroke-opacity:1"
       transform="matrix(0.9577949,0,0,0.9577949,0.47889746,0.47889746)"
       clip-path="url(#clipPath31)" />
    <text
       id="text31"
       xml:space="preserve"
       transform="matrix(0.95780454,0,0,0.95780454,29.018484,86.202408)"
       clip-path="url(#clipPath32)"><tspan
         style="font-variant:normal;font-weight:700;font-size:11px;font-family:Helvetica;writing-mode:lr-tb;fill:#000000;fill-opacity:1;fill-rule:nonzero;stroke:none"
         x="0 7.9438477 14.061523 20.780762 27.5 33.617676 39.735352"
         y="0"
         sodipodi:role="line"
         id="tspan31">Request</tspan></text>
    <path
       id="path33"
       d="m 197,81 h 90 v 60 h -90 z"
       style="fill:#dae8fc;fill-opacity:1;fill-rule:nonzero;stroke:#6c8ebf;stroke-width:1;stroke-linecap:butt;stroke-linejoin:miter;stroke-miterlimit:10;stroke-dasharray:none;stroke-opacity:1"
       transform="matrix(0.9577949,0,0,0.9577949,0.47889746,0.47889746)"
       clip-path="url(#clipPath34)" />
    <text
       id="text34"
       xml:space="preserve"
       transform="matrix(0.95780454,0,0,0.95780454,202.5158,110.14752)"
       clip-path="url(#clipPath35)"><tspan
         style="font-variant:normal;font-weight:normal;font-size:11px;font-family:Helvetica;writing-mode:lr-tb;fill:#000000;fill-opacity:1;fill-rule:nonzero;stroke:none"
         x="0 5.5 9.1630859 15.280762 21.398438 24.45459 30.572266 38.516113 44.016113 50.133789 53.796875 57.459961"
         y="0"
         sodipodi:role="line"
         id="tspan34">createUser()</tspan></text>
    <path
       id="path36"
       d="m 317,61 h 67 v 35 h -67 z"
       style="fill:#f5f5f5;fill-opacity:1;fill-rule:nonzero;stroke:#666666;stroke-width:1;stroke-linecap:butt;stroke-linejoin:miter;stroke-miterlimit:10;stroke-dasharray:none;stroke-opacity:1"
       transform="matrix(0.9577949,0,0,0.9577949,0.47889746,0.47889746)"
       clip-path="url(#clipPath37)" />
    <text
       id="text37"
       xml:space="preserve"
       transform="matrix(0.95780454,0,0,0.95780454,314.24968,72.793145)"
       clip-path="url(#clipPath38)"><tspan
         style="font-variant:normal;font-weight:normal;font-size:13px;font-family:Helvetica;writing-mode:lr-tb;fill:#333333;fill-opacity:1;fill-rule:nonzero;stroke:none"
         x="0 9.3881836 16.618164 23.118164 26.72998 33.959961"
         y="0"
         sodipodi:role="line"
         id="tspan37">Custom</tspan></text>
    <text
       id="text38"
       xml:space="preserve"
       transform="matrix(0.95780454,0,0,0.95780454,305.94373,88.118017)"
       clip-path="url(#clipPath39)"><tspan
         style="font-variant:normal;font-weight:normal;font-size:13px;font-family:Helvetica;writing-mode:lr-tb;fill:#333333;fill-opacity:1;fill-rule:nonzero;stroke:none"
         x="0 3.6118164 10.841797 14.453613 21.683594 26.012695 32.512695 39.742676 46.972656 50.584473 57.814453"
         y="0"
         sodipodi:role="line"
         id="tspan38">Interceptor</tspan></text>
  </g>
</svg>
