<?xml version="1.0" encoding="UTF-8" standalone="no"?>
<!-- Created with Inkscape (http://www.inkscape.org/) -->

<svg
   version="1.1"
   id="svg1"
   width="702.71997"
   height="264"
   viewBox="0 0 702.71997 264"
   sodipodi:docname="nest-23.pdf"
   xmlns:inkscape="http://www.inkscape.org/namespaces/inkscape"
   xmlns:sodipodi="http://sodipodi.sourceforge.net/DTD/sodipodi-0.dtd"
   xmlns="http://www.w3.org/2000/svg"
   xmlns:svg="http://www.w3.org/2000/svg">
  <defs
     id="defs1">
    <clipPath
       clipPathUnits="userSpaceOnUse"
       id="clipPath2">
      <path
         d="M 0,0 H 2195.8333 V 822.68958 H 0 Z"
         transform="scale(0.33426947)"
         clip-rule="evenodd"
         id="path2" />
    </clipPath>
    <clipPath
       clipPathUnits="userSpaceOnUse"
       id="clipPath4">
      <path
         d="M 0,0 H 2195.8333 V 819.69794 H 0 Z"
         transform="matrix(0.33426947,0,0,0.33426947,-0.49999999,-0.49999999)"
         clip-rule="evenodd"
         id="path4" />
    </clipPath>
    <clipPath
       clipPathUnits="userSpaceOnUse"
       id="clipPath6">
      <path
         d="M 0,0 H 2195.8333 V 819.69794 H 0 Z"
         transform="matrix(0.33426947,0,0,0.33426947,-0.49999999,-0.49999999)"
         clip-rule="evenodd"
         id="path6" />
    </clipPath>
    <clipPath
       clipPathUnits="userSpaceOnUse"
       id="clipPath7">
      <path
         d="M 0,0 H 2195.8333 V 819.69794 H 0 Z"
         transform="matrix(0.33426611,0,0,0.33426611,-145.90625,-22)"
         clip-rule="evenodd"
         id="path7" />
    </clipPath>
    <clipPath
       clipPathUnits="userSpaceOnUse"
       id="clipPath9">
      <path
         d="M 0,0 H 2195.8333 V 819.69794 H 0 Z"
         transform="matrix(0.33426947,0,0,0.33426947,-0.49999999,-0.49999999)"
         clip-rule="evenodd"
         id="path9" />
    </clipPath>
    <clipPath
       clipPathUnits="userSpaceOnUse"
       id="clipPath11">
      <path
         d="M 0,0 H 2195.8333 V 819.69794 H 0 Z"
         transform="matrix(0.33426947,0,0,0.33426947,-0.49999999,-0.49999999)"
         clip-rule="evenodd"
         id="path11" />
    </clipPath>
    <clipPath
       clipPathUnits="userSpaceOnUse"
       id="clipPath13">
      <path
         d="M 0,0 H 2195.8333 V 819.69794 H 0 Z"
         transform="matrix(0.33426947,0,0,0.33426947,-0.49999999,-0.49999999)"
         clip-rule="evenodd"
         id="path13" />
    </clipPath>
    <clipPath
       clipPathUnits="userSpaceOnUse"
       id="clipPath14">
      <path
         d="M 0,0 H 2195.8333 V 819.69794 H 0 Z"
         transform="matrix(0.33426611,0,0,0.33426611,-127.65625,-169)"
         clip-rule="evenodd"
         id="path14" />
    </clipPath>
    <clipPath
       clipPathUnits="userSpaceOnUse"
       id="clipPath16">
      <path
         d="M 0,0 H 2195.8333 V 819.69794 H 0 Z"
         transform="matrix(0.33426947,0,0,0.33426947,-0.49999999,-0.49999999)"
         clip-rule="evenodd"
         id="path16" />
    </clipPath>
    <clipPath
       clipPathUnits="userSpaceOnUse"
       id="clipPath17">
      <path
         d="M 0,0 H 2195.8333 V 819.69794 H 0 Z"
         transform="matrix(0.33426611,0,0,0.33426611,-161.98437,-240)"
         clip-rule="evenodd"
         id="path17" />
    </clipPath>
    <clipPath
       clipPathUnits="userSpaceOnUse"
       id="clipPath19">
      <path
         d="M 0,0 H 2195.8333 V 819.69794 H 0 Z"
         transform="matrix(0.33426947,0,0,0.33426947,-0.49999999,-0.49999999)"
         clip-rule="evenodd"
         id="path19" />
    </clipPath>
    <clipPath
       clipPathUnits="userSpaceOnUse"
       id="clipPath20">
      <path
         d="M 0,0 H 2195.8333 V 819.69794 H 0 Z"
         transform="matrix(0.33426611,0,0,0.33426611,-529.03125,-69.999999)"
         clip-rule="evenodd"
         id="path20" />
    </clipPath>
    <clipPath
       clipPathUnits="userSpaceOnUse"
       id="clipPath22">
      <path
         d="M 0,0 H 2195.8333 V 819.69794 H 0 Z"
         transform="matrix(0.33426947,0,0,0.33426947,-0.49999999,-0.49999999)"
         clip-rule="evenodd"
         id="path22" />
    </clipPath>
    <clipPath
       clipPathUnits="userSpaceOnUse"
       id="clipPath24">
      <path
         d="M 0,0 H 2195.8333 V 819.69794 H 0 Z"
         transform="matrix(0.33426947,0,0,0.33426947,-0.49999999,-0.49999999)"
         clip-rule="evenodd"
         id="path24" />
    </clipPath>
    <clipPath
       clipPathUnits="userSpaceOnUse"
       id="clipPath25">
      <path
         d="M 0,0 H 2195.8333 V 819.69794 H 0 Z"
         transform="matrix(0.33426611,0,0,0.33426611,-534.29688,-100)"
         clip-rule="evenodd"
         id="path25" />
    </clipPath>
    <clipPath
       clipPathUnits="userSpaceOnUse"
       id="clipPath27">
      <path
         d="M 0,0 H 2195.8333 V 819.69794 H 0 Z"
         transform="matrix(0.33426947,0,0,0.33426947,-0.49999999,-0.49999999)"
         clip-rule="evenodd"
         id="path27" />
    </clipPath>
    <clipPath
       clipPathUnits="userSpaceOnUse"
       id="clipPath28">
      <path
         d="M 0,0 H 2195.8333 V 819.69794 H 0 Z"
         transform="matrix(0.33426611,0,0,0.33426611,-466.71875,-123)"
         clip-rule="evenodd"
         id="path28" />
    </clipPath>
    <clipPath
       clipPathUnits="userSpaceOnUse"
       id="clipPath30">
      <path
         d="M 0,0 H 2195.8333 V 819.69794 H 0 Z"
         transform="matrix(0.33426947,0,0,0.33426947,-0.49999999,-0.49999999)"
         clip-rule="evenodd"
         id="path30" />
    </clipPath>
    <clipPath
       clipPathUnits="userSpaceOnUse"
       id="clipPath31">
      <path
         d="M 0,0 H 2195.8333 V 819.69794 H 0 Z"
         transform="matrix(0.33426611,0,0,0.33426611,-502.84375,-116)"
         clip-rule="evenodd"
         id="path31" />
    </clipPath>
    <clipPath
       clipPathUnits="userSpaceOnUse"
       id="clipPath32">
      <path
         d="M 0,0 H 2195.8333 V 819.69794 H 0 Z"
         transform="matrix(0.33426611,0,0,0.33426611,-502.54688,-130)"
         clip-rule="evenodd"
         id="path32" />
    </clipPath>
    <clipPath
       clipPathUnits="userSpaceOnUse"
       id="clipPath34">
      <path
         d="M 0,0 H 2195.8333 V 819.69794 H 0 Z"
         transform="matrix(0.33426947,0,0,0.33426947,-0.49999999,-0.49999999)"
         clip-rule="evenodd"
         id="path34" />
    </clipPath>
    <clipPath
       clipPathUnits="userSpaceOnUse"
       id="clipPath35">
      <path
         d="M 0,0 H 2195.8333 V 819.69794 H 0 Z"
         transform="matrix(0.33426611,0,0,0.33426611,-467.9375,-148)"
         clip-rule="evenodd"
         id="path35" />
    </clipPath>
    <clipPath
       clipPathUnits="userSpaceOnUse"
       id="clipPath37">
      <path
         d="M 0,0 H 2195.8333 V 819.69794 H 0 Z"
         transform="matrix(0.33426947,0,0,0.33426947,-0.49999999,-0.49999999)"
         clip-rule="evenodd"
         id="path37" />
    </clipPath>
    <clipPath
       clipPathUnits="userSpaceOnUse"
       id="clipPath38">
      <path
         d="M 0,0 H 2195.8333 V 819.69794 H 0 Z"
         transform="matrix(0.33426611,0,0,0.33426611,-498.8125,-147)"
         clip-rule="evenodd"
         id="path38" />
    </clipPath>
    <clipPath
       clipPathUnits="userSpaceOnUse"
       id="clipPath40">
      <path
         d="M 0,0 H 2195.8333 V 819.69794 H 0 Z"
         transform="matrix(0.33426947,0,0,0.33426947,-0.49999999,-0.49999999)"
         clip-rule="evenodd"
         id="path40" />
    </clipPath>
    <clipPath
       clipPathUnits="userSpaceOnUse"
       id="clipPath41">
      <path
         d="M 0,0 H 2195.8333 V 819.69794 H 0 Z"
         transform="matrix(0.33426611,0,0,0.33426611,-602.45313,-116)"
         clip-rule="evenodd"
         id="path41" />
    </clipPath>
    <clipPath
       clipPathUnits="userSpaceOnUse"
       id="clipPath42">
      <path
         d="M 0,0 H 2195.8333 V 819.69794 H 0 Z"
         transform="matrix(0.33426611,0,0,0.33426611,-612.53125,-130)"
         clip-rule="evenodd"
         id="path42" />
    </clipPath>
    <clipPath
       clipPathUnits="userSpaceOnUse"
       id="clipPath44">
      <path
         d="M 0,0 H 2195.8333 V 819.69794 H 0 Z"
         transform="matrix(0.33426947,0,0,0.33426947,-0.49999999,-0.49999999)"
         clip-rule="evenodd"
         id="path44" />
    </clipPath>
    <clipPath
       clipPathUnits="userSpaceOnUse"
       id="clipPath45">
      <path
         d="M 0,0 H 2195.8333 V 819.69794 H 0 Z"
         transform="matrix(0.33426611,0,0,0.33426611,-626.98437,-161)"
         clip-rule="evenodd"
         id="path45" />
    </clipPath>
    <clipPath
       clipPathUnits="userSpaceOnUse"
       id="clipPath47">
      <path
         d="M 0,0 H 2195.8333 V 819.69794 H 0 Z"
         transform="matrix(0.33426947,0,0,0.33426947,-0.49999999,-0.49999999)"
         clip-rule="evenodd"
         id="path47" />
    </clipPath>
    <clipPath
       clipPathUnits="userSpaceOnUse"
       id="clipPath48">
      <path
         d="M 0,0 H 2195.8333 V 819.69794 H 0 Z"
         transform="matrix(0.33426611,0,0,0.33426611,-309.98438,-55)"
         clip-rule="evenodd"
         id="path48" />
    </clipPath>
    <clipPath
       clipPathUnits="userSpaceOnUse"
       id="clipPath50">
      <path
         d="M 0,0 H 2195.8333 V 819.69794 H 0 Z"
         transform="matrix(0.33426947,0,0,0.33426947,-0.49999999,-0.49999999)"
         clip-rule="evenodd"
         id="path50" />
    </clipPath>
    <clipPath
       clipPathUnits="userSpaceOnUse"
       id="clipPath52">
      <path
         d="M 0,0 H 2195.8333 V 819.69794 H 0 Z"
         transform="matrix(0.33426947,0,0,0.33426947,-0.49999999,-0.49999999)"
         clip-rule="evenodd"
         id="path52" />
    </clipPath>
    <clipPath
       clipPathUnits="userSpaceOnUse"
       id="clipPath54">
      <path
         d="M 0,0 H 2195.8333 V 819.69794 H 0 Z"
         transform="matrix(0.33426947,0,0,0.33426947,-0.49999999,-0.49999999)"
         clip-rule="evenodd"
         id="path54" />
    </clipPath>
    <clipPath
       clipPathUnits="userSpaceOnUse"
       id="clipPath55">
      <path
         d="M 0,0 H 2195.8333 V 819.69794 H 0 Z"
         transform="matrix(0.33426611,0,0,0.33426611,-294.64063,-80)"
         clip-rule="evenodd"
         id="path55" />
    </clipPath>
    <clipPath
       clipPathUnits="userSpaceOnUse"
       id="clipPath57">
      <path
         d="M 0,0 H 2195.8333 V 819.69794 H 0 Z"
         transform="matrix(0.33426947,0,0,0.33426947,-0.49999999,-0.49999999)"
         clip-rule="evenodd"
         id="path57" />
    </clipPath>
    <clipPath
       clipPathUnits="userSpaceOnUse"
       id="clipPath58">
      <path
         d="M 0,0 H 2195.8333 V 819.69794 H 0 Z"
         transform="matrix(0.33426611,0,0,0.33426611,-142.87499,-55)"
         clip-rule="evenodd"
         id="path58" />
    </clipPath>
    <clipPath
       clipPathUnits="userSpaceOnUse"
       id="clipPath60">
      <path
         d="M 0,0 H 2195.8333 V 819.69794 H 0 Z"
         transform="matrix(0.33426947,0,0,0.33426947,-0.49999999,-0.49999999)"
         clip-rule="evenodd"
         id="path60" />
    </clipPath>
    <clipPath
       clipPathUnits="userSpaceOnUse"
       id="clipPath62">
      <path
         d="M 0,0 H 2195.8333 V 819.69794 H 0 Z"
         transform="matrix(0.33426947,0,0,0.33426947,-0.49999999,-0.49999999)"
         clip-rule="evenodd"
         id="path62" />
    </clipPath>
    <clipPath
       clipPathUnits="userSpaceOnUse"
       id="clipPath64">
      <path
         d="M 0,0 H 2195.8333 V 819.69794 H 0 Z"
         transform="matrix(0.33426947,0,0,0.33426947,-0.49999999,-0.49999999)"
         clip-rule="evenodd"
         id="path64" />
    </clipPath>
    <clipPath
       clipPathUnits="userSpaceOnUse"
       id="clipPath65">
      <path
         d="M 0,0 H 2195.8333 V 819.69794 H 0 Z"
         transform="matrix(0.33426611,0,0,0.33426611,-179.65625,-80)"
         clip-rule="evenodd"
         id="path65" />
    </clipPath>
    <clipPath
       clipPathUnits="userSpaceOnUse"
       id="clipPath67">
      <path
         d="M 0,0 H 2195.8333 V 819.69794 H 0 Z"
         transform="matrix(0.33426947,0,0,0.33426947,-0.49999999,-0.49999999)"
         clip-rule="evenodd"
         id="path67" />
    </clipPath>
    <clipPath
       clipPathUnits="userSpaceOnUse"
       id="clipPath69">
      <path
         d="M 0,0 H 2195.8333 V 819.69794 H 0 Z"
         transform="matrix(0.33426947,0,0,0.33426947,-0.49999999,-0.49999999)"
         clip-rule="evenodd"
         id="path69" />
    </clipPath>
    <clipPath
       clipPathUnits="userSpaceOnUse"
       id="clipPath71">
      <path
         d="M 0,0 H 2195.8333 V 819.69794 H 0 Z"
         transform="matrix(0.33426947,0,0,0.33426947,-0.49999999,-0.49999999)"
         clip-rule="evenodd"
         id="path71" />
    </clipPath>
    <clipPath
       clipPathUnits="userSpaceOnUse"
       id="clipPath72">
      <path
         d="M 0,0 H 2195.8333 V 819.69794 H 0 Z"
         transform="matrix(0.33426611,0,0,0.33426611,-148.29687,-128)"
         clip-rule="evenodd"
         id="path72" />
    </clipPath>
    <clipPath
       clipPathUnits="userSpaceOnUse"
       id="clipPath74">
      <path
         d="M 0,0 H 2195.8333 V 819.69794 H 0 Z"
         transform="matrix(0.33426947,0,0,0.33426947,-0.49999999,-0.49999999)"
         clip-rule="evenodd"
         id="path74" />
    </clipPath>
    <clipPath
       clipPathUnits="userSpaceOnUse"
       id="clipPath76">
      <path
         d="M 0,0 H 2195.8333 V 819.69794 H 0 Z"
         transform="matrix(0.33426947,0,0,0.33426947,-0.49999999,-0.49999999)"
         clip-rule="evenodd"
         id="path76" />
    </clipPath>
    <clipPath
       clipPathUnits="userSpaceOnUse"
       id="clipPath78">
      <path
         d="M 0,0 H 2195.8333 V 819.69794 H 0 Z"
         transform="matrix(0.33426947,0,0,0.33426947,-0.49999999,-0.49999999)"
         clip-rule="evenodd"
         id="path78" />
    </clipPath>
    <clipPath
       clipPathUnits="userSpaceOnUse"
       id="clipPath79">
      <path
         d="M 0,0 H 2195.8333 V 819.69794 H 0 Z"
         transform="matrix(0.33426611,0,0,0.33426611,-171.32812,-215)"
         clip-rule="evenodd"
         id="path79" />
    </clipPath>
    <clipPath
       clipPathUnits="userSpaceOnUse"
       id="clipPath81">
      <path
         d="M 0,0 H 2195.8333 V 819.69794 H 0 Z"
         transform="matrix(0.33426947,0,0,0.33426947,-0.49999999,-0.49999999)"
         clip-rule="evenodd"
         id="path81" />
    </clipPath>
    <clipPath
       clipPathUnits="userSpaceOnUse"
       id="clipPath83">
      <path
         d="M 0,0 H 2195.8333 V 819.69794 H 0 Z"
         transform="matrix(0.33426947,0,0,0.33426947,-0.49999999,-0.49999999)"
         clip-rule="evenodd"
         id="path83" />
    </clipPath>
    <clipPath
       clipPathUnits="userSpaceOnUse"
       id="clipPath85">
      <path
         d="M 0,0 H 2195.8333 V 819.69794 H 0 Z"
         transform="matrix(0.33426947,0,0,0.33426947,-0.49999999,-0.49999999)"
         clip-rule="evenodd"
         id="path85" />
    </clipPath>
    <clipPath
       clipPathUnits="userSpaceOnUse"
       id="clipPath86">
      <path
         d="M 0,0 H 2195.8333 V 819.69794 H 0 Z"
         transform="matrix(0.33426611,0,0,0.33426611,-306.98438,-242.99999)"
         clip-rule="evenodd"
         id="path86" />
    </clipPath>
    <clipPath
       clipPathUnits="userSpaceOnUse"
       id="clipPath88">
      <path
         d="M 0,0 H 2195.8333 V 819.69794 H 0 Z"
         transform="matrix(0.33426947,0,0,0.33426947,-0.49999999,-0.49999999)"
         clip-rule="evenodd"
         id="path88" />
    </clipPath>
    <clipPath
       clipPathUnits="userSpaceOnUse"
       id="clipPath89">
      <path
         d="M 0,0 H 2195.8333 V 819.69794 H 0 Z"
         transform="matrix(0.33426611,0,0,0.33426611,-322.65625,-215)"
         clip-rule="evenodd"
         id="path89" />
    </clipPath>
    <clipPath
       clipPathUnits="userSpaceOnUse"
       id="clipPath91">
      <path
         d="M 0,0 H 2195.8333 V 819.69794 H 0 Z"
         transform="matrix(0.33426947,0,0,0.33426947,-0.49999999,-0.49999999)"
         clip-rule="evenodd"
         id="path91" />
    </clipPath>
    <clipPath
       clipPathUnits="userSpaceOnUse"
       id="clipPath92">
      <path
         d="M 0,0 H 2195.8333 V 819.69794 H 0 Z"
         transform="matrix(0.33426611,0,0,0.33426611,-44.984375,-55)"
         clip-rule="evenodd"
         id="path92" />
    </clipPath>
    <clipPath
       clipPathUnits="userSpaceOnUse"
       id="clipPath94">
      <path
         d="M 0,0 H 2195.8333 V 819.69794 H 0 Z"
         transform="matrix(0.33426947,0,0,0.33426947,-0.49999999,-0.49999999)"
         clip-rule="evenodd"
         id="path94" />
    </clipPath>
    <clipPath
       clipPathUnits="userSpaceOnUse"
       id="clipPath95">
      <path
         d="M 0,0 H 2195.8333 V 819.69794 H 0 Z"
         transform="matrix(0.33426611,0,0,0.33426611,-35.21875,-80)"
         clip-rule="evenodd"
         id="path95" />
    </clipPath>
  </defs>
  <sodipodi:namedview
     id="namedview1"
     pagecolor="#ffffff"
     bordercolor="#000000"
     borderopacity="0.25"
     inkscape:showpageshadow="2"
     inkscape:pageopacity="0.0"
     inkscape:pagecheckerboard="0"
     inkscape:deskcolor="#d1d1d1">
    <inkscape:page
       x="0"
       y="0"
       inkscape:label="1"
       id="page1"
       width="702.71997"
       height="264"
       margin="0"
       bleed="0" />
  </sodipodi:namedview>
  <g
     id="g1"
     inkscape:groupmode="layer"
     inkscape:label="1">
    <path
       id="path1"
       d="M 0,0 H 734 V 275 H 0 Z"
       style="fill:#ffffff;fill-opacity:1;fill-rule:nonzero;stroke:none"
       transform="scale(0.95731145)"
       clip-path="url(#clipPath2)" />
    <path
       id="path3"
       d="M 1,31 H 441 V 271 H 1 Z"
       style="fill:#f5f5f5;fill-opacity:1;fill-rule:nonzero;stroke:#666666;stroke-width:1;stroke-linecap:butt;stroke-linejoin:miter;stroke-miterlimit:10;stroke-dasharray:none;stroke-opacity:1"
       transform="matrix(0.95731145,0,0,0.95731145,0.47865572,0.47865572)"
       clip-path="url(#clipPath4)" />
    <path
       id="path5"
       d="M 1,1 H 441 V 31 H 1 Z"
       style="fill:#f5f5f5;fill-opacity:1;fill-rule:nonzero;stroke:#666666;stroke-width:1;stroke-linecap:butt;stroke-linejoin:miter;stroke-miterlimit:10;stroke-dasharray:none;stroke-opacity:1"
       transform="matrix(0.95731145,0,0,0.95731145,0.47865572,0.47865572)"
       clip-path="url(#clipPath6)" />
    <text
       id="text6"
       xml:space="preserve"
       transform="matrix(0.95732105,0,0,0.95732105,139.67912,21.061063)"
       clip-path="url(#clipPath7)"><tspan
         style="font-variant:normal;font-weight:700;font-size:17px;font-family:Helvetica;writing-mode:lr-tb;fill:#333333;fill-opacity:1;fill-rule:nonzero;stroke:none"
         x="0 10.384277 19.838867 25.5 34.95459 40.640625 45.36377 50.086914 61.425781 66.148926 76.533203 86.91748 91.640625 96.36377 106.74805 111.47119 121.85547 126.57861 136.96289"
         y="0"
         sodipodi:role="line"
         id="tspan6">Later, Sign In Flow</tspan></text>
    <path
       id="path8"
       d="m 191,178.5 v 13.63"
       style="fill:none;stroke:#000000;stroke-width:1;stroke-linecap:butt;stroke-linejoin:miter;stroke-miterlimit:10;stroke-dasharray:none;stroke-opacity:1"
       transform="matrix(0.95731145,0,0,0.95731145,0.47865572,0.47865572)"
       clip-path="url(#clipPath9)" />
    <path
       id="path10"
       d="m 191,197.38 -3.5,-7 3.5,1.75 3.5,-1.75 z"
       style="fill:#000000;fill-opacity:1;fill-rule:nonzero;stroke:#000000;stroke-width:1;stroke-linecap:butt;stroke-linejoin:miter;stroke-miterlimit:10;stroke-dasharray:none;stroke-opacity:1"
       transform="matrix(0.95731145,0,0,0.95731145,0.47865572,0.47865572)"
       clip-path="url(#clipPath11)" />
    <path
       id="path12"
       d="m 111,148.5 h 160 v 30 H 111 Z"
       style="fill:#dae8fc;fill-opacity:1;fill-rule:nonzero;stroke:#6c8ebf;stroke-width:1;stroke-linecap:butt;stroke-linejoin:miter;stroke-miterlimit:10;stroke-dasharray:none;stroke-opacity:1"
       transform="matrix(0.95731145,0,0,0.95731145,0.47865572,0.47865572)"
       clip-path="url(#clipPath13)" />
    <text
       id="text13"
       xml:space="preserve"
       transform="matrix(0.95732105,0,0,0.95732105,122.20802,161.78726)"
       clip-path="url(#clipPath14)"><tspan
         style="font-variant:normal;font-weight:700;font-size:15px;font-family:Helvetica;writing-mode:lr-tb;fill:#000000;fill-opacity:1;fill-rule:nonzero;stroke:none"
         x="0 10.83252 19.174805 27.51709 36.679688 40.847168 50.009766 59.172363 63.339844 72.502441 81.665039 90.827637 99.169922 104.16504 108.33252 117.49512"
         y="0"
         sodipodi:role="line"
         id="tspan13">Hashing Function</tspan></text>
    <path
       id="path15"
       d="m 151,221 h 80 v 30 h -80 z"
       style="fill:#ffffff;fill-opacity:1;fill-rule:nonzero;stroke:#000000;stroke-width:1;stroke-linecap:butt;stroke-linejoin:miter;stroke-miterlimit:10;stroke-dasharray:none;stroke-opacity:1"
       transform="matrix(0.95731145,0,0,0.95731145,0.47865572,0.47865572)"
       clip-path="url(#clipPath16)" />
    <g
       id="g16" />
    <text
       id="text16"
       xml:space="preserve"
       transform="matrix(0.95732105,0,0,0.95732105,155.07105,229.75705)"
       clip-path="url(#clipPath17)"><tspan
         style="font-variant:normal;font-weight:normal;font-size:12px;font-family:Helvetica;writing-mode:lr-tb;fill:#000000;fill-opacity:1;fill-rule:nonzero;stroke:none"
         x="0 2.6660156 8.6660156 14.666016 21.339844 24.005859 30.005859 36.679688 42.679688 45.345703 51.345703"
         y="0"
         sodipodi:role="line"
         id="tspan16">lksdjﬂakjsd</tspan></text>
    <path
       id="path18"
       d="m 451,53.5 h 260 v 20 H 451 Z"
       style="fill:#e1d5e7;fill-opacity:1;fill-rule:nonzero;stroke:#9673a6;stroke-width:1;stroke-linecap:butt;stroke-linejoin:miter;stroke-miterlimit:10;stroke-dasharray:none;stroke-opacity:1"
       transform="matrix(0.95731145,0,0,0.95731145,0.47865572,0.47865572)"
       clip-path="url(#clipPath19)" />
    <text
       id="text19"
       xml:space="preserve"
       transform="matrix(0.95732105,0,0,0.95732105,506.45275,67.012473)"
       clip-path="url(#clipPath20)"><tspan
         style="font-variant:normal;font-weight:700;font-size:15px;font-family:Helvetica;writing-mode:lr-tb;fill:#000000;fill-opacity:1;fill-rule:nonzero;stroke:none"
         x="0 8.8989258 18.061523 27.224121 33.061523 37.229004 48.061523 56.403809 61.398926 69.741211 78.903809 87.246094 95.588379"
         y="0"
         sodipodi:role="line"
         id="tspan19">Your Database</tspan></text>
    <path
       id="path21"
       d="m 451,73.5 h 260 v 150 H 451 Z"
       style="fill:#e1d5e7;fill-opacity:1;fill-rule:nonzero;stroke:#9673a6;stroke-width:1;stroke-linecap:butt;stroke-linejoin:miter;stroke-miterlimit:10;stroke-dasharray:none;stroke-opacity:1"
       transform="matrix(0.95731145,0,0,0.95731145,0.47865572,0.47865572)"
       clip-path="url(#clipPath22)" />
    <path
       id="path23"
       d="m 461,83.5 h 240 v 20 H 461 Z"
       style="fill:#d5e8d4;fill-opacity:1;fill-rule:nonzero;stroke:#82b366;stroke-width:1;stroke-linecap:butt;stroke-linejoin:miter;stroke-miterlimit:10;stroke-dasharray:none;stroke-opacity:1"
       transform="matrix(0.95731145,0,0,0.95731145,0.47865572,0.47865572)"
       clip-path="url(#clipPath24)" />
    <text
       id="text24"
       xml:space="preserve"
       transform="matrix(0.95732105,0,0,0.95732105,511.49365,95.732105)"
       clip-path="url(#clipPath25)"><tspan
         style="font-variant:normal;font-weight:normal;font-size:15px;font-family:Helvetica;writing-mode:lr-tb;fill:#000000;fill-opacity:1;fill-rule:nonzero;stroke:none"
         x="0 7.5 15.842285 24.18457 27.51709 35.859375 40.026855 48.369141 52.536621 56.704102 65.046387 72.546387 80.888672 85.883789"
         y="0"
         sodipodi:role="line"
         id="tspan24">Table of users</tspan></text>
    <path
       id="path26"
       d="m 461,103.5 h 20 v 30 h -20 z"
       style="fill:#dae8fc;fill-opacity:1;fill-rule:nonzero;stroke:#6c8ebf;stroke-width:1;stroke-linecap:butt;stroke-linejoin:miter;stroke-miterlimit:10;stroke-dasharray:none;stroke-opacity:1"
       transform="matrix(0.95731145,0,0,0.95731145,0.47865572,0.47865572)"
       clip-path="url(#clipPath27)" />
    <text
       id="text27"
       xml:space="preserve"
       transform="matrix(0.95732105,0,0,0.95732105,446.79968,117.75049)"
       clip-path="url(#clipPath28)"><tspan
         style="font-style:oblique;font-variant:normal;font-weight:normal;font-size:11px;font-family:Helvetica;writing-mode:lr-tb;fill:#000000;fill-opacity:1;fill-rule:nonzero;stroke:none"
         x="0 2.4438477"
         y="0"
         sodipodi:role="line"
         id="tspan27">id</tspan></text>
    <path
       id="path29"
       d="m 481,103.5 h 70 v 30 h -70 z"
       style="fill:#dae8fc;fill-opacity:1;fill-rule:nonzero;stroke:#6c8ebf;stroke-width:1;stroke-linecap:butt;stroke-linejoin:miter;stroke-miterlimit:10;stroke-dasharray:none;stroke-opacity:1"
       transform="matrix(0.95731145,0,0,0.95731145,0.47865572,0.47865572)"
       clip-path="url(#clipPath30)" />
    <text
       id="text30"
       xml:space="preserve"
       transform="matrix(0.95732105,0,0,0.95732105,481.38291,111.04924)"
       clip-path="url(#clipPath31)"><tspan
         style="font-style:oblique;font-variant:normal;font-weight:normal;font-size:11px;font-family:Helvetica;writing-mode:lr-tb;fill:#000000;fill-opacity:1;fill-rule:nonzero;stroke:none"
         x="0 6.1176758 15.280762 21.398438 23.842285"
         y="0"
         sodipodi:role="line"
         id="tspan30">email</tspan></text>
    <text
       id="text31"
       xml:space="preserve"
       transform="matrix(0.95732105,0,0,0.95732105,481.09871,124.45174)"
       clip-path="url(#clipPath32)"><tspan
         style="font-style:oblique;font-variant:normal;font-weight:normal;font-size:11px;font-family:Helvetica;writing-mode:lr-tb;fill:#000000;fill-opacity:1;fill-rule:nonzero;stroke:none"
         x="0 5.5 8.5561523 12.219238 14.663086 20.780762"
         y="0"
         sodipodi:role="line"
         id="tspan31">string</tspan></text>
    <path
       id="path33"
       d="m 461,133.5 h 20 v 20 h -20 z"
       style="fill:#ffffff;fill-opacity:1;fill-rule:nonzero;stroke:#000000;stroke-width:1;stroke-linecap:butt;stroke-linejoin:miter;stroke-miterlimit:10;stroke-dasharray:none;stroke-opacity:1"
       transform="matrix(0.95731145,0,0,0.95731145,0.47865572,0.47865572)"
       clip-path="url(#clipPath34)" />
    <text
       id="text34"
       xml:space="preserve"
       transform="matrix(0.95732105,0,0,0.95732105,447.96642,141.68352)"
       clip-path="url(#clipPath35)"><tspan
         style="font-variant:normal;font-weight:normal;font-size:11px;font-family:Helvetica;writing-mode:lr-tb;fill:#000000;fill-opacity:1;fill-rule:nonzero;stroke:none"
         x="0"
         y="0"
         id="tspan34">1</tspan></text>
    <path
       id="path36"
       d="m 481,133.5 h 70 v 20 h -70 z"
       style="fill:#ffffff;fill-opacity:1;fill-rule:nonzero;stroke:#000000;stroke-width:1;stroke-linecap:butt;stroke-linejoin:miter;stroke-miterlimit:10;stroke-dasharray:none;stroke-opacity:1"
       transform="matrix(0.95731145,0,0,0.95731145,0.47865572,0.47865572)"
       clip-path="url(#clipPath37)" />
    <text
       id="text37"
       xml:space="preserve"
       transform="matrix(0.95732105,0,0,0.95732105,477.52371,140.72619)"
       clip-path="url(#clipPath38)"><tspan
         style="font-variant:normal;font-weight:normal;font-size:8px;font-family:Helvetica;writing-mode:lr-tb;fill:#000000;fill-opacity:1;fill-rule:nonzero;stroke:none"
         x="0 4.4492188 12.570312 17.019531 19.242188 23.242188 27.691406"
         y="0"
         sodipodi:role="line"
         id="tspan37">a@a.com</tspan></text>
    <path
       id="path39"
       d="m 551.01001,103.5 h 150 v 30 h -150 z"
       style="fill:#dae8fc;fill-opacity:1;fill-rule:nonzero;stroke:#6c8ebf;stroke-width:1;stroke-linecap:butt;stroke-linejoin:miter;stroke-miterlimit:10;stroke-dasharray:none;stroke-opacity:1"
       transform="matrix(0.95731145,0,0,0.95731145,0.47865572,0.47865572)"
       clip-path="url(#clipPath40)" />
    <text
       id="text40"
       xml:space="preserve"
       transform="matrix(0.95732105,0,0,0.95732105,576.74106,111.04924)"
       clip-path="url(#clipPath41)"><tspan
         style="font-style:oblique;font-variant:normal;font-weight:normal;font-size:11px;font-family:Helvetica;writing-mode:lr-tb;fill:#000000;fill-opacity:1;fill-rule:nonzero;stroke:none"
         x="0 6.1176758 12.235352 17.735352 23.235352 31.179199 37.296875 40.959961"
         y="0"
         sodipodi:role="line"
         id="tspan40">password</tspan></text>
    <text
       id="text41"
       xml:space="preserve"
       transform="matrix(0.95732105,0,0,0.95732105,586.38906,124.45174)"
       clip-path="url(#clipPath42)"><tspan
         style="font-style:oblique;font-variant:normal;font-weight:normal;font-size:11px;font-family:Helvetica;writing-mode:lr-tb;fill:#000000;fill-opacity:1;fill-rule:nonzero;stroke:none"
         x="0 5.5 8.5561523 12.219238 14.663086 20.780762"
         y="0"
         sodipodi:role="line"
         id="tspan41">string</tspan></text>
    <path
       id="path43"
       d="m 571.01001,133.5 h 160 V 181 h -160 z"
       style="fill:#ffffff;fill-opacity:1;fill-rule:nonzero;stroke:#000000;stroke-width:1;stroke-linecap:butt;stroke-linejoin:miter;stroke-miterlimit:10;stroke-dasharray:none;stroke-opacity:1"
       transform="matrix(0.95731145,0,0,0.95731145,0.47865572,0.47865572)"
       clip-path="url(#clipPath44)" />
    <text
       id="text44"
       xml:space="preserve"
       transform="matrix(0.95732105,0,0,0.95732105,600.22534,154.12869)"
       clip-path="url(#clipPath45)"><tspan
         style="font-variant:normal;font-weight:normal;font-size:12px;font-family:Helvetica;writing-mode:lr-tb;fill:#000000;fill-opacity:1;fill-rule:nonzero;stroke:none"
         x="0 6 12.673828 15.339844 18.673828 22.007812 28.681641 35.355469 41.355469"
         y="0"
         sodipodi:role="line"
         id="tspan44">salt.hash</tspan></text>
    <path
       id="path46"
       d="m 271,38.5 h 100 v 25 H 271 Z"
       style="fill:#d5e8d4;fill-opacity:1;fill-rule:nonzero;stroke:#82b366;stroke-width:1;stroke-linecap:butt;stroke-linejoin:miter;stroke-miterlimit:10;stroke-dasharray:none;stroke-opacity:1"
       transform="matrix(0.95731145,0,0,0.95731145,0.47865572,0.47865572)"
       clip-path="url(#clipPath47)" />
    <text
       id="text47"
       xml:space="preserve"
       transform="matrix(0.95732105,0,0,0.95732105,296.75457,52.652658)"
       clip-path="url(#clipPath48)"><tspan
         style="font-variant:normal;font-weight:700;font-size:12px;font-family:Helvetica;writing-mode:lr-tb;fill:#000000;fill-opacity:1;fill-rule:nonzero;stroke:none"
         x="0 8.0039062 14.677734 18.011719"
         y="0"
         sodipodi:role="line"
         id="tspan47">Salt</tspan></text>
    <path
       id="path49"
       d="m 321,88.5 v 20 H 251 V 91 h -60 v 13.63"
       style="fill:none;stroke:#000000;stroke-width:1;stroke-linecap:butt;stroke-linejoin:miter;stroke-miterlimit:10;stroke-dasharray:none;stroke-opacity:1"
       transform="matrix(0.95731145,0,0,0.95731145,0.47865572,0.47865572)"
       clip-path="url(#clipPath50)" />
    <path
       id="path51"
       d="m 191,109.88 -3.5,-7 3.5,1.75 3.5,-1.75 z"
       style="fill:#000000;fill-opacity:1;fill-rule:nonzero;stroke:#000000;stroke-width:1;stroke-linecap:butt;stroke-linejoin:miter;stroke-miterlimit:10;stroke-dasharray:none;stroke-opacity:1"
       transform="matrix(0.95731145,0,0,0.95731145,0.47865572,0.47865572)"
       clip-path="url(#clipPath52)" />
    <path
       id="path53"
       d="m 271,63.5 h 100 v 25 H 271 Z"
       style="fill:#d5e8d4;fill-opacity:1;fill-rule:nonzero;stroke:#82b366;stroke-width:1;stroke-linecap:butt;stroke-linejoin:miter;stroke-miterlimit:10;stroke-dasharray:none;stroke-opacity:1"
       transform="matrix(0.95731145,0,0,0.95731145,0.47865572,0.47865572)"
       clip-path="url(#clipPath54)" />
    <text
       id="text54"
       xml:space="preserve"
       transform="matrix(0.95732105,0,0,0.95732105,282.06568,76.585684)"
       clip-path="url(#clipPath55)"><tspan
         style="font-variant:normal;font-weight:normal;font-size:12px;font-family:Helvetica;writing-mode:lr-tb;fill:#000000;fill-opacity:1;fill-rule:nonzero;stroke:none"
         x="0 6.6738281 13.347656 20.021484 26.021484 32.695312 39.369141 46.042969"
         y="0"
         sodipodi:role="line"
         id="tspan54">ab2ca334</tspan></text>
    <path
       id="path56"
       d="m 141,38.5 h 100 v 25 H 141 Z"
       style="fill:#ffffff;fill-opacity:1;fill-rule:nonzero;stroke:#000000;stroke-width:1;stroke-linecap:butt;stroke-linejoin:miter;stroke-miterlimit:10;stroke-dasharray:none;stroke-opacity:1"
       transform="matrix(0.95731145,0,0,0.95731145,0.47865572,0.47865572)"
       clip-path="url(#clipPath57)" />
    <text
       id="text57"
       xml:space="preserve"
       transform="matrix(0.95732105,0,0,0.95732105,136.77724,52.652658)"
       clip-path="url(#clipPath58)"><tspan
         style="font-variant:normal;font-weight:700;font-size:12px;font-family:Helvetica;writing-mode:lr-tb;fill:#000000;fill-opacity:1;fill-rule:nonzero;stroke:none"
         x="0 8.6660156 15.339844 22.013672 26.683594 29.537109 36.210938 39.544922 47.548828 54.222656 60.896484 67.570312 76.904297 84.234375 88.904297"
         y="0"
         sodipodi:role="line"
         id="tspan57">User's Password</tspan></text>
    <path
       id="path59"
       d="m 191,88.5 v 16.13"
       style="fill:none;stroke:#000000;stroke-width:1;stroke-linecap:butt;stroke-linejoin:miter;stroke-miterlimit:10;stroke-dasharray:none;stroke-opacity:1"
       transform="matrix(0.95731145,0,0,0.95731145,0.47865572,0.47865572)"
       clip-path="url(#clipPath60)" />
    <path
       id="path61"
       d="m 191,109.88 -3.5,-7 3.5,1.75 3.5,-1.75 z"
       style="fill:#000000;fill-opacity:1;fill-rule:nonzero;stroke:#000000;stroke-width:1;stroke-linecap:butt;stroke-linejoin:miter;stroke-miterlimit:10;stroke-dasharray:none;stroke-opacity:1"
       transform="matrix(0.95731145,0,0,0.95731145,0.47865572,0.47865572)"
       clip-path="url(#clipPath62)" />
    <path
       id="path63"
       d="m 141,63.5 h 100 v 25 H 141 Z"
       style="fill:#ffffff;fill-opacity:1;fill-rule:nonzero;stroke:#000000;stroke-width:1;stroke-linecap:butt;stroke-linejoin:miter;stroke-miterlimit:10;stroke-dasharray:none;stroke-opacity:1"
       transform="matrix(0.95731145,0,0,0.95731145,0.47865572,0.47865572)"
       clip-path="url(#clipPath64)" />
    <text
       id="text64"
       xml:space="preserve"
       transform="matrix(0.95732105,0,0,0.95732105,171.98871,76.585684)"
       clip-path="url(#clipPath65)"><tspan
         style="font-variant:normal;font-weight:normal;font-size:12px;font-family:Helvetica;writing-mode:lr-tb;fill:#000000;fill-opacity:1;fill-rule:nonzero;stroke:none"
         x="0 6.6738281 12.673828 19.347656"
         y="0"
         sodipodi:role="line"
         id="tspan64">asdf</tspan></text>
    <path
       id="path66"
       d="m 191,136 v 6.13"
       style="fill:none;stroke:#000000;stroke-width:1;stroke-linecap:butt;stroke-linejoin:miter;stroke-miterlimit:10;stroke-dasharray:none;stroke-opacity:1"
       transform="matrix(0.95731145,0,0,0.95731145,0.47865572,0.47865572)"
       clip-path="url(#clipPath67)" />
    <path
       id="path68"
       d="m 191,147.38 -3.5,-7 3.5,1.75 3.5,-1.75 z"
       style="fill:#000000;fill-opacity:1;fill-rule:nonzero;stroke:#000000;stroke-width:1;stroke-linecap:butt;stroke-linejoin:miter;stroke-miterlimit:10;stroke-dasharray:none;stroke-opacity:1"
       transform="matrix(0.95731145,0,0,0.95731145,0.47865572,0.47865572)"
       clip-path="url(#clipPath69)" />
    <path
       id="path70"
       d="m 111,111 h 160 v 25 H 111 Z"
       style="fill:#ffffff;fill-opacity:1;fill-rule:nonzero;stroke:#000000;stroke-width:1;stroke-linecap:butt;stroke-linejoin:miter;stroke-miterlimit:10;stroke-dasharray:none;stroke-opacity:1"
       transform="matrix(0.95731145,0,0,0.95731145,0.47865572,0.47865572)"
       clip-path="url(#clipPath71)" />
    <text
       id="text71"
       xml:space="preserve"
       transform="matrix(0.95732105,0,0,0.95732105,141.96772,122.53709)"
       clip-path="url(#clipPath72)"><tspan
         style="font-variant:normal;font-weight:normal;font-size:12px;font-family:Helvetica;writing-mode:lr-tb;fill:#000000;fill-opacity:1;fill-rule:nonzero;stroke:none"
         x="0 6.6738281 12.673828 19.347656 22.681641 26.015625 29.349609 32.683594 39.357422 46.03125 52.705078 58.705078 65.378906 72.052734 78.726562"
         y="0"
         sodipodi:role="line"
         id="tspan71">asdf   ab2ca334</tspan></text>
    <path
       id="path73"
       d="m 231,211 h 20 -10 13.63"
       style="fill:none;stroke:#000000;stroke-width:1;stroke-linecap:butt;stroke-linejoin:miter;stroke-miterlimit:10;stroke-dasharray:none;stroke-opacity:1"
       transform="matrix(0.95731145,0,0,0.95731145,0.47865572,0.47865572)"
       clip-path="url(#clipPath74)" />
    <path
       id="path75"
       d="m 259.88,211 -7,3.5 1.75,-3.5 -1.75,-3.5 z"
       style="fill:#000000;fill-opacity:1;fill-rule:nonzero;stroke:#000000;stroke-width:1;stroke-linecap:butt;stroke-linejoin:miter;stroke-miterlimit:10;stroke-dasharray:none;stroke-opacity:1"
       transform="matrix(0.95731145,0,0,0.95731145,0.47865572,0.47865572)"
       clip-path="url(#clipPath76)" />
    <path
       id="path77"
       d="m 151,198.5 h 80 v 25 h -80 z"
       style="fill:#ffffff;fill-opacity:1;fill-rule:nonzero;stroke:#000000;stroke-width:1;stroke-linecap:butt;stroke-linejoin:miter;stroke-miterlimit:10;stroke-dasharray:none;stroke-opacity:1"
       transform="matrix(0.95731145,0,0,0.95731145,0.47865572,0.47865572)"
       clip-path="url(#clipPath78)" />
    <text
       id="text78"
       xml:space="preserve"
       transform="matrix(0.95732105,0,0,0.95732105,164.01602,205.82403)"
       clip-path="url(#clipPath79)"><tspan
         style="font-variant:normal;font-weight:700;font-size:12px;font-family:Helvetica;writing-mode:lr-tb;fill:#000000;fill-opacity:1;fill-rule:nonzero;stroke:none"
         x="0 9.3339844 16.664062 20.660156 27.990234 35.320312"
         y="0"
         sodipodi:role="line"
         id="tspan78">Output</tspan></text>
    <path
       id="path80"
       d="m 421,238.5 h 75 v -81.2 l 68.64001,-0.04"
       style="fill:none;stroke:#000000;stroke-width:1;stroke-linecap:butt;stroke-linejoin:miter;stroke-miterlimit:10;stroke-dasharray:none;stroke-opacity:1"
       transform="matrix(0.95731145,0,0,0.95731145,0.47865572,0.47865572)"
       clip-path="url(#clipPath81)" />
    <path
       id="path82"
       d="m 569.89001,157.25 -7,3.50999 1.75,-3.5 -1.75,-3.5 z"
       style="fill:#000000;fill-opacity:1;fill-rule:nonzero;stroke:#000000;stroke-width:1;stroke-linecap:butt;stroke-linejoin:miter;stroke-miterlimit:10;stroke-dasharray:none;stroke-opacity:1"
       transform="matrix(0.95731145,0,0,0.95731145,0.47865572,0.47865572)"
       clip-path="url(#clipPath83)" />
    <path
       id="path84"
       d="m 261,223.5 h 160 v 30 H 261 Z"
       style="fill:#ffffff;fill-opacity:1;fill-rule:nonzero;stroke:#000000;stroke-width:1;stroke-linecap:butt;stroke-linejoin:miter;stroke-miterlimit:10;stroke-dasharray:none;stroke-opacity:1"
       transform="matrix(0.95731145,0,0,0.95731145,0.47865572,0.47865572)"
       clip-path="url(#clipPath85)" />
    <text
       id="text85"
       xml:space="preserve"
       transform="matrix(0.95732105,0,0,0.95732105,293.88261,232.62901)"
       clip-path="url(#clipPath86)"><tspan
         style="font-variant:normal;font-weight:normal;font-size:12px;font-family:Helvetica;writing-mode:lr-tb;fill:#000000;fill-opacity:1;fill-rule:nonzero;stroke:none"
         x="0 6.6738281 9.3398438 15.339844 22.013672 28.013672 31.347656 34.013672 40.6875 43.353516 49.353516 55.353516 58.019531 64.693359"
         y="0"
         sodipodi:role="line"
         id="tspan85">alsdkfjalskjdf</tspan></text>
    <path
       id="path87"
       d="m 261,198.5 h 160 v 25 H 261 Z"
       style="fill:#ffffff;fill-opacity:1;fill-rule:nonzero;stroke:#000000;stroke-width:1;stroke-linecap:butt;stroke-linejoin:miter;stroke-miterlimit:10;stroke-dasharray:none;stroke-opacity:1"
       transform="matrix(0.95731145,0,0,0.95731145,0.47865572,0.47865572)"
       clip-path="url(#clipPath88)" />
    <text
       id="text88"
       xml:space="preserve"
       transform="matrix(0.95732105,0,0,0.95732105,308.88562,205.82403)"
       clip-path="url(#clipPath89)"><tspan
         style="font-variant:normal;font-weight:normal;font-size:12px;font-family:Helvetica;writing-mode:lr-tb;fill:#000000;fill-opacity:1;fill-rule:nonzero;stroke:none"
         x="0 8.6660156 16.669922 24.673828 33.339844"
         y="0"
         sodipodi:role="line"
         id="tspan88">HASH!</tspan></text>
    <path
       id="path90"
       d="m 11,38.5 h 100 v 25 H 11 Z"
       style="fill:#ffffff;fill-opacity:1;fill-rule:nonzero;stroke:#000000;stroke-width:1;stroke-linecap:butt;stroke-linejoin:miter;stroke-miterlimit:10;stroke-dasharray:none;stroke-opacity:1"
       transform="matrix(0.95731145,0,0,0.95731145,0.47865572,0.47865572)"
       clip-path="url(#clipPath91)" />
    <text
       id="text91"
       xml:space="preserve"
       transform="matrix(0.95732105,0,0,0.95732105,43.064489,52.652658)"
       clip-path="url(#clipPath92)"><tspan
         style="font-variant:normal;font-weight:700;font-size:12px;font-family:Helvetica;writing-mode:lr-tb;fill:#000000;fill-opacity:1;fill-rule:nonzero;stroke:none"
         x="0 8.0039062 18.673828 25.347656 28.681641"
         y="0"
         sodipodi:role="line"
         id="tspan91">Email</tspan></text>
    <path
       id="path93"
       d="m 11,63.5 h 100 v 25 H 11 Z"
       style="fill:#ffffff;fill-opacity:1;fill-rule:nonzero;stroke:#000000;stroke-width:1;stroke-linecap:butt;stroke-linejoin:miter;stroke-miterlimit:10;stroke-dasharray:none;stroke-opacity:1"
       transform="matrix(0.95731145,0,0,0.95731145,0.47865572,0.47865572)"
       clip-path="url(#clipPath94)" />
    <text
       id="text94"
       xml:space="preserve"
       transform="matrix(0.95732105,0,0,0.95732105,33.715651,76.585684)"
       clip-path="url(#clipPath95)"><tspan
         style="font-variant:normal;font-weight:normal;font-size:12px;font-family:Helvetica;writing-mode:lr-tb;fill:#000000;fill-opacity:1;fill-rule:nonzero;stroke:none"
         x="0 6.6738281 18.855469 25.529297 28.863281 34.863281 41.537109"
         y="0"
         sodipodi:role="line"
         id="tspan94">a@a.com</tspan></text>
  </g>
</svg>
