<?xml version="1.0" encoding="UTF-8" standalone="no"?>
<!-- Created with Inkscape (http://www.inkscape.org/) -->

<svg
   version="1.1"
   id="svg1"
   width="597.44"
   height="264"
   viewBox="0 0 597.44 264"
   sodipodi:docname="nest-22.pdf"
   xmlns:inkscape="http://www.inkscape.org/namespaces/inkscape"
   xmlns:sodipodi="http://sodipodi.sourceforge.net/DTD/sodipodi-0.dtd"
   xmlns="http://www.w3.org/2000/svg"
   xmlns:svg="http://www.w3.org/2000/svg">
  <defs
     id="defs1">
    <clipPath
       clipPathUnits="userSpaceOnUse"
       id="clipPath2">
      <path
         d="M 0,0 H 1866.6666 V 822.64954 H 0 Z"
         transform="scale(0.33428572)"
         clip-rule="evenodd"
         id="path2" />
    </clipPath>
    <clipPath
       clipPathUnits="userSpaceOnUse"
       id="clipPath4">
      <path
         d="M 0,0 H 1866.6666 V 819.65808 H 0 Z"
         transform="matrix(0.33428572,0,0,0.33428572,-0.50000001,-0.50000001)"
         clip-rule="evenodd"
         id="path4" />
    </clipPath>
    <clipPath
       clipPathUnits="userSpaceOnUse"
       id="clipPath6">
      <path
         d="M 0,0 H 1866.6666 V 819.65808 H 0 Z"
         transform="matrix(0.33428572,0,0,0.33428572,-0.50000001,-0.50000001)"
         clip-rule="evenodd"
         id="path6" />
    </clipPath>
    <clipPath
       clipPathUnits="userSpaceOnUse"
       id="clipPath7">
      <path
         d="M 0,0 H 1866.6666 V 819.65808 H 0 Z"
         transform="matrix(0.33428236,0,0,0.33428236,-150.46875,-22)"
         clip-rule="evenodd"
         id="path7" />
    </clipPath>
    <clipPath
       clipPathUnits="userSpaceOnUse"
       id="clipPath9">
      <path
         d="M 0,0 H 1866.6666 V 819.65808 H 0 Z"
         transform="matrix(0.33428572,0,0,0.33428572,-0.50000001,-0.50000001)"
         clip-rule="evenodd"
         id="path9" />
    </clipPath>
    <clipPath
       clipPathUnits="userSpaceOnUse"
       id="clipPath11">
      <path
         d="M 0,0 H 1866.6666 V 819.65808 H 0 Z"
         transform="matrix(0.33428572,0,0,0.33428572,-0.50000001,-0.50000001)"
         clip-rule="evenodd"
         id="path11" />
    </clipPath>
    <clipPath
       clipPathUnits="userSpaceOnUse"
       id="clipPath13">
      <path
         d="M 0,0 H 1866.6666 V 819.65808 H 0 Z"
         transform="matrix(0.33428572,0,0,0.33428572,-0.50000001,-0.50000001)"
         clip-rule="evenodd"
         id="path13" />
    </clipPath>
    <clipPath
       clipPathUnits="userSpaceOnUse"
       id="clipPath14">
      <path
         d="M 0,0 H 1866.6666 V 819.65808 H 0 Z"
         transform="matrix(0.33428236,0,0,0.33428236,-67.65625,-172)"
         clip-rule="evenodd"
         id="path14" />
    </clipPath>
    <clipPath
       clipPathUnits="userSpaceOnUse"
       id="clipPath16">
      <path
         d="M 0,0 H 1866.6666 V 819.65808 H 0 Z"
         transform="matrix(0.33428572,0,0,0.33428572,-0.50000001,-0.50000001)"
         clip-rule="evenodd"
         id="path16" />
    </clipPath>
    <clipPath
       clipPathUnits="userSpaceOnUse"
       id="clipPath17">
      <path
         d="M 0,0 H 1866.6666 V 819.65808 H 0 Z"
         transform="matrix(0.33428236,0,0,0.33428236,-107.64063,-243)"
         clip-rule="evenodd"
         id="path17" />
    </clipPath>
    <clipPath
       clipPathUnits="userSpaceOnUse"
       id="clipPath19">
      <path
         d="M 0,0 H 1866.6666 V 819.65808 H 0 Z"
         transform="matrix(0.33428572,0,0,0.33428572,-0.50000001,-0.50000001)"
         clip-rule="evenodd"
         id="path19" />
    </clipPath>
    <clipPath
       clipPathUnits="userSpaceOnUse"
       id="clipPath20">
      <path
         d="M 0,0 H 1866.6666 V 819.65808 H 0 Z"
         transform="matrix(0.33428236,0,0,0.33428236,-469.03125,-117)"
         clip-rule="evenodd"
         id="path20" />
    </clipPath>
    <clipPath
       clipPathUnits="userSpaceOnUse"
       id="clipPath22">
      <path
         d="M 0,0 H 1866.6666 V 819.65808 H 0 Z"
         transform="matrix(0.33428572,0,0,0.33428572,-0.50000001,-0.50000001)"
         clip-rule="evenodd"
         id="path22" />
    </clipPath>
    <clipPath
       clipPathUnits="userSpaceOnUse"
       id="clipPath24">
      <path
         d="M 0,0 H 1866.6666 V 819.65808 H 0 Z"
         transform="matrix(0.33428572,0,0,0.33428572,-0.50000001,-0.50000001)"
         clip-rule="evenodd"
         id="path24" />
    </clipPath>
    <clipPath
       clipPathUnits="userSpaceOnUse"
       id="clipPath25">
      <path
         d="M 0,0 H 1866.6666 V 819.65808 H 0 Z"
         transform="matrix(0.33428236,0,0,0.33428236,-474.29688,-147)"
         clip-rule="evenodd"
         id="path25" />
    </clipPath>
    <clipPath
       clipPathUnits="userSpaceOnUse"
       id="clipPath27">
      <path
         d="M 0,0 H 1866.6666 V 819.65808 H 0 Z"
         transform="matrix(0.33428572,0,0,0.33428572,-0.50000001,-0.50000001)"
         clip-rule="evenodd"
         id="path27" />
    </clipPath>
    <clipPath
       clipPathUnits="userSpaceOnUse"
       id="clipPath28">
      <path
         d="M 0,0 H 1866.6666 V 819.65808 H 0 Z"
         transform="matrix(0.33428236,0,0,0.33428236,-436.71875,-170)"
         clip-rule="evenodd"
         id="path28" />
    </clipPath>
    <clipPath
       clipPathUnits="userSpaceOnUse"
       id="clipPath30">
      <path
         d="M 0,0 H 1866.6666 V 819.65808 H 0 Z"
         transform="matrix(0.33428572,0,0,0.33428572,-0.50000001,-0.50000001)"
         clip-rule="evenodd"
         id="path30" />
    </clipPath>
    <clipPath
       clipPathUnits="userSpaceOnUse"
       id="clipPath31">
      <path
         d="M 0,0 H 1866.6666 V 819.65808 H 0 Z"
         transform="matrix(0.33428236,0,0,0.33428236,-472.84375,-163)"
         clip-rule="evenodd"
         id="path31" />
    </clipPath>
    <clipPath
       clipPathUnits="userSpaceOnUse"
       id="clipPath32">
      <path
         d="M 0,0 H 1866.6666 V 819.65808 H 0 Z"
         transform="matrix(0.33428236,0,0,0.33428236,-472.54688,-177)"
         clip-rule="evenodd"
         id="path32" />
    </clipPath>
    <clipPath
       clipPathUnits="userSpaceOnUse"
       id="clipPath34">
      <path
         d="M 0,0 H 1866.6666 V 819.65808 H 0 Z"
         transform="matrix(0.33428572,0,0,0.33428572,-0.50000001,-0.50000001)"
         clip-rule="evenodd"
         id="path34" />
    </clipPath>
    <clipPath
       clipPathUnits="userSpaceOnUse"
       id="clipPath35">
      <path
         d="M 0,0 H 1866.6666 V 819.65808 H 0 Z"
         transform="matrix(0.33428236,0,0,0.33428236,-437.9375,-195)"
         clip-rule="evenodd"
         id="path35" />
    </clipPath>
    <clipPath
       clipPathUnits="userSpaceOnUse"
       id="clipPath37">
      <path
         d="M 0,0 H 1866.6666 V 819.65808 H 0 Z"
         transform="matrix(0.33428572,0,0,0.33428572,-0.50000001,-0.50000001)"
         clip-rule="evenodd"
         id="path37" />
    </clipPath>
    <clipPath
       clipPathUnits="userSpaceOnUse"
       id="clipPath38">
      <path
         d="M 0,0 H 1866.6666 V 819.65808 H 0 Z"
         transform="matrix(0.33428236,0,0,0.33428236,-468.8125,-194)"
         clip-rule="evenodd"
         id="path38" />
    </clipPath>
    <clipPath
       clipPathUnits="userSpaceOnUse"
       id="clipPath40">
      <path
         d="M 0,0 H 1866.6666 V 819.65808 H 0 Z"
         transform="matrix(0.33428572,0,0,0.33428572,-0.50000001,-0.50000001)"
         clip-rule="evenodd"
         id="path40" />
    </clipPath>
    <clipPath
       clipPathUnits="userSpaceOnUse"
       id="clipPath41">
      <path
         d="M 0,0 H 1866.6666 V 819.65808 H 0 Z"
         transform="matrix(0.33428236,0,0,0.33428236,-542.45313,-163)"
         clip-rule="evenodd"
         id="path41" />
    </clipPath>
    <clipPath
       clipPathUnits="userSpaceOnUse"
       id="clipPath42">
      <path
         d="M 0,0 H 1866.6666 V 819.65808 H 0 Z"
         transform="matrix(0.33428236,0,0,0.33428236,-552.53125,-177)"
         clip-rule="evenodd"
         id="path42" />
    </clipPath>
    <clipPath
       clipPathUnits="userSpaceOnUse"
       id="clipPath44">
      <path
         d="M 0,0 H 1866.6666 V 819.65808 H 0 Z"
         transform="matrix(0.33428572,0,0,0.33428572,-0.50000001,-0.50000001)"
         clip-rule="evenodd"
         id="path44" />
    </clipPath>
    <clipPath
       clipPathUnits="userSpaceOnUse"
       id="clipPath45">
      <path
         d="M 0,0 H 1866.6666 V 819.65808 H 0 Z"
         transform="matrix(0.33428236,0,0,0.33428236,-524.28125,-195)"
         clip-rule="evenodd"
         id="path45" />
    </clipPath>
    <clipPath
       clipPathUnits="userSpaceOnUse"
       id="clipPath47">
      <path
         d="M 0,0 H 1866.6666 V 819.65808 H 0 Z"
         transform="matrix(0.33428572,0,0,0.33428572,-0.50000001,-0.50000001)"
         clip-rule="evenodd"
         id="path47" />
    </clipPath>
    <clipPath
       clipPathUnits="userSpaceOnUse"
       id="clipPath48">
      <path
         d="M 0,0 H 1866.6666 V 819.65808 H 0 Z"
         transform="matrix(0.33428236,0,0,0.33428236,-199.98438,-55)"
         clip-rule="evenodd"
         id="path48" />
    </clipPath>
    <clipPath
       clipPathUnits="userSpaceOnUse"
       id="clipPath50">
      <path
         d="M 0,0 H 1866.6666 V 819.65808 H 0 Z"
         transform="matrix(0.33428572,0,0,0.33428572,-0.50000001,-0.50000001)"
         clip-rule="evenodd"
         id="path50" />
    </clipPath>
    <clipPath
       clipPathUnits="userSpaceOnUse"
       id="clipPath52">
      <path
         d="M 0,0 H 1866.6666 V 819.65808 H 0 Z"
         transform="matrix(0.33428572,0,0,0.33428572,-0.50000001,-0.50000001)"
         clip-rule="evenodd"
         id="path52" />
    </clipPath>
    <clipPath
       clipPathUnits="userSpaceOnUse"
       id="clipPath54">
      <path
         d="M 0,0 H 1866.6666 V 819.65808 H 0 Z"
         transform="matrix(0.33428572,0,0,0.33428572,-0.50000001,-0.50000001)"
         clip-rule="evenodd"
         id="path54" />
    </clipPath>
    <clipPath
       clipPathUnits="userSpaceOnUse"
       id="clipPath56">
      <path
         d="M 0,0 H 1866.6666 V 819.65808 H 0 Z"
         transform="matrix(0.33428572,0,0,0.33428572,-0.50000001,-0.50000001)"
         clip-rule="evenodd"
         id="path56" />
    </clipPath>
    <clipPath
       clipPathUnits="userSpaceOnUse"
       id="clipPath58">
      <path
         d="M 0,0 H 1866.6666 V 819.65808 H 0 Z"
         transform="matrix(0.33428572,0,0,0.33428572,-0.50000001,-0.50000001)"
         clip-rule="evenodd"
         id="path58" />
    </clipPath>
    <clipPath
       clipPathUnits="userSpaceOnUse"
       id="clipPath59">
      <path
         d="M 0,0 H 1866.6666 V 819.65808 H 0 Z"
         transform="matrix(0.33428236,0,0,0.33428236,-194.31251,-80)"
         clip-rule="evenodd"
         id="path59" />
    </clipPath>
    <clipPath
       clipPathUnits="userSpaceOnUse"
       id="clipPath61">
      <path
         d="M 0,0 H 1866.6666 V 819.65808 H 0 Z"
         transform="matrix(0.33428572,0,0,0.33428572,-0.50000001,-0.50000001)"
         clip-rule="evenodd"
         id="path61" />
    </clipPath>
    <clipPath
       clipPathUnits="userSpaceOnUse"
       id="clipPath62">
      <path
         d="M 0,0 H 1866.6666 V 819.65808 H 0 Z"
         transform="matrix(0.33428236,0,0,0.33428236,-12.875,-55)"
         clip-rule="evenodd"
         id="path62" />
    </clipPath>
    <clipPath
       clipPathUnits="userSpaceOnUse"
       id="clipPath64">
      <path
         d="M 0,0 H 1866.6666 V 819.65808 H 0 Z"
         transform="matrix(0.33428572,0,0,0.33428572,-0.50000001,-0.50000001)"
         clip-rule="evenodd"
         id="path64" />
    </clipPath>
    <clipPath
       clipPathUnits="userSpaceOnUse"
       id="clipPath66">
      <path
         d="M 0,0 H 1866.6666 V 819.65808 H 0 Z"
         transform="matrix(0.33428572,0,0,0.33428572,-0.50000001,-0.50000001)"
         clip-rule="evenodd"
         id="path66" />
    </clipPath>
    <clipPath
       clipPathUnits="userSpaceOnUse"
       id="clipPath68">
      <path
         d="M 0,0 H 1866.6666 V 819.65808 H 0 Z"
         transform="matrix(0.33428572,0,0,0.33428572,-0.50000001,-0.50000001)"
         clip-rule="evenodd"
         id="path68" />
    </clipPath>
    <clipPath
       clipPathUnits="userSpaceOnUse"
       id="clipPath69">
      <path
         d="M 0,0 H 1866.6666 V 819.65808 H 0 Z"
         transform="matrix(0.33428236,0,0,0.33428236,-27.3125,-80)"
         clip-rule="evenodd"
         id="path69" />
    </clipPath>
    <clipPath
       clipPathUnits="userSpaceOnUse"
       id="clipPath71">
      <path
         d="M 0,0 H 1866.6666 V 819.65808 H 0 Z"
         transform="matrix(0.33428572,0,0,0.33428572,-0.50000001,-0.50000001)"
         clip-rule="evenodd"
         id="path71" />
    </clipPath>
    <clipPath
       clipPathUnits="userSpaceOnUse"
       id="clipPath73">
      <path
         d="M 0,0 H 1866.6666 V 819.65808 H 0 Z"
         transform="matrix(0.33428572,0,0,0.33428572,-0.50000001,-0.50000001)"
         clip-rule="evenodd"
         id="path73" />
    </clipPath>
    <clipPath
       clipPathUnits="userSpaceOnUse"
       id="clipPath75">
      <path
         d="M 0,0 H 1866.6666 V 819.65808 H 0 Z"
         transform="matrix(0.33428572,0,0,0.33428572,-0.50000001,-0.50000001)"
         clip-rule="evenodd"
         id="path75" />
    </clipPath>
    <clipPath
       clipPathUnits="userSpaceOnUse"
       id="clipPath76">
      <path
         d="M 0,0 H 1866.6666 V 819.65808 H 0 Z"
         transform="matrix(0.33428236,0,0,0.33428236,-80.625,-130)"
         clip-rule="evenodd"
         id="path76" />
    </clipPath>
    <clipPath
       clipPathUnits="userSpaceOnUse"
       id="clipPath78">
      <path
         d="M 0,0 H 1866.6666 V 819.65808 H 0 Z"
         transform="matrix(0.33428572,0,0,0.33428572,-0.50000001,-0.50000001)"
         clip-rule="evenodd"
         id="path78" />
    </clipPath>
    <clipPath
       clipPathUnits="userSpaceOnUse"
       id="clipPath80">
      <path
         d="M 0,0 H 1866.6666 V 819.65808 H 0 Z"
         transform="matrix(0.33428572,0,0,0.33428572,-0.50000001,-0.50000001)"
         clip-rule="evenodd"
         id="path80" />
    </clipPath>
    <clipPath
       clipPathUnits="userSpaceOnUse"
       id="clipPath82">
      <path
         d="M 0,0 H 1866.6666 V 819.65808 H 0 Z"
         transform="matrix(0.33428572,0,0,0.33428572,-0.50000001,-0.50000001)"
         clip-rule="evenodd"
         id="path82" />
    </clipPath>
    <clipPath
       clipPathUnits="userSpaceOnUse"
       id="clipPath83">
      <path
         d="M 0,0 H 1866.6666 V 819.65808 H 0 Z"
         transform="matrix(0.33428236,0,0,0.33428236,-111.32813,-218)"
         clip-rule="evenodd"
         id="path83" />
    </clipPath>
    <clipPath
       clipPathUnits="userSpaceOnUse"
       id="clipPath85">
      <path
         d="M 0,0 H 1866.6666 V 819.65808 H 0 Z"
         transform="matrix(0.33428572,0,0,0.33428572,-0.50000001,-0.50000001)"
         clip-rule="evenodd"
         id="path85" />
    </clipPath>
    <clipPath
       clipPathUnits="userSpaceOnUse"
       id="clipPath87">
      <path
         d="M 0,0 H 1866.6666 V 819.65808 H 0 Z"
         transform="matrix(0.33428572,0,0,0.33428572,-0.50000001,-0.50000001)"
         clip-rule="evenodd"
         id="path87" />
    </clipPath>
    <clipPath
       clipPathUnits="userSpaceOnUse"
       id="clipPath89">
      <path
         d="M 0,0 H 1866.6666 V 819.65808 H 0 Z"
         transform="matrix(0.33428572,0,0,0.33428572,-0.50000001,-0.50000001)"
         clip-rule="evenodd"
         id="path89" />
    </clipPath>
    <clipPath
       clipPathUnits="userSpaceOnUse"
       id="clipPath90">
      <path
         d="M 0,0 H 1866.6666 V 819.65808 H 0 Z"
         transform="matrix(0.33428236,0,0,0.33428236,-269.28125,-245)"
         clip-rule="evenodd"
         id="path90" />
    </clipPath>
    <clipPath
       clipPathUnits="userSpaceOnUse"
       id="clipPath92">
      <path
         d="M 0,0 H 1866.6666 V 819.65808 H 0 Z"
         transform="matrix(0.33428572,0,0,0.33428572,-0.50000001,-0.50000001)"
         clip-rule="evenodd"
         id="path92" />
    </clipPath>
    <clipPath
       clipPathUnits="userSpaceOnUse"
       id="clipPath93">
      <path
         d="M 0,0 H 1866.6666 V 819.65808 H 0 Z"
         transform="matrix(0.33428236,0,0,0.33428236,-233.60938,-218)"
         clip-rule="evenodd"
         id="path93" />
    </clipPath>
  </defs>
  <sodipodi:namedview
     id="namedview1"
     pagecolor="#ffffff"
     bordercolor="#000000"
     borderopacity="0.25"
     inkscape:showpageshadow="2"
     inkscape:pageopacity="0.0"
     inkscape:pagecheckerboard="0"
     inkscape:deskcolor="#d1d1d1">
    <inkscape:page
       x="0"
       y="0"
       inkscape:label="1"
       id="page1"
       width="597.44"
       height="264"
       margin="0"
       bleed="0" />
  </sodipodi:namedview>
  <g
     id="g1"
     inkscape:groupmode="layer"
     inkscape:label="1">
    <path
       id="path1"
       d="M 0,0 H 624 V 275 H 0 Z"
       style="fill:#ffffff;fill-opacity:1;fill-rule:nonzero;stroke:none"
       transform="scale(0.95726489)"
       clip-path="url(#clipPath2)" />
    <path
       id="path3"
       d="M 1,31 H 401 V 271 H 1 Z"
       style="fill:#f5f5f5;fill-opacity:1;fill-rule:nonzero;stroke:#666666;stroke-width:1;stroke-linecap:butt;stroke-linejoin:miter;stroke-miterlimit:10;stroke-dasharray:none;stroke-opacity:1"
       transform="matrix(0.95726489,0,0,0.95726489,0.47863245,0.47863245)"
       clip-path="url(#clipPath4)" />
    <path
       id="path5"
       d="M 1,1 H 401 V 31 H 1 Z"
       style="fill:#f5f5f5;fill-opacity:1;fill-rule:nonzero;stroke:#666666;stroke-width:1;stroke-linecap:butt;stroke-linejoin:miter;stroke-miterlimit:10;stroke-dasharray:none;stroke-opacity:1"
       transform="matrix(0.95726489,0,0,0.95726489,0.47863245,0.47863245)"
       clip-path="url(#clipPath6)" />
    <text
       id="text6"
       xml:space="preserve"
       transform="matrix(0.95727452,0,0,0.95727452,144.0399,21.060039)"
       clip-path="url(#clipPath7)"><tspan
         style="font-variant:normal;font-weight:700;font-size:17px;font-family:Helvetica;writing-mode:lr-tb;fill:#333333;fill-opacity:1;fill-rule:nonzero;stroke:none"
         x="0 11.338867 16.062012 26.446289 36.830566 47.214844 57.599121 62.322266 72.706543 77.429688 87.813965"
         y="0"
         sodipodi:role="line"
         id="tspan6">Signup Flow</tspan></text>
    <path
       id="path8"
       d="m 131,181 v 20 -20 13.63"
       style="fill:none;stroke:#000000;stroke-width:1;stroke-linecap:butt;stroke-linejoin:miter;stroke-miterlimit:10;stroke-dasharray:none;stroke-opacity:1"
       transform="matrix(0.95726489,0,0,0.95726489,0.47863245,0.47863245)"
       clip-path="url(#clipPath9)" />
    <path
       id="path10"
       d="m 131,199.88 -3.5,-7 3.5,1.75 3.5,-1.75 z"
       style="fill:#000000;fill-opacity:1;fill-rule:nonzero;stroke:#000000;stroke-width:1;stroke-linecap:butt;stroke-linejoin:miter;stroke-miterlimit:10;stroke-dasharray:none;stroke-opacity:1"
       transform="matrix(0.95726489,0,0,0.95726489,0.47863245,0.47863245)"
       clip-path="url(#clipPath11)" />
    <path
       id="path12"
       d="m 51,151 h 160 v 30 H 51 Z"
       style="fill:#dae8fc;fill-opacity:1;fill-rule:nonzero;stroke:#6c8ebf;stroke-width:1;stroke-linecap:butt;stroke-linejoin:miter;stroke-miterlimit:10;stroke-dasharray:none;stroke-opacity:1"
       transform="matrix(0.95726489,0,0,0.95726489,0.47863245,0.47863245)"
       clip-path="url(#clipPath13)" />
    <text
       id="text13"
       xml:space="preserve"
       transform="matrix(0.95727452,0,0,0.95727452,64.765604,164.65122)"
       clip-path="url(#clipPath14)"><tspan
         style="font-variant:normal;font-weight:700;font-size:15px;font-family:Helvetica;writing-mode:lr-tb;fill:#000000;fill-opacity:1;fill-rule:nonzero;stroke:none"
         x="0 10.83252 19.174805 27.51709 36.679688 40.847168 50.009766 59.172363 63.339844 72.502441 81.665039 90.827637 99.169922 104.16504 108.33252 117.49512"
         y="0"
         sodipodi:role="line"
         id="tspan13">Hashing Function</tspan></text>
    <path
       id="path15"
       d="m 91,223.5 h 80 v 30 H 91 Z"
       style="fill:#ffffff;fill-opacity:1;fill-rule:nonzero;stroke:#000000;stroke-width:1;stroke-linecap:butt;stroke-linejoin:miter;stroke-miterlimit:10;stroke-dasharray:none;stroke-opacity:1"
       transform="matrix(0.95726489,0,0,0.95726489,0.47863245,0.47863245)"
       clip-path="url(#clipPath16)" />
    <text
       id="text16"
       xml:space="preserve"
       transform="matrix(0.95727452,0,0,0.95727452,103.04163,232.61771)"
       clip-path="url(#clipPath17)"><tspan
         style="font-variant:normal;font-weight:normal;font-size:12px;font-family:Helvetica;writing-mode:lr-tb;fill:#000000;fill-opacity:1;fill-rule:nonzero;stroke:none"
         x="0 6.6738281 13.347656 20.021484 26.695312 33.369141 40.042969"
         y="0"
         sodipodi:role="line"
         id="tspan16">010066d</tspan></text>
    <path
       id="path18"
       d="m 421,101 h 200 v 20 H 421 Z"
       style="fill:#e1d5e7;fill-opacity:1;fill-rule:nonzero;stroke:#9673a6;stroke-width:1;stroke-linecap:butt;stroke-linejoin:miter;stroke-miterlimit:10;stroke-dasharray:none;stroke-opacity:1"
       transform="matrix(0.95726489,0,0,0.95726489,0.47863245,0.47863245)"
       clip-path="url(#clipPath19)" />
    <text
       id="text19"
       xml:space="preserve"
       transform="matrix(0.95727452,0,0,0.95727452,448.99166,112.00112)"
       clip-path="url(#clipPath20)"><tspan
         style="font-variant:normal;font-weight:700;font-size:15px;font-family:Helvetica;writing-mode:lr-tb;fill:#000000;fill-opacity:1;fill-rule:nonzero;stroke:none"
         x="0 8.8989258 18.061523 27.224121 33.061523 37.229004 48.061523 56.403809 61.398926 69.741211 78.903809 87.246094 95.588379"
         y="0"
         sodipodi:role="line"
         id="tspan19">Your Database</tspan></text>
    <path
       id="path21"
       d="M 421,121 H 621 V 271 H 421 Z"
       style="fill:#e1d5e7;fill-opacity:1;fill-rule:nonzero;stroke:#9673a6;stroke-width:1;stroke-linecap:butt;stroke-linejoin:miter;stroke-miterlimit:10;stroke-dasharray:none;stroke-opacity:1"
       transform="matrix(0.95726489,0,0,0.95726489,0.47863245,0.47863245)"
       clip-path="url(#clipPath22)" />
    <path
       id="path23"
       d="m 431,131 h 180 v 20 H 431 Z"
       style="fill:#d5e8d4;fill-opacity:1;fill-rule:nonzero;stroke:#82b366;stroke-width:1;stroke-linecap:butt;stroke-linejoin:miter;stroke-miterlimit:10;stroke-dasharray:none;stroke-opacity:1"
       transform="matrix(0.95726489,0,0,0.95726489,0.47863245,0.47863245)"
       clip-path="url(#clipPath24)" />
    <text
       id="text24"
       xml:space="preserve"
       transform="matrix(0.95727452,0,0,0.95727452,454.03232,140.71935)"
       clip-path="url(#clipPath25)"><tspan
         style="font-variant:normal;font-weight:normal;font-size:15px;font-family:Helvetica;writing-mode:lr-tb;fill:#000000;fill-opacity:1;fill-rule:nonzero;stroke:none"
         x="0 7.5 15.842285 24.18457 27.51709 35.859375 40.026855 48.369141 52.536621 56.704102 65.046387 72.546387 80.888672 85.883789"
         y="0"
         sodipodi:role="line"
         id="tspan24">Table of users</tspan></text>
    <path
       id="path26"
       d="m 431,151 h 20 v 30 h -20 z"
       style="fill:#dae8fc;fill-opacity:1;fill-rule:nonzero;stroke:#6c8ebf;stroke-width:1;stroke-linecap:butt;stroke-linejoin:miter;stroke-miterlimit:10;stroke-dasharray:none;stroke-opacity:1"
       transform="matrix(0.95726489,0,0,0.95726489,0.47863245,0.47863245)"
       clip-path="url(#clipPath27)" />
    <text
       id="text27"
       xml:space="preserve"
       transform="matrix(0.95727452,0,0,0.95727452,418.05973,162.73667)"
       clip-path="url(#clipPath28)"><tspan
         style="font-style:oblique;font-variant:normal;font-weight:normal;font-size:11px;font-family:Helvetica;writing-mode:lr-tb;fill:#000000;fill-opacity:1;fill-rule:nonzero;stroke:none"
         x="0 2.4438477"
         y="0"
         sodipodi:role="line"
         id="tspan27">id</tspan></text>
    <path
       id="path29"
       d="m 451,151 h 70 v 30 h -70 z"
       style="fill:#dae8fc;fill-opacity:1;fill-rule:nonzero;stroke:#6c8ebf;stroke-width:1;stroke-linecap:butt;stroke-linejoin:miter;stroke-miterlimit:10;stroke-dasharray:none;stroke-opacity:1"
       transform="matrix(0.95726489,0,0,0.95726489,0.47863245,0.47863245)"
       clip-path="url(#clipPath30)" />
    <text
       id="text30"
       xml:space="preserve"
       transform="matrix(0.95727452,0,0,0.95727452,452.64127,156.03575)"
       clip-path="url(#clipPath31)"><tspan
         style="font-style:oblique;font-variant:normal;font-weight:normal;font-size:11px;font-family:Helvetica;writing-mode:lr-tb;fill:#000000;fill-opacity:1;fill-rule:nonzero;stroke:none"
         x="0 6.1176758 15.280762 21.398438 23.842285"
         y="0"
         sodipodi:role="line"
         id="tspan30">email</tspan></text>
    <text
       id="text31"
       xml:space="preserve"
       transform="matrix(0.95727452,0,0,0.95727452,452.35709,169.43759)"
       clip-path="url(#clipPath32)"><tspan
         style="font-style:oblique;font-variant:normal;font-weight:normal;font-size:11px;font-family:Helvetica;writing-mode:lr-tb;fill:#000000;fill-opacity:1;fill-rule:nonzero;stroke:none"
         x="0 5.5 8.5561523 12.219238 14.663086 20.780762"
         y="0"
         sodipodi:role="line"
         id="tspan31">string</tspan></text>
    <path
       id="path33"
       d="m 431,181 h 20 v 20 h -20 z"
       style="fill:#ffffff;fill-opacity:1;fill-rule:nonzero;stroke:#000000;stroke-width:1;stroke-linecap:butt;stroke-linejoin:miter;stroke-miterlimit:10;stroke-dasharray:none;stroke-opacity:1"
       transform="matrix(0.95726489,0,0,0.95726489,0.47863245,0.47863245)"
       clip-path="url(#clipPath34)" />
    <text
       id="text34"
       xml:space="preserve"
       transform="matrix(0.95727452,0,0,0.95727452,419.22641,186.66853)"
       clip-path="url(#clipPath35)"><tspan
         style="font-variant:normal;font-weight:normal;font-size:11px;font-family:Helvetica;writing-mode:lr-tb;fill:#000000;fill-opacity:1;fill-rule:nonzero;stroke:none"
         x="0"
         y="0"
         id="tspan34">1</tspan></text>
    <path
       id="path36"
       d="m 451,181 h 70 v 20 h -70 z"
       style="fill:#ffffff;fill-opacity:1;fill-rule:nonzero;stroke:#000000;stroke-width:1;stroke-linecap:butt;stroke-linejoin:miter;stroke-miterlimit:10;stroke-dasharray:none;stroke-opacity:1"
       transform="matrix(0.95726489,0,0,0.95726489,0.47863245,0.47863245)"
       clip-path="url(#clipPath37)" />
    <text
       id="text37"
       xml:space="preserve"
       transform="matrix(0.95727452,0,0,0.95727452,448.78226,185.71126)"
       clip-path="url(#clipPath38)"><tspan
         style="font-variant:normal;font-weight:normal;font-size:8px;font-family:Helvetica;writing-mode:lr-tb;fill:#000000;fill-opacity:1;fill-rule:nonzero;stroke:none"
         x="0 4.4492188 12.570312 17.019531 19.242188 23.242188 27.691406"
         y="0"
         sodipodi:role="line"
         id="tspan37">a@a.com</tspan></text>
    <path
       id="path39"
       d="m 521.01001,151 h 90 v 30 h -90 z"
       style="fill:#dae8fc;fill-opacity:1;fill-rule:nonzero;stroke:#6c8ebf;stroke-width:1;stroke-linecap:butt;stroke-linejoin:miter;stroke-miterlimit:10;stroke-dasharray:none;stroke-opacity:1"
       transform="matrix(0.95726489,0,0,0.95726489,0.47863245,0.47863245)"
       clip-path="url(#clipPath40)" />
    <text
       id="text40"
       xml:space="preserve"
       transform="matrix(0.95727452,0,0,0.95727452,519.27656,156.03575)"
       clip-path="url(#clipPath41)"><tspan
         style="font-style:oblique;font-variant:normal;font-weight:normal;font-size:11px;font-family:Helvetica;writing-mode:lr-tb;fill:#000000;fill-opacity:1;fill-rule:nonzero;stroke:none"
         x="0 6.1176758 12.235352 17.735352 23.235352 31.179199 37.296875 40.959961"
         y="0"
         sodipodi:role="line"
         id="tspan40">password</tspan></text>
    <text
       id="text41"
       xml:space="preserve"
       transform="matrix(0.95727452,0,0,0.95727452,528.92409,169.43759)"
       clip-path="url(#clipPath42)"><tspan
         style="font-style:oblique;font-variant:normal;font-weight:normal;font-size:11px;font-family:Helvetica;writing-mode:lr-tb;fill:#000000;fill-opacity:1;fill-rule:nonzero;stroke:none"
         x="0 5.5 8.5561523 12.219238 14.663086 20.780762"
         y="0"
         sodipodi:role="line"
         id="tspan41">string</tspan></text>
    <path
       id="path43"
       d="m 521.01001,181 h 90 v 20 h -90 z"
       style="fill:#ffffff;fill-opacity:1;fill-rule:nonzero;stroke:#000000;stroke-width:1;stroke-linecap:butt;stroke-linejoin:miter;stroke-miterlimit:10;stroke-dasharray:none;stroke-opacity:1"
       transform="matrix(0.95726489,0,0,0.95726489,0.47863245,0.47863245)"
       clip-path="url(#clipPath44)" />
    <text
       id="text44"
       xml:space="preserve"
       transform="matrix(0.95727452,0,0,0.95727452,501.88108,186.66853)"
       clip-path="url(#clipPath45)"><tspan
         style="font-variant:normal;font-weight:normal;font-size:12px;font-family:Helvetica;writing-mode:lr-tb;fill:#000000;fill-opacity:1;fill-rule:nonzero;stroke:none"
         x="0 6.6738281 13.347656 20.021484 26.695312 33.369141 40.042969 46.716797 50.050781 56.724609 63.398438 70.072266 76.746094"
         y="0"
         sodipodi:role="line"
         id="tspan44">010066d.a1d01</tspan></text>
    <path
       id="path46"
       d="m 161,38.5 h 100 v 25 H 161 Z"
       style="fill:#d5e8d4;fill-opacity:1;fill-rule:nonzero;stroke:#82b366;stroke-width:1;stroke-linecap:butt;stroke-linejoin:miter;stroke-miterlimit:10;stroke-dasharray:none;stroke-opacity:1"
       transform="matrix(0.95726489,0,0,0.95726489,0.47863245,0.47863245)"
       clip-path="url(#clipPath47)" />
    <text
       id="text47"
       xml:space="preserve"
       transform="matrix(0.95727452,0,0,0.95727452,191.43995,52.650099)"
       clip-path="url(#clipPath48)"><tspan
         style="font-variant:normal;font-weight:700;font-size:12px;font-family:Helvetica;writing-mode:lr-tb;fill:#000000;fill-opacity:1;fill-rule:nonzero;stroke:none"
         x="0 8.0039062 14.677734 18.011719"
         y="0"
         sodipodi:role="line"
         id="tspan47">Salt</tspan></text>
    <path
       id="path49"
       d="m 211,88.5 v 20 h -70 v -15 h -10 v 13.63"
       style="fill:none;stroke:#000000;stroke-width:1;stroke-linecap:butt;stroke-linejoin:miter;stroke-miterlimit:10;stroke-dasharray:none;stroke-opacity:1"
       transform="matrix(0.95726489,0,0,0.95726489,0.47863245,0.47863245)"
       clip-path="url(#clipPath50)" />
    <path
       id="path51"
       d="m 131,112.38 -3.5,-7 3.5,1.75 3.5,-1.75 z"
       style="fill:#000000;fill-opacity:1;fill-rule:nonzero;stroke:#000000;stroke-width:1;stroke-linecap:butt;stroke-linejoin:miter;stroke-miterlimit:10;stroke-dasharray:none;stroke-opacity:1"
       transform="matrix(0.95726489,0,0,0.95726489,0.47863245,0.47863245)"
       clip-path="url(#clipPath52)" />
    <path
       id="path53"
       d="m 261,76 h 50 v 118.63"
       style="fill:none;stroke:#000000;stroke-width:1;stroke-linecap:butt;stroke-linejoin:miter;stroke-miterlimit:10;stroke-dasharray:none;stroke-opacity:1"
       transform="matrix(0.95726489,0,0,0.95726489,0.47863245,0.47863245)"
       clip-path="url(#clipPath54)" />
    <path
       id="path55"
       d="m 311,199.88 -3.5,-7 3.5,1.75 3.5,-1.75 z"
       style="fill:#000000;fill-opacity:1;fill-rule:nonzero;stroke:#000000;stroke-width:1;stroke-linecap:butt;stroke-linejoin:miter;stroke-miterlimit:10;stroke-dasharray:none;stroke-opacity:1"
       transform="matrix(0.95726489,0,0,0.95726489,0.47863245,0.47863245)"
       clip-path="url(#clipPath56)" />
    <path
       id="path57"
       d="m 161,63.5 h 100 v 25 H 161 Z"
       style="fill:#d5e8d4;fill-opacity:1;fill-rule:nonzero;stroke:#82b366;stroke-width:1;stroke-linecap:butt;stroke-linejoin:miter;stroke-miterlimit:10;stroke-dasharray:none;stroke-opacity:1"
       transform="matrix(0.95726489,0,0,0.95726489,0.47863245,0.47863245)"
       clip-path="url(#clipPath58)" />
    <text
       id="text58"
       xml:space="preserve"
       transform="matrix(0.95727452,0,0,0.95727452,186.01041,76.581962)"
       clip-path="url(#clipPath59)"><tspan
         style="font-variant:normal;font-weight:normal;font-size:12px;font-family:Helvetica;writing-mode:lr-tb;fill:#000000;fill-opacity:1;fill-rule:nonzero;stroke:none"
         x="0 6.6738281 13.347656 20.021484 26.695312"
         y="0"
         sodipodi:role="line"
         id="tspan58">a1d01</tspan></text>
    <path
       id="path60"
       d="m 11,38.5 h 100 v 25 H 11 Z"
       style="fill:#ffffff;fill-opacity:1;fill-rule:nonzero;stroke:#000000;stroke-width:1;stroke-linecap:butt;stroke-linejoin:miter;stroke-miterlimit:10;stroke-dasharray:none;stroke-opacity:1"
       transform="matrix(0.95726489,0,0,0.95726489,0.47863245,0.47863245)"
       clip-path="url(#clipPath61)" />
    <text
       id="text61"
       xml:space="preserve"
       transform="matrix(0.95727452,0,0,0.95727452,12.324909,52.650099)"
       clip-path="url(#clipPath62)"><tspan
         style="font-variant:normal;font-weight:700;font-size:12px;font-family:Helvetica;writing-mode:lr-tb;fill:#000000;fill-opacity:1;fill-rule:nonzero;stroke:none"
         x="0 8.6660156 15.339844 22.013672 26.683594 29.537109 36.210938 39.544922 47.548828 54.222656 60.896484 67.570312 76.904297 84.234375 88.904297"
         y="0"
         sodipodi:role="line"
         id="tspan61">User's Password</tspan></text>
    <path
       id="path63"
       d="m 61,88.5 v 20 h 70 v -1.37"
       style="fill:none;stroke:#000000;stroke-width:1;stroke-linecap:butt;stroke-linejoin:miter;stroke-miterlimit:10;stroke-dasharray:none;stroke-opacity:1"
       transform="matrix(0.95726489,0,0,0.95726489,0.47863245,0.47863245)"
       clip-path="url(#clipPath64)" />
    <path
       id="path65"
       d="m 131,112.38 -3.5,-7 3.5,1.75 3.5,-1.75 z"
       style="fill:#000000;fill-opacity:1;fill-rule:nonzero;stroke:#000000;stroke-width:1;stroke-linecap:butt;stroke-linejoin:miter;stroke-miterlimit:10;stroke-dasharray:none;stroke-opacity:1"
       transform="matrix(0.95726489,0,0,0.95726489,0.47863245,0.47863245)"
       clip-path="url(#clipPath66)" />
    <path
       id="path67"
       d="m 11,63.5 h 100 v 25 H 11 Z"
       style="fill:#ffffff;fill-opacity:1;fill-rule:nonzero;stroke:#000000;stroke-width:1;stroke-linecap:butt;stroke-linejoin:miter;stroke-miterlimit:10;stroke-dasharray:none;stroke-opacity:1"
       transform="matrix(0.95726489,0,0,0.95726489,0.47863245,0.47863245)"
       clip-path="url(#clipPath68)" />
    <text
       id="text68"
       xml:space="preserve"
       transform="matrix(0.95727452,0,0,0.95727452,26.14556,76.581962)"
       clip-path="url(#clipPath69)"><tspan
         style="font-variant:normal;font-weight:normal;font-size:12px;font-family:Helvetica;writing-mode:lr-tb;fill:#000000;fill-opacity:1;fill-rule:nonzero;stroke:none"
         x="0 9.9960938 15.996094 22.669922 29.34375 35.34375 41.34375 50.009766 56.683594 60.679688"
         y="0"
         sodipodi:role="line"
         id="tspan68">mypassword</tspan></text>
    <path
       id="path70"
       d="m 131,138.5 v 6.13"
       style="fill:none;stroke:#000000;stroke-width:1;stroke-linecap:butt;stroke-linejoin:miter;stroke-miterlimit:10;stroke-dasharray:none;stroke-opacity:1"
       transform="matrix(0.95726489,0,0,0.95726489,0.47863245,0.47863245)"
       clip-path="url(#clipPath71)" />
    <path
       id="path72"
       d="m 131,149.88 -3.5,-7 3.5,1.75 3.5,-1.75 z"
       style="fill:#000000;fill-opacity:1;fill-rule:nonzero;stroke:#000000;stroke-width:1;stroke-linecap:butt;stroke-linejoin:miter;stroke-miterlimit:10;stroke-dasharray:none;stroke-opacity:1"
       transform="matrix(0.95726489,0,0,0.95726489,0.47863245,0.47863245)"
       clip-path="url(#clipPath73)" />
    <path
       id="path74"
       d="m 51,113.5 h 160 v 25 H 51 Z"
       style="fill:#ffffff;fill-opacity:1;fill-rule:nonzero;stroke:#000000;stroke-width:1;stroke-linecap:butt;stroke-linejoin:miter;stroke-miterlimit:10;stroke-dasharray:none;stroke-opacity:1"
       transform="matrix(0.95726489,0,0,0.95726489,0.47863245,0.47863245)"
       clip-path="url(#clipPath75)" />
    <text
       id="text75"
       xml:space="preserve"
       transform="matrix(0.95727452,0,0,0.95727452,77.180258,124.44569)"
       clip-path="url(#clipPath76)"><tspan
         style="font-variant:normal;font-weight:normal;font-size:12px;font-family:Helvetica;writing-mode:lr-tb;fill:#000000;fill-opacity:1;fill-rule:nonzero;stroke:none"
         x="0 9.9960938 15.996094 22.669922 29.34375 35.34375 41.34375 50.009766 56.683594 60.679688 67.353516 74.027344 80.701172 87.375 94.048828"
         y="0"
         sodipodi:role="line"
         id="tspan75">mypassworda1d01</tspan></text>
    <path
       id="path77"
       d="m 171,213.5 h 53.63"
       style="fill:none;stroke:#000000;stroke-width:1;stroke-linecap:butt;stroke-linejoin:miter;stroke-miterlimit:10;stroke-dasharray:none;stroke-opacity:1"
       transform="matrix(0.95726489,0,0,0.95726489,0.47863245,0.47863245)"
       clip-path="url(#clipPath78)" />
    <path
       id="path79"
       d="m 229.88,213.5 -7,3.5 1.75,-3.5 -1.75,-3.5 z"
       style="fill:#000000;fill-opacity:1;fill-rule:nonzero;stroke:#000000;stroke-width:1;stroke-linecap:butt;stroke-linejoin:miter;stroke-miterlimit:10;stroke-dasharray:none;stroke-opacity:1"
       transform="matrix(0.95726489,0,0,0.95726489,0.47863245,0.47863245)"
       clip-path="url(#clipPath80)" />
    <path
       id="path81"
       d="m 91,201 h 80 v 25 H 91 Z"
       style="fill:#ffffff;fill-opacity:1;fill-rule:nonzero;stroke:#000000;stroke-width:1;stroke-linecap:butt;stroke-linejoin:miter;stroke-miterlimit:10;stroke-dasharray:none;stroke-opacity:1"
       transform="matrix(0.95726489,0,0,0.95726489,0.47863245,0.47863245)"
       clip-path="url(#clipPath82)" />
    <text
       id="text82"
       xml:space="preserve"
       transform="matrix(0.95727452,0,0,0.95727452,106.57158,208.68585)"
       clip-path="url(#clipPath83)"><tspan
         style="font-variant:normal;font-weight:700;font-size:12px;font-family:Helvetica;writing-mode:lr-tb;fill:#000000;fill-opacity:1;fill-rule:nonzero;stroke:none"
         x="0 9.3339844 16.664062 20.660156 27.990234 35.320312"
         y="0"
         sodipodi:role="line"
         id="tspan82">Output</tspan></text>
    <path
       id="path84"
       d="M 391,241 H 566 V 207.37"
       style="fill:none;stroke:#000000;stroke-width:1;stroke-linecap:butt;stroke-linejoin:miter;stroke-miterlimit:10;stroke-dasharray:none;stroke-opacity:1"
       transform="matrix(0.95726489,0,0,0.95726489,0.47863245,0.47863245)"
       clip-path="url(#clipPath85)" />
    <path
       id="path86"
       d="m 566.01001,202.12 3.48999,7 -3.5,-1.75 -3.5,1.75 z"
       style="fill:#000000;fill-opacity:1;fill-rule:nonzero;stroke:#000000;stroke-width:1;stroke-linecap:butt;stroke-linejoin:miter;stroke-miterlimit:10;stroke-dasharray:none;stroke-opacity:1"
       transform="matrix(0.95726489,0,0,0.95726489,0.47863245,0.47863245)"
       clip-path="url(#clipPath87)" />
    <path
       id="path88"
       d="m 231,226 h 160 v 30 H 231 Z"
       style="fill:#ffffff;fill-opacity:1;fill-rule:nonzero;stroke:#000000;stroke-width:1;stroke-linecap:butt;stroke-linejoin:miter;stroke-miterlimit:10;stroke-dasharray:none;stroke-opacity:1"
       transform="matrix(0.95726489,0,0,0.95726489,0.47863245,0.47863245)"
       clip-path="url(#clipPath89)" />
    <text
       id="text89"
       xml:space="preserve"
       transform="matrix(0.95727452,0,0,0.95727452,257.77608,234.53226)"
       clip-path="url(#clipPath90)"><tspan
         style="font-variant:normal;font-weight:normal;font-size:12px;font-family:Helvetica;writing-mode:lr-tb;fill:#000000;fill-opacity:1;fill-rule:nonzero;stroke:none"
         x="0 6.6738281 13.347656 20.021484 26.695312 33.369141 40.042969 46.716797 50.050781 56.724609 63.398438 70.072266 76.746094"
         y="0"
         sodipodi:role="line"
         id="tspan89">010066d.a1d01</tspan></text>
    <path
       id="path91"
       d="m 231,201 h 160 v 25 H 231 Z"
       style="fill:#ffffff;fill-opacity:1;fill-rule:nonzero;stroke:#000000;stroke-width:1;stroke-linecap:butt;stroke-linejoin:miter;stroke-miterlimit:10;stroke-dasharray:none;stroke-opacity:1"
       transform="matrix(0.95726489,0,0,0.95726489,0.47863245,0.47863245)"
       clip-path="url(#clipPath92)" />
    <text
       id="text92"
       xml:space="preserve"
       transform="matrix(0.95727452,0,0,0.95727452,223.62831,208.68585)"
       clip-path="url(#clipPath93)"><tspan
         style="font-variant:normal;font-weight:normal;font-size:12px;font-family:Helvetica;writing-mode:lr-tb;fill:#000000;fill-opacity:1;fill-rule:nonzero;stroke:none"
         x="0 8.6660156 15.339844 21.339844 28.013672 34.6875 41.361328 44.695312 51.369141 58.042969 64.716797 68.050781 74.050781 80.724609 83.390625 86.724609 93.398438 100.07227 103.40625 110.08008 116.75391 122.75391 128.75391 137.41992 144.09375 148.08984"
         y="0"
         sodipodi:role="line"
         id="tspan92">Hashed and salted password</tspan></text>
  </g>
</svg>
