<?xml version="1.0" encoding="UTF-8" standalone="no"?>
<!-- Created with Inkscape (http://www.inkscape.org/) -->

<svg
   version="1.1"
   id="svg1"
   width="481.28"
   height="234.56"
   viewBox="0 0 481.28 234.56"
   sodipodi:docname="nest-17.pdf"
   xmlns:inkscape="http://www.inkscape.org/namespaces/inkscape"
   xmlns:sodipodi="http://sodipodi.sourceforge.net/DTD/sodipodi-0.dtd"
   xmlns="http://www.w3.org/2000/svg"
   xmlns:svg="http://www.w3.org/2000/svg">
  <defs
     id="defs1">
    <clipPath
       clipPathUnits="userSpaceOnUse"
       id="clipPath2">
      <path
         d="M 0,0 H 1504.1665 V 731.10883 H 0 Z"
         transform="scale(0.33373964)"
         clip-rule="evenodd"
         id="path2" />
    </clipPath>
    <clipPath
       clipPathUnits="userSpaceOnUse"
       id="clipPath4">
      <path
         d="M 0,0 H 1504.1665 V 731.10883 H 0 Z"
         transform="matrix(0.33373964,0,0,0.33373964,-0.5,-0.5)"
         clip-rule="evenodd"
         id="path4" />
    </clipPath>
    <clipPath
       clipPathUnits="userSpaceOnUse"
       id="clipPath5">
      <path
         d="M 0,0 H 1504.1665 V 731.10883 H 0 Z"
         transform="matrix(0.3337363,0,0,0.3337363,-210.40625,-73)"
         clip-rule="evenodd"
         id="path5" />
    </clipPath>
    <clipPath
       clipPathUnits="userSpaceOnUse"
       id="clipPath6">
      <path
         d="M 0,0 H 1504.1665 V 731.10883 H 0 Z"
         transform="matrix(0.3337363,0,0,0.3337363,-208.32814,-91)"
         clip-rule="evenodd"
         id="path6" />
    </clipPath>
    <clipPath
       clipPathUnits="userSpaceOnUse"
       id="clipPath8">
      <path
         d="M 0,0 H 1504.1665 V 731.10883 H 0 Z"
         transform="matrix(0.33373964,0,0,0.33373964,-0.5,-0.5)"
         clip-rule="evenodd"
         id="path8" />
    </clipPath>
    <clipPath
       clipPathUnits="userSpaceOnUse"
       id="clipPath9">
      <path
         d="M 0,0 H 1504.1665 V 731.10883 H 0 Z"
         transform="matrix(0.3337363,0,0,0.3337363,-156.64063,-85)"
         clip-rule="evenodd"
         id="path9" />
    </clipPath>
    <clipPath
       clipPathUnits="userSpaceOnUse"
       id="clipPath11">
      <path
         d="M 0,0 H 1504.1665 V 731.10883 H 0 Z"
         transform="matrix(0.33373964,0,0,0.33373964,-0.5,-0.5)"
         clip-rule="evenodd"
         id="path11" />
    </clipPath>
    <clipPath
       clipPathUnits="userSpaceOnUse"
       id="clipPath13">
      <path
         d="M 0,0 H 1504.1665 V 731.10883 H 0 Z"
         transform="matrix(0.33373964,0,0,0.33373964,-0.5,-0.5)"
         clip-rule="evenodd"
         id="path13" />
    </clipPath>
    <clipPath
       clipPathUnits="userSpaceOnUse"
       id="clipPath15">
      <path
         d="M 0,0 H 1504.1665 V 731.10883 H 0 Z"
         transform="matrix(0.33373964,0,0,0.33373964,-0.5,-0.5)"
         clip-rule="evenodd"
         id="path15" />
    </clipPath>
    <clipPath
       clipPathUnits="userSpaceOnUse"
       id="clipPath16">
      <path
         d="M 0,0 H 1504.1665 V 731.10883 H 0 Z"
         transform="matrix(0.3337363,0,0,0.3337363,-291.98438,-85)"
         clip-rule="evenodd"
         id="path16" />
    </clipPath>
    <clipPath
       clipPathUnits="userSpaceOnUse"
       id="clipPath18">
      <path
         d="M 0,0 H 1504.1665 V 731.10883 H 0 Z"
         transform="matrix(0.33373964,0,0,0.33373964,-0.5,-0.5)"
         clip-rule="evenodd"
         id="path18" />
    </clipPath>
    <clipPath
       clipPathUnits="userSpaceOnUse"
       id="clipPath20">
      <path
         d="M 0,0 H 1504.1665 V 731.10883 H 0 Z"
         transform="matrix(0.33373964,0,0,0.33373964,-0.5,-0.5)"
         clip-rule="evenodd"
         id="path20" />
    </clipPath>
    <clipPath
       clipPathUnits="userSpaceOnUse"
       id="clipPath21">
      <path
         d="M 0,0 H 1504.1665 V 731.10883 H 0 Z"
         transform="matrix(0.3337363,0,0,0.3337363,-42.0625,-45)"
         clip-rule="evenodd"
         id="path21" />
    </clipPath>
    <clipPath
       clipPathUnits="userSpaceOnUse"
       id="clipPath23">
      <path
         d="M 0,0 H 1504.1665 V 731.10883 H 0 Z"
         transform="matrix(0.33373964,0,0,0.33373964,-0.5,-0.5)"
         clip-rule="evenodd"
         id="path23" />
    </clipPath>
    <clipPath
       clipPathUnits="userSpaceOnUse"
       id="clipPath25">
      <path
         d="M 0,0 H 1504.1665 V 731.10883 H 0 Z"
         transform="matrix(0.33373964,0,0,0.33373964,-0.5,-0.5)"
         clip-rule="evenodd"
         id="path25" />
    </clipPath>
    <clipPath
       clipPathUnits="userSpaceOnUse"
       id="clipPath26">
      <path
         d="M 0,0 H 1504.1665 V 731.10883 H 0 Z"
         transform="matrix(0.3337363,0,0,0.3337363,-370.67188,-45)"
         clip-rule="evenodd"
         id="path26" />
    </clipPath>
    <clipPath
       clipPathUnits="userSpaceOnUse"
       id="clipPath28">
      <path
         d="M 0,0 H 1504.1665 V 731.10883 H 0 Z"
         transform="matrix(0.33373964,0,0,0.33373964,-0.5,-0.5)"
         clip-rule="evenodd"
         id="path28" />
    </clipPath>
    <clipPath
       clipPathUnits="userSpaceOnUse"
       id="clipPath29">
      <path
         d="M 0,0 H 1504.1665 V 731.10883 H 0 Z"
         transform="matrix(0.3337363,0,0,0.3337363,-144.125,-208)"
         clip-rule="evenodd"
         id="path29" />
    </clipPath>
    <clipPath
       clipPathUnits="userSpaceOnUse"
       id="clipPath30">
      <path
         d="M 0,0 H 1504.1665 V 731.10883 H 0 Z"
         transform="matrix(0.3337363,0,0,0.3337363,-158.60937,-223)"
         clip-rule="evenodd"
         id="path30" />
    </clipPath>
    <clipPath
       clipPathUnits="userSpaceOnUse"
       id="clipPath32">
      <path
         d="M 0,0 H 1504.1665 V 731.10883 H 0 Z"
         transform="matrix(0.33373964,0,0,0.33373964,-0.5,-0.5)"
         clip-rule="evenodd"
         id="path32" />
    </clipPath>
    <clipPath
       clipPathUnits="userSpaceOnUse"
       id="clipPath34">
      <path
         d="M 0,0 H 1504.1665 V 731.10883 H 0 Z"
         transform="matrix(0.33373964,0,0,0.33373964,-0.5,-0.5)"
         clip-rule="evenodd"
         id="path34" />
    </clipPath>
    <clipPath
       clipPathUnits="userSpaceOnUse"
       id="clipPath35">
      <path
         d="M 0,0 H 1504.1665 V 731.10883 H 0 Z"
         transform="matrix(0.3337363,0,0,0.3337363,-0.68750001,-125)"
         clip-rule="evenodd"
         id="path35" />
    </clipPath>
    <clipPath
       clipPathUnits="userSpaceOnUse"
       id="clipPath37">
      <path
         d="M 0,0 H 1504.1665 V 731.10883 H 0 Z"
         transform="matrix(0.33373964,0,0,0.33373964,-0.5,-0.5)"
         clip-rule="evenodd"
         id="path37" />
    </clipPath>
    <clipPath
       clipPathUnits="userSpaceOnUse"
       id="clipPath39">
      <path
         d="M 0,0 H 1504.1665 V 731.10883 H 0 Z"
         transform="matrix(0.33373964,0,0,0.33373964,-0.5,-0.5)"
         clip-rule="evenodd"
         id="path39" />
    </clipPath>
    <clipPath
       clipPathUnits="userSpaceOnUse"
       id="clipPath40">
      <path
         d="M 0,0 H 1504.1665 V 731.10883 H 0 Z"
         transform="matrix(0.3337363,0,0,0.3337363,-369.34376,-125)"
         clip-rule="evenodd"
         id="path40" />
    </clipPath>
  </defs>
  <sodipodi:namedview
     id="namedview1"
     pagecolor="#ffffff"
     bordercolor="#000000"
     borderopacity="0.25"
     inkscape:showpageshadow="2"
     inkscape:pageopacity="0.0"
     inkscape:pagecheckerboard="0"
     inkscape:deskcolor="#d1d1d1">
    <inkscape:page
       x="0"
       y="0"
       inkscape:label="1"
       id="page1"
       width="481.28"
       height="234.56"
       margin="0"
       bleed="0" />
  </sodipodi:namedview>
  <g
     id="g1"
     inkscape:groupmode="layer"
     inkscape:label="1">
    <path
       id="path1"
       d="M 0,0 H 502 V 244 H 0 Z"
       style="fill:#ffffff;fill-opacity:1;fill-rule:nonzero;stroke:none"
       transform="scale(0.95883122)"
       clip-path="url(#clipPath2)" />
    <path
       id="path3"
       d="M 190,1 H 290 V 151 H 190 Z"
       style="fill:#dae8fc;fill-opacity:1;fill-rule:nonzero;stroke:#6c8ebf;stroke-width:1;stroke-linecap:butt;stroke-linejoin:miter;stroke-miterlimit:10;stroke-dasharray:none;stroke-opacity:1"
       transform="matrix(0.95883122,0,0,0.95883122,0.47941561,0.47941561)"
       clip-path="url(#clipPath4)" />
    <text
       id="text4"
       xml:space="preserve"
       transform="matrix(0.95884082,0,0,0.95884082,201.7461,69.99538)"
       clip-path="url(#clipPath5)"><tspan
         style="font-variant:normal;font-weight:700;font-size:15px;font-family:Helvetica;writing-mode:lr-tb;fill:#000000;fill-opacity:1;fill-rule:nonzero;stroke:none"
         x="0 10.83252 19.174805 27.51709 36.679688 40.847168 50.009766"
         y="0"
         sodipodi:role="line"
         id="tspan4">Hashing</tspan></text>
    <text
       id="text5"
       xml:space="preserve"
       transform="matrix(0.95884082,0,0,0.95884082,199.75352,87.254515)"
       clip-path="url(#clipPath6)"><tspan
         style="font-variant:normal;font-weight:700;font-size:15px;font-family:Helvetica;writing-mode:lr-tb;fill:#000000;fill-opacity:1;fill-rule:nonzero;stroke:none"
         x="0 9.1625977 18.325195 27.487793 35.830078 40.825195 44.992676 54.155273"
         y="0"
         sodipodi:role="line"
         id="tspan5">Function</tspan></text>
    <path
       id="path7"
       d="m 150,31 h 40 v 100 h -40 z"
       style="fill:#f5f5f5;fill-opacity:1;fill-rule:nonzero;stroke:#666666;stroke-width:1;stroke-linecap:butt;stroke-linejoin:miter;stroke-miterlimit:10;stroke-dasharray:none;stroke-opacity:1"
       transform="matrix(0.95883122,0,0,0.95883122,0.47941561,0.47941561)"
       clip-path="url(#clipPath8)" />
    <text
       id="text8"
       xml:space="preserve"
       transform="matrix(0.95884082,0,0,0.95884082,150.19343,81.50147)"
       clip-path="url(#clipPath9)"><tspan
         style="font-style:oblique;font-variant:normal;font-weight:normal;font-size:12px;font-family:Helvetica;writing-mode:lr-tb;fill:#333333;fill-opacity:1;fill-rule:nonzero;stroke:none"
         x="0 3.3339844 10.007812 16.681641 23.355469"
         y="0"
         sodipodi:role="line"
         id="tspan8">Input</tspan></text>
    <path
       id="path10"
       d="m 330,41 21,0.5 7.64001,-0.27"
       style="fill:none;stroke:#000000;stroke-width:1;stroke-linecap:butt;stroke-linejoin:miter;stroke-miterlimit:10;stroke-dasharray:none;stroke-opacity:1"
       transform="matrix(0.95883122,0,0,0.95883122,0.47941561,0.47941561)"
       clip-path="url(#clipPath11)" />
    <path
       id="path12"
       d="m 363.89001,41.040001 -6.87002,3.75 1.62002,-3.560001 -1.87002,-3.439999 z"
       style="fill:#000000;fill-opacity:1;fill-rule:nonzero;stroke:#000000;stroke-width:1;stroke-linecap:butt;stroke-linejoin:miter;stroke-miterlimit:10;stroke-dasharray:none;stroke-opacity:1"
       transform="matrix(0.95883122,0,0,0.95883122,0.47941561,0.47941561)"
       clip-path="url(#clipPath13)" />
    <path
       id="path14"
       d="m 290,31 h 40 v 100 h -40 z"
       style="fill:#f5f5f5;fill-opacity:1;fill-rule:nonzero;stroke:#666666;stroke-width:1;stroke-linecap:butt;stroke-linejoin:miter;stroke-miterlimit:10;stroke-dasharray:none;stroke-opacity:1"
       transform="matrix(0.95883122,0,0,0.95883122,0.47941561,0.47941561)"
       clip-path="url(#clipPath15)" />
    <text
       id="text15"
       xml:space="preserve"
       transform="matrix(0.95884082,0,0,0.95884082,279.96654,81.50147)"
       clip-path="url(#clipPath16)"><tspan
         style="font-style:oblique;font-variant:normal;font-weight:normal;font-size:12px;font-family:Helvetica;writing-mode:lr-tb;fill:#333333;fill-opacity:1;fill-rule:nonzero;stroke:none"
         x="0 9.3339844 16.007812 19.341797 26.015625 32.689453"
         y="0"
         sodipodi:role="line"
         id="tspan15">Output</tspan></text>
    <path
       id="path17"
       d="m 120,41 h 23.63"
       style="fill:none;stroke:#000000;stroke-width:1;stroke-linecap:butt;stroke-linejoin:miter;stroke-miterlimit:10;stroke-dasharray:none;stroke-opacity:1"
       transform="matrix(0.95883122,0,0,0.95883122,0.47941561,0.47941561)"
       clip-path="url(#clipPath18)" />
    <path
       id="path19"
       d="m 148.88,41 -7,3.5 1.75,-3.5 -1.75,-3.5 z"
       style="fill:#000000;fill-opacity:1;fill-rule:nonzero;stroke:#000000;stroke-width:1;stroke-linecap:butt;stroke-linejoin:miter;stroke-miterlimit:10;stroke-dasharray:none;stroke-opacity:1"
       transform="matrix(0.95883122,0,0,0.95883122,0.47941561,0.47941561)"
       clip-path="url(#clipPath20)" />
    <text
       id="text20"
       xml:space="preserve"
       transform="matrix(0.95884082,0,0,0.95884082,40.331242,43.147837)"
       clip-path="url(#clipPath21)"><tspan
         style="font-variant:normal;font-weight:normal;font-size:12px;font-family:Helvetica;writing-mode:lr-tb;fill:#000000;fill-opacity:1;fill-rule:nonzero;stroke:none"
         x="0 4.2597656 14.255859 20.255859 26.929688 33.603516 39.603516 45.603516 54.269531 60.943359 64.939453 71.613281"
         y="0"
         sodipodi:role="line"
         id="tspan20">&quot;mypassword&quot;</tspan></text>
    <path
       id="path22"
       d="M 430,51 V 81 H 60 v 23.63"
       style="fill:none;stroke:#000000;stroke-width:1;stroke-linecap:butt;stroke-linejoin:miter;stroke-miterlimit:10;stroke-dasharray:none;stroke-opacity:1"
       transform="matrix(0.95883122,0,0,0.95883122,0.47941561,0.47941561)"
       clip-path="url(#clipPath23)" />
    <path
       id="path24"
       d="m 60,109.88 -3.5,-7 3.5,1.75 3.5,-1.75 z"
       style="fill:#000000;fill-opacity:1;fill-rule:nonzero;stroke:#000000;stroke-width:1;stroke-linecap:butt;stroke-linejoin:miter;stroke-miterlimit:10;stroke-dasharray:none;stroke-opacity:1"
       transform="matrix(0.95883122,0,0,0.95883122,0.47941561,0.47941561)"
       clip-path="url(#clipPath25)" />
    <text
       id="text25"
       xml:space="preserve"
       transform="matrix(0.95884082,0,0,0.95884082,355.41533,43.147837)"
       clip-path="url(#clipPath26)"><tspan
         style="font-variant:normal;font-weight:normal;font-size:12px;font-family:Helvetica;writing-mode:lr-tb;fill:#000000;fill-opacity:1;fill-rule:nonzero;stroke:none"
         x="0 4.2597656 10.933594 17.607422 24.28125 30.955078 37.628906 44.302734 50.976562 57.650391 60.984375 67.658203 74.332031 81.005859 87.679688 94.353516 101.02734 107.70117 114.375"
         y="0"
         sodipodi:role="line"
         id="tspan25">&quot;477d20a7f924a59d8&quot;</tspan></text>
    <path
       id="path27"
       d="m 130,181 h 220 v 60 H 130 Z"
       style="fill:#f8cecc;fill-opacity:1;fill-rule:nonzero;stroke:#b85450;stroke-width:1;stroke-linecap:butt;stroke-linejoin:miter;stroke-miterlimit:10;stroke-dasharray:none;stroke-opacity:1"
       transform="matrix(0.95883122,0,0,0.95883122,0.47941561,0.47941561)"
       clip-path="url(#clipPath28)" />
    <text
       id="text28"
       xml:space="preserve"
       transform="matrix(0.95884082,0,0,0.95884082,138.19293,199.43889)"
       clip-path="url(#clipPath29)"><tspan
         style="font-style:oblique;font-variant:normal;font-weight:normal;font-size:12px;font-family:Helvetica;writing-mode:lr-tb;fill:#000000;fill-opacity:1;fill-rule:nonzero;stroke:none"
         x="0 8.6660156 15.339844 21.339844 28.013672 30.679688 37.353516 44.027344 47.361328 54.035156 58.03125 64.705078 70.705078 77.378906 83.378906 89.378906 92.712891 98.712891 105.38672 112.06055 114.35156 117.68555 121.01953 127.69336 134.36719 137.70117 144.375 151.04883 157.72266 164.39648 171.07031 177.74414 181.07812 187.75195"
         y="0"
         sodipodi:role="line"
         id="tspan28">Hashing process can't be undone or</tspan></text>
    <g
       id="g29" />
    <text
       id="text29"
       xml:space="preserve"
       transform="matrix(0.95884082,0,0,0.95884082,152.08114,213.8215)"
       clip-path="url(#clipPath30)"><tspan
         style="font-style:oblique;font-variant:normal;font-weight:normal;font-size:12px;font-family:Helvetica;writing-mode:lr-tb;fill:#000000;fill-opacity:1;fill-rule:nonzero;stroke:none"
         x="0 3.9960938 10.669922 16.669922 23.34375 27.339844 33.339844 40.013672 46.6875 50.021484 53.355469 60.029297 63.363281 69.363281 76.037109 82.710938 86.707031 93.380859 96.714844 103.38867 110.0625 113.39648 116.73047 120.06445 126.73828 133.41211 136.74609 139.41211 146.08594 152.75977 159.43359"
         y="0"
         sodipodi:role="line"
         id="tspan29">reversed to ﬁgure out the input</tspan></text>
    <path
       id="path31"
       d="m 120,121 h 23.63"
       style="fill:none;stroke:#000000;stroke-width:1;stroke-linecap:butt;stroke-linejoin:miter;stroke-miterlimit:10;stroke-dasharray:none;stroke-opacity:1"
       transform="matrix(0.95883122,0,0,0.95883122,0.47941561,0.47941561)"
       clip-path="url(#clipPath32)" />
    <path
       id="path33"
       d="m 148.88,121 -7,3.5 1.75,-3.5 -1.75,-3.5 z"
       style="fill:#000000;fill-opacity:1;fill-rule:nonzero;stroke:#000000;stroke-width:1;stroke-linecap:butt;stroke-linejoin:miter;stroke-miterlimit:10;stroke-dasharray:none;stroke-opacity:1"
       transform="matrix(0.95883122,0,0,0.95883122,0.47941561,0.47941561)"
       clip-path="url(#clipPath34)" />
    <text
       id="text34"
       xml:space="preserve"
       transform="matrix(0.95884082,0,0,0.95884082,0.65920307,119.8551)"
       clip-path="url(#clipPath35)"><tspan
         style="font-variant:normal;font-weight:normal;font-size:12px;font-family:Helvetica;writing-mode:lr-tb;fill:#000000;fill-opacity:1;fill-rule:nonzero;stroke:none"
         x="0 4.2597656 10.933594 17.607422 24.28125 30.955078 37.628906 44.302734 50.976562 57.650391 60.984375 67.658203 74.332031 81.005859 87.679688 94.353516 101.02734 107.70117 114.375"
         y="0"
         sodipodi:role="line"
         id="tspan34">&quot;477d20a7f924a59d8&quot;</tspan></text>
    <path
       id="path36"
       d="m 330,121 21,0.5 2.64999,-0.15"
       style="fill:none;stroke:#000000;stroke-width:1;stroke-linecap:butt;stroke-linejoin:miter;stroke-miterlimit:10;stroke-dasharray:none;stroke-opacity:1"
       transform="matrix(0.95883122,0,0,0.95883122,0.47941561,0.47941561)"
       clip-path="url(#clipPath37)" />
    <path
       id="path38"
       d="m 358.89001,121.06 -6.80001,3.88 1.55999,-3.59 -1.94998,-3.39 z"
       style="fill:#000000;fill-opacity:1;fill-rule:nonzero;stroke:#000000;stroke-width:1;stroke-linecap:butt;stroke-linejoin:miter;stroke-miterlimit:10;stroke-dasharray:none;stroke-opacity:1"
       transform="matrix(0.95883122,0,0,0.95883122,0.47941561,0.47941561)"
       clip-path="url(#clipPath39)" />
    <text
       id="text39"
       xml:space="preserve"
       transform="matrix(0.95884082,0,0,0.95884082,354.14187,119.8551)"
       clip-path="url(#clipPath40)"><tspan
         style="font-variant:normal;font-weight:normal;font-size:12px;font-family:Helvetica;writing-mode:lr-tb;fill:#000000;fill-opacity:1;fill-rule:nonzero;stroke:none"
         x="0 4.2597656 10.933594 17.607422 24.28125 30.28125 36.955078 43.628906 50.302734 56.976562 63.650391 70.324219 76.998047 83.671875 90.345703 93.679688 100.35352 107.02734 113.70117 117.03516"
         y="0"
         sodipodi:role="line"
         id="tspan39">&quot;ab2ca3349e279f3e3f&quot;</tspan></text>
  </g>
</svg>
