<?xml version="1.0" encoding="UTF-8" standalone="no"?>
<!-- Created with Inkscape (http://www.inkscape.org/) -->

<svg
   version="1.1"
   id="svg1"
   width="452.16"
   height="234.56"
   viewBox="0 0 452.16 234.56"
   sodipodi:docname="nest-16.pdf"
   xmlns:inkscape="http://www.inkscape.org/namespaces/inkscape"
   xmlns:sodipodi="http://sodipodi.sourceforge.net/DTD/sodipodi-0.dtd"
   xmlns="http://www.w3.org/2000/svg"
   xmlns:svg="http://www.w3.org/2000/svg">
  <defs
     id="defs1">
    <clipPath
       clipPathUnits="userSpaceOnUse"
       id="clipPath2">
      <path
         d="M 0,0 H 1412.5 V 733.18323 H 0 Z"
         transform="scale(0.3341593)"
         clip-rule="evenodd"
         id="path2" />
    </clipPath>
    <clipPath
       clipPathUnits="userSpaceOnUse"
       id="clipPath4">
      <path
         d="M 0,0 H 1412.5 V 730.19067 H 0 Z"
         transform="matrix(0.3341593,0,0,0.3341593,-0.5,-0.5)"
         clip-rule="evenodd"
         id="path4" />
    </clipPath>
    <clipPath
       clipPathUnits="userSpaceOnUse"
       id="clipPath5">
      <path
         d="M 0,0 H 1412.5 V 730.19067 H 0 Z"
         transform="matrix(0.33415595,0,0,0.33415595,-180.40625,-73)"
         clip-rule="evenodd"
         id="path5" />
    </clipPath>
    <clipPath
       clipPathUnits="userSpaceOnUse"
       id="clipPath6">
      <path
         d="M 0,0 H 1412.5 V 730.19067 H 0 Z"
         transform="matrix(0.33415595,0,0,0.33415595,-178.32814,-91)"
         clip-rule="evenodd"
         id="path6" />
    </clipPath>
    <clipPath
       clipPathUnits="userSpaceOnUse"
       id="clipPath8">
      <path
         d="M 0,0 H 1412.5 V 730.19067 H 0 Z"
         transform="matrix(0.3341593,0,0,0.3341593,-0.5,-0.5)"
         clip-rule="evenodd"
         id="path8" />
    </clipPath>
    <clipPath
       clipPathUnits="userSpaceOnUse"
       id="clipPath9">
      <path
         d="M 0,0 H 1412.5 V 730.19067 H 0 Z"
         transform="matrix(0.33415595,0,0,0.33415595,-126.64063,-85)"
         clip-rule="evenodd"
         id="path9" />
    </clipPath>
    <clipPath
       clipPathUnits="userSpaceOnUse"
       id="clipPath11">
      <path
         d="M 0,0 H 1412.5 V 730.19067 H 0 Z"
         transform="matrix(0.3341593,0,0,0.3341593,-0.5,-0.5)"
         clip-rule="evenodd"
         id="path11" />
    </clipPath>
    <clipPath
       clipPathUnits="userSpaceOnUse"
       id="clipPath13">
      <path
         d="M 0,0 H 1412.5 V 730.19067 H 0 Z"
         transform="matrix(0.3341593,0,0,0.3341593,-0.5,-0.5)"
         clip-rule="evenodd"
         id="path13" />
    </clipPath>
    <clipPath
       clipPathUnits="userSpaceOnUse"
       id="clipPath15">
      <path
         d="M 0,0 H 1412.5 V 730.19067 H 0 Z"
         transform="matrix(0.3341593,0,0,0.3341593,-0.5,-0.5)"
         clip-rule="evenodd"
         id="path15" />
    </clipPath>
    <clipPath
       clipPathUnits="userSpaceOnUse"
       id="clipPath16">
      <path
         d="M 0,0 H 1412.5 V 730.19067 H 0 Z"
         transform="matrix(0.33415595,0,0,0.33415595,-261.98438,-85)"
         clip-rule="evenodd"
         id="path16" />
    </clipPath>
    <clipPath
       clipPathUnits="userSpaceOnUse"
       id="clipPath18">
      <path
         d="M 0,0 H 1412.5 V 730.19067 H 0 Z"
         transform="matrix(0.3341593,0,0,0.3341593,-0.5,-0.5)"
         clip-rule="evenodd"
         id="path18" />
    </clipPath>
    <clipPath
       clipPathUnits="userSpaceOnUse"
       id="clipPath20">
      <path
         d="M 0,0 H 1412.5 V 730.19067 H 0 Z"
         transform="matrix(0.3341593,0,0,0.3341593,-0.5,-0.5)"
         clip-rule="evenodd"
         id="path20" />
    </clipPath>
    <clipPath
       clipPathUnits="userSpaceOnUse"
       id="clipPath21">
      <path
         d="M 0,0 H 1412.5 V 730.19067 H 0 Z"
         transform="matrix(0.33415595,0,0,0.33415595,-12.0625,-45)"
         clip-rule="evenodd"
         id="path21" />
    </clipPath>
    <clipPath
       clipPathUnits="userSpaceOnUse"
       id="clipPath22">
      <path
         d="M 0,0 H 1412.5 V 730.19067 H 0 Z"
         transform="matrix(0.33415595,0,0,0.33415595,-335.67188,-45)"
         clip-rule="evenodd"
         id="path22" />
    </clipPath>
    <clipPath
       clipPathUnits="userSpaceOnUse"
       id="clipPath24">
      <path
         d="M 0,0 H 1412.5 V 730.19067 H 0 Z"
         transform="matrix(0.3341593,0,0,0.3341593,-0.5,-0.5)"
         clip-rule="evenodd"
         id="path24" />
    </clipPath>
    <clipPath
       clipPathUnits="userSpaceOnUse"
       id="clipPath25">
      <path
         d="M 0,0 H 1412.5 V 730.19067 H 0 Z"
         transform="matrix(0.33415595,0,0,0.33415595,-103.9375,-208)"
         clip-rule="evenodd"
         id="path25" />
    </clipPath>
    <clipPath
       clipPathUnits="userSpaceOnUse"
       id="clipPath26">
      <path
         d="M 0,0 H 1412.5 V 730.19067 H 0 Z"
         transform="matrix(0.33415595,0,0,0.33415595,-142.71875,-223.00001)"
         clip-rule="evenodd"
         id="path26" />
    </clipPath>
    <clipPath
       clipPathUnits="userSpaceOnUse"
       id="clipPath28">
      <path
         d="M 0,0 H 1412.5 V 730.19067 H 0 Z"
         transform="matrix(0.3341593,0,0,0.3341593,-0.5,-0.5)"
         clip-rule="evenodd"
         id="path28" />
    </clipPath>
    <clipPath
       clipPathUnits="userSpaceOnUse"
       id="clipPath30">
      <path
         d="M 0,0 H 1412.5 V 730.19067 H 0 Z"
         transform="matrix(0.3341593,0,0,0.3341593,-0.5,-0.5)"
         clip-rule="evenodd"
         id="path30" />
    </clipPath>
    <clipPath
       clipPathUnits="userSpaceOnUse"
       id="clipPath31">
      <path
         d="M 0,0 H 1412.5 V 730.19067 H 0 Z"
         transform="matrix(0.33415595,0,0,0.33415595,-3.71875,-125)"
         clip-rule="evenodd"
         id="path31" />
    </clipPath>
    <clipPath
       clipPathUnits="userSpaceOnUse"
       id="clipPath33">
      <path
         d="M 0,0 H 1412.5 V 730.19067 H 0 Z"
         transform="matrix(0.3341593,0,0,0.3341593,-0.5,-0.5)"
         clip-rule="evenodd"
         id="path33" />
    </clipPath>
    <clipPath
       clipPathUnits="userSpaceOnUse"
       id="clipPath35">
      <path
         d="M 0,0 H 1412.5 V 730.19067 H 0 Z"
         transform="matrix(0.3341593,0,0,0.3341593,-0.5,-0.5)"
         clip-rule="evenodd"
         id="path35" />
    </clipPath>
    <clipPath
       clipPathUnits="userSpaceOnUse"
       id="clipPath36">
      <path
         d="M 0,0 H 1412.5 V 730.19067 H 0 Z"
         transform="matrix(0.33415595,0,0,0.33415595,-334.78125,-125)"
         clip-rule="evenodd"
         id="path36" />
    </clipPath>
  </defs>
  <sodipodi:namedview
     id="namedview1"
     pagecolor="#ffffff"
     bordercolor="#000000"
     borderopacity="0.25"
     inkscape:showpageshadow="2"
     inkscape:pageopacity="0.0"
     inkscape:pagecheckerboard="0"
     inkscape:deskcolor="#d1d1d1">
    <inkscape:page
       x="0"
       y="0"
       inkscape:label="1"
       id="page1"
       width="452.16"
       height="234.56"
       margin="0"
       bleed="0" />
  </sodipodi:namedview>
  <g
     id="g1"
     inkscape:groupmode="layer"
     inkscape:label="1">
    <path
       id="path1"
       d="M 0,0 H 472 V 245 H 0 Z"
       style="fill:#ffffff;fill-opacity:1;fill-rule:nonzero;stroke:none"
       transform="scale(0.95762706)"
       clip-path="url(#clipPath2)" />
    <path
       id="path3"
       d="M 160,1 H 260 V 151 H 160 Z"
       style="fill:#dae8fc;fill-opacity:1;fill-rule:nonzero;stroke:#6c8ebf;stroke-width:1;stroke-linecap:butt;stroke-linejoin:miter;stroke-miterlimit:10;stroke-dasharray:none;stroke-opacity:1"
       transform="matrix(0.95762706,0,0,0.95762706,0.47881353,0.47881353)"
       clip-path="url(#clipPath4)" />
    <text
       id="text4"
       xml:space="preserve"
       transform="matrix(0.95763666,0,0,0.95763666,172.76364,69.907476)"
       clip-path="url(#clipPath5)"><tspan
         style="font-variant:normal;font-weight:700;font-size:15px;font-family:Helvetica;writing-mode:lr-tb;fill:#000000;fill-opacity:1;fill-rule:nonzero;stroke:none"
         x="0 10.83252 19.174805 27.51709 36.679688 40.847168 50.009766"
         y="0"
         sodipodi:role="line"
         id="tspan4">Hashing</tspan></text>
    <text
       id="text5"
       xml:space="preserve"
       transform="matrix(0.95763666,0,0,0.95763666,170.77356,87.144936)"
       clip-path="url(#clipPath6)"><tspan
         style="font-variant:normal;font-weight:700;font-size:15px;font-family:Helvetica;writing-mode:lr-tb;fill:#000000;fill-opacity:1;fill-rule:nonzero;stroke:none"
         x="0 9.1625977 18.325195 27.487793 35.830078 40.825195 44.992676 54.155273"
         y="0"
         sodipodi:role="line"
         id="tspan5">Function</tspan></text>
    <path
       id="path7"
       d="m 120,31 h 40 v 100 h -40 z"
       style="fill:#f5f5f5;fill-opacity:1;fill-rule:nonzero;stroke:#666666;stroke-width:1;stroke-linecap:butt;stroke-linejoin:miter;stroke-miterlimit:10;stroke-dasharray:none;stroke-opacity:1"
       transform="matrix(0.95762706,0,0,0.95762706,0.47881353,0.47881353)"
       clip-path="url(#clipPath8)" />
    <text
       id="text8"
       xml:space="preserve"
       transform="matrix(0.95763666,0,0,0.95763666,121.27571,81.399116)"
       clip-path="url(#clipPath9)"><tspan
         style="font-style:oblique;font-variant:normal;font-weight:normal;font-size:12px;font-family:Helvetica;writing-mode:lr-tb;fill:#333333;fill-opacity:1;fill-rule:nonzero;stroke:none"
         x="0 3.3339844 10.007812 16.681641 23.355469"
         y="0"
         sodipodi:role="line"
         id="tspan8">Input</tspan></text>
    <path
       id="path10"
       d="m 300,41 21,0.5 2.64999,-0.150002"
       style="fill:none;stroke:#000000;stroke-width:1;stroke-linecap:butt;stroke-linejoin:miter;stroke-miterlimit:10;stroke-dasharray:none;stroke-opacity:1"
       transform="matrix(0.95762706,0,0,0.95762706,0.47881353,0.47881353)"
       clip-path="url(#clipPath11)" />
    <path
       id="path12"
       d="m 328.89001,41.060001 -6.80001,3.879998 1.55999,-3.590001 -1.94998,-3.389999 z"
       style="fill:#000000;fill-opacity:1;fill-rule:nonzero;stroke:#000000;stroke-width:1;stroke-linecap:butt;stroke-linejoin:miter;stroke-miterlimit:10;stroke-dasharray:none;stroke-opacity:1"
       transform="matrix(0.95762706,0,0,0.95762706,0.47881353,0.47881353)"
       clip-path="url(#clipPath13)" />
    <path
       id="path14"
       d="m 260,31 h 40 v 100 h -40 z"
       style="fill:#f5f5f5;fill-opacity:1;fill-rule:nonzero;stroke:#666666;stroke-width:1;stroke-linecap:butt;stroke-linejoin:miter;stroke-miterlimit:10;stroke-dasharray:none;stroke-opacity:1"
       transform="matrix(0.95762706,0,0,0.95762706,0.47881353,0.47881353)"
       clip-path="url(#clipPath15)" />
    <text
       id="text15"
       xml:space="preserve"
       transform="matrix(0.95763666,0,0,0.95763666,250.88585,81.399116)"
       clip-path="url(#clipPath16)"><tspan
         style="font-style:oblique;font-variant:normal;font-weight:normal;font-size:12px;font-family:Helvetica;writing-mode:lr-tb;fill:#333333;fill-opacity:1;fill-rule:nonzero;stroke:none"
         x="0 9.3339844 16.007812 19.341797 26.015625 32.689453"
         y="0"
         sodipodi:role="line"
         id="tspan15">Output</tspan></text>
    <path
       id="path17"
       d="m 90,41 h 23.63"
       style="fill:none;stroke:#000000;stroke-width:1;stroke-linecap:butt;stroke-linejoin:miter;stroke-miterlimit:10;stroke-dasharray:none;stroke-opacity:1"
       transform="matrix(0.95762706,0,0,0.95762706,0.47881353,0.47881353)"
       clip-path="url(#clipPath18)" />
    <path
       id="path19"
       d="m 118.88,41 -7,3.5 1.75,-3.5 -1.75,-3.5 z"
       style="fill:#000000;fill-opacity:1;fill-rule:nonzero;stroke:#000000;stroke-width:1;stroke-linecap:butt;stroke-linejoin:miter;stroke-miterlimit:10;stroke-dasharray:none;stroke-opacity:1"
       transform="matrix(0.95762706,0,0,0.95762706,0.47881353,0.47881353)"
       clip-path="url(#clipPath20)" />
    <text
       id="text20"
       xml:space="preserve"
       transform="matrix(0.95763666,0,0,0.95763666,11.551492,43.09365)"
       clip-path="url(#clipPath21)"><tspan
         style="font-variant:normal;font-weight:normal;font-size:12px;font-family:Helvetica;writing-mode:lr-tb;fill:#000000;fill-opacity:1;fill-rule:nonzero;stroke:none"
         x="0 4.2597656 14.255859 20.255859 26.929688 33.603516 39.603516 45.603516 54.269531 60.943359 64.939453 71.613281"
         y="0"
         sodipodi:role="line"
         id="tspan20">&quot;mypassword&quot;</tspan></text>
    <text
       id="text21"
       xml:space="preserve"
       transform="matrix(0.95763666,0,0,0.95763666,321.4517,43.09365)"
       clip-path="url(#clipPath22)"><tspan
         style="font-variant:normal;font-weight:normal;font-size:12px;font-family:Helvetica;writing-mode:lr-tb;fill:#000000;fill-opacity:1;fill-rule:nonzero;stroke:none"
         x="0 4.2597656 10.933594 17.607422 24.28125 30.955078 37.628906 44.302734 50.976562 57.650391 60.984375 67.658203 74.332031 81.005859 87.679688 94.353516 101.02734 107.70117 114.375"
         y="0"
         sodipodi:role="line"
         id="tspan21">&quot;477d20a7f924a59d8&quot;</tspan></text>
    <path
       id="path23"
       d="m 100,181 h 220 v 60 H 100 Z"
       style="fill:#f8cecc;fill-opacity:1;fill-rule:nonzero;stroke:#b85450;stroke-width:1;stroke-linecap:butt;stroke-linejoin:miter;stroke-miterlimit:10;stroke-dasharray:none;stroke-opacity:1"
       transform="matrix(0.95762706,0,0,0.95762706,0.47881353,0.47881353)"
       clip-path="url(#clipPath24)" />
    <text
       id="text24"
       xml:space="preserve"
       transform="matrix(0.95763666,0,0,0.95763666,99.534361,199.18843)"
       clip-path="url(#clipPath25)"><tspan
         style="font-style:oblique;font-variant:normal;font-weight:normal;font-size:12px;font-family:Helvetica;writing-mode:lr-tb;fill:#000000;fill-opacity:1;fill-rule:nonzero;stroke:none"
         x="0 7.3476562 14.021484 18.017578 24.017578 27.351562 33.351562 43.347656 50.021484 52.6875 55.353516 58.6875 64.6875 71.361328 78.035156 84.708984 91.382812 98.056641 104.05664 107.39062 110.72461 117.39844 120.73242 124.06641 130.74023 137.41406 140.74805 143.41406 150.08789 156.76172 163.43555 166.76953 170.10352 174.09961 180.77344 186.77344 193.44727 196.11328 199.44727 202.78125 205.44727"
         y="0"
         sodipodi:role="line"
         id="tspan24">Very small changes to the input result in</tspan></text>
    <text
       id="text25"
       xml:space="preserve"
       transform="matrix(0.95763666,0,0,0.95763666,136.67271,213.55298)"
       clip-path="url(#clipPath26)"><tspan
         style="font-style:oblique;font-variant:normal;font-weight:normal;font-size:12px;font-family:Helvetica;writing-mode:lr-tb;fill:#000000;fill-opacity:1;fill-rule:nonzero;stroke:none"
         x="0 6.6738281 10.007812 16.007812 22.681641 32.677734 39.351562 42.017578 48.691406 52.025391 58.699219 62.033203 68.707031 71.373047 74.496094 77.830078 84.503906 88.5 95.173828 101.84766 105.18164 108.51562 115.18945 121.86328 127.86328"
         y="0"
         sodipodi:role="line"
         id="tspan25">a complete different hash</tspan></text>
    <path
       id="path27"
       d="m 90,121 h 23.63"
       style="fill:none;stroke:#000000;stroke-width:1;stroke-linecap:butt;stroke-linejoin:miter;stroke-miterlimit:10;stroke-dasharray:none;stroke-opacity:1"
       transform="matrix(0.95762706,0,0,0.95762706,0.47881353,0.47881353)"
       clip-path="url(#clipPath28)" />
    <path
       id="path29"
       d="m 118.88,121 -7,3.5 1.75,-3.5 -1.75,-3.5 z"
       style="fill:#000000;fill-opacity:1;fill-rule:nonzero;stroke:#000000;stroke-width:1;stroke-linecap:butt;stroke-linejoin:miter;stroke-miterlimit:10;stroke-dasharray:none;stroke-opacity:1"
       transform="matrix(0.95762706,0,0,0.95762706,0.47881353,0.47881353)"
       clip-path="url(#clipPath30)" />
    <text
       id="text30"
       xml:space="preserve"
       transform="matrix(0.95763666,0,0,0.95763666,3.5612113,119.70458)"
       clip-path="url(#clipPath31)"><tspan
         style="font-variant:normal;font-weight:normal;font-size:12px;font-family:Helvetica;writing-mode:lr-tb;fill:#000000;fill-opacity:1;fill-rule:nonzero;stroke:none"
         x="0 4.2597656 14.255859 20.255859 26.929688 33.603516 39.603516 45.603516 54.269531 60.943359 64.939453 71.613281 78.287109"
         y="0"
         sodipodi:role="line"
         id="tspan30">&quot;mypassword1&quot;</tspan></text>
    <path
       id="path32"
       d="m 300,121 21,0.5 2.64999,-0.15"
       style="fill:none;stroke:#000000;stroke-width:1;stroke-linecap:butt;stroke-linejoin:miter;stroke-miterlimit:10;stroke-dasharray:none;stroke-opacity:1"
       transform="matrix(0.95762706,0,0,0.95762706,0.47881353,0.47881353)"
       clip-path="url(#clipPath33)" />
    <path
       id="path34"
       d="m 328.89001,121.06 -6.80001,3.88 1.55999,-3.59 -1.94998,-3.39 z"
       style="fill:#000000;fill-opacity:1;fill-rule:nonzero;stroke:#000000;stroke-width:1;stroke-linecap:butt;stroke-linejoin:miter;stroke-miterlimit:10;stroke-dasharray:none;stroke-opacity:1"
       transform="matrix(0.95762706,0,0,0.95762706,0.47881353,0.47881353)"
       clip-path="url(#clipPath35)" />
    <text
       id="text35"
       xml:space="preserve"
       transform="matrix(0.95763666,0,0,0.95763666,320.5988,119.70458)"
       clip-path="url(#clipPath36)"><tspan
         style="font-variant:normal;font-weight:normal;font-size:12px;font-family:Helvetica;writing-mode:lr-tb;fill:#000000;fill-opacity:1;fill-rule:nonzero;stroke:none"
         x="0 4.2597656 10.259766 16.933594 20.267578 26.941406 33.615234 40.289062 46.962891 53.636719 59.636719 66.310547 69.433594 72.767578 79.441406 86.115234 92.789062 99.462891 106.13672 112.81055 119.48438 126.1582"
         y="0"
         sodipodi:role="line"
         id="tspan35">&quot;c8f444e8caffe30a3b85&quot;</tspan></text>
  </g>
</svg>
