<?xml version="1.0" encoding="UTF-8" standalone="no"?>
<!-- Created with Inkscape (http://www.inkscape.org/) -->

<svg
   version="1.1"
   id="svg1"
   width="357.44"
   height="349.44"
   viewBox="0 0 357.44 349.44"
   sodipodi:docname="nest-9.pdf"
   xmlns:inkscape="http://www.inkscape.org/namespaces/inkscape"
   xmlns:sodipodi="http://sodipodi.sourceforge.net/DTD/sodipodi-0.dtd"
   xmlns="http://www.w3.org/2000/svg"
   xmlns:svg="http://www.w3.org/2000/svg">
  <defs
     id="defs1">
    <clipPath
       clipPathUnits="userSpaceOnUse"
       id="clipPath2">
      <path
         d="M 0,0 H 1116.6665 V 1089.7229 H 0 Z"
         transform="scale(0.33402989)"
         clip-rule="evenodd"
         id="path2" />
    </clipPath>
    <clipPath
       clipPathUnits="userSpaceOnUse"
       id="clipPath4">
      <path
         d="M 0,0 H 1116.6665 V 1089.7229 H 0 Z"
         transform="matrix(0.33402989,0,0,0.33402989,-0.50000001,-0.50000001)"
         clip-rule="evenodd"
         id="path4" />
    </clipPath>
    <clipPath
       clipPathUnits="userSpaceOnUse"
       id="clipPath5">
      <path
         d="M 0,0 H 1116.6665 V 1089.7229 H 0 Z"
         transform="matrix(0.33402653,0,0,0.33402653,-44.734375,-22)"
         clip-rule="evenodd"
         id="path5" />
    </clipPath>
    <clipPath
       clipPathUnits="userSpaceOnUse"
       id="clipPath7">
      <path
         d="M 0,0 H 1116.6665 V 1089.7229 H 0 Z"
         transform="matrix(0.33402989,0,0,0.33402989,-0.50000001,-0.50000001)"
         clip-rule="evenodd"
         id="path7" />
    </clipPath>
    <clipPath
       clipPathUnits="userSpaceOnUse"
       id="clipPath9">
      <path
         d="M 0,0 H 1116.6665 V 1089.7229 H 0 Z"
         transform="matrix(0.33402989,0,0,0.33402989,-0.50000001,-0.50000001)"
         clip-rule="evenodd"
         id="path9" />
    </clipPath>
    <clipPath
       clipPathUnits="userSpaceOnUse"
       id="clipPath11">
      <path
         d="M 0,0 H 1116.6665 V 1089.7229 H 0 Z"
         transform="matrix(0.33402989,0,0,0.33402989,-0.50000001,-0.50000001)"
         clip-rule="evenodd"
         id="path11" />
    </clipPath>
    <clipPath
       clipPathUnits="userSpaceOnUse"
       id="clipPath13">
      <path
         d="M 0,0 H 1116.6665 V 1089.7229 H 0 Z"
         transform="matrix(0.33402989,0,0,0.33402989,-0.50000001,-0.50000001)"
         clip-rule="evenodd"
         id="path13" />
    </clipPath>
    <clipPath
       clipPathUnits="userSpaceOnUse"
       id="clipPath14">
      <path
         d="M 0,0 H 1116.6665 V 1089.7229 H 0 Z"
         transform="matrix(0.33402653,0,0,0.33402653,-54.734375,-62.000001)"
         clip-rule="evenodd"
         id="path14" />
    </clipPath>
    <clipPath
       clipPathUnits="userSpaceOnUse"
       id="clipPath16">
      <path
         d="M 0,0 H 1116.6665 V 1089.7229 H 0 Z"
         transform="matrix(0.33402989,0,0,0.33402989,-0.50000001,-0.50000001)"
         clip-rule="evenodd"
         id="path16" />
    </clipPath>
    <clipPath
       clipPathUnits="userSpaceOnUse"
       id="clipPath17">
      <path
         d="M 0,0 H 1116.6665 V 1089.7229 H 0 Z"
         transform="matrix(0.33402653,0,0,0.33402653,-62.234376,-102)"
         clip-rule="evenodd"
         id="path17" />
    </clipPath>
    <clipPath
       clipPathUnits="userSpaceOnUse"
       id="clipPath19">
      <path
         d="M 0,0 H 1116.6665 V 1089.7229 H 0 Z"
         transform="matrix(0.33402989,0,0,0.33402989,-0.50000001,-0.50000001)"
         clip-rule="evenodd"
         id="path19" />
    </clipPath>
    <clipPath
       clipPathUnits="userSpaceOnUse"
       id="clipPath20">
      <path
         d="M 0,0 H 1116.6665 V 1089.7229 H 0 Z"
         transform="matrix(0.33402653,0,0,0.33402653,-62.640625,-142)"
         clip-rule="evenodd"
         id="path20" />
    </clipPath>
    <clipPath
       clipPathUnits="userSpaceOnUse"
       id="clipPath22">
      <path
         d="M 0,0 H 1116.6665 V 1089.7229 H 0 Z"
         transform="matrix(0.33402989,0,0,0.33402989,-0.50000001,-0.50000001)"
         clip-rule="evenodd"
         id="path22" />
    </clipPath>
    <clipPath
       clipPathUnits="userSpaceOnUse"
       id="clipPath23">
      <path
         d="M 0,0 H 1116.6665 V 1089.7229 H 0 Z"
         transform="matrix(0.33402653,0,0,0.33402653,-72.234376,-182)"
         clip-rule="evenodd"
         id="path23" />
    </clipPath>
    <clipPath
       clipPathUnits="userSpaceOnUse"
       id="clipPath25">
      <path
         d="M 0,0 H 1116.6665 V 1089.7229 H 0 Z"
         transform="matrix(0.33402989,0,0,0.33402989,-0.50000001,-0.50000001)"
         clip-rule="evenodd"
         id="path25" />
    </clipPath>
    <clipPath
       clipPathUnits="userSpaceOnUse"
       id="clipPath26">
      <path
         d="M 0,0 H 1116.6665 V 1089.7229 H 0 Z"
         transform="matrix(0.33402653,0,0,0.33402653,-70.578125,-222)"
         clip-rule="evenodd"
         id="path26" />
    </clipPath>
    <clipPath
       clipPathUnits="userSpaceOnUse"
       id="clipPath28">
      <path
         d="M 0,0 H 1116.6665 V 1089.7229 H 0 Z"
         transform="matrix(0.33402989,0,0,0.33402989,-0.50000001,-0.50000001)"
         clip-rule="evenodd"
         id="path28" />
    </clipPath>
    <clipPath
       clipPathUnits="userSpaceOnUse"
       id="clipPath29">
      <path
         d="M 0,0 H 1116.6665 V 1089.7229 H 0 Z"
         transform="matrix(0.33402653,0,0,0.33402653,-66.390625,-262)"
         clip-rule="evenodd"
         id="path29" />
    </clipPath>
    <clipPath
       clipPathUnits="userSpaceOnUse"
       id="clipPath31">
      <path
         d="M 0,0 H 1116.6665 V 1089.7229 H 0 Z"
         transform="matrix(0.33402989,0,0,0.33402989,-0.50000001,-0.50000001)"
         clip-rule="evenodd"
         id="path31" />
    </clipPath>
    <clipPath
       clipPathUnits="userSpaceOnUse"
       id="clipPath32">
      <path
         d="M 0,0 H 1116.6665 V 1089.7229 H 0 Z"
         transform="matrix(0.33402653,0,0,0.33402653,-51.390626,-302)"
         clip-rule="evenodd"
         id="path32" />
    </clipPath>
    <clipPath
       clipPathUnits="userSpaceOnUse"
       id="clipPath33">
      <path
         d="M 0,0 H 1116.6665 V 1089.7229 H 0 Z"
         transform="matrix(0.33402653,0,0,0.33402653,-203,-60)"
         clip-rule="evenodd"
         id="path33" />
    </clipPath>
    <clipPath
       clipPathUnits="userSpaceOnUse"
       id="clipPath35">
      <path
         d="M 0,0 H 1116.6665 V 1089.7229 H 0 Z"
         transform="matrix(0.33402989,0,0,0.33402989,-0.50000001,-0.50000001)"
         clip-rule="evenodd"
         id="path35" />
    </clipPath>
    <clipPath
       clipPathUnits="userSpaceOnUse"
       id="clipPath37">
      <path
         d="M 0,0 H 1116.6665 V 1089.7229 H 0 Z"
         transform="matrix(0.33402989,0,0,0.33402989,-0.50000001,-0.50000001)"
         clip-rule="evenodd"
         id="path37" />
    </clipPath>
    <clipPath
       clipPathUnits="userSpaceOnUse"
       id="clipPath38">
      <path
         d="M 0,0 H 1116.6665 V 1089.7229 H 0 Z"
         transform="matrix(0.33402653,0,0,0.33402653,-203,-93)"
         clip-rule="evenodd"
         id="path38" />
    </clipPath>
    <clipPath
       clipPathUnits="userSpaceOnUse"
       id="clipPath39">
      <path
         d="M 0,0 H 1116.6665 V 1089.7229 H 0 Z"
         transform="matrix(0.33402653,0,0,0.33402653,-203,-107)"
         clip-rule="evenodd"
         id="path39" />
    </clipPath>
    <clipPath
       clipPathUnits="userSpaceOnUse"
       id="clipPath41">
      <path
         d="M 0,0 H 1116.6665 V 1089.7229 H 0 Z"
         transform="matrix(0.33402989,0,0,0.33402989,-0.50000001,-0.50000001)"
         clip-rule="evenodd"
         id="path41" />
    </clipPath>
    <clipPath
       clipPathUnits="userSpaceOnUse"
       id="clipPath43">
      <path
         d="M 0,0 H 1116.6665 V 1089.7229 H 0 Z"
         transform="matrix(0.33402989,0,0,0.33402989,-0.50000001,-0.50000001)"
         clip-rule="evenodd"
         id="path43" />
    </clipPath>
    <clipPath
       clipPathUnits="userSpaceOnUse"
       id="clipPath44">
      <path
         d="M 0,0 H 1116.6665 V 1089.7229 H 0 Z"
         transform="matrix(0.33402653,0,0,0.33402653,-203,-140)"
         clip-rule="evenodd"
         id="path44" />
    </clipPath>
    <clipPath
       clipPathUnits="userSpaceOnUse"
       id="clipPath46">
      <path
         d="M 0,0 H 1116.6665 V 1089.7229 H 0 Z"
         transform="matrix(0.33402989,0,0,0.33402989,-0.50000001,-0.50000001)"
         clip-rule="evenodd"
         id="path46" />
    </clipPath>
    <clipPath
       clipPathUnits="userSpaceOnUse"
       id="clipPath48">
      <path
         d="M 0,0 H 1116.6665 V 1089.7229 H 0 Z"
         transform="matrix(0.33402989,0,0,0.33402989,-0.50000001,-0.50000001)"
         clip-rule="evenodd"
         id="path48" />
    </clipPath>
    <clipPath
       clipPathUnits="userSpaceOnUse"
       id="clipPath49">
      <path
         d="M 0,0 H 1116.6665 V 1089.7229 H 0 Z"
         transform="matrix(0.33402653,0,0,0.33402653,-203,-180)"
         clip-rule="evenodd"
         id="path49" />
    </clipPath>
    <clipPath
       clipPathUnits="userSpaceOnUse"
       id="clipPath51">
      <path
         d="M 0,0 H 1116.6665 V 1089.7229 H 0 Z"
         transform="matrix(0.33402989,0,0,0.33402989,-0.50000001,-0.50000001)"
         clip-rule="evenodd"
         id="path51" />
    </clipPath>
    <clipPath
       clipPathUnits="userSpaceOnUse"
       id="clipPath53">
      <path
         d="M 0,0 H 1116.6665 V 1089.7229 H 0 Z"
         transform="matrix(0.33402989,0,0,0.33402989,-0.50000001,-0.50000001)"
         clip-rule="evenodd"
         id="path53" />
    </clipPath>
    <clipPath
       clipPathUnits="userSpaceOnUse"
       id="clipPath54">
      <path
         d="M 0,0 H 1116.6665 V 1089.7229 H 0 Z"
         transform="matrix(0.33402653,0,0,0.33402653,-203,-213)"
         clip-rule="evenodd"
         id="path54" />
    </clipPath>
    <clipPath
       clipPathUnits="userSpaceOnUse"
       id="clipPath55">
      <path
         d="M 0,0 H 1116.6665 V 1089.7229 H 0 Z"
         transform="matrix(0.33402653,0,0,0.33402653,-203,-227)"
         clip-rule="evenodd"
         id="path55" />
    </clipPath>
    <clipPath
       clipPathUnits="userSpaceOnUse"
       id="clipPath57">
      <path
         d="M 0,0 H 1116.6665 V 1089.7229 H 0 Z"
         transform="matrix(0.33402989,0,0,0.33402989,-0.50000001,-0.50000001)"
         clip-rule="evenodd"
         id="path57" />
    </clipPath>
    <clipPath
       clipPathUnits="userSpaceOnUse"
       id="clipPath59">
      <path
         d="M 0,0 H 1116.6665 V 1089.7229 H 0 Z"
         transform="matrix(0.33402989,0,0,0.33402989,-0.50000001,-0.50000001)"
         clip-rule="evenodd"
         id="path59" />
    </clipPath>
    <clipPath
       clipPathUnits="userSpaceOnUse"
       id="clipPath60">
      <path
         d="M 0,0 H 1116.6665 V 1089.7229 H 0 Z"
         transform="matrix(0.33402653,0,0,0.33402653,-203,-260)"
         clip-rule="evenodd"
         id="path60" />
    </clipPath>
    <clipPath
       clipPathUnits="userSpaceOnUse"
       id="clipPath62">
      <path
         d="M 0,0 H 1116.6665 V 1089.7229 H 0 Z"
         transform="matrix(0.33402989,0,0,0.33402989,-0.50000001,-0.50000001)"
         clip-rule="evenodd"
         id="path62" />
    </clipPath>
    <clipPath
       clipPathUnits="userSpaceOnUse"
       id="clipPath64">
      <path
         d="M 0,0 H 1116.6665 V 1089.7229 H 0 Z"
         transform="matrix(0.33402989,0,0,0.33402989,-0.50000001,-0.50000001)"
         clip-rule="evenodd"
         id="path64" />
    </clipPath>
    <clipPath
       clipPathUnits="userSpaceOnUse"
       id="clipPath65">
      <path
         d="M 0,0 H 1116.6665 V 1089.7229 H 0 Z"
         transform="matrix(0.33402653,0,0,0.33402653,-203,-293)"
         clip-rule="evenodd"
         id="path65" />
    </clipPath>
    <clipPath
       clipPathUnits="userSpaceOnUse"
       id="clipPath66">
      <path
         d="M 0,0 H 1116.6665 V 1089.7229 H 0 Z"
         transform="matrix(0.33402653,0,0,0.33402653,-203,-307.00001)"
         clip-rule="evenodd"
         id="path66" />
    </clipPath>
    <clipPath
       clipPathUnits="userSpaceOnUse"
       id="clipPath68">
      <path
         d="M 0,0 H 1116.6665 V 1089.7229 H 0 Z"
         transform="matrix(0.33402989,0,0,0.33402989,-0.50000001,-0.50000001)"
         clip-rule="evenodd"
         id="path68" />
    </clipPath>
    <clipPath
       clipPathUnits="userSpaceOnUse"
       id="clipPath69">
      <path
         d="M 0,0 H 1116.6665 V 1089.7229 H 0 Z"
         transform="matrix(0.33402653,0,0,0.33402653,-49.3125,-342)"
         clip-rule="evenodd"
         id="path69" />
    </clipPath>
    <clipPath
       clipPathUnits="userSpaceOnUse"
       id="clipPath71">
      <path
         d="M 0,0 H 1116.6665 V 1089.7229 H 0 Z"
         transform="matrix(0.33402989,0,0,0.33402989,-0.50000001,-0.50000001)"
         clip-rule="evenodd"
         id="path71" />
    </clipPath>
    <clipPath
       clipPathUnits="userSpaceOnUse"
       id="clipPath73">
      <path
         d="M 0,0 H 1116.6665 V 1089.7229 H 0 Z"
         transform="matrix(0.33402989,0,0,0.33402989,-0.50000001,-0.50000001)"
         clip-rule="evenodd"
         id="path73" />
    </clipPath>
    <clipPath
       clipPathUnits="userSpaceOnUse"
       id="clipPath74">
      <path
         d="M 0,0 H 1116.6665 V 1089.7229 H 0 Z"
         transform="matrix(0.33402653,0,0,0.33402653,-203,-340)"
         clip-rule="evenodd"
         id="path74" />
    </clipPath>
  </defs>
  <sodipodi:namedview
     id="namedview1"
     pagecolor="#ffffff"
     bordercolor="#000000"
     borderopacity="0.25"
     inkscape:showpageshadow="2"
     inkscape:pageopacity="0.0"
     inkscape:pagecheckerboard="0"
     inkscape:deskcolor="#d1d1d1">
    <inkscape:page
       x="0"
       y="0"
       inkscape:label="1"
       id="page1"
       width="357.44"
       height="349.44"
       margin="0"
       bleed="0" />
  </sodipodi:namedview>
  <g
     id="g1"
     inkscape:groupmode="layer"
     inkscape:label="1">
    <path
       id="path1"
       d="M 0,0 H 373 V 364 H 0 Z"
       style="fill:#ffffff;fill-opacity:1;fill-rule:nonzero;stroke:none"
       transform="scale(0.95799807)"
       clip-path="url(#clipPath2)" />
    <path
       id="path3"
       d="M 1,1 H 181 V 31 H 1 Z"
       style="fill:#f5f5f5;fill-opacity:1;fill-rule:nonzero;stroke:#666666;stroke-width:1;stroke-linecap:butt;stroke-linejoin:miter;stroke-miterlimit:10;stroke-dasharray:none;stroke-opacity:1"
       transform="matrix(0.95799807,0,0,0.95799807,0.47899904,0.47899904)"
       clip-path="url(#clipPath4)" />
    <text
       id="text4"
       xml:space="preserve"
       transform="matrix(0.9580077,0,0,0.9580077,42.855876,21.076169)"
       clip-path="url(#clipPath5)"><tspan
         style="font-variant:normal;font-weight:700;font-size:15px;font-family:Helvetica;writing-mode:lr-tb;fill:#333333;fill-opacity:1;fill-rule:nonzero;stroke:none"
         x="0 10.004883 18.347168 24.18457 29.179688 37.521973 41.689453 50.852051 55.847168 60.014648 70.847168 79.189453 87.531738"
         y="0"
         sodipodi:role="line"
         id="tspan4">Parts of Nest</tspan></text>
    <path
       id="path6"
       d="M 1,31 H 181 V 361 H 1 Z"
       style="fill:#f5f5f5;fill-opacity:1;fill-rule:nonzero;stroke:#666666;stroke-width:1;stroke-linecap:butt;stroke-linejoin:miter;stroke-miterlimit:10;stroke-dasharray:none;stroke-opacity:1"
       transform="matrix(0.95799807,0,0,0.95799807,0.47899904,0.47899904)"
       clip-path="url(#clipPath7)" />
    <path
       id="path8"
       d="m 171,56 h 23.63"
       style="fill:none;stroke:#000000;stroke-width:1;stroke-linecap:butt;stroke-linejoin:miter;stroke-miterlimit:10;stroke-dasharray:none;stroke-opacity:1"
       transform="matrix(0.95799807,0,0,0.95799807,0.47899904,0.47899904)"
       clip-path="url(#clipPath9)" />
    <path
       id="path10"
       d="m 199.88,56 -7,3.5 1.75,-3.5 -1.75,-3.5 z"
       style="fill:#000000;fill-opacity:1;fill-rule:nonzero;stroke:#000000;stroke-width:1;stroke-linecap:butt;stroke-linejoin:miter;stroke-miterlimit:10;stroke-dasharray:none;stroke-opacity:1"
       transform="matrix(0.95799807,0,0,0.95799807,0.47899904,0.47899904)"
       clip-path="url(#clipPath11)" />
    <path
       id="path12"
       d="M 11,41 H 171 V 71 H 11 Z"
       style="fill:#ffffff;fill-opacity:1;fill-rule:nonzero;stroke:#000000;stroke-width:1;stroke-linecap:butt;stroke-linejoin:miter;stroke-miterlimit:10;stroke-dasharray:none;stroke-opacity:1"
       transform="matrix(0.95799807,0,0,0.95799807,0.47899904,0.47899904)"
       clip-path="url(#clipPath13)" />
    <text
       id="text13"
       xml:space="preserve"
       transform="matrix(0.9580077,0,0,0.9580077,52.435953,59.396478)"
       clip-path="url(#clipPath14)"><tspan
         style="font-variant:normal;font-weight:normal;font-size:15px;font-family:Helvetica;writing-mode:lr-tb;fill:#000000;fill-opacity:1;fill-rule:nonzero;stroke:none"
         x="0 10.83252 19.174805 27.51709 31.68457 36.679688 45.021973 48.354492 51.687012 60.029297 65.024414"
         y="0"
         sodipodi:role="line"
         id="tspan13">Controllers</tspan></text>
    <path
       id="path15"
       d="m 11,81 h 160 v 30 H 11 Z"
       style="fill:#ffffff;fill-opacity:1;fill-rule:nonzero;stroke:#000000;stroke-width:1;stroke-linecap:butt;stroke-linejoin:miter;stroke-miterlimit:10;stroke-dasharray:none;stroke-opacity:1"
       transform="matrix(0.95799807,0,0,0.95799807,0.47899904,0.47899904)"
       clip-path="url(#clipPath16)" />
    <text
       id="text16"
       xml:space="preserve"
       transform="matrix(0.9580077,0,0,0.9580077,59.621011,97.716786)"
       clip-path="url(#clipPath17)"><tspan
         style="font-variant:normal;font-weight:normal;font-size:15px;font-family:Helvetica;writing-mode:lr-tb;fill:#000000;fill-opacity:1;fill-rule:nonzero;stroke:none"
         x="0 10.004883 18.347168 23.342285 30.842285 34.174805 41.674805 50.01709"
         y="0"
         sodipodi:role="line"
         id="tspan16">Services</tspan></text>
    <path
       id="path18"
       d="m 11,121 h 160 v 30 H 11 Z"
       style="fill:#ffffff;fill-opacity:1;fill-rule:nonzero;stroke:#000000;stroke-width:1;stroke-linecap:butt;stroke-linejoin:miter;stroke-miterlimit:10;stroke-dasharray:none;stroke-opacity:1"
       transform="matrix(0.95799807,0,0,0.95799807,0.47899904,0.47899904)"
       clip-path="url(#clipPath19)" />
    <text
       id="text19"
       xml:space="preserve"
       transform="matrix(0.9580077,0,0,0.9580077,60.010201,136.03709)"
       clip-path="url(#clipPath20)"><tspan
         style="font-variant:normal;font-weight:normal;font-size:15px;font-family:Helvetica;writing-mode:lr-tb;fill:#000000;fill-opacity:1;fill-rule:nonzero;stroke:none"
         x="0 12.495117 20.837402 29.179688 37.521973 40.854492 49.196777"
         y="0"
         sodipodi:role="line"
         id="tspan19">Modules</tspan></text>
    <path
       id="path21"
       d="m 11,161 h 160 v 30 H 11 Z"
       style="fill:#ffffff;fill-opacity:1;fill-rule:nonzero;stroke:#000000;stroke-width:1;stroke-linecap:butt;stroke-linejoin:miter;stroke-miterlimit:10;stroke-dasharray:none;stroke-opacity:1"
       transform="matrix(0.95799807,0,0,0.95799807,0.47899904,0.47899904)"
       clip-path="url(#clipPath22)" />
    <text
       id="text22"
       xml:space="preserve"
       transform="matrix(0.9580077,0,0,0.9580077,69.201088,174.3574)"
       clip-path="url(#clipPath23)"><tspan
         style="font-variant:normal;font-weight:normal;font-size:15px;font-family:Helvetica;writing-mode:lr-tb;fill:#000000;fill-opacity:1;fill-rule:nonzero;stroke:none"
         x="0 10.004883 13.337402 21.679688 30.021973"
         y="0"
         sodipodi:role="line"
         id="tspan22">Pipes</tspan></text>
    <path
       id="path24"
       d="m 11,201 h 160 v 30 H 11 Z"
       style="fill:#ffffff;fill-opacity:1;fill-rule:nonzero;stroke:#000000;stroke-width:1;stroke-linecap:butt;stroke-linejoin:miter;stroke-miterlimit:10;stroke-dasharray:none;stroke-opacity:1"
       transform="matrix(0.95799807,0,0,0.95799807,0.47899904,0.47899904)"
       clip-path="url(#clipPath25)" />
    <text
       id="text25"
       xml:space="preserve"
       transform="matrix(0.9580077,0,0,0.9580077,67.614387,212.67771)"
       clip-path="url(#clipPath26)"><tspan
         style="font-variant:normal;font-weight:normal;font-size:15px;font-family:Helvetica;writing-mode:lr-tb;fill:#000000;fill-opacity:1;fill-rule:nonzero;stroke:none"
         x="0 9.1625977 12.495117 15.827637 19.995117 28.337402 33.33252"
         y="0"
         sodipodi:role="line"
         id="tspan25">Filters</tspan></text>
    <path
       id="path27"
       d="m 11,241 h 160 v 30 H 11 Z"
       style="fill:#ffffff;fill-opacity:1;fill-rule:nonzero;stroke:#000000;stroke-width:1;stroke-linecap:butt;stroke-linejoin:miter;stroke-miterlimit:10;stroke-dasharray:none;stroke-opacity:1"
       transform="matrix(0.95799807,0,0,0.95799807,0.47899904,0.47899904)"
       clip-path="url(#clipPath28)" />
    <text
       id="text28"
       xml:space="preserve"
       transform="matrix(0.9580077,0,0,0.9580077,63.60273,250.99802)"
       clip-path="url(#clipPath29)"><tspan
         style="font-variant:normal;font-weight:normal;font-size:15px;font-family:Helvetica;writing-mode:lr-tb;fill:#000000;fill-opacity:1;fill-rule:nonzero;stroke:none"
         x="0 11.66748 20.009766 28.352051 33.347168 41.689453"
         y="0"
         sodipodi:role="line"
         id="tspan28">Guards</tspan></text>
    <path
       id="path30"
       d="m 11,281 h 160 v 30 H 11 Z"
       style="fill:#ffffff;fill-opacity:1;fill-rule:nonzero;stroke:#000000;stroke-width:1;stroke-linecap:butt;stroke-linejoin:miter;stroke-miterlimit:10;stroke-dasharray:none;stroke-opacity:1"
       transform="matrix(0.95799807,0,0,0.95799807,0.47899904,0.47899904)"
       clip-path="url(#clipPath31)" />
    <text
       id="text31"
       xml:space="preserve"
       transform="matrix(0.9580077,0,0,0.9580077,49.232615,289.31833)"
       clip-path="url(#clipPath32)"><tspan
         style="font-variant:normal;font-weight:normal;font-size:15px;font-family:Helvetica;writing-mode:lr-tb;fill:#000000;fill-opacity:1;fill-rule:nonzero;stroke:none"
         x="0 4.1674805 12.509766 16.677246 25.019531 30.014648 37.514648 45.856934 54.199219 58.366699 66.708984 71.704102"
         y="0"
         sodipodi:role="line"
         id="tspan31">Interceptors</tspan></text>
    <text
       id="text32"
       xml:space="preserve"
       transform="matrix(0.9580077,0,0,0.9580077,194.47556,57.480462)"
       clip-path="url(#clipPath33)"><tspan
         style="font-style:oblique;font-variant:normal;font-weight:normal;font-size:11px;font-family:Helvetica;writing-mode:lr-tb;fill:#000000;fill-opacity:1;fill-rule:nonzero;stroke:none"
         x="0 7.9438477 14.061523 20.179199 26.296875 28.740723 34.858398 40.358398 43.414551 45.858398 51.976074 57.476074 63.59375 72.756836 75.200684 81.318359 87.436035 90.492188 94.155273 100.27295 106.39062 112.5083 118.62598 124.12598 127.18213"
         y="0"
         sodipodi:role="line"
         id="tspan32">Handles incoming requests</tspan></text>
    <path
       id="path34"
       d="m 171,96 h 23.63"
       style="fill:none;stroke:#000000;stroke-width:1;stroke-linecap:butt;stroke-linejoin:miter;stroke-miterlimit:10;stroke-dasharray:none;stroke-opacity:1"
       transform="matrix(0.95799807,0,0,0.95799807,0.47899904,0.47899904)"
       clip-path="url(#clipPath35)" />
    <path
       id="path36"
       d="m 199.88,96 -7,3.5 1.75,-3.5 -1.75,-3.5 z"
       style="fill:#000000;fill-opacity:1;fill-rule:nonzero;stroke:#000000;stroke-width:1;stroke-linecap:butt;stroke-linejoin:miter;stroke-miterlimit:10;stroke-dasharray:none;stroke-opacity:1"
       transform="matrix(0.95799807,0,0,0.95799807,0.47899904,0.47899904)"
       clip-path="url(#clipPath37)" />
    <text
       id="text37"
       xml:space="preserve"
       transform="matrix(0.9580077,0,0,0.9580077,194.47556,89.094716)"
       clip-path="url(#clipPath38)"><tspan
         style="font-style:oblique;font-variant:normal;font-weight:normal;font-size:11px;font-family:Helvetica;writing-mode:lr-tb;fill:#000000;fill-opacity:1;fill-rule:nonzero;stroke:none"
         x="0 7.9438477 14.061523 20.179199 26.296875 28.740723 34.858398 40.358398 43.414551 49.532227 55.649902 58.706055 64.82373 67.879883 73.997559 79.497559 84.997559 91.115234 96.615234 102.11523 105.17139 111.28906 117.40674"
         y="0"
         sodipodi:role="line"
         id="tspan37">Handles data access and</tspan></text>
    <text
       id="text38"
       xml:space="preserve"
       transform="matrix(0.9580077,0,0,0.9580077,194.47556,102.50682)"
       clip-path="url(#clipPath39)"><tspan
         style="font-style:oblique;font-variant:normal;font-weight:normal;font-size:11px;font-family:Helvetica;writing-mode:lr-tb;fill:#000000;fill-opacity:1;fill-rule:nonzero;stroke:none"
         x="0 6.1176758 12.235352 17.735352 20.179199 26.296875 32.414551 37.914551 43.414551 46.470703 48.914551 55.032227 61.149902 63.59375"
         y="0"
         sodipodi:role="line"
         id="tspan38">business logic</tspan></text>
    <path
       id="path40"
       d="m 171,136 h 23.63"
       style="fill:none;stroke:#000000;stroke-width:1;stroke-linecap:butt;stroke-linejoin:miter;stroke-miterlimit:10;stroke-dasharray:none;stroke-opacity:1"
       transform="matrix(0.95799807,0,0,0.95799807,0.47899904,0.47899904)"
       clip-path="url(#clipPath41)" />
    <path
       id="path42"
       d="m 199.88,136 -7,3.5 1.75,-3.5 -1.75,-3.5 z"
       style="fill:#000000;fill-opacity:1;fill-rule:nonzero;stroke:#000000;stroke-width:1;stroke-linecap:butt;stroke-linejoin:miter;stroke-miterlimit:10;stroke-dasharray:none;stroke-opacity:1"
       transform="matrix(0.95799807,0,0,0.95799807,0.47899904,0.47899904)"
       clip-path="url(#clipPath43)" />
    <text
       id="text43"
       xml:space="preserve"
       transform="matrix(0.9580077,0,0,0.9580077,194.47556,134.12108)"
       clip-path="url(#clipPath44)"><tspan
         style="font-style:oblique;font-variant:normal;font-weight:normal;font-size:11px;font-family:Helvetica;writing-mode:lr-tb;fill:#000000;fill-opacity:1;fill-rule:nonzero;stroke:none"
         x="0 8.5561523 12.219238 18.336914 24.45459 30.572266 36.072266 39.128418 42.18457 48.302246 54.419922 60.537598 63.59375 69.711426 75.829102 79.492188 82.54834 88.04834 94.166016 100.28369"
         y="0"
         sodipodi:role="line"
         id="tspan43">Groups together code</tspan></text>
    <path
       id="path45"
       d="m 171,176 h 23.63"
       style="fill:none;stroke:#000000;stroke-width:1;stroke-linecap:butt;stroke-linejoin:miter;stroke-miterlimit:10;stroke-dasharray:none;stroke-opacity:1"
       transform="matrix(0.95799807,0,0,0.95799807,0.47899904,0.47899904)"
       clip-path="url(#clipPath46)" />
    <path
       id="path47"
       d="m 199.88,176 -7,3.5 1.75,-3.5 -1.75,-3.5 z"
       style="fill:#000000;fill-opacity:1;fill-rule:nonzero;stroke:#000000;stroke-width:1;stroke-linecap:butt;stroke-linejoin:miter;stroke-miterlimit:10;stroke-dasharray:none;stroke-opacity:1"
       transform="matrix(0.95799807,0,0,0.95799807,0.47899904,0.47899904)"
       clip-path="url(#clipPath48)" />
    <text
       id="text48"
       xml:space="preserve"
       transform="matrix(0.9580077,0,0,0.9580077,194.47556,172.44139)"
       clip-path="url(#clipPath49)"><tspan
         style="font-style:oblique;font-variant:normal;font-weight:normal;font-size:11px;font-family:Helvetica;writing-mode:lr-tb;fill:#000000;fill-opacity:1;fill-rule:nonzero;stroke:none"
         x="0 6.5258789 12.643555 15.087402 17.53125 23.648926 29.766602 32.822754 38.94043 44.44043 47.496582 49.94043 56.058105 61.558105 67.675781 76.838867 79.282715 85.400391 91.518066 94.574219 100.69189 106.80957 109.86572"
         y="0"
         sodipodi:role="line"
         id="tspan48">Validates incoming data</tspan></text>
    <path
       id="path50"
       d="m 171,216 h 23.63"
       style="fill:none;stroke:#000000;stroke-width:1;stroke-linecap:butt;stroke-linejoin:miter;stroke-miterlimit:10;stroke-dasharray:none;stroke-opacity:1"
       transform="matrix(0.95799807,0,0,0.95799807,0.47899904,0.47899904)"
       clip-path="url(#clipPath51)" />
    <path
       id="path52"
       d="m 199.88,216 -7,3.5 1.75,-3.5 -1.75,-3.5 z"
       style="fill:#000000;fill-opacity:1;fill-rule:nonzero;stroke:#000000;stroke-width:1;stroke-linecap:butt;stroke-linejoin:miter;stroke-miterlimit:10;stroke-dasharray:none;stroke-opacity:1"
       transform="matrix(0.95799807,0,0,0.95799807,0.47899904,0.47899904)"
       clip-path="url(#clipPath53)" />
    <text
       id="text53"
       xml:space="preserve"
       transform="matrix(0.9580077,0,0,0.9580077,194.47556,204.05564)"
       clip-path="url(#clipPath54)"><tspan
         style="font-style:oblique;font-variant:normal;font-weight:normal;font-size:11px;font-family:Helvetica;writing-mode:lr-tb;fill:#000000;fill-opacity:1;fill-rule:nonzero;stroke:none"
         x="0 7.9438477 14.061523 20.179199 26.296875 28.740723 34.858398 40.358398 43.414551 49.532227 53.195312 56.858398 62.976074 66.63916 72.13916 75.195312 78.251465 84.369141 90.486816 93.542969 96.599121 102.7168 108.2168 113.7168 119.83447"
         y="0"
         sodipodi:role="line"
         id="tspan53">Handles errors that occur</tspan></text>
    <text
       id="text54"
       xml:space="preserve"
       transform="matrix(0.9580077,0,0,0.9580077,194.47556,217.46775)"
       clip-path="url(#clipPath55)"><tspan
         style="font-style:oblique;font-variant:normal;font-weight:normal;font-size:11px;font-family:Helvetica;writing-mode:lr-tb;fill:#000000;fill-opacity:1;fill-rule:nonzero;stroke:none"
         x="0 6.1176758 12.235352 15.898438 18.342285 24.459961 30.577637 33.633789 37.296875 43.414551 49.532227 55.649902 61.767578 67.267578 70.32373 73.379883 79.497559 85.615234 91.73291 97.850586 100.29443 102.73828 108.85596"
         y="0"
         sodipodi:role="line"
         id="tspan54">during request handling</tspan></text>
    <path
       id="path56"
       d="m 171,256 h 23.63"
       style="fill:none;stroke:#000000;stroke-width:1;stroke-linecap:butt;stroke-linejoin:miter;stroke-miterlimit:10;stroke-dasharray:none;stroke-opacity:1"
       transform="matrix(0.95799807,0,0,0.95799807,0.47899904,0.47899904)"
       clip-path="url(#clipPath57)" />
    <path
       id="path58"
       d="m 199.88,256 -7,3.5 1.75,-3.5 -1.75,-3.5 z"
       style="fill:#000000;fill-opacity:1;fill-rule:nonzero;stroke:#000000;stroke-width:1;stroke-linecap:butt;stroke-linejoin:miter;stroke-miterlimit:10;stroke-dasharray:none;stroke-opacity:1"
       transform="matrix(0.95799807,0,0,0.95799807,0.47899904,0.47899904)"
       clip-path="url(#clipPath59)" />
    <text
       id="text59"
       xml:space="preserve"
       transform="matrix(0.9580077,0,0,0.9580077,194.47556,249.082)"
       clip-path="url(#clipPath60)"><tspan
         style="font-style:oblique;font-variant:normal;font-weight:normal;font-size:11px;font-family:Helvetica;writing-mode:lr-tb;fill:#000000;fill-opacity:1;fill-rule:nonzero;stroke:none"
         x="0 7.9438477 14.061523 20.179199 26.296875 28.740723 34.858398 40.358398 43.414551 49.532227 55.649902 58.706055 64.82373 70.941406 77.059082 80.115234 82.559082 88.059082 94.176758 97.23291 99.676758 105.79443"
         y="0"
         sodipodi:role="line"
         id="tspan59">Handles authentication</tspan></text>
    <path
       id="path61"
       d="m 171,296 h 23.63"
       style="fill:none;stroke:#000000;stroke-width:1;stroke-linecap:butt;stroke-linejoin:miter;stroke-miterlimit:10;stroke-dasharray:none;stroke-opacity:1"
       transform="matrix(0.95799807,0,0,0.95799807,0.47899904,0.47899904)"
       clip-path="url(#clipPath62)" />
    <path
       id="path63"
       d="m 199.88,296 -7,3.5 1.75,-3.5 -1.75,-3.5 z"
       style="fill:#000000;fill-opacity:1;fill-rule:nonzero;stroke:#000000;stroke-width:1;stroke-linecap:butt;stroke-linejoin:miter;stroke-miterlimit:10;stroke-dasharray:none;stroke-opacity:1"
       transform="matrix(0.95799807,0,0,0.95799807,0.47899904,0.47899904)"
       clip-path="url(#clipPath64)" />
    <text
       id="text64"
       xml:space="preserve"
       transform="matrix(0.9580077,0,0,0.9580077,194.47556,280.69626)"
       clip-path="url(#clipPath65)"><tspan
         style="font-style:oblique;font-variant:normal;font-weight:normal;font-size:11px;font-family:Helvetica;writing-mode:lr-tb;fill:#000000;fill-opacity:1;fill-rule:nonzero;stroke:none"
         x="0 7.3369141 13.45459 19.572266 25.072266 28.128418 34.246094 39.746094 42.802246 46.465332 52.583008 55.63916 58.083008 64.200684 70.318359 72.762207 78.262207 81.318359 84.374512 90.492188 93.54834 95.992188 102.10986 107.60986 113.72754 122.89062 125.33447 131.45215"
         y="0"
         sodipodi:role="line"
         id="tspan64">Adds extra logic to incoming</tspan></text>
    <text
       id="text65"
       xml:space="preserve"
       transform="matrix(0.9580077,0,0,0.9580077,194.47556,294.10837)"
       clip-path="url(#clipPath66)"><tspan
         style="font-style:oblique;font-variant:normal;font-weight:normal;font-size:11px;font-family:Helvetica;writing-mode:lr-tb;fill:#000000;fill-opacity:1;fill-rule:nonzero;stroke:none"
         x="0 3.6630859 9.7807617 15.898438 22.016113 28.133789 33.633789 36.689941 42.189941 45.246094 51.36377 55.026855 58.083008 64.200684 70.318359 73.374512 79.492188 85.609863 88.053711 94.171387 100.28906 103.34521 107.0083 113.12598 118.62598 124.74365 130.86133 136.979 142.479 148.59668"
         y="0"
         sodipodi:role="line"
         id="tspan65">requests or outgoing responses</tspan></text>
    <path
       id="path67"
       d="m 11,321 h 160 v 30 H 11 Z"
       style="fill:#ffffff;fill-opacity:1;fill-rule:nonzero;stroke:#000000;stroke-width:1;stroke-linecap:butt;stroke-linejoin:miter;stroke-miterlimit:10;stroke-dasharray:none;stroke-opacity:1"
       transform="matrix(0.95799807,0,0,0.95799807,0.47899904,0.47899904)"
       clip-path="url(#clipPath68)" />
    <text
       id="text68"
       xml:space="preserve"
       transform="matrix(0.9580077,0,0,0.9580077,47.241755,327.63863)"
       clip-path="url(#clipPath69)"><tspan
         style="font-variant:normal;font-weight:normal;font-size:15px;font-family:Helvetica;writing-mode:lr-tb;fill:#000000;fill-opacity:1;fill-rule:nonzero;stroke:none"
         x="0 10.83252 19.174805 27.51709 35.859375 43.359375 46.691895 50.859375 59.20166 64.196777 67.529297 75.871582"
         y="0"
         sodipodi:role="line"
         id="tspan68">Repositories</tspan></text>
    <path
       id="path70"
       d="m 171,336 h 23.63"
       style="fill:none;stroke:#000000;stroke-width:1;stroke-linecap:butt;stroke-linejoin:miter;stroke-miterlimit:10;stroke-dasharray:none;stroke-opacity:1"
       transform="matrix(0.95799807,0,0,0.95799807,0.47899904,0.47899904)"
       clip-path="url(#clipPath71)" />
    <path
       id="path72"
       d="m 199.88,336 -7,3.5 1.75,-3.5 -1.75,-3.5 z"
       style="fill:#000000;fill-opacity:1;fill-rule:nonzero;stroke:#000000;stroke-width:1;stroke-linecap:butt;stroke-linejoin:miter;stroke-miterlimit:10;stroke-dasharray:none;stroke-opacity:1"
       transform="matrix(0.95799807,0,0,0.95799807,0.47899904,0.47899904)"
       clip-path="url(#clipPath73)" />
    <text
       id="text73"
       xml:space="preserve"
       transform="matrix(0.9580077,0,0,0.9580077,194.47556,325.72262)"
       clip-path="url(#clipPath74)"><tspan
         style="font-style:oblique;font-variant:normal;font-weight:normal;font-size:11px;font-family:Helvetica;writing-mode:lr-tb;fill:#000000;fill-opacity:1;fill-rule:nonzero;stroke:none"
         x="0 7.9438477 14.061523 20.179199 26.296875 28.740723 34.858398 40.358398 43.414551 49.532227 55.649902 58.706055 64.82373 67.879883 73.379883 76.436035 82.553711 86.216797 92.334473 98.452148 101.5083 103.95215 110.06982 113.12598 119.24365 122.2998 130.24365"
         y="0"
         sodipodi:role="line"
         id="tspan73">Handles data stored in a DB</tspan></text>
  </g>
</svg>
