<?xml version="1.0" encoding="UTF-8" standalone="no"?>
<!-- Created with Inkscape (http://www.inkscape.org/) -->

<svg
   version="1.1"
   id="svg1"
   width="405.44"
   height="218.56"
   viewBox="0 0 405.44 218.56"
   sodipodi:docname="nest-2.pdf"
   xmlns:inkscape="http://www.inkscape.org/namespaces/inkscape"
   xmlns:sodipodi="http://sodipodi.sourceforge.net/DTD/sodipodi-0.dtd"
   xmlns="http://www.w3.org/2000/svg"
   xmlns:svg="http://www.w3.org/2000/svg">
  <defs
     id="defs1">
    <clipPath
       clipPathUnits="userSpaceOnUse"
       id="clipPath2">
      <path
         d="M 0,0 H 1266.6666 V 681.13208 H 0 Z"
         transform="scale(0.33473685)"
         clip-rule="evenodd"
         id="path2" />
    </clipPath>
    <clipPath
       clipPathUnits="userSpaceOnUse"
       id="clipPath4">
      <path
         d="M 0,0 H 1266.6666 V 675.15723 H 0 Z"
         transform="matrix(0.33473685,0,0,0.33473685,-0.49999999,-0.49999999)"
         clip-rule="evenodd"
         id="path4" />
    </clipPath>
    <clipPath
       clipPathUnits="userSpaceOnUse"
       id="clipPath5">
      <path
         d="M 0,0 H 1266.6666 V 675.15723 H 0 Z"
         transform="matrix(0.33473351,0,0,0.33473351,-54.984375,-18)"
         clip-rule="evenodd"
         id="path5" />
    </clipPath>
    <clipPath
       clipPathUnits="userSpaceOnUse"
       id="clipPath7">
      <path
         d="M 0,0 H 1266.6666 V 675.15723 H 0 Z"
         transform="matrix(0.33473685,0,0,0.33473685,-0.49999999,-0.49999999)"
         clip-rule="evenodd"
         id="path7" />
    </clipPath>
    <clipPath
       clipPathUnits="userSpaceOnUse"
       id="clipPath9">
      <path
         d="M 0,0 H 1266.6666 V 675.15723 H 0 Z"
         transform="matrix(0.33473685,0,0,0.33473685,-0.49999999,-0.49999999)"
         clip-rule="evenodd"
         id="path9" />
    </clipPath>
    <clipPath
       clipPathUnits="userSpaceOnUse"
       id="clipPath10">
      <path
         d="M 0,0 H 1266.6666 V 675.15723 H 0 Z"
         transform="matrix(0.33473351,0,0,0.33473351,-28.296875,-48)"
         clip-rule="evenodd"
         id="path10" />
    </clipPath>
    <clipPath
       clipPathUnits="userSpaceOnUse"
       id="clipPath12">
      <path
         d="M 0,0 H 1266.6666 V 675.15723 H 0 Z"
         transform="matrix(0.33473685,0,0,0.33473685,-0.49999999,-0.49999999)"
         clip-rule="evenodd"
         id="path12" />
    </clipPath>
    <clipPath
       clipPathUnits="userSpaceOnUse"
       id="clipPath13">
      <path
         d="M 0,0 H 1266.6666 V 675.15723 H 0 Z"
         transform="matrix(0.33473351,0,0,0.33473351,-49.3125,-98.000001)"
         clip-rule="evenodd"
         id="path13" />
    </clipPath>
    <clipPath
       clipPathUnits="userSpaceOnUse"
       id="clipPath15">
      <path
         d="M 0,0 H 1266.6666 V 675.15723 H 0 Z"
         transform="matrix(0.33473685,0,0,0.33473685,-0.49999999,-0.49999999)"
         clip-rule="evenodd"
         id="path15" />
    </clipPath>
    <clipPath
       clipPathUnits="userSpaceOnUse"
       id="clipPath17">
      <path
         d="M 0,0 H 1266.6666 V 675.15723 H 0 Z"
         transform="matrix(0.33473685,0,0,0.33473685,-0.49999999,-0.49999999)"
         clip-rule="evenodd"
         id="path17" />
    </clipPath>
    <clipPath
       clipPathUnits="userSpaceOnUse"
       id="clipPath18">
      <path
         d="M 0,0 H 1266.6666 V 675.15723 H 0 Z"
         transform="matrix(0.33473351,0,0,0.33473351,-28.1875,-129)"
         clip-rule="evenodd"
         id="path18" />
    </clipPath>
    <clipPath
       clipPathUnits="userSpaceOnUse"
       id="clipPath20">
      <path
         d="M 0,0 H 1266.6666 V 675.15723 H 0 Z"
         transform="matrix(0.33473685,0,0,0.33473685,-0.49999999,-0.49999999)"
         clip-rule="evenodd"
         id="path20" />
    </clipPath>
    <clipPath
       clipPathUnits="userSpaceOnUse"
       id="clipPath21">
      <path
         d="M 0,0 H 1266.6666 V 675.15723 H 0 Z"
         transform="matrix(0.33473351,0,0,0.33473351,-55.328126,-178)"
         clip-rule="evenodd"
         id="path21" />
    </clipPath>
    <clipPath
       clipPathUnits="userSpaceOnUse"
       id="clipPath23">
      <path
         d="M 0,0 H 1266.6666 V 675.15723 H 0 Z"
         transform="matrix(0.33473685,0,0,0.33473685,-0.49999999,-0.49999999)"
         clip-rule="evenodd"
         id="path23" />
    </clipPath>
    <clipPath
       clipPathUnits="userSpaceOnUse"
       id="clipPath25">
      <path
         d="M 0,0 H 1266.6666 V 675.15723 H 0 Z"
         transform="matrix(0.33473685,0,0,0.33473685,-0.49999999,-0.49999999)"
         clip-rule="evenodd"
         id="path25" />
    </clipPath>
    <clipPath
       clipPathUnits="userSpaceOnUse"
       id="clipPath26">
      <path
         d="M 0,0 H 1266.6666 V 675.15723 H 0 Z"
         transform="matrix(0.33473351,0,0,0.33473351,-24.953125,-208)"
         clip-rule="evenodd"
         id="path26" />
    </clipPath>
    <clipPath
       clipPathUnits="userSpaceOnUse"
       id="clipPath28">
      <path
         d="M 0,0 H 1266.6666 V 675.15723 H 0 Z"
         transform="matrix(0.33473685,0,0,0.33473685,-0.49999999,-0.49999999)"
         clip-rule="evenodd"
         id="path28" />
    </clipPath>
    <clipPath
       clipPathUnits="userSpaceOnUse"
       id="clipPath29">
      <path
         d="M 0,0 H 1266.6666 V 675.15723 H 0 Z"
         transform="matrix(0.33473351,0,0,0.33473351,-218.95313,-48)"
         clip-rule="evenodd"
         id="path29" />
    </clipPath>
    <clipPath
       clipPathUnits="userSpaceOnUse"
       id="clipPath31">
      <path
         d="M 0,0 H 1266.6666 V 675.15723 H 0 Z"
         transform="matrix(0.33473685,0,0,0.33473685,-0.49999999,-0.49999999)"
         clip-rule="evenodd"
         id="path31" />
    </clipPath>
    <clipPath
       clipPathUnits="userSpaceOnUse"
       id="clipPath32">
      <path
         d="M 0,0 H 1266.6666 V 675.15723 H 0 Z"
         transform="matrix(0.33473351,0,0,0.33473351,-264.96875,-181)"
         clip-rule="evenodd"
         id="path32" />
    </clipPath>
    <clipPath
       clipPathUnits="userSpaceOnUse"
       id="clipPath33">
      <path
         d="M 0,0 H 1266.6666 V 675.15723 H 0 Z"
         transform="matrix(0.33473351,0,0,0.33473351,-256.95313,-196.00001)"
         clip-rule="evenodd"
         id="path33" />
    </clipPath>
    <clipPath
       clipPathUnits="userSpaceOnUse"
       id="clipPath35">
      <path
         d="M 0,0 H 1266.6666 V 675.15723 H 0 Z"
         transform="matrix(0.33473685,0,0,0.33473685,-0.49999999,-0.49999999)"
         clip-rule="evenodd"
         id="path35" />
    </clipPath>
    <clipPath
       clipPathUnits="userSpaceOnUse"
       id="clipPath36">
      <path
         d="M 0,0 H 1266.6666 V 675.15723 H 0 Z"
         transform="matrix(0.33473351,0,0,0.33473351,-214.26563,-134)"
         clip-rule="evenodd"
         id="path36" />
    </clipPath>
    <clipPath
       clipPathUnits="userSpaceOnUse"
       id="clipPath37">
      <path
         d="M 0,0 H 1266.6666 V 675.15723 H 0 Z"
         transform="matrix(0.33473351,0,0,0.33473351,-271.3125,-149)"
         clip-rule="evenodd"
         id="path37" />
    </clipPath>
    <clipPath
       clipPathUnits="userSpaceOnUse"
       id="clipPath38">
      <path
         d="M 0,0 H 1266.6666 V 675.15723 H 0 Z"
         transform="matrix(0.33473351,0,0,0.33473351,-261.5,-18)"
         clip-rule="evenodd"
         id="path38" />
    </clipPath>
    <clipPath
       clipPathUnits="userSpaceOnUse"
       id="clipPath40">
      <path
         d="M 0,0 H 1266.6666 V 675.15723 H 0 Z"
         transform="matrix(0.33473685,0,0,0.33473685,-0.49999999,-0.49999999)"
         clip-rule="evenodd"
         id="path40" />
    </clipPath>
    <clipPath
       clipPathUnits="userSpaceOnUse"
       id="clipPath41">
      <path
         d="M 0,0 H 1266.6666 V 675.15723 H 0 Z"
         transform="matrix(0.33473351,0,0,0.33473351,-218.60938,-88)"
         clip-rule="evenodd"
         id="path41" />
    </clipPath>
    <clipPath
       clipPathUnits="userSpaceOnUse"
       id="clipPath42">
      <path
         d="M 0,0 H 1266.6666 V 675.15723 H 0 Z"
         transform="matrix(0.33473351,0,0,0.33473351,-253.625,-103)"
         clip-rule="evenodd"
         id="path42" />
    </clipPath>
  </defs>
  <sodipodi:namedview
     id="namedview1"
     pagecolor="#ffffff"
     bordercolor="#000000"
     borderopacity="0.25"
     inkscape:showpageshadow="2"
     inkscape:pageopacity="0.0"
     inkscape:pagecheckerboard="0"
     inkscape:deskcolor="#d1d1d1">
    <inkscape:page
       x="0"
       y="0"
       inkscape:label="1"
       id="page1"
       width="405.44"
       height="218.56"
       margin="0"
       bleed="0" />
  </sodipodi:namedview>
  <g
     id="g1"
     inkscape:groupmode="layer"
     inkscape:label="1">
    <path
       id="path1"
       d="M 0,0 H 424 V 228 H 0 Z"
       style="fill:#ffffff;fill-opacity:1;fill-rule:nonzero;stroke:none"
       transform="scale(0.95597478)"
       clip-path="url(#clipPath2)" />
    <path
       id="path3"
       d="M 1,4 H 151 V 24 H 1 Z"
       style="fill:#dae8fc;fill-opacity:1;fill-rule:nonzero;stroke:#6c8ebf;stroke-width:1;stroke-linecap:butt;stroke-linejoin:miter;stroke-miterlimit:10;stroke-dasharray:none;stroke-opacity:1"
       transform="matrix(0.95597478,0,0,0.95597478,0.47798738,0.47798738)"
       clip-path="url(#clipPath4)" />
    <text
       id="text4"
       xml:space="preserve"
       transform="matrix(0.95598431,0,0,0.95598431,52.5642,17.207718)"
       clip-path="url(#clipPath5)"><tspan
         style="font-variant:normal;font-weight:700;font-size:12px;font-family:Helvetica;writing-mode:lr-tb;fill:#000000;fill-opacity:1;fill-rule:nonzero;stroke:none"
         x="0 10.669922 17.34375 20.677734 28.007812 31.341797 35.337891"
         y="0"
         sodipodi:role="line"
         id="tspan4">main.ts</tspan></text>
    <path
       id="path6"
       d="M 1,24 H 151 V 64 H 1 Z"
       style="fill:#dae8fc;fill-opacity:1;fill-rule:nonzero;stroke:#6c8ebf;stroke-width:1;stroke-linecap:butt;stroke-linejoin:miter;stroke-miterlimit:10;stroke-dasharray:none;stroke-opacity:1"
       transform="matrix(0.95597478,0,0,0.95597478,0.47798738,0.47798738)"
       clip-path="url(#clipPath7)" />
    <path
       id="path8"
       d="M 11,29 H 141 V 59 H 11 Z"
       style="fill:#ffffff;fill-opacity:1;fill-rule:nonzero;stroke:#000000;stroke-width:1;stroke-linecap:butt;stroke-linejoin:miter;stroke-miterlimit:10;stroke-dasharray:none;stroke-opacity:1"
       transform="matrix(0.95597478,0,0,0.95597478,0.47798738,0.47798738)"
       clip-path="url(#clipPath9)" />
    <text
       id="text9"
       xml:space="preserve"
       transform="matrix(0.95598431,0,0,0.95598431,27.051369,45.887247)"
       clip-path="url(#clipPath10)"><tspan
         style="font-variant:normal;font-weight:normal;font-size:12px;font-family:Helvetica;writing-mode:lr-tb;fill:#000000;fill-opacity:1;fill-rule:nonzero;stroke:none"
         x="0 3.3339844 10.007812 16.681641 22.681641 26.015625 28.681641 35.355469 42.029297 45.363281 52.037109 58.710938 65.384766 68.71875 74.71875 78.052734 82.048828 88.722656"
         y="0"
         sodipodi:role="line"
         id="tspan9">function bootstrap</tspan></text>
    <path
       id="path11"
       d="m 21,84 h 150 v 20 H 21 Z"
       style="fill:#dae8fc;fill-opacity:1;fill-rule:nonzero;stroke:#6c8ebf;stroke-width:1;stroke-linecap:butt;stroke-linejoin:miter;stroke-miterlimit:10;stroke-dasharray:none;stroke-opacity:1"
       transform="matrix(0.95597478,0,0,0.95597478,0.47798738,0.47798738)"
       clip-path="url(#clipPath12)" />
    <text
       id="text12"
       xml:space="preserve"
       transform="matrix(0.95598431,0,0,0.95598431,47.141976,93.686463)"
       clip-path="url(#clipPath13)"><tspan
         style="font-variant:normal;font-weight:700;font-size:12px;font-family:Helvetica;writing-mode:lr-tb;fill:#000000;fill-opacity:1;fill-rule:nonzero;stroke:none"
         x="0 6.6738281 14.003906 21.333984 24.667969 31.341797 38.671875 46.001953 49.998047 54.667969 61.998047 65.332031 68.666016 75.339844 79.353516 82.6875 86.683594"
         y="0"
         sodipodi:role="line"
         id="tspan12">app.controller.ts</tspan></text>
    <path
       id="path14"
       d="m 1,104 h 150 v 40 H 1 Z"
       style="fill:#dae8fc;fill-opacity:1;fill-rule:nonzero;stroke:#6c8ebf;stroke-width:1;stroke-linecap:butt;stroke-linejoin:miter;stroke-miterlimit:10;stroke-dasharray:none;stroke-opacity:1"
       transform="matrix(0.95597478,0,0,0.95597478,0.47798738,0.47798738)"
       clip-path="url(#clipPath15)" />
    <path
       id="path16"
       d="m 11,109 h 130 v 30 H 11 Z"
       style="fill:#ffffff;fill-opacity:1;fill-rule:nonzero;stroke:#000000;stroke-width:1;stroke-linecap:butt;stroke-linejoin:miter;stroke-miterlimit:10;stroke-dasharray:none;stroke-opacity:1"
       transform="matrix(0.95597478,0,0,0.95597478,0.47798738,0.47798738)"
       clip-path="url(#clipPath17)" />
    <text
       id="text17"
       xml:space="preserve"
       transform="matrix(0.95598431,0,0,0.95598431,26.946808,123.32198)"
       clip-path="url(#clipPath18)"><tspan
         style="font-variant:normal;font-weight:normal;font-size:10px;font-family:Helvetica;writing-mode:lr-tb;fill:#000000;fill-opacity:1;fill-rule:nonzero;stroke:none"
         x="0 5 7.2216797 12.783203 17.783203 22.783203 25.014648 31.68457 37.246094 42.807617 50.029297 55.59082 61.152344 63.930664 67.260742 72.822266 75.043945 77.265625 82.827148 86.157227 88.935547 92.275391"
         y="0"
         sodipodi:role="line"
         id="tspan17">class AppController {}</tspan></text>
    <path
       id="path19"
       d="m 21,164 h 150 v 20 H 21 Z"
       style="fill:#dae8fc;fill-opacity:1;fill-rule:nonzero;stroke:#6c8ebf;stroke-width:1;stroke-linecap:butt;stroke-linejoin:miter;stroke-miterlimit:10;stroke-dasharray:none;stroke-opacity:1"
       transform="matrix(0.95597478,0,0,0.95597478,0.47798738,0.47798738)"
       clip-path="url(#clipPath20)" />
    <text
       id="text20"
       xml:space="preserve"
       transform="matrix(0.95598431,0,0,0.95598431,52.89282,170.16521)"
       clip-path="url(#clipPath21)"><tspan
         style="font-variant:normal;font-weight:700;font-size:12px;font-family:Helvetica;writing-mode:lr-tb;fill:#000000;fill-opacity:1;fill-rule:nonzero;stroke:none"
         x="0 6.6738281 14.003906 21.333984 24.667969 35.337891 42.667969 49.998047 57.328125 60.662109 67.335938 70.669922 74.666016"
         y="0"
         sodipodi:role="line"
         id="tspan20">app.module.ts</tspan></text>
    <path
       id="path22"
       d="m 1,184 h 150 v 40 H 1 Z"
       style="fill:#dae8fc;fill-opacity:1;fill-rule:nonzero;stroke:#6c8ebf;stroke-width:1;stroke-linecap:butt;stroke-linejoin:miter;stroke-miterlimit:10;stroke-dasharray:none;stroke-opacity:1"
       transform="matrix(0.95597478,0,0,0.95597478,0.47798738,0.47798738)"
       clip-path="url(#clipPath23)" />
    <path
       id="path24"
       d="m 11,189 h 130 v 30 H 11 Z"
       style="fill:#ffffff;fill-opacity:1;fill-rule:nonzero;stroke:#000000;stroke-width:1;stroke-linecap:butt;stroke-linejoin:miter;stroke-miterlimit:10;stroke-dasharray:none;stroke-opacity:1"
       transform="matrix(0.95597478,0,0,0.95597478,0.47798738,0.47798738)"
       clip-path="url(#clipPath25)" />
    <text
       id="text25"
       xml:space="preserve"
       transform="matrix(0.95598431,0,0,0.95598431,23.854796,198.84474)"
       clip-path="url(#clipPath26)"><tspan
         style="font-variant:normal;font-weight:normal;font-size:12px;font-family:Helvetica;writing-mode:lr-tb;fill:#000000;fill-opacity:1;fill-rule:nonzero;stroke:none"
         x="0 6 8.6660156 15.339844 21.339844 27.339844 30.017578 38.021484 44.695312 51.369141 61.365234 68.039062 74.712891 81.386719 84.052734 90.726562 94.060547 98.068359"
         y="0"
         sodipodi:role="line"
         id="tspan25">class AppModule {}</tspan></text>
    <path
       id="path27"
       d="M 211,24 H 421 V 64 H 211 Z"
       style="fill:#f5f5f5;fill-opacity:1;fill-rule:nonzero;stroke:#666666;stroke-width:1;stroke-linecap:butt;stroke-linejoin:miter;stroke-miterlimit:10;stroke-dasharray:none;stroke-opacity:1"
       transform="matrix(0.95597478,0,0,0.95597478,0.47798738,0.47798738)"
       clip-path="url(#clipPath28)" />
    <g
       id="g28" />
    <text
       id="text28"
       xml:space="preserve"
       transform="matrix(0.95598431,0,0,0.95598431,209.31576,45.887247)"
       clip-path="url(#clipPath29)"><tspan
         style="font-variant:normal;font-weight:normal;font-size:12px;font-family:Helvetica;writing-mode:lr-tb;fill:#333333;fill-opacity:1;fill-rule:nonzero;stroke:none"
         x="0 9.3339844 16.007812 22.681641 26.015625 32.015625 34.681641 41.355469 47.355469 53.355469 56.689453 63.363281 70.037109 74.033203 77.367188 83.367188 86.033203 92.707031 96.041016 100.03711 106.03711 112.71094 122.70703 129.38086 132.71484 139.38867 145.38867 151.38867 158.0625 164.73633 168.07031 170.73633 177.41016 184.08398 190.08398"
         y="0"
         sodipodi:role="line"
         id="tspan28">One class per ﬁle (some exceptions)</tspan></text>
    <path
       id="path30"
       d="m 211,164 h 210 v 40 H 211 Z"
       style="fill:#f5f5f5;fill-opacity:1;fill-rule:nonzero;stroke:#666666;stroke-width:1;stroke-linecap:butt;stroke-linejoin:miter;stroke-miterlimit:10;stroke-dasharray:none;stroke-opacity:1"
       transform="matrix(0.95597478,0,0,0.95597478,0.47798738,0.47798738)"
       clip-path="url(#clipPath31)" />
    <text
       id="text31"
       xml:space="preserve"
       transform="matrix(0.95598431,0,0,0.95598431,253.30597,173.03316)"
       clip-path="url(#clipPath32)"><tspan
         style="font-variant:normal;font-weight:normal;font-size:12px;font-family:Helvetica;writing-mode:lr-tb;fill:#333333;fill-opacity:1;fill-rule:nonzero;stroke:none"
         x="0 7.3300781 9.9960938 12.662109 19.335938 26.009766 32.683594 42.679688 49.353516 52.6875 56.021484 62.695312 72.691406 79.365234 82.03125 88.705078 92.039062 98.712891"
         y="0"
         sodipodi:role="line"
         id="tspan31">Filename template:</tspan></text>
    <text
       id="text32"
       xml:space="preserve"
       transform="matrix(0.95598431,0,0,0.95598431,245.64316,187.37293)"
       clip-path="url(#clipPath33)"><tspan
         style="font-style:oblique;font-variant:normal;font-weight:normal;font-size:12px;font-family:Helvetica;writing-mode:lr-tb;fill:#333333;fill-opacity:1;fill-rule:nonzero;stroke:none"
         x="0 6.6738281 13.347656 23.34375 30.017578 33.351562 36.685547 42.685547 49.359375 56.033203 62.707031 69.380859 72.714844 79.388672 82.722656 89.396484 92.0625 98.736328 105.41016 108.74414 112.07812"
         y="0"
         sodipodi:role="line"
         id="tspan32">name.type_of_thing.ts</tspan></text>
    <path
       id="path34"
       d="m 211,117 h 210 v 40 H 211 Z"
       style="fill:#f5f5f5;fill-opacity:1;fill-rule:nonzero;stroke:#666666;stroke-width:1;stroke-linecap:butt;stroke-linejoin:miter;stroke-miterlimit:10;stroke-dasharray:none;stroke-opacity:1"
       transform="matrix(0.95597478,0,0,0.95597478,0.47798738,0.47798738)"
       clip-path="url(#clipPath35)" />
    <g
       id="g35" />
    <text
       id="text35"
       xml:space="preserve"
       transform="matrix(0.95598431,0,0,0.95598431,204.83458,128.1019)"
       clip-path="url(#clipPath36)"><tspan
         style="font-variant:normal;font-weight:normal;font-size:12px;font-family:Helvetica;writing-mode:lr-tb;fill:#333333;fill-opacity:1;fill-rule:nonzero;stroke:none"
         x="0 8.6660156 15.339844 25.335938 32.009766 35.34375 42.017578 45.351562 48.685547 54.685547 57.351562 64.025391 70.025391 76.025391 79.359375 86.033203 92.707031 99.380859 102.71484 109.38867 116.0625 126.05859 132.73242 136.06641 142.74023 146.07422 149.4082 155.4082 158.07422 164.74805 168.08203 174.08203 180.75586 187.42969 194.10352 196.76953"
         y="0"
         sodipodi:role="line"
         id="tspan35">Name of class and name of ﬁle should</tspan></text>
    <text
       id="text36"
       xml:space="preserve"
       transform="matrix(0.95598431,0,0,0.95598431,259.37049,142.44166)"
       clip-path="url(#clipPath37)"><tspan
         style="font-variant:normal;font-weight:normal;font-size:12px;font-family:Helvetica;writing-mode:lr-tb;fill:#333333;fill-opacity:1;fill-rule:nonzero;stroke:none"
         x="0 6.6738281 9.3398438 18.005859 24.679688 30.679688 36.679688 40.013672 50.009766 56.683594 60.017578 66.017578 72.691406 76.025391 82.699219"
         y="0"
         sodipodi:role="line"
         id="tspan36">always match up</tspan></text>
    <text
       id="text37"
       xml:space="preserve"
       transform="matrix(0.95598431,0,0,0.95598431,249.9899,17.207718)"
       clip-path="url(#clipPath38)"><tspan
         style="font-variant:normal;font-weight:700;font-size:18px;font-family:Helvetica;writing-mode:lr-tb;fill:#000000;fill-opacity:1;fill-rule:nonzero;stroke:none"
         x="0 12.999023 23.994141 34.989258 45 55.010742 66.005859 72 77.000977 87.996094 98.991211"
         y="0"
         sodipodi:role="line"
         id="tspan37">Conventions</tspan></text>
    <path
       id="path39"
       d="m 211,71 h 210 v 40 H 211 Z"
       style="fill:#f5f5f5;fill-opacity:1;fill-rule:nonzero;stroke:#666666;stroke-width:1;stroke-linecap:butt;stroke-linejoin:miter;stroke-miterlimit:10;stroke-dasharray:none;stroke-opacity:1"
       transform="matrix(0.95597478,0,0,0.95597478,0.47798738,0.47798738)"
       clip-path="url(#clipPath40)" />
    <text
       id="text40"
       xml:space="preserve"
       transform="matrix(0.95598431,0,0,0.95598431,208.98714,84.126619)"
       clip-path="url(#clipPath41)"><tspan
         style="font-variant:normal;font-weight:normal;font-size:12px;font-family:Helvetica;writing-mode:lr-tb;fill:#333333;fill-opacity:1;fill-rule:nonzero;stroke:none"
         x="0 8.6660156 11.332031 18.005859 24.005859 30.005859 33.339844 40.013672 46.6875 56.683594 63.357422 69.357422 72.691406 78.691406 85.365234 92.039062 98.712891 101.37891 108.05273 111.38672 114.05273 120.72656 126.72656 129.39258 136.06641 142.74023 149.41406 152.74805 156.08203 162.75586 169.42969 172.76367 178.76367 181.42969 188.10352"
         y="0"
         sodipodi:role="line"
         id="tspan40">Class names should include the kind</tspan></text>
    <text
       id="text41"
       xml:space="preserve"
       transform="matrix(0.95598431,0,0,0.95598431,242.46152,98.466384)"
       clip-path="url(#clipPath42)"><tspan
         style="font-variant:normal;font-weight:normal;font-size:12px;font-family:Helvetica;writing-mode:lr-tb;fill:#333333;fill-opacity:1;fill-rule:nonzero;stroke:none"
         x="0 6.6738281 10.007812 13.341797 16.675781 23.349609 26.015625 32.689453 39.363281 42.697266 51.363281 58.037109 61.371094 68.044922 72.041016 78.714844 82.048828 88.048828 92.044922 98.71875 105.39258 108.72656 111.39258 118.06641"
         y="0"
         sodipodi:role="line"
         id="tspan41">of thing we are creating</tspan></text>
  </g>
</svg>
