<?xml version="1.0" encoding="UTF-8" standalone="no"?>
<!-- Created with Inkscape (http://www.inkscape.org/) -->

<svg
   version="1.1"
   id="svg1"
   width="489.28"
   height="408"
   viewBox="0 0 489.28 408"
   sodipodi:docname="nest-6.pdf"
   xmlns:inkscape="http://www.inkscape.org/namespaces/inkscape"
   xmlns:sodipodi="http://sodipodi.sourceforge.net/DTD/sodipodi-0.dtd"
   xmlns="http://www.w3.org/2000/svg"
   xmlns:svg="http://www.w3.org/2000/svg">
  <defs
     id="defs1">
    <clipPath
       clipPathUnits="userSpaceOnUse"
       id="clipPath2">
      <path
         d="M 0,0 H 1529.1666 V 1274.3055 H 0 Z"
         transform="scale(0.333515)"
         clip-rule="evenodd"
         id="path2" />
    </clipPath>
    <clipPath
       clipPathUnits="userSpaceOnUse"
       id="clipPath4">
      <path
         d="M 0,0 H 1529.1666 V 1271.3071 H 0 Z"
         transform="matrix(0.333515,0,0,0.333515,-0.49999999,-0.49999999)"
         clip-rule="evenodd"
         id="path4" />
    </clipPath>
    <clipPath
       clipPathUnits="userSpaceOnUse"
       id="clipPath6">
      <path
         d="M 0,0 H 1529.1666 V 1271.3071 H 0 Z"
         transform="matrix(0.333515,0,0,0.333515,-0.49999999,-0.49999999)"
         clip-rule="evenodd"
         id="path6" />
    </clipPath>
    <clipPath
       clipPathUnits="userSpaceOnUse"
       id="clipPath8">
      <path
         d="M 0,0 H 1529.1666 V 1271.3071 H 0 Z"
         transform="matrix(0.333515,0,0,0.333515,-0.49999999,-0.49999999)"
         clip-rule="evenodd"
         id="path8" />
    </clipPath>
    <clipPath
       clipPathUnits="userSpaceOnUse"
       id="clipPath9">
      <path
         d="M 0,0 H 1529.1666 V 1271.3071 H 0 Z"
         transform="matrix(0.33351166,0,0,0.33351166,-138.37499,-26)"
         clip-rule="evenodd"
         id="path9" />
    </clipPath>
    <clipPath
       clipPathUnits="userSpaceOnUse"
       id="clipPath11">
      <path
         d="M 0,0 H 1529.1666 V 1271.3071 H 0 Z"
         transform="matrix(0.333515,0,0,0.333515,-0.49999999,-0.49999999)"
         clip-rule="evenodd"
         id="path11" />
    </clipPath>
    <clipPath
       clipPathUnits="userSpaceOnUse"
       id="clipPath13">
      <path
         d="M 0,0 H 1529.1666 V 1271.3071 H 0 Z"
         transform="matrix(0.333515,0,0,0.333515,-0.49999999,-0.49999999)"
         clip-rule="evenodd"
         id="path13" />
    </clipPath>
    <clipPath
       clipPathUnits="userSpaceOnUse"
       id="clipPath15">
      <path
         d="M 0,0 H 1529.1666 V 1271.3071 H 0 Z"
         transform="matrix(0.333515,0,0,0.333515,-0.49999999,-0.49999999)"
         clip-rule="evenodd"
         id="path15" />
    </clipPath>
    <clipPath
       clipPathUnits="userSpaceOnUse"
       id="clipPath17">
      <path
         d="M 0,0 H 1529.1666 V 1271.3071 H 0 Z"
         transform="matrix(0.333515,0,0,0.333515,-0.49999999,-0.49999999)"
         clip-rule="evenodd"
         id="path17" />
    </clipPath>
    <clipPath
       clipPathUnits="userSpaceOnUse"
       id="clipPath19">
      <path
         d="M 0,0 H 1529.1666 V 1271.3071 H 0 Z"
         transform="matrix(0.333515,0,0,0.333515,-0.49999999,-0.49999999)"
         clip-rule="evenodd"
         id="path19" />
    </clipPath>
    <clipPath
       clipPathUnits="userSpaceOnUse"
       id="clipPath20">
      <path
         d="M 0,0 H 1529.1666 V 1271.3071 H 0 Z"
         transform="matrix(0.33351166,0,0,0.33351166,-96.40625,-86)"
         clip-rule="evenodd"
         id="path20" />
    </clipPath>
    <clipPath
       clipPathUnits="userSpaceOnUse"
       id="clipPath22">
      <path
         d="M 0,0 H 1529.1666 V 1271.3071 H 0 Z"
         transform="matrix(0.333515,0,0,0.333515,-0.49999999,-0.49999999)"
         clip-rule="evenodd"
         id="path22" />
    </clipPath>
    <clipPath
       clipPathUnits="userSpaceOnUse"
       id="clipPath24">
      <path
         d="M 0,0 H 1529.1666 V 1271.3071 H 0 Z"
         transform="matrix(0.333515,0,0,0.333515,-0.49999999,-0.49999999)"
         clip-rule="evenodd"
         id="path24" />
    </clipPath>
    <clipPath
       clipPathUnits="userSpaceOnUse"
       id="clipPath26">
      <path
         d="M 0,0 H 1529.1666 V 1271.3071 H 0 Z"
         transform="matrix(0.333515,0,0,0.333515,-0.49999999,-0.49999999)"
         clip-rule="evenodd"
         id="path26" />
    </clipPath>
    <clipPath
       clipPathUnits="userSpaceOnUse"
       id="clipPath27">
      <path
         d="M 0,0 H 1529.1666 V 1271.3071 H 0 Z"
         transform="matrix(0.33351166,0,0,0.33351166,-365.26562,-157)"
         clip-rule="evenodd"
         id="path27" />
    </clipPath>
    <clipPath
       clipPathUnits="userSpaceOnUse"
       id="clipPath29">
      <path
         d="M 0,0 H 1529.1666 V 1271.3071 H 0 Z"
         transform="matrix(0.333515,0,0,0.333515,-0.49999999,-0.49999999)"
         clip-rule="evenodd"
         id="path29" />
    </clipPath>
    <clipPath
       clipPathUnits="userSpaceOnUse"
       id="clipPath31">
      <path
         d="M 0,0 H 1529.1666 V 1271.3071 H 0 Z"
         transform="matrix(0.333515,0,0,0.333515,-0.49999999,-0.49999999)"
         clip-rule="evenodd"
         id="path31" />
    </clipPath>
    <clipPath
       clipPathUnits="userSpaceOnUse"
       id="clipPath33">
      <path
         d="M 0,0 H 1529.1666 V 1271.3071 H 0 Z"
         transform="matrix(0.333515,0,0,0.333515,-0.49999999,-0.49999999)"
         clip-rule="evenodd"
         id="path33" />
    </clipPath>
    <clipPath
       clipPathUnits="userSpaceOnUse"
       id="clipPath34">
      <path
         d="M 0,0 H 1529.1666 V 1271.3071 H 0 Z"
         transform="matrix(0.33351166,0,0,0.33351166,-152.4375,-157)"
         clip-rule="evenodd"
         id="path34" />
    </clipPath>
    <clipPath
       clipPathUnits="userSpaceOnUse"
       id="clipPath36">
      <path
         d="M 0,0 H 1529.1666 V 1271.3071 H 0 Z"
         transform="matrix(0.333515,0,0,0.333515,-0.49999999,-0.49999999)"
         clip-rule="evenodd"
         id="path36" />
    </clipPath>
    <clipPath
       clipPathUnits="userSpaceOnUse"
       id="clipPath38">
      <path
         d="M 0,0 H 1529.1666 V 1271.3071 H 0 Z"
         transform="matrix(0.333515,0,0,0.333515,-0.49999999,-0.49999999)"
         clip-rule="evenodd"
         id="path38" />
    </clipPath>
    <clipPath
       clipPathUnits="userSpaceOnUse"
       id="clipPath40">
      <path
         d="M 0,0 H 1529.1666 V 1271.3071 H 0 Z"
         transform="matrix(0.333515,0,0,0.333515,-0.49999999,-0.49999999)"
         clip-rule="evenodd"
         id="path40" />
    </clipPath>
    <clipPath
       clipPathUnits="userSpaceOnUse"
       id="clipPath41">
      <path
         d="M 0,0 H 1529.1666 V 1271.3071 H 0 Z"
         transform="matrix(0.33351166,0,0,0.33351166,-7.7343749,-226)"
         clip-rule="evenodd"
         id="path41" />
    </clipPath>
    <clipPath
       clipPathUnits="userSpaceOnUse"
       id="clipPath43">
      <path
         d="M 0,0 H 1529.1666 V 1271.3071 H 0 Z"
         transform="matrix(0.333515,0,0,0.333515,-0.49999999,-0.49999999)"
         clip-rule="evenodd"
         id="path43" />
    </clipPath>
    <clipPath
       clipPathUnits="userSpaceOnUse"
       id="clipPath45">
      <path
         d="M 0,0 H 1529.1666 V 1271.3071 H 0 Z"
         transform="matrix(0.333515,0,0,0.333515,-0.49999999,-0.49999999)"
         clip-rule="evenodd"
         id="path45" />
    </clipPath>
    <clipPath
       clipPathUnits="userSpaceOnUse"
       id="clipPath47">
      <path
         d="M 0,0 H 1529.1666 V 1271.3071 H 0 Z"
         transform="matrix(0.333515,0,0,0.333515,-0.49999999,-0.49999999)"
         clip-rule="evenodd"
         id="path47" />
    </clipPath>
    <clipPath
       clipPathUnits="userSpaceOnUse"
       id="clipPath48">
      <path
         d="M 0,0 H 1529.1666 V 1271.3071 H 0 Z"
         transform="matrix(0.33351166,0,0,0.33351166,-86.390625,-286)"
         clip-rule="evenodd"
         id="path48" />
    </clipPath>
    <clipPath
       clipPathUnits="userSpaceOnUse"
       id="clipPath50">
      <path
         d="M 0,0 H 1529.1666 V 1271.3071 H 0 Z"
         transform="matrix(0.333515,0,0,0.333515,-0.49999999,-0.49999999)"
         clip-rule="evenodd"
         id="path50" />
    </clipPath>
    <clipPath
       clipPathUnits="userSpaceOnUse"
       id="clipPath52">
      <path
         d="M 0,0 H 1529.1666 V 1271.3071 H 0 Z"
         transform="matrix(0.333515,0,0,0.333515,-0.49999999,-0.49999999)"
         clip-rule="evenodd"
         id="path52" />
    </clipPath>
    <clipPath
       clipPathUnits="userSpaceOnUse"
       id="clipPath54">
      <path
         d="M 0,0 H 1529.1666 V 1271.3071 H 0 Z"
         transform="matrix(0.333515,0,0,0.333515,-0.49999999,-0.49999999)"
         clip-rule="evenodd"
         id="path54" />
    </clipPath>
    <clipPath
       clipPathUnits="userSpaceOnUse"
       id="clipPath55">
      <path
         d="M 0,0 H 1529.1666 V 1271.3071 H 0 Z"
         transform="matrix(0.33351166,0,0,0.33351166,-5.015625,-346)"
         clip-rule="evenodd"
         id="path55" />
    </clipPath>
    <clipPath
       clipPathUnits="userSpaceOnUse"
       id="clipPath57">
      <path
         d="M 0,0 H 1529.1666 V 1271.3071 H 0 Z"
         transform="matrix(0.333515,0,0,0.333515,-0.49999999,-0.49999999)"
         clip-rule="evenodd"
         id="path57" />
    </clipPath>
    <clipPath
       clipPathUnits="userSpaceOnUse"
       id="clipPath58">
      <path
         d="M 0,0 H 1529.1666 V 1271.3071 H 0 Z"
         transform="matrix(0.33351166,0,0,0.33351166,-42.515625,-406)"
         clip-rule="evenodd"
         id="path58" />
    </clipPath>
    <clipPath
       clipPathUnits="userSpaceOnUse"
       id="clipPath60">
      <path
         d="M 0,0 H 1529.1666 V 1271.3071 H 0 Z"
         transform="matrix(0.333515,0,0,0.333515,-0.49999999,-0.49999999)"
         clip-rule="evenodd"
         id="path60" />
    </clipPath>
    <clipPath
       clipPathUnits="userSpaceOnUse"
       id="clipPath61">
      <path
         d="M 0,0 H 1529.1666 V 1271.3071 H 0 Z"
         transform="matrix(0.33351166,0,0,0.33351166,-383.75,-256)"
         clip-rule="evenodd"
         id="path61" />
    </clipPath>
  </defs>
  <sodipodi:namedview
     id="namedview1"
     pagecolor="#ffffff"
     bordercolor="#000000"
     borderopacity="0.25"
     inkscape:showpageshadow="2"
     inkscape:pageopacity="0.0"
     inkscape:pagecheckerboard="0"
     inkscape:deskcolor="#d1d1d1">
    <inkscape:page
       x="0"
       y="0"
       inkscape:label="1"
       id="page1"
       width="489.28"
       height="408"
       margin="0"
       bleed="0" />
  </sodipodi:namedview>
  <g
     id="g1"
     inkscape:groupmode="layer"
     inkscape:label="1">
    <path
       id="path1"
       d="M 0,0 H 510 V 425 H 0 Z"
       style="fill:#ffffff;fill-opacity:1;fill-rule:nonzero;stroke:none"
       transform="scale(0.95947705)"
       clip-path="url(#clipPath2)" />
    <path
       id="path3"
       d="M 248,41 V 61 41 54.630001"
       style="fill:none;stroke:#000000;stroke-width:1;stroke-linecap:butt;stroke-linejoin:miter;stroke-miterlimit:10;stroke-dasharray:none;stroke-opacity:1"
       transform="matrix(0.95947705,0,0,0.95947705,0.47973852,0.47973852)"
       clip-path="url(#clipPath4)" />
    <path
       id="path5"
       d="m 248,59.880001 -3.5,-7 3.5,1.75 3.5,-1.75 z"
       style="fill:#000000;fill-opacity:1;fill-rule:nonzero;stroke:#000000;stroke-width:1;stroke-linecap:butt;stroke-linejoin:miter;stroke-miterlimit:10;stroke-dasharray:none;stroke-opacity:1"
       transform="matrix(0.95947705,0,0,0.95947705,0.47973852,0.47973852)"
       clip-path="url(#clipPath6)" />
    <path
       id="path7"
       d="M 108,1 H 388 V 41 H 108 Z"
       style="fill:#ffffff;fill-opacity:1;fill-rule:nonzero;stroke:#000000;stroke-width:1;stroke-linecap:butt;stroke-linejoin:miter;stroke-miterlimit:10;stroke-dasharray:none;stroke-opacity:1"
       transform="matrix(0.95947705,0,0,0.95947705,0.47973852,0.47973852)"
       clip-path="url(#clipPath8)" />
    <text
       id="text8"
       xml:space="preserve"
       transform="matrix(0.95948665,0,0,0.95948665,132.76896,24.946653)"
       clip-path="url(#clipPath9)"><tspan
         style="font-variant:normal;font-weight:normal;font-size:16px;font-family:Helvetica;writing-mode:lr-tb;fill:#000000;fill-opacity:1;fill-rule:nonzero;stroke:none"
         x="0 11.554688 19.554688 28.453125 33.78125 38.226562 46.226562 55.125 64.023438 72.921875 80.921875 85.367188 96.039062 108.48438 119.15625 128.64844 133.09375 138.42188 147.32031 156.21875 165.11719 174.01562 182.01562 186.46094 190.90625 195.35156 204.25 208.69531 211.75 216.19531"
         y="0"
         sodipodi:role="line"
         id="tspan8">User sends POST request to '/'</tspan></text>
    <path
       id="path10"
       d="m 330.5,101 v 20 h 45 v 4.63"
       style="fill:none;stroke:#000000;stroke-width:1;stroke-linecap:butt;stroke-linejoin:miter;stroke-miterlimit:10;stroke-dasharray:none;stroke-opacity:1"
       transform="matrix(0.95947705,0,0,0.95947705,0.47973852,0.47973852)"
       clip-path="url(#clipPath11)" />
    <path
       id="path12"
       d="m 375.5,130.88 -3.5,-7 3.5,1.75 3.5,-1.75 z"
       style="fill:#000000;fill-opacity:1;fill-rule:nonzero;stroke:#000000;stroke-width:1;stroke-linecap:butt;stroke-linejoin:miter;stroke-miterlimit:10;stroke-dasharray:none;stroke-opacity:1"
       transform="matrix(0.95947705,0,0,0.95947705,0.47973852,0.47973852)"
       clip-path="url(#clipPath13)" />
    <path
       id="path14"
       d="m 165.5,101 v 24.63"
       style="fill:none;stroke:#000000;stroke-width:1;stroke-linecap:butt;stroke-linejoin:miter;stroke-miterlimit:10;stroke-dasharray:none;stroke-opacity:1"
       transform="matrix(0.95947705,0,0,0.95947705,0.47973852,0.47973852)"
       clip-path="url(#clipPath15)" />
    <path
       id="path16"
       d="m 165.5,130.88 -3.5,-7 3.5,1.75 3.5,-1.75 z"
       style="fill:#000000;fill-opacity:1;fill-rule:nonzero;stroke:#000000;stroke-width:1;stroke-linecap:butt;stroke-linejoin:miter;stroke-miterlimit:10;stroke-dasharray:none;stroke-opacity:1"
       transform="matrix(0.95947705,0,0,0.95947705,0.47973852,0.47973852)"
       clip-path="url(#clipPath17)" />
    <path
       id="path18"
       d="m 83,61 h 330 v 40 H 83 Z"
       style="fill:#ffffff;fill-opacity:1;fill-rule:nonzero;stroke:#000000;stroke-width:1;stroke-linecap:butt;stroke-linejoin:miter;stroke-miterlimit:10;stroke-dasharray:none;stroke-opacity:1"
       transform="matrix(0.95947705,0,0,0.95947705,0.47973852,0.47973852)"
       clip-path="url(#clipPath19)" />
    <text
       id="text19"
       xml:space="preserve"
       transform="matrix(0.95948665,0,0,0.95948665,92.50051,82.515852)"
       clip-path="url(#clipPath20)"><tspan
         style="font-variant:normal;font-weight:normal;font-size:16px;font-family:Helvetica;writing-mode:lr-tb;fill:#000000;fill-opacity:1;fill-rule:nonzero;stroke:none"
         x="0 11.554688 20.453125 29.351562 37.351562 41.796875 46.242188 55.140625 64.039062 68.484375 77.382812 86.28125 95.179688 103.17969 107.625 116.52344 125.42188 133.42188 142.32031 146.76562 155.66406 160.10938 163.16406 176.49219 185.39062 193.39062 201.39062 210.28906 219.1875 228.08594 231.14062 235.58594 244.48438 249.8125 258.71094 267.60938 276.50781 281.83594 286.28125 294.28125"
         y="0"
         sodipodi:role="line"
         id="tspan19">Does the body have a 'message' property?</tspan></text>
    <path
       id="path21"
       d="m 375.5,172 h 2.5 v 29 h 60 v 23.63"
       style="fill:none;stroke:#000000;stroke-width:1;stroke-linecap:butt;stroke-linejoin:miter;stroke-miterlimit:10;stroke-dasharray:none;stroke-opacity:1"
       transform="matrix(0.95947705,0,0,0.95947705,0.47973852,0.47973852)"
       clip-path="url(#clipPath22)" />
    <path
       id="path23"
       d="m 438,229.88 -3.5,-7 3.5,1.75 3.5,-1.75 z"
       style="fill:#000000;fill-opacity:1;fill-rule:nonzero;stroke:#000000;stroke-width:1;stroke-linecap:butt;stroke-linejoin:miter;stroke-miterlimit:10;stroke-dasharray:none;stroke-opacity:1"
       transform="matrix(0.95947705,0,0,0.95947705,0.47973852,0.47973852)"
       clip-path="url(#clipPath24)" />
    <path
       id="path25"
       d="m 308,132 h 135 v 40 H 308 Z"
       style="fill:#f8cecc;fill-opacity:1;fill-rule:nonzero;stroke:#b85450;stroke-width:1;stroke-linecap:butt;stroke-linejoin:miter;stroke-miterlimit:10;stroke-dasharray:none;stroke-opacity:1"
       transform="matrix(0.95947705,0,0,0.95947705,0.47973852,0.47973852)"
       clip-path="url(#clipPath26)" />
    <text
       id="text26"
       xml:space="preserve"
       transform="matrix(0.95948665,0,0,0.95948665,350.46749,150.6394)"
       clip-path="url(#clipPath27)"><tspan
         style="font-variant:normal;font-weight:normal;font-size:16px;font-family:Helvetica;writing-mode:lr-tb;fill:#000000;fill-opacity:1;fill-rule:nonzero;stroke:none"
         x="0 11.554688"
         y="0"
         sodipodi:role="line"
         id="tspan26">No</tspan></text>
    <path
       id="path28"
       d="m 165.5,172 v 20 -11 13.63"
       style="fill:none;stroke:#000000;stroke-width:1;stroke-linecap:butt;stroke-linejoin:miter;stroke-miterlimit:10;stroke-dasharray:none;stroke-opacity:1"
       transform="matrix(0.95947705,0,0,0.95947705,0.47973852,0.47973852)"
       clip-path="url(#clipPath29)" />
    <path
       id="path30"
       d="m 165.5,199.88 -3.5,-7 3.5,1.75 3.5,-1.75 z"
       style="fill:#000000;fill-opacity:1;fill-rule:nonzero;stroke:#000000;stroke-width:1;stroke-linecap:butt;stroke-linejoin:miter;stroke-miterlimit:10;stroke-dasharray:none;stroke-opacity:1"
       transform="matrix(0.95947705,0,0,0.95947705,0.47973852,0.47973852)"
       clip-path="url(#clipPath31)" />
    <path
       id="path32"
       d="m 98,132 h 135 v 40 H 98 Z"
       style="fill:#d5e8d4;fill-opacity:1;fill-rule:nonzero;stroke:#82b366;stroke-width:1;stroke-linecap:butt;stroke-linejoin:miter;stroke-miterlimit:10;stroke-dasharray:none;stroke-opacity:1"
       transform="matrix(0.95947705,0,0,0.95947705,0.47973852,0.47973852)"
       clip-path="url(#clipPath33)" />
    <text
       id="text33"
       xml:space="preserve"
       transform="matrix(0.95948665,0,0,0.95948665,146.26175,150.6394)"
       clip-path="url(#clipPath34)"><tspan
         style="font-variant:normal;font-weight:normal;font-size:16px;font-family:Helvetica;writing-mode:lr-tb;fill:#000000;fill-opacity:1;fill-rule:nonzero;stroke:none"
         x="0 9.203125 18.101562"
         y="0"
         sodipodi:role="line"
         id="tspan33">Yes</tspan></text>
    <path
       id="path35"
       d="m 165.5,241 v 20 -20 13.63"
       style="fill:none;stroke:#000000;stroke-width:1;stroke-linecap:butt;stroke-linejoin:miter;stroke-miterlimit:10;stroke-dasharray:none;stroke-opacity:1"
       transform="matrix(0.95947705,0,0,0.95947705,0.47973852,0.47973852)"
       clip-path="url(#clipPath36)" />
    <path
       id="path37"
       d="m 165.5,259.88 -3.5,-7 3.5,1.75 3.5,-1.75 z"
       style="fill:#000000;fill-opacity:1;fill-rule:nonzero;stroke:#000000;stroke-width:1;stroke-linecap:butt;stroke-linejoin:miter;stroke-miterlimit:10;stroke-dasharray:none;stroke-opacity:1"
       transform="matrix(0.95947705,0,0,0.95947705,0.47973852,0.47973852)"
       clip-path="url(#clipPath38)" />
    <path
       id="path39"
       d="m 0.5,201 h 330 v 40 H 0.5 Z"
       style="fill:#ffffff;fill-opacity:1;fill-rule:nonzero;stroke:#000000;stroke-width:1;stroke-linecap:butt;stroke-linejoin:miter;stroke-miterlimit:10;stroke-dasharray:none;stroke-opacity:1"
       transform="matrix(0.95947705,0,0,0.95947705,0.47973852,0.47973852)"
       clip-path="url(#clipPath40)" />
    <g
       id="g40" />
    <text
       id="text40"
       xml:space="preserve"
       transform="matrix(0.95948665,0,0,0.95948665,7.4210295,216.84398)"
       clip-path="url(#clipPath41)"><tspan
         style="font-variant:normal;font-weight:normal;font-size:16px;font-family:Helvetica;writing-mode:lr-tb;fill:#000000;fill-opacity:1;fill-rule:nonzero;stroke:none"
         x="0 11.554688 20.453125 29.351562 38.25 42.695312 47.140625 56.039062 64.9375 69.382812 77.382812 86.28125 95.179688 99.625 108.52344 117.42188 121.86719 129.86719 134.3125 143.21094 147.65625 152.10156 156.54688 165.44531 174.34375 178.78906 181.84375 195.17188 204.07031 212.07031 220.07031 228.96875 237.86719 246.76562 254.76562 259.21094 262.76562 270.76562 279.66406 288.5625 291.61719 296.0625 304.0625 307.61719"
         y="0"
         sodipodi:role="line"
         id="tspan40">Read the contents of the 'messages.json' ﬁle</tspan></text>
    <path
       id="path42"
       d="m 165.5,301 v 20 -20 13.64001"
       style="fill:none;stroke:#000000;stroke-width:1;stroke-linecap:butt;stroke-linejoin:miter;stroke-miterlimit:10;stroke-dasharray:none;stroke-opacity:1"
       transform="matrix(0.95947705,0,0,0.95947705,0.47973852,0.47973852)"
       clip-path="url(#clipPath43)" />
    <path
       id="path44"
       d="m 165.5,319.89001 -3.5,-7 3.5,1.75 3.5,-1.75 z"
       style="fill:#000000;fill-opacity:1;fill-rule:nonzero;stroke:#000000;stroke-width:1;stroke-linecap:butt;stroke-linejoin:miter;stroke-miterlimit:10;stroke-dasharray:none;stroke-opacity:1"
       transform="matrix(0.95947705,0,0,0.95947705,0.47973852,0.47973852)"
       clip-path="url(#clipPath45)" />
    <path
       id="path46"
       d="m 0.5,261 h 330 v 40 H 0.5 Z"
       style="fill:#ffffff;fill-opacity:1;fill-rule:nonzero;stroke:#000000;stroke-width:1;stroke-linecap:butt;stroke-linejoin:miter;stroke-miterlimit:10;stroke-dasharray:none;stroke-opacity:1"
       transform="matrix(0.95947705,0,0,0.95947705,0.47973852,0.47973852)"
       clip-path="url(#clipPath47)" />
    <text
       id="text47"
       xml:space="preserve"
       transform="matrix(0.95948665,0,0,0.95948665,82.890651,274.41318)"
       clip-path="url(#clipPath48)"><tspan
         style="font-variant:normal;font-weight:normal;font-size:16px;font-family:Helvetica;writing-mode:lr-tb;fill:#000000;fill-opacity:1;fill-rule:nonzero;stroke:none"
         x="0 12.445312 21.34375 30.242188 39.140625 44.46875 53.367188 57.8125 66.710938 71.15625 80.054688 84.5 89.828125 98.726562 107.625 116.52344 125.42188 138.75 143.19531 147.64062"
         y="0"
         sodipodi:role="line"
         id="tspan47">Generate a random ID</tspan></text>
    <path
       id="path49"
       d="m 165.5,361 v 20 -20 13.64001"
       style="fill:none;stroke:#000000;stroke-width:1;stroke-linecap:butt;stroke-linejoin:miter;stroke-miterlimit:10;stroke-dasharray:none;stroke-opacity:1"
       transform="matrix(0.95947705,0,0,0.95947705,0.47973852,0.47973852)"
       clip-path="url(#clipPath50)" />
    <path
       id="path51"
       d="m 165.5,379.89001 -3.5,-7 3.5,1.75 3.5,-1.75 z"
       style="fill:#000000;fill-opacity:1;fill-rule:nonzero;stroke:#000000;stroke-width:1;stroke-linecap:butt;stroke-linejoin:miter;stroke-miterlimit:10;stroke-dasharray:none;stroke-opacity:1"
       transform="matrix(0.95947705,0,0,0.95947705,0.47973852,0.47973852)"
       clip-path="url(#clipPath52)" />
    <path
       id="path53"
       d="m 0.5,321 h 330 v 40 H 0.5 Z"
       style="fill:#ffffff;fill-opacity:1;fill-rule:nonzero;stroke:#000000;stroke-width:1;stroke-linecap:butt;stroke-linejoin:miter;stroke-miterlimit:10;stroke-dasharray:none;stroke-opacity:1"
       transform="matrix(0.95947705,0,0,0.95947705,0.47973852,0.47973852)"
       clip-path="url(#clipPath54)" />
    <text
       id="text54"
       xml:space="preserve"
       transform="matrix(0.95948665,0,0,0.95948665,4.8124252,331.98238)"
       clip-path="url(#clipPath55)"><tspan
         style="font-variant:normal;font-weight:normal;font-size:16px;font-family:Helvetica;writing-mode:lr-tb;fill:#000000;fill-opacity:1;fill-rule:nonzero;stroke:none"
         x="0 10.671875 19.570312 28.46875 32.914062 37.359375 46.257812 55.15625 59.601562 68.5 77.398438 88.953125 93.398438 106.72656 115.625 123.625 131.625 140.52344 149.42188 158.32031 162.76562 167.21094 176.10938 180.55469 185 193.89844 202.79688 207.24219 210.79688 214.35156 222.35156 226.79688 231.24219 240.14062 244.58594 249.03125 262.35938 271.25781 279.25781 287.25781 296.15625 305.05469 313.95312"
         y="0"
         sodipodi:role="line"
         id="tspan54">Add the new message to the list of messages</tspan></text>
    <path
       id="path56"
       d="m 0.5,381 h 330 v 40 H 0.5 Z"
       style="fill:#ffffff;fill-opacity:1;fill-rule:nonzero;stroke:#000000;stroke-width:1;stroke-linecap:butt;stroke-linejoin:miter;stroke-miterlimit:10;stroke-dasharray:none;stroke-opacity:1"
       transform="matrix(0.95947705,0,0,0.95947705,0.47973852,0.47973852)"
       clip-path="url(#clipPath57)" />
    <g
       id="g57" />
    <text
       id="text57"
       xml:space="preserve"
       transform="matrix(0.95948665,0,0,0.95948665,40.793175,389.55158)"
       clip-path="url(#clipPath58)"><tspan
         style="font-variant:normal;font-weight:normal;font-size:16px;font-family:Helvetica;writing-mode:lr-tb;fill:#000000;fill-opacity:1;fill-rule:nonzero;stroke:none"
         x="0 14.820312 20.148438 23.703125 28.148438 37.046875 41.492188 45.9375 54.835938 63.734375 68.179688 76.179688 79.734375 88.632812 93.078125 101.97656 110.875 118.875 126.875 131.32031 135.76562 144.66406 149.10938 153.55469 162.45312 171.35156 175.79688 184.69531 193.59375 198.92188 207.82031 212.26562 221.16406 226.49219 230.04688 238.04688"
         y="0"
         sodipodi:role="line"
         id="tspan57">Write the ﬁle back to the hard drive</tspan></text>
    <path
       id="path59"
       d="m 368,231 h 140 v 40 H 368 Z"
       style="fill:#ffffff;fill-opacity:1;fill-rule:nonzero;stroke:#000000;stroke-width:1;stroke-linecap:butt;stroke-linejoin:miter;stroke-miterlimit:10;stroke-dasharray:none;stroke-opacity:1"
       transform="matrix(0.95947705,0,0,0.95947705,0.47973852,0.47973852)"
       clip-path="url(#clipPath60)" />
    <text
       id="text60"
       xml:space="preserve"
       transform="matrix(0.95948665,0,0,0.95948665,368.203,245.62858)"
       clip-path="url(#clipPath61)"><tspan
         style="font-variant:normal;font-weight:normal;font-size:16px;font-family:Helvetica;writing-mode:lr-tb;fill:#000000;fill-opacity:1;fill-rule:nonzero;stroke:none"
         x="0 11.554688 20.453125 24.898438 33.796875 39.125 48.023438 52.46875 61.367188 70.265625 74.710938 83.609375 88.9375 94.265625 103.16406"
         y="0"
         sodipodi:role="line"
         id="tspan60">Return an error</tspan></text>
  </g>
</svg>
