<?xml version="1.0" encoding="UTF-8" standalone="no"?>
<!-- Created with Inkscape (http://www.inkscape.org/) -->

<svg
   version="1.1"
   id="svg1"
   width="248"
   height="168"
   viewBox="0 0 248 168"
   sodipodi:docname="nest-1.pdf"
   xmlns:inkscape="http://www.inkscape.org/namespaces/inkscape"
   xmlns:sodipodi="http://sodipodi.sourceforge.net/DTD/sodipodi-0.dtd"
   xmlns="http://www.w3.org/2000/svg"
   xmlns:svg="http://www.w3.org/2000/svg">
  <defs
     id="defs1">
    <clipPath
       clipPathUnits="userSpaceOnUse"
       id="clipPath2">
      <path
         d="M 0,0 H 774.99994 V 523.64862 H 0 Z"
         transform="scale(0.33419356)"
         clip-rule="evenodd"
         id="path2" />
    </clipPath>
    <clipPath
       clipPathUnits="userSpaceOnUse"
       id="clipPath4">
      <path
         d="M 0,0 H 774.99994 V 520.65637 H 0 Z"
         transform="matrix(0.33419356,0,0,0.33419356,-0.49999999,-0.49999999)"
         clip-rule="evenodd"
         id="path4" />
    </clipPath>
    <clipPath
       clipPathUnits="userSpaceOnUse"
       id="clipPath5">
      <path
         d="M 0,0 H 774.99994 V 520.65637 H 0 Z"
         transform="matrix(0.33419021,0,0,0.33419021,-99.984375,-20)"
         clip-rule="evenodd"
         id="path5" />
    </clipPath>
    <clipPath
       clipPathUnits="userSpaceOnUse"
       id="clipPath7">
      <path
         d="M 0,0 H 774.99994 V 520.65637 H 0 Z"
         transform="matrix(0.33419356,0,0,0.33419356,-0.49999999,-0.49999999)"
         clip-rule="evenodd"
         id="path7" />
    </clipPath>
    <clipPath
       clipPathUnits="userSpaceOnUse"
       id="clipPath9">
      <path
         d="M 0,0 H 774.99994 V 520.65637 H 0 Z"
         transform="matrix(0.33419356,0,0,0.33419356,-0.49999999,-0.49999999)"
         clip-rule="evenodd"
         id="path9" />
    </clipPath>
    <clipPath
       clipPathUnits="userSpaceOnUse"
       id="clipPath10">
      <path
         d="M 0,0 H 774.99994 V 520.65637 H 0 Z"
         transform="matrix(0.33419021,0,0,0.33419021,-31.796875,-60)"
         clip-rule="evenodd"
         id="path10" />
    </clipPath>
    <clipPath
       clipPathUnits="userSpaceOnUse"
       id="clipPath12">
      <path
         d="M 0,0 H 774.99994 V 520.65637 H 0 Z"
         transform="matrix(0.33419356,0,0,0.33419356,-0.49999999,-0.49999999)"
         clip-rule="evenodd"
         id="path12" />
    </clipPath>
    <clipPath
       clipPathUnits="userSpaceOnUse"
       id="clipPath13">
      <path
         d="M 0,0 H 774.99994 V 520.65637 H 0 Z"
         transform="matrix(0.33419021,0,0,0.33419021,-128.125,-105)"
         clip-rule="evenodd"
         id="path13" />
    </clipPath>
    <clipPath
       clipPathUnits="userSpaceOnUse"
       id="clipPath15">
      <path
         d="M 0,0 H 774.99994 V 520.65637 H 0 Z"
         transform="matrix(0.33419356,0,0,0.33419356,-0.49999999,-0.49999999)"
         clip-rule="evenodd"
         id="path15" />
    </clipPath>
    <clipPath
       clipPathUnits="userSpaceOnUse"
       id="clipPath16">
      <path
         d="M 0,0 H 774.99994 V 520.65637 H 0 Z"
         transform="matrix(0.33419021,0,0,0.33419021,-73.796875,-150)"
         clip-rule="evenodd"
         id="path16" />
    </clipPath>
  </defs>
  <sodipodi:namedview
     id="namedview1"
     pagecolor="#ffffff"
     bordercolor="#000000"
     borderopacity="0.25"
     inkscape:showpageshadow="2"
     inkscape:pageopacity="0.0"
     inkscape:pagecheckerboard="0"
     inkscape:deskcolor="#d1d1d1">
    <inkscape:page
       x="0"
       y="0"
       inkscape:label="1"
       id="page1"
       width="248"
       height="168"
       margin="0"
       bleed="0" />
  </sodipodi:namedview>
  <g
     id="g1"
     inkscape:groupmode="layer"
     inkscape:label="1">
    <path
       id="path1"
       d="M 0,0 H 259 V 175 H 0 Z"
       style="fill:#ffffff;fill-opacity:1;fill-rule:nonzero;stroke:none"
       transform="scale(0.95752889)"
       clip-path="url(#clipPath2)" />
    <path
       id="path3"
       d="M 21,1 H 221 V 31 H 21 Z"
       style="fill:#dae8fc;fill-opacity:1;fill-rule:nonzero;stroke:#6c8ebf;stroke-width:1;stroke-linecap:butt;stroke-linejoin:miter;stroke-miterlimit:10;stroke-dasharray:none;stroke-opacity:1"
       transform="matrix(0.95752889,0,0,0.95752889,0.47876444,0.47876444)"
       clip-path="url(#clipPath4)" />
    <text
       id="text4"
       xml:space="preserve"
       transform="matrix(0.95753849,0,0,0.95753849,95.738887,19.15077)"
       clip-path="url(#clipPath5)"><tspan
         style="font-variant:normal;font-weight:700;font-size:12px;font-family:Helvetica;writing-mode:lr-tb;fill:#000000;fill-opacity:1;fill-rule:nonzero;stroke:none"
         x="0 10.669922 17.34375 20.677734 28.007812 31.341797 35.337891"
         y="0"
         sodipodi:role="line"
         id="tspan4">main.ts</tspan></text>
    <path
       id="path6"
       d="M 21,31 H 221 V 171 H 21 Z"
       style="fill:#dae8fc;fill-opacity:1;fill-rule:nonzero;stroke:#6c8ebf;stroke-width:1;stroke-linecap:butt;stroke-linejoin:miter;stroke-miterlimit:10;stroke-dasharray:none;stroke-opacity:1"
       transform="matrix(0.95752889,0,0,0.95752889,0.47876444,0.47876444)"
       clip-path="url(#clipPath7)" />
    <path
       id="path8"
       d="M 1,41 H 166 V 71 H 1 Z"
       style="fill:#ffffff;fill-opacity:1;fill-rule:nonzero;stroke:#000000;stroke-width:1;stroke-linecap:butt;stroke-linejoin:miter;stroke-miterlimit:10;stroke-dasharray:none;stroke-opacity:1"
       transform="matrix(0.95752889,0,0,0.95752889,0.47876444,0.47876444)"
       clip-path="url(#clipPath9)" />
    <text
       id="text9"
       xml:space="preserve"
       transform="matrix(0.95753849,0,0,0.95753849,30.446732,57.452309)"
       clip-path="url(#clipPath10)"><tspan
         style="font-variant:normal;font-weight:normal;font-size:12px;font-family:Helvetica;writing-mode:lr-tb;fill:#000000;fill-opacity:1;fill-rule:nonzero;stroke:none"
         x="0 6 8.6660156 15.339844 21.339844 27.339844 30.017578 38.021484 44.695312 51.369141 60.035156 66.708984 73.382812 76.716797 80.712891 87.386719 90.052734 92.71875 99.392578"
         y="0"
         sodipodi:role="line"
         id="tspan9">class AppController</tspan></text>
    <path
       id="path11"
       d="m 91,86 h 165 v 30 H 91 Z"
       style="fill:#ffffff;fill-opacity:1;fill-rule:nonzero;stroke:#000000;stroke-width:1;stroke-linecap:butt;stroke-linejoin:miter;stroke-miterlimit:10;stroke-dasharray:none;stroke-opacity:1"
       transform="matrix(0.95752889,0,0,0.95752889,0.47876444,0.47876444)"
       clip-path="url(#clipPath12)" />
    <text
       id="text12"
       xml:space="preserve"
       transform="matrix(0.95753849,0,0,0.95753849,122.68462,100.54154)"
       clip-path="url(#clipPath13)"><tspan
         style="font-variant:normal;font-weight:normal;font-size:12px;font-family:Helvetica;writing-mode:lr-tb;fill:#000000;fill-opacity:1;fill-rule:nonzero;stroke:none"
         x="0 6 8.6660156 15.339844 21.339844 27.339844 30.017578 38.021484 44.695312 51.369141 61.365234 68.039062 74.712891 81.386719 84.052734"
         y="0"
         sodipodi:role="line"
         id="tspan12">class AppModule</tspan></text>
    <path
       id="path14"
       d="m 38.5,131 h 165 v 30 h -165 z"
       style="fill:#ffffff;fill-opacity:1;fill-rule:nonzero;stroke:#000000;stroke-width:1;stroke-linecap:butt;stroke-linejoin:miter;stroke-miterlimit:10;stroke-dasharray:none;stroke-opacity:1"
       transform="matrix(0.95752889,0,0,0.95752889,0.47876444,0.47876444)"
       clip-path="url(#clipPath15)" />
    <text
       id="text15"
       xml:space="preserve"
       transform="matrix(0.95753849,0,0,0.95753849,70.663348,143.63077)"
       clip-path="url(#clipPath16)"><tspan
         style="font-variant:normal;font-weight:normal;font-size:12px;font-family:Helvetica;writing-mode:lr-tb;fill:#000000;fill-opacity:1;fill-rule:nonzero;stroke:none"
         x="0 3.3339844 10.007812 16.681641 22.681641 26.015625 28.681641 35.355469 42.029297 45.363281 52.037109 58.710938 65.384766 68.71875 74.71875 78.052734 82.048828 88.722656"
         y="0"
         sodipodi:role="line"
         id="tspan15">function bootstrap</tspan></text>
  </g>
</svg>
