<?xml version="1.0" encoding="UTF-8" standalone="no"?>
<!-- Created with Inkscape (http://www.inkscape.org/) -->

<svg
   version="1.1"
   id="svg1"
   width="530.56"
   height="172.15999"
   viewBox="0 0 530.56 172.15999"
   sodipodi:docname="nest-15.pdf"
   xmlns:inkscape="http://www.inkscape.org/namespaces/inkscape"
   xmlns:sodipodi="http://sodipodi.sourceforge.net/DTD/sodipodi-0.dtd"
   xmlns="http://www.w3.org/2000/svg"
   xmlns:svg="http://www.w3.org/2000/svg">
  <defs
     id="defs1">
    <clipPath
       clipPathUnits="userSpaceOnUse"
       id="clipPath2">
      <path
         d="M 0,0 H 1658.3334 V 534.84985 H 0 Z"
         transform="scale(0.33467337)"
         clip-rule="evenodd"
         id="path2" />
    </clipPath>
    <clipPath
       clipPathUnits="userSpaceOnUse"
       id="clipPath4">
      <path
         d="M 0,0 H 1658.3334 V 528.8739 H 0 Z"
         transform="matrix(0.33467337,0,0,0.33467337,-0.5,-0.5)"
         clip-rule="evenodd"
         id="path4" />
    </clipPath>
    <clipPath
       clipPathUnits="userSpaceOnUse"
       id="clipPath5">
      <path
         d="M 0,0 H 1658.3334 V 528.8739 H 0 Z"
         transform="matrix(0.33467003,0,0,0.33467003,-20.578125,-61)"
         clip-rule="evenodd"
         id="path5" />
    </clipPath>
    <clipPath
       clipPathUnits="userSpaceOnUse"
       id="clipPath7">
      <path
         d="M 0,0 H 1658.3334 V 528.8739 H 0 Z"
         transform="matrix(0.33467337,0,0,0.33467337,-0.5,-0.5)"
         clip-rule="evenodd"
         id="path7" />
    </clipPath>
    <clipPath
       clipPathUnits="userSpaceOnUse"
       id="clipPath8">
      <path
         d="M 0,0 H 1658.3334 V 528.8739 H 0 Z"
         transform="matrix(0.33467003,0,0,0.33467003,-118.90625,-61)"
         clip-rule="evenodd"
         id="path8" />
    </clipPath>
    <clipPath
       clipPathUnits="userSpaceOnUse"
       id="clipPath10">
      <path
         d="M 0,0 H 1658.3334 V 528.8739 H 0 Z"
         transform="matrix(0.33467337,0,0,0.33467337,-0.5,-0.5)"
         clip-rule="evenodd"
         id="path10" />
    </clipPath>
    <clipPath
       clipPathUnits="userSpaceOnUse"
       id="clipPath11">
      <path
         d="M 0,0 H 1658.3334 V 528.8739 H 0 Z"
         transform="matrix(0.33467003,0,0,0.33467003,-346.78125,-61)"
         clip-rule="evenodd"
         id="path11" />
    </clipPath>
    <clipPath
       clipPathUnits="userSpaceOnUse"
       id="clipPath13">
      <path
         d="M 0,0 H 1658.3334 V 528.8739 H 0 Z"
         transform="matrix(0.33467337,0,0,0.33467337,-0.5,-0.5)"
         clip-rule="evenodd"
         id="path13" />
    </clipPath>
    <clipPath
       clipPathUnits="userSpaceOnUse"
       id="clipPath14">
      <path
         d="M 0,0 H 1658.3334 V 528.8739 H 0 Z"
         transform="matrix(0.33467003,0,0,0.33467003,-248.5,-61)"
         clip-rule="evenodd"
         id="path14" />
    </clipPath>
    <clipPath
       clipPathUnits="userSpaceOnUse"
       id="clipPath16">
      <path
         d="M 0,0 H 1658.3334 V 528.8739 H 0 Z"
         transform="matrix(0.33467337,0,0,0.33467337,-0.5,-0.5)"
         clip-rule="evenodd"
         id="path16" />
    </clipPath>
    <clipPath
       clipPathUnits="userSpaceOnUse"
       id="clipPath17">
      <path
         d="M 0,0 H 1658.3334 V 528.8739 H 0 Z"
         transform="matrix(0.33467003,0,0,0.33467003,-15.578125,-111)"
         clip-rule="evenodd"
         id="path17" />
    </clipPath>
    <clipPath
       clipPathUnits="userSpaceOnUse"
       id="clipPath19">
      <path
         d="M 0,0 H 1658.3334 V 528.8739 H 0 Z"
         transform="matrix(0.33467337,0,0,0.33467337,-0.5,-0.5)"
         clip-rule="evenodd"
         id="path19" />
    </clipPath>
    <clipPath
       clipPathUnits="userSpaceOnUse"
       id="clipPath20">
      <path
         d="M 0,0 H 1658.3334 V 528.8739 H 0 Z"
         transform="matrix(0.33467003,0,0,0.33467003,-118.90625,-111)"
         clip-rule="evenodd"
         id="path20" />
    </clipPath>
    <clipPath
       clipPathUnits="userSpaceOnUse"
       id="clipPath22">
      <path
         d="M 0,0 H 1658.3334 V 528.8739 H 0 Z"
         transform="matrix(0.33467337,0,0,0.33467337,-0.5,-0.5)"
         clip-rule="evenodd"
         id="path22" />
    </clipPath>
    <clipPath
       clipPathUnits="userSpaceOnUse"
       id="clipPath23">
      <path
         d="M 0,0 H 1658.3334 V 528.8739 H 0 Z"
         transform="matrix(0.33467003,0,0,0.33467003,-363.03125,-102)"
         clip-rule="evenodd"
         id="path23" />
    </clipPath>
    <clipPath
       clipPathUnits="userSpaceOnUse"
       id="clipPath24">
      <path
         d="M 0,0 H 1658.3334 V 528.8739 H 0 Z"
         transform="matrix(0.33467003,0,0,0.33467003,-410.5625,-120)"
         clip-rule="evenodd"
         id="path24" />
    </clipPath>
    <clipPath
       clipPathUnits="userSpaceOnUse"
       id="clipPath26">
      <path
         d="M 0,0 H 1658.3334 V 528.8739 H 0 Z"
         transform="matrix(0.33467337,0,0,0.33467337,-0.5,-0.5)"
         clip-rule="evenodd"
         id="path26" />
    </clipPath>
    <clipPath
       clipPathUnits="userSpaceOnUse"
       id="clipPath27">
      <path
         d="M 0,0 H 1658.3334 V 528.8739 H 0 Z"
         transform="matrix(0.33467003,0,0,0.33467003,-188.875,-111)"
         clip-rule="evenodd"
         id="path27" />
    </clipPath>
    <clipPath
       clipPathUnits="userSpaceOnUse"
       id="clipPath29">
      <path
         d="M 0,0 H 1658.3334 V 528.8739 H 0 Z"
         transform="matrix(0.33467337,0,0,0.33467337,-0.5,-0.5)"
         clip-rule="evenodd"
         id="path29" />
    </clipPath>
    <clipPath
       clipPathUnits="userSpaceOnUse"
       id="clipPath30">
      <path
         d="M 0,0 H 1658.3334 V 528.8739 H 0 Z"
         transform="matrix(0.33467003,0,0,0.33467003,-20.578125,-161)"
         clip-rule="evenodd"
         id="path30" />
    </clipPath>
    <clipPath
       clipPathUnits="userSpaceOnUse"
       id="clipPath32">
      <path
         d="M 0,0 H 1658.3334 V 528.8739 H 0 Z"
         transform="matrix(0.33467337,0,0,0.33467337,-0.5,-0.5)"
         clip-rule="evenodd"
         id="path32" />
    </clipPath>
    <clipPath
       clipPathUnits="userSpaceOnUse"
       id="clipPath33">
      <path
         d="M 0,0 H 1658.3334 V 528.8739 H 0 Z"
         transform="matrix(0.33467003,0,0,0.33467003,-110.98438,-161)"
         clip-rule="evenodd"
         id="path33" />
    </clipPath>
    <clipPath
       clipPathUnits="userSpaceOnUse"
       id="clipPath35">
      <path
         d="M 0,0 H 1658.3334 V 528.8739 H 0 Z"
         transform="matrix(0.33467337,0,0,0.33467337,-0.5,-0.5)"
         clip-rule="evenodd"
         id="path35" />
    </clipPath>
    <clipPath
       clipPathUnits="userSpaceOnUse"
       id="clipPath36">
      <path
         d="M 0,0 H 1658.3334 V 528.8739 H 0 Z"
         transform="matrix(0.33467003,0,0,0.33467003,-346.35937,-152)"
         clip-rule="evenodd"
         id="path36" />
    </clipPath>
    <clipPath
       clipPathUnits="userSpaceOnUse"
       id="clipPath37">
      <path
         d="M 0,0 H 1658.3334 V 528.8739 H 0 Z"
         transform="matrix(0.33467003,0,0,0.33467003,-413.48437,-170)"
         clip-rule="evenodd"
         id="path37" />
    </clipPath>
    <clipPath
       clipPathUnits="userSpaceOnUse"
       id="clipPath39">
      <path
         d="M 0,0 H 1658.3334 V 528.8739 H 0 Z"
         transform="matrix(0.33467337,0,0,0.33467337,-0.5,-0.5)"
         clip-rule="evenodd"
         id="path39" />
    </clipPath>
    <clipPath
       clipPathUnits="userSpaceOnUse"
       id="clipPath40">
      <path
         d="M 0,0 H 1658.3334 V 528.8739 H 0 Z"
         transform="matrix(0.33467003,0,0,0.33467003,-248.5,-161)"
         clip-rule="evenodd"
         id="path40" />
    </clipPath>
    <clipPath
       clipPathUnits="userSpaceOnUse"
       id="clipPath42">
      <path
         d="M 0,0 H 1658.3334 V 528.8739 H 0 Z"
         transform="matrix(0.33467337,0,0,0.33467337,-0.5,-0.5)"
         clip-rule="evenodd"
         id="path42" />
    </clipPath>
    <clipPath
       clipPathUnits="userSpaceOnUse"
       id="clipPath43">
      <path
         d="M 0,0 H 1658.3334 V 528.8739 H 0 Z"
         transform="matrix(0.33467003,0,0,0.33467003,-9.3437499,-15.999999)"
         clip-rule="evenodd"
         id="path43" />
    </clipPath>
    <clipPath
       clipPathUnits="userSpaceOnUse"
       id="clipPath44">
      <path
         d="M 0,0 H 1658.3334 V 528.8739 H 0 Z"
         transform="matrix(0.33467003,0,0,0.33467003,-99.749999,-15.999999)"
         clip-rule="evenodd"
         id="path44" />
    </clipPath>
    <clipPath
       clipPathUnits="userSpaceOnUse"
       id="clipPath45">
      <path
         d="M 0,0 H 1658.3334 V 528.8739 H 0 Z"
         transform="matrix(0.33467003,0,0,0.33467003,-232.25,-15.999999)"
         clip-rule="evenodd"
         id="path45" />
    </clipPath>
    <clipPath
       clipPathUnits="userSpaceOnUse"
       id="clipPath46">
      <path
         d="M 0,0 H 1658.3334 V 528.8739 H 0 Z"
         transform="matrix(0.33467003,0,0,0.33467003,-399.75,-15.999999)"
         clip-rule="evenodd"
         id="path46" />
    </clipPath>
  </defs>
  <sodipodi:namedview
     id="namedview1"
     pagecolor="#ffffff"
     bordercolor="#000000"
     borderopacity="0.25"
     inkscape:showpageshadow="2"
     inkscape:pageopacity="0.0"
     inkscape:pagecheckerboard="0"
     inkscape:deskcolor="#d1d1d1">
    <inkscape:page
       x="0"
       y="0"
       inkscape:label="1"
       id="page1"
       width="530.56"
       height="172.15999"
       margin="0"
       bleed="0" />
  </sodipodi:namedview>
  <g
     id="g1"
     inkscape:groupmode="layer"
     inkscape:label="1">
    <path
       id="path1"
       d="M 0,0 H 555 V 179 H 0 Z"
       style="fill:#ffffff;fill-opacity:1;fill-rule:nonzero;stroke:none"
       transform="scale(0.95615612)"
       clip-path="url(#clipPath2)" />
    <path
       id="path3"
       d="M 11,35 H 61 V 75 H 11 Z"
       style="fill:#ffffff;fill-opacity:1;fill-rule:nonzero;stroke:#000000;stroke-width:1;stroke-linecap:butt;stroke-linejoin:miter;stroke-miterlimit:10;stroke-dasharray:none;stroke-opacity:1"
       transform="matrix(0.95615612,0,0,0.95615612,0.47807806,0.47807806)"
       clip-path="url(#clipPath4)" />
    <text
       id="text4"
       xml:space="preserve"
       transform="matrix(0.95616566,0,0,0.95616566,19.676096,58.326105)"
       clip-path="url(#clipPath5)"><tspan
         style="font-variant:normal;font-weight:normal;font-size:15px;font-family:Helvetica;writing-mode:lr-tb;fill:#000000;fill-opacity:1;fill-rule:nonzero;stroke:none"
         x="0 11.66748 21.672363"
         y="0"
         sodipodi:role="line"
         id="tspan4">GET</tspan></text>
    <path
       id="path6"
       d="m 81,35 h 80 V 75 H 81 Z"
       style="fill:#ffffff;fill-opacity:1;fill-rule:nonzero;stroke:#000000;stroke-width:1;stroke-linecap:butt;stroke-linejoin:miter;stroke-miterlimit:10;stroke-dasharray:none;stroke-opacity:1"
       transform="matrix(0.95615612,0,0,0.95615612,0.47807806,0.47807806)"
       clip-path="url(#clipPath7)" />
    <text
       id="text7"
       xml:space="preserve"
       transform="matrix(0.95616566,0,0,0.95616566,113.69407,58.326105)"
       clip-path="url(#clipPath8)"><tspan
         style="font-variant:normal;font-weight:normal;font-size:15px;font-family:Helvetica;writing-mode:lr-tb;fill:#000000;fill-opacity:1;fill-rule:nonzero;stroke:none"
         x="0"
         y="0"
         id="tspan7">/</tspan></text>
    <path
       id="path9"
       d="M 341,35 H 541 V 75 H 341 Z"
       style="fill:#ffffff;fill-opacity:1;fill-rule:nonzero;stroke:#000000;stroke-width:1;stroke-linecap:butt;stroke-linejoin:miter;stroke-miterlimit:10;stroke-dasharray:none;stroke-opacity:1"
       transform="matrix(0.95615612,0,0,0.95615612,0.47807806,0.47807806)"
       clip-path="url(#clipPath10)" />
    <text
       id="text10"
       xml:space="preserve"
       transform="matrix(0.95616566,0,0,0.95616566,331.58032,58.326105)"
       clip-path="url(#clipPath11)"><tspan
         style="font-variant:normal;font-weight:normal;font-size:15px;font-family:Helvetica;writing-mode:lr-tb;fill:#000000;fill-opacity:1;fill-rule:nonzero;stroke:none"
         x="0 10.83252 19.174805 23.342285 31.68457 36.679688 45.021973 49.189453 57.531738 61.699219 65.031738 68.364258 75.864258 80.031738 84.199219 92.541504 96.708984 100.87646 109.21875 112.55127 115.88379 120.05127 132.54639 140.88867 148.38867 155.88867 164.23096 172.57324 180.91553"
         y="0"
         sodipodi:role="line"
         id="tspan10">Return a list of all messages</tspan></text>
    <path
       id="path12"
       d="M 181,35 H 321 V 75 H 181 Z"
       style="fill:#ffffff;fill-opacity:1;fill-rule:nonzero;stroke:#000000;stroke-width:1;stroke-linecap:butt;stroke-linejoin:miter;stroke-miterlimit:10;stroke-dasharray:none;stroke-opacity:1"
       transform="matrix(0.95615612,0,0,0.95615612,0.47807806,0.47807806)"
       clip-path="url(#clipPath13)" />
    <text
       id="text13"
       xml:space="preserve"
       transform="matrix(0.95616566,0,0,0.95616566,237.60717,58.326105)"
       clip-path="url(#clipPath14)"><tspan
         style="font-variant:normal;font-weight:normal;font-size:15px;font-family:Helvetica;writing-mode:lr-tb;fill:#000000;fill-opacity:1;fill-rule:nonzero;stroke:none"
         x="0"
         y="0"
         id="tspan13">-</tspan></text>
    <path
       id="path15"
       d="m 11,85 h 50 v 40 H 11 Z"
       style="fill:#ffffff;fill-opacity:1;fill-rule:nonzero;stroke:#000000;stroke-width:1;stroke-linecap:butt;stroke-linejoin:miter;stroke-miterlimit:10;stroke-dasharray:none;stroke-opacity:1"
       transform="matrix(0.95615612,0,0,0.95615612,0.47807806,0.47807806)"
       clip-path="url(#clipPath16)" />
    <text
       id="text16"
       xml:space="preserve"
       transform="matrix(0.95616566,0,0,0.95616566,14.895268,106.13439)"
       clip-path="url(#clipPath17)"><tspan
         style="font-variant:normal;font-weight:normal;font-size:15px;font-family:Helvetica;writing-mode:lr-tb;fill:#000000;fill-opacity:1;fill-rule:nonzero;stroke:none"
         x="0 10.004883 21.672363 31.677246"
         y="0"
         sodipodi:role="line"
         id="tspan16">POST</tspan></text>
    <path
       id="path18"
       d="m 71,85 h 100 v 40 H 71 Z"
       style="fill:#ffffff;fill-opacity:1;fill-rule:nonzero;stroke:#000000;stroke-width:1;stroke-linecap:butt;stroke-linejoin:miter;stroke-miterlimit:10;stroke-dasharray:none;stroke-opacity:1"
       transform="matrix(0.95615612,0,0,0.95615612,0.47807806,0.47807806)"
       clip-path="url(#clipPath19)" />
    <text
       id="text19"
       xml:space="preserve"
       transform="matrix(0.95616566,0,0,0.95616566,113.69407,106.13439)"
       clip-path="url(#clipPath20)"><tspan
         style="font-variant:normal;font-weight:normal;font-size:15px;font-family:Helvetica;writing-mode:lr-tb;fill:#000000;fill-opacity:1;fill-rule:nonzero;stroke:none"
         x="0"
         y="0"
         id="tspan19">/</tspan></text>
    <path
       id="path21"
       d="m 341,85 h 200 v 40 H 341 Z"
       style="fill:#ffffff;fill-opacity:1;fill-rule:nonzero;stroke:#000000;stroke-width:1;stroke-linecap:butt;stroke-linejoin:miter;stroke-miterlimit:10;stroke-dasharray:none;stroke-opacity:1"
       transform="matrix(0.95615612,0,0,0.95615612,0.47807806,0.47807806)"
       clip-path="url(#clipPath22)" />
    <text
       id="text22"
       xml:space="preserve"
       transform="matrix(0.95616566,0,0,0.95616566,347.11801,97.528897)"
       clip-path="url(#clipPath23)"><tspan
         style="font-variant:normal;font-weight:normal;font-size:15px;font-family:Helvetica;writing-mode:lr-tb;fill:#000000;fill-opacity:1;fill-rule:nonzero;stroke:none"
         x="0 10.83252 15.827637 24.169922 32.512207 36.679688 45.021973 49.189453 57.531738 65.874023 74.216309 78.383789 85.883789 90.05127 98.393555 103.38867 111.73096 115.89844 124.24072 128.4082 136.75049 145.09277"
         y="0"
         sodipodi:role="line"
         id="tspan22">Create and store a new</tspan></text>
    <text
       id="text23"
       xml:space="preserve"
       transform="matrix(0.95616566,0,0,0.95616566,392.56576,114.73988)"
       clip-path="url(#clipPath24)"><tspan
         style="font-variant:normal;font-weight:normal;font-size:15px;font-family:Helvetica;writing-mode:lr-tb;fill:#000000;fill-opacity:1;fill-rule:nonzero;stroke:none"
         x="0 12.495117 20.837402 28.337402 35.837402 44.179688 52.521973"
         y="0"
         sodipodi:role="line"
         id="tspan23">message</tspan></text>
    <path
       id="path25"
       d="m 181,85 h 140 v 40 H 181 Z"
       style="fill:#ffffff;fill-opacity:1;fill-rule:nonzero;stroke:#000000;stroke-width:1;stroke-linecap:butt;stroke-linejoin:miter;stroke-miterlimit:10;stroke-dasharray:none;stroke-opacity:1"
       transform="matrix(0.95615612,0,0,0.95615612,0.47807806,0.47807806)"
       clip-path="url(#clipPath26)" />
    <text
       id="text26"
       xml:space="preserve"
       transform="matrix(0.95616566,0,0,0.95616566,180.59579,106.13439)"
       clip-path="url(#clipPath27)"><tspan
         style="font-variant:normal;font-weight:normal;font-size:15px;font-family:Helvetica;writing-mode:lr-tb;fill:#000000;fill-opacity:1;fill-rule:nonzero;stroke:none"
         x="0 5.0097656 9.1772461 21.672363 30.014648 37.514648 45.014648 53.356934 61.699219 70.041504 74.208984 78.376465 85.876465 90.043945 95.039062 98.371582 106.71387 115.05615 119.22363"
         y="0"
         sodipodi:role="line"
         id="tspan26">{ message: string }</tspan></text>
    <path
       id="path28"
       d="m 11,135 h 50 v 40 H 11 Z"
       style="fill:#ffffff;fill-opacity:1;fill-rule:nonzero;stroke:#000000;stroke-width:1;stroke-linecap:butt;stroke-linejoin:miter;stroke-miterlimit:10;stroke-dasharray:none;stroke-opacity:1"
       transform="matrix(0.95615612,0,0,0.95615612,0.47807806,0.47807806)"
       clip-path="url(#clipPath29)" />
    <text
       id="text29"
       xml:space="preserve"
       transform="matrix(0.95616566,0,0,0.95616566,19.676096,153.94267)"
       clip-path="url(#clipPath30)"><tspan
         style="font-variant:normal;font-weight:normal;font-size:15px;font-family:Helvetica;writing-mode:lr-tb;fill:#000000;fill-opacity:1;fill-rule:nonzero;stroke:none"
         x="0 11.66748 21.672363"
         y="0"
         sodipodi:role="line"
         id="tspan29">GET</tspan></text>
    <path
       id="path31"
       d="m 81,135 h 80 v 40 H 81 Z"
       style="fill:#ffffff;fill-opacity:1;fill-rule:nonzero;stroke:#000000;stroke-width:1;stroke-linecap:butt;stroke-linejoin:miter;stroke-miterlimit:10;stroke-dasharray:none;stroke-opacity:1"
       transform="matrix(0.95615612,0,0,0.95615612,0.47807806,0.47807806)"
       clip-path="url(#clipPath32)" />
    <text
       id="text32"
       xml:space="preserve"
       transform="matrix(0.95616566,0,0,0.95616566,106.11945,153.94267)"
       clip-path="url(#clipPath33)"><tspan
         style="font-variant:normal;font-weight:normal;font-size:15px;font-family:Helvetica;writing-mode:lr-tb;fill:#000000;fill-opacity:1;fill-rule:nonzero;stroke:none"
         x="0 4.1674805 8.3349609 11.66748"
         y="0"
         sodipodi:role="line"
         id="tspan32">/:id</tspan></text>
    <path
       id="path34"
       d="m 341,135 h 200 v 40 H 341 Z"
       style="fill:#ffffff;fill-opacity:1;fill-rule:nonzero;stroke:#000000;stroke-width:1;stroke-linecap:butt;stroke-linejoin:miter;stroke-miterlimit:10;stroke-dasharray:none;stroke-opacity:1"
       transform="matrix(0.95615612,0,0,0.95615612,0.47807806,0.47807806)"
       clip-path="url(#clipPath35)" />
    <text
       id="text35"
       xml:space="preserve"
       transform="matrix(0.95616566,0,0,0.95616566,331.17694,145.33718)"
       clip-path="url(#clipPath36)"><tspan
         style="font-variant:normal;font-weight:normal;font-size:15px;font-family:Helvetica;writing-mode:lr-tb;fill:#000000;fill-opacity:1;fill-rule:nonzero;stroke:none"
         x="0 10.83252 19.174805 23.342285 28.337402 31.669922 40.012207 47.512207 55.854492 60.021973 68.364258 72.531738 85.026855 93.369141 100.86914 108.36914 116.71143 125.05371 133.396 137.56348 148.396 151.72852 155.896 164.23828 168.40576 172.57324 180.91553"
         y="0"
         sodipodi:role="line"
         id="tspan35">Retrieve a message with the</tspan></text>
    <text
       id="text36"
       xml:space="preserve"
       transform="matrix(0.95616566,0,0,0.95616566,395.35956,162.54816)"
       clip-path="url(#clipPath37)"><tspan
         style="font-variant:normal;font-weight:normal;font-size:15px;font-family:Helvetica;writing-mode:lr-tb;fill:#000000;fill-opacity:1;fill-rule:nonzero;stroke:none"
         x="0 8.3422852 11.674805 19.174805 27.51709 35.859375 40.026855 44.194336"
         y="0"
         sodipodi:role="line"
         id="tspan36">given ID</tspan></text>
    <path
       id="path38"
       d="m 181,135 h 140 v 40 H 181 Z"
       style="fill:#ffffff;fill-opacity:1;fill-rule:nonzero;stroke:#000000;stroke-width:1;stroke-linecap:butt;stroke-linejoin:miter;stroke-miterlimit:10;stroke-dasharray:none;stroke-opacity:1"
       transform="matrix(0.95615612,0,0,0.95615612,0.47807806,0.47807806)"
       clip-path="url(#clipPath39)" />
    <text
       id="text39"
       xml:space="preserve"
       transform="matrix(0.95616566,0,0,0.95616566,237.60717,153.94267)"
       clip-path="url(#clipPath40)"><tspan
         style="font-variant:normal;font-weight:normal;font-size:15px;font-family:Helvetica;writing-mode:lr-tb;fill:#000000;fill-opacity:1;fill-rule:nonzero;stroke:none"
         x="0"
         y="0"
         id="tspan39">-</tspan></text>
    <path
       id="path41"
       d="M 1,25 H 551.01001"
       style="fill:none;stroke:#000000;stroke-width:1;stroke-linecap:butt;stroke-linejoin:miter;stroke-miterlimit:10;stroke-dasharray:none;stroke-opacity:1"
       transform="matrix(0.95615612,0,0,0.95615612,0.47807806,0.47807806)"
       clip-path="url(#clipPath42)" />
    <text
       id="text42"
       xml:space="preserve"
       transform="matrix(0.95616566,0,0,0.95616566,8.9341728,15.29865)"
       clip-path="url(#clipPath43)"><tspan
         style="font-variant:normal;font-weight:700;font-size:15px;font-family:Helvetica;writing-mode:lr-tb;fill:#000000;fill-opacity:1;fill-rule:nonzero;stroke:none"
         x="0 12.495117 20.837402 25.83252 34.995117 44.157715"
         y="0"
         sodipodi:role="line"
         id="tspan42">Method</tspan></text>
    <text
       id="text43"
       xml:space="preserve"
       transform="matrix(0.95616566,0,0,0.95616566,95.377524,15.29865)"
       clip-path="url(#clipPath44)"><tspan
         style="font-variant:normal;font-weight:700;font-size:15px;font-family:Helvetica;writing-mode:lr-tb;fill:#000000;fill-opacity:1;fill-rule:nonzero;stroke:none"
         x="0 10.83252 19.995117 29.157715 34.152832"
         y="0"
         sodipodi:role="line"
         id="tspan43">Route</tspan></text>
    <text
       id="text44"
       xml:space="preserve"
       transform="matrix(0.95616566,0,0,0.95616566,222.06947,15.29865)"
       clip-path="url(#clipPath45)"><tspan
         style="font-variant:normal;font-weight:700;font-size:15px;font-family:Helvetica;writing-mode:lr-tb;fill:#000000;fill-opacity:1;fill-rule:nonzero;stroke:none"
         x="0 10.83252 19.995117 29.157715"
         y="0"
         sodipodi:role="line"
         id="tspan44">Body</tspan></text>
    <text
       id="text45"
       xml:space="preserve"
       transform="matrix(0.95616566,0,0,0.95616566,382.22722,15.29865)"
       clip-path="url(#clipPath46)"><tspan
         style="font-variant:normal;font-weight:700;font-size:15px;font-family:Helvetica;writing-mode:lr-tb;fill:#000000;fill-opacity:1;fill-rule:nonzero;stroke:none"
         x="0 10.83252 19.174805 27.51709 35.859375 41.696777 45.864258 55.026855 60.021973 64.189453 73.352051"
         y="0"
         sodipodi:role="line"
         id="tspan45">Description</tspan></text>
  </g>
</svg>
