<?xml version="1.0" encoding="UTF-8" standalone="no"?>
<!-- Created with Inkscape (http://www.inkscape.org/) -->

<svg
   version="1.1"
   id="svg1"
   width="425.28"
   height="81.279999"
   viewBox="0 0 425.28 81.279999"
   sodipodi:docname="nest-18.pdf"
   xmlns:inkscape="http://www.inkscape.org/namespaces/inkscape"
   xmlns:sodipodi="http://sodipodi.sourceforge.net/DTD/sodipodi-0.dtd"
   xmlns="http://www.w3.org/2000/svg"
   xmlns:svg="http://www.w3.org/2000/svg">
  <defs
     id="defs1">
    <clipPath
       clipPathUnits="userSpaceOnUse"
       id="clipPath2">
      <path
         d="M 0,0 H 1329.1666 V 251.46396 H 0 Z"
         transform="scale(0.3340439)"
         clip-rule="evenodd"
         id="path2" />
    </clipPath>
    <clipPath
       clipPathUnits="userSpaceOnUse"
       id="clipPath4">
      <path
         d="M 0,0 H 1329.1666 V 251.46396 H 0 Z"
         transform="matrix(0.3340439,0,0,0.3340439,-0.5,-0.5)"
         clip-rule="evenodd"
         id="path4" />
    </clipPath>
    <clipPath
       clipPathUnits="userSpaceOnUse"
       id="clipPath6">
      <path
         d="M 0,0 H 1329.1666 V 251.46396 H 0 Z"
         transform="matrix(0.3340439,0,0,0.3340439,-0.5,-0.5)"
         clip-rule="evenodd"
         id="path6" />
    </clipPath>
    <clipPath
       clipPathUnits="userSpaceOnUse"
       id="clipPath8">
      <path
         d="M 0,0 H 1329.1666 V 251.46396 H 0 Z"
         transform="matrix(0.3340439,0,0,0.3340439,-0.5,-0.5)"
         clip-rule="evenodd"
         id="path8" />
    </clipPath>
    <clipPath
       clipPathUnits="userSpaceOnUse"
       id="clipPath9">
      <path
         d="M 0,0 H 1329.1666 V 251.46396 H 0 Z"
         transform="matrix(0.33404055,0,0,0.33404055,-11.546875,-62)"
         clip-rule="evenodd"
         id="path9" />
    </clipPath>
    <clipPath
       clipPathUnits="userSpaceOnUse"
       id="clipPath11">
      <path
         d="M 0,0 H 1329.1666 V 251.46396 H 0 Z"
         transform="matrix(0.3340439,0,0,0.3340439,-0.5,-0.5)"
         clip-rule="evenodd"
         id="path11" />
    </clipPath>
    <clipPath
       clipPathUnits="userSpaceOnUse"
       id="clipPath12">
      <path
         d="M 0,0 H 1329.1666 V 251.46396 H 0 Z"
         transform="matrix(0.33404055,0,0,0.33404055,-61.40625,-22)"
         clip-rule="evenodd"
         id="path12" />
    </clipPath>
    <clipPath
       clipPathUnits="userSpaceOnUse"
       id="clipPath14">
      <path
         d="M 0,0 H 1329.1666 V 251.46396 H 0 Z"
         transform="matrix(0.3340439,0,0,0.3340439,-0.5,-0.5)"
         clip-rule="evenodd"
         id="path14" />
    </clipPath>
    <clipPath
       clipPathUnits="userSpaceOnUse"
       id="clipPath15">
      <path
         d="M 0,0 H 1329.1666 V 251.46396 H 0 Z"
         transform="matrix(0.33404055,0,0,0.33404055,-275.96875,-22)"
         clip-rule="evenodd"
         id="path15" />
    </clipPath>
    <clipPath
       clipPathUnits="userSpaceOnUse"
       id="clipPath17">
      <path
         d="M 0,0 H 1329.1666 V 251.46396 H 0 Z"
         transform="matrix(0.3340439,0,0,0.3340439,-0.5,-0.5)"
         clip-rule="evenodd"
         id="path17" />
    </clipPath>
    <clipPath
       clipPathUnits="userSpaceOnUse"
       id="clipPath18">
      <path
         d="M 0,0 H 1329.1666 V 251.46396 H 0 Z"
         transform="matrix(0.33404055,0,0,0.33404055,-270.17189,-62)"
         clip-rule="evenodd"
         id="path18" />
    </clipPath>
  </defs>
  <sodipodi:namedview
     id="namedview1"
     pagecolor="#ffffff"
     bordercolor="#000000"
     borderopacity="0.25"
     inkscape:showpageshadow="2"
     inkscape:pageopacity="0.0"
     inkscape:pagecheckerboard="0"
     inkscape:deskcolor="#d1d1d1">
    <inkscape:page
       x="0"
       y="0"
       inkscape:label="1"
       id="page1"
       width="425.28"
       height="81.279999"
       margin="0"
       bleed="0" />
  </sodipodi:namedview>
  <g
     id="g1"
     inkscape:groupmode="layer"
     inkscape:label="1">
    <path
       id="path1"
       d="M 0,0 H 444 V 84 H 0 Z"
       style="fill:#ffffff;fill-opacity:1;fill-rule:nonzero;stroke:none"
       transform="scale(0.95795788)"
       clip-path="url(#clipPath2)" />
    <path
       id="path3"
       d="m 181,56 h 73.63"
       style="fill:none;stroke:#000000;stroke-width:1;stroke-linecap:butt;stroke-linejoin:miter;stroke-miterlimit:10;stroke-dasharray:none;stroke-opacity:1"
       transform="matrix(0.95795788,0,0,0.95795788,0.47897894,0.47897894)"
       clip-path="url(#clipPath4)" />
    <path
       id="path5"
       d="m 259.88,56 -7,3.5 1.75,-3.5 -1.75,-3.5 z"
       style="fill:#000000;fill-opacity:1;fill-rule:nonzero;stroke:#000000;stroke-width:1;stroke-linecap:butt;stroke-linejoin:miter;stroke-miterlimit:10;stroke-dasharray:none;stroke-opacity:1"
       transform="matrix(0.95795788,0,0,0.95795788,0.47897894,0.47897894)"
       clip-path="url(#clipPath6)" />
    <path
       id="path7"
       d="M 1,31 H 181 V 81 H 1 Z"
       style="fill:#ffffff;fill-opacity:1;fill-rule:nonzero;stroke:#000000;stroke-width:1;stroke-linecap:butt;stroke-linejoin:miter;stroke-miterlimit:10;stroke-dasharray:none;stroke-opacity:1"
       transform="matrix(0.95795788,0,0,0.95795788,0.47897894,0.47897894)"
       clip-path="url(#clipPath8)" />
    <text
       id="text8"
       xml:space="preserve"
       transform="matrix(0.95796748,0,0,0.95796748,11.061531,59.393984)"
       clip-path="url(#clipPath9)"><tspan
         style="font-variant:normal;font-weight:normal;font-size:15px;font-family:Helvetica;writing-mode:lr-tb;fill:#000000;fill-opacity:1;fill-rule:nonzero;stroke:none"
         x="0 5.0097656 9.1772461 14.501953 26.99707 35.339355 42.839355 50.339355 58.681641 67.023926 75.366211 80.690918 84.858398 89.025879 94.350586 102.69287 106.02539 110.19287 114.36035 122.70264 131.04492 136.04004 144.38232 149.70703 153.87451"
         y="0"
         sodipodi:role="line"
         id="tspan8">{ &quot;message&quot;: &quot;hi there&quot; }</tspan></text>
    <path
       id="path10"
       d="M 1,1 H 181 V 31 H 1 Z"
       style="fill:#dae8fc;fill-opacity:1;fill-rule:nonzero;stroke:#6c8ebf;stroke-width:1;stroke-linecap:butt;stroke-linejoin:miter;stroke-miterlimit:10;stroke-dasharray:none;stroke-opacity:1"
       transform="matrix(0.95795788,0,0,0.95795788,0.47897894,0.47897894)"
       clip-path="url(#clipPath11)" />
    <text
       id="text11"
       xml:space="preserve"
       transform="matrix(0.95796748,0,0,0.95796748,58.825191,21.075285)"
       clip-path="url(#clipPath12)"><tspan
         style="font-variant:normal;font-weight:700;font-size:15px;font-family:Helvetica;writing-mode:lr-tb;fill:#000000;fill-opacity:1;fill-rule:nonzero;stroke:none"
         x="0 10.83252 19.174805 28.337402 37.5 45.842285 54.18457"
         y="0"
         sodipodi:role="line"
         id="tspan11">Request</tspan></text>
    <path
       id="path13"
       d="M 261,1 H 441 V 31 H 261 Z"
       style="fill:#dae8fc;fill-opacity:1;fill-rule:nonzero;stroke:#6c8ebf;stroke-width:1;stroke-linecap:butt;stroke-linejoin:miter;stroke-miterlimit:10;stroke-dasharray:none;stroke-opacity:1"
       transform="matrix(0.95795788,0,0,0.95795788,0.47897894,0.47897894)"
       clip-path="url(#clipPath14)" />
    <text
       id="text14"
       xml:space="preserve"
       transform="matrix(0.95796748,0,0,0.95796748,264.36909,21.075285)"
       clip-path="url(#clipPath15)"><tspan
         style="font-variant:normal;font-weight:700;font-size:15px;font-family:Helvetica;writing-mode:lr-tb;fill:#000000;fill-opacity:1;fill-rule:nonzero;stroke:none"
         x="0 8.3422852 17.504883 26.66748 39.162598 47.504883 55.847168 64.189453 72.531738 81.694336 90.036621 94.204102 105.03662 113.37891 122.5415 131.7041 135.87158 144.21387"
         y="0"
         sodipodi:role="line"
         id="tspan14">addMessage Handler</tspan></text>
    <path
       id="path16"
       d="M 261,31 H 441 V 81 H 261 Z"
       style="fill:#ffffff;fill-opacity:1;fill-rule:nonzero;stroke:#000000;stroke-width:1;stroke-linecap:butt;stroke-linejoin:miter;stroke-miterlimit:10;stroke-dasharray:none;stroke-opacity:1"
       transform="matrix(0.95795788,0,0,0.95795788,0.47897894,0.47897894)"
       clip-path="url(#clipPath17)" />
    <text
       id="text17"
       xml:space="preserve"
       transform="matrix(0.95796748,0,0,0.95796748,258.81588,59.393984)"
       clip-path="url(#clipPath18)"><tspan
         style="font-style:oblique;font-variant:normal;font-weight:normal;font-size:15px;font-family:Helvetica;writing-mode:lr-tb;fill:#000000;fill-opacity:1;fill-rule:nonzero;stroke:none"
         x="0 14.157715 22.5 30.842285 35.009766 39.177246 43.344727 50.844727 59.187012 67.529297 71.696777 75.029297 82.529297 86.696777 89.560547 102.05566 110.39795 117.89795 125.39795 133.74023 142.08252 150.4248 153.28857"
         y="0"
         sodipodi:role="line"
         id="tspan17">What type is 'message'?</tspan></text>
  </g>
</svg>
