<?xml version="1.0" encoding="UTF-8" standalone="no"?>
<!-- Created with Inkscape (http://www.inkscape.org/) -->

<svg
   version="1.1"
   id="svg1"
   width="272"
   height="225.27998"
   viewBox="0 0 272 225.27998"
   sodipodi:docname="nest-14.pdf"
   xmlns:inkscape="http://www.inkscape.org/namespaces/inkscape"
   xmlns:sodipodi="http://sodipodi.sourceforge.net/DTD/sodipodi-0.dtd"
   xmlns="http://www.w3.org/2000/svg"
   xmlns:svg="http://www.w3.org/2000/svg">
  <defs
     id="defs1">
    <clipPath
       clipPathUnits="userSpaceOnUse"
       id="clipPath2">
      <path
         d="M 0,0 H 850 V 703.34509 H 0 Z"
         transform="scale(0.33411764)"
         clip-rule="evenodd"
         id="path2" />
    </clipPath>
    <clipPath
       clipPathUnits="userSpaceOnUse"
       id="clipPath4">
      <path
         d="M 0,0 H 850 V 700.35211 H 0 Z"
         transform="matrix(0.33411764,0,0,0.33411764,-0.5,-0.5)"
         clip-rule="evenodd"
         id="path4" />
    </clipPath>
    <clipPath
       clipPathUnits="userSpaceOnUse"
       id="clipPath5">
      <path
         d="M 0,0 H 850 V 700.35211 H 0 Z"
         transform="matrix(0.33411428,0,0,0.33411428,-98.078124,-22)"
         clip-rule="evenodd"
         id="path5" />
    </clipPath>
    <clipPath
       clipPathUnits="userSpaceOnUse"
       id="clipPath7">
      <path
         d="M 0,0 H 850 V 700.35211 H 0 Z"
         transform="matrix(0.33411764,0,0,0.33411764,-0.5,-0.5)"
         clip-rule="evenodd"
         id="path7" />
    </clipPath>
    <clipPath
       clipPathUnits="userSpaceOnUse"
       id="clipPath9">
      <path
         d="M 0,0 H 850 V 700.35211 H 0 Z"
         transform="matrix(0.33411764,0,0,0.33411764,-0.5,-0.5)"
         clip-rule="evenodd"
         id="path9" />
    </clipPath>
    <clipPath
       clipPathUnits="userSpaceOnUse"
       id="clipPath10">
      <path
         d="M 0,0 H 850 V 700.35211 H 0 Z"
         transform="matrix(0.33411428,0,0,0.33411428,-51.375,-71.999999)"
         clip-rule="evenodd"
         id="path10" />
    </clipPath>
    <clipPath
       clipPathUnits="userSpaceOnUse"
       id="clipPath12">
      <path
         d="M 0,0 H 850 V 700.35211 H 0 Z"
         transform="matrix(0.33411764,0,0,0.33411764,-0.5,-0.5)"
         clip-rule="evenodd"
         id="path12" />
    </clipPath>
    <clipPath
       clipPathUnits="userSpaceOnUse"
       id="clipPath14">
      <path
         d="M 0,0 H 850 V 700.35211 H 0 Z"
         transform="matrix(0.33411764,0,0,0.33411764,-0.5,-0.5)"
         clip-rule="evenodd"
         id="path14" />
    </clipPath>
    <clipPath
       clipPathUnits="userSpaceOnUse"
       id="clipPath15">
      <path
         d="M 0,0 H 850 V 700.35211 H 0 Z"
         transform="matrix(0.33411428,0,0,0.33411428,-43,-113)"
         clip-rule="evenodd"
         id="path15" />
    </clipPath>
    <clipPath
       clipPathUnits="userSpaceOnUse"
       id="clipPath16">
      <path
         d="M 0,0 H 850 V 700.35211 H 0 Z"
         transform="matrix(0.33411428,0,0,0.33411428,-43,-129)"
         clip-rule="evenodd"
         id="path16" />
    </clipPath>
    <clipPath
       clipPathUnits="userSpaceOnUse"
       id="clipPath18">
      <path
         d="M 0,0 H 850 V 700.35211 H 0 Z"
         transform="matrix(0.33411764,0,0,0.33411764,-0.5,-0.5)"
         clip-rule="evenodd"
         id="path18" />
    </clipPath>
    <clipPath
       clipPathUnits="userSpaceOnUse"
       id="clipPath19">
      <path
         d="M 0,0 H 850 V 700.35211 H 0 Z"
         transform="matrix(0.33411428,0,0,0.33411428,-153,-113)"
         clip-rule="evenodd"
         id="path19" />
    </clipPath>
    <clipPath
       clipPathUnits="userSpaceOnUse"
       id="clipPath20">
      <path
         d="M 0,0 H 850 V 700.35211 H 0 Z"
         transform="matrix(0.33411428,0,0,0.33411428,-153,-129)"
         clip-rule="evenodd"
         id="path20" />
    </clipPath>
    <clipPath
       clipPathUnits="userSpaceOnUse"
       id="clipPath22">
      <path
         d="M 0,0 H 850 V 700.35211 H 0 Z"
         transform="matrix(0.33411764,0,0,0.33411764,-0.5,-0.5)"
         clip-rule="evenodd"
         id="path22" />
    </clipPath>
    <clipPath
       clipPathUnits="userSpaceOnUse"
       id="clipPath23">
      <path
         d="M 0,0 H 850 V 700.35211 H 0 Z"
         transform="matrix(0.33411428,0,0,0.33411428,-43,-173)"
         clip-rule="evenodd"
         id="path23" />
    </clipPath>
    <clipPath
       clipPathUnits="userSpaceOnUse"
       id="clipPath24">
      <path
         d="M 0,0 H 850 V 700.35211 H 0 Z"
         transform="matrix(0.33411428,0,0,0.33411428,-43,-189)"
         clip-rule="evenodd"
         id="path24" />
    </clipPath>
    <clipPath
       clipPathUnits="userSpaceOnUse"
       id="clipPath26">
      <path
         d="M 0,0 H 850 V 700.35211 H 0 Z"
         transform="matrix(0.33411764,0,0,0.33411764,-0.5,-0.5)"
         clip-rule="evenodd"
         id="path26" />
    </clipPath>
    <clipPath
       clipPathUnits="userSpaceOnUse"
       id="clipPath27">
      <path
         d="M 0,0 H 850 V 700.35211 H 0 Z"
         transform="matrix(0.33411428,0,0,0.33411428,-153,-173)"
         clip-rule="evenodd"
         id="path27" />
    </clipPath>
    <clipPath
       clipPathUnits="userSpaceOnUse"
       id="clipPath28">
      <path
         d="M 0,0 H 850 V 700.35211 H 0 Z"
         transform="matrix(0.33411428,0,0,0.33411428,-153,-189)"
         clip-rule="evenodd"
         id="path28" />
    </clipPath>
  </defs>
  <sodipodi:namedview
     id="namedview1"
     pagecolor="#ffffff"
     bordercolor="#000000"
     borderopacity="0.25"
     inkscape:showpageshadow="2"
     inkscape:pageopacity="0.0"
     inkscape:pagecheckerboard="0"
     inkscape:deskcolor="#d1d1d1">
    <inkscape:page
       x="0"
       y="0"
       inkscape:label="1"
       id="page1"
       width="272"
       height="225.27998"
       margin="0"
       bleed="0" />
  </sodipodi:namedview>
  <g
     id="g1"
     inkscape:groupmode="layer"
     inkscape:label="1">
    <path
       id="path1"
       d="M 0,0 H 284 V 235 H 0 Z"
       style="fill:#ffffff;fill-opacity:1;fill-rule:nonzero;stroke:none"
       transform="scale(0.95774646)"
       clip-path="url(#clipPath2)" />
    <path
       id="path3"
       d="M 1,1 H 281 V 31 H 1 Z"
       style="fill:#dae8fc;fill-opacity:1;fill-rule:nonzero;stroke:#6c8ebf;stroke-width:1;stroke-linecap:butt;stroke-linejoin:miter;stroke-miterlimit:10;stroke-dasharray:none;stroke-opacity:1"
       transform="matrix(0.95774646,0,0,0.95774646,0.47887323,0.47887323)"
       clip-path="url(#clipPath4)" />
    <text
       id="text4"
       xml:space="preserve"
       transform="matrix(0.95775609,0,0,0.95775609,93.934921,21.070634)"
       clip-path="url(#clipPath5)"><tspan
         style="font-variant:normal;font-weight:700;font-size:15px;font-family:Helvetica;writing-mode:lr-tb;fill:#000000;fill-opacity:1;fill-rule:nonzero;stroke:none"
         x="0 10.83252 19.995117 29.157715 33.325195 45.820312 54.98291 64.145508 73.308105 77.475586"
         y="0"
         sodipodi:role="line"
         id="tspan4">App Module</tspan></text>
    <path
       id="path6"
       d="M 1,31 H 281 V 231 H 1 Z"
       style="fill:#dae8fc;fill-opacity:1;fill-rule:nonzero;stroke:#6c8ebf;stroke-width:1;stroke-linecap:butt;stroke-linejoin:miter;stroke-miterlimit:10;stroke-dasharray:none;stroke-opacity:1"
       transform="matrix(0.95774646,0,0,0.95774646,0.47887323,0.47887323)"
       clip-path="url(#clipPath7)" />
    <path
       id="path8"
       d="M 21,51 H 261 V 81 H 21 Z"
       style="fill:#f5f5f5;fill-opacity:1;fill-rule:nonzero;stroke:#666666;stroke-width:1;stroke-linecap:butt;stroke-linejoin:miter;stroke-miterlimit:10;stroke-dasharray:none;stroke-opacity:1"
       transform="matrix(0.95774646,0,0,0.95774646,0.47887323,0.47887323)"
       clip-path="url(#clipPath9)" />
    <text
       id="text9"
       xml:space="preserve"
       transform="matrix(0.95775609,0,0,0.95775609,49.204719,68.958438)"
       clip-path="url(#clipPath10)"><tspan
         style="font-variant:normal;font-weight:normal;font-size:15px;font-family:Helvetica;writing-mode:lr-tb;fill:#333333;fill-opacity:1;fill-rule:nonzero;stroke:none"
         x="0 12.495117 20.837402 28.337402 35.837402 44.179688 52.521973 60.864258 68.364258 72.531738 83.364258 91.706543 100.04883 104.21631 109.21143 117.55371 120.88623 124.21875 132.56104 137.55615 141.72363 152.55615 155.88867 164.23096 171.73096"
         y="0"
         sodipodi:role="line"
         id="tspan9">Messages Controller Class</tspan></text>
    <path
       id="path11"
       d="M 21,81 H 261 V 211 H 21 Z"
       style="fill:#f5f5f5;fill-opacity:1;fill-rule:nonzero;stroke:#666666;stroke-width:1;stroke-linecap:butt;stroke-linejoin:miter;stroke-miterlimit:10;stroke-dasharray:none;stroke-opacity:1"
       transform="matrix(0.95774646,0,0,0.95774646,0.47887323,0.47887323)"
       clip-path="url(#clipPath12)" />
    <path
       id="path13"
       d="m 36,91 h 100 v 50 H 36 Z"
       style="fill:#ffffff;fill-opacity:1;fill-rule:nonzero;stroke:#000000;stroke-width:1;stroke-linecap:butt;stroke-linejoin:miter;stroke-miterlimit:10;stroke-dasharray:none;stroke-opacity:1"
       transform="matrix(0.95774646,0,0,0.95774646,0.47887323,0.47887323)"
       clip-path="url(#clipPath14)" />
    <text
       id="text14"
       xml:space="preserve"
       transform="matrix(0.95775609,0,0,0.95775609,41.183512,108.22644)"
       clip-path="url(#clipPath15)"><tspan
         style="font-variant:normal;font-weight:normal;font-size:13px;font-family:Helvetica;writing-mode:lr-tb;fill:#000000;fill-opacity:1;fill-rule:nonzero;stroke:none"
         x="0 13.196777 23.308594 30.538574 34.150391 38.479492 40.961426 43.443359"
         y="0"
         sodipodi:role="line"
         id="tspan14">@Get('')</tspan></text>
    <text
       id="text15"
       xml:space="preserve"
       transform="matrix(0.95775609,0,0,0.95775609,41.183512,123.55054)"
       clip-path="url(#clipPath16)"><tspan
         style="font-variant:normal;font-weight:normal;font-size:13px;font-family:Helvetica;writing-mode:lr-tb;fill:#000000;fill-opacity:1;fill-rule:nonzero;stroke:none"
         x="0 7.2299805 11.559082 18.789062 26.019043 29.630859 32.519043 39.749023 46.979004 51.308105"
         y="0"
         sodipodi:role="line"
         id="tspan15">greeting()</tspan></text>
    <path
       id="path17"
       d="m 146,91 h 100 v 50 H 146 Z"
       style="fill:#ffffff;fill-opacity:1;fill-rule:nonzero;stroke:#000000;stroke-width:1;stroke-linecap:butt;stroke-linejoin:miter;stroke-miterlimit:10;stroke-dasharray:none;stroke-opacity:1"
       transform="matrix(0.95774646,0,0,0.95774646,0.47887323,0.47887323)"
       clip-path="url(#clipPath18)" />
    <text
       id="text18"
       xml:space="preserve"
       transform="matrix(0.95775609,0,0,0.95775609,146.53668,108.22644)"
       clip-path="url(#clipPath19)"><tspan
         style="font-variant:normal;font-weight:normal;font-size:13px;font-family:Helvetica;writing-mode:lr-tb;fill:#000000;fill-opacity:1;fill-rule:nonzero;stroke:none"
         x="0 13.196777 21.867676 29.097656 35.597656 39.209473 43.538574 46.020508 49.632324 56.862305 64.092285 66.980469 69.868652 77.098633 79.580566"
         y="0"
         sodipodi:role="line"
         id="tspan18">@Post('/hello')</tspan></text>
    <text
       id="text19"
       xml:space="preserve"
       transform="matrix(0.95775609,0,0,0.95775609,146.53668,123.55054)"
       clip-path="url(#clipPath20)"><tspan
         style="font-variant:normal;font-weight:normal;font-size:13px;font-family:Helvetica;writing-mode:lr-tb;fill:#000000;fill-opacity:1;fill-rule:nonzero;stroke:none"
         x="0 7.2299805 10.841797 18.071777 25.301758 29.630859 39.019043 46.249023 53.479004 60.708984 63.597168 70.827148 75.15625 79.485352"
         y="0"
         sodipodi:role="line"
         id="tspan19">otherHandler()</tspan></text>
    <path
       id="path21"
       d="m 36,151 h 100 v 50 H 36 Z"
       style="fill:#ffffff;fill-opacity:1;fill-rule:nonzero;stroke:#000000;stroke-width:1;stroke-linecap:butt;stroke-linejoin:miter;stroke-miterlimit:10;stroke-dasharray:none;stroke-opacity:1"
       transform="matrix(0.95774646,0,0,0.95774646,0.47887323,0.47887323)"
       clip-path="url(#clipPath22)" />
    <text
       id="text22"
       xml:space="preserve"
       transform="matrix(0.95775609,0,0,0.95775609,41.183512,165.6918)"
       clip-path="url(#clipPath23)"><tspan
         style="font-variant:normal;font-weight:normal;font-size:13px;font-family:Helvetica;writing-mode:lr-tb;fill:#000000;fill-opacity:1;fill-rule:nonzero;stroke:none"
         x="0 13.196777 21.867676 29.097656 32.709473 39.209473 46.439453 50.768555 53.250488 56.862305 64.092285 71.322266 74.210449 77.098633 84.328613 86.810547"
         y="0"
         sodipodi:role="line"
         id="tspan22">@Patch('/hello')</tspan></text>
    <text
       id="text23"
       xml:space="preserve"
       transform="matrix(0.95775609,0,0,0.95775609,41.183512,181.0159)"
       clip-path="url(#clipPath24)"><tspan
         style="font-variant:normal;font-weight:normal;font-size:13px;font-family:Helvetica;writing-mode:lr-tb;fill:#000000;fill-opacity:1;fill-rule:nonzero;stroke:none"
         x="0 7.2299805 10.841797 18.071777 25.301758 29.630859 39.019043 46.249023 53.479004 60.708984 63.597168 70.827148 75.15625 79.485352"
         y="0"
         sodipodi:role="line"
         id="tspan23">otherHandler()</tspan></text>
    <path
       id="path25"
       d="m 146,151 h 100 v 50 H 146 Z"
       style="fill:#ffffff;fill-opacity:1;fill-rule:nonzero;stroke:#000000;stroke-width:1;stroke-linecap:butt;stroke-linejoin:miter;stroke-miterlimit:10;stroke-dasharray:none;stroke-opacity:1"
       transform="matrix(0.95774646,0,0,0.95774646,0.47887323,0.47887323)"
       clip-path="url(#clipPath26)" />
    <text
       id="text26"
       xml:space="preserve"
       transform="matrix(0.95775609,0,0,0.95775609,146.53668,165.6918)"
       clip-path="url(#clipPath27)"><tspan
         style="font-variant:normal;font-weight:normal;font-size:13px;font-family:Helvetica;writing-mode:lr-tb;fill:#000000;fill-opacity:1;fill-rule:nonzero;stroke:none"
         x="0 13.196777 21.867676 29.097656 32.709473 37.038574 39.520508 43.132324 50.362305 57.592285 60.480469 63.368652 70.598633 73.080566"
         y="0"
         sodipodi:role="line"
         id="tspan26">@Put('/hello')</tspan></text>
    <text
       id="text27"
       xml:space="preserve"
       transform="matrix(0.95775609,0,0,0.95775609,146.53668,181.0159)"
       clip-path="url(#clipPath28)"><tspan
         style="font-variant:normal;font-weight:normal;font-size:13px;font-family:Helvetica;writing-mode:lr-tb;fill:#000000;fill-opacity:1;fill-rule:nonzero;stroke:none"
         x="0 7.2299805 10.841797 18.071777 25.301758 29.630859 39.019043 46.249023 53.479004 60.708984 63.597168 70.827148 75.15625 79.485352"
         y="0"
         sodipodi:role="line"
         id="tspan27">otherHandler()</tspan></text>
  </g>
</svg>
