<?xml version="1.0" encoding="UTF-8" standalone="no"?>
<!-- Created with Inkscape (http://www.inkscape.org/) -->

<svg
   version="1.1"
   id="svg1"
   width="568"
   height="101.44"
   viewBox="0 0 568 101.44"
   sodipodi:docname="nest-19.pdf"
   xmlns:inkscape="http://www.inkscape.org/namespaces/inkscape"
   xmlns:sodipodi="http://sodipodi.sourceforge.net/DTD/sodipodi-0.dtd"
   xmlns="http://www.w3.org/2000/svg"
   xmlns:svg="http://www.w3.org/2000/svg">
  <defs
     id="defs1">
    <clipPath
       clipPathUnits="userSpaceOnUse"
       id="clipPath2">
      <path
         d="M 0,0 H 1775 V 313.76263 H 0 Z"
         transform="scale(0.3346479)"
         clip-rule="evenodd"
         id="path2" />
    </clipPath>
    <clipPath
       clipPathUnits="userSpaceOnUse"
       id="clipPath4">
      <path
         d="M 0,0 H 1775 V 310.77441 H 0 Z"
         transform="matrix(0.3346479,0,0,0.3346479,-0.50000001,-0.50000001)"
         clip-rule="evenodd"
         id="path4" />
    </clipPath>
    <clipPath
       clipPathUnits="userSpaceOnUse"
       id="clipPath6">
      <path
         d="M 0,0 H 1775 V 310.77441 H 0 Z"
         transform="matrix(0.3346479,0,0,0.3346479,-0.50000001,-0.50000001)"
         clip-rule="evenodd"
         id="path6" />
    </clipPath>
    <clipPath
       clipPathUnits="userSpaceOnUse"
       id="clipPath8">
      <path
         d="M 0,0 H 1775 V 310.77441 H 0 Z"
         transform="matrix(0.3346479,0,0,0.3346479,-0.50000001,-0.50000001)"
         clip-rule="evenodd"
         id="path8" />
    </clipPath>
    <clipPath
       clipPathUnits="userSpaceOnUse"
       id="clipPath9">
      <path
         d="M 0,0 H 1775 V 310.77441 H 0 Z"
         transform="matrix(0.33464453,0,0,0.33464453,-17.375,-72)"
         clip-rule="evenodd"
         id="path9" />
    </clipPath>
    <clipPath
       clipPathUnits="userSpaceOnUse"
       id="clipPath11">
      <path
         d="M 0,0 H 1775 V 310.77441 H 0 Z"
         transform="matrix(0.3346479,0,0,0.3346479,-0.50000001,-0.50000001)"
         clip-rule="evenodd"
         id="path11" />
    </clipPath>
    <clipPath
       clipPathUnits="userSpaceOnUse"
       id="clipPath12">
      <path
         d="M 0,0 H 1775 V 310.77441 H 0 Z"
         transform="matrix(0.33464453,0,0,0.33464453,-61.40625,-22)"
         clip-rule="evenodd"
         id="path12" />
    </clipPath>
    <clipPath
       clipPathUnits="userSpaceOnUse"
       id="clipPath14">
      <path
         d="M 0,0 H 1775 V 310.77441 H 0 Z"
         transform="matrix(0.3346479,0,0,0.3346479,-0.50000001,-0.50000001)"
         clip-rule="evenodd"
         id="path14" />
    </clipPath>
    <clipPath
       clipPathUnits="userSpaceOnUse"
       id="clipPath15">
      <path
         d="M 0,0 H 1775 V 310.77441 H 0 Z"
         transform="matrix(0.33464453,0,0,0.33464453,-425.96875,-22)"
         clip-rule="evenodd"
         id="path15" />
    </clipPath>
    <clipPath
       clipPathUnits="userSpaceOnUse"
       id="clipPath17">
      <path
         d="M 0,0 H 1775 V 310.77441 H 0 Z"
         transform="matrix(0.3346479,0,0,0.3346479,-0.50000001,-0.50000001)"
         clip-rule="evenodd"
         id="path17" />
    </clipPath>
    <clipPath
       clipPathUnits="userSpaceOnUse"
       id="clipPath18">
      <path
         d="M 0,0 H 1775 V 310.77441 H 0 Z"
         transform="matrix(0.33464453,0,0,0.33464453,-440.14063,-54)"
         clip-rule="evenodd"
         id="path18" />
    </clipPath>
    <clipPath
       clipPathUnits="userSpaceOnUse"
       id="clipPath19">
      <path
         d="M 0,0 H 1775 V 310.77441 H 0 Z"
         transform="matrix(0.33464453,0,0,0.33464453,-420.10938,-72)"
         clip-rule="evenodd"
         id="path19" />
    </clipPath>
    <clipPath
       clipPathUnits="userSpaceOnUse"
       id="clipPath20">
      <path
         d="M 0,0 H 1775 V 310.77441 H 0 Z"
         transform="matrix(0.33464453,0,0,0.33464453,-482.65625,-90)"
         clip-rule="evenodd"
         id="path20" />
    </clipPath>
    <clipPath
       clipPathUnits="userSpaceOnUse"
       id="clipPath22">
      <path
         d="M 0,0 H 1775 V 310.77441 H 0 Z"
         transform="matrix(0.3346479,0,0,0.3346479,-0.50000001,-0.50000001)"
         clip-rule="evenodd"
         id="path22" />
    </clipPath>
    <clipPath
       clipPathUnits="userSpaceOnUse"
       id="clipPath23">
      <path
         d="M 0,0 H 1775 V 310.77441 H 0 Z"
         transform="matrix(0.33464453,0,0,0.33464453,-247.23438,-22)"
         clip-rule="evenodd"
         id="path23" />
    </clipPath>
    <clipPath
       clipPathUnits="userSpaceOnUse"
       id="clipPath25">
      <path
         d="M 0,0 H 1775 V 310.77441 H 0 Z"
         transform="matrix(0.3346479,0,0,0.3346479,-0.50000001,-0.50000001)"
         clip-rule="evenodd"
         id="path25" />
    </clipPath>
    <clipPath
       clipPathUnits="userSpaceOnUse"
       id="clipPath27">
      <path
         d="M 0,0 H 1775 V 310.77441 H 0 Z"
         transform="matrix(0.3346479,0,0,0.3346479,-0.50000001,-0.50000001)"
         clip-rule="evenodd"
         id="path27" />
    </clipPath>
    <clipPath
       clipPathUnits="userSpaceOnUse"
       id="clipPath29">
      <path
         d="M 0,0 H 1775 V 310.77441 H 0 Z"
         transform="matrix(0.3346479,0,0,0.3346479,-0.50000001,-0.50000001)"
         clip-rule="evenodd"
         id="path29" />
    </clipPath>
    <clipPath
       clipPathUnits="userSpaceOnUse"
       id="clipPath31">
      <path
         d="M 0,0 H 1775 V 310.77441 H 0 Z"
         transform="matrix(0.3346479,0,0,0.3346479,-0.50000001,-0.50000001)"
         clip-rule="evenodd"
         id="path31" />
    </clipPath>
    <clipPath
       clipPathUnits="userSpaceOnUse"
       id="clipPath33">
      <path
         d="M 0,0 H 1775 V 310.77441 H 0 Z"
         transform="matrix(0.3346479,0,0,0.3346479,-0.50000001,-0.50000001)"
         clip-rule="evenodd"
         id="path33" />
    </clipPath>
    <clipPath
       clipPathUnits="userSpaceOnUse"
       id="clipPath34">
      <path
         d="M 0,0 H 1775 V 310.77441 H 0 Z"
         transform="matrix(0.33464453,0,0,0.33464453,-212.1875,-54)"
         clip-rule="evenodd"
         id="path34" />
    </clipPath>
    <clipPath
       clipPathUnits="userSpaceOnUse"
       id="clipPath35">
      <path
         d="M 0,0 H 1775 V 310.77441 H 0 Z"
         transform="matrix(0.33464453,0,0,0.33464453,-221.59375,-72)"
         clip-rule="evenodd"
         id="path35" />
    </clipPath>
    <clipPath
       clipPathUnits="userSpaceOnUse"
       id="clipPath36">
      <path
         d="M 0,0 H 1775 V 310.77441 H 0 Z"
         transform="matrix(0.33464453,0,0,0.33464453,-258.04688,-90)"
         clip-rule="evenodd"
         id="path36" />
    </clipPath>
  </defs>
  <sodipodi:namedview
     id="namedview1"
     pagecolor="#ffffff"
     bordercolor="#000000"
     borderopacity="0.25"
     inkscape:showpageshadow="2"
     inkscape:pageopacity="0.0"
     inkscape:pagecheckerboard="0"
     inkscape:deskcolor="#d1d1d1">
    <inkscape:page
       x="0"
       y="0"
       inkscape:label="1"
       id="page1"
       width="568"
       height="101.44"
       margin="0"
       bleed="0" />
  </sodipodi:namedview>
  <g
     id="g1"
     inkscape:groupmode="layer"
     inkscape:label="1">
    <path
       id="path1"
       d="M 0,0 H 594 V 105 H 0 Z"
       style="fill:#ffffff;fill-opacity:1;fill-rule:nonzero;stroke:none"
       transform="scale(0.95622889)"
       clip-path="url(#clipPath2)" />
    <path
       id="path3"
       d="m 181,66 h 23.63"
       style="fill:none;stroke:#000000;stroke-width:1;stroke-linecap:butt;stroke-linejoin:miter;stroke-miterlimit:10;stroke-dasharray:none;stroke-opacity:1"
       transform="matrix(0.95622889,0,0,0.95622889,0.47811445,0.47811445)"
       clip-path="url(#clipPath4)" />
    <path
       id="path5"
       d="m 209.88,66 -7,3.5 1.75,-3.5 -1.75,-3.5 z"
       style="fill:#000000;fill-opacity:1;fill-rule:nonzero;stroke:#000000;stroke-width:1;stroke-linecap:butt;stroke-linejoin:miter;stroke-miterlimit:10;stroke-dasharray:none;stroke-opacity:1"
       transform="matrix(0.95622889,0,0,0.95622889,0.47811445,0.47811445)"
       clip-path="url(#clipPath6)" />
    <path
       id="path7"
       d="m 1,31 h 180 v 70 H 1 Z"
       style="fill:#ffffff;fill-opacity:1;fill-rule:nonzero;stroke:#000000;stroke-width:1;stroke-linecap:butt;stroke-linejoin:miter;stroke-miterlimit:10;stroke-dasharray:none;stroke-opacity:1"
       transform="matrix(0.95622889,0,0,0.95622889,0.47811445,0.47811445)"
       clip-path="url(#clipPath8)" />
    <text
       id="text8"
       xml:space="preserve"
       transform="matrix(0.95623852,0,0,0.95623852,16.614644,68.849173)"
       clip-path="url(#clipPath9)"><tspan
         style="font-variant:normal;font-weight:normal;font-size:15px;font-family:Helvetica;writing-mode:lr-tb;fill:#000000;fill-opacity:1;fill-rule:nonzero;stroke:none"
         x="0 5.0097656 9.1772461 14.501953 22.001953 30.344238 38.686523 42.854004 51.196289 59.538574 63.706055 69.030762 73.198242 77.365723 82.69043 91.032715 94.365234 98.532715 102.7002 111.04248 119.38477 124.37988 132.72217 138.04688 142.21436"
         y="0"
         sodipodi:role="line"
         id="tspan8">{ &quot;content&quot;: &quot;hi there&quot; }</tspan></text>
    <path
       id="path10"
       d="M 1,1 H 181 V 31 H 1 Z"
       style="fill:#dae8fc;fill-opacity:1;fill-rule:nonzero;stroke:#6c8ebf;stroke-width:1;stroke-linecap:butt;stroke-linejoin:miter;stroke-miterlimit:10;stroke-dasharray:none;stroke-opacity:1"
       transform="matrix(0.95622889,0,0,0.95622889,0.47811445,0.47811445)"
       clip-path="url(#clipPath11)" />
    <text
       id="text11"
       xml:space="preserve"
       transform="matrix(0.95623852,0,0,0.95623852,58.719022,21.037247)"
       clip-path="url(#clipPath12)"><tspan
         style="font-variant:normal;font-weight:700;font-size:15px;font-family:Helvetica;writing-mode:lr-tb;fill:#000000;fill-opacity:1;fill-rule:nonzero;stroke:none"
         x="0 10.83252 19.174805 28.337402 37.5 45.842285 54.18457"
         y="0"
         sodipodi:role="line"
         id="tspan11">Request</tspan></text>
    <path
       id="path13"
       d="M 411,1 H 591 V 31 H 411 Z"
       style="fill:#dae8fc;fill-opacity:1;fill-rule:nonzero;stroke:#6c8ebf;stroke-width:1;stroke-linecap:butt;stroke-linejoin:miter;stroke-miterlimit:10;stroke-dasharray:none;stroke-opacity:1"
       transform="matrix(0.95622889,0,0,0.95622889,0.47811445,0.47811445)"
       clip-path="url(#clipPath14)" />
    <text
       id="text14"
       xml:space="preserve"
       transform="matrix(0.95623852,0,0,0.95623852,407.32773,21.037247)"
       clip-path="url(#clipPath15)"><tspan
         style="font-variant:normal;font-weight:700;font-size:15px;font-family:Helvetica;writing-mode:lr-tb;fill:#000000;fill-opacity:1;fill-rule:nonzero;stroke:none"
         x="0 8.3422852 17.504883 26.66748 39.162598 47.504883 55.847168 64.189453 72.531738 81.694336 90.036621 94.204102 105.03662 113.37891 122.5415 131.7041 135.87158 144.21387"
         y="0"
         sodipodi:role="line"
         id="tspan14">addMessage Handler</tspan></text>
    <path
       id="path16"
       d="m 411,31 h 180 v 70 H 411 Z"
       style="fill:#ffffff;fill-opacity:1;fill-rule:nonzero;stroke:#000000;stroke-width:1;stroke-linecap:butt;stroke-linejoin:miter;stroke-miterlimit:10;stroke-dasharray:none;stroke-opacity:1"
       transform="matrix(0.95622889,0,0,0.95622889,0.47811445,0.47811445)"
       clip-path="url(#clipPath17)" />
    <text
       id="text17"
       xml:space="preserve"
       transform="matrix(0.95623852,0,0,0.95623852,420.87942,51.63688)"
       clip-path="url(#clipPath18)"><tspan
         style="font-style:oblique;font-variant:normal;font-weight:normal;font-size:15px;font-family:Helvetica;writing-mode:lr-tb;fill:#000000;fill-opacity:1;fill-rule:nonzero;stroke:none"
         x="0 11.66748 21.672363 25.839844 30.007324 42.502441 50.844727 58.344727 65.844727 74.187012 82.529297 90.871582 95.039062 105.87158 114.21387"
         y="0"
         sodipodi:role="line"
         id="tspan17">OK, message was</tspan></text>
    <text
       id="text18"
       xml:space="preserve"
       transform="matrix(0.95623852,0,0,0.95623852,401.72477,68.849173)"
       clip-path="url(#clipPath19)"><tspan
         style="font-style:oblique;font-variant:normal;font-weight:normal;font-size:15px;font-family:Helvetica;writing-mode:lr-tb;fill:#000000;fill-opacity:1;fill-rule:nonzero;stroke:none"
         x="0 7.5 15.842285 19.174805 22.507324 30.849609 39.191895 43.359375 51.70166 60.043945 64.211426 71.711426 80.053711 84.221191 87.553711 91.721191 95.888672 108.38379 116.72607 124.22607 128.39355 132.56104 140.90332 149.24561 153.41309"
         y="0"
         sodipodi:role="line"
         id="tspan18">validated so it must be a</tspan></text>
    <text
       id="text19"
       xml:space="preserve"
       transform="matrix(0.95623852,0,0,0.95623852,461.5345,86.061467)"
       clip-path="url(#clipPath20)"><tspan
         style="font-style:oblique;font-variant:normal;font-weight:normal;font-size:15px;font-family:Helvetica;writing-mode:lr-tb;fill:#000000;fill-opacity:1;fill-rule:nonzero;stroke:none"
         x="0 7.5 11.66748 16.662598 19.995117 28.337402"
         y="0"
         sodipodi:role="line"
         id="tspan19">string</tspan></text>
    <path
       id="path21"
       d="M 211,1 H 391 V 31 H 211 Z"
       style="fill:#ffe6cc;fill-opacity:1;fill-rule:nonzero;stroke:#d79b00;stroke-width:1;stroke-linecap:butt;stroke-linejoin:miter;stroke-miterlimit:10;stroke-dasharray:none;stroke-opacity:1"
       transform="matrix(0.95622889,0,0,0.95622889,0.47811445,0.47811445)"
       clip-path="url(#clipPath22)" />
    <text
       id="text22"
       xml:space="preserve"
       transform="matrix(0.95623852,0,0,0.95623852,236.41504,21.037247)"
       clip-path="url(#clipPath23)"><tspan
         style="font-variant:normal;font-weight:700;font-size:15px;font-family:Helvetica;writing-mode:lr-tb;fill:#000000;fill-opacity:1;fill-rule:nonzero;stroke:none"
         x="0 9.1845703 17.526855 21.694336 25.861816 35.024414 43.366699 48.361816 52.529297 61.691895 70.854492 75.021973 85.026855 90.021973 98.364258"
         y="0"
         sodipodi:role="line"
         id="tspan22">Validation Step</tspan></text>
    <path
       id="path24"
       d="m 391,66 h 20 -20 13.64001"
       style="fill:none;stroke:#000000;stroke-width:1;stroke-linecap:butt;stroke-linejoin:miter;stroke-miterlimit:10;stroke-dasharray:none;stroke-opacity:1"
       transform="matrix(0.95622889,0,0,0.95622889,0.47811445,0.47811445)"
       clip-path="url(#clipPath25)" />
    <path
       id="path26"
       d="m 409.89001,66 -7,3.5 1.75,-3.5 -1.75,-3.5 z"
       style="fill:#000000;fill-opacity:1;fill-rule:nonzero;stroke:#000000;stroke-width:1;stroke-linecap:butt;stroke-linejoin:miter;stroke-miterlimit:10;stroke-dasharray:none;stroke-opacity:1"
       transform="matrix(0.95622889,0,0,0.95622889,0.47811445,0.47811445)"
       clip-path="url(#clipPath27)" />
    <path
       id="path28"
       d="M 211,83.5 H 187.37"
       style="fill:none;stroke:#000000;stroke-width:1;stroke-linecap:butt;stroke-linejoin:miter;stroke-miterlimit:10;stroke-dasharray:none;stroke-opacity:1"
       transform="matrix(0.95622889,0,0,0.95622889,0.47811445,0.47811445)"
       clip-path="url(#clipPath29)" />
    <path
       id="path30"
       d="m 182.12,83.5 7,-3.5 -1.75,3.5 1.75,3.5 z"
       style="fill:#000000;fill-opacity:1;fill-rule:nonzero;stroke:#000000;stroke-width:1;stroke-linecap:butt;stroke-linejoin:miter;stroke-miterlimit:10;stroke-dasharray:none;stroke-opacity:1"
       transform="matrix(0.95622889,0,0,0.95622889,0.47811445,0.47811445)"
       clip-path="url(#clipPath31)" />
    <path
       id="path32"
       d="m 211,31 h 180 v 70 H 211 Z"
       style="fill:#ffffff;fill-opacity:1;fill-rule:nonzero;stroke:#000000;stroke-width:1;stroke-linecap:butt;stroke-linejoin:miter;stroke-miterlimit:10;stroke-dasharray:none;stroke-opacity:1"
       transform="matrix(0.95622889,0,0,0.95622889,0.47811445,0.47811445)"
       clip-path="url(#clipPath33)" />
    <text
       id="text33"
       xml:space="preserve"
       transform="matrix(0.95623852,0,0,0.95623852,202.90186,51.63688)"
       clip-path="url(#clipPath34)"><tspan
         style="font-variant:normal;font-weight:normal;font-size:15px;font-family:Helvetica;writing-mode:lr-tb;fill:#000000;fill-opacity:1;fill-rule:nonzero;stroke:none"
         x="0 12.495117 20.837402 28.337402 35.837402 44.179688 52.521973 60.864258 65.031738 73.374023 81.716309 85.883789 90.05127 98.393555 103.38867 107.55615 115.89844 124.24072 128.4082 136.75049 140.91797 148.41797 152.58545 157.58057 160.91309 169.25537"
         y="0"
         sodipodi:role="line"
         id="tspan33">Message better be a string</tspan></text>
    <text
       id="text34"
       xml:space="preserve"
       transform="matrix(0.95623852,0,0,0.95623852,211.89648,68.849173)"
       clip-path="url(#clipPath35)"><tspan
         style="font-variant:normal;font-weight:normal;font-size:15px;font-family:Helvetica;writing-mode:lr-tb;fill:#000000;fill-opacity:1;fill-rule:nonzero;stroke:none"
         x="0 8.3422852 13.337402 17.504883 21.672363 24.536133 37.03125 41.19873 49.541016 57.883301 61.21582 69.558105 77.900391 82.067871 86.235352 94.577637 98.745117 106.24512 114.5874 122.92969 131.27197 135.43945 139.60693 147.94922 151.28174"
         y="0"
         sodipodi:role="line"
         id="tspan34">or I'm going to send this</tspan></text>
    <text
       id="text35"
       xml:space="preserve"
       transform="matrix(0.95623852,0,0,0.95623852,246.75437,86.061467)"
       clip-path="url(#clipPath36)"><tspan
         style="font-variant:normal;font-weight:normal;font-size:15px;font-family:Helvetica;writing-mode:lr-tb;fill:#000000;fill-opacity:1;fill-rule:nonzero;stroke:none"
         x="0 4.9951172 13.337402 21.679688 30.021973 38.364258 45.864258 50.031738 54.199219 62.541504 70.883789 78.383789"
         y="0"
         sodipodi:role="line"
         id="tspan35">request back</tspan></text>
  </g>
</svg>
