<?xml version="1.0" encoding="UTF-8" standalone="no"?>
<!-- Created with Inkscape (http://www.inkscape.org/) -->

<svg
   version="1.1"
   id="svg1"
   width="453.44"
   height="101.44"
   viewBox="0 0 453.44 101.44"
   sodipodi:docname="nest-20.pdf"
   xmlns:inkscape="http://www.inkscape.org/namespaces/inkscape"
   xmlns:sodipodi="http://sodipodi.sourceforge.net/DTD/sodipodi-0.dtd"
   xmlns="http://www.w3.org/2000/svg"
   xmlns:svg="http://www.w3.org/2000/svg">
  <defs
     id="defs1">
    <clipPath
       clipPathUnits="userSpaceOnUse"
       id="clipPath2">
      <path
         d="M 0,0 H 1416.6666 V 313.81854 H 0 Z"
         transform="scale(0.33458825)"
         clip-rule="evenodd"
         id="path2" />
    </clipPath>
    <clipPath
       clipPathUnits="userSpaceOnUse"
       id="clipPath4">
      <path
         d="M 0,0 H 1416.6666 V 310.8298 H 0 Z"
         transform="matrix(0.33458825,0,0,0.33458825,-0.49999999,-0.49999999)"
         clip-rule="evenodd"
         id="path4" />
    </clipPath>
    <clipPath
       clipPathUnits="userSpaceOnUse"
       id="clipPath6">
      <path
         d="M 0,0 H 1416.6666 V 310.8298 H 0 Z"
         transform="matrix(0.33458825,0,0,0.33458825,-0.49999999,-0.49999999)"
         clip-rule="evenodd"
         id="path6" />
    </clipPath>
    <clipPath
       clipPathUnits="userSpaceOnUse"
       id="clipPath8">
      <path
         d="M 0,0 H 1416.6666 V 310.8298 H 0 Z"
         transform="matrix(0.33458825,0,0,0.33458825,-0.49999999,-0.49999999)"
         clip-rule="evenodd"
         id="path8" />
    </clipPath>
    <clipPath
       clipPathUnits="userSpaceOnUse"
       id="clipPath9">
      <path
         d="M 0,0 H 1416.6666 V 310.8298 H 0 Z"
         transform="matrix(0.33458489,0,0,0.33458489,-11.546875,-72.000001)"
         clip-rule="evenodd"
         id="path9" />
    </clipPath>
    <clipPath
       clipPathUnits="userSpaceOnUse"
       id="clipPath11">
      <path
         d="M 0,0 H 1416.6666 V 310.8298 H 0 Z"
         transform="matrix(0.33458825,0,0,0.33458825,-0.49999999,-0.49999999)"
         clip-rule="evenodd"
         id="path11" />
    </clipPath>
    <clipPath
       clipPathUnits="userSpaceOnUse"
       id="clipPath12">
      <path
         d="M 0,0 H 1416.6666 V 310.8298 H 0 Z"
         transform="matrix(0.33458489,0,0,0.33458489,-61.40625,-22)"
         clip-rule="evenodd"
         id="path12" />
    </clipPath>
    <clipPath
       clipPathUnits="userSpaceOnUse"
       id="clipPath14">
      <path
         d="M 0,0 H 1416.6666 V 310.8298 H 0 Z"
         transform="matrix(0.33458825,0,0,0.33458825,-0.49999999,-0.49999999)"
         clip-rule="evenodd"
         id="path14" />
    </clipPath>
    <clipPath
       clipPathUnits="userSpaceOnUse"
       id="clipPath15">
      <path
         d="M 0,0 H 1416.6666 V 310.8298 H 0 Z"
         transform="matrix(0.33458489,0,0,0.33458489,-280.96875,-22)"
         clip-rule="evenodd"
         id="path15" />
    </clipPath>
    <clipPath
       clipPathUnits="userSpaceOnUse"
       id="clipPath17">
      <path
         d="M 0,0 H 1416.6666 V 310.8298 H 0 Z"
         transform="matrix(0.33458825,0,0,0.33458825,-0.49999999,-0.49999999)"
         clip-rule="evenodd"
         id="path17" />
    </clipPath>
    <clipPath
       clipPathUnits="userSpaceOnUse"
       id="clipPath18">
      <path
         d="M 0,0 H 1416.6666 V 310.8298 H 0 Z"
         transform="matrix(0.33458489,0,0,0.33458489,-246.17188,-54)"
         clip-rule="evenodd"
         id="path18" />
    </clipPath>
    <clipPath
       clipPathUnits="userSpaceOnUse"
       id="clipPath19">
      <path
         d="M 0,0 H 1416.6666 V 310.8298 H 0 Z"
         transform="matrix(0.33458489,0,0,0.33458489,-259.57813,-72.000001)"
         clip-rule="evenodd"
         id="path19" />
    </clipPath>
    <clipPath
       clipPathUnits="userSpaceOnUse"
       id="clipPath20">
      <path
         d="M 0,0 H 1416.6666 V 310.8298 H 0 Z"
         transform="matrix(0.33458489,0,0,0.33458489,-299.29689,-90.000001)"
         clip-rule="evenodd"
         id="path20" />
    </clipPath>
  </defs>
  <sodipodi:namedview
     id="namedview1"
     pagecolor="#ffffff"
     bordercolor="#000000"
     borderopacity="0.25"
     inkscape:showpageshadow="2"
     inkscape:pageopacity="0.0"
     inkscape:pagecheckerboard="0"
     inkscape:deskcolor="#d1d1d1">
    <inkscape:page
       x="0"
       y="0"
       inkscape:label="1"
       id="page1"
       width="453.44"
       height="101.44"
       margin="0"
       bleed="0" />
  </sodipodi:namedview>
  <g
     id="g1"
     inkscape:groupmode="layer"
     inkscape:label="1">
    <path
       id="path1"
       d="M 0,0 H 474 V 105 H 0 Z"
       style="fill:#ffffff;fill-opacity:1;fill-rule:nonzero;stroke:none"
       transform="scale(0.95639935)"
       clip-path="url(#clipPath2)" />
    <path
       id="path3"
       d="m 181,66 h 53.63"
       style="fill:none;stroke:#000000;stroke-width:1;stroke-linecap:butt;stroke-linejoin:miter;stroke-miterlimit:10;stroke-dasharray:none;stroke-opacity:1"
       transform="matrix(0.95639935,0,0,0.95639935,0.47819967,0.47819967)"
       clip-path="url(#clipPath4)" />
    <path
       id="path5"
       d="m 239.88,66 -7,3.5 1.75,-3.5 -1.75,-3.5 z"
       style="fill:#000000;fill-opacity:1;fill-rule:nonzero;stroke:#000000;stroke-width:1;stroke-linecap:butt;stroke-linejoin:miter;stroke-miterlimit:10;stroke-dasharray:none;stroke-opacity:1"
       transform="matrix(0.95639935,0,0,0.95639935,0.47819967,0.47819967)"
       clip-path="url(#clipPath6)" />
    <path
       id="path7"
       d="m 1,31 h 180 v 70 H 1 Z"
       style="fill:#ffffff;fill-opacity:1;fill-rule:nonzero;stroke:#000000;stroke-width:1;stroke-linecap:butt;stroke-linejoin:miter;stroke-miterlimit:10;stroke-dasharray:none;stroke-opacity:1"
       transform="matrix(0.95639935,0,0,0.95639935,0.47819967,0.47819967)"
       clip-path="url(#clipPath8)" />
    <text
       id="text8"
       xml:space="preserve"
       transform="matrix(0.95640895,0,0,0.95640895,11.043535,68.861445)"
       clip-path="url(#clipPath9)"><tspan
         style="font-variant:normal;font-weight:normal;font-size:15px;font-family:Helvetica;writing-mode:lr-tb;fill:#000000;fill-opacity:1;fill-rule:nonzero;stroke:none"
         x="0 5.0097656 9.1772461 14.501953 26.99707 35.339355 42.839355 50.339355 58.681641 67.023926 75.366211 80.690918 84.858398 89.025879 94.350586 102.69287 106.02539 110.19287 114.36035 122.70264 131.04492 136.04004 144.38232 149.70703 153.87451"
         y="0"
         sodipodi:role="line"
         id="tspan8">{ &quot;message&quot;: &quot;hi there&quot; }</tspan></text>
    <path
       id="path10"
       d="M 1,1 H 181 V 31 H 1 Z"
       style="fill:#dae8fc;fill-opacity:1;fill-rule:nonzero;stroke:#6c8ebf;stroke-width:1;stroke-linecap:butt;stroke-linejoin:miter;stroke-miterlimit:10;stroke-dasharray:none;stroke-opacity:1"
       transform="matrix(0.95639935,0,0,0.95639935,0.47819967,0.47819967)"
       clip-path="url(#clipPath11)" />
    <text
       id="text11"
       xml:space="preserve"
       transform="matrix(0.95640895,0,0,0.95640895,58.729487,21.040997)"
       clip-path="url(#clipPath12)"><tspan
         style="font-variant:normal;font-weight:700;font-size:15px;font-family:Helvetica;writing-mode:lr-tb;fill:#000000;fill-opacity:1;fill-rule:nonzero;stroke:none"
         x="0 10.83252 19.174805 28.337402 37.5 45.842285 54.18457"
         y="0"
         sodipodi:role="line"
         id="tspan11">Request</tspan></text>
    <path
       id="path13"
       d="M 241,1 H 471 V 31 H 241 Z"
       style="fill:#dae8fc;fill-opacity:1;fill-rule:nonzero;stroke:#6c8ebf;stroke-width:1;stroke-linecap:butt;stroke-linejoin:miter;stroke-miterlimit:10;stroke-dasharray:none;stroke-opacity:1"
       transform="matrix(0.95639935,0,0,0.95639935,0.47819967,0.47819967)"
       clip-path="url(#clipPath14)" />
    <text
       id="text14"
       xml:space="preserve"
       transform="matrix(0.95640895,0,0,0.95640895,268.72103,21.040997)"
       clip-path="url(#clipPath15)"><tspan
         style="font-variant:normal;font-weight:700;font-size:15px;font-family:Helvetica;writing-mode:lr-tb;fill:#000000;fill-opacity:1;fill-rule:nonzero;stroke:none"
         x="0 8.3422852 17.504883 26.66748 39.162598 47.504883 55.847168 64.189453 72.531738 81.694336 90.036621 94.204102 105.03662 113.37891 122.5415 131.7041 135.87158 144.21387"
         y="0"
         sodipodi:role="line"
         id="tspan14">addMessage Handler</tspan></text>
    <path
       id="path16"
       d="m 241,31 h 230 v 70 H 241 Z"
       style="fill:#ffffff;fill-opacity:1;fill-rule:nonzero;stroke:#000000;stroke-width:1;stroke-linecap:butt;stroke-linejoin:miter;stroke-miterlimit:10;stroke-dasharray:none;stroke-opacity:1"
       transform="matrix(0.95639935,0,0,0.95639935,0.47819967,0.47819967)"
       clip-path="url(#clipPath17)" />
    <text
       id="text17"
       xml:space="preserve"
       transform="matrix(0.95640895,0,0,0.95640895,235.44099,51.646083)"
       clip-path="url(#clipPath18)"><tspan
         style="font-style:oblique;font-variant:normal;font-weight:normal;font-size:15px;font-family:Helvetica;writing-mode:lr-tb;fill:#000000;fill-opacity:1;fill-rule:nonzero;stroke:none"
         x="0 4.1674805 8.3349609 16.677246 25.019531 33.361816 36.225586 40.393066 44.560547 52.060547 60.402832 68.745117 79.577637 83.745117 94.577637 102.91992 111.26221 115.42969 119.59717 132.09229 140.43457 147.93457 155.43457 163.77686 172.11914 180.46143 184.62891 187.96143 195.46143 199.62891 203.79639 211.29639"
         y="0"
         sodipodi:role="line"
         id="tspan17">I don't know what message is, so</tspan></text>
    <text
       id="text18"
       xml:space="preserve"
       transform="matrix(0.95640895,0,0,0.95640895,248.26285,68.861445)"
       clip-path="url(#clipPath19)"><tspan
         style="font-style:oblique;font-variant:normal;font-weight:normal;font-size:15px;font-family:Helvetica;writing-mode:lr-tb;fill:#000000;fill-opacity:1;fill-rule:nonzero;stroke:none"
         x="0 4.1674805 7.03125 10.36377 13.696289 17.86377 30.358887 38.701172 43.696289 51.196289 55.36377 58.696289 62.86377 67.03125 75.373535 82.873535 87.041016 89.904785 98.24707 106.58936 114.08936 122.43164 130.77393 141.60645 149.94873 152.8125 156.97998 165.32227 173.66455 177.83203 181.16455 184.49707 188.66455"
         y="0"
         sodipodi:role="line"
         id="tspan18">I'll mark it as 'unknown' until I</tspan></text>
    <text
       id="text19"
       xml:space="preserve"
       transform="matrix(0.95640895,0,0,0.95640895,286.25022,86.076806)"
       clip-path="url(#clipPath20)"><tspan
         style="font-style:oblique;font-variant:normal;font-weight:normal;font-size:15px;font-family:Helvetica;writing-mode:lr-tb;fill:#000000;fill-opacity:1;fill-rule:nonzero;stroke:none"
         x="0 8.3422852 16.68457 25.026855 33.369141 38.364258 45.864258 50.031738 58.374023 66.716309 75.058594 79.226074 91.721191 100.06348 105.05859"
         y="0"
         sodipodi:role="line"
         id="tspan19">understand more</tspan></text>
  </g>
</svg>
