<?xml version="1.0" encoding="UTF-8" standalone="no"?>
<!-- Created with Inkscape (http://www.inkscape.org/) -->

<svg
   version="1.1"
   id="svg1"
   width="492.16"
   height="264"
   viewBox="0 0 492.16 264"
   sodipodi:docname="nest-2.pdf"
   xmlns:inkscape="http://www.inkscape.org/namespaces/inkscape"
   xmlns:sodipodi="http://sodipodi.sourceforge.net/DTD/sodipodi-0.dtd"
   xmlns="http://www.w3.org/2000/svg"
   xmlns:svg="http://www.w3.org/2000/svg">
  <defs
     id="defs1">
    <clipPath
       clipPathUnits="userSpaceOnUse"
       id="clipPath2">
      <path
         d="M 0,0 H 1537.5 V 822.59241 H 0 Z"
         transform="scale(0.33430896)"
         clip-rule="evenodd"
         id="path2" />
    </clipPath>
    <clipPath
       clipPathUnits="userSpaceOnUse"
       id="clipPath4">
      <path
         d="M 0,0 H 1537.5 V 819.60114 H 0 Z"
         transform="matrix(0.33430896,0,0,0.33430896,-0.50000001,-0.50000001)"
         clip-rule="evenodd"
         id="path4" />
    </clipPath>
    <clipPath
       clipPathUnits="userSpaceOnUse"
       id="clipPath5">
      <path
         d="M 0,0 H 1537.5 V 819.60114 H 0 Z"
         transform="matrix(0.3343056,0,0,0.3343056,-81.015625,-22)"
         clip-rule="evenodd"
         id="path5" />
    </clipPath>
    <clipPath
       clipPathUnits="userSpaceOnUse"
       id="clipPath7">
      <path
         d="M 0,0 H 1537.5 V 819.60114 H 0 Z"
         transform="matrix(0.33430896,0,0,0.33430896,-0.50000001,-0.50000001)"
         clip-rule="evenodd"
         id="path7" />
    </clipPath>
    <clipPath
       clipPathUnits="userSpaceOnUse"
       id="clipPath8">
      <path
         d="M 0,0 H 1537.5 V 819.60114 H 0 Z"
         transform="matrix(0.3343056,0,0,0.3343056,-344.5,-22)"
         clip-rule="evenodd"
         id="path8" />
    </clipPath>
    <clipPath
       clipPathUnits="userSpaceOnUse"
       id="clipPath10">
      <path
         d="M 0,0 H 1537.5 V 819.60114 H 0 Z"
         transform="matrix(0.33430896,0,0,0.33430896,-0.50000001,-0.50000001)"
         clip-rule="evenodd"
         id="path10" />
    </clipPath>
    <clipPath
       clipPathUnits="userSpaceOnUse"
       id="clipPath11">
      <path
         d="M 0,0 H 1537.5 V 819.60114 H 0 Z"
         transform="matrix(0.3343056,0,0,0.3343056,-10.921875,-131)"
         clip-rule="evenodd"
         id="path11" />
    </clipPath>
    <clipPath
       clipPathUnits="userSpaceOnUse"
       id="clipPath13">
      <path
         d="M 0,0 H 1537.5 V 819.60114 H 0 Z"
         transform="matrix(0.33430896,0,0,0.33430896,-0.50000001,-0.50000001)"
         clip-rule="evenodd"
         id="path13" />
    </clipPath>
    <clipPath
       clipPathUnits="userSpaceOnUse"
       id="clipPath14">
      <path
         d="M 0,0 H 1537.5 V 819.60114 H 0 Z"
         transform="matrix(0.3343056,0,0,0.3343056,-284.70313,-131)"
         clip-rule="evenodd"
         id="path14" />
    </clipPath>
    <clipPath
       clipPathUnits="userSpaceOnUse"
       id="clipPath16">
      <path
         d="M 0,0 H 1537.5 V 819.60114 H 0 Z"
         transform="matrix(0.33430896,0,0,0.33430896,-0.50000001,-0.50000001)"
         clip-rule="evenodd"
         id="path16" />
    </clipPath>
    <clipPath
       clipPathUnits="userSpaceOnUse"
       id="clipPath17">
      <path
         d="M 0,0 H 1537.5 V 819.60114 H 0 Z"
         transform="matrix(0.3343056,0,0,0.3343056,-14.453125,-183)"
         clip-rule="evenodd"
         id="path17" />
    </clipPath>
    <clipPath
       clipPathUnits="userSpaceOnUse"
       id="clipPath18">
      <path
         d="M 0,0 H 1537.5 V 819.60114 H 0 Z"
         transform="matrix(0.3343056,0,0,0.3343056,-63.46875,-200)"
         clip-rule="evenodd"
         id="path18" />
    </clipPath>
    <clipPath
       clipPathUnits="userSpaceOnUse"
       id="clipPath20">
      <path
         d="M 0,0 H 1537.5 V 819.60114 H 0 Z"
         transform="matrix(0.33430896,0,0,0.33430896,-0.50000001,-0.50000001)"
         clip-rule="evenodd"
         id="path20" />
    </clipPath>
    <clipPath
       clipPathUnits="userSpaceOnUse"
       id="clipPath21">
      <path
         d="M 0,0 H 1537.5 V 819.60114 H 0 Z"
         transform="matrix(0.3343056,0,0,0.3343056,-287.9375,-174)"
         clip-rule="evenodd"
         id="path21" />
    </clipPath>
    <clipPath
       clipPathUnits="userSpaceOnUse"
       id="clipPath22">
      <path
         d="M 0,0 H 1537.5 V 819.60114 H 0 Z"
         transform="matrix(0.3343056,0,0,0.3343056,-300.79688,-191)"
         clip-rule="evenodd"
         id="path22" />
    </clipPath>
    <clipPath
       clipPathUnits="userSpaceOnUse"
       id="clipPath23">
      <path
         d="M 0,0 H 1537.5 V 819.60114 H 0 Z"
         transform="matrix(0.3343056,0,0,0.3343056,-375.76563,-208)"
         clip-rule="evenodd"
         id="path23" />
    </clipPath>
    <clipPath
       clipPathUnits="userSpaceOnUse"
       id="clipPath25">
      <path
         d="M 0,0 H 1537.5 V 819.60114 H 0 Z"
         transform="matrix(0.33430896,0,0,0.33430896,-0.50000001,-0.50000001)"
         clip-rule="evenodd"
         id="path25" />
    </clipPath>
    <clipPath
       clipPathUnits="userSpaceOnUse"
       id="clipPath26">
      <path
         d="M 0,0 H 1537.5 V 819.60114 H 0 Z"
         transform="matrix(0.3343056,0,0,0.3343056,-84.875,-71)"
         clip-rule="evenodd"
         id="path26" />
    </clipPath>
    <clipPath
       clipPathUnits="userSpaceOnUse"
       id="clipPath28">
      <path
         d="M 0,0 H 1537.5 V 819.60114 H 0 Z"
         transform="matrix(0.33430896,0,0,0.33430896,-0.50000001,-0.50000001)"
         clip-rule="evenodd"
         id="path28" />
    </clipPath>
    <clipPath
       clipPathUnits="userSpaceOnUse"
       id="clipPath29">
      <path
         d="M 0,0 H 1537.5 V 819.60114 H 0 Z"
         transform="matrix(0.3343056,0,0,0.3343056,-364.875,-71)"
         clip-rule="evenodd"
         id="path29" />
    </clipPath>
    <clipPath
       clipPathUnits="userSpaceOnUse"
       id="clipPath31">
      <path
         d="M 0,0 H 1537.5 V 819.60114 H 0 Z"
         transform="matrix(0.33430896,0,0,0.33430896,-0.50000001,-0.50000001)"
         clip-rule="evenodd"
         id="path31" />
    </clipPath>
    <clipPath
       clipPathUnits="userSpaceOnUse"
       id="clipPath32">
      <path
         d="M 0,0 H 1537.5 V 819.60114 H 0 Z"
         transform="matrix(0.3343056,0,0,0.3343056,-76.28125,-256)"
         clip-rule="evenodd"
         id="path32" />
    </clipPath>
  </defs>
  <sodipodi:namedview
     id="namedview1"
     pagecolor="#ffffff"
     bordercolor="#000000"
     borderopacity="0.25"
     inkscape:showpageshadow="2"
     inkscape:pageopacity="0.0"
     inkscape:pagecheckerboard="0"
     inkscape:deskcolor="#d1d1d1">
    <inkscape:page
       x="0"
       y="0"
       inkscape:label="1"
       id="page1"
       width="492.16"
       height="264"
       margin="0"
       bleed="0" />
  </sodipodi:namedview>
  <g
     id="g1"
     inkscape:groupmode="layer"
     inkscape:label="1">
    <path
       id="path1"
       d="M 0,0 H 514 V 275 H 0 Z"
       style="fill:#ffffff;fill-opacity:1;fill-rule:nonzero;stroke:none"
       transform="scale(0.95719836)"
       clip-path="url(#clipPath2)" />
    <path
       id="path3"
       d="M 1,1 H 231 V 31 H 1 Z"
       style="fill:#dae8fc;fill-opacity:1;fill-rule:nonzero;stroke:#6c8ebf;stroke-width:1;stroke-linecap:butt;stroke-linejoin:miter;stroke-miterlimit:10;stroke-dasharray:none;stroke-opacity:1"
       transform="matrix(0.95719836,0,0,0.95719836,0.47859919,0.47859919)"
       clip-path="url(#clipPath4)" />
    <text
       id="text4"
       xml:space="preserve"
       transform="matrix(0.95720799,0,0,0.95720799,77.548804,21.058576)"
       clip-path="url(#clipPath5)"><tspan
         style="font-variant:normal;font-weight:700;font-size:17px;font-family:Helvetica;writing-mode:lr-tb;fill:#000000;fill-opacity:1;fill-rule:nonzero;stroke:none"
         x="0 11.338867 20.793457 27.40918 36.86377 41.586914 51.041504 60.496094"
         y="0"
         sodipodi:role="line"
         id="tspan4">Services</tspan></text>
    <path
       id="path6"
       d="M 281,1 H 511 V 31 H 281 Z"
       style="fill:#dae8fc;fill-opacity:1;fill-rule:nonzero;stroke:#6c8ebf;stroke-width:1;stroke-linecap:butt;stroke-linejoin:miter;stroke-miterlimit:10;stroke-dasharray:none;stroke-opacity:1"
       transform="matrix(0.95719836,0,0,0.95719836,0.47859919,0.47859919)"
       clip-path="url(#clipPath7)" />
    <text
       id="text7"
       xml:space="preserve"
       transform="matrix(0.95720799,0,0,0.95720799,329.75815,21.058576)"
       clip-path="url(#clipPath8)"><tspan
         style="font-variant:normal;font-weight:700;font-size:17px;font-family:Helvetica;writing-mode:lr-tb;fill:#000000;fill-opacity:1;fill-rule:nonzero;stroke:none"
         x="0 12.276855 21.731445 32.115723 42.5 51.95459 56.677734 62.338867 72.723145 79.338867 84.062012 93.516602"
         y="0"
         sodipodi:role="line"
         id="tspan7">Repositories</tspan></text>
    <path
       id="path9"
       d="m 1,101 h 230 v 50 H 1 Z"
       style="fill:#ffffff;fill-opacity:1;fill-rule:nonzero;stroke:#000000;stroke-width:1;stroke-linecap:butt;stroke-linejoin:miter;stroke-miterlimit:10;stroke-dasharray:none;stroke-opacity:1"
       transform="matrix(0.95719836,0,0,0.95719836,0.47859919,0.47859919)"
       clip-path="url(#clipPath10)" />
    <text
       id="text10"
       xml:space="preserve"
       transform="matrix(0.95720799,0,0,0.95720799,10.454506,125.39425)"
       clip-path="url(#clipPath11)"><tspan
         style="font-variant:normal;font-weight:normal;font-size:14px;font-family:Helvetica;writing-mode:lr-tb;fill:#000000;fill-opacity:1;fill-rule:nonzero;stroke:none"
         x="0 7.7861328 15.572266 19.461914 27.248047 30.358398 38.144531 45.144531 52.930664 56.820312 60.709961 68.496094 72.385742 80.171875 87.958008 91.847656 95.737305 103.52344 111.30957 118.30957 122.19922 129.98535 137.77148 144.77148 147.88184 155.66797 163.4541 170.4541 177.4541 181.34375 184.4541 192.24023 200.02637 203.13672"
         y="0"
         sodipodi:role="line"
         id="tspan10">#1 place to put any business logic</tspan></text>
    <path
       id="path12"
       d="m 281,101 h 230 v 50 H 281 Z"
       style="fill:#ffffff;fill-opacity:1;fill-rule:nonzero;stroke:#000000;stroke-width:1;stroke-linecap:butt;stroke-linejoin:miter;stroke-miterlimit:10;stroke-dasharray:none;stroke-opacity:1"
       transform="matrix(0.95719836,0,0,0.95719836,0.47859919,0.47859919)"
       clip-path="url(#clipPath13)" />
    <text
       id="text13"
       xml:space="preserve"
       transform="matrix(0.95720799,0,0,0.95720799,272.52011,125.39425)"
       clip-path="url(#clipPath14)"><tspan
         style="font-variant:normal;font-weight:normal;font-size:14px;font-family:Helvetica;writing-mode:lr-tb;fill:#000000;fill-opacity:1;fill-rule:nonzero;stroke:none"
         x="0 7.7861328 15.572266 19.461914 27.248047 30.358398 38.144531 45.144531 52.930664 56.820312 60.709961 68.496094 72.385742 80.171875 87.958008 91.847656 95.737305 102.7373 106.62695 114.41309 119.0752 126.86133 134.64746 142.43359 147.0957 151.75781 159.54395 162.6543 170.44043 174.33008 182.11621 189.90234 193.79199 196.90234 204.68848 212.47461 215.58496"
         y="0"
         sodipodi:role="line"
         id="tspan13">#1 place to put storage-related logic</tspan></text>
    <path
       id="path15"
       d="m 1,161 h 230 v 50 H 1 Z"
       style="fill:#ffffff;fill-opacity:1;fill-rule:nonzero;stroke:#000000;stroke-width:1;stroke-linecap:butt;stroke-linejoin:miter;stroke-miterlimit:10;stroke-dasharray:none;stroke-opacity:1"
       transform="matrix(0.95719836,0,0,0.95719836,0.47859919,0.47859919)"
       clip-path="url(#clipPath16)" />
    <text
       id="text16"
       xml:space="preserve"
       transform="matrix(0.95720799,0,0,0.95720799,13.834647,175.16906)"
       clip-path="url(#clipPath17)"><tspan
         style="font-variant:normal;font-weight:normal;font-size:14px;font-family:Helvetica;writing-mode:lr-tb;fill:#000000;fill-opacity:1;fill-rule:nonzero;stroke:none"
         x="0 10.110352 17.110352 24.896484 31.896484 35.786133 43.572266 51.358398 59.144531 63.03418 70.820312 75.482422 79.37207 91.03418 98.820312 103.48242 111.26855 115.1582 119.82031 127.60645 135.39258 143.17871 150.17871 153.28906 157.17871 164.96484 169.62695 172.7373 180.52344 187.52344 191.41309 195.30273"
         y="0"
         sodipodi:role="line"
         id="tspan16">Uses one or more repositories to</tspan></text>
    <g
       id="g17" />
    <text
       id="text17"
       xml:space="preserve"
       transform="matrix(0.95720799,0,0,0.95720799,60.752795,191.4416)"
       clip-path="url(#clipPath18)"><tspan
         style="font-variant:normal;font-weight:normal;font-size:14px;font-family:Helvetica;writing-mode:lr-tb;fill:#000000;fill-opacity:1;fill-rule:nonzero;stroke:none"
         x="0 7 14.786133 22.572266 26.461914 34.248047 38.910156 42.799805 49.799805 53.689453 61.475586 66.137695 73.923828 77.813477 85.599609 93.385742 97.275391"
         y="0"
         sodipodi:role="line"
         id="tspan17">ﬁnd or store data</tspan></text>
    <path
       id="path19"
       d="m 281,161 h 230 v 50 H 281 Z"
       style="fill:#ffffff;fill-opacity:1;fill-rule:nonzero;stroke:#000000;stroke-width:1;stroke-linecap:butt;stroke-linejoin:miter;stroke-miterlimit:10;stroke-dasharray:none;stroke-opacity:1"
       transform="matrix(0.95719836,0,0,0.95719836,0.47859919,0.47859919)"
       clip-path="url(#clipPath20)" />
    <text
       id="text20"
       xml:space="preserve"
       transform="matrix(0.95720799,0,0,0.95720799,275.61608,166.55419)"
       clip-path="url(#clipPath21)"><tspan
         style="font-variant:normal;font-weight:normal;font-size:14px;font-family:Helvetica;writing-mode:lr-tb;fill:#000000;fill-opacity:1;fill-rule:nonzero;stroke:none"
         x="0 10.110352 17.110352 24.896484 32.682617 35.792969 38.90332 45.90332 49.792969 57.579102 65.365234 73.151367 80.151367 84.041016 91.827148 99.613281 103.50293 111.28906 119.0752 122.18555 129.97168 137.75781 141.64746 149.43359 153.07715 160.86328 167.86328 175.64941 183.43555 194.3252 204.43555"
         y="0"
         sodipodi:role="line"
         id="tspan20">Usually ends up being a TypeORM</tspan></text>
    <text
       id="text21"
       xml:space="preserve"
       transform="matrix(0.95720799,0,0,0.95720799,287.92518,182.82673)"
       clip-path="url(#clipPath22)"><tspan
         style="font-variant:normal;font-weight:normal;font-size:14px;font-family:Helvetica;writing-mode:lr-tb;fill:#000000;fill-opacity:1;fill-rule:nonzero;stroke:none"
         x="0 7.7861328 15.572266 19.461914 22.572266 26.461914 32.429688 36.319336 40.208984 47.995117 51.884766 63.546875 71.333008 79.119141 86.905273 94.691406 102.47754 109.47754 117.26367 121.15332 128.15332 135.15332 142.93945 150.72559 162.3877 170.17383 174.06348 177.95312 185.73926"
         y="0"
         sodipodi:role="line"
         id="tspan21">entity, a Mongoose schema, or</tspan></text>
    <text
       id="text22"
       xml:space="preserve"
       transform="matrix(0.95720799,0,0,0.95720799,359.68586,199.09926)"
       clip-path="url(#clipPath23)"><tspan
         style="font-variant:normal;font-weight:normal;font-size:14px;font-family:Helvetica;writing-mode:lr-tb;fill:#000000;fill-opacity:1;fill-rule:nonzero;stroke:none"
         x="0 7 10.110352 21.772461 24.882812 27.993164 35.779297"
         y="0"
         sodipodi:role="line"
         id="tspan22">similar</tspan></text>
    <path
       id="path24"
       d="M 1,41 H 231 V 91 H 1 Z"
       style="fill:#ffffff;fill-opacity:1;fill-rule:nonzero;stroke:#000000;stroke-width:1;stroke-linecap:butt;stroke-linejoin:miter;stroke-miterlimit:10;stroke-dasharray:none;stroke-opacity:1"
       transform="matrix(0.95719836,0,0,0.95719836,0.47859919,0.47859919)"
       clip-path="url(#clipPath25)" />
    <text
       id="text25"
       xml:space="preserve"
       transform="matrix(0.95720799,0,0,0.95720799,81.243028,67.961767)"
       clip-path="url(#clipPath26)"><tspan
         style="font-variant:normal;font-weight:normal;font-size:14px;font-family:Helvetica;writing-mode:lr-tb;fill:#000000;fill-opacity:1;fill-rule:nonzero;stroke:none"
         x="0 3.8896484 7.7792969 14.779297 18.668945 26.455078 30.344727 37.344727 40.455078 48.241211 55.241211"
         y="0"
         sodipodi:role="line"
         id="tspan25">Its a class</tspan></text>
    <path
       id="path27"
       d="M 281,41 H 511 V 91 H 281 Z"
       style="fill:#ffffff;fill-opacity:1;fill-rule:nonzero;stroke:#000000;stroke-width:1;stroke-linecap:butt;stroke-linejoin:miter;stroke-miterlimit:10;stroke-dasharray:none;stroke-opacity:1"
       transform="matrix(0.95719836,0,0,0.95719836,0.47859919,0.47859919)"
       clip-path="url(#clipPath28)" />
    <text
       id="text28"
       xml:space="preserve"
       transform="matrix(0.95720799,0,0,0.95720799,349.26127,67.961767)"
       clip-path="url(#clipPath29)"><tspan
         style="font-variant:normal;font-weight:normal;font-size:14px;font-family:Helvetica;writing-mode:lr-tb;fill:#000000;fill-opacity:1;fill-rule:nonzero;stroke:none"
         x="0 3.8896484 7.7792969 14.779297 18.668945 26.455078 30.344727 37.344727 40.455078 48.241211 55.241211"
         y="0"
         sodipodi:role="line"
         id="tspan28">Its a class</tspan></text>
    <path
       id="path30"
       d="m 1,231 h 510.01001 v 40 H 1 Z"
       style="fill:#fff2cc;fill-opacity:1;fill-rule:nonzero;stroke:#d6b656;stroke-width:1;stroke-linecap:butt;stroke-linejoin:miter;stroke-miterlimit:10;stroke-dasharray:none;stroke-opacity:1"
       transform="matrix(0.95719836,0,0,0.95719836,0.47859919,0.47859919)"
       clip-path="url(#clipPath31)" />
    <text
       id="text31"
       xml:space="preserve"
       transform="matrix(0.95720799,0,0,0.95720799,73.017022,245.04525)"
       clip-path="url(#clipPath32)"><tspan
         style="font-variant:normal;font-weight:700;font-size:14px;font-family:Helvetica;writing-mode:lr-tb;fill:#000000;fill-opacity:1;fill-rule:nonzero;stroke:none"
         x="0 8.5517578 14 21.786133 30.337891 38.889648 46.675781 55.227539 59.889648 63.779297 71.56543 75.455078 83.241211 91.792969 100.34473 104.23438 112.78613 121.33789 125.22754 133.7793 141.56543 149.35156 153.24121 161.79297 170.34473 174.23438 182.02051 189.80664 195.25488 203.04102 206.93066 214.7168 218.60645 231.05469 234.94434 238.83398 246.62012 252.06836 255.95801 268.40625 276.19238 280.85449 289.40625 297.95801 306.50977 310.39941 318.95117 326.7373 339.18555 346.97168 354.75781"
         y="0"
         sodipodi:role="line"
         id="tspan31">Frequently end up having very similar method names!</tspan></text>
  </g>
</svg>
