<?xml version="1.0" encoding="UTF-8" standalone="no"?>
<!-- Created with Inkscape (http://www.inkscape.org/) -->

<svg
   version="1.1"
   id="svg1"
   width="318.72"
   height="264"
   viewBox="0 0 318.72 264"
   sodipodi:docname="nest-9.pdf"
   xmlns:inkscape="http://www.inkscape.org/namespaces/inkscape"
   xmlns:sodipodi="http://sodipodi.sourceforge.net/DTD/sodipodi-0.dtd"
   xmlns="http://www.w3.org/2000/svg"
   xmlns:svg="http://www.w3.org/2000/svg">
  <defs
     id="defs1">
    <clipPath
       clipPathUnits="userSpaceOnUse"
       id="clipPath2">
      <path
         d="M 0,0 H 995.83325 V 822.90411 H 0 Z"
         transform="scale(0.33539753)"
         clip-rule="evenodd"
         id="path2" />
    </clipPath>
    <clipPath
       clipPathUnits="userSpaceOnUse"
       id="clipPath4">
      <path
         d="M 0,0 H 995.83325 V 816.94104 H 0 Z"
         transform="matrix(0.33539753,0,0,0.33539753,-0.50000001,-0.50000001)"
         clip-rule="evenodd"
         id="path4" />
    </clipPath>
    <clipPath
       clipPathUnits="userSpaceOnUse"
       id="clipPath5">
      <path
         d="M 0,0 H 995.83325 V 816.94104 H 0 Z"
         transform="matrix(0.33539417,0,0,0.33539417,-55.468749,-28)"
         clip-rule="evenodd"
         id="path5" />
    </clipPath>
    <clipPath
       clipPathUnits="userSpaceOnUse"
       id="clipPath7">
      <path
         d="M 0,0 H 995.83325 V 816.94104 H 0 Z"
         transform="matrix(0.33539753,0,0,0.33539753,-0.50000001,-0.50000001)"
         clip-rule="evenodd"
         id="path7" />
    </clipPath>
    <clipPath
       clipPathUnits="userSpaceOnUse"
       id="clipPath9">
      <path
         d="M 0,0 H 995.83325 V 816.94104 H 0 Z"
         transform="matrix(0.33539753,0,0,0.33539753,-0.50000001,-0.50000001)"
         clip-rule="evenodd"
         id="path9" />
    </clipPath>
    <clipPath
       clipPathUnits="userSpaceOnUse"
       id="clipPath10">
      <path
         d="M 0,0 H 995.83325 V 816.94104 H 0 Z"
         transform="matrix(0.33539417,0,0,0.33539417,-47.312499,-66)"
         clip-rule="evenodd"
         id="path10" />
    </clipPath>
    <clipPath
       clipPathUnits="userSpaceOnUse"
       id="clipPath12">
      <path
         d="M 0,0 H 995.83325 V 816.94104 H 0 Z"
         transform="matrix(0.33539753,0,0,0.33539753,-0.50000001,-0.50000001)"
         clip-rule="evenodd"
         id="path12" />
    </clipPath>
    <clipPath
       clipPathUnits="userSpaceOnUse"
       id="clipPath14">
      <path
         d="M 0,0 H 995.83325 V 816.94104 H 0 Z"
         transform="matrix(0.33539753,0,0,0.33539753,-0.50000001,-0.50000001)"
         clip-rule="evenodd"
         id="path14" />
    </clipPath>
    <clipPath
       clipPathUnits="userSpaceOnUse"
       id="clipPath15">
      <path
         d="M 0,0 H 995.83325 V 816.94104 H 0 Z"
         transform="matrix(0.33539417,0,0,0.33539417,-55.875,-176)"
         clip-rule="evenodd"
         id="path15" />
    </clipPath>
    <clipPath
       clipPathUnits="userSpaceOnUse"
       id="clipPath17">
      <path
         d="M 0,0 H 995.83325 V 816.94104 H 0 Z"
         transform="matrix(0.33539753,0,0,0.33539753,-0.50000001,-0.50000001)"
         clip-rule="evenodd"
         id="path17" />
    </clipPath>
  </defs>
  <sodipodi:namedview
     id="namedview1"
     pagecolor="#ffffff"
     bordercolor="#000000"
     borderopacity="0.25"
     inkscape:showpageshadow="2"
     inkscape:pageopacity="0.0"
     inkscape:pagecheckerboard="0"
     inkscape:deskcolor="#d1d1d1">
    <inkscape:page
       x="0"
       y="0"
       inkscape:label="1"
       id="page1"
       width="318.72"
       height="264"
       margin="0"
       bleed="0" />
  </sodipodi:namedview>
  <g
     id="g1"
     inkscape:groupmode="layer"
     inkscape:label="1">
    <path
       id="path1"
       d="M 0,0 H 334 V 276 H 0 Z"
       style="fill:#ffffff;fill-opacity:1;fill-rule:nonzero;stroke:none"
       transform="scale(0.95409167)"
       clip-path="url(#clipPath2)" />
    <path
       id="path3"
       d="M 1,1 H 331 V 41 H 1 Z"
       style="fill:#dae8fc;fill-opacity:1;fill-rule:nonzero;stroke:#6c8ebf;stroke-width:1;stroke-linecap:butt;stroke-linejoin:miter;stroke-miterlimit:10;stroke-dasharray:none;stroke-opacity:1"
       transform="matrix(0.95409167,0,0,0.95409167,0.47704584,0.47704584)"
       clip-path="url(#clipPath4)" />
    <text
       id="text4"
       xml:space="preserve"
       transform="matrix(0.95410121,0,0,0.95410121,52.922801,26.714834)"
       clip-path="url(#clipPath5)"><tspan
         style="font-variant:normal;font-weight:700;font-size:18px;font-family:Helvetica;writing-mode:lr-tb;fill:#000000;fill-opacity:1;fill-rule:nonzero;stroke:none"
         x="0 12.999023 23.009766 33.020508 39.014648 44.015625 57.014648 62.015625 67.016602 80.015625 91.010742 102.00586 108 118.01074 123.01172 134.00684 144.01758 151.02246 156.02344 161.02441 172.01953 177.02051 187.03125 197.04199 203.03613 214.03125"
         y="0"
         sodipodi:role="line"
         id="tspan4">Nest DI Container/Injector</tspan></text>
    <path
       id="path6"
       d="M 1,41 H 331 V 271 H 1 Z"
       style="fill:#dae8fc;fill-opacity:1;fill-rule:nonzero;stroke:#6c8ebf;stroke-width:1;stroke-linecap:butt;stroke-linejoin:miter;stroke-miterlimit:10;stroke-dasharray:none;stroke-opacity:1"
       transform="matrix(0.95409167,0,0,0.95409167,0.47704584,0.47704584)"
       clip-path="url(#clipPath7)" />
    <path
       id="path8"
       d="M 21,51 H 311 V 71 H 21 Z"
       style="fill:#f5f5f5;fill-opacity:1;fill-rule:nonzero;stroke:#666666;stroke-width:1;stroke-linecap:butt;stroke-linejoin:miter;stroke-miterlimit:10;stroke-dasharray:none;stroke-opacity:1"
       transform="matrix(0.95409167,0,0,0.95409167,0.47704584,0.47704584)"
       clip-path="url(#clipPath9)" />
    <text
       id="text9"
       xml:space="preserve"
       transform="matrix(0.95410121,0,0,0.95410121,45.140913,62.97068)"
       clip-path="url(#clipPath10)"><tspan
         style="font-variant:normal;font-weight:normal;font-size:14px;font-family:Helvetica;writing-mode:lr-tb;fill:#333333;fill-opacity:1;fill-rule:nonzero;stroke:none"
         x="0 7.7861328 10.896484 17.896484 21.786133 25.675781 33.461914 37.351562 41.241211 48.241211 51.351562 59.137695 66.137695 73.137695 80.923828 87.923828 91.813477 99.599609 107.38574 115.17188 119.06152 122.95117 130.7373 138.52344 141.63379 146.2959 150.18555 157.97168 165.75781 173.54395 181.33008 189.11621 196.90234 204.68848 212.47461 219.47461 222.58496 230.37109"
         y="0"
         sodipodi:role="line"
         id="tspan9">List of classes and their dependencies</tspan></text>
    <path
       id="path11"
       d="m 21,71 h 290 v 80 H 21 Z"
       style="fill:#f5f5f5;fill-opacity:1;fill-rule:nonzero;stroke:#666666;stroke-width:1;stroke-linecap:butt;stroke-linejoin:miter;stroke-miterlimit:10;stroke-dasharray:none;stroke-opacity:1"
       transform="matrix(0.95409167,0,0,0.95409167,0.47704584,0.47704584)"
       clip-path="url(#clipPath12)" />
    <path
       id="path13"
       d="m 21,161 h 290 v 20 H 21 Z"
       style="fill:#f5f5f5;fill-opacity:1;fill-rule:nonzero;stroke:#666666;stroke-width:1;stroke-linecap:butt;stroke-linejoin:miter;stroke-miterlimit:10;stroke-dasharray:none;stroke-opacity:1"
       transform="matrix(0.95409167,0,0,0.95409167,0.47704584,0.47704584)"
       clip-path="url(#clipPath14)" />
    <text
       id="text14"
       xml:space="preserve"
       transform="matrix(0.95410121,0,0,0.95410121,53.310405,167.92181)"
       clip-path="url(#clipPath15)"><tspan
         style="font-variant:normal;font-weight:normal;font-size:14px;font-family:Helvetica;writing-mode:lr-tb;fill:#333333;fill-opacity:1;fill-rule:nonzero;stroke:none"
         x="0 7.7861328 10.896484 17.896484 21.786133 25.675781 33.461914 37.351562 41.241211 44.351562 52.137695 59.137695 63.027344 70.813477 78.599609 85.599609 93.385742 100.38574 104.27539 108.16504 115.95117 123.7373 127.62695 131.5166 135.40625 139.2959 147.08203 154.86816 161.86816 169.6543 173.54395 180.54395 185.20605 192.99219 200.77832 204.66797 212.4541"
         y="0"
         sodipodi:role="line"
         id="tspan14">List of instances that I have created</tspan></text>
    <path
       id="path16"
       d="m 21,181 h 290 v 80 H 21 Z"
       style="fill:#f5f5f5;fill-opacity:1;fill-rule:nonzero;stroke:#666666;stroke-width:1;stroke-linecap:butt;stroke-linejoin:miter;stroke-miterlimit:10;stroke-dasharray:none;stroke-opacity:1"
       transform="matrix(0.95409167,0,0,0.95409167,0.47704584,0.47704584)"
       clip-path="url(#clipPath17)" />
  </g>
</svg>
