<?xml version="1.0" encoding="UTF-8" standalone="no"?>
<!-- Created with Inkscape (http://www.inkscape.org/) -->

<svg
   version="1.1"
   id="svg1"
   width="414.71997"
   height="138.56"
   viewBox="0 0 414.71997 138.56"
   sodipodi:docname="nest-1.pdf"
   xmlns:inkscape="http://www.inkscape.org/namespaces/inkscape"
   xmlns:sodipodi="http://sodipodi.sourceforge.net/DTD/sodipodi-0.dtd"
   xmlns="http://www.w3.org/2000/svg"
   xmlns:svg="http://www.w3.org/2000/svg">
  <defs
     id="defs1">
    <clipPath
       clipPathUnits="userSpaceOnUse"
       id="clipPath2">
      <path
         d="M 0,0 H 1295.8333 V 432.9397 H 0 Z"
         transform="scale(0.33491962)"
         clip-rule="evenodd"
         id="path2" />
    </clipPath>
    <clipPath
       clipPathUnits="userSpaceOnUse"
       id="clipPath4">
      <path
         d="M 0,0 H 1295.8333 V 429.95389 H 0 Z"
         transform="matrix(0.33491962,0,0,0.33491962,-0.49999999,-0.49999999)"
         clip-rule="evenodd"
         id="path4" />
    </clipPath>
    <clipPath
       clipPathUnits="userSpaceOnUse"
       id="clipPath6">
      <path
         d="M 0,0 H 1295.8333 V 429.95389 H 0 Z"
         transform="matrix(0.33491962,0,0,0.33491962,-0.49999999,-0.49999999)"
         clip-rule="evenodd"
         id="path6" />
    </clipPath>
    <clipPath
       clipPathUnits="userSpaceOnUse"
       id="clipPath8">
      <path
         d="M 0,0 H 1295.8333 V 429.95389 H 0 Z"
         transform="matrix(0.33491962,0,0,0.33491962,-0.49999999,-0.49999999)"
         clip-rule="evenodd"
         id="path8" />
    </clipPath>
    <clipPath
       clipPathUnits="userSpaceOnUse"
       id="clipPath9">
      <path
         d="M 0,0 H 1295.8333 V 429.95389 H 0 Z"
         transform="matrix(0.33491628,0,0,0.33491628,-8.4999999,-37)"
         clip-rule="evenodd"
         id="path9" />
    </clipPath>
    <clipPath
       clipPathUnits="userSpaceOnUse"
       id="clipPath11">
      <path
         d="M 0,0 H 1295.8333 V 429.95389 H 0 Z"
         transform="matrix(0.33491962,0,0,0.33491962,-0.49999999,-0.49999999)"
         clip-rule="evenodd"
         id="path11" />
    </clipPath>
    <clipPath
       clipPathUnits="userSpaceOnUse"
       id="clipPath12">
      <path
         d="M 0,0 H 1295.8333 V 429.95389 H 0 Z"
         transform="matrix(0.33491628,0,0,0.33491628,-173.01563,-37)"
         clip-rule="evenodd"
         id="path12" />
    </clipPath>
    <clipPath
       clipPathUnits="userSpaceOnUse"
       id="clipPath13">
      <path
         d="M 0,0 H 1295.8333 V 429.95389 H 0 Z"
         transform="matrix(0.33491628,0,0,0.33491628,-244.73438,-37)"
         clip-rule="evenodd"
         id="path13" />
    </clipPath>
    <clipPath
       clipPathUnits="userSpaceOnUse"
       id="clipPath14">
      <path
         d="M 0,0 H 1295.8333 V 429.95389 H 0 Z"
         transform="matrix(0.33491628,0,0,0.33491628,-274.73438,-37)"
         clip-rule="evenodd"
         id="path14" />
    </clipPath>
    <clipPath
       clipPathUnits="userSpaceOnUse"
       id="clipPath16">
      <path
         d="M 0,0 H 1295.8333 V 429.95389 H 0 Z"
         transform="matrix(0.33491962,0,0,0.33491962,-0.49999999,-0.49999999)"
         clip-rule="evenodd"
         id="path16" />
    </clipPath>
    <clipPath
       clipPathUnits="userSpaceOnUse"
       id="clipPath18">
      <path
         d="M 0,0 H 1295.8333 V 429.95389 H 0 Z"
         transform="matrix(0.33491962,0,0,0.33491962,-0.49999999,-0.49999999)"
         clip-rule="evenodd"
         id="path18" />
    </clipPath>
    <clipPath
       clipPathUnits="userSpaceOnUse"
       id="clipPath20">
      <path
         d="M 0,0 H 1295.8333 V 429.95389 H 0 Z"
         transform="matrix(0.33491962,0,0,0.33491962,-0.49999999,-0.49999999)"
         clip-rule="evenodd"
         id="path20" />
    </clipPath>
    <clipPath
       clipPathUnits="userSpaceOnUse"
       id="clipPath21">
      <path
         d="M 0,0 H 1295.8333 V 429.95389 H 0 Z"
         transform="matrix(0.33491628,0,0,0.33491628,-12.671875,-117)"
         clip-rule="evenodd"
         id="path21" />
    </clipPath>
    <clipPath
       clipPathUnits="userSpaceOnUse"
       id="clipPath23">
      <path
         d="M 0,0 H 1295.8333 V 429.95389 H 0 Z"
         transform="matrix(0.33491962,0,0,0.33491962,-0.49999999,-0.49999999)"
         clip-rule="evenodd"
         id="path23" />
    </clipPath>
    <clipPath
       clipPathUnits="userSpaceOnUse"
       id="clipPath24">
      <path
         d="M 0,0 H 1295.8333 V 429.95389 H 0 Z"
         transform="matrix(0.33491628,0,0,0.33491628,-175.09375,-108)"
         clip-rule="evenodd"
         id="path24" />
    </clipPath>
    <clipPath
       clipPathUnits="userSpaceOnUse"
       id="clipPath25">
      <path
         d="M 0,0 H 1295.8333 V 429.95389 H 0 Z"
         transform="matrix(0.33491628,0,0,0.33491628,-196.35938,-126)"
         clip-rule="evenodd"
         id="path25" />
    </clipPath>
  </defs>
  <sodipodi:namedview
     id="namedview1"
     pagecolor="#ffffff"
     bordercolor="#000000"
     borderopacity="0.25"
     inkscape:showpageshadow="2"
     inkscape:pageopacity="0.0"
     inkscape:pagecheckerboard="0"
     inkscape:deskcolor="#d1d1d1">
    <inkscape:page
       x="0"
       y="0"
       inkscape:label="1"
       id="page1"
       width="414.71997"
       height="138.56"
       margin="0"
       bleed="0" />
  </sodipodi:namedview>
  <g
     id="g1"
     inkscape:groupmode="layer"
     inkscape:label="1">
    <path
       id="path1"
       d="M 0,0 H 434 V 145 H 0 Z"
       style="fill:#ffffff;fill-opacity:1;fill-rule:nonzero;stroke:none"
       transform="scale(0.95545308)"
       clip-path="url(#clipPath2)" />
    <path
       id="path3"
       d="m 121,31 h 20 -10 13.63"
       style="fill:none;stroke:#000000;stroke-width:1;stroke-linecap:butt;stroke-linejoin:miter;stroke-miterlimit:10;stroke-dasharray:none;stroke-opacity:1"
       transform="matrix(0.95545308,0,0,0.95545308,0.47772653,0.47772653)"
       clip-path="url(#clipPath4)" />
    <path
       id="path5"
       d="m 149.88,31 -7,3.5 1.75,-3.5 -1.75,-3.5 z"
       style="fill:#000000;fill-opacity:1;fill-rule:nonzero;stroke:#000000;stroke-width:1;stroke-linecap:butt;stroke-linejoin:miter;stroke-miterlimit:10;stroke-dasharray:none;stroke-opacity:1"
       transform="matrix(0.95545308,0,0,0.95545308,0.47772653,0.47772653)"
       clip-path="url(#clipPath6)" />
    <path
       id="path7"
       d="M 1,1 H 121 V 61 H 1 Z"
       style="fill:#dae8fc;fill-opacity:1;fill-rule:nonzero;stroke:#6c8ebf;stroke-width:1;stroke-linecap:butt;stroke-linejoin:miter;stroke-miterlimit:10;stroke-dasharray:none;stroke-opacity:1"
       transform="matrix(0.95545308,0,0,0.95545308,0.47772653,0.47772653)"
       clip-path="url(#clipPath8)" />
    <text
       id="text8"
       xml:space="preserve"
       transform="matrix(0.95546262,0,0,0.95546262,8.1214322,35.352117)"
       clip-path="url(#clipPath9)"><tspan
         style="font-variant:normal;font-weight:700;font-size:15px;font-family:Helvetica;writing-mode:lr-tb;fill:#000000;fill-opacity:1;fill-rule:nonzero;stroke:none"
         x="0 10.83252 19.995117 24.990234 34.152832 42.495117 51.657715 56.652832 60.820312 69.162598 77.504883 82.5 86.66748 95.830078"
         y="0"
         sodipodi:role="line"
         id="tspan8">Authentication</tspan></text>
    <path
       id="path10"
       d="M 151,1 H 431 V 61 H 151 Z"
       style="fill:#f5f5f5;fill-opacity:1;fill-rule:nonzero;stroke:#666666;stroke-width:1;stroke-linecap:butt;stroke-linejoin:miter;stroke-miterlimit:10;stroke-dasharray:none;stroke-opacity:1"
       transform="matrix(0.95545308,0,0,0.95545308,0.47772653,0.47772653)"
       clip-path="url(#clipPath11)" />
    <text
       id="text11"
       xml:space="preserve"
       transform="matrix(0.95546262,0,0,0.95546262,165.30997,35.352117)"
       clip-path="url(#clipPath12)"><tspan
         style="font-variant:normal;font-weight:normal;font-size:15px;font-family:Helvetica;writing-mode:lr-tb;fill:#333333;fill-opacity:1;fill-rule:nonzero;stroke:none"
         x="0 9.1625977 12.495117 20.837402 29.179688 34.174805 42.51709 46.68457 55.026855 63.369141 67.536621"
         y="0"
         sodipodi:role="line"
         id="tspan11">Figure out </tspan></text>
    <text
       id="text12"
       xml:space="preserve"
       transform="matrix(0.95546262,0,0,0.95546262,233.83455,35.352117)"
       clip-path="url(#clipPath13)"><tspan
         style="font-variant:normal;font-weight:700;font-size:15px;font-family:Helvetica;writing-mode:lr-tb;fill:#333333;fill-opacity:1;fill-rule:nonzero;stroke:none"
         x="0 11.66748 20.830078"
         y="0"
         sodipodi:role="line"
         id="tspan12">who</tspan></text>
    <text
       id="text13"
       xml:space="preserve"
       transform="matrix(0.95546262,0,0,0.95546262,262.49843,35.352117)"
       clip-path="url(#clipPath14)"><tspan
         style="font-variant:normal;font-weight:normal;font-size:15px;font-family:Helvetica;writing-mode:lr-tb;fill:#333333;fill-opacity:1;fill-rule:nonzero;stroke:none"
         x="0 4.1674805 7.5 15 19.16748 31.662598 40.004883 47.504883 50.837402 59.179688 67.521973 71.689453 80.031738 84.199219 89.194336 97.536621 105.87891 114.22119 122.56348 130.06348"
         y="0"
         sodipodi:role="line"
         id="tspan13"> is making a request</tspan></text>
    <path
       id="path15"
       d="m 121,111 h 20 -10 13.63"
       style="fill:none;stroke:#000000;stroke-width:1;stroke-linecap:butt;stroke-linejoin:miter;stroke-miterlimit:10;stroke-dasharray:none;stroke-opacity:1"
       transform="matrix(0.95545308,0,0,0.95545308,0.47772653,0.47772653)"
       clip-path="url(#clipPath16)" />
    <path
       id="path17"
       d="m 149.88,111 -7,3.5 1.75,-3.5 -1.75,-3.5 z"
       style="fill:#000000;fill-opacity:1;fill-rule:nonzero;stroke:#000000;stroke-width:1;stroke-linecap:butt;stroke-linejoin:miter;stroke-miterlimit:10;stroke-dasharray:none;stroke-opacity:1"
       transform="matrix(0.95545308,0,0,0.95545308,0.47772653,0.47772653)"
       clip-path="url(#clipPath18)" />
    <path
       id="path19"
       d="m 1,81 h 120 v 60 H 1 Z"
       style="fill:#dae8fc;fill-opacity:1;fill-rule:nonzero;stroke:#6c8ebf;stroke-width:1;stroke-linecap:butt;stroke-linejoin:miter;stroke-miterlimit:10;stroke-dasharray:none;stroke-opacity:1"
       transform="matrix(0.95545308,0,0,0.95545308,0.47772653,0.47772653)"
       clip-path="url(#clipPath20)" />
    <text
       id="text20"
       xml:space="preserve"
       transform="matrix(0.95546262,0,0,0.95546262,12.107503,111.78913)"
       clip-path="url(#clipPath21)"><tspan
         style="font-variant:normal;font-weight:700;font-size:15px;font-family:Helvetica;writing-mode:lr-tb;fill:#000000;fill-opacity:1;fill-rule:nonzero;stroke:none"
         x="0 10.83252 19.995117 24.990234 34.152832 43.31543 49.152832 53.320312 60.820312 69.162598 74.157715 78.325195 87.487793"
         y="0"
         sodipodi:role="line"
         id="tspan20">Authorization</tspan></text>
    <path
       id="path22"
       d="m 151,81 h 280 v 60 H 151 Z"
       style="fill:#f5f5f5;fill-opacity:1;fill-rule:nonzero;stroke:#666666;stroke-width:1;stroke-linecap:butt;stroke-linejoin:miter;stroke-miterlimit:10;stroke-dasharray:none;stroke-opacity:1"
       transform="matrix(0.95545308,0,0,0.95545308,0.47772653,0.47772653)"
       clip-path="url(#clipPath23)" />
    <text
       id="text23"
       xml:space="preserve"
       transform="matrix(0.95546262,0,0,0.95546262,167.29553,103.18996)"
       clip-path="url(#clipPath24)"><tspan
         style="font-variant:normal;font-weight:normal;font-size:15px;font-family:Helvetica;writing-mode:lr-tb;fill:#333333;fill-opacity:1;fill-rule:nonzero;stroke:none"
         x="0 9.1625977 12.495117 20.837402 29.179688 34.174805 42.51709 46.68457 55.026855 63.369141 67.536621 71.704102 75.036621 79.204102 83.371582 87.539062 95.881348 104.22363 108.39111 116.7334 125.07568 130.0708 137.5708 145.91309 154.25537 158.42285 170.91797 179.26025 186.76025 190.09277 198.43506 206.77734 210.94482 215.1123 223.45459"
         y="0"
         sodipodi:role="line"
         id="tspan23">Figure out if the person making the</tspan></text>
    <text
       id="text24"
       xml:space="preserve"
       transform="matrix(0.95546262,0,0,0.95546262,187.61405,120.38829)"
       clip-path="url(#clipPath25)"><tspan
         style="font-variant:normal;font-weight:normal;font-size:15px;font-family:Helvetica;writing-mode:lr-tb;fill:#333333;fill-opacity:1;fill-rule:nonzero;stroke:none"
         x="0 4.9951172 13.337402 21.679688 30.021973 38.364258 45.864258 50.031738 54.199219 57.531738 65.031738 69.199219 77.541504 80.874023 84.206543 92.548828 103.38135 111.72363 120.06592 124.2334 128.40088 136.74316 140.91064 153.40576 161.74805 169.24805 177.59033 181.75781 185.09033"
         y="0"
         sodipodi:role="line"
         id="tspan24">request is allowed to make it</tspan></text>
  </g>
</svg>
