<?xml version="1.0" encoding="UTF-8" standalone="no"?>
<!-- Created with Inkscape (http://www.inkscape.org/) -->

<svg
   version="1.1"
   id="svg1"
   width="405.44"
   height="102.72"
   viewBox="0 0 405.44 102.72"
   sodipodi:docname="nest-2.pdf"
   xmlns:inkscape="http://www.inkscape.org/namespaces/inkscape"
   xmlns:sodipodi="http://sodipodi.sourceforge.net/DTD/sodipodi-0.dtd"
   xmlns="http://www.w3.org/2000/svg"
   xmlns:svg="http://www.w3.org/2000/svg">
  <defs
     id="defs1">
    <clipPath
       clipPathUnits="userSpaceOnUse"
       id="clipPath2">
      <path
         d="M 0,0 H 1266.6666 V 319.65408 H 0 Z"
         transform="scale(0.33473685)"
         clip-rule="evenodd"
         id="path2" />
    </clipPath>
    <clipPath
       clipPathUnits="userSpaceOnUse"
       id="clipPath4">
      <path
         d="M 0,0 H 1266.6666 V 313.67923 H 0 Z"
         transform="matrix(0.33473685,0,0,0.33473685,-0.49999999,-0.49999999)"
         clip-rule="evenodd"
         id="path4" />
    </clipPath>
    <clipPath
       clipPathUnits="userSpaceOnUse"
       id="clipPath6">
      <path
         d="M 0,0 H 1266.6666 V 313.67923 H 0 Z"
         transform="matrix(0.33473685,0,0,0.33473685,-0.49999999,-0.49999999)"
         clip-rule="evenodd"
         id="path6" />
    </clipPath>
    <clipPath
       clipPathUnits="userSpaceOnUse"
       id="clipPath8">
      <path
         d="M 0,0 H 1266.6666 V 313.67923 H 0 Z"
         transform="matrix(0.33473685,0,0,0.33473685,-0.49999999,-0.49999999)"
         clip-rule="evenodd"
         id="path8" />
    </clipPath>
    <clipPath
       clipPathUnits="userSpaceOnUse"
       id="clipPath9">
      <path
         d="M 0,0 H 1266.6666 V 313.67923 H 0 Z"
         transform="matrix(0.33473351,0,0,0.33473351,-8.203125,-42)"
         clip-rule="evenodd"
         id="path9" />
    </clipPath>
    <clipPath
       clipPathUnits="userSpaceOnUse"
       id="clipPath11">
      <path
         d="M 0,0 H 1266.6666 V 313.67923 H 0 Z"
         transform="matrix(0.33473685,0,0,0.33473685,-0.49999999,-0.49999999)"
         clip-rule="evenodd"
         id="path11" />
    </clipPath>
    <clipPath
       clipPathUnits="userSpaceOnUse"
       id="clipPath12">
      <path
         d="M 0,0 H 1266.6666 V 313.67923 H 0 Z"
         transform="matrix(0.33473351,0,0,0.33473351,-14.953125,-72)"
         clip-rule="evenodd"
         id="path12" />
    </clipPath>
    <clipPath
       clipPathUnits="userSpaceOnUse"
       id="clipPath14">
      <path
         d="M 0,0 H 1266.6666 V 313.67923 H 0 Z"
         transform="matrix(0.33473685,0,0,0.33473685,-0.49999999,-0.49999999)"
         clip-rule="evenodd"
         id="path14" />
    </clipPath>
    <clipPath
       clipPathUnits="userSpaceOnUse"
       id="clipPath15">
      <path
         d="M 0,0 H 1266.6666 V 313.67923 H 0 Z"
         transform="matrix(0.33473351,0,0,0.33473351,-359.64063,-33)"
         clip-rule="evenodd"
         id="path15" />
    </clipPath>
    <clipPath
       clipPathUnits="userSpaceOnUse"
       id="clipPath16">
      <path
         d="M 0,0 H 1266.6666 V 313.67923 H 0 Z"
         transform="matrix(0.33473351,0,0,0.33473351,-352.98438,-53.000001)"
         clip-rule="evenodd"
         id="path16" />
    </clipPath>
    <clipPath
       clipPathUnits="userSpaceOnUse"
       id="clipPath18">
      <path
         d="M 0,0 H 1266.6666 V 313.67923 H 0 Z"
         transform="matrix(0.33473685,0,0,0.33473685,-0.49999999,-0.49999999)"
         clip-rule="evenodd"
         id="path18" />
    </clipPath>
    <clipPath
       clipPathUnits="userSpaceOnUse"
       id="clipPath20">
      <path
         d="M 0,0 H 1266.6666 V 313.67923 H 0 Z"
         transform="matrix(0.33473685,0,0,0.33473685,-0.49999999,-0.49999999)"
         clip-rule="evenodd"
         id="path20" />
    </clipPath>
    <clipPath
       clipPathUnits="userSpaceOnUse"
       id="clipPath22">
      <path
         d="M 0,0 H 1266.6666 V 313.67923 H 0 Z"
         transform="matrix(0.33473685,0,0,0.33473685,-0.49999999,-0.49999999)"
         clip-rule="evenodd"
         id="path22" />
    </clipPath>
    <clipPath
       clipPathUnits="userSpaceOnUse"
       id="clipPath23">
      <path
         d="M 0,0 H 1266.6666 V 313.67923 H 0 Z"
         transform="matrix(0.33473351,0,0,0.33473351,-186.07813,-43)"
         clip-rule="evenodd"
         id="path23" />
    </clipPath>
    <clipPath
       clipPathUnits="userSpaceOnUse"
       id="clipPath24">
      <path
         d="M 0,0 H 1266.6666 V 313.67923 H 0 Z"
         transform="matrix(0.33473351,0,0,0.33473351,-171.64063,-83)"
         clip-rule="evenodd"
         id="path24" />
    </clipPath>
    <clipPath
       clipPathUnits="userSpaceOnUse"
       id="clipPath25">
      <path
         d="M 0,0 H 1266.6666 V 313.67923 H 0 Z"
         transform="matrix(0.33473351,0,0,0.33473351,-184.64063,-98.000001)"
         clip-rule="evenodd"
         id="path25" />
    </clipPath>
  </defs>
  <sodipodi:namedview
     id="namedview1"
     pagecolor="#ffffff"
     bordercolor="#000000"
     borderopacity="0.25"
     inkscape:showpageshadow="2"
     inkscape:pageopacity="0.0"
     inkscape:pagecheckerboard="0"
     inkscape:deskcolor="#d1d1d1">
    <inkscape:page
       x="0"
       y="0"
       inkscape:label="1"
       id="page1"
       width="405.44"
       height="102.72"
       margin="0"
       bleed="0" />
  </sodipodi:namedview>
  <g
     id="g1"
     inkscape:groupmode="layer"
     inkscape:label="1">
    <path
       id="path1"
       d="M 0,0 H 424 V 107 H 0 Z"
       style="fill:#ffffff;fill-opacity:1;fill-rule:nonzero;stroke:none"
       transform="scale(0.95597478)"
       clip-path="url(#clipPath2)" />
    <path
       id="path3"
       d="m 121,38 h 43.63"
       style="fill:none;stroke:#000000;stroke-width:1;stroke-linecap:butt;stroke-linejoin:miter;stroke-miterlimit:10;stroke-dasharray:none;stroke-opacity:1"
       transform="matrix(0.95597478,0,0,0.95597478,0.47798738,0.47798738)"
       clip-path="url(#clipPath4)" />
    <path
       id="path5"
       d="m 169.88,38 -7,3.5 1.75,-3.5 -1.75,-3.5 z"
       style="fill:#000000;fill-opacity:1;fill-rule:nonzero;stroke:#000000;stroke-width:1;stroke-linecap:butt;stroke-linejoin:miter;stroke-miterlimit:10;stroke-dasharray:none;stroke-opacity:1"
       transform="matrix(0.95597478,0,0,0.95597478,0.47798738,0.47798738)"
       clip-path="url(#clipPath6)" />
    <path
       id="path7"
       d="M 1,23 H 121 V 53 H 1 Z"
       style="fill:#f5f5f5;fill-opacity:1;fill-rule:nonzero;stroke:#666666;stroke-width:1;stroke-linecap:butt;stroke-linejoin:miter;stroke-miterlimit:10;stroke-dasharray:none;stroke-opacity:1"
       transform="matrix(0.95597478,0,0,0.95597478,0.47798738,0.47798738)"
       clip-path="url(#clipPath8)" />
    <text
       id="text8"
       xml:space="preserve"
       transform="matrix(0.95598431,0,0,0.95598431,7.8420588,40.151341)"
       clip-path="url(#clipPath9)"><tspan
         style="font-variant:normal;font-weight:700;font-size:12px;font-family:Helvetica;writing-mode:lr-tb;fill:#333333;fill-opacity:1;fill-rule:nonzero;stroke:none"
         x="0 7.1191406 14.900391 22.230469 30.896484 39.5625 42.896484 46.230469 50.900391 57.574219 64.904297 72.234375 76.904297 80.900391 87.574219 90.908203 94.904297 98.238281"
         y="0"
         sodipodi:role="line"
         id="tspan8">PATCH /reports/:id</tspan></text>
    <path
       id="path10"
       d="M 1,53 H 121 V 83 H 1 Z"
       style="fill:#f5f5f5;fill-opacity:1;fill-rule:nonzero;stroke:#666666;stroke-width:1;stroke-linecap:butt;stroke-linejoin:miter;stroke-miterlimit:10;stroke-dasharray:none;stroke-opacity:1"
       transform="matrix(0.95597478,0,0,0.95597478,0.47798738,0.47798738)"
       clip-path="url(#clipPath11)" />
    <text
       id="text11"
       xml:space="preserve"
       transform="matrix(0.95598431,0,0,0.95598431,14.294953,68.83087)"
       clip-path="url(#clipPath12)"><tspan
         style="font-variant:normal;font-weight:normal;font-size:12px;font-family:Helvetica;writing-mode:lr-tb;fill:#333333;fill-opacity:1;fill-rule:nonzero;stroke:none"
         x="0 4.0078125 7.3417969 14.015625 20.689453 27.363281 31.359375 38.033203 44.033203 50.707031 57.380859 60.714844 64.048828 67.382812 71.378906 78.052734 84.726562 88.060547"
         y="0"
         sodipodi:role="line"
         id="tspan11">{ approved: true }</tspan></text>
    <path
       id="path13"
       d="m 341,0.5 h 80 v 75 h -80 z"
       style="fill:#dae8fc;fill-opacity:1;fill-rule:nonzero;stroke:#6c8ebf;stroke-width:1;stroke-linecap:butt;stroke-linejoin:miter;stroke-miterlimit:10;stroke-dasharray:none;stroke-opacity:1"
       transform="matrix(0.95597478,0,0,0.95597478,0.47798738,0.47798738)"
       clip-path="url(#clipPath14)" />
    <text
       id="text14"
       xml:space="preserve"
       transform="matrix(0.95598431,0,0,0.95598431,343.8108,31.547482)"
       clip-path="url(#clipPath15)"><tspan
         style="font-variant:normal;font-weight:normal;font-size:16px;font-family:Helvetica;writing-mode:lr-tb;fill:#000000;fill-opacity:1;fill-rule:nonzero;stroke:none"
         x="0 11.554688 20.453125 29.351562 33.796875"
         y="0"
         sodipodi:role="line"
         id="tspan14">Route</tspan></text>
    <text
       id="text15"
       xml:space="preserve"
       transform="matrix(0.95598431,0,0,0.95598431,337.44753,50.667169)"
       clip-path="url(#clipPath16)"><tspan
         style="font-variant:normal;font-weight:normal;font-size:16px;font-family:Helvetica;writing-mode:lr-tb;fill:#000000;fill-opacity:1;fill-rule:nonzero;stroke:none"
         x="0 11.554688 20.453125 29.351562 38.25 41.804688 50.703125"
         y="0"
         sodipodi:role="line"
         id="tspan15">Handler</tspan></text>
    <path
       id="path17"
       d="m 291,38 h 43.64001"
       style="fill:none;stroke:#000000;stroke-width:1;stroke-linecap:butt;stroke-linejoin:miter;stroke-miterlimit:10;stroke-dasharray:none;stroke-opacity:1"
       transform="matrix(0.95597478,0,0,0.95597478,0.47798738,0.47798738)"
       clip-path="url(#clipPath18)" />
    <path
       id="path19"
       d="m 339.89001,38 -7,3.5 1.75,-3.5 -1.75,-3.5 z"
       style="fill:#000000;fill-opacity:1;fill-rule:nonzero;stroke:#000000;stroke-width:1;stroke-linecap:butt;stroke-linejoin:miter;stroke-miterlimit:10;stroke-dasharray:none;stroke-opacity:1"
       transform="matrix(0.95597478,0,0,0.95597478,0.47798738,0.47798738)"
       clip-path="url(#clipPath20)" />
    <path
       id="path21"
       d="M 171,8 H 291 V 68 H 171 Z"
       style="fill:#ffffff;fill-opacity:1;fill-rule:nonzero;stroke:#000000;stroke-width:1;stroke-linecap:butt;stroke-linejoin:miter;stroke-miterlimit:10;stroke-dasharray:none;stroke-opacity:1"
       transform="matrix(0.95597478,0,0,0.95597478,0.47798738,0.47798738)"
       clip-path="url(#clipPath22)" />
    <text
       id="text22"
       xml:space="preserve"
       transform="matrix(0.95598431,0,0,0.95598431,177.88777,41.107325)"
       clip-path="url(#clipPath23)"><tspan
         style="font-variant:normal;font-weight:normal;font-size:16px;font-family:Helvetica;writing-mode:lr-tb;fill:#000000;fill-opacity:1;fill-rule:nonzero;stroke:none"
         x="0 10.671875 19.570312 32.898438 36.453125 45.351562 57.796875 66.695312 75.59375 80.921875"
         y="0"
         sodipodi:role="line"
         id="tspan22">AdminGuard</tspan></text>
    <text
       id="text23"
       xml:space="preserve"
       transform="matrix(0.95598431,0,0,0.95598431,164.08575,79.346698)"
       clip-path="url(#clipPath24)"><tspan
         style="font-style:oblique;font-variant:normal;font-weight:normal;font-size:12px;font-family:Helvetica;writing-mode:lr-tb;fill:#000000;fill-opacity:1;fill-rule:nonzero;stroke:none"
         x="0 3.3339844 9.3339844 12.667969 16.664062 23.337891 30.011719 36.685547 43.359375 49.359375 52.693359 56.027344 62.027344 68.701172 72.697266 76.693359 83.367188 90.041016 93.375 102.04102 108.04102 114.71484"
         y="0"
         sodipodi:role="line"
         id="tspan23">Is request.currentUser</tspan></text>
    <text
       id="text24"
       xml:space="preserve"
       transform="matrix(0.95598431,0,0,0.95598431,176.51355,93.686463)"
       clip-path="url(#clipPath25)"><tspan
         style="font-style:oblique;font-variant:normal;font-weight:normal;font-size:12px;font-family:Helvetica;writing-mode:lr-tb;fill:#000000;fill-opacity:1;fill-rule:nonzero;stroke:none"
         x="0 6.6738281 13.347656 16.681641 23.355469 30.029297 40.025391 42.691406 49.365234 52.03125 58.03125 61.365234 65.361328 72.035156 75.369141 82.042969 86.039062"
         y="0"
         sodipodi:role="line"
         id="tspan24">an administrator?</tspan></text>
  </g>
</svg>
