<?xml version="1.0" encoding="UTF-8" standalone="no"?>
<!-- Created with Inkscape (http://www.inkscape.org/) -->

<svg
   version="1.1"
   id="svg1"
   width="338.56"
   height="282.56"
   viewBox="0 0 338.56 282.56"
   sodipodi:docname="nest-4.pdf"
   xmlns:inkscape="http://www.inkscape.org/namespaces/inkscape"
   xmlns:sodipodi="http://sodipodi.sourceforge.net/DTD/sodipodi-0.dtd"
   xmlns="http://www.w3.org/2000/svg"
   xmlns:svg="http://www.w3.org/2000/svg">
  <defs
     id="defs1">
    <clipPath
       clipPathUnits="userSpaceOnUse"
       id="clipPath2">
      <path
         d="M 0,0 H 1058.3333 V 881.94434 H 0 Z"
         transform="scale(0.33448822)"
         clip-rule="evenodd"
         id="path2" />
    </clipPath>
    <clipPath
       clipPathUnits="userSpaceOnUse"
       id="clipPath4">
      <path
         d="M 0,0 H 1058.3333 V 878.95471 H 0 Z"
         transform="matrix(0.33448822,0,0,0.33448822,-0.49999999,-0.49999999)"
         clip-rule="evenodd"
         id="path4" />
    </clipPath>
    <clipPath
       clipPathUnits="userSpaceOnUse"
       id="clipPath5">
      <path
         d="M 0,0 H 1058.3333 V 878.95471 H 0 Z"
         transform="matrix(0.33448486,0,0,0.33448486,-100.48437,-28)"
         clip-rule="evenodd"
         id="path5" />
    </clipPath>
    <clipPath
       clipPathUnits="userSpaceOnUse"
       id="clipPath7">
      <path
         d="M 0,0 H 1058.3333 V 878.95471 H 0 Z"
         transform="matrix(0.33448822,0,0,0.33448822,-0.49999999,-0.49999999)"
         clip-rule="evenodd"
         id="path7" />
    </clipPath>
    <clipPath
       clipPathUnits="userSpaceOnUse"
       id="clipPath9">
      <path
         d="M 0,0 H 1058.3333 V 878.95471 H 0 Z"
         transform="matrix(0.33448822,0,0,0.33448822,-0.49999999,-0.49999999)"
         clip-rule="evenodd"
         id="path9" />
    </clipPath>
    <clipPath
       clipPathUnits="userSpaceOnUse"
       id="clipPath11">
      <path
         d="M 0,0 H 1058.3333 V 878.95471 H 0 Z"
         transform="matrix(0.33448822,0,0,0.33448822,-0.49999999,-0.49999999)"
         clip-rule="evenodd"
         id="path11" />
    </clipPath>
    <clipPath
       clipPathUnits="userSpaceOnUse"
       id="clipPath12">
      <path
         d="M 0,0 H 1058.3333 V 878.95471 H 0 Z"
         transform="matrix(0.33448486,0,0,0.33448486,-28.796875,-78)"
         clip-rule="evenodd"
         id="path12" />
    </clipPath>
    <clipPath
       clipPathUnits="userSpaceOnUse"
       id="clipPath14">
      <path
         d="M 0,0 H 1058.3333 V 878.95471 H 0 Z"
         transform="matrix(0.33448822,0,0,0.33448822,-0.49999999,-0.49999999)"
         clip-rule="evenodd"
         id="path14" />
    </clipPath>
    <clipPath
       clipPathUnits="userSpaceOnUse"
       id="clipPath15">
      <path
         d="M 0,0 H 1058.3333 V 878.95471 H 0 Z"
         transform="matrix(0.33448486,0,0,0.33448486,-182.96875,-76)"
         clip-rule="evenodd"
         id="path15" />
    </clipPath>
    <clipPath
       clipPathUnits="userSpaceOnUse"
       id="clipPath17">
      <path
         d="M 0,0 H 1058.3333 V 878.95471 H 0 Z"
         transform="matrix(0.33448822,0,0,0.33448822,-0.49999999,-0.49999999)"
         clip-rule="evenodd"
         id="path17" />
    </clipPath>
    <clipPath
       clipPathUnits="userSpaceOnUse"
       id="clipPath19">
      <path
         d="M 0,0 H 1058.3333 V 878.95471 H 0 Z"
         transform="matrix(0.33448822,0,0,0.33448822,-0.49999999,-0.49999999)"
         clip-rule="evenodd"
         id="path19" />
    </clipPath>
    <clipPath
       clipPathUnits="userSpaceOnUse"
       id="clipPath21">
      <path
         d="M 0,0 H 1058.3333 V 878.95471 H 0 Z"
         transform="matrix(0.33448822,0,0,0.33448822,-0.49999999,-0.49999999)"
         clip-rule="evenodd"
         id="path21" />
    </clipPath>
    <clipPath
       clipPathUnits="userSpaceOnUse"
       id="clipPath22">
      <path
         d="M 0,0 H 1058.3333 V 878.95471 H 0 Z"
         transform="matrix(0.33448486,0,0,0.33448486,-10.828125,-128)"
         clip-rule="evenodd"
         id="path22" />
    </clipPath>
    <clipPath
       clipPathUnits="userSpaceOnUse"
       id="clipPath24">
      <path
         d="M 0,0 H 1058.3333 V 878.95471 H 0 Z"
         transform="matrix(0.33448822,0,0,0.33448822,-0.49999999,-0.49999999)"
         clip-rule="evenodd"
         id="path24" />
    </clipPath>
    <clipPath
       clipPathUnits="userSpaceOnUse"
       id="clipPath25">
      <path
         d="M 0,0 H 1058.3333 V 878.95471 H 0 Z"
         transform="matrix(0.33448486,0,0,0.33448486,-169,-126)"
         clip-rule="evenodd"
         id="path25" />
    </clipPath>
    <clipPath
       clipPathUnits="userSpaceOnUse"
       id="clipPath27">
      <path
         d="M 0,0 H 1058.3333 V 878.95471 H 0 Z"
         transform="matrix(0.33448822,0,0,0.33448822,-0.49999999,-0.49999999)"
         clip-rule="evenodd"
         id="path27" />
    </clipPath>
    <clipPath
       clipPathUnits="userSpaceOnUse"
       id="clipPath29">
      <path
         d="M 0,0 H 1058.3333 V 878.95471 H 0 Z"
         transform="matrix(0.33448822,0,0,0.33448822,-0.49999999,-0.49999999)"
         clip-rule="evenodd"
         id="path29" />
    </clipPath>
    <clipPath
       clipPathUnits="userSpaceOnUse"
       id="clipPath31">
      <path
         d="M 0,0 H 1058.3333 V 878.95471 H 0 Z"
         transform="matrix(0.33448822,0,0,0.33448822,-0.49999999,-0.49999999)"
         clip-rule="evenodd"
         id="path31" />
    </clipPath>
    <clipPath
       clipPathUnits="userSpaceOnUse"
       id="clipPath32">
      <path
         d="M 0,0 H 1058.3333 V 878.95471 H 0 Z"
         transform="matrix(0.33448486,0,0,0.33448486,-27.734375,-178)"
         clip-rule="evenodd"
         id="path32" />
    </clipPath>
    <clipPath
       clipPathUnits="userSpaceOnUse"
       id="clipPath34">
      <path
         d="M 0,0 H 1058.3333 V 878.95471 H 0 Z"
         transform="matrix(0.33448822,0,0,0.33448822,-0.49999999,-0.49999999)"
         clip-rule="evenodd"
         id="path34" />
    </clipPath>
    <clipPath
       clipPathUnits="userSpaceOnUse"
       id="clipPath35">
      <path
         d="M 0,0 H 1058.3333 V 878.95471 H 0 Z"
         transform="matrix(0.33448486,0,0,0.33448486,-160.03125,-176)"
         clip-rule="evenodd"
         id="path35" />
    </clipPath>
    <clipPath
       clipPathUnits="userSpaceOnUse"
       id="clipPath37">
      <path
         d="M 0,0 H 1058.3333 V 878.95471 H 0 Z"
         transform="matrix(0.33448822,0,0,0.33448822,-0.49999999,-0.49999999)"
         clip-rule="evenodd"
         id="path37" />
    </clipPath>
    <clipPath
       clipPathUnits="userSpaceOnUse"
       id="clipPath39">
      <path
         d="M 0,0 H 1058.3333 V 878.95471 H 0 Z"
         transform="matrix(0.33448822,0,0,0.33448822,-0.49999999,-0.49999999)"
         clip-rule="evenodd"
         id="path39" />
    </clipPath>
    <clipPath
       clipPathUnits="userSpaceOnUse"
       id="clipPath41">
      <path
         d="M 0,0 H 1058.3333 V 878.95471 H 0 Z"
         transform="matrix(0.33448822,0,0,0.33448822,-0.49999999,-0.49999999)"
         clip-rule="evenodd"
         id="path41" />
    </clipPath>
    <clipPath
       clipPathUnits="userSpaceOnUse"
       id="clipPath42">
      <path
         d="M 0,0 H 1058.3333 V 878.95471 H 0 Z"
         transform="matrix(0.33448486,0,0,0.33448486,-36.171875,-228)"
         clip-rule="evenodd"
         id="path42" />
    </clipPath>
    <clipPath
       clipPathUnits="userSpaceOnUse"
       id="clipPath44">
      <path
         d="M 0,0 H 1058.3333 V 878.95471 H 0 Z"
         transform="matrix(0.33448822,0,0,0.33448822,-0.49999999,-0.49999999)"
         clip-rule="evenodd"
         id="path44" />
    </clipPath>
    <clipPath
       clipPathUnits="userSpaceOnUse"
       id="clipPath45">
      <path
         d="M 0,0 H 1058.3333 V 878.95471 H 0 Z"
         transform="matrix(0.33448486,0,0,0.33448486,-160.39062,-218)"
         clip-rule="evenodd"
         id="path45" />
    </clipPath>
    <clipPath
       clipPathUnits="userSpaceOnUse"
       id="clipPath46">
      <path
         d="M 0,0 H 1058.3333 V 878.95471 H 0 Z"
         transform="matrix(0.33448486,0,0,0.33448486,-186.85938,-235)"
         clip-rule="evenodd"
         id="path46" />
    </clipPath>
    <clipPath
       clipPathUnits="userSpaceOnUse"
       id="clipPath48">
      <path
         d="M 0,0 H 1058.3333 V 878.95471 H 0 Z"
         transform="matrix(0.33448822,0,0,0.33448822,-0.49999999,-0.49999999)"
         clip-rule="evenodd"
         id="path48" />
    </clipPath>
    <clipPath
       clipPathUnits="userSpaceOnUse"
       id="clipPath50">
      <path
         d="M 0,0 H 1058.3333 V 878.95471 H 0 Z"
         transform="matrix(0.33448822,0,0,0.33448822,-0.49999999,-0.49999999)"
         clip-rule="evenodd"
         id="path50" />
    </clipPath>
    <clipPath
       clipPathUnits="userSpaceOnUse"
       id="clipPath52">
      <path
         d="M 0,0 H 1058.3333 V 878.95471 H 0 Z"
         transform="matrix(0.33448822,0,0,0.33448822,-0.49999999,-0.49999999)"
         clip-rule="evenodd"
         id="path52" />
    </clipPath>
    <clipPath
       clipPathUnits="userSpaceOnUse"
       id="clipPath53">
      <path
         d="M 0,0 H 1058.3333 V 878.95471 H 0 Z"
         transform="matrix(0.33448486,0,0,0.33448486,-7.359375,-270)"
         clip-rule="evenodd"
         id="path53" />
    </clipPath>
    <clipPath
       clipPathUnits="userSpaceOnUse"
       id="clipPath54">
      <path
         d="M 0,0 H 1058.3333 V 878.95471 H 0 Z"
         transform="matrix(0.33448486,0,0,0.33448486,-3.203125,-282)"
         clip-rule="evenodd"
         id="path54" />
    </clipPath>
    <clipPath
       clipPathUnits="userSpaceOnUse"
       id="clipPath56">
      <path
         d="M 0,0 H 1058.3333 V 878.95471 H 0 Z"
         transform="matrix(0.33448822,0,0,0.33448822,-0.49999999,-0.49999999)"
         clip-rule="evenodd"
         id="path56" />
    </clipPath>
    <clipPath
       clipPathUnits="userSpaceOnUse"
       id="clipPath57">
      <path
         d="M 0,0 H 1058.3333 V 878.95471 H 0 Z"
         transform="matrix(0.33448486,0,0,0.33448486,-189.5625,-276)"
         clip-rule="evenodd"
         id="path57" />
    </clipPath>
  </defs>
  <sodipodi:namedview
     id="namedview1"
     pagecolor="#ffffff"
     bordercolor="#000000"
     borderopacity="0.25"
     inkscape:showpageshadow="2"
     inkscape:pageopacity="0.0"
     inkscape:pagecheckerboard="0"
     inkscape:deskcolor="#d1d1d1">
    <inkscape:page
       x="0"
       y="0"
       inkscape:label="1"
       id="page1"
       width="338.56"
       height="282.56"
       margin="0"
       bleed="0" />
  </sodipodi:namedview>
  <g
     id="g1"
     inkscape:groupmode="layer"
     inkscape:label="1">
    <path
       id="path1"
       d="M 0,0 H 354 V 295 H 0 Z"
       style="fill:#ffffff;fill-opacity:1;fill-rule:nonzero;stroke:none"
       transform="scale(0.95668537)"
       clip-path="url(#clipPath2)" />
    <path
       id="path3"
       d="M 1,1 H 351 V 41 H 1 Z"
       style="fill:#dae8fc;fill-opacity:1;fill-rule:nonzero;stroke:#6c8ebf;stroke-width:1;stroke-linecap:butt;stroke-linejoin:miter;stroke-miterlimit:10;stroke-dasharray:none;stroke-opacity:1"
       transform="matrix(0.95668537,0,0,0.95668537,0.47834268,0.47834268)"
       clip-path="url(#clipPath4)" />
    <text
       id="text4"
       xml:space="preserve"
       transform="matrix(0.95669497,0,0,0.95669497,96.132896,26.787459)"
       clip-path="url(#clipPath5)"><tspan
         style="font-variant:normal;font-weight:normal;font-size:19px;font-family:Helvetica;writing-mode:lr-tb;fill:#000000;fill-opacity:1;fill-rule:nonzero;stroke:none"
         x="0 14.778809 25.345703 35.912598 42.239746 51.739746 57.018555 69.691406 80.258301 84.479492 88.700684 99.267578 109.83447 116.16162 120.40137 133.07422 145.74707"
         y="0"
         sodipodi:role="line"
         id="tspan4">Query Builder API</tspan></text>
    <path
       id="path6"
       d="m 121,71 h 20 -20 13.63"
       style="fill:none;stroke:#000000;stroke-width:1;stroke-linecap:butt;stroke-linejoin:miter;stroke-miterlimit:10;stroke-dasharray:none;stroke-opacity:1"
       transform="matrix(0.95668537,0,0,0.95668537,0.47834268,0.47834268)"
       clip-path="url(#clipPath7)" />
    <path
       id="path8"
       d="m 139.88,71 -7,3.5 1.75,-3.5 -1.75,-3.5 z"
       style="fill:#000000;fill-opacity:1;fill-rule:nonzero;stroke:#000000;stroke-width:1;stroke-linecap:butt;stroke-linejoin:miter;stroke-miterlimit:10;stroke-dasharray:none;stroke-opacity:1"
       transform="matrix(0.95668537,0,0,0.95668537,0.47834268,0.47834268)"
       clip-path="url(#clipPath9)" />
    <path
       id="path10"
       d="M 1,51 H 121 V 91 H 1 Z"
       style="fill:#ffffff;fill-opacity:1;fill-rule:nonzero;stroke:#000000;stroke-width:1;stroke-linecap:butt;stroke-linejoin:miter;stroke-miterlimit:10;stroke-dasharray:none;stroke-opacity:1"
       transform="matrix(0.95668537,0,0,0.95668537,0.47834268,0.47834268)"
       clip-path="url(#clipPath11)" />
    <text
       id="text11"
       xml:space="preserve"
       transform="matrix(0.95669497,0,0,0.95669497,27.549825,74.622208)"
       clip-path="url(#clipPath12)"><tspan
         style="font-variant:normal;font-weight:normal;font-size:19px;font-family:Helvetica;writing-mode:lr-tb;fill:#000000;fill-opacity:1;fill-rule:nonzero;stroke:none"
         x="0 13.721191 24.288086 34.85498 41.182129 51.749023 58.076172"
         y="0"
         sodipodi:role="line"
         id="tspan11">where()</tspan></text>
    <path
       id="path13"
       d="M 141,51 H 351 V 91 H 141 Z"
       style="fill:#ffffff;fill-opacity:1;fill-rule:nonzero;stroke:#000000;stroke-width:1;stroke-linecap:butt;stroke-linejoin:miter;stroke-miterlimit:10;stroke-dasharray:none;stroke-opacity:1"
       transform="matrix(0.95668537,0,0,0.95668537,0.47834268,0.47834268)"
       clip-path="url(#clipPath14)" />
    <text
       id="text14"
       xml:space="preserve"
       transform="matrix(0.95669497,0,0,0.95669497,175.04528,72.708818)"
       clip-path="url(#clipPath15)"><tspan
         style="font-variant:normal;font-weight:normal;font-size:14px;font-family:Helvetica;writing-mode:lr-tb;fill:#000000;fill-opacity:1;fill-rule:nonzero;stroke:none"
         x="0 8.5517578 11.662109 14.772461 18.662109 26.448242 31.110352 35 42.786133 50.572266 54.461914 58.351562 65.351562 73.137695 84.799805 92.585938 96.475586 101.1377 108.92383 119.03418"
         y="0"
         sodipodi:role="line"
         id="tspan14">Filter out some rows</tspan></text>
    <path
       id="path16"
       d="m 121,121 h 20 -20 13.63"
       style="fill:none;stroke:#000000;stroke-width:1;stroke-linecap:butt;stroke-linejoin:miter;stroke-miterlimit:10;stroke-dasharray:none;stroke-opacity:1"
       transform="matrix(0.95668537,0,0,0.95668537,0.47834268,0.47834268)"
       clip-path="url(#clipPath17)" />
    <path
       id="path18"
       d="m 139.88,121 -7,3.5 1.75,-3.5 -1.75,-3.5 z"
       style="fill:#000000;fill-opacity:1;fill-rule:nonzero;stroke:#000000;stroke-width:1;stroke-linecap:butt;stroke-linejoin:miter;stroke-miterlimit:10;stroke-dasharray:none;stroke-opacity:1"
       transform="matrix(0.95668537,0,0,0.95668537,0.47834268,0.47834268)"
       clip-path="url(#clipPath19)" />
    <path
       id="path20"
       d="m 1,101 h 120 v 40 H 1 Z"
       style="fill:#ffffff;fill-opacity:1;fill-rule:nonzero;stroke:#000000;stroke-width:1;stroke-linecap:butt;stroke-linejoin:miter;stroke-miterlimit:10;stroke-dasharray:none;stroke-opacity:1"
       transform="matrix(0.95668537,0,0,0.95668537,0.47834268,0.47834268)"
       clip-path="url(#clipPath21)" />
    <text
       id="text21"
       xml:space="preserve"
       transform="matrix(0.95669497,0,0,0.95669497,10.359213,122.45696)"
       clip-path="url(#clipPath22)"><tspan
         style="font-variant:normal;font-weight:normal;font-size:19px;font-family:Helvetica;writing-mode:lr-tb;fill:#000000;fill-opacity:1;fill-rule:nonzero;stroke:none"
         x="0 10.566895 21.133789 31.700684 49.633789 60.200684 70.767578 77.094727 87.661621 93.98877"
         y="0"
         sodipodi:role="line"
         id="tspan21">andWhere()</tspan></text>
    <path
       id="path23"
       d="m 141,101 h 210 v 40 H 141 Z"
       style="fill:#ffffff;fill-opacity:1;fill-rule:nonzero;stroke:#000000;stroke-width:1;stroke-linecap:butt;stroke-linejoin:miter;stroke-miterlimit:10;stroke-dasharray:none;stroke-opacity:1"
       transform="matrix(0.95668537,0,0,0.95668537,0.47834268,0.47834268)"
       clip-path="url(#clipPath24)" />
    <g
       id="g24" />
    <text
       id="text24"
       xml:space="preserve"
       transform="matrix(0.95669497,0,0,0.95669497,161.68145,120.54357)"
       clip-path="url(#clipPath25)"><tspan
         style="font-variant:normal;font-weight:normal;font-size:14px;font-family:Helvetica;writing-mode:lr-tb;fill:#000000;fill-opacity:1;fill-rule:nonzero;stroke:none"
         x="0 9.3378906 17.124023 24.910156 28.799805 36.585938 44.37207 52.158203 56.047852 63.833984 71.620117 76.282227 80.171875 82.844727 92.955078 100.74121 108.52734 113.18945 120.97559 123.64844 127.53809 134.53809 137.64844 141.53809 149.32422"
         y="0"
         sodipodi:role="line"
         id="tspan24">Add another 'where' ﬁlter</tspan></text>
    <path
       id="path26"
       d="m 121,171 h 20 -20 13.63"
       style="fill:none;stroke:#000000;stroke-width:1;stroke-linecap:butt;stroke-linejoin:miter;stroke-miterlimit:10;stroke-dasharray:none;stroke-opacity:1"
       transform="matrix(0.95668537,0,0,0.95668537,0.47834268,0.47834268)"
       clip-path="url(#clipPath27)" />
    <path
       id="path28"
       d="m 139.88,171 -7,3.5 1.75,-3.5 -1.75,-3.5 z"
       style="fill:#000000;fill-opacity:1;fill-rule:nonzero;stroke:#000000;stroke-width:1;stroke-linecap:butt;stroke-linejoin:miter;stroke-miterlimit:10;stroke-dasharray:none;stroke-opacity:1"
       transform="matrix(0.95668537,0,0,0.95668537,0.47834268,0.47834268)"
       clip-path="url(#clipPath29)" />
    <path
       id="path30"
       d="m 1,151 h 120 v 40 H 1 Z"
       style="fill:#ffffff;fill-opacity:1;fill-rule:nonzero;stroke:#000000;stroke-width:1;stroke-linecap:butt;stroke-linejoin:miter;stroke-miterlimit:10;stroke-dasharray:none;stroke-opacity:1"
       transform="matrix(0.95668537,0,0,0.95668537,0.47834268,0.47834268)"
       clip-path="url(#clipPath31)" />
    <text
       id="text31"
       xml:space="preserve"
       transform="matrix(0.95669497,0,0,0.95669497,26.533337,170.2917)"
       clip-path="url(#clipPath32)"><tspan
         style="font-variant:normal;font-weight:normal;font-size:19px;font-family:Helvetica;writing-mode:lr-tb;fill:#000000;fill-opacity:1;fill-rule:nonzero;stroke:none"
         x="0 10.566895 16.894043 27.460938 38.027832 44.35498 57.027832"
         y="0"
         sodipodi:role="line"
         id="tspan31">orderBy</tspan></text>
    <path
       id="path33"
       d="m 141,151 h 210 v 40 H 141 Z"
       style="fill:#ffffff;fill-opacity:1;fill-rule:nonzero;stroke:#000000;stroke-width:1;stroke-linecap:butt;stroke-linejoin:miter;stroke-miterlimit:10;stroke-dasharray:none;stroke-opacity:1"
       transform="matrix(0.95668537,0,0,0.95668537,0.47834268,0.47834268)"
       clip-path="url(#clipPath34)" />
    <text
       id="text34"
       xml:space="preserve"
       transform="matrix(0.95669497,0,0,0.95669497,153.10109,168.37831)"
       clip-path="url(#clipPath35)"><tspan
         style="font-variant:normal;font-weight:normal;font-size:14px;font-family:Helvetica;writing-mode:lr-tb;fill:#000000;fill-opacity:1;fill-rule:nonzero;stroke:none"
         x="0 10.889648 15.551758 23.337891 31.124023 35.786133 39.675781 44.337891 52.124023 62.234375 69.234375 73.124023 80.910156 87.910156 91.799805 98.799805 106.58594 118.24805 126.03418 129.92383 136.92383 141.58594 144.69629 148.58594 156.37207 161.03418 164.14453"
         y="0"
         sodipodi:role="line"
         id="tspan34">Order rows by some criteria</tspan></text>
    <path
       id="path36"
       d="m 121,221 h 20 -20 13.63"
       style="fill:none;stroke:#000000;stroke-width:1;stroke-linecap:butt;stroke-linejoin:miter;stroke-miterlimit:10;stroke-dasharray:none;stroke-opacity:1"
       transform="matrix(0.95668537,0,0,0.95668537,0.47834268,0.47834268)"
       clip-path="url(#clipPath37)" />
    <path
       id="path38"
       d="m 139.88,221 -7,3.5 1.75,-3.5 -1.75,-3.5 z"
       style="fill:#000000;fill-opacity:1;fill-rule:nonzero;stroke:#000000;stroke-width:1;stroke-linecap:butt;stroke-linejoin:miter;stroke-miterlimit:10;stroke-dasharray:none;stroke-opacity:1"
       transform="matrix(0.95668537,0,0,0.95668537,0.47834268,0.47834268)"
       clip-path="url(#clipPath39)" />
    <path
       id="path40"
       d="m 1,201 h 120 v 40 H 1 Z"
       style="fill:#ffffff;fill-opacity:1;fill-rule:nonzero;stroke:#000000;stroke-width:1;stroke-linecap:butt;stroke-linejoin:miter;stroke-miterlimit:10;stroke-dasharray:none;stroke-opacity:1"
       transform="matrix(0.95668537,0,0,0.95668537,0.47834268,0.47834268)"
       clip-path="url(#clipPath41)" />
    <text
       id="text41"
       xml:space="preserve"
       transform="matrix(0.95669497,0,0,0.95669497,34.605451,218.12645)"
       clip-path="url(#clipPath42)"><tspan
         style="font-variant:normal;font-weight:normal;font-size:19px;font-family:Helvetica;writing-mode:lr-tb;fill:#000000;fill-opacity:1;fill-rule:nonzero;stroke:none"
         x="0 9.5 20.066895 24.288086 34.85498 44.35498"
         y="0"
         sodipodi:role="line"
         id="tspan41">select</tspan></text>
    <path
       id="path43"
       d="m 141,201 h 210 v 40 H 141 Z"
       style="fill:#ffffff;fill-opacity:1;fill-rule:nonzero;stroke:#000000;stroke-width:1;stroke-linecap:butt;stroke-linejoin:miter;stroke-miterlimit:10;stroke-dasharray:none;stroke-opacity:1"
       transform="matrix(0.95668537,0,0,0.95668537,0.47834268,0.47834268)"
       clip-path="url(#clipPath44)" />
    <text
       id="text44"
       xml:space="preserve"
       transform="matrix(0.95669497,0,0,0.95669497,153.4449,208.5595)"
       clip-path="url(#clipPath45)"><tspan
         style="font-variant:normal;font-weight:normal;font-size:14px;font-family:Helvetica;writing-mode:lr-tb;fill:#000000;fill-opacity:1;fill-rule:nonzero;stroke:none"
         x="0 9.3378906 17.124023 20.234375 23.344727 27.234375 35.020508 42.806641 46.696289 50.585938 57.585938 65.37207 77.03418 84.820312 88.709961 96.496094 104.28223 108.17188 115.95801 119.84766 123.7373 128.39941 136.18555 147.84766 151.7373 155.62695 163.41309"
         y="0"
         sodipodi:role="line"
         id="tspan44">Pull out some data from the</tspan></text>
    <g
       id="g45" />
    <text
       id="text45"
       xml:space="preserve"
       transform="matrix(0.95669497,0,0,0.95669497,178.76743,224.82332)"
       clip-path="url(#clipPath46)"><tspan
         style="font-variant:normal;font-weight:normal;font-size:14px;font-family:Helvetica;writing-mode:lr-tb;fill:#000000;fill-opacity:1;fill-rule:nonzero;stroke:none"
         x="0 7 10.110352 14 21.786133 26.448242 34.234375 42.020508 45.910156 52.910156 60.696289 65.358398 69.248047 77.03418 84.820312 88.709961 93.37207 101.1582 111.26855"
         y="0"
         sodipodi:role="line"
         id="tspan45">ﬁltered/sorted rows</tspan></text>
    <path
       id="path47"
       d="m 121,271 h 20 -20 13.63"
       style="fill:none;stroke:#000000;stroke-width:1;stroke-linecap:butt;stroke-linejoin:miter;stroke-miterlimit:10;stroke-dasharray:none;stroke-opacity:1"
       transform="matrix(0.95668537,0,0,0.95668537,0.47834268,0.47834268)"
       clip-path="url(#clipPath48)" />
    <path
       id="path49"
       d="m 139.88,271 -7,3.5 1.75,-3.5 -1.75,-3.5 z"
       style="fill:#000000;fill-opacity:1;fill-rule:nonzero;stroke:#000000;stroke-width:1;stroke-linecap:butt;stroke-linejoin:miter;stroke-miterlimit:10;stroke-dasharray:none;stroke-opacity:1"
       transform="matrix(0.95668537,0,0,0.95668537,0.47834268,0.47834268)"
       clip-path="url(#clipPath50)" />
    <path
       id="path51"
       d="m 1,251 h 120 v 40 H 1 Z"
       style="fill:#ffffff;fill-opacity:1;fill-rule:nonzero;stroke:#000000;stroke-width:1;stroke-linecap:butt;stroke-linejoin:miter;stroke-miterlimit:10;stroke-dasharray:none;stroke-opacity:1"
       transform="matrix(0.95668537,0,0,0.95668537,0.47834268,0.47834268)"
       clip-path="url(#clipPath52)" />
    <text
       id="text52"
       xml:space="preserve"
       transform="matrix(0.95669497,0,0,0.95669497,7.040677,258.30764)"
       clip-path="url(#clipPath53)"><tspan
         style="font-variant:normal;font-weight:normal;font-size:10px;font-family:Helvetica;writing-mode:lr-tb;fill:#000000;fill-opacity:1;fill-rule:nonzero;stroke:none"
         x="0 5.5615234 11.123047 13.901367 21.679688 27.241211 32.802734 36.132812 39.462891 42.241211 45.019531 50.581055 56.142578 58.920898 66.142578 71.704102 78.925781 86.704102 92.265625 97.827148 101.15723 104.4873"
         y="0"
         sodipodi:role="line"
         id="tspan52">getOne(), getRawOne(),</tspan></text>
    <text
       id="text53"
       xml:space="preserve"
       transform="matrix(0.95669497,0,0,0.95669497,3.0644136,269.78798)"
       clip-path="url(#clipPath54)"><tspan
         style="font-variant:normal;font-weight:normal;font-size:10px;font-family:Helvetica;writing-mode:lr-tb;fill:#000000;fill-opacity:1;fill-rule:nonzero;stroke:none"
         x="0 5.5615234 11.123047 13.901367 22.231445 27.792969 33.354492 38.354492 41.68457 45.014648 47.792969 50.571289 56.132812 61.694336 64.472656 71.694336 77.255859 84.477539 92.807617 98.369141 103.93066 108.93066 112.26074"
         y="0"
         sodipodi:role="line"
         id="tspan53">getMany(), getRawMany()</tspan></text>
    <path
       id="path55"
       d="m 141,251 h 210 v 40 H 141 Z"
       style="fill:#ffffff;fill-opacity:1;fill-rule:nonzero;stroke:#000000;stroke-width:1;stroke-linecap:butt;stroke-linejoin:miter;stroke-miterlimit:10;stroke-dasharray:none;stroke-opacity:1"
       transform="matrix(0.95668537,0,0,0.95668537,0.47834268,0.47834268)"
       clip-path="url(#clipPath56)" />
    <text
       id="text56"
       xml:space="preserve"
       transform="matrix(0.95669497,0,0,0.95669497,181.35349,264.04781)"
       clip-path="url(#clipPath57)"><tspan
         style="font-variant:normal;font-weight:normal;font-size:14px;font-family:Helvetica;writing-mode:lr-tb;fill:#000000;fill-opacity:1;fill-rule:nonzero;stroke:none"
         x="0 9.3378906 16.337891 24.124023 31.124023 38.910156 42.799805 50.585938 54.475586 58.365234 66.151367 73.9375 77.827148 85.613281 93.399414 101.18555 105.84766"
         y="0"
         sodipodi:role="line"
         id="tspan56">Execute the query</tspan></text>
  </g>
</svg>
