<?xml version="1.0" encoding="UTF-8" standalone="no"?>
<!-- Created with Inkscape (http://www.inkscape.org/) -->

<svg
   version="1.1"
   id="svg1"
   width="405.44"
   height="326.72"
   viewBox="0 0 405.44 326.72"
   sodipodi:docname="nest-1.pdf"
   xmlns:inkscape="http://www.inkscape.org/namespaces/inkscape"
   xmlns:sodipodi="http://sodipodi.sourceforge.net/DTD/sodipodi-0.dtd"
   xmlns="http://www.w3.org/2000/svg"
   xmlns:svg="http://www.w3.org/2000/svg">
  <defs
     id="defs1">
    <clipPath
       clipPathUnits="userSpaceOnUse"
       id="clipPath2">
      <path
         d="M 0,0 H 1266.6666 V 1018.7106 H 0 Z"
         transform="scale(0.33473685)"
         clip-rule="evenodd"
         id="path2" />
    </clipPath>
    <clipPath
       clipPathUnits="userSpaceOnUse"
       id="clipPath4">
      <path
         d="M 0,0 H 1266.6666 V 1012.7358 H 0 Z"
         transform="matrix(0.33473685,0,0,0.33473685,-0.49999999,-0.49999999)"
         clip-rule="evenodd"
         id="path4" />
    </clipPath>
    <clipPath
       clipPathUnits="userSpaceOnUse"
       id="clipPath5">
      <path
         d="M 0,0 H 1266.6666 V 1012.7358 H 0 Z"
         transform="matrix(0.33473351,0,0,0.33473351,-44.328125,-21.000001)"
         clip-rule="evenodd"
         id="path5" />
    </clipPath>
    <clipPath
       clipPathUnits="userSpaceOnUse"
       id="clipPath7">
      <path
         d="M 0,0 H 1266.6666 V 1012.7358 H 0 Z"
         transform="matrix(0.33473685,0,0,0.33473685,-0.49999999,-0.49999999)"
         clip-rule="evenodd"
         id="path7" />
    </clipPath>
    <clipPath
       clipPathUnits="userSpaceOnUse"
       id="clipPath9">
      <path
         d="M 0,0 H 1266.6666 V 1012.7358 H 0 Z"
         transform="matrix(0.33473685,0,0,0.33473685,-0.49999999,-0.49999999)"
         clip-rule="evenodd"
         id="path9" />
    </clipPath>
    <clipPath
       clipPathUnits="userSpaceOnUse"
       id="clipPath11">
      <path
         d="M 0,0 H 1266.6666 V 1012.7358 H 0 Z"
         transform="matrix(0.33473685,0,0,0.33473685,-0.49999999,-0.49999999)"
         clip-rule="evenodd"
         id="path11" />
    </clipPath>
    <clipPath
       clipPathUnits="userSpaceOnUse"
       id="clipPath12">
      <path
         d="M 0,0 H 1266.6666 V 1012.7358 H 0 Z"
         transform="matrix(0.33473351,0,0,0.33473351,-37.3125,-117)"
         clip-rule="evenodd"
         id="path12" />
    </clipPath>
    <clipPath
       clipPathUnits="userSpaceOnUse"
       id="clipPath14">
      <path
         d="M 0,0 H 1266.6666 V 1012.7358 H 0 Z"
         transform="matrix(0.33473685,0,0,0.33473685,-0.49999999,-0.49999999)"
         clip-rule="evenodd"
         id="path14" />
    </clipPath>
    <clipPath
       clipPathUnits="userSpaceOnUse"
       id="clipPath15">
      <path
         d="M 0,0 H 1266.6666 V 1012.7358 H 0 Z"
         transform="matrix(0.33473351,0,0,0.33473351,-39.125,-148)"
         clip-rule="evenodd"
         id="path15" />
    </clipPath>
    <clipPath
       clipPathUnits="userSpaceOnUse"
       id="clipPath17">
      <path
         d="M 0,0 H 1266.6666 V 1012.7358 H 0 Z"
         transform="matrix(0.33473685,0,0,0.33473685,-0.49999999,-0.49999999)"
         clip-rule="evenodd"
         id="path17" />
    </clipPath>
    <clipPath
       clipPathUnits="userSpaceOnUse"
       id="clipPath18">
      <path
         d="M 0,0 H 1266.6666 V 1012.7358 H 0 Z"
         transform="matrix(0.33473351,0,0,0.33473351,-143.76562,-117)"
         clip-rule="evenodd"
         id="path18" />
    </clipPath>
    <clipPath
       clipPathUnits="userSpaceOnUse"
       id="clipPath20">
      <path
         d="M 0,0 H 1266.6666 V 1012.7358 H 0 Z"
         transform="matrix(0.33473685,0,0,0.33473685,-0.49999999,-0.49999999)"
         clip-rule="evenodd"
         id="path20" />
    </clipPath>
    <clipPath
       clipPathUnits="userSpaceOnUse"
       id="clipPath22">
      <path
         d="M 0,0 H 1266.6666 V 1012.7358 H 0 Z"
         transform="matrix(0.33473685,0,0,0.33473685,-0.49999999,-0.49999999)"
         clip-rule="evenodd"
         id="path22" />
    </clipPath>
    <clipPath
       clipPathUnits="userSpaceOnUse"
       id="clipPath24">
      <path
         d="M 0,0 H 1266.6666 V 1012.7358 H 0 Z"
         transform="matrix(0.33473685,0,0,0.33473685,-0.49999999,-0.49999999)"
         clip-rule="evenodd"
         id="path24" />
    </clipPath>
    <clipPath
       clipPathUnits="userSpaceOnUse"
       id="clipPath25">
      <path
         d="M 0,0 H 1266.6666 V 1012.7358 H 0 Z"
         transform="matrix(0.33473351,0,0,0.33473351,-143.76562,-148)"
         clip-rule="evenodd"
         id="path25" />
    </clipPath>
    <clipPath
       clipPathUnits="userSpaceOnUse"
       id="clipPath27">
      <path
         d="M 0,0 H 1266.6666 V 1012.7358 H 0 Z"
         transform="matrix(0.33473685,0,0,0.33473685,-0.49999999,-0.49999999)"
         clip-rule="evenodd"
         id="path27" />
    </clipPath>
    <clipPath
       clipPathUnits="userSpaceOnUse"
       id="clipPath28">
      <path
         d="M 0,0 H 1266.6666 V 1012.7358 H 0 Z"
         transform="matrix(0.33473351,0,0,0.33473351,-30.09375,-57)"
         clip-rule="evenodd"
         id="path28" />
    </clipPath>
    <clipPath
       clipPathUnits="userSpaceOnUse"
       id="clipPath30">
      <path
         d="M 0,0 H 1266.6666 V 1012.7358 H 0 Z"
         transform="matrix(0.33473685,0,0,0.33473685,-0.49999999,-0.49999999)"
         clip-rule="evenodd"
         id="path30" />
    </clipPath>
    <clipPath
       clipPathUnits="userSpaceOnUse"
       id="clipPath32">
      <path
         d="M 0,0 H 1266.6666 V 1012.7358 H 0 Z"
         transform="matrix(0.33473685,0,0,0.33473685,-0.49999999,-0.49999999)"
         clip-rule="evenodd"
         id="path32" />
    </clipPath>
    <clipPath
       clipPathUnits="userSpaceOnUse"
       id="clipPath34">
      <path
         d="M 0,0 H 1266.6666 V 1012.7358 H 0 Z"
         transform="matrix(0.33473685,0,0,0.33473685,-0.49999999,-0.49999999)"
         clip-rule="evenodd"
         id="path34" />
    </clipPath>
    <clipPath
       clipPathUnits="userSpaceOnUse"
       id="clipPath35">
      <path
         d="M 0,0 H 1266.6666 V 1012.7358 H 0 Z"
         transform="matrix(0.33473351,0,0,0.33473351,-133.28125,-57)"
         clip-rule="evenodd"
         id="path35" />
    </clipPath>
    <clipPath
       clipPathUnits="userSpaceOnUse"
       id="clipPath37">
      <path
         d="M 0,0 H 1266.6666 V 1012.7358 H 0 Z"
         transform="matrix(0.33473685,0,0,0.33473685,-0.49999999,-0.49999999)"
         clip-rule="evenodd"
         id="path37" />
    </clipPath>
    <clipPath
       clipPathUnits="userSpaceOnUse"
       id="clipPath38">
      <path
         d="M 0,0 H 1266.6666 V 1012.7358 H 0 Z"
         transform="matrix(0.33473351,0,0,0.33473351,-28.28125,-87)"
         clip-rule="evenodd"
         id="path38" />
    </clipPath>
    <clipPath
       clipPathUnits="userSpaceOnUse"
       id="clipPath40">
      <path
         d="M 0,0 H 1266.6666 V 1012.7358 H 0 Z"
         transform="matrix(0.33473685,0,0,0.33473685,-0.49999999,-0.49999999)"
         clip-rule="evenodd"
         id="path40" />
    </clipPath>
    <clipPath
       clipPathUnits="userSpaceOnUse"
       id="clipPath42">
      <path
         d="M 0,0 H 1266.6666 V 1012.7358 H 0 Z"
         transform="matrix(0.33473685,0,0,0.33473685,-0.49999999,-0.49999999)"
         clip-rule="evenodd"
         id="path42" />
    </clipPath>
    <clipPath
       clipPathUnits="userSpaceOnUse"
       id="clipPath44">
      <path
         d="M 0,0 H 1266.6666 V 1012.7358 H 0 Z"
         transform="matrix(0.33473685,0,0,0.33473685,-0.49999999,-0.49999999)"
         clip-rule="evenodd"
         id="path44" />
    </clipPath>
    <clipPath
       clipPathUnits="userSpaceOnUse"
       id="clipPath45">
      <path
         d="M 0,0 H 1266.6666 V 1012.7358 H 0 Z"
         transform="matrix(0.33473351,0,0,0.33473351,-131.84375,-87)"
         clip-rule="evenodd"
         id="path45" />
    </clipPath>
    <clipPath
       clipPathUnits="userSpaceOnUse"
       id="clipPath47">
      <path
         d="M 0,0 H 1266.6666 V 1012.7358 H 0 Z"
         transform="matrix(0.33473685,0,0,0.33473685,-0.49999999,-0.49999999)"
         clip-rule="evenodd"
         id="path47" />
    </clipPath>
    <clipPath
       clipPathUnits="userSpaceOnUse"
       id="clipPath49">
      <path
         d="M 0,0 H 1266.6666 V 1012.7358 H 0 Z"
         transform="matrix(0.33473685,0,0,0.33473685,-0.49999999,-0.49999999)"
         clip-rule="evenodd"
         id="path49" />
    </clipPath>
    <clipPath
       clipPathUnits="userSpaceOnUse"
       id="clipPath51">
      <path
         d="M 0,0 H 1266.6666 V 1012.7358 H 0 Z"
         transform="matrix(0.33473685,0,0,0.33473685,-0.49999999,-0.49999999)"
         clip-rule="evenodd"
         id="path51" />
    </clipPath>
    <clipPath
       clipPathUnits="userSpaceOnUse"
       id="clipPath52">
      <path
         d="M 0,0 H 1266.6666 V 1012.7358 H 0 Z"
         transform="matrix(0.33473351,0,0,0.33473351,-33.34375,-177)"
         clip-rule="evenodd"
         id="path52" />
    </clipPath>
    <clipPath
       clipPathUnits="userSpaceOnUse"
       id="clipPath54">
      <path
         d="M 0,0 H 1266.6666 V 1012.7358 H 0 Z"
         transform="matrix(0.33473685,0,0,0.33473685,-0.49999999,-0.49999999)"
         clip-rule="evenodd"
         id="path54" />
    </clipPath>
    <clipPath
       clipPathUnits="userSpaceOnUse"
       id="clipPath55">
      <path
         d="M 0,0 H 1266.6666 V 1012.7358 H 0 Z"
         transform="matrix(0.33473351,0,0,0.33473351,-23.234375,-208)"
         clip-rule="evenodd"
         id="path55" />
    </clipPath>
    <clipPath
       clipPathUnits="userSpaceOnUse"
       id="clipPath57">
      <path
         d="M 0,0 H 1266.6666 V 1012.7358 H 0 Z"
         transform="matrix(0.33473685,0,0,0.33473685,-0.49999999,-0.49999999)"
         clip-rule="evenodd"
         id="path57" />
    </clipPath>
    <clipPath
       clipPathUnits="userSpaceOnUse"
       id="clipPath58">
      <path
         d="M 0,0 H 1266.6666 V 1012.7358 H 0 Z"
         transform="matrix(0.33473351,0,0,0.33473351,-136.53125,-177)"
         clip-rule="evenodd"
         id="path58" />
    </clipPath>
    <clipPath
       clipPathUnits="userSpaceOnUse"
       id="clipPath60">
      <path
         d="M 0,0 H 1266.6666 V 1012.7358 H 0 Z"
         transform="matrix(0.33473685,0,0,0.33473685,-0.49999999,-0.49999999)"
         clip-rule="evenodd"
         id="path60" />
    </clipPath>
    <clipPath
       clipPathUnits="userSpaceOnUse"
       id="clipPath62">
      <path
         d="M 0,0 H 1266.6666 V 1012.7358 H 0 Z"
         transform="matrix(0.33473685,0,0,0.33473685,-0.49999999,-0.49999999)"
         clip-rule="evenodd"
         id="path62" />
    </clipPath>
    <clipPath
       clipPathUnits="userSpaceOnUse"
       id="clipPath64">
      <path
         d="M 0,0 H 1266.6666 V 1012.7358 H 0 Z"
         transform="matrix(0.33473685,0,0,0.33473685,-0.49999999,-0.49999999)"
         clip-rule="evenodd"
         id="path64" />
    </clipPath>
    <clipPath
       clipPathUnits="userSpaceOnUse"
       id="clipPath65">
      <path
         d="M 0,0 H 1266.6666 V 1012.7358 H 0 Z"
         transform="matrix(0.33473351,0,0,0.33473351,-132.92188,-208)"
         clip-rule="evenodd"
         id="path65" />
    </clipPath>
    <clipPath
       clipPathUnits="userSpaceOnUse"
       id="clipPath67">
      <path
         d="M 0,0 H 1266.6666 V 1012.7358 H 0 Z"
         transform="matrix(-0.33473685,0,0,-0.33473685,442.50001,135.5)"
         clip-rule="evenodd"
         id="path67" />
    </clipPath>
    <clipPath
       clipPathUnits="userSpaceOnUse"
       id="clipPath69">
      <path
         d="M 0,0 H 1266.6666 V 1012.7358 H 0 Z"
         transform="matrix(-0.33473685,0,0,-0.33473685,442.50001,254.5)"
         clip-rule="evenodd"
         id="path69" />
    </clipPath>
    <clipPath
       clipPathUnits="userSpaceOnUse"
       id="clipPath71">
      <path
         d="M 0,0 H 1266.6666 V 1012.7358 H 0 Z"
         transform="matrix(-0.33473685,0,0,-0.33473685,442.50001,344.5)"
         clip-rule="evenodd"
         id="path71" />
    </clipPath>
    <clipPath
       clipPathUnits="userSpaceOnUse"
       id="clipPath73">
      <path
         d="M 0,0 H 1266.6666 V 1012.7358 H 0 Z"
         transform="matrix(-0.33473685,0,0,-0.33473685,442.50001,406.49998)"
         clip-rule="evenodd"
         id="path73" />
    </clipPath>
    <clipPath
       clipPathUnits="userSpaceOnUse"
       id="clipPath75">
      <path
         d="M 0,0 H 1266.6666 V 1012.7358 H 0 Z"
         transform="matrix(0.33473685,0,0,0.33473685,-0.49999999,-0.49999999)"
         clip-rule="evenodd"
         id="path75" />
    </clipPath>
    <clipPath
       clipPathUnits="userSpaceOnUse"
       id="clipPath76">
      <path
         d="M 0,0 H 1266.6666 V 1012.7358 H 0 Z"
         transform="matrix(0.33473351,0,0,0.33473351,-243.375,-65)"
         clip-rule="evenodd"
         id="path76" />
    </clipPath>
    <clipPath
       clipPathUnits="userSpaceOnUse"
       id="clipPath77">
      <path
         d="M 0,0 H 1266.6666 V 1012.7358 H 0 Z"
         transform="matrix(0.33473351,0,0,0.33473351,-280.59375,-81)"
         clip-rule="evenodd"
         id="path77" />
    </clipPath>
    <clipPath
       clipPathUnits="userSpaceOnUse"
       id="clipPath79">
      <path
         d="M 0,0 H 1266.6666 V 1012.7358 H 0 Z"
         transform="matrix(0.33473685,0,0,0.33473685,-0.49999999,-0.49999999)"
         clip-rule="evenodd"
         id="path79" />
    </clipPath>
    <clipPath
       clipPathUnits="userSpaceOnUse"
       id="clipPath80">
      <path
         d="M 0,0 H 1266.6666 V 1012.7358 H 0 Z"
         transform="matrix(0.33473351,0,0,0.33473351,-263.23438,-20)"
         clip-rule="evenodd"
         id="path80" />
    </clipPath>
    <clipPath
       clipPathUnits="userSpaceOnUse"
       id="clipPath81">
      <path
         d="M 0,0 H 1266.6666 V 1012.7358 H 0 Z"
         transform="matrix(0.33473351,0,0,0.33473351,-264.32814,-36)"
         clip-rule="evenodd"
         id="path81" />
    </clipPath>
    <clipPath
       clipPathUnits="userSpaceOnUse"
       id="clipPath83">
      <path
         d="M 0,0 H 1266.6666 V 1012.7358 H 0 Z"
         transform="matrix(0.33473685,0,0,0.33473685,-0.49999999,-0.49999999)"
         clip-rule="evenodd"
         id="path83" />
    </clipPath>
    <clipPath
       clipPathUnits="userSpaceOnUse"
       id="clipPath84">
      <path
         d="M 0,0 H 1266.6666 V 1012.7358 H 0 Z"
         transform="matrix(0.33473351,0,0,0.33473351,-257.64063,-132)"
         clip-rule="evenodd"
         id="path84" />
    </clipPath>
    <clipPath
       clipPathUnits="userSpaceOnUse"
       id="clipPath86">
      <path
         d="M 0,0 H 1266.6666 V 1012.7358 H 0 Z"
         transform="matrix(0.33473685,0,0,0.33473685,-0.49999999,-0.49999999)"
         clip-rule="evenodd"
         id="path86" />
    </clipPath>
    <clipPath
       clipPathUnits="userSpaceOnUse"
       id="clipPath87">
      <path
         d="M 0,0 H 1266.6666 V 1012.7358 H 0 Z"
         transform="matrix(0.33473351,0,0,0.33473351,-274.8125,-177)"
         clip-rule="evenodd"
         id="path87" />
    </clipPath>
    <clipPath
       clipPathUnits="userSpaceOnUse"
       id="clipPath89">
      <path
         d="M 0,0 H 1266.6666 V 1012.7358 H 0 Z"
         transform="matrix(0.33473685,0,0,0.33473685,-0.49999999,-0.49999999)"
         clip-rule="evenodd"
         id="path89" />
    </clipPath>
    <clipPath
       clipPathUnits="userSpaceOnUse"
       id="clipPath91">
      <path
         d="M 0,0 H 1266.6666 V 1012.7358 H 0 Z"
         transform="matrix(0.33473685,0,0,0.33473685,-0.49999999,-0.49999999)"
         clip-rule="evenodd"
         id="path91" />
    </clipPath>
    <clipPath
       clipPathUnits="userSpaceOnUse"
       id="clipPath93">
      <path
         d="M 0,0 H 1266.6666 V 1012.7358 H 0 Z"
         transform="matrix(0.33473685,0,0,0.33473685,-0.49999999,-0.49999999)"
         clip-rule="evenodd"
         id="path93" />
    </clipPath>
    <clipPath
       clipPathUnits="userSpaceOnUse"
       id="clipPath94">
      <path
         d="M 0,0 H 1266.6666 V 1012.7358 H 0 Z"
         transform="matrix(0.33473351,0,0,0.33473351,-244.10938,-208)"
         clip-rule="evenodd"
         id="path94" />
    </clipPath>
    <clipPath
       clipPathUnits="userSpaceOnUse"
       id="clipPath96">
      <path
         d="M 0,0 H 1266.6666 V 1012.7358 H 0 Z"
         transform="matrix(0.33473685,0,0,0.33473685,-0.49999999,-0.49999999)"
         clip-rule="evenodd"
         id="path96" />
    </clipPath>
    <clipPath
       clipPathUnits="userSpaceOnUse"
       id="clipPath97">
      <path
         d="M 0,0 H 1266.6666 V 1012.7358 H 0 Z"
         transform="matrix(0.33473351,0,0,0.33473351,-296.48438,-271)"
         clip-rule="evenodd"
         id="path97" />
    </clipPath>
    <clipPath
       clipPathUnits="userSpaceOnUse"
       id="clipPath99">
      <path
         d="M 0,0 H 1266.6666 V 1012.7358 H 0 Z"
         transform="matrix(0.33473685,0,0,0.33473685,-0.49999999,-0.49999999)"
         clip-rule="evenodd"
         id="path99" />
    </clipPath>
    <clipPath
       clipPathUnits="userSpaceOnUse"
       id="clipPath100">
      <path
         d="M 0,0 H 1266.6666 V 1012.7358 H 0 Z"
         transform="matrix(0.33473351,0,0,0.33473351,-226.48438,-271)"
         clip-rule="evenodd"
         id="path100" />
    </clipPath>
    <clipPath
       clipPathUnits="userSpaceOnUse"
       id="clipPath102">
      <path
         d="M 0,0 H 1266.6666 V 1012.7358 H 0 Z"
         transform="matrix(0.33473685,0,0,0.33473685,-0.49999999,-0.49999999)"
         clip-rule="evenodd"
         id="path102" />
    </clipPath>
    <clipPath
       clipPathUnits="userSpaceOnUse"
       id="clipPath103">
      <path
         d="M 0,0 H 1266.6666 V 1012.7358 H 0 Z"
         transform="matrix(0.33473351,0,0,0.33473351,-366.48438,-271)"
         clip-rule="evenodd"
         id="path103" />
    </clipPath>
    <clipPath
       clipPathUnits="userSpaceOnUse"
       id="clipPath105">
      <path
         d="M 0,0 H 1266.6666 V 1012.7358 H 0 Z"
         transform="matrix(0,0.33473685,-0.33473685,0,612.49999,-20.5)"
         clip-rule="evenodd"
         id="path105" />
    </clipPath>
    <clipPath
       clipPathUnits="userSpaceOnUse"
       id="clipPath106">
      <path
         d="M 0,0 H 1266.6666 V 1012.7358 H 0 Z"
         transform="matrix(0.33473351,0,0,0.33473351,-231.59375,-318)"
         clip-rule="evenodd"
         id="path106" />
    </clipPath>
    <clipPath
       clipPathUnits="userSpaceOnUse"
       id="clipPath107">
      <path
         d="M 0,0 H 1266.6666 V 1012.7358 H 0 Z"
         transform="matrix(0.33473351,0,0,0.33473351,-248.5625,-334)"
         clip-rule="evenodd"
         id="path107" />
    </clipPath>
  </defs>
  <sodipodi:namedview
     id="namedview1"
     pagecolor="#ffffff"
     bordercolor="#000000"
     borderopacity="0.25"
     inkscape:showpageshadow="2"
     inkscape:pageopacity="0.0"
     inkscape:pagecheckerboard="0"
     inkscape:deskcolor="#d1d1d1">
    <inkscape:page
       x="0"
       y="0"
       inkscape:label="1"
       id="page1"
       width="405.44"
       height="326.72"
       margin="0"
       bleed="0" />
  </sodipodi:namedview>
  <g
     id="g1"
     inkscape:groupmode="layer"
     inkscape:label="1">
    <path
       id="path1"
       d="M 0,0 H 424 V 341 H 0 Z"
       style="fill:#ffffff;fill-opacity:1;fill-rule:nonzero;stroke:none"
       transform="scale(0.95597478)"
       clip-path="url(#clipPath2)" />
    <path
       id="path3"
       d="M 1,1 H 191 V 31 H 1 Z"
       style="fill:#f5f5f5;fill-opacity:1;fill-rule:nonzero;stroke:#666666;stroke-width:1;stroke-linecap:butt;stroke-linejoin:miter;stroke-miterlimit:10;stroke-dasharray:none;stroke-opacity:1"
       transform="matrix(0.95597478,0,0,0.95597478,0.47798738,0.47798738)"
       clip-path="url(#clipPath4)" />
    <text
       id="text4"
       xml:space="preserve"
       transform="matrix(0.95598431,0,0,0.95598431,42.376992,20.075671)"
       clip-path="url(#clipPath5)"><tspan
         style="font-variant:normal;font-weight:700;font-size:13px;font-family:Helvetica;writing-mode:lr-tb;fill:#333333;fill-opacity:1;fill-rule:nonzero;stroke:none"
         x="0 8.6708984 15.900879 20.22998 23.841797 35.400879 42.630859 46.959961 54.189941 57.801758 67.189941 72.249023 75.86084 80.189941 87.419922 92.479004 96.09082"
         y="0"
         sodipodi:role="line"
         id="tspan4">Estimate Criteria</tspan></text>
    <path
       id="path6"
       d="m 91,112.25 13.63,0.03"
       style="fill:none;stroke:#000000;stroke-width:1;stroke-linecap:butt;stroke-linejoin:miter;stroke-miterlimit:10;stroke-dasharray:none;stroke-opacity:1"
       transform="matrix(0.95597478,0,0,0.95597478,0.47798738,0.47798738)"
       clip-path="url(#clipPath7)" />
    <path
       id="path8"
       d="m 109.88,112.3 -7.01,3.48 1.76,-3.5 -1.74,-3.5 z"
       style="fill:#000000;fill-opacity:1;fill-rule:nonzero;stroke:#000000;stroke-width:1;stroke-linecap:butt;stroke-linejoin:miter;stroke-miterlimit:10;stroke-dasharray:none;stroke-opacity:1"
       transform="matrix(0.95597478,0,0,0.95597478,0.47798738,0.47798738)"
       clip-path="url(#clipPath9)" />
    <path
       id="path10"
       d="m 1,101 h 90 v 22.5 H 1 Z"
       style="fill:#ffffff;fill-opacity:1;fill-rule:nonzero;stroke:#000000;stroke-width:1;stroke-linecap:butt;stroke-linejoin:miter;stroke-miterlimit:10;stroke-dasharray:none;stroke-opacity:1"
       transform="matrix(0.95597478,0,0,0.95597478,0.47798738,0.47798738)"
       clip-path="url(#clipPath11)" />
    <text
       id="text11"
       xml:space="preserve"
       transform="matrix(0.95598431,0,0,0.95598431,35.670165,111.85016)"
       clip-path="url(#clipPath12)"><tspan
         style="font-variant:normal;font-weight:normal;font-size:13px;font-family:Helvetica;writing-mode:lr-tb;fill:#000000;fill-opacity:1;fill-rule:nonzero;stroke:none"
         x="0 2.8881836 10.118164"
         y="0"
         sodipodi:role="line"
         id="tspan11">lng</tspan></text>
    <path
       id="path13"
       d="M 1,131.5 H 91 V 154 H 1 Z"
       style="fill:#ffffff;fill-opacity:1;fill-rule:nonzero;stroke:#000000;stroke-width:1;stroke-linecap:butt;stroke-linejoin:miter;stroke-miterlimit:10;stroke-dasharray:none;stroke-opacity:1"
       transform="matrix(0.95597478,0,0,0.95597478,0.47798738,0.47798738)"
       clip-path="url(#clipPath14)" />
    <text
       id="text14"
       xml:space="preserve"
       transform="matrix(0.95598431,0,0,0.95598431,37.402886,141.48568)"
       clip-path="url(#clipPath15)"><tspan
         style="font-variant:normal;font-weight:normal;font-size:13px;font-family:Helvetica;writing-mode:lr-tb;fill:#000000;fill-opacity:1;fill-rule:nonzero;stroke:none"
         x="0 2.8881836 10.118164"
         y="0"
         sodipodi:role="line"
         id="tspan14">lat</tspan></text>
    <path
       id="path16"
       d="m 111,101 h 80 v 22.5 h -80 z"
       style="fill:#ffffff;fill-opacity:1;fill-rule:nonzero;stroke:#000000;stroke-width:1;stroke-linecap:butt;stroke-linejoin:miter;stroke-miterlimit:10;stroke-dasharray:none;stroke-opacity:1"
       transform="matrix(0.95597478,0,0,0.95597478,0.47798738,0.47798738)"
       clip-path="url(#clipPath17)" />
    <text
       id="text17"
       xml:space="preserve"
       transform="matrix(0.95598431,0,0,0.95598431,137.43768,111.85016)"
       clip-path="url(#clipPath18)"><tspan
         style="font-variant:normal;font-weight:normal;font-size:13px;font-family:Helvetica;writing-mode:lr-tb;fill:#000000;fill-opacity:1;fill-rule:nonzero;stroke:none"
         x="0 7.2299805"
         y="0"
         sodipodi:role="line"
         id="tspan17">45</tspan></text>
    <path
       id="path19"
       d="m 91,142.75 14.63,0.38"
       style="fill:none;stroke:#000000;stroke-width:1;stroke-linecap:butt;stroke-linejoin:miter;stroke-miterlimit:10;stroke-dasharray:none;stroke-opacity:1"
       transform="matrix(0.95597478,0,0,0.95597478,0.47798738,0.47798738)"
       clip-path="url(#clipPath20)" />
    <path
       id="path21"
       d="m 110.88,143.27 -7.09,3.32 1.84,-3.46 -1.65,-3.54 z"
       style="fill:#000000;fill-opacity:1;fill-rule:nonzero;stroke:#000000;stroke-width:1;stroke-linecap:butt;stroke-linejoin:miter;stroke-miterlimit:10;stroke-dasharray:none;stroke-opacity:1"
       transform="matrix(0.95597478,0,0,0.95597478,0.47798738,0.47798738)"
       clip-path="url(#clipPath22)" />
    <path
       id="path23"
       d="m 111,131.5 h 80 V 154 h -80 z"
       style="fill:#ffffff;fill-opacity:1;fill-rule:nonzero;stroke:#000000;stroke-width:1;stroke-linecap:butt;stroke-linejoin:miter;stroke-miterlimit:10;stroke-dasharray:none;stroke-opacity:1"
       transform="matrix(0.95597478,0,0,0.95597478,0.47798738,0.47798738)"
       clip-path="url(#clipPath24)" />
    <text
       id="text24"
       xml:space="preserve"
       transform="matrix(0.95598431,0,0,0.95598431,137.43768,141.48568)"
       clip-path="url(#clipPath25)"><tspan
         style="font-variant:normal;font-weight:normal;font-size:13px;font-family:Helvetica;writing-mode:lr-tb;fill:#000000;fill-opacity:1;fill-rule:nonzero;stroke:none"
         x="0 7.2299805"
         y="0"
         sodipodi:role="line"
         id="tspan24">45</tspan></text>
    <path
       id="path26"
       d="M 1,41 H 91 V 63.5 H 1 Z"
       style="fill:#ffffff;fill-opacity:1;fill-rule:nonzero;stroke:#000000;stroke-width:1;stroke-linecap:butt;stroke-linejoin:miter;stroke-miterlimit:10;stroke-dasharray:none;stroke-opacity:1"
       transform="matrix(0.95597478,0,0,0.95597478,0.47798738,0.47798738)"
       clip-path="url(#clipPath27)" />
    <text
       id="text27"
       xml:space="preserve"
       transform="matrix(0.95598431,0,0,0.95598431,28.769153,54.491106)"
       clip-path="url(#clipPath28)"><tspan
         style="font-variant:normal;font-weight:normal;font-size:13px;font-family:Helvetica;writing-mode:lr-tb;fill:#000000;fill-opacity:1;fill-rule:nonzero;stroke:none"
         x="0 10.829102 18.059082 24.559082"
         y="0"
         sodipodi:role="line"
         id="tspan27">make</tspan></text>
    <path
       id="path29"
       d="m 91,52.25 14.63,0.380001"
       style="fill:none;stroke:#000000;stroke-width:1;stroke-linecap:butt;stroke-linejoin:miter;stroke-miterlimit:10;stroke-dasharray:none;stroke-opacity:1"
       transform="matrix(0.95597478,0,0,0.95597478,0.47798738,0.47798738)"
       clip-path="url(#clipPath30)" />
    <path
       id="path31"
       d="m 110.88,52.77 -7.09,3.32 1.84,-3.459999 L 103.98,49.09 Z"
       style="fill:#000000;fill-opacity:1;fill-rule:nonzero;stroke:#000000;stroke-width:1;stroke-linecap:butt;stroke-linejoin:miter;stroke-miterlimit:10;stroke-dasharray:none;stroke-opacity:1"
       transform="matrix(0.95597478,0,0,0.95597478,0.47798738,0.47798738)"
       clip-path="url(#clipPath32)" />
    <path
       id="path33"
       d="m 111,41 h 80 v 22.5 h -80 z"
       style="fill:#ffffff;fill-opacity:1;fill-rule:nonzero;stroke:#000000;stroke-width:1;stroke-linecap:butt;stroke-linejoin:miter;stroke-miterlimit:10;stroke-dasharray:none;stroke-opacity:1"
       transform="matrix(0.95597478,0,0,0.95597478,0.47798738,0.47798738)"
       clip-path="url(#clipPath34)" />
    <text
       id="text34"
       xml:space="preserve"
       transform="matrix(0.95598431,0,0,0.95598431,127.41478,54.491106)"
       clip-path="url(#clipPath35)"><tspan
         style="font-variant:normal;font-weight:normal;font-size:13px;font-family:Helvetica;writing-mode:lr-tb;fill:#000000;fill-opacity:1;fill-rule:nonzero;stroke:none"
         x="0 3.6118164 10.841797 17.341797 24.571777 28.183594"
         y="0"
         sodipodi:role="line"
         id="tspan34">toyota</tspan></text>
    <path
       id="path36"
       d="M 1,71 H 91 V 93.5 H 1 Z"
       style="fill:#ffffff;fill-opacity:1;fill-rule:nonzero;stroke:#000000;stroke-width:1;stroke-linecap:butt;stroke-linejoin:miter;stroke-miterlimit:10;stroke-dasharray:none;stroke-opacity:1"
       transform="matrix(0.95597478,0,0,0.95597478,0.47798738,0.47798738)"
       clip-path="url(#clipPath37)" />
    <text
       id="text37"
       xml:space="preserve"
       transform="matrix(0.95598431,0,0,0.95598431,27.036431,83.170635)"
       clip-path="url(#clipPath38)"><tspan
         style="font-variant:normal;font-weight:normal;font-size:13px;font-family:Helvetica;writing-mode:lr-tb;fill:#000000;fill-opacity:1;fill-rule:nonzero;stroke:none"
         x="0 10.829102 18.059082 25.289062 32.519043"
         y="0"
         sodipodi:role="line"
         id="tspan37">model</tspan></text>
    <path
       id="path39"
       d="m 91,82.25 14.63,0.379997"
       style="fill:none;stroke:#000000;stroke-width:1;stroke-linecap:butt;stroke-linejoin:miter;stroke-miterlimit:10;stroke-dasharray:none;stroke-opacity:1"
       transform="matrix(0.95597478,0,0,0.95597478,0.47798738,0.47798738)"
       clip-path="url(#clipPath40)" />
    <path
       id="path41"
       d="m 110.88,82.769997 -7.09,3.319999 1.84,-3.459999 -1.65,-3.540001 z"
       style="fill:#000000;fill-opacity:1;fill-rule:nonzero;stroke:#000000;stroke-width:1;stroke-linecap:butt;stroke-linejoin:miter;stroke-miterlimit:10;stroke-dasharray:none;stroke-opacity:1"
       transform="matrix(0.95597478,0,0,0.95597478,0.47798738,0.47798738)"
       clip-path="url(#clipPath42)" />
    <path
       id="path43"
       d="m 111,71 h 80 v 22.5 h -80 z"
       style="fill:#ffffff;fill-opacity:1;fill-rule:nonzero;stroke:#000000;stroke-width:1;stroke-linecap:butt;stroke-linejoin:miter;stroke-miterlimit:10;stroke-dasharray:none;stroke-opacity:1"
       transform="matrix(0.95597478,0,0,0.95597478,0.47798738,0.47798738)"
       clip-path="url(#clipPath44)" />
    <text
       id="text44"
       xml:space="preserve"
       transform="matrix(0.95598431,0,0,0.95598431,126.04056,83.170635)"
       clip-path="url(#clipPath45)"><tspan
         style="font-variant:normal;font-weight:normal;font-size:13px;font-family:Helvetica;writing-mode:lr-tb;fill:#000000;fill-opacity:1;fill-rule:nonzero;stroke:none"
         x="0 6.5 13.72998 18.059082 25.289062 28.177246 31.06543"
         y="0"
         sodipodi:role="line"
         id="tspan44">corolla</tspan></text>
    <path
       id="path46"
       d="m 91,172.25 13.63,0.03"
       style="fill:none;stroke:#000000;stroke-width:1;stroke-linecap:butt;stroke-linejoin:miter;stroke-miterlimit:10;stroke-dasharray:none;stroke-opacity:1"
       transform="matrix(0.95597478,0,0,0.95597478,0.47798738,0.47798738)"
       clip-path="url(#clipPath47)" />
    <path
       id="path48"
       d="m 109.88,172.3 -7.01,3.48 1.76,-3.5 -1.74,-3.5 z"
       style="fill:#000000;fill-opacity:1;fill-rule:nonzero;stroke:#000000;stroke-width:1;stroke-linecap:butt;stroke-linejoin:miter;stroke-miterlimit:10;stroke-dasharray:none;stroke-opacity:1"
       transform="matrix(0.95597478,0,0,0.95597478,0.47798738,0.47798738)"
       clip-path="url(#clipPath49)" />
    <path
       id="path50"
       d="m 1,161 h 90 v 22.5 H 1 Z"
       style="fill:#ffffff;fill-opacity:1;fill-rule:nonzero;stroke:#000000;stroke-width:1;stroke-linecap:butt;stroke-linejoin:miter;stroke-miterlimit:10;stroke-dasharray:none;stroke-opacity:1"
       transform="matrix(0.95597478,0,0,0.95597478,0.47798738,0.47798738)"
       clip-path="url(#clipPath51)" />
    <text
       id="text51"
       xml:space="preserve"
       transform="matrix(0.95598431,0,0,0.95598431,31.876102,169.20922)"
       clip-path="url(#clipPath52)"><tspan
         style="font-variant:normal;font-weight:normal;font-size:13px;font-family:Helvetica;writing-mode:lr-tb;fill:#000000;fill-opacity:1;fill-rule:nonzero;stroke:none"
         x="0 6.5 13.72998 20.959961"
         y="0"
         sodipodi:role="line"
         id="tspan51">year</tspan></text>
    <path
       id="path53"
       d="M 1,191.5 H 91 V 214 H 1 Z"
       style="fill:#ffffff;fill-opacity:1;fill-rule:nonzero;stroke:#000000;stroke-width:1;stroke-linecap:butt;stroke-linejoin:miter;stroke-miterlimit:10;stroke-dasharray:none;stroke-opacity:1"
       transform="matrix(0.95597478,0,0,0.95597478,0.47798738,0.47798738)"
       clip-path="url(#clipPath54)" />
    <text
       id="text54"
       xml:space="preserve"
       transform="matrix(0.95598431,0,0,0.95598431,22.211698,198.84474)"
       clip-path="url(#clipPath55)"><tspan
         style="font-variant:normal;font-weight:normal;font-size:13px;font-family:Helvetica;writing-mode:lr-tb;fill:#000000;fill-opacity:1;fill-rule:nonzero;stroke:none"
         x="0 10.829102 13.717285 16.605469 23.835449 31.06543 38.29541"
         y="0"
         sodipodi:role="line"
         id="tspan54">mileage</tspan></text>
    <path
       id="path56"
       d="m 111,161 h 80 v 22.5 h -80 z"
       style="fill:#ffffff;fill-opacity:1;fill-rule:nonzero;stroke:#000000;stroke-width:1;stroke-linecap:butt;stroke-linejoin:miter;stroke-miterlimit:10;stroke-dasharray:none;stroke-opacity:1"
       transform="matrix(0.95597478,0,0,0.95597478,0.47798738,0.47798738)"
       clip-path="url(#clipPath57)" />
    <text
       id="text57"
       xml:space="preserve"
       transform="matrix(0.95598431,0,0,0.95598431,130.52173,169.20922)"
       clip-path="url(#clipPath58)"><tspan
         style="font-variant:normal;font-weight:normal;font-size:13px;font-family:Helvetica;writing-mode:lr-tb;fill:#000000;fill-opacity:1;fill-rule:nonzero;stroke:none"
         x="0 7.2299805 14.459961 21.689941"
         y="0"
         sodipodi:role="line"
         id="tspan57">1980</tspan></text>
    <path
       id="path59"
       d="m 91,202.75 14.63,0.38"
       style="fill:none;stroke:#000000;stroke-width:1;stroke-linecap:butt;stroke-linejoin:miter;stroke-miterlimit:10;stroke-dasharray:none;stroke-opacity:1"
       transform="matrix(0.95597478,0,0,0.95597478,0.47798738,0.47798738)"
       clip-path="url(#clipPath60)" />
    <path
       id="path61"
       d="m 110.88,203.27 -7.09,3.32 1.84,-3.46 -1.65,-3.54 z"
       style="fill:#000000;fill-opacity:1;fill-rule:nonzero;stroke:#000000;stroke-width:1;stroke-linecap:butt;stroke-linejoin:miter;stroke-miterlimit:10;stroke-dasharray:none;stroke-opacity:1"
       transform="matrix(0.95597478,0,0,0.95597478,0.47798738,0.47798738)"
       clip-path="url(#clipPath62)" />
    <path
       id="path63"
       d="m 111,191.5 h 80 V 214 h -80 z"
       style="fill:#ffffff;fill-opacity:1;fill-rule:nonzero;stroke:#000000;stroke-width:1;stroke-linecap:butt;stroke-linejoin:miter;stroke-miterlimit:10;stroke-dasharray:none;stroke-opacity:1"
       transform="matrix(0.95597478,0,0,0.95597478,0.47798738,0.47798738)"
       clip-path="url(#clipPath64)" />
    <text
       id="text64"
       xml:space="preserve"
       transform="matrix(0.95598431,0,0,0.95598431,127.07123,198.84474)"
       clip-path="url(#clipPath65)"><tspan
         style="font-variant:normal;font-weight:normal;font-size:13px;font-family:Helvetica;writing-mode:lr-tb;fill:#000000;fill-opacity:1;fill-rule:nonzero;stroke:none"
         x="0 7.2299805 14.459961 21.689941 28.919922"
         y="0"
         sodipodi:role="line"
         id="tspan64">20000</tspan></text>
    <path
       id="path66"
       d="m 241,41.5 h -10 c -6.66667,0 -10,3.333332 -10,10 v 8 c 0,5.333336 -3.33333,8 -10,8 h -5 c -3.33333,0 -1.66667,0 5,0 h 5 c 3.33333,0 5,3.333336 5,10 v 8 c 0,5.333336 3.33333,8 10,8 h 10"
       style="fill:none;stroke:#000000;stroke-width:1;stroke-linecap:butt;stroke-linejoin:miter;stroke-miterlimit:10;stroke-dasharray:none;stroke-opacity:1"
       transform="matrix(-0.95597478,0,0,-0.95597478,423.01885,129.53458)"
       clip-path="url(#clipPath67)" />
    <path
       id="path68"
       d="m 241,101 h -10 c -6.66667,0 -10,3.33334 -10,10 v 8 c 0,5.33334 -3.33333,8 -10,8 h -5 c -3.33333,0 -1.66667,0 5,0 h 5 c 3.33333,0 5,3.33333 5,10 v 8 c 0,5.33333 3.33333,8 10,8 h 10"
       style="fill:none;stroke:#000000;stroke-width:1;stroke-linecap:butt;stroke-linejoin:miter;stroke-miterlimit:10;stroke-dasharray:none;stroke-opacity:1"
       transform="matrix(-0.95597478,0,0,-0.95597478,423.01885,243.29558)"
       clip-path="url(#clipPath69)" />
    <path
       id="path70"
       d="m 241,161 h -10 c -6.66667,0 -10,1.83333 -10,5.5 v 2.75 c 0,1.83333 -3.33333,2.75 -10,2.75 h -5 c -3.33333,0 -1.66667,0 5,0 h 5 c 3.33333,0 5,1.83333 5,5.5 v 2.75 c 0,1.83333 3.33333,2.75 10,2.75 h 10"
       style="fill:none;stroke:#000000;stroke-width:1;stroke-linecap:butt;stroke-linejoin:miter;stroke-miterlimit:10;stroke-dasharray:none;stroke-opacity:1"
       transform="matrix(-0.95597478,0,0,-0.95597478,423.01885,329.33331)"
       clip-path="url(#clipPath71)" />
    <path
       id="path72"
       d="m 241,192 h -10 c -6.66667,0 -10,1.83333 -10,5.5 v 2.75 c 0,1.83333 -3.33333,2.75 -10,2.75 h -5 c -3.33333,0 -1.66667,0 5,0 h 5 c 3.33333,0 5,1.83333 5,5.5 v 2.75 c 0,1.83333 3.33333,2.75 10,2.75 h 10"
       style="fill:none;stroke:#000000;stroke-width:1;stroke-linecap:butt;stroke-linejoin:miter;stroke-miterlimit:10;stroke-dasharray:none;stroke-opacity:1"
       transform="matrix(-0.95597478,0,0,-0.95597478,423.01885,388.60373)"
       clip-path="url(#clipPath73)" />
    <path
       id="path74"
       d="M 241,49 H 391 V 86 H 241 Z"
       style="fill:#dae8fc;fill-opacity:1;fill-rule:nonzero;stroke:#6c8ebf;stroke-width:1;stroke-linecap:butt;stroke-linejoin:miter;stroke-miterlimit:10;stroke-dasharray:none;stroke-opacity:1"
       transform="matrix(0.95597478,0,0,0.95597478,0.47798738,0.47798738)"
       clip-path="url(#clipPath75)" />
    <text
       id="text75"
       xml:space="preserve"
       transform="matrix(0.95598431,0,0,0.95598431,232.66268,62.13898)"
       clip-path="url(#clipPath76)"><tspan
         style="font-variant:normal;font-weight:normal;font-size:13px;font-family:Helvetica;writing-mode:lr-tb;fill:#000000;fill-opacity:1;fill-rule:nonzero;stroke:none"
         x="0 7.940918 10.829102 18.059082 25.289062 28.900879 33.22998 40.459961 47.689941 54.919922 59.249023 62.86084 69.36084 72.972656 76.584473 83.814453 88.143555 91.755371 95.367188 102.59717 109.82715 113.43896 119.93896 127.16895 137.99805"
         y="0"
         sodipodi:role="line"
         id="tspan75">Find reports for the same</tspan></text>
    <text
       id="text76"
       xml:space="preserve"
       transform="matrix(0.95598431,0,0,0.95598431,268.24322,77.434729)"
       clip-path="url(#clipPath77)"><tspan
         style="font-variant:normal;font-weight:normal;font-size:13px;font-family:Helvetica;writing-mode:lr-tb;fill:#000000;fill-opacity:1;fill-rule:nonzero;stroke:none"
         x="0 10.829102 18.059082 24.559082 31.789062 35.400879 46.22998 53.459961 60.689941 67.919922"
         y="0"
         sodipodi:role="line"
         id="tspan76">make/model</tspan></text>
    <path
       id="path78"
       d="m 241,4.5 h 150 v 37 H 241 Z"
       style="fill:#dae8fc;fill-opacity:1;fill-rule:nonzero;stroke:#6c8ebf;stroke-width:1;stroke-linecap:butt;stroke-linejoin:miter;stroke-miterlimit:10;stroke-dasharray:none;stroke-opacity:1"
       transform="matrix(0.95597478,0,0,0.95597478,0.47798738,0.47798738)"
       clip-path="url(#clipPath79)" />
    <text
       id="text79"
       xml:space="preserve"
       transform="matrix(0.95598431,0,0,0.95598431,251.64794,19.119686)"
       clip-path="url(#clipPath80)"><tspan
         style="font-variant:normal;font-weight:normal;font-size:13px;font-family:Helvetica;writing-mode:lr-tb;fill:#000000;fill-opacity:1;fill-rule:nonzero;stroke:none"
         x="0 8.6708984 15.900879 23.130859 27.459961 33.959961 41.189941 44.801758 48.413574 55.643555 59.972656 67.202637 74.432617 81.662598 88.892578 92.504395 99.734375 102.62256"
         y="0"
         sodipodi:role="line"
         id="tspan79">Search through all</tspan></text>
    <text
       id="text80"
       xml:space="preserve"
       transform="matrix(0.95598431,0,0,0.95598431,252.69355,34.415435)"
       clip-path="url(#clipPath81)"><tspan
         style="font-variant:normal;font-weight:normal;font-size:13px;font-family:Helvetica;writing-mode:lr-tb;fill:#000000;fill-opacity:1;fill-rule:nonzero;stroke:none"
         x="0 4.3291016 11.559082 18.789062 26.019043 30.348145 33.959961 40.459961 44.071777 53.459961 60.689941 64.301758 71.531738 78.761719 85.261719 92.491699 96.103516 99.715332"
         y="0"
         sodipodi:role="line"
         id="tspan80">reports we have...</tspan></text>
    <path
       id="path82"
       d="m 241,108.5 h 150 v 37 H 241 Z"
       style="fill:#dae8fc;fill-opacity:1;fill-rule:nonzero;stroke:#6c8ebf;stroke-width:1;stroke-linecap:butt;stroke-linejoin:miter;stroke-miterlimit:10;stroke-dasharray:none;stroke-opacity:1"
       transform="matrix(0.95597478,0,0,0.95597478,0.47798738,0.47798738)"
       clip-path="url(#clipPath83)" />
    <text
       id="text83"
       xml:space="preserve"
       transform="matrix(0.95598431,0,0,0.95598431,246.3004,126.18993)"
       clip-path="url(#clipPath84)"><tspan
         style="font-variant:normal;font-weight:normal;font-size:13px;font-family:Helvetica;writing-mode:lr-tb;fill:#000000;fill-opacity:1;fill-rule:nonzero;stroke:none"
         x="0 12.27002 15.158203 18.77002 26 28.888184 36.118164 39.72998 47.321777 50.933594 55.262695 58.874512 66.104492 69.716309 76.946289 84.17627 91.40625 95.735352 102.96533 110.19531"
         y="0"
         sodipodi:role="line"
         id="tspan83">Within +/- 5 degrees</tspan></text>
    <path
       id="path85"
       d="M 241,160.5 H 391 V 184 H 241 Z"
       style="fill:#dae8fc;fill-opacity:1;fill-rule:nonzero;stroke:#6c8ebf;stroke-width:1;stroke-linecap:butt;stroke-linejoin:miter;stroke-miterlimit:10;stroke-dasharray:none;stroke-opacity:1"
       transform="matrix(0.95597478,0,0,0.95597478,0.47798738,0.47798738)"
       clip-path="url(#clipPath86)" />
    <text
       id="text86"
       xml:space="preserve"
       transform="matrix(0.95598431,0,0,0.95598431,262.71644,169.20922)"
       clip-path="url(#clipPath87)"><tspan
         style="font-variant:normal;font-weight:normal;font-size:13px;font-family:Helvetica;writing-mode:lr-tb;fill:#000000;fill-opacity:1;fill-rule:nonzero;stroke:none"
         x="0 12.27002 15.158203 18.77002 26 28.888184 36.118164 39.72998 46.959961 50.571777 57.071777 64.301758 71.531738 75.86084"
         y="0"
         sodipodi:role="line"
         id="tspan86">Within 3 years</tspan></text>
    <path
       id="path88"
       d="m 316,214.5 v 30.13"
       style="fill:none;stroke:#000000;stroke-width:1;stroke-linecap:butt;stroke-linejoin:miter;stroke-miterlimit:10;stroke-dasharray:none;stroke-opacity:1"
       transform="matrix(0.95597478,0,0,0.95597478,0.47798738,0.47798738)"
       clip-path="url(#clipPath89)" />
    <path
       id="path90"
       d="m 316,249.88 -3.5,-7 3.5,1.75 3.5,-1.75 z"
       style="fill:#000000;fill-opacity:1;fill-rule:nonzero;stroke:#000000;stroke-width:1;stroke-linecap:butt;stroke-linejoin:miter;stroke-miterlimit:10;stroke-dasharray:none;stroke-opacity:1"
       transform="matrix(0.95597478,0,0,0.95597478,0.47798738,0.47798738)"
       clip-path="url(#clipPath91)" />
    <path
       id="path92"
       d="m 241,191 h 150 v 23.5 H 241 Z"
       style="fill:#dae8fc;fill-opacity:1;fill-rule:nonzero;stroke:#6c8ebf;stroke-width:1;stroke-linecap:butt;stroke-linejoin:miter;stroke-miterlimit:10;stroke-dasharray:none;stroke-opacity:1"
       transform="matrix(0.95597478,0,0,0.95597478,0.47798738,0.47798738)"
       clip-path="url(#clipPath93)" />
    <text
       id="text93"
       xml:space="preserve"
       transform="matrix(0.95598431,0,0,0.95598431,233.36474,198.84474)"
       clip-path="url(#clipPath94)"><tspan
         style="font-variant:normal;font-weight:normal;font-size:13px;font-family:Helvetica;writing-mode:lr-tb;fill:#000000;fill-opacity:1;fill-rule:nonzero;stroke:none"
         x="0 10.111816 14.440918 21.670898 28.900879 33.22998 36.841797 44.071777 50.571777 54.183594 60.683594 63.571777 70.801758 77.301758 84.531738 91.031738 94.643555 98.255371 109.08447 111.97266 114.86084 122.09082 129.3208 136.55078"
         y="0"
         sodipodi:role="line"
         id="tspan93">Order by closest mileage</tspan></text>
    <path
       id="path95"
       d="m 281,251 h 70 v 30 h -70 z"
       style="fill:#ffffff;fill-opacity:1;fill-rule:nonzero;stroke:#000000;stroke-width:1;stroke-linecap:butt;stroke-linejoin:miter;stroke-miterlimit:10;stroke-dasharray:none;stroke-opacity:1"
       transform="matrix(0.95597478,0,0,0.95597478,0.47798738,0.47798738)"
       clip-path="url(#clipPath96)" />
    <text
       id="text96"
       xml:space="preserve"
       transform="matrix(0.95598431,0,0,0.95598431,283.43442,259.07175)"
       clip-path="url(#clipPath97)"><tspan
         style="font-variant:normal;font-weight:normal;font-size:13px;font-family:Helvetica;writing-mode:lr-tb;fill:#000000;fill-opacity:1;fill-rule:nonzero;stroke:none"
         x="0 9.3881836 16.618164 23.848145 31.078125 35.407227"
         y="0"
         sodipodi:role="line"
         id="tspan96">Report</tspan></text>
    <path
       id="path98"
       d="m 211,251 h 70 v 30 h -70 z"
       style="fill:#ffffff;fill-opacity:1;fill-rule:nonzero;stroke:#000000;stroke-width:1;stroke-linecap:butt;stroke-linejoin:miter;stroke-miterlimit:10;stroke-dasharray:none;stroke-opacity:1"
       transform="matrix(0.95597478,0,0,0.95597478,0.47798738,0.47798738)"
       clip-path="url(#clipPath99)" />
    <text
       id="text99"
       xml:space="preserve"
       transform="matrix(0.95598431,0,0,0.95598431,216.51551,259.07175)"
       clip-path="url(#clipPath100)"><tspan
         style="font-variant:normal;font-weight:normal;font-size:13px;font-family:Helvetica;writing-mode:lr-tb;fill:#000000;fill-opacity:1;fill-rule:nonzero;stroke:none"
         x="0 9.3881836 16.618164 23.848145 31.078125 35.407227"
         y="0"
         sodipodi:role="line"
         id="tspan99">Report</tspan></text>
    <path
       id="path101"
       d="m 351,251 h 70 v 30 h -70 z"
       style="fill:#ffffff;fill-opacity:1;fill-rule:nonzero;stroke:#000000;stroke-width:1;stroke-linecap:butt;stroke-linejoin:miter;stroke-miterlimit:10;stroke-dasharray:none;stroke-opacity:1"
       transform="matrix(0.95597478,0,0,0.95597478,0.47798738,0.47798738)"
       clip-path="url(#clipPath102)" />
    <text
       id="text102"
       xml:space="preserve"
       transform="matrix(0.95598431,0,0,0.95598431,350.35332,259.07175)"
       clip-path="url(#clipPath103)"><tspan
         style="font-variant:normal;font-weight:normal;font-size:13px;font-family:Helvetica;writing-mode:lr-tb;fill:#000000;fill-opacity:1;fill-rule:nonzero;stroke:none"
         x="0 9.3881836 16.618164 23.848145 31.078125 35.407227"
         y="0"
         sodipodi:role="line"
         id="tspan102">Report</tspan></text>
    <path
       id="path104"
       d="m 326,191 h -5 c -3.33334,0 -5,3.33333 -5,10 v 85 c 0,6.66666 -1.66666,10 -5,10 h -2.5 c -1.66666,0 -0.83334,0 2.5,0 h 2.5 c 1.66666,0 2.5,3.33334 2.5,10 v 85 c 0,6.66666 1.66666,10 5,10 h 5"
       style="fill:none;stroke:#000000;stroke-width:1;stroke-linecap:butt;stroke-linejoin:miter;stroke-miterlimit:10;stroke-dasharray:none;stroke-opacity:1"
       transform="matrix(0,-0.95597478,0.95597478,0,19.597483,585.53454)"
       clip-path="url(#clipPath105)" />
    <text
       id="text105"
       xml:space="preserve"
       transform="matrix(0.95598431,0,0,0.95598431,221.39999,304.00301)"
       clip-path="url(#clipPath106)"><tspan
         style="font-style:oblique;font-variant:normal;font-weight:normal;font-size:13px;font-family:Helvetica;writing-mode:lr-tb;fill:#000000;fill-opacity:1;fill-rule:nonzero;stroke:none"
         x="0 6.5 13.72998 20.22998 27.459961 31.071777 34.683594 41.913574 49.143555 52.755371 56.367188 63.597168 70.827148 74.438965 81.668945 85.280762 91.780762 94.668945 101.89893 108.39893 115.62891 122.12891 125.74072 129.35254 133.68164 140.91162 148.1416 155.37158 159.70068 163.3125"
         y="0"
         sodipodi:role="line"
         id="tspan105">Take the top 3 closest reports</tspan></text>
    <text
       id="text106"
       xml:space="preserve"
       transform="matrix(0.95598431,0,0,0.95598431,237.62185,319.29876)"
       clip-path="url(#clipPath107)"><tspan
         style="font-style:oblique;font-variant:normal;font-weight:normal;font-size:13px;font-family:Helvetica;writing-mode:lr-tb;fill:#000000;fill-opacity:1;fill-rule:nonzero;stroke:none"
         x="0 7.2299805 14.459961 21.689941 25.301758 32.531738 39.031738 46.261719 50.59082 57.820801 65.050781 72.280762 75.892578 79.504395 86.734375 93.964355 96.852539 101.18164 104.79346 111.29346 118.52344 121.41162 128.6416"
         y="0"
         sodipodi:role="line"
         id="tspan106">and average their value</tspan></text>
  </g>
</svg>
