<?xml version="1.0" encoding="UTF-8" standalone="no"?>
<!-- Created with Inkscape (http://www.inkscape.org/) -->

<svg
   version="1.1"
   id="svg1"
   width="539.84003"
   height="206.71999"
   viewBox="0 0 539.84003 206.71999"
   sodipodi:docname="nest-6.pdf"
   xmlns:inkscape="http://www.inkscape.org/namespaces/inkscape"
   xmlns:sodipodi="http://sodipodi.sourceforge.net/DTD/sodipodi-0.dtd"
   xmlns="http://www.w3.org/2000/svg"
   xmlns:svg="http://www.w3.org/2000/svg">
  <defs
     id="defs1">
    <clipPath
       clipPathUnits="userSpaceOnUse"
       id="clipPath2">
      <path
         d="M 0,0 H 1687.4999 V 643.28455 H 0 Z"
         transform="scale(0.33422224)"
         clip-rule="evenodd"
         id="path2" />
    </clipPath>
    <clipPath
       clipPathUnits="userSpaceOnUse"
       id="clipPath4">
      <path
         d="M 0,0 H 1687.4999 V 640.29254 H 0 Z"
         transform="matrix(0.33422224,0,0,0.33422224,-0.49999999,-0.49999999)"
         clip-rule="evenodd"
         id="path4" />
    </clipPath>
    <clipPath
       clipPathUnits="userSpaceOnUse"
       id="clipPath5">
      <path
         d="M 0,0 H 1687.4999 V 640.29254 H 0 Z"
         transform="matrix(0.33421889,0,0,0.33421889,-85.890625,-21.000001)"
         clip-rule="evenodd"
         id="path5" />
    </clipPath>
    <clipPath
       clipPathUnits="userSpaceOnUse"
       id="clipPath7">
      <path
         d="M 0,0 H 1687.4999 V 640.29254 H 0 Z"
         transform="matrix(0.33422224,0,0,0.33422224,-0.49999999,-0.49999999)"
         clip-rule="evenodd"
         id="path7" />
    </clipPath>
    <clipPath
       clipPathUnits="userSpaceOnUse"
       id="clipPath8">
      <path
         d="M 0,0 H 1687.4999 V 640.29254 H 0 Z"
         transform="matrix(0.33421889,0,0,0.33421889,-367.95313,-21.000001)"
         clip-rule="evenodd"
         id="path8" />
    </clipPath>
    <clipPath
       clipPathUnits="userSpaceOnUse"
       id="clipPath10">
      <path
         d="M 0,0 H 1687.4999 V 640.29254 H 0 Z"
         transform="matrix(0.33422224,0,0,0.33422224,-0.49999999,-0.49999999)"
         clip-rule="evenodd"
         id="path10" />
    </clipPath>
    <clipPath
       clipPathUnits="userSpaceOnUse"
       id="clipPath11">
      <path
         d="M 0,0 H 1687.4999 V 640.29254 H 0 Z"
         transform="matrix(0.33421889,0,0,0.33421889,-12.375,-70)"
         clip-rule="evenodd"
         id="path11" />
    </clipPath>
    <clipPath
       clipPathUnits="userSpaceOnUse"
       id="clipPath13">
      <path
         d="M 0,0 H 1687.4999 V 640.29254 H 0 Z"
         transform="matrix(0.33422224,0,0,0.33422224,-0.49999999,-0.49999999)"
         clip-rule="evenodd"
         id="path13" />
    </clipPath>
    <clipPath
       clipPathUnits="userSpaceOnUse"
       id="clipPath14">
      <path
         d="M 0,0 H 1687.4999 V 640.29254 H 0 Z"
         transform="matrix(0.33421889,0,0,0.33421889,-328.93751,-70)"
         clip-rule="evenodd"
         id="path14" />
    </clipPath>
    <clipPath
       clipPathUnits="userSpaceOnUse"
       id="clipPath16">
      <path
         d="M 0,0 H 1687.4999 V 640.29254 H 0 Z"
         transform="matrix(0.33422224,0,0,0.33422224,-0.49999999,-0.49999999)"
         clip-rule="evenodd"
         id="path16" />
    </clipPath>
    <clipPath
       clipPathUnits="userSpaceOnUse"
       id="clipPath17">
      <path
         d="M 0,0 H 1687.4999 V 640.29254 H 0 Z"
         transform="matrix(0.33421889,0,0,0.33421889,-98.625,-145.00001)"
         clip-rule="evenodd"
         id="path17" />
    </clipPath>
    <clipPath
       clipPathUnits="userSpaceOnUse"
       id="clipPath19">
      <path
         d="M 0,0 H 1687.4999 V 640.29254 H 0 Z"
         transform="matrix(0.33422224,0,0,0.33422224,-0.49999999,-0.49999999)"
         clip-rule="evenodd"
         id="path19" />
    </clipPath>
    <clipPath
       clipPathUnits="userSpaceOnUse"
       id="clipPath20">
      <path
         d="M 0,0 H 1687.4999 V 640.29254 H 0 Z"
         transform="matrix(0.33421889,0,0,0.33421889,-112.29687,-195)"
         clip-rule="evenodd"
         id="path20" />
    </clipPath>
  </defs>
  <sodipodi:namedview
     id="namedview1"
     pagecolor="#ffffff"
     bordercolor="#000000"
     borderopacity="0.25"
     inkscape:showpageshadow="2"
     inkscape:pageopacity="0.0"
     inkscape:pagecheckerboard="0"
     inkscape:deskcolor="#d1d1d1">
    <inkscape:page
       x="0"
       y="0"
       inkscape:label="1"
       id="page1"
       width="539.84003"
       height="206.71999"
       margin="0"
       bleed="0" />
  </sodipodi:namedview>
  <g
     id="g1"
     inkscape:groupmode="layer"
     inkscape:label="1">
    <path
       id="path1"
       d="M 0,0 H 564 V 215 H 0 Z"
       style="fill:#ffffff;fill-opacity:1;fill-rule:nonzero;stroke:none"
       transform="scale(0.95744671)"
       clip-path="url(#clipPath2)" />
    <path
       id="path3"
       d="M 1,1 H 271 V 31 H 1 Z"
       style="fill:#dae8fc;fill-opacity:1;fill-rule:nonzero;stroke:#6c8ebf;stroke-width:1;stroke-linecap:butt;stroke-linejoin:miter;stroke-miterlimit:10;stroke-dasharray:none;stroke-opacity:1"
       transform="matrix(0.95744671,0,0,0.95744671,0.47872335,0.47872335)"
       clip-path="url(#clipPath4)" />
    <text
       id="text4"
       xml:space="preserve"
       transform="matrix(0.95745631,0,0,0.95745631,82.236521,20.106583)"
       clip-path="url(#clipPath5)"><tspan
         style="font-variant:normal;font-weight:700;font-size:13px;font-family:Helvetica;writing-mode:lr-tb;fill:#000000;fill-opacity:1;fill-rule:nonzero;stroke:none"
         x="0 9.3881836 16.618164 23.848145 28.177246 31.789062 41.177246 49.118164 56.348145 63.578125 67.189941 75.86084 83.09082 89.362305 92.974121 96.585938"
         y="0"
         sodipodi:role="line"
         id="tspan4">Nest Docs Say...</tspan></text>
    <path
       id="path6"
       d="M 291,1 H 561 V 31 H 291 Z"
       style="fill:#dae8fc;fill-opacity:1;fill-rule:nonzero;stroke:#6c8ebf;stroke-width:1;stroke-linecap:butt;stroke-linejoin:miter;stroke-miterlimit:10;stroke-dasharray:none;stroke-opacity:1"
       transform="matrix(0.95744671,0,0,0.95744671,0.47872335,0.47872335)"
       clip-path="url(#clipPath7)" />
    <text
       id="text7"
       xml:space="preserve"
       transform="matrix(0.95745631,0,0,0.95745631,352.29905,20.106583)"
       clip-path="url(#clipPath8)"><tspan
         style="font-variant:normal;font-weight:700;font-size:13px;font-family:Helvetica;writing-mode:lr-tb;fill:#000000;fill-opacity:1;fill-rule:nonzero;stroke:none"
         x="0 9.3881836 17.329102 21.658203 28.888184 36.829102 44.059082 47.670898 57.059082 65 72.22998 79.459961 83.071777 91.742676 98.972656 105.24414 108.85596 112.46777"
         y="0"
         sodipodi:role="line"
         id="tspan7">Dotenv Docs Say...</tspan></text>
    <path
       id="path9"
       d="M 1,41 H 271 V 91 H 1 Z"
       style="fill:#ffffff;fill-opacity:1;fill-rule:nonzero;stroke:#000000;stroke-width:1;stroke-linecap:butt;stroke-linejoin:miter;stroke-miterlimit:10;stroke-dasharray:none;stroke-opacity:1"
       transform="matrix(0.95744671,0,0,0.95744671,0.47872335,0.47872335)"
       clip-path="url(#clipPath10)" />
    <g
       id="g10" />
    <text
       id="text10"
       xml:space="preserve"
       transform="matrix(0.95745631,0,0,0.95745631,11.848522,67.021942)"
       clip-path="url(#clipPath11)"><tspan
         style="font-variant:normal;font-weight:normal;font-size:12px;font-family:Helvetica;writing-mode:lr-tb;fill:#000000;fill-opacity:1;fill-rule:nonzero;stroke:none"
         x="0 9.9960938 16.669922 19.335938 22.669922 25.335938 32.009766 34.675781 41.349609 44.683594 48.017578 54.691406 61.365234 67.365234 70.699219 76.699219 79.365234 86.039062 92.039062 95.373047 99.369141 108.03516 110.70117 114.03516 120.70898 124.04297 130.7168 133.38281 136.50586 139.83984 146.51367 150.50977 157.18359 163.85742 167.19141 170.52539 177.19922 183.87305 193.86914 200.54297 206.54297 210.53906 213.87305 220.54688 224.54297 231.2168 234.55078 241.22461"
         y="0"
         sodipodi:role="line"
         id="tspan10">Multiple .env ﬁles (with different names) are ok</tspan></text>
    <path
       id="path12"
       d="M 291,41 H 561 V 91 H 291 Z"
       style="fill:#ffffff;fill-opacity:1;fill-rule:nonzero;stroke:#000000;stroke-width:1;stroke-linecap:butt;stroke-linejoin:miter;stroke-miterlimit:10;stroke-dasharray:none;stroke-opacity:1"
       transform="matrix(0.95744671,0,0,0.95744671,0.47872335,0.47872335)"
       clip-path="url(#clipPath13)" />
    <g
       id="g13" />
    <text
       id="text13"
       xml:space="preserve"
       transform="matrix(0.95745631,0,0,0.95745631,314.94329,67.021942)"
       clip-path="url(#clipPath14)"><tspan
         style="font-variant:normal;font-weight:normal;font-size:12px;font-family:Helvetica;writing-mode:lr-tb;fill:#000000;fill-opacity:1;fill-rule:nonzero;stroke:none"
         x="0 8.6660156 15.339844 21.339844 28.013672 32.009766 35.34375 41.34375 45.339844 52.013672 58.6875 62.021484 68.695312 72.029297 82.025391 88.699219 92.695312 99.369141 102.70312 106.03711 112.71094 119.38477 126.05859 129.39258 136.06641 142.74023 149.41406 152.74805 156.08203 162.75586 169.42969 175.42969 178.76367 184.76367 187.42969"
         y="0"
         sodipodi:role="line"
         id="tspan13">Never create more than one .env ﬁle</tspan></text>
    <path
       id="path15"
       d="m 61,121 h 430 v 40 H 61 Z"
       style="fill:#f8cecc;fill-opacity:1;fill-rule:nonzero;stroke:#b85450;stroke-width:1;stroke-linecap:butt;stroke-linejoin:miter;stroke-miterlimit:10;stroke-dasharray:none;stroke-opacity:1"
       transform="matrix(0.95744671,0,0,0.95744671,0.47872335,0.47872335)"
       clip-path="url(#clipPath16)" />
    <g
       id="g16" />
    <text
       id="text16"
       xml:space="preserve"
       transform="matrix(0.95745631,0,0,0.95745631,94.429129,138.83117)"
       clip-path="url(#clipPath17)"><tspan
         style="font-variant:normal;font-weight:700;font-size:12px;font-family:Helvetica;writing-mode:lr-tb;fill:#000000;fill-opacity:1;fill-rule:nonzero;stroke:none"
         x="0 8.6660156 15.996094 25.330078 28.664062 35.994141 43.324219 49.998047 56.671875 60.005859 66.679688 70.013672 73.347656 80.021484 87.351562 94.025391 97.359375 104.68945 108.02344 114.69727 118.03125 125.36133 132.03516 136.03125 139.36523 146.03906 150.70898 157.38281 164.05664 168.05273 174.72656 182.05664 185.39062 188.72461 196.05469 199.38867 206.0625 209.39648 216.72656 221.39648 228.72656 236.05664 243.38672 250.06055 254.05664 257.39062 264.7207 272.05078 275.38477 282.05859 289.38867 296.0625 299.39648 304.06641 311.39648 318.72656 329.39648 336.07031 343.40039 347.39648"
         y="0"
         sodipodi:role="line"
         id="tspan16">How does a .env ﬁle get created in a production environment?</tspan></text>
    <path
       id="path18"
       d="m 61,171 h 430 v 40 H 61 Z"
       style="fill:#f8cecc;fill-opacity:1;fill-rule:nonzero;stroke:#b85450;stroke-width:1;stroke-linecap:butt;stroke-linejoin:miter;stroke-miterlimit:10;stroke-dasharray:none;stroke-opacity:1"
       transform="matrix(0.95744671,0,0,0.95744671,0.47872335,0.47872335)"
       clip-path="url(#clipPath19)" />
    <g
       id="g19" />
    <text
       id="text19"
       xml:space="preserve"
       transform="matrix(0.95745631,0,0,0.95745631,107.51935,186.70398)"
       clip-path="url(#clipPath20)"><tspan
         style="font-variant:normal;font-weight:700;font-size:12px;font-family:Helvetica;writing-mode:lr-tb;fill:#000000;fill-opacity:1;fill-rule:nonzero;stroke:none"
         x="0 8.6660156 15.996094 25.330078 28.664062 35.337891 42.011719 49.341797 52.675781 62.009766 68.683594 72.017578 79.347656 86.021484 92.695312 99.369141 102.70312 110.0332 113.36719 117.36328 121.35938 128.0332 132.70312 139.37695 146.70703 150.70312 154.03711 160.71094 168.04102 175.37109 182.70117 190.03125 193.36523 196.69922 204.0293 207.36328 214.03711 217.37109 220.70508 228.03516 234.70898 241.38281 244.7168 248.05078 254.72461 262.05469 268.72852 272.0625 276.73242 284.0625 291.39258 302.0625 308.73633 316.06641 320.0625"
         y="0"
         sodipodi:role="line"
         id="tspan19">How can we have different conﬁg in a local environment?</tspan></text>
  </g>
</svg>
