<?xml version="1.0" encoding="UTF-8" standalone="no"?>
<!-- Created with Inkscape (http://www.inkscape.org/) -->

<svg
   version="1.1"
   id="svg1"
   width="299.84"
   height="206.71999"
   viewBox="0 0 299.84 206.71999"
   sodipodi:docname="nest-4.pdf"
   xmlns:inkscape="http://www.inkscape.org/namespaces/inkscape"
   xmlns:sodipodi="http://sodipodi.sourceforge.net/DTD/sodipodi-0.dtd"
   xmlns="http://www.w3.org/2000/svg"
   xmlns:svg="http://www.w3.org/2000/svg">
  <defs
     id="defs1">
    <clipPath
       clipPathUnits="userSpaceOnUse"
       id="clipPath2">
      <path
         d="M 0,0 H 937.49994 V 644.90442 H 0 Z"
         transform="scale(0.33493334)"
         clip-rule="evenodd"
         id="path2" />
    </clipPath>
    <clipPath
       clipPathUnits="userSpaceOnUse"
       id="clipPath4">
      <path
         d="M 0,0 H 937.49994 V 638.93311 H 0 Z"
         transform="matrix(0.33493334,0,0,0.33493334,-0.5,-0.5)"
         clip-rule="evenodd"
         id="path4" />
    </clipPath>
    <clipPath
       clipPathUnits="userSpaceOnUse"
       id="clipPath5">
      <path
         d="M 0,0 H 937.49994 V 638.93311 H 0 Z"
         transform="matrix(0.33493,0,0,0.33493,-60.4375,-21)"
         clip-rule="evenodd"
         id="path5" />
    </clipPath>
    <clipPath
       clipPathUnits="userSpaceOnUse"
       id="clipPath7">
      <path
         d="M 0,0 H 937.49994 V 638.93311 H 0 Z"
         transform="matrix(0.33493334,0,0,0.33493334,-0.5,-0.5)"
         clip-rule="evenodd"
         id="path7" />
    </clipPath>
    <clipPath
       clipPathUnits="userSpaceOnUse"
       id="clipPath9">
      <path
         d="M 0,0 H 937.49994 V 638.93311 H 0 Z"
         transform="matrix(0.33493334,0,0,0.33493334,-0.5,-0.5)"
         clip-rule="evenodd"
         id="path9" />
    </clipPath>
    <clipPath
       clipPathUnits="userSpaceOnUse"
       id="clipPath10">
      <path
         d="M 0,0 H 937.49994 V 638.93311 H 0 Z"
         transform="matrix(0.33493,0,0,0.33493,-37.3125,-56)"
         clip-rule="evenodd"
         id="path10" />
    </clipPath>
    <clipPath
       clipPathUnits="userSpaceOnUse"
       id="clipPath12">
      <path
         d="M 0,0 H 937.49994 V 638.93311 H 0 Z"
         transform="matrix(0.33493334,0,0,0.33493334,-0.5,-0.5)"
         clip-rule="evenodd"
         id="path12" />
    </clipPath>
    <clipPath
       clipPathUnits="userSpaceOnUse"
       id="clipPath14">
      <path
         d="M 0,0 H 937.49994 V 638.93311 H 0 Z"
         transform="matrix(0.33493334,0,0,0.33493334,-0.5,-0.5)"
         clip-rule="evenodd"
         id="path14" />
    </clipPath>
    <clipPath
       clipPathUnits="userSpaceOnUse"
       id="clipPath16">
      <path
         d="M 0,0 H 937.49994 V 638.93311 H 0 Z"
         transform="matrix(0.33493334,0,0,0.33493334,-0.5,-0.5)"
         clip-rule="evenodd"
         id="path16" />
    </clipPath>
    <clipPath
       clipPathUnits="userSpaceOnUse"
       id="clipPath18">
      <path
         d="M 0,0 H 937.49994 V 638.93311 H 0 Z"
         transform="matrix(0.33493334,0,0,0.33493334,-0.5,-0.5)"
         clip-rule="evenodd"
         id="path18" />
    </clipPath>
    <clipPath
       clipPathUnits="userSpaceOnUse"
       id="clipPath19">
      <path
         d="M 0,0 H 937.49994 V 638.93311 H 0 Z"
         transform="matrix(0.33493,0,0,0.33493,-32.421875,-96)"
         clip-rule="evenodd"
         id="path19" />
    </clipPath>
    <clipPath
       clipPathUnits="userSpaceOnUse"
       id="clipPath21">
      <path
         d="M 0,0 H 937.49994 V 638.93311 H 0 Z"
         transform="matrix(0.33493334,0,0,0.33493334,-0.5,-0.5)"
         clip-rule="evenodd"
         id="path21" />
    </clipPath>
    <clipPath
       clipPathUnits="userSpaceOnUse"
       id="clipPath22">
      <path
         d="M 0,0 H 937.49994 V 638.93311 H 0 Z"
         transform="matrix(0.33493,0,0,0.33493,-223.65625,-96)"
         clip-rule="evenodd"
         id="path22" />
    </clipPath>
    <clipPath
       clipPathUnits="userSpaceOnUse"
       id="clipPath24">
      <path
         d="M 0,0 H 937.49994 V 638.93311 H 0 Z"
         transform="matrix(0.33493334,0,0,0.33493334,-0.5,-0.5)"
         clip-rule="evenodd"
         id="path24" />
    </clipPath>
    <clipPath
       clipPathUnits="userSpaceOnUse"
       id="clipPath26">
      <path
         d="M 0,0 H 937.49994 V 638.93311 H 0 Z"
         transform="matrix(0.33493334,0,0,0.33493334,-0.5,-0.5)"
         clip-rule="evenodd"
         id="path26" />
    </clipPath>
    <clipPath
       clipPathUnits="userSpaceOnUse"
       id="clipPath28">
      <path
         d="M 0,0 H 937.49994 V 638.93311 H 0 Z"
         transform="matrix(0.33493334,0,0,0.33493334,-0.5,-0.5)"
         clip-rule="evenodd"
         id="path28" />
    </clipPath>
    <clipPath
       clipPathUnits="userSpaceOnUse"
       id="clipPath29">
      <path
         d="M 0,0 H 937.49994 V 638.93311 H 0 Z"
         transform="matrix(0.33493,0,0,0.33493,-24.25,-156)"
         clip-rule="evenodd"
         id="path29" />
    </clipPath>
    <clipPath
       clipPathUnits="userSpaceOnUse"
       id="clipPath31">
      <path
         d="M 0,0 H 937.49994 V 638.93311 H 0 Z"
         transform="matrix(0.33493334,0,0,0.33493334,-0.5,-0.5)"
         clip-rule="evenodd"
         id="path31" />
    </clipPath>
    <clipPath
       clipPathUnits="userSpaceOnUse"
       id="clipPath32">
      <path
         d="M 0,0 H 937.49994 V 638.93311 H 0 Z"
         transform="matrix(0.33493,0,0,0.33493,-182.42188,-156)"
         clip-rule="evenodd"
         id="path32" />
    </clipPath>
  </defs>
  <sodipodi:namedview
     id="namedview1"
     pagecolor="#ffffff"
     bordercolor="#000000"
     borderopacity="0.25"
     inkscape:showpageshadow="2"
     inkscape:pageopacity="0.0"
     inkscape:pagecheckerboard="0"
     inkscape:deskcolor="#d1d1d1">
    <inkscape:page
       x="0"
       y="0"
       inkscape:label="1"
       id="page1"
       width="299.84"
       height="206.71999"
       margin="0"
       bleed="0" />
  </sodipodi:namedview>
  <g
     id="g1"
     inkscape:groupmode="layer"
     inkscape:label="1">
    <path
       id="path1"
       d="M 0,0 H 314 V 216 H 0 Z"
       style="fill:#ffffff;fill-opacity:1;fill-rule:nonzero;stroke:none"
       transform="scale(0.95541394)"
       clip-path="url(#clipPath2)" />
    <path
       id="path3"
       d="M 1,1 H 311 V 31 H 1 Z"
       style="fill:#dae8fc;fill-opacity:1;fill-rule:nonzero;stroke:#6c8ebf;stroke-width:1;stroke-linecap:butt;stroke-linejoin:miter;stroke-miterlimit:10;stroke-dasharray:none;stroke-opacity:1"
       transform="matrix(0.95541394,0,0,0.95541394,0.47770697,0.47770697)"
       clip-path="url(#clipPath4)" />
    <text
       id="text4"
       xml:space="preserve"
       transform="matrix(0.95542348,0,0,0.95542348,57.743407,20.063893)"
       clip-path="url(#clipPath5)"><tspan
         style="font-variant:normal;font-weight:700;font-size:16px;font-family:Helvetica;writing-mode:lr-tb;fill:#000000;fill-opacity:1;fill-rule:nonzero;stroke:none"
         x="0 11.554688 21.328125 31.101562 35.546875 48.875 58.648438 68.421875 78.195312 82.640625 91.539062 95.984375 107.53906 111.98438 116.42969 127.98438 137.75781 147.53125 152.85938 161.75781 166.20312 175.97656 184.875"
         y="0"
         sodipodi:role="line"
         id="tspan4">App Module DI Container</tspan></text>
    <path
       id="path6"
       d="M 1,31 H 311 V 211 H 1 Z"
       style="fill:#dae8fc;fill-opacity:1;fill-rule:nonzero;stroke:#6c8ebf;stroke-width:1;stroke-linecap:butt;stroke-linejoin:miter;stroke-miterlimit:10;stroke-dasharray:none;stroke-opacity:1"
       transform="matrix(0.95541394,0,0,0.95541394,0.47770697,0.47770697)"
       clip-path="url(#clipPath7)" />
    <path
       id="path8"
       d="M 11,41 H 301 V 61 H 11 Z"
       style="fill:#f5f5f5;fill-opacity:1;fill-rule:nonzero;stroke:#666666;stroke-width:1;stroke-linecap:butt;stroke-linejoin:miter;stroke-miterlimit:10;stroke-dasharray:none;stroke-opacity:1"
       transform="matrix(0.95541394,0,0,0.95541394,0.47770697,0.47770697)"
       clip-path="url(#clipPath9)" />
    <text
       id="text9"
       xml:space="preserve"
       transform="matrix(0.95542348,0,0,0.95542348,35.649239,53.503715)"
       clip-path="url(#clipPath10)"><tspan
         style="font-variant:normal;font-weight:normal;font-size:14px;font-family:Helvetica;writing-mode:lr-tb;fill:#333333;fill-opacity:1;fill-rule:nonzero;stroke:none"
         x="0 7.7861328 10.896484 17.896484 21.786133 25.675781 33.461914 37.351562 41.241211 48.241211 51.351562 59.137695 66.137695 73.137695 80.923828 87.923828 91.813477 99.599609 107.38574 115.17188 119.06152 122.95117 130.7373 138.52344 141.63379 146.2959 150.18555 157.97168 165.75781 173.54395 181.33008 189.11621 196.90234 204.68848 212.47461 219.47461 222.58496 230.37109"
         y="0"
         sodipodi:role="line"
         id="tspan9">List of classes and their dependencies</tspan></text>
    <path
       id="path11"
       d="M 11,61 H 301 V 191 H 11 Z"
       style="fill:#f5f5f5;fill-opacity:1;fill-rule:nonzero;stroke:#666666;stroke-width:1;stroke-linecap:butt;stroke-linejoin:miter;stroke-miterlimit:10;stroke-dasharray:none;stroke-opacity:1"
       transform="matrix(0.95541394,0,0,0.95541394,0.47770697,0.47770697)"
       clip-path="url(#clipPath12)" />
    <path
       id="path13"
       d="m 131,91 h 33.63"
       style="fill:none;stroke:#000000;stroke-width:1;stroke-linecap:butt;stroke-linejoin:miter;stroke-miterlimit:10;stroke-dasharray:none;stroke-opacity:1"
       transform="matrix(0.95541394,0,0,0.95541394,0.47770697,0.47770697)"
       clip-path="url(#clipPath14)" />
    <path
       id="path15"
       d="m 169.88,91 -7,3.5 1.75,-3.5 -1.75,-3.5 z"
       style="fill:#000000;fill-opacity:1;fill-rule:nonzero;stroke:#000000;stroke-width:1;stroke-linecap:butt;stroke-linejoin:miter;stroke-miterlimit:10;stroke-dasharray:none;stroke-opacity:1"
       transform="matrix(0.95541394,0,0,0.95541394,0.47770697,0.47770697)"
       clip-path="url(#clipPath16)" />
    <path
       id="path17"
       d="m 21,71 h 110 v 40 H 21 Z"
       style="fill:#ffffff;fill-opacity:1;fill-rule:nonzero;stroke:#000000;stroke-width:1;stroke-linecap:butt;stroke-linejoin:miter;stroke-miterlimit:10;stroke-dasharray:none;stroke-opacity:1"
       transform="matrix(0.95541394,0,0,0.95541394,0.47770697,0.47770697)"
       clip-path="url(#clipPath18)" />
    <g
       id="g18" />
    <text
       id="text18"
       xml:space="preserve"
       transform="matrix(0.95542348,0,0,0.95542348,30.976621,91.720654)"
       clip-path="url(#clipPath19)"><tspan
         style="font-variant:normal;font-weight:normal;font-size:14px;font-family:Helvetica;writing-mode:lr-tb;fill:#000000;fill-opacity:1;fill-rule:nonzero;stroke:none"
         x="0 10.110352 17.896484 25.682617 32.682617 40.46875 49.806641 57.592773 62.254883 69.254883 72.365234 79.365234"
         y="0"
         sodipodi:role="line"
         id="tspan18">ConﬁgService</tspan></text>
    <path
       id="path20"
       d="m 171,71 h 110 v 40 H 171 Z"
       style="fill:#f5f5f5;fill-opacity:1;fill-rule:nonzero;stroke:#666666;stroke-width:1;stroke-linecap:butt;stroke-linejoin:miter;stroke-miterlimit:10;stroke-dasharray:none;stroke-opacity:1"
       transform="matrix(0.95541394,0,0,0.95541394,0.47770697,0.47770697)"
       clip-path="url(#clipPath21)" />
    <text
       id="text21"
       xml:space="preserve"
       transform="matrix(0.95542348,0,0,0.95542348,213.68643,91.720654)"
       clip-path="url(#clipPath22)"><tspan
         style="font-variant:normal;font-weight:normal;font-size:14px;font-family:Helvetica;writing-mode:lr-tb;fill:#333333;fill-opacity:1;fill-rule:nonzero;stroke:none"
         x="0"
         y="0"
         id="tspan21">-</tspan></text>
    <path
       id="path23"
       d="m 131,151 h 33.63"
       style="fill:none;stroke:#000000;stroke-width:1;stroke-linecap:butt;stroke-linejoin:miter;stroke-miterlimit:10;stroke-dasharray:none;stroke-opacity:1"
       transform="matrix(0.95541394,0,0,0.95541394,0.47770697,0.47770697)"
       clip-path="url(#clipPath24)" />
    <path
       id="path25"
       d="m 169.88,151 -7,3.5 1.75,-3.5 -1.75,-3.5 z"
       style="fill:#000000;fill-opacity:1;fill-rule:nonzero;stroke:#000000;stroke-width:1;stroke-linecap:butt;stroke-linejoin:miter;stroke-miterlimit:10;stroke-dasharray:none;stroke-opacity:1"
       transform="matrix(0.95541394,0,0,0.95541394,0.47770697,0.47770697)"
       clip-path="url(#clipPath26)" />
    <path
       id="path27"
       d="m 21,131 h 110 v 40 H 21 Z"
       style="fill:#ffffff;fill-opacity:1;fill-rule:nonzero;stroke:#000000;stroke-width:1;stroke-linecap:butt;stroke-linejoin:miter;stroke-miterlimit:10;stroke-dasharray:none;stroke-opacity:1"
       transform="matrix(0.95541394,0,0,0.95541394,0.47770697,0.47770697)"
       clip-path="url(#clipPath28)" />
    <text
       id="text28"
       xml:space="preserve"
       transform="matrix(0.95542348,0,0,0.95542348,23.169019,149.04606)"
       clip-path="url(#clipPath29)"><tspan
         style="font-variant:normal;font-weight:normal;font-size:14px;font-family:Helvetica;writing-mode:lr-tb;fill:#000000;fill-opacity:1;fill-rule:nonzero;stroke:none"
         x="0 7.7861328 14.786133 22.572266 30.358398 41.248047 45.910156 57.572266 69.234375 77.020508 84.806641 92.592773 95.703125"
         y="0"
         sodipodi:role="line"
         id="tspan28">TypeOrmModule</tspan></text>
    <path
       id="path30"
       d="m 171,131 h 110 v 40 H 171 Z"
       style="fill:#ffffff;fill-opacity:1;fill-rule:nonzero;stroke:#000000;stroke-width:1;stroke-linecap:butt;stroke-linejoin:miter;stroke-miterlimit:10;stroke-dasharray:none;stroke-opacity:1"
       transform="matrix(0.95541394,0,0,0.95541394,0.47770697,0.47770697)"
       clip-path="url(#clipPath31)" />
    <g
       id="g31" />
    <text
       id="text31"
       xml:space="preserve"
       transform="matrix(0.95542348,0,0,0.95542348,174.29015,149.04606)"
       clip-path="url(#clipPath32)"><tspan
         style="font-variant:normal;font-weight:normal;font-size:14px;font-family:Helvetica;writing-mode:lr-tb;fill:#000000;fill-opacity:1;fill-rule:nonzero;stroke:none"
         x="0 10.110352 17.896484 25.682617 32.682617 40.46875 49.806641 57.592773 62.254883 69.254883 72.365234 79.365234"
         y="0"
         sodipodi:role="line"
         id="tspan31">ConﬁgService</tspan></text>
  </g>
</svg>
