<?xml version="1.0" encoding="UTF-8" standalone="no"?>
<!-- Created with Inkscape (http://www.inkscape.org/) -->

<svg
   version="1.1"
   id="svg1"
   width="606.71997"
   height="234.56"
   viewBox="0 0 606.71997 234.56"
   sodipodi:docname="nest-5.pdf"
   xmlns:inkscape="http://www.inkscape.org/namespaces/inkscape"
   xmlns:sodipodi="http://sodipodi.sourceforge.net/DTD/sodipodi-0.dtd"
   xmlns="http://www.w3.org/2000/svg"
   xmlns:svg="http://www.w3.org/2000/svg">
  <defs
     id="defs1">
    <clipPath
       clipPathUnits="userSpaceOnUse"
       id="clipPath2">
      <path
         d="M 0,0 H 1895.8333 V 732.61694 H 0 Z"
         transform="scale(0.33441761)"
         clip-rule="evenodd"
         id="path2" />
    </clipPath>
    <clipPath
       clipPathUnits="userSpaceOnUse"
       id="clipPath4">
      <path
         d="M 0,0 H 1895.8333 V 729.62665 H 0 Z"
         transform="matrix(0.33441761,0,0,0.33441761,-0.50000001,-0.50000001)"
         clip-rule="evenodd"
         id="path4" />
    </clipPath>
    <clipPath
       clipPathUnits="userSpaceOnUse"
       id="clipPath6">
      <path
         d="M 0,0 H 1895.8333 V 729.62665 H 0 Z"
         transform="matrix(0.33441761,0,0,0.33441761,-0.50000001,-0.50000001)"
         clip-rule="evenodd"
         id="path6" />
    </clipPath>
    <clipPath
       clipPathUnits="userSpaceOnUse"
       id="clipPath8">
      <path
         d="M 0,0 H 1895.8333 V 729.62665 H 0 Z"
         transform="matrix(0.33441761,0,0,0.33441761,-0.50000001,-0.50000001)"
         clip-rule="evenodd"
         id="path8" />
    </clipPath>
    <clipPath
       clipPathUnits="userSpaceOnUse"
       id="clipPath10">
      <path
         d="M 0,0 H 1895.8333 V 729.62665 H 0 Z"
         transform="matrix(0.33441761,0,0,0.33441761,-0.50000001,-0.50000001)"
         clip-rule="evenodd"
         id="path10" />
    </clipPath>
    <clipPath
       clipPathUnits="userSpaceOnUse"
       id="clipPath12">
      <path
         d="M 0,0 H 1895.8333 V 729.62665 H 0 Z"
         transform="matrix(0.33441761,0,0,0.33441761,-0.50000001,-0.50000001)"
         clip-rule="evenodd"
         id="path12" />
    </clipPath>
    <clipPath
       clipPathUnits="userSpaceOnUse"
       id="clipPath13">
      <path
         d="M 0,0 H 1895.8333 V 729.62665 H 0 Z"
         transform="matrix(0.33441424,0,0,0.33441424,-219.54687,-65)"
         clip-rule="evenodd"
         id="path13" />
    </clipPath>
    <clipPath
       clipPathUnits="userSpaceOnUse"
       id="clipPath15">
      <path
         d="M 0,0 H 1895.8333 V 729.62665 H 0 Z"
         transform="matrix(0.33441761,0,0,0.33441761,-0.50000001,-0.50000001)"
         clip-rule="evenodd"
         id="path15" />
    </clipPath>
    <clipPath
       clipPathUnits="userSpaceOnUse"
       id="clipPath17">
      <path
         d="M 0,0 H 1895.8333 V 729.62665 H 0 Z"
         transform="matrix(0.33441761,0,0,0.33441761,-0.50000001,-0.50000001)"
         clip-rule="evenodd"
         id="path17" />
    </clipPath>
    <clipPath
       clipPathUnits="userSpaceOnUse"
       id="clipPath19">
      <path
         d="M 0,0 H 1895.8333 V 729.62665 H 0 Z"
         transform="matrix(0.33441761,0,0,0.33441761,-0.50000001,-0.50000001)"
         clip-rule="evenodd"
         id="path19" />
    </clipPath>
    <clipPath
       clipPathUnits="userSpaceOnUse"
       id="clipPath20">
      <path
         d="M 0,0 H 1895.8333 V 729.62665 H 0 Z"
         transform="matrix(0.33441424,0,0,0.33441424,-408.60938,-77.999999)"
         clip-rule="evenodd"
         id="path20" />
    </clipPath>
    <clipPath
       clipPathUnits="userSpaceOnUse"
       id="clipPath22">
      <path
         d="M 0,0 H 1895.8333 V 729.62665 H 0 Z"
         transform="matrix(0.33441761,0,0,0.33441761,-0.50000001,-0.50000001)"
         clip-rule="evenodd"
         id="path22" />
    </clipPath>
    <clipPath
       clipPathUnits="userSpaceOnUse"
       id="clipPath23">
      <path
         d="M 0,0 H 1895.8333 V 729.62665 H 0 Z"
         transform="matrix(0.33441424,0,0,0.33441424,-560.59375,-77.999999)"
         clip-rule="evenodd"
         id="path23" />
    </clipPath>
    <clipPath
       clipPathUnits="userSpaceOnUse"
       id="clipPath25">
      <path
         d="M 0,0 H 1895.8333 V 729.62665 H 0 Z"
         transform="matrix(0.33441761,0,0,0.33441761,-0.50000001,-0.50000001)"
         clip-rule="evenodd"
         id="path25" />
    </clipPath>
    <clipPath
       clipPathUnits="userSpaceOnUse"
       id="clipPath27">
      <path
         d="M 0,0 H 1895.8333 V 729.62665 H 0 Z"
         transform="matrix(0.33441761,0,0,0.33441761,-0.50000001,-0.50000001)"
         clip-rule="evenodd"
         id="path27" />
    </clipPath>
    <clipPath
       clipPathUnits="userSpaceOnUse"
       id="clipPath29">
      <path
         d="M 0,0 H 1895.8333 V 729.62665 H 0 Z"
         transform="matrix(0.33441761,0,0,0.33441761,-0.50000001,-0.50000001)"
         clip-rule="evenodd"
         id="path29" />
    </clipPath>
    <clipPath
       clipPathUnits="userSpaceOnUse"
       id="clipPath31">
      <path
         d="M 0,0 H 1895.8333 V 729.62665 H 0 Z"
         transform="matrix(0.33441761,0,0,0.33441761,-0.50000001,-0.50000001)"
         clip-rule="evenodd"
         id="path31" />
    </clipPath>
    <clipPath
       clipPathUnits="userSpaceOnUse"
       id="clipPath33">
      <path
         d="M 0,0 H 1895.8333 V 729.62665 H 0 Z"
         transform="matrix(0.33441761,0,0,0.33441761,-0.50000001,-0.50000001)"
         clip-rule="evenodd"
         id="path33" />
    </clipPath>
    <clipPath
       clipPathUnits="userSpaceOnUse"
       id="clipPath35">
      <path
         d="M 0,0 H 1895.8333 V 729.62665 H 0 Z"
         transform="matrix(0.33441761,0,0,0.33441761,-0.50000001,-0.50000001)"
         clip-rule="evenodd"
         id="path35" />
    </clipPath>
    <clipPath
       clipPathUnits="userSpaceOnUse"
       id="clipPath37">
      <path
         d="M 0,0 H 1895.8333 V 729.62665 H 0 Z"
         transform="matrix(0.33441761,0,0,0.33441761,-0.50000001,-0.50000001)"
         clip-rule="evenodd"
         id="path37" />
    </clipPath>
    <clipPath
       clipPathUnits="userSpaceOnUse"
       id="clipPath38">
      <path
         d="M 0,0 H 1895.8333 V 729.62665 H 0 Z"
         transform="matrix(0.33441424,0,0,0.33441424,-371.48437,-183)"
         clip-rule="evenodd"
         id="path38" />
    </clipPath>
    <clipPath
       clipPathUnits="userSpaceOnUse"
       id="clipPath40">
      <path
         d="M 0,0 H 1895.8333 V 729.62665 H 0 Z"
         transform="matrix(0.33441761,0,0,0.33441761,-0.50000001,-0.50000001)"
         clip-rule="evenodd"
         id="path40" />
    </clipPath>
    <clipPath
       clipPathUnits="userSpaceOnUse"
       id="clipPath41">
      <path
         d="M 0,0 H 1895.8333 V 729.62665 H 0 Z"
         transform="matrix(0.33441424,0,0,0.33441424,-259.23437,-231)"
         clip-rule="evenodd"
         id="path41" />
    </clipPath>
    <clipPath
       clipPathUnits="userSpaceOnUse"
       id="clipPath43">
      <path
         d="M 0,0 H 1895.8333 V 729.62665 H 0 Z"
         transform="matrix(0.33441761,0,0,0.33441761,-0.50000001,-0.50000001)"
         clip-rule="evenodd"
         id="path43" />
    </clipPath>
    <clipPath
       clipPathUnits="userSpaceOnUse"
       id="clipPath44">
      <path
         d="M 0,0 H 1895.8333 V 729.62665 H 0 Z"
         transform="matrix(0.33441424,0,0,0.33441424,-431.21875,-35)"
         clip-rule="evenodd"
         id="path44" />
    </clipPath>
    <clipPath
       clipPathUnits="userSpaceOnUse"
       id="clipPath46">
      <path
         d="M 0,0 H 1895.8333 V 729.62665 H 0 Z"
         transform="matrix(0.33441761,0,0,0.33441761,-0.50000001,-0.50000001)"
         clip-rule="evenodd"
         id="path46" />
    </clipPath>
    <clipPath
       clipPathUnits="userSpaceOnUse"
       id="clipPath47">
      <path
         d="M 0,0 H 1895.8333 V 729.62665 H 0 Z"
         transform="matrix(0.33441424,0,0,0.33441424,-255.51562,-15)"
         clip-rule="evenodd"
         id="path47" />
    </clipPath>
    <clipPath
       clipPathUnits="userSpaceOnUse"
       id="clipPath49">
      <path
         d="M 0,0 H 1895.8333 V 729.62665 H 0 Z"
         transform="matrix(0.33441761,0,0,0.33441761,-0.50000001,-0.50000001)"
         clip-rule="evenodd"
         id="path49" />
    </clipPath>
    <clipPath
       clipPathUnits="userSpaceOnUse"
       id="clipPath51">
      <path
         d="M 0,0 H 1895.8333 V 729.62665 H 0 Z"
         transform="matrix(0.33441761,0,0,0.33441761,-0.50000001,-0.50000001)"
         clip-rule="evenodd"
         id="path51" />
    </clipPath>
    <clipPath
       clipPathUnits="userSpaceOnUse"
       id="clipPath53">
      <path
         d="M 0,0 H 1895.8333 V 729.62665 H 0 Z"
         transform="matrix(0.33441761,0,0,0.33441761,-0.50000001,-0.50000001)"
         clip-rule="evenodd"
         id="path53" />
    </clipPath>
    <clipPath
       clipPathUnits="userSpaceOnUse"
       id="clipPath55">
      <path
         d="M 0,0 H 1895.8333 V 729.62665 H 0 Z"
         transform="matrix(0.33441761,0,0,0.33441761,-0.50000001,-0.50000001)"
         clip-rule="evenodd"
         id="path55" />
    </clipPath>
    <clipPath
       clipPathUnits="userSpaceOnUse"
       id="clipPath56">
      <path
         d="M 0,0 H 1895.8333 V 729.62665 H 0 Z"
         transform="matrix(0.33441424,0,0,0.33441424,-37.874999,-58)"
         clip-rule="evenodd"
         id="path56" />
    </clipPath>
    <clipPath
       clipPathUnits="userSpaceOnUse"
       id="clipPath57">
      <path
         d="M 0,0 H 1895.8333 V 729.62665 H 0 Z"
         transform="matrix(0.33441424,0,0,0.33441424,-62.406249,-72)"
         clip-rule="evenodd"
         id="path57" />
    </clipPath>
    <clipPath
       clipPathUnits="userSpaceOnUse"
       id="clipPath59">
      <path
         d="M 0,0 H 1895.8333 V 729.62665 H 0 Z"
         transform="matrix(0.33441761,0,0,0.33441761,-0.50000001,-0.50000001)"
         clip-rule="evenodd"
         id="path59" />
    </clipPath>
    <clipPath
       clipPathUnits="userSpaceOnUse"
       id="clipPath60">
      <path
         d="M 0,0 H 1895.8333 V 729.62665 H 0 Z"
         transform="matrix(0.33441424,0,0,0.33441424,-54.203125,-15)"
         clip-rule="evenodd"
         id="path60" />
    </clipPath>
  </defs>
  <sodipodi:namedview
     id="namedview1"
     pagecolor="#ffffff"
     bordercolor="#000000"
     borderopacity="0.25"
     inkscape:showpageshadow="2"
     inkscape:pageopacity="0.0"
     inkscape:pagecheckerboard="0"
     inkscape:deskcolor="#d1d1d1">
    <inkscape:page
       x="0"
       y="0"
       inkscape:label="1"
       id="page1"
       width="606.71997"
       height="234.56"
       margin="0"
       bleed="0" />
  </sodipodi:namedview>
  <g
     id="g1"
     inkscape:groupmode="layer"
     inkscape:label="1">
    <path
       id="path1"
       d="M 0,0 H 634 V 245 H 0 Z"
       style="fill:#ffffff;fill-opacity:1;fill-rule:nonzero;stroke:none"
       transform="scale(0.95688738)"
       clip-path="url(#clipPath2)" />
    <path
       id="path3"
       d="m 391,41 h 240 v 70 H 391 Z"
       style="fill:#f5f5f5;fill-opacity:1;fill-rule:nonzero;stroke:#666666;stroke-width:1;stroke-linecap:butt;stroke-linejoin:miter;stroke-miterlimit:10;stroke-dasharray:none;stroke-opacity:1"
       transform="matrix(0.95688738,0,0,0.95688738,0.4784437,0.4784437)"
       clip-path="url(#clipPath4)" />
    <path
       id="path5"
       d="m 191,21 h 170 v 90 H 191 Z"
       style="fill:#f5f5f5;fill-opacity:1;fill-rule:nonzero;stroke:#666666;stroke-width:1;stroke-linecap:butt;stroke-linejoin:miter;stroke-miterlimit:10;stroke-dasharray:none;stroke-opacity:1"
       transform="matrix(0.95688738,0,0,0.95688738,0.4784437,0.4784437)"
       clip-path="url(#clipPath6)" />
    <path
       id="path7"
       d="m 210,31 h 114 l 16,16 V 91 H 210 Z"
       style="fill:#ffffff;fill-opacity:1;fill-rule:nonzero;stroke:#000000;stroke-width:1;stroke-linecap:butt;stroke-linejoin:miter;stroke-miterlimit:10;stroke-dasharray:none;stroke-opacity:1"
       transform="matrix(0.95688738,0,0,0.95688738,0.4784437,0.4784437)"
       clip-path="url(#clipPath8)" />
    <path
       id="path9"
       d="m 324,31 v 16 h 16 z"
       style="fill:#000000;fill-opacity:0.05;fill-rule:nonzero;stroke:none"
       transform="matrix(0.95688738,0,0,0.95688738,0.4784437,0.4784437)"
       clip-path="url(#clipPath10)" />
    <path
       id="path11"
       d="m 324,31 v 16 h 16"
       style="fill:none;stroke:#000000;stroke-width:1;stroke-linecap:butt;stroke-linejoin:miter;stroke-miterlimit:10;stroke-dasharray:none;stroke-opacity:1"
       transform="matrix(0.95688738,0,0,0.95688738,0.4784437,0.4784437)"
       clip-path="url(#clipPath12)" />
    <text
       id="text12"
       xml:space="preserve"
       transform="matrix(0.95689702,0,0,0.95689702,210.08375,62.198306)"
       clip-path="url(#clipPath13)"><tspan
         style="font-style:oblique;font-variant:normal;font-weight:normal;font-size:11px;font-family:Helvetica;writing-mode:lr-tb;fill:#000000;fill-opacity:1;fill-rule:nonzero;stroke:none"
         x="0 7.9438477 15.280762 21.398438 29.342285 36.679199 45.842285 53.179199 56.235352 62.65918 65.715332 67.81543 73.933105 80.050781 83.106934 88.606934 94.724609 97.168457 99.612305 102.66846 108.78613"
         y="0"
         sodipodi:role="line"
         id="tspan12">DB_NAME = 'db.sqlite'</tspan></text>
    <path
       id="path14"
       d="M 501.01001,73.5 H 521 501 514.64001"
       style="fill:none;stroke:#000000;stroke-width:1;stroke-linecap:butt;stroke-linejoin:miter;stroke-miterlimit:10;stroke-dasharray:none;stroke-opacity:1"
       transform="matrix(0.95688738,0,0,0.95688738,0.4784437,0.4784437)"
       clip-path="url(#clipPath15)" />
    <path
       id="path16"
       d="m 519.89001,73.5 -7,3.5 1.75,-3.5 -1.75,-3.5 z"
       style="fill:#000000;fill-opacity:1;fill-rule:nonzero;stroke:#000000;stroke-width:1;stroke-linecap:butt;stroke-linejoin:miter;stroke-miterlimit:10;stroke-dasharray:none;stroke-opacity:1"
       transform="matrix(0.95688738,0,0,0.95688738,0.4784437,0.4784437)"
       clip-path="url(#clipPath17)" />
    <path
       id="path18"
       d="M 401,61 H 501 V 86 H 401 Z"
       style="fill:#ffffff;fill-opacity:1;fill-rule:nonzero;stroke:#000000;stroke-width:1;stroke-linecap:butt;stroke-linejoin:miter;stroke-miterlimit:10;stroke-dasharray:none;stroke-opacity:1"
       transform="matrix(0.95688738,0,0,0.95688738,0.4784437,0.4784437)"
       clip-path="url(#clipPath19)" />
    <text
       id="text19"
       xml:space="preserve"
       transform="matrix(0.95689702,0,0,0.95689702,390.9971,74.637967)"
       clip-path="url(#clipPath20)"><tspan
         style="font-variant:normal;font-weight:normal;font-size:11px;font-family:Helvetica;writing-mode:lr-tb;fill:#000000;fill-opacity:1;fill-rule:nonzero;stroke:none"
         x="0 7.9438477 15.280762 21.398438 27.924316 35.26123 42.598145 49.935059 60.317383 68.873535 76.817383"
         y="0"
         sodipodi:role="line"
         id="tspan19">DB_PASSWORD</tspan></text>
    <path
       id="path21"
       d="m 521.01001,61 h 100 v 25 h -100 z"
       style="fill:#ffffff;fill-opacity:1;fill-rule:nonzero;stroke:#000000;stroke-width:1;stroke-linecap:butt;stroke-linejoin:miter;stroke-miterlimit:10;stroke-dasharray:none;stroke-opacity:1"
       transform="matrix(0.95688738,0,0,0.95688738,0.4784437,0.4784437)"
       clip-path="url(#clipPath22)" />
    <text
       id="text22"
       xml:space="preserve"
       transform="matrix(0.95689702,0,0,0.95689702,536.43049,74.637967)"
       clip-path="url(#clipPath23)"><tspan
         style="font-variant:normal;font-weight:normal;font-size:11px;font-family:Helvetica;writing-mode:lr-tb;fill:#000000;fill-opacity:1;fill-rule:nonzero;stroke:none"
         x="0 6.1176758 11.617676 17.735352"
         y="0"
         sodipodi:role="line"
         id="tspan22">asdf</tspan></text>
    <path
       id="path24"
       d="M 401,161 V 136 H 276 v -18.63"
       style="fill:none;stroke:#000000;stroke-width:1;stroke-linecap:butt;stroke-linejoin:miter;stroke-miterlimit:10;stroke-dasharray:none;stroke-opacity:1"
       transform="matrix(0.95688738,0,0,0.95688738,0.4784437,0.4784437)"
       clip-path="url(#clipPath25)" />
    <path
       id="path26"
       d="m 276,112.12 3.5,7 -3.5,-1.75 -3.5,1.75 z"
       style="fill:#000000;fill-opacity:1;fill-rule:nonzero;stroke:#000000;stroke-width:1;stroke-linecap:butt;stroke-linejoin:miter;stroke-miterlimit:10;stroke-dasharray:none;stroke-opacity:1"
       transform="matrix(0.95688738,0,0,0.95688738,0.4784437,0.4784437)"
       clip-path="url(#clipPath27)" />
    <path
       id="path28"
       d="M 401,161 V 136 H 511 V 117.37"
       style="fill:none;stroke:#000000;stroke-width:1;stroke-linecap:butt;stroke-linejoin:miter;stroke-miterlimit:10;stroke-dasharray:none;stroke-opacity:1"
       transform="matrix(0.95688738,0,0,0.95688738,0.4784437,0.4784437)"
       clip-path="url(#clipPath29)" />
    <path
       id="path30"
       d="m 511,112.12 3.5,7 -3.5,-1.75 -3.5,1.75 z"
       style="fill:#000000;fill-opacity:1;fill-rule:nonzero;stroke:#000000;stroke-width:1;stroke-linecap:butt;stroke-linejoin:miter;stroke-miterlimit:10;stroke-dasharray:none;stroke-opacity:1"
       transform="matrix(0.95688738,0,0,0.95688738,0.4784437,0.4784437)"
       clip-path="url(#clipPath31)" />
    <path
       id="path32"
       d="m 401,191 v 13.63"
       style="fill:none;stroke:#000000;stroke-width:1;stroke-linecap:butt;stroke-linejoin:miter;stroke-miterlimit:10;stroke-dasharray:none;stroke-opacity:1"
       transform="matrix(0.95688738,0,0,0.95688738,0.4784437,0.4784437)"
       clip-path="url(#clipPath33)" />
    <path
       id="path34"
       d="m 401,209.88 -3.5,-7 3.5,1.75 3.5,-1.75 z"
       style="fill:#000000;fill-opacity:1;fill-rule:nonzero;stroke:#000000;stroke-width:1;stroke-linecap:butt;stroke-linejoin:miter;stroke-miterlimit:10;stroke-dasharray:none;stroke-opacity:1"
       transform="matrix(0.95688738,0,0,0.95688738,0.4784437,0.4784437)"
       clip-path="url(#clipPath35)" />
    <path
       id="path36"
       d="m 341,161 h 120 v 30 H 341 Z"
       style="fill:#dae8fc;fill-opacity:1;fill-rule:nonzero;stroke:#6c8ebf;stroke-width:1;stroke-linecap:butt;stroke-linejoin:miter;stroke-miterlimit:10;stroke-dasharray:none;stroke-opacity:1"
       transform="matrix(0.95688738,0,0,0.95688738,0.4784437,0.4784437)"
       clip-path="url(#clipPath37)" />
    <text
       id="text37"
       xml:space="preserve"
       transform="matrix(0.95689702,0,0,0.95689702,355.47229,175.11215)"
       clip-path="url(#clipPath38)"><tspan
         style="font-variant:normal;font-weight:700;font-size:18px;font-family:Helvetica;writing-mode:lr-tb;fill:#000000;fill-opacity:1;fill-rule:nonzero;stroke:none"
         x="0 10.995117 21.990234 27.984375 37.995117 48.990234"
         y="0"
         sodipodi:role="line"
         id="tspan37">dotenv</tspan></text>
    <path
       id="path39"
       d="m 246,211 h 310 v 30 H 246 Z"
       style="fill:#ffffff;fill-opacity:1;fill-rule:nonzero;stroke:#000000;stroke-width:1;stroke-linecap:butt;stroke-linejoin:miter;stroke-miterlimit:10;stroke-dasharray:none;stroke-opacity:1"
       transform="matrix(0.95688738,0,0,0.95688738,0.4784437,0.4784437)"
       clip-path="url(#clipPath40)" />
    <text
       id="text40"
       xml:space="preserve"
       transform="matrix(0.95689702,0,0,0.95689702,248.0606,221.04321)"
       clip-path="url(#clipPath41)"><tspan
         style="font-variant:normal;font-weight:normal;font-size:13px;font-family:Helvetica;writing-mode:lr-tb;fill:#000000;fill-opacity:1;fill-rule:nonzero;stroke:none"
         x="0 4.3417969 7.9536133 17.341797 26.012695 33.242676 42.630859 51.301758 62.130859 70.801758 74.413574 78.025391 80.507324 87.737305 94.967285 98.579102 105.0791 112.30908 115.19727 118.08545 121.69727 128.92725 131.40918 135.021 138.63281 148.021 156.69189 163.92188 171.63428 180.30518 188.97607 197.64697 209.91699 220.02881 229.41699 238.80518 242.41699 246.02881 248.51074 255.74072 262.24072 269.4707 273.08252 275.56445 279.17627"
         y="0"
         sodipodi:role="line"
         id="tspan40">{ DB_NAME: 'db.sqlite', DB_PASSWORD: 'asdf' }</tspan></text>
    <path
       id="path42"
       d="M 391,21 H 631 V 41 H 391 Z"
       style="fill:#f5f5f5;fill-opacity:1;fill-rule:nonzero;stroke:#666666;stroke-width:1;stroke-linecap:butt;stroke-linejoin:miter;stroke-miterlimit:10;stroke-dasharray:none;stroke-opacity:1"
       transform="matrix(0.95688738,0,0,0.95688738,0.4784437,0.4784437)"
       clip-path="url(#clipPath43)" />
    <text
       id="text43"
       xml:space="preserve"
       transform="matrix(0.95689702,0,0,0.95689702,412.63194,33.491396)"
       clip-path="url(#clipPath44)"><tspan
         style="font-variant:normal;font-weight:700;font-size:11px;font-family:Helvetica;writing-mode:lr-tb;fill:#333333;fill-opacity:1;fill-rule:nonzero;stroke:none"
         x="0 7.9438477 14.663086 18.943848 28.724609 34.842285 37.898438 40.95459 48.291504 55.010742 61.128418 64.18457 68.465332 75.18457 81.903809 91.68457 97.802246 104.52148 108.18457 111.24072 117.97607 124.09375 128.37451 131.43066 137.54834 144.26758 147.32373 153.44141"
         y="0"
         sodipodi:role="line"
         id="tspan43">Normal Environment Variables</tspan></text>
    <path
       id="path45"
       d="M 191,1 H 361 V 21 H 191 Z"
       style="fill:#f5f5f5;fill-opacity:1;fill-rule:nonzero;stroke:#666666;stroke-width:1;stroke-linecap:butt;stroke-linejoin:miter;stroke-miterlimit:10;stroke-dasharray:none;stroke-opacity:1"
       transform="matrix(0.95688738,0,0,0.95688738,0.4784437,0.4784437)"
       clip-path="url(#clipPath46)" />
    <g
       id="g46" />
    <text
       id="text46"
       xml:space="preserve"
       transform="matrix(0.95689702,0,0,0.95689702,244.50214,14.353455)"
       clip-path="url(#clipPath47)"><tspan
         style="font-variant:normal;font-weight:700;font-size:11px;font-family:Helvetica;writing-mode:lr-tb;fill:#333333;fill-opacity:1;fill-rule:nonzero;stroke:none"
         x="0 3.0561523 9.1738281 15.893066 22.010742 25.066895 31.786133 34.842285"
         y="0"
         sodipodi:role="line"
         id="tspan46">.env ﬁle</tspan></text>
    <path
       id="path48"
       d="m 1,21 h 170 v 90 H 1 Z"
       style="fill:#f5f5f5;fill-opacity:1;fill-rule:nonzero;stroke:#666666;stroke-width:1;stroke-linecap:butt;stroke-linejoin:miter;stroke-miterlimit:10;stroke-dasharray:none;stroke-opacity:1"
       transform="matrix(0.95688738,0,0,0.95688738,0.4784437,0.4784437)"
       clip-path="url(#clipPath49)" />
    <path
       id="path50"
       d="m 20,31 h 114 l 16,16 V 91 H 20 Z"
       style="fill:#ffffff;fill-opacity:1;fill-rule:nonzero;stroke:#000000;stroke-width:1;stroke-linecap:butt;stroke-linejoin:miter;stroke-miterlimit:10;stroke-dasharray:none;stroke-opacity:1"
       transform="matrix(0.95688738,0,0,0.95688738,0.4784437,0.4784437)"
       clip-path="url(#clipPath51)" />
    <path
       id="path52"
       d="m 134,31 v 16 h 16 z"
       style="fill:#000000;fill-opacity:0.05;fill-rule:nonzero;stroke:none"
       transform="matrix(0.95688738,0,0,0.95688738,0.4784437,0.4784437)"
       clip-path="url(#clipPath53)" />
    <path
       id="path54"
       d="m 134,31 v 16 h 16"
       style="fill:none;stroke:#000000;stroke-width:1;stroke-linecap:butt;stroke-linejoin:miter;stroke-miterlimit:10;stroke-dasharray:none;stroke-opacity:1"
       transform="matrix(0.95688738,0,0,0.95688738,0.4784437,0.4784437)"
       clip-path="url(#clipPath55)" />
    <text
       id="text55"
       xml:space="preserve"
       transform="matrix(0.95689702,0,0,0.95689702,36.242474,55.500027)"
       clip-path="url(#clipPath56)"><tspan
         style="font-style:oblique;font-variant:normal;font-weight:normal;font-size:11px;font-family:Helvetica;writing-mode:lr-tb;fill:#000000;fill-opacity:1;fill-rule:nonzero;stroke:none"
         x="0 7.9438477 15.280762 21.398438 27.924316 35.26123 42.598145 49.935059 60.317383 68.873535 76.817383 84.76123 87.817383"
         y="0"
         sodipodi:role="line"
         id="tspan55">DB_PASSWORD =</tspan></text>
    <text
       id="text56"
       xml:space="preserve"
       transform="matrix(0.95689702,0,0,0.95689702,59.716354,68.896585)"
       clip-path="url(#clipPath57)"><tspan
         style="font-style:oblique;font-variant:normal;font-weight:normal;font-size:11px;font-family:Helvetica;writing-mode:lr-tb;fill:#000000;fill-opacity:1;fill-rule:nonzero;stroke:none"
         x="0 2.1000977 8.2177734 14.335449 17.391602 22.891602 29.009277 31.453125 33.896973 36.953125 43.070801"
         y="0"
         sodipodi:role="line"
         id="tspan56">'db.sqlite'</tspan></text>
    <path
       id="path58"
       d="M 1,1 H 171 V 21 H 1 Z"
       style="fill:#f5f5f5;fill-opacity:1;fill-rule:nonzero;stroke:#666666;stroke-width:1;stroke-linecap:butt;stroke-linejoin:miter;stroke-miterlimit:10;stroke-dasharray:none;stroke-opacity:1"
       transform="matrix(0.95688738,0,0,0.95688738,0.4784437,0.4784437)"
       clip-path="url(#clipPath59)" />
    <g
       id="g59" />
    <text
       id="text59"
       xml:space="preserve"
       transform="matrix(0.95689702,0,0,0.95689702,51.866809,14.353455)"
       clip-path="url(#clipPath60)"><tspan
         style="font-variant:normal;font-weight:700;font-size:11px;font-family:Helvetica;writing-mode:lr-tb;fill:#333333;fill-opacity:1;fill-rule:nonzero;stroke:none"
         x="0 3.0561523 6.7192383 12.836914 18.95459 22.617676 25.673828 31.791504 38.510742 44.628418 47.68457 54.403809 57.459961"
         y="0"
         sodipodi:role="line"
         id="tspan59">.test.env ﬁle</tspan></text>
  </g>
</svg>
