<?xml version="1.0" encoding="UTF-8" standalone="no"?>
<!-- Created with Inkscape (http://www.inkscape.org/) -->

<svg
   version="1.1"
   id="svg1"
   width="309.44"
   height="161.28"
   viewBox="0 0 309.44 161.28"
   sodipodi:docname="nest-15.pdf"
   xmlns:inkscape="http://www.inkscape.org/namespaces/inkscape"
   xmlns:sodipodi="http://sodipodi.sourceforge.net/DTD/sodipodi-0.dtd"
   xmlns="http://www.w3.org/2000/svg"
   xmlns:svg="http://www.w3.org/2000/svg">
  <defs
     id="defs1">
    <clipPath
       clipPathUnits="userSpaceOnUse"
       id="clipPath2">
      <path
         d="M 0,0 H 966.66656 V 501.23453 H 0 Z"
         transform="scale(0.33517244)"
         clip-rule="evenodd"
         id="path2" />
    </clipPath>
    <clipPath
       clipPathUnits="userSpaceOnUse"
       id="clipPath4">
      <path
         d="M 0,0 H 966.66656 V 495.26746 H 0 Z"
         transform="matrix(0.33517244,0,0,0.33517244,-0.49999999,-0.49999999)"
         clip-rule="evenodd"
         id="path4" />
    </clipPath>
    <clipPath
       clipPathUnits="userSpaceOnUse"
       id="clipPath6">
      <path
         d="M 0,0 H 966.66656 V 495.26746 H 0 Z"
         transform="matrix(0.33517244,0,0,0.33517244,-0.49999999,-0.49999999)"
         clip-rule="evenodd"
         id="path6" />
    </clipPath>
    <clipPath
       clipPathUnits="userSpaceOnUse"
       id="clipPath8">
      <path
         d="M 0,0 H 966.66656 V 495.26746 H 0 Z"
         transform="matrix(0.33517244,0,0,0.33517244,-0.49999999,-0.49999999)"
         clip-rule="evenodd"
         id="path8" />
    </clipPath>
    <clipPath
       clipPathUnits="userSpaceOnUse"
       id="clipPath9">
      <path
         d="M 0,0 H 966.66656 V 495.26746 H 0 Z"
         transform="matrix(0.33516909,0,0,0.33516909,-33.421875,-46)"
         clip-rule="evenodd"
         id="path9" />
    </clipPath>
    <clipPath
       clipPathUnits="userSpaceOnUse"
       id="clipPath10">
      <path
         d="M 0,0 H 966.66656 V 495.26746 H 0 Z"
         transform="matrix(0.33516909,0,0,0.33516909,-97.625,-64)"
         clip-rule="evenodd"
         id="path10" />
    </clipPath>
    <clipPath
       clipPathUnits="userSpaceOnUse"
       id="clipPath11">
      <path
         d="M 0,0 H 966.66656 V 495.26746 H 0 Z"
         transform="matrix(0.33516909,0,0,0.33516909,-144.32812,-16)"
         clip-rule="evenodd"
         id="path11" />
    </clipPath>
    <clipPath
       clipPathUnits="userSpaceOnUse"
       id="clipPath13">
      <path
         d="M 0,0 H 966.66656 V 495.26746 H 0 Z"
         transform="matrix(0.33517244,0,0,0.33517244,-0.49999999,-0.49999999)"
         clip-rule="evenodd"
         id="path13" />
    </clipPath>
    <clipPath
       clipPathUnits="userSpaceOnUse"
       id="clipPath14">
      <path
         d="M 0,0 H 966.66656 V 495.26746 H 0 Z"
         transform="matrix(0.33516909,0,0,0.33516909,-56.34375,-130)"
         clip-rule="evenodd"
         id="path14" />
    </clipPath>
    <clipPath
       clipPathUnits="userSpaceOnUse"
       id="clipPath15">
      <path
         d="M 0,0 H 966.66656 V 495.26746 H 0 Z"
         transform="matrix(0.33516909,0,0,0.33516909,-90.875,-158)"
         clip-rule="evenodd"
         id="path15" />
    </clipPath>
  </defs>
  <sodipodi:namedview
     id="namedview1"
     pagecolor="#ffffff"
     bordercolor="#000000"
     borderopacity="0.25"
     inkscape:showpageshadow="2"
     inkscape:pageopacity="0.0"
     inkscape:pagecheckerboard="0"
     inkscape:deskcolor="#d1d1d1">
    <inkscape:page
       x="0"
       y="0"
       inkscape:label="1"
       id="page1"
       width="309.44"
       height="161.28"
       margin="0"
       bleed="0" />
  </sodipodi:namedview>
  <g
     id="g1"
     inkscape:groupmode="layer"
     inkscape:label="1">
    <path
       id="path1"
       d="M 0,0 H 324 V 168 H 0 Z"
       style="fill:#ffffff;fill-opacity:1;fill-rule:nonzero;stroke:none"
       transform="scale(0.95473241)"
       clip-path="url(#clipPath2)" />
    <path
       id="path3"
       d="M 161,74 V 94 84 97.629997"
       style="fill:none;stroke:#000000;stroke-width:1;stroke-linecap:butt;stroke-linejoin:miter;stroke-miterlimit:10;stroke-dasharray:none;stroke-opacity:1"
       transform="matrix(0.95473241,0,0,0.95473241,0.4773662,0.4773662)"
       clip-path="url(#clipPath4)" />
    <path
       id="path5"
       d="m 161,102.88 -3.5,-7.000003 3.5,1.75 3.5,-1.75 z"
       style="fill:#000000;fill-opacity:1;fill-rule:nonzero;stroke:#000000;stroke-width:1;stroke-linecap:butt;stroke-linejoin:miter;stroke-miterlimit:10;stroke-dasharray:none;stroke-opacity:1"
       transform="matrix(0.95473241,0,0,0.95473241,0.4773662,0.4773662)"
       clip-path="url(#clipPath6)" />
    <path
       id="path7"
       d="M 1,24 H 321 V 74 H 1 Z"
       style="fill:#dae8fc;fill-opacity:1;fill-rule:nonzero;stroke:#6c8ebf;stroke-width:1;stroke-linecap:butt;stroke-linejoin:miter;stroke-miterlimit:10;stroke-dasharray:none;stroke-opacity:1"
       transform="matrix(0.95473241,0,0,0.95473241,0.4773662,0.4773662)"
       clip-path="url(#clipPath8)" />
    <text
       id="text8"
       xml:space="preserve"
       transform="matrix(0.95474194,0,0,0.95474194,31.909266,43.918129)"
       clip-path="url(#clipPath9)"><tspan
         style="font-variant:normal;font-weight:normal;font-size:15px;font-family:Helvetica;writing-mode:lr-tb;fill:#000000;fill-opacity:1;fill-rule:nonzero;stroke:none"
         x="0 10.004883 18.347168 26.689453 30.856934 34.189453 42.531738 46.699219 55.041504 59.208984 64.204102 72.546387 80.888672 89.230957 97.573242 105.07324 109.24072 113.4082 121.75049 130.09277 138.43506 146.77734 150.10986 158.45215 163.44727 167.61475 171.78223 180.12451 184.29199 195.12451 205.12939 213.47168 223.47656 232.63916 242.64404 246.81152"
         y="0"
         sodipodi:role="line"
         id="tspan8">Add in a request handler to DELETE a</tspan></text>
    <text
       id="text9"
       xml:space="preserve"
       transform="matrix(0.95474194,0,0,0.95474194,93.206682,61.103484)"
       clip-path="url(#clipPath10)"><tspan
         style="font-variant:normal;font-weight:normal;font-size:15px;font-family:Helvetica;writing-mode:lr-tb;fill:#000000;fill-opacity:1;fill-rule:nonzero;stroke:none"
         x="0 8.3422852 16.68457 21.679688 25.847168 29.179688 36.679688 45.021973 48.354492 56.696777 61.691895 65.859375 78.354492 86.696777 94.196777 101.69678 110.03906 118.38135"
         y="0"
         sodipodi:role="line"
         id="tspan9">particular message</tspan></text>
    <text
       id="text10"
       xml:space="preserve"
       transform="matrix(0.95474194,0,0,0.95474194,137.79611,15.275871)"
       clip-path="url(#clipPath11)"><tspan
         style="font-variant:normal;font-weight:700;font-size:15px;font-family:Helvetica;writing-mode:lr-tb;fill:#000000;fill-opacity:1;fill-rule:nonzero;stroke:none"
         x="0 11.66748 20.830078 29.172363"
         y="0"
         sodipodi:role="line"
         id="tspan10">Goal</tspan></text>
    <path
       id="path12"
       d="m 31,104 h 260 v 40 H 31 Z"
       style="fill:#f5f5f5;fill-opacity:1;fill-rule:nonzero;stroke:#666666;stroke-width:1;stroke-linecap:butt;stroke-linejoin:miter;stroke-miterlimit:10;stroke-dasharray:none;stroke-opacity:1"
       transform="matrix(0.95473241,0,0,0.95473241,0.4773662,0.4773662)"
       clip-path="url(#clipPath13)" />
    <text
       id="text13"
       xml:space="preserve"
       transform="matrix(0.95474194,0,0,0.95474194,53.793741,124.11645)"
       clip-path="url(#clipPath14)"><tspan
         style="font-variant:normal;font-weight:normal;font-size:15px;font-family:Helvetica;writing-mode:lr-tb;fill:#333333;fill-opacity:1;fill-rule:nonzero;stroke:none"
         x="0 10.83252 20.837402 29.179688 39.18457 48.347168 58.352051 62.519531 70.861816 75.029297 79.196777 87.539062 91.706543 95.874023 100.0415 103.37402 111.71631 119.21631 127.55859 130.89111 139.2334 147.57568 155.07568 159.24316 163.41064 171.75293 180.09521 188.4375 196.77979 200.94727"
         y="0"
         sodipodi:role="line"
         id="tspan13">DELETE http://localhost:3000/5</tspan></text>
    <text
       id="text14"
       xml:space="preserve"
       transform="matrix(0.95474194,0,0,0.95474194,86.762174,150.84923)"
       clip-path="url(#clipPath15)"><tspan
         style="font-style:oblique;font-variant:normal;font-weight:normal;font-size:11px;font-family:Helvetica;writing-mode:lr-tb;fill:#000000;fill-opacity:1;fill-rule:nonzero;stroke:none"
         x="0 7.9438477 14.061523 16.505371 22.623047 25.679199 31.796875 34.853027 37.90918 44.026855 50.144531 53.200684 62.36377 68.481445 73.981445 79.481445 85.599121 91.716797 97.834473 100.89062 108.83447 111.27832 114.33447 120.45215 123.5083 125.95215 132.06982 135.12598"
         y="0"
         sodipodi:role="line"
         id="tspan14">Delete the message with id 5</tspan></text>
  </g>
</svg>
