<?xml version="1.0" encoding="UTF-8" standalone="no"?>
<!-- Created with Inkscape (http://www.inkscape.org/) -->

<svg
   version="1.1"
   id="svg1"
   width="336"
   height="201.27998"
   viewBox="0 0 336 201.27998"
   sodipodi:docname="nest-16.pdf"
   xmlns:inkscape="http://www.inkscape.org/namespaces/inkscape"
   xmlns:sodipodi="http://sodipodi.sourceforge.net/DTD/sodipodi-0.dtd"
   xmlns="http://www.w3.org/2000/svg"
   xmlns:svg="http://www.w3.org/2000/svg">
  <defs
     id="defs1">
    <clipPath
       clipPathUnits="userSpaceOnUse"
       id="clipPath2">
      <path
         d="M 0,0 H 1050 V 628.20514 H 0 Z"
         transform="scale(0.33428572)"
         clip-rule="evenodd"
         id="path2" />
    </clipPath>
    <clipPath
       clipPathUnits="userSpaceOnUse"
       id="clipPath4">
      <path
         d="M 0,0 H 1050 V 625.21368 H 0 Z"
         transform="matrix(0.33428572,0,0,0.33428572,-0.50000001,-0.50000001)"
         clip-rule="evenodd"
         id="path4" />
    </clipPath>
    <clipPath
       clipPathUnits="userSpaceOnUse"
       id="clipPath5">
      <path
         d="M 0,0 H 1050 V 625.21368 H 0 Z"
         transform="matrix(0.33428236,0,0,0.33428236,-92.546875,-27)"
         clip-rule="evenodd"
         id="path5" />
    </clipPath>
    <clipPath
       clipPathUnits="userSpaceOnUse"
       id="clipPath7">
      <path
         d="M 0,0 H 1050 V 625.21368 H 0 Z"
         transform="matrix(0.33428572,0,0,0.33428572,-0.50000001,-0.50000001)"
         clip-rule="evenodd"
         id="path7" />
    </clipPath>
    <clipPath
       clipPathUnits="userSpaceOnUse"
       id="clipPath8">
      <path
         d="M 0,0 H 1050 V 625.21368 H 0 Z"
         transform="matrix(0.33428236,0,0,0.33428236,-65.28125,-67)"
         clip-rule="evenodd"
         id="path8" />
    </clipPath>
    <clipPath
       clipPathUnits="userSpaceOnUse"
       id="clipPath10">
      <path
         d="M 0,0 H 1050 V 625.21368 H 0 Z"
         transform="matrix(0.33428572,0,0,0.33428572,-0.50000001,-0.50000001)"
         clip-rule="evenodd"
         id="path10" />
    </clipPath>
    <clipPath
       clipPathUnits="userSpaceOnUse"
       id="clipPath11">
      <path
         d="M 0,0 H 1050 V 625.21368 H 0 Z"
         transform="matrix(0.33428236,0,0,0.33428236,-25.34375,-100)"
         clip-rule="evenodd"
         id="path11" />
    </clipPath>
    <clipPath
       clipPathUnits="userSpaceOnUse"
       id="clipPath12">
      <path
         d="M 0,0 H 1050 V 625.21368 H 0 Z"
         transform="matrix(0.33428236,0,0,0.33428236,-128.57812,-114)"
         clip-rule="evenodd"
         id="path12" />
    </clipPath>
    <clipPath
       clipPathUnits="userSpaceOnUse"
       id="clipPath14">
      <path
         d="M 0,0 H 1050 V 625.21368 H 0 Z"
         transform="matrix(0.33428572,0,0,0.33428572,-0.50000001,-0.50000001)"
         clip-rule="evenodd"
         id="path14" />
    </clipPath>
    <clipPath
       clipPathUnits="userSpaceOnUse"
       id="clipPath15">
      <path
         d="M 0,0 H 1050 V 625.21368 H 0 Z"
         transform="matrix(0.33428236,0,0,0.33428236,-65.28125,-147)"
         clip-rule="evenodd"
         id="path15" />
    </clipPath>
    <clipPath
       clipPathUnits="userSpaceOnUse"
       id="clipPath17">
      <path
         d="M 0,0 H 1050 V 625.21368 H 0 Z"
         transform="matrix(0.33428572,0,0,0.33428572,-0.50000001,-0.50000001)"
         clip-rule="evenodd"
         id="path17" />
    </clipPath>
    <clipPath
       clipPathUnits="userSpaceOnUse"
       id="clipPath19">
      <path
         d="M 0,0 H 1050 V 625.21368 H 0 Z"
         transform="matrix(0.33428572,0,0,0.33428572,-0.50000001,-0.50000001)"
         clip-rule="evenodd"
         id="path19" />
    </clipPath>
    <clipPath
       clipPathUnits="userSpaceOnUse"
       id="clipPath21">
      <path
         d="M 0,0 H 1050 V 625.21368 H 0 Z"
         transform="matrix(0.33428572,0,0,0.33428572,-0.50000001,-0.50000001)"
         clip-rule="evenodd"
         id="path21" />
    </clipPath>
    <clipPath
       clipPathUnits="userSpaceOnUse"
       id="clipPath22">
      <path
         d="M 0,0 H 1050 V 625.21368 H 0 Z"
         transform="matrix(0.33428236,0,0,0.33428236,-83.015625,-187)"
         clip-rule="evenodd"
         id="path22" />
    </clipPath>
  </defs>
  <sodipodi:namedview
     id="namedview1"
     pagecolor="#ffffff"
     bordercolor="#000000"
     borderopacity="0.25"
     inkscape:showpageshadow="2"
     inkscape:pageopacity="0.0"
     inkscape:pagecheckerboard="0"
     inkscape:deskcolor="#d1d1d1">
    <inkscape:page
       x="0"
       y="0"
       inkscape:label="1"
       id="page1"
       width="336"
       height="201.27998"
       margin="0"
       bleed="0" />
  </sodipodi:namedview>
  <g
     id="g1"
     inkscape:groupmode="layer"
     inkscape:label="1">
    <path
       id="path1"
       d="M 0,0 H 351 V 210 H 0 Z"
       style="fill:#ffffff;fill-opacity:1;fill-rule:nonzero;stroke:none"
       transform="scale(0.95726489)"
       clip-path="url(#clipPath2)" />
    <path
       id="path3"
       d="M 18,8 H 348 V 38 H 18 Z"
       style="fill:#ffffff;fill-opacity:1;fill-rule:nonzero;stroke:#000000;stroke-width:1;stroke-linecap:butt;stroke-linejoin:miter;stroke-miterlimit:10;stroke-dasharray:none;stroke-opacity:1"
       transform="matrix(0.95726489,0,0,0.95726489,0.47863245,0.47863245)"
       clip-path="url(#clipPath4)" />
    <text
       id="text4"
       xml:space="preserve"
       transform="matrix(0.95727452,0,0,0.95727452,88.592765,25.846412)"
       clip-path="url(#clipPath5)"><tspan
         style="font-variant:normal;font-weight:normal;font-size:11px;font-family:Helvetica;writing-mode:lr-tb;fill:#000000;fill-opacity:1;fill-rule:nonzero;stroke:none"
         x="0 7.3369141 13.45459 19.572266 22.628418 28.746094 31.802246 33.902344 37.56543 43.683105 52.846191 58.963867 64.463867 70.581543 72.681641 75.737793 84.900879 91.018555 94.074707 100.19238 106.31006 112.42773 115.48389 118.54004 124.65771 127.71387 130.77002 136.8877 143.00537 146.06152 151.56152 157.6792 161.34229 166.84229 169.28613 174.78613"
         y="0"
         sodipodi:role="line"
         id="tspan4">Add a 'remove' method to the service</tspan></text>
    <path
       id="path6"
       d="M 18,48 H 348 V 78 H 18 Z"
       style="fill:#ffffff;fill-opacity:1;fill-rule:nonzero;stroke:#000000;stroke-width:1;stroke-linecap:butt;stroke-linejoin:miter;stroke-miterlimit:10;stroke-dasharray:none;stroke-opacity:1"
       transform="matrix(0.95726489,0,0,0.95726489,0.47863245,0.47863245)"
       clip-path="url(#clipPath7)" />
    <g
       id="g7" />
    <text
       id="text7"
       xml:space="preserve"
       transform="matrix(0.95727452,0,0,0.95727452,62.492077,64.137393)"
       clip-path="url(#clipPath8)"><tspan
         style="font-variant:normal;font-weight:normal;font-size:11px;font-family:Helvetica;writing-mode:lr-tb;fill:#000000;fill-opacity:1;fill-rule:nonzero;stroke:none"
         x="0 8.5561523 14.673828 20.791504 26.90918 29.965332 33.021484 39.13916 45.256836 48.312988 57.476074 63.59375 69.09375 74.59375 80.711426 86.829102 92.946777 98.446777 101.50293 103.94678 109.44678 115.56445 121.68213 124.73828 130.23828 132.68213 138.7998 141.85596 144.91211 151.02979 157.14746 160.81055 166.31055 172.42822 175.48438 178.54053 184.6582 190.77588 193.83203 199.33203 205.44971 211.56738 214.62354 220.74121 226.85889 229.91504"
         y="0"
         sodipodi:role="line"
         id="tspan7">Open the messages.json ﬁle, parse the contents</tspan></text>
    <path
       id="path9"
       d="m 18,88 h 330 v 30 H 18 Z"
       style="fill:#ffffff;fill-opacity:1;fill-rule:nonzero;stroke:#000000;stroke-width:1;stroke-linecap:butt;stroke-linejoin:miter;stroke-miterlimit:10;stroke-dasharray:none;stroke-opacity:1"
       transform="matrix(0.95726489,0,0,0.95726489,0.47863245,0.47863245)"
       clip-path="url(#clipPath10)" />
    <text
       id="text10"
       xml:space="preserve"
       transform="matrix(0.95727452,0,0,0.95727452,24.260926,95.727452)"
       clip-path="url(#clipPath11)"><tspan
         style="font-variant:normal;font-weight:normal;font-size:11px;font-family:Helvetica;writing-mode:lr-tb;fill:#000000;fill-opacity:1;fill-rule:nonzero;stroke:none"
         x="0 7.9438477 14.061523 16.505371 22.623047 25.679199 31.796875 34.853027 37.90918 44.026855 50.144531 53.200684 59.318359 65.436035 71.553711 75.216797 81.334473 87.452148 91.115234 93.559082 99.676758 102.73291 108.85059 111.90674 117.40674 123.52441 128.21338 131.26953 134.32568 139.82568 142.88184 146.54492 148.98877 155.10645 161.22412 163.66797 166.72412 172.22412 175.28027 178.33643 184.4541 190.57178 193.62793 197.29102 203.40869 208.90869 215.02637 217.47021 220.52637 223.58252 229.7002 235.81787 241.93555 244.9917 252.93555 256.59863 259.04248 262.09863 268.21631 271.27246 273.71631 276.77246 279.82861 285.94629 292.06396 297.56396 303.06396 306.12012 309.17627"
         y="0"
         sodipodi:role="line"
         id="tspan10">Delete the appropriate key, stringify the result and write it back to</tspan></text>
    <g
       id="g11" />
    <text
       id="text11"
       xml:space="preserve"
       transform="matrix(0.95727452,0,0,0.95727452,123.08456,109.1293)"
       clip-path="url(#clipPath12)"><tspan
         style="font-variant:normal;font-weight:normal;font-size:11px;font-family:Helvetica;writing-mode:lr-tb;fill:#000000;fill-opacity:1;fill-rule:nonzero;stroke:none"
         x="0 3.0561523 9.1738281 15.291504 18.347656 27.510742 33.628418 39.128418 44.628418 50.746094 56.86377 62.981445 68.481445 71.537598 73.981445 79.481445 85.599121 91.716797 94.772949 100.27295 102.7168"
         y="0"
         sodipodi:role="line"
         id="tspan11">the messages.json ﬁle</tspan></text>
    <path
       id="path13"
       d="m 18,128 h 330 v 30 H 18 Z"
       style="fill:#ffffff;fill-opacity:1;fill-rule:nonzero;stroke:#000000;stroke-width:1;stroke-linecap:butt;stroke-linejoin:miter;stroke-miterlimit:10;stroke-dasharray:none;stroke-opacity:1"
       transform="matrix(0.95726489,0,0,0.95726489,0.47863245,0.47863245)"
       clip-path="url(#clipPath14)" />
    <text
       id="text14"
       xml:space="preserve"
       transform="matrix(0.95727452,0,0,0.95727452,62.492077,140.71935)"
       clip-path="url(#clipPath15)"><tspan
         style="font-variant:normal;font-weight:normal;font-size:11px;font-family:Helvetica;writing-mode:lr-tb;fill:#000000;fill-opacity:1;fill-rule:nonzero;stroke:none"
         x="0 7.3369141 13.45459 16.510742 19.566895 25.68457 31.802246 34.858398 40.976074 44.032227 50.149902 56.267578 64.211426 67.267578 70.930664 77.04834 83.166016 89.283691 95.401367 100.90137 103.95752 107.01367 113.13135 119.24902 125.3667 131.48438 133.92822 140.0459 143.70898 146.76514 149.82129 155.93896 158.99512 164.49512 170.61279 173.05664 175.50049 178.55664 181.61279 187.73047 190.17432 195.67432 198.73047 207.89355 214.01123 217.06738 223.18506 229.30273"
         y="0"
         sodipodi:role="line"
         id="tspan14">Set up a new request handler to call this method</tspan></text>
    <path
       id="path16"
       d="M 8,8 V 191.63"
       style="fill:none;stroke:#000000;stroke-width:1;stroke-linecap:butt;stroke-linejoin:miter;stroke-miterlimit:10;stroke-dasharray:none;stroke-opacity:1"
       transform="matrix(0.95726489,0,0,0.95726489,0.47863245,0.47863245)"
       clip-path="url(#clipPath17)" />
    <path
       id="path18"
       d="m 8,196.88 -3.5,-7 3.5,1.75 3.5,-1.75 z"
       style="fill:#000000;fill-opacity:1;fill-rule:nonzero;stroke:#000000;stroke-width:1;stroke-linecap:butt;stroke-linejoin:miter;stroke-miterlimit:10;stroke-dasharray:none;stroke-opacity:1"
       transform="matrix(0.95726489,0,0,0.95726489,0.47863245,0.47863245)"
       clip-path="url(#clipPath19)" />
    <path
       id="path20"
       d="m 18,168 h 330 v 30 H 18 Z"
       style="fill:#ffffff;fill-opacity:1;fill-rule:nonzero;stroke:#000000;stroke-width:1;stroke-linecap:butt;stroke-linejoin:miter;stroke-miterlimit:10;stroke-dasharray:none;stroke-opacity:1"
       transform="matrix(0.95726489,0,0,0.95726489,0.47863245,0.47863245)"
       clip-path="url(#clipPath21)" />
    <text
       id="text21"
       xml:space="preserve"
       transform="matrix(0.95727452,0,0,0.95727452,79.468743,179.01034)"
       clip-path="url(#clipPath22)"><tspan
         style="font-variant:normal;font-weight:normal;font-size:11px;font-family:Helvetica;writing-mode:lr-tb;fill:#000000;fill-opacity:1;fill-rule:nonzero;stroke:none"
         x="0 7.9438477 14.061523 19.561523 25.679199 31.796875 37.914551 43.414551 49.532227 52.588379 58.088379 64.206055 70.32373 73.379883 78.879883 84.997559 91.115234 94.171387 100.28906 102.73291 108.85059 111.90674 118.02441 124.14209 129.64209 132.69824 138.81592 144.93359 147.98975 154.10742 157.16357 162.66357 168.78125 174.89893 177.95508 185.89893 188.34277 193.84277"
         y="0"
         sodipodi:role="line"
         id="tspan21">Response can contain any data you wish</tspan></text>
  </g>
</svg>
